g 3D_Coral_002_01
v 0.089564204 0.04018214 1.1145599
v 0.09356445 0.07936426 1.1836231
v 0.41342407 0.07955346 1.4071798
v -0.3480249 0.07939601 1.081684
v 0.4482849 0.036224004 1.329349
v 0.5256848 -0.13585179 0.799895
v -0.35286787 -0.06316837 0.7655873
v 0.78787476 0.076661006 1.4564209
v 0.81321406 0.037707154 1.359364
v 1.4157445 0.0742605 1.213869
v 1.3064746 0.047136486 1.1267691
v 1.8060144 0.07314357 0.929714
v -0.7883577 -0.019984774 0.7843803
v -0.7697253 0.08092311 1.1296868
v -0.35922486 -0.17703155 -0.09800507
v 0.5572143 -0.17703155 -0.10196015
v -1.3866247 -0.002831743 0.39003387
v -1.1860092 0.009559286 0.93479264
v -1.1257653 0.07812708 1.2705798
v -1.7302258 0.07251613 1.0234917
v -1.9850549 0.072296426 0.47771698
v -1.410885 0.009340515 -0.0175531
v -2.0022657 0.07238311 -0.019320065
v -1.3389355 0.009437578 -0.384483
v -1.7230749 0.07319307 -0.49371305
v -1.0629247 0.009692111 -0.7752719
v -1.2858056 0.07410069 -0.9941556
v -0.7309155 0.009618266 -0.94381744
v -0.8771948 0.07596044 -1.2161105
v -0.36682495 0.009437606 -1.0348446
v -0.37820557 0.07381751 -1.4222445
v 0.07450439 0.009521226 -1.0959988
v 0.063674316 0.07412268 -1.4564205
v 0.6164148 0.009439437 -1.020026
v 0.64451414 0.073439695 -1.4080789
v 0.94497436 0.009585299 -0.7558548
v 1.0749549 0.075636335 -1.0481216
v 1.3493652 0.04712558 -0.8117947
v 1.4610852 0.07426853 -0.89556545
v 1.4468542 0.009537069 -0.48226318
v 1.6614844 0.047131673 -0.48237
v 1.7931945 0.07426424 -0.5289252
v 1.4857641 0.009340519 -0.09194916
v 1.8238745 0.04866364 -0.06894898
v 1.976765 0.07299225 -0.08810211
v 1.8473144 0.0488394 0.33579895
v 2.0022643 0.07284147 0.35171294
v 1.4745446 -0.0028317412 0.34914184
v 1.6650745 0.048484154 0.871759
v 1.3814441 0.009356349 0.81091183
v -1.1860092 0.15799312 0.93479264
v -0.7697253 0.08092311 1.1296868
v -1.1257653 0.07812708 1.2705798
v -1.7302258 0.07251613 1.0234917
v -1.3866552 0.17703153 0.39004087
v -1.9850549 0.072296426 0.47771698
v -0.7883577 0.15817899 0.7843803
v -0.35923582 0.17595062 -0.09800506
v -1.4109155 0.17703155 -0.017561028
v -0.35286787 0.15620068 0.7655873
v -2.0022657 0.07238311 -0.019320065
v -1.7230749 0.07319307 -0.49371305
v -0.3480249 0.07939601 1.081684
v 0.5572241 0.17594756 -0.10196013
v 0.5256848 0.17594326 0.7999008
v -1.3389856 0.17050143 -0.384512
v -1.2858056 0.07410069 -0.9941556
v 0.089464106 0.12823023 1.1149051
v 0.09356445 0.07936426 1.1836231
v 0.41342407 0.07955346 1.4071798
v 0.4482141 0.132214 1.3296468
v 0.78787476 0.076661006 1.4564209
v -1.0629748 0.15485446 -0.77533174
v -0.73093504 0.15884311 -0.94388396
v -0.8771948 0.07596044 -1.2161105
v -0.37820557 0.07381751 -1.4222445
v -0.36683592 0.1705045 -1.0348996
v 0.063674316 0.07412268 -1.4564205
v 0.07449463 0.16494055 -1.0960598
v 0.64451414 0.073439695 -1.4080789
v 0.6164551 0.17033054 -1.02009
v 1.0749549 0.075636335 -1.0481216
v 0.9450049 0.16080052 -0.75590545
v 1.349475 0.13384922 -0.81197476
v 1.4610852 0.07426853 -0.89556545
v 1.4469141 0.16390719 -0.48230588
v 1.6616552 0.13385408 -0.48247406
v 1.7931945 0.07426424 -0.5289252
v 1.4858044 0.17703032 -0.09195617
v 1.8240343 0.13522063 -0.06898406
v 1.976765 0.07299225 -0.08810211
v 2.0022643 0.07284147 0.35171294
v 1.8474743 0.13538054 0.3358209
v 1.8060144 0.07314357 0.929714
v 1.4745849 0.17703031 0.34914795
v 1.6652148 0.13505642 0.87187195
v 1.4157445 0.0742605 1.213869
v 1.3814844 0.17588711 0.81095
v 1.3065747 0.1338583 1.1269559
v 0.8132849 0.13318506 1.359645
vt 0.26879156 0.6991199
vt 0.26645994 0.69908667
vt 0.2625803 0.7071248
vt 0.26860806 0.68900484
vt 0.26496753 0.7078729
vt 0.27847698 0.70898414
vt 0.27814415 0.6891641
vt 0.26225376 0.7159154
vt 0.26488653 0.7162809
vt 0.2685529 0.7299833
vt 0.27056757 0.7273656
vt 0.27528676 0.73875254
vt 0.27798373 0.6791688
vt 0.26860574 0.6793538
vt 0.29822382 0.68927926
vt 0.29847464 0.7094247
vt 0.28725114 0.66545445
vt 0.27508393 0.6698111
vt 0.2665125 0.67094797
vt 0.27282283 0.6573179
vt 0.28534675 0.6516386
vt 0.29664543 0.6648088
vt 0.2967297 0.6512773
vt 0.30503467 0.6665387
vt 0.30763602 0.657591
vt 0.31398603 0.6728121
vt 0.31916445 0.6674947
vt 0.31800127 0.68031853
vt 0.3244854 0.6767661
vt 0.32029685 0.6885974
vt 0.3293401 0.6881965
vt 0.3218217 0.6986975
vt 0.3302666 0.698399
vt 0.32008508 0.7111168
vt 0.32911468 0.711748
vt 0.3141525 0.71872765
vt 0.321126 0.72187716
vt 0.3153166 0.72801733
vt 0.31730258 0.7306615
vt 0.30760068 0.73011875
vt 0.30771187 0.7351421
vt 0.3088436 0.73825234
vt 0.29868612 0.7312483
vt 0.29824328 0.7389888
vt 0.29871655 0.7425434
vt 0.28890747 0.73956573
vt 0.28856662 0.7431703
vt 0.28854474 0.7309628
vt 0.27659836 0.7354483
vt 0.2779246 0.72888386
vt 0.23585138 0.6676909
vt 0.2413873 0.6772994
vt 0.24404223 0.6687275
vt 0.23783025 0.65424067
vt 0.22281094 0.6631171
vt 0.2248618 0.64829236
vt 0.2326606 0.6769548
vt 0.21181707 0.68722314
vt 0.21342908 0.66265035
vt 0.23245803 0.6871532
vt 0.21305345 0.64805305
vt 0.20184733 0.65470296
vt 0.24087323 0.6870579
vt 0.21186711 0.7086221
vt 0.23275425 0.707744
vt 0.20497553 0.66440487
vt 0.19023539 0.66522324
vt 0.24058025 0.69738036
vt 0.24334583 0.69716
vt 0.24776272 0.70503104
vt 0.24512799 0.70598143
vt 0.24882537 0.71406305
vt 0.1959375 0.6708929
vt 0.19210547 0.6786927
vt 0.18500774 0.67494345
vt 0.18030217 0.6868428
vt 0.19011445 0.68722695
vt 0.17954704 0.6973689
vt 0.18875514 0.6975306
vt 0.18089995 0.71114993
vt 0.19063844 0.71016484
vt 0.1891707 0.7214677
vt 0.19672188 0.7178655
vt 0.19553974 0.72739846
vt 0.19306476 0.7304851
vt 0.20324032 0.7295078
vt 0.20320955 0.734645
vt 0.20177807 0.7383485
vt 0.21224725 0.73030895
vt 0.21281782 0.7383627
vt 0.21225876 0.7426429
vt 0.22271153 0.74313974
vt 0.22219315 0.73881984
vt 0.23633261 0.73828745
vt 0.22239856 0.7299689
vt 0.23454866 0.7344402
vt 0.24309902 0.7289747
vt 0.23300122 0.7277135
vt 0.24043036 0.72604275
vt 0.2457339 0.71448797
vn -0.14817008 -0.9017045 0.40617067
vn -0.21709919 -0.8643873 0.4535444
vn -0.16782913 -0.8909909 0.42186317
vn -0.06890359 -0.92061144 0.3843524
vn -0.1288397 -0.9209422 0.36778507
vn 0.02071758 -0.9836264 0.17902477
vn -0.0658064 -0.9684876 0.2402108
vn 0.017876448 -0.93016875 0.36669666
vn 0.06387104 -0.95020074 0.30502287
vn 0.11780487 -0.9720721 0.20297244
vn 0.12970372 -0.9698658 0.20624562
vn 0.13488749 -0.9864312 0.093588896
vn -0.04389533 -0.9803398 0.19237208
vn 0.021475442 -0.95822936 0.2851937
vn -0.072284445 -0.9966666 -0.037822228
vn 0.071693935 -0.9958014 -0.056916866
vn -0.1191035 -0.9922604 0.03512408
vn -0.042620674 -0.98870367 0.1436962
vn -0.000665216 -0.9741086 0.22607982
vn -0.10350184 -0.9901541 0.09424636
vn -0.11367445 -0.99325883 0.02269646
vn -0.14572695 -0.9889048 -0.02882845
vn -0.118767545 -0.99257976 -0.026068842
vn -0.14856489 -0.98572147 -0.07925717
vn -0.13117795 -0.9883533 -0.07713638
vn -0.12169601 -0.9813896 -0.14854153
vn -0.122549266 -0.981153 -0.1494008
vn -0.075074315 -0.9800259 -0.1841548
vn -0.080961786 -0.9796708 -0.18354915
vn -0.040140893 -0.9820156 -0.1844835
vn -0.037787765 -0.9840829 -0.17364593
vn 3.756636E-05 -0.98368824 -0.17988168
vn -0.00030214278 -0.98558205 -0.16919783
vn 0.080403894 -0.9812387 -0.17523076
vn 0.060981777 -0.9844923 -0.16448742
vn 0.11576453 -0.97643274 -0.18214712
vn 0.10181532 -0.97924864 -0.17523019
vn 0.09934673 -0.98078156 -0.16792196
vn 0.12636907 -0.97719824 -0.17062952
vn 0.14419779 -0.98420745 -0.102677666
vn 0.15173362 -0.9843242 -0.08990398
vn 0.15867591 -0.9826203 -0.09632971
vn 0.16403823 -0.9861813 -0.023194574
vn 0.14694957 -0.9886386 -0.031615768
vn 0.15871154 -0.9866939 -0.035297338
vn 0.14254369 -0.9896339 0.017491207
vn 0.1524821 -0.9880987 0.020249879
vn 0.15268296 -0.9880272 0.02213952
vn 0.12703638 -0.9870248 0.09820258
vn 0.14221247 -0.9849043 0.09868706
vn -0.036379203 0.9881952 0.14881812
vn 0.05368715 0.9739734 0.22021244
vn -0.0017226947 0.9730376 0.23063968
vn -0.14235781 0.98248637 0.12022853
vn -0.08512438 0.99584335 0.03240333
vn -0.16298153 0.98574096 0.04185605
vn 0.027315427 0.9930119 0.11481004
vn -0.0029861315 0.9999956 -6.113015E-05
vn -0.09907103 0.9947383 -0.026088458
vn -0.0168101 0.9938129 0.109787904
vn -0.18098098 0.9830095 -0.030631235
vn -0.1924277 0.9740751 -0.11895154
vn -0.056016162 0.96626395 0.25138837
vn -0.00091721484 0.99998987 -0.004400567
vn -0.010789537 0.99882 0.047351427
vn -0.108547434 0.9903526 -0.086135045
vn -0.1623053 0.9671173 -0.19580884
vn -0.12444609 0.94150615 0.31317595
vn -0.25085863 0.8104469 0.52938247
vn -0.19416757 0.8383659 0.509354
vn -0.11952359 0.9356442 0.3320903
vn 0.042347495 0.8658704 0.4984728
vn -0.09436033 0.98746765 -0.12650585
vn -0.07069378 0.98891896 -0.13054341
vn -0.110779695 0.966064 -0.23334168
vn -0.05186291 0.96890354 -0.24194223
vn -0.03538486 0.9910875 -0.1284271
vn 0.0007361992 0.9700926 -0.24273388
vn 0.001373935 0.99064106 -0.13648583
vn 0.08463163 0.96891105 -0.23248418
vn 0.07229937 0.98814607 -0.13542564
vn 0.12661108 0.9582633 -0.25632223
vn 0.05900568 0.9925914 -0.10621082
vn 0.13065276 0.9606423 -0.24514517
vn 0.20675173 0.932711 -0.29547238
vn 0.10046007 0.99046856 -0.094233036
vn 0.25143433 0.954014 -0.16321178
vn 0.34071332 0.91759837 -0.20476285
vn 0.0641388 0.99769247 -0.022271423
vn 0.2595407 0.9639906 -0.057971947
vn 0.3695302 0.9257674 -0.080014065
vn 0.3685433 0.9283337 0.048706662
vn 0.2603802 0.9648568 0.035403
vn 0.3184458 0.9229571 0.21619986
vn 0.062818736 0.9979747 0.010015174
vn 0.2308986 0.95551604 0.18350747
vn 0.18558088 0.92523825 0.33089858
vn 0.07101532 0.9928423 0.0960259
vn 0.119123444 0.95773965 0.26180968
vn 0.063697465 0.94641423 0.3166112
g 3D_Coral_002_01_0
f 3/3/3 2/2/2 1/1/1
f 2/2/2 4/4/4 1/1/1
f 5/5/5 3/3/3 1/1/1
f 1/1/1 6/6/6 5/5/5
f 7/7/7 6/6/6 1/1/1
f 4/4/4 7/7/7 1/1/1
f 8/8/8 3/3/3 5/5/5
f 9/9/9 8/8/8 5/5/5
f 9/9/9 5/5/5 6/6/6
f 10/10/10 8/8/8 9/9/9
f 11/11/11 10/10/10 9/9/9
f 11/11/11 9/9/9 6/6/6
f 12/12/12 10/10/10 11/11/11
f 7/7/7 4/4/4 13/13/13
f 4/4/4 14/14/14 13/13/13
f 6/6/6 7/7/7 15/15/15
f 7/7/7 13/13/13 15/15/15
f 16/16/16 6/6/6 15/15/15
f 15/15/15 13/13/13 17/17/17
f 13/13/13 14/14/14 18/18/18
f 13/13/13 18/18/18 17/17/17
f 14/14/14 19/19/19 18/18/18
f 18/18/18 19/19/19 20/20/20
f 18/18/18 20/20/20 17/17/17
f 20/20/20 21/21/21 17/17/17
f 17/17/17 21/21/21 22/22/22
f 22/22/22 15/15/15 17/17/17
f 21/21/21 23/23/23 22/22/22
f 22/22/22 23/23/23 24/24/24
f 22/22/22 24/24/24 15/15/15
f 23/23/23 25/25/25 24/24/24
f 24/24/24 25/25/25 26/26/26
f 24/24/24 26/26/26 15/15/15
f 25/25/25 27/27/27 26/26/26
f 26/26/26 27/27/27 28/28/28
f 15/15/15 26/26/26 28/28/28
f 27/27/27 29/29/29 28/28/28
f 30/30/30 28/28/28 29/29/29
f 30/30/30 15/15/15 28/28/28
f 31/31/31 30/30/30 29/29/29
f 15/15/15 30/30/30 32/32/32
f 32/32/32 30/30/30 31/31/31
f 33/33/33 32/32/32 31/31/31
f 16/16/16 15/15/15 32/32/32
f 34/34/34 32/32/32 33/33/33
f 34/34/34 16/16/16 32/32/32
f 35/35/35 34/34/34 33/33/33
f 36/36/36 34/34/34 35/35/35
f 34/34/34 36/36/36 16/16/16
f 37/37/37 36/36/36 35/35/35
f 37/37/37 38/38/38 36/36/36
f 38/38/38 37/37/37 39/39/39
f 36/36/36 38/38/38 40/40/40
f 16/16/16 36/36/36 40/40/40
f 39/39/39 41/41/41 38/38/38
f 41/41/41 40/40/40 38/38/38
f 41/41/41 39/39/39 42/42/42
f 43/43/43 16/16/16 40/40/40
f 40/40/40 41/41/41 43/43/43
f 41/41/41 42/42/42 44/44/44
f 41/41/41 44/44/44 43/43/43
f 42/42/42 45/45/45 44/44/44
f 44/44/44 45/45/45 46/46/46
f 43/43/43 44/44/44 46/46/46
f 45/45/45 47/47/47 46/46/46
f 48/48/48 16/16/16 43/43/43
f 48/48/48 43/43/43 46/46/46
f 6/6/6 16/16/16 48/48/48
f 46/46/46 47/47/47 49/49/49
f 48/48/48 46/46/46 49/49/49
f 47/47/47 12/12/12 49/49/49
f 49/49/49 12/12/12 11/11/11
f 50/50/50 6/6/6 48/48/48
f 50/50/50 11/11/11 6/6/6
f 50/50/50 48/48/48 49/49/49
f 11/11/11 50/50/50 49/49/49
f 53/53/53 52/52/52 51/51/51
f 54/54/54 53/53/53 51/51/51
f 51/51/51 55/55/55 54/54/54
f 55/55/55 56/56/56 54/54/54
f 52/52/52 57/57/57 51/51/51
f 51/51/51 57/57/57 55/55/55
f 57/57/57 58/58/58 55/55/55
f 58/58/58 59/59/59 55/55/55
f 55/55/55 59/59/59 56/56/56
f 60/60/60 58/58/58 57/57/57
f 57/57/57 52/52/52 60/60/60
f 59/59/59 61/61/61 56/56/56
f 61/61/61 59/59/59 62/62/62
f 52/52/52 63/63/63 60/60/60
f 64/64/64 58/58/58 60/60/60
f 65/65/65 64/64/64 60/60/60
f 59/59/59 66/66/66 62/62/62
f 59/59/59 58/58/58 66/66/66
f 62/62/62 66/66/66 67/67/67
f 63/63/63 68/68/68 60/60/60
f 60/60/60 68/68/68 65/65/65
f 68/68/68 63/63/63 69/69/69
f 69/69/69 70/70/70 68/68/68
f 70/70/70 71/71/71 68/68/68
f 65/65/65 68/68/68 71/71/71
f 70/70/70 72/72/72 71/71/71
f 66/66/66 73/73/73 67/67/67
f 66/66/66 58/58/58 73/73/73
f 73/73/73 74/74/74 67/67/67
f 73/73/73 58/58/58 74/74/74
f 74/74/74 75/75/75 67/67/67
f 76/76/76 75/75/75 74/74/74
f 77/77/77 76/76/76 74/74/74
f 58/58/58 77/77/77 74/74/74
f 78/78/78 76/76/76 77/77/77
f 77/77/77 58/58/58 79/79/79
f 79/79/79 78/78/78 77/77/77
f 80/80/80 78/78/78 79/79/79
f 58/58/58 64/64/64 79/79/79
f 81/81/81 80/80/80 79/79/79
f 64/64/64 81/81/81 79/79/79
f 82/82/82 80/80/80 81/81/81
f 83/83/83 82/82/82 81/81/81
f 83/83/83 81/81/81 64/64/64
f 84/84/84 82/82/82 83/83/83
f 82/82/82 84/84/84 85/85/85
f 84/84/84 83/83/83 86/86/86
f 86/86/86 83/83/83 64/64/64
f 87/87/87 85/85/85 84/84/84
f 86/86/86 87/87/87 84/84/84
f 85/85/85 87/87/87 88/88/88
f 89/89/89 86/86/86 64/64/64
f 87/87/87 86/86/86 89/89/89
f 88/88/88 87/87/87 90/90/90
f 90/90/90 87/87/87 89/89/89
f 91/91/91 88/88/88 90/90/90
f 92/92/92 91/91/91 90/90/90
f 93/93/93 92/92/92 90/90/90
f 93/93/93 90/90/90 89/89/89
f 94/94/94 92/92/92 93/93/93
f 95/95/95 89/89/89 64/64/64
f 95/95/95 93/93/93 89/89/89
f 65/65/65 95/95/95 64/64/64
f 96/96/96 94/94/94 93/93/93
f 96/96/96 93/93/93 95/95/95
f 96/96/96 97/97/97 94/94/94
f 98/98/98 96/96/96 95/95/95
f 98/98/98 95/95/95 65/65/65
f 97/97/97 96/96/96 99/99/99
f 96/96/96 98/98/98 99/99/99
f 98/98/98 65/65/65 99/99/99
f 72/72/72 97/97/97 99/99/99
f 65/65/65 100/100/100 99/99/99
f 100/100/100 72/72/72 99/99/99
f 71/71/71 100/100/100 65/65/65
f 72/72/72 100/100/100 71/71/71
