g A003_BB03
v -20.664629 3.175613 11.830917
v -21.08166 2.9547064 12.324903
v -21.208368 2.9547093 12.117973
v 20.266424 3.1756148 11.711889
v 20.810772 2.9547064 11.967153
v 20.699854 2.9547057 12.203574
v -20.69621 3.1756532 -16.196144
v -21.240557 2.9547398 -16.451414
v -21.129648 2.954744 -16.68783
v 20.234844 3.175651 -16.18808
v 20.651855 2.9547439 -16.682066
v 20.778564 2.9547396 -16.47514
v 20.707764 2.3243105 12.425244
v -21.07376 2.3237827 12.397963
v 20.699854 2.9547057 12.203574
v -21.08166 2.9547064 12.324903
v 20.699854 2.9547057 12.203574
v -21.07376 2.3237827 12.397963
v -21.327187 2.3237853 11.9841
v -21.359365 2.3243487 -16.436665
v -21.208368 2.9547093 12.117973
v -21.240557 2.9547398 -16.451414
v -21.208368 2.9547093 12.117973
v -21.359365 2.3243487 -16.436665
v -21.07376 2.3237827 12.397963
v -21.327187 2.3237853 11.9841
v -21.08166 2.9547064 12.324903
v -21.208368 2.9547093 12.117973
v 20.92957 2.3243108 11.952402
v 20.707764 2.3243105 12.425244
v 20.810772 2.9547064 11.967153
v 20.699854 2.9547057 12.203574
v -21.359365 2.3243487 -16.436665
v -21.137548 2.3243494 -16.909492
v -21.240557 2.9547398 -16.451414
v -21.129648 2.954744 -16.68783
v 20.643946 2.3243484 -16.903732
v 20.897373 2.3243477 -16.48988
v 20.651855 2.9547439 -16.682066
v 20.778564 2.9547396 -16.47514
v 20.699854 2.9547057 12.203574
v -21.08166 2.9547064 12.324903
v 20.266424 3.1756148 11.711889
v -20.664629 3.175613 11.830917
v 20.778564 2.9547396 -16.47514
v 20.810772 2.9547064 11.967153
v 20.234844 3.175651 -16.18808
v 20.266424 3.1756148 11.711889
v -21.129648 2.954744 -16.68783
v 20.651855 2.9547439 -16.682066
v -20.69621 3.1756532 -16.196144
v 20.234844 3.175651 -16.18808
v -21.208368 2.9547093 12.117973
v -21.240557 2.9547398 -16.451414
v -20.664629 3.175613 11.830917
v -20.69621 3.1756532 -16.196144
v 20.897373 2.3243477 -16.48988
v 20.92957 2.3243108 11.952402
v 20.778564 2.9547396 -16.47514
v 20.810772 2.9547064 11.967153
v -21.137548 2.3243494 -16.909492
v 20.643946 2.3243484 -16.903732
v -21.129648 2.954744 -16.68783
v 20.651855 2.9547439 -16.682066
v -21.072422 -4.058805 12.43474
v -21.32586 -4.058801 12.020872
v -21.07376 2.3237827 12.397963
v -21.327187 2.3237853 11.9841
v -21.07376 2.3237827 12.397963
v -21.32586 -4.058801 12.020872
v -21.137548 2.3243494 -16.909492
v -21.359365 2.3243487 -16.436665
v -21.137558 -4.0587554 -16.909512
v -21.359365 -4.058756 -16.436684
v -21.137558 -4.0587554 -16.909512
v -21.359365 2.3243487 -16.436665
v -21.32586 -4.058801 12.020872
v -21.072422 -4.058805 12.43474
v -21.088232 -4.921703 11.991381
v 20.930878 -4.058802 11.989175
v 20.693262 -4.9217024 12.018686
v 20.709063 -4.0588055 12.462026
v -21.137558 -4.0587554 -16.909512
v -21.359365 -4.058756 -16.436684
v -21.121748 -4.9216557 -16.466175
v 20.643946 -4.0587554 -16.90375
v 20.659765 -4.9216557 -16.460413
v 20.897373 -4.058756 -16.489904
v -21.07376 2.3237827 12.397963
v 20.707764 2.3243105 12.425244
v -21.072422 -4.058805 12.43474
v 20.709063 -4.0588055 12.462026
v 20.92957 2.3243108 11.952402
v 20.897373 2.3243477 -16.48988
v 20.930878 -4.058802 11.989175
v 20.897373 -4.058756 -16.489904
v 20.643946 2.3243484 -16.903732
v -21.137548 2.3243494 -16.909492
v 20.643946 -4.0587554 -16.90375
v -21.137558 -4.0587554 -16.909512
v -21.359365 2.3243487 -16.436665
v -21.327187 2.3237853 11.9841
v -21.359365 -4.058756 -16.436684
v -21.32586 -4.058801 12.020872
v 20.707764 2.3243105 12.425244
v 20.92957 2.3243108 11.952402
v 20.709063 -4.0588055 12.462026
v 20.930878 -4.058802 11.989175
v 20.897373 2.3243477 -16.48988
v 20.643946 2.3243484 -16.903732
v 20.897373 -4.058756 -16.489904
v 20.643946 -4.0587554 -16.90375
v -21.121748 -4.9216557 -16.466175
v -21.359365 -4.058756 -16.436684
v -21.088232 -4.921703 11.991381
v -21.32586 -4.058801 12.020872
v 20.659765 -4.9216557 -16.460413
v 20.643946 -4.0587554 -16.90375
v -21.121748 -4.9216557 -16.466175
v -21.137558 -4.0587554 -16.909512
v 20.693262 -4.9217024 12.018686
v 20.930878 -4.058802 11.989175
v 20.659765 -4.9216557 -16.460413
v 20.897373 -4.058756 -16.489904
v -21.088232 -4.921703 11.991381
v -21.072422 -4.058805 12.43474
v 20.693262 -4.9217024 12.018686
v 20.709063 -4.0588055 12.462026
v 20.693262 -4.9217024 12.018686
v 20.659765 -4.9216557 -16.460413
v -21.088232 -4.921703 11.991381
v -21.121748 -4.9216557 -16.466175
v -20.69621 3.1756532 -16.196144
v 20.234844 3.175651 -16.18808
v -20.664629 3.175613 11.830917
v 20.266424 3.1756148 11.711889
vt 0.027616777 0.94019496
vt 0.027616777 0.610418
vt 0.027616777 0.610418
vt 0.027616777 0.94019496
vt 0.027616777 0.610418
vt 0.027616777 0.610418
vt 0.027616777 0.94019496
vt 0.027616777 0.610418
vt 0.027616777 0.610418
vt 0.027616777 0.94019496
vt 0.027616777 0.610418
vt 0.027616777 0.610418
vt 0.027616777 0.0066668624
vt 2.6849563 0.0066668624
vt 0.027616777 0.610418
vt 2.6849563 0.610418
vt 0.027616777 0.610418
vt 2.6849563 0.0066668624
vt 0.027616777 0.0066668624
vt 2.6936438 0.0066668624
vt 0.027616777 0.610418
vt 2.6936438 0.610418
vt 0.027616777 0.610418
vt 2.6936438 0.0066668624
vt 0.027616777 0.0066668624
vt 0.027616777 0.0066668624
vt 0.027616777 0.610418
vt 0.027616777 0.610418
vt 0.027616777 0.0066668624
vt 0.027616777 0.0066668624
vt 0.027616777 0.610418
vt 0.027616777 0.610418
vt 0.027616777 0.0066668624
vt 0.027616777 0.0066668624
vt 0.027616777 0.610418
vt 0.027616777 0.610418
vt 0.027616777 0.0066668624
vt 0.027616777 0.0066668624
vt 0.027616777 0.610418
vt 0.027616777 0.610418
vt 0.027616777 0.610418
vt 2.6849563 0.610418
vt 0.027616777 0.94019496
vt 2.6849563 0.94019496
vt 0.027616777 0.610418
vt 2.6936438 0.610418
vt 0.027616777 0.94019496
vt 2.6936438 0.94019496
vt 0.027616777 0.610418
vt 2.6849563 0.610418
vt 0.027616777 0.94019496
vt 2.6849563 0.94019496
vt 0.027616777 0.610418
vt 2.6936438 0.610418
vt 0.027616777 0.94019496
vt 2.6936438 0.94019496
vt 0.027616777 0.0066668624
vt 2.6936438 0.0066668624
vt 0.027616777 0.610418
vt 2.6936438 0.610418
vt 0.027616777 0.0066668624
vt 2.6849563 0.0066668624
vt 0.027616777 0.610418
vt 2.6849563 0.610418
vt -14.572655 -4.842782
vt -14.616678 -4.849115
vt -14.576214 -4.249047
vt -14.620819 -4.25061
vt -14.576214 -4.249047
vt -14.616678 -4.849115
vt -4.1168838 -4.2484245
vt -4.07814 -4.250009
vt -4.1231256 -4.8447375
vt -4.084879 -4.8492336
vt -4.1231256 -4.8447375
vt -4.07814 -4.250009
vt -14.616678 -4.849115
vt -14.572655 -4.842782
vt -14.574862 -4.9310083
vt -10.674735 -4.8196774
vt -10.696381 -4.903837
vt -10.713698 -4.816375
vt -4.1231256 -4.8447375
vt -4.084879 -4.8492336
vt -4.1126432 -4.9328794
vt -7.983385 -4.817191
vt -8.008284 -4.9038906
vt -8.018203 -4.819238
vt -14.576214 -4.249047
vt -10.712165 -4.2199936
vt -14.572655 -4.842782
vt -10.713698 -4.816375
vt -10.66751 -4.221034
vt -8.014796 -4.222036
vt -10.674735 -4.8196774
vt -8.018203 -4.819238
vt -7.9769526 -4.2212834
vt -4.1168838 -4.2484245
vt -7.983385 -4.817191
vt -4.1231256 -4.8447375
vt -4.07814 -4.250009
vt -1.4252481 -4.251698
vt -4.084879 -4.8492336
vt -1.424417 -4.849069
vt -10.712165 -4.2199936
vt -10.66751 -4.221034
vt -10.713698 -4.816375
vt -10.674735 -4.8196774
vt -8.014796 -4.222036
vt -7.9769526 -4.2212834
vt -8.018203 -4.819238
vt -7.983385 -4.817191
vt -4.1126432 -4.9328794
vt -4.084879 -4.8492336
vt -1.4324837 -4.9328895
vt -1.424417 -4.849069
vt -8.008284 -4.9038906
vt -7.983385 -4.817191
vt -4.1126432 -4.9328794
vt -4.1231256 -4.8447375
vt -10.696381 -4.903837
vt -10.674735 -4.8196774
vt -8.008284 -4.9038906
vt -8.018203 -4.819238
vt -14.574862 -4.9310083
vt -14.572655 -4.842782
vt -10.696381 -4.903837
vt -10.713698 -4.816375
vt 6.3050423 -12.736367
vt 6.308193 -10.072864
vt 10.172576 -12.733802
vt 10.17573 -10.072311
vt 10.995079 -2.4808235
vt 7.207082 -2.480057
vt 10.992108 0.14040375
vt 7.2041106 0.12928343
vn -0.28886348 0.94088596 0.1768941
vn -0.28886348 0.94088596 0.1768941
vn -0.28886345 0.94088596 0.1768941
vn 0.31223068 0.9386445 0.14648688
vn 0.31223068 0.9386445 0.14648688
vn 0.31223068 0.9386445 0.14648688
vn -0.31224746 0.9386422 -0.14646553
vn -0.31224748 0.9386422 -0.14646551
vn -0.31224746 0.9386422 -0.14646553
vn 0.28889164 0.94087994 -0.17688014
vn 0.2888916 0.94087994 -0.1768801
vn 0.2888916 0.94087994 -0.1768801
vn -0.0006201749 0.3317184 0.94337827
vn -0.00062017486 0.3317184 0.94337827
vn -0.0006201749 0.33171842 0.94337827
vn 0.0028845726 0.115065455 0.9933537
vn 0.0028845728 0.115065455 0.9933537
vn 0.0028845726 0.115065455 0.9933537
vn -0.9827675 0.18484218 0.0011163445
vn -0.9827675 0.18484218 0.0011163446
vn -0.9827675 0.1848422 0.0011163446
vn -0.9826941 0.18523233 0.0011073434
vn -0.9826941 0.18523231 0.0011073432
vn -0.9826941 0.18523233 0.0011073432
vn -0.85175675 0.049731825 0.5215718
vn -0.8517568 0.04973183 0.5215718
vn -0.85175675 0.049731825 0.5215718
vn -0.85176253 0.04973946 0.5215618
vn 0.8938749 0.15864018 0.41931027
vn 0.89387476 0.15864016 0.41931027
vn 0.8938749 0.15864018 0.41931027
vn 0.8938482 0.15867591 0.4193535
vn -0.89386094 0.15865351 -0.4193349
vn -0.89386094 0.1586535 -0.4193349
vn -0.89386094 0.15865351 -0.4193349
vn -0.8938642 0.15864901 -0.4193294
vn 0.84033424 0.17040165 -0.5145888
vn 0.84033436 0.17040168 -0.5145888
vn 0.84033436 0.17040166 -0.5145888
vn 0.8403432 0.17041053 -0.5145713
vn 0.0011875652 0.9125539 0.40895477
vn 0.001187565 0.9125538 0.40895474
vn 0.0011875652 0.9125539 0.40895474
vn 0.0011895418 0.91250247 0.40906954
vn 0.37622103 0.92652977 -0.00042493563
vn 0.37622103 0.92652977 -0.00042493563
vn 0.37622103 0.9265299 -0.00042493566
vn 0.37620836 0.926535 -0.00042463545
vn 5.655186E-05 0.9121449 -0.40986773
vn 5.655186E-05 0.9121449 -0.40986776
vn 5.6551853E-05 0.9121449 -0.40986773
vn 8.0464066E-05 0.9129026 -0.40817747
vn -0.37619787 0.9265392 0.00042483045
vn -0.37619787 0.9265392 0.00042483048
vn -0.3761979 0.9265392 0.00042483048
vn -0.37621647 0.92653173 0.00042526767
vn 0.9826941 0.18523224 -0.0011121901
vn 0.9826941 0.18523225 -0.0011121902
vn 0.9826941 0.18523224 -0.0011121901
vn 0.98269707 0.18521652 -0.0011125542
vn 0.00013004415 0.33171427 -0.94337994
vn 0.00013004414 0.3317143 -0.9433798
vn 0.00013004415 0.33171427 -0.94337994
vn 0.00013015044 0.3317206 -0.9433776
vn -0.8528025 0.002830376 0.52222586
vn -0.8528025 0.0028303764 0.5222259
vn -0.8528025 0.002830376 0.52222586
vn -0.8528087 0.002831222 0.52221566
vn -0.8528087 0.002831222 0.52221566
vn -0.8528087 0.002831222 0.52221566
vn -0.9053274 2.6846324E-06 -0.42471427
vn -0.9053274 2.6846324E-06 -0.42471433
vn -0.9053274 2.6846324E-06 -0.42471433
vn -0.90533465 1.2995092E-06 -0.42469904
vn -0.90533453 1.2995092E-06 -0.424699
vn -0.90533465 1.2995092E-06 -0.42469898
vn -0.82681715 -0.24499467 0.5063112
vn -0.82681715 -0.24499464 0.5063112
vn -0.82681715 -0.24499461 0.5063112
vn 0.8813714 -0.22856326 0.41345292
vn 0.8813714 -0.22856328 0.41345295
vn 0.8813714 -0.22856326 0.41345292
vn -0.88136756 -0.22857215 -0.41345614
vn -0.88136756 -0.22857215 -0.41345614
vn -0.88136756 -0.22857215 -0.41345614
vn 0.8268166 -0.24497661 -0.5063208
vn 0.8268166 -0.24497661 -0.5063208
vn 0.8268166 -0.24497661 -0.5063207
vn -0.0006530177 0.005761903 0.9999832
vn -0.00065301766 0.005761903 0.9999832
vn -0.00065301766 0.0057619032 0.9999832
vn -0.00065306237 0.0057621947 0.9999832
vn 0.9999994 0.00019848713 -0.0011320201
vn 0.9999994 0.00019848713 -0.0011320201
vn 0.9999994 0.00019848713 -0.0011320201
vn 0.9999993 0 -0.0011765069
vn 0.00013784278 2.6773566E-06 -1
vn 0.0001378428 2.6773566E-06 -1
vn 0.00013784278 2.6773566E-06 -1
vn 0.00013790118 3.0596243E-06 -1
vn -0.9999994 0 0.0011321901
vn -0.9999994 0 0.0011321901
vn -0.9999994 0 0.0011321902
vn -0.9999993 -0.00020130214 0.0011773964
vn 0.9053365 0.0026314417 0.4246867
vn 0.9053365 0.0026314417 0.4246867
vn 0.9053365 0.0026314417 0.42468676
vn 0.9053327 0.0026322254 0.42469493
vn 0.8528067 1.9974102E-06 -0.5222268
vn 0.85280675 1.99741E-06 -0.52222675
vn 0.8528067 1.99741E-06 -0.52222675
vn 0.8528025 1.398205E-06 -0.52223355
vn -0.9641034 -0.26552448 0.0011350255
vn -0.9641034 -0.26552448 0.0011350255
vn -0.9641034 -0.26552445 0.0011350254
vn -0.9641008 -0.26553407 0.0011347082
vn 0.00012268533 -0.45698753 -0.8894731
vn 0.00012268533 -0.45698753 -0.8894731
vn 0.00012268533 -0.45698753 -0.8894731
vn 0.00012265946 -0.45698658 -0.88947356
vn 0.9641035 -0.26552442 -0.0011343764
vn 0.9641035 -0.26552442 -0.0011343763
vn 0.9641035 -0.2655244 -0.0011343763
vn 0.9641063 -0.26551434 -0.0011347082
vn -0.00058129604 -0.4569998 0.88946664
vn -0.0005812959 -0.45699978 0.88946664
vn -0.000581296 -0.45699984 0.8894666
vn -0.00058089884 -0.45698443 0.8894746
vn -0 -1 -1.6288172E-06
vn -0 -1 -1.6288171E-06
vn -0 -1 -1.6288171E-06
vn -0 -1 -1.65148E-06
vn -0 1 1.4372382E-06
vn -0 1 1.4372382E-06
vn -0 1 1.4372384E-06
vn -0 1 1.3016936E-06
g A003_BB03_0
f 3/3/3 2/2/2 1/1/1
f 6/6/6 5/5/5 4/4/4
f 9/9/9 8/8/8 7/7/7
f 12/12/12 11/11/11 10/10/10
f 15/15/15 14/14/14 13/13/13
f 18/18/18 17/17/17 16/16/16
f 21/21/21 20/20/20 19/19/19
f 24/24/24 23/23/23 22/22/22
f 27/27/27 26/26/26 25/25/25
f 26/26/26 27/27/27 28/28/28
f 31/31/31 30/30/30 29/29/29
f 30/30/30 31/31/31 32/32/32
f 35/35/35 34/34/34 33/33/33
f 34/34/34 35/35/35 36/36/36
f 39/39/39 38/38/38 37/37/37
f 38/38/38 39/39/39 40/40/40
f 43/43/43 42/42/42 41/41/41
f 42/42/42 43/43/43 44/44/44
f 47/47/47 46/46/46 45/45/45
f 46/46/46 47/47/47 48/48/48
f 51/51/51 50/50/50 49/49/49
f 50/50/50 51/51/51 52/52/52
f 55/55/55 54/54/54 53/53/53
f 54/54/54 55/55/55 56/56/56
f 59/59/59 58/58/58 57/57/57
f 58/58/58 59/59/59 60/60/60
f 63/63/63 62/62/62 61/61/61
f 62/62/62 63/63/63 64/64/64
g A003_BB03_1
f 67/67/67 66/66/66 65/65/65
f 70/70/70 69/69/69 68/68/68
f 73/73/73 72/72/72 71/71/71
f 76/76/76 75/75/75 74/74/74
f 79/79/79 78/78/78 77/77/77
f 82/82/82 81/81/81 80/80/80
f 85/85/85 84/84/84 83/83/83
f 88/88/88 87/87/87 86/86/86
f 91/91/91 90/90/90 89/89/89
f 90/90/90 91/91/91 92/92/92
f 95/95/95 94/94/94 93/93/93
f 94/94/94 95/95/95 96/96/96
f 99/99/99 98/98/98 97/97/97
f 98/98/98 99/99/99 100/100/100
f 103/103/103 102/102/102 101/101/101
f 102/102/102 103/103/103 104/104/104
f 107/107/107 106/106/106 105/105/105
f 106/106/106 107/107/107 108/108/108
f 111/111/111 110/110/110 109/109/109
f 110/110/110 111/111/111 112/112/112
f 115/115/115 114/114/114 113/113/113
f 114/114/114 115/115/115 116/116/116
f 119/119/119 118/118/118 117/117/117
f 118/118/118 119/119/119 120/120/120
f 123/123/123 122/122/122 121/121/121
f 122/122/122 123/123/123 124/124/124
f 127/127/127 126/126/126 125/125/125
f 126/126/126 127/127/127 128/128/128
g A003_BB03_2
f 131/131/131 130/130/130 129/129/129
f 130/130/130 131/131/131 132/132/132
g A003_BB03_3
f 135/135/135 134/134/134 133/133/133
f 134/134/134 135/135/135 136/136/136
