g bbg006_apbg_001_a002
v -3224.0923 -0.0029296875 0.9194336
v -3224.0923 -0.0029296875 -2148.6167
v -1074.5562 -0.0029296875 -2148.6167
v -1074.5562 -0.0029296875 0.9194336
v -1074.5562 0.0031738281 2148.6167
v -3224.0923 0.0031738281 2148.6167
v -3224.0923 0.0031738281 -0.91918945
v -1074.5562 0.0031738281 -0.91918945
v -1074.7715 -0.0029296875 0.9194336
v -1074.7651 -0.0029296875 -2148.6167
v 1074.771 -0.0029296875 -2148.6167
v 1074.7649 -0.0029296875 0.9194336
v 1074.7649 0.0031738281 2148.6167
v -1074.7715 0.0031738281 2148.6167
v -1074.7651 0.0031738281 -0.91918945
v 1074.771 0.0031738281 -0.91918945
v 1074.5557 -0.0029296875 0.9194336
v 1074.5557 -0.0029296875 -2148.6167
v 3224.0918 -0.0029296875 -2148.6104
v 3224.0918 -0.0029296875 0.9255371
v 3224.0918 0.0031738281 2148.6167
v 1074.5557 0.0031738281 2148.6167
v 1074.5557 0.0031738281 -0.91918945
v 3224.0918 0.0031738281 -0.91918945
vt 0 0.006988632
vt 0 1
vt 1 1
vt 1 0.006988632
vt 1 1
vt 0 1
vt 0 0.0070038913
vt 1 0.0070038913
vt 0 0.006988632
vt 0 1
vt 1 1
vt 1 0.006988632
vt 1 1
vt 0 1
vt 0 0.0070038913
vt 1 0.0070038913
vt 0 0.006988632
vt 0 1
vt 1 1
vt 1 0.006988632
vt 1 1
vt 0 1
vt 0 0.0070038913
vt 1 0.0070038913
vn -0 1 -0
vn -0 1 -0
vn -0 1 -0
vn -0 1 -0
vn -0 1 -0
vn -0 1 -0
vn -0 1 -0
vn -0 1 -0
vn -0 1 -0
vn -0 1 -0
vn -0 1 -0
vn -0 1 -0
vn -0 1 -0
vn -0 1 -0
vn -0 1 -0
vn -0 1 -0
vn -0 1 -0
vn -0 1 -0
vn -0 1 -0
vn -0 1 -0
vn -0 1 -0
vn -0 1 -0
vn -0 1 -0
vn -0 1 -0
g bbg006_apbg_001_a002_0
f 3/3/3 2/2/2 1/1/1
f 4/4/4 3/3/3 1/1/1
f 7/7/7 6/6/6 5/5/5
f 8/8/8 7/7/7 5/5/5
g bbg006_apbg_001_a002_1
f 11/11/11 10/10/10 9/9/9
f 12/12/12 11/11/11 9/9/9
f 15/15/15 14/14/14 13/13/13
f 16/16/16 15/15/15 13/13/13
g bbg006_apbg_001_a002_2
f 19/19/19 18/18/18 17/17/17
f 20/20/20 19/19/19 17/17/17
f 23/23/23 22/22/22 21/21/21
f 24/24/24 23/23/23 21/21/21
