g c220_00_weapon_skin
v 0.061800063 -0.40209448 0.2091096
v 0.061800063 -0.3032835 -0.0032923222
v 0.061800063 -0.40209448 0.033066154
v 0.061800063 -0.30706322 0.2091096
v 0.061800063 -0.21203199 -0.0032388568
v 0.061800063 -0.21203199 -0.06449926
v 0.061800063 -0.37661883 -0.21654895
v 0.061800063 -0.28045502 -0.26849902
v 0.061800063 -0.08532417 -0.0032388568
v 0.061800063 0.1985017 0.049622357
v 0.061800063 0.1985017 -0.04042524
v 0.061800063 -0.08532417 -0.07843804
v 0.061800063 0.8945096 0.20887923
v 0.061800063 0.8945542 0.049622357
v 0.028962672 -0.2969265 0.23199755
v 0.028962672 0.8945022 0.23199755
v 0.061800063 -0.28045502 -0.26849902
v -0.061799824 -0.37661883 -0.21654895
v 0.061800063 -0.37661883 -0.21654895
v -0.061799824 -0.28045502 -0.26849902
v 0.061800063 -0.21203199 -0.06449926
v -0.061799824 -0.28045502 -0.26849902
v 0.061800063 -0.28045502 -0.26849902
v -0.061799824 -0.21203199 -0.06449926
v 0.061800063 -0.21203199 -0.0032388568
v -0.061799824 -0.21203199 -0.0032388568
v -0.061799824 -0.3032835 -0.0032923222
v 0.061800063 -0.37661883 -0.21654895
v -0.061799824 -0.37661883 -0.21654895
v 0.061800063 -0.3032835 -0.0032923222
v -0.061799824 -0.40209448 0.033066154
v 0.061800063 -0.40209448 0.033066154
v -0.061799824 -0.40209448 0.2091096
v 0.061800063 -0.40209448 0.2091096
v 0.061800063 0.8945542 0.049622357
v -0.061799824 0.1985017 0.049622357
v 0.061800063 0.1985017 0.049622357
v -0.061799824 0.8945542 0.049622357
v 0.061800063 0.8945096 0.20887923
v -0.061799824 0.8945542 0.049622357
v 0.061800063 0.8945542 0.049622357
v -0.061799824 0.8945096 0.20887923
v 0.028962672 0.8945022 0.23199755
v -0.028962433 0.8945022 0.23199755
v 0.028962672 -0.2969265 0.23199755
v -0.028962433 0.8945022 0.23199755
v 0.028962672 0.8945022 0.23199755
v -0.028962433 -0.2969265 0.23199755
v 0.061800063 -0.30706322 0.2091096
v -0.061799824 -0.30706322 0.2091096
v 0.061800063 -0.40209448 0.2091096
v -0.061799824 -0.40209448 0.2091096
v -0.061799824 -0.08532417 -0.0032388568
v 0.061800063 -0.08532417 -0.07843804
v -0.061799824 -0.08532417 -0.07843804
v 0.061800063 -0.08532417 -0.0032388568
v -0.061799824 -0.21203199 -0.0032388568
v 0.061800063 -0.21203199 -0.0032388568
v 0.061800063 0.1985017 -0.04042524
v -0.061799824 -0.08532417 -0.07843804
v 0.061800063 -0.08532417 -0.07843804
v -0.061799824 0.1985017 -0.04042524
v 0.061800063 0.1985017 0.049622357
v -0.061799824 0.1985017 0.049622357
v -0.028962433 -0.2969265 0.23199755
v -0.061799824 0.8945096 0.20887923
v -0.028962433 0.8945022 0.23199755
v -0.061799824 -0.30706322 0.2091096
v -0.061799824 0.1985017 0.049622357
v -0.061799824 0.8945542 0.049622357
v -0.061799824 -0.08532417 -0.0032388568
v -0.061799824 -0.08532417 -0.07843804
v -0.061799824 0.1985017 -0.04042524
v -0.061799824 -0.21203199 -0.0032388568
v -0.061799824 -0.3032835 -0.0032923222
v -0.061799824 -0.40209448 0.2091096
v -0.061799824 -0.40209448 0.033066154
v -0.061799824 -0.21203199 -0.06449926
v -0.061799824 -0.37661883 -0.21654895
v -0.061799824 -0.28045502 -0.26849902
v -0.05123055 0.8714672 0.129013
v 0.00077599287 0.92475635 0.16363841
v 0.00077599287 0.8714672 0.16363841
v -0.05123055 0.92475635 0.129013
v 0.00077599287 0.8714672 0.09438604
v 0.00077599287 0.92475635 0.09438604
v 0.052781045 0.92475635 0.129013
v 0.00077599287 0.8714672 0.16363841
v 0.00077599287 0.92475635 0.16363841
v 0.052781045 0.8714672 0.129013
v 0.00077599287 0.92475635 0.09438604
v 0.00077599287 0.8714672 0.09438604
v 0.00077599287 0.92475635 0.16363841
v 0.00077599287 0.92475635 0.09438604
v 0.052781045 0.92475635 0.129013
v -0.05123055 0.92475635 0.129013
v 0.041088104 -0.03083992 -0.056907117
v 0.041088104 0.1604904 -0.26469848
v 0.041088104 -0.03083992 -0.309046
v 0.041088104 0.1604904 -0.032896996
v 0.041088104 -0.03083992 -0.309046
v -0.040879786 -0.03083992 -0.056907117
v 0.041088104 -0.03083992 -0.056907117
v -0.040879786 -0.03083992 -0.309046
v 0.041088104 0.1604904 -0.26469848
v -0.040879786 -0.03083992 -0.309046
v 0.041088104 -0.03083992 -0.309046
v -0.040879786 0.1604904 -0.26469848
v 0.041088104 0.1604904 -0.032896996
v -0.040879786 0.1604904 -0.26469848
v 0.041088104 0.1604904 -0.26469848
v -0.040879786 0.1604904 -0.032896996
v -0.040879786 -0.03083992 -0.056907117
v -0.040879786 0.1604904 -0.26469848
v -0.040879786 0.1604904 -0.032896996
v -0.040879786 -0.03083992 -0.309046
v 0.044074178 -0.22335187 -0.07710779
v 0.055306315 -0.072570026 -0.0562011
v 0.044074178 -0.071935356 -0.070771575
v 0.055306315 -0.22525287 -0.061902642
v 0.044074178 -0.17251205 -0.047012627
v 0.055306315 -0.18803376 0.00430429
v 0.055306315 -0.16174215 -0.040677905
v 0.044074178 -0.20102128 -0.0001309514
v 0.055306315 -0.22525287 -0.061902642
v 0.03284347 -0.072570026 -0.0562011
v 0.055306315 -0.072570026 -0.0562011
v 0.03284347 -0.22525287 -0.061902642
v 0.055306315 -0.18803376 0.00430429
v 0.03284347 -0.16174215 -0.040677905
v 0.055306315 -0.16174215 -0.040677905
v 0.03284347 -0.18803376 0.00430429
v 0.03284347 -0.072570026 -0.0562011
v 0.044074178 -0.22335187 -0.07710779
v 0.044074178 -0.071935356 -0.070771575
v 0.03284347 -0.22525287 -0.061902642
v 0.03284347 -0.18803376 0.00430429
v 0.044074178 -0.17251205 -0.047012627
v 0.03284347 -0.16174215 -0.040677905
v 0.044074178 -0.20102128 -0.0001309514
v 0.025408864 -0.63376814 -0.057705283
v 0.04590088 -0.4913097 0.10177457
v 0.025408864 -0.53073305 -0.057705283
v 0.04590088 -0.63376814 0.1627006
v 0.04590088 -0.4895187 0.1627006
v -0.04472196 -0.4913097 0.10177457
v 0.04590088 -0.4895187 0.1627006
v -0.04472196 -0.4895187 0.1627006
v 0.04590088 -0.4913097 0.10177457
v -0.024231434 -0.53073305 -0.057705283
v 0.025408864 -0.53073305 -0.057705283
v 0.04590088 -0.63376814 0.1627006
v -0.04472196 -0.4895187 0.1627006
v 0.04590088 -0.4895187 0.1627006
v -0.04472196 -0.63376814 0.1627006
v 0.025408864 -0.63376814 -0.057705283
v -0.04472196 -0.63376814 0.1627006
v 0.04590088 -0.63376814 0.1627006
v -0.024231434 -0.63376814 -0.057705283
v 0.025408864 -0.53073305 -0.057705283
v -0.024231434 -0.63376814 -0.057705283
v 0.025408864 -0.63376814 -0.057705283
v -0.024231434 -0.53073305 -0.057705283
v -0.04472196 -0.4913097 0.10177457
v -0.04472196 -0.4895187 0.1627006
v -0.04472196 -0.63376814 0.1627006
v -0.024231434 -0.63376814 -0.057705283
v -0.024231434 -0.53073305 -0.057705283
v -0.020355105 -0.5008742 0.13631088
v 0.00077599287 -0.3865074 0.15038043
v 0.00077599287 -0.5008742 0.15038043
v -0.020355105 -0.3865074 0.13631088
v 0.00077599287 -0.5008742 0.12224126
v 0.00077599287 -0.3865074 0.12224126
v 0.021907091 -0.3865074 0.13631088
v 0.00077599287 -0.5008742 0.15038043
v 0.00077599287 -0.3865074 0.15038043
v 0.021907091 -0.5008742 0.13631088
v 0.00077599287 -0.3865074 0.12224126
v 0.00077599287 -0.5008742 0.12224126
vt 0.010293053 0.34220883
vt 0.18265566 0.24248812
vt 0.09613568 0.21963888
vt 0.07646248 0.38855454
vt 0.2461759 0.2870275
vt 0.27603942 0.24436963
vt 0.2355641 0.058249325
vt 0.3278641 0.068951435
vt 0.33439675 0.3488017
vt 0.50626266 0.52399415
vt 0.5501699 0.4612867
vt 0.3710639 0.29643515
vt 0.9132437 0.9742352
vt 0.99092805 0.86336076
vt 0.07236828 0.4094319
vt 0.9019697 0.990326
vt 0.3932207 0.21157092
vt 0.3085371 0.2840472
vt 0.3085371 0.21157092
vt 0.3932207 0.2840472
vt 0.8507621 0.3867031
vt 0.91014296 0.23949273
vt 0.8507621 0.23949273
vt 0.91014296 0.3867031
vt 0.8507621 0.4309114
vt 0.91014296 0.4309114
vt 0.9879327 0.39323577
vt 0.9269111 0.23508243
vt 0.9879327 0.23508243
vt 0.9269111 0.39323577
vt 0.9879327 0.47682056
vt 0.9269111 0.47682056
vt 0.9879327 0.60738325
vt 0.9269111 0.60738325
vt 0.99052167 0.1512568
vt 0.41330034 0.21950342
vt 0.41330034 0.1512568
vt 0.99052167 0.21950342
vt 0.92359966 0.7542023
vt 0.98803806 0.62951
vt 0.92359966 0.62951
vt 0.98803806 0.7542023
vt 0.940729 0.7723101
vt 0.9709237 0.7723101
vt 0.09067174 0.020965055
vt 0.988595 0.050030828
vt 0.988595 0.020965055
vt 0.09067174 0.050030828
vt 0.083025225 0.004482908
vt 0.083025225 0.06649792
vt 0.011406915 0.004482908
vt 0.011406915 0.06649792
vt 0.11671203 0.17726699
vt 0.15723252 0.11949668
vt 0.15723252 0.17726699
vt 0.11671203 0.11949668
vt 0.027783696 0.17726699
vt 0.027783696 0.11949668
vt 0.6559717 0.060326524
vt 0.42060062 0.12857315
vt 0.42060062 0.060326524
vt 0.6559717 0.12857315
vt 0.7629476 0.060326524
vt 0.7629476 0.12857315
vt 0.07236828 0.4094319
vt 0.9132437 0.9742352
vt 0.9019697 0.990326
vt 0.07646248 0.38855454
vt 0.50626266 0.52399415
vt 0.99092805 0.86336076
vt 0.33439675 0.3488017
vt 0.3710639 0.29643515
vt 0.5501699 0.4612867
vt 0.2461759 0.2870275
vt 0.18265566 0.24248812
vt 0.010293053 0.34220883
vt 0.09613568 0.21963888
vt 0.27603942 0.24436963
vt 0.2355641 0.058249325
vt 0.3278641 0.068951435
vt 0.7121164 0.9436341
vt 0.7697211 0.9810689
vt 0.7121164 0.9810689
vt 0.7697211 0.9436341
vt 0.7121164 0.90619934
vt 0.7697211 0.90619934
vt 0.7697211 0.9436341
vt 0.7121164 0.9810689
vt 0.7697211 0.9810689
vt 0.7121164 0.9436341
vt 0.7697211 0.90619934
vt 0.7121164 0.90619934
vt 0.6683898 0.9814753
vt 0.6683898 0.9056725
vt 0.6304884 0.9435739
vt 0.7063063 0.9435739
vt 0.6196207 0.5469337
vt 0.78293693 0.3879374
vt 0.6196207 0.35008115
vt 0.78293693 0.57073116
vt 0.57074624 0.34774804
vt 0.61366004 0.5460004
vt 0.57074624 0.5460004
vt 0.61366004 0.34774804
vt 0.7871967 0.2944332
vt 0.62083995 0.3418777
vt 0.62083995 0.2944332
vt 0.7871967 0.3418777
vt 0.79035765 0.5703549
vt 0.83327144 0.38810295
vt 0.79035765 0.38810295
vt 0.83327144 0.5703549
vt 0.6196207 0.5469337
vt 0.78293693 0.3879374
vt 0.78293693 0.57073116
vt 0.6196207 0.35008115
vt 0.43312407 0.23937231
vt 0.5994357 0.26243225
vt 0.6001281 0.24635652
vt 0.43101674 0.25614044
vt 0.48919347 0.28677163
vt 0.47207913 0.34336784
vt 0.50106966 0.29375586
vt 0.45774943 0.3384759
vt 0.59945077 0.27829725
vt 0.431378 0.2644342
vt 0.431378 0.27829725
vt 0.59945077 0.2644342
vt 0.5093032 0.34844044
vt 0.52503276 0.29360533
vt 0.5093032 0.29360533
vt 0.52503276 0.34844044
vt 0.5994357 0.26243225
vt 0.43312407 0.23937231
vt 0.6001281 0.24635652
vt 0.43101674 0.25614044
vt 0.47207913 0.34336784
vt 0.48919347 0.28677163
vt 0.50106966 0.29375586
vt 0.45774943 0.3384759
vt 0.100184724 0.6653643
vt 0.25340095 0.83689904
vt 0.21099894 0.6653643
vt 0.100184724 0.90242124
vt 0.2553276 0.90242124
vt 0.34270558 0.83586043
vt 0.2628537 0.9021352
vt 0.34270558 0.9021352
vt 0.2628537 0.83586043
vt 0.34270558 0.6623388
vt 0.2628537 0.6623388
vt 0.09977832 0.90722287
vt 0.25477067 0.98608124
vt 0.25477067 0.90722287
vt 0.09977832 0.98608124
vt 0.0109101925 0.6656804
vt 0.08999439 0.9031738
vt 0.0109101925 0.9031738
vt 0.08999439 0.6656804
vt 0.21087852 0.57833254
vt 0.1003503 0.6570705
vt 0.1003503 0.57833254
vt 0.21087852 0.6570705
vt 0.25340095 0.83689904
vt 0.2553276 0.90242124
vt 0.100184724 0.90242124
vt 0.100184724 0.6653643
vt 0.21099894 0.6653643
vt 0.63777363 0.25663716
vt 0.79663444 0.27618995
vt 0.63777363 0.27618995
vt 0.79663444 0.25663716
vt 0.63777363 0.23709942
vt 0.79663444 0.23709942
vt 0.79663444 0.25663716
vt 0.63777363 0.27618995
vt 0.79663444 0.27618995
vt 0.63777363 0.25663716
vt 0.79663444 0.23709942
vt 0.63777363 0.23709942
vn 0.5777123 -0.5777123 0.5766255
vn 0.90224785 -0.39002913 -0.1839188
vn 0.5972627 -0.65786874 -0.45878753
vn 0.794721 -0.12218958 0.59454876
vn 0.9042029 0.30205262 -0.30196252
vn 0.673509 0.73020494 -0.11483203
vn 0.5855324 -0.7536653 -0.29856393
vn 0.56793714 0.30205262 -0.7656446
vn 0.9042029 -0.30205262 -0.30196252
vn 0.9042029 0.30205262 -0.30196252
vn 0.5855324 0.61094785 -0.53281754
vn 0.56989217 -0.5405667 -0.6188784
vn 0.6989244 0.61681294 0.3620034
vn 0.5777123 0.5777123 -0.5766255
vn 0.21798623 -0.47605062 0.8519729
vn 0.23167145 0.6441835 0.7289417
vn 0.56793714 0.30205262 -0.7656446
vn -0.5855324 -0.7536653 -0.29856393
vn 0.5855324 -0.7536653 -0.29856393
vn -0.56793714 0.30205262 -0.7656446
vn 0.673509 0.73020494 -0.11483203
vn -0.56793714 0.30205262 -0.7656446
vn 0.56793714 0.30205262 -0.7656446
vn -0.673509 0.73020494 -0.11483203
vn 0.9042029 0.30205262 -0.30196252
vn -0.90420294 0.30205262 -0.30196232
vn -0.9022479 -0.39002913 -0.18391848
vn 0.5855324 -0.7536653 -0.29856393
vn -0.5855324 -0.7536653 -0.29856393
vn 0.90224785 -0.39002913 -0.1839188
vn -0.5972626 -0.65786874 -0.4587876
vn 0.5972627 -0.65786874 -0.45878753
vn -0.5777123 -0.5777123 0.5766255
vn 0.5777123 -0.5777123 0.5766255
vn 0.5777123 0.5777123 -0.5766255
vn -0.90420294 0.30205262 -0.30196232
vn 0.9042029 0.30205262 -0.30196252
vn -0.5777123 0.5777123 -0.5766255
vn 0.6989244 0.61681294 0.3620034
vn -0.5777123 0.5777123 -0.5766255
vn 0.5777123 0.5777123 -0.5766255
vn -0.6989244 0.61681294 0.3620034
vn 0.23167145 0.6441835 0.7289417
vn -0.23167145 0.6441835 0.7289417
vn 0.21798623 -0.47605062 0.8519729
vn -0.23167145 0.6441835 0.7289417
vn 0.23167145 0.6441835 0.7289417
vn -0.21798623 -0.47605062 0.8519729
vn 0.794721 -0.12218958 0.59454876
vn -0.794721 -0.12218958 0.59454876
vn 0.5777123 -0.5777123 0.5766255
vn -0.5777123 -0.5777123 0.5766255
vn -0.90420294 -0.30205262 -0.30196232
vn 0.56989217 -0.5405667 -0.6188784
vn -0.56989217 -0.5405667 -0.6188784
vn 0.9042029 -0.30205262 -0.30196252
vn -0.90420294 0.30205262 -0.30196232
vn 0.9042029 0.30205262 -0.30196252
vn 0.5855324 0.61094785 -0.53281754
vn -0.56989217 -0.5405667 -0.6188784
vn 0.56989217 -0.5405667 -0.6188784
vn -0.5855324 0.61094785 -0.53281754
vn 0.9042029 0.30205262 -0.30196252
vn -0.90420294 0.30205262 -0.30196232
vn -0.21798623 -0.47605062 0.8519729
vn -0.6989244 0.61681294 0.3620034
vn -0.23167145 0.6441835 0.7289417
vn -0.794721 -0.12218958 0.59454876
vn -0.90420294 0.30205262 -0.30196232
vn -0.5777123 0.5777123 -0.5766255
vn -0.90420294 -0.30205262 -0.30196232
vn -0.56989217 -0.5405667 -0.6188784
vn -0.5855324 0.61094785 -0.53281754
vn -0.90420294 0.30205262 -0.30196232
vn -0.9022479 -0.39002913 -0.18391848
vn -0.5777123 -0.5777123 0.5766255
vn -0.5972626 -0.65786874 -0.4587876
vn -0.673509 0.73020494 -0.11483203
vn -0.5855324 -0.7536653 -0.29856393
vn -0.56793714 0.30205262 -0.7656446
vn -0.9999995 0.0009775162 -0
vn -0.0009775162 0.6011727 0.7991186
vn -0.0009775162 0.0009775162 0.99999905
vn -0.82795656 0.560117 -0.027511084
vn -0.0009775162 0.0009775162 -0.99999905
vn -0.0009775162 0.6011727 -0.7991186
vn 0.8279566 0.560117 -0.027508918
vn -0.0009775162 0.0009775162 0.99999905
vn -0.0009775162 0.6011727 0.7991186
vn 0.9999995 0.0009775162 -0
vn -0.0009775162 0.6011727 -0.7991186
vn -0.0009775162 0.0009775162 -0.99999905
vn -0.0009775162 0.6011727 0.7991186
vn -0.0009775162 0.6011727 -0.7991186
vn 0.8279566 0.560117 -0.027508918
vn -0.82795656 0.560117 -0.027511084
vn 0.7339411 -0.6792131 -0
vn 0.5894425 0.6324533 -0.5025538
vn 0.5659821 -0.51319623 -0.6452084
vn 0.67718357 0.73581415 -0
vn 0.5659821 -0.51319623 -0.6452084
vn -0.7339411 -0.6792131 -0
vn 0.7339411 -0.6792131 -0
vn -0.5659821 -0.51319623 -0.6452084
vn 0.5894425 0.6324533 -0.5025538
vn -0.5659821 -0.51319623 -0.6452084
vn 0.5659821 -0.51319623 -0.6452084
vn -0.5894425 0.6324533 -0.5025538
vn 0.67718357 0.73581415 -0
vn -0.5894425 0.6324533 -0.5025538
vn 0.5894425 0.6324533 -0.5025538
vn -0.67718357 0.73581415 -0
vn -0.7339411 -0.6792131 -0
vn -0.5894425 0.6324533 -0.5025538
vn -0.67718357 0.73581415 -0
vn -0.5659821 -0.51319623 -0.6452084
vn -0.0009775162 0.03812313 -0.9992726
vn 0.8983378 -0.01270771 0.43912157
vn -0.0009775162 0.042033195 -0.9991157
vn 0.8709673 -0.018572807 0.49098977
vn -0.0009775162 -0.86119217 -0.50827855
vn 0.9452586 0.2883674 0.15274289
vn 0.91397804 0.35092843 0.2036992
vn -0.0009775162 -0.85532707 -0.5180875
vn 0.8709673 -0.018572807 0.49098977
vn -0.89833784 -0.01270771 0.43912143
vn 0.8983378 -0.01270771 0.43912157
vn -0.87096727 -0.018572807 0.4909899
vn 0.9452586 0.2883674 0.15274289
vn -0.9139781 0.35092843 0.20369905
vn 0.91397804 0.35092843 0.2036992
vn -0.9452586 0.2883674 0.15274289
vn -0.89833784 -0.01270771 0.43912143
vn -0.0009775162 0.03812313 -0.9992726
vn -0.0009775162 0.042033195 -0.9991157
vn -0.87096727 -0.018572807 0.4909899
vn -0.9452586 0.2883674 0.15274289
vn -0.0009775162 -0.86119217 -0.50827855
vn -0.9139781 0.35092843 0.20369905
vn -0.0009775162 -0.85532707 -0.5180875
vn 0.5405667 -0.5855324 -0.60410213
vn 0.6989244 0.70087945 -0.14238203
vn 0.5464318 0.499511 -0.6722359
vn 0.59530765 -0.5796673 0.5564122
vn 0.57575727 0.58748746 0.56864935
vn -0.6989244 0.70087945 -0.14238203
vn 0.57575727 0.58748746 0.56864935
vn -0.57575727 0.58748746 0.56864935
vn 0.6989244 0.70087945 -0.14238203
vn -0.5464318 0.499511 -0.6722359
vn 0.5464318 0.499511 -0.6722359
vn 0.59530765 -0.5796673 0.5564122
vn -0.57575727 0.58748746 0.56864935
vn 0.57575727 0.58748746 0.56864935
vn -0.5953076 -0.5796673 0.55641234
vn 0.5405667 -0.5855324 -0.60410213
vn -0.5953076 -0.5796673 0.55641234
vn 0.59530765 -0.5796673 0.5564122
vn -0.5405667 -0.5855324 -0.60410213
vn 0.5464318 0.499511 -0.6722359
vn -0.5405667 -0.5855324 -0.60410213
vn 0.5405667 -0.5855324 -0.60410213
vn -0.5464318 0.499511 -0.6722359
vn -0.6989244 0.70087945 -0.14238203
vn -0.57575727 0.58748746 0.56864935
vn -0.5953076 -0.5796673 0.55641234
vn -0.5405667 -0.5855324 -0.60410213
vn -0.5464318 0.499511 -0.6722359
vn -0.9999995 0.0009775162 -0
vn -0.0009775162 0.0009775162 0.99999905
vn -0.0009775162 0.0009775162 0.99999905
vn -0.9999995 0.0009775162 -0
vn -0.0009775162 0.0009775162 -0.99999905
vn -0.0009775162 0.0009775162 -0.99999905
vn 0.9999995 0.0009775162 -0
vn -0.0009775162 0.0009775162 0.99999905
vn -0.0009775162 0.0009775162 0.99999905
vn 0.9999995 0.0009775162 -0
vn -0.0009775162 0.0009775162 -0.99999905
vn -0.0009775162 0.0009775162 -0.99999905
g c220_00_weapon_skin_0
f 3/3/3 2/2/2 1/1/1
f 4/4/4 1/1/1 2/2/2
f 2/2/2 5/5/5 4/4/4
f 5/5/5 2/2/2 6/6/6
f 2/2/2 7/7/7 6/6/6
f 8/8/8 6/6/6 7/7/7
f 5/5/5 9/9/9 4/4/4
f 4/4/4 9/9/9 10/10/10
f 10/10/10 9/9/9 11/11/11
f 12/12/12 11/11/11 9/9/9
f 13/13/13 4/4/4 10/10/10
f 14/14/14 13/13/13 10/10/10
f 4/4/4 13/13/13 15/15/15
f 16/16/16 15/15/15 13/13/13
f 19/19/19 18/18/18 17/17/17
f 20/20/20 17/17/17 18/18/18
f 23/23/23 22/22/22 21/21/21
f 24/24/24 21/21/21 22/22/22
f 21/21/21 24/24/24 25/25/25
f 26/26/26 25/25/25 24/24/24
f 29/29/29 28/28/28 27/27/27
f 30/30/30 27/27/27 28/28/28
f 27/27/27 30/30/30 31/31/31
f 32/32/32 31/31/31 30/30/30
f 31/31/31 32/32/32 33/33/33
f 34/34/34 33/33/33 32/32/32
f 37/37/37 36/36/36 35/35/35
f 38/38/38 35/35/35 36/36/36
f 41/41/41 40/40/40 39/39/39
f 42/42/42 39/39/39 40/40/40
f 39/39/39 42/42/42 43/43/43
f 44/44/44 43/43/43 42/42/42
f 47/47/47 46/46/46 45/45/45
f 48/48/48 45/45/45 46/46/46
f 45/45/45 48/48/48 49/49/49
f 50/50/50 49/49/49 48/48/48
f 49/49/49 50/50/50 51/51/51
f 52/52/52 51/51/51 50/50/50
f 55/55/55 54/54/54 53/53/53
f 56/56/56 53/53/53 54/54/54
f 53/53/53 56/56/56 57/57/57
f 58/58/58 57/57/57 56/56/56
f 61/61/61 60/60/60 59/59/59
f 62/62/62 59/59/59 60/60/60
f 59/59/59 62/62/62 63/63/63
f 64/64/64 63/63/63 62/62/62
f 67/67/67 66/66/66 65/65/65
f 68/68/68 65/65/65 66/66/66
f 68/68/68 66/66/66 69/69/69
f 70/70/70 69/69/69 66/66/66
f 68/68/68 69/69/69 71/71/71
f 69/69/69 72/72/72 71/71/71
f 73/73/73 72/72/72 69/69/69
f 74/74/74 68/68/68 71/71/71
f 75/75/75 68/68/68 74/74/74
f 68/68/68 75/75/75 76/76/76
f 77/77/77 76/76/76 75/75/75
f 74/74/74 78/78/78 75/75/75
f 75/75/75 78/78/78 79/79/79
f 80/80/80 79/79/79 78/78/78
f 83/83/83 82/82/82 81/81/81
f 84/84/84 81/81/81 82/82/82
f 81/81/81 84/84/84 85/85/85
f 86/86/86 85/85/85 84/84/84
f 89/89/89 88/88/88 87/87/87
f 90/90/90 87/87/87 88/88/88
f 87/87/87 90/90/90 91/91/91
f 92/92/92 91/91/91 90/90/90
f 95/95/95 94/94/94 93/93/93
f 96/96/96 93/93/93 94/94/94
f 99/99/99 98/98/98 97/97/97
f 100/100/100 97/97/97 98/98/98
f 103/103/103 102/102/102 101/101/101
f 104/104/104 101/101/101 102/102/102
f 107/107/107 106/106/106 105/105/105
f 108/108/108 105/105/105 106/106/106
f 111/111/111 110/110/110 109/109/109
f 112/112/112 109/109/109 110/110/110
f 115/115/115 114/114/114 113/113/113
f 116/116/116 113/113/113 114/114/114
f 119/119/119 118/118/118 117/117/117
f 120/120/120 117/117/117 118/118/118
f 123/123/123 122/122/122 121/121/121
f 124/124/124 121/121/121 122/122/122
f 127/127/127 126/126/126 125/125/125
f 128/128/128 125/125/125 126/126/126
f 131/131/131 130/130/130 129/129/129
f 132/132/132 129/129/129 130/130/130
f 135/135/135 134/134/134 133/133/133
f 136/136/136 133/133/133 134/134/134
f 139/139/139 138/138/138 137/137/137
f 140/140/140 137/137/137 138/138/138
f 143/143/143 142/142/142 141/141/141
f 144/144/144 141/141/141 142/142/142
f 145/145/145 144/144/144 142/142/142
f 148/148/148 147/147/147 146/146/146
f 149/149/149 146/146/146 147/147/147
f 146/146/146 149/149/149 150/150/150
f 151/151/151 150/150/150 149/149/149
f 154/154/154 153/153/153 152/152/152
f 155/155/155 152/152/152 153/153/153
f 158/158/158 157/157/157 156/156/156
f 159/159/159 156/156/156 157/157/157
f 162/162/162 161/161/161 160/160/160
f 163/163/163 160/160/160 161/161/161
f 166/166/166 165/165/165 164/164/164
f 166/166/166 164/164/164 167/167/167
f 168/168/168 167/167/167 164/164/164
f 171/171/171 170/170/170 169/169/169
f 172/172/172 169/169/169 170/170/170
f 169/169/169 172/172/172 173/173/173
f 174/174/174 173/173/173 172/172/172
f 177/177/177 176/176/176 175/175/175
f 178/178/178 175/175/175 176/176/176
f 175/175/175 178/178/178 179/179/179
f 180/180/180 179/179/179 178/178/178
