g c270_00
v 0.0006016344 1.7245431 -0.00051657856
v 0.09038078 1.8096337 -0.0005016923
v 0.067012645 1.8096018 -0.05064006
v 0.0006016344 1.7245431 -0.00051657856
v 0.067012645 1.8096039 0.0523711
v 0.09038078 1.8096337 -0.0005016923
v -0.06705539 1.8096443 -0.05064006
v -0.088788405 1.8096762 -0.0005016923
v 0.0006016344 1.7245431 -0.00051657856
v -0.088788405 1.8096762 -0.0005016923
v -0.06705539 1.8096465 0.0523711
v 0.0006016344 1.7245431 -0.00051657856
v -0.1572598 1.9799424 0.04272616
v -0.16158257 2.0162342 -0.00051657856
v -0.14178453 2.0162342 0.03993857
v -0.17921819 1.9799424 -0.00051657856
v -0.14715134 1.8948158 0.04669811
v -0.14178453 2.0162342 -0.039885193
v -0.16769786 1.8948158 -0.00051657856
v -0.1572598 1.9799424 -0.042672783
v -0.14715134 1.8948158 -0.0466426
v -0.14178453 2.0162342 0.03993857
v -0.16158257 2.0162342 -0.00051657856
v -0.108358935 2.0504677 -0.0004272759
v -0.14178453 2.0162342 -0.039885193
v 0.10822264 2.0504677 -0.0004272759
v 0.16146542 2.0161576 -0.00051657856
v 0.1416716 2.0161576 0.03993857
v 0.1416716 2.0161576 -0.039885193
v 0.15715964 1.9798576 0.04272616
v 0.16762745 1.8947095 -0.00051657856
v 0.14707881 1.8947095 0.04669811
v 0.1791159 1.9798576 -0.00051657856
v 0.1416716 2.0161576 0.03993857
v 0.14707881 1.8947095 -0.0466426
v 0.16146542 2.0161576 -0.00051657856
v 0.15715964 1.9798576 -0.042672783
v 0.1416716 2.0161576 -0.039885193
v -0.088788405 1.8096762 -0.0005016923
v -0.16769786 1.8948158 -0.00051657856
v -0.14715134 1.8948158 0.04669811
v -0.06705539 1.8096465 0.0523711
v -0.14715134 1.8948158 -0.0466426
v -0.16769786 1.8948158 -0.00051657856
v -0.088788405 1.8096762 -0.0005016923
v -0.06705539 1.8096443 -0.05064006
v 0.14707881 1.8947095 -0.0466426
v 0.067012645 1.8096018 -0.05064006
v 0.09038078 1.8096337 -0.0005016923
v 0.16762745 1.8947095 -0.00051657856
v 0.09038078 1.8096337 -0.0005016923
v 0.067012645 1.8096039 0.0523711
v 0.14707881 1.8947095 0.04669811
v 0.16762745 1.8947095 -0.00051657856
v -0.14178453 2.0162342 -0.039885193
v -0.08955811 2.011886 -0.057067893
v -0.108358935 2.0504677 -0.0004272759
v -0.069630355 2.0504785 -0.00046555698
v -5.327165E-05 2.0046098 -0.06508833
v -0.08963467 1.9799212 -0.07736139
v -0.1572598 1.9799424 -0.042672783
v -0.089617655 1.8947839 -0.08252407
v -0.14715134 1.8948158 -0.0466426
v -0.06705539 1.8096443 -0.05064006
v -5.327165E-05 1.8096251 -0.057359204
v 0.0006016344 1.7245431 -0.00051657856
v 0.067012645 1.8096018 -0.05064006
v -5.327165E-05 1.8947626 -0.08252407
v -5.327165E-05 1.9799 -0.07736139
v 0.08954939 1.8947414 -0.08252407
v 0.14707881 1.8947095 -0.0466426
v 0.08953238 1.9798788 -0.07736139
v 0.15715964 1.9798576 -0.042672783
v 0.1416716 2.0161576 -0.039885193
v 0.08944095 2.0118306 -0.057078525
v 0.06949192 2.0504785 -0.00046555698
v 0.10822264 2.0504677 -0.0004272759
v -0.069630355 2.0504785 -0.00046555698
v -0.0895475 2.0116541 0.056923524
v -0.108358935 2.0504677 -0.0004272759
v -0.14178453 2.0162342 0.03993857
v -5.327165E-05 2.0046117 0.06504816
v -0.08963467 1.9799212 0.07732333
v -0.1572598 1.9799424 0.04272616
v -0.089617655 1.8947839 0.08248602
v -0.14715134 1.8948158 0.04669811
v -0.06705539 1.8096465 0.0523711
v -5.327165E-05 1.8096251 0.061792776
v 0.0006016344 1.7245431 -0.00051657856
v 0.067012645 1.8096039 0.0523711
v -5.327165E-05 1.8947626 0.08248602
v -5.327165E-05 1.9799 0.07732333
v 0.08954939 1.8947414 0.08248602
v 0.14707881 1.8947095 0.04669811
v 0.08953238 1.9798788 0.07732333
v 0.15715964 1.9798576 0.04272616
v 0.1416716 2.0161576 0.03993857
v 0.089428194 2.0116541 0.05687675
v 0.06949192 2.0504785 -0.00046555698
v 0.10822264 2.0504677 -0.0004272759
v -0.069630355 2.0504785 -0.00046555698
v -5.327165E-05 2.0046098 -0.06508833
v -5.327165E-05 2.0046117 -0.00051657856
v -5.327165E-05 2.0046117 0.06504816
v 0.06949192 2.0504785 -0.00046555698
vt 0.96965647 0.4844397
vt 0.96965647 0.48931757
vt 0.9660047 0.485657
vt 0.96965647 0.4844397
vt 0.973317 0.485657
vt 0.96965647 0.48931757
vt 0.973317 0.485657
vt 0.96965647 0.48931757
vt 0.96965647 0.4844397
vt 0.96965647 0.48931757
vt 0.9660047 0.485657
vt 0.96965647 0.4844397
vt 0.973317 0.4820052
vt 0.97696877 0.48931757
vt 0.97696877 0.4820052
vt 0.973317 0.48931757
vt 0.96965647 0.4820052
vt 0.97696877 0.4966211
vt 0.96965647 0.48931757
vt 0.973317 0.4966211
vt 0.96965647 0.4966211
vt 0.9623529 0.4820052
vt 0.9623529 0.48931757
vt 0.9648403 0.48931757
vt 0.9623529 0.4966211
vt 0.97448134 0.48931757
vt 0.97696877 0.48931757
vt 0.97696877 0.4820052
vt 0.97696877 0.4966211
vt 0.9660047 0.4820052
vt 0.96965647 0.48931757
vt 0.96965647 0.4820052
vt 0.9660047 0.48931757
vt 0.9623529 0.4820052
vt 0.96965647 0.4966211
vt 0.9623529 0.48931757
vt 0.9660047 0.4966211
vt 0.9623529 0.4966211
vt 0.96965647 0.48931757
vt 0.96965647 0.48931757
vt 0.9623529 0.48931757
vt 0.9660047 0.485657
vt 0.96965647 0.4966211
vt 0.96965647 0.48931757
vt 0.96965647 0.48931757
vt 0.973317 0.485657
vt 0.9623529 0.48931757
vt 0.9660047 0.485657
vt 0.96965647 0.48931757
vt 0.96965647 0.48931757
vt 0.96965647 0.48931757
vt 0.973317 0.485657
vt 0.96965647 0.4820052
vt 0.96965647 0.48931757
vt 0.97696877 0.4966211
vt 0.9734317 0.4946188
vt 0.9745078 0.4966211
vt 0.97254086 0.4966211
vt 0.96965647 0.4966211
vt 0.973317 0.4929693
vt 0.97696877 0.4929693
vt 0.973317 0.48931757
vt 0.97696877 0.48931757
vt 0.973317 0.485657
vt 0.96965647 0.485657
vt 0.96965647 0.4844397
vt 0.9660047 0.485657
vt 0.96965647 0.48931757
vt 0.96965647 0.4929693
vt 0.9660047 0.48931757
vt 0.9623529 0.48931757
vt 0.9660047 0.4929693
vt 0.9623529 0.4929693
vt 0.9623529 0.4966211
vt 0.96589005 0.4946188
vt 0.9667809 0.4966211
vt 0.9648138 0.4966211
vt 0.9667809 0.4966211
vt 0.96589005 0.49460998
vt 0.9648138 0.4966211
vt 0.9623529 0.4966211
vt 0.96965647 0.4966211
vt 0.9660047 0.4929693
vt 0.9623529 0.4929693
vt 0.9660047 0.48931757
vt 0.9623529 0.48931757
vt 0.9660047 0.485657
vt 0.96965647 0.485657
vt 0.96965647 0.4844397
vt 0.973317 0.485657
vt 0.96965647 0.48931757
vt 0.96965647 0.4929693
vt 0.973317 0.48931757
vt 0.97696877 0.48931757
vt 0.973317 0.4929693
vt 0.97696877 0.4929693
vt 0.97696877 0.4966211
vt 0.9734229 0.49460998
vt 0.97254086 0.4966211
vt 0.974499 0.4966211
vt 0.966825 0.48931757
vt 0.96965647 0.4966211
vt 0.96965647 0.48931757
vt 0.96965647 0.4820052
vt 0.97249675 0.48931757
vn 0.65432763 -0.69135034 -0.30641478
vn 0.65432763 -0.69135034 -0.30641478
vn 0.65432763 -0.69135034 -0.30641478
vn 0.65822476 -0.6952474 0.2887407
vn 0.65822476 -0.6952474 0.2887407
vn 0.65822476 -0.6952474 0.2887407
vn -0.6609506 -0.6932988 -0.2871952
vn -0.6609506 -0.6932988 -0.2871952
vn -0.6609506 -0.6932988 -0.2871952
vn -0.6628992 -0.697196 0.27291456
vn -0.6628992 -0.697196 0.27291456
vn -0.6628992 -0.697196 0.27291456
vn -0.89088064 0.15042776 0.42860606
vn -0.9025721 0.42907184 -0.035509873
vn -0.8226811 0.39204925 0.41169545
vn -0.9883087 0.15042776 -0.024846744
vn -0.9006235 -0.10483366 0.42176676
vn -0.81878394 0.39010066 -0.42120585
vn -0.9934242 -0.114492305 -0
vn -0.885035 0.15042776 -0.4405503
vn -0.8967264 -0.10288507 -0.43046066
vn -0.52260274 0.8129383 0.2569392
vn -0.54013985 0.8402181 -0.04777552
vn -0.54013985 0.8402181 -0.04777552
vn -0.52260274 0.8109897 -0.26302502
vn 0.54131114 0.8402181 -0.03187134
vn 0.54131114 0.8402181 -0.03187134
vn 0.52377415 0.8129383 0.2545428
vn 0.52182555 0.8109897 -0.2645635
vn 0.89010346 0.15042776 0.4302177
vn 0.99337715 -0.11457646 -0.008606282
vn 0.89984626 -0.10483366 0.42342255
vn 0.9886404 0.15030012 -0
vn 0.8238524 0.39204925 0.40934652
vn 0.8959491 -0.10288507 -0.4320762
vn 0.90335745 0.4288886 -0
vn 0.8862063 0.15042776 -0.43818927
vn 0.8199553 0.39010066 -0.418921
vn -0.70381886 -0.64653337 0.2943359
vn -0.70381886 -0.64653337 0.2943359
vn -0.70381886 -0.64653337 0.2943359
vn -0.70381886 -0.64653337 0.2943359
vn -0.6999218 -0.64653337 -0.30348653
vn -0.6999218 -0.64653337 -0.30348653
vn -0.6999218 -0.64653337 -0.30348653
vn -0.6999218 -0.64653337 -0.30348653
vn 0.69914454 -0.63873917 -0.32126188
vn 0.69914454 -0.63873917 -0.32126188
vn 0.69914454 -0.63873917 -0.32126188
vn 0.69914454 -0.63873917 -0.32126188
vn 0.7030417 -0.6406877 0.3086287
vn 0.7030417 -0.6406877 0.3086287
vn 0.7030417 -0.6406877 0.3086287
vn 0.7030417 -0.6406877 0.3086287
vn -0.2926727 0.5498826 -0.7822863
vn -0.09197098 0.6823848 -0.7251843
vn -0.0510512 0.81683546 -0.5746074
vn 0.0074056387 0.8246296 -0.5656246
vn -0.00038862228 0.5888539 -0.8082394
vn -0.2166788 0.25954717 -0.9411087
vn -0.47194022 0.12899357 -0.87214285
vn -0.27708417 -0.1691361 -0.94584215
vn -0.49922007 -0.13990772 -0.85510534
vn -0.13678783 -0.41855186 -0.89783263
vn -0.00038862228 -0.439986 -0.89800453
vn -0.00038862228 -0.5549511 -0.8318829
vn 0.13601059 -0.41855186 -0.8979507
vn -0.00038862228 -0.13406205 -0.9909728
vn -0.00038862228 0.25759858 -0.9662519
vn 0.27630693 -0.1691361 -0.9460695
vn 0.49844283 -0.13990772 -0.85555863
vn 0.21590155 0.25954717 -0.9412873
vn 0.47116297 0.12899357 -0.87256294
vn 0.29384398 0.5498826 -0.78184706
vn 0.09314227 0.6804362 -0.7268639
vn -0.006234288 0.8246296 -0.56563866
vn 0.050273955 0.81683546 -0.57467586
vn 0.0054570436 0.8265782 0.5627954
vn -0.090022385 0.68433326 0.723591
vn -0.04715413 0.82073253 0.56936336
vn -0.2887755 0.5537798 0.7809844
vn -0.00038862228 0.59275097 0.8053857
vn -0.2147302 0.26149565 0.9410159
vn -0.46999162 0.12899357 0.87319446
vn -0.28098136 -0.15939331 0.9463843
vn -0.49922007 -0.13211346 0.85634416
vn -0.15432495 -0.4127062 0.8976956
vn -0.00038862228 -0.4419346 0.89704716
vn -0.00038862228 -0.5900252 0.8073847
vn 0.15354764 -0.4127062 0.8978289
vn -0.00038862228 -0.11847353 0.9929571
vn -0.00038862228 0.25759858 0.9662519
vn 0.28020406 -0.15939331 0.94661474
vn 0.49844283 -0.13211346 0.8567968
vn 0.21590155 0.26149565 0.94074786
vn 0.47116297 0.12899357 0.87256294
vn 0.28799832 0.5537798 0.78127134
vn 0.091193736 0.68433326 0.72344434
vn -0.006234288 0.8265782 0.56278735
vn 0.046376824 0.82073253 0.5694272
vn 0.55105394 0.83437246 -0.012732817
vn -0.00038862228 1 -0
vn -0.00038862228 1 -0
vn -0.00038862228 1 -0
vn -0.5498826 0.83437246 -0.0381008
g c270_00_0
f 3/3/3 2/2/2 1/1/1
f 6/6/6 5/5/5 4/4/4
f 9/9/9 8/8/8 7/7/7
f 12/12/12 11/11/11 10/10/10
f 15/15/15 14/14/14 13/13/13
f 14/14/14 16/16/16 13/13/13
f 13/13/13 16/16/16 17/17/17
f 14/14/14 18/18/18 16/16/16
f 16/16/16 19/19/19 17/17/17
f 18/18/18 20/20/20 16/16/16
f 16/16/16 20/20/20 19/19/19
f 20/20/20 21/21/21 19/19/19
f 24/24/24 23/23/23 22/22/22
f 24/24/24 25/25/25 23/23/23
f 28/28/28 27/27/27 26/26/26
f 27/27/27 29/29/29 26/26/26
f 32/32/32 31/31/31 30/30/30
f 31/31/31 33/33/33 30/30/30
f 30/30/30 33/33/33 34/34/34
f 31/31/31 35/35/35 33/33/33
f 33/33/33 36/36/36 34/34/34
f 35/35/35 37/37/37 33/33/33
f 33/33/33 37/37/37 36/36/36
f 37/37/37 38/38/38 36/36/36
f 41/41/41 40/40/40 39/39/39
f 42/42/42 41/41/41 39/39/39
f 45/45/45 44/44/44 43/43/43
f 46/46/46 45/45/45 43/43/43
f 49/49/49 48/48/48 47/47/47
f 50/50/50 49/49/49 47/47/47
f 53/53/53 52/52/52 51/51/51
f 54/54/54 53/53/53 51/51/51
f 57/57/57 56/56/56 55/55/55
f 58/58/58 56/56/56 57/57/57
f 58/58/58 59/59/59 56/56/56
f 60/60/60 55/55/55 56/56/56
f 60/60/60 56/56/56 59/59/59
f 61/61/61 55/55/55 60/60/60
f 61/61/61 60/60/60 62/62/62
f 63/63/63 61/61/61 62/62/62
f 62/62/62 64/64/64 63/63/63
f 64/64/64 62/62/62 65/65/65
f 65/65/65 66/66/66 64/64/64
f 65/65/65 67/67/67 66/66/66
f 62/62/62 68/68/68 65/65/65
f 62/62/62 60/60/60 68/68/68
f 65/65/65 68/68/68 67/67/67
f 60/60/60 69/69/69 68/68/68
f 60/60/60 59/59/59 69/69/69
f 68/68/68 70/70/70 67/67/67
f 68/68/68 69/69/69 70/70/70
f 70/70/70 71/71/71 67/67/67
f 69/69/69 72/72/72 70/70/70
f 70/70/70 72/72/72 71/71/71
f 69/69/69 59/59/59 72/72/72
f 72/72/72 73/73/73 71/71/71
f 72/72/72 74/74/74 73/73/73
f 72/72/72 59/59/59 75/75/75
f 72/72/72 75/75/75 74/74/74
f 76/76/76 75/75/75 59/59/59
f 77/77/77 74/74/74 75/75/75
f 77/77/77 75/75/75 76/76/76
f 80/80/80 79/79/79 78/78/78
f 81/81/81 79/79/79 80/80/80
f 78/78/78 79/79/79 82/82/82
f 83/83/83 79/79/79 81/81/81
f 83/83/83 82/82/82 79/79/79
f 81/81/81 84/84/84 83/83/83
f 83/83/83 84/84/84 85/85/85
f 84/84/84 86/86/86 85/85/85
f 85/85/85 86/86/86 87/87/87
f 85/85/85 87/87/87 88/88/88
f 88/88/88 87/87/87 89/89/89
f 88/88/88 89/89/89 90/90/90
f 91/91/91 85/85/85 88/88/88
f 83/83/83 85/85/85 91/91/91
f 91/91/91 88/88/88 90/90/90
f 92/92/92 83/83/83 91/91/91
f 82/82/82 83/83/83 92/92/92
f 93/93/93 91/91/91 90/90/90
f 92/92/92 91/91/91 93/93/93
f 93/93/93 90/90/90 94/94/94
f 95/95/95 92/92/92 93/93/93
f 95/95/95 93/93/93 94/94/94
f 82/82/82 92/92/92 95/95/95
f 96/96/96 95/95/95 94/94/94
f 97/97/97 95/95/95 96/96/96
f 95/95/95 98/98/98 82/82/82
f 95/95/95 97/97/97 98/98/98
f 82/82/82 98/98/98 99/99/99
f 100/100/100 98/98/98 97/97/97
f 99/99/99 98/98/98 100/100/100
f 103/103/103 102/102/102 101/101/101
f 104/104/104 103/103/103 101/101/101
f 105/105/105 102/102/102 103/103/103
f 105/105/105 103/103/103 104/104/104
