g cloud_011
v -1.4359055 -1.4665318 -9.439905
v -14.644754 -26.81878 3.5562344
v 16.48534 -28.961058 -3.131586
v -21.524492 -13.480331 4.8447323
v 23.089766 -13.390177 -4.7865334
v -22.509665 16.481398 4.6159687
v 22.720196 8.914499 -5.0353374
v -6.7546635 31.598558 0.9925842
v 1.0695305 23.939428 -0.5834122
vt 0.24325053 0.7782924
vt 0.083760045 0.60051215
vt 0.004785359 0.8341359
vt 0.19726436 0.5746186
vt 0.10766181 0.9157712
vt 0.42292085 0.62705994
vt 0.27491602 0.95758474
vt 0.5039019 0.7777254
vt 0.43088812 0.82218504
vn -0.19640613 -0.00057923794 -0.98052245
vn -0.36134225 -0.26947987 -0.8926435
vn -0.05726567 -0.25853625 -0.96430266
vn -0.53018683 -0.11236061 -0.8404029
vn 0.14128305 -0.09438178 -0.9854599
vn -0.47781378 0.11980069 -0.87025386
vn 0.11392398 0.15263158 -0.98169494
vn -0.21829337 0.2612862 -0.940254
vn 0.092036724 0.3199128 -0.94296604
g cloud_011_0
f 3/3/3 2/2/2 1/1/1
f 4/4/4 1/1/1 2/2/2
f 5/5/5 3/3/3 1/1/1
f 6/6/6 1/1/1 4/4/4
f 7/7/7 5/5/5 1/1/1
f 8/8/8 1/1/1 6/6/6
f 7/7/7 1/1/1 9/9/9
f 9/9/9 1/1/1 8/8/8
