g cloud_007
v 88.485504 -176.2436 26.33493
v -131.73438 -72.262985 -38.914734
v -20.980835 -194.2238 47.87494
v 109.37645 -60.246338 -80.03294
v 126.98488 -128.85652 9.343262
v 258.82986 -120.38629 -13.576569
v 317.1512 5.9217834 -51.819366
v 291.2097 43.457 -56.29825
v 210.93144 92.94977 -54.873962
v -321.90982 -63.44902 65.768585
v 80.88374 22.160156 -80.86058
v 190.04659 148.13242 -64.20474
v 27.266785 193.50159 -48.7081
v -146.95554 4.5797424 -54.112762
v -313.67422 36.108185 41.629852
v -177.15778 216.99246 -21.56897
vt 0.5135843 0.4420358
vt 0.25101256 0.34305722
vt 0.38404953 0.4793026
vt 0.53906345 0.29460216
vt 0.5550702 0.37883148
vt 0.7123876 0.3500264
vt 0.7698215 0.18779649
vt 0.7349757 0.14564069
vt 0.63376415 0.09652748
vt 0.010065196 0.36197856
vt 0.49459246 0.1890775
vt 0.6032315 0.032147925
vt 0.40345272 -0.0003709197
vt 0.22512205 0.25145915
vt 0.010065196 0.23938945
vt 0.15588877 -0.0003709197
vn -0.024060726 -0.65578544 -0.7545638
vn -0.28904486 -0.4591456 -0.84002286
vn -0.1331718 -0.65218836 -0.7462678
vn 0.02030313 -0.37041792 -0.9286433
vn -0.027657747 -0.7289258 -0.68403375
vn 0.13780743 -0.4735339 -0.86992806
vn 0.21814197 -0.2864863 -0.93292
vn 0.1773752 -0.14020544 -0.97410494
vn 0.16418594 0.018065572 -0.986264
vn -0.47369432 -0.37161693 -0.79844505
vn -0.028856814 0.039647996 -0.99879694
vn 0.09344357 0.05043924 -0.9943461
vn -0.0960021 0.14995813 -0.98402035
vn -0.31542337 -0.04428363 -0.9479172
vn -0.49767482 -0.10183674 -0.8613646
vn -0.27465653 0.110390365 -0.95518464
g cloud_007_0
f 3/3/3 2/2/2 1/1/1
f 2/2/2 4/4/4 1/1/1
f 4/4/4 5/5/5 1/1/1
f 5/5/5 4/4/4 6/6/6
f 6/6/6 4/4/4 7/7/7
f 4/4/4 8/8/8 7/7/7
f 9/9/9 8/8/8 4/4/4
f 10/10/10 2/2/2 3/3/3
f 11/11/11 9/9/9 4/4/4
f 11/11/11 4/4/4 2/2/2
f 12/12/12 9/9/9 11/11/11
f 13/13/13 12/12/12 11/11/11
f 14/14/14 2/2/2 10/10/10
f 14/14/14 11/11/11 2/2/2
f 13/13/13 11/11/11 14/14/14
f 15/15/15 14/14/14 10/10/10
f 16/16/16 13/13/13 14/14/14
f 15/15/15 16/16/16 14/14/14
