g cloud_008
v 78.28702 -160.22916 -116.48007
v -145.71652 -14.495758 -78.532166
v -40.649414 -181.12408 -109.12694
v 113.66943 5.9161377 -110.71184
v 123.959076 -114.75745 -95.27409
v 265.97504 -101.83246 -111.77019
v 340.2655 17.672028 -48.054718
v 315.99188 51.52359 -22.095367
v 234.63428 94.39157 19.612793
v -350.74615 -71.26407 15.497345
v 90.48117 71.12161 -48.06195
v 217.42776 144.8216 54.976746
v 47.314667 180.69434 107.689545
v -154.8292 56.26114 -31.538177
v -332.6078 21.48172 71.84387
v -169.45306 194.65656 154.48651
vt 0.5135843 0.4420358
vt 0.25101256 0.34305722
vt 0.38404953 0.4793026
vt 0.53906345 0.29460216
vt 0.5550702 0.37883148
vt 0.7123876 0.3500264
vt 0.7698215 0.18779649
vt 0.7349757 0.14564069
vt 0.63376415 0.09652748
vt 0.010065196 0.36197856
vt 0.49459246 0.1890775
vt 0.6032315 0.032147925
vt 0.40345272 -0.0003709197
vt 0.22512205 0.25145915
vt 0.010065196 0.23938945
vt 0.15588877 -0.0003709197
vn -0.057082087 0.07010043 -0.9959054
vn -0.30342886 0.28940913 -0.9078399
vn -0.16623574 0.07610887 -0.9831445
vn 0.014017999 0.3915529 -0.9200488
vn -0.06909901 -0.030040547 -0.9971574
vn 0.12217023 0.26837954 -0.9555349
vn 0.21830556 0.43861917 -0.87175447
vn 0.19126749 0.5738095 -0.7963413
vn 0.19126749 0.69498 -0.69312304
vn -0.48167977 0.3364754 -0.80917794
vn -1.7434359E-06 0.734035 -0.67911166
vn 0.12317164 0.729028 -0.67331046
vn -0.058083504 0.8061365 -0.5888721
vn -0.29341474 0.6599307 -0.6916641
vn -0.48167977 0.572808 -0.6632312
vn -0.23933864 0.7720885 -0.5887243
g cloud_008_0
f 3/3/3 2/2/2 1/1/1
f 2/2/2 4/4/4 1/1/1
f 4/4/4 5/5/5 1/1/1
f 5/5/5 4/4/4 6/6/6
f 6/6/6 4/4/4 7/7/7
f 4/4/4 8/8/8 7/7/7
f 9/9/9 8/8/8 4/4/4
f 10/10/10 2/2/2 3/3/3
f 11/11/11 9/9/9 4/4/4
f 11/11/11 4/4/4 2/2/2
f 12/12/12 9/9/9 11/11/11
f 13/13/13 12/12/12 11/11/11
f 14/14/14 2/2/2 10/10/10
f 14/14/14 11/11/11 2/2/2
f 13/13/13 11/11/11 14/14/14
f 15/15/15 14/14/14 10/10/10
f 16/16/16 13/13/13 14/14/14
f 15/15/15 16/16/16 14/14/14
