g crys_long001
v 2.3680663 -2.4284248 -4.1028466
v 2.3024907 -1.8910198 -4.1327887
v 2.2851355 -1.8935518 -4.1027904
v 2.390956 -2.4255843 -4.142934
v 2.4455235 -2.6043563 -4.102741
v 2.3913655 -2.4230287 -4.063253
v 2.3024087 -1.8910351 -4.073118
v 2.336289 -1.8845799 -4.073114
v 2.435928 -2.4160604 -4.063253
v 2.4455235 -2.6043563 -4.102741
v 2.3024087 -1.8910351 -4.073118
v 2.3680663 -2.4284248 -4.1028466
v 2.2851355 -1.8935518 -4.1027904
v 2.3913655 -2.4230287 -4.063253
v 2.4455235 -2.6043563 -4.102741
v 2.435928 -2.4160604 -4.063253
v 2.336289 -1.8845799 -4.073114
v 2.3532 -1.8815496 -4.1027904
v 2.4586668 -2.4125881 -4.1028466
v 2.4455235 -2.6043563 -4.102741
v 2.3532 -1.8815496 -4.1027904
v 2.3362265 -1.8845906 -4.1327887
v 2.435762 -2.4161272 -4.1429315
v 2.4586668 -2.4125881 -4.1028466
v 2.4455235 -2.6043563 -4.102741
v 2.3362265 -1.8845906 -4.1327887
v 2.3024907 -1.8910198 -4.1327887
v 2.390956 -2.4255843 -4.142934
v 2.435762 -2.4161272 -4.1429315
v 2.4455235 -2.6043563 -4.102741
v 2.2733793 -2.4286838 -4.102853
v 2.3021178 -1.8880565 -4.1327972
v 2.2845879 -1.8875346 -4.102797
v 2.2964132 -2.4298613 -4.1429424
v 2.3191106 -2.6153946 -4.1027474
v 2.297263 -2.427411 -4.0632577
v 2.3020358 -1.8880544 -4.0731225
v 2.336522 -1.8875821 -4.0731225
v 2.342358 -2.4282913 -4.063262
v 2.3191106 -2.6153946 -4.1027474
v 2.3020358 -1.8880544 -4.0731225
v 2.2733793 -2.4286838 -4.102853
v 2.2845879 -1.8875346 -4.102797
v 2.297263 -2.427411 -4.0632577
v 2.3191106 -2.6153946 -4.1027474
v 2.342358 -2.4282913 -4.063262
v 2.336522 -1.8875821 -4.0731225
v 2.3537025 -1.8875346 -4.102797
v 2.365353 -2.4288216 -4.102853
v 2.3191106 -2.6153946 -4.1027474
v 2.3537025 -1.8875346 -4.102797
v 2.3364594 -1.8875842 -4.1327972
v 2.3421812 -2.4283278 -4.1429424
v 2.365353 -2.4288216 -4.102853
v 2.3191106 -2.6153946 -4.1027474
v 2.3364594 -1.8875842 -4.1327972
v 2.3021178 -1.8880565 -4.1327972
v 2.2964132 -2.4298613 -4.1429424
v 2.3421812 -2.4283278 -4.1429424
v 2.3191106 -2.6153946 -4.1027474
v 2.1800013 -2.4124348 -4.102851
v 2.3021846 -1.8850005 -4.1327777
v 2.2850103 -1.8814418 -4.1027775
v 2.2024808 -2.4175916 -4.142938
v 2.1926136 -2.6042464 -4.102743
v 2.2037425 -2.4153314 -4.0632577
v 2.3021026 -1.8849876 -4.0731053
v 2.3361444 -1.8905087 -4.0731053
v 2.2479987 -2.424025 -4.0632577
v 2.1926136 -2.6042464 -4.102743
v 2.3021026 -1.8849876 -4.0731053
v 2.1800013 -2.4124348 -4.102851
v 2.2850103 -1.8814418 -4.1027775
v 2.2037425 -2.4153314 -4.0632577
v 2.1926136 -2.6042464 -4.102743
v 2.2479987 -2.424025 -4.0632577
v 2.3361444 -1.8905087 -4.0731053
v 2.353075 -1.8934441 -4.1027775
v 2.2705538 -2.4285393 -4.102851
v 2.1926136 -2.6042464 -4.102743
v 2.353075 -1.8934441 -4.1027775
v 2.3360841 -1.8904979 -4.1327777
v 2.2478175 -2.4240317 -4.14294
v 2.2705538 -2.4285393 -4.102851
v 2.1926136 -2.6042464 -4.102743
v 2.3360841 -1.8904979 -4.1327777
v 2.3021846 -1.8850005 -4.1327777
v 2.2024808 -2.4175916 -4.142938
v 2.2478175 -2.4240317 -4.14294
v 2.1926136 -2.6042464 -4.102743
vt 0.52955586 0.81166244
vt 0.03066019 0.21439789
vt 0.0059584975 0.23755951
vt 0.56559676 0.7785205
vt 0.850557 0.9897381
vt 0.44057843 0.22286834
vt 0.97075886 0.7850583
vt 0.92509997 0.8322573
vt 0.36374047 0.29730558
vt 0.15086201 0.009718107
vt 0.97075886 0.7850583
vt 0.46878305 0.1883524
vt 0.99546057 0.7618967
vt 0.44057843 0.22286834
vt 0.15086201 0.009718107
vt 0.36374047 0.29730558
vt 0.92509997 0.8322573
vt 0.9022555 0.8550867
vt 0.32907355 0.33242548
vt 0.15086201 0.009718107
vt 0.0991636 0.14436951
vt 0.07631906 0.16719894
vt 0.63789 0.7020449
vt 0.67500293 0.6667892
vt 0.850557 0.9897381
vt 0.07631906 0.16719894
vt 0.03066019 0.21439789
vt 0.56559676 0.7785205
vt 0.63789 0.7020449
vt 0.850557 0.9897381
vt 0.52955586 0.81166244
vt 0.03066019 0.21439789
vt 0.0059584975 0.23755951
vt 0.56559676 0.7785205
vt 0.850557 0.9897381
vt 0.44057843 0.22286834
vt 0.97075886 0.7850583
vt 0.92509997 0.8322573
vt 0.36374047 0.29730558
vt 0.15086201 0.009718107
vt 0.97075886 0.7850583
vt 0.46878305 0.1883524
vt 0.99546057 0.7618967
vt 0.44057843 0.22286834
vt 0.15086201 0.009718107
vt 0.36374047 0.29730558
vt 0.92509997 0.8322573
vt 0.9022555 0.8550867
vt 0.32907355 0.33242548
vt 0.15086201 0.009718107
vt 0.0991636 0.14436951
vt 0.07631906 0.16719894
vt 0.63789 0.7020449
vt 0.67500293 0.6667892
vt 0.850557 0.9897381
vt 0.07631906 0.16719894
vt 0.03066019 0.21439789
vt 0.56559676 0.7785205
vt 0.63789 0.7020449
vt 0.850557 0.9897381
vt 0.52955586 0.81166244
vt 0.03066019 0.21439789
vt 0.0059584975 0.23755951
vt 0.56559676 0.7785205
vt 0.850557 0.9897381
vt 0.44057843 0.22286834
vt 0.97075886 0.7850583
vt 0.92509997 0.8322573
vt 0.36374047 0.29730558
vt 0.15086201 0.009718107
vt 0.97075886 0.7850583
vt 0.46878305 0.1883524
vt 0.99546057 0.7618967
vt 0.44057843 0.22286834
vt 0.15086201 0.009718107
vt 0.36374047 0.29730558
vt 0.92509997 0.8322573
vt 0.9022555 0.8550867
vt 0.32907355 0.33242548
vt 0.15086201 0.009718107
vt 0.0991636 0.14436951
vt 0.07631906 0.16719894
vt 0.63789 0.7020449
vt 0.67500293 0.6667892
vt 0.850557 0.9897381
vt 0.07631906 0.16719894
vt 0.03066019 0.21439789
vt 0.56559676 0.7785205
vt 0.63789 0.7020449
vt 0.850557 0.9897381
vn -0.8347259 -0.23859859 -0.4962896
vn -0.8551702 -0.13296986 -0.501002
vn -0.8551702 -0.13296986 -0.501002
vn -0.8347259 -0.242006 -0.494637
vn -0.8006521 -0.35274583 -0.48427948
vn 0.013711572 -0.08867395 0.9959664
vn -0.0033253431 0.018658519 0.99982035
vn -0.0033253431 0.018658519 0.99982035
vn 0.013711572 -0.09037763 0.9958132
vn 0.032452166 -0.20282114 0.97867787
vn -0.84835535 -0.13126618 0.51289606
vn -0.8228001 -0.23859859 0.51582044
vn -0.84835535 -0.13126618 0.51289606
vn -0.8245037 -0.23519123 0.5146637
vn -0.78702253 -0.34593105 0.5108104
vn 0.8638527 0.059547067 0.50021267
vn 0.8485195 0.16858321 0.5015918
vn 0.8485195 0.16858321 0.5015918
vn 0.8638527 0.057843387 0.5004125
vn 0.8672601 -0.059711218 0.49426153
vn 0.8502232 0.16858321 -0.49869853
vn 0.8502232 0.16858321 -0.49869853
vn 0.8638527 0.059547067 -0.50021267
vn 0.8655564 0.057843387 -0.4974598
vn 0.8689638 -0.059711218 -0.49126014
vn -0.0033253431 0.018658519 -0.99982035
vn -0.0033253431 0.018658519 -0.99982035
vn 0.02052635 -0.09378499 -0.9953809
vn 0.01882267 -0.08867395 -0.99588287
vn 0.044377983 -0.2062285 -0.97749704
vn -0.86368865 -0.09037763 -0.4958566
vn -0.86539227 0.018658519 -0.50074756
vn -0.86539227 0.018658519 -0.50074756
vn -0.86368865 -0.09378499 -0.49522346
vn -0.8500591 -0.20793217 -0.4839047
vn -0.001621604 -0.08867395 0.9960594
vn 8.2075596E-05 0.018658519 0.9998259
vn 8.2075596E-05 0.018658519 0.9998259
vn -0.001621604 -0.09208131 0.9957502
vn -0.0033253431 -0.2062285 0.9784982
vn -0.85857755 0.01695484 0.51240325
vn -0.8517627 -0.09208131 0.5157726
vn -0.85857755 0.01695484 0.51240325
vn -0.85346645 -0.08867395 0.5135484
vn -0.8347259 -0.20452482 0.5112752
vn 0.8604453 -0.09037763 0.5014636
vn 0.8655564 0.018658519 0.5004637
vn 0.8655564 0.018658519 0.5004637
vn 0.8604453 -0.09208131 0.5011535
vn 0.84511214 -0.20963591 0.4917705
vn 0.8655564 0.018658519 -0.5004637
vn 0.8655564 0.018658519 -0.5004637
vn 0.862149 -0.09037763 -0.4985288
vn 0.862149 -0.09208131 -0.49821693
vn 0.84511214 -0.20963591 -0.4917705
vn 8.2075596E-05 0.018658519 -0.9998259
vn 8.2075596E-05 0.018658519 -0.9998259
vn 0.0034894347 -0.09548867 -0.9954244
vn 0.0034894347 -0.09037763 -0.99590147
vn 0.006896794 -0.2113396 -0.9773884
vn -0.867096 0.061250746 -0.49436107
vn -0.84835535 0.16858321 -0.5018694
vn -0.84835535 0.16858321 -0.5018694
vn -0.867096 0.057843387 -0.4947713
vn -0.8739107 -0.05800748 -0.48261285
vn -0.01695484 -0.08697021 0.99606663
vn 0.0034894347 0.018658519 0.9998198
vn 0.0034894347 0.018658519 0.9998198
vn -0.018658519 -0.09037763 0.9957328
vn -0.039102793 -0.20282114 0.97843474
vn -0.8432444 0.16687948 0.5109699
vn -0.8551702 0.057843387 0.51510984
vn -0.8432444 0.16687948 0.5109699
vn -0.8551702 0.061250746 0.51471573
vn -0.85857755 -0.0563038 0.5095826
vn 0.8314826 -0.23859859 0.5017045
vn 0.8553343 -0.13126618 0.5011711
vn 0.8553343 -0.13126618 0.5011711
vn 0.8314826 -0.24030232 0.50089073
vn 0.79570514 -0.35274583 0.49236545
vn 0.85703796 -0.13126618 -0.49825206
vn 0.85703796 -0.13126618 -0.49825206
vn 0.83318627 -0.24030232 -0.4980516
vn 0.83318627 -0.24030232 -0.4980516
vn 0.79570514 -0.35274583 -0.49236545
vn 0.0034894347 0.018658519 -0.9998198
vn 0.0034894347 0.018658519 -0.9998198
vn -0.01354748 -0.09378499 -0.9955003
vn -0.011843741 -0.08867395 -0.99599034
vn -0.028880656 -0.20963591 -0.9773529
g crys_long001_0
f 3/3/3 2/2/2 1/1/1
f 2/2/2 4/4/4 1/1/1
f 5/5/5 1/1/1 4/4/4
f 8/8/8 7/7/7 6/6/6
f 9/9/9 8/8/8 6/6/6
f 6/6/6 10/10/10 9/9/9
f 13/13/13 12/12/12 11/11/11
f 12/12/12 14/14/14 11/11/11
f 12/12/12 15/15/15 14/14/14
f 18/18/18 17/17/17 16/16/16
f 19/19/19 18/18/18 16/16/16
f 16/16/16 20/20/20 19/19/19
f 23/23/23 22/22/22 21/21/21
f 24/24/24 23/23/23 21/21/21
f 25/25/25 23/23/23 24/24/24
f 28/28/28 27/27/27 26/26/26
f 29/29/29 28/28/28 26/26/26
f 30/30/30 28/28/28 29/29/29
f 33/33/33 32/32/32 31/31/31
f 32/32/32 34/34/34 31/31/31
f 35/35/35 31/31/31 34/34/34
f 38/38/38 37/37/37 36/36/36
f 39/39/39 38/38/38 36/36/36
f 36/36/36 40/40/40 39/39/39
f 43/43/43 42/42/42 41/41/41
f 42/42/42 44/44/44 41/41/41
f 42/42/42 45/45/45 44/44/44
f 48/48/48 47/47/47 46/46/46
f 49/49/49 48/48/48 46/46/46
f 46/46/46 50/50/50 49/49/49
f 53/53/53 52/52/52 51/51/51
f 54/54/54 53/53/53 51/51/51
f 55/55/55 53/53/53 54/54/54
f 58/58/58 57/57/57 56/56/56
f 59/59/59 58/58/58 56/56/56
f 60/60/60 58/58/58 59/59/59
f 63/63/63 62/62/62 61/61/61
f 62/62/62 64/64/64 61/61/61
f 65/65/65 61/61/61 64/64/64
f 68/68/68 67/67/67 66/66/66
f 69/69/69 68/68/68 66/66/66
f 66/66/66 70/70/70 69/69/69
f 73/73/73 72/72/72 71/71/71
f 72/72/72 74/74/74 71/71/71
f 72/72/72 75/75/75 74/74/74
f 78/78/78 77/77/77 76/76/76
f 79/79/79 78/78/78 76/76/76
f 76/76/76 80/80/80 79/79/79
f 83/83/83 82/82/82 81/81/81
f 84/84/84 83/83/83 81/81/81
f 85/85/85 83/83/83 84/84/84
f 88/88/88 87/87/87 86/86/86
f 89/89/89 88/88/88 86/86/86
f 90/90/90 88/88/88 89/89/89
