g ebg003_2phase_Jormungandr_vulcan_skin
v 0.36297035 20.792673 4.2528696
v -5.185604E-06 20.792673 4.2528696
v -5.185604E-06 20.954018 5.4435806
v 0.5082575 20.954018 5.4435806
v 0.65524065 20.797344 4.2528696
v 0.36297035 20.792673 4.2528696
v 0.16065651 20.70459 4.223728
v -5.185604E-06 20.792673 4.2528696
v -5.185604E-06 20.693312 4.223728
v 0.5554824 21.066177 5.4244623
v 0.67587954 21.213734 4.2528696
v 0.7632148 21.029526 4.2528696
v 0.34777203 21.561533 5.485652
v 0.4729269 21.622942 4.2528696
v 0.7059238 21.442986 4.1320763
v 0.61579114 21.754574 4.014674
v 0.41574597 21.987482 4.1320763
v 0.25153804 22.0742 4.2528696
v 0.11111879 22.125963 5.4751673
v 0.111471176 22.314356 4.2528696
v -5.185604E-06 22.333277 4.2528696
v -5.185604E-06 22.136118 5.5239553
v 0.5082575 20.954018 5.4435806
v 0.5554824 21.066177 5.4244623
v 0.7632148 21.029526 4.2528696
v 0.65524065 20.797344 4.2528696
v -5.185604E-06 20.954018 5.4435806
v -5.185604E-06 20.792673 4.2528696
v -0.36295867 20.792673 4.2528696
v -0.5082458 20.954018 5.4435806
v -0.655229 20.797344 4.2528696
v -0.36295867 20.792673 4.2528696
v -5.185604E-06 20.792673 4.2528696
v -0.16064483 20.70459 4.223728
v -5.185604E-06 20.693312 4.223728
v -0.55549276 21.066177 5.4244623
v -0.76320314 21.029526 4.2528696
v -0.6758679 21.213734 4.2528696
v -0.34778237 21.561533 5.485652
v -0.47291517 21.622942 4.2528696
v -0.7059121 21.442986 4.1320763
v -0.61580145 21.754574 4.014674
v -0.41575634 21.987482 4.1320763
v -0.25152636 22.0742 4.2528696
v -0.11110711 22.125963 5.4751673
v -0.11148155 22.314356 4.2528696
v -5.185604E-06 22.333277 4.2528696
v -5.185604E-06 22.136118 5.5239553
v -0.5082458 20.954018 5.4435806
v -0.655229 20.797344 4.2528696
v -0.76320314 21.029526 4.2528696
v -0.55549276 21.066177 5.4244623
v -0.5082458 20.954018 5.4435806
v -0.27483046 21.178469 5.5802774
v -5.185604E-06 20.954018 5.4435806
v -0.55549276 21.066177 5.4244623
v -5.185604E-06 21.427963 5.4468412
v -0.34778237 21.561533 5.485652
v -0.1347636 21.676136 5.553361
v -0.11110711 22.125963 5.4751673
v -5.185604E-06 21.724375 5.583538
v -5.185604E-06 22.136118 5.5239553
v 0.5082575 20.954018 5.4435806
v -5.185604E-06 20.954018 5.4435806
v 0.27482012 21.178469 5.5802774
v 0.5554824 21.066177 5.4244623
v -5.185604E-06 21.427963 5.4468412
v 0.34777203 21.561533 5.485652
v 0.13477528 21.676136 5.553361
v 0.11111879 22.125963 5.4751673
v -5.185604E-06 21.724375 5.583538
v -5.185604E-06 22.136118 5.5239553
v -0.44102073 21.006706 5.4972153
v -0.26950002 21.182919 5.591754
v -0.09797925 21.006706 5.4972153
v -0.44102073 21.359108 5.5364885
v -0.09797925 21.359108 5.5364885
v 0.0989601 21.006706 5.4972153
v 0.27048087 21.182919 5.591754
v 0.44200164 21.006706 5.4972153
v 0.0989601 21.359108 5.5364885
v 0.44200164 21.359108 5.5364885
v 0.17151558 21.545387 5.5358505
v -5.185604E-06 21.721577 5.591754
v 0.17151558 21.897768 5.562811
v -0.1715259 21.545387 5.5358505
v -0.1715259 21.897768 5.562811
vt 0.3063299 0.9137069
vt 0.32591695 0.9137069
vt 0.32591695 0.9224122
vt 0.29848394 0.9224122
vt 0.29054865 0.9139524
vt 0.3063299 0.9137069
vt 0.31724507 0.9089524
vt 0.32591695 0.9137069
vt 0.32591695 0.90833855
vt 0.2959393 0.9284613
vt 0.28944376 0.9364301
vt 0.28472278 0.9264859
vt 0.30714464 0.9552024
vt 0.30039242 0.95851713
vt 0.2878143 0.9488073
vt 0.29268035 0.96561533
vt 0.30348393 0.97819346
vt 0.31234553 0.9828698
vt 0.31992364 0.98565996
vt 0.31990132 0.9958385
vt 0.32591695 0.9968542
vt 0.32591695 0.986218
vt 0.29848394 0.9224122
vt 0.2959393 0.9284613
vt 0.28472278 0.9264859
vt 0.29054865 0.9139524
vt 0.32591695 0.9224122
vt 0.32591695 0.9137069
vt 0.3063299 0.9137069
vt 0.29848394 0.9224122
vt 0.29054865 0.9139524
vt 0.3063299 0.9137069
vt 0.32591695 0.9137069
vt 0.31724507 0.9089524
vt 0.32591695 0.90833855
vt 0.2959393 0.9284613
vt 0.28472278 0.9264859
vt 0.28944376 0.9364301
vt 0.30714464 0.9552024
vt 0.30039242 0.95851713
vt 0.2878143 0.9488073
vt 0.29268035 0.96561533
vt 0.30348393 0.97819346
vt 0.31234553 0.9828698
vt 0.31992364 0.98565996
vt 0.31990132 0.9958385
vt 0.32591695 0.9968542
vt 0.32591695 0.986218
vt 0.29848394 0.9224122
vt 0.29054865 0.9139524
vt 0.28472278 0.9264859
vt 0.2959393 0.9284613
vt 0.29848394 0.9224122
vt 0.31108436 0.9345216
vt 0.32591695 0.9224122
vt 0.2959393 0.9284613
vt 0.32591695 0.94799256
vt 0.30714464 0.9552024
vt 0.31864017 0.9613854
vt 0.31992364 0.98565996
vt 0.32591695 0.96398586
vt 0.32591695 0.986218
vt 0.29848394 0.9224122
vt 0.32591695 0.9224122
vt 0.31108436 0.9345216
vt 0.2959393 0.9284613
vt 0.32591695 0.94799256
vt 0.30714464 0.9552024
vt 0.31864017 0.9613854
vt 0.31992364 0.98565996
vt 0.32591695 0.96398586
vt 0.32591695 0.986218
vt 0.26543707 0.9547448
vt 0.2746893 0.96426487
vt 0.28395268 0.9547448
vt 0.26543707 0.97377384
vt 0.28395268 0.97377384
vt 0.26543707 0.9547448
vt 0.2746893 0.96426487
vt 0.28395268 0.9547448
vt 0.26543707 0.97377384
vt 0.28395268 0.97377384
vt 0.28395268 0.9547448
vt 0.2746893 0.96426487
vt 0.28395268 0.97377384
vt 0.26543707 0.9547448
vt 0.26543707 0.97377384
vn 0.008172452 -0.9910772 0.13303827
vn 0.00043308735 -0.9910772 0.13328849
vn 0.00043308735 -0.9910772 0.13328849
vn 0.0023679137 -0.9910772 0.13326813
vn 0.015911877 -0.9910772 0.13233593
vn 0.00043308735 -0.31387907 0.94946283
vn 0.00430274 -0.30613965 0.9519769
vn 0.00043308735 -0.29259568 0.9562362
vn 0.00043308735 -0.28098655 0.9597116
vn 0.9059437 0.40395093 0.12684509
vn 0.87692094 0.40588582 0.25742257
vn 0.8943346 0.42329943 0.14485565
vn 0.9059437 0.40588582 0.120510355
vn 0.8246799 0.40008128 0.39979744
vn 0.6292599 0.3478403 0.6950102
vn 0.6950449 0.36525393 0.6192755
vn 0.68537056 0.32268715 0.6527941
vn 0.8208102 0.52197695 0.23197137
vn 0.5692795 0.81026983 0.13922524
vn 0.7124585 0.69224393 0.11489663
vn 0.00043308735 0.98827624 0.15267576
vn 0.00043308735 0.98827624 0.15267576
vn 0.902074 -0.39707768 0.16909131
vn 0.902074 -0.39707768 0.16909131
vn 0.902074 -0.39707768 0.16909131
vn 0.902074 -0.39707768 0.16909131
vn 0.00043308735 -0.9910772 0.13328849
vn 0.00043308735 -0.9910772 0.13328849
vn -0.0073063374 -0.9910772 0.13308866
vn -0.0015017986 -0.9910772 0.13328066
vn -0.015045762 -0.9910772 0.13243723
vn 0.00043308735 -0.31387907 0.94946283
vn 0.00043308735 -0.29259568 0.9562362
vn -0.003436625 -0.30613965 0.9519804
vn 0.00043308735 -0.28098655 0.9597116
vn -0.9050776 0.40395093 0.1328843
vn -0.8934685 0.42329943 0.15010539
vn -0.87605476 0.40588582 0.26035503
vn -0.90701246 0.40588582 0.112183414
vn -0.8257487 0.40008128 0.39758536
vn -0.62839377 0.3478403 0.69579333
vn -0.6961136 0.36525393 0.618074
vn -0.6864393 0.32268715 0.6516702
vn -0.8218789 0.52197695 0.22815591
vn -0.57034826 0.81026983 0.13478021
vn -0.7135272 0.69224393 0.108061396
vn 0.00043308735 0.98827624 0.15267576
vn 0.00043308735 0.98827624 0.15267576
vn -0.9031427 -0.39707768 0.16328683
vn -0.9031427 -0.39707768 0.16328683
vn -0.9031427 -0.39707768 0.16328683
vn -0.9031427 -0.39707768 0.16328683
vn -0.30140376 -0.24615926 0.92117393
vn -0.044068575 -0.07395744 0.9962872
vn 0.00043308735 -0.25970322 0.9656884
vn -0.48908448 0.009241223 0.87218744
vn 0.00043308735 -0.07202256 0.9974029
vn -0.14855051 0.03245938 0.98837197
vn -0.23174918 -0.118459046 0.965536
vn -0.34397054 0.16209447 0.92488354
vn 0.00043308735 -0.07008773 0.9975407
vn 0.00043308735 0.16789901 0.98580414
vn 0.30226994 -0.24615926 0.92089003
vn 0.00043308735 -0.25970322 0.9656884
vn 0.042999804 -0.07395744 0.99633396
vn 0.4880157 0.009241223 0.8727859
vn 0.00043308735 -0.07202256 0.9974029
vn 0.14941663 0.03245938 0.9882414
vn 0.2306804 -0.118459046 0.9657919
vn 0.3448367 0.16209447 0.924561
vn 0.00043308735 -0.07008773 0.9975407
vn 0.00043308735 0.16789901 0.98580414
vn -0.19692183 -0.30613965 0.93139696
vn 0.00043308735 -0.09717566 0.99526715
vn 0.19778794 -0.30613965 0.93121344
vn -0.2085309 0.10211408 0.9726703
vn 0.20939708 0.10211408 0.97248423
vn -0.19692183 -0.30613965 0.93139696
vn 0.00043308735 -0.09717566 0.99526715
vn 0.19778794 -0.30613965 0.93121344
vn -0.2085309 0.10211408 0.9726703
vn 0.20939708 0.10211408 0.97248423
vn 0.118459046 -0.19391823 0.9738394
vn 0.00043308735 -0.07202256 0.9974029
vn 0.12039387 0.04600334 0.9916597
vn -0.11759293 -0.19391823 0.97394437
vn -0.12146258 0.04600334 0.9915294
g ebg003_2phase_Jormungandr_vulcan_skin_0
f 3/3/3 2/2/2 1/1/1
f 4/4/4 3/3/3 1/1/1
f 1/1/1 5/5/5 4/4/4
f 8/8/8 7/7/7 6/6/6
f 8/8/8 9/9/9 7/7/7
f 12/12/12 11/11/11 10/10/10
f 10/10/10 11/11/11 13/13/13
f 11/11/11 14/14/14 13/13/13
f 14/14/14 11/11/11 15/15/15
f 14/14/14 15/15/15 16/16/16
f 14/14/14 16/16/16 17/17/17
f 14/14/14 17/17/17 18/18/18
f 14/14/14 18/18/18 13/13/13
f 18/18/18 19/19/19 13/13/13
f 18/18/18 20/20/20 19/19/19
f 20/20/20 21/21/21 19/19/19
f 21/21/21 22/22/22 19/19/19
f 25/25/25 24/24/24 23/23/23
f 26/26/26 25/25/25 23/23/23
f 29/29/29 28/28/28 27/27/27
f 30/30/30 29/29/29 27/27/27
f 31/31/31 29/29/29 30/30/30
f 34/34/34 33/33/33 32/32/32
f 35/35/35 33/33/33 34/34/34
f 38/38/38 37/37/37 36/36/36
f 36/36/36 39/39/39 38/38/38
f 39/39/39 40/40/40 38/38/38
f 38/38/38 40/40/40 41/41/41
f 41/41/41 40/40/40 42/42/42
f 42/42/42 40/40/40 43/43/43
f 43/43/43 40/40/40 44/44/44
f 44/44/44 40/40/40 39/39/39
f 45/45/45 44/44/44 39/39/39
f 46/46/46 44/44/44 45/45/45
f 47/47/47 46/46/46 45/45/45
f 48/48/48 47/47/47 45/45/45
f 51/51/51 50/50/50 49/49/49
f 52/52/52 51/51/51 49/49/49
f 55/55/55 54/54/54 53/53/53
f 53/53/53 54/54/54 56/56/56
f 57/57/57 54/54/54 55/55/55
f 56/56/56 54/54/54 58/58/58
f 57/57/57 58/58/58 54/54/54
f 57/57/57 59/59/59 58/58/58
f 58/58/58 59/59/59 60/60/60
f 57/57/57 61/61/61 59/59/59
f 62/62/62 60/60/60 59/59/59
f 61/61/61 62/62/62 59/59/59
f 65/65/65 64/64/64 63/63/63
f 65/65/65 63/63/63 66/66/66
f 65/65/65 67/67/67 64/64/64
f 65/65/65 66/66/66 68/68/68
f 68/68/68 67/67/67 65/65/65
f 69/69/69 67/67/67 68/68/68
f 69/69/69 68/68/68 70/70/70
f 71/71/71 67/67/67 69/69/69
f 69/69/69 70/70/70 72/72/72
f 71/71/71 69/69/69 72/72/72
f 75/75/75 74/74/74 73/73/73
f 74/74/74 76/76/76 73/73/73
f 75/75/75 77/77/77 74/74/74
f 76/76/76 74/74/74 77/77/77
f 80/80/80 79/79/79 78/78/78
f 79/79/79 81/81/81 78/78/78
f 80/80/80 82/82/82 79/79/79
f 81/81/81 79/79/79 82/82/82
f 85/85/85 84/84/84 83/83/83
f 86/86/86 83/83/83 84/84/84
f 85/85/85 87/87/87 84/84/84
f 86/86/86 84/84/84 87/87/87
