g ecg005_body_parts_skin
v -0.43485087 0.005613953 4.7683716E-07
v -0.40425634 0.1613304 -0.009189427
v -0.40611583 0.1613304 4.7683716E-07
v -0.4296521 0.005613953 -0.026019037
v -0.38832992 -0.15010169 -0.025023758
v -0.39320272 -0.15010169 4.7683716E-07
v -0.32223487 -0.27392143 4.7683716E-07
v -0.30304885 0.1613304 -0.27276108
v -0.30985087 0.28514928 -0.12464121
v -0.23825264 0.28514928 -0.22931892
v -0.2919646 -0.15010169 -0.2727619
v -0.31535405 -0.27392143 -0.06256214
v -0.30366015 0.005613953 -0.29472393
v -0.20895278 -0.3923558 -0.007675737
v -0.21039349 -0.3923558 -3.5762787E-07
v -0.0089357495 -0.43473879 4.7683716E-07
v -0.23825264 -0.27392143 -0.22931892
v -0.16879761 0.1613304 -0.35792187
v -0.16277361 -0.15010169 -0.35792187
v -0.14915878 -0.3923558 -0.14022338
v -0.08515215 -0.3923558 -0.18400395
v -0.1691302 0.005613953 -0.38674232
v -0.13357908 -0.27392143 -0.30091548
v -0.0089357495 -0.15010169 -0.3857412
v -0.0089357495 -0.27392143 -0.32430494
v -0.0089357495 -0.3923558 -0.19830552
v 0.067281514 -0.3923558 -0.18400395
v -0.0089357495 0.1613304 -0.3857412
v -0.0089357495 0.005613953 -0.41680357
v 0.14490128 -0.15010169 -0.35792187
v 0.115707606 -0.27392143 -0.30091548
v -0.13357908 0.28514928 -0.30091467
v -0.058288306 0.3706153 -0.16926447
v -0.11716831 0.3706153 -0.12899065
v -0.033545256 0.41481227 1.3113022E-06
v -0.024573475 0.36568117 -0.18242142
v -0.0089357495 0.28514928 -0.32430494
v 0.15092614 0.1613304 -0.35792187
v 0.115707606 0.28514928 -0.30091467
v 0.1512579 0.005613953 -0.38674232
v 0.2851774 0.1613304 -0.27276108
v 0.22038199 0.28514928 -0.22931892
v 0.27409312 -0.15010169 -0.2727619
v 0.28578866 0.005613953 -0.29472393
v 0.36023927 0.12559432 -0.1482546
v 0.23832469 -0.2509293 -0.22931892
v 0.4028437 0.005613953 -0.16019234
v 0.39023745 0.12559432 4.7683716E-07
v 0.43485075 0.005613953 4.7683716E-07
v 0.3680656 -0.16879168 -3.5762787E-07
v 0.3463864 -0.15945166 -0.1482546
v 0.28959984 -0.27956226 -0.124642044
v 0.1312873 -0.3923558 -0.14022338
v 0.17506784 -0.3923558 -0.07621592
v 0.31299093 -0.27956226 -3.5762787E-07
v 0.18937024 -0.3923558 -3.5762787E-07
v 0.43485075 0.005613953 4.7683716E-07
v 0.36023927 0.12559432 0.14825636
v 0.39023745 0.12559432 4.7683716E-07
v 0.4028437 0.005613953 0.1601941
v 0.2851774 0.1613304 0.272762
v 0.3463864 -0.15945166 0.14825553
v 0.3680656 -0.16879168 -3.5762787E-07
v 0.27409312 -0.15010169 0.272762
v 0.28959984 -0.27956226 0.12464297
v 0.28578866 0.005613953 0.29472572
v 0.15092614 0.1613304 0.35792118
v 0.22038282 0.28514928 0.22931904
v 0.11570677 0.28514928 0.3009156
v -0.0089357495 0.1613304 0.3857422
v -0.0089357495 0.28514928 0.32430506
v 0.1512579 0.005613953 0.3867424
v 0.14490128 -0.15010169 0.35792118
v 0.23832552 -0.2509293 0.22931904
v 0.17506784 -0.3923558 0.07621688
v 0.31299093 -0.27956226 -3.5762787E-07
v 0.18937024 -0.3923558 -3.5762787E-07
v -0.0089357495 -0.43473879 4.7683716E-07
v 0.1312873 -0.3923558 0.14022267
v 0.067281514 -0.3923558 0.18400323
v 0.11570677 -0.27392143 0.3009156
v -0.0089357495 -0.15010169 0.3857422
v -0.0089357495 0.005613953 0.41680366
v -0.0089357495 -0.27392143 0.3243059
v -0.0089357495 -0.3923558 0.19830644
v -0.16879761 0.1613304 0.35792118
v -0.16277361 -0.15010169 0.35792118
v -0.08515215 -0.3923558 0.18400323
v -0.1691302 0.005613953 0.3867424
v -0.13357908 -0.27392143 0.3009156
v -0.2919646 -0.15010169 0.27276117
v -0.23825264 -0.27392143 0.2293182
v -0.14915878 -0.3923558 0.14022267
v -0.20895278 -0.3923558 0.007675022
v -0.21039349 -0.3923558 -3.5762787E-07
v -0.32223487 -0.27392143 4.7683716E-07
v -0.31535405 -0.27392143 0.06256226
v -0.39320272 -0.15010169 4.7683716E-07
v -0.38833076 -0.15010169 0.025023848
v -0.30366015 0.005613953 0.29472572
v -0.4296521 0.005613953 0.026019156
v -0.43485087 0.005613953 4.7683716E-07
v -0.40611583 0.1613304 4.7683716E-07
v -0.40425634 0.1613304 0.009191185
v -0.30304885 0.1613304 0.27276117
v -0.23825264 0.28514928 0.2293182
v -0.30985087 0.28514928 0.1246438
v -0.13357908 0.28514928 0.3009156
v -0.058288306 0.3706153 0.16926539
v -0.11716831 0.3706153 0.1289916
v -0.024573475 0.36568117 0.1824224
v -0.033545256 0.41481227 1.3113022E-06
vt 0.45877045 0.32846183
vt 0.4635561 0.35284576
vt 0.4632695 0.35284576
vt 0.45958427 0.32846183
vt 0.4660539 0.30407792
vt 0.46529126 0.30407792
vt 0.47640324 0.28469464
vt 0.47940773 0.35284576
vt 0.478338 0.37222904
vt 0.48955232 0.37222904
vt 0.48114285 0.30407792
vt 0.4774781 0.28469464
vt 0.47931045 0.32846183
vt 0.4941384 0.26615077
vt 0.49391317 0.26615077
vt 0.52545774 0.25951225
vt 0.48955232 0.28469464
vt 0.5004238 0.35284576
vt 0.50137067 0.30407792
vt 0.50349987 0.26615077
vt 0.5135217 0.26615077
vt 0.5003726 0.32846183
vt 0.5059414 0.28469464
vt 0.52545774 0.30407792
vt 0.52545774 0.28469464
vt 0.52545774 0.26615077
vt 0.53739375 0.26615077
vt 0.52545774 0.35284576
vt 0.52545774 0.32846183
vt 0.5495448 0.30407792
vt 0.5449741 0.28469464
vt 0.5059414 0.37222904
vt 0.5144788 0.38873577
vt 0.5052606 0.38873577
vt 0.5145914 0.3956558
vt 0.51975584 0.38796288
vt 0.52545774 0.37222904
vt 0.55048656 0.35284576
vt 0.5449741 0.37222904
vt 0.5505377 0.32846183
vt 0.5715077 0.35284576
vt 0.5613631 0.37222904
vt 0.5697726 0.30407792
vt 0.57160497 0.32846183
vt 0.5832646 0.34724626
vt 0.5641731 0.28829286
vt 0.5899339 0.32846183
vt 0.58795816 0.34724626
vt 0.5949447 0.32846183
vt 0.5844879 0.30115533
vt 0.5810944 0.30261406
vt 0.57220376 0.28380916
vt 0.5474155 0.26615077
vt 0.554269 0.26615077
vt 0.5758634 0.28380916
vt 0.55650574 0.26615077
vt 0.5949447 0.32846183
vt 0.5832646 0.34724626
vt 0.58795816 0.34724626
vt 0.5899339 0.32846183
vt 0.5715077 0.35284576
vt 0.5810944 0.30261406
vt 0.5844879 0.30115533
vt 0.5697726 0.30407792
vt 0.57220376 0.28380916
vt 0.57160497 0.32846183
vt 0.55048656 0.35284576
vt 0.5613631 0.37222904
vt 0.5449741 0.37222904
vt 0.52545774 0.35284576
vt 0.52545774 0.37222904
vt 0.5505377 0.32846183
vt 0.5495448 0.30407792
vt 0.5641731 0.28829286
vt 0.554269 0.26615077
vt 0.5758634 0.28380916
vt 0.55650574 0.26615077
vt 0.52545774 0.25951225
vt 0.5474155 0.26615077
vt 0.53739375 0.26615077
vt 0.5449741 0.28469464
vt 0.52545774 0.30407792
vt 0.52545774 0.32846183
vt 0.52545774 0.28469464
vt 0.52545774 0.26615077
vt 0.5004238 0.35284576
vt 0.50137067 0.30407792
vt 0.5135217 0.26615077
vt 0.5003726 0.32846183
vt 0.5059414 0.28469464
vt 0.48114285 0.30407792
vt 0.48955232 0.28469464
vt 0.50349987 0.26615077
vt 0.4941384 0.26615077
vt 0.49391317 0.26615077
vt 0.47640324 0.28469464
vt 0.4774781 0.28469464
vt 0.46529126 0.30407792
vt 0.4660539 0.30407792
vt 0.47931045 0.32846183
vt 0.45958427 0.32846183
vt 0.45877045 0.32846183
vt 0.4632695 0.35284576
vt 0.4635561 0.35284576
vt 0.47940773 0.35284576
vt 0.48955232 0.37222904
vt 0.478338 0.37222904
vt 0.5059414 0.37222904
vt 0.5144788 0.38873577
vt 0.5052606 0.38873577
vt 0.51975584 0.38796288
vt 0.5145914 0.3956558
vn -0.9992595 -0.03847867 -0
vn -0.92890453 0.20580995 -0.30786133
vn -0.9832452 0.18228783 -0
vn -0.95431054 -0.034570098 -0.2968102
vn -0.9034984 -0.34530526 -0.25387967
vn -0.9280959 -0.37234116 -0
vn -0.8077129 -0.58957607 -0
vn -0.7393365 0.29570818 -0.60492826
vn -0.82337177 0.41687536 -0.38506344
vn -0.5693115 0.6083977 -0.5529346
vn -0.73542786 -0.31794494 -0.59837854
vn -0.7803769 -0.5798224 -0.23413213
vn -0.75887954 -0.020889878 -0.6508959
vn -0.4813676 -0.8671059 -0.12811173
vn -0.51459086 -0.8573344 -0.013190374
vn -0.002561802 -0.9999968 -0
vn -0.6181693 -0.59154826 -0.51762664
vn -0.3602004 0.31720567 -0.8772891
vn -0.36215472 -0.31794494 -0.8762163
vn -0.3856064 -0.8671059 -0.31533322
vn -0.18822122 -0.8729688 -0.44999805
vn -0.369972 -0.007209718 -0.9290149
vn -0.30157113 -0.5935025 -0.7461968
vn -0.00060749054 -0.31794494 -0.948109
vn -0.00060749054 -0.58763963 -0.80912256
vn -0.00060749054 -0.8729688 -0.48777568
vn 0.2006864 -0.86906016 -0.4521719
vn -0.00060749054 0.31720567 -0.94835657
vn -0.00060749054 -0.0013468266 -0.9999989
vn 0.36289406 -0.31989926 -0.8751985
vn 0.312082 -0.59741116 -0.7387183
vn -0.27030218 0.6807072 -0.680863
vn -0.113957405 0.9249959 -0.36248627
vn -0.22144449 0.91913295 -0.32581744
vn -0.09830377 0.9951564 -0
vn -0.043602347 0.90740705 -0.41798478
vn -0.026013494 0.58690035 -0.8092412
vn 0.35898542 0.31720567 -0.877787
vn 0.31599063 0.47355044 -0.82213134
vn 0.368757 -0.007209718 -0.92949784
vn 0.6267258 0.2742108 -0.72939926
vn 0.4781983 0.48918486 -0.72940016
vn 0.6619034 -0.3316251 -0.67224157
vn 0.6873094 -0.015026987 -0.72620934
vn 0.8749231 0.27030218 -0.40180376
vn 0.58763963 -0.57395947 -0.5703071
vn 0.9198722 -0.009164035 -0.39211112
vn 0.93669623 0.35014305 -0
vn 0.9999989 0.00060749054 -0.0013329375
vn 0.937461 -0.34725958 -0.02403344
vn 0.8397455 -0.3492139 -0.41578496
vn 0.6638577 -0.65604043 -0.35903186
vn 0.35116822 -0.8651516 -0.35804144
vn 0.44497508 -0.8729688 -0.19980654
vn 0.6736293 -0.73812145 -0.037420474
vn 0.481784 -0.8762901 -0
vn 0.9999989 0.00060749054 -0.0013329375
vn 0.8749231 0.27030218 0.40180376
vn 0.93669623 0.35014305 -0
vn 0.9198722 -0.009164035 0.39211112
vn 0.6267258 0.2742108 0.72939926
vn 0.8397455 -0.3492139 0.41578496
vn 0.937461 -0.34725958 -0.02403344
vn 0.6619034 -0.3316251 0.67224157
vn 0.6638577 -0.65604043 0.35903186
vn 0.6873094 -0.015026987 0.72620934
vn 0.35898542 0.31720567 0.877787
vn 0.4781983 0.48918486 0.72940016
vn 0.31599063 0.47355044 0.82213134
vn -0.00060749054 0.31720567 0.94835657
vn -0.026013494 0.58690035 0.8092412
vn 0.368757 -0.007209718 0.92949784
vn 0.36289406 -0.31989926 0.8751985
vn 0.58763963 -0.57395947 0.5703071
vn 0.44497508 -0.8729688 0.19980654
vn 0.6736293 -0.73812145 -0.037420474
vn 0.481784 -0.8762901 -0
vn -0.002561802 -0.9999968 -0
vn 0.35116822 -0.8651516 0.35804144
vn 0.2006864 -0.86906016 0.4521719
vn 0.312082 -0.59741116 0.7387183
vn -0.00060749054 -0.31794494 0.948109
vn -0.00060749054 -0.0013468266 0.9999989
vn -0.00060749054 -0.58763963 0.80912256
vn -0.00060749054 -0.8729688 0.48777568
vn -0.3602004 0.31720567 0.8772891
vn -0.36215472 -0.31794494 0.8762163
vn -0.18822122 -0.8729688 0.44999805
vn -0.36801767 -0.007209718 0.92979085
vn -0.30157113 -0.5935025 0.7461968
vn -0.73542786 -0.31794494 0.59837854
vn -0.6181693 -0.59154826 0.51762664
vn -0.3856064 -0.8671059 0.31533322
vn -0.4813676 -0.8671059 0.12811173
vn -0.51459086 -0.8573344 -0.013190374
vn -0.8077129 -0.58957607 -0
vn -0.7803769 -0.5798224 0.23413213
vn -0.9280959 -0.37234116 -0
vn -0.9034984 -0.34530526 0.25387967
vn -0.75887954 -0.020889878 0.6508959
vn -0.95431054 -0.034570098 0.2968102
vn -0.9992595 -0.03847867 -0
vn -0.9832452 0.18228783 -0
vn -0.92890453 0.20580995 0.30786133
vn -0.7393365 0.29570818 0.60492826
vn -0.5693115 0.6083977 0.5529346
vn -0.82337177 0.41687536 0.38506344
vn -0.27030218 0.6807072 0.680863
vn -0.113957405 0.9249959 0.36248627
vn -0.22144449 0.91913295 0.32581744
vn -0.043602347 0.90740705 0.41798478
vn -0.09830377 0.9951564 -0
g ecg005_body_parts_skin_0
f 3/3/3 2/2/2 1/1/1
f 2/2/2 4/4/4 1/1/1
f 1/1/1 4/4/4 5/5/5
f 6/6/6 1/1/1 5/5/5
f 7/7/7 6/6/6 5/5/5
f 2/2/2 8/8/8 4/4/4
f 8/8/8 2/2/2 9/9/9
f 10/10/10 8/8/8 9/9/9
f 5/5/5 4/4/4 11/11/11
f 12/12/12 7/7/7 5/5/5
f 12/12/12 5/5/5 11/11/11
f 8/8/8 13/13/13 4/4/4
f 4/4/4 13/13/13 11/11/11
f 12/12/12 14/14/14 7/7/7
f 14/14/14 15/15/15 7/7/7
f 14/14/14 16/16/16 15/15/15
f 17/17/17 12/12/12 11/11/11
f 14/14/14 12/12/12 17/17/17
f 18/18/18 8/8/8 10/10/10
f 8/8/8 18/18/18 13/13/13
f 11/11/11 13/13/13 19/19/19
f 17/17/17 11/11/11 19/19/19
f 20/20/20 16/16/16 14/14/14
f 20/20/20 14/14/14 17/17/17
f 21/21/21 20/20/20 17/17/17
f 21/21/21 16/16/16 20/20/20
f 18/18/18 22/22/22 13/13/13
f 13/13/13 22/22/22 19/19/19
f 23/23/23 17/17/17 19/19/19
f 23/23/23 21/21/21 17/17/17
f 23/23/23 19/19/19 24/24/24
f 19/19/19 22/22/22 24/24/24
f 21/21/21 23/23/23 25/25/25
f 25/25/25 23/23/23 24/24/24
f 26/26/26 16/16/16 21/21/21
f 26/26/26 21/21/21 25/25/25
f 27/27/27 16/16/16 26/26/26
f 27/27/27 26/26/26 25/25/25
f 18/18/18 28/28/28 22/22/22
f 22/22/22 29/29/29 24/24/24
f 28/28/28 29/29/29 22/22/22
f 25/25/25 24/24/24 30/30/30
f 24/24/24 29/29/29 30/30/30
f 31/31/31 27/27/27 25/25/25
f 31/31/31 25/25/25 30/30/30
f 28/28/28 18/18/18 32/32/32
f 32/32/32 18/18/18 10/10/10
f 33/33/33 32/32/32 10/10/10
f 34/34/34 33/33/33 10/10/10
f 35/35/35 33/33/33 34/34/34
f 35/35/35 36/36/36 33/33/33
f 36/36/36 37/37/37 33/33/33
f 37/37/37 32/32/32 33/33/33
f 37/37/37 28/28/28 32/32/32
f 38/38/38 28/28/28 37/37/37
f 28/28/28 38/38/38 29/29/29
f 39/39/39 38/38/38 37/37/37
f 29/29/29 40/40/40 30/30/30
f 38/38/38 40/40/40 29/29/29
f 41/41/41 38/38/38 39/39/39
f 38/38/38 41/41/41 40/40/40
f 42/42/42 41/41/41 39/39/39
f 30/30/30 40/40/40 43/43/43
f 31/31/31 30/30/30 43/43/43
f 41/41/41 44/44/44 40/40/40
f 40/40/40 44/44/44 43/43/43
f 41/41/41 45/45/45 44/44/44
f 46/46/46 31/31/31 43/43/43
f 27/27/27 31/31/31 46/46/46
f 45/45/45 47/47/47 44/44/44
f 45/45/45 48/48/48 47/47/47
f 48/48/48 49/49/49 47/47/47
f 47/47/47 49/49/49 50/50/50
f 51/51/51 47/47/47 50/50/50
f 44/44/44 47/47/47 51/51/51
f 43/43/43 44/44/44 51/51/51
f 46/46/46 43/43/43 51/51/51
f 52/52/52 46/46/46 51/51/51
f 53/53/53 27/27/27 46/46/46
f 53/53/53 16/16/16 27/27/27
f 52/52/52 54/54/54 46/46/46
f 54/54/54 53/53/53 46/46/46
f 54/54/54 16/16/16 53/53/53
f 54/54/54 52/52/52 55/55/55
f 56/56/56 16/16/16 54/54/54
f 56/56/56 54/54/54 55/55/55
f 59/59/59 58/58/58 57/57/57
f 58/58/58 60/60/60 57/57/57
f 58/58/58 61/61/61 60/60/60
f 57/57/57 60/60/60 62/62/62
f 63/63/63 57/57/57 62/62/62
f 62/62/62 60/60/60 64/64/64
f 65/65/65 62/62/62 64/64/64
f 61/61/61 66/66/66 60/60/60
f 60/60/60 66/66/66 64/64/64
f 61/61/61 67/67/67 66/66/66
f 67/67/67 61/61/61 68/68/68
f 69/69/69 67/67/67 68/68/68
f 70/70/70 67/67/67 69/69/69
f 71/71/71 70/70/70 69/69/69
f 67/67/67 72/72/72 66/66/66
f 67/67/67 70/70/70 72/72/72
f 64/64/64 66/66/66 73/73/73
f 66/66/66 72/72/72 73/73/73
f 74/74/74 65/65/65 64/64/64
f 74/74/74 64/64/64 73/73/73
f 75/75/75 65/65/65 74/74/74
f 65/65/65 75/75/75 76/76/76
f 75/75/75 77/77/77 76/76/76
f 75/75/75 78/78/78 77/77/77
f 79/79/79 75/75/75 74/74/74
f 79/79/79 78/78/78 75/75/75
f 80/80/80 79/79/79 74/74/74
f 80/80/80 78/78/78 79/79/79
f 81/81/81 74/74/74 73/73/73
f 81/81/81 80/80/80 74/74/74
f 73/73/73 72/72/72 82/82/82
f 81/81/81 73/73/73 82/82/82
f 70/70/70 83/83/83 72/72/72
f 72/72/72 83/83/83 82/82/82
f 80/80/80 81/81/81 84/84/84
f 84/84/84 81/81/81 82/82/82
f 85/85/85 78/78/78 80/80/80
f 85/85/85 80/80/80 84/84/84
f 70/70/70 86/86/86 83/83/83
f 86/86/86 70/70/70 71/71/71
f 82/82/82 83/83/83 87/87/87
f 84/84/84 82/82/82 87/87/87
f 88/88/88 85/85/85 84/84/84
f 88/88/88 78/78/78 85/85/85
f 86/86/86 89/89/89 83/83/83
f 83/83/83 89/89/89 87/87/87
f 90/90/90 84/84/84 87/87/87
f 90/90/90 88/88/88 84/84/84
f 90/90/90 87/87/87 91/91/91
f 87/87/87 89/89/89 91/91/91
f 88/88/88 90/90/90 92/92/92
f 92/92/92 90/90/90 91/91/91
f 93/93/93 78/78/78 88/88/88
f 93/93/93 88/88/88 92/92/92
f 94/94/94 78/78/78 93/93/93
f 94/94/94 93/93/93 92/92/92
f 95/95/95 78/78/78 94/94/94
f 95/95/95 94/94/94 96/96/96
f 94/94/94 97/97/97 96/96/96
f 97/97/97 94/94/94 92/92/92
f 96/96/96 97/97/97 98/98/98
f 97/97/97 92/92/92 99/99/99
f 92/92/92 91/91/91 99/99/99
f 97/97/97 99/99/99 98/98/98
f 89/89/89 100/100/100 91/91/91
f 91/91/91 100/100/100 99/99/99
f 99/99/99 101/101/101 98/98/98
f 100/100/100 101/101/101 99/99/99
f 101/101/101 102/102/102 98/98/98
f 103/103/103 102/102/102 101/101/101
f 104/104/104 103/103/103 101/101/101
f 104/104/104 101/101/101 100/100/100
f 105/105/105 100/100/100 89/89/89
f 105/105/105 104/104/104 100/100/100
f 86/86/86 105/105/105 89/89/89
f 104/104/104 105/105/105 106/106/106
f 107/107/107 104/104/104 106/106/106
f 105/105/105 86/86/86 108/108/108
f 106/106/106 105/105/105 108/108/108
f 108/108/108 86/86/86 71/71/71
f 106/106/106 108/108/108 109/109/109
f 109/109/109 108/108/108 71/71/71
f 110/110/110 106/106/106 109/109/109
f 111/111/111 109/109/109 71/71/71
f 112/112/112 110/110/110 109/109/109
f 112/112/112 109/109/109 111/111/111
