g emptower_body_001_skin
v -0.5615073 -0.01179133 -0.38289386
v -0.6022322 0.17527772 -0.39534277
v -0.39916304 0.13992977 -0.20600133
v -0.2725719 -0.056168593 -0.019966835
v -0.4189833 0.49466467 -0.3151389
v -0.28517058 0.250295 -0.09579928
v 0.003054138 0.2171095 0.3339282
v 0.010076107 -0.07202613 0.3374145
v 0.30515638 -0.051838968 -0.019966833
v -0.2046152 0.54301006 -0.077873245
v -0.20406325 0.9311327 -0.3027553
v 0.28561124 0.25607994 -0.095799275
v 0.41187635 0.1601722 -0.20600133
v 0.56448334 -0.009882444 -0.38289386
v 0.6103401 0.14849651 -0.39534277
v 0.43132696 0.48596516 -0.3151389
v 0.21473487 0.54301 -0.0778732
v 0.20956436 0.9284649 -0.30275527
v -0.00083597144 0.5162916 0.29900077
v 0.111822285 0.80133456 0.016937546
v 0.008534578 0.79608846 0.14795302
v -0.094291136 0.80324304 0.01693751
v 0.0035564424 0.9297936 0.093600884
v 0.112946495 0.92908806 0.0046627643
v 0.11414344 1.0648465 0.10653241
v 0.21530814 1.0812353 -0.20545597
v -0.09894145 0.9304547 0.0046627643
v 0.120342046 1.7678843 0.09768938
v 0.24115121 1.7685964 -0.24704811
v 0.0031918634 1.0654305 0.19547051
v -0.10271631 1.0659883 0.106532395
v -0.21089478 1.0677363 -0.20545603
v 0.12233812 1.9942878 0.09044838
v 0.24965261 1.994713 -0.24704814
v 0.1234759 2.1256585 0.0061780745
v 0.00033624074 2.1256585 0.08776184
v 0.0013056968 1.7671825 0.19547051
v -0.122225635 1.7664543 0.09768938
v -0.24580118 1.765726 -0.24704808
v 0.00069405866 1.9947271 0.16267876
v -0.12685326 2.1256585 0.0061780745
v -0.12860784 1.9956031 0.09044838
v -0.25720719 1.9938011 -0.24704812
vt 0.60236853 -0.00011104345
vt 0.52168983 0.051720172
vt 0.60613096 0.11112267
vt 0.7204191 0.086504996
vt 0.47347325 0.22974071
vt 0.6074156 0.19058433
vt 0.7212508 0.28091252
vt 0.8261421 0.1809952
vt 0.9235021 0.2926547
vt 0.5322742 0.322787
vt 0.39500678 0.46044543
vt 0.80752283 0.39478922
vt 0.8862107 0.405541
vt 1.000489 0.39936155
vt 0.9606366 0.47169647
vt 0.7777122 0.5278173
vt 0.68079716 0.47130984
vt 0.5424478 0.6059967
vt 0.6139105 0.3854973
vt 0.5528563 0.52635276
vt 0.51813257 0.4879129
vt 0.4791804 0.4540287
vt 0.46901456 0.53350466
vt 0.5080076 0.5719979
vt 0.4603494 0.6205039
vt 0.4903748 0.6621383
vt 0.4324783 0.49743673
vt 0.21354714 0.87169707
vt 0.25608236 0.91473675
vt 0.42084634 0.58141464
vt 0.38313892 0.5441022
vt 0.3442058 0.5064073
vt 0.1340679 0.9525902
vt 0.17900878 0.9978323
vt 0.08794278 0.99952126
vt 0.04432991 0.9559084
vt 0.17163604 0.82928896
vt 0.12814239 0.7852794
vt 0.08463317 0.7412542
vt 0.090829015 0.9096627
vt -0.0007172823 0.91086125
vt 0.04472351 0.8641776
vt -0.000184834 0.81799275
vn -0.7450871 0.019984495 0.66666764
vn -0.7035398 0.1027137 0.7031939
vn -0.7339538 0.10184295 0.67152053
vn -0.7871937 0.07090503 0.6126162
vn -0.7260775 0.22946873 0.64819396
vn -0.7897566 0.13452211 0.5984884
vn -0.009087569 0.15389286 0.98804575
vn -0.0025576872 0.011994659 0.9999248
vn 0.7817075 0.1263069 0.6107208
vn -0.8107673 0.21652533 0.5438503
vn -0.90395397 0.05253294 0.42439085
vn 0.7766569 0.16806982 0.60708857
vn 0.73478967 0.1336893 0.66498965
vn 0.768946 0.025563296 0.63880247
vn 0.73540795 0.09938788 0.6702963
vn 0.7269977 0.23070809 0.6467211
vn 0.8130338 0.20665284 0.54430753
vn 0.914055 0.0670232 0.4000141
vn -0.0126804765 0.2911884 0.95658165
vn 0.84837633 0.17295723 0.50034314
vn 0.010891555 0.32118648 0.94695336
vn -0.8456601 0.17167974 0.50535643
vn -0.024520991 -0.26230863 0.9646724
vn 0.8664867 -0.12613113 0.48300287
vn 0.78081936 -0.21660066 0.5860079
vn 0.9434053 -0.12777804 0.30603775
vn -0.859336 -0.1556935 0.48713574
vn 0.80726814 0.01259073 0.59005064
vn 0.94347966 -0.013364042 0.33116072
vn -0.0049792593 -0.28530052 0.9584252
vn -0.7798254 -0.22414058 0.58449423
vn -0.9322498 -0.16111928 0.3239613
vn 0.7483907 0.20337354 0.6313087
vn 0.9382968 0.034974407 0.3440581
vn 0.76433367 0.33583412 0.5504629
vn 0.011738915 0.5201581 0.8539893
vn 0.0052112876 0.04018478 0.9991786
vn -0.801192 0.0014826197 0.5984056
vn -0.94006604 -0.027922899 0.33984718
vn 0.010543148 0.29241464 0.9562335
vn -0.7508338 0.3556865 0.5565391
vn -0.7406424 0.20566323 0.6396495
vn -0.9369136 0.028133603 0.3484272
g emptower_body_001_skin_0
f 3/3/3 2/2/2 1/1/1
f 4/4/4 3/3/3 1/1/1
f 2/2/2 3/3/3 5/5/5
f 6/6/6 3/3/3 4/4/4
f 3/3/3 6/6/6 5/5/5
f 6/6/6 4/4/4 7/7/7
f 4/4/4 8/8/8 7/7/7
f 8/8/8 9/9/9 7/7/7
f 10/10/10 5/5/5 6/6/6
f 6/6/6 7/7/7 10/10/10
f 11/11/11 5/5/5 10/10/10
f 9/9/9 12/12/12 7/7/7
f 12/12/12 9/9/9 13/13/13
f 9/9/9 14/14/14 13/13/13
f 14/14/14 15/15/15 13/13/13
f 16/16/16 13/13/13 15/15/15
f 12/12/12 13/13/13 16/16/16
f 12/12/12 16/16/16 17/17/17
f 12/12/12 17/17/17 7/7/7
f 16/16/16 18/18/18 17/17/17
f 17/17/17 19/19/19 7/7/7
f 7/7/7 19/19/19 10/10/10
f 17/17/17 20/20/20 19/19/19
f 18/18/18 20/20/20 17/17/17
f 10/10/10 19/19/19 21/21/21
f 20/20/20 21/21/21 19/19/19
f 22/22/22 10/10/10 21/21/21
f 11/11/11 10/10/10 22/22/22
f 21/21/21 20/20/20 23/23/23
f 22/22/22 21/21/21 23/23/23
f 18/18/18 24/24/24 20/20/20
f 20/20/20 24/24/24 23/23/23
f 24/24/24 18/18/18 25/25/25
f 24/24/24 25/25/25 23/23/23
f 18/18/18 26/26/26 25/25/25
f 11/11/11 22/22/22 27/27/27
f 27/27/27 22/22/22 23/23/23
f 25/25/25 26/26/26 28/28/28
f 26/26/26 29/29/29 28/28/28
f 25/25/25 30/30/30 23/23/23
f 23/23/23 30/30/30 27/27/27
f 25/25/25 28/28/28 30/30/30
f 27/27/27 31/31/31 11/11/11
f 30/30/30 31/31/31 27/27/27
f 31/31/31 32/32/32 11/11/11
f 28/28/28 29/29/29 33/33/33
f 29/29/29 34/34/34 33/33/33
f 35/35/35 33/33/33 34/34/34
f 33/33/33 35/35/35 36/36/36
f 28/28/28 37/37/37 30/30/30
f 30/30/30 37/37/37 31/31/31
f 28/28/28 33/33/33 37/37/37
f 31/31/31 38/38/38 32/32/32
f 37/37/37 38/38/38 31/31/31
f 38/38/38 39/39/39 32/32/32
f 40/40/40 33/33/33 36/36/36
f 33/33/33 40/40/40 37/37/37
f 37/37/37 40/40/40 38/38/38
f 40/40/40 36/36/36 41/41/41
f 38/38/38 42/42/42 39/39/39
f 40/40/40 42/42/42 38/38/38
f 42/42/42 40/40/40 41/41/41
f 42/42/42 43/43/43 39/39/39
f 43/43/43 42/42/42 41/41/41
