g fbx_fcbg_arkcity_001_Eniksroom_bottom
v -3.5050067E-05 0.0046502007 0.20606467
v 0.20104045 0.0046502007 0.50134116
v -2.9585199E-05 0.0046502007 0.5413442
v 0.070009366 0.0046502007 0.19070455
v 0.13039558 0.0046502003 0.15204112
v 0.37153453 0.0046502007 0.38742125
v 0.4854552 0.0046502003 0.2169275
v 0.1690598 0.0046502007 0.09165488
v 0.1844197 0.0046502007 0.020033568
v 0.5254592 0.0046502007 0.020033566
v 0.51135844 0.0046502007 -0.05234219
v 0.1690598 0.0046502007 -0.04842428
v 0.48775956 0.0046502007 -0.17346935
v 0.4854553 0.0046502007 -0.18529646
v 0.1303956 0.0046502007 -0.10881052
v 0.3715347 0.0046502007 -0.35579026
v 0.20104055 0.0046502007 -0.4697103
v 0.07000947 0.0046502007 -0.14747386
v -3.5050067E-05 0.0046502007 -0.16283408
v 0.054259345 0.0046502007 -0.4989125
v -2.9585199E-05 0.0046502007 -0.49902612
v -0.20109959 0.0046502007 0.50134116
v -3.5050067E-05 0.0046502007 0.20606467
v -2.9585199E-05 0.0046502007 0.5413442
v -0.070068546 0.0046502007 0.19070455
v -0.13045478 0.0046502007 0.15204112
v -0.37159374 0.0046502007 0.38742125
v -0.4855143 0.0046502007 0.2169275
v -0.16911899 0.0046502007 0.09165488
v -0.18447891 0.0046502007 0.020033568
v -0.5255183 0.0046502007 0.020033566
v -0.5107415 0.0046502007 -0.05581206
v -0.49148113 0.0046502007 -0.15467076
v -0.16911897 0.0046502003 -0.048424285
v -0.48551434 0.0046502007 -0.18529646
v -0.13045476 0.0046502007 -0.10881052
v -0.37159386 0.0046502007 -0.35579026
v -0.20109971 0.0046502007 -0.4697103
v -0.07006866 0.0046502007 -0.14747386
v -3.5050067E-05 0.0046502007 -0.16283408
v -0.054318503 0.0046502007 -0.4989125
v -2.9585199E-05 0.0046502007 -0.49902612
vt 0.34615603 0.4631937
vt 0.2253187 0.64052814
vt 0.34615603 0.66455644
vt 0.30402783 0.45397216
vt 0.2681983 0.43042636
vt 0.12294296 0.5721094
vt 0.054545432 0.46972752
vt 0.24457124 0.39450538
vt 0.23534873 0.35152125
vt 0.030528335 0.35152125
vt 0.038992908 0.3080568
vt 0.24456742 0.31039983
vt 0.053159114 0.23531519
vt 0.054542333 0.22821254
vt 0.26790026 0.27426913
vt 0.12293772 0.12582953
vt 0.22531345 0.057410892
vt 0.3040214 0.25093117
vt 0.34615603 0.24170938
vt 0.31352854 0.039870657
vt 0.3459254 0.03946286
vt 0.2253187 0.64052814
vt 0.34615603 0.4631937
vt 0.34615603 0.66455644
vt 0.30402783 0.45397216
vt 0.2681983 0.43042636
vt 0.12294284 0.5721094
vt 0.054545432 0.46972752
vt 0.24457124 0.39450538
vt 0.23534873 0.35152125
vt 0.030528335 0.35152125
vt 0.039398633 0.305973
vt 0.050960355 0.24660447
vt 0.24456742 0.31039983
vt 0.054542094 0.22821254
vt 0.26790014 0.27426913
vt 0.1229376 0.12582953
vt 0.22531345 0.057410892
vt 0.3040214 0.25093117
vt 0.34615603 0.24170938
vt 0.31352854 0.039870657
vt 0.3459254 0.03946286
vn -9.112255E-06 0.9716674 -0.23635235
vn -0.28557003 0.6657227 -0.6893931
vn -0 0.6657115 -0.7462092
vn -0.10748511 0.95974314 -0.2594996
vn -0.16735083 0.9720418 -0.16470678
vn -0.5276431 0.6657201 -0.52764535
vn -0.68848366 0.66612065 -0.28683376
vn -0.25678658 0.96039253 -0.10819867
vn -0.23476294 0.97204846 0.0028532795
vn -0.746211 0.66570276 -0.0029959402
vn -0.44113645 0.89331514 0.085945286
vn -0.2563559 0.9606614 0.1068239
vn -0.45430973 0.8864357 0.08851154
vn -0.69027936 0.66533357 0.28433385
vn -0.16493165 0.97241694 0.16493312
vn -0.527644 0.66571885 0.52764595
vn -0.29208007 0.6680095 0.68443584
vn -0.10891792 0.9602617 0.25697145
vn -9.040165E-06 0.97166675 0.2363551
vn -0.056501895 0.96170133 0.2682129
vn -0.0010218228 0.9992299 -0.039222587
vn 0.28557009 0.6657227 -0.68939316
vn -9.112255E-06 0.9716674 -0.23635235
vn -0 0.6657115 -0.7462092
vn 0.107490145 0.95974225 -0.25950086
vn 0.16735113 0.97204167 -0.16470711
vn 0.5276441 0.6657188 -0.52764595
vn 0.6884837 0.66612065 -0.28683373
vn 0.2567867 0.9603924 -0.10819871
vn 0.2347616 0.97204876 0.0028533726
vn 0.74621093 0.6657028 -0.0029960652
vn 0.4284375 0.8997077 0.08347125
vn 0.45398018 0.8866109 0.08844805
vn 0.2563563 0.96066123 0.10682415
vn 0.6902788 0.6653338 0.28433454
vn 0.16493136 0.97241706 0.16493297
vn 0.527644 0.6657188 0.527646
vn 0.29258555 0.6681915 0.6840423
vn 0.10892308 0.9602608 0.2569725
vn -9.040165E-06 0.97166675 0.2363551
vn 0.053797893 0.96726894 0.24798486
vn -0.0010218228 0.9992299 -0.039222587
g fbx_fcbg_arkcity_001_Eniksroom_bottom_0
f 3/3/3 2/2/2 1/1/1
f 4/4/4 1/1/1 2/2/2
f 4/4/4 2/2/2 5/5/5
f 6/6/6 5/5/5 2/2/2
f 6/6/6 7/7/7 5/5/5
f 8/8/8 5/5/5 7/7/7
f 8/8/8 7/7/7 9/9/9
f 10/10/10 9/9/9 7/7/7
f 10/10/10 11/11/11 9/9/9
f 9/9/9 11/11/11 12/12/12
f 13/13/13 12/12/12 11/11/11
f 14/14/14 12/12/12 13/13/13
f 12/12/12 14/14/14 15/15/15
f 16/16/16 15/15/15 14/14/14
f 16/16/16 17/17/17 15/15/15
f 18/18/18 15/15/15 17/17/17
f 18/18/18 17/17/17 19/19/19
f 20/20/20 19/19/19 17/17/17
f 21/21/21 19/19/19 20/20/20
f 24/24/24 23/23/23 22/22/22
f 25/25/25 22/22/22 23/23/23
f 25/25/25 26/26/26 22/22/22
f 27/27/27 22/22/22 26/26/26
f 27/27/27 26/26/26 28/28/28
f 29/29/29 28/28/28 26/26/26
f 29/29/29 30/30/30 28/28/28
f 31/31/31 28/28/28 30/30/30
f 32/32/32 31/31/31 30/30/30
f 32/32/32 30/30/30 33/33/33
f 34/34/34 33/33/33 30/30/30
f 35/35/35 33/33/33 34/34/34
f 34/34/34 36/36/36 35/35/35
f 37/37/37 35/35/35 36/36/36
f 37/37/37 36/36/36 38/38/38
f 39/39/39 38/38/38 36/36/36
f 39/39/39 40/40/40 38/38/38
f 41/41/41 38/38/38 40/40/40
f 42/42/42 41/41/41 40/40/40
