g fcbg_desert_003_Transmissiontower_01
v -0.62539583 -0.00017647179 -0.62849814
v -0.40525684 7.3484707 0.40726727
v -0.62539583 -0.00017652674 0.62849814
v -0.40525684 7.3484707 -0.40726662
v 0.6253968 -0.0001764171 -0.62849814
v 4.6492815E-08 9.165778 4.0064882E-07
v 0.40525708 7.3484707 -0.40726662
v 4.6492815E-08 9.165778 4.0064882E-07
v -0.40525684 7.3484707 0.40726727
v 0.40525708 7.3484707 0.40726727
v -0.62539583 -0.00017652674 0.62849814
v 0.40525708 7.3484707 -0.40726662
v 0.6253968 -0.00017647205 0.62849814
v 0.6253968 -0.0001764171 -0.62849814
vt 0.035260707 0.6120297
vt 0.048735052 0.7754437
vt 0.0659273 0.6134305
vt 0.029596362 0.7746264
vt 0.008213314 0.6119776
vt 0.034031525 0.8184966
vt 0.010593293 0.77482414
vt 0.020558937 0.8184711
vt 0.010593293 0.77482414
vt 0.029596362 0.7746264
vt 0.008213314 0.6119776
vt 0.048735052 0.7754437
vt 0.035260707 0.6120297
vt 0.0659273 0.6134305
vn -0.70644313 0.042431742 -0.7064968
vn -0.69746196 0.16403225 0.6975961
vn -0.70644313 0.04243168 0.7064968
vn -0.69746196 0.16403225 -0.6975961
vn 0.70644313 0.04243181 -0.7064968
vn -0 1 0
vn 0.69746196 0.16403225 -0.6975961
vn -0 1 0
vn -0.69746196 0.16403225 0.6975961
vn 0.69746196 0.16403225 0.6975961
vn -0.70644313 0.04243168 0.7064968
vn 0.69746196 0.16403225 -0.6975961
vn 0.70644313 0.042431742 0.7064968
vn 0.70644313 0.04243181 -0.7064968
g fcbg_desert_003_Transmissiontower_01_0
f 3/3/3 2/2/2 1/1/1
f 2/2/2 4/4/4 1/1/1
f 1/1/1 4/4/4 5/5/5
f 2/2/2 6/6/6 4/4/4
f 4/4/4 7/7/7 5/5/5
f 4/4/4 8/8/8 7/7/7
f 10/10/10 8/8/8 9/9/9
f 10/10/10 9/9/9 11/11/11
f 12/12/12 6/6/6 10/10/10
f 13/13/13 10/10/10 11/11/11
f 12/12/12 10/10/10 13/13/13
f 14/14/14 12/12/12 13/13/13
