g fcbg_cityforest_002_stone_02
v 0.113220215 0.00022470206 0.4199867
v 0.06567001 0.1703853 0.37233353
v 0.14824963 0.00022325665 0.30911824
v 0.08487034 0.16759554 0.25052643
v -0.15007769 0.18909001 0.3931914
v 0.20254803 0.15514705 0.12628175
v 0.012255669 0.17842591 -0.012256612
v 0.30370343 -3.1217933E-06 0.14636073
v 0.09881726 0.14276429 -0.030549496
v 0.16353342 -0.0002066344 -0.0568346
v 0.05868894 0.14137337 -0.1988167
v 0.085484326 -0.0003260672 -0.29272312
v -0.15630245 0.18471232 -0.18736456
v -0.15630627 0.18471292 -0.18736456
v -0.16969681 -0.0003260523 -0.26547244
v -0.06288147 0.26849246 -0.022865271
v -0.45518208 0.23306407 -0.078247055
v -0.51326466 -0.00022951514 -0.12674524
v -0.4798088 0.23420957 0.1550465
v -0.5315914 0.00035718083 0.16899489
v -0.06628513 0.27065796 0.23771861
v -0.38127327 0.22705255 0.4528866
v -0.42527676 0.00031206757 0.51026344
v -0.021897316 0.18456158 0.2465954
v -0.17431355 0.25247496 0.36569598
v -0.17236519 0.18525156 0.49790195
v -0.15257168 0.00023406744 0.5569973
v -0.15007769 0.18909001 0.3931914
v -0.11844085 0.00022938848 0.44516286
v -0.11844085 0.00022938848 0.44516286
v -0.15007769 0.18909001 0.3931914
v 0.06567001 0.1703853 0.37233353
v 0.113220215 0.00022470206 0.4199867
v -0.64578784 -0.0010491535 0.08164989
v -0.6952101 0.12968068 -0.13362491
v -0.64448893 -0.0010490716 -0.18390071
v -0.69651186 0.12968078 0.03137028
v -0.9248396 -0.001049146 0.09464847
v -0.8741156 0.12968084 0.04437649
v -0.9443375 -0.0010491014 -0.16179836
v -0.8936144 0.12968068 -0.11152447
vt 0.14766696 0.11944393
vt 0.14461052 0.13038918
vt 0.15585443 0.124823116
vt 0.14963187 0.1359131
vt 0.13560686 0.13283473
vt 0.15900943 0.1402033
vt 0.15115781 0.15166216
vt 0.17072634 0.13544933
vt 0.16347566 0.15147984
vt 0.17471853 0.1498065
vt 0.16167566 0.15565938
vt 0.17011946 0.1632101
vt 0.14588924 0.16436292
vt 0.14567192 0.16454805
vt 0.14915068 0.17706442
vt 0.1447446 0.15349615
vt 0.12916999 0.16357836
vt 0.11903455 0.17376915
vt 0.12387002 0.15321837
vt 0.10967579 0.15844285
vt 0.14009854 0.14222273
vt 0.12256586 0.13840283
vt 0.109692864 0.13350663
vt 0.14374532 0.13891359
vt 0.13312069 0.1385965
vt 0.12998872 0.13067928
vt 0.1252131 0.11877974
vt 0.13560686 0.13283473
vt 0.13644004 0.119111836
vt 0.13644004 0.119111836
vt 0.13560686 0.13283473
vt 0.14461052 0.13038918
vt 0.14766696 0.11944393
vt 0.17711456 0.13371241
vt 0.1930411 0.13565409
vt 0.19741416 0.12901293
vt 0.18340984 0.1380416
vt 0.18045028 0.15529338
vt 0.18513705 0.1486098
vt 0.2010709 0.15231152
vt 0.1945266 0.14756656
vn 0.71370476 0.3559432 0.6032661
vn 0.5698999 0.7223074 0.3917731
vn 0.81234306 0.41565603 0.40905848
vn 0.4749991 0.85927004 0.18981808
vn 0.3087831 0.8657609 0.3938412
vn 0.5515789 0.8048551 0.21901837
vn 0.42690307 0.89346844 -0.13952763
vn 0.77951723 0.5763758 0.24524257
vn 0.53473276 0.8043317 -0.25905862
vn 0.7567711 0.5926119 -0.2758776
vn 0.34827298 0.78795844 -0.5077671
vn 0.40268585 0.5249761 -0.7498294
vn 0.18508345 0.7529535 -0.6315102
vn -0.054323677 0.6778333 -0.733206
vn -0.10114915 0.3695149 -0.9237032
vn 0.4375018 0.8552725 -0.27767107
vn -0.5659823 0.70079124 -0.43423006
vn -0.76639026 0.2956325 -0.57030463
vn -0.6860494 0.72329634 0.07860421
vn -0.9637273 0.24056067 0.11558665
vn 0.47197527 0.8528637 0.22329988
vn -0.44725248 0.69772416 0.5595947
vn -0.6196341 0.29865122 0.72585195
vn 0.46446648 0.87437403 0.14050213
vn 0.21553122 0.86396986 0.45508507
vn 0.15490994 0.6847368 0.7121365
vn 0.16177283 0.32221174 0.9327428
vn 0.5698999 0.7223074 0.3917731
vn 0.71370476 0.3559432 0.6032661
vn 0.10992515 0.28820422 0.9512385
vn 0.10992515 0.28820422 0.9512385
vn 0.10992514 0.28820422 0.9512385
vn 0.10992515 0.28820422 0.9512385
vn 0.63741285 0.467901 0.61218745
vn 0.43451762 0.76010656 -0.48314855
vn 0.59492433 0.4971187 -0.63161546
vn 0.47344592 0.7596315 0.44587994
vn -0.5868868 0.47150645 0.6582139
vn -0.41416842 0.75954664 0.5015509
vn -0.6627311 0.47883162 -0.5757671
vn -0.5097686 0.758145 -0.40663522
g fcbg_cityforest_002_stone_02_0
f 3/3/3 2/2/2 1/1/1
f 4/4/4 2/2/2 3/3/3
f 2/2/2 4/4/4 5/5/5
f 6/6/6 4/4/4 3/3/3
f 6/6/6 7/7/7 4/4/4
f 8/8/8 6/6/6 3/3/3
f 9/9/9 6/6/6 8/8/8
f 7/7/7 6/6/6 9/9/9
f 10/10/10 9/9/9 8/8/8
f 11/11/11 9/9/9 10/10/10
f 9/9/9 11/11/11 7/7/7
f 12/12/12 11/11/11 10/10/10
f 13/13/13 11/11/11 12/12/12
f 11/11/11 13/13/13 7/7/7
f 14/14/14 13/13/13 12/12/12
f 15/15/15 14/14/14 12/12/12
f 16/16/16 13/13/13 14/14/14
f 7/7/7 13/13/13 16/16/16
f 17/17/17 14/14/14 15/15/15
f 17/17/17 16/16/16 14/14/14
f 18/18/18 17/17/17 15/15/15
f 19/19/19 17/17/17 18/18/18
f 16/16/16 17/17/17 19/19/19
f 20/20/20 19/19/19 18/18/18
f 7/7/7 16/16/16 21/21/21
f 21/21/21 16/16/16 19/19/19
f 22/22/22 19/19/19 20/20/20
f 23/23/23 22/22/22 20/20/20
f 24/24/24 7/7/7 21/21/21
f 7/7/7 24/24/24 4/4/4
f 4/4/4 24/24/24 5/5/5
f 24/24/24 21/21/21 5/5/5
f 21/21/21 19/19/19 25/25/25
f 5/5/5 21/21/21 25/25/25
f 19/19/19 22/22/22 25/25/25
f 22/22/22 5/5/5 25/25/25
f 22/22/22 26/26/26 5/5/5
f 26/26/26 22/22/22 23/23/23
f 27/27/27 26/26/26 23/23/23
f 28/28/28 26/26/26 27/27/27
f 29/29/29 28/28/28 27/27/27
f 32/32/32 31/31/31 30/30/30
f 33/33/33 32/32/32 30/30/30
f 36/36/36 35/35/35 34/34/34
f 35/35/35 37/37/37 34/34/34
f 34/34/34 37/37/37 38/38/38
f 37/37/37 39/39/39 38/38/38
f 37/37/37 35/35/35 39/39/39
f 38/38/38 39/39/39 40/40/40
f 41/41/41 35/35/35 36/36/36
f 40/40/40 41/41/41 36/36/36
f 35/35/35 41/41/41 39/39/39
f 39/39/39 41/41/41 40/40/40
