g fcbg_cityforestcrystal_001_stone_05
v 0.039200053 0.18118462 -0.20924939
v 0.07600951 0.00021192431 -0.24511518
v 0.19412594 0.00021192431 -0.19765857
v -0.16559711 0.00021192431 -0.19494808
v 0.17164892 0.08898243 -0.18307702
v 0.26331425 0.00021192431 0.010814875
v 0.22277628 0.10382265 -0.00066393614
v 0.15864636 0.00021141768 0.20420656
v 0.10341534 0.18118462 0.14927083
v -0.11450192 0.00021141768 0.24511516
v -0.14853558 0.15381095 -0.16125894
v -0.2633047 0.00021192431 -0.036996797
v -0.100712866 0.15381095 0.1880646
v -0.25426567 0.00021141768 0.12157625
v -0.23092082 0.10067168 -0.03912522
vt 0.081550814 0.12493878
vt 0.092432 0.1177961
vt 0.08416473 0.109224886
vt 0.092994295 0.13937609
vt 0.08089734 0.115957245
vt 0.06399807 0.10653499
vt 0.06878518 0.11463509
vt 0.049971066 0.12230966
vt 0.06252394 0.12524273
vt 0.050016657 0.14068305
vt 0.081398845 0.13578956
vt 0.07927124 0.15322073
vt 0.061551318 0.13685337
vt 0.061961643 0.15241528
vt 0.07682449 0.14524221
vn 0.09692711 0.7678808 -0.63321733
vn 0.10048604 0.22871041 -0.96829444
vn 0.7037163 0.30166745 -0.64325744
vn -0.5703629 0.22159266 -0.79093796
vn 0.66100967 0.48494983 -0.57261676
vn 0.92436683 0.36750674 0.102395095
vn 0.8051443 0.5917162 0.04018209
vn 0.5382283 0.39063942 0.74680066
vn 0.34604877 0.7999108 0.49029887
vn -0.26251984 0.35505068 0.8972304
vn -0.493847 0.6931443 -0.52503914
vn -0.8960005 0.42622828 -0.12454929
vn -0.31590295 0.73585093 0.59893966
vn -0.78567517 0.49206758 0.37494534
vn -0.79457235 0.6006135 -0.08898448
g fcbg_cityforestcrystal_001_stone_05_0
f 3/3/3 2/2/2 1/1/1
f 2/2/2 4/4/4 1/1/1
f 5/5/5 3/3/3 1/1/1
f 6/6/6 3/3/3 5/5/5
f 7/7/7 6/6/6 5/5/5
f 5/5/5 1/1/1 7/7/7
f 6/6/6 7/7/7 8/8/8
f 7/7/7 9/9/9 8/8/8
f 7/7/7 1/1/1 9/9/9
f 10/10/10 8/8/8 9/9/9
f 4/4/4 11/11/11 1/1/1
f 1/1/1 11/11/11 9/9/9
f 4/4/4 12/12/12 11/11/11
f 13/13/13 10/10/10 9/9/9
f 11/11/11 13/13/13 9/9/9
f 10/10/10 13/13/13 14/14/14
f 12/12/12 15/15/15 11/11/11
f 12/12/12 14/14/14 15/15/15
f 14/14/14 13/13/13 15/15/15
f 11/11/11 15/15/15 13/13/13
