g fcbg_cityforestcrystal_003_water_01
v -3.4415894 0.112392426 15.728577
v 5.947956 0.095500946 10.034721
v 11.731977 0.10212326 10.293625
v -6.608734 0.1719513 24.54552
v 12.170155 0.1719513 34.73404
v -3.0530968 0.1719513 33.312515
v 34.7086 0.1719513 22.787643
v 24.385063 0.13293076 11.40139
v 34.316467 0.07860565 10.931282
v 28.378214 0.12902069 5.7443047
v 32.69301 0.1719513 -6.395012
v 26.379585 -0.15903091 -2.5469475
v 28.12335 -0.122795105 -19.044386
v 18.91288 -0.22336197 -3.2078571
v 9.054087 -0.017124176 -19.057901
v 12.833782 0.020503998 -7.556307
v 5.742979 0.045215607 -9.84021
v -0.31637573 -0.0053977966 -5.1907196
v -8.426636 0.002155304 -6.1967907
v -2.8828354 -0.039318085 -6.2791405
v -12.493523 0.13266754 -5.0070744
v -1.8294601 0.07456589 5.783127
v -12.3168335 0.1719513 6.109806
v 0.15943146 -0.03401947 3.132
v 0.9990158 0.012950897 -2.3572083
v -21.676167 0.039188385 -31.803934
v -30.372536 0.22336197 -34.658314
v -28.26241 0.2231636 -34.73404
v -33.839798 0.14154434 -29.678833
v -19.880596 0.039318085 -30.545319
v -18.641125 0.08556366 -19.068302
v -16.489258 0.015071869 -23.144796
v -16.560806 0.0149383545 -21.116024
v -29.49479 0.16022491 -17.116512
v -34.708603 0.14591599 -25.487131
v -32.79338 0.15591812 -19.446457
v -24.724792 0.111068726 -16.416449
v -22.262016 0.15399933 -16.69503
v -5.4045067 0.03773117 -10.670387
v -7.5822105 0.03773117 -11.800415
v -7.278324 0.18970871 -13.593735
v -5.609024 0.16996384 -14.587883
v -3.6855202 0.03773117 -10.627193
v -2.8050575 0.17592621 -14.478569
v -1.7891159 0.03773117 -11.533625
v -1.2896538 0.20660019 -13.58466
vt 3.8146973E-06 0.60110855
vt 0.19672775 0.66817856
vt 0.49067688 0.49331284
vt 3.8146973E-06 0.5000076
vt 0.5000076 3.8146973E-06
vt 3.8146973E-06 3.8146973E-06
vt 0.9999962 3.8146973E-06
vt 0.73418045 0.48532867
vt 0.9999962 0.5000076
vt 0.87672806 0.6466751
vt 0.9999962 0.9999962
vt 0.7939682 0.8249512
vt 0.5000076 0.9999962
vt 0.5000076 0.7153015
vt 3.8146973E-06 0.9999962
vt 0.29925156 0.8142433
vt 3.8146973E-06 0.8943062
vt 0.49067688 0.49331284
vt 0.18817139 0.4974327
vt 0.38725662 0.49472046
vt 3.8146973E-06 0.5000076
vt 0.5000076 3.8146973E-06
vt 3.8146973E-06 3.8146973E-06
vt 0.497612 0.12605667
vt 0.49297333 0.37159348
vt 0.38725662 0.49472046
vt 0.117118835 0.49840546
vt 0.18817139 0.4974327
vt 3.8146973E-06 0.5000076
vt 0.49067688 0.49331284
vt 0.5000076 3.8146973E-06
vt 0.49297333 0.37159348
vt 0.497612 0.12605667
vt 3.8146973E-06 3.8146973E-06
vt 3.8146973E-06 0.5000076
vt 3.8146973E-06 3.8146973E-06
vt 3.8146973E-06 3.8146973E-06
vt 0.5000076 3.8146973E-06
vt 0.50395584 0.28215027
vt 0.5257492 0.27222824
vt 0.52386475 0.2524376
vt 0.5061035 0.24261093
vt 0.4850006 0.28263474
vt 0.47395706 0.24466324
vt 0.46829224 0.27569962
vt 0.4617691 0.254776
vn -0.0019496814 0.99999815 -0
vn -0.0019496814 0.99999815 -0
vn -0.00094560906 0.99999887 -0.0011708573
vn 5.8464706E-05 0.99999887 -0.0015049839
vn 5.8464706E-05 0.99999887 -0.0015049839
vn 0.0010625385 0.99999887 -0.0010641844
vn 0.0010625385 0.99999887 -0.0010641844
vn 0.0010625385 0.99999887 -0.0010641844
vn -0.0019496814 0.99999815 -0
vn -0.011989573 0.9999282 -0
vn -0.026038647 0.9996609 -0
vn -0.026038647 0.9996609 -0
vn -0.0059658783 0.9999822 -0
vn -0.0049618487 0.99998766 -0
vn 0.010098698 0.99994904 -0
vn 0.011102603 0.9999384 -0
vn 0.0050787725 0.9999872 -0
vn 0.014114106 0.9999004 -0
vn 0.009095127 0.9979908 -0.062702805
vn 0.009095127 0.9979908 -0.062702805
vn 0.010098698 0.99994904 -0
vn 0.014114106 0.9999004 -0
vn 0.010098698 0.99994904 -0
vn 0.027158462 0.9996311 -0
vn 0.027158462 0.9996311 -0
vn 0.008090798 0.9999673 -0
vn 0.0121064745 0.99992675 -0
vn 0.0121064745 0.99992675 -0
vn 0.008090798 0.9999673 -0
vn 0.009094762 0.9999587 -0
vn 0.0121064745 0.99992675 -0
vn 0.022142678 0.9997548 -0
vn 0.022142678 0.9997548 -0
vn 0.0070868093 0.9999749 -0
vn -0.00094560906 0.99999887 -0.0011708573
vn -0.00094560906 0.99999887 -0.0011708573
vn 0.0010625385 0.99999887 -0.0010641844
vn 0.0010625385 0.99999887 -0.0010641844
vn -0.0029537566 0.99899477 0.044729736
vn -0.04010448 0.9959826 0.08006436
vn 0.008091053 0.99899477 0.04409088
vn 0.012107348 0.99899477 0.043161135
vn 0.0050788317 0.99899477 0.044538103
vn -0.012994494 0.99899477 0.042902116
vn -0.00094560906 0.99899477 0.04481693
vn -0.060185954 0.9959826 0.06630474
g fcbg_cityforestcrystal_003_water_01_0
f 3/3/3 2/2/2 1/1/1
f 4/4/4 3/3/3 1/1/1
f 5/5/5 3/3/3 4/4/4
f 6/6/6 5/5/5 4/4/4
f 5/5/5 7/7/7 3/3/3
f 7/7/7 8/8/8 3/3/3
f 9/9/9 8/8/8 7/7/7
f 8/8/8 9/9/9 10/10/10
f 9/9/9 11/11/11 10/10/10
f 11/11/11 12/12/12 10/10/10
f 12/12/12 11/11/11 13/13/13
f 14/14/14 12/12/12 13/13/13
f 13/13/13 15/15/15 14/14/14
f 15/15/15 16/16/16 14/14/14
f 15/15/15 17/17/17 16/16/16
f 20/20/20 19/19/19 18/18/18
f 19/19/19 21/21/21 18/18/18
f 22/22/22 18/18/18 21/21/21
f 23/23/23 22/22/22 21/21/21
f 18/18/18 22/22/22 24/24/24
f 25/25/25 18/18/18 24/24/24
f 28/28/28 27/27/27 26/26/26
f 27/27/27 29/29/29 26/26/26
f 30/30/30 26/26/26 29/29/29
f 31/31/31 30/30/30 29/29/29
f 32/32/32 30/30/30 31/31/31
f 33/33/33 32/32/32 31/31/31
f 34/34/34 31/31/31 29/29/29
f 29/29/29 35/35/35 34/34/34
f 35/35/35 36/36/36 34/34/34
f 34/34/34 37/37/37 31/31/31
f 37/37/37 38/38/38 31/31/31
f 41/41/41 40/40/40 39/39/39
f 42/42/42 41/41/41 39/39/39
f 42/42/42 39/39/39 43/43/43
f 44/44/44 42/42/42 43/43/43
f 45/45/45 44/44/44 43/43/43
f 46/46/46 44/44/44 45/45/45
