g fcbg_greathole_001_building_09
v -0.43007874 2.342158 0.93326443
v 0.8898772 2.3421583 0.38670745
v 0.34310746 2.3421576 0.93336517
v -0.9767524 2.3421583 0.38647598
v 0.8899196 2.342158 3.635261E-08
v -0.9767095 2.342158 -4.5237783E-08
v -0.9767524 2.3421583 -0.3864761
v 0.8898772 2.3421583 -0.38670743
v -0.43007863 2.342158 -0.9332645
v 0.34310746 2.3421576 -0.9333652
v 1.3650494 1.3903459 0.3143546
v 1.2449949 1.3903459 0.31435075
v 1.2449949 1.9661007 0.31435043
v 1.3650494 2.0181527 0.31435558
v 0.8740995 2.3133934 0.31425175
v 1.3650643 1.3903459 5.71224E-08
v 0.92153525 2.4334478 0.31425458
v 0.07573496 2.3133934 0.31415844
v 0.2162038 2.4334478 0.31415838
v 0.21624653 2.4334476 6.9079817E-09
v 0.07573496 2.3133934 0.31415844
v 0.07577765 2.3133934 7.6788714E-10
v 0.07573497 2.3133934 -0.3141585
v 0.21620388 2.4334478 -0.31415838
v 1.3650643 2.018151 5.71224E-08
v 0.9215353 2.4334478 -0.31425452
v 0.07573497 2.3133934 -0.3141585
v 0.8740994 2.3133934 -0.31425175
v 0.92157936 2.4334476 3.773806E-08
v 1.3650494 2.0181527 -0.31435552
v 1.3650494 1.3903459 -0.3143545
v 1.2449946 1.9661007 -0.31435034
v 1.2449946 1.3903459 -0.31435066
v -1.3649913 1.9785722 -6.221013E-08
v -1.3650521 -1.8835068E-05 0.5472593
v -1.3649913 -1.859665E-05 -6.221013E-08
v -1.3650521 -1.8835068E-05 -0.5472594
v -1.3650522 1.9785725 0.5472595
v -0.5909487 -1.8835068E-05 1.3215256
v -1.3650522 1.9785725 -0.5472596
v -0.5909486 -1.8835068E-05 -1.3215256
v -0.59094876 1.9785724 1.3215257
v 0.5039022 -1.859665E-05 1.321668
v -0.59094864 1.9785724 -1.3215257
v 0.50390226 -1.859665E-05 -1.321668
v 0.50390214 1.978572 1.3216683
v 1.2781419 -1.8715858E-05 0.54758716
v 0.50390214 1.978572 -1.3216683
v 1.278142 -1.8715858E-05 -0.547587
v 1.2781416 1.9785725 0.54758734
v 1.2782018 -1.847744E-05 5.3323333E-08
v 1.2781416 1.9785725 -0.5475872
v 1.2782018 1.9785722 5.3323333E-08
v 0.8898772 2.3421583 0.38670745
v 0.34310746 2.3421576 0.93336517
v 0.8899196 2.342158 3.635261E-08
v -0.43007874 2.342158 0.93326443
v -0.9767524 2.3421583 0.38647598
v 0.8898772 2.3421583 -0.38670743
v 0.34310746 2.3421576 -0.9333652
v -0.43007863 2.342158 -0.9332645
v -0.9767524 2.3421583 -0.3864761
v -0.9767095 2.342158 -4.5237783E-08
vt 0.3815539 0.33987713
vt 0.411659 0.35232815
vt 0.3991626 0.33987713
vt 0.3691483 0.35232818
vt 0.411659 0.361131
vt 0.3691483 0.36113104
vt 0.3691483 0.3699339
vt 0.411659 0.36993387
vt 0.3815539 0.38238487
vt 0.3991626 0.38238487
vt 0.30271915 0.04593481
vt 0.30271915 0.04868619
vt 0.3170689 0.04868619
vt 0.3170689 0.045935646
vt 0.3309393 0.04868619
vt 0.30271915 0.038758412
vt 0.3309393 0.04593481
vt 0.3465585 0.04868619
vt 0.3465585 0.045934662
vt 0.3465585 0.03876008
vt 0.35126537 0.04593517
vt 0.35126537 0.038760558
vt 0.35126537 0.04593517
vt 0.3465585 0.045934662
vt 0.3170689 0.038759276
vt 0.3309393 0.04593481
vt 0.3465585 0.04868619
vt 0.3309393 0.04868619
vt 0.3309393 0.03876035
vt 0.3170689 0.045935646
vt 0.30271915 0.04593481
vt 0.3170689 0.04868619
vt 0.30271915 0.04868619
vt 0.26740667 0.3953667
vt 0.27975565 0.35071918
vt 0.26740667 0.35071865
vt 0.27975565 0.35071918
vt 0.27975565 0.3953663
vt 0.30446118 0.35071912
vt 0.27975565 0.3953663
vt 0.30446118 0.35071912
vt 0.30446166 0.3953663
vt 0.3291672 0.3507188
vt 0.30446166 0.3953663
vt 0.3291672 0.3507188
vt 0.3291672 0.3953663
vt 0.35387218 0.35071865
vt 0.3291672 0.3953663
vt 0.35387218 0.35071865
vt 0.35387218 0.39536643
vt 0.36622477 0.35071912
vt 0.35387218 0.39536643
vt 0.36622477 0.3953659
vt 0.343273 0.40736955
vt 0.3256467 0.40736955
vt 0.3532112 0.4073691
vt 0.30802003 0.40736955
vt 0.29039407 0.40736935
vt 0.343273 0.40736955
vt 0.3256467 0.40736955
vt 0.30802003 0.40736955
vt 0.29039407 0.40736935
vt 0.28158343 0.40737015
vn -0.16103296 0.90721047 0.3886355
vn 0.38863572 0.90721184 0.16102462
vn 0.16093871 0.9072112 0.38867298
vn -0.3886724 0.9072101 0.16094568
vn 0.36748704 0.9300286 0
vn -0.3674426 0.93004614 0
vn -0.3886725 0.9072101 -0.1609457
vn 0.38863572 0.90721184 -0.16102459
vn -0.16103293 0.90721047 -0.38863546
vn 0.16093874 0.9072112 -0.38867298
vn 0.70707715 0 0.7071364
vn -3.736614E-05 0 1
vn -9.419237E-05 5.000783E-05 1
vn 0.7142445 0.3097234 0.6276355
vn -0.0001385244 9.382298E-05 1
vn 1 0 0
vn 0.28438705 0.72003084 0.6329926
vn -0.5924652 0.69318545 0.41046163
vn -0.2670606 0.7233317 0.6367652
vn -0.34625018 0.93814224 0
vn -0.5924652 0.69318545 0.41046163
vn -0.6497065 0.7601851 0
vn -0.5924651 0.6931857 -0.41046163
vn -0.2670604 0.7233318 -0.6367651
vn 0.91747624 0.39779082 0
vn 0.2843871 0.7200309 -0.63299245
vn -0.5924651 0.6931857 -0.41046163
vn -0.00013841354 9.4057716E-05 -1
vn 0.36749586 0.9300251 0
vn 0.7142445 0.30972338 -0.6276355
vn 0.7070771 0 -0.70713645
vn -9.4180505E-05 5.0012917E-05 -1
vn -3.7484817E-05 0 -1
vn -0.9174683 0.39780888 0
vn -0.9239208 0 0.3825835
vn -1 0 0
vn -0.9239208 0 -0.38258353
vn -0.8539826 0.38166088 0.35362223
vn -0.3827921 0 0.92383444
vn -0.8539826 0.38166082 -0.35362223
vn -0.3827921 0 -0.92383456
vn -0.35381496 0.38166085 0.8539028
vn 0.38257593 0 0.92392397
vn -0.35381496 0.38166085 -0.8539028
vn 0.38257605 0 -0.92392397
vn 0.35361615 0.38166326 0.853984
vn 0.9238389 0 0.38278145
vn 0.35361624 0.38166332 -0.853984
vn 0.9238389 0 -0.38278133
vn 0.85390526 0.38166344 0.35380614
vn 1 0 0
vn 0.8539053 0.38166347 -0.3538061
vn 0.91747713 0.39778867 0
vn 0.38863572 0.90721184 0.16102462
vn 0.16093871 0.9072112 0.38867298
vn 0.36748704 0.9300286 0
vn -0.16103296 0.90721047 0.3886355
vn -0.3886724 0.9072101 0.16094568
vn 0.38863572 0.90721184 -0.16102459
vn 0.16093874 0.9072112 -0.38867298
vn -0.16103293 0.90721047 -0.38863546
vn -0.3886725 0.9072101 -0.1609457
vn -0.3674426 0.93004614 0
g fcbg_greathole_001_building_09_0
f 3/3/3 2/2/2 1/1/1
f 2/2/2 4/4/4 1/1/1
f 2/2/2 5/5/5 4/4/4
f 5/5/5 6/6/6 4/4/4
f 7/7/7 6/6/6 5/5/5
f 8/8/8 7/7/7 5/5/5
f 9/9/9 7/7/7 8/8/8
f 10/10/10 9/9/9 8/8/8
f 13/13/13 12/12/12 11/11/11
f 14/14/14 13/13/13 11/11/11
f 15/15/15 13/13/13 14/14/14
f 14/14/14 11/11/11 16/16/16
f 17/17/17 15/15/15 14/14/14
f 18/18/18 15/15/15 17/17/17
f 19/19/19 18/18/18 17/17/17
f 20/20/20 19/19/19 17/17/17
f 21/21/21 19/19/19 20/20/20
f 22/22/22 21/21/21 20/20/20
f 22/22/22 20/20/20 23/23/23
f 20/20/20 24/24/24 23/23/23
f 25/25/25 14/14/14 16/16/16
f 17/17/17 14/14/14 25/25/25
f 26/26/26 24/24/24 20/20/20
f 27/27/27 24/24/24 26/26/26
f 28/28/28 27/27/27 26/26/26
f 29/29/29 20/20/20 17/17/17
f 29/29/29 17/17/17 25/25/25
f 29/29/29 26/26/26 20/20/20
f 29/29/29 25/25/25 26/26/26
f 25/25/25 16/16/16 30/30/30
f 25/25/25 30/30/30 26/26/26
f 28/28/28 26/26/26 30/30/30
f 16/16/16 31/31/31 30/30/30
f 32/32/32 28/28/28 30/30/30
f 32/32/32 30/30/30 31/31/31
f 33/33/33 32/32/32 31/31/31
f 36/36/36 35/35/35 34/34/34
f 36/36/36 34/34/34 37/37/37
f 35/35/35 38/38/38 34/34/34
f 35/35/35 39/39/39 38/38/38
f 34/34/34 40/40/40 37/37/37
f 37/37/37 40/40/40 41/41/41
f 39/39/39 42/42/42 38/38/38
f 39/39/39 43/43/43 42/42/42
f 40/40/40 44/44/44 41/41/41
f 41/41/41 44/44/44 45/45/45
f 43/43/43 46/46/46 42/42/42
f 43/43/43 47/47/47 46/46/46
f 44/44/44 48/48/48 45/45/45
f 45/45/45 48/48/48 49/49/49
f 47/47/47 50/50/50 46/46/46
f 47/47/47 51/51/51 50/50/50
f 49/49/49 52/52/52 51/51/51
f 48/48/48 52/52/52 49/49/49
f 51/51/51 53/53/53 50/50/50
f 52/52/52 53/53/53 51/51/51
f 50/50/50 54/54/54 46/46/46
f 54/54/54 50/50/50 53/53/53
f 54/54/54 55/55/55 46/46/46
f 46/46/46 55/55/55 42/42/42
f 56/56/56 54/54/54 53/53/53
f 55/55/55 57/57/57 42/42/42
f 42/42/42 57/57/57 38/38/38
f 57/57/57 58/58/58 38/38/38
f 56/56/56 53/53/53 59/59/59
f 53/53/53 52/52/52 59/59/59
f 59/59/59 52/52/52 48/48/48
f 60/60/60 59/59/59 48/48/48
f 60/60/60 48/48/48 44/44/44
f 61/61/61 60/60/60 44/44/44
f 61/61/61 44/44/44 40/40/40
f 62/62/62 61/61/61 40/40/40
f 38/38/38 58/58/58 34/34/34
f 62/62/62 40/40/40 34/34/34
f 58/58/58 63/63/63 34/34/34
f 63/63/63 62/62/62 34/34/34
