g fcbg_wasteland_003_streetsign_02
v -1.8285295 2.0994806 -0.02065423
v -1.8285295 0.009732842 -0.020654138
v 1.8285295 0.009732842 -0.02065469
v 1.8285295 2.0994806 -0.020654783
v -1.8285295 2.0994806 0.02065469
v -1.8285295 2.0994806 -0.02065423
v 1.8285295 2.0994806 -0.020654783
v 1.8285295 2.0994806 0.020654138
v 1.8285295 2.0994806 0.020654138
v 1.8285295 2.0994806 -0.020654783
v 1.8285295 0.009732842 -0.02065469
v 1.8285295 0.009732842 0.020654228
v -1.8285295 0.009732842 0.020654779
v -1.8285295 0.009732842 -0.020654138
v -1.8285295 2.0994806 -0.02065423
v -1.8285295 2.0994806 0.02065469
vt 0.85074043 0.9920259
vt 0.85074043 0.9269967
vt 0.7369395 0.9269968
vt 0.73693967 0.99202603
vt 0.85074043 0.99406797
vt 0.85074043 0.9920259
vt 0.73693967 0.99202603
vt 0.7369395 0.99406797
vt 0.73486745 0.99202603
vt 0.73693967 0.99202603
vt 0.7369395 0.9269968
vt 0.73486745 0.9269967
vt 0.85261595 0.92699707
vt 0.85074043 0.9269967
vt 0.85074043 0.9920259
vt 0.8526162 0.99202573
vn -0 0 -1
vn -0 0 -1
vn -0 0 -1
vn -0 0 -1
vn -0 1 0
vn -0 1 0
vn -0 1 0
vn -0 1 0
vn 1 0 0
vn 1 0 0
vn 1 0 0
vn 1 0 0
vn -1 0 0
vn -1 0 0
vn -1 0 0
vn -1 0 0
g fcbg_wasteland_003_streetsign_02_0
f 3/3/3 2/2/2 1/1/1
f 4/4/4 3/3/3 1/1/1
f 7/7/7 6/6/6 5/5/5
f 8/8/8 7/7/7 5/5/5
f 11/11/11 10/10/10 9/9/9
f 12/12/12 11/11/11 9/9/9
f 15/15/15 14/14/14 13/13/13
f 16/16/16 15/15/15 13/13/13
