g fcbg_cityforest_002_building_22
v 1.412983 1.3849195 0.78827095
v 1.412983 1.3192981 0.78827095
v 0.8855057 1.3192981 0.7881279
v 0.8855057 1.3849195 0.7881279
v 1.412983 1.3849195 0.5638943
v 0.8854828 1.3849195 0.56394196
v 0.8854828 1.3192981 0.56394196
v 0.8855057 1.3192981 0.7881279
v 1.412983 1.3849195 0.5638943
v 1.412983 1.3192981 0.5638943
v 1.412983 1.3192981 0.78827095
v 1.412983 1.3849195 0.78827095
v 0.8854828 1.3849195 0.56394196
v 0.8854828 1.3192981 0.56394196
v 1.412983 1.3192981 0.5638943
v 1.412983 1.3849195 0.5638943
v 0.4679947 1.4872228 -0.026435852
v 0.4679947 1.3192979 -0.026433945
v -0.12830353 1.3192979 -0.026575089
v -0.12830353 1.4872228 -0.026576996
v 0.16984177 1.6989717 -0.32310867
v 0.4679947 1.4872224 -0.6197243
v -0.12832642 1.4872224 -0.6196766
v -0.12832642 1.3192976 -0.6196747
v -0.12830353 1.3192979 -0.026575089
v 0.4679947 1.4872224 -0.6197243
v 0.4679947 1.3192976 -0.61972237
v 0.4679947 1.3192979 -0.026433945
v 0.4679947 1.4872228 -0.026435852
v -0.12832642 1.4872224 -0.6196766
v -0.12832642 1.3192976 -0.6196747
v 0.4679947 1.3192976 -0.61972237
v 0.4679947 1.4872224 -0.6197243
v 1.6870308 1.4336392 -0.70858
v 1.6870308 1.3192974 -0.70858
v 1.6870308 1.3192979 -0.21126747
v 1.6870308 1.4336396 -0.21126747
v 0.95428085 1.4336392 -0.70853233
v 0.95428085 1.3192974 -0.70853233
v 1.6870308 1.3192974 -0.70858
v 1.6870308 1.4336392 -0.70858
v 0.95430374 1.4336395 -0.15444374
v 0.95430374 1.3192978 -0.15444374
v 0.95428085 1.3192974 -0.70853233
v 0.95428085 1.4336392 -0.70853233
v 1.6064987 1.4336395 -0.15431023
v 1.6870308 1.4336392 -0.70858
v 1.6870308 1.4336396 -0.21126747
v 0.95430374 1.3192978 -0.15444374
v 1.6064987 1.3192978 -0.15431023
v 1.6870308 1.4336396 -0.21126747
v 1.6870308 1.3192979 -0.21126747
v -1.3313179 1.324403 0.19112778
v -1.7073822 1.3244033 0.7347965
v -1.7146301 1.324403 0.19121361
v 0.8548813 1.3244052 0.7349949
v -1.3314056 1.3244027 -0.05924034
v 1.4572983 1.3244232 0.64832115
v 1.2205467 1.3244063 0.874876
v 0.85500336 1.3244053 0.87464714
v 1.4572525 1.3244101 0.85717773
v 1.7110252 1.3244025 -0.86652946
v 1.7115707 1.3244308 0.6483059
v -1.5079384 1.3244025 -0.52281
v -1.5062523 1.3244026 -0.86208916
v -1.599083 1.3244025 -0.5151081
v -1.5992203 1.3244027 -0.059152603
v 1.7954521 -9.283423E-06 -0.9320793
v -1.5898819 1.3923124 -0.9320774
v -1.5898857 -9.283423E-06 -0.9320793
v 1.7954559 1.3923124 -0.9320774
v 1.711029 1.3923107 -0.86652946
v -1.5062485 1.3923128 -0.86208916
v -1.5062523 1.3244026 -0.86208916
v 1.7110252 1.3244025 -0.86652946
v -1.5898819 1.3923124 -0.9320774
v -1.5898857 -8.709729E-06 -0.5664005
v -1.5898857 -9.283423E-06 -0.9320793
v -1.5898819 1.3923111 -0.5663967
v -1.6980858 -8.709729E-06 -0.5664005
v -1.5062485 1.3923128 -0.86208916
v -1.698082 1.3923111 -0.5663967
v -1.6980858 -8.504838E-06 -0.011396408
v -1.698082 1.3923112 -0.011394501
v -1.4488907 -8.504838E-06 -0.011396408
v -1.4488869 1.3923112 -0.011394501
v -1.5990791 1.3923107 -0.5151081
v -1.5992165 1.392311 -0.059152603
v -1.3314018 1.392311 -0.05924034
v -1.3314056 1.3244027 -0.05924034
v -1.5992203 1.3244027 -0.059152603
v -1.599083 1.3244025 -0.5151081
v -1.5079346 1.3923107 -0.52281
v -1.5079384 1.3244025 -0.52281
v -1.5062523 1.3244026 -0.86208916
v -1.4488869 1.3923112 -0.011394501
v -1.4488907 -8.665025E-06 0.13022614
v -1.4488907 -8.504838E-06 -0.011396408
v -1.4488869 1.3923111 0.13022804
v -1.7954559 -8.665025E-06 0.13022614
v -1.3314018 1.392311 -0.05924034
v -1.7954483 1.3923111 0.13022804
v -1.7954559 -8.27387E-06 0.7929802
v -1.7954483 1.3923134 0.7929821
v -1.7073784 1.3923135 0.73479843
v -1.7146263 1.3923113 0.19121361
v -1.7073822 1.3244033 0.7347965
v -1.7146301 1.324403 0.19121361
v -1.3313141 1.3923113 0.19112968
v -1.3313179 1.324403 0.19112778
v -1.3314056 1.3244027 -0.05924034
v -1.7954483 1.3923134 0.7929821
v 0.7922516 -8.27387E-06 0.79279137
v -1.7954559 -8.27387E-06 0.7929802
v 0.7922554 1.3923134 0.7927933
v 0.79239655 -7.953495E-06 0.9320736
v -1.7073784 1.3923135 0.73479843
v 0.79240036 1.3923138 0.9320736
v 1.2204208 -7.953495E-06 0.93201447
v 0.8548813 1.3923135 0.7349968
v 0.8548813 1.3244052 0.7349949
v -1.7073822 1.3244033 0.7347965
v 0.85500336 1.3244053 0.87464714
v 0.8550072 1.3923136 0.87465096
v 1.2205467 1.3244063 0.874876
v 1.2205467 1.3923146 0.8748779
v 1.4572525 1.3244101 0.85717773
v 1.2204247 1.3923138 0.9320164
v 1.5191345 -7.972121E-06 0.9068203
v 1.5191383 1.3923137 0.9068203
v 1.5191536 -7.972121E-06 0.6992245
v 1.4572563 1.3923174 0.85717964
v 1.4572983 1.3244232 0.64832115
v 1.4573021 1.3923315 0.64832306
v 1.7115707 1.3244308 0.6483059
v 1.7115746 1.3923391 0.6483059
v 1.5191536 1.3923136 0.6992264
v 1.7954521 -7.972121E-06 0.6992245
v 1.7954559 1.3923136 0.6992264
v 1.7954559 1.3923136 0.6992264
v 1.7954521 -9.283423E-06 -0.9320793
v 1.7954521 -7.972121E-06 0.6992245
v 1.7954559 1.3923124 -0.9320774
v 1.7115746 1.3923391 0.6483059
v 1.711029 1.3923107 -0.86652946
v 1.7110252 1.3244025 -0.86652946
v 1.7115707 1.3244308 0.6483059
vt 0.9997028 0.47088358
vt 0.99970233 0.46803525
vt 0.97887903 0.46804112
vt 0.9788801 0.47088945
vt 0.9997028 0.479141
vt 0.97887903 0.47914
vt 0.97625035 0.47913954
vt 0.9762508 0.47088945
vt 0.97887903 0.479141
vt 0.97625035 0.479141
vt 0.97625035 0.47088405
vt 0.97887903 0.47088358
vt 0.97887903 0.46804112
vt 0.97887903 0.47088358
vt 0.9997028 0.47088358
vt 0.99970233 0.46803525
vt 0.998908 0.48552132
vt 0.998908 0.48169062
vt 0.9816556 0.48169062
vt 0.9816556 0.48552132
vt 0.9907839 0.49340704
vt 0.998908 0.5017445
vt 0.9816556 0.5017445
vt 0.97700495 0.5017445
vt 0.97700495 0.48552132
vt 0.9816556 0.5017445
vt 0.97700495 0.5017445
vt 0.97700495 0.48552132
vt 0.9816556 0.48552132
vt 0.9816556 0.48552132
vt 0.9816556 0.48169062
vt 0.998908 0.48169062
vt 0.998908 0.48552132
vt 0.9788501 0.46536207
vt 0.97583425 0.46536207
vt 0.9758352 0.45062777
vt 0.9788511 0.45062777
vt 0.9788511 0.45062777
vt 0.9788511 0.44761035
vt 0.9960536 0.44761035
vt 0.9960536 0.45062578
vt 0.9788511 0.45062777
vt 0.9758352 0.45062825
vt 0.97583425 0.46536157
vt 0.9788501 0.46536207
vt 0.9960536 0.45062578
vt 0.99849194 0.46536303
vt 0.99849194 0.4521269
vt 0.9788511 0.44761035
vt 0.9960536 0.44761035
vt 0.9986559 0.4506263
vt 0.9986559 0.44761035
vt 0.9669099 0.47015962
vt 0.9744547 0.48437345
vt 0.9744547 0.470191
vt 0.9180238 0.48437345
vt 0.9669304 0.46465498
vt 0.9047863 0.48232663
vt 0.9099738 0.48732397
vt 0.9180106 0.4873465
vt 0.90477496 0.48575768
vt 0.89822835 0.44684553
vt 0.89822835 0.4823031
vt 0.97006726 0.45456573
vt 0.97005653 0.44684553
vt 0.9727587 0.45456573
vt 0.97272736 0.46467754
vt 0.90965956 0.3833754
vt 0.9668283 0.41223618
vt 0.9668474 0.3834146
vt 0.9096395 0.41223618
vt 0.9112582 0.41303143
vt 0.9652208 0.41303143
vt 0.9652169 0.4147955
vt 0.91125524 0.4147955
vt 0.96897066 0.4444114
vt 0.97361803 0.41676262
vt 0.96897364 0.41676262
vt 0.97361803 0.4444114
vt 0.9747663 0.41676262
vt 0.96974105 0.44546822
vt 0.9747663 0.4444114
vt 0.9817902 0.41676262
vt 0.9817902 0.4444114
vt 0.9844464 0.41676262
vt 0.9844464 0.4444114
vt 0.9747663 0.44546822
vt 0.9817902 0.44546822
vt 0.9844464 0.44546822
vt 0.9844464 0.44621307
vt 0.9817902 0.44621307
vt 0.9747663 0.44621307
vt 0.97361803 0.44546822
vt 0.97361803 0.44621307
vt 0.96974105 0.44621307
vt 0.9844464 0.4444114
vt 0.98624206 0.41676262
vt 0.9844464 0.41676262
vt 0.98624206 0.4444114
vt 0.9899025 0.41676262
vt 0.9844464 0.44546822
vt 0.9899025 0.4444114
vt 0.99826765 0.41676262
vt 0.99827456 0.4444114
vt 0.99739385 0.44546822
vt 0.9899025 0.44546822
vt 0.99739385 0.44621307
vt 0.9899025 0.44621307
vt 0.98624206 0.44546822
vt 0.98624206 0.44621307
vt 0.9844464 0.44621307
vt 0.8977812 0.444541
vt 0.9410513 0.41676262
vt 0.8977812 0.41676262
vt 0.9410513 0.444541
vt 0.9429587 0.41676262
vt 0.89945483 0.445367
vt 0.9429587 0.444541
vt 0.95201784 0.41676262
vt 0.9410513 0.445367
vt 0.9410513 0.44648647
vt 0.8994563 0.44648647
vt 0.9429587 0.44648647
vt 0.9429587 0.445367
vt 0.95201784 0.44648647
vt 0.95201784 0.445367
vt 0.95830065 0.44648647
vt 0.95201784 0.444541
vt 0.95830065 0.41676262
vt 0.95830065 0.444541
vt 0.96028984 0.41676262
vt 0.95830065 0.445367
vt 0.96028984 0.44648647
vt 0.96028984 0.445367
vt 0.9652387 0.44648647
vt 0.9652387 0.445367
vt 0.96028984 0.444541
vt 0.9668334 0.41676262
vt 0.9668334 0.444541
vt 0.96892315 0.41124797
vt 0.99823475 0.38335237
vt 0.96892315 0.38335237
vt 0.99823475 0.41124797
vt 0.96984005 0.4121186
vt 0.9970571 0.41212696
vt 0.9970571 0.41293782
vt 0.96984005 0.41292995
vn 0.5772791 0.577336 0.5774357
vn 0.7070109 0 0.7072027
vn -0.7071666 0 0.7070469
vn -0.5773893 0.57736987 0.57729155
vn 0.57732654 0.5773455 -0.57737875
vn -0.57740617 0.5773496 -0.577295
vn -0.7071749 0 -0.70703876
vn -0.7071666 0 0.7070469
vn 0.57732654 0.5773455 -0.57737875
vn 0.70707476 0 -0.7071388
vn 0.7070109 0 0.7072027
vn 0.5772791 0.577336 0.5774357
vn -0.57740617 0.5773496 -0.577295
vn -0.7071749 0 -0.70703876
vn 0.70707476 0 -0.7071388
vn 0.57732654 0.5773455 -0.57737875
vn 0.634974 0.4401065 0.6349127
vn 0.7070207 0 0.70719296
vn -0.7071745 0 0.7070392
vn -0.63511735 0.44009206 0.6347795
vn -1.355429E-05 1 0
vn 0.63502574 0.4400924 -0.63487077
vn -0.6350901 0.44008964 -0.6348085
vn -0.7071511 0 -0.70706236
vn -0.7071745 0 0.7070392
vn 0.63502574 0.4400924 -0.63487077
vn 0.70708084 0 -0.70713264
vn 0.7070207 0 0.70719296
vn 0.634974 0.4401065 0.6349127
vn -0.6350901 0.44008964 -0.6348085
vn -0.7071511 0 -0.70706236
vn 0.70708084 0 -0.70713264
vn 0.63502574 0.4400924 -0.63487077
vn 0.5773333 0.5773465 -0.577371
vn 0.7070835 0 -0.70712996
vn 0.88809747 0 0.45965505
vn 0.6990315 0.61681104 0.36179966
vn -0.57738036 0.5773513 -0.57731915
vn -0.70714414 0 -0.70706934
vn 0.7070835 0 -0.70712996
vn 0.5773333 0.5773465 -0.577371
vn -0.5773909 0.5773634 0.57729644
vn -0.7071647 0 0.70704883
vn -0.70714414 0 -0.70706934
vn -0.57738036 0.5773513 -0.57731915
vn 0.23148079 0.64483213 0.7284285
vn 0.5773333 0.5773465 -0.577371
vn 0.6990315 0.61681104 0.36179966
vn -0.7071647 0 0.70704883
vn 0.30285695 0 0.95303607
vn 0.6990315 0.61681104 0.36179966
vn 0.88809747 0 0.45965505
vn 0.30157986 0.9045392 0.30142733
vn 0.5731778 0.57805145 -0.5807958
vn 0.58161485 0.57664466 0.57376397
vn 0.30154634 0.90443116 -0.30178484
vn 0.30141369 0.9045281 -0.30162683
vn -0.3015479 0.9045079 -0.30155298
vn -0.026477471 0.6987675 -0.7148587
vn 0.57725286 0.57743305 -0.57736486
vn -0.5963071 0.5814256 -0.5534999
vn -0.5768564 0.5773153 0.5778787
vn -0.5774608 0.577344 -0.57724595
vn 0.32929584 0.8938944 0.30416605
vn 0.57616377 0.5776701 0.57821506
vn 0.59870154 0.58191484 0.55039215
vn 0.57737696 0.5773024 -0.5773716
vn 0.70710564 0 -0.7071079
vn -0.57735056 0.5773529 -0.57734746
vn -0.7071067 0 -0.7071068
vn 0.5773826 0.5773338 -0.5773344
vn -0.30101445 0.9046748 0.30158556
vn 0.30208305 0.9037822 0.303189
vn 0.57616377 0.5776701 0.57821506
vn -0.5768564 0.5773153 0.5778787
vn -0.57735056 0.5773529 -0.57734746
vn -0.7071071 0 -0.70710635
vn -0.7071067 0 -0.7071068
vn -0.3015126 0.9045356 -0.3015053
vn -0.7071067 0 -0.7071068
vn 0.30208305 0.9037822 0.303189
vn -0.5773491 0.5773525 -0.57734925
vn -0.7071077 0 0.70710576
vn -0.57734877 0.57735145 0.5773507
vn -0.70710605 0 0.7071074
vn -0.30151165 0.90453494 0.3015082
vn 0.32917613 0.8944574 0.30263677
vn 0.30140123 0.90460056 -0.30142158
vn 0.5771716 0.57733625 -0.57754284
vn 0.30141369 0.9045281 -0.30162683
vn 0.57737696 0.5773024 -0.5773716
vn 0.59870154 0.58191484 0.55039215
vn 0.5972779 0.58217376 0.5516638
vn 0.32929584 0.8938944 0.30416605
vn 0.57616377 0.5776701 0.57821506
vn -0.30151165 0.90453494 0.3015082
vn -0.70710623 0 -0.7071073
vn -0.70710605 0 0.7071074
vn -0.30151072 0.90453386 -0.30151257
vn -0.70710754 0 -0.70710593
vn 0.5771716 0.57733625 -0.57754284
vn -0.5773492 0.5773507 -0.57735085
vn -0.70708257 0 0.7071309
vn -0.5773293 0.577348 0.5773736
vn 0.30183664 0.9029564 -0.30588278
vn 0.30122882 0.90606 0.29718065
vn 0.5731778 0.57805145 -0.5807958
vn 0.58161485 0.57664466 0.57376397
vn 0.57753253 0.5773266 0.5771916
vn 0.30157986 0.9045392 0.30142733
vn 0.30141369 0.9045281 -0.30162683
vn -0.5773293 0.577348 0.5773736
vn -0.7067114 0 0.7075019
vn -0.70708257 0 0.7071309
vn -0.3015145 0.90442044 0.3018486
vn -0.70669174 0 0.7075215
vn 0.30183664 0.9029564 -0.30588278
vn -0.5769852 0.57739896 0.5776664
vn 0.042128526 0 0.9991122
vn 0.5770961 0.577401 -0.5775537
vn 0.30154634 0.90443116 -0.30178484
vn 0.5731778 0.57805145 -0.5807958
vn 0.57725286 0.57743305 -0.57736486
vn 0.30172452 0.90435773 -0.3018268
vn -0.026477471 0.6987675 -0.7148587
vn -0.025839414 0.7156921 -0.6979378
vn -0.5963071 0.5814256 -0.5534999
vn 0.030176116 0.69776756 0.7156884
vn 0.7361939 0 0.67677057
vn 0.59873635 0.58188444 0.5503865
vn 0.7070772 0 0.70713633
vn -0.3259314 0.8956763 -0.30254385
vn -0.3015479 0.9045079 -0.30155298
vn -0.57727575 0.5774434 -0.5773317
vn -0.5774608 0.577344 -0.57724595
vn -0.30149025 0.9046512 -0.3011808
vn 0.30154496 0.90444744 0.30173734
vn 0.70710665 0 0.7071069
vn 0.5773556 0.5773038 0.57739127
vn 0.5773556 0.5773038 0.57739127
vn 0.70710564 0 -0.7071079
vn 0.70710665 0 0.7071069
vn 0.5773826 0.5773338 -0.5773344
vn -0.30149025 0.9046512 -0.3011808
vn -0.30101445 0.9046748 0.30158556
vn -0.5768564 0.5773153 0.5778787
vn -0.5774608 0.577344 -0.57724595
g fcbg_cityforest_002_building_22_0
f 3/3/3 2/2/2 1/1/1
f 4/4/4 3/3/3 1/1/1
f 1/1/1 5/5/5 4/4/4
f 5/5/5 6/6/6 4/4/4
f 6/6/6 7/7/7 4/4/4
f 7/7/7 8/8/8 4/4/4
f 11/11/11 10/10/10 9/9/9
f 12/12/12 11/11/11 9/9/9
f 15/15/15 14/14/14 13/13/13
f 16/16/16 15/15/15 13/13/13
f 19/19/19 18/18/18 17/17/17
f 20/20/20 19/19/19 17/17/17
f 17/17/17 21/21/21 20/20/20
f 22/22/22 21/21/21 17/17/17
f 23/23/23 21/21/21 22/22/22
f 20/20/20 21/21/21 23/23/23
f 23/23/23 24/24/24 20/20/20
f 24/24/24 25/25/25 20/20/20
f 28/28/28 27/27/27 26/26/26
f 29/29/29 28/28/28 26/26/26
f 32/32/32 31/31/31 30/30/30
f 33/33/33 32/32/32 30/30/30
f 36/36/36 35/35/35 34/34/34
f 37/37/37 36/36/36 34/34/34
f 40/40/40 39/39/39 38/38/38
f 41/41/41 40/40/40 38/38/38
f 44/44/44 43/43/43 42/42/42
f 45/45/45 44/44/44 42/42/42
f 42/42/42 46/46/46 45/45/45
f 46/46/46 47/47/47 45/45/45
f 48/48/48 47/47/47 46/46/46
f 42/42/42 49/49/49 46/46/46
f 49/49/49 50/50/50 46/46/46
f 46/46/46 50/50/50 51/51/51
f 50/50/50 52/52/52 51/51/51
f 55/55/55 54/54/54 53/53/53
f 54/54/54 56/56/56 53/53/53
f 53/53/53 56/56/56 57/57/57
f 56/56/56 58/58/58 57/57/57
f 59/59/59 58/58/58 56/56/56
f 60/60/60 59/59/59 56/56/56
f 61/61/61 58/58/58 59/59/59
f 57/57/57 58/58/58 62/62/62
f 58/58/58 63/63/63 62/62/62
f 64/64/64 57/57/57 62/62/62
f 65/65/65 64/64/64 62/62/62
f 57/57/57 64/64/64 66/66/66
f 67/67/67 57/57/57 66/66/66
f 70/70/70 69/69/69 68/68/68
f 69/69/69 71/71/71 68/68/68
f 72/72/72 71/71/71 69/69/69
f 73/73/73 72/72/72 69/69/69
f 72/72/72 73/73/73 74/74/74
f 75/75/75 72/72/72 74/74/74
f 78/78/78 77/77/77 76/76/76
f 77/77/77 79/79/79 76/76/76
f 77/77/77 80/80/80 79/79/79
f 76/76/76 79/79/79 81/81/81
f 80/80/80 82/82/82 79/79/79
f 80/80/80 83/83/83 82/82/82
f 83/83/83 84/84/84 82/82/82
f 83/83/83 85/85/85 84/84/84
f 85/85/85 86/86/86 84/84/84
f 82/82/82 87/87/87 79/79/79
f 82/82/82 84/84/84 87/87/87
f 84/84/84 86/86/86 88/88/88
f 84/84/84 88/88/88 87/87/87
f 86/86/86 89/89/89 88/88/88
f 88/88/88 89/89/89 90/90/90
f 91/91/91 88/88/88 90/90/90
f 87/87/87 88/88/88 91/91/91
f 92/92/92 87/87/87 91/91/91
f 87/87/87 93/93/93 79/79/79
f 93/93/93 87/87/87 92/92/92
f 79/79/79 93/93/93 81/81/81
f 94/94/94 93/93/93 92/92/92
f 81/81/81 93/93/93 94/94/94
f 95/95/95 81/81/81 94/94/94
f 98/98/98 97/97/97 96/96/96
f 97/97/97 99/99/99 96/96/96
f 97/97/97 100/100/100 99/99/99
f 96/96/96 99/99/99 101/101/101
f 100/100/100 102/102/102 99/99/99
f 100/100/100 103/103/103 102/102/102
f 103/103/103 104/104/104 102/102/102
f 102/102/102 104/104/104 105/105/105
f 106/106/106 102/102/102 105/105/105
f 99/99/99 102/102/102 106/106/106
f 106/106/106 105/105/105 107/107/107
f 108/108/108 106/106/106 107/107/107
f 109/109/109 99/99/99 106/106/106
f 109/109/109 106/106/106 108/108/108
f 99/99/99 109/109/109 101/101/101
f 110/110/110 109/109/109 108/108/108
f 101/101/101 109/109/109 110/110/110
f 111/111/111 101/101/101 110/110/110
f 114/114/114 113/113/113 112/112/112
f 113/113/113 115/115/115 112/112/112
f 113/113/113 116/116/116 115/115/115
f 117/117/117 112/112/112 115/115/115
f 116/116/116 118/118/118 115/115/115
f 116/116/116 119/119/119 118/118/118
f 120/120/120 117/117/117 115/115/115
f 120/120/120 115/115/115 118/118/118
f 117/117/117 120/120/120 121/121/121
f 122/122/122 117/117/117 121/121/121
f 121/121/121 120/120/120 123/123/123
f 120/120/120 124/124/124 123/123/123
f 124/124/124 120/120/120 118/118/118
f 123/123/123 124/124/124 125/125/125
f 124/124/124 126/126/126 125/125/125
f 124/124/124 118/118/118 126/126/126
f 125/125/125 126/126/126 127/127/127
f 119/119/119 128/128/128 118/118/118
f 118/118/118 128/128/128 126/126/126
f 119/119/119 129/129/129 128/128/128
f 129/129/129 130/130/130 128/128/128
f 128/128/128 130/130/130 126/126/126
f 129/129/129 131/131/131 130/130/130
f 126/126/126 132/132/132 127/127/127
f 130/130/130 132/132/132 126/126/126
f 127/127/127 132/132/132 133/133/133
f 132/132/132 134/134/134 133/133/133
f 134/134/134 132/132/132 130/130/130
f 133/133/133 134/134/134 135/135/135
f 134/134/134 136/136/136 135/135/135
f 131/131/131 137/137/137 130/130/130
f 137/137/137 134/134/134 130/130/130
f 136/136/136 134/134/134 137/137/137
f 131/131/131 138/138/138 137/137/137
f 139/139/139 136/136/136 137/137/137
f 138/138/138 139/139/139 137/137/137
f 142/142/142 141/141/141 140/140/140
f 141/141/141 143/143/143 140/140/140
f 140/140/140 143/143/143 144/144/144
f 143/143/143 145/145/145 144/144/144
f 144/144/144 145/145/145 146/146/146
f 147/147/147 144/144/144 146/146/146
