g fcbg_cityforest_002_building_20
v -0.2472763 1.3995641 -1.0582447
v -0.95064545 1.3995639 -1.4556484
v -0.24738312 1.3995641 -1.4633045
v -0.95090294 1.3995644 -0.35761452
v 0.07664108 1.3995645 -1.0583363
v -0.8388901 1.399584 0.90825844
v -1.1318741 1.3995662 0.41425133
v -1.1315804 1.3995644 -0.35736656
v -1.0407715 1.3995695 0.9081631
v 1.121069 1.3995652 1.4594898
v -0.83862495 1.3995918 1.4600658
v 0.676384 1.3995649 -1.2448864
v 1.1153259 1.3995652 -1.2431011
v 0.66642 1.3995647 -1.3412037
v 0.07652664 1.3995645 -1.3413486
v 1.2058735 -1.2144446E-06 1.548708
v 1.2058697 1.4713272 -1.33148
v 1.2058735 -1.2293458E-06 -1.3314838
v 1.2058697 1.4713273 1.5487118
v 1.121067 1.4713271 1.4594936
v 1.1153221 1.4713273 -1.2430973
v 1.1153259 1.3995652 -1.2431011
v 1.121069 1.3995652 1.4594898
v 1.2058697 1.4713272 -1.33148
v 0.73277473 -1.3485551E-06 -1.3314838
v 1.2058735 -1.2293458E-06 -1.3314838
v 0.7327728 1.4713267 -1.33148
v 0.73277473 -1.2926757E-06 -1.4458218
v 1.1153221 1.4713273 -1.2430973
v 0.7327728 1.4713267 -1.445818
v 0.014741898 -1.7695129E-06 -1.4458218
v 0.01473999 1.4713262 -1.445818
v 0.014741898 -1.8551946E-06 -1.1824856
v 0.014738083 1.4713261 -1.1824818
v 0.66641617 1.4713266 -1.3411999
v 0.07652283 1.4713264 -1.3413448
v 0.076639175 1.4713264 -1.0583324
v 0.07664108 1.3995645 -1.0583363
v 0.07652664 1.3995645 -1.3413486
v 0.66642 1.3995647 -1.3412037
v 0.67638206 1.4713267 -1.2448826
v 0.676384 1.3995649 -1.2448864
v 1.1153259 1.3995652 -1.2431011
v 0.014738083 1.4713261 -1.1824818
v -0.16848373 -1.8551946E-06 -1.1824856
v 0.014741898 -1.8551946E-06 -1.1824856
v -0.16848564 1.4713261 -1.1824818
v -0.16848373 -1.8328428E-06 -1.5487156
v 0.076639175 1.4713264 -1.0583324
v -0.16848564 1.4713261 -1.5487118
v -1.025919 -2.4288893E-06 -1.5487156
v -1.0259209 1.4713259 -1.5487118
v -0.95064735 1.471326 -1.4556446
v -0.24738503 1.471326 -1.4633007
v -0.95064545 1.3995639 -1.4556484
v -0.24738312 1.3995641 -1.4633045
v -0.24727821 1.471326 -1.0582409
v -0.2472763 1.3995641 -1.0582447
v 0.07664108 1.3995645 -1.0583363
v -1.0259209 1.4713259 -1.5487118
v -1.0256767 -2.257526E-06 -0.44159508
v -1.025919 -2.4288893E-06 -1.5487156
v -1.0256786 1.4713261 -0.44159126
v -1.2058716 -2.257526E-06 -0.44130898
v -0.95064735 1.471326 -1.4556446
v -1.2058735 1.4713261 -0.44130516
v -1.2057953 -2.2351742E-06 0.41400337
v -0.95090485 1.471326 -0.3576107
v -0.95090294 1.3995644 -0.35761452
v -0.95064545 1.3995639 -1.4556484
v -1.1315804 1.3995644 -0.35736656
v -1.1315823 1.471326 -0.35736275
v -1.1318741 1.3995662 0.41425133
v -1.1318741 1.4713283 0.41425514
v -1.0407715 1.3995695 0.9081631
v -1.2057972 1.4713261 0.4140072
v -1.0919132 -2.361834E-06 1.0109158
v -1.0919151 1.4713259 1.0109196
v -0.90462303 -2.361834E-06 1.0109539
v -1.0407734 1.4713314 0.9081669
v -0.8388901 1.399584 0.90825844
v -0.8388939 1.4713459 0.90826225
v -0.83862495 1.3995918 1.4600658
v -0.83862686 1.4713537 1.4600697
v -0.90462494 1.471326 1.0109577
v -0.90462303 -2.4065375E-06 1.548708
v -0.90462494 1.4713261 1.5487118
v -0.90462494 1.4713261 1.5487118
v 1.2058735 -1.2144446E-06 1.548708
v -0.90462303 -2.4065375E-06 1.548708
v 1.2058697 1.4713273 1.5487118
v -0.83862686 1.4713537 1.4600697
v 1.121067 1.4713271 1.4594936
v 1.121069 1.3995652 1.4594898
v -0.83862495 1.3995918 1.4600658
v 0.2460289 1.3826926 -1.0319462
v 0.6451855 1.603803 -1.0319481
v 0.6451855 1.3826928 -1.0319462
v 0.2460289 1.6038028 -1.0319481
v 0.6451855 1.6038032 -1.3116493
v 0.2460289 1.6038029 -1.3116493
v 0.2460289 1.3826927 -1.3116474
v 0.2460289 1.3826926 -1.0319462
v 0.6451855 1.3826928 -1.0319462
v 0.6451855 1.603803 -1.0319481
v 0.6451855 1.6038032 -1.3116493
v 0.6451855 1.3826929 -1.3116474
v 0.6451855 1.3826929 -1.3116474
v 0.6451855 1.6038032 -1.3116493
v 0.2460289 1.6038029 -1.3116493
v 0.2460289 1.3826927 -1.3116474
v 0.18186569 1.5594143 1.1378517
v 1.0040855 1.3928536 1.1378536
v 0.18196106 1.3928531 1.1378536
v 1.0040855 1.5595396 1.1378517
v 0.4833889 1.7650856 0.70223427
v 0.18186569 1.5594141 0.038410187
v 0.48329926 1.76507 0.3939495
v 1.0040855 1.5595394 0.038410187
v 1.0040855 1.3928535 0.038412094
v 1.0040855 1.3928536 1.1378536
v 0.18186569 1.5594141 0.038410187
v 0.18186569 1.5594143 1.1378517
v 0.18196106 1.3928531 1.1378536
v 0.18196297 1.392853 0.038412094
v 0.18196297 1.392853 0.038412094
v 1.0040855 1.3928535 0.038412094
v 1.0040855 1.5595394 0.038410187
v 0.18186569 1.5594141 0.038410187
vt 0.32777455 0.7904522
vt 0.33669022 0.80714625
vt 0.33669022 0.7904544
vt 0.31150863 0.8071544
vt 0.32777613 0.7832546
vt 0.28337923 0.8054272
vt 0.29435784 0.8111762
vt 0.31150284 0.8111687
vt 0.28338218 0.8091526
vt 0.27030146 0.7594144
vt 0.27029115 0.80542237
vt 0.33189997 0.7699274
vt 0.33189997 0.7594144
vt 0.33406025 0.77014947
vt 0.33406463 0.78325707
vt 0.26545203 0.9552044
vt 0.3194855 0.98351586
vt 0.31950584 0.9552451
vt 0.2654304 0.98351586
vt 0.26710302 0.9853451
vt 0.31782526 0.9853451
vt 0.31782094 0.9872203
vt 0.2670999 0.9872203
vt 0.33482134 0.94932836
vt 0.34355325 0.91993016
vt 0.33482698 0.91993016
vt 0.34355325 0.94932836
vt 0.34571046 0.91993016
vt 0.33627114 0.9510228
vt 0.34571046 0.94932836
vt 0.35865682 0.91993016
vt 0.35865682 0.94932836
vt 0.36364812 0.91993016
vt 0.36364812 0.94932836
vt 0.34571046 0.9510228
vt 0.35865682 0.9510228
vt 0.36364812 0.9510228
vt 0.36364812 0.9528657
vt 0.35865682 0.9528657
vt 0.34571046 0.9528657
vt 0.34355325 0.9510228
vt 0.34355325 0.9528657
vt 0.33627114 0.9528657
vt 0.36364812 0.94932836
vt 0.3677164 0.91993016
vt 0.36364812 0.91993016
vt 0.3677164 0.94932836
vt 0.37459272 0.91993016
vt 0.36364812 0.9510228
vt 0.37459272 0.94932836
vt 0.38986245 0.91993016
vt 0.38987288 0.94932836
vt 0.38821995 0.9510228
vt 0.37459272 0.9510228
vt 0.38821995 0.9528657
vt 0.37459272 0.9528657
vt 0.3677164 0.9510228
vt 0.3677164 0.9528657
vt 0.36364812 0.9528657
vt 0.2683496 0.949459
vt 0.28896973 0.9199273
vt 0.2683496 0.9199273
vt 0.28896973 0.949459
vt 0.2923205 0.9199273
vt 0.27007937 0.9510228
vt 0.2923205 0.949459
vt 0.30824 0.9199273
vt 0.28896973 0.9510228
vt 0.28896973 0.95284224
vt 0.27007937 0.95284224
vt 0.2923205 0.95284224
vt 0.2923205 0.9510228
vt 0.30824 0.95284224
vt 0.30824 0.9510228
vt 0.31927863 0.95284224
vt 0.30824 0.949459
vt 0.31927863 0.9199273
vt 0.31927863 0.949459
vt 0.32277474 0.9199273
vt 0.31927863 0.9510228
vt 0.32277474 0.95284224
vt 0.32277474 0.9510228
vt 0.33129278 0.95284224
vt 0.33129343 0.9510228
vt 0.32277474 0.949459
vt 0.33294076 0.9199273
vt 0.33294076 0.949459
vt 0.32125974 0.9834697
vt 0.36048466 0.95518047
vt 0.32125974 0.95518047
vt 0.36048466 0.9834697
vt 0.32248655 0.9853451
vt 0.3589087 0.9853451
vt 0.358908 0.9872203
vt 0.32248655 0.9872203
vt 0.25624883 0.9781
vt 0.23680224 0.98489535
vt 0.23680224 0.9781
vt 0.25624883 0.98489535
vt 0.23680224 0.9985508
vt 0.25624883 0.9985508
vt 0.2623758 0.9985508
vt 0.2623758 0.98489535
vt 0.2623758 0.98489535
vt 0.25624883 0.98489535
vt 0.25624883 0.9985508
vt 0.2623758 0.9985508
vt 0.23680224 0.9781
vt 0.23680224 0.98489535
vt 0.25624883 0.98489535
vt 0.25624883 0.9781
vt 0.20832838 0.9683546
vt 0.2289338 0.9643116
vt 0.20832838 0.9643116
vt 0.2289338 0.9683546
vt 0.21578941 0.9787839
vt 0.20832838 0.9947395
vt 0.21578941 0.98592323
vt 0.2289338 0.9947395
vt 0.23298533 0.9947395
vt 0.23298533 0.9683546
vt 0.2289338 0.9947395
vt 0.2289338 0.9683546
vt 0.23298533 0.9683546
vt 0.23298533 0.9947395
vt 0.20832838 0.9643116
vt 0.2289338 0.9643116
vt 0.2289338 0.9683546
vt 0.20832838 0.9683546
vn -0.30144525 0.90452826 0.30159467
vn 0.5801105 0.5779306 0.5739931
vn -0.5744047 0.57677275 0.58085483
vn 0.30197206 0.9043465 0.30161268
vn 0.30160442 0.9045476 0.30137765
vn 0.30164576 0.9044321 -0.30168247
vn 0.7235065 0.6871519 -0.06603497
vn 0.5775819 0.57743144 0.5770374
vn 0.51780117 0.58762085 -0.6217586
vn -0.5781075 0.5772583 -0.5766841
vn 0.57711816 0.57737887 -0.57755363
vn -0.3037989 0.89172035 0.3354714
vn -0.5777588 0.57765347 0.57663786
vn -0.544238 0.58295447 0.60329854
vn 0.5773967 0.57731175 0.5773423
vn 0.7071078 0 0.70710576
vn 0.57734925 0.57735175 -0.57734984
vn 0.7071067 0 -0.7071068
vn 0.5773353 0.5773346 0.5773809
vn -0.30154645 0.9047692 -0.30076984
vn -0.30290887 0.9037971 0.30231938
vn -0.5777588 0.57765347 0.57663786
vn -0.5781075 0.5772583 -0.5766841
vn 0.57734925 0.57735175 -0.57734984
vn 0.707107 0 -0.70710653
vn 0.7071067 0 -0.7071068
vn 0.3015093 0.9045345 -0.30151197
vn 0.7071064 0 -0.70710707
vn -0.30290887 0.9037971 0.30231938
vn 0.57734966 0.57735157 -0.5773496
vn -0.7071048 0 -0.7071087
vn -0.5773498 0.57735115 -0.5773499
vn -0.7071066 0 -0.70710695
vn -0.30151293 0.90453297 -0.301513
vn -0.30254364 0.8921828 0.33537608
vn 0.30143034 0.9046104 0.30136317
vn 0.57753915 0.57734144 0.5771701
vn 0.30160442 0.9045476 0.30137765
vn 0.5773967 0.57731175 0.5773423
vn -0.544238 0.58295447 0.60329854
vn -0.5452804 0.58317167 0.60214627
vn -0.3037989 0.89172035 0.3354714
vn -0.5777588 0.57765347 0.57663786
vn -0.30151293 0.90453297 -0.301513
vn 0.707107 0 -0.7071065
vn -0.7071066 0 -0.70710695
vn 0.30150965 0.90453464 -0.3015111
vn 0.7071063 0 -0.70710725
vn 0.57753915 0.57734144 0.5771701
vn 0.5773497 0.5773515 -0.5773496
vn -0.70718336 0 -0.70703024
vn -0.57741964 0.57733905 -0.5772921
vn 0.30508548 0.9032258 0.3018377
vn -0.29798275 0.905767 0.30131805
vn 0.5801105 0.5779306 0.5739931
vn -0.5744047 0.57677275 0.58085483
vn -0.5771989 0.57732815 0.5775237
vn -0.30144525 0.90452826 0.30159467
vn 0.30160442 0.9045476 0.30137765
vn -0.57741964 0.57733905 -0.5772921
vn -0.707746 0 -0.7064669
vn -0.70718336 0 -0.70703024
vn -0.30202356 0.904374 -0.3014788
vn -0.7076985 0 -0.7065146
vn 0.30508548 0.9032258 0.3018377
vn -0.5777975 0.5774283 -0.5768245
vn -0.99555665 0 0.094164595
vn 0.5776251 0.5774278 0.5769978
vn 0.30197206 0.9043465 0.30161268
vn 0.5801105 0.5779306 0.5739931
vn 0.5775819 0.57743144 0.5770374
vn 0.30197692 0.90432674 0.3016673
vn 0.7235065 0.6871519 -0.06603497
vn 0.68247 0.7282549 -0.062285732
vn 0.51780117 0.58762085 -0.6217586
vn -0.7238791 0.68652105 0.06846806
vn -0.63749325 0 0.77045596
vn -0.51568294 0.58790547 0.6232483
vn -0.70717853 0 0.70703506
vn 0.30103195 0.882444 -0.36148632
vn 0.30164576 0.9044321 -0.30168247
vn 0.577274 0.5774733 -0.5773034
vn 0.57711816 0.57737887 -0.57755363
vn 0.3012551 0.9045872 -0.30160815
vn -0.30175555 0.9044452 0.30153373
vn -0.7071072 0 0.70710635
vn -0.5773902 0.57730407 0.5773566
vn -0.5773902 0.57730407 0.5773566
vn 0.7071078 0 0.70710576
vn -0.7071072 0 0.70710635
vn 0.5773353 0.5773346 0.5773809
vn 0.3012551 0.9045872 -0.30160815
vn -0.30154645 0.9047692 -0.30076984
vn -0.5781075 0.5772583 -0.5766841
vn 0.57711816 0.57737887 -0.57755363
vn -0.70710486 0 0.7071086
vn 0.5773506 0.57735264 0.57734764
vn 0.7071046 0 0.7071089
vn -0.5773509 0.5773522 0.5773477
vn 0.57734966 0.57734835 -0.5773528
vn -0.57734996 0.57734793 -0.5773528
vn -0.707109 0 -0.70710456
vn -0.70710486 0 0.7071086
vn 0.7071046 0 0.7071089
vn 0.5773506 0.57735264 0.57734764
vn 0.57734966 0.57734835 -0.5773528
vn 0.7071087 0 -0.7071048
vn 0.7071087 0 -0.7071048
vn 0.57734966 0.57734835 -0.5773528
vn -0.57734996 0.57734793 -0.5773528
vn -0.707109 0 -0.70710456
vn -0.61841744 0.46914914 0.63044345
vn 0.7071041 0 0.70710945
vn -0.7069757 -0.0004007432 0.7072378
vn 0.61758864 0.49323887 0.61261714
vn -0.10315562 0.9886518 0.109208524
vn -0.6264544 0.45578274 -0.6323108
vn -0.10054613 0.98443776 -0.14412767
vn 0.6234288 0.48626068 -0.6122802
vn 0.70710915 0 -0.7071043
vn 0.7071041 0 0.70710945
vn -0.6264544 0.45578274 -0.6323108
vn -0.61841744 0.46914914 0.63044345
vn -0.7069757 -0.0004007432 0.7072378
vn -0.7069776 -0.00041693586 -0.7072358
vn -0.7069776 -0.00041693586 -0.7072358
vn 0.70710915 0 -0.7071043
vn 0.6234288 0.48626068 -0.6122802
vn -0.6264544 0.45578274 -0.6323108
g fcbg_cityforest_002_building_20_0
f 3/3/3 2/2/2 1/1/1
f 2/2/2 4/4/4 1/1/1
f 1/1/1 4/4/4 5/5/5
f 4/4/4 6/6/6 5/5/5
f 7/7/7 6/6/6 4/4/4
f 8/8/8 7/7/7 4/4/4
f 9/9/9 6/6/6 7/7/7
f 5/5/5 6/6/6 10/10/10
f 6/6/6 11/11/11 10/10/10
f 12/12/12 5/5/5 10/10/10
f 13/13/13 12/12/12 10/10/10
f 5/5/5 12/12/12 14/14/14
f 15/15/15 5/5/5 14/14/14
f 18/18/18 17/17/17 16/16/16
f 17/17/17 19/19/19 16/16/16
f 20/20/20 19/19/19 17/17/17
f 21/21/21 20/20/20 17/17/17
f 20/20/20 21/21/21 22/22/22
f 23/23/23 20/20/20 22/22/22
f 26/26/26 25/25/25 24/24/24
f 25/25/25 27/27/27 24/24/24
f 25/25/25 28/28/28 27/27/27
f 24/24/24 27/27/27 29/29/29
f 28/28/28 30/30/30 27/27/27
f 28/28/28 31/31/31 30/30/30
f 31/31/31 32/32/32 30/30/30
f 31/31/31 33/33/33 32/32/32
f 33/33/33 34/34/34 32/32/32
f 30/30/30 35/35/35 27/27/27
f 30/30/30 32/32/32 35/35/35
f 32/32/32 34/34/34 36/36/36
f 32/32/32 36/36/36 35/35/35
f 34/34/34 37/37/37 36/36/36
f 36/36/36 37/37/37 38/38/38
f 39/39/39 36/36/36 38/38/38
f 35/35/35 36/36/36 39/39/39
f 40/40/40 35/35/35 39/39/39
f 35/35/35 41/41/41 27/27/27
f 41/41/41 35/35/35 40/40/40
f 27/27/27 41/41/41 29/29/29
f 42/42/42 41/41/41 40/40/40
f 29/29/29 41/41/41 42/42/42
f 43/43/43 29/29/29 42/42/42
f 46/46/46 45/45/45 44/44/44
f 45/45/45 47/47/47 44/44/44
f 45/45/45 48/48/48 47/47/47
f 44/44/44 47/47/47 49/49/49
f 48/48/48 50/50/50 47/47/47
f 48/48/48 51/51/51 50/50/50
f 51/51/51 52/52/52 50/50/50
f 50/50/50 52/52/52 53/53/53
f 54/54/54 50/50/50 53/53/53
f 47/47/47 50/50/50 54/54/54
f 54/54/54 53/53/53 55/55/55
f 56/56/56 54/54/54 55/55/55
f 57/57/57 47/47/47 54/54/54
f 57/57/57 54/54/54 56/56/56
f 47/47/47 57/57/57 49/49/49
f 58/58/58 57/57/57 56/56/56
f 49/49/49 57/57/57 58/58/58
f 59/59/59 49/49/49 58/58/58
f 62/62/62 61/61/61 60/60/60
f 61/61/61 63/63/63 60/60/60
f 61/61/61 64/64/64 63/63/63
f 65/65/65 60/60/60 63/63/63
f 64/64/64 66/66/66 63/63/63
f 64/64/64 67/67/67 66/66/66
f 68/68/68 65/65/65 63/63/63
f 68/68/68 63/63/63 66/66/66
f 65/65/65 68/68/68 69/69/69
f 70/70/70 65/65/65 69/69/69
f 69/69/69 68/68/68 71/71/71
f 68/68/68 72/72/72 71/71/71
f 72/72/72 68/68/68 66/66/66
f 71/71/71 72/72/72 73/73/73
f 72/72/72 74/74/74 73/73/73
f 72/72/72 66/66/66 74/74/74
f 73/73/73 74/74/74 75/75/75
f 67/67/67 76/76/76 66/66/66
f 66/66/66 76/76/76 74/74/74
f 67/67/67 77/77/77 76/76/76
f 77/77/77 78/78/78 76/76/76
f 76/76/76 78/78/78 74/74/74
f 77/77/77 79/79/79 78/78/78
f 74/74/74 80/80/80 75/75/75
f 78/78/78 80/80/80 74/74/74
f 75/75/75 80/80/80 81/81/81
f 80/80/80 82/82/82 81/81/81
f 82/82/82 80/80/80 78/78/78
f 81/81/81 82/82/82 83/83/83
f 82/82/82 84/84/84 83/83/83
f 79/79/79 85/85/85 78/78/78
f 85/85/85 82/82/82 78/78/78
f 84/84/84 82/82/82 85/85/85
f 79/79/79 86/86/86 85/85/85
f 87/87/87 84/84/84 85/85/85
f 86/86/86 87/87/87 85/85/85
f 90/90/90 89/89/89 88/88/88
f 89/89/89 91/91/91 88/88/88
f 88/88/88 91/91/91 92/92/92
f 91/91/91 93/93/93 92/92/92
f 92/92/92 93/93/93 94/94/94
f 95/95/95 92/92/92 94/94/94
f 98/98/98 97/97/97 96/96/96
f 97/97/97 99/99/99 96/96/96
f 97/97/97 100/100/100 99/99/99
f 100/100/100 101/101/101 99/99/99
f 99/99/99 101/101/101 102/102/102
f 103/103/103 99/99/99 102/102/102
f 106/106/106 105/105/105 104/104/104
f 107/107/107 106/106/106 104/104/104
f 110/110/110 109/109/109 108/108/108
f 111/111/111 110/110/110 108/108/108
f 114/114/114 113/113/113 112/112/112
f 113/113/113 115/115/115 112/112/112
f 112/112/112 115/115/115 116/116/116
f 117/117/117 112/112/112 116/116/116
f 118/118/118 117/117/117 116/116/116
f 118/118/118 116/116/116 115/115/115
f 119/119/119 117/117/117 118/118/118
f 119/119/119 118/118/118 115/115/115
f 119/119/119 115/115/115 120/120/120
f 115/115/115 121/121/121 120/120/120
f 124/124/124 123/123/123 122/122/122
f 125/125/125 124/124/124 122/122/122
f 128/128/128 127/127/127 126/126/126
f 129/129/129 128/128/128 126/126/126
