g fcbg_cityforestcrystal_003_wall_04
v -0.41204846 0.20277959 0.32063663
v -0.41748005 -0.3040024 0.32265854
v -0.48944104 -0.29865256 0.19138914
v -0.48403978 0.2081263 0.18935776
v -0.508698 0.2556607 -0.37411124
v -0.512421 -0.27134672 -0.5394063
v 0.25128165 0.32083267 -0.36783585
v -0.512421 -0.27134672 -0.5394063
v 0.2984618 -0.23628968 -0.54421425
v 0.5124516 -0.23445016 -0.3231755
v 0.42877215 0.3228053 -0.21604326
v 0.34167463 0.24835181 0.5431596
v -0.41748005 -0.3040024 0.32265854
v 0.36334234 -0.2569428 0.5548687
v 0.5124516 -0.23445016 -0.3231755
v 0.4582215 -0.30907974 0.50225484
v 0.36334234 -0.2569428 0.5548687
vt 0.18688215 0.79039377
vt 0.18553607 0.80089015
vt 0.18854584 0.80258405
vt 0.18990704 0.7919818
vt 0.2021881 0.7919818
vt 0.2068767 0.80258405
vt 0.20235448 0.7750424
vt 0.21289623 0.7917398
vt 0.21289623 0.7717907
vt 0.20773879 0.7667844
vt 0.19908759 0.7712613
vt 0.1825263 0.7734241
vt 0.17644626 0.7944471
vt 0.17100146 0.77647924
vt 0.19887584 0.7576644
vt 0.18051475 0.7576644
vt 0.17614378 0.7642133
vn -0.5113864 0.58441997 0.63002956
vn -0.6318917 0.0111070275 0.7749771
vn -0.96236825 0.007455349 0.2716464
vn -0.7469195 0.62093675 0.23779993
vn -0.62276256 0.64467263 -0.44335535
vn -0.6684085 0.23203337 -0.7066757
vn 0.21164513 0.7834362 -0.5843236
vn -0.6684085 0.23203337 -0.7066757
vn 0.3321504 0.29958928 -0.8943838
vn 0.90546334 0.23568499 -0.3529713
vn 0.65167195 0.7341386 -0.19069399
vn 0.3850997 0.6008525 0.7004816
vn -0.6318917 0.0111070275 0.7749771
vn 0.17330253 0.02936536 0.9844308
vn 0.90546334 0.23568499 -0.3529713
vn 0.8963342 0.1316123 0.42339492
vn 0.17330253 0.02936536 0.9844308
g fcbg_cityforestcrystal_003_wall_04_0
f 3/3/3 2/2/2 1/1/1
f 4/4/4 3/3/3 1/1/1
f 3/3/3 4/4/4 5/5/5
f 6/6/6 3/3/3 5/5/5
f 7/7/7 5/5/5 4/4/4
f 7/7/7 4/4/4 1/1/1
f 8/8/8 5/5/5 7/7/7
f 9/9/9 8/8/8 7/7/7
f 9/9/9 7/7/7 10/10/10
f 7/7/7 11/11/11 10/10/10
f 11/11/11 7/7/7 1/1/1
f 12/12/12 11/11/11 1/1/1
f 1/1/1 13/13/13 12/12/12
f 13/13/13 14/14/14 12/12/12
f 15/15/15 11/11/11 12/12/12
f 16/16/16 15/15/15 12/12/12
f 12/12/12 17/17/17 16/16/16
