g fcbg_cityforest_007_stone_04
v 0.075600445 0.35009164 -0.40358618
v 0.1465961 0.0010424852 -0.47276172
v 0.37441126 0.0010424852 -0.3812306
v -0.31939882 0.0010424852 -0.37600273
v 0.3310591 0.17225713 -0.35310665
v 0.5078571 0.0010424852 0.020858228
v 0.42967013 0.20087993 -0.0012803674
v 0.3059806 0.0010424852 0.39386028
v 0.19945467 0.35009062 0.2879039
v -0.22084975 0.0010424852 0.4727621
v -0.28649163 0.29729503 -0.31102535
v -0.50785065 0.0010424852 -0.07135677
v -0.19425434 0.29729408 0.36272675
v -0.49041682 0.0010424852 0.23448843
v -0.44539082 0.19480354 -0.07546291
vt 0.21087885 0.314934
vt 0.22176003 0.30920464
vt 0.21214022 0.29887056
vt 0.22176003 0.3293105
vt 0.20990622 0.30639318
vt 0.1927638 0.29887056
vt 0.19829558 0.3056029
vt 0.18101639 0.31238085
vt 0.1927334 0.31596738
vt 0.18101639 0.33117977
vt 0.21115239 0.32634705
vt 0.20979984 0.34196976
vt 0.19226229 0.32709172
vt 0.19325012 0.34196976
vt 0.20717074 0.33450794
vn 0.09692705 0.76788104 -0.6332171
vn 0.10048592 0.22871053 -0.9682944
vn 0.7037162 0.30166757 -0.6432575
vn -0.57036316 0.22159278 -0.7909377
vn 0.66100967 0.48494995 -0.57261664
vn 0.92436683 0.36750686 0.102394655
vn 0.8051443 0.5917164 0.04017838
vn 0.5382283 0.39063966 0.74680054
vn 0.3460487 0.7999109 0.4902987
vn -0.26251996 0.3550508 0.89723027
vn -0.49384713 0.69314444 -0.52503884
vn -0.89600074 0.4262284 -0.1245472
vn -0.3159032 0.73585105 0.5989394
vn -0.7856754 0.4920677 0.37494472
vn -0.7945726 0.6006136 -0.0889813
g fcbg_cityforest_007_stone_04_0
f 3/3/3 2/2/2 1/1/1
f 2/2/2 4/4/4 1/1/1
f 5/5/5 3/3/3 1/1/1
f 6/6/6 3/3/3 5/5/5
f 7/7/7 6/6/6 5/5/5
f 5/5/5 1/1/1 7/7/7
f 6/6/6 7/7/7 8/8/8
f 7/7/7 9/9/9 8/8/8
f 7/7/7 1/1/1 9/9/9
f 10/10/10 8/8/8 9/9/9
f 4/4/4 11/11/11 1/1/1
f 1/1/1 11/11/11 9/9/9
f 4/4/4 12/12/12 11/11/11
f 13/13/13 10/10/10 9/9/9
f 11/11/11 13/13/13 9/9/9
f 10/10/10 13/13/13 14/14/14
f 12/12/12 15/15/15 11/11/11
f 12/12/12 14/14/14 15/15/15
f 14/14/14 13/13/13 15/15/15
f 11/11/11 15/15/15 13/13/13
