g fcbg_common_crystal_06
v -0.18826228 -0.03520733 0.28771138
v -0.39177144 -0.032541394 -0.00079494715
v -0.7770132 4.615258 0.50264585
v 0.10852063 4.0734396 0.7579299
v 0.45643246 -0.022727728 -0.16855866
v 0.076726615 5.580287 0.40333283
v -0.12850308 6.354205 0.08890849
v 0.77701163 4.509307 -0.069007635
v 0.06139064 -0.009323239 -0.6395798
v 0.027644753 4.337082 -0.75792843
v -0.34923196 -0.012764454 -0.50459623
v 0.09449047 5.2429237 -0.5209523
v -0.7200831 4.1451683 -0.49894467
v -0.39177144 -0.032541394 -0.00079494715
v -0.7770132 4.615258 0.50264585
v -0.76777077 4.948058 -0.33916515
vt 0.09648683 0.8072089
vt 0.10587804 0.8075099
vt 0.11982941 0.94997334
vt 0.099572085 0.92956555
vt 0.0725272 0.8070433
vt 0.08541002 0.97260857
vt 0.0727078 0.9959211
vt 0.073655955 0.93850523
vt 0.05386518 0.81008345
vt 0.048417073 0.9383698
vt 0.04060611 0.8160884
vt 0.059057437 0.96175754
vt 0.029815251 0.93951356
vt 0.025029344 0.8184512
vt 0.009618126 0.9640903
vt 0.03529346 0.96187794
vn 0.026566148 -0.13743818 0.990154
vn -0.87791604 -0.10826135 0.46641496
vn -0.7903854 0.13098878 0.59844196
vn 0.23663944 0.010391176 0.97154194
vn 0.99134713 -0.11215156 0.06821213
vn 0.39030415 0.3780194 0.8395022
vn -0.012336314 0.99851364 0.053088095
vn 0.9874569 0.14654976 -0.058753513
vn 0.24052966 -0.030456424 -0.9701638
vn 0.19579184 0.09403151 -0.97612685
vn -0.7903854 -0.06741375 -0.60888934
vn 0.28137726 0.39552552 -0.87429196
vn -0.7884404 0.010391176 -0.6150234
vn -0.87791604 -0.10826135 0.46641496
vn -0.7903854 0.13098878 0.59844196
vn -0.8215074 0.28659862 -0.4929369
g fcbg_common_crystal_06_0
f 3/3/3 2/2/2 1/1/1
f 4/4/4 3/3/3 1/1/1
f 4/4/4 1/1/1 5/5/5
f 4/4/4 6/6/6 3/3/3
f 3/3/3 6/6/6 7/7/7
f 5/5/5 8/8/8 4/4/4
f 4/4/4 8/8/8 6/6/6
f 8/8/8 7/7/7 6/6/6
f 8/8/8 5/5/5 9/9/9
f 10/10/10 8/8/8 9/9/9
f 9/9/9 11/11/11 10/10/10
f 8/8/8 12/12/12 7/7/7
f 10/10/10 12/12/12 8/8/8
f 11/11/11 13/13/13 10/10/10
f 10/10/10 13/13/13 12/12/12
f 13/13/13 11/11/11 14/14/14
f 15/15/15 13/13/13 14/14/14
f 15/15/15 7/7/7 16/16/16
f 7/7/7 12/12/12 16/16/16
f 13/13/13 16/16/16 12/12/12
f 15/15/15 16/16/16 13/13/13
