g fcbg_cityforest_005_substation_03
v 5.627096 4.1007996E-05 2.1720905
v 5.6270947 3.5923328 -1.8976789
v 5.627095 4.053116E-05 -1.8976789
v 5.6270957 3.592333 2.1720898
v 5.464108 3.5923328 -1.6916018
v 5.464109 3.5923328 1.9660127
v -3.9176676 3.5923326 2.1720912
v -3.7546818 3.5923324 -1.6916001
v 5.464108 3.4243243 -1.6916018
v -3.7546809 3.5923326 1.9660146
v -3.9176686 3.5923324 -1.8976774
v -2.05583 2.668984 -1.8976777
v -3.9176686 2.668984 -1.8976774
v 5.627095 4.053116E-05 -1.8976789
v -2.0558298 4.053116E-05 -1.8976774
v 5.464109 3.4243245 1.9660127
v -3.7546809 3.424324 1.9660146
v -3.7546818 3.424324 -1.6916001
v -2.0558295 4.053116E-05 2.1720917
v -2.055829 4.053116E-05 3.1656446
v -2.0558293 2.6689842 3.1656435
v -2.0558295 2.6689842 2.172091
v -5.6270933 2.668984 3.1656442
v -3.9176676 2.668984 2.1720912
v -3.9176686 2.668984 -1.8976774
v -3.9176686 3.5923324 -1.8976774
v -3.9176676 3.5923326 2.1720912
v -3.9176676 2.668984 2.1720912
v -2.0558302 2.668984 -2.959863
v -5.6270947 4.005432E-05 -2.959863
v -2.0558302 4.005432E-05 -2.959863
v -5.6270943 2.668984 -2.9598627
v -2.05583 2.668984 -1.8976777
v -2.0558298 4.053116E-05 -1.8976774
v -2.0558302 4.005432E-05 -2.959863
v -3.9176686 2.668984 -1.8976774
v -5.6270933 2.668984 3.1656442
v -3.9176676 2.668984 2.1720912
v -5.6270947 4.005432E-05 -2.959863
v -5.627094 4.053116E-05 3.165645
v 3.9695916 4.622907 -0.7315103
v -2.2601647 5.784214 -0.7315094
v -2.2601647 4.622907 -0.7315093
v 3.9695916 5.7842145 -0.73151034
v 3.969592 6.5443707 1.9459391
v -2.2601643 6.54437 1.9459407
v 3.969592 4.6229076 1.9459391
v 3.9695916 4.622907 -0.7315103
v -2.2601647 4.622907 -0.7315093
v -2.2601647 5.784214 -0.7315094
v -2.2601643 4.622907 1.9459407
v -2.2601643 6.54437 1.9459407
v 3.9106472 3.3900576 0.6572551
v 3.9106476 4.7059474 0.657255
v 3.0130517 4.7059474 -0.24034163
v 3.0130513 3.390058 -0.24034151
v 2.1154547 4.7059474 0.6572552
v 2.1154547 3.390058 0.6572553
v 2.1154547 3.390058 0.6572553
v 2.1154547 4.7059474 0.6572552
v 3.0130517 4.7059474 1.5548518
v 3.0130517 3.3900576 1.5548515
v 3.9106476 4.7059474 0.657255
v 3.9106472 3.3900576 0.6572551
v 4.1161613 1.5407345 -3.1656444
v 4.1161613 -8.72612E-05 -3.165645
v 4.392087 -8.678436E-05 -3.1656446
v 4.392087 1.5407345 -3.1656442
v 4.3920875 -8.678436E-05 -1.8652706
v 4.3920865 1.9862428 -2.4472954
v 4.1161613 1.9862425 -2.4472954
v 4.3920865 1.9862425 -1.8652704
v 4.1161613 1.9862423 -1.8652704
v 1.8944607 1.540734 -3.1656442
v 1.8944612 -8.72612E-05 -3.1656446
v 2.1642218 -8.72612E-05 -3.1656442
v 2.1642213 1.5407343 -3.165644
v 2.1642218 -8.72612E-05 -1.8652709
v 2.1642215 1.9862423 -2.447295
v 1.8944609 1.986242 -2.4472952
v 2.1642215 1.986242 -1.8652711
v 1.8944609 1.986242 -1.8652711
v -0.18450779 1.5407333 -3.1656437
v -0.1845079 -8.6307526E-05 -3.1656442
v 0.08213979 -8.6307526E-05 -3.1656442
v 0.08213997 1.5407336 -3.1656437
v 0.08214092 -8.6307526E-05 -1.8652701
v 0.0821408 1.986242 -2.4472945
v -0.18450755 1.9862418 -2.4472947
v 0.0821411 1.9862418 -1.8652701
v -0.18450683 1.9862418 -1.8652699
v 1.7324095 3.389729 0.6572556
v 1.7324097 4.7056193 0.6572555
v 0.834813 4.7056193 -0.24034148
v 0.8348129 3.3897295 -0.24034137
v -0.06278372 4.7056193 0.65725553
v -0.06278372 3.3897295 0.6572556
v -0.06278372 3.3897295 0.6572556
v -0.06278372 4.7056193 0.65725553
v 0.83481306 4.7056193 1.5548527
v 0.8348131 3.389729 1.5548522
v 1.7324097 4.7056193 0.6572555
v 1.7324095 3.389729 0.6572556
v -0.40838414 3.3900576 0.6572554
v -0.4083838 4.7059474 0.65725535
v -1.30598 4.7059474 -0.24034125
v -1.3059802 3.390058 -0.24034119
v -2.2035768 4.7059474 0.6572555
v -2.2035768 3.390058 0.65725565
v -2.2035768 3.390058 0.65725565
v -2.2035768 4.7059474 0.6572555
v -1.3059797 4.7059474 1.5548525
v -1.3059797 3.3900576 1.5548522
v -0.4083838 4.7059474 0.65725535
v -0.40838414 3.3900576 0.6572554
v 4.1161613 1.5407345 -3.1656444
v 4.110838 -8.72612E-05 -1.8652711
v 4.1161613 -8.72612E-05 -3.165645
v 4.1161613 1.9862425 -2.4472954
v 4.1161613 1.9862423 -1.8652704
v 1.8944607 1.540734 -3.1656442
v 1.8953011 -8.773804E-05 -1.8652713
v 1.8944612 -8.72612E-05 -3.1656446
v 1.8944609 1.986242 -2.4472952
v 1.8944609 1.986242 -1.8652711
v -0.18450779 1.5407333 -3.1656437
v -0.18055433 -8.6307526E-05 -1.8652701
v -0.1845079 -8.6307526E-05 -3.1656442
v -0.18450755 1.9862418 -2.4472947
v -0.18450683 1.9862418 -1.8652699
v -0.60997826 7.8144 1.1832554
v -0.56802636 7.8144007 0.7182452
v -0.41736394 7.8144 0.71824485
v -0.6099785 7.8144 0.2532341
v -0.71651274 7.8144007 1.0767219
v -1.0749893 7.8144007 1.2252076
v -1.0749888 7.8144 1.375869
v -1.5399995 7.8144 1.1832557
v -0.5680267 7.591336 0.7182454
v -0.71651334 7.591336 1.0767224
v -1.0749905 7.4731107 0.71824515
v -0.7165131 7.591336 0.35976836
v -1.07499 7.591336 1.225208
v -1.4334662 7.8144007 1.0767221
v -0.71651274 7.8144007 0.3597683
v -1.5819507 7.8144007 0.7182453
v -1.7326117 7.8144 0.7182451
v -1.5399997 7.8144 0.25323427
v -1.4334671 7.591336 1.0767224
v -1.0749905 7.591336 0.21128266
v -1.5819514 7.591336 0.7182456
v -1.4334662 7.8144007 0.35976842
v -1.4334671 7.591336 0.35976842
v -1.0749898 7.8144007 0.21128254
v -1.0749893 7.8144 0.06062064
v -0.6099786 5.971804 0.2532342
v -0.41736406 5.971804 0.718245
v -1.0749896 5.971804 0.060620777
v -0.41736394 7.8144 0.71824485
v -1.5399997 7.8144 0.25323427
v -0.6099785 5.971804 1.1832557
v -1.5399997 5.971804 0.2532344
v -0.60997826 7.8144 1.1832554
v -1.7326117 7.8144 0.7182451
v -1.0749891 5.971804 1.3758693
v -1.7326117 5.971804 0.71824527
v -1.0749888 7.8144 1.375869
v -1.5399995 7.8144 1.1832557
v -1.5399995 5.971804 1.1832557
vt 0.37345612 0.27234262
vt 0.46261296 0.33852053
vt 0.46261296 0.27234262
vt 0.37345612 0.33852053
vt 0.45582747 0.34573725
vt 0.3794967 0.34573725
vt 0.37345612 0.52905494
vt 0.45582747 0.52200264
vt 0.44933996 0.35156304
vt 0.3794967 0.52200264
vt 0.46261296 0.52905494
vt 0.47782806 0.49164835
vt 0.47782806 0.52905494
vt 0.5209971 0.33852053
vt 0.5209971 0.49164835
vt 0.38539562 0.35156304
vt 0.38539562 0.5161586
vt 0.44933996 0.5161586
vt 0.0026637833 0.42720288
vt 0.0026637833 0.40334535
vt 0.056354873 0.40334535
vt 0.056354873 0.42720288
vt 0.14599597 0.4035845
vt 0.10142652 0.42744204
vt 0.37345612 0.54354155
vt 0.37345612 0.52905494
vt 0.46261296 0.52905494
vt 0.46261296 0.54354155
vt 0.056354873 0.4035845
vt 0.14599597 0.34032354
vt 0.056354873 0.34032354
vt 0.14599597 0.4035845
vt 0.056354873 0.42744204
vt 0.0026637833 0.42744204
vt 0.0026637833 0.4035845
vt 0.10142652 0.42744204
vt 0.14599597 0.54381263
vt 0.10135754 0.52085525
vt 0.21831024 0.4035845
vt 0.21831024 0.54381263
vt 0.104360916 0.3013108
vt 0.073302455 0.1422234
vt 0.104360916 0.1422234
vt 0.073302455 0.3013108
vt 0.003181662 0.3013108
vt 0.003181662 0.1422234
vt 0.003181662 0.35578713
vt 0.073302455 0.3320663
vt 0.073302455 0.3320663
vt 0.073302455 0.3013108
vt 0.003181662 0.35578713
vt 0.003181662 0.3013108
vt 0.04164595 0.4999739
vt 0.04164595 0.5378547
vt 0.06696319 0.5378547
vt 0.06696319 0.4999739
vt 0.09228048 0.5378547
vt 0.09228048 0.4999739
vt 0.04164595 0.4999739
vt 0.04164595 0.5378547
vt 0.06696326 0.5378547
vt 0.06696326 0.4999739
vt 0.09228048 0.5378547
vt 0.09228048 0.4999739
vt 0.09168308 0.4795351
vt 0.09168308 0.43395725
vt 0.081943534 0.43395725
vt 0.081943534 0.4750014
vt 0.04233604 0.43395725
vt 0.060406175 0.48582292
vt 0.06547923 0.4928256
vt 0.04233604 0.48582286
vt 0.04233604 0.4928256
vt 0.09168308 0.4795351
vt 0.09168308 0.43395725
vt 0.081943534 0.43395725
vt 0.081943534 0.4750014
vt 0.04233604 0.43395725
vt 0.060406175 0.48582292
vt 0.06547923 0.4928256
vt 0.04233604 0.48582286
vt 0.04233604 0.4928256
vt 0.09168308 0.4795351
vt 0.09168308 0.43395725
vt 0.081943534 0.43395725
vt 0.081943534 0.4750014
vt 0.04233604 0.43395725
vt 0.060406175 0.48582292
vt 0.06547923 0.4928256
vt 0.04233604 0.48582286
vt 0.04233604 0.4928256
vt 0.04164595 0.4999739
vt 0.04164595 0.5378547
vt 0.06696319 0.5378547
vt 0.06696319 0.4999739
vt 0.09228048 0.5378547
vt 0.09228048 0.4999739
vt 0.04164595 0.4999739
vt 0.04164595 0.5378547
vt 0.06696326 0.5378547
vt 0.06696326 0.4999739
vt 0.09228048 0.5378547
vt 0.09228048 0.4999739
vt 0.04164595 0.4999739
vt 0.04164595 0.5378547
vt 0.06696319 0.5378547
vt 0.06696319 0.4999739
vt 0.09228048 0.5378547
vt 0.09228048 0.4999739
vt 0.04164595 0.4999739
vt 0.04164595 0.5378547
vt 0.06696326 0.5378547
vt 0.06696326 0.4999739
vt 0.09228048 0.5378547
vt 0.09228048 0.4999739
vt 0.081943534 0.4750014
vt 0.04233604 0.43395725
vt 0.081943534 0.43395725
vt 0.060406175 0.48582292
vt 0.04233604 0.48582286
vt 0.081943534 0.4750014
vt 0.04233604 0.43395725
vt 0.081943534 0.43395725
vt 0.060406175 0.48582292
vt 0.04233604 0.48582286
vt 0.081943534 0.4750014
vt 0.04233604 0.43395725
vt 0.081943534 0.43395725
vt 0.060406175 0.48582292
vt 0.04233604 0.48582286
vt 0.23621272 0.3059563
vt 0.24032274 0.2935626
vt 0.23621272 0.29186094
vt 0.24626453 0.28189406
vt 0.2404038 0.304363
vt 0.24775249 0.31207833
vt 0.24616262 0.3159231
vt 0.26023406 0.3159231
vt 0.24322793 0.29476854
vt 0.24329071 0.30331373
vt 0.25319836 0.2989086
vt 0.24936232 0.28877383
vt 0.24898128 0.30910653
vt 0.25822958 0.31199387
vt 0.24793236 0.28582102
vt 0.26607722 0.30425236
vt 0.27018398 0.3059563
vt 0.27018398 0.29186094
vt 0.2570943 0.3090411
vt 0.2573491 0.28870842
vt 0.26317137 0.30304638
vt 0.2659887 0.29321727
vt 0.26310277 0.2945012
vt 0.25855857 0.2857366
vt 0.26013213 0.28189406
vt 0.24626453 0.23020151
vt 0.23249896 0.23020151
vt 0.26013213 0.23020151
vt 0.23249896 0.28189406
vt 0.2738977 0.28189406
vt 0.21869943 0.23020151
vt 0.2738977 0.23020151
vt 0.21869943 0.28189406
vt 0.26013213 0.28189406
vt 0.23249896 0.23020151
vt 0.26013213 0.23020151
vt 0.23249896 0.28189406
vt 0.24626453 0.28189406
vt 0.24626453 0.23020151
vn 1 0 0
vn 0.57735 0.5773504 -0.5773503
vn 0.7071066 0 -0.70710695
vn 0.70710665 0.7071069 0
vn -0.31622815 0.9486832 0
vn -0.30151173 0.90453386 -0.30151144
vn -0.70710677 0.70710677 0
vn 0.31622776 0.9486833 0
vn -0.70710677 0.7071067 0
vn 0.3015112 0.9045339 -0.3015117
vn -0.5773504 0.57735026 -0.5773501
vn 0.30151117 0.3015113 -0.90453404
vn -0.3015114 0.90453404 -0.3015113
vn 0.7071066 0 -0.70710695
vn 0.70710665 0 -0.7071068
vn -0.5773505 0.5773502 -0.5773502
vn 0.57735014 0.57735026 -0.57735044
vn 0.70710677 0.7071067 0
vn 1 0 0
vn 1 0 0
vn 0.7071068 0.7071067 0
vn 0.7071066 0.7071069 0
vn -0.7071068 0.70710665 0
vn -0.31622782 0.9486833 0
vn -0.3015114 0.90453404 -0.3015113
vn -0.5773504 0.57735026 -0.5773501
vn -0.70710677 0.70710677 0
vn -0.31622782 0.9486833 0
vn 0.5773502 0.5773503 -0.5773504
vn -0.7071068 0 -0.7071067
vn 0.70710653 0 -0.70710695
vn -0.57735026 0.57735026 -0.5773502
vn 0.30151117 0.3015113 -0.90453404
vn 0.70710665 0 -0.7071068
vn 0.70710653 0 -0.70710695
vn -0.3015114 0.90453404 -0.3015113
vn -0.7071068 0.70710665 0
vn -0.31622782 0.9486833 0
vn -0.7071068 0 -0.7071067
vn -1 0 0
vn 0.70710665 0 -0.7071069
vn -0.593309 0.48528814 -0.6422459
vn -0.7071069 0 -0.70710665
vn 0.5933087 0.4852882 -0.6422461
vn 0.63587344 0.7424505 -0.21078962
vn -0.6358737 0.74245036 -0.21078935
vn 1 0 0
vn 0.70710665 0 -0.7071069
vn -0.7071069 0 -0.70710665
vn -0.593309 0.48528814 -0.6422459
vn -1 0 0
vn -0.6358737 0.74245036 -0.21078935
vn 1 0 0
vn 1 0 0
vn -0 0 -1
vn -0 0 -1
vn -1 0 0
vn -1 0 0
vn -1 0 0
vn -1 0 0
vn -0 0 1
vn -0 0 1
vn 1 0 0
vn 1 0 0
vn -0.6114801 0.38489246 -0.69133925
vn -0.705658 0 -0.70855266
vn 0.7071065 0 -0.70710707
vn 0.6122936 0.3844726 -0.6908525
vn 1 0 0
vn 0.6503176 0.73058707 -0.2081577
vn -0.6494914 0.73126584 -0.20835312
vn 0.70710635 0.7071071 0
vn -0.70615894 0.70805347 0
vn -0.61242163 0.38440603 -0.6907763
vn -0.7073346 0 -0.7068789
vn 0.70710725 0 -0.7071063
vn 0.61229354 0.38447273 -0.6908525
vn 1 0 0
vn 0.6503179 0.7305868 -0.20815776
vn -0.65044856 0.73047924 -0.20812698
vn 0.70710665 0.7071069 0
vn -0.70725644 0.70695704 0
vn -0.6128971 0.38415986 -0.69049126
vn -0.70818084 0 -0.70603114
vn 0.70710635 0 -0.7071071
vn 0.6122931 0.38447252 -0.6908532
vn 1 0 0
vn 0.65031785 0.7305867 -0.20815818
vn -0.6509318 0.7300814 -0.20801233
vn 0.70710665 0.7071069 0
vn -0.70781004 0.7064028 0
vn 1 0 0
vn 1 0 0
vn -0 0 -1
vn -0 0 -1
vn -1 0 0
vn -1 0 0
vn -1 0 0
vn -1 0 0
vn -0 0 1
vn -0 0 1
vn 1 0 0
vn 1 0 0
vn 1 0 0
vn 1 0 0
vn -0 0 -1
vn -0 0 -1
vn -1 0 0
vn -1 0 0
vn -1 0 0
vn -1 0 0
vn -0 0 1
vn -0 0 1
vn 1 0 0
vn 1 0 0
vn -0.6114801 0.38489246 -0.69133925
vn -0.99999595 0.0010868363 -0.0026393263
vn -0.705658 0 -0.70855266
vn -0.6494914 0.73126584 -0.20835312
vn -0.70615894 0.70805347 0
vn -0.61242163 0.38440603 -0.6907763
vn -0.9999999 -0.00017168355 0.00041653716
vn -0.7073346 0 -0.7068789
vn -0.65044856 0.73047924 -0.20812698
vn -0.70725644 0.70695704 0
vn -0.6128971 0.38415986 -0.69049126
vn -0.99999774 -0.00080696685 0.0019604452
vn -0.70818084 0 -0.70603114
vn -0.6509318 0.7300814 -0.20801233
vn -0.70781004 0.7064028 0
vn 0.54898524 0.6302616 0.54898596
vn -0.5943745 0.80418843 0
vn 0.77638316 0.63026124 0
vn 0.548985 0.6302615 -0.54898614
vn -0.42028692 0.80418766 -0.42028695
vn -0 0.8041868 -0.59437656
vn -0 0.6302616 0.77638286
vn -0.54898643 0.6302612 0.5489851
vn -0.83070064 0.5567193 0
vn -0.58739334 0.5567188 -0.5873952
vn -0 1 0
vn -0.5873935 0.5567193 0.5873948
vn -0 0.55671793 -0.83070165
vn 0.4202876 0.80418724 -0.42028698
vn -0.42028624 0.8041881 0.42028686
vn 0.5943782 0.8041856 0
vn -0.7763825 0.630262 0
vn -0.5489868 0.6302611 -0.5489848
vn 0.5873963 0.5567168 -0.58739424
vn -0 0.55671865 0.83070105
vn 0.830702 0.55671734 0
vn 0.42028773 0.8041875 0.4202866
vn 0.58739656 0.55671734 0.5873935
vn -0 0.80418754 0.59437555
vn -0 0.6302615 -0.776383
vn 0.70710605 0 -0.7071075
vn 1 0 0
vn -0 0 -1
vn 0.77638316 0.63026124 0
vn -0.5489868 0.6302611 -0.5489848
vn 0.70710623 0 0.7071073
vn -0.7071081 0 -0.70710546
vn 0.54898524 0.6302616 0.54898596
vn -0.7763825 0.630262 0
vn -0 0 1
vn -1 0 0
vn -0 0.6302616 0.77638286
vn -0.54898643 0.6302612 0.5489851
vn -0.7071076 0 0.70710593
g fcbg_cityforest_005_substation_03_0
f 3/3/3 2/2/2 1/1/1
f 2/2/2 4/4/4 1/1/1
f 2/2/2 5/5/5 4/4/4
f 5/5/5 6/6/6 4/4/4
f 4/4/4 6/6/6 7/7/7
f 8/8/8 5/5/5 2/2/2
f 5/5/5 9/9/9 6/6/6
f 6/6/6 10/10/10 7/7/7
f 7/7/7 10/10/10 11/11/11
f 11/11/11 8/8/8 2/2/2
f 10/10/10 8/8/8 11/11/11
f 12/12/12 11/11/11 2/2/2
f 12/12/12 13/13/13 11/11/11
f 12/12/12 2/2/2 14/14/14
f 12/12/12 14/14/14 15/15/15
f 9/9/9 16/16/16 6/6/6
f 6/6/6 16/16/16 10/10/10
f 10/10/10 17/17/17 8/8/8
f 16/16/16 17/17/17 10/10/10
f 16/16/16 9/9/9 17/17/17
f 17/17/17 18/18/18 8/8/8
f 9/9/9 18/18/18 17/17/17
f 21/21/21 20/20/20 19/19/19
f 22/22/22 21/21/21 19/19/19
f 23/23/23 21/21/21 22/22/22
f 24/24/24 23/23/23 22/22/22
f 27/27/27 26/26/26 25/25/25
f 28/28/28 27/27/27 25/25/25
f 31/31/31 30/30/30 29/29/29
f 30/30/30 32/32/32 29/29/29
f 29/29/29 32/32/32 33/33/33
f 29/29/29 33/33/33 34/34/34
f 35/35/35 29/29/29 34/34/34
f 32/32/32 36/36/36 33/33/33
f 32/32/32 37/37/37 36/36/36
f 37/37/37 38/38/38 36/36/36
f 32/32/32 39/39/39 37/37/37
f 39/39/39 40/40/40 37/37/37
f 43/43/43 42/42/42 41/41/41
f 42/42/42 44/44/44 41/41/41
f 44/44/44 42/42/42 45/45/45
f 42/42/42 46/46/46 45/45/45
f 44/44/44 45/45/45 47/47/47
f 48/48/48 44/44/44 47/47/47
f 51/51/51 50/50/50 49/49/49
f 52/52/52 50/50/50 51/51/51
f 55/55/55 54/54/54 53/53/53
f 56/56/56 55/55/55 53/53/53
f 57/57/57 55/55/55 56/56/56
f 58/58/58 57/57/57 56/56/56
f 61/61/61 60/60/60 59/59/59
f 62/62/62 61/61/61 59/59/59
f 63/63/63 61/61/61 62/62/62
f 64/64/64 63/63/63 62/62/62
f 67/67/67 66/66/66 65/65/65
f 68/68/68 67/67/67 65/65/65
f 69/69/69 67/67/67 68/68/68
f 70/70/70 68/68/68 65/65/65
f 70/70/70 69/69/69 68/68/68
f 71/71/71 70/70/70 65/65/65
f 72/72/72 69/69/69 70/70/70
f 71/71/71 73/73/73 70/70/70
f 73/73/73 72/72/72 70/70/70
f 76/76/76 75/75/75 74/74/74
f 77/77/77 76/76/76 74/74/74
f 78/78/78 76/76/76 77/77/77
f 79/79/79 77/77/77 74/74/74
f 79/79/79 78/78/78 77/77/77
f 80/80/80 79/79/79 74/74/74
f 81/81/81 78/78/78 79/79/79
f 80/80/80 82/82/82 79/79/79
f 82/82/82 81/81/81 79/79/79
f 85/85/85 84/84/84 83/83/83
f 86/86/86 85/85/85 83/83/83
f 87/87/87 85/85/85 86/86/86
f 88/88/88 86/86/86 83/83/83
f 88/88/88 87/87/87 86/86/86
f 89/89/89 88/88/88 83/83/83
f 90/90/90 87/87/87 88/88/88
f 89/89/89 91/91/91 88/88/88
f 91/91/91 90/90/90 88/88/88
f 94/94/94 93/93/93 92/92/92
f 95/95/95 94/94/94 92/92/92
f 96/96/96 94/94/94 95/95/95
f 97/97/97 96/96/96 95/95/95
f 100/100/100 99/99/99 98/98/98
f 101/101/101 100/100/100 98/98/98
f 102/102/102 100/100/100 101/101/101
f 103/103/103 102/102/102 101/101/101
f 106/106/106 105/105/105 104/104/104
f 107/107/107 106/106/106 104/104/104
f 108/108/108 106/106/106 107/107/107
f 109/109/109 108/108/108 107/107/107
f 112/112/112 111/111/111 110/110/110
f 113/113/113 112/112/112 110/110/110
f 114/114/114 112/112/112 113/113/113
f 115/115/115 114/114/114 113/113/113
f 118/118/118 117/117/117 116/116/116
f 117/117/117 119/119/119 116/116/116
f 117/117/117 120/120/120 119/119/119
f 123/123/123 122/122/122 121/121/121
f 122/122/122 124/124/124 121/121/121
f 122/122/122 125/125/125 124/124/124
f 128/128/128 127/127/127 126/126/126
f 127/127/127 129/129/129 126/126/126
f 127/127/127 130/130/130 129/129/129
f 133/133/133 132/132/132 131/131/131
f 133/133/133 134/134/134 132/132/132
f 132/132/132 135/135/135 131/131/131
f 135/135/135 136/136/136 131/131/131
f 136/136/136 137/137/137 131/131/131
f 137/137/137 136/136/136 138/138/138
f 132/132/132 139/139/139 135/135/135
f 135/135/135 140/140/140 136/136/136
f 139/139/139 140/140/140 135/135/135
f 141/141/141 140/140/140 139/139/139
f 142/142/142 139/139/139 132/132/132
f 139/139/139 142/142/142 141/141/141
f 140/140/140 143/143/143 136/136/136
f 141/141/141 143/143/143 140/140/140
f 136/136/136 144/144/144 138/138/138
f 136/136/136 143/143/143 144/144/144
f 145/145/145 142/142/142 132/132/132
f 134/134/134 145/145/145 132/132/132
f 144/144/144 146/146/146 138/138/138
f 146/146/146 147/147/147 138/138/138
f 147/147/147 146/146/146 148/148/148
f 143/143/143 149/149/149 144/144/144
f 141/141/141 149/149/149 143/143/143
f 144/144/144 149/149/149 146/146/146
f 150/150/150 142/142/142 145/145/145
f 142/142/142 150/150/150 141/141/141
f 149/149/149 151/151/151 146/146/146
f 141/141/141 151/151/151 149/149/149
f 146/146/146 152/152/152 148/148/148
f 146/146/146 151/151/151 152/152/152
f 141/141/141 153/153/153 151/151/151
f 141/141/141 150/150/150 153/153/153
f 151/151/151 153/153/153 152/152/152
f 154/154/154 150/150/150 145/145/145
f 153/153/153 150/150/150 154/154/154
f 152/152/152 153/153/153 154/154/154
f 152/152/152 154/154/154 148/148/148
f 154/154/154 145/145/145 134/134/134
f 154/154/154 155/155/155 148/148/148
f 155/155/155 154/154/154 134/134/134
f 155/155/155 134/134/134 156/156/156
f 156/156/156 134/134/134 157/157/157
f 158/158/158 155/155/155 156/156/156
f 134/134/134 159/159/159 157/157/157
f 160/160/160 155/155/155 158/158/158
f 157/157/157 159/159/159 161/161/161
f 162/162/162 160/160/160 158/158/158
f 159/159/159 163/163/163 161/161/161
f 164/164/164 160/160/160 162/162/162
f 161/161/161 163/163/163 165/165/165
f 166/166/166 164/164/164 162/162/162
f 163/163/163 167/167/167 165/165/165
f 168/168/168 164/164/164 166/166/166
f 165/165/165 167/167/167 169/169/169
f 169/169/169 168/168/168 166/166/166
f 167/167/167 168/168/168 169/169/169
