g fcbg_arkcity_001_metal_01
v -1.6348934 0.3701825 -1.6936207
v -1.6294017 0.45405984 -1.6926538
v -1.6577806 0.4550128 -1.6146196
v -1.6632581 0.37114024 -1.6155865
v -0.58645916 0.13171744 -1.2467021
v -1.6294017 0.45405984 -1.6926538
v -0.5976229 -0.0389843 -1.2486683
v 1.2266743 0.0055127144 -0.58600044
v 1.2155107 -0.16519356 -0.5879713
v -0.5976229 -0.0389843 -1.2486683
v -1.6348934 0.3701825 -1.6936207
v -0.6553607 -0.037041187 -1.089852
v 1.2155107 -0.16519356 -0.5879713
v 1.1577773 -0.16324592 -0.42915034
v -1.6577806 0.4550128 -1.6146196
v -0.6553607 -0.037041187 -1.089852
v -1.6632581 0.37114024 -1.6155865
v -0.6441972 0.13366508 -1.0878811
v -1.6294017 0.45405984 -1.6926538
v 1.1577773 -0.16324592 -0.42915034
v -0.58645916 0.13171744 -1.2467021
v 1.1689364 0.007455826 -0.42717946
v 1.2266743 0.0055127144 -0.58600044
v -1.1841164 -0.18295455 2.3961368
v -1.2211788 -0.079016924 2.385283
v -1.1205907 -0.041639805 2.4147305
v -1.0835285 -0.14558673 2.4255843
v -1.1258094 -0.13823533 1.2362981
v -1.2211788 -0.079016924 2.385283
v -1.0851152 -0.24703526 1.2494278
v -1.0835285 -0.14558673 2.4255843
v -0.6688607 -0.12369895 0.10669756
v -0.97698164 -0.20780301 1.2806888
v -0.6289346 -0.23568654 0.11838865
v -0.17060733 -0.014468908 -2.4255834
v -0.52056026 -0.19542265 0.15011668
v -0.13067651 -0.12645173 -2.4138923
v -0.02230215 -0.08619237 -2.3821688
v -0.6688607 -0.12369895 0.10669756
v -0.17060733 -0.014468908 -2.4255834
v -0.062228203 0.025794983 -2.3938553
v -0.5604863 -0.08343506 0.13842583
v -0.02230215 -0.08619237 -2.3821688
v -0.52056026 -0.19542265 0.15011668
v -1.1258094 -0.13823533 1.2362981
v -0.97698164 -0.20780301 1.2806888
v -1.0177588 -0.099354744 1.2674062
v -1.2211788 -0.079016924 2.385283
v -1.0835285 -0.14558673 2.4255843
v -1.1205907 -0.041639805 2.4147305
v -1.3342121 0.25943494 -0.34580517
v -1.3378437 0.33315253 -0.35847688
v -1.3217068 0.34615278 -0.2874565
v -1.3180888 0.2724352 -0.27478456
v -0.8479686 0.22287202 -0.57951427
v -1.3378437 0.33315253 -0.35847688
v -0.84246325 0.110991 -0.5602821
v -0.33699703 0.1234591 -0.64994717
v -0.3296225 -0.02658081 -0.6241547
v 1.3424509 0.13994789 -1.034344
v 1.3498254 -0.010092258 -1.0085516
v -0.84246325 0.110991 -0.5602821
v -1.3342121 0.25943494 -0.34580517
v -0.8179939 0.130718 -0.4525
v -0.3296225 -0.02658081 -0.6241547
v -0.29679322 -0.00012230873 -0.47961092
v 1.3498254 -0.010092258 -1.0085516
v 1.38265 0.016366482 -0.86400783
v -1.4817445 -0.4407997 0.966609
v -1.4817445 -0.35121346 0.966609
v -1.4971135 -0.3512087 1.053762
v -1.4971135 -0.4407997 1.053762
v -1.0221865 -0.36183572 1.2067535
v -1.4817445 -0.35121346 0.966609
v -1.0221865 -0.45501208 1.2067535
v -1.4971135 -0.4407997 1.053762
v -0.5215411 -0.12505913 1.2138922
v -1.0381708 -0.45501208 1.2973993
v -0.5215411 -0.22182107 1.2138922
v -0.0009326935 -0.012123108 1.1077988
v -0.5381408 -0.22182584 1.3080308
v -0.0009326935 -0.112479925 1.1077988
v 1.6632574 -0.005988598 1.3950913
v -0.018142939 -0.11247516 1.2054305
v 1.6632574 -0.118609905 1.3950913
v 1.643942 -0.118609905 1.5046499
v -1.4971135 -0.3512087 1.053762
v -1.0381708 -0.45501208 1.2973993
v -1.4971135 -0.4407997 1.053762
v -1.0381708 -0.36183095 1.2973993
v -1.4817445 -0.35121346 0.966609
v -0.5381408 -0.22182584 1.3080308
v -1.0221865 -0.36183572 1.2067535
v -0.538136 -0.1250546 1.3080308
v -0.018142939 -0.11247516 1.2054305
v -0.5215411 -0.12505913 1.2138922
v -0.018142939 -0.012123108 1.2054305
v 1.643942 -0.118609905 1.5046499
v -0.0009326935 -0.012123108 1.1077988
v 1.6439373 -0.005993128 1.5046453
v 1.6632574 -0.005988598 1.3950913
v -0.33699703 0.1234591 -0.64994717
v 1.3424509 0.13994789 -1.034344
v 1.3752708 0.1664064 -0.8898002
v -0.304168 0.14992237 -0.5054033
v 1.38265 0.016366482 -0.86400783
v -0.29679322 -0.00012230873 -0.47961092
v -0.8179939 0.130718 -0.4525
v -0.82349014 0.24259925 -0.47173667
v -1.3180888 0.2724352 -0.27478456
v -0.8479686 0.22287202 -0.57951427
v -1.3217068 0.34615278 -0.2874565
v -1.3378437 0.33315253 -0.35847688
vt 0.32619587 0.95718235
vt 0.3287093 0.95718235
vt 0.3287093 0.96044827
vt 0.32619587 0.96044827
vt 0.30318388 0.95372075
vt 0.32619587 0.95372075
vt 0.30318388 0.95718235
vt 0.2868693 0.95372075
vt 0.2868693 0.95718235
vt 0.30318388 0.95718235
vt 0.32619587 0.95718235
vt 0.30318388 0.96044827
vt 0.2868693 0.95718235
vt 0.2868693 0.96044827
vt 0.32619587 0.95718235
vt 0.30318388 0.95372075
vt 0.32619587 0.95372075
vt 0.30318388 0.95718235
vt 0.32619587 0.96044827
vt 0.2868693 0.95372075
vt 0.30318388 0.96044827
vt 0.2868693 0.95718235
vt 0.2868693 0.96044827
vt 0.32619587 0.95718235
vt 0.3287093 0.95718235
vt 0.3287093 0.96044827
vt 0.32619587 0.96044827
vt 0.30270225 0.95372075
vt 0.32619587 0.95372075
vt 0.30270225 0.95718235
vt 0.32619587 0.96044827
vt 0.2875014 0.95372075
vt 0.30270225 0.96044827
vt 0.2875014 0.95718235
vt 0.26354122 0.95372075
vt 0.2875014 0.96044827
vt 0.26354122 0.95718235
vt 0.26354122 0.96044827
vt 0.2875014 0.96044827
vt 0.26354122 0.96044827
vt 0.26354122 0.95718235
vt 0.2875014 0.95718235
vt 0.26354122 0.95372075
vt 0.2875014 0.95372075
vt 0.30270225 0.96044827
vt 0.30270225 0.95372075
vt 0.30270225 0.95718235
vt 0.32619587 0.96044827
vt 0.32619587 0.95372075
vt 0.32619587 0.95718235
vt 0.32619587 0.95718235
vt 0.3287093 0.95718235
vt 0.3287093 0.96044827
vt 0.32619587 0.96044827
vt 0.32065734 0.95372075
vt 0.32619587 0.95372075
vt 0.32065734 0.95718235
vt 0.30318388 0.95372075
vt 0.30318388 0.95718235
vt 0.2868693 0.95372075
vt 0.2868693 0.95718235
vt 0.32065734 0.95718235
vt 0.32619587 0.95718235
vt 0.32065734 0.96044827
vt 0.30318388 0.95718235
vt 0.30318388 0.96044827
vt 0.2868693 0.95718235
vt 0.2868693 0.96044827
vt 0.32619587 0.95718235
vt 0.3287093 0.95718235
vt 0.3287093 0.96044827
vt 0.32619587 0.96044827
vt 0.32256874 0.95372075
vt 0.32619587 0.95372075
vt 0.32256874 0.95718235
vt 0.32619587 0.96044827
vt 0.31529942 0.95372075
vt 0.32256874 0.96044827
vt 0.31529942 0.95718235
vt 0.30318388 0.95372075
vt 0.31529942 0.96044827
vt 0.30318388 0.95718235
vt 0.2868693 0.95372075
vt 0.30318388 0.96044827
vt 0.2868693 0.95718235
vt 0.2868693 0.96044827
vt 0.32619587 0.95718235
vt 0.32256874 0.95372075
vt 0.32619587 0.95372075
vt 0.32256874 0.95718235
vt 0.32619587 0.96044827
vt 0.31529942 0.95372075
vt 0.32256874 0.96044827
vt 0.31529942 0.95718235
vt 0.30318388 0.95372075
vt 0.31529942 0.96044827
vt 0.30318388 0.95718235
vt 0.2868693 0.95372075
vt 0.30318388 0.96044827
vt 0.2868693 0.95718235
vt 0.2868693 0.96044827
vt 0.30318388 0.96044827
vt 0.2868693 0.96044827
vt 0.2868693 0.95718235
vt 0.30318388 0.95718235
vt 0.2868693 0.95372075
vt 0.30318388 0.95372075
vt 0.32065734 0.95372075
vt 0.32065734 0.95718235
vt 0.32619587 0.95372075
vt 0.32065734 0.96044827
vt 0.32619587 0.95718235
vt 0.32619587 0.96044827
vn -0.4115711 -0.44704658 -0.79420316
vn -0.23405093 0.6615483 -0.7124423
vn -0.64886826 0.6905312 0.31958818
vn -0.8571827 -0.43436658 0.27670118
vn 0.38002366 0.6669826 -0.64087147
vn -0.23405093 0.6615483 -0.7124423
vn 0.095629275 -0.7350639 -0.6712198
vn 0.28764075 0.69777685 -0.6560261
vn 0.19525784 -0.7133267 -0.673082
vn 0.095629275 -0.7350639 -0.6712198
vn -0.4115711 -0.44704658 -0.79420316
vn -0.40975958 -0.6952124 0.5905732
vn 0.19525784 -0.7133267 -0.673082
vn -0.2883938 -0.69702387 0.65649575
vn -0.64886826 0.6905312 0.31958818
vn -0.40975958 -0.6952124 0.5905732
vn -0.8571827 -0.43436658 0.27670118
vn -0.1941995 0.67241687 0.71424234
vn -0.23405093 0.6615483 -0.7124423
vn -0.2883938 -0.69702387 0.65649575
vn 0.38002366 0.6669826 -0.64087147
vn -0.19601089 0.7140798 0.6720638
vn 0.28764075 0.69777685 -0.6560261
vn -0.43874246 -0.73325247 0.51946694
vn -0.8281998 0.37171954 0.41941586
vn 0.24235505 0.74849695 0.6172652
vn 0.6155095 -0.31662363 0.7217323
vn -0.8952227 0.38621098 -0.22230013
vn -0.8281998 0.37171954 0.41941586
vn -0.45866817 -0.8836011 -0.094194315
vn 0.6155095 -0.31662363 0.7217323
vn -0.86805123 0.43330818 -0.24234499
vn 0.8600525 -0.4597266 0.22127153
vn -0.360851 -0.92345256 -0.1304682
vn -0.89341134 0.42062813 -0.15775986
vn 0.8763554 -0.41081798 0.2514553
vn -0.44598824 -0.88722396 -0.118017435
vn 0.89265823 -0.41987514 0.16390902
vn -0.86805123 0.43330818 -0.24234499
vn -0.89341134 0.42062813 -0.15775986
vn 0.36553228 0.9242056 0.11059004
vn 0.43255514 0.88797706 0.15618189
vn 0.89265823 -0.41987514 0.16390902
vn 0.8763554 -0.41081798 0.2514553
vn -0.8952227 0.38621098 -0.22230013
vn 0.8600525 -0.4597266 0.22127153
vn 0.3619094 0.9296399 0.06921936
vn -0.8281998 0.37171954 0.41941586
vn 0.6155095 -0.31662363 0.7217323
vn 0.24235505 0.74849695 0.6172652
vn -0.76842266 -0.5901495 -0.24748762
vn -0.70139974 0.5456168 -0.45862916
vn -0.37171954 0.7140798 0.5932239
vn -0.4043253 -0.37640083 0.8335727
vn -0.13985664 0.53655964 -0.8321922
vn -0.70139974 0.5456168 -0.45862916
vn -0.34817106 -0.7640468 -0.5431477
vn -0.10000509 0.5456168 -0.83204645
vn -0.19963378 -0.84193826 -0.50128466
vn -0.18876523 0.5709768 -0.7989701
vn -0.11993092 -0.82020104 -0.5593629
vn -0.34817106 -0.7640468 -0.5431477
vn -0.76842266 -0.5901495 -0.24748762
vn -0.009433687 -0.58109236 0.81378293
vn -0.19963378 -0.84193826 -0.50128466
vn 0.050343513 -0.5829038 0.8109801
vn -0.11993092 -0.82020104 -0.5593629
vn 0.18801218 -0.5720352 0.7983903
vn -0.36990815 -0.55573237 -0.74453306
vn -0.360851 0.5691654 -0.73880804
vn -0.7158912 0.60358256 0.35098138
vn -0.7303826 -0.58471525 0.3530571
vn 0.015926361 0.6941541 -0.7196502
vn -0.360851 0.5691654 -0.73880804
vn 0.31843507 -0.7785382 -0.5408117
vn -0.7303826 -0.58471525 0.3530571
vn -0.29745096 0.6887198 -0.6612019
vn -0.049285114 -0.7006467 0.7118042
vn 0.16808641 -0.69883525 -0.69525266
vn -0.06739944 0.68147403 -0.7287321
vn 0.26046932 -0.5919609 0.7627175
vn 0.039474905 -0.64630383 -0.7620585
vn 0.11736637 0.706834 -0.6975749
vn 0.09744066 -0.7133267 0.69402474
vn 0.11736637 -0.7078924 -0.69650084
vn -0.12717658 -0.7078924 0.69477654
vn -0.7158912 0.60358256 0.35098138
vn -0.049285114 -0.7006467 0.7118042
vn -0.7303826 -0.58471525 0.3530571
vn -0.3119424 0.58003396 0.75249755
vn -0.360851 0.5691654 -0.73880804
vn 0.26046932 -0.5919609 0.7627175
vn 0.015926361 0.6941541 -0.7196502
vn -0.17246228 0.69958836 0.6934211
vn 0.09744066 -0.7133267 0.69402474
vn -0.29745096 0.6887198 -0.6612019
vn -0.10000509 0.77204555 0.62765014
vn -0.12717658 -0.7078924 0.69477654
vn -0.06739944 0.68147403 -0.7287321
vn -0.12717658 0.706834 0.6958533
vn 0.11736637 0.706834 -0.6975749
vn -0.10000509 0.5456168 -0.83204645
vn -0.18876523 0.5709768 -0.7989701
vn 0.11917782 0.82095414 0.5584183
vn 0.1481607 0.786537 0.59950644
vn 0.18801218 -0.5720352 0.7983903
vn 0.050343513 -0.5829038 0.8109801
vn -0.009433687 -0.58109236 0.81378293
vn 0.27314937 0.8336341 0.48004547
vn -0.4043253 -0.37640083 0.8335727
vn -0.13985664 0.53655964 -0.8321922
vn -0.37171954 0.7140798 0.5932239
vn -0.70139974 0.5456168 -0.45862916
g fcbg_arkcity_001_metal_01_0
f 3/3/3 2/2/2 1/1/1
f 4/4/4 3/3/3 1/1/1
f 6/6/6 5/5/5 1/1/1
f 5/5/5 7/7/7 1/1/1
f 5/5/5 8/8/8 7/7/7
f 8/8/8 9/9/9 7/7/7
f 11/11/11 10/10/10 4/4/4
f 10/10/10 12/12/12 4/4/4
f 10/10/10 13/13/13 12/12/12
f 13/13/13 14/14/14 12/12/12
f 17/17/17 16/16/16 15/15/15
f 16/16/16 18/18/18 15/15/15
f 15/15/15 18/18/18 19/19/19
f 16/16/16 20/20/20 18/18/18
f 18/18/18 21/21/21 19/19/19
f 20/20/20 22/22/22 18/18/18
f 18/18/18 22/22/22 21/21/21
f 22/22/22 23/23/23 21/21/21
f 26/26/26 25/25/25 24/24/24
f 27/27/27 26/26/26 24/24/24
f 29/29/29 28/28/28 24/24/24
f 28/28/28 30/30/30 24/24/24
f 24/24/24 30/30/30 31/31/31
f 28/28/28 32/32/32 30/30/30
f 30/30/30 33/33/33 31/31/31
f 32/32/32 34/34/34 30/30/30
f 30/30/30 34/34/34 33/33/33
f 32/32/32 35/35/35 34/34/34
f 34/34/34 36/36/36 33/33/33
f 35/35/35 37/37/37 34/34/34
f 34/34/34 37/37/37 36/36/36
f 37/37/37 38/38/38 36/36/36
f 41/41/41 40/40/40 39/39/39
f 42/42/42 41/41/41 39/39/39
f 43/43/43 41/41/41 42/42/42
f 44/44/44 43/43/43 42/42/42
f 42/42/42 39/39/39 45/45/45
f 46/46/46 44/44/44 42/42/42
f 47/47/47 42/42/42 45/45/45
f 47/47/47 46/46/46 42/42/42
f 47/47/47 45/45/45 48/48/48
f 49/49/49 46/46/46 47/47/47
f 50/50/50 47/47/47 48/48/48
f 50/50/50 49/49/49 47/47/47
f 53/53/53 52/52/52 51/51/51
f 54/54/54 53/53/53 51/51/51
f 56/56/56 55/55/55 51/51/51
f 55/55/55 57/57/57 51/51/51
f 55/55/55 58/58/58 57/57/57
f 58/58/58 59/59/59 57/57/57
f 58/58/58 60/60/60 59/59/59
f 60/60/60 61/61/61 59/59/59
f 63/63/63 62/62/62 54/54/54
f 62/62/62 64/64/64 54/54/54
f 62/62/62 65/65/65 64/64/64
f 65/65/65 66/66/66 64/64/64
f 65/65/65 67/67/67 66/66/66
f 67/67/67 68/68/68 66/66/66
f 71/71/71 70/70/70 69/69/69
f 72/72/72 71/71/71 69/69/69
f 74/74/74 73/73/73 69/69/69
f 73/73/73 75/75/75 69/69/69
f 69/69/69 75/75/75 76/76/76
f 73/73/73 77/77/77 75/75/75
f 75/75/75 78/78/78 76/76/76
f 77/77/77 79/79/79 75/75/75
f 75/75/75 79/79/79 78/78/78
f 79/79/79 77/77/77 80/80/80
f 79/79/79 81/81/81 78/78/78
f 82/82/82 79/79/79 80/80/80
f 81/81/81 79/79/79 82/82/82
f 80/80/80 83/83/83 82/82/82
f 84/84/84 81/81/81 82/82/82
f 83/83/83 85/85/85 82/82/82
f 82/82/82 85/85/85 84/84/84
f 85/85/85 86/86/86 84/84/84
f 89/89/89 88/88/88 87/87/87
f 88/88/88 90/90/90 87/87/87
f 87/87/87 90/90/90 91/91/91
f 88/88/88 92/92/92 90/90/90
f 90/90/90 93/93/93 91/91/91
f 92/92/92 94/94/94 90/90/90
f 90/90/90 94/94/94 93/93/93
f 94/94/94 92/92/92 95/95/95
f 94/94/94 96/96/96 93/93/93
f 97/97/97 94/94/94 95/95/95
f 96/96/96 94/94/94 97/97/97
f 95/95/95 98/98/98 97/97/97
f 99/99/99 96/96/96 97/97/97
f 98/98/98 100/100/100 97/97/97
f 97/97/97 100/100/100 99/99/99
f 100/100/100 101/101/101 99/99/99
f 104/104/104 103/103/103 102/102/102
f 105/105/105 104/104/104 102/102/102
f 106/106/106 104/104/104 105/105/105
f 107/107/107 106/106/106 105/105/105
f 108/108/108 107/107/107 105/105/105
f 109/109/109 105/105/105 102/102/102
f 109/109/109 108/108/108 105/105/105
f 110/110/110 108/108/108 109/109/109
f 111/111/111 109/109/109 102/102/102
f 112/112/112 110/110/110 109/109/109
f 112/112/112 109/109/109 111/111/111
f 113/113/113 112/112/112 111/111/111
