g fcbg_cityforest_005_substation_04
v 4.663432 8.606114E-17 -1.4054852
v 4.663432 -8.6061115E-17 1.4054847
v 4.663432 2.1001015 1.4054847
v 4.663432 2.1001015 -1.4054852
v 4.663432 2.755639 0.106719635
v -4.663432 2.1001015 -1.4054847
v -4.663432 8.6061115E-17 -1.4054847
v 4.663432 2.755639 -0.10672004
v 4.663432 2.8553703 0.06336138
v 4.663432 2.8553703 -0.058487825
v -4.663432 -8.606114E-17 1.4054852
v -4.663432 8.6061115E-17 -1.4054847
v -4.663432 2.1001015 -1.4054847
v -4.663432 2.1001015 1.4054852
v -4.663432 2.755639 -0.106719635
v -4.663432 2.755639 0.10672004
v -4.663432 2.8553703 -0.058487404
v -4.663432 2.8553703 0.063361764
v -4.663432 -8.606114E-17 1.4054852
v -4.663432 2.1001015 1.4054852
v 4.663432 2.1001015 1.4054847
v 4.663432 -8.6061115E-17 1.4054847
v 4.663432 2.755639 -0.10672004
v -4.663432 2.1001015 -1.4054847
v 4.663432 2.1001015 -1.4054852
v -4.663432 2.755639 -0.106719635
v -4.663432 2.8553703 -0.058487404
v 4.663432 2.8553703 -0.058487825
v -4.663432 2.8553703 0.063361764
v 4.663432 2.8553703 0.06336138
v -4.663432 2.755639 0.10672004
v 4.663432 2.755639 0.106719635
v 4.663432 2.1001015 1.4054847
v -4.663432 2.1001015 1.4054852
vt 0.3688798 0.33863318
vt 0.3688798 0.27510548
vt 0.32192117 0.27510548
vt 0.32192117 0.33863318
vt 0.3072632 0.30339003
vt 0.3219212 0.5434693
vt 0.3688798 0.5434693
vt 0.3072632 0.31034863
vt 0.3072632 0.3048847
vt 0.3072632 0.30763853
vt 0.3688798 0.33863318
vt 0.3688798 0.27510548
vt 0.32192117 0.27510548
vt 0.32192117 0.33863318
vt 0.3072632 0.30339003
vt 0.3072632 0.31034863
vt 0.3072632 0.30499482
vt 0.3072632 0.30774868
vt 0.3688798 0.5434693
vt 0.32192117 0.5434693
vt 0.3219212 0.33863318
vt 0.3688798 0.33863318
vt 0.2678745 0.32173866
vt 0.3051729 0.5429378
vt 0.3051729 0.32173866
vt 0.2678745 0.5429378
vt 0.26502934 0.5429378
vt 0.26502934 0.32173866
vt 0.261398 0.5429378
vt 0.261398 0.32173866
vt 0.25869823 0.5429378
vt 0.25869823 0.32173866
vt 0.22139975 0.32173866
vt 0.22139975 0.5429378
vn 0.7071067 0 -0.7071068
vn 0.70710677 0 0.70710677
vn 0.60599387 0.41692194 0.6774567
vn 0.6059938 0.4169219 -0.6774567
vn 0.7921397 0.4190285 0.44376776
vn -0.60599387 0.41692194 -0.6774567
vn -0.70710677 0 -0.70710677
vn 0.78689414 0.43262866 -0.44003424
vn 0.60203606 0.66773725 0.4378123
vn 0.60480905 0.6746578 -0.42313462
vn -0.7071067 0 0.7071068
vn -0.70710677 0 -0.70710677
vn -0.60599387 0.41692194 -0.6774567
vn -0.6059938 0.4169219 0.6774567
vn -0.78689414 0.4326286 -0.4400343
vn -0.7921397 0.41902852 0.4437677
vn -0.6048091 0.6746578 -0.42313462
vn -0.60203606 0.66773725 0.43781233
vn -0.7071067 0 0.7071068
vn -0.6059938 0.4169219 0.6774567
vn 0.60599387 0.41692194 0.6774567
vn 0.70710677 0 0.70710677
vn 0.78689414 0.43262866 -0.44003424
vn -0.60599387 0.41692194 -0.6774567
vn 0.6059938 0.4169219 -0.6774567
vn -0.78689414 0.4326286 -0.4400343
vn -0.6048091 0.6746578 -0.42313462
vn 0.60480905 0.6746578 -0.42313462
vn -0.60203606 0.66773725 0.43781233
vn 0.60203606 0.66773725 0.4378123
vn -0.7921397 0.41902852 0.4437677
vn 0.7921397 0.4190285 0.44376776
vn 0.60599387 0.41692194 0.6774567
vn -0.6059938 0.4169219 0.6774567
g fcbg_cityforest_005_substation_04_0
f 3/3/3 2/2/2 1/1/1
f 4/4/4 3/3/3 1/1/1
f 5/5/5 3/3/3 4/4/4
f 6/6/6 4/4/4 1/1/1
f 7/7/7 6/6/6 1/1/1
f 8/8/8 5/5/5 4/4/4
f 9/9/9 5/5/5 8/8/8
f 10/10/10 9/9/9 8/8/8
f 13/13/13 12/12/12 11/11/11
f 14/14/14 13/13/13 11/11/11
f 15/15/15 13/13/13 14/14/14
f 16/16/16 15/15/15 14/14/14
f 17/17/17 15/15/15 16/16/16
f 18/18/18 17/17/17 16/16/16
f 21/21/21 20/20/20 19/19/19
f 22/22/22 21/21/21 19/19/19
f 25/25/25 24/24/24 23/23/23
f 24/24/24 26/26/26 23/23/23
f 26/26/26 27/27/27 23/23/23
f 27/27/27 28/28/28 23/23/23
f 28/28/28 27/27/27 29/29/29
f 30/30/30 28/28/28 29/29/29
f 30/30/30 29/29/29 31/31/31
f 32/32/32 30/30/30 31/31/31
f 33/33/33 32/32/32 31/31/31
f 34/34/34 33/33/33 31/31/31
