g fcbg_desert_005_cargo_01
v 0.5105319 0.059455264 0.14977393
v 0.40671444 0.014503485 0.14977391
v 0.39119148 0.059455235 0.34579122
v 0.5105319 0.059455317 -0.16140029
v 0.40671444 0.014503535 -0.1614003
v 0.39119148 0.059455346 -0.34871912
v 0.49885082 0.09100896 0.35362297
v 0.5318394 0.19089966 0.39780498
v 0.4654727 0.09441722 -0.311257
v 0.39119148 0.059455235 0.34579122
v 0.55282354 0.19430783 0.15172778
v 0.55282354 0.1943079 -0.16346999
v 0.50763464 0.19588092 -0.37420166
v 0.39119148 0.059455346 -0.34871912
v 0.39688444 0.19430792 -0.40201604
v -0.20524693 0.02173661 -0.38713884
v -0.2114892 0.19430794 -0.446369
v -0.3504424 0.04373093 -0.3723086
v -0.35586548 0.19430794 -0.42920953
v -0.50919056 0.19481845 -0.38572592
v -0.47218943 0.094927765 -0.34375453
v -0.48533678 0.059455317 -0.16140029
v -0.5330558 0.1943079 -0.16346999
v -0.3504424 0.04373093 -0.3723086
v -0.36522865 -0.0064642 -0.17231743
v -0.55282354 0.19430783 0.15172778
v -0.36522865 -0.006464254 0.15990736
v -0.5051036 0.059455264 0.14977393
v -0.3504424 0.04373081 0.36918736
v -0.4567685 0.07516035 0.30779368
v -0.49526596 0.19374485 0.37989765
v -0.3504424 0.04373081 0.36918736
v -0.35586548 0.19430779 0.42917377
v -0.12041521 0.021736484 0.38403141
v -0.1132822 0.19430779 0.446369
v -0.3504424 0.3448848 0.3691874
v -0.49526596 0.19374485 0.37989765
v 0.39688444 0.1943078 0.40197754
v -0.12041521 0.36687914 0.38403147
v 0.39119148 0.3291604 0.34579128
v -0.45826435 0.29363555 0.33571577
v -0.5051036 0.32916042 0.14977397
v -0.55282354 0.19430783 0.15172778
v -0.36522865 0.39507994 0.15990742
v -0.48533678 0.32916048 -0.16140024
v -0.5330558 0.1943079 -0.16346999
v -0.50919056 0.19481845 -0.38572592
v -0.14362383 0.42440113 0.16623536
v -0.36522865 0.39508 -0.17231737
v -0.47218943 0.29471192 -0.34375453
v -0.3504424 0.34488493 -0.37230855
v -0.35586548 0.19430794 -0.42920953
v -0.18163538 0.4244012 -0.17928544
v -0.20524693 0.36687925 -0.38713878
v -0.2114892 0.19430794 -0.446369
v 0.40671444 0.3741122 0.14977397
v 0.39119148 0.3291605 -0.34871906
v 0.39688444 0.19430792 -0.40201604
v 0.50763464 0.19588092 -0.37420166
v 0.40671444 0.37411225 -0.16140024
v 0.5105319 0.32916048 -0.16140024
v 0.4746456 0.2957716 -0.33223027
v 0.55282354 0.1943079 -0.16346999
v 0.5105319 0.32916042 0.14977397
v 0.55282354 0.19430783 0.15172778
v 0.49885082 0.29079035 0.35362303
vt 0.93360823 0.3464384
vt 0.9284323 0.34567538
vt 0.9270486 0.35409817
vt 0.9343436 0.3327716
vt 0.9293874 0.3325528
vt 0.9297561 0.32437962
vt 0.9319452 0.35540488
vt 0.9351066 0.36016482
vt 0.93358076 0.3256918
vt 0.9270486 0.35409817
vt 0.939664 0.3479958
vt 0.9407056 0.33216313
vt 0.9373814 0.32164702
vt 0.9297561 0.32437962
vt 0.93208736 0.31830627
vt 0.90288335 0.32063806
vt 0.9026459 0.31226006
vt 0.89646274 0.32069993
vt 0.8945991 0.3139837
vt 0.8866087 0.31781435
vt 0.8904189 0.32147175
vt 0.8894231 0.32963693
vt 0.88308513 0.3283827
vt 0.89646274 0.32069993
vt 0.89556795 0.32965866
vt 0.8818944 0.34400716
vt 0.89487535 0.34363878
vt 0.88811713 0.34326804
vt 0.8947058 0.35303423
vt 0.8898806 0.35041687
vt 0.8855653 0.35547686
vt 0.8947058 0.35303423
vt 0.89241385 0.36023265
vt 0.90486425 0.35298693
vt 0.90471745 0.36023185
vt 0.8947208 0.36742452
vt 0.8854904 0.3649094
vt 0.9278554 0.36025724
vt 0.9048513 0.36748043
vt 0.9269808 0.3664064
vt 0.88941324 0.36854866
vt 0.8880832 0.37714025
vt 0.88186747 0.37638167
vt 0.8948238 0.37678197
vt 0.88934076 0.39078256
vt 0.8829984 0.3920097
vt 0.8865144 0.40258303
vt 0.9044684 0.37645307
vt 0.89548665 0.3907781
vt 0.8903363 0.39893577
vt 0.8963558 0.39974567
vt 0.8944862 0.40646335
vt 0.9035961 0.390637
vt 0.9027792 0.39982793
vt 0.90252703 0.40820482
vt 0.9283424 0.37480614
vt 0.92964035 0.39621148
vt 0.93200374 0.402191
vt 0.93746376 0.3988438
vt 0.929355 0.38791242
vt 0.93442976 0.38763306
vt 0.93357694 0.39539477
vt 0.94058055 0.38828108
vt 0.9334938 0.3740224
vt 0.9396417 0.3723887
vt 0.9319455 0.36493397
vn 0.7349789 -0.67589396 0.05452931
vn 0.13672408 -0.9871568 0.08263139
vn 0.12596838 -0.8145551 0.5662437
vn 0.77254796 -0.62821823 -0.09225759
vn 0.13571976 -0.9857108 -0.09977072
vn 0.12411476 -0.77237755 -0.62291926
vn 0.54789674 -0.76509345 0.33829147
vn 0.8098556 -0.0064224107 0.5865941
vn 0.67668533 -0.6024485 -0.42326435
vn 0.12596838 -0.8145551 0.5662437
vn 0.9997098 0.0007510206 0.024078853
vn 0.9964539 -0.03811424 -0.07501403
vn 0.8012239 -0.16886152 -0.57404363
vn 0.12411476 -0.77237755 -0.62291926
vn 0.10521421 -0.015322877 -0.9943315
vn 0.03226104 -0.7684969 -0.63903975
vn 0.034977496 0 -0.9993881
vn -0.263387 -0.79442084 -0.5472869
vn -0.18171658 -0.00024437893 -0.98335093
vn -0.7908644 0.00084638613 -0.6119908
vn -0.5939297 -0.73481035 -0.32756883
vn -0.71143186 -0.6976219 -0.084784605
vn -0.9972319 -0.00012665968 -0.07435371
vn -0.263387 -0.79442084 -0.5472869
vn -0.27837455 -0.9568016 -0.08389502
vn -0.9998056 0.00014156065 0.019715674
vn -0.2519101 -0.9629634 0.09613932
vn -0.7313305 -0.6807854 0.041072037
vn -0.19032964 -0.7793318 0.5970064
vn -0.5570317 -0.7626749 0.32869843
vn -0.76944715 -0.024129415 0.6382545
vn -0.19032964 -0.7793318 0.5970064
vn -0.1393257 0.00020116543 0.99024653
vn 0.03663674 -0.79756224 0.60212314
vn 0.037898153 0 0.9992816
vn -0.20382391 0.7866436 0.5827929
vn -0.76944715 -0.024129415 0.6382545
vn 0.08810767 0.00064224063 0.99611074
vn 0.03663678 0.7975617 0.60212386
vn 0.12987864 0.8138157 0.5664235
vn -0.57004726 0.74248064 0.35180768
vn -0.726985 0.68472236 0.05145811
vn -0.9998056 0.00014156065 0.019715674
vn -0.26078248 0.9599069 0.10281662
vn -0.7112595 0.6978812 -0.084093235
vn -0.9972319 -0.00012665968 -0.07435371
vn -0.7908644 0.00084638613 -0.6119908
vn 0.028227279 0.9953353 0.09225461
vn -0.27779922 0.9570027 -0.08350755
vn -0.592195 0.73678064 -0.32628122
vn -0.2621618 0.7947853 -0.5473458
vn -0.18171658 -0.00024437893 -0.98335093
vn 0.02532153 0.994193 -0.10458971
vn 0.032261007 0.76849735 -0.6390391
vn 0.034977496 0 -0.9993881
vn 0.13855098 0.9868085 0.08374154
vn 0.116956376 0.7822524 -0.6118842
vn 0.10521421 -0.015322877 -0.9943315
vn 0.8012239 -0.16886152 -0.57404363
vn 0.13453051 0.98595804 -0.09893614
vn 0.7532367 0.65403366 -0.06981799
vn 0.5705682 0.7348951 -0.3665803
vn 0.9964539 -0.03811424 -0.07501403
vn 0.7362127 0.67413145 0.05947947
vn 0.9997098 0.0007510206 0.024078853
vn 0.5604259 0.7518966 0.34723827
g fcbg_desert_005_cargo_01_0
f 3/3/3 2/2/2 1/1/1
f 1/1/1 2/2/2 4/4/4
f 2/2/2 5/5/5 4/4/4
f 4/4/4 5/5/5 6/6/6
f 7/7/7 3/3/3 1/1/1
f 7/7/7 1/1/1 8/8/8
f 9/9/9 4/4/4 6/6/6
f 7/7/7 8/8/8 10/10/10
f 1/1/1 4/4/4 11/11/11
f 1/1/1 11/11/11 8/8/8
f 4/4/4 12/12/12 11/11/11
f 13/13/13 12/12/12 4/4/4
f 9/9/9 13/13/13 4/4/4
f 9/9/9 14/14/14 13/13/13
f 14/14/14 15/15/15 13/13/13
f 15/15/15 14/14/14 16/16/16
f 17/17/17 15/15/15 16/16/16
f 17/17/17 16/16/16 18/18/18
f 19/19/19 17/17/17 18/18/18
f 20/20/20 19/19/19 18/18/18
f 21/21/21 20/20/20 18/18/18
f 21/21/21 22/22/22 20/20/20
f 22/22/22 23/23/23 20/20/20
f 21/21/21 24/24/24 22/22/22
f 24/24/24 25/25/25 22/22/22
f 26/26/26 23/23/23 22/22/22
f 22/22/22 25/25/25 27/27/27
f 28/28/28 26/26/26 22/22/22
f 28/28/28 22/22/22 27/27/27
f 28/28/28 27/27/27 29/29/29
f 30/30/30 28/28/28 29/29/29
f 31/31/31 26/26/26 28/28/28
f 30/30/30 31/31/31 28/28/28
f 30/30/30 32/32/32 31/31/31
f 32/32/32 33/33/33 31/31/31
f 32/32/32 34/34/34 33/33/33
f 34/34/34 35/35/35 33/33/33
f 34/34/34 10/10/10 35/35/35
f 33/33/33 35/35/35 36/36/36
f 37/37/37 33/33/33 36/36/36
f 10/10/10 38/38/38 35/35/35
f 8/8/8 38/38/38 10/10/10
f 35/35/35 38/38/38 39/39/39
f 35/35/35 39/39/39 36/36/36
f 40/40/40 38/38/38 8/8/8
f 38/38/38 40/40/40 39/39/39
f 41/41/41 37/37/37 36/36/36
f 41/41/41 42/42/42 37/37/37
f 41/41/41 36/36/36 42/42/42
f 42/42/42 43/43/43 37/37/37
f 36/36/36 39/39/39 44/44/44
f 36/36/36 44/44/44 42/42/42
f 42/42/42 45/45/45 43/43/43
f 45/45/45 46/46/46 43/43/43
f 47/47/47 46/46/46 45/45/45
f 39/39/39 48/48/48 44/44/44
f 39/39/39 40/40/40 48/48/48
f 44/44/44 49/49/49 42/42/42
f 49/49/49 45/45/45 42/42/42
f 44/44/44 48/48/48 49/49/49
f 50/50/50 47/47/47 45/45/45
f 50/50/50 45/45/45 51/51/51
f 50/50/50 51/51/51 47/47/47
f 45/45/45 49/49/49 51/51/51
f 51/51/51 52/52/52 47/47/47
f 48/48/48 53/53/53 49/49/49
f 49/49/49 53/53/53 51/51/51
f 51/51/51 54/54/54 52/52/52
f 53/53/53 54/54/54 51/51/51
f 54/54/54 55/55/55 52/52/52
f 48/48/48 56/56/56 53/53/53
f 40/40/40 56/56/56 48/48/48
f 54/54/54 57/57/57 55/55/55
f 57/57/57 58/58/58 55/55/55
f 59/59/59 58/58/58 57/57/57
f 53/53/53 60/60/60 54/54/54
f 56/56/56 60/60/60 53/53/53
f 60/60/60 57/57/57 54/54/54
f 61/61/61 60/60/60 56/56/56
f 57/57/57 60/60/60 61/61/61
f 62/62/62 59/59/59 57/57/57
f 62/62/62 57/57/57 61/61/61
f 62/62/62 61/61/61 59/59/59
f 61/61/61 63/63/63 59/59/59
f 64/64/64 61/61/61 56/56/56
f 63/63/63 61/61/61 64/64/64
f 64/64/64 56/56/56 40/40/40
f 65/65/65 63/63/63 64/64/64
f 8/8/8 65/65/65 64/64/64
f 66/66/66 64/64/64 40/40/40
f 66/66/66 8/8/8 64/64/64
f 66/66/66 40/40/40 8/8/8
