g fcbg_arkcity_001_sandbag_04
v -0.2259962 0.43865174 -0.0049718916
v -0.2232824 0.38493872 -0.0049718916
v -0.18677205 0.38965923 0.09833062
v -0.18948734 0.44337225 0.09833062
v -0.27162588 0.4327523 -0.0049718916
v -0.09118813 0.40201712 0.16217604
v -0.22640109 0.43859965 0.12298766
v -0.28649664 0.25467628 -0.0041762292
v -0.09390265 0.45573014 0.16217604
v 0.026959836 0.41729206 0.16217604
v -0.23541701 0.26478857 0.14194024
v -0.24365586 0.07562667 -0.0041762292
v -0.10800305 0.4539066 0.20207152
v 0.024246037 0.47100508 0.16217604
v 0.1225445 0.42964923 0.09833062
v -0.19655389 0.07562667 0.12982422
v -0.28054357 0.00010955334 -0.0041762292
v -0.08463812 0.00010955334 0.22092289
v -0.104041785 0.28635967 0.24059969
v 0.038345665 0.4728279 0.20207077
v 0.11982997 0.48336297 0.09833062
v 0.15905407 0.43436968 -0.0049718916
v -0.07323888 0.07562667 0.21264085
v 0.067653224 0.32034975 0.24059969
v 0.079187185 0.07562667 0.21264085
v 0.090586424 0.00010955334 0.22092289
v 0.1567437 0.48813558 0.12298766
v 0.15633954 0.4880827 -0.0049718916
v 0.1225445 0.42964923 -0.10827516
v 0.1973381 0.3504604 0.14194024
v 0.20250145 0.07562667 0.12982422
v 0.28649187 0.00010955334 -0.0041769743
v 0.20196852 0.4939822 -0.0049718916
v 0.11982997 0.48336297 -0.10827516
v 0.026959836 0.41729206 -0.17211986
v 0.24841774 0.36057276 -0.0041769743
v 0.24960344 0.07562667 -0.0041769743
v 0.1567437 0.48813558 -0.1329322
v 0.024245292 0.47100508 -0.17211986
v -0.09118813 0.40201712 -0.17211986
v 0.20250145 0.07562667 -0.13817742
v 0.09058568 0.00010955334 -0.23157157
v 0.1973381 0.3504604 -0.15029344
v 0.038345665 0.4728279 -0.21201533
v -0.09390265 0.45573014 -0.17211986
v -0.1867728 0.38965923 -0.10827516
v 0.06360933 0.32398647 -0.24059866
v 0.079187185 0.07562667 -0.22099406
v -0.10800305 0.4539066 -0.21201533
v -0.18948734 0.44337225 -0.10827516
v -0.2232824 0.38493872 -0.0049718916
v -0.2259962 0.43865174 -0.0049718916
v -0.22640109 0.43859965 -0.1329322
v -0.27162588 0.4327523 -0.0049718916
v -0.101688236 0.2912625 -0.24059866
v -0.07323888 0.07562667 -0.22099406
v -0.08463812 0.00010955334 -0.23157082
v -0.23541701 0.26478857 -0.15029344
v -0.28649664 0.25467628 -0.0041762292
v -0.19655389 0.07562667 -0.13817742
v -0.28054357 0.00010955334 -0.0041762292
v -0.24365586 0.07562667 -0.0041762292
v -0.035562217 0.47752607 0.00462237
v -0.09118813 0.40201712 -0.17211986
v 0.026959836 0.41729206 -0.17211986
v 0.1225445 0.42964923 -0.10827516
v -0.1867728 0.38965923 -0.10827516
v 0.15905407 0.43436968 -0.0049718916
v -0.2232824 0.38493872 -0.0049718916
v 0.1225445 0.42964923 0.09833062
v -0.18677205 0.38965923 0.09833062
v 0.026959836 0.41729206 0.16217604
v -0.09118813 0.40201712 0.16217604
vt 0.8036501 0.9698689
vt 0.8036501 0.96718156
vt 0.79751635 0.96718156
vt 0.79751635 0.9698689
vt 0.8047129 0.97161484
vt 0.7908512 0.96718156
vt 0.7981388 0.97161484
vt 0.8047129 0.9811799
vt 0.7908512 0.9698689
vt 0.78338134 0.96718156
vt 0.7981388 0.9813317
vt 0.8047129 0.98981875
vt 0.79098785 0.97161484
vt 0.78338134 0.9698689
vt 0.7773691 0.96718156
vt 0.7981388 0.98981875
vt 0.8047129 0.99361444
vt 0.79098785 0.99361444
vt 0.79098785 0.98083067
vt 0.7830777 0.97161484
vt 0.7773691 0.9698689
vt 0.77146304 0.96718156
vt 0.79098785 0.98981875
vt 0.7830777 0.98043597
vt 0.7830777 0.98981875
vt 0.7830777 0.99361444
vt 0.77667063 0.97161484
vt 0.77146304 0.9698689
vt 0.7773691 0.96718156
vt 0.77667063 0.98008674
vt 0.77667063 0.98981875
vt 0.7704003 0.99361444
vt 0.7704003 0.97161484
vt 0.7773691 0.9698689
vt 0.78338134 0.96718156
vt 0.7704003 0.9796161
vt 0.7704003 0.98981875
vt 0.77667063 0.97161484
vt 0.78338134 0.9698689
vt 0.7908512 0.96718156
vt 0.77667063 0.98981875
vt 0.7830777 0.99361444
vt 0.77667063 0.98008674
vt 0.7830777 0.97161484
vt 0.7908512 0.9698689
vt 0.79751635 0.96718156
vt 0.7830777 0.98043597
vt 0.7830777 0.98981875
vt 0.79098785 0.97161484
vt 0.79751635 0.9698689
vt 0.8036501 0.96718156
vt 0.8036501 0.9698689
vt 0.7981388 0.97161484
vt 0.8047129 0.97161484
vt 0.79098785 0.98083067
vt 0.79098785 0.98981875
vt 0.79098785 0.99361444
vt 0.7981388 0.9813317
vt 0.8047129 0.9811799
vt 0.7981388 0.98981875
vt 0.8047129 0.99361444
vt 0.8047129 0.98981875
vt 0.75749505 0.98210603
vt 0.75342613 0.9947531
vt 0.76072896 0.9947531
vt 0.7666198 0.9905779
vt 0.7475353 0.990669
vt 0.76886684 0.9839431
vt 0.7452883 0.9839431
vt 0.7666198 0.9772324
vt 0.7475353 0.97730833
vt 0.7606379 0.973209
vt 0.75342613 0.973209
vn 0.53743947 0.84330237 -0
vn 0.6070071 0.79469645 -0
vn 0.44676757 0.78968906 -0.4204639
vn 0.39831704 0.8245734 -0.40177387
vn -0.78379583 0.62101865 -0
vn 0.09986198 0.77224696 -0.62742513
vn -0.6385236 0.64627564 0.41787013
vn -0.9970572 -0.07660574 -0.0029187794
vn 0.07466775 0.7877511 -0.6114515
vn -0.2683618 0.7412386 -0.615262
vn -0.7993792 -0.04753548 0.5989434
vn -0.9926516 0.12100774 -0
vn -0.29743207 0.7005402 0.6486738
vn -0.2858039 0.75480473 -0.59041166
vn -0.590073 0.7005402 -0.40131947
vn -0.7625568 -0.16769272 0.624809
vn -0.97725505 0.21206759 -0
vn -0.34782052 0.06874573 0.9350374
vn -0.3109982 0.014481187 0.9503002
vn 0.105676055 0.75286674 0.64963394
vn -0.5706929 0.7373625 -0.36139476
vn -0.7354245 0.6772839 -0.02091218
vn -0.27223778 -0.004899025 0.9622175
vn 0.291726 0.092001915 0.952067
vn 0.29947805 0.031923294 0.95356894
vn 0.34792852 0.06874573 0.9349972
vn 0.45451963 0.7858131 0.4194159
vn -0.68116 0.73154855 -0.029288735
vn -0.59588706 0.6927881 0.4061567
vn 0.783983 0.15014255 0.60235196
vn 0.783983 -0.07466775 0.6162754
vn 0.9772598 0.21204521 -0
vn 0.6036195 0.7972725 -0
vn -0.5706929 0.7373625 0.36139476
vn -0.2702998 0.72961044 0.6281772
vn 0.9855266 0.16952096 -0
vn 0.9714542 0.23722726 -0
vn 0.45258158 0.7780609 -0.43565017
vn -0.2858039 0.75480473 0.59041166
vn 0.105676055 0.7625568 0.63823175
vn 0.78010696 -0.064977646 -0.62226284
vn 0.34599054 0.09394002 -0.93352336
vn 0.77623093 0.14239049 -0.61415833
vn 0.105676055 0.7354245 -0.66931564
vn 0.07466775 0.7877511 0.6114515
vn 0.45258158 0.7858131 0.42150643
vn 0.28009784 0.08231187 -0.95643604
vn 0.291726 0.059055567 -0.9546771
vn -0.291618 0.68503606 -0.6675961
vn 0.39831704 0.8245734 0.40177387
vn 0.6070071 0.79469645 -0
vn 0.53743947 0.84330237 -0
vn -0.6346475 0.64046156 -0.43247142
vn -0.78379583 0.62101865 -0
vn -0.29743207 0.012543142 -0.9546606
vn -0.2683618 0.026109338 -0.9629643
vn -0.34588253 0.09394002 -0.93356335
vn -0.79162705 -0.049473464 -0.60899836
vn -0.9970572 -0.07660574 -0.0029187794
vn -0.7606188 -0.15606457 -0.630161
vn -0.97725505 0.21206759 -0
vn -0.9926516 0.12100774 -0
vn -0.11909837 0.9928825 -0
vn 0.105676055 0.7625568 0.63823175
vn -0.2702998 0.72961044 0.6281772
vn -0.59588706 0.6927881 0.4061567
vn 0.45258158 0.7858131 0.42150643
vn -0.7354245 0.6772839 -0.02091218
vn 0.6070071 0.79469645 -0
vn -0.590073 0.7005402 -0.40131947
vn 0.44676757 0.78968906 -0.4204639
vn -0.2683618 0.7412386 -0.615262
vn 0.09986198 0.77224696 -0.62742513
g fcbg_arkcity_001_sandbag_04_0
f 3/3/3 2/2/2 1/1/1
f 4/4/4 3/3/3 1/1/1
f 4/4/4 1/1/1 5/5/5
f 6/6/6 3/3/3 4/4/4
f 7/7/7 4/4/4 5/5/5
f 5/5/5 8/8/8 7/7/7
f 9/9/9 6/6/6 4/4/4
f 9/9/9 4/4/4 7/7/7
f 10/10/10 6/6/6 9/9/9
f 8/8/8 11/11/11 7/7/7
f 8/8/8 12/12/12 11/11/11
f 13/13/13 9/9/9 7/7/7
f 7/7/7 11/11/11 13/13/13
f 14/14/14 10/10/10 9/9/9
f 14/14/14 9/9/9 13/13/13
f 15/15/15 10/10/10 14/14/14
f 12/12/12 16/16/16 11/11/11
f 12/12/12 17/17/17 16/16/16
f 17/17/17 18/18/18 16/16/16
f 11/11/11 19/19/19 13/13/13
f 11/11/11 16/16/16 19/19/19
f 20/20/20 14/14/14 13/13/13
f 13/13/13 19/19/19 20/20/20
f 21/21/21 15/15/15 14/14/14
f 21/21/21 14/14/14 20/20/20
f 22/22/22 15/15/15 21/21/21
f 16/16/16 18/18/18 23/23/23
f 16/16/16 23/23/23 19/19/19
f 19/19/19 24/24/24 20/20/20
f 19/19/19 23/23/23 24/24/24
f 23/23/23 18/18/18 25/25/25
f 23/23/23 25/25/25 24/24/24
f 18/18/18 26/26/26 25/25/25
f 27/27/27 21/21/21 20/20/20
f 20/20/20 24/24/24 27/27/27
f 28/28/28 22/22/22 21/21/21
f 28/28/28 21/21/21 27/27/27
f 29/29/29 22/22/22 28/28/28
f 24/24/24 25/25/25 30/30/30
f 24/24/24 30/30/30 27/27/27
f 25/25/25 26/26/26 31/31/31
f 25/25/25 31/31/31 30/30/30
f 26/26/26 32/32/32 31/31/31
f 33/33/33 28/28/28 27/27/27
f 27/27/27 30/30/30 33/33/33
f 34/34/34 29/29/29 28/28/28
f 34/34/34 28/28/28 33/33/33
f 35/35/35 29/29/29 34/34/34
f 30/30/30 31/31/31 36/36/36
f 30/30/30 36/36/36 33/33/33
f 31/31/31 32/32/32 37/37/37
f 31/31/31 37/37/37 36/36/36
f 38/38/38 34/34/34 33/33/33
f 33/33/33 36/36/36 38/38/38
f 39/39/39 35/35/35 34/34/34
f 39/39/39 34/34/34 38/38/38
f 40/40/40 35/35/35 39/39/39
f 37/37/37 32/32/32 41/41/41
f 32/32/32 42/42/42 41/41/41
f 36/36/36 37/37/37 43/43/43
f 36/36/36 43/43/43 38/38/38
f 37/37/37 41/41/41 43/43/43
f 44/44/44 39/39/39 38/38/38
f 38/38/38 43/43/43 44/44/44
f 45/45/45 40/40/40 39/39/39
f 45/45/45 39/39/39 44/44/44
f 46/46/46 40/40/40 45/45/45
f 43/43/43 41/41/41 47/47/47
f 43/43/43 47/47/47 44/44/44
f 41/41/41 42/42/42 48/48/48
f 41/41/41 48/48/48 47/47/47
f 49/49/49 45/45/45 44/44/44
f 44/44/44 47/47/47 49/49/49
f 50/50/50 46/46/46 45/45/45
f 50/50/50 45/45/45 49/49/49
f 51/51/51 46/46/46 50/50/50
f 52/52/52 51/51/51 50/50/50
f 52/52/52 50/50/50 53/53/53
f 53/53/53 50/50/50 49/49/49
f 54/54/54 52/52/52 53/53/53
f 47/47/47 55/55/55 49/49/49
f 47/47/47 48/48/48 55/55/55
f 49/49/49 55/55/55 53/53/53
f 48/48/48 42/42/42 56/56/56
f 48/48/48 56/56/56 55/55/55
f 42/42/42 57/57/57 56/56/56
f 53/53/53 58/58/58 54/54/54
f 55/55/55 58/58/58 53/53/53
f 55/55/55 56/56/56 58/58/58
f 58/58/58 59/59/59 54/54/54
f 56/56/56 57/57/57 60/60/60
f 56/56/56 60/60/60 58/58/58
f 58/58/58 60/60/60 59/59/59
f 57/57/57 61/61/61 60/60/60
f 60/60/60 62/62/62 59/59/59
f 60/60/60 61/61/61 62/62/62
f 65/65/65 64/64/64 63/63/63
f 66/66/66 65/65/65 63/63/63
f 67/67/67 63/63/63 64/64/64
f 68/68/68 66/66/66 63/63/63
f 69/69/69 63/63/63 67/67/67
f 68/68/68 63/63/63 70/70/70
f 71/71/71 63/63/63 69/69/69
f 70/70/70 63/63/63 72/72/72
f 71/71/71 73/73/73 63/63/63
f 73/73/73 72/72/72 63/63/63
