g fcbg_cityforest_etc_0003
v 0.36518097 -3.8163336E-05 0.37442756
v 0.36518097 -3.81306E-05 -0.37442684
v -0.36518097 -3.81306E-05 -0.37442684
v -0.36518097 -3.8163336E-05 0.37442756
v -0.36518097 -3.81306E-05 -0.37442684
v -0.36518097 1.1047544 0.37442762
v 0.36518097 -3.8163336E-05 0.37442756
v 0.36518097 1.1047544 0.37442762
v -0.36518097 1.1047544 -0.37442678
v 0.22685242 1.3152025 0.37442762
v -0.22684477 1.3152025 0.37442762
v -0 1.3615363 0.37442762
v -0.22684477 1.3152025 0.37442762
v -0.22684477 1.3152025 -0.37442678
v -0 1.3615363 0.37442762
v -0 1.3615363 -0.37442678
v 0.22685242 1.3152025 0.37442762
v 0.22685242 1.3152025 -0.37442678
v 0.36518097 1.1047544 0.37442762
v 0.36518097 1.1047544 -0.37442678
v 0.36518097 -3.8163336E-05 0.37442756
v 0.36518097 -3.81306E-05 -0.37442684
v -0.36518097 -3.81306E-05 -0.37442684
v 0.36518097 -3.81306E-05 -0.37442684
v 0.36518097 1.1047544 -0.37442678
v -0.36518097 1.1047544 -0.37442678
v -0.22684477 1.3152025 -0.37442678
v 0.22685242 1.3152025 -0.37442678
v -0 1.3615363 -0.37442678
vt 0.47512323 0.47329664
vt 0.47512323 0.45957452
vt 0.48865885 0.45957452
vt 0.48865885 0.47329664
vt 0.5061682 0.47329664
vt 0.48865885 0.4962194
vt 0.47512323 0.47329664
vt 0.47512323 0.4962194
vt 0.5061682 0.4962194
vt 0.4775597 0.50037974
vt 0.48652887 0.50037974
vt 0.48204428 0.5012956
vt 0.48865885 0.50119805
vt 0.5061682 0.50119805
vt 0.48865885 0.5073383
vt 0.5061682 0.5073383
vt 0.48865885 0.50119805
vt 0.5061682 0.50119805
vt 0.48865885 0.4962194
vt 0.5061682 0.4962194
vt 0.48865885 0.47329664
vt 0.5061682 0.47329664
vt 0.48865885 0.47329664
vt 0.47512323 0.47329664
vt 0.47512323 0.4962194
vt 0.48865885 0.4962194
vt 0.48652887 0.50037974
vt 0.4775597 0.50037974
vt 0.48204428 0.50129575
vn 0.5773502 -0.5773504 0.57735026
vn 0.57735026 -0.5773503 -0.57735026
vn -0.57735026 -0.5773503 -0.57735026
vn -0.5773502 -0.5773504 0.57735026
vn -0.57735026 -0.5773503 -0.57735026
vn -0.7297421 0.21836796 0.64791346
vn 0.5773502 -0.5773504 0.57735026
vn 0.729743 0.21835817 0.6479158
vn -0.72974205 0.21836793 -0.6479135
vn 0.43551034 0.64292485 0.6300622
vn -0.43550313 0.64292735 0.6300647
vn -0 0.7470963 0.6647158
vn -0.43550313 0.64292735 0.6300647
vn -0.43550315 0.6429274 -0.63006467
vn -0 0.7470963 0.6647158
vn -0 0.74709636 -0.66471565
vn 0.43551034 0.64292485 0.6300622
vn 0.43551037 0.64292496 -0.6300621
vn 0.729743 0.21835817 0.6479158
vn 0.729743 0.21835817 -0.6479158
vn 0.5773502 -0.5773504 0.57735026
vn 0.57735026 -0.5773503 -0.57735026
vn -0.57735026 -0.5773503 -0.57735026
vn 0.57735026 -0.5773503 -0.57735026
vn 0.729743 0.21835817 -0.6479158
vn -0.72974205 0.21836793 -0.6479135
vn -0.43550315 0.6429274 -0.63006467
vn 0.43551037 0.64292496 -0.6300621
vn -0 0.74709636 -0.66471565
g fcbg_cityforest_etc_0003_0
f 3/3/3 2/2/2 1/1/1
f 4/4/4 3/3/3 1/1/1
f 4/4/4 6/6/6 5/5/5
f 6/6/6 4/4/4 7/7/7
f 8/8/8 6/6/6 7/7/7
f 6/6/6 9/9/9 5/5/5
f 6/6/6 8/8/8 10/10/10
f 11/11/11 6/6/6 10/10/10
f 12/12/12 11/11/11 10/10/10
f 6/6/6 13/13/13 9/9/9
f 13/13/13 14/14/14 9/9/9
f 13/13/13 15/15/15 14/14/14
f 15/15/15 16/16/16 14/14/14
f 15/15/15 17/17/17 16/16/16
f 17/17/17 18/18/18 16/16/16
f 18/18/18 17/17/17 19/19/19
f 20/20/20 18/18/18 19/19/19
f 20/20/20 19/19/19 21/21/21
f 22/22/22 20/20/20 21/21/21
f 25/25/25 24/24/24 23/23/23
f 26/26/26 25/25/25 23/23/23
f 25/25/25 26/26/26 27/27/27
f 28/28/28 25/25/25 27/27/27
f 29/29/29 28/28/28 27/27/27
