g fcbg_iceland_001_house_15
v -4.6228323 -0.0055480003 7.6117144
v 7.340849 7.149713 7.6117964
v 7.341718 -0.005548477 7.6117964
v -4.6228256 7.149713 7.6117144
v 6.7475963 7.1497927 6.9403195
v -4.0295854 7.149792 6.9402447
v 6.7475963 6.667366 6.9403195
v -4.0295854 6.667366 6.9402456
v 6.7472396 6.6706524 -6.9403033
v -4.0295105 6.667366 -6.940307
v 6.7475963 7.1497927 6.9403195
v 6.7472396 7.1530786 -6.9403033
v 7.340849 7.149713 7.6117964
v 7.3404574 7.1533165 -7.611774
v 7.341718 -0.005548477 7.6117964
v 7.340451 -0.005599022 -7.611774
v 7.340451 -0.005599022 -7.611774
v -4.6227436 7.149713 -7.6117816
v -4.6227503 -0.0055480003 -7.6117816
v 7.3404574 7.1533165 -7.611774
v -4.0295105 7.149792 -6.940307
v 6.7472396 7.1530786 -6.9403033
v -4.0295105 6.667366 -6.940307
v 6.7472396 6.6706524 -6.9403033
v -4.6227503 -0.0055480003 -7.6117816
v -4.6228256 7.149713 7.6117144
v -4.6228323 -0.0055480003 7.6117144
v -4.6227436 7.149713 -7.6117816
v -4.0295854 7.149792 6.9402447
v -4.0295105 7.149792 -6.940307
v -4.0295854 6.667366 6.9402456
v -4.0295105 6.667366 -6.940307
v -0.7400646 7.2271614 3.2876952
v -2.5380914 7.2258053 5.8226337
v -2.5380805 7.2258053 3.2876942
v -0.7400124 7.2258053 5.8226476
v -2.5380914 6.627119 5.8226337
v -0.7400124 6.627119 5.8226476
v -0.7400124 6.627119 5.8226476
v -0.7400646 6.628475 3.2876952
v -2.5380805 7.2258053 3.2876942
v -2.5380805 6.627119 3.2876942
v -0.7400646 6.628475 3.2876952
v -0.7400646 7.2271614 3.2876952
v -2.5380914 7.2258053 5.8226337
v -2.5380914 6.627119 5.8226337
v -2.5380805 6.627119 3.2876942
v -2.5380805 7.2258053 3.2876942
v 3.6003323 9.322277 -5.1559443
v 3.6003323 6.5822163 -5.1559443
v 1.0608474 6.5803857 -1.7343128
v 1.0608474 9.320447 -1.7343128
v -2.4628038 9.320448 -1.7343309
v -2.4628038 6.5803857 -1.7343309
v 1.0608474 6.5803857 -1.7343128
v -2.4627893 9.320448 -5.1559443
v 3.6003323 6.5822163 -5.1559443
v -2.4627893 6.5803857 -5.1559443
v -2.4627893 6.5803857 -5.1559443
v -2.4628038 6.5803857 -1.7343309
v -7.3417273 7.631772 -0.580817
v -6.964629 7.631772 -1.9881656
v -6.96463 7.631772 0.82653165
v -5.934379 7.631772 -3.0184152
v -5.934379 7.631772 1.8567822
v -4.52703 7.631772 -3.3955152
v -4.5270314 7.631772 2.2338803
v -3.9172912 7.631772 2.2338803
v -3.9172897 7.631772 -3.3955152
v -3.9172897 6.605077 2.2338803
v -3.9172897 6.604926 -3.3955133
v -4.5270314 7.631772 2.2338803
v -3.9172912 7.631772 2.2338803
v -3.9172897 6.605077 2.2338803
v -4.5270314 -0.0059509277 2.2338803
v -5.934379 -0.0059509277 1.8567822
v -5.934379 7.631772 1.8567822
v -6.96463 -0.0059509277 0.82653165
v -6.96463 7.631772 0.82653165
v -7.3417273 -0.0059509277 -0.580817
v -7.3417273 7.631772 -0.580817
v -6.964629 -0.0059509277 -1.9881656
v -6.964629 7.631772 -1.9881656
v -5.934379 -0.0059509277 -3.0184152
v -5.934379 7.631772 -3.0184152
v -4.52703 -0.0059509277 -3.3955152
v -4.52703 7.631772 -3.3955152
v -3.9172897 6.604926 -3.3955133
v -3.9172897 7.631772 -3.3955152
vt 0.81788564 0.78995085
vt 0.9259803 0.8546109
vt 0.9259803 0.78995085
vt 0.81788564 0.8545983
vt 0.9206064 0.86068046
vt 0.8232266 0.86068046
vt 0.9206064 0.8650371
vt 0.8232266 0.8650371
vt 0.9206064 0.9904424
vt 0.8232266 0.99042666
vt 0.9249649 0.8650371
vt 0.9249649 0.9904437
vt 0.9303212 0.85896766
vt 0.9303212 0.9965099
vt 0.9949825 0.8589636
vt 0.9949825 0.99650955
vt 0.81788564 0.78995085
vt 0.9259803 0.85462356
vt 0.9259803 0.78995085
vt 0.81788564 0.8546063
vt 0.9206064 0.86068046
vt 0.8232266 0.86068046
vt 0.9206064 0.8650371
vt 0.8232266 0.8650371
vt 0.9949825 0.99650955
vt 0.9303212 0.85896766
vt 0.9949825 0.8589636
vt 0.9303212 0.9965099
vt 0.9249649 0.8650371
vt 0.9249649 0.9904437
vt 0.9206064 0.8650371
vt 0.9206064 0.9904424
vt 0.9563218 0.8397296
vt 0.9314397 0.85683703
vt 0.9563218 0.85683703
vt 0.9314397 0.8397296
vt 0.9282033 0.85683703
vt 0.9282033 0.8397296
vt 0.9314397 0.8353879
vt 0.9563218 0.8353879
vt 0.9314397 0.85683703
vt 0.92820424 0.85683703
vt 0.92820424 0.8397296
vt 0.9314397 0.8397296
vt 0.9314397 0.8397296
vt 0.93143994 0.8353879
vt 0.956322 0.8353879
vt 0.9563218 0.8397296
vt 0.9841462 0.816787
vt 0.99736494 0.8056452
vt 0.9805805 0.78518367
vt 0.96722203 0.79514545
vt 0.94441986 0.79514545
vt 0.94441986 0.7801571
vt 0.96722203 0.7801571
vt 0.94441986 0.8164743
vt 0.9841462 0.83213997
vt 0.94441986 0.83213997
vt 0.9291974 0.8164743
vt 0.9291974 0.79514545
vt 0.9721198 0.77674943
vt 0.98541784 0.7731864
vt 0.9588219 0.7731864
vt 0.9951526 0.7634518
vt 0.9490869 0.7634518
vt 0.99871564 0.75015366
vt 0.94552386 0.75015366
vt 0.94552386 0.74439234
vt 0.99871564 0.74439234
vt 0.94552386 0.7346899
vt 0.99871564 0.7346899
vt 0.95729804 0.7328665
vt 0.95153666 0.7328665
vt 0.95153666 0.7225989
vt 0.95729804 0.6601313
vt 0.97106516 0.6601313
vt 0.97106516 0.7328665
vt 0.9848323 0.6601313
vt 0.9848323 0.7328665
vt 0.9985995 0.6601313
vt 0.9985995 0.7328665
vt 0.9848323 0.6601313
vt 0.9848323 0.7328665
vt 0.97106516 0.6601313
vt 0.97106516 0.7328665
vt 0.95729804 0.6601313
vt 0.95729804 0.7328665
vt 0.95153666 0.722597
vt 0.95153666 0.7328665
vn -0.7071113 0 0.7071022
vn 0.5773367 0.57731193 0.5774021
vn 0.7071517 4.261425E-05 0.7070618
vn -0.57736486 0.57732654 0.57735944
vn -0.30162084 0.9045527 -0.30134588
vn 0.3014623 0.90456474 -0.30146807
vn -0.5773802 0.57737064 -0.57729995
vn 0.5773176 0.57740235 -0.57733095
vn -0.5773988 0.5772332 0.5774188
vn 0.57730436 0.5773945 0.577352
vn -0.30162084 0.9045527 -0.30134588
vn -0.30163902 0.90446186 0.30160013
vn 0.5773367 0.57731193 0.5774021
vn 0.57725084 0.57751197 -0.5772879
vn 0.7071517 4.261425E-05 0.7070618
vn 0.7070877 4.2610372E-05 -0.7071258
vn 0.7070877 4.2610372E-05 -0.7071258
vn -0.57741 0.57728285 -0.5773578
vn -0.7071039 0 -0.70710963
vn 0.57725084 0.57751197 -0.5772879
vn 0.3013237 0.9045566 0.30163145
vn -0.30163902 0.90446186 0.30160013
vn 0.57730436 0.5773945 0.577352
vn -0.5773988 0.5772332 0.5774188
vn -0.7071039 0 -0.70710963
vn -0.57736486 0.57732654 0.57735944
vn -0.7071113 0 0.7071022
vn -0.57741 0.57728285 -0.5773578
vn 0.3014623 0.90456474 -0.30146807
vn 0.3013237 0.9045566 0.30163145
vn 0.5773176 0.57740235 -0.57733095
vn 0.57730436 0.5773945 0.577352
vn 0.57721156 0.5776333 -0.57720584
vn -0.57744735 0.57722634 0.57737714
vn -0.57745296 0.5772369 -0.57736087
vn 0.5772892 0.57730424 0.5774573
vn -0.707111 0 0.70710254
vn 0.70699084 0 0.7072227
vn 0.70699084 0 0.7072227
vn 0.7070503 0 -0.7071632
vn -0.57745296 0.5772369 -0.57736087
vn -0.7072749 0 -0.7069386
vn 0.7070503 0 -0.7071632
vn 0.57721156 0.5776333 -0.57720584
vn -0.57744735 0.57722634 0.57737714
vn -0.707111 0 0.70710254
vn -0.7072749 0 -0.7069386
vn -0.57745296 0.5772369 -0.57736087
vn 0.74536467 0.55115664 -0.375044
vn 0.8933381 0 -0.44938514
vn 0.44939345 0 0.8933339
vn 0.35308784 0.61847836 0.7020068
vn -0.57738864 0.57727575 0.5773865
vn -0.7071101 0 0.70710343
vn 0.44939345 0 0.8933339
vn -0.5774233 0.5773146 -0.57731295
vn 0.8933381 0 -0.44938514
vn -0.7071733 0 -0.7070403
vn -0.7071733 0 -0.7070403
vn -0.7071101 0 0.70710343
vn -0.75716233 0.6532268 0
vn -0.6557217 0.65322673 -0.37858126
vn -0.6557219 0.6532266 0.3785811
vn -0.37858146 0.6532269 -0.6557215
vn -0.37858117 0.6532268 0.6557218
vn -0.09583956 0.6788741 -0.72797304
vn -0.095839515 0.67887443 0.7279728
vn 0.5773499 0.57735044 0.5773505
vn 0.5773501 0.57735 -0.5773506
vn 0.45791197 0 0.8889975
vn 0.45790195 0 -0.8890027
vn -0.095839515 0.67887443 0.7279728
vn 0.5773499 0.57735044 0.5773505
vn 0.45791197 0 0.8889975
vn -0.24493988 0 0.9695383
vn -0.5 0 0.86602545
vn -0.37858117 0.6532268 0.6557218
vn -0.8660255 0 0.4999999
vn -0.6557219 0.6532266 0.3785811
vn -1 0 0
vn -0.75716233 0.6532268 0
vn -0.8660253 0 -0.5000002
vn -0.6557217 0.65322673 -0.37858126
vn -0.5000005 0 -0.86602515
vn -0.37858146 0.6532269 -0.6557215
vn -0.24494049 0 -0.96953803
vn -0.09583956 0.6788741 -0.72797304
vn 0.45790195 0 -0.8890027
vn 0.5773501 0.57735 -0.5773506
g fcbg_iceland_001_house_15_0
f 3/3/3 2/2/2 1/1/1
f 2/2/2 4/4/4 1/1/1
f 2/2/2 5/5/5 4/4/4
f 5/5/5 6/6/6 4/4/4
f 5/5/5 7/7/7 6/6/6
f 7/7/7 8/8/8 6/6/6
f 8/8/8 7/7/7 9/9/9
f 10/10/10 8/8/8 9/9/9
f 9/9/9 7/7/7 11/11/11
f 12/12/12 9/9/9 11/11/11
f 12/12/12 11/11/11 13/13/13
f 14/14/14 12/12/12 13/13/13
f 14/14/14 13/13/13 15/15/15
f 16/16/16 14/14/14 15/15/15
f 19/19/19 18/18/18 17/17/17
f 18/18/18 20/20/20 17/17/17
f 18/18/18 21/21/21 20/20/20
f 21/21/21 22/22/22 20/20/20
f 21/21/21 23/23/23 22/22/22
f 23/23/23 24/24/24 22/22/22
f 27/27/27 26/26/26 25/25/25
f 26/26/26 28/28/28 25/25/25
f 26/26/26 29/29/29 28/28/28
f 29/29/29 30/30/30 28/28/28
f 29/29/29 31/31/31 30/30/30
f 31/31/31 32/32/32 30/30/30
f 35/35/35 34/34/34 33/33/33
f 34/34/34 36/36/36 33/33/33
f 34/34/34 37/37/37 36/36/36
f 37/37/37 38/38/38 36/36/36
f 36/36/36 39/39/39 33/33/33
f 39/39/39 40/40/40 33/33/33
f 43/43/43 42/42/42 41/41/41
f 44/44/44 43/43/43 41/41/41
f 47/47/47 46/46/46 45/45/45
f 48/48/48 47/47/47 45/45/45
f 51/51/51 50/50/50 49/49/49
f 52/52/52 51/51/51 49/49/49
f 53/53/53 52/52/52 49/49/49
f 53/53/53 54/54/54 52/52/52
f 54/54/54 55/55/55 52/52/52
f 56/56/56 53/53/53 49/49/49
f 49/49/49 57/57/57 56/56/56
f 57/57/57 58/58/58 56/56/56
f 56/56/56 59/59/59 53/53/53
f 59/59/59 60/60/60 53/53/53
f 63/63/63 62/62/62 61/61/61
f 64/64/64 62/62/62 63/63/63
f 65/65/65 64/64/64 63/63/63
f 66/66/66 64/64/64 65/65/65
f 67/67/67 66/66/66 65/65/65
f 67/67/67 68/68/68 66/66/66
f 68/68/68 69/69/69 66/66/66
f 68/68/68 70/70/70 69/69/69
f 70/70/70 71/71/71 69/69/69
f 74/74/74 73/73/73 72/72/72
f 75/75/75 74/74/74 72/72/72
f 75/75/75 72/72/72 76/76/76
f 72/72/72 77/77/77 76/76/76
f 76/76/76 77/77/77 78/78/78
f 77/77/77 79/79/79 78/78/78
f 78/78/78 79/79/79 80/80/80
f 79/79/79 81/81/81 80/80/80
f 80/80/80 81/81/81 82/82/82
f 81/81/81 83/83/83 82/82/82
f 82/82/82 83/83/83 84/84/84
f 83/83/83 85/85/85 84/84/84
f 84/84/84 85/85/85 86/86/86
f 85/85/85 87/87/87 86/86/86
f 88/88/88 86/86/86 87/87/87
f 89/89/89 88/88/88 87/87/87
