g fcbg_iceland_005_Barbedwire_03
v -85.41045 2.3586576 -0.040816534
v -88.34723 0.09688002 -0.040817384
v -85.410835 0.09688002 -0.040817384
v -88.346855 2.3586576 -0.011438873
v -91.284805 2.3589356 -0.03102398
v -91.28506 0.09688002 -0.011439733
v -94.22288 0.09688002 -0.040817384
v -88.34648 4.6612263 -0.011439532
v -85.41008 4.6612263 -0.04081718
v -88.34648 5.527865 -0.022455834
v -85.41008 5.527865 -0.04081686
v -94.222374 2.3583796 -0.031023977
v -94.58993 0.09688002 -0.040817384
v -94.589455 2.3584492 -0.031023977
v -94.58917 4.6612263 -0.015111744
v -91.2843 4.6612263 -0.04081718
v -94.22212 4.6612263 -0.011439532
v -94.22212 5.527865 -0.022455834
v -94.58917 5.527865 -0.024750963
v -94.58917 5.9611835 -0.029570572
v -94.22212 5.961184 -0.027963985
v -91.2843 5.527865 -0.029800242
v -91.2843 5.9611835 -0.024291772
v -88.34648 5.961184 -0.027963985
v -85.41008 5.9611835 -0.040816702
v -88.34648 5.527865 -0.059177887
v -88.34648 5.9611835 -0.05366942
v -91.2843 5.527865 -0.051833484
v -91.2843 5.961184 -0.057341628
v -94.22212 5.527865 -0.059177887
v -94.22212 5.9611835 -0.05366942
v -91.2843 4.6612263 -0.04081718
v -94.58917 5.527865 -0.05688276
v -94.58917 5.9611835 -0.052062836
v -94.22212 4.6612263 -0.070194826
v -94.58917 4.6612263 -0.06652262
v -94.222374 2.3583796 -0.031023977
v -94.58939 2.3583102 -0.03592026
v -91.2843 2.3578236 -0.07019418
v -88.34648 4.6612263 -0.070194826
v -88.346855 2.3586576 -0.07019418
v -85.41008 4.6612263 -0.04081718
v -85.41008 5.527865 -0.04081686
v -85.41045 2.3586576 -0.040816534
v -88.34723 0.09688002 -0.040817384
v -85.410835 0.09688002 -0.040817384
v -91.284805 2.3589356 -0.03102398
v -91.28506 0.09688002 -0.070195034
v -94.22288 0.09688002 -0.040817384
v -94.22288 2.3594918 -0.07019418
v -94.58989 2.3594222 -0.0652979
v -94.58993 0.09688002 -0.040817384
v -94.22288 2.3594916 0.011439484
v -94.58989 2.3594222 0.016335774
v -94.58992 0.096879534 0.040816266
v -94.22288 0.096879534 0.040816266
v -91.284805 2.3589356 0.050609674
v -91.28506 0.09687956 0.011438604
v -88.34723 0.096879534 0.040816266
v -88.346855 2.3586576 0.011439484
v -85.41045 2.3586576 0.040817138
v -94.222374 2.3583796 0.050609674
v -91.284805 2.3589356 0.050609674
v -94.589455 2.358449 0.050609674
v -91.28506 0.096879534 0.07019387
v -94.58917 4.661225 0.06652193
v -94.22212 4.661225 0.07019412
v -85.410835 0.096879534 0.040816266
v -88.34648 4.661225 0.0114388205
v -91.2843 2.3578236 0.011439484
v -94.22212 5.527864 0.059177827
v -94.58917 5.527864 0.05688269
v -94.22212 5.9611826 0.05366971
v -94.58917 5.9611826 0.05206312
v -91.2843 5.9611826 0.0573419
v -91.2843 5.527864 0.051833387
v -88.34648 5.9611826 0.05366971
v -91.2843 4.661225 0.040816475
v -88.34648 5.527864 0.059177827
v -85.41008 5.9611826 0.040816966
v -88.34648 4.661225 0.07019412
v -85.41008 5.527864 0.040816788
v -88.34648 5.9611826 0.027964238
v -88.34648 5.527864 0.02245574
v -91.2843 5.9611826 0.024292026
v -88.346855 2.3586576 0.07019476
v -85.41008 4.661225 0.040816475
v -91.2843 5.527864 0.029800173
v -94.22212 5.9611826 0.027964238
v -91.2843 4.661225 0.040816475
v -94.22212 5.527864 0.02245574
v -94.58917 5.961183 0.029570837
v -94.58917 5.527864 0.024750892
v -94.22212 4.661225 0.0114388205
v -94.222374 2.3583796 0.050609674
v -94.58917 4.661225 0.01511104
v -94.58939 2.3583102 0.045713414
vt 0.22453731 0.98933566
vt 0.015726374 0.8306968
vt 0.2245374 0.83069706
vt 0.01572667 0.98933566
vt 0.22453731 0.98933566
vt 0.22453769 0.83069676
vt 0.015725942 0.8306975
vt 0.01572667 0.82767576
vt 0.22453731 0.82767576
vt 0.01572667 0.8882982
vt 0.22453731 0.8882982
vt 0.01572667 0.98933566
vt 0.041828625 0.83069724
vt 0.041828 0.98933566
vt 0.041828 0.82767576
vt 0.22453731 0.82767576
vt 0.01572667 0.82767576
vt 0.01572667 0.8882982
vt 0.041828 0.8882982
vt 0.041828 0.91860944
vt 0.01572667 0.91860944
vt 0.22453731 0.8882982
vt 0.22453731 0.91860944
vt 0.01572667 0.91860944
vt 0.22453731 0.91860944
vt 0.01572667 0.8882982
vt 0.01572667 0.91860944
vt 0.22453731 0.8882982
vt 0.22453731 0.91860944
vt 0.01572667 0.8882982
vt 0.01572667 0.91860944
vt 0.22453731 0.82767576
vt 0.041828 0.8882982
vt 0.041828 0.91860944
vt 0.01572667 0.82767576
vt 0.041828 0.82767576
vt 0.01572667 0.98933566
vt 0.041828 0.98933566
vt 0.22453731 0.98933566
vt 0.01572667 0.82767576
vt 0.01572667 0.98933566
vt 0.22453731 0.82767576
vt 0.22453731 0.8882982
vt 0.22453731 0.98933566
vt 0.015726782 0.8306968
vt 0.2245368 0.83069706
vt 0.22453731 0.98933566
vt 0.22453722 0.8306966
vt 0.015726632 0.83069605
vt 0.01572667 0.98933566
vt 0.041828 0.98933566
vt 0.04182829 0.8306957
vt 0.01572667 0.98933566
vt 0.041828 0.98933566
vt 0.041827966 0.83069724
vt 0.015726594 0.8306975
vt 0.22453731 0.98933566
vt 0.22453757 0.8306966
vt 0.015726782 0.8306968
vt 0.01572667 0.98933566
vt 0.22453731 0.98933566
vt 0.01572667 0.98933566
vt 0.22453731 0.98933566
vt 0.041828 0.98933566
vt 0.22453734 0.83069676
vt 0.041828 0.82767576
vt 0.01572667 0.82767576
vt 0.22453684 0.83069706
vt 0.01572667 0.82767576
vt 0.22453731 0.98933566
vt 0.01572667 0.8882982
vt 0.041828 0.8882982
vt 0.01572667 0.91860944
vt 0.041828 0.91860944
vt 0.22453731 0.91860944
vt 0.22453731 0.8882982
vt 0.01572667 0.91860944
vt 0.22453731 0.82767576
vt 0.01572667 0.8882982
vt 0.22453731 0.91860944
vt 0.01572667 0.82767576
vt 0.22453731 0.8882982
vt 0.01572667 0.91860944
vt 0.01572667 0.8882982
vt 0.22453731 0.91860944
vt 0.01572667 0.98933566
vt 0.22453731 0.82767576
vt 0.22453731 0.8882982
vt 0.01572667 0.91860944
vt 0.22453731 0.82767576
vt 0.01572667 0.8882982
vt 0.041828 0.91860944
vt 0.041828 0.8882982
vt 0.01572667 0.82767576
vt 0.01572667 0.98933566
vt 0.041828 0.82767576
vt 0.041828 0.98933566
vn -0 0 -1
vn -0 0 -1
vn -0 0 -1
vn -0 0 -1
vn -0 0 -1
vn -0 0 -1
vn -0 0 -1
vn -0 0 -1
vn -0 0 -1
vn -0.0016421382 -0.0031775346 -0.9999937
vn -0.018752208 -0.019060915 -0.9996425
vn -0 0 -1
vn -0 0 -1
vn -0 0 -1
vn -0 0 -1
vn -0 0 -1
vn -0 0 -1
vn 0.0016419898 -0.005957969 -0.9999809
vn -0 0 -1
vn 0.0053145196 -0.011916029 -0.9999149
vn 0.002344885 -0.005958096 -0.9999795
vn -0 0 -1
vn -0 0 -1
vn -0.00234499 -0.0031776037 -0.99999225
vn -0.6414898 -0.7671316 0
vn -0.0016421383 -0.00317827 0.9999937
vn -0.00234499 -0.00317834 0.99999225
vn -0 0 1
vn -0 0 1
vn 0.0016419825 -0.005958705 0.9999809
vn 0.002344876 -0.0059588365 0.9999795
vn -0 0 1
vn 0.0067211557 -0.011916659 0.9999064
vn 0.005314499 -0.011916769 0.9999149
vn -0 0 1
vn 0.0032297354 0.0016161682 0.99999356
vn -0 0 1
vn -0.0016687581 0.015147521 0.9998839
vn -0 0 1
vn -0 0 1
vn -0 0 1
vn -0 0 1
vn -0 0 1
vn -0 0 1
vn -0 0 1
vn -0 0 1
vn -0 0 1
vn -0 0 1
vn -0 0 1
vn -0 0 1
vn 0.006668283 0.01190061 0.999907
vn 0.0066682836 0.01190061 0.999907
vn -0.0025008707 -0.004868192 -0.9999851
vn -0.006668334 -0.011900602 -0.999907
vn -0.38004783 -0.92496413 -0.0022317108
vn -0.6433027 -0.76556796 0.008215304
vn -0 0.0021649061 -0.99999774
vn -0 0.002164906 -0.99999774
vn 0.6101718 -0.7922691 0
vn 0.0020842266 0.0005120461 -0.99999774
vn 0.9177123 -0.3972458 0
vn -0.0012512676 -0.0029993015 0.99999475
vn -0.00166588 0 0.9999987
vn -0.0025015469 -0.00601842 0.9999788
vn -0.0016671264 0 0.9999987
vn -0.006565512 0.0021045706 0.9999763
vn -0.0004699537 0.0005205805 0.99999976
vn 0.6101718 -0.7922691 0
vn 0.001720921 0.003183057 -0.99999344
vn -0.0033339357 0.002126108 -0.99999225
vn -0.0016419657 0.0059579285 0.9999809
vn -0.00672113 0.011915882 0.9999064
vn -0.0023448714 0.0059580174 0.9999795
vn -0.0053144987 0.011915957 0.9999149
vn -0 0 1
vn -0 0 1
vn 0.0023449885 0.0031775301 0.99999225
vn -0.0008335876 0 0.99999964
vn 0.0016421366 0.0031774968 0.9999937
vn 0.6414902 0.76713127 0
vn 0.00088804483 0.0021204506 0.9999974
vn 0.7266074 0.6870529 0
vn 0.0023449906 0.0031783863 -0.99999225
vn 0.0016421383 0.0031782868 -0.9999937
vn -0 0 -1
vn 0.0020848166 -0.0016334654 0.99999654
vn 0.9437292 0.33071908 0
vn -0 0 -1
vn -0.0023448865 0.005958881 -0.9999795
vn -0.0016669584 0.0010631883 -0.9999981
vn -0.001641987 0.0059587196 -0.9999809
vn -0.0053145215 0.011916818 -0.9999149
vn -0.0067211725 0.011916675 -0.9999064
vn -0.0004691472 -0.0013389501 -0.99999905
vn -0 -0.008637472 -0.9999627
vn -0.0032297657 -0.0016161831 -0.99999356
vn 0.0016687084 -0.015147535 -0.9998839
g fcbg_iceland_005_Barbedwire_03_0
f 3/3/3 2/2/2 1/1/1
f 2/2/2 4/4/4 1/1/1
f 5/5/5 4/4/4 2/2/2
f 6/6/6 5/5/5 2/2/2
f 6/6/6 7/7/7 5/5/5
f 4/4/4 8/8/8 1/1/1
f 4/4/4 5/5/5 8/8/8
f 8/8/8 9/9/9 1/1/1
f 8/8/8 10/10/10 9/9/9
f 10/10/10 11/11/11 9/9/9
f 7/7/7 12/12/12 5/5/5
f 12/12/12 7/7/7 13/13/13
f 14/14/14 12/12/12 13/13/13
f 14/14/14 15/15/15 12/12/12
f 5/5/5 16/16/16 8/8/8
f 10/10/10 8/8/8 16/16/16
f 12/12/12 17/17/17 5/5/5
f 15/15/15 17/17/17 12/12/12
f 17/17/17 16/16/16 5/5/5
f 18/18/18 17/17/17 15/15/15
f 17/17/17 18/18/18 16/16/16
f 19/19/19 18/18/18 15/15/15
f 18/18/18 19/19/19 20/20/20
f 21/21/21 18/18/18 20/20/20
f 18/18/18 22/22/22 16/16/16
f 18/18/18 21/21/21 22/22/22
f 22/22/22 10/10/10 16/16/16
f 21/21/21 23/23/23 22/22/22
f 10/10/10 22/22/22 23/23/23
f 24/24/24 10/10/10 23/23/23
f 10/10/10 24/24/24 11/11/11
f 24/24/24 25/25/25 11/11/11
f 26/26/26 11/11/11 25/25/25
f 27/27/27 26/26/26 25/25/25
f 26/26/26 27/27/27 28/28/28
f 27/27/27 29/29/29 28/28/28
f 30/30/30 28/28/28 29/29/29
f 31/31/31 30/30/30 29/29/29
f 26/26/26 28/28/28 32/32/32
f 28/28/28 30/30/30 32/32/32
f 33/33/33 30/30/30 31/31/31
f 34/34/34 33/33/33 31/31/31
f 30/30/30 33/33/33 35/35/35
f 30/30/30 35/35/35 32/32/32
f 33/33/33 36/36/36 35/35/35
f 35/35/35 36/36/36 37/37/37
f 36/36/36 38/38/38 37/37/37
f 37/37/37 39/39/39 35/35/35
f 39/39/39 32/32/32 35/35/35
f 40/40/40 32/32/32 39/39/39
f 40/40/40 26/26/26 32/32/32
f 41/41/41 40/40/40 39/39/39
f 26/26/26 40/40/40 42/42/42
f 43/43/43 26/26/26 42/42/42
f 44/44/44 42/42/42 40/40/40
f 41/41/41 44/44/44 40/40/40
f 44/44/44 41/41/41 45/45/45
f 46/46/46 44/44/44 45/45/45
f 45/45/45 41/41/41 47/47/47
f 48/48/48 45/45/45 47/47/47
f 48/48/48 47/47/47 49/49/49
f 47/47/47 50/50/50 49/49/49
f 50/50/50 51/51/51 49/49/49
f 51/51/51 52/52/52 49/49/49
f 55/55/55 54/54/54 53/53/53
f 56/56/56 55/55/55 53/53/53
f 53/53/53 57/57/57 56/56/56
f 57/57/57 58/58/58 56/56/56
f 59/59/59 58/58/58 57/57/57
f 60/60/60 59/59/59 57/57/57
f 60/60/60 61/61/61 59/59/59
f 55/55/55 56/56/56 62/62/62
f 62/62/62 56/56/56 63/63/63
f 64/64/64 55/55/55 62/62/62
f 56/56/56 65/65/65 63/63/63
f 63/63/63 65/65/65 59/59/59
f 64/64/64 62/62/62 66/66/66
f 62/62/62 67/67/67 66/66/66
f 67/67/67 62/62/62 63/63/63
f 59/59/59 68/68/68 61/61/61
f 61/61/61 68/68/68 59/59/59
f 61/61/61 60/60/60 69/69/69
f 69/69/69 60/60/60 70/70/70
f 66/66/66 67/67/67 71/71/71
f 72/72/72 66/66/66 71/71/71
f 72/72/72 71/71/71 73/73/73
f 74/74/74 72/72/72 73/73/73
f 75/75/75 73/73/73 71/71/71
f 76/76/76 75/75/75 71/71/71
f 76/76/76 71/71/71 67/67/67
f 75/75/75 76/76/76 77/77/77
f 78/78/78 76/76/76 67/67/67
f 78/78/78 67/67/67 63/63/63
f 76/76/76 79/79/79 77/77/77
f 76/76/76 78/78/78 79/79/79
f 80/80/80 77/77/77 79/79/79
f 78/78/78 63/63/63 81/81/81
f 78/78/78 81/81/81 79/79/79
f 82/82/82 80/80/80 79/79/79
f 82/82/82 79/79/79 81/81/81
f 80/80/80 82/82/82 83/83/83
f 82/82/82 84/84/84 83/83/83
f 85/85/85 83/83/83 84/84/84
f 63/63/63 86/86/86 81/81/81
f 86/86/86 63/63/63 59/59/59
f 86/86/86 59/59/59 61/61/61
f 81/81/81 86/86/86 61/61/61
f 87/87/87 82/82/82 81/81/81
f 87/87/87 81/81/81 61/61/61
f 82/82/82 87/87/87 84/84/84
f 87/87/87 61/61/61 69/69/69
f 87/87/87 69/69/69 84/84/84
f 88/88/88 85/85/85 84/84/84
f 88/88/88 84/84/84 69/69/69
f 85/85/85 88/88/88 89/89/89
f 90/90/90 88/88/88 69/69/69
f 90/90/90 69/69/69 70/70/70
f 88/88/88 91/91/91 89/89/89
f 88/88/88 90/90/90 91/91/91
f 92/92/92 89/89/89 91/91/91
f 93/93/93 92/92/92 91/91/91
f 90/90/90 70/70/70 94/94/94
f 90/90/90 94/94/94 91/91/91
f 93/93/93 91/91/91 94/94/94
f 70/70/70 95/95/95 94/94/94
f 96/96/96 93/93/93 94/94/94
f 95/95/95 97/97/97 94/94/94
f 97/97/97 96/96/96 94/94/94
