g fcbg_cityforest_006_tire_01
v 2.065545 1.6225518 -1.5007062
v 0.78896797 1.6225519 -2.4281943
v 0.7889679 0.22000133 -2.4281943
v -0.7889681 1.6225519 -2.428194
v 2.065545 0.22000116 -1.5007064
v 2.553154 1.6225516 3.0157292E-07
v -0.7889681 0.22000133 -2.428194
v -2.0655453 1.6225518 -1.5007062
v -2.0655453 0.22000116 -1.5007063
v -2.553154 1.6225516 5.2477674E-07
v -2.553154 0.22000092 2.9627225E-07
v -2.0655448 1.6225513 1.5007071
v -2.0655448 0.22000068 1.5007068
v -0.78896827 1.6225512 2.4281945
v -0.7889682 0.22000052 2.428194
v 0.7889684 1.6225512 2.4281945
v 0.7889683 0.22000052 2.428194
v 2.0655458 1.6225513 1.5007061
v 2.0655456 0.22000068 1.5007057
v 2.553154 0.22000092 7.3068406E-08
v -1.8671685 0.00200702 -1.3565773
v -0.71319497 0.0020071566 -2.1949885
v -2.3079472 0.002006799 2.393198E-07
v 0.7131948 0.0020071566 -2.1949887
v -1.8671684 0.002006578 1.3565778
v 1.8671685 0.00200702 -1.3565775
v 2.3079472 0.002006799 3.7552653E-08
v -0.7131951 0.0020064414 2.1949885
v 1.867169 0.002006578 1.3565768
v 0.71319515 0.0020064414 2.1949885
v 1.4783636 1.6872252 3.121096E-07
v 1.1960214 1.6872251 0.8689603
v 1.1960214 0.20598617 0.8689601
v 1.4783635 0.20598632 7.0785134E-08
v 0.45683965 0.2059861 1.4060075
v 1.1960213 1.6872253 -0.86896
v 1.1960213 0.20598647 -0.86896026
v 0.45683965 1.687225 1.4060078
v -0.45683965 0.2059861 1.4060075
v 0.45683935 1.6872255 -1.4060073
v 0.45683935 0.20598654 -1.4060075
v -0.45683965 1.687225 1.4060078
v -1.1960212 0.20598617 0.8689607
v -0.4568395 1.6872255 -1.4060073
v -0.4568395 0.20598654 -1.4060075
v -1.1960213 1.6872251 0.8689609
v -1.4783635 0.20598632 2.0002781E-07
v -1.1960213 1.6872253 -0.8689599
v -1.1960213 0.20598647 -0.86896014
v -1.4783636 1.6872252 4.4135226E-07
v 1.8671688 1.8405459 -1.3565773
v 0.7131948 1.840546 -2.1949887
v -0.713195 1.840546 -2.1949885
v -1.8671688 1.8405459 -1.3565769
v -2.3079472 1.8405457 5.3885583E-07
v -1.8671684 1.8405454 1.3565781
v 2.3079472 1.8405457 3.3708866E-07
v -0.7131951 1.8405453 2.194989
v 1.867169 1.8405454 1.3565773
v 0.7131952 1.8405453 2.194989
v -2.0655453 1.6225518 -1.5007062
v -0.7889681 1.6225519 -2.428194
v -2.553154 1.6225516 5.2477674E-07
v -2.0655448 1.6225513 1.5007071
v 0.78896797 1.6225519 -2.4281943
v -0.78896827 1.6225512 2.4281945
v 0.7889684 1.6225512 2.4281945
v 2.065545 1.6225518 -1.5007062
v 2.0655458 1.6225513 1.5007061
v 2.553154 1.6225516 3.0157292E-07
vt 0.049854778 0.9688117
vt 0.073155425 0.9688117
vt 0.073155425 0.9838771
vt 0.09559622 0.9688117
vt 0.049854778 0.9838771
vt 0.073155425 0.9688117
vt 0.09559622 0.9838771
vt 0.11897924 0.9688117
vt 0.11897924 0.9838771
vt 0.14148429 0.9688117
vt 0.14148429 0.9838771
vt 0.16297236 0.9688117
vt 0.16297236 0.9838771
vt 0.14148429 0.9688117
vt 0.14148429 0.9838771
vt 0.11897924 0.9688117
vt 0.11897924 0.9838771
vt 0.09559622 0.9688117
vt 0.09559622 0.9838771
vt 0.073155425 0.9838771
vt 0.11897924 0.9864616
vt 0.09559622 0.9864616
vt 0.14148429 0.9864616
vt 0.073155425 0.9864616
vt 0.16297236 0.9864616
vt 0.049803995 0.9864616
vt 0.073155425 0.9864616
vt 0.14148429 0.9864616
vt 0.09559622 0.9864616
vt 0.11897924 0.9864616
vt 0.51356983 0.9668396
vt 0.5103061 0.956278
vt 0.5016748 0.96287197
vt 0.50290096 0.9668396
vt 0.49846512 0.9604197
vt 0.5103061 0.9774012
vt 0.5016748 0.9708074
vt 0.50176203 0.9497507
vt 0.49449664 0.9604197
vt 0.50176203 0.9839286
vt 0.49846512 0.9732595
vt 0.4911998 0.9497507
vt 0.49128705 0.96287197
vt 0.4911998 0.9839286
vt 0.49449664 0.9732595
vt 0.48265576 0.956278
vt 0.4900608 0.9668396
vt 0.48265576 0.9774012
vt 0.49128705 0.9708074
vt 0.47939193 0.9668396
vt 0.51806444 0.9833277
vt 0.50472516 0.99351805
vt 0.48823702 0.99351805
vt 0.47489744 0.9833277
vt 0.46980244 0.9668396
vt 0.47489744 0.9503514
vt 0.5231594 0.9668396
vt 0.48823702 0.9401613
vt 0.51806444 0.9503514
vt 0.50472516 0.9401613
vt 0.47111422 0.98621804
vt 0.48679167 0.9981945
vt 0.46512595 0.9668396
vt 0.47111422 0.94746107
vt 0.5061705 0.9981945
vt 0.48679167 0.9354847
vt 0.5061705 0.9354847
vt 0.5218476 0.98621804
vt 0.5218476 0.94746125
vt 0.5278359 0.9668396
vn 0.7475918 0.38221318 -0.54315704
vn 0.28555465 0.38221318 -0.87884676
vn 0.28555462 -0.38221312 -0.87884676
vn -0.2855547 0.38221323 -0.87884665
vn 0.74759173 -0.38221312 -0.54315716
vn 0.92407423 0.3822132 0
vn -0.2855547 -0.38221318 -0.87884676
vn -0.74759173 0.38221338 -0.54315704
vn -0.7475918 -0.38221323 -0.54315704
vn -0.92407423 0.38221323 0
vn -0.92407423 -0.38221326 0
vn -0.7475917 0.3822131 0.5431572
vn -0.7475917 -0.3822133 0.5431571
vn -0.28555465 0.38221306 0.87884676
vn -0.28555465 -0.38221335 0.87884665
vn 0.28555477 0.38221303 0.87884676
vn 0.2855548 -0.38221338 0.87884665
vn 0.7475919 0.38221312 0.5431569
vn 0.7475918 -0.38221332 0.54315686
vn 0.92407423 -0.38221323 0
vn -0.53752625 -0.7473603 -0.39053568
vn -0.2053168 -0.74736017 -0.63190013
vn -0.66441905 -0.7473602 0
vn 0.20531677 -0.7473601 -0.63190025
vn -0.5375265 -0.74736017 0.39053568
vn 0.5375264 -0.7473601 -0.39053583
vn 0.66441923 -0.74736017 0
vn -0.20531684 -0.7473602 0.63190013
vn 0.53752655 -0.74736017 0.39053553
vn 0.2053169 -0.7473603 0.6319
vn -0.7051582 0.70905006 0
vn -0.57048506 0.70905006 -0.41448134
vn -0.8090171 0 -0.58778507
vn -1 0 0
vn -0.3090172 0 -0.9510565
vn -0.57048506 0.70904994 0.4144817
vn -0.80901706 0 0.5877852
vn -0.217906 0.7090501 -0.6706451
vn 0.309017 0 -0.95105654
vn -0.21790591 0.7090499 0.67064536
vn -0.30901706 0 0.95105654
vn 0.21790585 0.70905006 -0.67064524
vn 0.809017 0 -0.5877853
vn 0.21790595 0.7090499 0.67064536
vn 0.30901712 0 0.9510565
vn 0.57048506 0.70905006 -0.4144814
vn 1 0 0
vn 0.5704851 0.7090499 0.41448164
vn 0.80901706 0 0.5877851
vn 0.70515823 0.70905006 0
vn 0.2798493 0.9382668 -0.20332211
vn 0.1068929 0.9382668 -0.3289824
vn -0.10689293 0.9382668 -0.32898223
vn -0.27984914 0.9382669 -0.20332196
vn -0.34591243 0.9382668 0
vn -0.27984914 0.9382668 0.20332237
vn 0.34591255 0.9382668 0
vn -0.10689284 0.9382668 0.32898244
vn 0.2798491 0.9382668 0.2033223
vn 0.1068929 0.9382668 0.3289825
vn -0.74759173 0.38221338 -0.54315704
vn -0.2855547 0.38221323 -0.87884665
vn -0.92407423 0.38221323 0
vn -0.7475917 0.3822131 0.5431572
vn 0.28555465 0.38221318 -0.87884676
vn -0.28555465 0.38221306 0.87884676
vn 0.28555477 0.38221303 0.87884676
vn 0.7475918 0.38221318 -0.54315704
vn 0.7475919 0.38221312 0.5431569
vn 0.92407423 0.3822132 0
g fcbg_cityforest_006_tire_01_0
f 3/3/3 2/2/2 1/1/1
f 2/2/2 3/3/3 4/4/4
f 5/5/5 3/3/3 1/1/1
f 5/5/5 1/1/1 6/6/6
f 3/3/3 7/7/7 4/4/4
f 4/4/4 7/7/7 8/8/8
f 7/7/7 9/9/9 8/8/8
f 8/8/8 9/9/9 10/10/10
f 9/9/9 11/11/11 10/10/10
f 10/10/10 11/11/11 12/12/12
f 11/11/11 13/13/13 12/12/12
f 12/12/12 13/13/13 14/14/14
f 13/13/13 15/15/15 14/14/14
f 14/14/14 15/15/15 16/16/16
f 15/15/15 17/17/17 16/16/16
f 16/16/16 17/17/17 18/18/18
f 17/17/17 19/19/19 18/18/18
f 18/18/18 19/19/19 6/6/6
f 19/19/19 20/20/20 6/6/6
f 20/20/20 5/5/5 6/6/6
f 21/21/21 9/9/9 7/7/7
f 22/22/22 21/21/21 7/7/7
f 21/21/21 23/23/23 9/9/9
f 22/22/22 7/7/7 3/3/3
f 23/23/23 11/11/11 9/9/9
f 24/24/24 22/22/22 3/3/3
f 3/3/3 5/5/5 24/24/24
f 23/23/23 25/25/25 11/11/11
f 5/5/5 26/26/26 24/24/24
f 26/26/26 5/5/5 20/20/20
f 25/25/25 13/13/13 11/11/11
f 27/27/27 26/26/26 20/20/20
f 27/27/27 20/20/20 19/19/19
f 25/25/25 28/28/28 13/13/13
f 29/29/29 27/27/27 19/19/19
f 28/28/28 15/15/15 13/13/13
f 29/29/29 19/19/19 17/17/17
f 28/28/28 30/30/30 15/15/15
f 30/30/30 17/17/17 15/15/15
f 30/30/30 29/29/29 17/17/17
f 33/33/33 32/32/32 31/31/31
f 34/34/34 33/33/33 31/31/31
f 33/33/33 35/35/35 32/32/32
f 34/34/34 31/31/31 36/36/36
f 37/37/37 34/34/34 36/36/36
f 35/35/35 38/38/38 32/32/32
f 35/35/35 39/39/39 38/38/38
f 36/36/36 40/40/40 37/37/37
f 40/40/40 41/41/41 37/37/37
f 39/39/39 42/42/42 38/38/38
f 39/39/39 43/43/43 42/42/42
f 41/41/41 40/40/40 44/44/44
f 45/45/45 41/41/41 44/44/44
f 43/43/43 46/46/46 42/42/42
f 43/43/43 47/47/47 46/46/46
f 45/45/45 44/44/44 48/48/48
f 49/49/49 45/45/45 48/48/48
f 47/47/47 49/49/49 50/50/50
f 47/47/47 50/50/50 46/46/46
f 49/49/49 48/48/48 50/50/50
f 40/40/40 36/36/36 51/51/51
f 44/44/44 40/40/40 52/52/52
f 52/52/52 40/40/40 51/51/51
f 48/48/48 44/44/44 53/53/53
f 53/53/53 44/44/44 52/52/52
f 50/50/50 48/48/48 54/54/54
f 54/54/54 48/48/48 53/53/53
f 46/46/46 50/50/50 55/55/55
f 55/55/55 50/50/50 54/54/54
f 42/42/42 46/46/46 56/56/56
f 56/56/56 46/46/46 55/55/55
f 51/51/51 36/36/36 57/57/57
f 36/36/36 31/31/31 57/57/57
f 58/58/58 42/42/42 56/56/56
f 38/38/38 42/42/42 58/58/58
f 57/57/57 31/31/31 59/59/59
f 31/31/31 32/32/32 59/59/59
f 32/32/32 38/38/38 60/60/60
f 60/60/60 38/38/38 58/58/58
f 59/59/59 32/32/32 60/60/60
f 55/55/55 54/54/54 61/61/61
f 61/61/61 54/54/54 62/62/62
f 63/63/63 55/55/55 61/61/61
f 56/56/56 55/55/55 63/63/63
f 54/54/54 53/53/53 62/62/62
f 64/64/64 56/56/56 63/63/63
f 58/58/58 56/56/56 64/64/64
f 62/62/62 53/53/53 65/65/65
f 66/66/66 58/58/58 64/64/64
f 60/60/60 58/58/58 66/66/66
f 53/53/53 52/52/52 65/65/65
f 67/67/67 60/60/60 66/66/66
f 59/59/59 60/60/60 67/67/67
f 65/65/65 52/52/52 68/68/68
f 69/69/69 59/59/59 67/67/67
f 52/52/52 51/51/51 68/68/68
f 57/57/57 59/59/59 69/69/69
f 68/68/68 51/51/51 70/70/70
f 70/70/70 57/57/57 69/69/69
f 51/51/51 57/57/57 70/70/70
