g fcbg_OuterRim_car_01
v 0.62490493 0.4437847 -0.59818494
v 0.7624239 0.4437847 -0.54375833
v 0.7544076 0.52975106 -0.53857166
v 0.6249605 0.52975106 -0.5911415
v 0.6249605 0.52975106 -0.5003304
v 0.741024 0.52975106 -0.47604537
v 0.7624239 0.4437847 -0.54375833
v 0.74511826 0.4437847 -0.46268952
v 0.74511826 0.4437847 -0.46268952
v 0.62490493 0.4437847 -0.48681062
v 0.62490493 0.4437847 -0.48681062
v 0.74511826 0.4437847 -0.46268952
v 0.7624239 0.4437847 -0.54375833
v 0.62490493 0.4437847 -0.59818494
v 0.624916 0.4639088 -0.57287145
v 0.624916 0.4639088 -0.513639
v 0.6249466 0.50962424 -0.56912184
v 0.6249605 0.52975106 -0.5003304
v 0.6249605 0.52975106 -0.5911415
v 0.6249466 0.50962424 -0.52082694
v 0.624916 0.4639088 -0.513639
v 0.5712343 0.453516 -0.59983605
v 0.5712343 0.453516 -0.5136723
v 0.624916 0.4639088 -0.57287145
v 0.5712788 0.52001977 -0.59438807
v 0.6249466 0.50962424 -0.56912184
v 0.6249466 0.50962424 -0.56912184
v 0.5712788 0.52001977 -0.52412903
v 0.5712788 0.52001977 -0.59438807
v 0.6249466 0.50962424 -0.52082694
v 0.5712343 0.453516 -0.5136723
v 0.624916 0.4639088 -0.513639
v -0.6249038 0.44379306 -0.59818494
v -0.75440943 0.52975667 -0.53857166
v -0.76242554 0.44379306 -0.54375833
v -0.6249596 0.52975667 -0.5911415
v -0.6249596 0.52975667 -0.5003304
v -0.7410258 0.52975667 -0.47604537
v -0.76242554 0.44379306 -0.54375833
v -0.7451173 0.44379306 -0.46268952
v -0.7451173 0.44379306 -0.46268952
v -0.6249038 0.44379306 -0.48681062
v -0.6249038 0.44379306 -0.48681062
v -0.76242554 0.44379306 -0.54375833
v -0.7451173 0.44379306 -0.46268952
v -0.6249038 0.44379306 -0.59818494
v -0.62491786 0.46391714 -0.57287145
v -0.62491786 0.46391714 -0.513639
v -0.6249455 0.5096326 -0.56912184
v -0.6249596 0.52975667 -0.5003304
v -0.6249596 0.52975667 -0.5911415
v -0.6249455 0.5096326 -0.52082694
v -0.62491786 0.46391714 -0.513639
v -0.571236 0.4535215 -0.5136723
v -0.571236 0.4535215 -0.59983605
v -0.62491786 0.46391714 -0.57287145
v -0.5712806 0.5200254 -0.59438807
v -0.6249455 0.5096326 -0.56912184
v -0.6249455 0.5096326 -0.56912184
v -0.5712806 0.5200254 -0.59438807
v -0.5712806 0.5200254 -0.52412903
v -0.6249455 0.5096326 -0.52082694
v -0.571236 0.4535215 -0.5136723
v -0.62491786 0.46391714 -0.513639
v -0.0010780096 0.022702932 -1.2774243
v 0.5749561 0.02270019 -1.2774243
v 0.40958595 0.0609442 -1.3837231
v -0.0010780096 7.736683E-05 -1.1119679
v -0.0010780096 0.0609442 -1.4334885
v -0.41174185 0.0609442 -1.3837231
v -0.5771092 0.022702932 -1.2774243
v 0.5749561 7.4505806E-05 -1.1119679
v -0.5771121 7.736683E-05 -1.1119679
v 0.5749561 7.4505806E-05 -0.68611646
v -0.5771092 7.736683E-05 -0.68611646
v -0.0010780096 7.736683E-05 -0.68611646
v 0.5749561 7.4505806E-05 1.1556367
v -0.5771092 7.736683E-05 1.1556367
v -0.0010780096 7.736683E-05 1.1556338
v 0.5749561 0.021902442 1.361344
v -0.5771092 0.021905184 1.361344
v -0.0010780096 0.021905184 1.3613411
v 0.4095832 0.17727458 1.4572889
v -0.4117391 0.17727458 1.4572889
v -0.0010780096 0.17727458 1.457286
v 0.5749561 0.02270019 -1.2774243
v 0.40958595 0.36255193 -1.4075273
v 0.40958595 0.0609442 -1.3837231
v -0.0010780096 0.0609442 -1.4334885
v 0.5749561 0.328166 -1.2967505
v 0.5749561 0.47386515 -1.1117316
v 0.5749561 7.4505806E-05 -1.1119679
v 0.5749561 0.5364665 -0.6862138
v 0.5749561 7.4505806E-05 -0.68611646
v 0.5749561 7.4505806E-05 1.1556367
v 0.5749561 0.3812834 -1.2686102
v 0.5749561 0.52360547 1.0643808
v 0.5749561 0.021902442 1.361344
v 0.5749561 0.48387718 1.2884637
v 0.4095832 0.17727458 1.4572889
v 0.4095832 0.5266658 1.4100112
v -0.0010780096 0.17727458 1.457286
v 0.40958595 0.4130844 -1.3785644
v 0.4095887 0.54237306 -1.1117039
v -0.0010780096 0.36255193 -1.4572927
v 0.40958595 0.5991708 -0.70952874
v -0.0010780096 0.5991734 -0.70952874
v -0.0010780096 0.41308725 -1.4283296
v -0.41174185 0.36255193 -1.4075273
v -0.41174185 0.0609442 -1.3837231
v -0.5771092 0.022702932 -1.2774243
v 0.34403825 0.87687147 -0.108156085
v -0.0010780096 0.5423703 -1.1117011
v -0.41174185 0.41308725 -1.3785644
v -0.4117391 0.5423703 -1.1117011
v -0.57711494 0.38128626 -1.2686075
v -0.57711494 0.32816875 -1.2967561
v -0.5771121 0.4738679 -1.1117316
v -0.5771121 7.736683E-05 -1.1119679
v -0.5771121 0.53646934 -0.6862138
v -0.5771092 7.736683E-05 -0.68611646
v -0.5771092 7.736683E-05 1.1556367
v -0.4117391 0.5991734 -0.70952874
v -0.3461914 0.87687147 -0.108156085
v -0.5771092 0.52360547 1.0643808
v -0.5771092 0.021905184 1.361344
v -0.0010780096 0.8768741 -0.108156085
v -0.5771092 0.48387718 1.2884637
v -0.4117391 0.17727458 1.4572889
v -0.4117391 0.5266658 1.4100169
v -0.0010780096 0.5266658 1.4100112
v -0.4117391 0.58514774 1.1581799
v -0.47344267 0.8163687 0.69673073
v 0.4095832 0.58514774 1.1581799
v -0.47344267 0.8163687 -0.09451401
v -0.3461914 0.87687147 0.7101754
v -0.0010780096 0.58514774 1.1581799
v -0.0010780096 0.8768741 0.7101754
v 0.34403825 0.87687147 0.7101754
v 0.47128952 0.81636584 0.69673073
v 0.47128952 0.81636584 -0.09451401
vt 0.11837961 0.37828
vt 0.111892276 0.37828
vt 0.11231471 0.37402555
vt 0.11822873 0.37402555
vt 0.11625236 0.36999738
vt 0.11145476 0.3710082
vt 0.108316705 0.37548897
vt 0.10720028 0.3715815
vt 0.10929735 0.36752313
vt 0.115211375 0.3658334
vt 0.10905596 0.3850389
vt 0.108120576 0.3811616
vt 0.11127372 0.38058832
vt 0.11340096 0.3850389
vt 0.11242031 0.38582343
vt 0.11009695 0.38582343
vt 0.112269446 0.38761875
vt 0.109583996 0.38840327
vt 0.11312939 0.38840327
vt 0.1103836 0.38761875
vt 0.115271725 0.38657779
vt 0.11966198 0.3850389
vt 0.118334346 0.3890822
vt 0.11631271 0.3841639
vt 0.11978268 0.38013572
vt 0.11638814 0.38084477
vt 0.115271725 0.38657779
vt 0.11966198 0.3850389
vt 0.118334346 0.3890822
vt 0.11631271 0.3841639
vt 0.11978268 0.38013572
vt 0.11638814 0.38084477
vt 0.11837961 0.37828
vt 0.11231471 0.37402555
vt 0.111892276 0.37828
vt 0.11822873 0.37402555
vt 0.11625236 0.36999738
vt 0.11145476 0.3710082
vt 0.108316705 0.37548897
vt 0.10720028 0.3715815
vt 0.10929735 0.36752313
vt 0.115211375 0.3658334
vt 0.10905596 0.3850389
vt 0.11127372 0.38058832
vt 0.108120576 0.3811616
vt 0.11340096 0.3850389
vt 0.11242031 0.38582343
vt 0.11009695 0.38582343
vt 0.112269446 0.38761875
vt 0.109583996 0.38840327
vt 0.11312939 0.38840327
vt 0.1103836 0.38761875
vt 0.115271725 0.38657779
vt 0.118334346 0.3890822
vt 0.11966198 0.3850389
vt 0.11631271 0.3841639
vt 0.11978268 0.38013572
vt 0.11638814 0.38084477
vt 0.115271725 0.38657779
vt 0.118334346 0.3890822
vt 0.11966198 0.3850389
vt 0.11631271 0.3841639
vt 0.11978268 0.38013572
vt 0.11638814 0.38084477
vt 0.19796251 0.36437
vt 0.19796251 0.37895894
vt 0.2007234 0.37520233
vt 0.1938589 0.36437
vt 0.20190017 0.36437
vt 0.2007234 0.37520233
vt 0.19796251 0.37895894
vt 0.1938589 0.37895894
vt 0.1938589 0.37895894
vt 0.18338865 0.37895894
vt 0.18338865 0.37895894
vt 0.18338865 0.36437
vt 0.13811314 0.37895894
vt 0.13811314 0.37895894
vt 0.13811314 0.36437
vt 0.13317977 0.37895894
vt 0.13317977 0.37895894
vt 0.13317977 0.36437
vt 0.12928736 0.37520233
vt 0.12928736 0.37520233
vt 0.12928736 0.36437
vt 0.2042688 0.3837867
vt 0.20588309 0.39362332
vt 0.20909658 0.3866381
vt 0.21826935 0.39309528
vt 0.20259416 0.39114907
vt 0.19803794 0.39338192
vt 0.20018028 0.38224787
vt 0.1875677 0.39537337
vt 0.18844274 0.38078442
vt 0.13773598 0.3808297
vt 0.20176439 0.3921448
vt 0.14202063 0.3957807
vt 0.13168617 0.38273063
vt 0.13631782 0.3948906
vt 0.12805025 0.38902184
vt 0.13286294 0.3976364
vt 0.11899816 0.3974101
vt 0.20493262 0.39454362
vt 0.19879228 0.3972894
vt 0.21277775 0.40009555
vt 0.18875957 0.3998089
vt 0.19124888 0.41039982
vt 0.21163116 0.40115163
vt 0.20588309 0.39362332
vt 0.20909658 0.3866381
vt 0.2042688 0.3837867
vt 0.17240547 0.40697512
vt 0.20306185 0.4064622
vt 0.20493262 0.39454362
vt 0.19879228 0.3972894
vt 0.20176439 0.3921448
vt 0.20259416 0.39114907
vt 0.19803794 0.39338192
vt 0.20018028 0.38224787
vt 0.1875677 0.39537337
vt 0.18844274 0.38078442
vt 0.13773598 0.3808297
vt 0.18875957 0.3998089
vt 0.17240547 0.40697512
vt 0.14202063 0.3957807
vt 0.13168617 0.38273063
vt 0.17397448 0.41525778
vt 0.13631782 0.3948906
vt 0.12805025 0.38902184
vt 0.13286294 0.3976364
vt 0.12752222 0.40524015
vt 0.13811314 0.40056324
vt 0.15179688 0.40349007
vt 0.13811314 0.40056324
vt 0.17192268 0.40353534
vt 0.15122359 0.406779
vt 0.13238016 0.40789542
vt 0.14455521 0.41525778
vt 0.15122359 0.406779
vt 0.15179688 0.40349007
vt 0.17192268 0.40353534
vn -0.45885313 -0.5323939 -0.7113442
vn 0.7372129 -0.5478519 -0.39544335
vn 0.68890655 0.6269593 -0.36377162
vn -0.4704466 0.5863819 -0.65942115
vn -0.63082385 0.6230948 0.4624004
vn 0.43771338 0.6366205 0.63491833
vn 0.7372129 -0.5478519 -0.39544335
vn 0.45510364 -0.5188681 0.72364116
vn 0.45510364 -0.5188681 0.72364116
vn -0.62116253 -0.5497842 0.55847514
vn -0.62116253 -0.5497842 0.55847514
vn 0.45510364 -0.5188681 0.72364116
vn 0.7372129 -0.5478519 -0.39544335
vn -0.45885313 -0.5323939 -0.7113442
vn -0.829846 -0.4241876 -0.3625196
vn -0.9071363 -0.24835235 0.33974227
vn -0.80279446 0.4801079 -0.35357812
vn -0.63082385 0.6230948 0.4624004
vn -0.4704466 0.5863819 -0.65942115
vn -0.8665589 0.352579 0.35321906
vn -0.9071363 -0.24835235 0.33974227
vn 0.45510364 -0.5613777 -0.6911843
vn 0.13434929 -0.6908388 0.7104168
vn -0.829846 -0.4241876 -0.3625196
vn 0.42805207 0.6230948 -0.65461767
vn -0.80279446 0.4801079 -0.35357812
vn -0.80279446 0.4801079 -0.35357812
vn 0.116958976 0.7950655 0.59513986
vn 0.42805207 0.6230948 -0.65461767
vn -0.8665589 0.352579 0.35321906
vn 0.13434929 -0.6908388 0.7104168
vn -0.9071363 -0.24835235 0.33974227
vn 0.45896816 -0.5323939 -0.71127003
vn -0.6887914 0.6269593 -0.36398965
vn -0.73709786 -0.5478519 -0.3956577
vn 0.47056168 0.5863819 -0.659339
vn 0.6309389 0.6230948 0.46224344
vn -0.43759823 0.6366205 0.6349977
vn -0.73709786 -0.5478519 -0.3956577
vn -0.4549886 -0.5188681 0.7237135
vn -0.4549886 -0.5188681 0.7237135
vn 0.6212776 -0.5497842 0.5583471
vn 0.6212776 -0.5497842 0.5583471
vn -0.73709786 -0.5478519 -0.3956577
vn -0.4549886 -0.5188681 0.7237135
vn 0.45896816 -0.5323939 -0.71127003
vn 0.8299612 -0.4241876 -0.36225587
vn 0.90725136 -0.24835235 0.33943495
vn 0.8029096 0.4801079 -0.35331646
vn 0.6309389 0.6230948 0.46224344
vn 0.47056168 0.5863819 -0.659339
vn 0.86667407 0.352579 0.3529364
vn 0.90725136 -0.24835235 0.33943495
vn -0.13423419 -0.6908388 0.71043855
vn -0.4549886 -0.5613777 -0.69126004
vn 0.8299612 -0.4241876 -0.36225587
vn -0.42793703 0.6230948 -0.6546929
vn 0.8029096 0.4801079 -0.35331646
vn 0.8029096 0.4801079 -0.35331646
vn -0.42793703 0.6230948 -0.6546929
vn -0.11684394 0.7950655 0.5951624
vn 0.86667407 0.352579 0.3529364
vn -0.13423419 -0.6908388 0.71043855
vn 0.90725136 -0.24835235 0.33943495
vn -0.0009086132 -0.9768126 -0.2140942
vn 0.68310976 -0.60195506 -0.41353497
vn 0.24642009 -0.5691067 -0.784471
vn -0.0009086132 -0.9980674 -0.06213415
vn -0.0009086132 -0.60775185 -0.7941265
vn -0.24630499 -0.5691067 -0.78450716
vn -0.6829947 -0.60195506 -0.4137249
vn 0.6927711 -0.71982265 -0.04385842
vn -0.6926559 -0.71982265 -0.04564124
vn 0.7062968 -0.7062968 -0.04785032
vn -0.70618176 -0.7062968 -0.049519036
vn -0.0009086132 -0.99999964 -0
vn 0.69470334 -0.7178904 0.04495172
vn -0.6945882 -0.7178904 0.04669728
vn -0.0009086132 -0.9980674 0.06213415
vn 0.6425324 -0.57683575 0.50439334
vn -0.6424173 -0.57683575 0.5045399
vn -0.0009086132 -0.8454192 0.5341025
vn 0.23675883 -0.13628155 0.9619629
vn -0.23664367 -0.13628155 0.9619912
vn -0.0009086132 -0.207775 0.97817624
vn 0.68310976 -0.60195506 -0.41353497
vn 0.33916837 0.2095921 -0.9170801
vn 0.24642009 -0.5691067 -0.784471
vn -0.0009086132 -0.60775185 -0.7941265
vn 0.85121596 0.10718262 -0.5137541
vn 0.80097735 0.5670594 -0.19203883
vn 0.6927711 -0.71982265 -0.04385842
vn 0.85121596 0.50909173 -0.12750289
vn 0.7062968 -0.7062968 -0.04785032
vn 0.69470334 -0.7178904 0.04495172
vn 0.8222321 0.4298693 -0.37302372
vn 0.8801998 0.44532728 0.16410954
vn 0.6425324 -0.57683575 0.50439334
vn 0.8087064 0.4549886 0.3727993
vn 0.23675883 -0.13628155 0.9619629
vn 0.28313297 0.6288916 0.7241071
vn -0.0009086132 -0.207775 0.97817624
vn 0.28506517 0.6945882 -0.66051877
vn 0.19811374 0.9399847 -0.2778124
vn -0.0009086132 0.21345663 -0.9769521
vn 0.207775 0.94191694 -0.2638599
vn -0.0009086132 0.9593072 -0.28236306
vn -0.0009086132 0.73130107 -0.6820542
vn -0.33905327 0.2095921 -0.9171227
vn -0.24630499 -0.5691067 -0.78450716
vn -0.6829947 -0.60195506 -0.4137249
vn 0.20391047 0.95737493 -0.20458198
vn -0.0009086132 0.96123946 -0.27571335
vn -0.28495014 0.6945882 -0.6605684
vn -0.1999309 0.9399847 -0.27650756
vn -0.8221171 0.4298693 -0.37327722
vn -0.8511009 0.10718262 -0.5139446
vn -0.8008623 0.5670594 -0.19251809
vn -0.6926559 -0.71982265 -0.04564124
vn -0.8511009 0.50909173 -0.12826842
vn -0.70618176 -0.7062968 -0.049519036
vn -0.6945882 -0.7178904 0.04669728
vn -0.2095921 0.94191694 -0.2624188
vn -0.20379543 0.95737493 -0.2046966
vn -0.88008475 0.44532728 0.16472529
vn -0.6424173 -0.57683575 0.5045399
vn -0.0009086132 0.97669744 -0.2146189
vn -0.80859125 0.4549886 0.37304902
vn -0.23664367 -0.13628155 0.9619912
vn -0.28301787 0.6288916 0.72415215
vn -0.0009086132 0.6733334 0.73933846
vn -0.2405082 0.9071363 0.34533966
vn -0.7100463 0.68685925 0.15510857
vn 0.24062335 0.9071363 0.3452595
vn -0.70231724 0.70231724 -0.11619362
vn -0.22311795 0.9380524 0.26509625
vn -0.0009086132 0.92066205 0.39035955
vn -0.0009086132 0.9593072 0.28236306
vn 0.22323304 0.9380524 0.26499933
vn 0.7101613 0.68685925 0.15458103
vn 0.70243233 0.70231724 -0.115495935
g fcbg_OuterRim_car_01_0
f 3/3/3 2/2/2 1/1/1
f 4/4/4 3/3/3 1/1/1
f 4/4/4 5/5/5 3/3/3
f 5/5/5 6/6/6 3/3/3
f 3/3/3 6/6/6 7/7/7
f 6/6/6 8/8/8 7/7/7
f 6/6/6 5/5/5 9/9/9
f 5/5/5 10/10/10 9/9/9
f 13/13/13 12/12/12 11/11/11
f 14/14/14 13/13/13 11/11/11
f 15/15/15 14/14/14 11/11/11
f 16/16/16 15/15/15 11/11/11
f 15/15/15 17/17/17 14/14/14
f 16/16/16 11/11/11 18/18/18
f 17/17/17 19/19/19 14/14/14
f 20/20/20 16/16/16 18/18/18
f 20/20/20 18/18/18 19/19/19
f 17/17/17 20/20/20 19/19/19
f 23/23/23 22/22/22 21/21/21
f 22/22/22 24/24/24 21/21/21
f 22/22/22 25/25/25 24/24/24
f 25/25/25 26/26/26 24/24/24
f 29/29/29 28/28/28 27/27/27
f 28/28/28 30/30/30 27/27/27
f 28/28/28 31/31/31 30/30/30
f 31/31/31 32/32/32 30/30/30
f 35/35/35 34/34/34 33/33/33
f 34/34/34 36/36/36 33/33/33
f 37/37/37 36/36/36 34/34/34
f 38/38/38 37/37/37 34/34/34
f 38/38/38 34/34/34 39/39/39
f 40/40/40 38/38/38 39/39/39
f 37/37/37 38/38/38 41/41/41
f 42/42/42 37/37/37 41/41/41
f 45/45/45 44/44/44 43/43/43
f 44/44/44 46/46/46 43/43/43
f 46/46/46 47/47/47 43/43/43
f 47/47/47 48/48/48 43/43/43
f 49/49/49 47/47/47 46/46/46
f 43/43/43 48/48/48 50/50/50
f 51/51/51 49/49/49 46/46/46
f 48/48/48 52/52/52 50/50/50
f 52/52/52 49/49/49 51/51/51
f 50/50/50 52/52/52 51/51/51
f 55/55/55 54/54/54 53/53/53
f 56/56/56 55/55/55 53/53/53
f 57/57/57 55/55/55 56/56/56
f 58/58/58 57/57/57 56/56/56
f 61/61/61 60/60/60 59/59/59
f 62/62/62 61/61/61 59/59/59
f 63/63/63 61/61/61 62/62/62
f 64/64/64 63/63/63 62/62/62
f 67/67/67 66/66/66 65/65/65
f 65/65/65 66/66/66 68/68/68
f 69/69/69 67/67/67 65/65/65
f 69/69/69 65/65/65 70/70/70
f 65/65/65 71/71/71 70/70/70
f 65/65/65 68/68/68 71/71/71
f 66/66/66 72/72/72 68/68/68
f 68/68/68 73/73/73 71/71/71
f 72/72/72 74/74/74 68/68/68
f 73/73/73 68/68/68 75/75/75
f 74/74/74 76/76/76 68/68/68
f 68/68/68 76/76/76 75/75/75
f 74/74/74 77/77/77 76/76/76
f 75/75/75 76/76/76 78/78/78
f 77/77/77 79/79/79 76/76/76
f 76/76/76 79/79/79 78/78/78
f 77/77/77 80/80/80 79/79/79
f 78/78/78 79/79/79 81/81/81
f 80/80/80 82/82/82 79/79/79
f 79/79/79 82/82/82 81/81/81
f 80/80/80 83/83/83 82/82/82
f 81/81/81 82/82/82 84/84/84
f 83/83/83 85/85/85 82/82/82
f 82/82/82 85/85/85 84/84/84
f 88/88/88 87/87/87 86/86/86
f 87/87/87 88/88/88 89/89/89
f 87/87/87 90/90/90 86/86/86
f 86/86/86 90/90/90 91/91/91
f 86/86/86 91/91/91 92/92/92
f 92/92/92 91/91/91 93/93/93
f 94/94/94 92/92/92 93/93/93
f 95/95/95 94/94/94 93/93/93
f 96/96/96 90/90/90 87/87/87
f 90/90/90 96/96/96 91/91/91
f 97/97/97 95/95/95 93/93/93
f 98/98/98 95/95/95 97/97/97
f 99/99/99 98/98/98 97/97/97
f 98/98/98 99/99/99 100/100/100
f 99/99/99 101/101/101 100/100/100
f 99/99/99 97/97/97 101/101/101
f 100/100/100 101/101/101 102/102/102
f 103/103/103 96/96/96 87/87/87
f 104/104/104 91/91/91 96/96/96
f 103/103/103 104/104/104 96/96/96
f 103/103/103 87/87/87 105/105/105
f 105/105/105 87/87/87 89/89/89
f 106/106/106 93/93/93 91/91/91
f 104/104/104 106/106/106 91/91/91
f 106/106/106 104/104/104 107/107/107
f 104/104/104 103/103/103 108/108/108
f 108/108/108 103/103/103 105/105/105
f 105/105/105 89/89/89 109/109/109
f 89/89/89 110/110/110 109/109/109
f 109/109/109 110/110/110 111/111/111
f 106/106/106 112/112/112 93/93/93
f 112/112/112 106/106/106 107/107/107
f 104/104/104 113/113/113 107/107/107
f 113/113/113 104/104/104 108/108/108
f 114/114/114 108/108/108 105/105/105
f 109/109/109 114/114/114 105/105/105
f 113/113/113 108/108/108 115/115/115
f 108/108/108 114/114/114 115/115/115
f 107/107/107 113/113/113 115/115/115
f 116/116/116 114/114/114 109/109/109
f 115/115/115 114/114/114 116/116/116
f 117/117/117 109/109/109 111/111/111
f 117/117/117 116/116/116 109/109/109
f 111/111/111 118/118/118 117/117/117
f 118/118/118 116/116/116 117/117/117
f 118/118/118 115/115/115 116/116/116
f 118/118/118 111/111/111 119/119/119
f 120/120/120 118/118/118 119/119/119
f 121/121/121 120/120/120 119/119/119
f 121/121/121 122/122/122 120/120/120
f 123/123/123 115/115/115 118/118/118
f 123/123/123 107/107/107 115/115/115
f 120/120/120 123/123/123 118/118/118
f 107/107/107 123/123/123 124/124/124
f 124/124/124 123/123/123 120/120/120
f 122/122/122 125/125/125 120/120/120
f 122/122/122 126/126/126 125/125/125
f 127/127/127 107/107/107 124/124/124
f 127/127/127 112/112/112 107/107/107
f 126/126/126 128/128/128 125/125/125
f 128/128/128 126/126/126 129/129/129
f 130/130/130 128/128/128 129/129/129
f 125/125/125 128/128/128 130/130/130
f 129/129/129 102/102/102 130/130/130
f 102/102/102 131/131/131 130/130/130
f 101/101/101 131/131/131 102/102/102
f 132/132/132 125/125/125 130/130/130
f 130/130/130 131/131/131 132/132/132
f 125/125/125 133/133/133 120/120/120
f 133/133/133 125/125/125 132/132/132
f 101/101/101 134/134/134 131/131/131
f 97/97/97 134/134/134 101/101/101
f 133/133/133 135/135/135 120/120/120
f 135/135/135 124/124/124 120/120/120
f 135/135/135 133/133/133 136/136/136
f 136/136/136 133/133/133 132/132/132
f 124/124/124 135/135/135 136/136/136
f 131/131/131 137/137/137 132/132/132
f 132/132/132 137/137/137 136/136/136
f 134/134/134 137/137/137 131/131/131
f 136/136/136 138/138/138 124/124/124
f 137/137/137 138/138/138 136/136/136
f 138/138/138 127/127/127 124/124/124
f 112/112/112 127/127/127 138/138/138
f 139/139/139 138/138/138 137/137/137
f 134/134/134 139/139/139 137/137/137
f 139/139/139 112/112/112 138/138/138
f 97/97/97 140/140/140 134/134/134
f 140/140/140 139/139/139 134/134/134
f 140/140/140 97/97/97 93/93/93
f 141/141/141 112/112/112 139/139/139
f 112/112/112 141/141/141 93/93/93
f 141/141/141 140/140/140 93/93/93
f 140/140/140 141/141/141 139/139/139
