g fcbg_cityforest_005_stone_07
v -0.15839672 -9.179115E-05 -0.022408605
v -0.11198902 0.40633416 0.07900667
v -0.11198902 -9.1552734E-05 0.07900679
v -0.15839672 0.40633392 -0.022408724
v -0.09212971 0.4358108 0.070088625
v -0.13031101 0.43581057 -0.022408724
v -0.11198902 -9.179115E-05 -0.12085748
v -0.11198902 0.40633392 -0.1208576
v -0.09212971 0.43581057 -0.10942018
v 0.112083435 0.40633392 -0.12085748
v 0.112083435 -9.179115E-05 -0.12085736
v 0.15849018 -9.179115E-05 -0.022408485
v 0.15849018 0.40633392 -0.022408605
v 0.112083435 -9.1552734E-05 0.07900691
v 0.112083435 0.40633416 0.07900679
v 0.13040447 0.43581057 -0.022408605
v 0.09222412 0.4358108 0.070088744
v 0.09222412 0.43581057 -0.10942006
v 0.1005888 0.4841814 -0.12085259
v 0.1422348 0.4841814 -0.022408605
v 0.13040447 0.43581057 -0.022408605
v 0.10058975 0.48418164 0.078454256
v 0.09222412 0.4358108 0.070088744
v 0.13852787 0.58379865 -0.022411823
v 0.0979681 0.5837989 0.07492018
v 0.0979681 0.58379865 -0.12083733
v -0.10049534 0.4841814 -0.12085271
v -0.09787369 0.58379865 -0.12083745
v -0.14214134 0.4841814 -0.022408724
v -0.13031101 0.43581057 -0.022408724
v -0.09212971 0.4358108 0.070088625
v -0.10049534 0.48418164 0.07845414
v -0.09787369 0.5837989 0.07492006
v -0.13843441 0.58379865 -0.022411942
v 0.0793581 0.6511009 -0.022412658
v 0.056128502 0.6511009 -0.07934821
v -0.056034088 0.6511009 -0.07934821
v -0.07926369 0.6511009 -0.022412777
v 4.673004E-05 0.6717315 -0.022408724
v 0.056128502 0.6511011 0.03281474
v 4.673004E-05 0.5837989 0.115480185
v 4.673004E-05 0.6511011 0.05604434
v -0.056034088 0.6511011 0.03281474
v 4.673004E-05 0.6511011 0.05604434
v 4.673004E-05 0.5837989 0.115480185
vt 0.3928536 0.55916756
vt 0.41544953 0.55312234
vt 0.3928536 0.55312234
vt 0.41544953 0.5591851
vt 0.41734064 0.55312234
vt 0.41734064 0.55919117
vt 0.3928536 0.5656354
vt 0.41544953 0.5656354
vt 0.41734064 0.5657274
vt 0.41544953 0.57669514
vt 0.3928536 0.57669514
vt 0.3928536 0.5831993
vt 0.41544953 0.5831818
vt 0.3928536 0.58924454
vt 0.41544953 0.58924454
vt 0.41734064 0.5831757
vt 0.41734064 0.58924454
vt 0.41734064 0.5766395
vt 0.42005673 0.5769915
vt 0.4233293 0.58293635
vt 0.42109355 0.584413
vt 0.42865437 0.5872529
vt 0.42667767 0.5894069
vt 0.4277064 0.57990766
vt 0.43215948 0.58271337
vt 0.4253432 0.5766861
vt 0.42005673 0.5654474
vt 0.4253432 0.5658939
vt 0.4237041 0.55967325
vt 0.42162564 0.55803376
vt 0.42753538 0.55358225
vt 0.4293021 0.5558669
vt 0.4323706 0.5606529
vt 0.42775825 0.56304187
vt 0.43159825 0.5763707
vt 0.42994034 0.57446927
vt 0.42994034 0.5682235
vt 0.43130007 0.56684566
vt 0.433803 0.57144064
vt 0.43432477 0.57763714
vt 0.4378525 0.5845255
vt 0.43773794 0.5776219
vt 0.43408942 0.565829
vt 0.43744826 0.5661219
vt 0.43812057 0.55933076
vn -0.9999844 0 -0.0055930447
vn -0.66910934 0.2820041 0.68758005
vn -0.681493 0 0.7318246
vn -0.9450723 0.32682016 -0.005204143
vn -0.66124094 0.18613672 0.72671425
vn -0.962665 0.27058694 -0.0076753027
vn -0.5358904 0 -0.8442875
vn -0.53803194 0.28722787 -0.7924783
vn -0.47550306 0.17922406 -0.86126393
vn 0.53803194 0.28722787 -0.7924783
vn 0.5358904 0 -0.8442875
vn 0.9999844 0 -0.0055930447
vn 0.9450723 0.32682016 -0.005204143
vn 0.681493 0 0.7318246
vn 0.66910934 0.2820041 0.68758005
vn 0.962665 0.27058694 -0.0076753027
vn 0.66124094 0.18613672 0.72671425
vn 0.47469717 0.17931269 -0.86168987
vn 0.5535432 -0.1230385 -0.8236816
vn 0.99475336 -0.102232754 -0.0037719465
vn 0.962665 0.27058694 -0.0076753027
vn 0.7034563 -0.09495619 0.7043668
vn 0.66124094 0.18613672 0.72671425
vn 0.9390778 0.34370455 0.00038998245
vn 0.6629445 0.34786373 0.6629445
vn 0.5319033 0.32242087 -0.7830221
vn -0.5535432 -0.1230385 -0.8236816
vn -0.53264916 0.32224232 -0.7825885
vn -0.99475336 -0.102232754 -0.0037719465
vn -0.962665 0.27058694 -0.0076753027
vn -0.66124094 0.18613672 0.72671425
vn -0.7034563 -0.09495619 0.7043668
vn -0.6629445 0.34786373 0.6629445
vn -0.9389548 0.34404054 0.00039036368
vn 0.57340837 0.8192663 0.0023415042
vn 0.31008646 0.7970678 -0.51819813
vn -0.31008646 0.7970678 -0.51819813
vn -0.57340837 0.8192663 0.0023415042
vn -0 0.9997861 -0.020682538
vn 0.40481707 0.8195205 0.4055976
vn -0 0.34993988 0.9367721
vn -0 0.81947625 0.5731131
vn -0.40481707 0.8195205 0.4055976
vn -0 0.81947625 0.5731131
vn -0 0.34993988 0.9367721
g fcbg_cityforest_005_stone_07_0
f 3/3/3 2/2/2 1/1/1
f 2/2/2 4/4/4 1/1/1
f 2/2/2 5/5/5 4/4/4
f 5/5/5 6/6/6 4/4/4
f 1/1/1 4/4/4 7/7/7
f 4/4/4 6/6/6 8/8/8
f 4/4/4 8/8/8 7/7/7
f 6/6/6 9/9/9 8/8/8
f 8/8/8 10/10/10 7/7/7
f 8/8/8 9/9/9 10/10/10
f 10/10/10 11/11/11 7/7/7
f 11/11/11 10/10/10 12/12/12
f 10/10/10 13/13/13 12/12/12
f 12/12/12 13/13/13 14/14/14
f 13/13/13 15/15/15 14/14/14
f 13/13/13 16/16/16 15/15/15
f 16/16/16 17/17/17 15/15/15
f 18/18/18 16/16/16 13/13/13
f 10/10/10 18/18/18 13/13/13
f 9/9/9 18/18/18 10/10/10
f 19/19/19 18/18/18 9/9/9
f 19/19/19 20/20/20 18/18/18
f 20/20/20 21/21/21 18/18/18
f 20/20/20 22/22/22 21/21/21
f 22/22/22 23/23/23 21/21/21
f 22/22/22 20/20/20 24/24/24
f 25/25/25 22/22/22 24/24/24
f 20/20/20 19/19/19 26/26/26
f 24/24/24 20/20/20 26/26/26
f 27/27/27 19/19/19 9/9/9
f 26/26/26 19/19/19 28/28/28
f 19/19/19 27/27/27 28/28/28
f 29/29/29 27/27/27 9/9/9
f 30/30/30 29/29/29 9/9/9
f 29/29/29 30/30/30 31/31/31
f 32/32/32 29/29/29 31/31/31
f 29/29/29 32/32/32 33/33/33
f 27/27/27 29/29/29 34/34/34
f 28/28/28 27/27/27 34/34/34
f 34/34/34 29/29/29 33/33/33
f 25/25/25 24/24/24 35/35/35
f 24/24/24 26/26/26 36/36/36
f 35/35/35 24/24/24 36/36/36
f 26/26/26 28/28/28 37/37/37
f 36/36/36 26/26/26 37/37/37
f 28/28/28 34/34/34 38/38/38
f 37/37/37 28/28/28 38/38/38
f 39/39/39 36/36/36 37/37/37
f 39/39/39 35/35/35 36/36/36
f 39/39/39 37/37/37 38/38/38
f 40/40/40 25/25/25 35/35/35
f 39/39/39 40/40/40 35/35/35
f 41/41/41 25/25/25 40/40/40
f 42/42/42 41/41/41 40/40/40
f 39/39/39 42/42/42 40/40/40
f 38/38/38 34/34/34 43/43/43
f 39/39/39 38/38/38 43/43/43
f 34/34/34 33/33/33 43/43/43
f 39/39/39 43/43/43 44/44/44
f 43/43/43 33/33/33 44/44/44
f 33/33/33 45/45/45 44/44/44
