g fcbg_desertcrystal_lamp_01
v 0.15891118 0.3038137 0.09174734
v -4.7683716E-07 0.3038137 0.18349421
v 1.013279E-06 0.55095965 0.28396225
v 0.24592003 0.55095965 0.14198059
v 0.15891118 0.3038137 -0.09174639
v 0.1346552 0.80513823 0.0777432
v -4.7683716E-07 0.80513823 0.15548593
v 0.1346567 0.80513823 -0.07774225
v 0.24592003 0.55095965 -0.14198114
v -4.7683716E-07 0.3038137 -0.18349326
v -4.7683716E-07 0.80513823 -0.15548497
v 1.013279E-06 0.55095965 -0.28396127
v -0.15891063 0.3038137 -0.09174639
v -0.1346547 0.80513823 -0.07774225
v -0.24591804 0.55095965 -0.14198114
v -0.15891063 0.3038137 0.09174883
v -0.1346547 0.80513823 0.0777432
v -0.24591804 0.55095965 0.14198208
v -4.7683716E-07 0.3038137 0.18349421
v -4.7683716E-07 0.80513823 0.15548593
v 1.013279E-06 0.55095965 0.28396225
v 0.16478832 0.79212725 0.095140815
v -4.7683716E-07 0.79212725 0.19028115
v -4.7683716E-07 0.8808454 0.19028115
v 0.16478832 0.8808454 0.095140815
v 0.16478832 0.79212725 -0.09513986
v 0.098683685 0.94155395 0.05697599
v -4.7683716E-07 0.94155395 0.113952965
v 0.098683685 0.94155395 -0.056975007
v 0.16478832 0.8808454 -0.09513986
v -4.7683716E-07 0.79212725 -0.19028166
v -4.7683716E-07 0.94155395 -0.11395201
v -4.7683716E-07 0.8808454 -0.19028166
v -0.16478926 0.79212725 -0.09513986
v -0.09868613 0.94155395 -0.056975007
v -0.16478926 0.8808454 -0.09513986
v -0.16478926 0.79212725 0.095142305
v -0.09868613 0.94155395 0.05697745
v -0.16478926 0.8808454 0.095142305
v -4.7683716E-07 0.79212725 0.19028115
v -4.7683716E-07 0.94155395 0.113952965
v -4.7683716E-07 0.8808454 0.19028115
v -0.33244145 0.24453026 -0.048291117
v -0.27496862 0.3097757 -0.03953722
v -0.27496862 0.87657654 -0.03953722
v -0.3328405 0.9433943 -0.047796756
v 0.27496913 0.87657654 -0.0395402
v 0.33283952 0.9433943 -0.047802716
v 0.33283952 0.9433943 0.0477992
v -0.3328405 0.9433943 0.04780516
v -0.3328405 0.9433943 0.04780516
v -0.33244145 0.24453026 0.04829952
v 0.33244047 0.24453175 0.04829356
v 0.27496913 0.3097757 0.039538175
v 0.27496913 0.87657654 0.039538175
v 0.33283952 0.9433943 0.0477992
v 0.33283952 0.9433943 0.0477992
v 0.27496913 0.87657654 0.039538175
v -0.27496862 0.87657654 0.039541155
v -0.3328405 0.9433943 0.04780516
v -0.27496862 0.3097757 0.039541155
v -0.33244145 0.24453026 0.04829952
v 0.27496913 0.3097757 0.039538175
v 0.33244047 0.24453175 0.04829356
v 0.27496913 0.3097757 -0.0395402
v 0.33283952 0.9433943 -0.047802716
v 0.27496913 0.87657654 -0.0395402
v 0.33244047 0.24453026 -0.048297077
v 0.33244047 0.24453175 0.04829356
v 0.33283952 0.9433943 0.0477992
v 0.33244047 0.24453026 -0.048297077
v 0.27496913 0.3097757 -0.0395402
v -0.27496862 0.3097757 -0.03953722
v -0.33244145 0.24453026 -0.048291117
v -0.27496862 0.3097757 -0.03953722
v 0.27496913 0.3097757 -0.0395402
v 0.27496913 0.3097757 0.039538175
v -0.27496862 0.3097757 0.039541155
v 0.27496913 0.3097757 -0.0395402
v 0.27496913 0.87657654 -0.0395402
v 0.27496913 0.87657654 0.039538175
v 0.27496913 0.3097757 0.039538175
v -0.27496862 0.87657654 -0.03953722
v -0.27496862 0.3097757 -0.03953722
v -0.27496862 0.3097757 0.039541155
v -0.27496862 0.87657654 0.039541155
v -0.060886115 1.0497469 -0.014648408
v -0.044603795 1.0524405 -0.014648408
v -0.07461926 1.1720543 -0.014648408
v -0.10643941 1.1936091 -0.014648408
v 0.07461533 1.1720543 -0.014648408
v 0.10643548 1.1936091 -0.014648408
v 0.10643548 1.1936091 0.014649361
v -0.10643941 1.1936091 0.014649361
v -0.10643941 1.1936091 0.014649361
v -0.060886115 1.0497469 0.014649361
v 0.06088516 1.0497469 0.014649361
v 0.04460135 1.0524405 0.014649361
v 0.07461533 1.1720543 0.014649361
v 0.10643548 1.1936091 0.014649361
v 0.10643548 1.1936091 0.014649361
v 0.07461533 1.1720543 0.014649361
v -0.07461926 1.1720543 0.014649361
v -0.10643941 1.1936091 0.014649361
v -0.044603795 1.0524405 0.014649361
v -0.060886115 1.0497469 0.014649361
v 0.04460135 1.0524405 -0.014648408
v 0.10643548 1.1936091 -0.014648408
v 0.07461533 1.1720543 -0.014648408
v 0.06088367 1.0497469 -0.014648408
v 0.06088516 1.0497469 0.014649361
v 0.10643548 1.1936091 0.014649361
v 0.04460135 1.0524405 -0.014648408
v 0.07461533 1.1720543 -0.014648408
v 0.07461533 1.1720543 0.014649361
v 0.04460135 1.0524405 0.014649361
v 0.07461533 1.1720543 -0.014648408
v -0.07461926 1.1720543 -0.014648408
v -0.07461926 1.1720543 0.014649361
v 0.07461533 1.1720543 0.014649361
v -0.07461926 1.1720543 -0.014648408
v -0.044603795 1.0524405 -0.014648408
v -0.044603795 1.0524405 0.014649361
v -0.07461926 1.1720543 0.014649361
v -0.14429599 0.39534765 0.083309114
v -1.9669533E-06 0.39534765 4.7683716E-07
v -1.9669533E-06 0.39534765 0.16661626
v 0.14429209 0.39534765 0.083307624
v -0.14429599 0.39534765 -0.08330816
v -1.9669533E-06 0.39534765 -0.16661532
v 0.14429209 0.39534765 -0.08330816
v -0.12495378 0.35182238 -0.072140604
v -1.9669533E-06 0.35182238 -0.14428166
v -1.9669533E-06 0.39534765 -0.16661532
v 0.12494984 0.35182238 -0.072140604
v 0.12494984 0.35182238 0.07214156
v -0.12495378 0.35182238 0.07214156
v -1.9669533E-06 0.39534765 0.16661626
v -1.9669533E-06 0.35182238 0.14428264
v -4.7683716E-07 0.22460282 -0.31318757
v 0.27122873 0.22460282 -0.15659429
v 0.27122873 0.22460282 0.15659374
v -0.27123117 0.22460282 -0.15659429
v -0.27122968 0.22460282 0.15659523
v -4.7683716E-07 0.22460282 0.3131885
v 0.31846315 0.00015980005 -0.18386403
v 0.31846315 0.00015980005 0.18386501
v -4.7683716E-07 0.00015980005 -0.36773002
v -4.7683716E-07 0.00015980005 0.36772949
v -0.3184641 0.00015980005 -0.18386552
v -0.3184641 0.00015980005 0.1838665
v 0.17941487 0.9727576 0.103586465
v 0.17941487 1.0632925 -0.10358551
v 0.17941487 0.9727576 -0.10358551
v 0.17941487 1.0632925 0.103586465
v -4.7683716E-07 0.9727576 0.20717245
v -4.7683716E-07 1.0632925 -0.20717151
v -4.7683716E-07 0.9727576 -0.20717151
v -4.7683716E-07 1.0632925 0.20717245
v -0.1794188 0.9727576 0.103587955
v -4.7683716E-07 1.0575553 4.7683716E-07
v -0.1794188 1.0632925 -0.10358551
v -0.1794188 0.9727576 -0.10358551
v -0.1794188 1.0632925 0.103587955
vt 0.02728329 0.25398853
vt 0.036810644 0.25333303
vt 0.040667314 0.26926276
vt 0.028075965 0.26866826
vt 0.016917532 0.25398853
vt 0.026566833 0.28415594
vt 0.0346003 0.2853602
vt 0.017633988 0.28415594
vt 0.016124856 0.26866826
vt 0.0074054245 0.25333303
vt 0.009600527 0.2853602
vt 0.0035335089 0.26926276
vt 0.016917532 0.25398853
vt 0.017633988 0.28415594
vt 0.016124856 0.26866826
vt 0.02728329 0.25398853
vt 0.026566833 0.28415594
vt 0.028075965 0.26866826
vt 0.0367954 0.25333303
vt 0.0346003 0.2853602
vt 0.040667314 0.26926276
vt 0.02469185 0.40282863
vt 0.035286266 0.4076914
vt 0.032496657 0.41378888
vt 0.02347235 0.40865174
vt 0.012405379 0.40282863
vt 0.02149066 0.41564864
vt 0.026155252 0.41840774
vt 0.015591325 0.41564864
vt 0.013609636 0.40865174
vt 0.0017957198 0.4076914
vt 0.010926734 0.41840774
vt 0.0045853285 0.41378888
vt 0.012405379 0.40282863
vt 0.015591325 0.41564864
vt 0.013609636 0.40865174
vt 0.02469185 0.40282863
vt 0.02149066 0.41564864
vt 0.02347235 0.40865174
vt 0.035286266 0.40767613
vt 0.026155252 0.41840774
vt 0.032496657 0.41378888
vt 0.055621445 0.23863806
vt 0.0509721 0.2439124
vt 0.0509721 0.28964368
vt 0.055621445 0.2950552
vt 0.006688968 0.28964368
vt 0.0020243763 0.2950552
vt 0.0020243763 0.30272284
vt 0.055621445 0.30272284
vt 0.06335004 0.2950552
vt 0.06335004 0.23863806
vt 0.055621445 0.23863806
vt 0.0509721 0.2439124
vt 0.0509721 0.28964368
vt 0.055621445 0.2950552
vt 0.0020243763 0.2950552
vt 0.006688968 0.28964368
vt 0.0509721 0.28964368
vt 0.055621445 0.2950552
vt 0.0509721 0.2439124
vt 0.055621445 0.23863806
vt 0.0066432366 0.2439124
vt 0.0020091324 0.23863806
vt 0.0509721 0.2439124
vt 0.055621445 0.2950552
vt 0.0509721 0.28964368
vt 0.055621445 0.23863806
vt 0.06335004 0.23863806
vt 0.06335004 0.2950552
vt 0.0020091324 0.23863806
vt 0.0066432366 0.2439124
vt 0.0509721 0.2439124
vt 0.055621445 0.23863806
vt 0.04793859 0.2439124
vt 0.008701145 0.2439124
vt 0.008701145 0.24946113
vt 0.04793859 0.24946113
vt 0.044554476 0.2517477
vt 0.044554476 0.2869303
vt 0.049462967 0.2869303
vt 0.049462967 0.2517477
vt 0.049462967 0.2869303
vt 0.049462967 0.2517477
vt 0.044554476 0.2517477
vt 0.044554476 0.2869303
vt 0.031261913 0.3724478
vt 0.027771091 0.3724478
vt 0.027771091 0.38845375
vt 0.031261913 0.39075556
vt 0.011749897 0.38845375
vt 0.00832005 0.39075556
vt 0.00832005 0.39391103
vt 0.031261913 0.39391103
vt 0.03488993 0.39075556
vt 0.03488993 0.3724478
vt 0.031261913 0.3724478
vt 0.027771091 0.3724478
vt 0.027771091 0.38845375
vt 0.031261913 0.39075556
vt 0.00832005 0.39075556
vt 0.011749897 0.38845375
vt 0.027771091 0.38845375
vt 0.031261913 0.39075556
vt 0.027771091 0.3724478
vt 0.031261913 0.3724478
vt 0.027771091 0.3724478
vt 0.031261913 0.39075556
vt 0.027771091 0.38845375
vt 0.031261913 0.3724478
vt 0.03488993 0.3724478
vt 0.03488993 0.39075556
vt 0.040423416 0.3733472
vt 0.040423416 0.3883013
vt 0.03687162 0.3883013
vt 0.03687162 0.3733472
vt 0.015606569 0.3984689
vt 0.031643007 0.3984689
vt 0.031643007 0.39531344
vt 0.015606569 0.39531344
vt 0.040423416 0.3883013
vt 0.040423416 0.3733472
vt 0.03687162 0.3733472
vt 0.03687162 0.3883013
vt 0.037740514 0.33596948
vt 0.04696299 0.34083223
vt 0.046597138 0.33034453
vt 0.037740514 0.33596948
vt 0.037740514 0.345695
vt 0.046597138 0.35131994
vt 0.037740514 0.345695
vt 0.03429542 0.34624377
vt 0.038441725 0.3552376
vt 0.041795354 0.35456687
vt 0.034280177 0.34624377
vt 0.034280177 0.33543596
vt 0.03429542 0.33543596
vt 0.041795354 0.32711285
vt 0.038441725 0.32644212
vt 0.028990591 0.36677712
vt 0.020454085 0.34990227
vt 0.020454085 0.3317622
vt 0.020454085 0.34990227
vt 0.020454085 0.3317622
vt 0.028990591 0.31488734
vt 0.0040365527 0.3531797
vt 0.0040365527 0.3284848
vt 0.013411467 0.37529838
vt 0.013411467 0.3063661
vt 0.0040365527 0.3531797
vt 0.0040365527 0.3284848
vt 0.02315223 0.42698997
vt 0.013426711 0.43168506
vt 0.013091348 0.42698997
vt 0.022801625 0.43168506
vt 0.03363994 0.42788938
vt 0.004676791 0.43659356
vt 0.0026036394 0.42788938
vt 0.031566788 0.43659356
vt 0.02315223 0.42698997
vt 0.018121788 0.44153252
vt 0.013426711 0.43168506
vt 0.013091348 0.42698997
vt 0.022816868 0.43168506
vn 0.8021833 -0.37717447 0.4628622
vn -0.00040847063 -0.37717447 0.9261421
vn -0.00040847063 0.03688991 0.99931926
vn 0.8660258 0.03688991 0.49863657
vn 0.8021833 -0.37717447 -0.4628622
vn 0.7729981 0.45095432 0.44622207
vn -0.00040847063 0.45095432 0.89254695
vn 0.7729981 0.45095432 -0.44622207
vn 0.8660258 0.03688991 -0.49863657
vn -0.00040847063 -0.37717447 -0.9261421
vn -0.00040847063 0.45095432 -0.89254695
vn -0.00040847063 0.03688991 -0.99931926
vn -0.8030002 -0.37717447 -0.46144345
vn -0.771991 0.45095432 -0.4479621
vn -0.8650186 0.03688991 -0.5003818
vn -0.8030002 -0.37717447 0.46144345
vn -0.771991 0.45095432 0.4479621
vn -0.8650186 0.03688991 0.5003818
vn -0.00040847063 -0.37717447 0.9261421
vn -0.00040847063 0.45095432 0.89254695
vn -0.00040847063 0.03688991 0.99931926
vn 0.8660258 0.00040847063 0.4999991
vn -0.00040847063 0.00040847063 0.9999998
vn -0.00040847063 0.38711178 0.92203265
vn 0.7985351 0.38711178 0.4609622
vn 0.8660258 0.00040847063 -0.4999991
vn 0.5395169 0.7829354 0.30973163
vn -0.00040847063 0.7829354 0.6221029
vn 0.5395169 0.7829354 -0.30973163
vn 0.7985351 0.38711178 -0.4609622
vn -0.00040847063 0.00040847063 -0.9999998
vn -0.00040847063 0.7829354 -0.6221029
vn -0.00040847063 0.38711178 -0.92203265
vn -0.86684275 0.00040847063 -0.4985815
vn -0.5385097 0.7829354 -0.3114795
vn -0.7975279 0.38711178 -0.4627026
vn -0.86684275 0.00040847063 0.4985815
vn -0.5385097 0.7829354 0.3114795
vn -0.7975279 0.38711178 0.4627026
vn -0.00040847063 0.00040847063 0.9999998
vn -0.00040847063 0.7829354 0.6221029
vn -0.00040847063 0.38711178 0.92203265
vn -0.68261147 0.05330652 -0.7288347
vn 0.35710967 0.34880626 -0.86649114
vn 0.38082263 -0.05431372 -0.9230516
vn -0.56404674 0.56404674 -0.60307753
vn -0.38163948 -0.05431372 -0.9227141
vn 0.56505394 0.56404674 -0.6021339
vn 0.56505394 0.56404674 0.6021339
vn -0.56404674 0.56404674 0.60307753
vn -0.56404674 0.56404674 0.60307753
vn -0.68261147 0.05330652 0.7288347
vn 0.6817945 0.05330652 0.729599
vn -0.3579266 0.34880626 0.86615396
vn -0.38163948 -0.05431372 0.9227141
vn 0.56505394 0.56404674 0.6021339
vn 0.56505394 0.56404674 0.6021339
vn -0.38163948 -0.05431372 0.9227141
vn 0.38082263 -0.05431372 0.9230516
vn -0.56404674 0.56404674 0.60307753
vn 0.35710967 0.34880626 0.86649114
vn -0.68261147 0.05330652 0.7288347
vn -0.3579266 0.34880626 0.86615396
vn 0.6817945 0.05330652 0.729599
vn -0.3579266 0.34880626 -0.86615396
vn 0.56505394 0.56404674 -0.6021339
vn -0.38163948 -0.05431372 -0.9227141
vn 0.6817945 0.05330652 -0.729599
vn 0.6817945 0.05330652 0.729599
vn 0.56505394 0.56404674 0.6021339
vn 0.6817945 0.05330652 -0.729599
vn -0.3579266 0.34880626 -0.86615396
vn 0.35710967 0.34880626 -0.86649114
vn -0.68261147 0.05330652 -0.7288347
vn 0.35710967 0.34880626 -0.86649114
vn -0.3579266 0.34880626 -0.86615396
vn -0.3579266 0.34880626 0.86615396
vn 0.35710967 0.34880626 0.86649114
vn -0.3579266 0.34880626 -0.86615396
vn -0.38163948 -0.05431372 -0.9227141
vn -0.38163948 -0.05431372 0.9227141
vn -0.3579266 0.34880626 0.86615396
vn 0.38082263 -0.05431372 -0.9230516
vn 0.35710967 0.34880626 -0.86649114
vn 0.35710967 0.34880626 0.86649114
vn 0.38082263 -0.05431372 0.9230516
vn -0.64430594 -0.20388764 -0.7370886
vn 0.7036834 0.17734349 -0.6880254
vn 0.28597087 -0.22395241 -0.9317006
vn -0.6661948 0.4874357 -0.56443864
vn -0.28678775 -0.22395241 -0.9314495
vn 0.66720194 0.4874357 -0.56324774
vn 0.66720194 0.4874357 0.56324774
vn -0.6661948 0.4874357 0.56443864
vn -0.6661948 0.4874357 0.56443864
vn -0.64430594 -0.20388764 0.7370886
vn 0.643489 -0.20388764 0.7378019
vn -0.7045003 0.17734349 0.68718886
vn -0.28678775 -0.22395241 0.9314495
vn 0.66720194 0.4874357 0.56324774
vn 0.66720194 0.4874357 0.56324774
vn -0.28678775 -0.22395241 0.9314495
vn 0.28597087 -0.22395241 0.9317006
vn -0.6661948 0.4874357 0.56443864
vn 0.7036834 0.17734349 0.6880254
vn -0.64430594 -0.20388764 0.7370886
vn -0.7045003 0.17734349 -0.68718886
vn 0.66720194 0.4874357 -0.56324774
vn -0.28678775 -0.22395241 -0.9314495
vn 0.643489 -0.20388764 -0.7378019
vn 0.643489 -0.20388764 0.7378019
vn 0.66720194 0.4874357 0.56324774
vn -0.7045003 0.17734349 -0.68718886
vn -0.28678775 -0.22395241 -0.9314495
vn -0.28678775 -0.22395241 0.9314495
vn -0.7045003 0.17734349 0.68718886
vn -0.28678775 -0.22395241 -0.9314495
vn 0.28597087 -0.22395241 -0.9317006
vn 0.28597087 -0.22395241 0.9317006
vn -0.28678775 -0.22395241 0.9314495
vn 0.28597087 -0.22395241 -0.9317006
vn 0.7036834 0.17734349 -0.6880254
vn 0.7036834 0.17734349 0.6880254
vn 0.28597087 -0.22395241 0.9317006
vn -0.7829354 0.42906535 0.450461
vn -0.00040847063 1 -0
vn -0.00040847063 0.42906535 0.90327334
vn 0.7821185 0.42906535 0.45187783
vn -0.7829354 0.42906535 -0.450461
vn -0.00040847063 0.42906535 -0.90327334
vn 0.7821185 0.42906535 -0.45187783
vn -0.83036125 0.28678775 -0.4777583
vn -0.00040847063 0.28678775 -0.95799404
vn -0.00040847063 0.42906535 -0.90327334
vn 0.82954437 0.28678775 -0.47917527
vn 0.82954437 0.28678775 0.47917527
vn -0.83036125 0.28678775 0.4777583
vn -0.00040847063 0.42906535 0.90327334
vn -0.00040847063 0.28678775 0.95799404
vn -0.00040847063 0.5056764 -0.8627231
vn 0.74746114 0.5056764 -0.43080533
vn 0.74746114 0.5056764 0.43080533
vn -0.748278 0.5056764 -0.4293849
vn -0.748278 0.5056764 0.4293849
vn -0.00040847063 0.5056764 0.8627231
vn 0.8423129 0.23571372 -0.48471445
vn 0.8423129 0.23571372 0.48471445
vn -0.00040847063 0.23571372 -0.97182244
vn -0.00040847063 0.23571372 0.97182244
vn -0.84130573 0.23571372 -0.4864604
vn -0.84130573 0.23571372 0.4864604
vn 0.8660258 0.00040847063 0.4999991
vn 0.67997044 0.61876893 -0.3934021
vn 0.8660258 0.00040847063 -0.4999991
vn 0.67997044 0.61876893 0.3934021
vn -0.00040847063 0.00040847063 0.9999998
vn -0.00040847063 0.61876893 -0.7855729
vn -0.00040847063 0.00040847063 -0.9999998
vn -0.00040847063 0.61876893 0.7855729
vn -0.86684275 0.00040847063 0.4985815
vn -0.00040847063 1 -0
vn -0.6807873 0.61876893 -0.39198673
vn -0.86684275 0.00040847063 -0.4985815
vn -0.6807873 0.61876893 0.39198673
g fcbg_desertcrystal_lamp_01_0
f 3/3/3 2/2/2 1/1/1
f 4/4/4 3/3/3 1/1/1
f 4/4/4 1/1/1 5/5/5
f 3/3/3 4/4/4 6/6/6
f 7/7/7 3/3/3 6/6/6
f 6/6/6 4/4/4 8/8/8
f 9/9/9 4/4/4 5/5/5
f 4/4/4 9/9/9 8/8/8
f 9/9/9 5/5/5 10/10/10
f 8/8/8 9/9/9 11/11/11
f 12/12/12 9/9/9 10/10/10
f 9/9/9 12/12/12 11/11/11
f 12/12/12 10/10/10 13/13/13
f 11/11/11 12/12/12 14/14/14
f 15/15/15 12/12/12 13/13/13
f 12/12/12 15/15/15 14/14/14
f 15/15/15 13/13/13 16/16/16
f 14/14/14 15/15/15 17/17/17
f 18/18/18 15/15/15 16/16/16
f 15/15/15 18/18/18 17/17/17
f 18/18/18 16/16/16 19/19/19
f 17/17/17 18/18/18 20/20/20
f 21/21/21 18/18/18 19/19/19
f 18/18/18 21/21/21 20/20/20
f 24/24/24 23/23/23 22/22/22
f 25/25/25 24/24/24 22/22/22
f 25/25/25 22/22/22 26/26/26
f 24/24/24 25/25/25 27/27/27
f 28/28/28 24/24/24 27/27/27
f 27/27/27 25/25/25 29/29/29
f 30/30/30 25/25/25 26/26/26
f 25/25/25 30/30/30 29/29/29
f 30/30/30 26/26/26 31/31/31
f 29/29/29 30/30/30 32/32/32
f 33/33/33 30/30/30 31/31/31
f 30/30/30 33/33/33 32/32/32
f 33/33/33 31/31/31 34/34/34
f 32/32/32 33/33/33 35/35/35
f 36/36/36 33/33/33 34/34/34
f 33/33/33 36/36/36 35/35/35
f 36/36/36 34/34/34 37/37/37
f 35/35/35 36/36/36 38/38/38
f 39/39/39 36/36/36 37/37/37
f 36/36/36 39/39/39 38/38/38
f 39/39/39 37/37/37 40/40/40
f 38/38/38 39/39/39 41/41/41
f 42/42/42 39/39/39 40/40/40
f 39/39/39 42/42/42 41/41/41
f 45/45/45 44/44/44 43/43/43
f 46/46/46 45/45/45 43/43/43
f 45/45/45 46/46/46 47/47/47
f 46/46/46 48/48/48 47/47/47
f 48/48/48 46/46/46 49/49/49
f 46/46/46 50/50/50 49/49/49
f 51/51/51 46/46/46 43/43/43
f 52/52/52 51/51/51 43/43/43
f 55/55/55 54/54/54 53/53/53
f 56/56/56 55/55/55 53/53/53
f 59/59/59 58/58/58 57/57/57
f 60/60/60 59/59/59 57/57/57
f 59/59/59 60/60/60 61/61/61
f 60/60/60 62/62/62 61/61/61
f 61/61/61 62/62/62 63/63/63
f 62/62/62 64/64/64 63/63/63
f 67/67/67 66/66/66 65/65/65
f 66/66/66 68/68/68 65/65/65
f 68/68/68 66/66/66 69/69/69
f 66/66/66 70/70/70 69/69/69
f 73/73/73 72/72/72 71/71/71
f 74/74/74 73/73/73 71/71/71
f 77/77/77 76/76/76 75/75/75
f 78/78/78 77/77/77 75/75/75
f 81/81/81 80/80/80 79/79/79
f 82/82/82 81/81/81 79/79/79
f 85/85/85 84/84/84 83/83/83
f 86/86/86 85/85/85 83/83/83
f 89/89/89 88/88/88 87/87/87
f 90/90/90 89/89/89 87/87/87
f 89/89/89 90/90/90 91/91/91
f 90/90/90 92/92/92 91/91/91
f 92/92/92 90/90/90 93/93/93
f 90/90/90 94/94/94 93/93/93
f 95/95/95 90/90/90 87/87/87
f 96/96/96 95/95/95 87/87/87
f 99/99/99 98/98/98 97/97/97
f 100/100/100 99/99/99 97/97/97
f 103/103/103 102/102/102 101/101/101
f 104/104/104 103/103/103 101/101/101
f 103/103/103 104/104/104 105/105/105
f 104/104/104 106/106/106 105/105/105
f 109/109/109 108/108/108 107/107/107
f 108/108/108 110/110/110 107/107/107
f 110/110/110 108/108/108 111/111/111
f 108/108/108 112/112/112 111/111/111
f 115/115/115 114/114/114 113/113/113
f 116/116/116 115/115/115 113/113/113
f 119/119/119 118/118/118 117/117/117
f 120/120/120 119/119/119 117/117/117
f 123/123/123 122/122/122 121/121/121
f 124/124/124 123/123/123 121/121/121
f 127/127/127 126/126/126 125/125/125
f 128/128/128 126/126/126 127/127/127
f 125/125/125 126/126/126 129/129/129
f 129/129/129 126/126/126 130/130/130
f 130/130/130 126/126/126 131/131/131
f 131/131/131 126/126/126 128/128/128
f 125/125/125 129/129/129 132/132/132
f 132/132/132 129/129/129 133/133/133
f 129/129/129 134/134/134 133/133/133
f 134/134/134 131/131/131 135/135/135
f 133/133/133 134/134/134 135/135/135
f 131/131/131 128/128/128 136/136/136
f 135/135/135 131/131/131 136/136/136
f 137/137/137 125/125/125 132/132/132
f 138/138/138 125/125/125 137/137/137
f 128/128/128 138/138/138 139/139/139
f 136/136/136 128/128/128 139/139/139
f 139/139/139 138/138/138 137/137/137
f 133/133/133 140/140/140 132/132/132
f 135/135/135 141/141/141 133/133/133
f 141/141/141 140/140/140 133/133/133
f 136/136/136 142/142/142 135/135/135
f 142/142/142 141/141/141 135/135/135
f 132/132/132 143/143/143 137/137/137
f 140/140/140 143/143/143 132/132/132
f 137/137/137 144/144/144 139/139/139
f 143/143/143 144/144/144 137/137/137
f 139/139/139 145/145/145 136/136/136
f 145/145/145 142/142/142 136/136/136
f 144/144/144 145/145/145 139/139/139
f 141/141/141 142/142/142 146/146/146
f 142/142/142 147/147/147 146/146/146
f 142/142/142 145/145/145 147/147/147
f 141/141/141 146/146/146 148/148/148
f 140/140/140 141/141/141 148/148/148
f 145/145/145 149/149/149 147/147/147
f 145/145/145 144/144/144 149/149/149
f 140/140/140 148/148/148 150/150/150
f 143/143/143 140/140/140 150/150/150
f 144/144/144 151/151/151 149/149/149
f 143/143/143 150/150/150 151/151/151
f 144/144/144 143/143/143 151/151/151
f 154/154/154 153/153/153 152/152/152
f 153/153/153 155/155/155 152/152/152
f 152/152/152 155/155/155 156/156/156
f 157/157/157 153/153/153 154/154/154
f 158/158/158 157/157/157 154/154/154
f 155/155/155 159/159/159 156/156/156
f 156/156/156 159/159/159 160/160/160
f 153/153/153 161/161/161 155/155/155
f 157/157/157 161/161/161 153/153/153
f 155/155/155 161/161/161 159/159/159
f 162/162/162 157/157/157 158/158/158
f 162/162/162 161/161/161 157/157/157
f 163/163/163 162/162/162 158/158/158
f 160/160/160 164/164/164 163/163/163
f 159/159/159 164/164/164 160/160/160
f 159/159/159 161/161/161 164/164/164
f 164/164/164 162/162/162 163/163/163
f 164/164/164 161/161/161 162/162/162
