g fcbg_cityforestcrystal_003_traffic_lights_01
v -2.17202 6.097899 -0.22711194
v -2.17202 6.097899 0.193528
v -2.1652875 6.2769265 0.193528
v -2.1652875 6.2769265 -0.22711194
v -2.2029777 6.3143888 0.15914387
v -2.2029777 6.3143888 -0.21281087
v -2.2007492 6.3737884 0.16918206
v -2.2007492 6.3737817 -0.20277269
v -3.1866658 6.4768534 -0.32113624
v -3.1933913 6.3575463 -0.32113624
v -2.2029777 6.3143888 -0.21281087
v -3.373851 6.358577 -0.24861372
v -3.1866658 6.4768534 0.28754562
v -2.2029777 6.3143888 0.15914387
v -3.1884995 6.3516107 0.2674759
v -3.375243 6.4839406 -0.26498264
v -3.5131342 6.3695655 -0.13326162
v -3.375243 6.4839406 0.23139203
v -3.3819687 6.3646336 0.23139203
v -3.506402 6.488866 -0.13326162
v -3.5192509 6.365958 0.038879782
v -3.519572 6.4893613 0.041436166
v -3.2409055 6.138065 -0.36096773
v -2.17202 6.097899 -0.22711194
v -2.1652875 6.2769265 -0.22711194
v -3.234173 6.317099 -0.36096773
v -3.45417 6.146082 -0.2974662
v -3.1933913 6.3575463 -0.32113624
v -2.2029777 6.3143888 -0.21281087
v -3.373851 6.358577 -0.24861372
v -3.4474308 6.325116 -0.2974662
v -3.602494 6.1516566 -0.14850628
v -3.5131342 6.3695655 -0.13326162
v -3.5957685 6.330691 -0.14850628
v -3.6173906 6.152219 0.049058497
v -3.6106653 6.3312464 0.049058497
v -3.5192509 6.365958 0.038879782
v -2.1652875 6.2769265 0.193528
v -3.1884995 6.3516107 0.2674759
v -2.2029777 6.3143888 0.15914387
v -3.234173 6.317099 0.32738376
v -2.17202 6.097899 0.193528
v -3.3819687 6.3646336 0.23139203
v -3.2409055 6.138065 0.32738376
v -3.4474308 6.325116 0.26388228
v -3.5192509 6.365958 0.038879782
v -3.45417 6.146082 0.26388228
v -3.6106653 6.3312464 0.049058497
v -3.6173906 6.152219 0.049058497
v -1.3767483 6.118156 0.076295435
v -2.180753 6.1159606 0.08000955
v -2.1751585 6.2664466 0.07992256
v -1.4224288 5.981784 0.0742811
v -0.7312867 5.5012226 0.074528694
v -0.63802534 5.6055593 0.07604781
v -0.18968672 4.7430925 0.07322374
v -0.060990542 4.8083005 0.077439785
v -0.06447044 4.320057 0.08032408
v -0.21058619 4.361026 0.079969406
v -1.3767483 6.118156 0.076295435
v -2.1751585 6.2664466 0.07992256
v -2.1751652 6.2664466 -0.12365174
v -1.3767483 6.118156 -0.12002462
v -0.63802534 5.6055593 0.07604781
v -1.4224288 5.981784 -0.11801028
v -2.180753 6.1159606 -0.123738736
v -2.180753 6.1159606 0.08000955
v -1.4224288 5.981784 0.0742811
v -0.63802534 5.6055593 -0.119777024
v -0.060990542 4.8083005 0.077439785
v -0.060990542 4.8083005 -0.121162266
v -0.7312934 5.5012226 -0.11825791
v -0.7312867 5.5012226 0.074528694
v -0.18968672 4.7430925 -0.116952926
v -0.18968672 4.7430925 0.07322374
v -0.21058619 4.361026 0.079969406
v -0.21058619 4.361026 -0.12369859
v -0.06447044 4.32005 -0.12405327
v -0.06447044 4.32005 -0.12405327
v -0.06447044 4.320057 0.08032408
v 0.0902313 0.28798056 -0.20137404
v 0.19258729 0.28798056 -0.02533111
v 0.09878382 6.4018283 -0.025103569
v 0.043473452 6.4018283 -0.120232075
v -0.11338985 0.28798056 -0.20075835
v -0.06655839 6.4018283 -0.119897455
v -0.2146818 0.28798056 -0.024099767
v -0.12128657 6.4018283 -0.024434358
v -0.11232579 0.28798056 0.15194315
v -0.06598288 6.4018283 0.07069412
v 0.09130874 0.28798056 0.15132749
v 0.04405567 6.4018283 0.07035953
v 0.19258729 0.28798056 -0.02533111
v 0.09878382 6.4018283 -0.025103569
v -0.3804657 0.30098337 0.34458923
v -0.38047236 0.00021269917 0.34458923
v -0.38053262 0.00021269917 -0.39418072
v -0.38049245 0.30098337 -0.39418072
v 0.3583578 0.30098337 0.34458923
v 0.35829756 0.30098337 -0.39418072
v -0.38047236 0.00021269917 0.34458923
v 0.3583511 0.00021269917 0.34458923
v -0.38049245 0.30098337 -0.39418072
v -0.38053262 0.00021269917 -0.39418072
v 0.35829756 0.00021269917 -0.39418072
v 0.35829756 0.30098337 -0.39418072
v 0.35829756 0.30098337 -0.39418072
v 0.35829756 0.00021269917 -0.39418072
v 0.3583511 0.00021269917 0.34458923
v 0.3583578 0.30098337 0.34458923
v 0.04405567 6.4018283 0.07035953
v 0.2002899 6.543507 -0.025471658
v 0.09878382 6.4018283 -0.025103569
v 0.094949245 6.543507 0.15825385
v 0.2002899 6.623009 -0.025471658
v -0.06598288 6.4018283 0.07069412
v 0.094949245 6.623009 0.15825385
v -0.116829574 6.543507 0.15889627
v -0.12128657 6.4018283 -0.024434358
v -0.116829574 6.623009 0.15889627
v -0.22328115 6.543507 -0.024193466
v -0.06655839 6.4018283 -0.119897455
v -0.22328115 6.623009 -0.024193466
v -0.117940485 6.543507 -0.20791893
v 0.043473452 6.4018283 -0.120232075
v -0.117940485 6.623009 -0.20791893
v 0.093851745 6.543507 -0.20856138
v 0.09878382 6.4018283 -0.025103569
v 0.2002899 6.543507 -0.025471658
v 0.093851745 6.623009 -0.20856138
v 0.2002899 6.623009 -0.025471658
v 0.093851745 6.623009 -0.20856138
v 0.2002899 6.623009 -0.025471658
v -0.22328115 6.623009 -0.024193466
v -0.116829574 6.623009 0.15889627
v 0.094949245 6.623009 0.15825385
v -3.2409055 6.138065 0.32738376
v -2.17202 6.097899 0.193528
v -2.17202 6.097899 -0.22711194
v -3.2409055 6.138065 -0.36096773
v -3.45417 6.146082 0.26388228
v -3.45417 6.146082 -0.2974662
v -3.6173906 6.152219 0.049058497
v -3.602494 6.1516566 -0.14850628
vt 0.7556731 0.16183461
vt 0.7556731 0.17343242
vt 0.7507327 0.17343242
vt 0.7507327 0.16183461
vt 0.7487897 0.17273958
vt 0.7487897 0.16249734
vt 0.74702746 0.17273958
vt 0.74702746 0.16249734
vt 0.7187408 0.15922886
vt 0.7187408 0.15605077
vt 0.7472986 0.16013259
vt 0.71185744 0.15796365
vt 0.7187408 0.17600805
vt 0.7472534 0.1749537
vt 0.7187408 0.1793669
vt 0.7136649 0.16078027
vt 0.7069321 0.163868
vt 0.7136649 0.17445666
vt 0.71185744 0.17700215
vt 0.70986927 0.1649374
vt 0.7069321 0.17081162
vt 0.70986927 0.16975728
vt 0.8734738 0.14290155
vt 0.9031311 0.14290155
vt 0.9031311 0.13781056
vt 0.8734738 0.13781056
vt 0.8669971 0.14290155
vt 0.8734738 0.13613866
vt 0.9031311 0.13613866
vt 0.8669971 0.13613866
vt 0.8669971 0.13781056
vt 0.86068606 0.14290155
vt 0.86068606 0.13613866
vt 0.86068606 0.13781056
vt 0.8552788 0.14290155
vt 0.8552788 0.13781056
vt 0.8552788 0.13613866
vt 0.9031311 0.13781056
vt 0.8734738 0.13613866
vt 0.9031311 0.13613866
vt 0.8734738 0.13781056
vt 0.9031311 0.14290155
vt 0.8669971 0.13613866
vt 0.8734738 0.14290155
vt 0.8669971 0.13781056
vt 0.86068606 0.13613866
vt 0.8669971 0.14290155
vt 0.86068606 0.13781056
vt 0.86068606 0.14290155
vt 0.96630156 0.15207437
vt 0.9969078 0.1583402
vt 0.9969078 0.15123089
vt 0.9664221 0.15897281
vt 0.9329239 0.1598163
vt 0.9327733 0.15321909
vt 0.89627784 0.16002716
vt 0.8969556 0.1535354
vt 0.8825111 0.1549211
vt 0.88252616 0.16084051
vt 0.9662263 0.14424208
vt 0.9969078 0.14380528
vt 0.9969078 0.15123089
vt 0.96630156 0.15207437
vt 0.93299925 0.14568804
vt 0.9664221 0.15897281
vt 0.9969078 0.1583402
vt 0.9969078 0.1667298
vt 0.9666179 0.16666955
vt 0.9327733 0.15321909
vt 0.89686525 0.14600433
vt 0.8969556 0.1535354
vt 0.9329239 0.1598163
vt 0.9330595 0.16721179
vt 0.89627784 0.16002716
vt 0.89665437 0.16758834
vt 0.882496 0.16688041
vt 0.88252616 0.16084051
vt 0.8825111 0.1549211
vt 0.87803763 0.1608104
vt 0.87800753 0.16688041
vt 0.8489979 0.14754067
vt 0.8489979 0.15306847
vt 0.68345034 0.15007111
vt 0.6834955 0.14708881
vt 0.8489979 0.14201288
vt 0.68348044 0.14409146
vt 0.8489979 0.13647003
vt 0.68343526 0.14110915
vt 0.8489979 0.14201288
vt 0.68348044 0.14409146
vt 0.8489979 0.14754067
vt 0.6834955 0.14708881
vt 0.8489979 0.15306847
vt 0.68345034 0.15007111
vt 0.7763835 0.16260278
vt 0.78034484 0.16260278
vt 0.78034484 0.17492358
vt 0.7763835 0.17492358
vt 0.76462 0.16258772
vt 0.76462 0.17492358
vt 0.7763835 0.15800884
vt 0.76462 0.15800884
vt 0.7763835 0.16260278
vt 0.7763835 0.15800884
vt 0.76462 0.15800884
vt 0.76462 0.16260278
vt 0.7763835 0.17492358
vt 0.78034484 0.17492358
vt 0.78034484 0.16260278
vt 0.7763835 0.16260278
vt 0.680709 0.14620015
vt 0.67962456 0.15123089
vt 0.68195915 0.14803773
vt 0.67700374 0.1473298
vt 0.6781635 0.15222499
vt 0.680709 0.14374502
vt 0.675377 0.1478118
vt 0.67700374 0.14261536
vt 0.68195915 0.1415309
vt 0.675377 0.14211832
vt 0.6796396 0.13869922
vt 0.680709 0.14374502
vt 0.6781635 0.13772018
vt 0.67700374 0.14261536
vt 0.680709 0.14620015
vt 0.675377 0.14211832
vt 0.67700374 0.1473298
vt 0.68195915 0.14803773
vt 0.67962456 0.15123089
vt 0.675377 0.1478118
vt 0.6781635 0.15222499
vt 0.67530173 0.14784192
vt 0.6698794 0.15070371
vt 0.6698794 0.13928664
vt 0.66463774 0.14214845
vt 0.66463774 0.14784192
vt 0.8608066 0.14493494
vt 0.8797698 0.14537174
vt 0.8797698 0.15383664
vt 0.860912 0.15713523
vt 0.8573423 0.1464562
vt 0.85741764 0.15602064
vt 0.85529387 0.14897157
vt 0.85533905 0.15394206
vn 0.5855576 -0.6070616 -0.5372136
vn 0.5855576 -0.6070616 0.5372136
vn 0.7048074 0.38994515 0.59261227
vn 0.73022133 0.34889197 -0.58741057
vn 0.66570914 0.53265405 0.52260023
vn 0.5875125 0.48964584 -0.6442639
vn 0.6363854 0.49551058 0.5911708
vn 0.66961896 0.5404737 -0.5094101
vn -0.0341506 0.6734079 -0.7384819
vn -0.04588008 0.3840804 -0.922159
vn 0.5875125 0.48964584 -0.6442639
vn -0.40949428 0.5150597 -0.75301254
vn -0.0048269033 0.6284449 0.7778391
vn 0.66570914 0.53265405 0.52260023
vn -0.016556382 0.42122388 0.9068056
vn -0.37039602 0.6460391 -0.6674131
vn -0.69491196 0.62062514 -0.3632104
vn -0.40753937 0.6401744 0.65122074
vn -0.41731405 0.5443835 0.7276645
vn -0.6831825 0.64799404 -0.33669785
vn -0.74769473 0.6186702 0.24124627
vn -0.7203258 0.6577686 0.22016172
vn -0.086933255 -0.6617993 -0.7446236
vn 0.5855576 -0.6070616 -0.5372136
vn 0.73022133 0.34889197 -0.58741057
vn -0.08497834 0.4114492 -0.90746254
vn -0.4114492 -0.6402952 -0.6486383
vn -0.04588008 0.3840804 -0.922159
vn 0.5875125 0.48964584 -0.6442639
vn -0.40949428 0.5150597 -0.75301254
vn -0.440773 0.49160075 -0.75103116
vn -0.72423565 -0.60901654 -0.32339072
vn -0.69491196 0.62062514 -0.3632104
vn -0.7750635 0.5248344 -0.35188833
vn -0.76333404 -0.6070616 0.22090119
vn -0.8200265 0.51896954 0.24130297
vn -0.74769473 0.6186702 0.24124627
vn 0.7048074 0.38994515 0.59261227
vn -0.016556382 0.42122388 0.9068056
vn 0.66570914 0.53265405 0.52260023
vn -0.06542921 0.4388181 0.89619064
vn 0.5855576 -0.6070616 0.5372136
vn -0.41731405 0.5443835 0.7276645
vn -0.086933255 -0.6617993 0.7446236
vn -0.4974655 0.49160075 0.7147424
vn -0.74769473 0.6186702 0.24124627
vn -0.45836723 -0.6266108 0.6302843
vn -0.8200265 0.51896954 0.24130297
vn -0.76333404 -0.6070616 0.22090119
vn 0.28841043 0.6890472 0.6648559
vn -0.11430216 -0.66766405 0.73563564
vn 0.137882 0.72423565 0.6756266
vn -0.24919128 -0.6070616 0.7545727
vn -0.47205162 -0.47608232 0.7419656
vn 0.51518065 0.5267893 0.6760783
vn -0.601076 -0.1691606 0.78108406
vn 0.41743487 0.31174862 0.8535578
vn -0.21986759 -0.7360861 0.640184
vn -0.66167843 -0.46435285 0.58869183
vn 0.28841043 0.6890472 0.6648559
vn 0.137882 0.72423565 0.6756266
vn 0.137882 0.72423565 -0.6756266
vn 0.28841043 0.6890472 -0.6648559
vn 0.51518065 0.5267893 0.6760783
vn -0.24919128 -0.6070616 -0.7545727
vn -0.11430216 -0.66766405 -0.73563564
vn -0.11430216 -0.66766405 0.73563564
vn -0.24919128 -0.6070616 0.7545727
vn 0.51518065 0.5267893 -0.6760783
vn 0.41743487 0.31174862 0.8535578
vn 0.41743487 0.31174862 -0.8535578
vn -0.47205162 -0.47608232 -0.7419656
vn -0.47205162 -0.47608232 0.7419656
vn -0.601076 -0.1691606 -0.78108406
vn -0.601076 -0.1691606 0.78108406
vn -0.66167843 -0.46435285 0.58869183
vn -0.66167843 -0.46435285 -0.58869183
vn -0.21986759 -0.7360861 -0.640184
vn -0.21986759 -0.7360861 -0.640184
vn -0.21986759 -0.7360861 0.640184
vn 0.49758637 0.014601469 -0.8672915
vn 0.9998934 0.014599918 -0
vn 0.9433071 -0.33141857 -0.018261041
vn 0.4702176 -0.33141857 -0.8179592
vn -0.50333023 0.014601469 -0.86397076
vn -0.47400653 -0.3333735 -0.81497234
vn -0.99987876 0.014601469 0.005410064
vn -0.9428383 -0.3332505 -0
vn -0.4974655 0.014601469 0.8673609
vn -0.4681418 -0.3333735 0.8183553
vn 0.5034511 0.014601469 0.8639003
vn 0.4741274 -0.33141857 0.8156991
vn 0.9998934 0.014599918 -0
vn 0.9433071 -0.33141857 -0.018261041
vn -0.57761705 0.57761705 0.5768163
vn -0.70664144 0.00091707706 0.70757127
vn -0.70664144 0.00091707706 -0.70757127
vn -0.57761705 0.57761705 -0.5768163
vn 0.5777379 0.57761705 0.57669526
vn 0.5777379 0.57761705 -0.57669526
vn -0.70664144 0.00091707706 0.70757127
vn -0.00091707706 0.00091707706 0.99999917
vn -0.57761705 0.57761705 -0.5768163
vn -0.70664144 0.00091707706 -0.70757127
vn 0.7067623 0.00091707706 -0.7074505
vn 0.5777379 0.57761705 -0.57669526
vn 0.5777379 0.57761705 -0.57669526
vn 0.7067623 0.00091707706 -0.7074505
vn 0.99999964 0.00091707706 -0
vn 0.5777379 0.57761705 0.57669526
vn 0.4741274 -0.33141857 0.8156991
vn 0.9589464 -0.28059077 -0.041117225
vn 0.9433071 -0.33141857 -0.018261041
vn 0.48194706 -0.28059077 0.83005774
vn 0.7921308 0.61035144 -0
vn -0.4681418 -0.3333735 0.8183553
vn 0.39788574 0.6108506 0.68450606
vn -0.47791636 -0.28059077 0.832385
vn -0.9428383 -0.3332505 -0
vn -0.39385498 0.6108506 0.6868332
vn -0.9588256 -0.2825457 0.02866054
vn -0.47400653 -0.3333735 -0.81497234
vn -0.7920858 0.61040986 -0
vn -0.4818262 -0.28059077 -0.8301279
vn 0.4702176 -0.33141857 -0.8179592
vn -0.3977648 0.6108506 -0.68457633
vn 0.47803724 -0.28059077 -0.83231556
vn 0.9433071 -0.33141857 -0.018261041
vn 0.9589464 -0.28059077 -0.041117225
vn 0.39397585 0.6108506 -0.6867638
vn 0.7921308 0.61035144 -0
vn 0.39397585 0.6108506 -0.6867638
vn 0.7921308 0.61035144 -0
vn -0.7920858 0.61040986 -0
vn -0.39385498 0.6108506 0.6868332
vn 0.39788574 0.6108506 0.68450606
vn -0.086933255 -0.6617993 0.7446236
vn 0.5855576 -0.6070616 0.5372136
vn 0.5855576 -0.6070616 -0.5372136
vn -0.086933255 -0.6617993 -0.7446236
vn -0.45836723 -0.6266108 0.6302843
vn -0.4114492 -0.6402952 -0.6486383
vn -0.76333404 -0.6070616 0.22090119
vn -0.72423565 -0.60901654 -0.32339072
g fcbg_cityforestcrystal_003_traffic_lights_01_0
f 3/3/3 2/2/2 1/1/1
f 4/4/4 3/3/3 1/1/1
f 5/5/5 3/3/3 4/4/4
f 6/6/6 5/5/5 4/4/4
f 7/7/7 5/5/5 6/6/6
f 8/8/8 7/7/7 6/6/6
f 8/8/8 9/9/9 7/7/7
f 9/9/9 8/8/8 10/10/10
f 8/8/8 11/11/11 10/10/10
f 9/9/9 10/10/10 12/12/12
f 9/9/9 13/13/13 7/7/7
f 14/14/14 7/7/7 13/13/13
f 15/15/15 14/14/14 13/13/13
f 16/16/16 9/9/9 12/12/12
f 9/9/9 16/16/16 13/13/13
f 16/16/16 12/12/12 17/17/17
f 13/13/13 18/18/18 15/15/15
f 16/16/16 18/18/18 13/13/13
f 18/18/18 19/19/19 15/15/15
f 20/20/20 16/16/16 17/17/17
f 16/16/16 20/20/20 18/18/18
f 20/20/20 17/17/17 21/21/21
f 22/22/22 21/21/21 19/19/19
f 18/18/18 22/22/22 19/19/19
f 22/22/22 20/20/20 21/21/21
f 20/20/20 22/22/22 18/18/18
f 25/25/25 24/24/24 23/23/23
f 26/26/26 25/25/25 23/23/23
f 26/26/26 23/23/23 27/27/27
f 26/26/26 28/28/28 25/25/25
f 28/28/28 29/29/29 25/25/25
f 30/30/30 28/28/28 26/26/26
f 31/31/31 26/26/26 27/27/27
f 31/31/31 30/30/30 26/26/26
f 31/31/31 27/27/27 32/32/32
f 33/33/33 30/30/30 31/31/31
f 34/34/34 31/31/31 32/32/32
f 34/34/34 33/33/33 31/31/31
f 34/34/34 32/32/32 35/35/35
f 36/36/36 34/34/34 35/35/35
f 34/34/34 36/36/36 33/33/33
f 36/36/36 37/37/37 33/33/33
f 40/40/40 39/39/39 38/38/38
f 39/39/39 41/41/41 38/38/38
f 42/42/42 38/38/38 41/41/41
f 41/41/41 39/39/39 43/43/43
f 44/44/44 42/42/42 41/41/41
f 45/45/45 41/41/41 43/43/43
f 41/41/41 45/45/45 44/44/44
f 45/45/45 43/43/43 46/46/46
f 45/45/45 47/47/47 44/44/44
f 48/48/48 45/45/45 46/46/46
f 45/45/45 48/48/48 47/47/47
f 48/48/48 49/49/49 47/47/47
f 52/52/52 51/51/51 50/50/50
f 51/51/51 53/53/53 50/50/50
f 53/53/53 54/54/54 50/50/50
f 54/54/54 55/55/55 50/50/50
f 54/54/54 56/56/56 55/55/55
f 56/56/56 57/57/57 55/55/55
f 58/58/58 57/57/57 56/56/56
f 59/59/59 58/58/58 56/56/56
f 62/62/62 61/61/61 60/60/60
f 63/63/63 62/62/62 60/60/60
f 60/60/60 64/64/64 63/63/63
f 63/63/63 65/65/65 62/62/62
f 65/65/65 66/66/66 62/62/62
f 66/66/66 65/65/65 67/67/67
f 65/65/65 68/68/68 67/67/67
f 64/64/64 69/69/69 63/63/63
f 63/63/63 69/69/69 65/65/65
f 64/64/64 70/70/70 69/69/69
f 70/70/70 71/71/71 69/69/69
f 65/65/65 72/72/72 68/68/68
f 69/69/69 72/72/72 65/65/65
f 69/69/69 71/71/71 72/72/72
f 72/72/72 73/73/73 68/68/68
f 72/72/72 74/74/74 73/73/73
f 71/71/71 74/74/74 72/72/72
f 74/74/74 75/75/75 73/73/73
f 76/76/76 75/75/75 74/74/74
f 77/77/77 74/74/74 71/71/71
f 77/77/77 76/76/76 74/74/74
f 78/78/78 77/77/77 71/71/71
f 76/76/76 77/77/77 79/79/79
f 80/80/80 76/76/76 79/79/79
f 83/83/83 82/82/82 81/81/81
f 84/84/84 83/83/83 81/81/81
f 84/84/84 81/81/81 85/85/85
f 86/86/86 84/84/84 85/85/85
f 86/86/86 85/85/85 87/87/87
f 88/88/88 86/86/86 87/87/87
f 88/88/88 87/87/87 89/89/89
f 90/90/90 88/88/88 89/89/89
f 90/90/90 89/89/89 91/91/91
f 92/92/92 90/90/90 91/91/91
f 92/92/92 91/91/91 93/93/93
f 94/94/94 92/92/92 93/93/93
f 97/97/97 96/96/96 95/95/95
f 98/98/98 97/97/97 95/95/95
f 98/98/98 95/95/95 99/99/99
f 100/100/100 98/98/98 99/99/99
f 95/95/95 101/101/101 99/99/99
f 101/101/101 102/102/102 99/99/99
f 105/105/105 104/104/104 103/103/103
f 106/106/106 105/105/105 103/103/103
f 109/109/109 108/108/108 107/107/107
f 110/110/110 109/109/109 107/107/107
f 113/113/113 112/112/112 111/111/111
f 112/112/112 114/114/114 111/111/111
f 112/112/112 115/115/115 114/114/114
f 111/111/111 114/114/114 116/116/116
f 115/115/115 117/117/117 114/114/114
f 114/114/114 118/118/118 116/116/116
f 114/114/114 117/117/117 118/118/118
f 116/116/116 118/118/118 119/119/119
f 117/117/117 120/120/120 118/118/118
f 118/118/118 121/121/121 119/119/119
f 118/118/118 120/120/120 121/121/121
f 119/119/119 121/121/121 122/122/122
f 120/120/120 123/123/123 121/121/121
f 121/121/121 124/124/124 122/122/122
f 121/121/121 123/123/123 124/124/124
f 122/122/122 124/124/124 125/125/125
f 123/123/123 126/126/126 124/124/124
f 124/124/124 127/127/127 125/125/125
f 124/124/124 126/126/126 127/127/127
f 125/125/125 127/127/127 128/128/128
f 127/127/127 129/129/129 128/128/128
f 127/127/127 130/130/130 129/129/129
f 126/126/126 130/130/130 127/127/127
f 130/130/130 131/131/131 129/129/129
f 133/133/133 132/132/132 126/126/126
f 134/134/134 133/133/133 126/126/126
f 133/133/133 134/134/134 135/135/135
f 136/136/136 133/133/133 135/135/135
f 139/139/139 138/138/138 137/137/137
f 140/140/140 139/139/139 137/137/137
f 140/140/140 137/137/137 141/141/141
f 142/142/142 140/140/140 141/141/141
f 142/142/142 141/141/141 143/143/143
f 144/144/144 142/142/142 143/143/143
