g fcbg_cityforest_000_stone_02
v 0.24932858 0.9014698 -0.72467786
v -0.022418352 0.0078819245 -0.86460596
v 0.41480884 0.007881951 -0.77664226
v -0.017705273 0.8336685 -0.7670859
v -0.23496093 0.007881872 -0.71991247
v -0.19644746 0.8453362 -0.5591273
v -0.40957466 0.39563766 -0.22024165
v -0.06572163 0.9655616 -0.2703269
v 0.24932858 0.9014698 -0.72467786
v -0.43397686 0.007881854 -0.2395017
v -0.644875 0.007881824 -0.16110767
v -0.28110957 0.63871765 -0.037632763
v -0.26198602 0.6394073 0.24273902
v 0.39841515 0.8568531 -0.4736679
v 0.41480884 0.007881951 -0.77664226
v 0.49380982 0.5230986 -0.3067657
v 0.51827776 0.007881969 -0.38714287
v 0.6211582 0.007881977 -0.37350625
v -0.6307988 0.4179363 -0.14081709
v -0.7775445 0.0078818165 -0.037368648
v -0.4022508 0.7685275 -0.07936497
v -0.62059057 0.76784885 0.007594671
v -0.83768666 0.3911211 0.11869075
v -0.8655524 0.007881805 0.1095128
v -0.7579249 0.71803 0.2546948
v 0.44140318 0.7476138 -0.056034658
v -0.5654459 0.4838437 0.637569
v -0.8068205 0.36784557 0.396225
v -0.83768666 0.3911211 0.11869075
v -0.81989914 0.007881809 0.5278596
v -0.8655524 0.007881805 0.1095128
v -0.56592906 0.007881843 0.6538589
v -0.37522474 0.007881865 0.6386256
v -0.301334 0.50416434 0.567294
v -0.051325563 0.7270161 0.50015706
v -0.22564514 0.17143072 0.791441
v -0.24346104 0.00788188 0.8157212
v 0.012691074 0.00788191 0.862101
v -0.020767493 0.5182502 0.6442533
v 0.0110233575 0.19221349 0.8293567
v 0.20794247 0.007881936 0.9142503
v 0.098121084 0.5610131 0.73719853
v 0.20360237 0.29719597 0.8536973
v 0.360566 0.007881954 0.85480195
v 0.31878307 0.67470145 0.65867966
v 0.35888335 0.7272122 0.34012625
v 0.527609 0.3317 0.8721442
v 0.6005853 0.00788198 0.9178419
v 0.79034346 0.007882111 0.80753577
v 0.7701929 0.46511707 0.7176983
v 0.8653545 0.007881999 0.6407819
v 0.8176877 0.47400117 0.44266748
v 0.86262774 0.0137895085 0.19418918
v 0.72539324 0.61497927 0.13084435
v 0.7992118 0.018360008 -0.09983617
v 0.65003234 0.5493208 -0.018190673
v 0.6896865 0.007881988 -0.21110313
v 0.6771065 0.007881988 -0.30406854
v 0.6324599 0.38202348 -0.30920985
vt 0.85134566 0.68031514
vt 0.8503971 0.65212536
vt 0.8609606 0.65437615
vt 0.84455657 0.6767739
vt 0.8434045 0.65074134
vt 0.8374729 0.67509174
vt 0.8275423 0.6610899
vt 0.8317735 0.68055105
vt 0.84542525 0.68559384
vt 0.8294033 0.6489999
vt 0.825373 0.6465868
vt 0.8222562 0.6714734
vt 0.8144636 0.67722774
vt 0.83939934 0.69101095
vt 0.85582614 0.7120218
vt 0.83767545 0.70228934
vt 0.8456085 0.71632755
vt 0.84349537 0.7176242
vt 0.8215708 0.65846074
vt 0.82206386 0.6448425
vt 0.8187788 0.66870606
vt 0.81484306 0.6660626
vt 0.8134036 0.6535276
vt 0.8181901 0.6430657
vt 0.80871665 0.6641669
vt 0.82936716 0.69634247
vt 0.8007678 0.6743125
vt 0.79737735 0.6654142
vt 0.7992914 0.6582799
vt 0.78605795 0.6673819
vt 0.7878088 0.6563386
vt 0.7865244 0.6749176
vt 0.7872757 0.68008447
vt 0.8037556 0.68034375
vt 0.8112724 0.6861559
vt 0.7916825 0.6851467
vt 0.7870276 0.685652
vt 0.7879833 0.6939111
vt 0.8048909 0.68824196
vt 0.794026 0.69313693
vt 0.7892977 0.6994604
vt 0.80515146 0.69223
vt 0.79792464 0.6976663
vt 0.7922064 0.7066108
vt 0.8105402 0.6965394
vt 0.81854904 0.6952431
vt 0.80320954 0.7072439
vt 0.7965406 0.7145052
vt 0.80210364 0.7198398
vt 0.8106605 0.70921373
vt 0.8083502 0.72255826
vt 0.81685996 0.7095504
vt 0.82295245 0.7234366
vt 0.82454824 0.7046584
vt 0.83228093 0.72180545
vt 0.82899696 0.70489895
vt 0.837116 0.72018456
vt 0.83993405 0.71920407
vt 0.8372861 0.7080362
vn 0.3849357 0.68308365 -0.620662
vn -0.26688898 0.12918396 -0.9550298
vn 0.66792405 0.13112305 -0.73258734
vn -0.27876037 0.5266517 -0.8030757
vn -0.79561687 0.12020369 -0.59375495
vn -0.7079892 0.6011285 -0.37066925
vn -0.67859674 0.25831515 -0.6875899
vn -0.28720444 0.9539717 0.08632218
vn 0.3849357 0.68308365 -0.620662
vn -0.6866497 0.07632926 -0.72297025
vn -0.5210546 0.06245539 -0.8512352
vn -0.25914678 0.923999 -0.2811918
vn -0.27875295 0.914159 0.29429612
vn 0.7422155 0.65790516 -0.127581
vn 0.66792405 0.13112305 -0.73258734
vn 0.85221744 0.34869102 -0.39005125
vn 0.6650825 0.1575727 -0.7299562
vn 0.4687262 0.13433348 -0.8730694
vn -0.5534305 0.21444553 -0.8048154
vn -0.7777073 0.08249544 -0.62319016
vn 0.23230462 0.834345 -0.49990308
vn -0.38240868 0.8543546 -0.35191157
vn -0.94681245 0.18446518 -0.2636642
vn -0.97390264 0.077791594 -0.21321855
vn -0.5973297 0.77521294 0.20552868
vn 0.56537193 0.82420003 -0.0323866
vn -0.20039003 0.48004618 0.85404885
vn -0.8848755 0.18628564 0.42695796
vn -0.94681245 0.18446518 -0.2636642
vn -0.8334142 0.12563714 0.53817856
vn -0.97390264 0.077791594 -0.21321855
vn -0.28446233 0.09735786 0.95373094
vn -0.3638921 0.13925058 0.9209733
vn -0.19724338 0.6533493 0.73091024
vn -0.3024806 0.83640754 0.45708624
vn -0.4868575 0.29070574 0.82368684
vn -0.5197713 0.18274131 0.83453184
vn -0.20666438 0.17633711 0.96239036
vn -0.46035635 0.43632555 0.7731055
vn -0.25494868 0.28105298 0.9252084
vn 0.062351555 0.19974847 0.97786134
vn -0.29435706 0.5039181 0.812047
vn 0.11241872 0.2916927 0.9498828
vn 0.018499658 0.1885031 0.98189837
vn 0.14235175 0.816755 0.5591487
vn 0.27971005 0.94042563 0.19329244
vn -0.017327454 0.3146557 0.9490477
vn 0.17659768 0.17645174 0.9683377
vn 0.70915836 0.17850347 0.68207836
vn 0.6542168 0.54717875 0.5221071
vn 0.9692852 0.12447746 0.2121121
vn 0.8446166 0.5300452 0.0753314
vn 0.9774279 0.16431181 -0.13280132
vn 0.73688966 0.65822744 -0.1540465
vn 0.8282908 0.26477745 -0.49378878
vn 0.74943817 0.45213374 -0.48365036
vn 0.9045696 0.19988474 -0.37656325
vn 0.9183068 0.10500111 -0.3816902
vn 0.69118565 0.2958336 -0.6593518
g fcbg_cityforest_000_stone_02_0
f 3/3/3 2/2/2 1/1/1
f 2/2/2 4/4/4 1/1/1
f 2/2/2 5/5/5 4/4/4
f 5/5/5 6/6/6 4/4/4
f 5/5/5 7/7/7 6/6/6
f 4/4/4 6/6/6 8/8/8
f 4/4/4 8/8/8 9/9/9
f 7/7/7 5/5/5 10/10/10
f 7/7/7 10/10/10 11/11/11
f 8/8/8 6/6/6 12/12/12
f 6/6/6 7/7/7 12/12/12
f 12/12/12 13/13/13 8/8/8
f 9/9/9 8/8/8 14/14/14
f 15/15/15 9/9/9 14/14/14
f 15/15/15 14/14/14 16/16/16
f 17/17/17 15/15/15 16/16/16
f 17/17/17 16/16/16 18/18/18
f 19/19/19 7/7/7 11/11/11
f 11/11/11 20/20/20 19/19/19
f 21/21/21 12/12/12 7/7/7
f 21/21/21 13/13/13 12/12/12
f 21/21/21 7/7/7 22/22/22
f 7/7/7 19/19/19 22/22/22
f 13/13/13 21/21/21 22/22/22
f 20/20/20 23/23/23 19/19/19
f 19/19/19 23/23/23 22/22/22
f 23/23/23 20/20/20 24/24/24
f 23/23/23 25/25/25 22/22/22
f 13/13/13 22/22/22 25/25/25
f 14/14/14 26/26/26 16/16/16
f 14/14/14 8/8/8 26/26/26
f 25/25/25 27/27/27 13/13/13
f 25/25/25 28/28/28 27/27/27
f 29/29/29 28/28/28 25/25/25
f 30/30/30 28/28/28 29/29/29
f 27/27/27 28/28/28 30/30/30
f 31/31/31 30/30/30 29/29/29
f 32/32/32 27/27/27 30/30/30
f 27/27/27 32/32/32 33/33/33
f 13/13/13 27/27/27 34/34/34
f 27/27/27 33/33/33 34/34/34
f 13/13/13 35/35/35 8/8/8
f 35/35/35 13/13/13 34/34/34
f 34/34/34 33/33/33 36/36/36
f 33/33/33 37/37/37 36/36/36
f 36/36/36 37/37/37 38/38/38
f 39/39/39 34/34/34 36/36/36
f 34/34/34 39/39/39 35/35/35
f 40/40/40 36/36/36 38/38/38
f 40/40/40 39/39/39 36/36/36
f 40/40/40 38/38/38 41/41/41
f 39/39/39 40/40/40 42/42/42
f 35/35/35 39/39/39 42/42/42
f 43/43/43 40/40/40 41/41/41
f 42/42/42 40/40/40 43/43/43
f 43/43/43 41/41/41 44/44/44
f 45/45/45 42/42/42 43/43/43
f 35/35/35 42/42/42 45/45/45
f 45/45/45 43/43/43 44/44/44
f 46/46/46 8/8/8 35/35/35
f 35/35/35 45/45/45 46/46/46
f 26/26/26 8/8/8 46/46/46
f 45/45/45 44/44/44 47/47/47
f 47/47/47 44/44/44 48/48/48
f 47/47/47 48/48/48 49/49/49
f 50/50/50 45/45/45 47/47/47
f 50/50/50 47/47/47 49/49/49
f 45/45/45 50/50/50 46/46/46
f 51/51/51 50/50/50 49/49/49
f 52/52/52 50/50/50 51/51/51
f 50/50/50 52/52/52 46/46/46
f 51/51/51 53/53/53 52/52/52
f 54/54/54 46/46/46 52/52/52
f 52/52/52 53/53/53 54/54/54
f 26/26/26 46/46/46 54/54/54
f 54/54/54 53/53/53 55/55/55
f 54/54/54 56/56/56 26/26/26
f 55/55/55 56/56/56 54/54/54
f 55/55/55 57/57/57 56/56/56
f 56/56/56 16/16/16 26/26/26
f 57/57/57 58/58/58 56/56/56
f 59/59/59 16/16/16 56/56/56
f 58/58/58 59/59/59 56/56/56
f 16/16/16 59/59/59 18/18/18
f 59/59/59 58/58/58 18/18/18
