g fcbg_desert_stone_05
v 0.5380783 -0.0011069775 0.4311409
v 0.39570618 0.5098442 0.28845978
v 0.6429596 -0.0011072159 0.09918594
v -0.2577362 -0.0011060238 0.8413658
v -0.31700134 0.5543555 0.6644249
v -1.0742493 -0.0010991096 0.7014389
v -0.94249725 0.67951274 0.529644
v -1.3925667 -0.0010950565 -0.3203621
v -0.24417496 0.59959674 0.35511398
v 0.45319366 0.5014914 -0.076244354
v -1.2375259 0.7009419 -0.3621254
v -1.3376923 -0.0011470318 -1.2058411
v 0.80553436 0.4642192 -0.448246
v 0.235775 0.533919 -0.86304855
v 1.1535301 -0.0011270046 -0.46969223
v 0.8141556 0.4271438 -1.04739
v 1.1465378 -0.0011451244 -1.0694962
v 0.6643448 0.42297912 -1.2157211
v 0.7445755 -0.0011556149 -1.4968872
v -0.26890564 0.5527413 -1.3873444
v -0.26891708 0.5527432 -1.3873444
v -0.30901337 -0.0011553764 -1.6212082
v -1.1637878 0.69751203 -1.0606346
v 0.010807037 0.8035891 -0.89481354
v 0.13351822 0.55228984 -0.08801651
v 0.00061798096 0.8100728 -0.114593506
v -0.322834 0.7556305 0.26858902
v 1.3925705 -0.0012197495 0.7871971
v 0.64665985 0.38796973 1.0039024
v 0.49478912 -0.0012197495 0.8533745
v 1.2407074 0.38796973 0.9377327
v 1.3886833 -0.0012197495 1.5822868
v 0.70504 0.38796997 1.4706879
v 0.55316925 -0.0012197495 1.6212082
v 1.2368088 0.38796973 1.4317436
vt 0.15603489 0.010681132
vt 0.15221804 0.020583669
vt 0.16258979 0.015176753
vt 0.13458097 0.010027805
vt 0.13892329 0.02084742
vt 0.120469294 0.023418168
vt 0.132174 0.027870039
vt 0.12020665 0.046091355
vt 0.14249238 0.024898926
vt 0.1567837 0.025606195
vt 0.13335977 0.041340984
vt 0.12896322 0.060026683
vt 0.1653102 0.02950714
vt 0.15817118 0.03992603
vt 0.17649597 0.025260547
vt 0.16937113 0.03976033
vt 0.18012586 0.038314737
vt 0.16773447 0.043560542
vt 0.17548802 0.050730087
vt 0.15338072 0.05147419
vt 0.15318313 0.051642515
vt 0.1560497 0.06366543
vt 0.1381788 0.050760724
vt 0.15233997 0.04159353
vt 0.15143138 0.028334478
vt 0.14811552 0.03134326
vt 0.14177099 0.02804611
vt 0.19956201 0.049665667
vt 0.1964126 0.06644557
vt 0.2022258 0.070943095
vt 0.19539973 0.055577435
vt 0.18044052 0.05324004
vt 0.1878497 0.06712792
vt 0.18340114 0.07306925
vt 0.18657917 0.05747459
vn 0.71395946 0.35506865 0.60348004
vn 0.5702091 0.7219501 0.3919817
vn 0.812644 0.4147191 0.4094115
vn 0.16170938 0.32143354 0.93302226
vn 0.1549428 0.68442047 0.7124335
vn -0.6198891 0.2979351 0.72592854
vn -0.4474345 0.69746083 0.5597776
vn -0.96381754 0.24008669 0.115819305
vn 0.30878207 0.8657611 0.39384177
vn 0.47533673 0.8590371 0.19002678
vn -0.6862195 0.7231233 0.07871138
vn -0.7668163 0.29541773 -0.569843
vn 0.5518577 0.8045807 0.21932396
vn 0.42690554 0.8934672 -0.13952768
vn 0.7798093 0.575685 0.24593575
vn 0.5349307 0.80424476 -0.25891992
vn 0.75710005 0.5923638 -0.27550808
vn 0.34833068 0.7879825 -0.50769025
vn 0.40281886 0.5250402 -0.749713
vn 0.18524885 0.7528733 -0.6315572
vn -0.05479429 0.67800176 -0.7330151
vn -0.10117993 0.36956394 -0.92368025
vn -0.5661021 0.7007312 -0.4341708
vn 0.43750376 0.8552712 -0.2776716
vn 0.4644698 0.8743723 0.14050199
vn 0.4719785 0.85286206 0.22329916
vn 0.21552962 0.86396986 0.45508578
vn 0.5941211 0.49926206 -0.63068026
vn -0.5090295 0.758995 -0.40597484
vn -0.66178024 0.48094356 -0.5751001
vn 0.4338062 0.76098514 -0.4824041
vn 0.63659245 0.4699912 0.6114395
vn -0.41351056 0.7603755 0.5008373
vn -0.5862112 0.47360268 0.6573103
vn 0.47275183 0.76045555 0.4452112
g fcbg_desert_stone_05_0
f 3/3/3 2/2/2 1/1/1
f 1/1/1 2/2/2 4/4/4
f 2/2/2 5/5/5 4/4/4
f 4/4/4 5/5/5 6/6/6
f 5/5/5 7/7/7 6/6/6
f 6/6/6 7/7/7 8/8/8
f 5/5/5 2/2/2 9/9/9
f 7/7/7 5/5/5 9/9/9
f 10/10/10 2/2/2 3/3/3
f 2/2/2 10/10/10 9/9/9
f 7/7/7 11/11/11 8/8/8
f 8/8/8 11/11/11 12/12/12
f 13/13/13 10/10/10 3/3/3
f 13/13/13 14/14/14 10/10/10
f 15/15/15 13/13/13 3/3/3
f 16/16/16 13/13/13 15/15/15
f 14/14/14 13/13/13 16/16/16
f 17/17/17 16/16/16 15/15/15
f 18/18/18 16/16/16 17/17/17
f 16/16/16 18/18/18 14/14/14
f 19/19/19 18/18/18 17/17/17
f 20/20/20 18/18/18 19/19/19
f 18/18/18 20/20/20 14/14/14
f 21/21/21 20/20/20 19/19/19
f 22/22/22 21/21/21 19/19/19
f 12/12/12 23/23/23 22/22/22
f 23/23/23 21/21/21 22/22/22
f 11/11/11 23/23/23 12/12/12
f 24/24/24 20/20/20 21/21/21
f 23/23/23 24/24/24 21/21/21
f 14/14/14 20/20/20 24/24/24
f 24/24/24 23/23/23 11/11/11
f 14/14/14 25/25/25 10/10/10
f 10/10/10 25/25/25 9/9/9
f 14/14/14 24/24/24 26/26/26
f 25/25/25 14/14/14 26/26/26
f 26/26/26 24/24/24 11/11/11
f 25/25/25 26/26/26 9/9/9
f 26/26/26 11/11/11 27/27/27
f 9/9/9 26/26/26 27/27/27
f 11/11/11 7/7/7 27/27/27
f 7/7/7 9/9/9 27/27/27
f 30/30/30 29/29/29 28/28/28
f 29/29/29 31/31/31 28/28/28
f 28/28/28 31/31/31 32/32/32
f 33/33/33 29/29/29 30/30/30
f 31/31/31 29/29/29 33/33/33
f 34/34/34 33/33/33 30/30/30
f 32/32/32 35/35/35 34/34/34
f 31/31/31 35/35/35 32/32/32
f 35/35/35 31/31/31 33/33/33
f 35/35/35 33/33/33 34/34/34
