g fcbg_desert_002_watertank_01
v 0.25766498 -4.9657984E-08 0.257665
v 4.345346E-09 -5.9367217E-08 0.3643933
v 1.4690604E-08 0.3157888 0.4427185
v 0.31304923 0.3157888 0.3130493
v 0.36439335 -1.0859768E-08 -5.9604645E-08
v 0.26883298 0.83964276 0.2688331
v 2.9556992E-08 0.83964276 0.3801873
v 0.4427185 0.31578887 -8.156103E-09
v 0.257665 3.4299944E-08 -0.25766507
v 0.2225288 0.83964276 0.2225289
v 2.9556992E-08 0.83964276 0.31470335
v 0.3147033 0.8396428 7.507818E-08
v 0.38018724 0.8396428 7.719055E-08
v 0.22252883 0.8396428 -0.22252871
v 0.268833 0.8396429 -0.2688329
v 1.1573351E-08 0.8396429 -0.31470317
v 0.31304926 0.3157889 -0.31304926
v -1.5928139E-08 5.9367217E-08 -0.3643934
v 8.404797E-09 0.8396429 -0.38018712
v -0.22252877 0.8396429 -0.22252873
v -9.940596E-09 0.31578892 -0.4427185
v -0.257665 4.9657977E-08 -0.25766507
v -0.26883295 0.8396429 -0.2688329
v -0.31304926 0.31578892 -0.31304926
v -0.4427185 0.31578887 3.0547575E-08
v -0.36439335 1.0859763E-08 -2.7748364E-08
v -0.25766498 -3.429996E-08 0.257665
v -0.38018718 0.8396428 1.1042758E-07
v -0.31470323 0.8396428 1.0303428E-07
v -0.22252871 0.8396428 0.22252889
v -0.2688329 0.83964276 0.2688331
v 2.9556992E-08 0.83964276 0.31470335
v 2.9556992E-08 0.83964276 0.3801873
v -0.3130492 0.31578884 0.3130493
v 4.345346E-09 -5.9367217E-08 0.3643933
v 1.4690604E-08 0.3157888 0.4427185
v -2.1014592E-22 -7.051327E-15 -1.632391E-08
v -0.36439335 1.0859763E-08 -2.7748364E-08
v -0.25766498 -3.429996E-08 0.257665
v 4.345346E-09 -5.9367217E-08 0.3643933
v -0.257665 4.9657977E-08 -0.25766507
v 0.25766498 -4.9657984E-08 0.257665
v -1.5928139E-08 5.9367217E-08 -0.3643934
v 0.36439335 -1.0859768E-08 -5.9604645E-08
v 0.257665 3.4299944E-08 -0.25766507
v 2.9556992E-08 0.83964276 0.31470335
v 0.19269903 0.9233662 0.19269912
v 0.2225288 0.83964276 0.2225289
v 5.049419E-08 0.9233662 0.27251768
v 2.399529E-08 0.92336625 1.2533567E-07
v -0.22252871 0.8396428 0.22252889
v 0.2725176 0.92336625 7.7451034E-08
v 0.3147033 0.8396428 7.507818E-08
v -0.19269893 0.92336625 0.19269912
v -0.31470323 0.8396428 1.0303428E-07
v 0.19269904 0.92336625 -0.19269893
v 0.22252883 0.8396428 -0.22252871
v -0.27251753 0.92336625 1.2794523E-07
v -0.22252877 0.8396429 -0.22252873
v 1.44269094E-08 0.9233663 -0.2725174
v 1.1573351E-08 0.8396429 -0.31470317
v -0.19269899 0.9233663 -0.19269894
vt 0.91687495 0.043576352
vt 0.9099153 0.043576352
vt 0.9099153 0.050063513
vt 0.91687495 0.050063513
vt 0.92417616 0.043576352
vt 0.91687495 0.06234811
vt 0.9099153 0.06234811
vt 0.92417616 0.050063513
vt 0.91687495 0.043576352
vt 0.91687495 0.06438548
vt 0.9099153 0.06438548
vt 0.92417616 0.06438548
vt 0.92417616 0.06234811
vt 0.91687495 0.06438548
vt 0.91687495 0.06234811
vt 0.9099153 0.06438548
vt 0.91687495 0.050063513
vt 0.9099153 0.043576352
vt 0.9099153 0.06234811
vt 0.90277666 0.06438548
vt 0.9099153 0.050063513
vt 0.90277666 0.043576352
vt 0.90277666 0.06234811
vt 0.90277666 0.050063513
vt 0.895794 0.050063513
vt 0.895794 0.043576352
vt 0.90277666 0.043576352
vt 0.895794 0.06234811
vt 0.895794 0.06438548
vt 0.90277666 0.06438548
vt 0.90277666 0.06234811
vt 0.9099153 0.06438548
vt 0.9099153 0.06234811
vt 0.90277666 0.050063513
vt 0.9099153 0.043576352
vt 0.9099153 0.050063513
vt 0.93488824 0.057483252
vt 0.9276124 0.057483252
vt 0.9297434 0.052338626
vt 0.93488824 0.05020763
vt 0.9297434 0.06262794
vt 0.94003284 0.052338626
vt 0.93488824 0.06475889
vt 0.9421638 0.057483252
vt 0.94003284 0.06262794
vt 0.9519429 0.049090672
vt 0.95588356 0.053117566
vt 0.9576582 0.051457975
vt 0.95186156 0.05151905
vt 0.9519429 0.057173207
vt 0.9462278 0.051457975
vt 0.9575971 0.057091836
vt 0.9600253 0.057173207
vt 0.9478873 0.053232636
vt 0.94386035 0.057173207
vt 0.95599836 0.061113685
vt 0.9576582 0.06288833
vt 0.94628894 0.05725458
vt 0.9462278 0.06288833
vt 0.95202434 0.06282725
vt 0.9519429 0.06525564
vt 0.94800246 0.06122876
vn 0.4914102 -0.7190494 0.49141017
vn -0 -0.71904945 0.69495887
vn -0 -0.059564006 0.99822444
vn 0.7058513 -0.059563998 0.7058513
vn 0.6949591 -0.7190493 0
vn 0.5221593 0.67431384 0.5221594
vn -0 0.67431396 0.7384448
vn 0.99822444 -0.05956389 0
vn 0.49141026 -0.7190492 -0.49141034
vn 0.2947041 0.9090098 0.29470423
vn -0 0.9090097 0.41677475
vn 0.41677442 0.90900993 0
vn 0.7384447 0.67431414 0
vn 0.2947039 0.90901 -0.29470378
vn 0.5221593 0.6743142 -0.5221592
vn -0 0.90901 -0.41677436
vn 0.7058513 -0.05956378 -0.7058513
vn -0 -0.71904916 -0.69495916
vn -0 0.6743141 -0.73844457
vn -0.29470417 0.90900993 -0.29470405
vn -0 -0.059563715 -0.99822456
vn -0.49141026 -0.7190492 -0.49141034
vn -0.5221593 0.6743141 -0.5221592
vn -0.7058513 -0.05956373 -0.7058513
vn -0.99822444 -0.059563845 0
vn -0.69495904 -0.71904933 0
vn -0.4914102 -0.7190494 0.49141017
vn -0.7384448 0.674314 0
vn -0.41677466 0.9090098 0
vn -0.29470432 0.9090097 0.29470453
vn -0.5221593 0.6743139 0.52215946
vn -0 0.9090097 0.41677475
vn -0 0.67431396 0.7384448
vn -0.70585126 -0.059563946 0.7058513
vn -0 -0.71904945 0.69495887
vn -0 -0.059564006 0.99822444
vn -0 -1 0
vn -0.69495904 -0.71904933 0
vn -0.4914102 -0.7190494 0.49141017
vn -0 -0.71904945 0.69495887
vn -0.49141026 -0.7190492 -0.49141034
vn 0.4914102 -0.7190494 0.49141017
vn -0 -0.71904916 -0.69495916
vn 0.6949591 -0.7190493 0
vn 0.49141026 -0.7190492 -0.49141034
vn -0 0.9090097 0.41677475
vn 0.42896122 0.79497445 0.42896137
vn 0.2947041 0.9090098 0.29470423
vn -0 0.79497445 0.60664296
vn -0 1 0
vn -0.29470432 0.9090097 0.29470453
vn 0.60664266 0.7949746 0
vn 0.41677442 0.90900993 0
vn -0.4289611 0.79497457 0.42896134
vn -0.41677466 0.9090098 0
vn 0.42896116 0.7949746 -0.42896116
vn 0.2947039 0.90901 -0.29470378
vn -0.6066428 0.79497457 0
vn -0.29470417 0.90900993 -0.29470405
vn -0 0.79497474 -0.6066425
vn -0 0.90901 -0.41677436
vn -0.42896116 0.7949747 -0.428961
g fcbg_desert_002_watertank_01_0
f 3/3/3 2/2/2 1/1/1
f 4/4/4 3/3/3 1/1/1
f 4/4/4 1/1/1 5/5/5
f 3/3/3 4/4/4 6/6/6
f 7/7/7 3/3/3 6/6/6
f 8/8/8 4/4/4 5/5/5
f 8/8/8 5/5/5 9/9/9
f 6/6/6 10/10/10 7/7/7
f 10/10/10 11/11/11 7/7/7
f 12/12/12 10/10/10 6/6/6
f 6/6/6 4/4/4 13/13/13
f 13/13/13 12/12/12 6/6/6
f 4/4/4 8/8/8 13/13/13
f 14/14/14 12/12/12 13/13/13
f 15/15/15 14/14/14 13/13/13
f 13/13/13 8/8/8 15/15/15
f 16/16/16 14/14/14 15/15/15
f 17/17/17 8/8/8 9/9/9
f 8/8/8 17/17/17 15/15/15
f 17/17/17 9/9/9 18/18/18
f 19/19/19 16/16/16 15/15/15
f 15/15/15 17/17/17 19/19/19
f 20/20/20 16/16/16 19/19/19
f 21/21/21 17/17/17 18/18/18
f 17/17/17 21/21/21 19/19/19
f 21/21/21 18/18/18 22/22/22
f 23/23/23 20/20/20 19/19/19
f 19/19/19 21/21/21 23/23/23
f 24/24/24 21/21/21 22/22/22
f 21/21/21 24/24/24 23/23/23
f 25/25/25 24/24/24 22/22/22
f 23/23/23 24/24/24 25/25/25
f 26/26/26 25/25/25 22/22/22
f 25/25/25 26/26/26 27/27/27
f 20/20/20 23/23/23 28/28/28
f 28/28/28 23/23/23 25/25/25
f 29/29/29 20/20/20 28/28/28
f 30/30/30 29/29/29 28/28/28
f 31/31/31 30/30/30 28/28/28
f 28/28/28 25/25/25 31/31/31
f 32/32/32 30/30/30 31/31/31
f 33/33/33 32/32/32 31/31/31
f 34/34/34 25/25/25 27/27/27
f 25/25/25 34/34/34 31/31/31
f 31/31/31 34/34/34 33/33/33
f 34/34/34 27/27/27 35/35/35
f 34/34/34 36/36/36 33/33/33
f 36/36/36 34/34/34 35/35/35
f 39/39/39 38/38/38 37/37/37
f 39/39/39 37/37/37 40/40/40
f 38/38/38 41/41/41 37/37/37
f 40/40/40 37/37/37 42/42/42
f 41/41/41 43/43/43 37/37/37
f 37/37/37 44/44/44 42/42/42
f 45/45/45 37/37/37 43/43/43
f 45/45/45 44/44/44 37/37/37
f 48/48/48 47/47/47 46/46/46
f 47/47/47 49/49/49 46/46/46
f 49/49/49 47/47/47 50/50/50
f 46/46/46 49/49/49 51/51/51
f 52/52/52 47/47/47 48/48/48
f 47/47/47 52/52/52 50/50/50
f 53/53/53 52/52/52 48/48/48
f 49/49/49 54/54/54 51/51/51
f 49/49/49 50/50/50 54/54/54
f 51/51/51 54/54/54 55/55/55
f 56/56/56 52/52/52 53/53/53
f 52/52/52 56/56/56 50/50/50
f 57/57/57 56/56/56 53/53/53
f 54/54/54 58/58/58 55/55/55
f 54/54/54 50/50/50 58/58/58
f 55/55/55 58/58/58 59/59/59
f 60/60/60 56/56/56 57/57/57
f 60/60/60 50/50/50 56/56/56
f 61/61/61 60/60/60 57/57/57
f 59/59/59 62/62/62 61/61/61
f 58/58/58 62/62/62 59/59/59
f 58/58/58 50/50/50 62/62/62
f 62/62/62 60/60/60 61/61/61
f 62/62/62 50/50/50 60/60/60
