g fcbg_arkcity_002_shelter_05
v 0.3541898 1.913281 -0.11508468
v 0.3541898 1.913281 0.11508584
v 0.21889809 1.913281 0.3012991
v 0.21889809 1.913281 -0.30129337
v -5.9604645E-07 1.913281 -0.3724191
v -5.9604645E-07 1.913281 0.37242252
v -0.21890152 1.913281 -0.30129337
v -0.21890152 1.913281 0.3012991
v -0.35419327 1.913281 -0.11508468
v -0.35419327 1.913281 0.11508584
v -0.43893713 1.8210678 -0.14261773
v -0.2712748 1.8210678 -0.37337708
v -0.21890152 1.913281 -0.30129337
v -0.43893713 1.8210678 0.14262116
v -0.21890152 1.913281 0.3012991
v -5.9604645E-07 1.8210678 -0.46151817
v -5.9604645E-07 1.913281 -0.3724191
v -0.2712748 1.8210678 0.37338054
v -5.9604645E-07 1.913281 0.37242252
v -5.9604645E-07 1.8210678 0.46151936
v -0.2712748 0.7145008 0.37337828
v -5.9604645E-07 0.7145008 0.4615171
v -0.4389326 0.7145008 0.1426189
v -0.4389326 0.7145008 -0.14261773
v -0.2712748 0.7145008 -0.37337708
v -0.19402736 0.6154729 0.26705998
v -5.9604645E-07 0.6154729 0.33010268
v -0.3139434 0.6154729 0.102006674
v -0.3139434 0.6154729 -0.10200551
v -0.20639765 0.47469586 0.28408897
v -5.9604645E-07 0.47469586 0.35114938
v -5.9604645E-07 0.2218684 0.35114938
v -0.3339619 0.47469586 0.108513415
v -0.20639765 0.2218684 0.28408897
v -5.9604645E-07 0.12905282 0.33010268
v -0.3339619 0.47469586 -0.10850999
v -0.19402736 0.6154729 -0.26705658
v -0.3339619 0.2218684 0.108513415
v -0.19402736 0.12905282 0.26705998
v -0.20639765 0.47469586 -0.2840855
v -0.3339619 0.2218684 -0.10850999
v -0.24290377 0.07348168 0.33433104
v -5.9604645E-07 0.07348168 0.41325444
v -0.3139434 0.12905282 0.102006674
v -0.24290377 -1.9788742E-05 0.33433104
v -5.9604645E-07 -1.9788742E-05 0.41325444
v -0.39302534 -1.9788742E-05 0.12770528
v -0.39302534 0.07348168 0.12770528
v -0.39302534 -1.9788742E-05 -0.12770182
v -0.39302534 0.07348168 -0.12770182
v -0.24290377 -1.9788742E-05 -0.3343276
v -0.3139434 0.12905282 -0.10200551
v -0.24290377 0.07348168 -0.3343276
v -5.9604645E-07 -1.9788742E-05 -0.41325098
v -0.20639765 0.2218684 -0.2840855
v -5.9604645E-07 0.07348168 -0.41325098
v 0.24290486 -1.9788742E-05 -0.3343276
v -0.19402736 0.12905282 -0.26705658
v -5.9604645E-07 0.47469586 -0.3511482
v 0.24290486 0.07348168 -0.3343276
v 0.39302868 -1.9788742E-05 -0.12770182
v -5.9604645E-07 0.12905282 -0.33009696
v -5.9604645E-07 0.2218684 -0.3511482
v -5.9604645E-07 0.6154729 -0.33009696
v 0.39302868 0.07348168 -0.12770182
v 0.39302868 -1.9788742E-05 0.12770528
v 0.1940307 0.12905282 -0.26705658
v 0.20640099 0.47469586 -0.2840855
v 0.20640099 0.2218684 -0.2840855
v -5.9604645E-07 0.7145008 -0.46152043
v 0.39302868 0.07348168 0.12770528
v 0.24290486 -1.9788742E-05 0.33433104
v 0.31394678 0.12905282 -0.10200551
v 0.33396524 0.2218684 -0.10850999
v 0.33396524 0.47469586 -0.10850999
v 0.1940307 0.6154729 -0.26705658
v 0.2712736 0.7145008 -0.37337708
v 0.24290486 0.07348168 0.33433104
v -5.9604645E-07 -1.9788742E-05 0.41325444
v -5.9604645E-07 0.07348168 0.41325444
v 0.31394678 0.12905282 0.102006674
v 0.1940307 0.12905282 0.26705998
v -5.9604645E-07 0.12905282 0.33010268
v -5.9604645E-07 0.2218684 0.35114938
v 0.20640099 0.2218684 0.28408897
v -5.9604645E-07 0.47469586 0.35114938
v 0.33396524 0.2218684 0.108513415
v 0.20640099 0.47469586 0.28408897
v 0.33396524 0.47469586 0.108513415
v 0.1940307 0.6154729 0.26705998
v -5.9604645E-07 0.6154729 0.33010268
v 0.31394678 0.6154729 -0.10200551
v 0.31394678 0.6154729 0.102006674
v 0.2712736 0.7145008 0.37337828
v -5.9604645E-07 0.7145008 0.4615171
v 0.43893144 0.7145008 -0.14261773
v 0.43893144 0.7145008 0.1426189
v 0.2712736 1.8210678 0.37338054
v -5.9604645E-07 1.8210678 0.46151936
v 0.2712736 1.8210678 -0.37337708
v 0.21889809 1.913281 -0.30129337
v 0.43893144 1.8210678 -0.14261773
v 0.3541898 1.913281 -0.11508468
v 0.43893144 1.8210678 0.14262116
v 0.3541898 1.913281 0.11508584
v 0.21889809 1.913281 0.3012991
v -5.9604645E-07 1.913281 0.37242252
vt 0.9197001 0.59234905
vt 0.9280953 0.59234905
vt 0.934869 0.5874241
vt 0.9129264 0.5874241
vt 0.91033506 0.57943803
vt 0.93747544 0.57945323
vt 0.9129264 0.5714672
vt 0.93488413 0.5714672
vt 0.9197152 0.56652707
vt 0.9280953 0.56652707
vt 0.9197152 0.56187487
vt 0.91135037 0.56187487
vt 0.91135037 0.56652707
vt 0.9280953 0.56187487
vt 0.93646014 0.56652707
vt 0.9030764 0.56187487
vt 0.9030764 0.56652707
vt 0.93646014 0.56187487
vt 0.9447189 0.56652707
vt 0.9447189 0.56187487
vt 0.93646014 0.5210507
vt 0.9447189 0.5210507
vt 0.9280953 0.5210507
vt 0.9197152 0.5210507
vt 0.91135037 0.5210507
vt 0.93646014 0.51523167
vt 0.9447189 0.51523167
vt 0.9280953 0.51523167
vt 0.9197152 0.51523167
vt 0.93646014 0.509746
vt 0.9447189 0.509746
vt 0.9447189 0.4998203
vt 0.9280953 0.509746
vt 0.93646014 0.4998203
vt 0.9447189 0.49609247
vt 0.9197152 0.509746
vt 0.91135037 0.51523167
vt 0.9280953 0.4998203
vt 0.93646014 0.49609247
vt 0.91135037 0.509746
vt 0.9197152 0.4998203
vt 0.93646014 0.49271318
vt 0.9447189 0.49271318
vt 0.9280953 0.49609247
vt 0.93646014 0.49007642
vt 0.9447189 0.49007642
vt 0.9280953 0.49007642
vt 0.9280953 0.49271318
vt 0.9197152 0.49007642
vt 0.9197152 0.49271318
vt 0.91135037 0.49007642
vt 0.9197152 0.49609247
vt 0.91135037 0.49271318
vt 0.9030764 0.49007642
vt 0.91135037 0.4998203
vt 0.9030764 0.49271318
vt 0.91135037 0.49007642
vt 0.91135037 0.49609247
vt 0.9030764 0.509746
vt 0.91135037 0.49271318
vt 0.9197152 0.49007642
vt 0.9030764 0.49609247
vt 0.9030764 0.49980512
vt 0.9030764 0.51523167
vt 0.9197152 0.49271318
vt 0.9280953 0.49007642
vt 0.91135037 0.49609247
vt 0.91135037 0.509746
vt 0.91135037 0.49980512
vt 0.9030764 0.5210507
vt 0.9280953 0.49271318
vt 0.93646014 0.49007642
vt 0.9197152 0.49609247
vt 0.9197152 0.49980512
vt 0.9197152 0.509746
vt 0.91135037 0.51523167
vt 0.91135037 0.5210507
vt 0.93646014 0.49271318
vt 0.9447189 0.49007642
vt 0.9447189 0.49271318
vt 0.9280953 0.49609247
vt 0.93646014 0.49609247
vt 0.9447189 0.49609247
vt 0.9447189 0.49980512
vt 0.93646014 0.49980512
vt 0.9447189 0.509746
vt 0.9280953 0.49980512
vt 0.93646014 0.509746
vt 0.9280953 0.509746
vt 0.93646014 0.51523167
vt 0.9447189 0.51523167
vt 0.9197152 0.51523167
vt 0.9280953 0.51523167
vt 0.93646014 0.5210507
vt 0.9447189 0.5210507
vt 0.9197152 0.5210507
vt 0.9280953 0.5210507
vt 0.93646014 0.56187487
vt 0.9447189 0.56187487
vt 0.91135037 0.56187487
vt 0.91135037 0.56652707
vt 0.9197152 0.56187487
vt 0.9197152 0.56652707
vt 0.9280953 0.56187487
vt 0.9280953 0.56652707
vt 0.93646014 0.56652707
vt 0.9447189 0.56652707
vn 0.4304381 0.89155847 -0.1408776
vn 0.4304381 0.89155847 0.1408776
vn 0.26681542 0.89155847 0.36596859
vn 0.26681542 0.89155847 -0.36596859
vn 0.00092864037 0.89155847 -0.45290467
vn 0.00092864037 0.89155847 0.45290467
vn -0.2668175 0.89155847 -0.36596704
vn -0.2668175 0.89155847 0.36596704
vn -0.43044013 0.89155847 -0.14087147
vn -0.43044013 0.89155847 0.14087147
vn -0.88969916 0.35048813 -0.29256365
vn -0.5494384 0.35048813 -0.7584692
vn -0.2668175 0.89155847 -0.36596704
vn -0.88969916 0.35048813 0.29256365
vn -0.2668175 0.89155847 0.36596704
vn 0.00092864037 0.35048813 -0.9365667
vn 0.00092864037 0.89155847 -0.45290467
vn -0.5494384 0.35048813 0.7584692
vn 0.00092864037 0.89155847 0.45290467
vn 0.00092864037 0.35048813 0.9365667
vn -0.5345636 -0.41370398 0.73694694
vn 0.00092864037 -0.41370398 0.910411
vn -0.8655276 -0.41370398 0.2823314
vn -0.8655276 -0.41370398 -0.2823314
vn -0.5345636 -0.41370398 -0.73694694
vn -0.5345636 -0.41928202 0.73378766
vn 0.00092864037 -0.41928202 0.9078556
vn -0.86366826 -0.41928202 0.27978513
vn -0.86366826 -0.41928202 -0.27978513
vn -0.5866254 0.07344526 0.8065212
vn 0.00092864037 0.07344526 0.99729884
vn 0.00092864037 -0.10877085 0.9940664
vn -0.9491983 0.07344526 0.3059875
vn -0.5847661 -0.10877085 0.8038766
vn 0.00092864037 0.4155653 0.9095629
vn -0.9491983 0.07344526 -0.3059875
vn -0.5345636 -0.41928202 -0.73378766
vn -0.9454796 -0.10877085 0.3069809
vn -0.5345636 0.4155653 0.7358989
vn -0.5866254 0.07344526 -0.8065212
vn -0.9454796 -0.10877085 -0.3069809
vn -0.52898556 0.43601817 0.72805387
vn 0.00092864037 0.43601817 0.8999374
vn -0.8655276 0.4155653 0.27958447
vn -0.5884847 -0.00092864037 0.80850786
vn 0.00092864037 -0.00092864037 0.99999917
vn -0.9510576 -0.00092864037 0.30901226
vn -0.8562309 0.43601817 0.27705008
vn -0.9510576 -0.00092864037 -0.30901226
vn -0.8562309 0.43601817 -0.27705008
vn -0.5884847 -0.00092864037 -0.80850786
vn -0.8655276 0.4155653 -0.27958447
vn -0.52898556 0.43601817 -0.72805387
vn 0.00092864037 -0.00092864037 -0.99999917
vn -0.5847661 -0.10877085 -0.8038766
vn 0.00092864037 0.43601817 -0.8999374
vn 0.5884827 -0.00092864037 -0.8085093
vn -0.5345636 0.4155653 -0.7358989
vn 0.00092864037 0.07344526 -0.99729884
vn 0.52898353 0.43601817 -0.72805536
vn 0.9510556 -0.00092864037 -0.30901843
vn 0.00092864037 0.4155653 -0.9095629
vn 0.00092864037 -0.10877085 -0.9940664
vn 0.00092864037 -0.41928202 -0.9078556
vn 0.8562288 0.43601817 -0.27705655
vn 0.9510556 -0.00092864037 0.30901843
vn 0.5345616 0.4155653 -0.73590034
vn 0.5866233 0.07344526 -0.80652267
vn 0.584764 -0.10877085 -0.80387807
vn 0.00092864037 -0.41370398 -0.910411
vn 0.8562288 0.43601817 0.27705655
vn 0.5884827 -0.00092864037 0.8085093
vn 0.86552554 0.4155653 -0.27959076
vn 0.94547755 -0.10877085 -0.3069871
vn 0.9491962 0.07344526 -0.30599403
vn 0.5345616 -0.41928202 -0.73378915
vn 0.5345616 -0.41370398 -0.7369484
vn 0.52898353 0.43601817 0.72805536
vn 0.00092864037 -0.00092864037 0.99999917
vn 0.00092864037 0.43601817 0.8999374
vn 0.86552554 0.4155653 0.27959076
vn 0.5345616 0.4155653 0.73590034
vn 0.00092864037 0.4155653 0.9095629
vn 0.00092864037 -0.10877085 0.9940664
vn 0.584764 -0.10877085 0.80387807
vn 0.00092864037 0.07344526 0.99729884
vn 0.94547755 -0.10877085 0.3069871
vn 0.5866233 0.07344526 0.80652267
vn 0.9491962 0.07344526 0.30599403
vn 0.5345616 -0.41928202 0.73378915
vn 0.00092864037 -0.41928202 0.9078556
vn 0.86366624 -0.41928202 -0.2797914
vn 0.86366624 -0.41928202 0.2797914
vn 0.5345616 -0.41370398 0.7369484
vn 0.00092864037 -0.41370398 0.910411
vn 0.86552554 -0.41370398 -0.28233764
vn 0.86552554 -0.41370398 0.28233764
vn 0.54943633 0.35048813 0.7584707
vn 0.00092864037 0.35048813 0.9365667
vn 0.54943633 0.35048813 -0.7584707
vn 0.26681542 0.89155847 -0.36596859
vn 0.8896971 0.35048813 -0.29256997
vn 0.4304381 0.89155847 -0.1408776
vn 0.8896971 0.35048813 0.29256997
vn 0.4304381 0.89155847 0.1408776
vn 0.26681542 0.89155847 0.36596859
vn 0.00092864037 0.89155847 0.45290467
g fcbg_arkcity_002_shelter_05_0
f 3/3/3 2/2/2 1/1/1
f 4/4/4 3/3/3 1/1/1
f 3/3/3 4/4/4 5/5/5
f 6/6/6 3/3/3 5/5/5
f 5/5/5 7/7/7 6/6/6
f 7/7/7 8/8/8 6/6/6
f 7/7/7 9/9/9 8/8/8
f 9/9/9 10/10/10 8/8/8
f 10/10/10 9/9/9 11/11/11
f 11/11/11 9/9/9 12/12/12
f 9/9/9 13/13/13 12/12/12
f 14/14/14 10/10/10 11/11/11
f 15/15/15 10/10/10 14/14/14
f 12/12/12 13/13/13 16/16/16
f 13/13/13 17/17/17 16/16/16
f 18/18/18 15/15/15 14/14/14
f 19/19/19 15/15/15 18/18/18
f 20/20/20 19/19/19 18/18/18
f 20/20/20 18/18/18 21/21/21
f 22/22/22 20/20/20 21/21/21
f 18/18/18 14/14/14 23/23/23
f 21/21/21 18/18/18 23/23/23
f 14/14/14 11/11/11 24/24/24
f 23/23/23 14/14/14 24/24/24
f 11/11/11 12/12/12 25/25/25
f 24/24/24 11/11/11 25/25/25
f 22/22/22 21/21/21 26/26/26
f 27/27/27 22/22/22 26/26/26
f 21/21/21 23/23/23 28/28/28
f 26/26/26 21/21/21 28/28/28
f 23/23/23 24/24/24 29/29/29
f 28/28/28 23/23/23 29/29/29
f 26/26/26 30/30/30 27/27/27
f 30/30/30 31/31/31 27/27/27
f 31/31/31 30/30/30 32/32/32
f 28/28/28 33/33/33 26/26/26
f 33/33/33 30/30/30 26/26/26
f 30/30/30 34/34/34 32/32/32
f 30/30/30 33/33/33 34/34/34
f 32/32/32 34/34/34 35/35/35
f 36/36/36 33/33/33 28/28/28
f 29/29/29 36/36/36 28/28/28
f 29/29/29 24/24/24 37/37/37
f 24/24/24 25/25/25 37/37/37
f 33/33/33 38/38/38 34/34/34
f 33/33/33 36/36/36 38/38/38
f 34/34/34 39/39/39 35/35/35
f 34/34/34 38/38/38 39/39/39
f 40/40/40 36/36/36 29/29/29
f 37/37/37 40/40/40 29/29/29
f 36/36/36 41/41/41 38/38/38
f 36/36/36 40/40/40 41/41/41
f 35/35/35 39/39/39 42/42/42
f 43/43/43 35/35/35 42/42/42
f 38/38/38 44/44/44 39/39/39
f 38/38/38 41/41/41 44/44/44
f 42/42/42 45/45/45 43/43/43
f 45/45/45 46/46/46 43/43/43
f 47/47/47 45/45/45 42/42/42
f 42/42/42 39/39/39 48/48/48
f 48/48/48 47/47/47 42/42/42
f 39/39/39 44/44/44 48/48/48
f 49/49/49 47/47/47 48/48/48
f 50/50/50 49/49/49 48/48/48
f 48/48/48 44/44/44 50/50/50
f 51/51/51 49/49/49 50/50/50
f 41/41/41 52/52/52 44/44/44
f 44/44/44 52/52/52 50/50/50
f 53/53/53 51/51/51 50/50/50
f 50/50/50 52/52/52 53/53/53
f 54/54/54 51/51/51 53/53/53
f 41/41/41 55/55/55 52/52/52
f 40/40/40 55/55/55 41/41/41
f 56/56/56 54/54/54 53/53/53
f 57/57/57 54/54/54 56/56/56
f 52/52/52 58/58/58 53/53/53
f 55/55/55 58/58/58 52/52/52
f 53/53/53 58/58/58 56/56/56
f 40/40/40 59/59/59 55/55/55
f 59/59/59 40/40/40 37/37/37
f 60/60/60 57/57/57 56/56/56
f 61/61/61 57/57/57 60/60/60
f 58/58/58 62/62/62 56/56/56
f 56/56/56 62/62/62 60/60/60
f 55/55/55 63/63/63 58/58/58
f 59/59/59 63/63/63 55/55/55
f 63/63/63 62/62/62 58/58/58
f 64/64/64 59/59/59 37/37/37
f 37/37/37 25/25/25 64/64/64
f 65/65/65 61/61/61 60/60/60
f 66/66/66 61/61/61 65/65/65
f 62/62/62 67/67/67 60/60/60
f 60/60/60 67/67/67 65/65/65
f 59/59/59 68/68/68 63/63/63
f 68/68/68 59/59/59 64/64/64
f 63/63/63 69/69/69 62/62/62
f 69/69/69 67/67/67 62/62/62
f 68/68/68 69/69/69 63/63/63
f 25/25/25 70/70/70 64/64/64
f 25/25/25 12/12/12 70/70/70
f 12/12/12 16/16/16 70/70/70
f 71/71/71 66/66/66 65/65/65
f 72/72/72 66/66/66 71/71/71
f 67/67/67 73/73/73 65/65/65
f 65/65/65 73/73/73 71/71/71
f 69/69/69 74/74/74 67/67/67
f 74/74/74 73/73/73 67/67/67
f 68/68/68 75/75/75 69/69/69
f 75/75/75 74/74/74 69/69/69
f 76/76/76 68/68/68 64/64/64
f 64/64/64 70/70/70 76/76/76
f 75/75/75 68/68/68 76/76/76
f 70/70/70 16/16/16 77/77/77
f 70/70/70 77/77/77 76/76/76
f 78/78/78 72/72/72 71/71/71
f 79/79/79 72/72/72 78/78/78
f 80/80/80 79/79/79 78/78/78
f 73/73/73 81/81/81 71/71/71
f 71/71/71 81/81/81 78/78/78
f 78/78/78 82/82/82 80/80/80
f 81/81/81 82/82/82 78/78/78
f 82/82/82 83/83/83 80/80/80
f 84/84/84 83/83/83 82/82/82
f 85/85/85 84/84/84 82/82/82
f 85/85/85 82/82/82 81/81/81
f 86/86/86 84/84/84 85/85/85
f 87/87/87 81/81/81 73/73/73
f 87/87/87 85/85/85 81/81/81
f 74/74/74 87/87/87 73/73/73
f 88/88/88 86/86/86 85/85/85
f 88/88/88 85/85/85 87/87/87
f 89/89/89 87/87/87 74/74/74
f 89/89/89 88/88/88 87/87/87
f 75/75/75 89/89/89 74/74/74
f 86/86/86 88/88/88 90/90/90
f 91/91/91 86/86/86 90/90/90
f 89/89/89 75/75/75 92/92/92
f 92/92/92 75/75/75 76/76/76
f 76/76/76 77/77/77 92/92/92
f 88/88/88 89/89/89 93/93/93
f 93/93/93 89/89/89 92/92/92
f 90/90/90 88/88/88 93/93/93
f 90/90/90 94/94/94 91/91/91
f 94/94/94 95/95/95 91/91/91
f 77/77/77 96/96/96 92/92/92
f 92/92/92 96/96/96 93/93/93
f 93/93/93 97/97/97 90/90/90
f 97/97/97 94/94/94 90/90/90
f 96/96/96 97/97/97 93/93/93
f 94/94/94 98/98/98 95/95/95
f 98/98/98 99/99/99 95/95/95
f 77/77/77 100/100/100 96/96/96
f 16/16/16 100/100/100 77/77/77
f 16/16/16 17/17/17 100/100/100
f 17/17/17 101/101/101 100/100/100
f 100/100/100 102/102/102 96/96/96
f 100/100/100 101/101/101 102/102/102
f 96/96/96 102/102/102 97/97/97
f 101/101/101 103/103/103 102/102/102
f 97/97/97 104/104/104 94/94/94
f 102/102/102 104/104/104 97/97/97
f 102/102/102 103/103/103 104/104/104
f 104/104/104 98/98/98 94/94/94
f 103/103/103 105/105/105 104/104/104
f 104/104/104 105/105/105 98/98/98
f 105/105/105 106/106/106 98/98/98
f 98/98/98 106/106/106 99/99/99
f 106/106/106 107/107/107 99/99/99
