g fcbg_desert_004_stone_05
v -0.64321494 1.0575585 0.681334
v 2.3841858E-07 0.0028475523 1.3417962
v -0.64321494 0.0028475523 1.0298684
v -0.80900073 0.0028440952 0.6445465
v -0.72691035 0.8644414 0.13754141
v -0.8738513 0.0028369427 0.14588964
v -0.7263138 0.856235 -0.6477215
v -0.866025 0.0028191805 -0.7209594
v 2.3841858E-07 0.0028902292 -1.3417966
v -0.54461277 1.2018754 0.03808701
v 2.3841858E-07 1.1529045 0.96051526
v -0.4929005 1.457315 0.5840244
v 0.6432154 1.0575585 0.681334
v 0.6432154 0.0028475523 1.0298684
v 0.80900115 0.0028440952 0.6445465
v 0.72691077 0.8644414 0.13754141
v 0.8738518 0.0028369427 0.14588606
v 0.72631425 0.856235 -0.6477215
v 0.8660255 0.0028191805 -0.7209594
v 2.3841858E-07 0.8600488 -1.1473017
v 0.54461324 1.2018754 0.038083434
v 0.4929011 1.457315 0.5840244
v 2.3841858E-07 1.5491028 0.70876145
v -0.55173945 1.0838673 -0.56447357
v 0.55173993 1.0838673 -0.56447357
v 2.3841858E-07 1.1498506 -0.87554556
v 2.3841858E-07 1.6974287 -0.7490757
v -0.4929005 1.5515957 -0.5276469
v -0.4929005 1.968219 -0.29660225
v 0.4929011 1.5515957 -0.5276469
v 0.4929011 1.968219 -0.2966057
v 0.3816505 2.170778 0.5228313
v -0.3816464 2.170778 0.5228313
v 2.3841858E-07 2.381618 0.5945991
v 2.3841858E-07 2.093137 -0.57827246
vt 0.2106279 0.950843
vt 0.24082708 0.92283565
vt 0.21944107 0.91956306
vt 0.20653334 0.9199284
vt 0.19478245 0.9472507
vt 0.1913272 0.9215266
vt 0.173229 0.9499906
vt 0.16514646 0.92650396
vt 0.13649984 0.9399901
vt 0.19359519 0.95819485
vt 0.23038523 0.95796657
vt 0.21004948 0.9632636
vt 0.2106279 0.950843
vt 0.21944107 0.91956306
vt 0.20653334 0.9199284
vt 0.19478245 0.9472507
vt 0.1913272 0.9215266
vt 0.173229 0.9499906
vt 0.16514646 0.92650396
vt 0.1505796 0.961985
vt 0.19359519 0.95819485
vt 0.21004948 0.9632636
vt 0.2240227 0.9708286
vt 0.17555787 0.958134
vt 0.17555787 0.958134
vt 0.16029084 0.9698849
vt 0.17071748 0.98277736
vt 0.18067224 0.9707373
vt 0.18898311 0.9788807
vt 0.18067224 0.9707373
vt 0.18898311 0.9788807
vt 0.20755318 0.9814683
vt 0.20755318 0.9814683
vt 0.21218048 0.9926865
vt 0.18033737 0.99082947
vn -0.7974802 0.36074197 0.48362228
vn -0.00096189976 0.31456697 0.9492348
vn -0.67049897 0.23376071 0.7041215
vn -0.9571687 0.1471827 0.24932979
vn -0.95838004 0.2854953 -0
vn -0.98410404 0.16642225 0.061991096
vn -0.809024 0.3934492 -0.43666685
vn -0.87059057 0.18950975 -0.45404637
vn -0.00096189976 0.2087493 -0.9779687
vn -0.95662725 0.29131457 -0
vn -0.00096189976 0.3876773 0.92179465
vn -0.7724688 0.3318826 0.5414295
vn 0.79748034 0.36074197 0.4836221
vn 0.67049915 0.23376071 0.7041213
vn 0.95716876 0.1471827 0.24932955
vn 0.95838004 0.28549528 -0
vn 0.98410416 0.16642225 0.061989173
vn 0.80902404 0.3934492 -0.43666673
vn 0.8705907 0.18950975 -0.45404616
vn -0.00096189976 0.42423248 -0.9055528
vn 0.9566273 0.29131457 -0
vn 0.77246886 0.3318826 0.54142946
vn -0.00096189976 0.28955555 0.9571607
vn -0.7397615 0.48387516 -0.4675658
vn 0.7397616 0.48387516 -0.46756563
vn -0.00096189976 0.4704075 -0.8824488
vn -0.00096189976 0.32803464 -0.9446652
vn -0.809024 0.20490134 -0.5509044
vn -0.79170835 0.52235436 -0.31677094
vn 0.80902404 0.20490134 -0.5509043
vn 0.79170847 0.52235436 -0.31677055
vn 0.69166267 0.54544187 0.4733877
vn -0.69166255 0.54544187 0.4733879
vn -0.00096189976 0.84557915 0.5338492
vn -0.00096189976 0.7436094 -0.66861355
g fcbg_desert_004_stone_05_0
f 3/3/3 2/2/2 1/1/1
f 4/4/4 3/3/3 1/1/1
f 5/5/5 4/4/4 1/1/1
f 6/6/6 4/4/4 5/5/5
f 6/6/6 5/5/5 7/7/7
f 8/8/8 6/6/6 7/7/7
f 9/9/9 8/8/8 7/7/7
f 5/5/5 1/1/1 10/10/10
f 7/7/7 5/5/5 10/10/10
f 2/2/2 11/11/11 1/1/1
f 1/1/1 12/12/12 10/10/10
f 12/12/12 1/1/1 11/11/11
f 11/11/11 2/2/2 13/13/13
f 2/2/2 14/14/14 13/13/13
f 14/14/14 15/15/15 13/13/13
f 15/15/15 16/16/16 13/13/13
f 15/15/15 17/17/17 16/16/16
f 18/18/18 16/16/16 17/17/17
f 19/19/19 18/18/18 17/17/17
f 19/19/19 9/9/9 18/18/18
f 20/20/20 9/9/9 7/7/7
f 9/9/9 20/20/20 18/18/18
f 16/16/16 21/21/21 13/13/13
f 21/21/21 16/16/16 18/18/18
f 13/13/13 22/22/22 11/11/11
f 21/21/21 22/22/22 13/13/13
f 23/23/23 12/12/12 11/11/11
f 22/22/22 23/23/23 11/11/11
f 20/20/20 7/7/7 24/24/24
f 7/7/7 10/10/10 24/24/24
f 18/18/18 20/20/20 25/25/25
f 21/21/21 18/18/18 25/25/25
f 26/26/26 20/20/20 24/24/24
f 20/20/20 26/26/26 25/25/25
f 26/26/26 24/24/24 27/27/27
f 26/26/26 27/27/27 25/25/25
f 24/24/24 10/10/10 28/28/28
f 24/24/24 28/28/28 27/27/27
f 10/10/10 29/29/29 28/28/28
f 29/29/29 10/10/10 12/12/12
f 27/27/27 28/28/28 29/29/29
f 21/21/21 25/25/25 30/30/30
f 27/27/27 30/30/30 25/25/25
f 31/31/31 21/21/21 30/30/30
f 21/21/21 31/31/31 22/22/22
f 31/31/31 30/30/30 27/27/27
f 32/32/32 23/23/23 22/22/22
f 31/31/31 32/32/32 22/22/22
f 23/23/23 33/33/33 12/12/12
f 33/33/33 29/29/29 12/12/12
f 34/34/34 23/23/23 32/32/32
f 23/23/23 34/34/34 33/33/33
f 34/34/34 32/32/32 31/31/31
f 33/33/33 34/34/34 29/29/29
f 35/35/35 31/31/31 27/27/27
f 35/35/35 27/27/27 29/29/29
f 35/35/35 34/34/34 31/31/31
f 34/34/34 35/35/35 29/29/29
