g fcbg_desert_003_building_02
v 2.9091156 -2.0442363E-07 -1.7675521
v -2.9091156 2.383392 -1.7675517
v -2.9091156 4.9899327E-08 -1.7675517
v 2.9091156 2.3833916 -1.7675521
v -2.7536137 2.3833919 -1.6268059
v 2.7536135 2.3833914 -1.6268064
v 2.9091156 2.3833916 1.7675517
v 2.7536135 2.3833914 1.6268059
v -2.9091156 2.383392 1.7675521
v -2.9091156 4.9899327E-08 -1.7675517
v -2.9091156 2.0442363E-07 1.7675521
v -2.7536137 2.3833919 1.6268064
v -2.7536137 2.2009735 -1.6268059
v -2.7536137 2.2009735 1.6268064
v 2.7536135 2.200973 -1.6268064
v 2.7536135 2.200973 1.6268059
v -2.9091156 2.0442363E-07 1.7675521
v -2.9091156 2.383392 1.7675521
v 2.9091156 2.3833916 1.7675517
v 2.9091156 -4.9899327E-08 1.7675517
v 2.9091156 -4.9899327E-08 1.7675517
v 2.9091156 2.3833916 1.7675517
v 2.9091156 2.3833916 -1.7675521
v 2.9091156 -2.0442363E-07 -1.7675521
v 2.2113385 2.5690515 -1.0995089
v 2.2113385 2.5690515 1.0995083
v 1.057661 2.5690515 1.0995085
v 1.057661 2.5690515 -1.0995086
v 2.2113385 2.180601 -1.0995086
v 1.0576612 2.180336 -1.0995083
v 1.0576612 2.180336 -1.0995083
v 1.0576612 2.1806011 1.0995084
v 2.2113385 2.5690515 1.0995083
v 2.2113385 2.1806011 1.0995082
v 1.0576612 2.1806011 1.0995084
v 1.057661 2.5690515 1.0995085
v 2.2113385 2.5690515 -1.0995089
v 2.2113385 2.1806011 1.0995082
v 2.2113385 2.180601 -1.0995086
v -1.1757373 2.5690515 -1.0995086
v -1.1757373 2.5690515 1.0995085
v -2.329415 2.5690515 1.0995088
v -2.329415 2.5690515 -1.0995084
v -1.1757373 2.1806102 -1.0995084
v -2.329414 2.1803079 -1.099508
v -2.329414 2.1803079 -1.099508
v -2.329414 2.1806104 1.0995086
v -1.1757373 2.5690515 1.0995085
v -1.1757373 2.1806104 1.0995084
v -2.329414 2.1806104 1.0995086
v -2.329415 2.5690515 1.0995088
v -1.1757373 2.5690515 -1.0995086
v -1.1757373 2.1806104 1.0995084
v -1.1757373 2.1806102 -1.0995084
v 2.1650453 4.0508904 -0.010218929
v 1.9246905 4.0508914 -0.28658515
v 2.0137012 4.0508904 -0.37559623
v 1.6483237 4.0508904 -0.5269402
v 2.039166 4.0508914 -0.010218431
v 1.924691 4.0508914 0.26614717
v 2.0137012 4.0508904 0.35515678
v 1.6483239 4.0508904 0.50650084
v 1.6453387 4.050892 -0.39364058
v 1.3742181 4.050892 -0.28133902
v 1.282946 4.0508904 -0.37559617
v 1.9246905 3.9169283 -0.28658515
v 1.6453387 3.9169285 -0.39364058
v 1.6453384 3.7565436 -0.010218895
v 2.039166 3.9169283 -0.010218426
v 1.3742181 3.9169285 -0.28133902
v 1.924691 3.9169283 0.26614717
v 1.6453387 4.050892 0.3732027
v 1.2619165 3.9169285 -0.010218389
v 1.3742181 4.050892 0.260901
v 1.282946 4.0508904 0.35515684
v 1.1316023 4.0508904 -0.010218837
v 1.6453387 3.9169285 0.3732027
v 1.3742181 3.9169285 0.260901
v 1.2619165 4.050892 -0.010218395
v 1.282946 2.5428715 -0.3755961
v 1.6483237 2.5428715 -0.5269401
v 1.1316023 2.5428715 -0.01021877
v 1.6483237 4.0508904 -0.5269402
v 1.282946 4.0508904 0.35515684
v 2.013701 2.5428715 -0.37559617
v 1.282946 2.5428715 0.35515684
v 2.0137012 4.0508904 -0.37559623
v 1.6483239 4.0508904 0.50650084
v 2.1650448 2.5428715 -0.0102188615
v 1.6483238 2.5428715 0.50650084
v 2.1650453 4.0508904 -0.010218929
v 2.0137012 4.0508904 0.35515678
v 2.013701 2.5428715 0.35515678
v -1.7455347 2.9860106 -0.0041577294
v -2.12869 3.192449 -0.0044727037
v -2.0220337 3.2269027 -0.2735941
v -2.0859983 3.2458575 0.34831837
v -1.7463297 3.2712936 -0.39897984
v -1.7463291 3.3217757 0.3777094
v -1.7455347 3.3104734 0.49431905
v -1.4926969 3.3987992 0.25742912
v -1.4041882 3.4017005 0.3483183
v -1.3911606 3.425048 -0.0044727693
v -1.2649287 3.439488 -0.0041577853
v -1.4050717 3.3987093 -0.3566279
v -1.7455354 3.2662027 -0.50262934
v -2.0220337 3.2269027 -0.2735941
v -2.0875833 3.1946635 -0.3566286
v -2.12869 3.192449 -0.0044727037
v -2.228507 3.1701257 -0.0041576894
v -2.0859983 3.2458575 0.34831837
v -1.3930616 2.5403852 -0.35662788
v -1.2470609 2.5403852 -0.004157757
v -1.7455353 2.5403852 -0.50262934
v -1.2649287 3.439488 -0.0041577853
v -2.0980093 2.5403852 -0.35662857
v -1.3930606 2.5403852 0.34831834
v -2.2440088 2.5403852 -0.0041576694
v -1.4041882 3.4017005 0.3483183
v -2.0980089 2.5403852 0.3483184
v -1.7455347 2.5403852 0.49431902
v -1.7455347 3.3104734 0.49431905
vt 0.99198884 0.6626877
vt 0.8349708 0.72449404
vt 0.8349708 0.6626878
vt 0.99198884 0.72449404
vt 0.84180516 0.73121625
vt 0.9845788 0.7312161
vt 0.9919891 0.81849325
vt 0.9845788 0.8124196
vt 0.8349708 0.81849325
vt 0.7746729 0.72449404
vt 0.7746729 0.8184933
vt 0.84180516 0.8124196
vt 0.84960896 0.73565465
vt 0.84960896 0.8079812
vt 0.976775 0.73565465
vt 0.976775 0.8079812
vt 0.8349708 0.6626878
vt 0.8349708 0.72449404
vt 0.99198884 0.72449404
vt 0.99198884 0.6626877
vt 0.7746729 0.8184933
vt 0.8349708 0.81849325
vt 0.8349708 0.72449404
vt 0.7746729 0.72449404
vt 0.765803 0.7186674
vt 0.8310347 0.7186674
vt 0.8310347 0.68387187
vt 0.765803 0.68387187
vt 0.7466205 0.7186674
vt 0.7466205 0.68387187
vt 0.765803 0.66413456
vt 0.8310347 0.66413456
vt 0.765803 0.68387187
vt 0.7466205 0.68387187
vt 0.7466205 0.7186674
vt 0.765803 0.7186674
vt 0.8310347 0.68387187
vt 0.765803 0.66413456
vt 0.8310347 0.66413456
vt 0.765803 0.7186674
vt 0.8310347 0.7186674
vt 0.8310347 0.68387187
vt 0.765803 0.68387187
vt 0.7466222 0.7186674
vt 0.7466222 0.68387187
vt 0.765803 0.66413456
vt 0.83083504 0.66413456
vt 0.765803 0.68387187
vt 0.7466205 0.68387187
vt 0.7466205 0.7186674
vt 0.765803 0.7186674
vt 0.8310347 0.68387187
vt 0.765803 0.66413456
vt 0.8310347 0.66413456
vt 0.5791282 0.9977263
vt 0.57336944 0.98616624
vt 0.5691784 0.9877595
vt 0.5691784 0.97366416
vt 0.5807181 0.99388146
vt 0.59119517 0.99379706
vt 0.5931997 0.9977263
vt 0.6031496 0.9877595
vt 0.5732884 0.97536576
vt 0.580898 0.9676242
vt 0.5792301 0.9636972
vt 0.57625633 0.98511696
vt 0.5761935 0.9765717
vt 0.58616394 0.9807118
vt 0.5819469 0.9909097
vt 0.5823279 0.970577
vt 0.59005994 0.99084425
vt 0.59904283 0.9860555
vt 0.5903147 0.97051156
vt 0.5989544 0.9750204
vt 0.6031496 0.97366416
vt 0.59309775 0.9636972
vt 0.596137 0.9848496
vt 0.59606844 0.9763044
vt 0.5915242 0.9675398
vt 0.5792301 0.9120046
vt 0.56546456 0.9120046
vt 0.59309775 0.9120046
vt 0.56546456 0.9636972
vt 0.6068633 0.9636972
vt 0.551665 0.9120046
vt 0.6068633 0.9120046
vt 0.551665 0.9636972
vt 0.59309775 0.9636972
vt 0.56546456 0.9120046
vt 0.59309775 0.9120046
vt 0.56546456 0.9636972
vt 0.5792301 0.9636972
vt 0.5792301 0.9120046
vt 0.51406264 0.9807062
vt 0.5302911 0.9821284
vt 0.52657735 0.9698118
vt 0.52449846 0.9936123
vt 0.5150864 0.96393967
vt 0.51282656 0.9948579
vt 0.5125928 0.9975358
vt 0.5038643 0.98958457
vt 0.50154805 0.99160075
vt 0.50090957 0.9795536
vt 0.49783418 0.97928405
vt 0.50368905 0.9677043
vt 0.5150864 0.95968413
vt 0.52556527 0.9622246
vt 0.52556527 0.9575486
vt 0.5363858 0.96096814
vt 0.5363858 0.95761263
vt 0.5473623 0.96093595
vt 0.50368905 0.9339323
vt 0.5150864 0.9339323
vt 0.5150864 0.9339323
vt 0.5150864 0.96393967
vt 0.52556527 0.9339323
vt 0.52556527 0.9339323
vt 0.5363858 0.9339323
vt 0.52556527 0.9622246
vt 0.5473623 0.9339323
vt 0.5363858 0.9339323
vt 0.5363858 0.96096814
vn 0.70710677 0 -0.70710677
vn -0.57735026 0.57735026 -0.57735026
vn -0.70710677 0 -0.70710677
vn 0.57735026 0.57735026 -0.57735026
vn 0.30150375 0.9045351 0.30151567
vn -0.30150375 0.9045351 0.30151567
vn 0.57735026 0.57735026 0.57735026
vn -0.30150375 0.9045351 -0.30151567
vn -0.57735026 0.57735026 0.57735026
vn -0.70710677 0 -0.70710677
vn -0.70710677 0 0.70710677
vn 0.30150375 0.9045351 -0.30151567
vn 0.57735026 0.57735026 0.57735026
vn 0.57735026 0.57735026 -0.57735026
vn -0.57735026 0.57735026 0.57735026
vn -0.57735026 0.57735026 -0.57735026
vn -0.70710677 0 0.70710677
vn -0.57735026 0.57735026 0.57735026
vn 0.57735026 0.57735026 0.57735026
vn 0.70710677 0 0.70710677
vn 0.70710677 0 0.70710677
vn 0.57735026 0.57735026 0.57735026
vn 0.57735026 0.57735026 -0.57735026
vn 0.70710677 0 -0.70710677
vn 0.57735026 0.57735026 -0.57735026
vn 0.57735026 0.57735026 0.57735026
vn -0.57735026 0.57735026 0.57735026
vn -0.57735026 0.57735026 -0.57735026
vn 0.7070531 0 -0.7071604
vn -0.7071306 0 -0.7070829
vn -0.7071306 0 -0.7070829
vn -0.7071366 0 0.70707697
vn 0.57735026 0.57735026 0.57735026
vn 0.70710677 0 0.70710677
vn -0.7071366 0 0.70707697
vn -0.57735026 0.57735026 0.57735026
vn 0.57735026 0.57735026 -0.57735026
vn 0.70710677 0 0.70710677
vn 0.7070531 0 -0.7071604
vn 0.57735026 0.57735026 -0.57735026
vn 0.57735026 0.57735026 0.57735026
vn -0.57735026 0.57735026 0.57735026
vn -0.57735026 0.57735026 -0.57735026
vn 0.70704716 0 -0.7071664
vn -0.7071306 0 -0.7070829
vn -0.7071306 0 -0.7070829
vn -0.7071306 0 0.7070829
vn 0.57735026 0.57735026 0.57735026
vn 0.70710677 0 0.70710677
vn -0.7071306 0 0.7070829
vn -0.57735026 0.57735026 0.57735026
vn 0.57735026 0.57735026 -0.57735026
vn 0.70710677 0 0.70710677
vn 0.70704716 0 -0.7071664
vn 0.7763735 0.63027304 0
vn -0.41129094 0.80770475 0.42243686
vn 0.54897594 0.6302757 -0.5489789
vn -0 0.63024426 -0.7763969
vn -0.59437764 0.80418605 0
vn -0.41129094 0.80770475 -0.42243686
vn 0.54897594 0.6302757 0.5489789
vn -0 0.63027304 0.7763735
vn 0.008010748 0.8006933 0.59902096
vn 0.42028582 0.8041888 0.42028582
vn -0.54899246 0.630247 -0.54899544
vn -0.6042589 0.50086886 0.6196786
vn 0.011110318 0.5009418 0.8654097
vn 0.005400236 0.99998546 0
vn -0.8644577 0.5027054 0
vn 0.6126248 0.49938858 0.61261886
vn -0.6042589 0.50086886 -0.6196786
vn 0.008010748 0.8006933 -0.59902096
vn 0.86637664 0.49939114 0
vn 0.42028582 0.8041888 -0.42028582
vn -0.54899156 0.630246 0.5489975
vn -0.7763969 0.63024426 0
vn 0.011110318 0.5009418 -0.8654097
vn 0.6126248 0.49938858 -0.61261886
vn 0.59436995 0.80419177 0
vn -0.7071038 0 -0.70710975
vn -0 0 -1
vn -1 0 0
vn -0 0.63024426 -0.7763969
vn -0.54899156 0.630246 0.5489975
vn 0.7071038 0 -0.70710975
vn -0.7071038 0 0.70710975
vn 0.54897594 0.6302757 -0.5489789
vn -0 0.63027304 0.7763735
vn 1 0 0
vn -0 0 1
vn 0.7763735 0.63027304 0
vn 0.54897594 0.6302757 0.5489789
vn 0.7071038 0 0.70710975
vn -0.17806393 0.9835776 -0.029468426
vn 0.05762578 0.9979012 -0.029539928
vn -0.054883916 0.9879105 0.14498521
vn -0.5761307 0.71305263 0.39953646
vn -0.24537082 0.9460539 0.21160148
vn -0.27750576 0.9347625 -0.22183233
vn -0.0900747 0.57559115 0.8127615
vn -0.3748903 0.9211086 -0.10495807
vn 0.47183338 0.6575149 0.5874075
vn -0.43068263 0.9009192 -0.053452786
vn 0.7179286 0.6961132 -0.0021988605
vn 0.30826402 0.7791061 -0.5458636
vn -0.1188642 0.5686313 -0.81395936
vn -0.054883916 0.9879105 0.14498521
vn -0.632312 0.5388993 -0.55656916
vn 0.05762578 0.9979012 -0.029539928
vn -0.8519679 0.52285373 -0.027832717
vn -0.5761307 0.71305263 0.39953646
vn 0.7129318 0.010156641 -0.7011599
vn 0.9998598 0.016737048 -0.0005831032
vn 1.1920951E-05 0.0031948148 -0.9999949
vn 0.7179286 0.6961132 -0.0021988605
vn -0.7133195 0.011777794 -0.70074004
vn 0.7131239 0.009727505 0.7009705
vn -0.99979216 0.020384945 0.0003127871
vn 0.47183338 0.6575149 0.5874075
vn -0.71351033 0.012087738 0.7005404
vn -0.0005245219 0.0031471313 0.999995
vn -0.0900747 0.57559115 0.8127615
g fcbg_desert_003_building_02_0
f 3/3/3 2/2/2 1/1/1
f 2/2/2 4/4/4 1/1/1
f 2/2/2 5/5/5 4/4/4
f 5/5/5 6/6/6 4/4/4
f 4/4/4 6/6/6 7/7/7
f 6/6/6 8/8/8 7/7/7
f 7/7/7 8/8/8 9/9/9
f 9/9/9 2/2/2 10/10/10
f 11/11/11 9/9/9 10/10/10
f 9/9/9 12/12/12 2/2/2
f 12/12/12 5/5/5 2/2/2
f 8/8/8 12/12/12 9/9/9
f 5/5/5 13/13/13 6/6/6
f 12/12/12 14/14/14 5/5/5
f 14/14/14 13/13/13 5/5/5
f 13/13/13 15/15/15 6/6/6
f 6/6/6 15/15/15 8/8/8
f 13/13/13 14/14/14 15/15/15
f 16/16/16 14/14/14 12/12/12
f 8/8/8 16/16/16 12/12/12
f 14/14/14 16/16/16 15/15/15
f 15/15/15 16/16/16 8/8/8
f 19/19/19 18/18/18 17/17/17
f 20/20/20 19/19/19 17/17/17
f 23/23/23 22/22/22 21/21/21
f 24/24/24 23/23/23 21/21/21
f 27/27/27 26/26/26 25/25/25
f 28/28/28 27/27/27 25/25/25
f 25/25/25 29/29/29 28/28/28
f 29/29/29 30/30/30 28/28/28
f 28/28/28 31/31/31 27/27/27
f 31/31/31 32/32/32 27/27/27
f 35/35/35 34/34/34 33/33/33
f 36/36/36 35/35/35 33/33/33
f 33/33/33 38/38/38 37/37/37
f 38/38/38 39/39/39 37/37/37
f 42/42/42 41/41/41 40/40/40
f 43/43/43 42/42/42 40/40/40
f 40/40/40 44/44/44 43/43/43
f 44/44/44 45/45/45 43/43/43
f 43/43/43 46/46/46 42/42/42
f 46/46/46 47/47/47 42/42/42
f 50/50/50 49/49/49 48/48/48
f 51/51/51 50/50/50 48/48/48
f 48/48/48 53/53/53 52/52/52
f 53/53/53 54/54/54 52/52/52
f 57/57/57 56/56/56 55/55/55
f 56/56/56 57/57/57 58/58/58
f 56/56/56 59/59/59 55/55/55
f 59/59/59 60/60/60 55/55/55
f 60/60/60 61/61/61 55/55/55
f 61/61/61 60/60/60 62/62/62
f 63/63/63 56/56/56 58/58/58
f 64/64/64 63/63/63 58/58/58
f 65/65/65 64/64/64 58/58/58
f 56/56/56 66/66/66 59/59/59
f 63/63/63 67/67/67 56/56/56
f 67/67/67 66/66/66 56/56/56
f 68/68/68 66/66/66 67/67/67
f 66/66/66 69/69/69 59/59/59
f 59/59/59 69/69/69 60/60/60
f 68/68/68 69/69/69 66/66/66
f 70/70/70 67/67/67 63/63/63
f 64/64/64 70/70/70 63/63/63
f 67/67/67 70/70/70 68/68/68
f 69/69/69 71/71/71 60/60/60
f 68/68/68 71/71/71 69/69/69
f 60/60/60 72/72/72 62/62/62
f 60/60/60 71/71/71 72/72/72
f 73/73/73 70/70/70 64/64/64
f 70/70/70 73/73/73 68/68/68
f 72/72/72 74/74/74 62/62/62
f 74/74/74 75/75/75 62/62/62
f 76/76/76 75/75/75 74/74/74
f 71/71/71 77/77/77 72/72/72
f 68/68/68 77/77/77 71/71/71
f 72/72/72 77/77/77 74/74/74
f 68/68/68 78/78/78 77/77/77
f 68/68/68 73/73/73 78/78/78
f 77/77/77 78/78/78 74/74/74
f 79/79/79 73/73/73 64/64/64
f 78/78/78 73/73/73 79/79/79
f 74/74/74 78/78/78 79/79/79
f 79/79/79 76/76/76 74/74/74
f 79/79/79 64/64/64 65/65/65
f 76/76/76 79/79/79 65/65/65
f 76/76/76 65/65/65 80/80/80
f 80/80/80 65/65/65 81/81/81
f 82/82/82 76/76/76 80/80/80
f 65/65/65 83/83/83 81/81/81
f 84/84/84 76/76/76 82/82/82
f 81/81/81 83/83/83 85/85/85
f 86/86/86 84/84/84 82/82/82
f 83/83/83 87/87/87 85/85/85
f 88/88/88 84/84/84 86/86/86
f 85/85/85 87/87/87 89/89/89
f 90/90/90 88/88/88 86/86/86
f 87/87/87 91/91/91 89/89/89
f 92/92/92 88/88/88 90/90/90
f 89/89/89 91/91/91 93/93/93
f 93/93/93 92/92/92 90/90/90
f 91/91/91 92/92/92 93/93/93
f 96/96/96 95/95/95 94/94/94
f 94/94/94 95/95/95 97/97/97
f 98/98/98 96/96/96 94/94/94
f 94/94/94 97/97/97 99/99/99
f 100/100/100 99/99/99 97/97/97
f 101/101/101 99/99/99 100/100/100
f 94/94/94 99/99/99 101/101/101
f 102/102/102 101/101/101 100/100/100
f 103/103/103 101/101/101 102/102/102
f 94/94/94 101/101/101 103/103/103
f 104/104/104 103/103/103 102/102/102
f 105/105/105 103/103/103 104/104/104
f 94/94/94 103/103/103 105/105/105
f 98/98/98 94/94/94 105/105/105
f 98/98/98 105/105/105 106/106/106
f 98/98/98 106/106/106 107/107/107
f 106/106/106 108/108/108 107/107/107
f 107/107/107 108/108/108 109/109/109
f 108/108/108 110/110/110 109/109/109
f 109/109/109 110/110/110 111/111/111
f 106/106/106 105/105/105 112/112/112
f 112/112/112 105/105/105 113/113/113
f 114/114/114 106/106/106 112/112/112
f 108/108/108 106/106/106 114/114/114
f 105/105/105 115/115/115 113/113/113
f 116/116/116 108/108/108 114/114/114
f 110/110/110 108/108/108 116/116/116
f 113/113/113 115/115/115 117/117/117
f 118/118/118 110/110/110 116/116/116
f 111/111/111 110/110/110 118/118/118
f 115/115/115 119/119/119 117/117/117
f 120/120/120 111/111/111 118/118/118
f 117/117/117 119/119/119 121/121/121
f 122/122/122 111/111/111 120/120/120
f 119/119/119 122/122/122 121/121/121
f 121/121/121 122/122/122 120/120/120
