g fcbg_cityforestcrystal_002_brokencrystal_08
v -1.7332826 -0.91232705 -2.904668
v -1.6863503 0.86695886 -2.833951
v -2.1591053 -0.017289639 -2.959939
v -1.7332826 -0.91232705 -2.904668
v -2.1591053 -0.017289639 -2.959939
v 2.159116 -0.017289639 2.9599395
v -0.25288248 -1.4280677 -2.1000683
v 1.1282445 -0.017289639 -1.4837619
v -0.3120036 1.4280682 -2.224086
v -1.6863503 0.86695886 -2.833951
v -2.1591053 -0.017289639 -2.959939
v -1.6863503 0.86695886 -2.833951
v -1.7332826 -0.91232705 -2.904668
v -0.25288248 -1.4280677 -2.1000683
v -0.3120036 1.4280682 -2.224086
v 1.1282445 -0.017289639 -1.4837619
vt 0.21916795 0.0966741
vt 0.21640225 0.11833877
vt 0.22337598 0.108093776
vt 0.25712943 0.15897675
vt 0.26275006 0.16620326
vt 0.31497127 0.11543924
vt 0.26260138 0.14183238
vt 0.27037802 0.12202637
vt 0.26130772 0.14247176
vt 0.25781342 0.15845633
vt 0.26275006 0.16620326
vt 0.21640225 0.11833877
vt 0.21916795 0.0966741
vt 0.19912404 0.088629775
vt 0.19747354 0.12363226
vt 0.1791991 0.104302086
vn 0.19907153 0.033618808 -0.97940814
vn 0.19907153 0.033618808 -0.97940814
vn 0.19907153 0.033618808 -0.97940814
vn -0.70970356 -0.45191622 0.5404559
vn -0.80864275 -0.012186348 0.5881738
vn 0.43176192 0.000639081 0.9019874
vn -0.23332953 -0.9026394 0.3616621
vn 0.97409546 0.009800136 -0.22592478
vn -0.23882616 0.9002532 0.3640141
vn -0.7060391 0.46052325 0.5379844
vn -0.80864275 -0.012186348 0.5881738
vn 0.4445874 -0.0085219145 -0.895695
vn 0.4445874 -0.0085219145 -0.895695
vn 0.4445874 -0.0085219145 -0.895695
vn 0.4445874 -0.0085219145 -0.895695
vn 0.43359417 -0.030508459 -0.9005917
g fcbg_cityforestcrystal_002_brokencrystal_08_0
f 3/3/3 2/2/2 1/1/1
f 6/6/6 5/5/5 4/4/4
f 6/6/6 4/4/4 7/7/7
f 6/6/6 7/7/7 8/8/8
f 6/6/6 8/8/8 9/9/9
f 6/6/6 9/9/9 10/10/10
f 6/6/6 10/10/10 11/11/11
f 14/14/14 13/13/13 12/12/12
f 15/15/15 14/14/14 12/12/12
f 16/16/16 14/14/14 15/15/15
