g fcbg_cityforestcrystal_003_tree_19
v -0.45879936 -0.012152672 0.8438971
v -0.18670416 -1.5702128 0.070607424
v -0.76237965 0.07512903 0.8503423
v -0.5758219 -1.6754262 -0.022127867
v -0.99665785 -0.15738106 0.7236428
v -1.1635575 -0.12188792 0.53927135
v 1.3201412 -2.2449374 -0.8883202
v -0.8531318 -1.4890896 -0.21892977
v -1.0736299 0.1342287 0.36514997
v 0.84444046 -2.431477 -1.0607929
v 1.3576115 -2.7330205 -2.0615873
v 1.9080739 -2.5895123 -1.9239926
v 0.43111897 -2.1299577 -1.2639384
v 0.57415533 -1.3728852 -1.2926521
v -0.6835799 -0.99131775 -0.35962462
v -0.6558521 0.4139099 0.47322488
v -0.35544348 0.3310008 0.5347376
v 0.9229653 -2.162022 -2.1961117
v 0.8848438 -2.3952253 -2.5126123
v -0.14932323 -0.88735867 -0.16450119
v -0.21935415 0.129498 0.7288158
v 1.2711722 -1.1656361 -2.4660625
v 2.0343075 -0.9177625 -2.3003874
v 1.1912615 -1.542879 -2.966158
v 1.9156361 -1.1240201 -3.1317196
v 2.5409734 -1.1226761 -2.7949338
v 2.7435994 -2.0099244 -2.359051
v 0.036302567 -1.2562389 0.045907736
v -0.45879936 -0.012152672 0.8438971
v -0.18670416 -1.5702128 0.070607424
v 1.3201412 -2.2449374 -0.8883202
v 1.2458155 -1.238546 -1.0342836
v 1.4976672 -1.7131475 -0.87706065
v 1.9080739 -2.5895123 -1.9239926
v 2.2521353 -1.8027828 -1.9689894
v -1.1635575 -0.12188792 0.53927135
v -1.7297654 0.38557863 0.70287967
v -0.99665785 -0.15738106 0.7236428
v -1.0736299 0.1342287 0.36514997
v -1.608221 0.35083222 0.92413616
v -0.76237965 0.07512903 0.8503423
v -1.6434693 0.60331106 0.50657964
v -0.6558521 0.4139099 0.47322488
v -2.4276662 0.7789974 0.98214865
v -1.4417334 0.57932234 0.97772264
v -0.7474284 0.3506112 0.75775623
v -1.414113 0.88388824 0.62657094
v -2.3013315 0.9570551 0.77525806
v -2.3017435 0.785084 1.1498728
v -1.3557959 0.81594205 0.84513354
v -2.0976543 0.8926153 1.1838908
v -1.9835825 1.0606022 1.0626507
v -2.0350542 1.1210098 0.86630297
v -2.5063763 1.7067742 1.0510268
v -2.405386 1.6615028 1.2316589
v -2.2455049 1.656754 1.2362466
v -2.387681 1.7493758 0.9162693
v -2.14194 1.6886992 1.1140985
v -2.1726847 1.7332778 0.9571743
v -2.640602 2.1946783 1.4280844
v -2.5095181 2.304318 1.4312744
v -2.4281082 2.1836514 1.5506744
v -2.5517015 2.078916 1.5540733
v -2.7436113 2.6139913 1.9978166
v -0.35544348 0.3310008 0.5347376
v -0.4721198 0.98505163 1.4934325
v -0.6558521 0.4139099 0.47322488
v -0.7474284 0.3506112 0.75775623
v -0.19372869 0.81755495 1.497757
v -0.21935415 0.129498 0.7288158
v -0.7163255 0.73427534 1.6312838
v -0.76237965 0.07512903 0.8503423
v -0.1987164 0.5418639 1.5889153
v -0.45879936 -0.012152672 0.8438971
v -0.42807865 0.3887446 1.6736107
v -0.70821977 0.47493315 1.6874747
v 0.2360313 1.2354403 2.0387096
v 0.33410072 0.98877907 2.2031841
v -0.11654782 1.251329 2.0226836
v 0.105706215 0.78572917 2.3178654
v -0.30298615 1.0017052 2.1806827
v -0.16309166 0.83153844 2.279338
v -0.013108492 2.0157485 2.6367612
v 0.039456367 1.8728018 2.766047
v -0.052239418 1.7751861 2.8688293
v -0.21329117 2.0680742 2.6177783
v 0.2194972 2.7330208 3.1317196
v -0.22878599 1.7892532 2.872724
v -0.326509 1.9102602 2.7740812
v -0.22367287 -1.454809 0.014912367
v -1.2742605 -1.3471045 0.7007055
v -0.27123213 -1.3249974 -0.050148726
v -0.35679936 -1.6178856 -0.028220654
v -1.3455338 -1.2934166 0.5597718
v -0.396492 -1.3036429 -0.13688684
v -0.5007856 -1.4066343 -0.17720652
v -1.382843 -1.4437344 0.52157855
v -0.5192549 -1.5564324 -0.20682192
v -1.8942456 -1.2955849 1.0265961
v -1.310996 -1.4788156 0.65722585
vt 0.027410781 0.31597033
vt 0.03011007 0.2838653
vt 0.032611046 0.31870267
vt 0.037425697 0.28463653
vt 0.03814183 0.3149457
vt 0.042945467 0.31435075
vt 0.022739358 0.2530824
vt 0.04400315 0.28658664
vt 0.048542365 0.3158932
vt 0.03246782 0.2529061
vt 0.027884535 0.23095925
vt 0.017219586 0.2349586
vt 0.0427141 0.25529692
vt 0.05871152 0.25772077
vt 0.052718 0.2897046
vt 0.05651904 0.3196722
vt 0.061873548 0.31773314
vt 0.043364134 0.23396702
vt 0.040609755 0.22638698
vt 0.063438036 0.28931898
vt 0.066820405 0.31598133
vt 0.06394484 0.23019904
vt 0.0787083 0.23016599
vt 0.058964923 0.21772721
vt 0.074246205 0.21674666
vt 0.085506104 0.21969935
vt 0.10227475 0.22534032
vt 0.07242832 0.28829435
vt 0.07198762 0.31651017
vt 0.07949054 0.29012325
vt 0.093460746 0.26248032
vt 0.07337583 0.2569165
vt 0.08407383 0.25815046
vt 0.108058944 0.24498454
vt 0.095003195 0.23598324
vt 0.3169619 0.7336221
vt 0.3090403 0.7101658
vt 0.30954713 0.73480093
vt 0.32435465 0.7313965
vt 0.301284 0.7137465
vt 0.30312392 0.73925203
vt 0.31649917 0.70672834
vt 0.3169619 0.7336221
vt 0.30164757 0.69059867
vt 0.29372597 0.717239
vt 0.30954713 0.73480093
vt 0.3090403 0.7101658
vt 0.30883098 0.68728244
vt 0.29519132 0.69358444
vt 0.301284 0.7137465
vt 0.28804094 0.6968787
vt 0.29519132 0.69358444
vt 0.30164757 0.69059867
vt 0.29397938 0.6751742
vt 0.2901563 0.6845721
vt 0.2825873 0.6887588
vt 0.29224962 0.6795592
vt 0.28667477 0.6872934
vt 0.2901563 0.6845721
vt 0.285573 0.6680789
vt 0.27984393 0.6726622
vt 0.27391648 0.6768819
vt 0.27984393 0.6726622
vt 0.26641357 0.6562241
vt 0.3169619 0.7336221
vt 0.31649917 0.70672834
vt 0.32435465 0.7313965
vt 0.3169619 0.7336221
vt 0.3090403 0.7101658
vt 0.30954713 0.73480093
vt 0.3090403 0.7101658
vt 0.30954713 0.73480093
vt 0.301284 0.7137465
vt 0.30312392 0.73925203
vt 0.29372597 0.717239
vt 0.301284 0.7137465
vt 0.30164757 0.69059867
vt 0.29519132 0.69358444
vt 0.30883098 0.68728244
vt 0.28804094 0.6968787
vt 0.30164757 0.69059867
vt 0.29519132 0.69358444
vt 0.28151858 0.671307
vt 0.27748618 0.6745241
vt 0.27391648 0.6768819
vt 0.285573 0.6680789
vt 0.26641357 0.6562241
vt 0.27748618 0.6745241
vt 0.28151858 0.671307
vt 0.15129164 0.48175076
vt 0.16557033 0.515839
vt 0.14678548 0.48388818
vt 0.15834285 0.48178384
vt 0.16041414 0.51745856
vt 0.1432158 0.48740277
vt 0.14678548 0.48388818
vt 0.16557033 0.515839
vt 0.15129164 0.48175076
vt 0.16930526 0.5414326
vt 0.16997734 0.5142855
vn 0.22675294 -0.656569 0.7193749
vn 0.18049467 -0.5274314 0.8302034
vn -0.28979743 -0.4464795 0.8465657
vn -0.39387846 -0.7683598 0.50446314
vn -0.32256365 -0.5467057 0.7727002
vn -0.8718802 -0.48695546 -0.05195508
vn 0.46189892 -0.5833268 0.6681162
vn -0.8795899 -0.43106014 -0.20126781
vn -0.38616872 0.16644204 -0.9072876
vn -0.19149864 -0.9341184 0.30124915
vn -0.337983 -0.9206264 0.19548531
vn 0.5505606 -0.5813994 0.5990474
vn -0.771654 -0.47346348 -0.4247145
vn -0.5422902 0.6521536 -0.52973294
vn -0.46904802 0.35725737 -0.8076888
vn 0.14387357 0.7504523 -0.645075
vn 0.6064559 0.5557822 -0.56861
vn -0.97210634 -0.13230902 -0.19365838
vn -0.9798161 -0.0802685 0.18307762
vn 0.5177943 0.76587176 -0.38122103
vn 0.9919412 -0.06870395 0.10645361
vn -0.62131476 0.74467003 -0.24379186
vn 0.2980677 0.9277755 0.22447333
vn -0.8179122 0.51337886 -0.25973395
vn -0.19728088 0.9316304 -0.30519676
vn 0.55634284 0.7947831 0.24249211
vn 0.6719884 0.18764377 0.71639466
vn 0.6719884 0.048869133 0.73894745
vn 0.22675294 -0.656569 0.7193749
vn 0.18049467 -0.5274314 0.8302034
vn 0.46189892 -0.5833268 0.6681162
vn 0.3404711 0.86417043 0.3705252
vn 0.7047547 0.10861933 0.70108676
vn 0.5505606 -0.5813994 0.5990474
vn 0.7355935 0.10283697 0.66957206
vn -0.8718802 -0.48695546 -0.05195508
vn -0.6020405 -0.7163192 -0.35275203
vn -0.32256365 -0.5467057 0.7727002
vn -0.38616872 0.16644204 -0.9072876
vn -0.2801603 -0.66813356 0.6892806
vn -0.28979743 -0.4464795 0.8465657
vn -0.3148539 0.01224792 -0.9490611
vn 0.14387357 0.7504523 -0.645075
vn -0.86031556 -0.50622976 -0.059904568
vn 0.2556643 0.045014262 0.9657171
vn -0.42857206 0.77743626 0.4603465
vn 0.29999512 0.8179122 -0.49094045
vn -0.49217713 -0.0070263147 -0.8704667
vn -0.41893494 -0.47731835 0.77243817
vn 0.5235766 0.68299234 0.50930244
vn 0.19976896 -0.09954274 0.97477365
vn 0.6989724 0.44399154 0.5606327
vn 0.46189892 0.6155324 -0.63856816
vn -0.97403383 -0.049429655 -0.22094071
vn -0.54036283 -0.40407616 0.7380586
vn 0.4580441 -0.16507524 0.8734677
vn -0.28594255 0.3765316 -0.88117015
vn 0.9302636 0.26474082 0.2540118
vn 0.6469319 0.46904802 -0.60122633
vn -0.93355787 0.11440158 -0.33967924
vn 0.24409974 0.8410413 -0.48276788
vn 0.8512391 0.098982215 0.5153586
vn -0.35532987 -0.62573016 0.694408
vn -0.3052168 0.6078228 0.73307174
vn 0.6064559 0.5557822 -0.56861
vn -0.2917248 0.88537216 -0.3619568
vn 0.14387357 0.7504523 -0.645075
vn -0.42857206 0.77743626 0.4603465
vn 0.7529403 0.351475 -0.55636877
vn 0.9919412 -0.06870395 0.10645361
vn -0.91235614 0.37267673 0.1694649
vn -0.28979743 -0.4464795 0.8465657
vn 0.8412269 -0.5406824 -0
vn 0.22675294 -0.656569 0.7193749
vn 0.13038158 -0.88207793 0.4527021
vn -0.7465974 -0.44840693 0.49145046
vn 0.7066821 0.44399154 -0.55088294
vn 0.9630298 -0.25759172 0.07886762
vn -0.38038647 0.758162 -0.52961916
vn 0.36167276 -0.7317386 0.57771224
vn -0.9200659 0.11054671 0.37584335
vn -0.4362818 -0.53321373 0.7248043
vn 0.6353673 0.42664468 -0.643648
vn 0.9784492 -0.04750222 0.20094937
vn 0.38480186 -0.35203564 0.8532283
vn -0.4979595 0.62324214 -0.6029971
vn 0.36167276 0.83911395 0.40630114
vn -0.48639488 -0.29421282 0.82271427
vn -0.96054184 0.15295005 0.23230511
vn 0.5505606 0.052723885 0.8331286
vn 0.47924578 0.38616872 0.7881607
vn 0.35396308 0.80442023 0.47709352
vn 0.17471242 -0.8801505 0.44137365
vn -0.2917248 0.8969368 -0.3322665
vn -0.12211132 0.9759612 -0.18052296
vn -0.5345806 0.47675776 -0.6978006
vn -0.64444387 -0.47153604 -0.6019517
vn -0.5712017 -0.5698348 -0.5907765
vn -0.798638 0.13174844 0.5872135
vn 0.109179914 -0.88207793 0.45827752
g fcbg_cityforestcrystal_003_tree_19_0
f 3/3/3 2/2/2 1/1/1
f 3/3/3 4/4/4 2/2/2
f 4/4/4 3/3/3 5/5/5
f 4/4/4 5/5/5 6/6/6
f 4/4/4 7/7/7 2/2/2
f 4/4/4 6/6/6 8/8/8
f 9/9/9 8/8/8 6/6/6
f 7/7/7 4/4/4 10/10/10
f 8/8/8 10/10/10 4/4/4
f 11/11/11 7/7/7 10/10/10
f 7/7/7 11/11/11 12/12/12
f 13/13/13 11/11/11 10/10/10
f 10/10/10 8/8/8 13/13/13
f 13/13/13 8/8/8 14/14/14
f 8/8/8 9/9/9 15/15/15
f 14/14/14 8/8/8 15/15/15
f 16/16/16 15/15/15 9/9/9
f 15/15/15 16/16/16 17/17/17
f 11/11/11 13/13/13 18/18/18
f 14/14/14 18/18/18 13/13/13
f 19/19/19 11/11/11 18/18/18
f 15/15/15 17/17/17 20/20/20
f 14/14/14 15/15/15 20/20/20
f 21/21/21 20/20/20 17/17/17
f 22/22/22 19/19/19 18/18/18
f 14/14/14 22/22/22 18/18/18
f 14/14/14 23/23/23 22/22/22
f 19/19/19 22/22/22 24/24/24
f 24/24/24 22/22/22 25/25/25
f 23/23/23 25/25/25 22/22/22
f 25/25/25 23/23/23 26/26/26
f 23/23/23 27/27/27 26/26/26
f 21/21/21 28/28/28 20/20/20
f 29/29/29 28/28/28 21/21/21
f 29/29/29 30/30/30 28/28/28
f 30/30/30 31/31/31 28/28/28
f 20/20/20 32/32/32 14/14/14
f 32/32/32 20/20/20 28/28/28
f 23/23/23 14/14/14 32/32/32
f 28/28/28 31/31/31 33/33/33
f 28/28/28 33/33/33 32/32/32
f 33/33/33 23/23/23 32/32/32
f 34/34/34 33/33/33 31/31/31
f 34/34/34 27/27/27 35/35/35
f 27/27/27 23/23/23 35/35/35
f 23/23/23 33/33/33 35/35/35
f 33/33/33 34/34/34 35/35/35
f 38/38/38 37/37/37 36/36/36
f 37/37/37 39/39/39 36/36/36
f 37/37/37 38/38/38 40/40/40
f 41/41/41 40/40/40 38/38/38
f 39/39/39 37/37/37 42/42/42
f 42/42/42 43/43/43 39/39/39
f 40/40/40 44/44/44 37/37/37
f 44/44/44 42/42/42 37/37/37
f 40/40/40 41/41/41 45/45/45
f 45/45/45 41/41/41 46/46/46
f 43/43/43 47/47/47 46/46/46
f 43/43/43 42/42/42 47/47/47
f 42/42/42 44/44/44 48/48/48
f 48/48/48 47/47/47 42/42/42
f 44/44/44 40/40/40 49/49/49
f 45/45/45 49/49/49 40/40/40
f 45/45/45 46/46/46 50/50/50
f 46/46/46 47/47/47 50/50/50
f 50/50/50 51/51/51 45/45/45
f 49/49/49 45/45/45 51/51/51
f 47/47/47 52/52/52 50/50/50
f 51/51/51 50/50/50 52/52/52
f 47/47/47 48/48/48 53/53/53
f 52/52/52 47/47/47 53/53/53
f 44/44/44 54/54/54 48/48/48
f 55/55/55 44/44/44 49/49/49
f 44/44/44 55/55/55 54/54/54
f 56/56/56 49/49/49 51/51/51
f 55/55/55 49/49/49 56/56/56
f 48/48/48 57/57/57 53/53/53
f 48/48/48 54/54/54 57/57/57
f 58/58/58 51/51/51 52/52/52
f 51/51/51 58/58/58 56/56/56
f 59/59/59 52/52/52 53/53/53
f 53/53/53 57/57/57 59/59/59
f 52/52/52 59/59/59 58/58/58
f 60/60/60 54/54/54 55/55/55
f 60/60/60 57/57/57 54/54/54
f 61/61/61 59/59/59 57/57/57
f 59/59/59 61/61/61 58/58/58
f 61/61/61 57/57/57 60/60/60
f 58/58/58 62/62/62 56/56/56
f 58/58/58 61/61/61 62/62/62
f 56/56/56 63/63/63 55/55/55
f 55/55/55 63/63/63 60/60/60
f 56/56/56 62/62/62 63/63/63
f 61/61/61 64/64/64 62/62/62
f 64/64/64 61/61/61 60/60/60
f 64/64/64 60/60/60 63/63/63
f 64/64/64 63/63/63 62/62/62
f 67/67/67 66/66/66 65/65/65
f 66/66/66 67/67/67 68/68/68
f 65/65/65 66/66/66 69/69/69
f 65/65/65 69/69/69 70/70/70
f 68/68/68 71/71/71 66/66/66
f 72/72/72 71/71/71 68/68/68
f 70/70/70 69/69/69 73/73/73
f 70/70/70 73/73/73 74/74/74
f 75/75/75 72/72/72 74/74/74
f 74/74/74 73/73/73 75/75/75
f 71/71/71 72/72/72 76/76/76
f 76/76/76 72/72/72 75/75/75
f 66/66/66 77/77/77 69/69/69
f 69/69/69 78/78/78 73/73/73
f 78/78/78 69/69/69 77/77/77
f 71/71/71 79/79/79 66/66/66
f 77/77/77 66/66/66 79/79/79
f 80/80/80 75/75/75 73/73/73
f 73/73/73 78/78/78 80/80/80
f 81/81/81 71/71/71 76/76/76
f 79/79/79 71/71/71 81/81/81
f 82/82/82 76/76/76 75/75/75
f 75/75/75 80/80/80 82/82/82
f 76/76/76 82/82/82 81/81/81
f 83/83/83 77/77/77 79/79/79
f 77/77/77 84/84/84 78/78/78
f 84/84/84 77/77/77 83/83/83
f 78/78/78 85/85/85 80/80/80
f 85/85/85 78/78/78 84/84/84
f 81/81/81 86/86/86 79/79/79
f 79/79/79 86/86/86 83/83/83
f 87/87/87 84/84/84 83/83/83
f 87/87/87 85/85/85 84/84/84
f 86/86/86 87/87/87 83/83/83
f 88/88/88 80/80/80 85/85/85
f 80/80/80 88/88/88 82/82/82
f 87/87/87 88/88/88 85/85/85
f 86/86/86 81/81/81 89/89/89
f 82/82/82 89/89/89 81/81/81
f 89/89/89 82/82/82 88/88/88
f 87/87/87 89/89/89 88/88/88
f 89/89/89 87/87/87 86/86/86
f 92/92/92 91/91/91 90/90/90
f 90/90/90 91/91/91 93/93/93
f 91/91/91 92/92/92 94/94/94
f 94/94/94 92/92/92 95/95/95
f 94/94/94 95/95/95 96/96/96
f 94/94/94 96/96/96 97/97/97
f 97/97/97 96/96/96 98/98/98
f 93/93/93 97/97/97 98/98/98
f 94/94/94 99/99/99 91/91/91
f 99/99/99 94/94/94 97/97/97
f 93/93/93 100/100/100 97/97/97
f 100/100/100 93/93/93 91/91/91
f 99/99/99 97/97/97 100/100/100
f 99/99/99 100/100/100 91/91/91
