g fcbg_cityforest_003_treeprop_02
v -0.44071737 9.8232945E-17 4.2938985E-24
v -0.48731372 1.4310615 -0.046596102
v -0.48731372 7.591506E-09 -0.046596333
v -0.44071737 1.4310615 2.331495E-07
v -0.48731372 -7.591506E-09 0.046596333
v -0.48731372 1.4310615 0.04659657
v -0.53391004 -5.6543764E-16 4.0735806E-09
v -0.53391004 1.4310615 2.3722309E-07
v -0.44071737 1.4310615 2.331495E-07
v -0.48731372 1.4310615 0.04659657
v -0.48731372 7.591506E-09 -0.046596333
v -0.48731372 1.4310615 -0.046596102
v -0.4661704 0.7829589 0.017119052
v 0.4384307 0.7829589 -0.01988351
v -0.4661704 0.7829589 -0.01988351
v 0.4384307 0.7829589 0.017119052
v 0.4384307 1.3704292 0.017119149
v -0.4661704 1.3704292 0.017119149
v 0.4384307 1.3704292 -0.019883413
v -0.4661704 1.3704292 -0.019883413
v 0.4384307 0.7829589 -0.01988351
v 0.4384307 1.3704292 -0.019883413
v -0.4661704 1.3704292 -0.019883413
v -0.4661704 0.7829589 -0.01988351
v 0.4714152 0.14021462 0.12011724
v 0.5180112 0.14021462 0.07352088
v 0.4605163 0.4920899 -0.043786146
v 0.41392013 0.5080268 8.2768075E-08
v 0.5180112 0.1402146 0.16671354
v 0.4139202 1.4310615 2.3722309E-07
v 0.46051642 1.4310615 -0.046596102
v 0.4605163 0.5239637 0.043786313
v 0.5646082 0.14021462 0.120117195
v 0.46051642 1.4310615 0.04659657
v 0.50711286 1.4310615 2.331495E-07
v 0.50711286 0.5080268 8.2768075E-08
v 0.5180112 0.14021462 0.07352088
v 0.4605163 0.4920899 -0.043786146
v 0.46051642 1.4310615 -0.046596102
v 0.50711286 1.4310615 2.331495E-07
v 0.46051642 1.4310615 0.04659657
vt 0.0026645188 0.21936682
vt 0.007903532 0.33314094
vt 0.007903532 0.21936679
vt 0.002664768 0.33314094
vt 0.007903532 0.21936667
vt 0.007903532 0.33314088
vt 0.013143229 0.21936676
vt 0.013142825 0.33314094
vt 0.007903532 0.3383799
vt 0.013142825 0.33837998
vt 0.007903532 0.21936679
vt 0.007903532 0.33314094
vt 0.41646552 0.119267516
vt 0.49107713 0.116215535
vt 0.41646552 0.116215535
vt 0.49107713 0.119267516
vt 0.49107713 0.16772215
vt 0.41646552 0.16772215
vt 0.49107713 0.17077415
vt 0.41646552 0.17077415
vt 0.49107713 0.16772217
vt 0.49107713 0.119267516
vt 0.41646552 0.119267516
vt 0.41646552 0.16772217
vt 0.0131431045 0.21936642
vt 0.007904062 0.21936639
vt 0.007904062 0.2597563
vt 0.013143075 0.25975633
vt 0.007904062 0.21936636
vt 0.013142855 0.33314082
vt 0.007904062 0.33314082
vt 0.007904062 0.25975627
vt 0.0026655775 0.21936636
vt 0.007904062 0.33314076
vt 0.0026647367 0.33314076
vt 0.002665235 0.25975627
vt 0.007904062 0.21936639
vt 0.007904062 0.2597563
vt 0.007904062 0.33314082
vt 0.007904062 0.3383799
vt 0.013142855 0.3383799
vn 1 0 0
vn -0 0.57735026 -0.81649655
vn -0 0 -1
vn 0.81649655 0.57735026 0
vn -0 0 1
vn -0 0.57735014 0.8164966
vn -1 0 0
vn -0.81649655 0.5773504 0
vn 0.81649655 0.57735026 0
vn -0 0.57735014 0.8164966
vn -0 0 -1
vn -0 0.57735026 -0.81649655
vn -0 -0.7071068 0.7071067
vn -0 -0.7071067 -0.7071068
vn -0 -0.7071067 -0.7071068
vn -0 -0.7071068 0.7071067
vn -0 0.7071067 0.7071068
vn -0 0.7071067 0.7071068
vn -0 0.7071068 -0.7071067
vn -0 0.7071068 -0.7071067
vn -0 -0.7071067 -0.7071068
vn -0 0.7071068 -0.7071067
vn -0 0.7071068 -0.7071067
vn -0 -0.7071067 -0.7071068
vn -0.9814014 -0.10327907 0.16181651
vn 0.070925675 -0.30226356 -0.950582
vn -0.030744344 -0.17741582 -0.9836557
vn -0.9959644 -0.06910378 -0.057266068
vn 0.06383247 0.31589785 0.94664353
vn -0.812837 0.5824912 0.000109161585
vn -0 0.5712836 -0.8207528
vn -0.03377459 0.13665451 0.9900428
vn 0.976719 0.18478629 0.10896848
vn -0 0.5711868 0.8208201
vn 0.81283695 0.58249134 0.00010907333
vn 0.99334633 0.074071266 -0.08818436
vn 0.070925675 -0.30226356 -0.950582
vn -0.030744344 -0.17741582 -0.9836557
vn -0 0.5712836 -0.8207528
vn 0.81283695 0.58249134 0.00010907333
vn -0 0.5711868 0.8208201
g fcbg_cityforest_003_treeprop_02_0
f 3/3/3 2/2/2 1/1/1
f 2/2/2 4/4/4 1/1/1
f 1/1/1 4/4/4 5/5/5
f 4/4/4 6/6/6 5/5/5
f 5/5/5 6/6/6 7/7/7
f 6/6/6 8/8/8 7/7/7
f 2/2/2 8/8/8 9/9/9
f 8/8/8 10/10/10 9/9/9
f 7/7/7 8/8/8 11/11/11
f 8/8/8 12/12/12 11/11/11
f 15/15/15 14/14/14 13/13/13
f 14/14/14 16/16/16 13/13/13
f 16/16/16 17/17/17 13/13/13
f 17/17/17 18/18/18 13/13/13
f 17/17/17 19/19/19 18/18/18
f 19/19/19 20/20/20 18/18/18
f 23/23/23 22/22/22 21/21/21
f 24/24/24 23/23/23 21/21/21
f 27/27/27 26/26/26 25/25/25
f 28/28/28 27/27/27 25/25/25
f 28/28/28 25/25/25 29/29/29
f 27/27/27 28/28/28 30/30/30
f 31/31/31 27/27/27 30/30/30
f 32/32/32 28/28/28 29/29/29
f 32/32/32 29/29/29 33/33/33
f 30/30/30 28/28/28 34/34/34
f 28/28/28 32/32/32 34/34/34
f 34/34/34 32/32/32 35/35/35
f 36/36/36 32/32/32 33/33/33
f 32/32/32 36/36/36 35/35/35
f 36/36/36 33/33/33 37/37/37
f 38/38/38 36/36/36 37/37/37
f 35/35/35 36/36/36 39/39/39
f 36/36/36 38/38/38 39/39/39
f 39/39/39 30/30/30 40/40/40
f 30/30/30 41/41/41 40/40/40
