g fcbg_desert_004_cliff_06
v -8.368934 1.4476242 -3.2704635
v -9.23224 -8.583069E-06 -3.2704635
v -7.086194 1.04904175E-05 -4.547139
v -8.328187 1.4256248 -3.2780123
v -6.8721113 1.9123335 -3.0093026
v -6.90512 0.88531494 -4.272839
v -4.8156414 1.04904175E-05 -4.7697773
v -6.801341 1.3092384 -3.5184288
v -5.079199 1.5157146 -3.5659838
v -6.8125772 2.4090815 -3.0093026
v -5.116315 1.130599 -3.6549134
v -4.790904 0.4193325 -4.5541553
v -1.8367891 0.405756 -4.068531
v -1.9210415 1.04904175E-05 -4.211043
v -0.064925194 1.04904175E-05 -3.3512173
v -2.6996765 0.9768877 -3.4605684
v -2.6695576 1.3835268 -3.3844733
v -4.621088 2.3155117 -3.5850358
v -0.09654617 0.68363094 -3.2386527
v 0.4939232 1.04904175E-05 -2.6784353
v -1.60221 0.86390495 -3.684785
v -0.35261154 1.1992407 -3.082964
v 0.52860546 1.729701 -2.6190157
v -1.666935 1.3294125 -3.637249
v -1.3234987 2.1571226 -3.0768795
v -1.258337 3.5853996 -2.7146006
v -0.22101307 1.6412659 -2.9645238
v 0.6469307 2.6002321 -2.4163995
v 1.1038818 1.5180912 -3.436325
v 1.098197 1.04904175E-05 -3.7992506
v 1.2570229 2.693097 -3.012364
v 3.4393673 1.3590174 -3.5539856
v 3.4393673 1.04904175E-05 -3.736979
v 6.816017 1.4743776 -2.6560173
v 7.5569086 1.04904175E-05 -2.5935745
v 8.930234 1.04904175E-05 -1.4729872
v 9.657377 0.7273445 -8.583069E-06
v 9.9689455 1.04904175E-05 -8.583069E-06
v 8.930234 1.04904175E-05 1.4729891
v 6.816017 1.4743776 2.6560192
v 7.5569086 1.04904175E-05 2.5935764
v 3.4393673 1.04904175E-05 3.7369814
v 8.751937 1.4743776 -8.583069E-06
v 7.988989 1.909728 -8.583069E-06
v 6.108306 2.0866747 -2.1886654
v 3.4393673 1.3590174 3.5539875
v 1.098197 1.04904175E-05 3.7992525
v 3.3165164 2.8109665 -3.085588
v 5.61249 2.6894655 -1.9850988
v 6.108306 2.0866747 2.1886673
v 1.1038818 1.5180912 3.436327
v 0.4939232 1.04904175E-05 2.6784372
v 1.3220139 3.1917086 -2.8300362
v 0.9619789 3.3816042 -2.128067
v 3.2109299 3.3113089 -2.6510167
v 3.1572337 3.7913427 1.04904175E-05
v 0.8354006 3.947032 -2.0366654
v 1.8657465 4.7706156 1.04904175E-05
v 4.010309 3.0012808 -2.4146314
v 4.584027 3.4173508 -1.5450897
v 5.20471 2.8580084 -1.6825247
v 6.045293 3.0318556 1.04904175E-05
v 5.252892 3.6383734 1.04904175E-05
v 7.18961 2.6470451 -8.583069E-06
v 5.61249 2.6894655 1.9851007
v 4.584027 3.4173508 1.5450916
v 3.3165164 2.8109665 3.0855904
v 5.20471 2.8580084 1.6825266
v 4.010309 3.0012808 2.4146338
v 3.2109299 3.3113089 2.651019
v 1.2570229 2.693097 3.0123663
v 1.3220139 3.1917086 2.830038
v 0.9619789 3.3816042 2.128069
v 0.52860546 1.729701 2.6190176
v 0.6469307 2.6002321 2.4164019
v -1.258337 3.5853996 2.7146025
v 0.8354006 3.947032 2.0366678
v -0.09654617 0.68363094 3.238655
v -0.064925194 1.04904175E-05 3.3512192
v -1.8367891 0.405756 4.068533
v -1.9210415 1.04904175E-05 4.2110453
v -4.8156414 -8.583069E-06 4.769779
v -0.35261154 1.1992407 3.0829659
v -0.22101307 1.6412659 2.9645262
v -1.3234987 2.1571226 3.0768814
v -1.666935 1.3294125 3.637251
v -1.60221 0.86390495 3.6847868
v -2.6695576 1.3835087 3.3844757
v -2.6996765 0.9768877 3.4605703
v -4.790904 0.4193325 4.5541573
v -6.90512 0.88531494 4.2728415
v -7.086194 -8.583069E-06 4.547141
v -5.116315 1.130599 3.6549158
v -4.621088 2.3155117 3.5850382
v -5.079199 1.5157146 3.5659857
v -6.801341 1.3092384 3.5184307
v -8.328187 1.4256248 3.2780142
v -6.8721113 1.9123144 3.009305
v -8.368934 1.4476242 3.2704659
v -8.826095 1.4476242 -8.583069E-06
v -9.23224 -8.583069E-06 3.2704659
v -9.689382 -8.583069E-06 -8.583069E-06
v -9.23224 -8.583069E-06 -3.2704635
v -8.368934 1.4476242 -3.2704635
v -6.8721113 1.9123335 -3.0093026
v -7.267514 1.9123144 -8.583069E-06
v -6.8125772 2.4090815 3.009305
v -6.4665174 3.6356726 3.2439222
v -8.565467 3.924842 1.938611
v -8.597049 3.063838 1.6496887
v -4.6179504 3.3502493 3.4419556
v -6.22593 4.0781546 3.392747
v -4.5860634 3.8908634 3.5388145
v -4.007592 4.4124823 3.161932
v -9.726819 3.86586 0.7704115
v -9.844632 3.4483252 1.04904175E-05
v -9.968947 3.948039 1.04904175E-05
v -9.550958 5.3385153 0.7766485
v -8.08661 5.318741 1.4566946
v 0.096904755 4.76495 1.8333864
v -5.9294224 5.106123 2.5630589
v -3.5400505 5.2197523 2.4381351
v -3.4935036 5.8622065 1.04904175E-05
v -8.230435 5.4647703 1.04904175E-05
v -0.86951447 4.965969 1.5673761
v -9.735339 5.3385153 1.04904175E-05
v -9.550958 5.3385153 -0.7766466
v -8.08661 5.318741 -1.4566917
v -9.726819 3.86586 -0.7704096
v -9.844632 3.4483252 1.04904175E-05
v -8.597049 3.063838 -1.6496868
v -8.565467 3.924842 -1.9386091
v -6.4665174 3.6356726 -3.2439198
v -6.22593 4.0781546 -3.3927445
v -4.6179504 3.3502493 -3.4419537
v -4.5860634 3.8908634 -3.5388122
v -4.007592 4.4124823 -3.16193
v -5.9294224 5.106123 -2.5630565
v -3.5400505 5.2197523 -2.4381328
v 0.096904755 4.76495 -1.8333836
v -0.86951447 4.965969 -1.5673742
v -1.4770012 5.669079 -1.2312965
v 0.76852703 5.086462 1.04904175E-05
v -0.3828249 5.6876173 1.04904175E-05
v -1.4770012 5.669079 1.2312994
v -6.8721113 1.9123144 3.009305
v -7.267514 1.9123144 -8.583069E-06
v -7.5192823 2.428856 -8.583069E-06
v -6.8125772 2.4090815 3.009305
v -6.8721113 1.9123335 -3.0093026
v -8.597049 3.063838 1.6496887
v -6.8125772 2.4090815 -3.0093026
v -9.844632 3.4483252 1.04904175E-05
v -8.597049 3.063838 -1.6496868
vt 0.93997556 0.049081743
vt 0.9558142 0.027969956
vt 0.91904277 0.021472603
vt 0.9407949 0.050221115
vt 0.92088836 0.06792411
vt 0.9172254 0.037424117
vt 0.886264 0.02229184
vt 0.91682047 0.052904814
vt 0.8897669 0.05540961
vt 0.91739494 0.07925218
vt 0.88987046 0.048959315
vt 0.8857555 0.029730856
vt 0.8402173 0.025323927
vt 0.8422796 0.018817157
vt 0.81172305 0.0155873
vt 0.851649 0.040842295
vt 0.85050017 0.046784103
vt 0.8801432 0.06589016
vt 0.81015044 0.026548088
vt 0.79942507 0.013807565
vt 0.83487815 0.033403277
vt 0.81205267 0.036021054
vt 0.7948864 0.041793376
vt 0.834624 0.04062572
vt 0.82581955 0.05459979
vt 0.8200095 0.07743478
vt 0.8087663 0.04299867
vt 0.7910256 0.057076335
vt 0.780611 0.0326688
vt 0.7811572 0.0077904463
vt 0.77792734 0.05207619
vt 0.74301094 0.026670486
vt 0.74235183 0.0050973296
vt 0.687529 0.03531483
vt 0.6714174 0.01489988
vt 0.64259356 0.027009487
vt 0.62707514 0.052405745
vt 0.62904316 0.039759398
vt 0.64259356 0.027009487
vt 0.687529 0.03531483
vt 0.6714174 0.01489988
vt 0.74235183 0.0050973296
vt 0.6425653 0.062406063
vt 0.6557954 0.069675595
vt 0.6971527 0.047848165
vt 0.74301094 0.026670486
vt 0.7811572 0.0077904463
vt 0.7454122 0.04936424
vt 0.70544857 0.05725524
vt 0.6971527 0.047848165
vt 0.780611 0.0326688
vt 0.79942507 0.013807565
vt 0.77605337 0.059609354
vt 0.781967 0.07126698
vt 0.74637264 0.058837205
vt 0.7390372 0.09981775
vt 0.7844811 0.0812673
vt 0.7589248 0.11306679
vt 0.7323515 0.05766958
vt 0.721353 0.0714553
vt 0.71049577 0.063780874
vt 0.69014674 0.08641809
vt 0.70542973 0.0932827
vt 0.67138916 0.07923335
vt 0.70544857 0.05725524
vt 0.721353 0.0714553
vt 0.7454122 0.04936424
vt 0.71049577 0.063780874
vt 0.7323515 0.05766958
vt 0.74637264 0.058837205
vt 0.77792734 0.05207619
vt 0.77605337 0.059609354
vt 0.781967 0.07126698
vt 0.7948864 0.041793376
vt 0.7910256 0.057076335
vt 0.8200095 0.07743478
vt 0.7844811 0.0812673
vt 0.81015044 0.026548088
vt 0.81172305 0.0155873
vt 0.8402173 0.025323927
vt 0.8422796 0.018817157
vt 0.886264 0.02229184
vt 0.81205267 0.036021054
vt 0.8087663 0.04299867
vt 0.82581955 0.05459979
vt 0.834624 0.04062572
vt 0.83487815 0.033403277
vt 0.85050017 0.046784103
vt 0.851649 0.040842295
vt 0.8857555 0.029730856
vt 0.9172254 0.037424117
vt 0.91904277 0.021472603
vt 0.88987046 0.048959315
vt 0.8801432 0.06589016
vt 0.8897669 0.05540961
vt 0.91682047 0.052904814
vt 0.9407949 0.050221115
vt 0.92088836 0.06792411
vt 0.93997556 0.049081743
vt 0.98170954 0.0758999
vt 0.9558142 0.027969956
vt 0.99853677 0.05590868
vt 0.9558142 0.027969956
vt 0.93997556 0.049081743
vt 0.92088836 0.06792411
vt 0.96479744 0.09166306
vt 0.91739494 0.07925218
vt 0.9031289 0.0939042
vt 0.9315478 0.121447444
vt 0.9408043 0.113245666
vt 0.8758587 0.08083415
vt 0.8973189 0.097934484
vt 0.87349516 0.08830142
vt 0.8624026 0.09516603
vt 0.951878 0.13646674
vt 0.9650329 0.13581699
vt 0.96084255 0.14503574
vt 0.9372731 0.15293616
vt 0.9168299 0.14001673
vt 0.79481107 0.09611708
vt 0.8877047 0.116466105
vt 0.8512817 0.10902709
vt 0.84051865 0.1472863
vt 0.91600126 0.1628235
vt 0.8073067 0.105778396
vt 0.9428006 0.16273874
vt 0.9372731 0.15293616
vt 0.9168299 0.14001673
vt 0.951878 0.13646674
vt 0.9650329 0.13581699
vt 0.9408043 0.113245666
vt 0.9315478 0.121447444
vt 0.9031289 0.0939042
vt 0.8973189 0.097934484
vt 0.8758587 0.08083415
vt 0.87349516 0.08830142
vt 0.8624026 0.09516603
vt 0.8877047 0.116466105
vt 0.8512817 0.10902709
vt 0.79481107 0.09611708
vt 0.8073067 0.105778396
vt 0.81529194 0.11912155
vt 0.77463156 0.12092012
vt 0.7928713 0.13133478
vt 0.81529194 0.11912155
vt 0.92088836 0.06792411
vt 0.96479744 0.09166306
vt 0.9646186 0.09551442
vt 0.91739494 0.07925218
vt 0.92088836 0.06792411
vt 0.9408043 0.113245666
vt 0.91739494 0.07925218
vt 0.9650329 0.13581699
vt 0.9408043 0.113245666
vn -0.53983516 0.6823651 -0.4929055
vn -0.7705086 0.4591933 -0.44210637
vn -0.27915555 0.35229594 -0.89328593
vn -0.23414606 0.54733676 -0.8034912
vn -0.4760719 0.51170427 -0.7152023
vn -0.14037639 0.62422794 -0.7685271
vn 0.04153669 0.36917442 -0.92843145
vn -0.029728234 0.7386269 -0.67345864
vn -0.067236125 0.21351677 -0.97462296
vn -0.59422165 -0.17093885 -0.7859266
vn 0.05091369 0.62047714 -0.78257006
vn 0.07154298 0.58109385 -0.8106859
vn 0.21407288 0.4629441 -0.86014855
vn 0.26470852 0.30353564 -0.9153117
vn 0.5910269 0.17038268 -0.78845227
vn -0.0015973449 0.48732418 -0.87321967
vn 0.009654999 0.18726128 -0.9822627
vn -0.01847589 0.05410838 -0.99836415
vn 0.50288343 0.23977226 -0.8304321
vn -0.09161621 0.1197471 -0.9885682
vn 0.1446833 0.3916791 -0.90865517
vn 0.33222264 0.29603404 -0.89554
vn -0.20226437 0.23039538 -0.95184404
vn 0.04528749 0.33166653 -0.9423091
vn 0.19531894 0.32228965 -0.92627203
vn 0.23657757 0.25102466 -0.9386254
vn 0.34347504 0.22289377 -0.9123285
vn -0.22476918 0.34104353 -0.9127804
vn -0.4685703 0.23039538 -0.85285395
vn -0.4554425 0.1553796 -0.87660104
vn -0.3935545 0.3879283 -0.8334425
vn 0.13155556 0.27728015 -0.9517399
vn 0.12592942 0.14975339 -0.98067105
vn 0.43912008 0.47982258 -0.7595682
vn 0.49350646 0.21914297 -0.8416815
vn 0.6566657 0.49670118 -0.5675193
vn 0.8310773 0.55483836 -0.038274836
vn 0.91922075 0.3935545 -0.012168518
vn 0.6566657 0.49670118 0.5675193
vn 0.43912008 0.47982258 0.7595682
vn 0.49350646 0.21914297 0.8416815
vn 0.12592942 0.14975339 0.98067105
vn 0.6566657 0.75363 -0.028844777
vn 0.5571821 0.8303904 -0
vn 0.44849703 0.6411064 -0.6227624
vn 0.13155556 0.27728015 0.9517399
vn -0.4554425 0.1553796 0.87660104
vn 0.16906345 0.52108127 -0.8365954
vn 0.40161222 0.7798856 -0.48008966
vn 0.44849703 0.6411064 0.6227624
vn -0.4685703 0.23039538 0.85285395
vn -0.09161621 0.1197471 0.9885682
vn -0.30166024 0.7086206 -0.6378542
vn 0.124054015 0.59609705 -0.793271
vn 0.1521849 0.82301956 -0.5472464
vn 0.22907603 0.973051 -0.026380748
vn 0.4597494 0.4235608 -0.78052974
vn 0.5101299 0.86009735 -0
vn 0.37723207 0.7330007 -0.5660441
vn 0.33409804 0.86240286 -0.3803154
vn 0.38285828 0.86615366 -0.32124352
vn 0.42411694 0.90553695 -0.011296617
vn 0.41098917 0.91116303 -0.029492551
vn 0.5627832 0.82660466 -0
vn 0.40161222 0.7798856 0.48008966
vn 0.33409804 0.86240286 0.3803154
vn 0.16906345 0.52108127 0.8365954
vn 0.38285828 0.86615366 0.32124352
vn 0.37723207 0.7330007 0.5660441
vn 0.1521849 0.82301956 0.5472464
vn -0.3935545 0.3879283 0.8334425
vn -0.30166024 0.7086206 0.6378542
vn 0.124054015 0.59609705 0.793271
vn -0.20226437 0.23039538 0.95184404
vn -0.22476918 0.34104353 0.9127804
vn 0.23657757 0.25102466 0.9386254
vn 0.4597494 0.4235608 0.78052974
vn 0.50288343 0.23977226 0.8304321
vn 0.5910269 0.17038268 0.78845227
vn 0.21407288 0.4629441 0.86014855
vn 0.26470852 0.30353564 0.9153117
vn 0.04153669 0.36917442 0.92843145
vn 0.33222264 0.29603404 0.89554
vn 0.34347504 0.22289377 0.9123285
vn 0.19531894 0.32228965 0.92627203
vn 0.04528749 0.33166653 0.9423091
vn 0.1446833 0.3916791 0.90865517
vn 0.009654999 0.18726128 0.9822627
vn -0.0015973449 0.48732418 0.87321967
vn 0.07154298 0.58109385 0.8106859
vn -0.14037639 0.62422794 0.7685271
vn -0.27915555 0.35229594 0.89328593
vn 0.05091369 0.62047714 0.78257006
vn -0.01847589 0.05410838 0.99836415
vn -0.067236125 0.21351677 0.97462296
vn -0.029728234 0.7386269 0.67345864
vn -0.23414606 0.54733676 0.8034912
vn -0.4760719 0.51170427 0.7152023
vn -0.53983516 0.6823651 0.4929055
vn -0.6336048 0.772384 -0.044361096
vn -0.7705086 0.4591933 0.44210637
vn -0.85865206 0.51170427 -0.029586883
vn -0.7705086 0.4591933 -0.44210637
vn -0.53983516 0.6823651 -0.4929055
vn -0.4760719 0.51170427 -0.7152023
vn -0.84177154 0.53983384 -0
vn -0.59422165 -0.17093885 0.7859266
vn -0.38230222 -0.07341838 0.921116
vn -0.58296925 0.1291241 0.8021682
vn -0.61485094 -0.61353165 0.49551713
vn 0.020907402 -0.03966129 0.9989944
vn -0.26227707 0.23789686 0.935209
vn 0.064041436 0.18163508 0.9812785
vn 0.13530636 0.55483836 0.8208816
vn -0.85302585 -0.17844039 0.49041405
vn -0.7911379 -0.60978085 -0.04762557
vn -0.9992859 -0.03778511 -0
vn -0.59422165 0.6692373 0.4461189
vn -0.24539846 0.81926876 0.5182454
vn 0.30596715 0.7367515 0.6029771
vn -0.14037639 0.8023903 0.5800554
vn 0.065916836 0.85677665 0.5114575
vn -0.037229836 0.9993065 -0.00069053395
vn -0.052197974 0.9986368 -0
vn 0.2947148 0.772384 0.5626421
vn -0.7179976 0.6954928 -0.027734417
vn -0.59422165 0.6692373 -0.4461189
vn -0.24539846 0.81926876 -0.5182454
vn -0.85302585 -0.17844039 -0.49041405
vn -0.7911379 -0.60978085 -0.04762557
vn -0.61485094 -0.61353165 -0.49551713
vn -0.58296925 0.1291241 -0.8021682
vn -0.38230222 -0.07341838 -0.921116
vn -0.26227707 0.23789686 -0.935209
vn 0.020907402 -0.03966129 -0.9989944
vn 0.064041436 0.18163508 -0.9812785
vn 0.13530636 0.55483836 -0.8208816
vn -0.14037639 0.8023903 -0.5800554
vn 0.065916836 0.85677665 -0.5114575
vn 0.30596715 0.7367515 -0.6029771
vn 0.2947148 0.772384 -0.5626421
vn 0.21594828 0.87928134 -0.42453584
vn 0.2965902 0.9542971 -0.03675999
vn 0.3919918 0.9199687 -0
vn 0.21594828 0.87928134 0.42453584
vn -0.4760719 0.51170427 0.7152023
vn -0.84177154 0.53983384 -0
vn -0.7477691 -0.6639588 -0
vn -0.59422165 -0.17093885 0.7859266
vn -0.4760719 0.51170427 -0.7152023
vn -0.61485094 -0.61353165 0.49551713
vn -0.59422165 -0.17093885 -0.7859266
vn -0.7911379 -0.60978085 -0.04762557
vn -0.61485094 -0.61353165 -0.49551713
g fcbg_desert_004_cliff_06_0
f 3/3/3 2/2/2 1/1/1
f 1/1/1 4/4/4 3/3/3
f 4/4/4 1/1/1 5/5/5
f 4/4/4 6/6/6 3/3/3
f 7/7/7 3/3/3 6/6/6
f 8/8/8 4/4/4 5/5/5
f 6/6/6 4/4/4 8/8/8
f 5/5/5 9/9/9 8/8/8
f 9/9/9 5/5/5 10/10/10
f 11/11/11 6/6/6 8/8/8
f 9/9/9 11/11/11 8/8/8
f 12/12/12 7/7/7 6/6/6
f 11/11/11 12/12/12 6/6/6
f 7/7/7 12/12/12 13/13/13
f 14/14/14 7/7/7 13/13/13
f 15/15/15 14/14/14 13/13/13
f 12/12/12 11/11/11 16/16/16
f 13/13/13 12/12/12 16/16/16
f 11/11/11 9/9/9 17/17/17
f 16/16/16 11/11/11 17/17/17
f 18/18/18 9/9/9 10/10/10
f 17/17/17 9/9/9 18/18/18
f 19/19/19 15/15/15 13/13/13
f 20/20/20 15/15/15 19/19/19
f 13/13/13 16/16/16 21/21/21
f 21/21/21 16/16/16 17/17/17
f 19/19/19 13/13/13 22/22/22
f 13/13/13 21/21/21 22/22/22
f 23/23/23 20/20/20 19/19/19
f 23/23/23 19/19/19 22/22/22
f 24/24/24 21/21/21 17/17/17
f 22/22/22 21/21/21 24/24/24
f 25/25/25 24/24/24 17/17/17
f 25/25/25 17/17/17 18/18/18
f 25/25/25 18/18/18 26/26/26
f 27/27/27 22/22/22 24/24/24
f 25/25/25 27/27/27 24/24/24
f 23/23/23 22/22/22 27/27/27
f 28/28/28 27/27/27 25/25/25
f 25/25/25 26/26/26 28/28/28
f 28/28/28 23/23/23 27/27/27
f 20/20/20 23/23/23 29/29/29
f 30/30/30 20/20/20 29/29/29
f 29/29/29 23/23/23 31/31/31
f 23/23/23 28/28/28 31/31/31
f 30/30/30 29/29/29 32/32/32
f 32/32/32 29/29/29 31/31/31
f 33/33/33 30/30/30 32/32/32
f 33/33/33 32/32/32 34/34/34
f 35/35/35 33/33/33 34/34/34
f 36/36/36 35/35/35 34/34/34
f 36/36/36 34/34/34 37/37/37
f 37/37/37 38/38/38 36/36/36
f 38/38/38 37/37/37 39/39/39
f 39/39/39 37/37/37 40/40/40
f 41/41/41 39/39/39 40/40/40
f 42/42/42 41/41/41 40/40/40
f 34/34/34 43/43/43 37/37/37
f 37/37/37 43/43/43 40/40/40
f 43/43/43 34/34/34 44/44/44
f 43/43/43 44/44/44 40/40/40
f 34/34/34 32/32/32 45/45/45
f 34/34/34 45/45/45 44/44/44
f 46/46/46 42/42/42 40/40/40
f 47/47/47 42/42/42 46/46/46
f 32/32/32 48/48/48 45/45/45
f 48/48/48 32/32/32 31/31/31
f 45/45/45 49/49/49 44/44/44
f 48/48/48 49/49/49 45/45/45
f 40/40/40 50/50/50 46/46/46
f 44/44/44 50/50/50 40/40/40
f 51/51/51 47/47/47 46/46/46
f 52/52/52 47/47/47 51/51/51
f 31/31/31 53/53/53 48/48/48
f 31/31/31 28/28/28 53/53/53
f 28/28/28 54/54/54 53/53/53
f 26/26/26 54/54/54 28/28/28
f 53/53/53 55/55/55 48/48/48
f 54/54/54 55/55/55 53/53/53
f 54/54/54 56/56/56 55/55/55
f 57/57/57 56/56/56 54/54/54
f 54/54/54 26/26/26 57/57/57
f 58/58/58 56/56/56 57/57/57
f 59/59/59 48/48/48 55/55/55
f 59/59/59 49/49/49 48/48/48
f 55/55/55 60/60/60 59/59/59
f 60/60/60 55/55/55 56/56/56
f 61/61/61 49/49/49 59/59/59
f 59/59/59 60/60/60 61/61/61
f 49/49/49 61/61/61 62/62/62
f 61/61/61 60/60/60 62/62/62
f 60/60/60 56/56/56 63/63/63
f 60/60/60 63/63/63 62/62/62
f 64/64/64 49/49/49 62/62/62
f 49/49/49 64/64/64 44/44/44
f 64/64/64 65/65/65 44/44/44
f 64/64/64 62/62/62 65/65/65
f 65/65/65 50/50/50 44/44/44
f 63/63/63 66/66/66 62/62/62
f 56/56/56 66/66/66 63/63/63
f 65/65/65 67/67/67 50/50/50
f 50/50/50 67/67/67 46/46/46
f 62/62/62 68/68/68 65/65/65
f 66/66/66 68/68/68 62/62/62
f 65/65/65 68/68/68 69/69/69
f 66/66/66 69/69/69 68/68/68
f 65/65/65 69/69/69 67/67/67
f 66/66/66 70/70/70 69/69/69
f 70/70/70 66/66/66 56/56/56
f 67/67/67 69/69/69 70/70/70
f 46/46/46 67/67/67 71/71/71
f 51/51/51 46/46/46 71/71/71
f 70/70/70 72/72/72 67/67/67
f 72/72/72 71/71/71 67/67/67
f 56/56/56 73/73/73 70/70/70
f 70/70/70 73/73/73 72/72/72
f 51/51/51 71/71/71 74/74/74
f 74/74/74 52/52/52 51/51/51
f 75/75/75 71/71/71 72/72/72
f 73/73/73 75/75/75 72/72/72
f 71/71/71 75/75/75 74/74/74
f 75/75/75 73/73/73 76/76/76
f 56/56/56 77/77/77 73/73/73
f 76/76/76 73/73/73 77/77/77
f 56/56/56 58/58/58 77/77/77
f 52/52/52 74/74/74 78/78/78
f 79/79/79 52/52/52 78/78/78
f 78/78/78 80/80/80 79/79/79
f 80/80/80 81/81/81 79/79/79
f 82/82/82 81/81/81 80/80/80
f 78/78/78 74/74/74 83/83/83
f 78/78/78 83/83/83 80/80/80
f 74/74/74 75/75/75 84/84/84
f 83/83/83 74/74/74 84/84/84
f 84/84/84 75/75/75 85/85/85
f 85/85/85 75/75/75 76/76/76
f 84/84/84 86/86/86 83/83/83
f 84/84/84 85/85/85 86/86/86
f 86/86/86 87/87/87 83/83/83
f 83/83/83 87/87/87 80/80/80
f 86/86/86 85/85/85 88/88/88
f 87/87/87 86/86/86 88/88/88
f 89/89/89 80/80/80 87/87/87
f 89/89/89 87/87/87 88/88/88
f 90/90/90 82/82/82 80/80/80
f 90/90/90 80/80/80 89/89/89
f 90/90/90 91/91/91 82/82/82
f 91/91/91 92/92/92 82/82/82
f 93/93/93 90/90/90 89/89/89
f 93/93/93 89/89/89 88/88/88
f 90/90/90 93/93/93 91/91/91
f 88/88/88 85/85/85 94/94/94
f 85/85/85 76/76/76 94/94/94
f 95/95/95 93/93/93 88/88/88
f 95/95/95 88/88/88 94/94/94
f 91/91/91 93/93/93 96/96/96
f 96/96/96 93/93/93 95/95/95
f 92/92/92 91/91/91 97/97/97
f 97/97/97 91/91/91 96/96/96
f 98/98/98 96/96/96 95/95/95
f 97/97/97 96/96/96 98/98/98
f 99/99/99 92/92/92 97/97/97
f 99/99/99 97/97/97 98/98/98
f 100/100/100 99/99/99 98/98/98
f 101/101/101 92/92/92 99/99/99
f 101/101/101 99/99/99 100/100/100
f 102/102/102 101/101/101 100/100/100
f 102/102/102 100/100/100 103/103/103
f 100/100/100 104/104/104 103/103/103
f 104/104/104 100/100/100 105/105/105
f 100/100/100 106/106/106 105/105/105
f 106/106/106 100/100/100 98/98/98
f 98/98/98 95/95/95 107/107/107
f 95/95/95 94/94/94 107/107/107
f 107/107/107 94/94/94 108/108/108
f 108/108/108 109/109/109 107/107/107
f 109/109/109 110/110/110 107/107/107
f 94/94/94 111/111/111 108/108/108
f 76/76/76 111/111/111 94/94/94
f 112/112/112 108/108/108 111/111/111
f 112/112/112 109/109/109 108/108/108
f 113/113/113 111/111/111 76/76/76
f 113/113/113 112/112/112 111/111/111
f 113/113/113 76/76/76 114/114/114
f 112/112/112 113/113/113 114/114/114
f 114/114/114 76/76/76 77/77/77
f 110/110/110 109/109/109 115/115/115
f 116/116/116 110/110/110 115/115/115
f 117/117/117 116/116/116 115/115/115
f 115/115/115 109/109/109 118/118/118
f 117/117/117 115/115/115 118/118/118
f 109/109/109 112/112/112 119/119/119
f 118/118/118 109/109/109 119/119/119
f 114/114/114 77/77/77 120/120/120
f 58/58/58 120/120/120 77/77/77
f 114/114/114 121/121/121 112/112/112
f 112/112/112 121/121/121 119/119/119
f 122/122/122 121/121/121 114/114/114
f 114/114/114 120/120/120 122/122/122
f 122/122/122 119/119/119 121/121/121
f 122/122/122 123/123/123 119/119/119
f 118/118/118 119/119/119 124/124/124
f 123/123/123 124/124/124 119/119/119
f 120/120/120 125/125/125 122/122/122
f 120/120/120 58/58/58 125/125/125
f 126/126/126 117/117/117 118/118/118
f 126/126/126 118/118/118 124/124/124
f 126/126/126 127/127/127 117/117/117
f 126/126/126 124/124/124 127/127/127
f 124/124/124 123/123/123 128/128/128
f 124/124/124 128/128/128 127/127/127
f 127/127/127 129/129/129 117/117/117
f 130/130/130 117/117/117 129/129/129
f 131/131/131 130/130/130 129/129/129
f 132/132/132 129/129/129 127/127/127
f 132/132/132 131/131/131 129/129/129
f 132/132/132 127/127/127 128/128/128
f 10/10/10 131/131/131 132/132/132
f 133/133/133 10/10/10 132/132/132
f 18/18/18 10/10/10 133/133/133
f 132/132/132 134/134/134 133/133/133
f 132/132/132 128/128/128 134/134/134
f 135/135/135 18/18/18 133/133/133
f 133/133/133 134/134/134 135/135/135
f 18/18/18 135/135/135 26/26/26
f 135/135/135 136/136/136 26/26/26
f 134/134/134 136/136/136 135/135/135
f 26/26/26 136/136/136 137/137/137
f 136/136/136 134/134/134 137/137/137
f 26/26/26 137/137/137 57/57/57
f 128/128/128 138/138/138 134/134/134
f 138/138/138 137/137/137 134/134/134
f 128/128/128 139/139/139 138/138/138
f 138/138/138 139/139/139 137/137/137
f 123/123/123 139/139/139 128/128/128
f 57/57/57 137/137/137 140/140/140
f 140/140/140 137/137/137 139/139/139
f 140/140/140 58/58/58 57/57/57
f 141/141/141 140/140/140 139/139/139
f 58/58/58 140/140/140 141/141/141
f 142/142/142 139/139/139 123/123/123
f 139/139/139 142/142/142 141/141/141
f 143/143/143 58/58/58 141/141/141
f 58/58/58 143/143/143 125/125/125
f 142/142/142 144/144/144 141/141/141
f 144/144/144 143/143/143 141/141/141
f 142/142/142 123/123/123 144/144/144
f 125/125/125 143/143/143 144/144/144
f 123/123/123 145/145/145 144/144/144
f 145/145/145 125/125/125 144/144/144
f 122/122/122 145/145/145 123/123/123
f 145/145/145 122/122/122 125/125/125
f 148/148/148 147/147/147 146/146/146
f 149/149/149 148/148/148 146/146/146
f 150/150/150 147/147/147 148/148/148
f 149/149/149 151/151/151 148/148/148
f 152/152/152 150/150/150 148/148/148
f 148/148/148 151/151/151 153/153/153
f 154/154/154 152/152/152 148/148/148
f 154/154/154 148/148/148 153/153/153
