g fcbg_cityforestcrystal_002_stone_06
v 0.29012233 -0.3388943 0.92506325
v 0.19523525 -0.2915417 0.98202133
v 0.17359984 0.21285224 1.0143967
v 0.7182008 -0.22039372 -0.37136143
v 0.67260695 -0.21644878 -0.41618288
v 0.66289455 -0.27424502 -0.41138476
v 0.70848095 -0.27818996 -0.36656153
v 0.67260695 -0.21644878 -0.41618288
v 0.7182008 -0.22039372 -0.37136143
v 0.46370608 -0.0155540705 -0.18062913
v 0.41811407 -0.011609137 -0.22545993
v 0.66289455 -0.27424502 -0.41138476
v 0.67260695 -0.21644878 -0.41618288
v 0.41811407 -0.011609137 -0.22545993
v 0.40840167 -0.06940347 -0.22065812
v 0.66289455 -0.27424502 -0.41138476
v 0.40840167 -0.06940347 -0.22065812
v 0.45397118 -0.07334846 -0.17582732
v 0.70848095 -0.27818996 -0.36656153
v 0.70848095 -0.27818996 -0.36656153
v 0.45397118 -0.07334846 -0.17582732
v 0.46370608 -0.0155540705 -0.18062913
v 0.7182008 -0.22039372 -0.37136143
v 0.41811407 -0.011609137 -0.22545993
v 0.46370608 -0.0155540705 -0.18062913
v 0.18803346 -0.009996653 0.083675504
v 0.14243394 -0.006053567 0.038852215
v 0.40840167 -0.06940347 -0.22065812
v 0.41811407 -0.011609137 -0.22545993
v 0.14243394 -0.006053567 0.038852215
v 0.13271403 -0.063844144 0.043644667
v 0.40840167 -0.06940347 -0.22065812
v 0.13271403 -0.063844144 0.043644667
v 0.17829853 -0.06779289 0.088477254
v 0.45397118 -0.07334846 -0.17582732
v 0.45397118 -0.07334846 -0.17582732
v 0.17829853 -0.06779289 0.088477254
v 0.18803346 -0.009996653 0.083675504
v 0.46370608 -0.0155540705 -0.18062913
v 0.40053612 0.59530675 -0.91794616
v 0.3174277 0.58808994 -0.9360847
v 0.31627643 0.5092846 -0.95166016
v 0.39940554 0.51650894 -0.9335179
v 0.3174277 0.58808994 -0.9360847
v 0.40053612 0.59530675 -0.91794616
v 0.059981704 0.47633374 -0.3730002
v -0.023139894 0.46912062 -0.3911444
v 0.31627643 0.5092846 -0.95166016
v 0.3174277 0.58808994 -0.9360847
v -0.023139894 0.46912062 -0.3911444
v -0.024276137 0.3903209 -0.4067198
v 0.31627643 0.5092846 -0.95166016
v -0.024276137 0.3903209 -0.4067198
v 0.05883795 0.3975339 -0.38857937
v 0.39940554 0.51650894 -0.9335179
v 0.39940554 0.51650894 -0.9335179
v 0.05883795 0.3975339 -0.38857937
v 0.059981704 0.47633374 -0.3730002
v 0.40053612 0.59530675 -0.91794616
v -0.023139894 0.46912062 -0.3911444
v 0.059981704 0.47633374 -0.3730002
v -0.24604118 0.05930257 0.18002689
v -0.32915902 0.052080154 0.16188836
v -0.024276137 0.3903209 -0.4067198
v -0.023139894 0.46912062 -0.3911444
v -0.32915902 0.052080154 0.16188836
v -0.33030653 -0.026717722 0.14631295
v -0.024276137 0.3903209 -0.4067198
v -0.33030653 -0.026717722 0.14631295
v -0.24718869 -0.019502759 0.16445518
v 0.05883795 0.3975339 -0.38857937
v 0.05883795 0.3975339 -0.38857937
v -0.24718869 -0.019502759 0.16445518
v -0.24604118 0.05930257 0.18002689
v 0.059981704 0.47633374 -0.3730002
v 0.34434485 -0.19260651 0.10928023
v 0.2606964 0.35319066 0.26457167
v 0.08317524 0.36445558 0.11318576
v 0.13038719 -0.17517483 -0.11108053
v -0.6521187 0.20361602 0.65843546
v -0.67679524 0.30007815 0.10125339
v 0.08317524 0.36445558 0.11318576
v -0.58015513 0.18684626 0.7887503
v 0.2606964 0.35319066 0.26457167
v 0.17359984 0.21285224 1.0143967
v 0.08317524 0.36445558 0.11318576
v -0.67679524 0.30007815 0.10125339
v -0.68050396 -0.21051818 -0.1093443
v 0.13038719 -0.17517483 -0.11108053
v 0.17359984 0.21285224 1.0143967
v 0.2606964 0.35319066 0.26457167
v 0.34434485 -0.19260651 0.10928023
v 0.29012233 -0.3388943 0.92506325
v -0.58015513 0.18684626 0.7887503
v -0.5855719 -0.3181833 0.74659324
v -0.65753555 -0.30141348 0.6162915
v -0.6521187 0.20361602 0.65843546
v 0.17359984 0.21285224 1.0143967
v 0.19523525 -0.2915417 0.98202133
v -0.5855719 -0.3181833 0.74659324
v -0.58015513 0.18684626 0.7887503
v -0.67679524 0.30007815 0.10125339
v -0.6521187 0.20361602 0.65843546
v -0.65753555 -0.30141348 0.6162915
v -0.68050396 -0.21051818 -0.1093443
vt 0.75433624 0.9528606
vt 0.752532 0.95467997
vt 0.7558979 0.9648684
vt 0.44340473 0.9048139
vt 0.43791628 0.9048139
vt 0.43791628 0.90072024
vt 0.44340473 0.90072024
vt 0.44340473 0.90072024
vt 0.44768026 0.90072024
vt 0.44768026 0.88596815
vt 0.44340473 0.88596815
vt 0.43791628 0.90072024
vt 0.44340473 0.90072024
vt 0.44340473 0.88596815
vt 0.43791628 0.88596815
vt 0.44768026 0.90072024
vt 0.44768026 0.88596815
vt 0.44340473 0.88596815
vt 0.44340473 0.90072024
vt 0.44340473 0.90072024
vt 0.44340473 0.88596815
vt 0.43791628 0.88596815
vt 0.43791628 0.90072024
vt 0.44340473 0.88596815
vt 0.44768026 0.88596815
vt 0.44768026 0.8712312
vt 0.44340473 0.8712312
vt 0.43791628 0.88596815
vt 0.44340473 0.88596815
vt 0.44340473 0.8712312
vt 0.43791628 0.8712312
vt 0.44768026 0.88596815
vt 0.44768026 0.8712312
vt 0.44340473 0.8712312
vt 0.44340473 0.88596815
vt 0.44340473 0.88596815
vt 0.44340473 0.8712312
vt 0.43791628 0.8712312
vt 0.43791628 0.88596815
vt 0.44340473 0.9048139
vt 0.43791628 0.9048139
vt 0.43791628 0.90072024
vt 0.44340473 0.90072024
vt 0.44340473 0.90072024
vt 0.44768026 0.90072024
vt 0.44768026 0.88596815
vt 0.44340473 0.88596815
vt 0.43791628 0.90072024
vt 0.44340473 0.90072024
vt 0.44340473 0.88596815
vt 0.43791628 0.88596815
vt 0.44768026 0.90072024
vt 0.44768026 0.88596815
vt 0.44340473 0.88596815
vt 0.44340473 0.90072024
vt 0.44340473 0.90072024
vt 0.44340473 0.88596815
vt 0.43791628 0.88596815
vt 0.43791628 0.90072024
vt 0.44340473 0.88596815
vt 0.44768026 0.88596815
vt 0.44768026 0.8712312
vt 0.44340473 0.8712312
vt 0.43791628 0.88596815
vt 0.44340473 0.88596815
vt 0.44340473 0.8712312
vt 0.43791628 0.8712312
vt 0.44768026 0.88596815
vt 0.44768026 0.8712312
vt 0.44340473 0.8712312
vt 0.44340473 0.88596815
vt 0.44340473 0.88596815
vt 0.44340473 0.8712312
vt 0.43791628 0.8712312
vt 0.43791628 0.88596815
vt 0.7799894 0.95909196
vt 0.77206 0.9627913
vt 0.7753197 0.9665059
vt 0.78374946 0.963701
vt 0.76353925 0.9823193
vt 0.77553195 0.98266804
vt 0.7753197 0.9665059
vt 0.7607495 0.9808638
vt 0.77206 0.9627913
vt 0.7558979 0.9648684
vt 0.7753197 0.9665059
vt 0.77553195 0.98266804
vt 0.7847653 0.98210704
vt 0.78374946 0.963701
vt 0.7558979 0.9648684
vt 0.77206 0.9627913
vt 0.7718174 0.95061666
vt 0.75433624 0.9528606
vt 0.7607495 0.9808638
vt 0.7595063 0.9915678
vt 0.7622808 0.99300814
vt 0.76353925 0.9823193
vt 0.7558979 0.9648684
vt 0.7456639 0.96808267
vt 0.7506823 0.9846542
vt 0.7607495 0.9808638
vt 0.77553195 0.98266804
vt 0.76353925 0.9823193
vt 0.7622808 0.99300814
vt 0.7777759 0.99419075
vn 0.5021418 -0.033542335 0.86413455
vn 0.5021418 -0.033542335 0.86413455
vn 0.5021418 -0.033542335 0.86413455
vn 0.68372405 -0.17412215 -0.70866275
vn 0.68372405 -0.17412215 -0.70866275
vn 0.68372405 -0.17412215 -0.70866275
vn 0.68372405 -0.17412215 -0.70866275
vn 0.41623187 0.8392241 -0.3499342
vn 0.4142794 0.8411766 -0.34755498
vn 0.41623187 0.8392241 -0.3499342
vn 0.4142794 0.8411766 -0.34755498
vn -0.583447 0.030890107 -0.81156355
vn -0.583447 0.030890107 -0.81156355
vn -0.583447 0.030890107 -0.81156355
vn -0.583447 0.030890107 -0.81156355
vn -0.4155321 -0.83992386 0.34908593
vn -0.4155321 -0.83992386 0.34908593
vn -0.4135797 -0.83992386 0.35139683
vn -0.4155321 -0.83992386 0.34908593
vn 0.5841467 -0.031589806 0.8110331
vn 0.5841467 -0.031589806 0.8110331
vn 0.5821942 -0.031589806 0.81243587
vn 0.5841467 -0.031589806 0.8110331
vn 0.053067327 0.99737644 0.049235363
vn 0.053067327 0.99737644 0.049235363
vn 0.053067327 0.99737644 0.049235363
vn 0.055019796 0.99737644 0.047043182
vn -0.6908343 0.056272626 -0.72081995
vn -0.6908343 0.056272626 -0.72081995
vn -0.6908343 0.056272626 -0.72081995
vn -0.6908343 0.056272626 -0.72081995
vn -0.052367568 -0.9980762 -0.033189658
vn -0.052367568 -0.9980762 -0.033189658
vn -0.052367568 -0.9980762 -0.033189658
vn -0.052367568 -0.9980762 -0.033189658
vn 0.69153404 -0.056972325 0.7200936
vn 0.6895816 -0.056972325 0.7219636
vn 0.6895816 -0.056972325 0.7219636
vn 0.69153404 -0.056972325 0.7200936
vn 0.19364715 0.18708992 -0.96306705
vn 0.19364715 0.18708992 -0.96306705
vn 0.19364715 0.18708992 -0.96306705
vn 0.19364715 0.18708992 -0.96306705
vn -0.11679995 0.983709 0.13665421
vn -0.11679995 0.983709 0.13665421
vn -0.11679995 0.983709 0.13665421
vn -0.11679995 0.983709 0.13665421
vn -0.8528917 0.11289501 -0.5097357
vn -0.8528917 0.11289501 -0.5097357
vn -0.8528917 0.11289501 -0.5097357
vn -0.8528917 0.11289501 -0.5097357
vn 0.11749971 -0.9824562 -0.14482273
vn 0.11749971 -0.9824562 -0.14482273
vn 0.11749971 -0.9824562 -0.14482273
vn 0.11749971 -0.9824562 -0.14482273
vn 0.8535914 -0.11359471 0.5084073
vn 0.8535914 -0.11359471 0.5084073
vn 0.8535914 -0.11359471 0.5084073
vn 0.8535914 -0.11359471 0.5084073
vn -0.18708992 0.8314142 0.5232091
vn -0.18708992 0.8314142 0.5232091
vn -0.18708992 0.8314142 0.5232091
vn -0.18708992 0.8314142 0.5232091
vn -0.89975154 0.09727502 -0.425423
vn -0.89975154 0.09727502 -0.425423
vn -0.89975154 0.09727502 -0.425423
vn -0.89975154 0.09727502 -0.425423
vn 0.18583715 -0.83211386 -0.52254283
vn 0.18583715 -0.8301614 -0.52563924
vn 0.18583715 -0.8301614 -0.52563924
vn 0.18778962 -0.83211386 -0.5218443
vn 0.9004513 -0.09602225 0.42422542
vn 0.9004513 -0.09797478 0.4237787
vn 0.9004513 -0.09602225 0.42422542
vn 0.9004513 -0.09797478 0.4237787
vn 0.6661516 0.3159548 -0.6755847
vn 0.6641991 0.3159548 -0.67750436
vn 0.6661516 0.3159548 -0.6755847
vn 0.6661516 0.3159548 -0.6755847
vn -0.08556008 0.98175645 0.16980502
vn -0.08556008 0.98175645 0.16980502
vn -0.08556008 0.98175645 0.16980502
vn -0.08556008 0.98175645 0.16980502
vn -0.08556008 0.98175645 0.16980502
vn -0.08556008 0.98175645 0.16980502
vn -0.019175172 0.38233972 -0.9238228
vn -0.017222643 0.38233972 -0.9238613
vn -0.017222643 0.38233972 -0.9238613
vn -0.019175172 0.38233972 -0.9238228
vn 0.98050374 0.1538974 0.12218025
vn 0.98050374 0.151945 0.12459993
vn 0.98050374 0.1538974 0.12218025
vn 0.98050374 0.151945 0.12459993
vn -0.87632155 -0.031589806 0.48068976
vn -0.87632155 -0.031589806 0.48068976
vn -0.87632155 -0.031589806 0.48068976
vn -0.87632155 -0.029637337 0.48081407
vn -0.28471482 -0.07454479 0.9557094
vn -0.28471482 -0.07454479 0.9557094
vn -0.28471482 -0.07454479 0.9557094
vn -0.28471482 -0.07454479 0.9557094
vn -0.999329 -0.00034987926 0.036625933
vn -0.999329 -0.00034987926 0.036625933
vn -0.999329 -0.00034987926 0.036625933
vn -0.999329 -0.00034987926 0.036625933
g fcbg_cityforestcrystal_002_stone_06_0
f 3/3/3 2/2/2 1/1/1
f 6/6/6 5/5/5 4/4/4
f 7/7/7 6/6/6 4/4/4
f 10/10/10 9/9/9 8/8/8
f 11/11/11 10/10/10 8/8/8
f 14/14/14 13/13/13 12/12/12
f 15/15/15 14/14/14 12/12/12
f 18/18/18 17/17/17 16/16/16
f 19/19/19 18/18/18 16/16/16
f 22/22/22 21/21/21 20/20/20
f 23/23/23 22/22/22 20/20/20
f 26/26/26 25/25/25 24/24/24
f 27/27/27 26/26/26 24/24/24
f 30/30/30 29/29/29 28/28/28
f 31/31/31 30/30/30 28/28/28
f 34/34/34 33/33/33 32/32/32
f 35/35/35 34/34/34 32/32/32
f 38/38/38 37/37/37 36/36/36
f 39/39/39 38/38/38 36/36/36
f 42/42/42 41/41/41 40/40/40
f 43/43/43 42/42/42 40/40/40
f 46/46/46 45/45/45 44/44/44
f 47/47/47 46/46/46 44/44/44
f 50/50/50 49/49/49 48/48/48
f 51/51/51 50/50/50 48/48/48
f 54/54/54 53/53/53 52/52/52
f 55/55/55 54/54/54 52/52/52
f 58/58/58 57/57/57 56/56/56
f 59/59/59 58/58/58 56/56/56
f 62/62/62 61/61/61 60/60/60
f 63/63/63 62/62/62 60/60/60
f 66/66/66 65/65/65 64/64/64
f 67/67/67 66/66/66 64/64/64
f 70/70/70 69/69/69 68/68/68
f 71/71/71 70/70/70 68/68/68
f 74/74/74 73/73/73 72/72/72
f 75/75/75 74/74/74 72/72/72
f 78/78/78 77/77/77 76/76/76
f 79/79/79 78/78/78 76/76/76
f 82/82/82 81/81/81 80/80/80
f 82/82/82 80/80/80 83/83/83
f 84/84/84 82/82/82 83/83/83
f 85/85/85 84/84/84 83/83/83
f 88/88/88 87/87/87 86/86/86
f 89/89/89 88/88/88 86/86/86
f 92/92/92 91/91/91 90/90/90
f 93/93/93 92/92/92 90/90/90
f 96/96/96 95/95/95 94/94/94
f 97/97/97 96/96/96 94/94/94
f 100/100/100 99/99/99 98/98/98
f 101/101/101 100/100/100 98/98/98
f 104/104/104 103/103/103 102/102/102
f 105/105/105 104/104/104 102/102/102
