g fcbg_common_crystal_22
v 1.1527975 0.65617704 0.16093111
v 1.6302111 2.4712224 -0.5008235
v 1.0201368 1.0384192 0.54850054
v 1.8136528 1.9426904 -1.0367064
v 1.6632552 0.45845747 0.2803688
v 2.5647588 2.779317 -1.044775
v 2.5194607 1.6693091 -0.8715639
v 1.8460655 0.71851206 0.7417493
v 2.7722335 2.0288854 -0.2336173
v 1.4485941 1.0769463 0.9074626
v 2.222652 2.5244942 -0.0044794083
v 1.6302111 2.4712224 -0.5008235
v 1.0201368 1.0384192 0.54850054
v -0.7476039 2.3841858E-07 -1.6765904
v 0.52444124 2.3841858E-07 0.06206703
v -0.14606524 2.8143153 0.06206703
v -1.5861068 2.1428142 -2.1248777
v -3.1921124 2.3841858E-07 -1.1371272
v -3.0894084 3.6852913 0.06206703
v -3.9161415 1.0563035 -1.2895398
v -3.9161415 1.0563035 1.4136739
v -3.1921124 2.3841858E-07 1.2612615
v -1.5861068 2.1428142 2.2490115
v -0.14606524 2.8143153 0.06206703
v -0.7476039 2.3841858E-07 1.8007331
v 0.52444124 2.3841858E-07 0.06206703
v 1.0413506 1.7989173 -0.24471259
v 0.7179234 2.3841858E-07 0.084690094
v -0.3024645 2.3841858E-07 -1.0622268
v -0.2817526 1.5461531 -1.6345179
v 0.49130225 2.3841858E-07 -2.6907346
v 1.6179309 2.4565725 -2.260911
v 0.5953119 0.728189 -3.153637
v 2.255774 2.3841858E-07 -2.4213662
v 2.460464 0.47542477 -2.7027035
v 2.7361367 1.1371708 -0.9048934
v 1.0413506 1.7989173 -0.24471259
v 2.2479563 2.3841858E-07 -0.5744355
v 0.7179234 2.3841858E-07 0.084690094
v -0.4104004 2.817532 0.579123
v -0.1429348 2.3841858E-07 0.38480234
v -0.1429348 2.3841858E-07 -0.6516969
v -0.4104004 2.817532 -0.84601784
v 0.8428354 2.3841858E-07 -0.97199345
v 0.5703709 5.1519513 -0.13344717
v 0.9449942 2.817532 -1.286418
v 1.4520707 2.3841858E-07 -0.13344717
v 1.7826757 2.817532 -0.13344717
v 0.8428354 2.3841858E-07 0.7050991
v 0.9449942 2.817532 1.0195236
v -0.4104004 2.817532 0.579123
v -0.1429348 2.3841858E-07 0.38480234
v 2.428198 1.5661039 -0.6764474
v 1.8679106 2.3841858E-07 -0.22093916
v 2.1784694 2.3841858E-07 -1.0358245
v 2.6577768 1.1738992 -1.5329297
v 3.5978248 2.1612864 -1.1842935
v 3.104205 2.3841858E-07 -1.114677
v 3.5411284 0.7816944 -1.4557288
v 3.8574903 0.9315038 -0.5515356
v 3.3062053 2.3841858E-07 -0.27274942
v 3.1696615 1.4162946 -0.06991029
v 2.428198 1.5661039 -0.6764474
v 2.5140471 2.3841858E-07 0.23657513
v 1.8679106 2.3841858E-07 -0.22093916
v 2.0047393 2.3841858E-07 2.5100346
v 0.44765568 2.3841858E-07 1.4200301
v 0.8546486 1.9505773 2.3572936
v 2.447215 0.9982319 3.1536374
v 3.2954643 2.3841858E-07 1.3159513
v 2.9557703 3.1768575 2.1819463
v 3.916141 0.9732652 1.7683463
v 3.2314172 1.9101739 0.1158576
v 2.2998009 2.3841858E-07 -0.305413
v 1.3393178 2.514186 0.4798441
v 0.8546486 1.9505773 2.3572936
v 0.7138674 2.3841858E-07 -0.13803935
v 0.44765568 2.3841858E-07 1.4200301
v 0.51828384 1.890171 2.521891
v 0.786433 2.3841858E-07 1.4428263
v -0.08901405 2.3841858E-07 2.0528402
v -0.46413898 1.4106903 2.9801235
v -0.6900859 3.097278 2.727394
v -1.3517799 1.5938382 2.2161927
v -0.7734008 2.3841858E-07 1.3314571
v -0.91795254 2.186504 1.2858391
v -0.27798223 2.3841858E-07 0.36998844
v 0.23782015 2.3696513 1.4747725
v 0.51828384 1.890171 2.521891
v 0.6273873 2.3841858E-07 0.45399523
v 0.786433 2.3841858E-07 1.4428263
vt 0.8270033 0.005876736
vt 0.8332217 0.052431248
vt 0.8396519 0.009341469
vt 0.821723 0.045229446
vt 0.81270564 0.002427133
vt 0.8051256 0.06355168
vt 0.8106933 0.041446988
vt 0.797485 0.002427133
vt 0.79949725 0.041446988
vt 0.7831268 0.0059069954
vt 0.7884827 0.045244575
vt 0.7770143 0.052476637
vt 0.7704631 0.009417118
vt 0.6017654 0.110212095
vt 0.57748204 0.14310436
vt 0.62446016 0.16988418
vt 0.6326908 0.12975985
vt 0.6453696 0.08332637
vt 0.6806524 0.14694734
vt 0.6548409 0.09983303
vt 0.6914551 0.0943409
vt 0.6956612 0.075776584
vt 0.7214273 0.11641533
vt 0.7410961 0.1523487
vt 0.74524164 0.08863694
vt 0.7781188 0.11293547
vt 0.74807096 0.082932994
vt 0.77830034 0.07057192
vt 0.76752794 0.045214314
vt 0.745862 0.055396695
vt 0.7400219 0.02419897
vt 0.71298486 0.06338525
vt 0.73275954 0.03365512
vt 0.7061613 0.019251512
vt 0.70747757 0.027270326
vt 0.68599325 0.042385034
vt 0.6741012 0.06790907
vt 0.6732236 0.029343113
vt 0.6498632 0.046969377
vt 0.6418595 0.0643233
vt 0.64984804 0.016513012
vt 0.63266057 0.011459646
vt 0.62524694 0.054700725
vt 0.6129766 0.006345761
vt 0.5999801 0.08801662
vt 0.6092547 0.04934476
vt 0.5918705 0.0057103075
vt 0.5930355 0.048875738
vt 0.57191426 0.009644066
vt 0.5767407 0.05324826
vt 0.55959857 0.0618874
vt 0.55445445 0.013683732
vt 0.70348334 0.19232172
vt 0.7094596 0.15557134
vt 0.69122815 0.15843089
vt 0.6883535 0.18466602
vt 0.6754477 0.20993285
vt 0.67062134 0.16440718
vt 0.673617 0.18215448
vt 0.66019684 0.18716244
vt 0.6498329 0.1687797
vt 0.6498783 0.19778359
vt 0.64208645 0.2125957
vt 0.62940764 0.17458956
vt 0.6162447 0.1855133
vt 0.4988825 0.19584697
vt 0.4658238 0.21153662
vt 0.49632555 0.24067669
vt 0.5115916 0.21209642
vt 0.53318185 0.1775096
vt 0.54540676 0.24010175
vt 0.5356632 0.1969212
vt 0.56171674 0.20147528
vt 0.57492507 0.16880995
vt 0.5821269 0.21849634
vt 0.5973778 0.2448979
vt 0.6089218 0.18251759
vt 0.6251713 0.21053804
vt 0.5723984 0.13750632
vt 0.5865297 0.09968173
vt 0.56798047 0.099409394
vt 0.5593565 0.1264918
vt 0.5383865 0.14735584
vt 0.5459212 0.120500386
vt 0.5501878 0.08993811
vt 0.53216815 0.12031882
vt 0.5303223 0.08039118
vt 0.5188236 0.12519063
vt 0.50508577 0.13441983
vt 0.5114554 0.08255475
vt 0.49677944 0.094582975
vn -0.6103252 -0.3482744 -0.711483
vn -0.73307276 0.6746216 -0.086545184
vn -0.88699424 0.45055866 0.10118355
vn -0.46224892 -0.104727745 -0.8805442
vn 0.45543498 -0.7613296 -0.46147183
vn 0.408674 0.7155374 -0.56656134
vn 0.5801308 -0.5099894 -0.63510555
vn 0.83731616 -0.21773338 0.5014916
vn 0.95227015 0.021916509 0.30446875
vn 0.007309079 0.530442 0.84768975
vn 0.14174682 0.75255656 0.6430913
vn -0.73307276 0.6746216 -0.086545184
vn -0.88699424 0.45055866 0.10118355
vn 0.48466057 0.0063295364 -0.8746794
vn 0.9717539 0.23234081 -0.04137738
vn 0.75729614 0.6530716 -0
vn 0.15538543 0.37262368 -0.9148808
vn -0.5888932 -0.4963508 -0.6378406
vn -0.4230975 0.9060841 -0
vn -0.82074964 -0.08329564 -0.56518304
vn -0.82074964 -0.08329564 0.56518304
vn -0.5888932 -0.4963508 0.6378406
vn 0.15538543 0.37262368 0.9148808
vn 0.75729614 0.6530716 -0
vn 0.48466057 0.0063295364 0.8746794
vn 0.9717539 0.23234081 -0.04137738
vn -0.09985149 0.63370574 0.76710284
vn -0.25377297 0.2187022 0.9422147
vn -0.96298087 0.10569656 0.24798402
vn -0.8733556 0.48562932 -0.037604988
vn -0.56551266 -0.38334513 -0.7302342
vn 0.21188831 0.90647805 -0.3652409
vn -0.36093342 0.0063295364 -0.9325701
vn 0.66975605 -0.570389 -0.47548214
vn 0.7301556 -0.14174682 -0.6684165
vn 0.8899222 0.24597943 0.3840997
vn -0.09985149 0.63370574 0.76710284
vn 0.7262589 -0.11446965 0.67782354
vn -0.25377297 0.2187022 0.9422147
vn -0.7973691 0.16414773 0.5807392
vn -0.8032142 -0.116418004 0.58420354
vn -0.8032142 -0.116418004 -0.58420354
vn -0.7973691 0.16414773 -0.5807392
vn 0.30735856 -0.116418004 -0.9444456
vn -0.00048440695 0.9999999 -0
vn 0.3054102 0.16414773 -0.937966
vn 0.993186 -0.116418004 -0.0053312383
vn 0.98646003 0.1640013 -0
vn 0.30735856 -0.116418004 0.9444456
vn 0.3054102 0.16414773 0.937966
vn -0.7973691 0.16414773 0.5807392
vn -0.8032142 -0.116418004 0.58420354
vn -0.73307276 0.6648797 0.14331554
vn -0.86166537 0.3999009 0.31242925
vn -0.7350211 0.014122963 -0.6778971
vn -0.46224892 0.20116687 -0.8636306
vn 0.408674 0.8655622 -0.28946102
vn 0.4164675 -0.5489569 -0.72470766
vn 0.5801308 -0.26059765 -0.77171046
vn 0.95227015 -0.08329564 0.29367223
vn 0.79445195 -0.31515205 0.51915824
vn 0.14174682 0.4875778 0.8614962
vn -0.73307276 0.6648797 0.14331554
vn -0.14856076 0.27520502 0.9498378
vn -0.86166537 0.3999009 0.31242925
vn -0.101799846 -0.50609267 0.8564502
vn -0.96882594 0.09010959 0.2307739
vn -0.7564533 0.38236558 0.53063637
vn 0.13979846 -0.15343708 0.97821957
vn 0.84900635 -0.52557635 -0.054384757
vn 0.3443777 0.8714073 0.3493613
vn 0.96590877 -0.1670757 0.19775225
vn 0.5801308 0.35898507 -0.73114836
vn 0.28787488 0.0706259 -0.95506024
vn -0.48368096 0.69995046 -0.52547324
vn -0.7564533 0.38236558 0.53063637
vn -0.6492927 0.32975948 -0.68533033
vn -0.96882594 0.09010959 0.2307739
vn 0.831471 0.20116687 0.5178685
vn 0.9756506 0.014122963 0.2188754
vn 0.0014639497 -0.5489569 0.8358494
vn -0.11543846 -0.26059765 0.9585211
vn -0.21090877 0.8655622 0.45422414
vn -0.9707743 -0.08329564 0.2250758
vn -0.9473939 -0.31515205 -0.055892877
vn -0.5538224 0.4875778 -0.67494345
vn -0.3472948 0.27520502 -0.8964644
vn 0.56064713 0.6648797 -0.49356842
vn 0.831471 0.20116687 0.5178685
vn 0.5918211 0.3999009 -0.6998765
vn 0.9756506 0.014122963 0.2188754
g fcbg_common_crystal_22_0
f 3/3/3 2/2/2 1/1/1
f 2/2/2 4/4/4 1/1/1
f 1/1/1 4/4/4 5/5/5
f 2/2/2 6/6/6 4/4/4
f 4/4/4 7/7/7 5/5/5
f 4/4/4 6/6/6 7/7/7
f 5/5/5 7/7/7 8/8/8
f 7/7/7 9/9/9 8/8/8
f 7/7/7 6/6/6 9/9/9
f 8/8/8 9/9/9 10/10/10
f 9/9/9 6/6/6 11/11/11
f 9/9/9 11/11/11 10/10/10
f 11/11/11 6/6/6 12/12/12
f 10/10/10 11/11/11 13/13/13
f 11/11/11 12/12/12 13/13/13
f 16/16/16 15/15/15 14/14/14
f 17/17/17 16/16/16 14/14/14
f 17/17/17 14/14/14 18/18/18
f 17/17/17 19/19/19 16/16/16
f 20/20/20 17/17/17 18/18/18
f 20/20/20 19/19/19 17/17/17
f 20/20/20 18/18/18 21/21/21
f 21/21/21 19/19/19 20/20/20
f 18/18/18 22/22/22 21/21/21
f 23/23/23 19/19/19 21/21/21
f 21/21/21 22/22/22 23/23/23
f 24/24/24 19/19/19 23/23/23
f 22/22/22 25/25/25 23/23/23
f 23/23/23 25/25/25 24/24/24
f 25/25/25 26/26/26 24/24/24
f 29/29/29 28/28/28 27/27/27
f 30/30/30 29/29/29 27/27/27
f 31/31/31 29/29/29 30/30/30
f 27/27/27 32/32/32 30/30/30
f 33/33/33 31/31/31 30/30/30
f 30/30/30 32/32/32 33/33/33
f 34/34/34 31/31/31 33/33/33
f 33/33/33 32/32/32 35/35/35
f 35/35/35 34/34/34 33/33/33
f 35/35/35 32/32/32 36/36/36
f 35/35/35 36/36/36 34/34/34
f 36/36/36 32/32/32 37/37/37
f 36/36/36 38/38/38 34/34/34
f 36/36/36 37/37/37 38/38/38
f 37/37/37 39/39/39 38/38/38
f 42/42/42 41/41/41 40/40/40
f 43/43/43 42/42/42 40/40/40
f 44/44/44 42/42/42 43/43/43
f 40/40/40 45/45/45 43/43/43
f 46/46/46 44/44/44 43/43/43
f 43/43/43 45/45/45 46/46/46
f 47/47/47 44/44/44 46/46/46
f 48/48/48 47/47/47 46/46/46
f 46/46/46 45/45/45 48/48/48
f 49/49/49 47/47/47 48/48/48
f 48/48/48 45/45/45 50/50/50
f 50/50/50 49/49/49 48/48/48
f 50/50/50 45/45/45 51/51/51
f 52/52/52 49/49/49 50/50/50
f 51/51/51 52/52/52 50/50/50
f 55/55/55 54/54/54 53/53/53
f 56/56/56 55/55/55 53/53/53
f 53/53/53 57/57/57 56/56/56
f 58/58/58 55/55/55 56/56/56
f 59/59/59 58/58/58 56/56/56
f 56/56/56 57/57/57 59/59/59
f 59/59/59 60/60/60 58/58/58
f 59/59/59 57/57/57 60/60/60
f 60/60/60 61/61/61 58/58/58
f 60/60/60 57/57/57 62/62/62
f 60/60/60 62/62/62 61/61/61
f 62/62/62 57/57/57 63/63/63
f 62/62/62 64/64/64 61/61/61
f 62/62/62 63/63/63 64/64/64
f 63/63/63 65/65/65 64/64/64
f 68/68/68 67/67/67 66/66/66
f 69/69/69 68/68/68 66/66/66
f 69/69/69 66/66/66 70/70/70
f 69/69/69 71/71/71 68/68/68
f 72/72/72 69/69/69 70/70/70
f 72/72/72 71/71/71 69/69/69
f 72/72/72 70/70/70 73/73/73
f 73/73/73 71/71/71 72/72/72
f 70/70/70 74/74/74 73/73/73
f 75/75/75 71/71/71 73/73/73
f 73/73/73 74/74/74 75/75/75
f 76/76/76 71/71/71 75/75/75
f 74/74/74 77/77/77 75/75/75
f 76/76/76 75/75/75 78/78/78
f 75/75/75 77/77/77 78/78/78
f 81/81/81 80/80/80 79/79/79
f 82/82/82 81/81/81 79/79/79
f 79/79/79 83/83/83 82/82/82
f 82/82/82 84/84/84 81/81/81
f 82/82/82 83/83/83 84/84/84
f 84/84/84 85/85/85 81/81/81
f 84/84/84 86/86/86 85/85/85
f 84/84/84 83/83/83 86/86/86
f 86/86/86 87/87/87 85/85/85
f 86/86/86 83/83/83 88/88/88
f 86/86/86 88/88/88 87/87/87
f 88/88/88 83/83/83 89/89/89
f 88/88/88 90/90/90 87/87/87
f 89/89/89 91/91/91 88/88/88
f 91/91/91 90/90/90 88/88/88
