g fcbg_cityforest_006_iron_unit_04
v 18.266596 0.47807395 1.297791
v 18.266596 0.47807395 0.6271346
v 18.266596 -7.946678E-17 1.297791
v 18.266596 0.47807395 -0.6271406
v 18.266596 7.946714E-17 -1.297797
v 18.266596 0.47807395 -1.297797
v 18.266596 0.47807395 0.6271346
v 18.266596 2.0716538 0.6271346
v 18.266596 2.0716538 -0.6271406
v 18.266596 0.47807395 -0.6271406
v -18.266596 0.47807395 1.297797
v -18.266596 -7.946714E-17 1.297797
v -18.266596 0.47807395 0.6271406
v -18.266596 0.47807395 -0.6271346
v -18.266596 7.946678E-17 -1.297791
v -18.266596 0.47807395 -1.297791
v -2.1143748E-07 0.47807395 -1.297794
v -2.1143748E-07 7.9466964E-17 -1.297794
v 18.266596 7.946714E-17 -1.297797
v 18.266596 0.47807395 -1.297797
v 18.266596 0.47807395 -0.6271406
v -18.266596 0.47807395 -0.6271346
v -1.02173686E-07 0.47807395 -0.6271376
v 18.266596 2.0716538 -0.6271406
v -1.02173686E-07 2.0716538 -0.6271376
v -18.266596 2.0716538 -0.6271346
v -18.266596 0.47807395 0.6271406
v -18.266596 2.0716538 0.6271406
v 2.1143748E-07 0.47807395 1.297794
v 2.1143748E-07 -7.9466964E-17 1.297794
v -18.266596 -7.946714E-17 1.297797
v 18.266596 -7.946678E-17 1.297791
v -18.266596 0.47807395 1.297797
v 1.02173686E-07 0.47807395 0.6271376
v 18.266596 0.47807395 1.297791
v -18.266596 0.47807395 0.6271406
v 18.266596 0.47807395 0.6271346
v -18.266596 2.0716538 0.6271406
v 18.266596 2.0716538 0.6271346
v 1.02173686E-07 2.0716538 0.6271376
v -18.266596 2.0716538 -0.6271346
v -18.266596 2.0716538 -1.297791
v -18.266596 2.549728 -1.297791
v -18.266596 2.0716538 0.6271406
v -2.1143748E-07 2.0716538 -1.297794
v -18.266596 2.549728 1.297797
v -18.266596 2.0716538 1.297797
v 2.1143748E-07 2.0716538 1.297794
v 2.1143748E-07 2.549728 1.297794
v -2.1143748E-07 2.549728 -1.297794
v 18.266596 2.549728 -1.297797
v 18.266596 2.0716538 -1.297797
v 18.266596 2.0716538 -0.6271406
v 18.266596 2.0716538 0.6271346
v 18.266596 2.549728 1.297791
v 18.266596 2.0716538 1.297791
vt 0.65120405 0.49527627
vt 0.65120405 0.48642904
vt 0.6652803 0.49527627
vt 0.65120405 0.4700449
vt 0.6652803 0.46105176
vt 0.65120405 0.46105176
vt 0.6350011 0.4771164
vt 0.61148566 0.4771164
vt 0.61148566 0.46105176
vt 0.6350011 0.46105176
vt 0.65120405 0.49527627
vt 0.6652803 0.49527627
vt 0.65120405 0.48642904
vt 0.65120405 0.4700449
vt 0.6652803 0.46105176
vt 0.65120405 0.46105176
vt 0.65120405 0.30828172
vt 0.6652803 0.30828172
vt 0.6652803 0.46105176
vt 0.65120405 0.46105176
vt 0.6350011 0.46105176
vt 0.6350011 0.46105176
vt 0.6350011 0.30828172
vt 0.61148566 0.46105176
vt 0.61148566 0.30828172
vt 0.61148566 0.46105176
vt 0.6350011 0.4771164
vt 0.61148566 0.4771164
vt 0.65120405 0.30829936
vt 0.6652803 0.30829984
vt 0.6652803 0.46102363
vt 0.6652803 0.46102363
vt 0.65120405 0.46102363
vt 0.6350011 0.3082989
vt 0.65120405 0.46102363
vt 0.6350011 0.46102363
vt 0.6350011 0.46102363
vt 0.61148566 0.46102363
vt 0.61148566 0.46102363
vt 0.61148566 0.3082984
vt 0.62852186 0.64766425
vt 0.6070816 0.64766425
vt 0.62038296 0.64178866
vt 0.644442 0.64766425
vt 0.6070816 0.50686926
vt 0.65258116 0.64178866
vt 0.6658823 0.64766425
vt 0.6658823 0.50686926
vt 0.65258116 0.50686926
vt 0.62038296 0.50686926
vt 0.62038296 0.64178866
vt 0.6070816 0.64766425
vt 0.62852186 0.64766425
vt 0.644442 0.64766425
vt 0.65258116 0.64178866
vt 0.6658823 0.64766425
vn 0.5773503 0.57735026 0.5773502
vn 0.90453404 0.30151132 0.30151135
vn 0.7071068 0 0.70710665
vn 0.90453404 0.3015114 -0.30151138
vn 0.7071067 0 -0.70710677
vn 0.5773502 0.5773502 -0.5773503
vn 0.90453404 0.30151132 0.30151135
vn 0.9486833 0 0.31622776
vn 0.9486833 0 -0.31622782
vn 0.90453404 0.3015114 -0.30151138
vn -0.57735026 0.5773502 0.5773504
vn -0.7071067 0 0.70710677
vn -0.90453404 0.30151135 0.30151135
vn -0.90453404 0.30151126 -0.30151132
vn -0.7071068 0 -0.70710665
vn -0.5773503 0.5773502 -0.5773502
vn -0 0.7071067 -0.70710677
vn -0 0 -1
vn 0.7071067 0 -0.70710677
vn 0.5773502 0.5773502 -0.5773503
vn 0.90453404 0.3015114 -0.30151138
vn -0.90453404 0.30151126 -0.30151132
vn -0 0.70710677 -0.70710677
vn 0.9486833 0 -0.31622782
vn -0 0 -1
vn -0.9486833 0 -0.31622773
vn -0.90453404 0.30151135 0.30151135
vn -0.9486833 0 0.31622776
vn -0 0.7071067 0.70710677
vn -0 0 1
vn -0.7071067 0 0.70710677
vn 0.7071068 0 0.70710665
vn -0.57735026 0.5773502 0.5773504
vn -0 0.70710677 0.70710677
vn 0.5773503 0.57735026 0.5773502
vn -0.90453404 0.30151135 0.30151135
vn 0.90453404 0.30151132 0.30151135
vn -0.9486833 0 0.31622776
vn 0.9486833 0 0.31622776
vn -0 0 1
vn -0.9486833 0 -0.31622773
vn -0.7071068 0 -0.7071067
vn -0.57735026 0.57735026 -0.5773502
vn -0.9486833 0 0.31622776
vn -0 0 -1
vn -0.5773502 0.57735026 0.5773504
vn -0.7071067 0 0.7071068
vn -0 0 1
vn -0 0.70710677 0.70710677
vn -0 0.70710677 -0.70710677
vn 0.5773502 0.57735026 -0.5773504
vn 0.7071067 0 -0.7071068
vn 0.9486833 0 -0.31622782
vn 0.9486833 0 0.31622776
vn 0.57735026 0.57735026 0.5773502
vn 0.7071068 0 0.7071067
g fcbg_cityforest_006_iron_unit_04_0
f 3/3/3 2/2/2 1/1/1
f 4/4/4 2/2/2 3/3/3
f 5/5/5 4/4/4 3/3/3
f 6/6/6 4/4/4 5/5/5
f 9/9/9 8/8/8 7/7/7
f 10/10/10 9/9/9 7/7/7
f 13/13/13 12/12/12 11/11/11
f 13/13/13 14/14/14 12/12/12
f 14/14/14 15/15/15 12/12/12
f 14/14/14 16/16/16 15/15/15
f 15/15/15 16/16/16 17/17/17
f 18/18/18 15/15/15 17/17/17
f 18/18/18 17/17/17 19/19/19
f 17/17/17 20/20/20 19/19/19
f 21/21/21 20/20/20 17/17/17
f 17/17/17 16/16/16 22/22/22
f 23/23/23 21/21/21 17/17/17
f 23/23/23 17/17/17 22/22/22
f 21/21/21 23/23/23 24/24/24
f 23/23/23 25/25/25 24/24/24
f 26/26/26 25/25/25 23/23/23
f 22/22/22 26/26/26 23/23/23
f 22/22/22 27/27/27 26/26/26
f 27/27/27 28/28/28 26/26/26
f 31/31/31 30/30/30 29/29/29
f 29/29/29 30/30/30 32/32/32
f 33/33/33 31/31/31 29/29/29
f 33/33/33 29/29/29 34/34/34
f 35/35/35 29/29/29 32/32/32
f 34/34/34 29/29/29 35/35/35
f 36/36/36 33/33/33 34/34/34
f 37/37/37 34/34/34 35/35/35
f 38/38/38 36/36/36 34/34/34
f 34/34/34 37/37/37 39/39/39
f 40/40/40 38/38/38 34/34/34
f 40/40/40 34/34/34 39/39/39
f 43/43/43 42/42/42 41/41/41
f 41/41/41 44/44/44 43/43/43
f 42/42/42 43/43/43 45/45/45
f 44/44/44 46/46/46 43/43/43
f 44/44/44 47/47/47 46/46/46
f 46/46/46 47/47/47 48/48/48
f 43/43/43 46/46/46 49/49/49
f 49/49/49 46/46/46 48/48/48
f 43/43/43 50/50/50 45/45/45
f 50/50/50 43/43/43 49/49/49
f 45/45/45 50/50/50 51/51/51
f 50/50/50 49/49/49 51/51/51
f 52/52/52 45/45/45 51/51/51
f 52/52/52 51/51/51 53/53/53
f 54/54/54 53/53/53 51/51/51
f 49/49/49 48/48/48 55/55/55
f 49/49/49 55/55/55 51/51/51
f 55/55/55 54/54/54 51/51/51
f 48/48/48 56/56/56 55/55/55
f 56/56/56 54/54/54 55/55/55
