g fcbg_desert_004_building_16
v 5.5101995 -0.7952051 -2.3542461
v 6.6117024 -0.23359871 -1.676302
v 5.2249913 0.2136302 -2.4003234
v 1.1026368 -1.0168471 -2.0990586
v 1.0521021 0.030635834 -2.1623755
v -6.329486 -0.32406998 -2.1383243
v -6.2789373 -1.3715658 -2.0750208
v 0.9914017 1.1853561 -2.3568368
v -6.3240547 -0.33130217 -2.2623806
v 1.0474997 0.022916794 -2.2865767
v -6.3801394 0.8311372 -2.3326406
v 1.0031052 1.2040815 -2.0563216
v -6.399995 0.8482847 -2.032928
v 1.0204763 0.843945 -2.0345583
v -6.3826113 0.4881611 -2.0111518
v 1.1993809 1.1293907 2.5581684
v -6.6859274 0.75035715 2.569293
v 1.1819444 1.4907103 2.5363264
v -6.703311 1.1104937 2.5475302
v 1.1936474 1.5094357 2.8368416
v -6.723154 1.1276417 2.8472433
v 1.2497454 0.34678602 2.907114
v -6.6670704 -0.034798145 2.91749
v 1.1026368 -1.0168471 -2.0990586
v 5.5101995 -0.7952051 -2.3542461
v 5.2249913 0.2136302 -2.4003234
v 1.0521021 0.030635834 -2.1623755
v 5.5569344 -0.20301199 0.4254489
v 5.565982 -0.26404047 0.42857885
v 6.142053 -0.19417524 0.3374629
v 6.1301394 -0.11365795 0.33334684
v 5.5625362 -0.19902754 0.48683262
v 6.1494565 -0.18895435 0.41845322
v 6.13753 -0.10843754 0.41433716
v 5.5715837 -0.26005602 0.48996258
v 4.874217 0.8330965 1.1716413
v 4.1814795 0.06358957 0.44221497
v 4.1257634 0.19845533 0.44405603
v 4.796633 0.9004898 1.1354523
v 4.8419476 0.92869616 1.0458488
v 4.919532 0.86130285 1.0820503
v 4.188633 0.24254704 0.31902695
v 4.244113 0.107497215 0.31746197
v 4.163267 0.49513054 -0.85163164
v 4.2289248 0.3700223 -0.8755908
v 5.4138107 0.6766124 -1.2152529
v 5.3221035 0.8513355 -1.1817994
v 4.218615 0.49889135 -0.71951437
v 5.4911323 0.6818595 -1.0307202
v 5.399425 0.85658216 -0.9972534
v 4.284299 0.373796 -0.7434602
v 6.62672 1.1352024 -2.6912918
v 6.982228 0.700335 -2.3870287
v 6.6561494 1.1193705 -2.3951554
v 6.9538765 0.69378614 -2.6817975
v 7.0651116 0.30579805 -2.4033608
v 7.0655193 0.29039955 -2.6628351
v 5.2829823 0.25831366 -1.7664709
v 4.9595075 0.6505623 -1.7411575
v 4.375717 0.27401447 -0.78223944
v 4.0525312 0.6603856 -0.7565708
v 5.5831685 0.34253883 -0.60787153
v 1.0204763 0.843945 -2.0345583
v 1.0031052 1.2040815 -2.0563216
v 6.6561494 1.1193705 -2.3951554
v 6.62672 1.1352024 -2.6912918
v 0.9914017 1.1853561 -2.3568368
v 1.0474997 0.022916794 -2.2865767
v 6.9538765 0.69378614 -2.6817975
v 7.0655193 0.29039955 -2.6628351
v 5.5121593 0.49085665 -0.57666683
v 5.4998245 0.36943054 -0.0973258
v 3.7735167 1.0726223 1.1020517
v 1.1993809 1.1293907 2.5581684
v 4.5578957 0.8427224 0.08256483
v 5.4262376 0.57099247 -0.06932974
v 4.7986445 0.35530758 0.22313738
v 4.12934 0.38289595 1.2102623
v 4.19125 0.47451115 2.6761103
v 3.830127 1.1739817 2.3995543
v 3.871273 1.5304632 2.6880236
v 3.7725172 1.5049257 2.3922558
v 1.1819444 1.4907103 2.5363264
v 3.871273 1.5304632 2.6880236
v 1.1936474 1.5094357 2.8368416
v 4.19125 0.47451115 2.6761103
v 1.2497454 0.34678602 2.907114
v 1.2452478 0.3390541 2.7829008
v 4.9721184 0.48946285 2.1776361
v 4.4152985 -0.17943382 2.389573
v 4.5122657 -0.61902237 2.3970814
v 4.790531 -0.3262267 1.9600706
v 5.2249913 0.2136302 -2.4003234
v 5.5831685 0.34253883 -0.60787153
v 4.375717 0.27401447 -0.78223944
v 6.6117024 -0.23359871 -1.676302
v 6.5240717 -0.52822256 -0.96736383
v 5.906867 -0.51578236 -0.05754757
v 5.765571 0.17879581 0.3378048
v 4.7986445 0.35530758 0.22313738
v 4.790531 -0.3262267 1.9600706
v 4.12934 0.38289595 1.2102623
v 4.9721184 0.48946285 2.1776361
v 1.2452478 0.3390541 2.7829008
v 4.4152985 -0.17943382 2.389573
v 5.906867 -0.51578236 -0.05754757
v 4.790531 -0.3262267 1.9600706
v 5.765571 0.17879581 0.3378048
v 5.0621166 -0.58409643 1.9695644
v 4.5122657 -0.61902237 2.3970814
v 5.0624847 0.6375704 2.4991646
v 5.1163206 0.80005074 2.3295174
v 5.13953 0.6321659 2.34727
v 4.519498 0.65444183 2.0709372
v 5.039275 0.8054552 2.481412
v 4.4552083 0.6589651 2.1976767
v 4.5001287 0.79451466 2.0561047
v 3.9098024 0.4624529 1.8075447
v 3.8942854 0.57472706 1.7956438
v 4.4358516 0.7990513 2.1828432
v 3.858281 0.4661088 1.9091282
v 3.8427641 0.5783825 1.8972273
vt 0.93377954 0.5884327
vt 0.9441545 0.6002335
vt 0.926241 0.5973819
vt 0.52123815 0.93355197
vt 0.52123815 0.94479156
vt 0.5994751 0.94479156
vt 0.5994751 0.93355197
vt 0.987702 0.7609696
vt 0.9993663 0.83961606
vt 0.99935114 0.7609848
vt 0.987702 0.8396009
vt 0.9819533 0.7609696
vt 0.9819533 0.8396009
vt 0.97831297 0.7609696
vt 0.97831297 0.8396009
vt 0.9346441 0.7609696
vt 0.9346441 0.8396009
vt 0.93077624 0.7609696
vt 0.93077624 0.8396009
vt 0.9256646 0.7609696
vt 0.9256646 0.8396009
vt 0.9160632 0.7609696
vt 0.9160632 0.8396009
vt 0.52123815 0.93355197
vt 0.47615856 0.93356717
vt 0.4786613 0.94479156
vt 0.52123815 0.94479156
vt 0.9125745 0.65767497
vt 0.908828 0.65767497
vt 0.908828 0.6886179
vt 0.9125745 0.6845983
vt 0.9165334 0.65767497
vt 0.91955185 0.6886179
vt 0.9165334 0.6845983
vt 0.91955185 0.65767497
vt 0.91955185 0.6886179
vt 0.91955185 0.65767497
vt 0.9165334 0.65767497
vt 0.9165334 0.6845983
vt 0.9125745 0.6845983
vt 0.908828 0.6886179
vt 0.9125745 0.65767497
vt 0.908828 0.65767497
vt 0.9125745 0.65767497
vt 0.908828 0.65767497
vt 0.908828 0.6886179
vt 0.9125745 0.6845983
vt 0.9165334 0.65767497
vt 0.91955185 0.6886179
vt 0.9165334 0.6845983
vt 0.91955185 0.65767497
vt 0.9829696 0.70405895
vt 0.97831297 0.7050752
vt 0.9823022 0.7062735
vt 0.9787832 0.70226914
vt 0.9737626 0.7050752
vt 0.9741266 0.70226914
vt 0.97066826 0.72121406
vt 0.97358054 0.7242477
vt 0.9661937 0.72593135
vt 0.9646466 0.7330148
vt 0.9639943 0.71828663
vt 0.97831297 0.7609696
vt 0.9819533 0.7609696
vt 0.9819533 0.70730495
vt 0.987702 0.70730495
vt 0.987702 0.7609696
vt 0.99935114 0.7609848
vt 0.9927227 0.704423
vt 0.99935114 0.7035736
vt 0.96275055 0.72151744
vt 0.9564406 0.7183018
vt 0.94730943 0.740796
vt 0.9346441 0.7609696
vt 0.9564254 0.7286616
vt 0.9581394 0.72160846
vt 0.9526789 0.72503644
vt 0.94501907 0.7345771
vt 0.93465924 0.7280549
vt 0.93465924 0.7362911
vt 0.9308066 0.72834307
vt 0.9308066 0.7331362
vt 0.93077624 0.7609696
vt 0.9256494 0.7331362
vt 0.9256646 0.7609696
vt 0.9160632 0.7331362
vt 0.9160632 0.7609696
vt 0.47793323 0.93355197
vt 0.50335497 0.944655
vt 0.50054884 0.9368738
vt 0.5025662 0.93362784
vt 0.5092705 0.93969506
vt 0.926241 0.5973819
vt 0.9353873 0.6156442
vt 0.9218574 0.6172824
vt 0.9441545 0.6002335
vt 0.94805264 0.6079237
vt 0.94646 0.6200733
vt 0.939513 0.62457824
vt 0.92997235 0.62712646
vt 0.94102985 0.64390236
vt 0.92845553 0.6398828
vt 0.9358424 0.6516381
vt 0.9047933 0.6518049
vt 0.94395727 0.64957523
vt 0.94646 0.6200733
vt 0.94102985 0.64390236
vt 0.939513 0.62457824
vt 0.9450949 0.64285576
vt 0.94395727 0.64957523
vt 0.91955185 0.6886179
vt 0.9125745 0.6845983
vt 0.908828 0.6886179
vt 0.908828 0.66994596
vt 0.9165334 0.6845983
vt 0.91955185 0.66994596
vt 0.9125745 0.66994596
vt 0.908828 0.65767497
vt 0.9125745 0.65767497
vt 0.9165334 0.66994596
vt 0.91955185 0.65767497
vt 0.9165334 0.65767497
vn 0.23217338 0.021022856 -0.9724472
vn 0.62519443 0.75793725 -0.18618023
vn 0.21705717 0.46317154 -0.8592777
vn -0.026691437 -0.06022668 -0.99782777
vn -0.026691437 -0.06022668 -0.99782777
vn -0.00023806095 -0.06022668 -0.9981847
vn -0.00023806095 -0.06022668 -0.9981847
vn -0.034249544 0.68613535 -0.7266672
vn -0.00023806095 -0.06022668 -0.9981847
vn -0.03047049 -0.062116206 -0.99760365
vn -0.034249544 0.67857724 -0.73373014
vn 0.007319987 0.7390421 0.67361945
vn -0.032360017 0.73337346 0.6790554
vn 0.018657148 0.7466001 0.66501147
vn -0.034249544 0.7617163 0.6470048
vn -0.028580964 0.64834493 -0.7608101
vn -0.032360017 0.64645535 -0.7622652
vn -0.039918125 0.6747982 -0.7369219
vn -0.034249544 0.6766878 -0.73547304
vn 0.0016514063 0.7447106 0.66738546
vn -0.034249544 0.73337346 0.6789627
vn 0.031883836 0.0493657 0.9982717
vn -0.0021275878 0.06070286 0.9981536
vn -0.026691437 -0.06022668 -0.99782777
vn 0.23217338 0.021022856 -0.9724472
vn 0.21705717 0.46317154 -0.8592777
vn -0.026691437 -0.06022668 -0.99782777
vn -0.21753341 0.65590304 -0.7228212
vn -0.14762098 -0.07156384 -0.98645157
vn 0.6157468 0.051255286 -0.7862753
vn 0.4116782 0.612444 -0.6748581
vn -0.03047049 0.7371525 0.67503905
vn 0.7725773 0.14573151 0.6179698
vn 0.5363868 0.69369346 0.48070636
vn 0.1150229 0.06826097 0.9910147
vn -0.070150435 0.40081722 0.91346836
vn -0.5652059 -0.23784196 0.78992
vn -0.81462306 0.27988762 0.5079884
vn -0.39892775 0.62944967 0.66682065
vn 0.1868248 0.9374421 -0.2937665
vn 0.6818801 0.7239259 -0.10474174
vn 0.062116206 0.69558305 -0.71575534
vn 0.5874039 0.25532383 -0.7679625
vn -0.385701 0.7163678 -0.5814223
vn -0.28366667 0.034249544 -0.95831114
vn 0.40978867 0.37436384 -0.83182025
vn 0.09045905 0.75226873 -0.652617
vn -0.064481914 0.73526305 0.6747076
vn 0.8462688 0.3705848 0.38274807
vn 0.48159057 0.73526305 0.4769264
vn 0.24540007 -0.056447625 0.9677771
vn 0.30208576 0.67857724 -0.66953504
vn 0.7423449 0.39892775 0.5383128
vn 0.40034103 0.72014683 0.5666706
vn 0.63275254 0.28366667 -0.7205258
vn 0.8406002 0.22509152 0.4926714
vn 0.69888586 0.1381734 -0.70175964
vn 0.44002104 0.24776572 0.86313015
vn 0.30775434 0.83162874 0.46225634
vn 0.47970104 0.82407063 -0.30132127
vn 0.18493527 0.9771221 -0.105030134
vn 0.59118295 0.79950684 -0.10626149
vn 0.018657148 0.7466001 0.66501147
vn 0.007319987 0.7390421 0.67361945
vn 0.40034103 0.72014683 0.5666706
vn 0.30208576 0.67857724 -0.66953504
vn -0.034249544 0.68613535 -0.7266672
vn -0.03047049 -0.062116206 -0.99760365
vn 0.63275254 0.28366667 -0.7205258
vn 0.69888586 0.1381734 -0.70175964
vn 0.5779563 0.6256706 -0.52393013
vn 0.7801354 0.38381153 0.49404198
vn 0.41721335 0.90880865 -0
vn -0.028580964 0.64834493 -0.7608101
vn 0.37388772 0.9147678 0.15299614
vn 0.5458344 0.72770494 0.41534355
vn 0.4192363 0.7069201 0.56965333
vn 0.64786875 0.7541582 0.10729168
vn 0.7744668 0.34980005 0.5271063
vn 0.69132775 0.52741534 -0.49386132
vn 0.5855144 0.68802494 0.42871267
vn 0.35688198 0.6011068 -0.7150565
vn -0.039918125 0.6747982 -0.7369219
vn 0.5855144 0.68802494 0.42871267
vn 0.0016514063 0.7447106 0.66738546
vn 0.7744668 0.34980005 0.5271063
vn 0.031883836 0.0493657 0.9982717
vn 0.06022668 0.7862801 0.61492795
vn 0.79903066 0.544421 0.25525618
vn 0.3795563 0.051255286 0.9237478
vn 0.5080439 0.21942288 0.8329135
vn 0.83115256 0.32334667 0.4523631
vn 0.21705717 0.46317154 -0.8592777
vn 0.59118295 0.79950684 -0.10626149
vn 0.47970104 0.82407063 -0.30132127
vn 0.62519443 0.75793725 -0.18618023
vn 0.7007754 0.59921724 0.38710797
vn 0.87839067 0.3781429 0.29229745
vn 0.6932173 0.663461 0.28154802
vn 0.4192363 0.7069201 0.56965333
vn 0.83115256 0.32334667 0.4523631
vn 0.64786875 0.7541582 0.10729168
vn 0.79903066 0.544421 0.25525618
vn 0.06022668 0.7862801 0.61492795
vn 0.3795563 0.051255286 0.9237478
vn 0.87839067 0.3781429 0.29229745
vn 0.83115256 0.32334667 0.4523631
vn 0.6932173 0.663461 0.28154802
vn 0.75935066 0.3290153 0.5613693
vn 0.5080439 0.21942288 0.8329135
vn 0.37010866 0.14762098 0.91718465
vn 0.73100775 0.59732777 -0.32988968
vn 0.95586115 0.10227245 -0.27544475
vn 0.4060096 -0.04133147 -0.9129337
vn 0.21138865 0.6407868 0.7380427
vn -0.44427627 0.034249544 0.89523494
vn 0.17737716 0.70125157 -0.6904952
vn 0.4060096 -0.04133147 -0.9129337
vn 0.111243844 0.6162229 -0.77967566
vn -0.39892775 0.75037915 0.5270558
vn -0.44427627 0.034249544 0.89523494
vn -0.51040965 0.66157156 0.54936785
g fcbg_desert_004_building_16_0
f 3/3/3 2/2/2 1/1/1
f 6/6/6 5/5/5 4/4/4
f 7/7/7 6/6/6 4/4/4
f 10/10/10 9/9/9 8/8/8
f 9/9/9 11/11/11 8/8/8
f 12/12/12 8/8/8 11/11/11
f 13/13/13 12/12/12 11/11/11
f 14/14/14 12/12/12 13/13/13
f 15/15/15 14/14/14 13/13/13
f 16/16/16 14/14/14 15/15/15
f 17/17/17 16/16/16 15/15/15
f 16/16/16 17/17/17 18/18/18
f 17/17/17 19/19/19 18/18/18
f 18/18/18 19/19/19 20/20/20
f 19/19/19 21/21/21 20/20/20
f 22/22/22 20/20/20 21/21/21
f 23/23/23 22/22/22 21/21/21
f 26/26/26 25/25/25 24/24/24
f 27/27/27 26/26/26 24/24/24
f 30/30/30 29/29/29 28/28/28
f 31/31/31 30/30/30 28/28/28
f 31/31/31 28/28/28 32/32/32
f 30/30/30 31/31/31 33/33/33
f 34/34/34 31/31/31 32/32/32
f 31/31/31 34/34/34 33/33/33
f 34/34/34 32/32/32 35/35/35
f 33/33/33 34/34/34 35/35/35
f 38/38/38 37/37/37 36/36/36
f 39/39/39 38/38/38 36/36/36
f 40/40/40 39/39/39 36/36/36
f 39/39/39 40/40/40 38/38/38
f 41/41/41 40/40/40 36/36/36
f 40/40/40 42/42/42 38/38/38
f 41/41/41 43/43/43 40/40/40
f 43/43/43 42/42/42 40/40/40
f 46/46/46 45/45/45 44/44/44
f 47/47/47 46/46/46 44/44/44
f 47/47/47 44/44/44 48/48/48
f 46/46/46 47/47/47 49/49/49
f 50/50/50 47/47/47 48/48/48
f 47/47/47 50/50/50 49/49/49
f 50/50/50 48/48/48 51/51/51
f 49/49/49 50/50/50 51/51/51
f 54/54/54 53/53/53 52/52/52
f 53/53/53 55/55/55 52/52/52
f 53/53/53 56/56/56 55/55/55
f 56/56/56 57/57/57 55/55/55
f 58/58/58 56/56/56 53/53/53
f 59/59/59 58/58/58 53/53/53
f 60/60/60 58/58/58 59/59/59
f 61/61/61 60/60/60 59/59/59
f 62/62/62 60/60/60 61/61/61
f 53/53/53 63/63/63 59/59/59
f 59/59/59 63/63/63 61/61/61
f 63/63/63 53/53/53 64/64/64
f 53/53/53 65/65/65 64/64/64
f 65/65/65 66/66/66 64/64/64
f 66/66/66 67/67/67 64/64/64
f 67/67/67 66/66/66 68/68/68
f 66/66/66 69/69/69 68/68/68
f 69/69/69 70/70/70 68/68/68
f 71/71/71 62/62/62 61/61/61
f 72/72/72 62/62/62 71/71/71
f 61/61/61 63/63/63 73/73/73
f 63/63/63 74/74/74 73/73/73
f 71/71/71 61/61/61 75/75/75
f 75/75/75 61/61/61 73/73/73
f 76/76/76 72/72/72 71/71/71
f 76/76/76 71/71/71 75/75/75
f 77/77/77 72/72/72 76/76/76
f 75/75/75 77/77/77 76/76/76
f 78/78/78 77/77/77 75/75/75
f 73/73/73 78/78/78 75/75/75
f 79/79/79 78/78/78 73/73/73
f 80/80/80 79/79/79 73/73/73
f 74/74/74 80/80/80 73/73/73
f 81/81/81 79/79/79 80/80/80
f 82/82/82 81/81/81 80/80/80
f 80/80/80 74/74/74 82/82/82
f 74/74/74 83/83/83 82/82/82
f 84/84/84 82/82/82 83/83/83
f 85/85/85 84/84/84 83/83/83
f 84/84/84 85/85/85 86/86/86
f 85/85/85 87/87/87 86/86/86
f 90/90/90 89/89/89 88/88/88
f 90/90/90 88/88/88 91/91/91
f 90/90/90 91/91/91 92/92/92
f 95/95/95 94/94/94 93/93/93
f 94/94/94 96/96/96 93/93/93
f 97/97/97 96/96/96 94/94/94
f 98/98/98 97/97/97 94/94/94
f 98/98/98 94/94/94 99/99/99
f 94/94/94 100/100/100 99/99/99
f 99/99/99 100/100/100 101/101/101
f 100/100/100 102/102/102 101/101/101
f 101/101/101 102/102/102 103/103/103
f 103/103/103 102/102/102 104/104/104
f 103/103/103 105/105/105 101/101/101
f 108/108/108 107/107/107 106/106/106
f 107/107/107 109/109/109 106/106/106
f 110/110/110 109/109/109 107/107/107
f 113/113/113 112/112/112 111/111/111
f 113/113/113 114/114/114 112/112/112
f 112/112/112 115/115/115 111/111/111
f 111/111/111 115/115/115 116/116/116
f 114/114/114 117/117/117 112/112/112
f 112/112/112 117/117/117 115/115/115
f 114/114/114 118/118/118 117/117/117
f 118/118/118 119/119/119 117/117/117
f 115/115/115 120/120/120 116/116/116
f 117/117/117 120/120/120 115/115/115
f 117/117/117 119/119/119 120/120/120
f 116/116/116 120/120/120 121/121/121
f 119/119/119 122/122/122 120/120/120
f 120/120/120 122/122/122 121/121/121
