g fcbg_desert_005_drumcan_01
v -0.935484 -4.312753E-06 8.918969E-08
v -0.9354841 2.382196 8.9189705E-08
v -0.75682247 2.382196 0.5498638
v -0.7568224 -4.312753E-06 0.54986376
v -0.28908032 2.382196 0.8896982
v -0.2890803 -4.312753E-06 0.8896982
v 0.28908068 2.382196 0.889698
v 0.28908065 -4.312753E-06 0.889698
v 0.75682265 2.382196 0.5498635
v 0.7568226 -4.312753E-06 0.5498635
v 0.9354841 2.382196 -2.7510123E-07
v 0.935484 -4.312753E-06 -2.7510123E-07
v 0.935484 -4.312753E-06 -2.7510123E-07
v 0.9354841 2.382196 -2.7510123E-07
v 0.75682247 2.382196 -0.54986405
v 0.7568224 -4.312753E-06 -0.549864
v 0.28908044 2.382196 -0.88969827
v 0.2890804 -4.312753E-06 -0.88969827
v -0.28908077 2.382196 -0.88969815
v -0.28908074 -4.312753E-06 -0.88969815
v -0.75682276 2.382196 -0.54986346
v -0.7568227 -4.312753E-06 -0.5498634
v -0.9354841 2.382196 8.9189705E-08
v -0.935484 -4.312753E-06 8.918969E-08
v -0.28908077 2.382196 -0.88969815
v -3.5696495E-09 2.3796637 -5.2064472E-08
v -0.75682276 2.382196 -0.54986346
v 0.28908044 2.382196 -0.88969827
v -0.9354841 2.382196 8.9189705E-08
v 0.75682247 2.382196 -0.54986405
v -0.75682247 2.382196 0.5498638
v 0.9354841 2.382196 -2.7510123E-07
v -0.28908032 2.382196 0.8896982
v 0.75682265 2.382196 0.5498635
v 0.28908068 2.382196 0.889698
vt 0.8098489 0.40131724
vt 0.7652599 0.40131724
vt 0.7652599 0.4150769
vt 0.8098489 0.4150769
vt 0.7652599 0.4287508
vt 0.8098489 0.4287508
vt 0.7652599 0.4425441
vt 0.8098489 0.4425441
vt 0.7652599 0.4565696
vt 0.8098489 0.4565696
vt 0.7652599 0.46953005
vt 0.8098489 0.46953005
vt 0.8098489 0.46953005
vt 0.7652599 0.46953005
vt 0.7652599 0.4565696
vt 0.8098489 0.4565696
vt 0.7652599 0.4425441
vt 0.8098489 0.4425441
vt 0.7652599 0.4287508
vt 0.8098489 0.4287508
vt 0.7652599 0.4150769
vt 0.8098489 0.4150769
vt 0.7652599 0.40131724
vt 0.8098489 0.40131724
vt 0.55935264 0.9579352
vt 0.57122314 0.9749442
vt 0.5716173 0.9542064
vt 0.55162203 0.9681608
vt 0.5837314 0.9583987
vt 0.5513784 0.9809776
vt 0.5910678 0.9689109
vt 0.55871487 0.9914898
vt 0.59082425 0.98172754
vt 0.57082903 0.99568206
vt 0.58309376 0.9919532
vn -1 0 0
vn -0.76454693 0.6445681 0
vn -0.6185332 0.6445687 0.44938606
vn -0.809018 0 0.58778393
vn -0.23625638 0.64456856 0.72712743
vn -0.3090169 0 0.95105654
vn 0.23625638 0.64456856 0.72712743
vn 0.3090169 0 0.95105654
vn 0.6185332 0.6445687 0.44938606
vn 0.809018 0 0.58778393
vn 0.76454693 0.6445681 0
vn 1 0 0
vn 1 0 0
vn 0.76454693 0.6445681 0
vn 0.6185315 0.64456695 -0.4493908
vn 0.809018 0 -0.58778393
vn 0.23625638 0.64456856 -0.72712743
vn 0.3090169 0 -0.95105654
vn -0.23625918 0.6445681 -0.7271269
vn -0.3090169 0 -0.95105654
vn -0.6185332 0.6445687 -0.44938606
vn -0.809018 0 -0.58778393
vn -0.76454693 0.6445681 0
vn -1 0 0
vn -0.23625918 0.6445681 -0.7271269
vn -0 1 0
vn -0.6185332 0.6445687 -0.44938606
vn 0.23625638 0.64456856 -0.72712743
vn -0.76454693 0.6445681 0
vn 0.6185315 0.64456695 -0.4493908
vn -0.6185332 0.6445687 0.44938606
vn 0.76454693 0.6445681 0
vn -0.23625638 0.64456856 0.72712743
vn 0.6185332 0.6445687 0.44938606
vn 0.23625638 0.64456856 0.72712743
g fcbg_desert_005_drumcan_01_0
f 3/3/3 2/2/2 1/1/1
f 4/4/4 3/3/3 1/1/1
f 5/5/5 3/3/3 4/4/4
f 6/6/6 5/5/5 4/4/4
f 7/7/7 5/5/5 6/6/6
f 8/8/8 7/7/7 6/6/6
f 9/9/9 7/7/7 8/8/8
f 10/10/10 9/9/9 8/8/8
f 11/11/11 9/9/9 10/10/10
f 12/12/12 11/11/11 10/10/10
f 15/15/15 14/14/14 13/13/13
f 16/16/16 15/15/15 13/13/13
f 17/17/17 15/15/15 16/16/16
f 18/18/18 17/17/17 16/16/16
f 19/19/19 17/17/17 18/18/18
f 20/20/20 19/19/19 18/18/18
f 21/21/21 19/19/19 20/20/20
f 22/22/22 21/21/21 20/20/20
f 23/23/23 21/21/21 22/22/22
f 24/24/24 23/23/23 22/22/22
f 27/27/27 26/26/26 25/25/25
f 25/25/25 26/26/26 28/28/28
f 29/29/29 26/26/26 27/27/27
f 28/28/28 26/26/26 30/30/30
f 31/31/31 26/26/26 29/29/29
f 30/30/30 26/26/26 32/32/32
f 33/33/33 26/26/26 31/31/31
f 32/32/32 26/26/26 34/34/34
f 35/35/35 26/26/26 33/33/33
f 34/34/34 26/26/26 35/35/35
