g fcbg_cityforest_005_signboard_01
v 1.5303956 -0.00012036774 -0.5938426
v -1.530403 -0.00012036774 -0.5938431
v -1.5304033 -0.00012031582 0.59384394
v 1.5303954 -0.00012031582 0.5938444
v 1.5303956 0.12400726 -0.5938426
v 1.5303954 0.12400731 0.5938444
v -1.5304033 0.12400731 0.59384394
v -1.530403 0.12400726 -0.5938431
v 1.5303956 -0.00012036774 -0.5938426
v -1.530403 -0.00012036774 -0.5938431
v -1.530403 -0.00012036774 -0.5938431
v -1.5304033 -0.00012031582 0.59384394
v -1.5304033 -0.00012031582 0.59384394
v -1.5304033 0.12400731 0.59384394
v 1.5303954 0.12400731 0.5938444
v 1.5303954 -0.00012031582 0.5938444
v 1.5303954 -0.00012031582 0.5938444
v 1.5303954 0.12400731 0.5938444
v 1.5303956 0.12400726 -0.5938426
v 1.5303956 -0.00012036774 -0.5938426
vt 0.10539079 0.29722613
vt 0.17848627 0.29722625
vt 0.17848627 0.26957408
vt 0.10539079 0.26957408
vt 0.18365368 0.2714873
vt 0.18365368 0.29888526
vt 0.2561629 0.29888526
vt 0.2561629 0.2714873
vt 0.18365368 0.26954365
vt 0.2561629 0.26954365
vt 0.25810048 0.2714873
vt 0.25810048 0.29888526
vt 0.18365368 0.26954365
vt 0.18365368 0.2714873
vt 0.2561629 0.2714873
vt 0.2561629 0.26954365
vt 0.25810048 0.29888526
vt 0.2561629 0.29888526
vt 0.2561629 0.2714873
vt 0.25810048 0.2714873
vn 0.5773504 -0.5773503 -0.5773502
vn -0.5773502 -0.5773503 -0.5773504
vn -0.5773504 -0.57735026 0.5773502
vn 0.57735014 -0.5773502 0.5773504
vn 0.5773504 0.57735026 -0.57735014
vn 0.57735014 0.57735026 0.5773504
vn -0.5773504 0.5773503 0.5773502
vn -0.5773502 0.57735026 -0.5773504
vn 0.5773504 -0.5773503 -0.5773502
vn -0.5773502 -0.5773503 -0.5773504
vn -0.5773502 -0.5773503 -0.5773504
vn -0.5773504 -0.57735026 0.5773502
vn -0.5773504 -0.57735026 0.5773502
vn -0.5773504 0.5773503 0.5773502
vn 0.57735014 0.57735026 0.5773504
vn 0.57735014 -0.5773502 0.5773504
vn 0.57735014 -0.5773502 0.5773504
vn 0.57735014 0.57735026 0.5773504
vn 0.5773504 0.57735026 -0.57735014
vn 0.5773504 -0.5773503 -0.5773502
g fcbg_cityforest_005_signboard_01_0
f 3/3/3 2/2/2 1/1/1
f 4/4/4 3/3/3 1/1/1
f 7/7/7 6/6/6 5/5/5
f 8/8/8 7/7/7 5/5/5
f 8/8/8 5/5/5 9/9/9
f 10/10/10 8/8/8 9/9/9
f 7/7/7 8/8/8 11/11/11
f 12/12/12 7/7/7 11/11/11
f 15/15/15 14/14/14 13/13/13
f 16/16/16 15/15/15 13/13/13
f 19/19/19 18/18/18 17/17/17
f 20/20/20 19/19/19 17/17/17
