g fcbg_desert_003_trafficlights_01
v 0.1911087 0 5.1380584E-06
v -0.09554291 0 0.16550472
v 0.09555817 0 0.16550472
v -0.19109344 0 5.1678608E-06
v -0.09554291 0 -0.16549435
v 0.09555817 0 -0.16549437
v 0.09555817 0 0.16550472
v 0.1911087 5.4270077 -5.359243E-08
v 0.1911087 0 5.1380584E-06
v 0.09555817 5.4270077 0.16549958
v -0.09554291 0 0.16550472
v 0.26876068 5.4270077 -5.359243E-08
v -0.09554291 5.4270077 0.16549958
v -0.19109344 0 5.1678608E-06
v 0.13438416 5.4270077 0.23275031
v 0.26876068 5.536833 -1.0839631E-07
v -0.19109344 5.4270077 -2.3790108E-08
v -0.09554291 0 -0.16549435
v -0.1343689 5.4270077 0.23275031
v 0.13438416 5.536833 0.23275025
v 0.16769409 5.536785 -1.0839858E-07
v -0.09554291 5.4270077 -0.16549954
v 0.09555817 0 -0.16549437
v -0.26875305 5.4270077 -2.3790108E-08
v -0.1343689 5.536833 0.23275025
v 0.083847046 5.536785 0.14522357
v 0.16769409 5.602623 -2.2472977E-07
v 0.083847046 5.602623 0.14522351
v -0.08383942 5.536785 0.14522357
v -0.08383942 5.602623 0.14522351
v 0.09555817 5.4270077 -0.16549957
v 0.1911087 0 5.1380584E-06
v 0.1911087 5.4270077 -5.359243E-08
v -0.13437653 5.4270077 -0.23275028
v -0.26875305 5.536833 -1.0839631E-07
v -0.16768646 5.536785 -7.859626E-08
v -0.16768646 5.602623 -2.2472977E-07
v 0.13438416 5.4270077 -0.23275036
v 0.26876068 5.4270077 -5.359243E-08
v -0.13437653 5.536833 -0.23275048
v -0.08383942 5.536785 -0.14522375
v -0.08383942 5.602623 -0.14522384
v 0.13438416 5.536833 -0.23275055
v 0.26876068 5.536833 -1.0839631E-07
v 0.083847046 5.536785 -0.1452238
v 0.083847046 5.602623 -0.14522386
v 0.16769409 5.536785 -1.0839858E-07
v 0.16769409 5.602623 -2.2472977E-07
v -0.08383942 5.602623 0.14522351
v 7.6293945E-06 5.602623 -2.2472977E-07
v 0.083847046 5.602623 0.14522351
v -0.16768646 5.602623 -2.2472977E-07
v 0.16769409 5.602623 -2.2472977E-07
v -0.08383942 5.602623 -0.14522384
v 0.083847046 5.602623 -0.14522386
vt 0.30249962 0.003704575
vt 0.30249962 0.012476769
vt 0.30503178 0.008090821
vt 0.29743528 0.012476412
vt 0.29490307 0.008090903
vt 0.2974353 0.0037049437
vt 0.014746626 0.06473315
vt 0.010488625 0.17873374
vt 0.010488625 0.06473315
vt 0.014746626 0.17873374
vt 0.0190015 0.06473315
vt 0.009529177 0.1807026
vt 0.0190015 0.17873374
vt 0.023257082 0.06473315
vt 0.014555554 0.1807026
vt 0.009537824 0.18337159
vt 0.023257082 0.17873374
vt 0.0190015 0.06473315
vt 0.019581115 0.1807026
vt 0.014564219 0.18337159
vt 0.011938979 0.18502493
vt 0.0190015 0.17873374
vt 0.014746626 0.06473315
vt 0.024607882 0.1807026
vt 0.01958982 0.18337159
vt 0.015368595 0.18502493
vt 0.011968759 0.18873455
vt 0.015398373 0.18873455
vt 0.018797534 0.18502493
vt 0.018827282 0.18873455
vt 0.014746626 0.17873374
vt 0.010488625 0.06473315
vt 0.010488625 0.17873374
vt 0.019581115 0.1807026
vt 0.024616502 0.18337159
vt 0.022225756 0.18502493
vt 0.022255478 0.18873455
vt 0.014555554 0.1807026
vt 0.009529177 0.1807026
vt 0.01958982 0.18337159
vt 0.018797534 0.18502493
vt 0.018827282 0.18873455
vt 0.014564219 0.18337159
vt 0.009537824 0.18337159
vt 0.015368595 0.18502493
vt 0.015398373 0.18873455
vt 0.011938979 0.18502493
vt 0.011968759 0.18873455
vt 0.30249962 0.012476769
vt 0.29997024 0.00808568
vt 0.29743528 0.012476412
vt 0.30503178 0.008090821
vt 0.29490307 0.008090903
vt 0.30249962 0.003704575
vt 0.2974353 0.0037049437
vn 0.79240555 -0.6099947 0
vn -0.396204 -0.60999376 0.68624336
vn 0.39620408 -0.6099938 0.6862433
vn -0.79240555 -0.60999465 0
vn -0.39620408 -0.6099944 -0.6862429
vn 0.39620394 -0.6099944 -0.6862429
vn 0.39620408 -0.6099938 0.6862433
vn 0.5447061 -0.838627 0
vn 0.79240555 -0.6099947 0
vn 0.27235305 -0.83862805 0.47172737
vn -0.396204 -0.60999376 0.68624336
vn 0.7924051 -0.60999525 0
vn -0.27235302 -0.83862805 0.47172737
vn -0.79240555 -0.60999465 0
vn 0.39620525 -0.6099937 0.68624276
vn 0.7922981 0.6101342 0
vn -0.54470605 -0.838627 0
vn -0.39620408 -0.6099944 -0.6862429
vn -0.39619616 -0.60999537 0.68624645
vn 0.39615166 0.6101332 0.6861497
vn 0.5444221 0.8388114 0
vn -0.2723526 -0.8386284 -0.47172698
vn 0.39620394 -0.6099944 -0.6862429
vn -0.79240644 -0.60999346 0
vn -0.3961426 0.6101349 0.6861534
vn 0.27221155 0.8388073 0.47149032
vn 0.79240704 0.6099927 0
vn 0.39619884 0.6099954 0.68624485
vn -0.27221152 0.83880734 0.4714903
vn -0.3961988 0.6099955 0.6862449
vn 0.2723525 -0.8386285 -0.47172695
vn 0.79240555 -0.6099947 0
vn 0.5447061 -0.838627 0
vn -0.39620528 -0.6099943 -0.6862421
vn -0.7922995 0.6101324 0
vn -0.5444221 0.83881146 0
vn -0.79240704 0.6099927 0
vn 0.3962051 -0.6099943 -0.6862422
vn 0.7924051 -0.60999525 0
vn -0.3961518 0.6101324 -0.6861503
vn -0.27221218 0.8388068 -0.471491
vn -0.39619893 0.60999465 -0.68624556
vn 0.39615163 0.6101324 -0.6861505
vn 0.7922981 0.6101342 0
vn 0.27221194 0.83880687 -0.47149083
vn 0.3961989 0.60999465 -0.6862456
vn 0.5444221 0.8388114 0
vn 0.79240704 0.6099927 0
vn -0.3961988 0.6099955 0.6862449
vn -0 1 0
vn 0.39619884 0.6099954 0.68624485
vn -0.79240704 0.6099927 0
vn 0.79240704 0.6099927 0
vn -0.39619893 0.60999465 -0.68624556
vn 0.3961989 0.60999465 -0.6862456
g fcbg_desert_003_trafficlights_01_0
f 3/3/3 2/2/2 1/1/1
f 2/2/2 4/4/4 1/1/1
f 4/4/4 5/5/5 1/1/1
f 5/5/5 6/6/6 1/1/1
f 9/9/9 8/8/8 7/7/7
f 8/8/8 10/10/10 7/7/7
f 7/7/7 10/10/10 11/11/11
f 8/8/8 12/12/12 10/10/10
f 10/10/10 13/13/13 11/11/11
f 11/11/11 13/13/13 14/14/14
f 12/12/12 15/15/15 10/10/10
f 10/10/10 15/15/15 13/13/13
f 12/12/12 16/16/16 15/15/15
f 13/13/13 17/17/17 14/14/14
f 14/14/14 17/17/17 18/18/18
f 15/15/15 19/19/19 13/13/13
f 13/13/13 19/19/19 17/17/17
f 16/16/16 20/20/20 15/15/15
f 15/15/15 20/20/20 19/19/19
f 16/16/16 21/21/21 20/20/20
f 17/17/17 22/22/22 18/18/18
f 18/18/18 22/22/22 23/23/23
f 19/19/19 24/24/24 17/17/17
f 17/17/17 24/24/24 22/22/22
f 20/20/20 25/25/25 19/19/19
f 19/19/19 25/25/25 24/24/24
f 21/21/21 26/26/26 20/20/20
f 20/20/20 26/26/26 25/25/25
f 21/21/21 27/27/27 26/26/26
f 27/27/27 28/28/28 26/26/26
f 26/26/26 28/28/28 29/29/29
f 26/26/26 29/29/29 25/25/25
f 28/28/28 30/30/30 29/29/29
f 22/22/22 31/31/31 23/23/23
f 23/23/23 31/31/31 32/32/32
f 31/31/31 33/33/33 32/32/32
f 24/24/24 34/34/34 22/22/22
f 22/22/22 34/34/34 31/31/31
f 25/25/25 35/35/35 24/24/24
f 25/25/25 29/29/29 35/35/35
f 24/24/24 35/35/35 34/34/34
f 29/29/29 30/30/30 36/36/36
f 29/29/29 36/36/36 35/35/35
f 30/30/30 37/37/37 36/36/36
f 31/31/31 38/38/38 33/33/33
f 34/34/34 38/38/38 31/31/31
f 38/38/38 39/39/39 33/33/33
f 35/35/35 40/40/40 34/34/34
f 35/35/35 36/36/36 40/40/40
f 34/34/34 40/40/40 38/38/38
f 36/36/36 37/37/37 41/41/41
f 36/36/36 41/41/41 40/40/40
f 37/37/37 42/42/42 41/41/41
f 38/38/38 43/43/43 39/39/39
f 40/40/40 43/43/43 38/38/38
f 40/40/40 41/41/41 43/43/43
f 43/43/43 44/44/44 39/39/39
f 41/41/41 42/42/42 45/45/45
f 41/41/41 45/45/45 43/43/43
f 43/43/43 45/45/45 44/44/44
f 42/42/42 46/46/46 45/45/45
f 45/45/45 47/47/47 44/44/44
f 45/45/45 46/46/46 47/47/47
f 46/46/46 48/48/48 47/47/47
f 51/51/51 50/50/50 49/49/49
f 49/49/49 50/50/50 52/52/52
f 53/53/53 50/50/50 51/51/51
f 52/52/52 50/50/50 54/54/54
f 55/55/55 50/50/50 53/53/53
f 54/54/54 50/50/50 55/55/55
