g fcbg_arkcity_002_stone_01
v -1.2885977 0.47228217 -0.4174062
v -1.3829123 -0.47228277 -0.4825976
v -0.023132086 -0.47228277 -1.4735512
v -0.03773868 0.47228217 -1.3289834
v 1.4367776 -0.47228277 0.114599586
v -1.3381425 0.47228217 0.8830677
v -1.4367796 -0.47228277 0.93111455
v -0.40997446 0.47228217 1.336934
v -0.4277879 -0.47228277 1.4245003
v 1.3052256 0.47228217 0.13195491
v 0.6011984 -0.47228277 1.4735504
v 0.5365804 0.47228217 1.3820549
vt 0.35187566 0.29560816
vt 0.34146193 0.3021414
vt 0.3638355 0.31584445
vt 0.3638355 0.3042484
vt 0.38858896 0.29907942
vt 0.35187566 0.2819809
vt 0.34146193 0.2773273
vt 0.36328983 0.27593276
vt 0.3624258 0.26383644
vt 0.3790999 0.2936679
vt 0.38392022 0.27215832
vt 0.3743099 0.28035897
vn -0.6599223 0.66537696 -0.34896433
vn -0.8744711 0.119913995 -0.4700222
vn 0.09827119 0.15264171 -0.9833836
vn 0.07645267 0.63992196 -0.7646273
vn 0.9855576 0.13991433 -0.095394924
vn -0.65446764 0.6453766 0.39390492
vn -0.8544708 0.114459336 0.5067334
vn -0.17809671 0.6981047 0.6934922
vn -0.24718863 0.094459 0.96435225
vn 0.7600996 0.6453766 -0.07574697
vn 0.46736783 0.116277516 0.8763828
vn 0.3510024 0.65264946 0.6714507
g fcbg_arkcity_002_stone_01_0
f 3/3/3 2/2/2 1/1/1
f 4/4/4 3/3/3 1/1/1
f 5/5/5 3/3/3 4/4/4
f 1/1/1 2/2/2 6/6/6
f 2/2/2 7/7/7 6/6/6
f 1/1/1 6/6/6 8/8/8
f 6/6/6 7/7/7 8/8/8
f 4/4/4 1/1/1 8/8/8
f 7/7/7 9/9/9 8/8/8
f 10/10/10 5/5/5 4/4/4
f 10/10/10 4/4/4 8/8/8
f 11/11/11 5/5/5 10/10/10
f 9/9/9 11/11/11 12/12/12
f 8/8/8 9/9/9 12/12/12
f 12/12/12 11/11/11 10/10/10
f 12/12/12 10/10/10 8/8/8
