g fcbg_cityforest_factory_0012
v -1.7257832E-08 -0.55835015 -1.7257832E-08
v -1.7257832E-08 -0.55835027 3.3327024
v 0.4835454 -0.27917516 3.3327024
v 0.4835454 -0.27917507 -8.628915E-09
v 0.48354536 0.27917498 3.3327024
v 0.48354536 0.27917507 8.628917E-09
v -3.1554684E-08 0.55835 3.3327024
v -3.1554684E-08 0.55835015 1.7257832E-08
v -0.4835454 0.27917495 3.3327024
v -0.4835454 0.27917504 8.6289145E-09
v -0.4835454 -0.27917507 3.3327024
v -0.4835454 -0.27917498 -8.6289145E-09
v -1.7257832E-08 -0.55835027 3.3327024
v -1.7257832E-08 -0.55835015 -1.7257832E-08
v -1.7257832E-08 -0.55835027 3.3327024
v -0.4835454 -0.27917507 3.3327024
v -0.4835454 0.27917495 3.3327024
v -3.1554684E-08 0.55835 3.3327024
v 0.4835454 -0.27917516 3.3327024
v 0.48354536 0.27917498 3.3327024
vt 0.86709005 0.2389645
vt 0.86709005 0.28630304
vt 0.875021 0.28630307
vt 0.875021 0.2389645
vt 0.88295186 0.28630304
vt 0.88295186 0.2389645
vt 0.89088285 0.28630304
vt 0.89088285 0.2389645
vt 0.88295186 0.28630304
vt 0.88295186 0.2389645
vt 0.875021 0.28630304
vt 0.875021 0.2389645
vt 0.86709005 0.28630304
vt 0.86709005 0.2389645
vt 0.86709005 0.28630304
vt 0.86312455 0.29317144
vt 0.86709005 0.30003983
vt 0.875021 0.30003983
vt 0.875021 0.28630307
vt 0.8789864 0.29317144
vn -0 -1 0
vn -0 -1 0
vn 0.86602545 -0.49999997 0
vn 0.86602545 -0.4999999 0
vn 0.86602545 0.50000006 0
vn 0.86602545 0.50000006 0
vn -0 1 0
vn -0 1 0
vn -0.86602545 0.49999997 0
vn -0.86602545 0.49999997 0
vn -0.86602545 -0.4999999 0
vn -0.8660255 -0.4999999 0
vn -0 -1 0
vn -0 -1 0
vn -0 0 1
vn -0 0 1
vn -0 0 1
vn -0 0 1
vn -0 0 1
vn -0 0 1
g fcbg_cityforest_factory_0012_0
f 3/3/3 2/2/2 1/1/1
f 4/4/4 3/3/3 1/1/1
f 5/5/5 3/3/3 4/4/4
f 6/6/6 5/5/5 4/4/4
f 7/7/7 5/5/5 6/6/6
f 8/8/8 7/7/7 6/6/6
f 9/9/9 7/7/7 8/8/8
f 10/10/10 9/9/9 8/8/8
f 11/11/11 9/9/9 10/10/10
f 12/12/12 11/11/11 10/10/10
f 13/13/13 11/11/11 12/12/12
f 14/14/14 13/13/13 12/12/12
f 17/17/17 16/16/16 15/15/15
f 18/18/18 17/17/17 15/15/15
f 18/18/18 15/15/15 19/19/19
f 20/20/20 18/18/18 19/19/19
