g fcbg_wasteland_003_prop_06
v -0.06681061 -1.2024359E-06 0.066813916
v 1.9073486E-06 1.3344597 0.09448922
v 1.9073486E-06 -1.2098062E-06 0.09448904
v -0.06681061 1.3344597 0.066814095
v 1.9073486E-06 1.3892374 0.06527649
v -0.09448624 -1.1920931E-06 9.2387165E-07
v -0.046154976 1.3892374 0.046157937
v -0.09448624 1.3344595 1.1004462E-06
v -0.06681061 -1.1817502E-06 -0.06681234
v -0.065273285 1.3892373 1.085232E-06
v -0.06681061 1.3344595 -0.06681216
v 1.9073486E-06 -1.1818306E-06 -0.09448725
v -0.046154976 1.3892373 -0.046156038
v 1.9073486E-06 1.3344595 -0.09448707
v 1.9073486E-06 1.3892373 -0.06527458
v 0.06681442 -1.1817502E-06 -0.06681234
v 1.9073486E-06 1.3344595 -0.09448707
v 1.9073486E-06 -1.1818306E-06 -0.09448725
v 0.06681442 1.3344595 -0.06681216
v 1.9073486E-06 1.3892373 -0.06527458
v 0.09449005 -1.1920931E-06 8.9406933E-07
v 0.04615879 1.3892373 -0.046156038
v 0.09449005 1.3344595 1.0706439E-06
v 0.06681442 -1.2024359E-06 0.066813886
v 0.06527805 1.3892373 1.0554297E-06
v 0.06681442 1.3344597 0.066814065
v 1.9073486E-06 -1.2098062E-06 0.09448904
v 0.04615879 1.3892374 0.046157937
v 1.9073486E-06 1.3344597 0.09448922
v 1.9073486E-06 1.3892374 0.06527649
v -0.046154976 1.3892374 0.046157937
v 1.9073486E-06 1.3892373 -0.06527458
v 1.9073486E-06 1.3892374 0.06527649
v -0.046154976 1.3892373 -0.046156038
v -0.065273285 1.3892373 1.085232E-06
v 0.04615879 1.3892374 0.046157937
v 1.9073486E-06 1.3892374 0.06527649
v 1.9073486E-06 1.3892373 -0.06527458
v 0.04615879 1.3892373 -0.046156038
v 0.06527805 1.3892373 1.0554297E-06
vt 0.4478708 0.91138285
vt 0.45114696 0.9803234
vt 0.45114696 0.91138285
vt 0.4478708 0.9803234
vt 0.45114696 0.9833948
vt 0.44455242 0.91138285
vt 0.4478708 0.9833948
vt 0.44455242 0.9803234
vt 0.44123375 0.91138285
vt 0.44455242 0.9833948
vt 0.44123375 0.9803234
vt 0.4379573 0.91138285
vt 0.44123375 0.9833948
vt 0.4379573 0.9803234
vt 0.4379573 0.9833948
vt 0.44123375 0.91138285
vt 0.4379573 0.9803234
vt 0.4379573 0.91138285
vt 0.44123375 0.9803234
vt 0.4379573 0.9833948
vt 0.44455242 0.91138285
vt 0.44123375 0.9833948
vt 0.44455242 0.9803234
vt 0.4478708 0.91138285
vt 0.44455242 0.9833948
vt 0.4478708 0.9803234
vt 0.45114696 0.91138285
vt 0.4478708 0.9833948
vt 0.45114696 0.9803234
vt 0.45114696 0.9833948
vt 0.44956648 0.9881789
vt 0.43832475 0.9928296
vt 0.45149237 0.99283427
vt 0.4402542 0.9881757
vt 0.44491106 0.98624986
vt 0.44956648 0.9881789
vt 0.45149237 0.99283427
vt 0.43832475 0.9928296
vt 0.4402542 0.9881757
vt 0.44491106 0.98624986
vn -0.70710534 0 0.70710814
vn -0 0.22965848 0.9732712
vn -0 0 1
vn -0.68820554 0.22965872 0.68820786
vn -0 0.80244315 0.59672856
vn -1 0 0
vn -0.4219539 0.802441 0.421952
vn -0.9732713 0.22965816 0
vn -0.7071049 0 -0.7071086
vn -0.5967291 0.8024428 0
vn -0.6882053 0.22965829 -0.6882081
vn -0 0 -1
vn -0.4219541 0.8024402 -0.42195323
vn -0 0.22965786 -0.9732714
vn -0 0.8024422 -0.59672993
vn 0.70710486 0 -0.7071086
vn -0 0.22965786 -0.9732714
vn -0 0 -1
vn 0.68820465 0.22965653 -0.6882094
vn -0 0.8024422 -0.59672993
vn 1 0 0
vn 0.42195243 0.8024403 -0.4219548
vn 0.973272 0.22965567 0
vn 0.70710546 0 0.707108
vn 0.59673506 0.80243826 0
vn 0.68820506 0.22965689 0.6882089
vn -0 0 1
vn 0.4219523 0.8024409 0.4219536
vn -0 0.22965848 0.9732712
vn -0 0.80244315 0.59672856
vn -0.4219539 0.802441 0.421952
vn -0 0.8024422 -0.59672993
vn -0 0.80244315 0.59672856
vn -0.4219541 0.8024402 -0.42195323
vn -0.5967291 0.8024428 0
vn 0.4219523 0.8024409 0.4219536
vn -0 0.80244315 0.59672856
vn -0 0.8024422 -0.59672993
vn 0.42195243 0.8024403 -0.4219548
vn 0.59673506 0.80243826 0
g fcbg_wasteland_003_prop_06_0
f 3/3/3 2/2/2 1/1/1
f 2/2/2 4/4/4 1/1/1
f 2/2/2 5/5/5 4/4/4
f 1/1/1 4/4/4 6/6/6
f 5/5/5 7/7/7 4/4/4
f 4/4/4 8/8/8 6/6/6
f 4/4/4 7/7/7 8/8/8
f 6/6/6 8/8/8 9/9/9
f 7/7/7 10/10/10 8/8/8
f 8/8/8 11/11/11 9/9/9
f 8/8/8 10/10/10 11/11/11
f 9/9/9 11/11/11 12/12/12
f 10/10/10 13/13/13 11/11/11
f 11/11/11 14/14/14 12/12/12
f 11/11/11 13/13/13 14/14/14
f 13/13/13 15/15/15 14/14/14
f 18/18/18 17/17/17 16/16/16
f 17/17/17 19/19/19 16/16/16
f 17/17/17 20/20/20 19/19/19
f 16/16/16 19/19/19 21/21/21
f 20/20/20 22/22/22 19/19/19
f 19/19/19 23/23/23 21/21/21
f 19/19/19 22/22/22 23/23/23
f 21/21/21 23/23/23 24/24/24
f 22/22/22 25/25/25 23/23/23
f 23/23/23 26/26/26 24/24/24
f 23/23/23 25/25/25 26/26/26
f 24/24/24 26/26/26 27/27/27
f 25/25/25 28/28/28 26/26/26
f 26/26/26 29/29/29 27/27/27
f 26/26/26 28/28/28 29/29/29
f 28/28/28 30/30/30 29/29/29
f 33/33/33 32/32/32 31/31/31
f 32/32/32 34/34/34 31/31/31
f 35/35/35 31/31/31 34/34/34
f 38/38/38 37/37/37 36/36/36
f 39/39/39 38/38/38 36/36/36
f 40/40/40 39/39/39 36/36/36
