g fcbg_OuterRim_drum_barrel_01
v -2.3841858E-07 -4.4107437E-06 0.25251865
v 0.17856401 0.54455656 0.17855707
v 0.17856401 -4.4107437E-06 0.17855707
v -2.3841858E-07 0.54455656 0.25251865
v -0.17855057 -4.4107437E-06 0.17855799
v -0.17855057 0.54455656 0.17855799
v -0.25250655 -4.4107437E-06 2.3841858E-07
v -0.25250655 0.54455656 2.3841858E-07
v -0.17855057 -4.4107437E-06 -0.17855752
v -0.17855057 0.54455656 -0.17855752
v -2.3841858E-07 -4.4107437E-06 -0.25251815
v -2.3841858E-07 0.54455656 -0.25251815
v 0.17856401 -4.4107437E-06 -0.17855752
v 0.17856401 0.54455656 -0.17855752
v 0.25251907 -4.4107437E-06 2.3841858E-07
v 0.25251907 0.54455656 2.3841858E-07
v 0.17856401 -4.4107437E-06 0.17855707
v 0.17856401 0.54455656 0.17855707
v -2.3841858E-07 0.54455656 0.25251865
v 0.071051955 0.61137736 0.07104316
v 0.17856401 0.54455656 0.17855707
v -2.3841858E-07 0.61137736 0.10047081
v -0.17855057 0.54455656 0.17855799
v -0.07103944 0.61137736 0.07104316
v -0.25250655 0.54455656 2.3841858E-07
v -0.100467086 0.61137736 2.3841858E-07
v -0.17855057 0.54455656 -0.17855752
v -0.07103944 0.61137736 -0.071043596
v -2.3841858E-07 0.54455656 -0.25251815
v -2.3841858E-07 0.61137736 -0.10047032
v 0.17856401 0.54455656 -0.17855752
v 0.071051955 0.61137736 -0.071043596
v 0.25251907 0.54455656 2.3841858E-07
v 0.1004796 0.61137736 2.3841858E-07
v 0.17856401 0.54455656 0.17855707
v 0.071051955 0.61137736 0.07104316
v -2.3841858E-07 0.61137736 0.10047081
v 0.071051955 0.667443 0.07104316
v 0.071051955 0.61137736 0.07104316
v -2.3841858E-07 0.667443 0.10047081
v 0.04637058 0.667443 0.046369195
v -0.07103944 0.61137736 0.07104316
v -2.3841858E-07 0.667443 0.06557605
v -0.07103944 0.667443 0.07104316
v -0.100467086 0.61137736 2.3841858E-07
v -0.04635808 0.667443 0.046369195
v -0.100467086 0.667443 2.3841858E-07
v -0.07103944 0.61137736 -0.071043596
v -0.06557232 0.667443 2.3841858E-07
v -0.07103944 0.667443 -0.071043596
v -2.3841858E-07 0.61137736 -0.10047032
v -0.04635808 0.667443 -0.046369642
v -2.3841858E-07 0.667443 -0.10047032
v 0.071051955 0.61137736 -0.071043596
v -2.3841858E-07 0.667443 -0.065575555
v 0.071051955 0.667443 -0.071043596
v 0.1004796 0.61137736 2.3841858E-07
v 0.04637058 0.667443 -0.046369642
v 0.1004796 0.667443 2.3841858E-07
v 0.071051955 0.61137736 0.07104316
v 0.06558482 0.667443 2.3841858E-07
v 0.071051955 0.667443 0.07104316
v 0.04637058 0.667443 0.046369195
v 0.10156597 0.69219947 -0.0820066
v 0.1221941 0.5626603 -0.110943496
v 0.14605536 0.56179005 -0.13691628
v 0.1264867 0.69132924 -0.10945912
v 0.20656481 0.56179005 0.009140253
v 0.17886645 0.7194071 0.017018557
v 0.10156597 0.69219947 -0.0820066
v 0.14605536 0.56179005 0.15519679
v 0.14363119 0.7202773 0.019550323
v 0.1221941 0.5626603 -0.110943496
v 0.1728065 0.5626603 0.011248052
v 0.1264867 0.7194071 0.14349622
v 0.10156597 0.7202773 0.121108204
v 0.1221941 0.5626603 0.13343963
v -2.3841858E-07 0.5626603 0.18405294
v -2.3841858E-07 0.7202773 0.16317436
v -0.122181594 0.5626603 0.13343963
v -2.3841858E-07 0.7194071 0.19588432
v -2.3841858E-07 0.56179005 0.21569511
v -0.101552546 0.7202773 0.121108204
v -0.1264742 0.7194071 0.14349622
v -0.14604285 0.56179005 0.15519679
v -0.2065523 0.56179005 0.009140253
v -0.17885393 0.7194071 0.017018557
v -0.14604285 0.56179005 -0.13691628
v -0.1436187 0.7202773 0.019550323
v -0.17280698 0.5626603 0.011248052
v -0.1264742 0.69132924 -0.10945912
v -0.122181594 0.5626603 -0.110943496
v -0.10155347 0.69219947 -0.0820066
v -0.10155347 0.69219947 -0.0820066
v -0.122181594 0.5626603 -0.110943496
v -2.3841858E-07 0.667443 -0.065575555
v -0.04635808 0.71084875 -0.046369642
v -0.04635808 0.667443 -0.046369642
v -2.3841858E-07 0.71084875 -0.065575555
v -2.3841858E-07 0.71084875 2.3841858E-07
v 0.04637058 0.667443 -0.046369642
v -0.06557232 0.71084875 2.3841858E-07
v -0.06557232 0.667443 2.3841858E-07
v 0.04637058 0.71084875 -0.046369642
v 0.06558482 0.667443 2.3841858E-07
v -0.04635808 0.71084875 0.046369195
v -0.04635808 0.667443 0.046369195
v 0.06558482 0.71084875 2.3841858E-07
v 0.04637058 0.667443 0.046369195
v -2.3841858E-07 0.71084875 0.06557605
v -2.3841858E-07 0.667443 0.06557605
v 0.04637058 0.71084875 0.046369195
vt 0.69078207 0.22738674
vt 0.67698956 0.26607272
vt 0.67698956 0.22738674
vt 0.69078207 0.26607272
vt 0.7045898 0.22738674
vt 0.7045898 0.26607272
vt 0.71816945 0.22738674
vt 0.71816945 0.26607272
vt 0.7045898 0.22738674
vt 0.7045898 0.26607272
vt 0.69078207 0.22738674
vt 0.69078207 0.26607272
vt 0.67698956 0.22738674
vt 0.67698956 0.26607272
vt 0.66318184 0.22738674
vt 0.66318184 0.26607272
vt 0.67698956 0.22738674
vt 0.67698956 0.26607272
vt 0.40509284 0.32194233
vt 0.4007285 0.3108566
vt 0.39412877 0.3174259
vt 0.40509284 0.31265098
vt 0.4160569 0.3174259
vt 0.40945718 0.3108566
vt 0.42060372 0.30652267
vt 0.41126677 0.30652267
vt 0.4160569 0.29560423
vt 0.40945718 0.30217355
vt 0.40509284 0.2910878
vt 0.40509284 0.30037916
vt 0.39412877 0.29560423
vt 0.4007285 0.30217355
vt 0.38959715 0.30652267
vt 0.3989341 0.30652267
vt 0.39412877 0.3174259
vt 0.4007285 0.3108566
vt 0.4277965 0.32194233
vt 0.43696618 0.31368506
vt 0.4410416 0.31721303
vt 0.4277965 0.31696972
vt 0.43378797 0.31093264
vt 0.4410416 0.31721303
vt 0.4277965 0.3130768
vt 0.43696618 0.31368506
vt 0.44651604 0.30576232
vt 0.43378797 0.31093264
vt 0.44076788 0.30576232
vt 0.4410416 0.29432687
vt 0.43626666 0.30576232
vt 0.43696618 0.2978396
vt 0.4277965 0.28958234
vt 0.43378797 0.30059204
vt 0.4277965 0.29457018
vt 0.4410416 0.29432687
vt 0.4277965 0.29844788
vt 0.43696618 0.2978396
vt 0.44653124 0.30576232
vt 0.43378797 0.30059204
vt 0.44076788 0.30576232
vt 0.4410416 0.31721303
vt 0.43626666 0.30576232
vt 0.43696618 0.31368506
vt 0.43378797 0.31093264
vt 0.40691763 0.2716536
vt 0.3982954 0.255428
vt 0.40247726 0.25354236
vt 0.40691763 0.26884034
vt 0.4173647 0.25354236
vt 0.4173647 0.26884034
vt 0.40691763 0.2716536
vt 0.43193275 0.25354236
vt 0.4173647 0.2716536
vt 0.40691763 0.2865866
vt 0.4173647 0.2865866
vt 0.43193275 0.26884034
vt 0.43193275 0.2716536
vt 0.43193275 0.2865866
vt 0.44596857 0.2865866
vt 0.44596857 0.2716536
vt 0.43193275 0.2865866
vt 0.44596857 0.26884034
vt 0.44596857 0.25354236
vt 0.43193275 0.2716536
vt 0.43193275 0.26884034
vt 0.43193275 0.25354236
vt 0.4173647 0.25354236
vt 0.4173647 0.26884034
vt 0.40247726 0.25354236
vt 0.4173647 0.2716536
vt 0.4173647 0.2865866
vt 0.40691763 0.26884034
vt 0.3982954 0.255428
vt 0.40691763 0.2716536
vt 0.40691763 0.2716536
vt 0.40691763 0.2865866
vt 0.36960027 0.2930343
vt 0.37609357 0.30080494
vt 0.37971276 0.29720095
vt 0.36960027 0.29811335
vt 0.36960027 0.3072678
vt 0.35947257 0.29720095
vt 0.37878516 0.3072678
vt 0.38390982 0.3072678
vt 0.3630918 0.30080494
vt 0.3552755 0.3072678
vt 0.37609357 0.3137307
vt 0.37971276 0.31733468
vt 0.3604002 0.3072678
vt 0.35947257 0.31733468
vt 0.36960027 0.31642225
vt 0.36960027 0.3215013
vt 0.3630918 0.3137307
vn -0.0009775162 0.0009775162 0.99999905
vn 0.614858 0.4936459 0.61503124
vn 0.70674455 0.0009775162 0.70746815
vn -0.0009775162 0.4936459 0.86966246
vn -0.70674455 0.0009775162 0.70746815
vn -0.6148579 0.4936459 0.6150313
vn -0.9999995 0.0009775162 -0
vn -0.86901224 0.4936459 -0.033637185
vn -0.70674455 0.0009775162 -0.70746815
vn -0.6148579 0.4936459 -0.6150313
vn -0.0009775162 0.0009775162 -0.99999905
vn -0.0009775162 0.4936459 -0.86966246
vn 0.70674455 0.0009775162 -0.70746815
vn 0.614858 0.4936459 -0.61503124
vn 0.9999995 0.0009775162 -0
vn 0.8690123 0.4936459 -0.03363541
vn 0.70674455 0.0009775162 0.70746815
vn 0.614858 0.4936459 0.61503124
vn -0.0009775162 0.4936459 0.86966246
vn 0.55620694 0.618768 0.55476123
vn 0.614858 0.4936459 0.61503124
vn -0.0009775162 0.618768 0.7855732
vn -0.6148579 0.4936459 0.6150313
vn -0.55620694 0.618768 0.55476123
vn -0.86901224 0.4936459 -0.033637185
vn -0.78608114 0.61812335 -0
vn -0.6148579 0.4936459 -0.6150313
vn -0.55620694 0.618768 -0.55476123
vn -0.0009775162 0.4936459 -0.86966246
vn -0.0009775162 0.618768 -0.7855732
vn 0.614858 0.4936459 -0.61503124
vn 0.55620694 0.618768 -0.55476123
vn 0.8690123 0.4936459 -0.03363541
vn 0.78608114 0.61812335 -0
vn 0.614858 0.4936459 0.61503124
vn 0.55620694 0.618768 0.55476123
vn -0.0009775162 0.618768 0.7855732
vn 0.5483868 0.6304983 0.5493122
vn 0.55620694 0.618768 0.55476123
vn -0.0009775162 0.6304983 0.77619004
vn 0.41935462 0.80449617 0.42062765
vn -0.55620694 0.618768 0.55476123
vn -0.0009775162 0.80449617 0.593957
vn -0.5483868 0.6304983 0.5493122
vn -0.78608114 0.61812335 -0
vn -0.41935468 0.80449617 0.4206275
vn -0.776562 0.6300409 -0
vn -0.55620694 0.618768 -0.55476123
vn -0.59335256 0.80449617 -0.026807709
vn -0.5483868 0.6304983 -0.5493122
vn -0.0009775162 0.618768 -0.7855732
vn -0.41935468 0.80449617 -0.4206275
vn -0.0009775162 0.6304983 -0.77619004
vn 0.55620694 0.618768 -0.55476123
vn -0.0009775162 0.80449617 -0.593957
vn 0.5483868 0.6304983 -0.5493122
vn 0.78608114 0.61812335 -0
vn 0.41935462 0.80449617 -0.42062765
vn 0.776562 0.6300409 -0
vn 0.55620694 0.618768 0.55476123
vn 0.5933526 0.80449617 -0.026805485
vn 0.5483868 0.6304983 0.5493122
vn 0.41935462 0.80449617 0.42062765
vn -0.86314714 0.4819157 -0.15077877
vn -0.96480894 -0.08504397 -0.2488197
vn 0.22385132 0.21407616 -0.95082176
vn 0.09677416 0.5659821 -0.8187179
vn 0.98240423 0.18475068 -0.02737037
vn 0.6911043 0.7223848 -0.0231316
vn -0.86314714 0.4819157 -0.15077877
vn 0.70674455 0.13978493 0.6935217
vn -0.6441835 0.7575754 -0.10539017
vn -0.96480894 -0.08504397 -0.2488197
vn -0.9804492 -0.19452584 0.02964883
vn 0.5171063 0.673509 0.52819186
vn -0.44672513 0.7712606 -0.45342442
vn -0.7047895 -0.14564997 -0.6943038
vn 0.0009775162 -0.13196474 -0.9912539
vn 0.0009775162 0.7771257 -0.62934464
vn 0.7047895 -0.14564997 -0.6943038
vn -0.0009775162 0.66959894 0.7427223
vn -0.0009775162 0.124144554 0.9922637
vn 0.44672513 0.7712606 -0.45342442
vn -0.5171063 0.673509 0.52819186
vn -0.70674455 0.13978493 0.6935217
vn -0.98240423 0.18475068 -0.02737037
vn -0.6911043 0.7223848 -0.0231316
vn -0.22385132 0.21407616 -0.95082176
vn 0.64418346 0.7575754 -0.105390735
vn 0.9804492 -0.19452584 0.02964883
vn -0.0967741 0.5659821 -0.81871796
vn 0.96480894 -0.08504397 -0.2488197
vn 0.8631472 0.4819157 -0.15077858
vn 0.8631472 0.4819157 -0.15077858
vn 0.96480894 -0.08504397 -0.2488197
vn -0.0009775162 0.80449617 -0.593957
vn -0.5483868 0.6304983 -0.5493122
vn -0.41935468 0.80449617 -0.4206275
vn -0.0009775162 0.6304983 -0.77619004
vn -0.0009775162 0.9999995 -0
vn 0.41935462 0.80449617 -0.42062765
vn -0.776562 0.6300409 -0
vn -0.59335256 0.80449617 -0.026807709
vn 0.5483868 0.6304983 -0.5493122
vn 0.5933526 0.80449617 -0.026805485
vn -0.5483868 0.6304983 0.5493122
vn -0.41935468 0.80449617 0.4206275
vn 0.776562 0.6300409 -0
vn 0.41935462 0.80449617 0.42062765
vn -0.0009775162 0.6304983 0.77619004
vn -0.0009775162 0.80449617 0.593957
vn 0.5483868 0.6304983 0.5493122
g fcbg_OuterRim_drum_barrel_01_0
f 3/3/3 2/2/2 1/1/1
f 2/2/2 4/4/4 1/1/1
f 1/1/1 4/4/4 5/5/5
f 4/4/4 6/6/6 5/5/5
f 5/5/5 6/6/6 7/7/7
f 6/6/6 8/8/8 7/7/7
f 7/7/7 8/8/8 9/9/9
f 8/8/8 10/10/10 9/9/9
f 9/9/9 10/10/10 11/11/11
f 10/10/10 12/12/12 11/11/11
f 11/11/11 12/12/12 13/13/13
f 12/12/12 14/14/14 13/13/13
f 13/13/13 14/14/14 15/15/15
f 14/14/14 16/16/16 15/15/15
f 15/15/15 16/16/16 17/17/17
f 16/16/16 18/18/18 17/17/17
f 21/21/21 20/20/20 19/19/19
f 20/20/20 22/22/22 19/19/19
f 19/19/19 22/22/22 23/23/23
f 22/22/22 24/24/24 23/23/23
f 23/23/23 24/24/24 25/25/25
f 24/24/24 26/26/26 25/25/25
f 25/25/25 26/26/26 27/27/27
f 26/26/26 28/28/28 27/27/27
f 27/27/27 28/28/28 29/29/29
f 28/28/28 30/30/30 29/29/29
f 29/29/29 30/30/30 31/31/31
f 30/30/30 32/32/32 31/31/31
f 31/31/31 32/32/32 33/33/33
f 32/32/32 34/34/34 33/33/33
f 33/33/33 34/34/34 35/35/35
f 34/34/34 36/36/36 35/35/35
f 39/39/39 38/38/38 37/37/37
f 38/38/38 40/40/40 37/37/37
f 38/38/38 41/41/41 40/40/40
f 37/37/37 40/40/40 42/42/42
f 41/41/41 43/43/43 40/40/40
f 40/40/40 44/44/44 42/42/42
f 40/40/40 43/43/43 44/44/44
f 42/42/42 44/44/44 45/45/45
f 43/43/43 46/46/46 44/44/44
f 44/44/44 47/47/47 45/45/45
f 44/44/44 46/46/46 47/47/47
f 45/45/45 47/47/47 48/48/48
f 46/46/46 49/49/49 47/47/47
f 47/47/47 50/50/50 48/48/48
f 47/47/47 49/49/49 50/50/50
f 48/48/48 50/50/50 51/51/51
f 49/49/49 52/52/52 50/50/50
f 50/50/50 53/53/53 51/51/51
f 50/50/50 52/52/52 53/53/53
f 51/51/51 53/53/53 54/54/54
f 52/52/52 55/55/55 53/53/53
f 53/53/53 56/56/56 54/54/54
f 53/53/53 55/55/55 56/56/56
f 54/54/54 56/56/56 57/57/57
f 55/55/55 58/58/58 56/56/56
f 56/56/56 59/59/59 57/57/57
f 56/56/56 58/58/58 59/59/59
f 57/57/57 59/59/59 60/60/60
f 58/58/58 61/61/61 59/59/59
f 59/59/59 62/62/62 60/60/60
f 59/59/59 61/61/61 62/62/62
f 61/61/61 63/63/63 62/62/62
f 66/66/66 65/65/65 64/64/64
f 67/67/67 66/66/66 64/64/64
f 68/68/68 66/66/66 67/67/67
f 69/69/69 68/68/68 67/67/67
f 67/67/67 70/70/70 69/69/69
f 71/71/71 68/68/68 69/69/69
f 70/70/70 72/72/72 69/69/69
f 70/70/70 73/73/73 72/72/72
f 73/73/73 74/74/74 72/72/72
f 75/75/75 71/71/71 69/69/69
f 69/69/69 72/72/72 75/75/75
f 72/72/72 74/74/74 76/76/76
f 72/72/72 76/76/76 75/75/75
f 74/74/74 77/77/77 76/76/76
f 77/77/77 78/78/78 76/76/76
f 78/78/78 79/79/79 76/76/76
f 76/76/76 79/79/79 75/75/75
f 78/78/78 80/80/80 79/79/79
f 71/71/71 75/75/75 81/81/81
f 79/79/79 81/81/81 75/75/75
f 82/82/82 71/71/71 81/81/81
f 80/80/80 83/83/83 79/79/79
f 79/79/79 83/83/83 81/81/81
f 82/82/82 81/81/81 84/84/84
f 83/83/83 84/84/84 81/81/81
f 85/85/85 82/82/82 84/84/84
f 86/86/86 85/85/85 84/84/84
f 87/87/87 86/86/86 84/84/84
f 84/84/84 83/83/83 87/87/87
f 88/88/88 86/86/86 87/87/87
f 83/83/83 80/80/80 89/89/89
f 83/83/83 89/89/89 87/87/87
f 80/80/80 90/90/90 89/89/89
f 91/91/91 88/88/88 87/87/87
f 87/87/87 89/89/89 91/91/91
f 92/92/92 88/88/88 91/91/91
f 93/93/93 92/92/92 91/91/91
f 89/89/89 94/94/94 91/91/91
f 89/89/89 90/90/90 94/94/94
f 90/90/90 95/95/95 94/94/94
f 98/98/98 97/97/97 96/96/96
f 97/97/97 99/99/99 96/96/96
f 97/97/97 100/100/100 99/99/99
f 96/96/96 99/99/99 101/101/101
f 102/102/102 97/97/97 98/98/98
f 102/102/102 100/100/100 97/97/97
f 103/103/103 102/102/102 98/98/98
f 99/99/99 104/104/104 101/101/101
f 99/99/99 100/100/100 104/104/104
f 101/101/101 104/104/104 105/105/105
f 106/106/106 102/102/102 103/103/103
f 106/106/106 100/100/100 102/102/102
f 107/107/107 106/106/106 103/103/103
f 104/104/104 108/108/108 105/105/105
f 104/104/104 100/100/100 108/108/108
f 105/105/105 108/108/108 109/109/109
f 110/110/110 106/106/106 107/107/107
f 110/110/110 100/100/100 106/106/106
f 111/111/111 110/110/110 107/107/107
f 109/109/109 112/112/112 111/111/111
f 108/108/108 112/112/112 109/109/109
f 108/108/108 100/100/100 112/112/112
f 112/112/112 110/110/110 111/111/111
f 112/112/112 100/100/100 110/110/110
