g fcbg_cityforest_005_sandbox_01
v -0.9228133 6.2499275E-05 -0.5947932
v -1.1602031 0.86153406 0.6063056
v -0.922784 4.6934856E-05 0.59479654
v -1.1602029 0.86153406 -0.60630727
v 0.92272294 4.6882855E-05 -0.59479773
v -1.0783311 0.86153406 0.51637816
v 1.1602012 0.86153406 -0.6063069
v -1.0783309 0.86153406 -0.51637983
v 1.0783292 0.86153406 -0.5163795
v -0.24544138 1.003265 -0.40199202
v 0.70849043 1.0620815 -0.339274
v 1.078329 0.86153406 0.5163785
v 0.58620924 1.0800927 0.28105965
v -1.0783311 0.86153406 0.51637816
v -0.9291659 1.0453106 0.32401296
v 2.861023E-06 1.2057309 -6.580634E-07
v -0.31888393 1.0972376 0.1527046
v -0.82985014 1.0679659 -0.24328789
v -0.5904846 1.1143556 -0.009157661
v -0.922784 4.6934856E-05 0.59479654
v 1.160201 0.86153406 0.60630596
v 0.9227227 4.6934856E-05 0.5947968
v -1.1602031 0.86153406 0.6063056
v 1.078329 0.86153406 0.5163785
v -1.0783311 0.86153406 0.51637816
v 0.9227227 4.6934856E-05 0.5947968
v 1.1602012 0.86153406 -0.6063069
v 0.92272294 4.6882855E-05 -0.59479773
v 1.160201 0.86153406 0.60630596
v 1.0783292 0.86153406 -0.5163795
v 1.078329 0.86153406 0.5163785
vt 0.3990102 0.48202872
vt 0.43115205 0.42952797
vt 0.39873037 0.43908286
vt 0.43115205 0.47247368
vt 0.3990102 0.5517837
vt 0.43402317 0.43238783
vt 0.43115205 0.55932844
vt 0.43402317 0.4719339
vt 0.43402317 0.5556437
vt 0.43869728 0.5044242
vt 0.44124418 0.5413326
vt 0.47599366 0.5556437
vt 0.46643695 0.5366012
vt 0.47599366 0.4719339
vt 0.46818134 0.47796887
vt 0.45502284 0.5139196
vt 0.46122405 0.50158155
vt 0.44514212 0.48181063
vt 0.45465073 0.49107343
vt 0.3990102 0.48202872
vt 0.43115205 0.55932844
vt 0.3990102 0.5517837
vt 0.43115205 0.47247368
vt 0.43402317 0.5556437
vt 0.43402317 0.4719339
vt 0.39873037 0.43908286
vt 0.43115205 0.47247368
vt 0.3990102 0.48202872
vt 0.43115205 0.42952797
vt 0.43402317 0.4719339
vt 0.43402317 0.43238783
vn -0.62787056 -0.18313524 -0.75646544
vn -0.6555612 0.4973707 0.56820923
vn -0.62785053 -0.1831277 0.7564839
vn -0.65556115 0.49737102 -0.56820923
vn 0.6278327 -0.18317777 -0.75648665
vn -0.112231195 0.9864781 0.11943749
vn 0.65558285 0.49734616 -0.5682059
vn -0.09946452 0.98986024 -0.101407535
vn 0.0907261 0.9929859 -0.07581365
vn -0.036822043 0.82272315 -0.56724834
vn 0.21214077 0.9063117 -0.36550704
vn 0.07865016 0.99452317 0.06883269
vn 0.16419213 0.91987884 0.3561793
vn -0.112231195 0.9864781 0.11943749
vn -0.37614575 0.87356216 0.3088745
vn -0.09814214 0.99498796 0.01916189
vn -0.059551634 0.99140316 0.116504975
vn -0.26580033 0.9280768 -0.26081327
vn -0.015838154 0.99907243 -0.040043447
vn -0.62785053 -0.1831277 0.7564839
vn 0.6555825 0.49734715 0.5682054
vn 0.6278316 -0.183175 0.7564882
vn -0.6555612 0.4973707 0.56820923
vn 0.07865016 0.99452317 0.06883269
vn -0.112231195 0.9864781 0.11943749
vn 0.6278316 -0.183175 0.7564882
vn 0.65558285 0.49734616 -0.5682059
vn 0.6278327 -0.18317777 -0.75648665
vn 0.6555825 0.49734715 0.5682054
vn 0.0907261 0.9929859 -0.07581365
vn 0.07865016 0.99452317 0.06883269
g fcbg_cityforest_005_sandbox_01_0
f 3/3/3 2/2/2 1/1/1
f 2/2/2 4/4/4 1/1/1
f 1/1/1 4/4/4 5/5/5
f 2/2/2 6/6/6 4/4/4
f 4/4/4 7/7/7 5/5/5
f 6/6/6 8/8/8 4/4/4
f 4/4/4 8/8/8 7/7/7
f 8/8/8 9/9/9 7/7/7
f 8/8/8 10/10/10 9/9/9
f 9/9/9 10/10/10 11/11/11
f 9/9/9 11/11/11 12/12/12
f 12/12/12 11/11/11 13/13/13
f 12/12/12 13/13/13 14/14/14
f 14/14/14 15/15/15 8/8/8
f 14/14/14 13/13/13 15/15/15
f 13/13/13 11/11/11 16/16/16
f 16/16/16 11/11/11 10/10/10
f 16/16/16 17/17/17 13/13/13
f 15/15/15 13/13/13 17/17/17
f 16/16/16 10/10/10 17/17/17
f 8/8/8 15/15/15 18/18/18
f 18/18/18 10/10/10 8/8/8
f 15/15/15 17/17/17 19/19/19
f 17/17/17 10/10/10 19/19/19
f 18/18/18 15/15/15 19/19/19
f 18/18/18 19/19/19 10/10/10
f 22/22/22 21/21/21 20/20/20
f 21/21/21 23/23/23 20/20/20
f 21/21/21 24/24/24 23/23/23
f 24/24/24 25/25/25 23/23/23
f 28/28/28 27/27/27 26/26/26
f 27/27/27 29/29/29 26/26/26
f 27/27/27 30/30/30 29/29/29
f 30/30/30 31/31/31 29/29/29
