g fcbg_desert_001_rock_02
v 13.523765 0.02871108 6.2451463
v 15.022299 2.451224 3.296674
v 14.729693 0.026305676 3.2976947
v 14.145687 0.031806707 -1.3242888
v 14.440882 2.7690387 -1.0570874
v 12.517095 4.7962127 5.988817
v 14.207357 5.1252966 3.2888222
v 13.531391 5.333897 -0.8814001
v 12.019083 5.940481 5.9043574
v 10.714422 4.523455 6.907972
v 13.523765 0.02871108 6.2451463
v 11.464992 0.027019262 7.7081327
v 14.176867 6.51655 3.301186
v 8.085845 2.6069558 8.708022
v 8.258847 0.024453163 8.8441515
v 1.7281271 0.024817944 9.827072
v 10.675547 5.3385324 6.4579263
v 10.37233 7.763617 5.8581767
v 7.6815553 5.229195 7.212399
v 7.885979 4.580618 8.100055
v 6.2041025 4.439191 8.252764
v 1.7598155 2.23037 9.525595
v 7.058249 8.126641 6.5384955
v 1.7412305 4.3122077 8.777481
v -1.2920697 2.1790318 9.224203
v -2.12232 0.026826382 8.674906
v -1.9850419 3.3004658 7.84492
v 1.7893543 5.124564 7.624635
v -2.1980402 2.5788226 8.605091
v -4.3782673 3.8370574 7.178688
v -1.6257094 4.2934017 7.8636255
v -4.6712446 2.1700451 8.724283
v -8.107638 2.6815956 7.297061
v -4.529662 0.02643919 8.766748
v -7.230195 1.4240286 8.024416
v -7.617708 0.023443222 8.1119795
v -8.198823 0.022887707 7.393271
v -1.9518309 5.186329 6.6386566
v -12.318197 2.1229842 5.8579006
v -12.124777 0.023549318 5.5406218
v -13.5086565 0.02405262 4.4384933
v -13.871858 2.145704 4.9160886
v -12.169346 3.1300795 5.7858567
v -7.847912 3.8284993 6.236631
v -5.1443954 4.6344075 5.748665
v -13.491477 4.3696537 4.7111726
v -8.306031 6.4639516 5.271583
v -2.0911152 7.9709206 6.002439
v -3.995305 7.4875927 5.2653213
v -4.951296 7.0577 5.205738
v 2.137725 7.994065 6.661022
v -4.4998 8.157022 3.7523885
v -5.716686 7.922236 0.76894784
v -9.354424 7.862961 1.8083205
v -1.904624 9.237332 4.669158
v 5.2749767 9.745884 5.573662
v 2.309715 9.1907 4.58375
v 7.1585593 9.785146 5.383668
v 2.492927 9.32457 2.8230217
v -3.6206813 9.276365 1.8831747
v -5.1075315 8.465626 1.1415627
v -3.7491603 8.380518 -1.344891
v -0.4506092 9.370497 -0.48930764
v 2.7907808 9.542208 -0.03945321
v 7.647275 9.856437 2.2485168
v 10.149453 9.120892 5.165517
v 12.756688 8.257648 3.1902661
v 13.342224 6.573024 -1.1445128
v 2.8916657 8.618046 -1.0698274
v 8.086262 9.920474 -0.5676234
v 10.15439 9.404035 2.3184683
v 10.158125 9.618161 0.16540071
v 11.6644 9.061554 2.4170763
v 7.9416847 8.620219 -1.0578426
v 10.985647 8.307663 -0.18241724
v 12.147999 8.2908325 1.6425365
v 12.220514 8.140617 -0.70144707
v 7.8757267 6.876359 -2.1616504
v 2.4071784 8.439497 -1.916828
v 3.330163 6.8675027 -2.1477964
v -0.7893342 6.9644227 -2.695816
v 3.2668734 5.692142 -2.6609676
v 8.029194 5.343381 -2.7259505
v 12.253997 5.4928293 -2.0576348
v 11.998218 2.98971 -3.2817664
v 14.440882 2.7690387 -1.0570874
v 14.145687 0.031806707 -1.3242888
v 12.319111 0.021821499 -3.4456975
v 9.454782 0.021821499 -5.130681
v 8.6479645 3.479283 -4.582332
v 6.4167647 4.755315 -6.795073
v 8.368544 1.3525617 -6.328317
v 5.6579814 0.024499655 -7.549269
v 6.359824 2.3757155 -7.572103
v 2.1090283 2.1173077 -8.162298
v 2.0042229 0.021821737 -7.95269
v 2.257284 5.074323 -7.4538746
v 0.13847709 4.8543987 -7.20522
v -0.07353461 1.9368867 -7.928026
v -0.18561363 0.024239063 -7.9259305
v 1.2923174 5.606003 -6.4604073
v -2.8898509 2.4159234 -7.3652344
v -3.1719081 0.028516531 -7.35038
v 0.21484661 5.665078 -3.5664692
v -0.8572885 5.606003 -5.874365
v -4.2559624 3.4792843 -6.660536
v -1.8165553 4.6341534 -6.9564075
v -1.1756753 4.978471 -5.907588
v -2.3094418 5.793153 -4.0031223
v -1.7860211 6.62683 -3.4130535
v -3.852 4.9531617 -5.881487
v -5.1575837 4.9206104 -4.2387543
v -5.077178 1.4471598 -5.5782976
v -5.442294 0.019179821 -5.0070486
v -2.7741616 5.3229766 -4.068057
v -5.589655 1.9733908 -4.9255548
v -6.8412466 0.020049572 -5.2390704
v -4.043055 6.938398 -3.4671762
v -4.2087345 7.06028 -1.9839457
v -6.5669603 6.609584 -2.2239988
v -5.990245 5.208411 -3.2007651
v -5.0263767 7.963104 -1.0791163
v -5.6534996 7.570609 -1.5347683
v -9.022642 7.862218 -0.7512301
v -10.31863 7.220748 1.3627459
v -5.9464726 3.4488723 -4.2198267
v -9.801382 6.904166 -1.2283986
v -12.945982 6.4889846 4.3246846
v -13.293751 6.400847 3.0248475
v -11.028294 6.8532815 -0.71317244
v -10.192104 5.1399775 -2.0005956
v -7.297756 5.1871166 -2.827303
v -6.914734 4.8984213 -3.8641508
v -6.956825 3.371838 -4.358062
v -7.8886085 4.9495506 -3.2570207
v -13.8778105 4.5274878 2.9809961
v -11.707614 4.974005 -1.1087149
v -6.967251 2.49457 -5.2278776
v -8.731774 3.4311564 -3.8069937
v -10.880148 3.9571931 -3.4571204
v -9.485105 2.6393814 -4.8422275
v -9.729652 0.02184844 -4.8119993
v -13.456099 0.022356987 -2.1007226
v -13.685307 3.5636003 -2.2820237
v -14.558776 3.9810896 -0.44426662
v -13.456099 0.022356987 -2.1007226
v -14.574799 3.8866153 -0.3159501
v -14.941463 1.7246544 2.6204574
v -14.524088 0.022714138 1.3444468
v -13.5086565 0.02405262 4.4384933
vt 0.6271312 0.19480428
vt 0.6460989 0.16469362
vt 0.62225056 0.17008896
vt 0.6162782 0.12233582
vt 0.64382964 0.118729115
vt 0.68190885 0.19717205
vt 0.6711532 0.16036408
vt 0.66991365 0.11866874
vt 0.6957125 0.19061899
vt 0.7052837 0.21083431
vt 0.67813593 0.25218862
vt 0.70463085 0.2567083
vt 0.68352556 0.15977736
vt 0.73596215 0.23661926
vt 0.7347339 0.26029074
vt 0.795912 0.26012832
vt 0.7081138 0.20302528
vt 0.7167129 0.18097775
vt 0.73869413 0.2104869
vt 0.73720914 0.22377603
vt 0.753304 0.23134953
vt 0.7947643 0.24030249
vt 0.7452173 0.18246336
vt 0.7941831 0.23026142
vt 0.81778777 0.23822659
vt 0.8204795 0.25590745
vt 0.8282628 0.22954649
vt 0.79225427 0.21367115
vt 0.82228 0.2356374
vt 0.8527749 0.21806228
vt 0.82614785 0.21997373
vt 0.8579833 0.24100366
vt 0.89185214 0.21930502
vt 0.85737765 0.24933793
vt 0.8823724 0.23526935
vt 0.88674015 0.24750312
vt 0.8989233 0.24252492
vt 0.82871157 0.20935823
vt 0.93612504 0.21086453
vt 0.94003713 0.23169181
vt 0.9544055 0.22800313
vt 0.9570075 0.19375512
vt 0.9325363 0.20059371
vt 0.888294 0.20699753
vt 0.8596828 0.20360325
vt 0.94120204 0.1809993
vt 0.8909763 0.17971306
vt 0.8238462 0.18438818
vt 0.843525 0.18369882
vt 0.85809803 0.18492572
vt 0.787709 0.1872478
vt 0.8421585 0.1649394
vt 0.85897374 0.1402326
vt 0.8968806 0.14945792
vt 0.82293445 0.17186914
vt 0.7607149 0.17832896
vt 0.7864845 0.17145419
vt 0.74418116 0.17642026
vt 0.7851801 0.1546301
vt 0.8357693 0.14810392
vt 0.84824187 0.1434353
vt 0.8400086 0.11991301
vt 0.8126025 0.127543
vt 0.7830594 0.12727858
vt 0.7391328 0.14697799
vt 0.71845657 0.17508465
vt 0.6982149 0.15594144
vt 0.68833226 0.112728365
vt 0.7823412 0.11801447
vt 0.73459816 0.120531544
vt 0.7185234 0.14831874
vt 0.71857387 0.12807713
vt 0.7067555 0.14885893
vt 0.737009 0.116221994
vt 0.71105653 0.12544027
vt 0.70374537 0.14251247
vt 0.6998388 0.121505424
vt 0.7353051 0.09639323
vt 0.7877482 0.11311044
vt 0.77865803 0.09988449
vt 0.8188975 0.100549735
vt 0.7802271 0.09005988
vt 0.73279047 0.080057494
vt 0.6878014 0.0987462
vt 0.69005257 0.06712331
vt 0.66465014 0.085921705
vt 0.65917456 0.054742858
vt 0.67612565 0.043707203
vt 0.71591246 0.022146069
vt 0.73331946 0.054062065
vt 0.7626951 0.048799466
vt 0.7395094 0.027437719
vt 0.76286346 0.010203274
vt 0.7611822 0.02892311
vt 0.8015026 0.025710348
vt 0.81324875 0.00839301
vt 0.79870987 0.052309763
vt 0.81609 0.05292228
vt 0.8244208 0.02869849
vt 0.82748365 0.013147539
vt 0.80565 0.061248623
vt 0.84579575 0.037300196
vt 0.853693 0.022325581
vt 0.8108504 0.087144256
vt 0.8233955 0.06758442
vt 0.85498196 0.051021542
vt 0.83206046 0.054766063
vt 0.8272116 0.06401057
vt 0.8355734 0.0846477
vt 0.8298313 0.09446413
vt 0.8511354 0.06366995
vt 0.8657944 0.07723445
vt 0.8726942 0.041320648
vt 0.8911555 0.027874589
vt 0.8413966 0.08072178
vt 0.8810439 0.04755447
vt 0.90292543 0.0363524
vt 0.850786 0.096646234
vt 0.84736025 0.10984666
vt 0.8738827 0.10806622
vt 0.87305474 0.089574456
vt 0.8528584 0.12112584
vt 0.8617831 0.11558213
vt 0.89477646 0.12397584
vt 0.904871 0.14464033
vt 0.8788644 0.06491929
vt 0.90206057 0.12035529
vt 0.92903423 0.17164358
vt 0.93137705 0.16066444
vt 0.91222185 0.12597038
vt 0.91170883 0.107329495
vt 0.8850829 0.095099375
vt 0.8829895 0.08241585
vt 0.8878686 0.06961396
vt 0.8910958 0.09247658
vt 0.9436689 0.16252513
vt 0.92324364 0.120670095
vt 0.8929333 0.055177644
vt 0.9096439 0.07726214
vt 0.9247551 0.09202458
vt 0.9162432 0.07012339
vt 0.9272758 0.053891715
vt 0.96386737 0.07304078
vt 0.95144683 0.10710749
vt 0.95286655 0.12791201
vt 0.98843396 0.1114082
vt 0.9536787 0.12921287
vt 0.9722637 0.1589819
vt 0.98944384 0.14136517
vt 0.98780584 0.17758127
vn 0.7161933 0.13700566 0.684322
vn 0.97429615 0.11399778 0.19429761
vn 0.985293 -0.11189644 0.12913987
vn 0.8863492 -0.019288328 -0.4626156
vn 0.89727557 0.13946675 -0.41886213
vn 0.634623 0.23404452 0.7365303
vn 0.9469558 0.22084549 0.2334566
vn 0.8783983 0.17380862 -0.4452043
vn 0.52417225 0.35419935 0.77445877
vn 0.3789259 0.37911782 0.84420663
vn 0.7161933 0.13700566 0.684322
vn 0.4517538 0.17776187 0.8742536
vn 0.8936912 0.37929255 0.23969416
vn 0.24997361 0.21084559 0.9450171
vn 0.23871693 0.08307239 0.9675294
vn -0.036345836 0.040114623 0.99853384
vn 0.2704377 0.38902542 0.88063765
vn 0.38024402 0.47398236 0.7942011
vn 0.1335132 0.5382608 0.8321355
vn 0.1715147 0.54243296 0.8224045
vn 0.061488852 0.5847349 0.8088907
vn -0.05547855 0.2059132 0.97699636
vn 0.11974122 0.40802807 0.905083
vn -0.08725243 0.5635316 0.8214737
vn -0.27190953 0.35038093 0.89626914
vn -0.14250657 0.0081749335 0.9897601
vn -0.18699338 0.4568918 0.8696455
vn -0.07562351 0.58808553 0.80525553
vn -0.15102564 0.490414 0.8583038
vn -0.2074033 0.68910223 0.69435
vn -0.25658575 0.5259901 0.81086254
vn -0.13318907 0.3498897 0.92727447
vn -0.32231197 0.43548065 0.84051865
vn -0.094253056 0.03881735 0.99479127
vn -0.40621608 0.24608186 0.8800183
vn -0.48339084 0.08745367 0.87102544
vn -0.51914984 0.030086398 0.85415345
vn -0.26251546 0.5244607 0.8099547
vn -0.45438376 -0.011226852 0.89073527
vn -0.49883875 -0.11345992 0.8592361
vn -0.7492233 -0.28195217 0.5993058
vn -0.7589814 -0.011521977 0.6510103
vn -0.34379017 0.31885073 0.88325673
vn -0.14796464 0.5435463 0.82623476
vn -0.16179435 0.5397916 0.8261039
vn -0.6856668 0.3142655 0.6565807
vn -0.14510085 0.63835037 0.7559462
vn -0.2717256 0.55136955 0.7887691
vn -0.36707073 0.57902163 0.7280061
vn -0.22175461 0.61277664 0.7585049
vn -0.09860615 0.5497569 0.8294843
vn -0.5748226 0.7467033 0.33468357
vn -0.26392263 0.9645247 -0.006076585
vn -0.38795406 0.8993982 0.20143121
vn -0.19852395 0.9051876 0.37579718
vn -0.08045561 0.87780994 0.47220403
vn -0.114427105 0.95948297 0.25748572
vn 0.08901056 0.88032234 0.46595046
vn -0.056542046 0.99808323 0.025157679
vn -0.31947714 0.94701034 0.033255454
vn -0.56358117 0.82600325 0.009742746
vn -0.26454693 0.7631442 -0.58959794
vn -0.03452872 0.91661614 -0.39827463
vn -0.043495316 0.92176396 -0.38530418
vn 0.042584002 0.9980573 0.04547609
vn 0.35275102 0.80045253 0.48460543
vn 0.6881508 0.67924166 0.25510624
vn 0.7224221 0.3576283 -0.59178406
vn 0.10832913 0.6895622 -0.7160787
vn 0.11192915 0.8490653 -0.5162944
vn 0.19521773 0.97712576 0.08435291
vn 0.39718616 0.81178784 -0.42806965
vn 0.55166733 0.8339826 0.011666613
vn 0.10139938 0.5120397 -0.8529557
vn 0.3270221 0.89931345 -0.29033062
vn 0.44681352 0.87329006 -0.19422175
vn 0.39390197 0.7901471 -0.46958348
vn 0.07816261 0.4516243 -0.88877785
vn 0.25815767 0.70516586 -0.66037554
vn 0.11050936 0.4159304 -0.902657
vn 0.077708334 0.6606205 -0.74668735
vn 0.09523922 0.78232837 -0.6155419
vn 0.22683495 0.64707965 -0.7278968
vn 0.3797987 0.34933484 -0.85657346
vn 0.50618833 0.28001216 -0.8157
vn 0.89727557 0.13946675 -0.41886213
vn 0.8863492 -0.019288328 -0.4626156
vn 0.5887603 0.11536615 -0.8000325
vn 0.5947461 0.099128686 -0.7977785
vn 0.62044466 0.49063116 -0.6118247
vn 0.39223084 0.67484075 -0.6250959
vn 0.6881408 0.041117534 -0.72441113
vn 0.2808702 -0.12979245 -0.9509289
vn 0.36161587 0.09623775 -0.9273468
vn 0.019142766 0.09588505 -0.9952083
vn 0.032180842 -0.062043864 -0.9975545
vn 0.03595104 0.6331695 -0.7731778
vn -0.190304 0.5678072 -0.8008616
vn -0.13255346 0.10385517 -0.98571986
vn -0.1272282 -0.01684195 -0.9917305
vn -0.019198414 0.9487018 -0.31558883
vn -0.27782044 0.1346102 -0.951155
vn -0.4478003 -0.022380063 -0.8938534
vn 0.12333091 0.9037807 -0.40984127
vn -0.35266998 0.82458484 -0.44236162
vn -0.6248362 0.24861805 -0.740114
vn -0.1654975 0.684939 -0.70955557
vn -0.3794223 0.79382735 -0.47526506
vn -0.16434142 0.61424255 -0.7718147
vn 0.13243982 0.7711288 -0.622752
vn -0.35897276 0.79789275 -0.48425788
vn -0.5468771 0.51485896 -0.6601861
vn -0.7669539 -0.0014307353 -0.6417006
vn -0.34135216 -0.02798338 -0.93951887
vn -0.22268873 0.6872328 -0.69146276
vn -0.30188924 0.24313702 -0.9218175
vn 0.029051336 0.01693603 -0.9994344
vn -0.13782223 0.7757881 -0.6157579
vn -0.13132612 0.8122077 -0.56839436
vn -0.22591144 0.58486146 -0.7790386
vn -0.3226225 0.54714406 -0.7723653
vn -0.21794824 0.8750262 -0.43223566
vn -0.03762981 0.8143025 -0.57921976
vn -0.30263683 0.87287873 -0.38274494
vn -0.3978112 0.9168078 0.034780867
vn -0.20228404 0.4092928 -0.8896969
vn -0.3663881 0.6623332 -0.6535093
vn -0.5060068 0.6839922 0.52546334
vn -0.74602735 0.66088593 -0.08168846
vn -0.49131855 0.7282172 -0.47781363
vn -0.32019457 0.6532256 -0.6861281
vn -0.19294411 0.75342166 -0.62859243
vn -0.05175191 0.65224475 -0.7562397
vn 0.019260423 0.56997246 -0.821438
vn -0.2001464 0.76019937 -0.6180924
vn -0.9144032 0.39925 0.06682968
vn -0.52779526 0.6829741 -0.50495416
vn 0.0905073 0.4169686 -0.90440345
vn -0.103038505 0.59928304 -0.79387844
vn -0.2842408 0.65168095 -0.70322067
vn -0.25454888 0.36163476 -0.8968975
vn -0.37259227 -0.01480556 -0.92787707
vn -0.7958747 -0.07216301 -0.60114557
vn -0.67343897 0.39069447 -0.6275649
vn -0.8324092 0.49989626 -0.23916227
vn -0.7958747 -0.07216301 -0.60114557
vn -0.9942458 0.09025545 -0.057698514
vn -0.9862065 -0.05606044 0.15573737
vn -0.9812827 -0.15192081 -0.118340164
vn -0.7492233 -0.28195217 0.5993058
g fcbg_desert_001_rock_02_0
f 3/3/3 2/2/2 1/1/1
f 2/2/2 3/3/3 4/4/4
f 5/5/5 2/2/2 4/4/4
f 1/1/1 2/2/2 6/6/6
f 7/7/7 2/2/2 5/5/5
f 2/2/2 7/7/7 6/6/6
f 8/8/8 7/7/7 5/5/5
f 9/9/9 6/6/6 7/7/7
f 6/6/6 9/9/9 10/10/10
f 11/11/11 6/6/6 10/10/10
f 12/12/12 11/11/11 10/10/10
f 7/7/7 8/8/8 13/13/13
f 13/13/13 9/9/9 7/7/7
f 14/14/14 12/12/12 10/10/10
f 14/14/14 15/15/15 12/12/12
f 16/16/16 15/15/15 14/14/14
f 9/9/9 17/17/17 10/10/10
f 18/18/18 9/9/9 13/13/13
f 18/18/18 17/17/17 9/9/9
f 17/17/17 19/19/19 10/10/10
f 10/10/10 20/20/20 14/14/14
f 19/19/19 20/20/20 10/10/10
f 20/20/20 21/21/21 14/14/14
f 20/20/20 19/19/19 21/21/21
f 22/22/22 16/16/16 14/14/14
f 21/21/21 22/22/22 14/14/14
f 18/18/18 23/23/23 17/17/17
f 23/23/23 19/19/19 17/17/17
f 24/24/24 21/21/21 19/19/19
f 24/24/24 22/22/22 21/21/21
f 22/22/22 25/25/25 16/16/16
f 25/25/25 26/26/26 16/16/16
f 25/25/25 22/22/22 27/27/27
f 22/22/22 24/24/24 27/27/27
f 28/28/28 24/24/24 19/19/19
f 19/19/19 23/23/23 28/28/28
f 29/29/29 26/26/26 25/25/25
f 29/29/29 25/25/25 27/27/27
f 29/29/29 27/27/27 30/30/30
f 24/24/24 31/31/31 27/27/27
f 31/31/31 24/24/24 28/28/28
f 27/27/27 31/31/31 30/30/30
f 29/29/29 32/32/32 26/26/26
f 32/32/32 29/29/29 30/30/30
f 32/32/32 30/30/30 33/33/33
f 32/32/32 34/34/34 26/26/26
f 32/32/32 35/35/35 34/34/34
f 35/35/35 32/32/32 33/33/33
f 35/35/35 36/36/36 34/34/34
f 36/36/36 35/35/35 33/33/33
f 37/37/37 36/36/36 33/33/33
f 38/38/38 31/31/31 28/28/28
f 31/31/31 38/38/38 30/30/30
f 37/37/37 33/33/33 39/39/39
f 40/40/40 37/37/37 39/39/39
f 41/41/41 40/40/40 39/39/39
f 42/42/42 41/41/41 39/39/39
f 33/33/33 43/43/43 39/39/39
f 39/39/39 43/43/43 42/42/42
f 44/44/44 33/33/33 30/30/30
f 33/33/33 44/44/44 43/43/43
f 38/38/38 45/45/45 30/30/30
f 30/30/30 45/45/45 44/44/44
f 44/44/44 46/46/46 43/43/43
f 43/43/43 46/46/46 42/42/42
f 44/44/44 45/45/45 47/47/47
f 46/46/46 44/44/44 47/47/47
f 48/48/48 38/38/38 28/28/28
f 45/45/45 38/38/38 49/49/49
f 38/38/38 48/48/48 49/49/49
f 50/50/50 45/45/45 49/49/49
f 45/45/45 50/50/50 47/47/47
f 51/51/51 48/48/48 28/28/28
f 23/23/23 51/51/51 28/28/28
f 52/52/52 49/49/49 48/48/48
f 49/49/49 52/52/52 50/50/50
f 53/53/53 50/50/50 52/52/52
f 54/54/54 47/47/47 50/50/50
f 53/53/53 54/54/54 50/50/50
f 48/48/48 51/51/51 55/55/55
f 55/55/55 52/52/52 48/48/48
f 23/23/23 56/56/56 51/51/51
f 51/51/51 56/56/56 57/57/57
f 51/51/51 57/57/57 55/55/55
f 23/23/23 58/58/58 56/56/56
f 57/57/57 56/56/56 58/58/58
f 23/23/23 18/18/18 58/58/58
f 57/57/57 59/59/59 55/55/55
f 59/59/59 57/57/57 58/58/58
f 60/60/60 52/52/52 55/55/55
f 59/59/59 60/60/60 55/55/55
f 61/61/61 53/53/53 52/52/52
f 52/52/52 60/60/60 61/61/61
f 60/60/60 62/62/62 61/61/61
f 61/61/61 62/62/62 53/53/53
f 60/60/60 63/63/63 62/62/62
f 60/60/60 59/59/59 63/63/63
f 59/59/59 64/64/64 63/63/63
f 62/62/62 63/63/63 64/64/64
f 58/58/58 65/65/65 59/59/59
f 59/59/59 65/65/65 64/64/64
f 18/18/18 66/66/66 58/58/58
f 58/58/58 66/66/66 65/65/65
f 66/66/66 18/18/18 67/67/67
f 67/67/67 18/18/18 13/13/13
f 13/13/13 68/68/68 67/67/67
f 8/8/8 68/68/68 13/13/13
f 69/69/69 62/62/62 64/64/64
f 65/65/65 70/70/70 64/64/64
f 69/69/69 64/64/64 70/70/70
f 66/66/66 71/71/71 65/65/65
f 70/70/70 65/65/65 72/72/72
f 65/65/65 71/71/71 72/72/72
f 66/66/66 73/73/73 71/71/71
f 73/73/73 66/66/66 67/67/67
f 72/72/72 71/71/71 73/73/73
f 74/74/74 70/70/70 72/72/72
f 74/74/74 69/69/69 70/70/70
f 72/72/72 73/73/73 75/75/75
f 75/75/75 74/74/74 72/72/72
f 76/76/76 73/73/73 67/67/67
f 73/73/73 76/76/76 75/75/75
f 77/77/77 76/76/76 67/67/67
f 75/75/75 76/76/76 77/77/77
f 77/77/77 74/74/74 75/75/75
f 68/68/68 77/77/77 67/67/67
f 74/74/74 77/77/77 78/78/78
f 69/69/69 74/74/74 78/78/78
f 77/77/77 68/68/68 78/78/78
f 79/79/79 62/62/62 69/69/69
f 69/69/69 80/80/80 79/79/79
f 80/80/80 69/69/69 78/78/78
f 79/79/79 80/80/80 81/81/81
f 62/62/62 79/79/79 81/81/81
f 82/82/82 80/80/80 78/78/78
f 82/82/82 81/81/81 80/80/80
f 83/83/83 78/78/78 68/68/68
f 83/83/83 82/82/82 78/78/78
f 84/84/84 83/83/83 68/68/68
f 84/84/84 85/85/85 83/83/83
f 68/68/68 8/8/8 84/84/84
f 85/85/85 84/84/84 8/8/8
f 86/86/86 85/85/85 8/8/8
f 85/85/85 86/86/86 87/87/87
f 88/88/88 85/85/85 87/87/87
f 88/88/88 89/89/89 85/85/85
f 83/83/83 85/85/85 90/90/90
f 89/89/89 90/90/90 85/85/85
f 83/83/83 90/90/90 91/91/91
f 91/91/91 82/82/82 83/83/83
f 92/92/92 90/90/90 89/89/89
f 92/92/92 91/91/91 90/90/90
f 92/92/92 89/89/89 93/93/93
f 94/94/94 92/92/92 93/93/93
f 94/94/94 91/91/91 92/92/92
f 95/95/95 94/94/94 93/93/93
f 96/96/96 95/95/95 93/93/93
f 97/97/97 91/91/91 94/94/94
f 95/95/95 97/97/97 94/94/94
f 97/97/97 95/95/95 98/98/98
f 95/95/95 96/96/96 99/99/99
f 95/95/95 99/99/99 98/98/98
f 96/96/96 100/100/100 99/99/99
f 97/97/97 101/101/101 91/91/91
f 82/82/82 91/91/91 101/101/101
f 97/97/97 98/98/98 101/101/101
f 99/99/99 100/100/100 102/102/102
f 98/98/98 99/99/99 102/102/102
f 100/100/100 103/103/103 102/102/102
f 104/104/104 82/82/82 101/101/101
f 81/81/81 82/82/82 104/104/104
f 101/101/101 98/98/98 105/105/105
f 101/101/101 105/105/105 104/104/104
f 102/102/102 103/103/103 106/106/106
f 107/107/107 98/98/98 102/102/102
f 102/102/102 106/106/106 107/107/107
f 98/98/98 108/108/108 105/105/105
f 98/98/98 107/107/107 108/108/108
f 104/104/104 105/105/105 109/109/109
f 109/109/109 105/105/105 108/108/108
f 110/110/110 81/81/81 104/104/104
f 110/110/110 104/104/104 109/109/109
f 108/108/108 107/107/107 111/111/111
f 111/111/111 107/107/107 106/106/106
f 111/111/111 106/106/106 112/112/112
f 106/106/106 103/103/103 113/113/113
f 106/106/106 113/113/113 112/112/112
f 113/113/113 103/103/103 114/114/114
f 115/115/115 108/108/108 111/111/111
f 115/115/115 109/109/109 108/108/108
f 115/115/115 111/111/111 112/112/112
f 114/114/114 116/116/116 113/113/113
f 113/113/113 116/116/116 112/112/112
f 114/114/114 117/117/117 116/116/116
f 109/109/109 115/115/115 118/118/118
f 118/118/118 110/110/110 109/109/109
f 115/115/115 112/112/112 118/118/118
f 81/81/81 110/110/110 119/119/119
f 110/110/110 118/118/118 119/119/119
f 119/119/119 118/118/118 120/120/120
f 119/119/119 62/62/62 81/81/81
f 118/118/118 112/112/112 121/121/121
f 120/120/120 118/118/118 121/121/121
f 119/119/119 122/122/122 62/62/62
f 62/62/62 122/122/122 53/53/53
f 122/122/122 119/119/119 123/123/123
f 122/122/122 123/123/123 53/53/53
f 120/120/120 123/123/123 119/119/119
f 123/123/123 124/124/124 53/53/53
f 120/120/120 124/124/124 123/123/123
f 124/124/124 54/54/54 53/53/53
f 125/125/125 54/54/54 124/124/124
f 47/47/47 54/54/54 125/125/125
f 126/126/126 121/121/121 112/112/112
f 116/116/116 126/126/126 112/112/112
f 120/120/120 127/127/127 124/124/124
f 127/127/127 125/125/125 124/124/124
f 128/128/128 47/47/47 125/125/125
f 128/128/128 46/46/46 47/47/47
f 129/129/129 128/128/128 125/125/125
f 128/128/128 129/129/129 46/46/46
f 130/130/130 125/125/125 127/127/127
f 130/130/130 129/129/129 125/125/125
f 127/127/127 120/120/120 131/131/131
f 130/130/130 127/127/127 131/131/131
f 121/121/121 132/132/132 120/120/120
f 120/120/120 132/132/132 131/131/131
f 133/133/133 121/121/121 126/126/126
f 132/132/132 121/121/121 133/133/133
f 126/126/126 116/116/116 134/134/134
f 134/134/134 133/133/133 126/126/126
f 135/135/135 132/132/132 133/133/133
f 132/132/132 135/135/135 131/131/131
f 135/135/135 133/133/133 134/134/134
f 129/129/129 136/136/136 46/46/46
f 46/46/46 136/136/136 42/42/42
f 130/130/130 137/137/137 129/129/129
f 137/137/137 130/130/130 131/131/131
f 137/137/137 136/136/136 129/129/129
f 116/116/116 138/138/138 134/134/134
f 117/117/117 138/138/138 116/116/116
f 139/139/139 135/135/135 134/134/134
f 134/134/134 138/138/138 139/139/139
f 135/135/135 140/140/140 131/131/131
f 139/139/139 140/140/140 135/135/135
f 137/137/137 131/131/131 140/140/140
f 138/138/138 117/117/117 141/141/141
f 138/138/138 141/141/141 139/139/139
f 141/141/141 140/140/140 139/139/139
f 117/117/117 142/142/142 141/141/141
f 141/141/141 142/142/142 143/143/143
f 144/144/144 141/141/141 143/143/143
f 140/140/140 141/141/141 144/144/144
f 144/144/144 137/137/137 140/140/140
f 137/137/137 144/144/144 145/145/145
f 136/136/136 137/137/137 145/145/145
f 144/144/144 146/146/146 145/145/145
f 145/145/145 147/147/147 136/136/136
f 147/147/147 145/145/145 146/146/146
f 147/147/147 148/148/148 136/136/136
f 148/148/148 147/147/147 146/146/146
f 136/136/136 148/148/148 42/42/42
f 149/149/149 148/148/148 146/146/146
f 42/42/42 148/148/148 150/150/150
f 148/148/148 149/149/149 150/150/150
