g fcbg_desert_004_cliff_08
v -4.389206 -9.202957E-05 -1.4587293
v -3.7115812 -9.202957E-05 -2.0816178
v -4.2981453 0.8692317 -2.2286026
v -3.5545912 0.38365316 -2.2831516
v -4.2981453 1.9185 -2.2286026
v -1.8514829 -9.202957E-05 -2.2721384
v -3.8749247 3.0836678 -2.2763867
v -4.3535156 3.1081934 -1.8671875
v -4.178917 3.4250193 -1.7428632
v -2.6769943 3.2430935 -2.287418
v -0.9632559 -9.202957E-05 -2.2031398
v -3.6999693 3.4020557 -2.139978
v -2.6749415 3.5037193 -2.0816357
v -1.0715775 3.2430935 -2.0466948
v -4.336299 3.7066898 0.2292161
v -4.5601187 3.4613256 0.2294035
v -4.3535156 3.1081934 -1.8671875
v -4.389206 -9.202957E-05 -1.4587293
v -4.2981453 1.9185 -2.2286026
v -4.2981453 0.8692317 -2.2286026
v -4.5601187 -9.202957E-05 0.45196438
v -4.116228 1.447237 2.0572557
v -4.4439964 -9.202957E-05 1.2340026
v -4.116228 3.646616 2.0572557
v -3.943861 3.8771744 1.835784
v -1.7413311 3.8777628 2.0436988
v -1.7609396 3.646616 2.252355
v -1.410841 -9.202957E-05 2.2590485
v -4.116228 1.447237 2.0572557
v -3.5345821 -9.202957E-05 2.1006398
v -4.4439964 -9.202957E-05 1.2340026
v -1.4567065 3.8542728 1.560173
v -1.4195876 3.600707 2.008276
v -1.436688 3.2395687 2.2585487
v 1.102098 3.5523338 2.1721196
v 1.1055162 -9.202957E-05 2.184713
v -0.47254515 3.646616 2.2264996
v -0.45311594 3.8779325 2.0606294
v -1.0771828 3.504157 -1.8040705
v 1.097796 3.7842388 1.9833131
v 1.5059063 3.6422167 0.059401512
v 0.46691942 3.5045938 -2.0960674
v 3.7042503 3.8791914 2.0811124
v 0.4852066 3.2430935 -2.3755336
v 1.2149625 1.9590459 -2.208709
v 2.0192504 -9.202957E-05 -2.0620098
v 2.2460597 3.2430935 -2.3798265
v 2.0110216 3.505022 -2.0635092
v 2.816443 3.250867 -2.1100528
v 2.6426835 2.7524009 -2.4094126
v 2.6784995 3.5120106 -1.7384098
v 3.3058953 3.5387945 -0.86844325
v 4.2456636 3.5739765 -0.40825605
v 3.4822516 3.2806587 -1.0723958
v 3.4822516 2.1566978 -1.0718513
v 2.6426835 2.1337337 -2.380844
v 2.4627035 1.3557653 -2.0436244
v 4.655175 3.3182144 -0.596786
v 4.6548896 2.1796613 -0.59573317
v 3.2464461 1.3703575 -0.7706528
v 4.3490677 1.3849497 -0.36548758
v 4.3487463 -9.202957E-05 -0.3642826
v 3.2464461 -9.202957E-05 -0.7700281
v 2.7305763 -9.202957E-05 -1.6368172
v 2.4627035 0.33346796 -2.0436244
v 4.0082693 3.646616 2.362658
v 4.0082693 2.0559974 2.362658
v 3.9288285 1.1143551 2.2791386
v 4.0082693 -9.202957E-05 2.362658
v 4.79834 2.180215 0.9912176
v 4.6548896 2.1796613 -0.59573317
v 4.0082693 2.0559974 2.362658
v 4.5652027 1.3425117 1.1260109
v 4.3490677 1.3849497 -0.36548758
v 3.9288285 1.1143551 2.2791386
v 4.274848 0.98138237 1.1264391
v 4.3487463 -9.202957E-05 -0.3642826
v 4.0082693 -9.202957E-05 2.362658
vt 0.93502027 0.0020378372
vt 0.9183101 0.006329511
vt 0.9290241 0.023039643
vt 0.91506857 0.014197579
vt 0.9291306 0.04267177
vt 0.8837941 0.0072121955
vt 0.92012113 0.06356704
vt 0.93144387 0.06720431
vt 0.92736524 0.07543763
vt 0.8989215 0.06533241
vt 0.8671601 0.007638319
vt 0.91697085 0.06936537
vt 0.8988454 0.07052199
vt 0.8696255 0.06623032
vt 0.9268478 0.11316479
vt 0.9316265 0.11305826
vt 0.9362682 0.07242433
vt 0.9987562 0.07954668
vt 0.96000934 0.064678006
vt 0.9810416 0.06429754
vt 0.9993954 0.11803477
vt 0.96944493 0.1510137
vt 0.9991823 0.13399918
vt 0.92483896 0.14863957
vt 0.9199385 0.14278038
vt 0.87956333 0.14384569
vt 0.87968504 0.14838086
vt 0.87066036 0.21700197
vt 0.92354536 0.19082582
vt 0.91150737 0.21824992
vt 0.9354464 0.22114147
vt 0.873628 0.13587108
vt 0.87262356 0.14603718
vt 0.8730345 0.15497056
vt 0.8252934 0.14688943
vt 0.82221925 0.21499312
vt 0.85474163 0.1476808
vt 0.8544677 0.14302388
vt 0.8696103 0.073733136
vt 0.825963 0.14093892
vt 0.82199097 0.104809724
vt 0.84238404 0.0698828
vt 0.77680665 0.13698205
vt 0.841897 0.06420623
vt 0.8296612 0.043493576
vt 0.8129815 0.009799374
vt 0.81506646 0.063886635
vt 0.8177906 0.06921318
vt 0.8070158 0.065636784
vt 0.80954206 0.05790569
vt 0.8070462 0.071906894
vt 0.7922841 0.08251432
vt 0.7727585 0.08887574
vt 0.78875333 0.07502673
vt 0.78258973 0.053979263
vt 0.8081876 0.04967237
vt 0.8067114 0.035701603
vt 0.76405334 0.08304698
vt 0.7583311 0.06055374
vt 0.7796982 0.0380605
vt 0.75810283 0.042793516
vt 0.7539938 0.016236885
vt 0.7765327 0.012751802
vt 0.79602784 0.011047307
vt 0.80543303 0.017256537
vt 0.7695321 0.1422173
vt 0.7681016 0.17294385
vt 0.7688473 0.19119106
vt 0.76630574 0.21260378
vt 0.74092096 0.11251038
vt 0.74139273 0.08214908
vt 0.73824245 0.14261298
vt 0.724987 0.115797624
vt 0.72422606 0.08639509
vt 0.71927994 0.1411672
vt 0.7161906 0.11669553
vt 0.696041 0.086592935
vt 0.69640625 0.14253688
vn -0.94145244 -0.17297173 -0.28939262
vn -0.34167558 -0.44770825 -0.8263263
vn -0.68219405 -0.12847215 -0.71979594
vn -0.121112406 -0.2232756 -0.967202
vn -0.6918679 0.014700413 -0.7218744
vn 0.039472997 -0.02592969 -0.99888414
vn -0.32426268 0.304915 -0.89547783
vn -0.8408447 0.32426268 -0.4333981
vn -0.48484808 0.8118233 -0.3253694
vn 0.047212064 0.3223279 -0.94545
vn 0.039472997 -0.0065820217 -0.999199
vn -0.19656819 0.7886061 -0.5826331
vn 0.010451555 0.8621271 -0.5065842
vn -0.020504653 0.40165323 -0.9155622
vn -0.46356565 0.88340956 -0.06851614
vn -0.9426837 0.33368748 -0
vn -0.8408447 0.32426268 -0.4333981
vn -0.94145244 -0.17297173 -0.28939262
vn -0.6918679 0.014700413 -0.7218744
vn -0.68219405 -0.12847215 -0.71979594
vn -0.9975607 0.03404802 0.06093777
vn -0.6396293 -0.02592969 0.76824605
vn -0.9337134 0.008896112 0.35791084
vn -0.60093397 0.3803708 0.70299107
vn -0.31265408 0.904692 0.28944743
vn 0.23875374 0.8814748 0.4074296
vn 0.16910219 0.40552276 0.89830714
vn -0.02243942 -0.0007777214 0.9997479
vn -0.6396293 -0.02592969 0.76824605
vn -0.33006698 -0.10525501 0.938071
vn -0.9337134 0.008896112 0.35791084
vn 0.051081598 0.9975607 0.04757486
vn 0.1923194 0.707346 0.68020207
vn 0.02012539 0.17528588 0.9843119
vn -0.005026579 0.3397408 0.9405057
vn -0.012765646 0.005026579 0.9999059
vn -0.037917554 0.35521895 0.93401384
vn -0.032113254 0.90082246 0.4329984
vn -0.0011570454 0.9143658 -0.4048874
vn 0.0027124882 0.9279091 0.37279674
vn -0.0011570454 0.9975607 -0.06979519
vn -0.04565662 0.90662676 -0.41945603
vn 0.18071079 0.9395177 0.290947
vn -0.06500429 0.35521895 -0.9325202
vn 0.022060156 -0.10525501 -0.9942005
vn 0.17103696 -0.16329795 -0.97163785
vn 0.12266785 0.46356565 -0.87753034
vn 0.064624965 0.9259744 -0.37201473
vn 0.6102285 0.48678285 -0.6250309
vn 0.43223017 0.055330455 -0.90006423
vn 0.2581014 0.9221049 -0.2882815
vn 0.18844986 0.9395177 -0.2859951
vn 0.31034 0.9163006 -0.25314486
vn 0.55798984 0.45389193 -0.6947154
vn 0.62570655 -0.22521037 -0.7468411
vn 0.43223017 -0.2290799 -0.8721809
vn 0.4902731 -0.2174713 -0.8440015
vn 0.75340104 0.44228333 -0.48659256
vn 0.7804877 -0.203928 -0.5909757
vn 0.6237718 -0.203928 -0.75453436
vn 0.7669444 -0.28712285 -0.5738961
vn 0.8404654 -0.02592969 -0.5412444
vn 0.6353804 0.0030918121 -0.77219313
vn 0.7920963 -0.12266785 -0.5979432
vn 0.50768596 -0.16910219 -0.84478366
vn 0.49801216 0.47904378 0.7228423
vn 0.48640355 -0.047212064 0.8724578
vn 0.52896833 -0.035603464 0.8478944
vn 0.60635895 0.04565662 0.7938793
vn 0.9817032 -0.018190622 0.18954645
vn 0.7804877 -0.203928 -0.5909757
vn 0.48640355 -0.047212064 0.8724578
vn 0.89463884 -0.41481727 0.16597594
vn 0.7669444 -0.28712285 -0.5738961
vn 0.52896833 -0.035603464 0.8478944
vn 0.93720365 -0.3219486 0.13415824
vn 0.8404654 -0.02592969 -0.5412444
vn 0.60635895 0.04565662 0.7938793
g fcbg_desert_004_cliff_08_0
f 3/3/3 2/2/2 1/1/1
f 4/4/4 2/2/2 3/3/3
f 3/3/3 5/5/5 4/4/4
f 4/4/4 6/6/6 2/2/2
f 5/5/5 7/7/7 4/4/4
f 7/7/7 5/5/5 8/8/8
f 7/7/7 8/8/8 9/9/9
f 4/4/4 10/10/10 6/6/6
f 7/7/7 10/10/10 4/4/4
f 6/6/6 10/10/10 11/11/11
f 12/12/12 7/7/7 9/9/9
f 7/7/7 12/12/12 10/10/10
f 12/12/12 13/13/13 10/10/10
f 12/12/12 9/9/9 13/13/13
f 10/10/10 14/14/14 11/11/11
f 10/10/10 13/13/13 14/14/14
f 9/9/9 15/15/15 13/13/13
f 16/16/16 15/15/15 9/9/9
f 17/17/17 16/16/16 9/9/9
f 16/16/16 17/17/17 18/18/18
f 18/18/18 17/17/17 19/19/19
f 20/20/20 18/18/18 19/19/19
f 21/21/21 16/16/16 18/18/18
f 16/16/16 21/21/21 22/22/22
f 23/23/23 22/22/22 21/21/21
f 24/24/24 16/16/16 22/22/22
f 25/25/25 15/15/15 16/16/16
f 24/24/24 25/25/25 16/16/16
f 25/25/25 26/26/26 15/15/15
f 26/26/26 13/13/13 15/15/15
f 24/24/24 27/27/27 25/25/25
f 27/27/27 26/26/26 25/25/25
f 24/24/24 28/28/28 27/27/27
f 29/29/29 28/28/28 24/24/24
f 30/30/30 28/28/28 29/29/29
f 29/29/29 31/31/31 30/30/30
f 26/26/26 32/32/32 13/13/13
f 26/26/26 27/27/27 33/33/33
f 26/26/26 33/33/33 32/32/32
f 28/28/28 34/34/34 27/27/27
f 27/27/27 34/34/34 33/33/33
f 34/34/34 28/28/28 35/35/35
f 28/28/28 36/36/36 35/35/35
f 37/37/37 33/33/33 34/34/34
f 37/37/37 34/34/34 35/35/35
f 33/33/33 37/37/37 38/38/38
f 38/38/38 32/32/32 33/33/33
f 37/37/37 35/35/35 38/38/38
f 32/32/32 39/39/39 13/13/13
f 13/13/13 39/39/39 14/14/14
f 38/38/38 40/40/40 32/32/32
f 35/35/35 40/40/40 38/38/38
f 40/40/40 39/39/39 32/32/32
f 40/40/40 41/41/41 39/39/39
f 39/39/39 42/42/42 14/14/14
f 39/39/39 41/41/41 42/42/42
f 43/43/43 40/40/40 35/35/35
f 40/40/40 43/43/43 41/41/41
f 42/42/42 44/44/44 14/14/14
f 14/14/14 44/44/44 11/11/11
f 44/44/44 45/45/45 11/11/11
f 11/11/11 45/45/45 46/46/46
f 44/44/44 42/42/42 47/47/47
f 45/45/45 44/44/44 47/47/47
f 42/42/42 41/41/41 48/48/48
f 47/47/47 42/42/42 48/48/48
f 47/47/47 48/48/48 49/49/49
f 50/50/50 45/45/45 47/47/47
f 50/50/50 47/47/47 49/49/49
f 48/48/48 41/41/41 51/51/51
f 48/48/48 51/51/51 49/49/49
f 41/41/41 52/52/52 51/51/51
f 51/51/51 52/52/52 49/49/49
f 52/52/52 41/41/41 53/53/53
f 41/41/41 43/43/43 53/53/53
f 52/52/52 54/54/54 49/49/49
f 52/52/52 53/53/53 54/54/54
f 49/49/49 55/55/55 50/50/50
f 54/54/54 55/55/55 49/49/49
f 56/56/56 45/45/45 50/50/50
f 50/50/50 55/55/55 56/56/56
f 57/57/57 45/45/45 56/56/56
f 56/56/56 55/55/55 57/57/57
f 46/46/46 45/45/45 57/57/57
f 58/58/58 53/53/53 43/43/43
f 53/53/53 58/58/58 54/54/54
f 59/59/59 55/55/55 54/54/54
f 58/58/58 59/59/59 54/54/54
f 60/60/60 55/55/55 59/59/59
f 55/55/55 60/60/60 57/57/57
f 61/61/61 60/60/60 59/59/59
f 60/60/60 61/61/61 62/62/62
f 63/63/63 60/60/60 62/62/62
f 60/60/60 63/63/63 64/64/64
f 57/57/57 60/60/60 64/64/64
f 65/65/65 46/46/46 57/57/57
f 65/65/65 64/64/64 46/46/46
f 65/65/65 57/57/57 64/64/64
f 66/66/66 58/58/58 43/43/43
f 66/66/66 43/43/43 35/35/35
f 66/66/66 35/35/35 67/67/67
f 67/67/67 35/35/35 36/36/36
f 68/68/68 67/67/67 36/36/36
f 69/69/69 68/68/68 36/36/36
f 66/66/66 70/70/70 58/58/58
f 58/58/58 70/70/70 71/71/71
f 72/72/72 70/70/70 66/66/66
f 70/70/70 73/73/73 71/71/71
f 72/72/72 73/73/73 70/70/70
f 71/71/71 73/73/73 74/74/74
f 72/72/72 75/75/75 73/73/73
f 74/74/74 73/73/73 76/76/76
f 73/73/73 75/75/75 76/76/76
f 77/77/77 74/74/74 76/76/76
f 75/75/75 78/78/78 76/76/76
f 78/78/78 77/77/77 76/76/76
