g fcbg_wasteland_plant_01
v 0.0016144589 -0.0064870156 -0.0010059997
v 0.07469628 0.3497364 0.1323444
v -0.023780882 0.47436696 0.12548196
v -0.03633596 0.77545786 0.2968523
v 0.076887496 0.90968037 0.3840657
v -0.010468915 1.1010314 0.53993046
v -0.037618205 -0.0046560895 -0.021466695
v -0.049441844 0.37994012 0.022854432
v -0.05200541 0.48767614 -0.094038665
v -0.14261019 0.82210666 -0.10535684
v -0.1481519 0.985547 0.0028001368
v -0.27771875 1.2036825 -0.061771426
v 0.028311227 -0.01642013 -0.03414569
v -0.021272793 0.40291694 -0.059189416
v 0.06568405 0.5218869 0.032645732
v 0.12251504 0.8932675 -0.014135189
v 0.03178205 1.0704342 -0.09306059
v 0.16708292 1.3187472 -0.13529095
v 0.057381332 -0.001740706 0.008656092
v 0.12688676 0.29663363 -0.030872896
v 0.036376897 0.3821935 0.09385291
v 0.11727221 0.6364784 0.16193557
v 0.22278027 0.7619117 0.051331863
v 0.28211442 0.9234359 0.19979653
v -0.045675315 -0.012273202 0.030080616
v -0.06864895 0.24218611 0.19301713
v -0.036229983 0.35788754 0.03984016
v -0.12754913 0.6013559 0.08659664
v -0.1641515 0.6788085 0.29317728
v -0.28234747 0.8617142 0.21969914
v 0.0016144589 -0.0064870156 -0.0010059997
v -0.023780882 0.47436696 0.12548196
v 0.07469628 0.3497364 0.1323444
v -0.03633596 0.77545786 0.2968523
v 0.076887496 0.90968037 0.3840657
v -0.010468915 1.1010314 0.53993046
v -0.037618205 -0.0046560895 -0.021466695
v -0.05200541 0.48767614 -0.094038665
v -0.049441844 0.37994012 0.022854432
v -0.14261019 0.82210666 -0.10535684
v -0.1481519 0.985547 0.0028001368
v -0.27771875 1.2036825 -0.061771426
v 0.028311227 -0.01642013 -0.03414569
v 0.06568405 0.5218869 0.032645732
v -0.021272793 0.40291694 -0.059189416
v 0.12251504 0.8932675 -0.014135189
v 0.03178205 1.0704342 -0.09306059
v 0.16708292 1.3187472 -0.13529095
v 0.057381332 -0.001740706 0.008656092
v 0.036376897 0.3821935 0.09385291
v 0.12688676 0.29663363 -0.030872896
v 0.11727221 0.6364784 0.16193557
v 0.22278027 0.7619117 0.051331863
v 0.28211442 0.9234359 0.19979653
v -0.045675315 -0.012273202 0.030080616
v -0.036229983 0.35788754 0.03984016
v -0.06864895 0.24218611 0.19301713
v -0.12754913 0.6013559 0.08659664
v -0.1641515 0.6788085 0.29317728
v -0.28234747 0.8617142 0.21969914
v -0.03159357 -0.11762456 -0.17335595
v -0.2509916 0.2996211 -0.1480261
v -0.22169584 0.45131895 -0.26499882
v -0.44894725 0.7970303 -0.35093194
v -0.6048748 0.95029587 -0.2544655
v -0.7757292 1.16437 -0.41819128
v 0.047341812 -0.109865665 -0.16333999
v -0.07322946 0.44307524 -0.20946482
v 0.0784419 0.61887467 -0.18908913
v 0.065476686 1.1061901 -0.3327554
v -0.11386226 1.32673 -0.375357
v -0.02240637 1.6524608 -0.55656743
v -0.0630686 -0.1127877 -0.11188809
v -0.07416062 0.25403363 -0.027753897
v -0.1962527 0.34328637 -0.18034634
v -0.3315558 0.6443279 -0.11921521
v -0.25407887 0.8095426 0.038224787
v -0.46502477 0.98875105 0.049278736
v -0.05032645 -0.12835903 -0.23924676
v -0.25903368 0.16169721 -0.33266604
v -0.10519025 0.31973487 -0.24512777
v -0.15359597 0.609526 -0.37695295
v -0.38894466 0.67974967 -0.49519828
v -0.28163707 0.9097221 -0.61383295
v -0.03159357 -0.11762456 -0.17335595
v -0.22169584 0.45131895 -0.26499882
v -0.2509916 0.2996211 -0.1480261
v -0.44894725 0.7970303 -0.35093194
v -0.6048748 0.95029587 -0.2544655
v -0.7757292 1.16437 -0.41819128
v 0.047341812 -0.109865665 -0.16333999
v 0.0784419 0.61887467 -0.18908913
v -0.07322946 0.44307524 -0.20946482
v 0.065476686 1.1061901 -0.3327554
v -0.11386226 1.32673 -0.375357
v -0.02240637 1.6524608 -0.55656743
v -0.0630686 -0.1127877 -0.11188809
v -0.1962527 0.34328637 -0.18034634
v -0.07416062 0.25403363 -0.027753897
v -0.3315558 0.6443279 -0.11921521
v -0.25407887 0.8095426 0.038224787
v -0.46502477 0.98875105 0.049278736
v -0.05032645 -0.12835903 -0.23924676
v -0.10519025 0.31973487 -0.24512777
v -0.25903368 0.16169721 -0.33266604
v -0.15359597 0.609526 -0.37695295
v -0.38894466 0.67974967 -0.49519828
v -0.28163707 0.9097221 -0.61383295
v 0.12018108 -0.06273788 -0.15242703
v 0.16128954 0.3386774 -0.32331795
v 0.24094133 0.4796092 -0.24489644
v 0.3826512 0.81803685 -0.3835335
v 0.35305488 0.9689488 -0.54339516
v 0.54561305 1.1833088 -0.61198485
v 0.13819808 -0.060466588 -0.10572997
v 0.18506247 0.37404925 -0.13778612
v 0.100841686 0.4974155 -0.037567787
v 0.17248532 0.87576485 0.03695813
v 0.2596463 1.0592821 -0.052095037
v 0.32342082 1.3066835 0.09776762
v 0.08011541 -0.05740545 -0.20238161
v -0.005594738 0.28075862 -0.22336288
v 0.16533858 0.3758273 -0.2622606
v 0.15002403 0.6627609 -0.38272688
v -0.0210599 0.8062344 -0.3688339
v 0.041160196 0.9871707 -0.5406105
v 0.18351807 -0.069752134 -0.14339213
v 0.32731783 0.21601212 -0.26667988
v 0.18634073 0.34890512 -0.16189796
v 0.30115616 0.6236082 -0.13535613
v 0.48747408 0.7085466 -0.2839856
v 0.5345979 0.91622275 -0.13476782
v 0.12018108 -0.06273788 -0.15242703
v 0.24094133 0.4796092 -0.24489644
v 0.16128954 0.3386774 -0.32331795
v 0.3826512 0.81803685 -0.3835335
v 0.35305488 0.9689488 -0.54339516
v 0.54561305 1.1833088 -0.61198485
v 0.13819808 -0.060466588 -0.10572997
v 0.100841686 0.4974155 -0.037567787
v 0.18506247 0.37404925 -0.13778612
v 0.17248532 0.87576485 0.03695813
v 0.2596463 1.0592821 -0.052095037
v 0.32342082 1.3066835 0.09776762
v 0.08011541 -0.05740545 -0.20238161
v 0.16533858 0.3758273 -0.2622606
v -0.005594738 0.28075862 -0.22336288
v 0.15002403 0.6627609 -0.38272688
v -0.0210599 0.8062344 -0.3688339
v 0.041160196 0.9871707 -0.5406105
v 0.18351807 -0.069752134 -0.14339213
v 0.18634073 0.34890512 -0.16189796
v 0.32731783 0.21601212 -0.26667988
v 0.30115616 0.6236082 -0.13535613
v 0.48747408 0.7085466 -0.2839856
v 0.5345979 0.91622275 -0.13476782
vt 0.9740517 0.07286241
vt 0.9842247 0.10467556
vt 0.9668005 0.11474189
vt 0.96792275 0.14304923
vt 0.98625034 0.1557713
vt 0.97809786 0.17492011
vt 0.19788344 0.32408974
vt 0.17808695 0.3436593
vt 0.16415454 0.3350002
vt 0.14359395 0.34670833
vt 0.14097448 0.3647929
vt 0.12375547 0.3663017
vt 0.9740517 0.07286241
vt 0.98422474 0.10467556
vt 0.9668004 0.11474184
vt 0.9679227 0.14304918
vt 0.9862504 0.15577124
vt 0.97809786 0.17492008
vt 0.19788344 0.32408974
vt 0.17808695 0.3436593
vt 0.16415454 0.3350002
vt 0.14359395 0.34670833
vt 0.14097448 0.3647929
vt 0.12375547 0.3663017
vt 0.9740517 0.07286241
vt 0.98422474 0.10467556
vt 0.9668004 0.11474184
vt 0.9679227 0.14304918
vt 0.9862504 0.15577124
vt 0.97809786 0.17492008
vt 0.9740517 0.07286241
vt 0.9668005 0.11474189
vt 0.9842247 0.10467556
vt 0.96792275 0.14304923
vt 0.98625034 0.1557713
vt 0.97809786 0.17492011
vt 0.19788344 0.32408974
vt 0.16415454 0.3350002
vt 0.17808695 0.3436593
vt 0.14359395 0.34670833
vt 0.14097448 0.3647929
vt 0.12375547 0.3663017
vt 0.9740517 0.07286241
vt 0.9668004 0.11474184
vt 0.98422474 0.10467556
vt 0.9679227 0.14304918
vt 0.9862504 0.15577124
vt 0.97809786 0.17492008
vt 0.19788344 0.32408974
vt 0.16415454 0.3350002
vt 0.17808695 0.3436593
vt 0.14359395 0.34670833
vt 0.14097448 0.3647929
vt 0.12375547 0.3663017
vt 0.9740517 0.07286241
vt 0.9668004 0.11474184
vt 0.98422474 0.10467556
vt 0.9679227 0.14304918
vt 0.9862504 0.15577124
vt 0.97809786 0.17492008
vt 0.9740517 0.07286241
vt 0.9842247 0.10467556
vt 0.9668005 0.11474189
vt 0.96792275 0.14304923
vt 0.98625034 0.1557713
vt 0.97809786 0.17492011
vt 0.19788344 0.32408974
vt 0.17808695 0.3436593
vt 0.16415454 0.3350002
vt 0.14359395 0.34670833
vt 0.14097448 0.3647929
vt 0.12375547 0.3663017
vt 0.19788344 0.32408974
vt 0.17808695 0.3436593
vt 0.16415454 0.3350002
vt 0.14359395 0.34670833
vt 0.14097448 0.3647929
vt 0.12375547 0.3663017
vt 0.9740517 0.07286241
vt 0.98422474 0.10467556
vt 0.9668004 0.11474184
vt 0.9679227 0.14304918
vt 0.9862504 0.15577124
vt 0.97809786 0.17492008
vt 0.9740517 0.07286241
vt 0.9668005 0.11474189
vt 0.9842247 0.10467556
vt 0.96792275 0.14304923
vt 0.98625034 0.1557713
vt 0.97809786 0.17492011
vt 0.19788344 0.32408974
vt 0.16415454 0.3350002
vt 0.17808695 0.3436593
vt 0.14359395 0.34670833
vt 0.14097448 0.3647929
vt 0.12375547 0.3663017
vt 0.19788344 0.32408974
vt 0.16415454 0.3350002
vt 0.17808695 0.3436593
vt 0.14359395 0.34670833
vt 0.14097448 0.3647929
vt 0.12375547 0.3663017
vt 0.9740517 0.07286241
vt 0.9668004 0.11474184
vt 0.98422474 0.10467556
vt 0.9679227 0.14304918
vt 0.9862504 0.15577124
vt 0.97809786 0.17492008
vt 0.9740517 0.07286241
vt 0.9842247 0.10467556
vt 0.9668005 0.11474189
vt 0.96792275 0.14304923
vt 0.98625034 0.1557713
vt 0.97809786 0.17492011
vt 0.19788344 0.32408974
vt 0.17808695 0.3436593
vt 0.16415454 0.3350002
vt 0.14359395 0.34670833
vt 0.14097448 0.3647929
vt 0.12375547 0.3663017
vt 0.19788344 0.32408974
vt 0.17808695 0.3436593
vt 0.16415454 0.3350002
vt 0.14359395 0.34670833
vt 0.14097448 0.3647929
vt 0.12375547 0.3663017
vt 0.9740517 0.07286241
vt 0.98422474 0.10467556
vt 0.9668004 0.11474184
vt 0.9679227 0.14304918
vt 0.9862504 0.15577124
vt 0.97809786 0.17492008
vt 0.9740517 0.07286241
vt 0.9668005 0.11474189
vt 0.9842247 0.10467556
vt 0.96792275 0.14304923
vt 0.98625034 0.1557713
vt 0.97809786 0.17492011
vt 0.19788344 0.32408974
vt 0.16415454 0.3350002
vt 0.17808695 0.3436593
vt 0.14359395 0.34670833
vt 0.14097448 0.3647929
vt 0.12375547 0.3663017
vt 0.19788344 0.32408974
vt 0.16415454 0.3350002
vt 0.17808695 0.3436593
vt 0.14359395 0.34670833
vt 0.14097448 0.3647929
vt 0.12375547 0.3663017
vt 0.9740517 0.07286241
vt 0.9668004 0.11474184
vt 0.98422474 0.10467556
vt 0.9679227 0.14304918
vt 0.9862504 0.15577124
vt 0.97809786 0.17492008
vn 0.3831597 -0.8881144 -0.25385317
vn 0.3713583 -0.8690125 -0.3269715
vn 0.35754257 -0.84510744 -0.39743793
vn 0.32025114 -0.8418224 -0.43448153
vn 0.0962733 -0.83757997 -0.53776497
vn -0.10056036 -0.7933914 -0.60034806
vn 0.99953127 0.005786303 -0.030061781
vn 0.99448353 -0.012614355 -0.10413189
vn 0.9837622 -0.030748842 -0.1768233
vn 0.97520477 -0.071095765 -0.20957345
vn 0.9107472 -0.2958956 -0.28807202
vn 0.81135166 -0.47444877 -0.3414775
vn -0.69913846 0.7138646 0.040035345
vn -0.68661696 0.7262049 -0.03440504
vn -0.6702733 0.73423356 -0.107864365
vn -0.637218 0.75756806 -0.14157662
vn -0.43551973 0.8711211 -0.22687122
vn -0.2413787 0.926377 -0.28907064
vn -0.7727627 -0.62725246 -0.09691372
vn -0.76794297 -0.60311556 -0.21567373
vn -0.7612649 -0.5876497 -0.27412328
vn -0.77140135 -0.5431627 -0.3315332
vn -0.8069195 -0.4329398 -0.40180084
vn -0.8332483 -0.21922147 -0.5075818
vn 0.9822326 0.18526247 0.029948113
vn 0.9718849 0.19971974 -0.12470604
vn 0.9636471 0.20331064 -0.17334647
vn 0.9498329 0.17661683 -0.2581162
vn 0.93116176 0.10736788 -0.3484394
vn 0.84759974 -0.04795647 -0.5284646
vn -0.3831597 0.8881144 0.25385314
vn -0.35754257 0.8451073 0.39743787
vn -0.3713583 0.8690125 0.3269715
vn -0.32025123 0.8418224 0.43448153
vn -0.096273355 0.83757997 0.53776497
vn 0.10056036 0.7933914 0.60034806
vn -0.99953127 -0.005786295 0.03006178
vn -0.9837622 0.03074888 0.17682333
vn -0.99448353 0.01261438 0.1041319
vn -0.97520477 0.07109579 0.20957349
vn -0.9107472 0.29589546 0.288072
vn -0.8113518 0.47444853 0.34147763
vn 0.69913846 -0.71386456 -0.04003534
vn 0.6702733 -0.7342336 0.10786438
vn 0.6866169 -0.7262049 0.034405038
vn 0.6372179 -0.75756806 0.1415766
vn 0.43551967 -0.8711211 0.22687116
vn 0.24137868 -0.9263771 0.28907055
vn 0.7727627 0.62725234 0.09691371
vn 0.7612649 0.5876497 0.27412328
vn 0.76794297 0.60311556 0.21567373
vn 0.77140135 0.5431627 0.3315332
vn 0.8069195 0.43293977 0.40180084
vn 0.8332483 0.21922135 0.50758183
vn -0.9822326 -0.18526249 -0.029948095
vn -0.9636471 -0.20331065 0.17334644
vn -0.9718849 -0.19971974 0.12470602
vn -0.9498329 -0.1766168 0.25811616
vn -0.93116176 -0.107367866 0.3484394
vn -0.84759974 0.04795647 0.5284647
vn 0.7122676 0.6156313 -0.33715442
vn 0.69098246 0.596639 -0.40812403
vn 0.66594225 0.5744108 -0.47599697
vn 0.67034256 0.5366725 -0.512468
vn 0.7221454 0.31804067 -0.6142933
vn 0.73163176 0.11505745 -0.6719202
vn -0.18119627 0.9825303 -0.04244921
vn -0.17018057 0.9783196 -0.11802279
vn -0.15830073 0.9685195 -0.19212192
vn -0.120796055 0.9659016 -0.22900303
vn 0.10211275 0.93811136 -0.33093822
vn 0.28842506 0.86885184 -0.4023773
vn 0.81339616 -0.5611468 -0.15330042
vn 0.778422 -0.5670507 -0.2692818
vn 0.7565413 -0.5668722 -0.32603857
vn 0.71198624 -0.5911361 -0.3789902
vn 0.61102724 -0.6590612 -0.43850195
vn 0.4056308 -0.7491503 -0.5236769
vn -0.4590866 0.8872731 0.0445648
vn -0.48363104 0.86858076 -0.10802024
vn -0.48899248 0.8582095 -0.15608619
vn -0.46709886 0.85017276 -0.24295028
vn -0.4037452 0.8496163 -0.33932593
vn -0.24752876 0.80915505 -0.53291434
vn -0.7122676 -0.6156313 0.33715442
vn -0.66594225 -0.57441086 0.47599697
vn -0.6909824 -0.596639 0.408124
vn -0.6703426 -0.5366726 0.512468
vn -0.7221454 -0.3180407 0.6142932
vn -0.73163176 -0.11505745 0.6719202
vn 0.18119624 -0.9825304 0.04244921
vn 0.15830061 -0.9685195 0.19212191
vn 0.17018047 -0.9783196 0.11802279
vn 0.12079593 -0.9659017 0.22900304
vn -0.10211273 -0.93811136 0.33093822
vn -0.2884249 -0.86885184 0.40237737
vn -0.81339616 0.5611468 0.15330037
vn -0.7565413 0.5668721 0.32603857
vn -0.778422 0.5670507 0.2692818
vn -0.71198636 0.59113604 0.3789902
vn -0.6110273 0.6590612 0.4385019
vn -0.40563083 0.74915034 0.5236768
vn 0.4590866 -0.8872731 -0.044564806
vn 0.48899248 -0.8582095 0.15608618
vn 0.48363104 -0.86858076 0.10802022
vn 0.46709886 -0.85017276 0.24295028
vn 0.40374523 -0.8496163 0.3393259
vn 0.24752885 -0.80915505 0.5329143
vn -0.8724366 0.41106698 -0.26434493
vn -0.85033643 0.40398678 -0.3372277
vn -0.82357216 0.39465487 -0.40740204
vn -0.79310864 0.4165653 -0.44435564
vn -0.62138593 0.5606814 -0.5472805
vn -0.4439655 0.65718937 -0.6090951
vn -0.7458434 -0.665383 -0.031354245
vn -0.75359404 -0.6487993 -0.10561965
vn -0.7569237 -0.628654 -0.17849584
vn -0.7768986 -0.59297353 -0.21168602
vn -0.87648284 -0.3822976 -0.29261982
vn -0.919494 -0.18303001 -0.34789476
vn 0.16594434 0.98075074 -0.10291003
vn 0.17928849 0.95856076 -0.22139753
vn 0.18499646 0.942102 -0.27967846
vn 0.22249609 0.9149949 -0.33657074
vn 0.32260364 0.8552538 -0.40554622
vn 0.484535 0.7115232 -0.5088817
vn -0.61472535 -0.7881438 0.030693425
vn -0.59609693 -0.7933149 -0.12377413
vn -0.5871312 -0.7909292 -0.17235981
vn -0.5936965 -0.7624086 -0.25740546
vn -0.6247027 -0.6987924 -0.3484761
vn -0.66316664 -0.52837473 -0.5301227
vn 0.8724366 -0.4110669 0.26434496
vn 0.8235721 -0.3946548 0.4074021
vn 0.85033643 -0.40398675 0.33722776
vn 0.79310864 -0.41656533 0.44435576
vn 0.62138593 -0.56068146 0.5472805
vn 0.4439655 -0.6571894 0.60909504
vn 0.74584347 0.665383 0.031354245
vn 0.7569237 0.628654 0.17849587
vn 0.75359404 0.64879924 0.10561967
vn 0.7768986 0.5929735 0.21168602
vn 0.87648284 0.3822976 0.29261982
vn 0.919494 0.18303 0.3478947
vn -0.16594435 -0.98075074 0.102910034
vn -0.18499646 -0.942102 0.27967852
vn -0.17928852 -0.95856076 0.22139755
vn -0.22249609 -0.9149949 0.33657077
vn -0.32260364 -0.8552538 0.40554622
vn -0.484535 -0.7115232 0.5088817
vn 0.6147253 0.7881438 -0.030693421
vn 0.58713114 0.7909292 0.17235978
vn 0.59609693 0.7933149 0.12377412
vn 0.5936964 0.7624086 0.2574055
vn 0.6247028 0.6987924 0.34847617
vn 0.66316664 0.52837455 0.5301228
g fcbg_wasteland_plant_01_0
f 3/3/3 2/2/2 1/1/1
f 3/3/3 4/4/4 2/2/2
f 4/4/4 5/5/5 2/2/2
f 4/4/4 6/6/6 5/5/5
f 9/9/9 8/8/8 7/7/7
f 9/9/9 10/10/10 8/8/8
f 10/10/10 11/11/11 8/8/8
f 10/10/10 12/12/12 11/11/11
f 15/15/15 14/14/14 13/13/13
f 15/15/15 16/16/16 14/14/14
f 16/16/16 17/17/17 14/14/14
f 16/16/16 18/18/18 17/17/17
f 21/21/21 20/20/20 19/19/19
f 21/21/21 22/22/22 20/20/20
f 22/22/22 23/23/23 20/20/20
f 22/22/22 24/24/24 23/23/23
f 27/27/27 26/26/26 25/25/25
f 27/27/27 28/28/28 26/26/26
f 28/28/28 29/29/29 26/26/26
f 28/28/28 30/30/30 29/29/29
f 33/33/33 32/32/32 31/31/31
f 34/34/34 32/32/32 33/33/33
f 35/35/35 34/34/34 33/33/33
f 36/36/36 34/34/34 35/35/35
f 39/39/39 38/38/38 37/37/37
f 40/40/40 38/38/38 39/39/39
f 41/41/41 40/40/40 39/39/39
f 42/42/42 40/40/40 41/41/41
f 45/45/45 44/44/44 43/43/43
f 46/46/46 44/44/44 45/45/45
f 47/47/47 46/46/46 45/45/45
f 48/48/48 46/46/46 47/47/47
f 51/51/51 50/50/50 49/49/49
f 52/52/52 50/50/50 51/51/51
f 53/53/53 52/52/52 51/51/51
f 54/54/54 52/52/52 53/53/53
f 57/57/57 56/56/56 55/55/55
f 58/58/58 56/56/56 57/57/57
f 59/59/59 58/58/58 57/57/57
f 60/60/60 58/58/58 59/59/59
f 63/63/63 62/62/62 61/61/61
f 63/63/63 64/64/64 62/62/62
f 64/64/64 65/65/65 62/62/62
f 64/64/64 66/66/66 65/65/65
f 69/69/69 68/68/68 67/67/67
f 69/69/69 70/70/70 68/68/68
f 70/70/70 71/71/71 68/68/68
f 70/70/70 72/72/72 71/71/71
f 75/75/75 74/74/74 73/73/73
f 75/75/75 76/76/76 74/74/74
f 76/76/76 77/77/77 74/74/74
f 76/76/76 78/78/78 77/77/77
f 81/81/81 80/80/80 79/79/79
f 81/81/81 82/82/82 80/80/80
f 82/82/82 83/83/83 80/80/80
f 82/82/82 84/84/84 83/83/83
f 87/87/87 86/86/86 85/85/85
f 88/88/88 86/86/86 87/87/87
f 89/89/89 88/88/88 87/87/87
f 90/90/90 88/88/88 89/89/89
f 93/93/93 92/92/92 91/91/91
f 94/94/94 92/92/92 93/93/93
f 95/95/95 94/94/94 93/93/93
f 96/96/96 94/94/94 95/95/95
f 99/99/99 98/98/98 97/97/97
f 100/100/100 98/98/98 99/99/99
f 101/101/101 100/100/100 99/99/99
f 102/102/102 100/100/100 101/101/101
f 105/105/105 104/104/104 103/103/103
f 106/106/106 104/104/104 105/105/105
f 107/107/107 106/106/106 105/105/105
f 108/108/108 106/106/106 107/107/107
f 111/111/111 110/110/110 109/109/109
f 111/111/111 112/112/112 110/110/110
f 112/112/112 113/113/113 110/110/110
f 112/112/112 114/114/114 113/113/113
f 117/117/117 116/116/116 115/115/115
f 117/117/117 118/118/118 116/116/116
f 118/118/118 119/119/119 116/116/116
f 118/118/118 120/120/120 119/119/119
f 123/123/123 122/122/122 121/121/121
f 123/123/123 124/124/124 122/122/122
f 124/124/124 125/125/125 122/122/122
f 124/124/124 126/126/126 125/125/125
f 129/129/129 128/128/128 127/127/127
f 129/129/129 130/130/130 128/128/128
f 130/130/130 131/131/131 128/128/128
f 130/130/130 132/132/132 131/131/131
f 135/135/135 134/134/134 133/133/133
f 136/136/136 134/134/134 135/135/135
f 137/137/137 136/136/136 135/135/135
f 138/138/138 136/136/136 137/137/137
f 141/141/141 140/140/140 139/139/139
f 142/142/142 140/140/140 141/141/141
f 143/143/143 142/142/142 141/141/141
f 144/144/144 142/142/142 143/143/143
f 147/147/147 146/146/146 145/145/145
f 148/148/148 146/146/146 147/147/147
f 149/149/149 148/148/148 147/147/147
f 150/150/150 148/148/148 149/149/149
f 153/153/153 152/152/152 151/151/151
f 154/154/154 152/152/152 153/153/153
f 155/155/155 154/154/154 153/153/153
f 156/156/156 154/154/154 155/155/155
