g fcbg_cityforest_factory_0003
v -7.0887046 0.7624228 -0.78846085
v -7.0887046 1.5467246 0.15872121
v -7.0887046 0.7624228 1.1059034
v -5.109475 0.7519196 -2.788897
v -4.0802927 1.5330853 -2.7882047
v -3.0511117 0.7519196 -2.7875123
v 3.1688857 -5.739644E-17 0.93735504
v -6.913105 -5.739644E-17 0.93735504
v -6.913105 0.7624228 0.93735504
v 3.1688857 0.7624228 0.93735504
v 3.1689749 5.010723E-16 -8.183131
v 3.1689749 0.7624228 -8.183131
v -6.913105 -5.9604645E-08 -0.615715
v -6.913105 0.76242274 -0.615715
v -6.913105 0.7624228 0.93735504
v -6.913105 -5.739644E-17 0.93735504
v -6.913105 -5.9604645E-08 -0.615715
v 1.4878806 0.7624228 -0.615715
v -6.913105 0.76242274 -0.615715
v 1.4878806 3.770167E-17 -0.615715
v 1.4879783 0.7624228 -8.184675
v 1.4879783 5.011668E-16 -8.184675
v 1.2708554 0.7624228 -0.78861123
v -7.0887046 1.5467246 0.15872121
v -7.0887046 0.7624228 -0.78846085
v 2.3041682 1.5467246 0.1586461
v 1.2702211 0.7624228 -8.44668
v -7.0887046 0.7624228 1.1059034
v 2.3038976 1.5467246 -8.44587
v 3.3374808 0.7624228 1.1059034
v 3.3375742 0.7624228 -8.445061
v -0.26884508 -0.003008604 -4.426382
v 1.7371293 -0.003008604 -4.426299
v 1.7371293 0.6482713 -4.426299
v -0.26884508 0.6482713 -4.426382
v -0.41107297 0.6482713 -4.611771
v 1.7381105 0.6482713 -4.612312
v -0.2726242 0.6482713 -2.9904273
v 1.7371233 -0.003008604 -2.990351
v -0.2726242 -0.003008604 -2.9904273
v 1.7371233 0.6482713 -2.990351
v 1.7381045 0.6482713 -2.84633
v -0.41568327 0.6482713 -2.8464096
v 2.060007 1.3182406 -3.7293208
v -0.41337812 1.3182406 -3.72909
v 1.7381105 0.6482713 -4.612312
v -0.41107297 0.6482713 -4.611771
v -3.217524 -0.018344939 -7.2407804
v 1.4716051 -0.018344939 -7.2407007
v 1.4716051 0.6004043 -7.2407007
v -3.217524 0.6004043 -7.2407804
v -3.2211146 0.6004043 -5.8765497
v 1.4715991 0.6004043 -5.8764772
v 1.4715991 -0.018344939 -5.8764772
v -3.2211146 -0.018344939 -5.8765497
v 1.4725373 0.6004043 -7.4174232
v -3.7300568 1.2369096 -6.5783167
v -3.2171245 0.6004043 -7.4169087
v 1.9461825 1.2369096 -6.578536
v -3.2215042 0.6004043 -5.739725
v 1.4725313 0.6004043 -5.7396493
v -0.26884508 0.6482713 -4.426382
v -0.2726242 -0.003008604 -2.9904273
v -0.26884508 -0.003008604 -4.426382
v -0.2726242 0.6482713 -2.9904273
v -0.41107297 0.6482713 -4.611771
v -0.41568327 0.6482713 -2.8464096
v -0.41337812 1.3182406 -3.72909
v -4.8933163 -0.0074549913 -2.9549615
v -4.8932195 -0.0074549913 -8.164021
v -4.8932195 0.7519196 -8.164021
v -4.8933163 0.7519196 -2.9549615
v -3.2190318 0.7519196 -2.9540884
v -3.218943 0.7519196 -8.164013
v -3.218943 -0.0074549913 -8.164013
v -3.2190318 -0.0074549913 -2.9540884
v -5.1101055 0.7519196 -8.165164
v -4.0802927 1.5330853 -2.7882047
v -5.109475 0.7519196 -2.788897
v -4.0805616 1.5330853 -8.165161
v -3.0511117 0.7519196 -2.7875123
v -3.0510182 0.7519196 -8.165157
v -4.8933163 0.7519196 -2.9549615
v -3.2190318 0.7519196 -2.9540884
v -3.2190318 -0.0074549913 -2.9540884
v -4.8933163 -0.0074549913 -2.9549615
vt 0.8988361 0.9629195
vt 0.9116617 0.9806807
vt 0.8988146 0.9975841
vt 0.8988146 0.9975841
vt 0.9116617 0.9806807
vt 0.8988361 0.9629195
vt 0.8775579 0.88647014
vt 0.994272 0.8862863
vt 0.99427927 0.8965717
vt 0.87756515 0.8965685
vt 0.994272 0.8862863
vt 0.99427927 0.8965717
vt 0.882724 0.9656758
vt 0.89609927 0.9656758
vt 0.8960851 0.994029
vt 0.882724 0.994029
vt 0.99426687 0.94502103
vt 0.8450655 0.93375677
vt 0.9942596 0.93385774
vt 0.84507275 0.94473314
vt 0.9942596 0.93385774
vt 0.99426687 0.94502103
vt 0.8753334 0.8988026
vt 0.9965954 0.91488683
vt 0.9966067 0.8988026
vt 0.8616357 0.9147922
vt 0.9966067 0.8988026
vt 0.9965838 0.9316694
vt 0.9965954 0.91488683
vt 0.8479382 0.93156606
vt 0.9965838 0.9316694
vt 0.954804 0.8346634
vt 0.9882079 0.8346634
vt 0.9882079 0.8432276
vt 0.954804 0.8432276
vt 0.95302886 0.84566855
vt 0.9882024 0.84566855
vt 0.954804 0.8432282
vt 0.9882079 0.8346634
vt 0.954804 0.8346634
vt 0.9882079 0.8432282
vt 0.9882024 0.84566855
vt 0.95302886 0.84566855
vt 0.9934922 0.86380386
vt 0.95302886 0.86380386
vt 0.988264 0.88103056
vt 0.95302886 0.88103056
vt 0.9882079 0.8346634
vt 0.87869126 0.8346634
vt 0.87869126 0.8432275
vt 0.9882079 0.8432281
vt 0.9882079 0.8432276
vt 0.87869126 0.8432281
vt 0.87869126 0.8346634
vt 0.9882079 0.8346634
vt 0.87869126 0.88102937
vt 0.9968726 0.8637872
vt 0.9882024 0.8810321
vt 0.8705241 0.8637872
vt 0.988264 0.8456701
vt 0.87869126 0.84566855
vt 0.8960851 0.994029
vt 0.882724 0.9656758
vt 0.882724 0.994029
vt 0.89609927 0.9656758
vt 0.8988146 0.9975841
vt 0.8988361 0.9629195
vt 0.9116617 0.9806807
vt 0.9150267 0.9510561
vt 0.9976972 0.9510561
vt 0.9976972 0.96113074
vt 0.9150267 0.96113074
vt 0.9150267 0.96113074
vt 0.9976972 0.96113074
vt 0.9976972 0.9510561
vt 0.9150267 0.9510561
vt 0.9976972 0.99823445
vt 0.9127721 0.98168015
vt 0.9127721 0.99823445
vt 0.9976972 0.98168015
vt 0.9127721 0.9636872
vt 0.9976972 0.9636872
vt 0.8960851 0.994029
vt 0.89609927 0.9656758
vt 0.882724 0.9656758
vt 0.882724 0.994029
vn -0.4029635 0.7049346 -0.5836847
vn -0.5878564 0.8089653 0
vn -0.40295845 0.7049349 0.5836877
vn -0.5588777 0.7361098 0.3818351
vn -0.00017479037 0.80518353 0.59302574
vn 0.5584766 0.73625773 0.38213646
vn 0.70710325 0 0.7071102
vn -0.70710677 0 0.70710677
vn -0.7071067 0 0.70710677
vn 0.70710325 0 0.7071102
vn 1 0 0
vn 1 0 0
vn -0.7071067 0 -0.70710677
vn -0.70710677 0 -0.70710677
vn -0.7071067 0 0.70710677
vn -0.70710677 0 0.70710677
vn -0.7071067 0 -0.70710677
vn -0.7071022 0 -0.70711136
vn -0.70710677 0 -0.70710677
vn -0.7071022 0 -0.70711136
vn -1 0 -1.2914802E-05
vn -1 0 -1.2914802E-05
vn -0.33139813 0.87194926 -0.3603882
vn -0.5878564 0.8089653 0
vn -0.4029635 0.7049346 -0.5836847
vn 0.15070182 0.9727597 0.17614664
vn -0.60452896 0.7965832 3.3639153E-05
vn -0.40295845 0.7049349 0.5836877
vn -0.00031858383 1 1.7421662E-05
vn 0.34910116 0.872598 0.3416156
vn 0.60452104 0.79658926 0
vn -0.7061611 0 -0.70805126
vn 4.136128E-05 0 -1
vn 2.9198158E-05 -0.7082818 -0.7059298
vn -0.30156246 -0.90423054 -0.30236962
vn -0.5426809 -0.26786968 -0.79607993
vn -0.00016637785 -0.07917696 -0.9968606
vn -0.30145705 -0.9048378 0.30065334
vn -3.7961956E-05 0 1
vn -0.70805 0 0.7061623
vn -2.678468E-05 -0.7086437 0.70556647
vn 3.2567274E-05 -0.07789099 0.9969619
vn -0.54497856 -0.26742795 0.7946576
vn -5.0937484E-05 1 -3.6449364E-05
vn -0.59303653 0.80517524 -0.0007034147
vn -0.00016637785 -0.07917696 -0.9968606
vn -0.5426809 -0.26786968 -0.79607993
vn 1.6982218E-05 0 -1
vn 1.6982218E-05 0 -1
vn 1.6982218E-05 0 -1
vn 1.6982218E-05 0 -1
vn -1.544506E-05 0 1
vn -1.544506E-05 0 1
vn -1.544506E-05 0 1
vn -1.544506E-05 0 1
vn -4.279878E-05 0.79659015 -0.6045198
vn -2.1562764E-05 0.9999994 0.0011623028
vn -4.279878E-05 0.79659015 -0.6045198
vn -2.1612906E-05 1 -2.2223638E-05
vn -0 0.7965905 0.6045192
vn -0 0.7965905 0.6045192
vn -0.30156246 -0.90423054 -0.30236962
vn -0.70805 0 0.7061623
vn -0.7061611 0 -0.70805126
vn -0.30145705 -0.9048378 0.30065334
vn -0.5426809 -0.26786968 -0.79607993
vn -0.54497856 -0.26742795 0.7946576
vn -0.59303653 0.80517524 -0.0007034147
vn -0.7072976 0 0.7069158
vn -1 0 -1.8582616E-05
vn -1 0 -1.8582616E-05
vn -0.7072976 0 0.7069158
vn 0.7069164 0 0.7072971
vn 1 0 1.7023607E-05
vn 1 0 1.7023607E-05
vn 0.7069164 0 0.7072971
vn -0.60451883 0.7965908 5.055836E-05
vn -0.00017479037 0.80518353 0.59302574
vn -0.5588777 0.7361098 0.3818351
vn -2.0268642E-05 1 2.5544807E-05
vn 0.5584766 0.73625773 0.38213646
vn 0.6045192 0.7965905 0
vn -0.7072976 0 0.7069158
vn 0.7069164 0 0.7072971
vn 0.7069164 0 0.7072971
vn -0.7072976 0 0.7069158
g fcbg_cityforest_factory_0003_0
f 3/3/3 2/2/2 1/1/1
f 6/6/6 5/5/5 4/4/4
f 9/9/9 8/8/8 7/7/7
f 10/10/10 9/9/9 7/7/7
f 7/7/7 11/11/11 10/10/10
f 11/11/11 12/12/12 10/10/10
f 15/15/15 14/14/14 13/13/13
f 16/16/16 15/15/15 13/13/13
f 19/19/19 18/18/18 17/17/17
f 18/18/18 20/20/20 17/17/17
f 18/18/18 21/21/21 20/20/20
f 21/21/21 22/22/22 20/20/20
f 25/25/25 24/24/24 23/23/23
f 24/24/24 26/26/26 23/23/23
f 23/23/23 26/26/26 27/27/27
f 26/26/26 24/24/24 28/28/28
f 26/26/26 29/29/29 27/27/27
f 30/30/30 26/26/26 28/28/28
f 29/29/29 26/26/26 30/30/30
f 31/31/31 29/29/29 30/30/30
f 34/34/34 33/33/33 32/32/32
f 35/35/35 34/34/34 32/32/32
f 35/35/35 36/36/36 34/34/34
f 36/36/36 37/37/37 34/34/34
f 40/40/40 39/39/39 38/38/38
f 39/39/39 41/41/41 38/38/38
f 41/41/41 42/42/42 38/38/38
f 42/42/42 43/43/43 38/38/38
f 42/42/42 44/44/44 43/43/43
f 44/44/44 45/45/45 43/43/43
f 45/45/45 44/44/44 46/46/46
f 47/47/47 45/45/45 46/46/46
f 50/50/50 49/49/49 48/48/48
f 51/51/51 50/50/50 48/48/48
f 54/54/54 53/53/53 52/52/52
f 55/55/55 54/54/54 52/52/52
f 58/58/58 57/57/57 56/56/56
f 57/57/57 59/59/59 56/56/56
f 59/59/59 57/57/57 60/60/60
f 61/61/61 59/59/59 60/60/60
f 64/64/64 63/63/63 62/62/62
f 63/63/63 65/65/65 62/62/62
f 62/62/62 65/65/65 66/66/66
f 65/65/65 67/67/67 66/66/66
f 67/67/67 68/68/68 66/66/66
f 71/71/71 70/70/70 69/69/69
f 72/72/72 71/71/71 69/69/69
f 75/75/75 74/74/74 73/73/73
f 76/76/76 75/75/75 73/73/73
f 79/79/79 78/78/78 77/77/77
f 78/78/78 80/80/80 77/77/77
f 80/80/80 78/78/78 81/81/81
f 82/82/82 80/80/80 81/81/81
f 85/85/85 84/84/84 83/83/83
f 86/86/86 85/85/85 83/83/83
