g fcbg_cityforest_007_fence_01
v 0.17903653 2.9355896 0.295043
v 0.6742537 2.9355896 -0.29504243
v 0.6742537 2.9355896 0.295043
v 0.17903653 2.9355896 -0.29504243
v 0.6742537 -0.0066198707 -0.29504243
v 0.6742537 -0.0066198707 0.295043
v 0.6742537 2.9355896 0.295043
v 0.17903653 -0.0066198707 -0.29504243
v 0.17903653 2.9355896 0.295043
v 0.17903653 -0.0066198707 0.295043
v 0.20742092 1.293805 0.16429925
v -0.6742543 1.293805 0.16429925
v -0.6742543 1.293805 -0.18029997
v 0.20742092 1.293805 -0.18029997
v -0.6742543 -4.7922134E-05 -0.18029997
v 0.20742092 -4.7922134E-05 -0.18029997
v -0.6742543 1.293805 0.16429925
v -0.6742543 -7.545948E-05 0.16429925
v -0.6742543 1.293805 0.16429925
v 0.20742092 1.293805 0.16429925
v 0.20742092 -7.545948E-05 0.16429925
v -0.6742543 -7.545948E-05 0.16429925
v -0.48667634 1.3732917 -0.03605771
v -0.5857445 1.2781652 -0.036852956
v -0.18554705 1.2781652 -0.036852956
v -0.18554705 1.3732917 -0.03605771
v -0.48667634 1.3732917 0.051942527
v -0.18554705 1.3732917 0.051942527
v 0.026507854 1.3732917 0.051942527
v 0.026507854 1.3732917 -0.03605771
v 0.12557608 1.2781652 -0.036852956
v -0.48667634 2.485574 -0.03605771
v -0.48667634 1.3732917 0.051942527
v -0.48667634 2.485574 0.051942527
v -0.48667634 1.3732917 -0.03605771
v -0.5857445 2.5763352 -0.0368495
v -0.18554705 2.5763352 -0.0368495
v -0.5857445 1.2781652 -0.036852956
v -0.5857445 1.2780654 0.05625266
v -0.5857445 2.5763352 0.056256115
v -0.18554705 2.485574 -0.03605771
v -0.18554705 2.5763078 0.056256115
v 0.12557608 2.5763352 0.056256115
v 0.026507854 2.485574 -0.03605771
v 0.12557608 2.5763352 -0.0368495
v 0.12557608 1.2780654 0.05625266
v 0.12557608 1.2781652 -0.036852956
v 0.026507854 1.3732917 -0.03605771
v 0.026507854 1.3732917 0.051942527
v 0.026507854 2.485574 0.051942527
v -0.5857445 2.5763352 0.056256115
v -0.48667634 1.3732917 0.051942527
v -0.5857445 1.2780654 0.05625266
v -0.48667634 2.485574 0.051942527
v -0.18554705 2.5763078 0.056256115
v -0.18554705 2.485574 0.051942527
v 0.026507854 2.485574 0.051942527
v 0.12557608 2.5763352 0.056256115
v 0.026507854 1.3732917 0.051942527
v 0.12557608 1.2780654 0.05625266
v -0.18554705 1.2780757 0.056345582
v -0.5857445 1.2780654 0.05625266
v -0.48667634 1.3732917 0.051942527
v -0.18554705 1.3732917 0.051942527
v 0.026507854 1.3732917 0.051942527
v 0.12557608 1.2780654 0.05625266
vt 0.63912845 0.09378216
vt 0.6543589 0.07867272
vt 0.6543589 0.09378216
vt 0.63912845 0.07867272
vt 0.6543589 0.001234961
vt 0.6703607 0.001234961
vt 0.6703607 0.07867272
vt 0.63912845 0.001234961
vt 0.6233233 0.07867272
vt 0.6233233 0.001234961
vt 0.7402815 0.04346274
vt 0.75956535 0.04346274
vt 0.75956535 0.034569494
vt 0.7402815 0.034569494
vt 0.75956535 0.0013105838
vt 0.7402815 0.0013105838
vt 0.768141 0.034569494
vt 0.768141 0.0013105838
vt 0.75956535 0.034569494
vt 0.7402815 0.034569494
vt 0.7402815 0.0013105838
vt 0.75956535 0.0013105838
vt 0.004335496 0.01890045
vt 0.004335496 0.011096175
vt 0.012744753 0.011096175
vt 0.012744753 0.01890045
vt 0.004335496 0.027808817
vt 0.012744753 0.027808817
vt 0.004335496 0.027808817
vt 0.004335496 0.01890045
vt 0.004335496 0.011096175
vt 0.004335496 0.011096175
vt 0.037065048 0.003034784
vt 0.004335496 0.003034784
vt 0.037065048 0.011096175
vt 0.004335496 0.01890045
vt 0.012744753 0.01890045
vt 0.037065048 0.01890045
vt 0.037065048 0.027808817
vt 0.004335496 0.027808817
vt 0.012744753 0.011096175
vt 0.012744753 0.027808817
vt 0.004335496 0.027808817
vt 0.004335496 0.011096175
vt 0.004335496 0.01890045
vt 0.037065048 0.027808817
vt 0.037065048 0.01890045
vt 0.037065048 0.011096175
vt 0.037065048 0.003034784
vt 0.004335496 0.003034784
vt 0.004335496 0.01890045
vt 0.037065048 0.011096175
vt 0.037065048 0.01890045
vt 0.004335496 0.011096175
vt 0.012744753 0.01890045
vt 0.012744753 0.011096175
vt 0.004335496 0.011096175
vt 0.004335496 0.01890045
vt 0.037065048 0.011096175
vt 0.037065048 0.01890045
vt 0.012744753 0.011096175
vt 0.004335496 0.011096175
vt 0.004335496 0.01890045
vt 0.012744753 0.01890045
vt 0.004335496 0.01890045
vt 0.004335496 0.011096175
vn -0.70674455 0.70674455 -0.03200431
vn 0.5777123 0.5777123 -0.5766255
vn 0.70674455 0.70674455 -0.03200431
vn -0.5777123 0.5777123 -0.5766255
vn 0.70674455 0.0009775162 -0.70746815
vn 0.9999995 0.0009775162 -0
vn 0.70674455 0.70674455 -0.03200431
vn -0.70674455 0.0009775162 -0.70746815
vn -0.70674455 0.70674455 -0.03200431
vn -0.9999995 0.0009775162 -0
vn -0.0009775162 0.70674455 0.70746815
vn -0.5777123 0.5777123 0.5766255
vn -0.5777123 0.5777123 -0.5766255
vn -0.0009775162 0.70674455 -0.70746815
vn -0.70674455 0.0009775162 -0.70746815
vn -0.0009775162 0.0009775162 -0.99999905
vn -0.5777123 0.5777123 0.5766255
vn -0.70674455 0.0009775162 0.70746815
vn -0.5777123 0.5777123 0.5766255
vn -0.0009775162 0.70674455 0.70746815
vn -0.0009775162 0.0009775162 0.99999905
vn -0.70674455 0.0009775162 0.70746815
vn 0.30400765 0.30400765 -0.9028614
vn -0.70674455 0.0029325485 -0.7074627
vn -0.0009775162 0.008797646 -0.9999608
vn -0.0009775162 0.7106546 -0.7035404
vn 0.31769294 0.3196479 0.8926906
vn 0.0009775162 0.7223848 0.6914906
vn -0.31769288 0.3196479 0.8926906
vn -0.30400765 0.30400765 -0.9028614
vn 0.70674455 0.0029325485 -0.7074627
vn 0.31964797 -0.004887581 -0.9475238
vn 0.31769294 0.3196479 0.8926906
vn 0.33528823 -0.022482872 0.94184726
vn 0.30400765 0.30400765 -0.9028614
vn -0.57575727 0.57575727 -0.5805232
vn -0.0009775162 0.7047895 -0.7094158
vn -0.70674455 0.0029325485 -0.7074627
vn -0.6989244 0.016617775 0.7150025
vn -0.5718472 0.57380223 0.586295
vn -0.0009775162 -0.008797646 -0.9999608
vn -0.0009775162 0.68914926 0.72461873
vn 0.5718472 0.57380223 0.586295
vn -0.3196479 -0.004887581 -0.9475238
vn 0.57575727 0.57575727 -0.5805232
vn 0.6989244 0.016617775 0.7150025
vn 0.70674455 0.0029325485 -0.7074627
vn -0.30400765 0.30400765 -0.9028614
vn -0.31769288 0.3196479 0.8926906
vn -0.33528817 -0.022482872 0.94184726
vn -0.5718472 0.57380223 0.586295
vn 0.31769294 0.3196479 0.8926906
vn -0.6989244 0.016617775 0.7150025
vn 0.33528823 -0.022482872 0.94184726
vn -0.0009775162 0.68914926 0.72461873
vn -0.0009775162 -0.047898293 0.9988517
vn -0.33528817 -0.022482872 0.94184726
vn 0.5718472 0.57380223 0.586295
vn -0.31769288 0.3196479 0.8926906
vn 0.6989244 0.016617775 0.7150025
vn 0.0009775162 0.04594326 0.99894357
vn -0.6989244 0.016617775 0.7150025
vn 0.31769294 0.3196479 0.8926906
vn 0.0009775162 0.7223848 0.6914906
vn -0.31769288 0.3196479 0.8926906
vn 0.6989244 0.016617775 0.7150025
g fcbg_cityforest_007_fence_01_0
f 3/3/3 2/2/2 1/1/1
f 2/2/2 4/4/4 1/1/1
f 4/4/4 2/2/2 5/5/5
f 5/5/5 2/2/2 6/6/6
f 2/2/2 7/7/7 6/6/6
f 8/8/8 4/4/4 5/5/5
f 9/9/9 4/4/4 8/8/8
f 10/10/10 9/9/9 8/8/8
f 13/13/13 12/12/12 11/11/11
f 14/14/14 13/13/13 11/11/11
f 13/13/13 14/14/14 15/15/15
f 14/14/14 16/16/16 15/15/15
f 13/13/13 15/15/15 17/17/17
f 15/15/15 18/18/18 17/17/17
f 21/21/21 20/20/20 19/19/19
f 22/22/22 21/21/21 19/19/19
f 25/25/25 24/24/24 23/23/23
f 26/26/26 25/25/25 23/23/23
f 26/26/26 23/23/23 27/27/27
f 28/28/28 26/26/26 27/27/27
f 28/28/28 29/29/29 26/26/26
f 29/29/29 30/30/30 26/26/26
f 26/26/26 30/30/30 25/25/25
f 30/30/30 31/31/31 25/25/25
f 34/34/34 33/33/33 32/32/32
f 33/33/33 35/35/35 32/32/32
f 32/32/32 35/35/35 36/36/36
f 32/32/32 36/36/36 37/37/37
f 35/35/35 38/38/38 36/36/36
f 38/38/38 39/39/39 36/36/36
f 39/39/39 40/40/40 36/36/36
f 36/36/36 40/40/40 37/37/37
f 41/41/41 32/32/32 37/37/37
f 40/40/40 42/42/42 37/37/37
f 37/37/37 42/42/42 43/43/43
f 44/44/44 41/41/41 37/37/37
f 45/45/45 37/37/37 43/43/43
f 45/45/45 44/44/44 37/37/37
f 43/43/43 46/46/46 45/45/45
f 46/46/46 47/47/47 45/45/45
f 47/47/47 48/48/48 45/45/45
f 48/48/48 44/44/44 45/45/45
f 48/48/48 49/49/49 44/44/44
f 49/49/49 50/50/50 44/44/44
f 53/53/53 52/52/52 51/51/51
f 52/52/52 54/54/54 51/51/51
f 51/51/51 54/54/54 55/55/55
f 54/54/54 56/56/56 55/55/55
f 55/55/55 56/56/56 57/57/57
f 58/58/58 55/55/55 57/57/57
f 57/57/57 59/59/59 58/58/58
f 59/59/59 60/60/60 58/58/58
f 63/63/63 62/62/62 61/61/61
f 64/64/64 63/63/63 61/61/61
f 64/64/64 61/61/61 65/65/65
f 61/61/61 66/66/66 65/65/65
