g fcbg_cityforest_005_building_07
v -0.82181674 1.015287 0.3207096
v -0.7991569 1.1682249 0.36726138
v -0.6878234 0.9470378 0.4296174
v 1.2767594 -9.037241E-08 -1.0337389
v -1.2767591 1.2152951 -1.0337393
v -1.2767591 -9.037227E-08 -1.0337393
v 1.2767594 1.2152951 -1.0337389
v 1.2767591 1.2152951 1.0410635
v 1.2767591 9.1012566E-08 1.0410635
v -1.1832274 1.2152917 -0.93007404
v 1.1832243 1.2152951 -0.9300737
v 1.2767591 1.2152951 1.0410635
v -1.1832241 1.1263933 -0.93007404
v 1.1832241 1.2152951 0.93739796
v -1.2717838 1.2152951 1.0257432
v -1.2767591 1.0747072 -0.93211085
v -1.2767591 -9.037227E-08 -1.0337393
v -1.2767593 0.9197296 -0.10095705
v -1.2767593 1.9828136E-08 0.22680645
v -1.1832259 0.96014225 -0.08381185
v -1.2767593 1.1177994 0.15346153
v -1.2767593 1.2152951 0.22680633
v 1.1832243 1.1263933 -0.9300737
v -1.1832243 1.2152951 0.9373976
v -1.1832242 1.1263933 0.18171239
v -0.6926755 1.0392351 0.027734652
v 1.1832241 1.1263933 0.93739796
v -1.1832243 1.1263933 0.9373976
v -1.2767593 1.2152951 0.22680633
v -1.9133424 1.9828175E-08 0.22680636
v -1.2767593 1.9828136E-08 0.22680645
v -1.9133424 1.5596815 0.22680621
v -1.9133425 9.101275E-08 1.0410631
v -1.9133425 1.5596815 1.0410628
v -1.6439575 1.5363015 0.57048345
v -1.2717838 1.2152951 1.0257432
v -1.3107128 1.2288357 0.2739611
v -1.2767593 1.2152951 0.22680633
v 1.2767591 9.1012566E-08 1.0410635
v -1.2717838 8.967341E-08 1.0257432
v -1.2717838 1.2152951 1.0257432
v 1.2767591 1.2152951 1.0410635
v -1.9133425 9.101275E-08 1.0410631
v -1.9133425 1.5596815 1.0410628
v -1.2717838 1.2152951 1.0257432
v -1.2717838 8.967341E-08 1.0257432
v -0.67515236 0.9325409 0.3897834
v -0.25453088 0.95983386 0.64517915
v -0.25554353 1.4280429 0.4769037
v -0.6793252 1.3389722 0.24163444
v -0.8247393 1.0032766 0.2701549
v -1.2514808 1.5499572 0.8313107
v -1.2486267 1.2440996 0.94261897
v -0.67948323 1.6687957 1.1493602
v -0.6869107 1.344089 1.2609354
v -0.25453088 0.95983386 0.64517915
v -0.6869107 1.344089 1.2609354
v -1.2486267 1.2440996 0.94261897
vt 0.1542446 0.07986653
vt 0.15151419 0.08269675
vt 0.14796636 0.07986653
vt 0.2659224 0.002057064
vt 0.34654585 0.045126177
vt 0.34654585 0.002057064
vt 0.2659224 0.045126177
vt 0.18325904 0.045126177
vt 0.18325904 0.002057064
vt 0.3440182 0.049771383
vt 0.27192697 0.04960294
vt 0.2659224 0.107772976
vt 0.3465698 0.05253227
vt 0.27192697 0.104723334
vt 0.34907344 0.107772976
vt 0.34907344 0.05246287
vt 0.38595113 0.044863395
vt 0.35215655 0.074176006
vt 0.3862013 0.0832804
vt 0.34965298 0.07493798
vt 0.34907344 0.081116505
vt 0.34907344 0.0832804
vt 0.27568886 0.05253227
vt 0.34614214 0.104723334
vt 0.3465698 0.08196789
vt 0.33076873 0.07796215
vt 0.27568886 0.10197556
vt 0.3465698 0.10197556
vt 0.22842437 0.09617719
vt 0.18362409 0.07396028
vt 0.18362409 0.09617719
vt 0.23909006 0.073959135
vt 0.18362409 0.048119575
vt 0.23909006 0.048120722
vt 0.24857642 0.061307687
vt 0.26277396 0.048121892
vt 0.26170966 0.07244733
vt 0.26277396 0.073957965
vt 0.2659224 0.002057064
vt 0.34654585 0.002057064
vt 0.34654585 0.045126177
vt 0.2659224 0.045126177
vt 0.18362409 0.07396028
vt 0.23901641 0.07396028
vt 0.22842437 0.09617719
vt 0.18362409 0.09617719
vt 0.77399904 0.9810888
vt 0.77713364 0.96683794
vt 0.7623667 0.96683794
vt 0.7623667 0.98050344
vt 0.77157986 0.99350864
vt 0.73277694 0.9861515
vt 0.72945243 0.99882835
vt 0.73277694 0.96683794
vt 0.73277694 0.9462349
vt 0.7623667 0.9462349
vt 0.72382647 0.96683794
vt 0.72382647 0.98826534
vn -0.6635851 -0.12613061 0.7373912
vn -0.6635851 -0.12613063 0.7373912
vn -0.6635852 -0.12613063 0.7373912
vn 0.7071068 0 -0.70710665
vn -0.67185444 0.63857335 -0.37528077
vn -0.70710653 0 -0.70710695
vn 0.57735187 0.57735205 -0.5773469
vn 0.5757695 0.57703483 0.5792412
vn 0.70497817 0 0.709229
vn -0.31680524 0.62606245 0.7125169
vn -0.30151105 0.9045321 0.3015175
vn 0.5757695 0.57703483 0.5792412
vn -0.3516396 0.6532647 0.6705184
vn -0.30151132 0.90453404 -0.3015114
vn 0.19322754 0.5939742 0.7809339
vn -0.90192676 0.3761947 0.21214524
vn -0.70710653 0 -0.70710695
vn -0.8905483 0.4487966 -0.07419769
vn -0.7071065 0 -0.70710707
vn -0.19951943 0.95826143 -0.20476092
vn -0.727425 0.5062804 -0.46317708
vn 0.3327145 0.6782648 -0.6551779
vn -0.58451414 0.56575865 0.5816015
vn 0.3011573 0.90374273 -0.30422562
vn 0.21425363 0.89842236 -0.3833181
vn -0.015510571 0.99951565 -0.026979797
vn -0.5847066 0.5656022 -0.58156025
vn 0.5861443 0.5536739 -0.59150654
vn 0.3327145 0.6782648 -0.6551779
vn -0.70710665 0 -0.7071069
vn -0.7071065 0 -0.70710707
vn -0.46685007 0.6553758 -0.5937454
vn -0.69861573 0 0.7154971
vn -0.45584705 0.6565204 0.6009862
vn 0.4044461 0.91416925 -0.026796887
vn 0.19322754 0.5939742 0.7809339
vn 0.5703967 0.8083609 -0.14560293
vn 0.3327145 0.6782648 -0.6551779
vn 0.70497817 0 0.709229
vn 0.008931406 0 0.9999602
vn 0.19322754 0.5939742 0.7809339
vn 0.5757695 0.57703483 0.5792412
vn -0.69861573 0 0.7154971
vn -0.45584705 0.6565204 0.6009862
vn 0.19322754 0.5939742 0.7809339
vn 0.008931406 0 0.9999602
vn 0.5103945 -0.28987268 -0.8096118
vn 0.9645113 -0.094782434 -0.24644317
vn 0.7913221 0.47596377 -0.38375497
vn 0.018614104 0.3876483 -0.9216195
vn -0.12343352 -0.10910803 -0.98633647
vn -0.79456896 0.60657585 -0.026940174
vn -0.9665305 0.07972324 0.2438503
vn 0.2042319 0.8106749 0.5487216
vn 0.29500467 0.31588322 0.9017705
vn 0.9645113 -0.094782434 -0.24644317
vn 0.29500467 0.31588322 0.9017705
vn -0.9665305 0.07972324 0.2438503
g fcbg_cityforest_005_building_07_0
f 3/3/3 2/2/2 1/1/1
f 6/6/6 5/5/5 4/4/4
f 5/5/5 7/7/7 4/4/4
f 7/7/7 8/8/8 4/4/4
f 8/8/8 9/9/9 4/4/4
f 5/5/5 10/10/10 7/7/7
f 10/10/10 11/11/11 7/7/7
f 7/7/7 11/11/11 12/12/12
f 5/5/5 13/13/13 10/10/10
f 10/10/10 13/13/13 11/11/11
f 11/11/11 14/14/14 12/12/12
f 12/12/12 14/14/14 15/15/15
f 16/16/16 13/13/13 5/5/5
f 17/17/17 16/16/16 5/5/5
f 18/18/18 16/16/16 17/17/17
f 19/19/19 18/18/18 17/17/17
f 18/18/18 20/20/20 16/16/16
f 20/20/20 13/13/13 16/16/16
f 21/21/21 18/18/18 19/19/19
f 20/20/20 18/18/18 21/21/21
f 22/22/22 21/21/21 19/19/19
f 13/13/13 23/23/23 11/11/11
f 11/11/11 23/23/23 14/14/14
f 15/15/15 24/24/24 22/22/22
f 14/14/14 24/24/24 15/15/15
f 22/22/22 25/25/25 21/21/21
f 25/25/25 20/20/20 21/21/21
f 24/24/24 25/25/25 22/22/22
f 26/26/26 13/13/13 20/20/20
f 23/23/23 13/13/13 26/26/26
f 20/20/20 25/25/25 26/26/26
f 23/23/23 27/27/27 14/14/14
f 14/14/14 27/27/27 24/24/24
f 27/27/27 23/23/23 26/26/26
f 28/28/28 25/25/25 24/24/24
f 25/25/25 28/28/28 26/26/26
f 27/27/27 28/28/28 24/24/24
f 28/28/28 27/27/27 26/26/26
f 31/31/31 30/30/30 29/29/29
f 30/30/30 32/32/32 29/29/29
f 32/32/32 30/30/30 33/33/33
f 34/34/34 32/32/32 33/33/33
f 34/34/34 35/35/35 32/32/32
f 36/36/36 35/35/35 34/34/34
f 35/35/35 37/37/37 32/32/32
f 37/37/37 35/35/35 36/36/36
f 37/37/37 38/38/38 32/32/32
f 38/38/38 37/37/37 36/36/36
f 41/41/41 40/40/40 39/39/39
f 42/42/42 41/41/41 39/39/39
f 45/45/45 44/44/44 43/43/43
f 46/46/46 45/45/45 43/43/43
f 49/49/49 48/48/48 47/47/47
f 50/50/50 49/49/49 47/47/47
f 51/51/51 50/50/50 47/47/47
f 51/51/51 52/52/52 50/50/50
f 52/52/52 51/51/51 53/53/53
f 54/54/54 49/49/49 50/50/50
f 52/52/52 54/54/54 50/50/50
f 49/49/49 54/54/54 55/55/55
f 56/56/56 49/49/49 55/55/55
f 54/54/54 52/52/52 57/57/57
f 52/52/52 58/58/58 57/57/57
