g fcbg_wasteland_002_trafficlights_01
v -2.1750069 6.102718 -0.20660692
v -2.1750069 6.102718 0.21403395
v -2.1682777 6.28175 0.21403395
v -2.1682777 6.28175 -0.20660688
v -3.2438889 6.142888 -0.3404625
v -2.1750069 6.102718 -0.20660692
v -2.1682777 6.28175 -0.20660688
v -3.2371597 6.321921 -0.34046245
v -3.4571552 6.150902 -0.27695966
v -3.4504204 6.3299356 -0.27695984
v -3.6054783 6.1564775 -0.12799698
v -3.598753 6.33551 -0.12799698
v -3.6203804 6.1570373 0.069568805
v -3.6136494 6.336069 0.0695688
v -3.2371597 6.321921 0.3478896
v -2.1682777 6.28175 0.21403395
v -2.1750069 6.102718 0.21403395
v -3.2438889 6.142888 0.34788954
v -3.4504204 6.3299356 0.2843868
v -3.4571552 6.150903 0.28438675
v -3.6136494 6.336069 0.0695688
v -3.6203804 6.1570373 0.069568805
v -2.205967 6.3192124 -0.19230503
v -2.205967 6.3192124 0.179649
v -2.2037334 6.378607 0.18969058
v -2.2037334 6.378606 -0.18226346
v -3.1896496 6.4816747 0.30805308
v -2.205967 6.3192124 0.179649
v -3.1914845 6.3564305 0.2879824
v -3.378231 6.4887614 0.25190043
v -3.3849564 6.3694553 0.25190058
v -3.5225582 6.494185 0.06194645
v -3.5222359 6.3707795 0.05938617
v -3.5093899 6.49369 -0.1127522
v -3.516119 6.3743854 -0.112752244
v -3.378231 6.4887614 -0.24447346
v -3.3768406 6.363397 -0.22810574
v -3.1896496 6.4816747 -0.30062604
v -3.196375 6.36237 -0.30062592
v -2.205967 6.3192124 -0.19230503
v -2.1682777 6.28175 0.21403395
v -3.1914845 6.3564305 0.2879824
v -2.205967 6.3192124 0.179649
v -3.2371597 6.321921 0.3478896
v -3.3849564 6.3694553 0.25190058
v -3.4504204 6.3299356 0.2843868
v -3.5222359 6.3707795 0.05938617
v -3.6136494 6.336069 0.0695688
v -2.1682777 6.28175 -0.20660688
v -2.1682777 6.28175 0.21403395
v -2.205967 6.3192124 0.179649
v -2.205967 6.3192124 -0.19230503
v -2.1682777 6.28175 -0.20660688
v -2.205967 6.3192124 -0.19230503
v -3.196375 6.36237 -0.30062592
v -3.2371597 6.321921 -0.34046245
v -3.3768406 6.363397 -0.22810574
v -3.4504204 6.3299356 -0.27695984
v -3.516119 6.3743854 -0.112752244
v -3.598753 6.33551 -0.12799698
v -3.6136494 6.336069 0.0695688
v -3.5222359 6.3707795 0.05938617
v -2.2037334 6.378607 0.18969058
v -3.1896496 6.4816747 -0.30062604
v -2.2037334 6.378606 -0.18226346
v -3.1896496 6.4816747 0.30805308
v -3.378231 6.4887614 -0.24447346
v -3.378231 6.4887614 0.25190043
v -3.5093899 6.49369 -0.1127522
v -3.5225582 6.494185 0.06194645
v -2.178152 6.271267 -0.10314331
v -2.1837368 6.1207857 -0.103231184
v -1.425415 5.986603 -0.09750122
v -1.379736 6.122975 -0.09951436
v -0.6410141 5.6103797 -0.09926756
v -0.73428345 5.506046 -0.0977495
v -0.0639801 4.813121 -0.1006568
v -0.19267654 4.7479124 -0.09644647
v -0.21357346 4.3658476 -0.103191875
v -0.06745529 4.3248744 -0.10354548
v -1.379736 6.122975 0.09680276
v -2.1837368 6.1207857 0.10051947
v -2.1781464 6.271268 0.10043172
v -1.425415 5.986603 0.09478961
v -0.734272 5.5060453 0.09503765
v -0.6410141 5.6103797 0.09655574
v -0.19267654 4.7479124 0.09373426
v -0.0639801 4.813121 0.09794455
v -0.06745529 4.3248754 0.100833036
v -0.21357346 4.3658476 0.100479424
v -2.1837368 6.1207857 0.10051947
v -1.425415 5.986603 -0.09750122
v -2.1837368 6.1207857 -0.103231184
v -1.425415 5.986603 0.09478961
v -0.73428345 5.506046 -0.0977495
v -0.734272 5.5060453 0.09503765
v -0.734272 5.5060453 0.09503765
v -0.19267654 4.7479124 -0.09644647
v -0.19267654 4.7479124 0.09373426
v -1.379736 6.122975 0.09680276
v -2.1781464 6.271268 0.10043172
v -2.178152 6.271267 -0.10314331
v -1.379736 6.122975 -0.09951436
v -0.6410141 5.6103797 0.09655574
v -0.6410141 5.6103797 -0.09926756
v -0.6410141 5.6103797 -0.09926756
v -0.0639801 4.813121 0.09794455
v -0.0639801 4.813121 -0.1006568
v 0.08724594 0.29280445 -0.18086657
v 0.18959808 0.29280445 -0.0048238114
v 0.09579849 6.4066515 -0.004593471
v 0.040489197 6.4066515 -0.099722706
v -0.116378784 0.29280445 -0.18024802
v -0.069545746 6.4066515 -0.09938799
v -0.21766663 0.29280445 -0.0035924613
v -0.12427521 6.4066515 -0.003928341
v -0.11531448 0.29280445 0.1724503
v -0.06896973 6.4066515 0.091200165
v 0.088321686 0.29280445 0.17183463
v 0.04106903 6.4066515 0.090866886
v 0.18959808 0.29280445 -0.0048238114
v 0.09579849 6.4066515 -0.004593471
v -0.19267654 4.7479124 -0.09644647
v -0.19267654 4.7479124 0.09373426
v -0.21357346 4.3658476 0.100479424
v -0.21357346 4.3658476 -0.103191875
v -0.06745529 4.3248744 -0.10354548
v -0.21357346 4.3658476 -0.103191875
v -0.21357346 4.3658476 0.100479424
v -0.06745529 4.3248754 0.100833036
v -0.38345337 0.30580324 0.36509532
v -0.38345718 0.0050369045 0.36509532
v -0.38351822 0.0050370255 -0.37367284
v -0.38348007 0.30580336 -0.3736729
v -0.38348007 0.30580336 -0.3736729
v -0.38351822 0.0050370255 -0.37367284
v 0.35530853 0.0050370255 -0.37367284
v 0.35530853 0.30580336 -0.3736729
v 0.35530853 0.30580336 -0.3736729
v 0.35530853 0.0050370255 -0.37367284
v 0.35536575 0.0050369045 0.36509538
v 0.35536957 0.30580324 0.36509532
v 0.35536957 0.30580324 0.36509532
v 0.35536575 0.0050369045 0.36509538
v -0.38345718 0.0050369045 0.36509532
v -0.38345337 0.30580324 0.36509532
v 0.35536957 0.30580324 0.36509532
v -0.38345337 0.30580324 0.36509532
v -0.38348007 0.30580336 -0.3736729
v 0.35530853 0.30580336 -0.3736729
v 0.04106903 6.4066515 0.090866886
v 0.19730377 6.54833 -0.0049654488
v 0.09579849 6.4066515 -0.004593471
v 0.09196091 6.54833 0.17876428
v -0.06896973 6.4066515 0.091200165
v -0.11981964 6.54833 0.17940575
v -0.12427521 6.4066515 -0.003928341
v -0.22626877 6.54833 -0.0036846455
v -0.069545746 6.4066515 -0.09938799
v -0.12092972 6.54833 -0.18741438
v 0.040489197 6.4066515 -0.099722706
v 0.090862274 6.54833 -0.18805371
v 0.09579849 6.4066515 -0.004593471
v 0.19730377 6.54833 -0.0049654488
v -0.12092972 6.6278315 -0.18741438
v 0.090862274 6.6278315 -0.18805371
v 0.19730377 6.6278315 -0.004965445
v -0.22626877 6.6278315 -0.0036846418
v 0.090862274 6.54833 -0.18805371
v 0.090862274 6.6278315 -0.18805371
v 0.19730377 6.54833 -0.0049654488
v 0.19730377 6.6278315 -0.004965445
v -0.12092972 6.54833 -0.18741438
v -0.22626877 6.6278315 -0.0036846418
v -0.22626877 6.54833 -0.0036846455
v -0.11981964 6.6278315 0.17940575
v -0.11981964 6.54833 0.17940575
v 0.09196091 6.6278315 0.17876428
v 0.09196091 6.54833 0.17876428
v 0.19730377 6.6278315 -0.004965445
v 0.19730377 6.54833 -0.0049654488
v -3.2438889 6.142888 0.34788954
v -2.1750069 6.102718 0.21403395
v -2.1750069 6.102718 -0.20660692
v -3.2438889 6.142888 -0.3404625
v -3.4571552 6.150903 0.28438675
v -3.4571552 6.150902 -0.27695966
v -3.6203804 6.1570373 0.069568805
v -3.6054783 6.1564775 -0.12799698
v -0.11981964 6.6278315 0.17940575
v -0.22626877 6.6278315 -0.0036846418
v 0.19730377 6.6278315 -0.004965445
v 0.09196091 6.6278315 0.17876428
vt 0.08229013 0.9464059
vt 0.0704822 0.9464059
vt 0.070483156 0.94137526
vt 0.08229013 0.9413767
vt 0.021775674 0.9267044
vt 0.021775644 0.8968594
vt 0.016589683 0.8968594
vt 0.016589712 0.9267044
vt 0.021775674 0.9331788
vt 0.016589705 0.9331789
vt 0.021775674 0.93949234
vt 0.016589705 0.9394922
vt 0.02177566 0.945645
vt 0.01658969 0.9456451
vt 0.016589712 0.9267044
vt 0.016589683 0.8968594
vt 0.021775644 0.8968594
vt 0.021775674 0.9267044
vt 0.016589705 0.9331789
vt 0.021775674 0.9331788
vt 0.016589705 0.9394922
vt 0.021775674 0.93949234
vt 0.08162029 0.9398849
vt 0.07117886 0.9398849
vt 0.0711785 0.9382163
vt 0.08162005 0.9382163
vt 0.067855895 0.9102768
vt 0.069521375 0.93855834
vt 0.06443077 0.9102768
vt 0.06943232 0.9051033
vt 0.06684226 0.90326583
vt 0.0742262 0.9012424
vt 0.07315034 0.89825726
vt 0.079129644 0.9012424
vt 0.08022661 0.89825726
vt 0.08336658 0.90510297
vt 0.08624334 0.90326583
vt 0.084942885 0.9102768
vt 0.0881905 0.9102768
vt 0.08327837 0.938493
vt 0.016589683 0.8968594
vt 0.01372961 0.9267044
vt 0.013729576 0.8968594
vt 0.016589712 0.9267044
vt 0.013729591 0.9331789
vt 0.016589705 0.9331789
vt 0.013729598 0.9394922
vt 0.016589705 0.9394922
vt 0.08229013 0.9413767
vt 0.070483156 0.94137526
vt 0.07117886 0.9398849
vt 0.08162029 0.9398849
vt 0.016589683 0.8968594
vt 0.013729576 0.8968594
vt 0.01372961 0.9267044
vt 0.016589712 0.9267044
vt 0.013729591 0.9331789
vt 0.016589705 0.9331789
vt 0.013729598 0.9394922
vt 0.016589705 0.9394922
vt 0.01658969 0.9456451
vt 0.013729576 0.9456451
vt 0.0711785 0.9382163
vt 0.084942885 0.9102768
vt 0.08162005 0.9382163
vt 0.067855895 0.9102768
vt 0.08336658 0.90510297
vt 0.06943232 0.9051033
vt 0.079129644 0.9012424
vt 0.0742262 0.9012424
vt 0.03075957 0.80327594
vt 0.036746252 0.80327594
vt 0.03734683 0.83376014
vt 0.03174853 0.8335601
vt 0.032916296 0.86710703
vt 0.038027514 0.86725533
vt 0.032566275 0.9032196
vt 0.038241852 0.9038955
vt 0.03906392 0.91764843
vt 0.033140678 0.9176705
vt 0.03174853 0.8335601
vt 0.036746252 0.80327594
vt 0.03075957 0.80327594
vt 0.03734683 0.83376014
vt 0.038027514 0.86725533
vt 0.032916296 0.86710703
vt 0.038241852 0.9038955
vt 0.032566275 0.9032196
vt 0.033140678 0.9176705
vt 0.03906392 0.91764843
vt 0.04389881 0.80327594
vt 0.03734683 0.83376014
vt 0.036746252 0.80327594
vt 0.044960845 0.8335699
vt 0.038027514 0.86725533
vt 0.04502069 0.86711407
vt 0.04502069 0.86711407
vt 0.038241852 0.9038955
vt 0.04580461 0.9035237
vt 0.023389425 0.83394647
vt 0.022620674 0.80327594
vt 0.03075957 0.80327594
vt 0.03174853 0.8335601
vt 0.024526592 0.8671818
vt 0.032916296 0.86710703
vt 0.032916296 0.86710703
vt 0.024840709 0.90331936
vt 0.032566275 0.9032196
vt 0.058563586 0.8012725
vt 0.0640949 0.8013456
vt 0.060625788 0.96741605
vt 0.057636734 0.9673766
vt 0.053032275 0.8012842
vt 0.054648157 0.9673829
vt 0.04750133 0.8013804
vt 0.05165946 0.9674349
vt 0.053032275 0.8012842
vt 0.054648157 0.9673829
vt 0.058563586 0.8012725
vt 0.057636734 0.9673766
vt 0.0640949 0.8013456
vt 0.060625788 0.96741605
vt 0.038241852 0.9038955
vt 0.04580461 0.9035237
vt 0.04510473 0.9176781
vt 0.03906392 0.91764843
vt 0.039031137 0.9221493
vt 0.03906392 0.91764843
vt 0.04510473 0.9176781
vt 0.045093168 0.9221791
vt 0.06921182 0.95487463
vt 0.06921182 0.9505371
vt 0.07986567 0.9505371
vt 0.07986603 0.9548749
vt 0.06921182 0.95487463
vt 0.06487356 0.95487475
vt 0.06487428 0.9655297
vt 0.06921206 0.9655298
vt 0.07986603 0.95487463
vt 0.07986603 0.95053697
vt 0.06921182 0.95053697
vt 0.06921182 0.95487463
vt 0.06921146 0.9655299
vt 0.06487356 0.9655297
vt 0.06487392 0.9548745
vt 0.06921182 0.95487463
vt 0.06921146 0.9655299
vt 0.06921182 0.95487463
vt 0.07986603 0.9548749
vt 0.07986567 0.9655299
vt 0.057197686 0.96976674
vt 0.06265211 0.97094023
vt 0.059397694 0.96828854
vt 0.05841803 0.97378516
vt 0.054547425 0.9697672
vt 0.053316828 0.97378623
vt 0.052348133 0.9682878
vt 0.04908443 0.9709388
vt 0.054547425 0.9697672
vt 0.053316828 0.97378623
vt 0.057197686 0.96976674
vt 0.05841803 0.97378516
vt 0.059397694 0.96828854
vt 0.06265211 0.97094023
vt 0.05278265 0.975538
vt 0.05898535 0.97561944
vt 0.062073942 0.9809692
vt 0.049718622 0.9809693
vt 0.05841803 0.97378516
vt 0.058952328 0.9755374
vt 0.06265211 0.97094023
vt 0.06372023 0.97252965
vt 0.053316828 0.97378623
vt 0.04801536 0.9725276
vt 0.04908443 0.9709388
vt 0.05278265 0.975538
vt 0.053316828 0.97378623
vt 0.058952328 0.9755374
vt 0.05841803 0.97378516
vt 0.06372023 0.97252965
vt 0.06265211 0.97094023
vt 0.023780305 0.9393661
vt 0.024208497 0.92048275
vt 0.032678965 0.92033327
vt 0.03598285 0.93927145
vt 0.025301475 0.9428381
vt 0.034853954 0.9427668
vt 0.027806979 0.94488597
vt 0.032780986 0.9448427
vt 0.052807685 0.9863192
vt 0.049718622 0.9809693
vt 0.062073942 0.9809692
vt 0.05898499 0.98631907
vn 0.7491905 -0.028132793 -0.6617569
vn 0.7491905 -0.028132793 0.6617569
vn 0.7491905 -0.028132793 0.6617569
vn 0.74918973 -0.02813276 -0.66175765
vn -0.08220647 0.003099432 -0.99661046
vn 0.7491905 -0.028132793 -0.6617569
vn 0.74918973 -0.02813276 -0.66175765
vn -0.08220647 0.003099432 -0.99661046
vn -0.5123012 0.019263746 -0.8585897
vn -0.5123038 0.019263845 -0.85858816
vn -0.9085421 0.034096558 -0.41639972
vn -0.9085167 0.034095604 -0.41645515
vn -0.9583092 0.03609873 0.28344372
vn -0.95831233 0.036003474 0.2834454
vn -0.08220647 0.003099432 0.99661046
vn 0.7491905 -0.028132793 0.6617569
vn 0.7491905 -0.028132793 0.6617569
vn -0.08220647 0.003099432 0.99661046
vn -0.5683804 0.021361947 0.8224886
vn -0.5683804 0.021361947 0.8224886
vn -0.95831233 0.036003474 0.2834454
vn -0.9583092 0.03609873 0.28344372
vn 0.7111032 0.011778601 -0.702989
vn 0.78063947 -0.06522812 0.62156844
vn 0.6965748 -0.06737816 0.71431345
vn 0.7686878 0.00615141 -0.6395946
vn -0.086594574 -0.022888433 0.9959806
vn 0.78063947 -0.06522812 0.62156844
vn -0.08659407 -0.0228883 0.99598074
vn -0.56533176 0.031852365 0.82424843
vn -0.57032084 0.032140154 0.8207929
vn -0.95714486 0.053932384 0.28454354
vn -0.9578227 0.054022953 0.28223625
vn -0.9070783 0.05111375 -0.41784716
vn -0.9084981 0.051213887 -0.4147389
vn -0.5096635 0.02865904 -0.85989636
vn -0.51403844 0.028944466 -0.85727865
vn -0.087356776 0.033474047 -0.9956145
vn -0.087356776 0.033474047 -0.9956145
vn 0.7111032 0.011778601 -0.702989
vn 0.46578214 0.7858405 0.40681884
vn 0.024604518 0.7196821 0.6938676
vn 0.46521586 0.7858028 0.40753922
vn -0.070379995 0.74905103 0.6587634
vn -0.24508423 0.82465595 0.5097805
vn -0.3051656 0.8531762 0.42304173
vn -0.4011272 0.90272695 0.15550266
vn -0.40663254 0.9062451 0.115628235
vn 0.5489154 0.75127786 -0.36643332
vn 0.46578214 0.7858405 0.40681884
vn 0.46521586 0.7858028 0.40753922
vn 0.43736652 0.72719574 -0.5290528
vn 0.5489154 0.75127786 -0.36643332
vn 0.43736652 0.72719574 -0.5290528
vn 0.02403244 0.64601487 -0.7629465
vn -0.07095278 0.71639425 -0.69407845
vn -0.22582525 0.8139913 -0.53518313
vn -0.28228942 0.84338737 -0.45717654
vn -0.38070273 0.8970641 -0.22436884
vn -0.39214772 0.9028838 -0.17612731
vn -0.40663254 0.9062451 0.115628235
vn -0.4011272 0.90272695 0.15550266
vn 0.10395003 0.9945825 0
vn 0.072859965 0.99734217 0
vn 0.10395003 0.9945825 0
vn 0.072859965 0.99734217 0
vn 0.037383784 0.99930096 0
vn 0.037383784 0.99930096 0
vn 0.037574247 0.9992938 0
vn 0.037383784 0.99930096 0
vn 0.0043869 -0.005722043 -0.999974
vn 0.0043869056 -0.0057697343 -0.9999738
vn -0.00019073498 -0.0069618267 -0.9999758
vn -0.00019073495 -0.0068664583 -0.9999764
vn -0.0045776414 -0.006437309 -0.9999689
vn -0.008773789 -0.0054359343 -0.9999467
vn -0.0045776414 -0.0063419407 -0.9999695
vn -0.008392335 -0.0054359445 -0.99995005
vn -0.012969988 0.008583081 -0.999879
vn -0.012969988 0.008583081 -0.999879
vn -0.00019073495 -0.0068664583 0.9999764
vn 0.0043869023 -0.00576973 0.9999738
vn 0.0041961656 -0.0057220436 0.99997485
vn -0.00019073483 -0.0069618216 0.9999758
vn -0.004577638 -0.006341935 0.9999695
vn -0.008392329 -0.005435941 0.99995005
vn -0.004577638 -0.006437304 0.9999689
vn -0.008773798 -0.0055313073 0.99994624
vn -0.012969979 0.008583074 0.999879
vn -0.012969979 0.008583074 0.999879
vn -0.1520142 -0.98837835 0
vn -0.3335982 -0.9427153 0
vn -0.1520142 -0.98837835 0
vn -0.3335982 -0.9427153 0
vn -0.61722326 -0.78678805 0
vn -0.61722326 -0.78678805 0
vn -0.8129691 -0.58230674 0
vn -0.61722326 -0.78678805 0
vn -0.8129691 -0.58230674 0
vn 0.3410385 0.9400493 0
vn 0.1636489 0.9865187 0
vn 0.16384222 0.98648655 0
vn 0.3410385 0.9400493 0
vn 0.6183015 0.78594095 0
vn 0.6183015 0.78594095 0
vn 0.80986863 0.5866112 0
vn 0.6183015 0.78594095 0
vn 0.80986863 0.5866112 0
vn 0.25864512 0.008210814 -0.9659375
vn 0.96589667 0.008210671 -0.2587974
vn 0.96589637 0.00824941 -0.25879768
vn 0.25864485 0.008249551 -0.9659373
vn -0.7071888 0.008206909 -0.7069772
vn -0.70690763 0.008249799 -0.7072578
vn -0.9658966 0.008210669 0.25879794
vn -0.96589637 0.00824941 0.25879768
vn -0.25864512 0.008207834 0.9659375
vn -0.25902352 0.008249461 0.96583587
vn 0.7071888 0.008206909 0.7069772
vn 0.70718855 0.008248625 0.70697695
vn 0.96589667 0.008210671 -0.2587974
vn 0.96589637 0.00824941 -0.25879768
vn -0.9783186 -0.20710604 0
vn -0.97830886 -0.20715167 0
vn -0.99850637 0.05463561 0
vn -0.99850637 0.05463561 0
vn -0.27044868 -0.9627344 0
vn -0.27044868 -0.9627344 0
vn -0.27044868 -0.9627344 0
vn -0.27044868 -0.9627344 0
vn -1 0 0
vn -1 0 0
vn -1 0 0
vn -1 0 0
vn -0 0 -1
vn -0 0 -1
vn -0 0 -1
vn -0 0 -1
vn 1 0 0
vn 1 0 0
vn 1 0 0
vn 1 0 0
vn -0 0 1
vn -0 0 1
vn -0 0 1
vn -0 0 1
vn -0 1 0
vn -0 1 0
vn -0 1 0
vn -0 1 0
vn 0.6015565 -0.52574205 0.6014358
vn 0.82164013 -0.5257791 -0.22014499
vn 0.8216401 -0.5257791 -0.22014517
vn 0.6015565 -0.52574205 0.6014358
vn -0.22048391 -0.52574736 0.8215696
vn -0.22010358 -0.52579767 0.8216393
vn -0.82164013 -0.5257791 0.22014499
vn -0.8216401 -0.5257791 0.22014517
vn -0.60122037 -0.5259248 -0.60161227
vn -0.6015565 -0.52574205 -0.6014358
vn 0.22010344 -0.5257973 -0.82163954
vn 0.22010358 -0.52579767 -0.8216393
vn 0.8216401 -0.5257791 -0.22014517
vn 0.82164013 -0.5257791 -0.22014499
vn -0.56041425 0.60996073 -0.5602533
vn 0.20484933 0.6100181 -0.76545066
vn -0.20522952 0.6099665 0.7653898
vn -0.7653441 0.6100624 0.20511515
vn 0.25864527 0 -0.9659723
vn 0.20484933 0.6100181 -0.76545066
vn 0.96592706 0 -0.2588147
vn 0.7653441 0.6100624 -0.20511515
vn -0.7071932 0 -0.70702034
vn -0.7653441 0.6100624 0.20511515
vn -0.96592706 0 0.25881448
vn -0.20522963 0.6099669 0.7653896
vn -0.25864527 0 0.9659723
vn 0.5603461 0.60998195 0.56029844
vn 0.7071932 0 0.70702034
vn 0.7653441 0.6100624 -0.20511515
vn 0.96592706 0 -0.2588147
vn -0.037574247 -0.9992938 0
vn -0.037574247 -0.9992938 0
vn -0.037574247 -0.9992938 0
vn -0.037574247 -0.9992938 0
vn -0.037574247 -0.9992938 0
vn -0.037574247 -0.9992938 0
vn -0.037574247 -0.9992938 0
vn -0.037574247 -0.9992938 0
vn -0 1 0
vn -0 1 0
vn -0 1 0
vn -0 1 0
g fcbg_wasteland_002_trafficlights_01_0
f 3/3/3 2/2/2 1/1/1
f 4/4/4 3/3/3 1/1/1
f 7/7/7 6/6/6 5/5/5
f 8/8/8 7/7/7 5/5/5
f 8/8/8 5/5/5 9/9/9
f 10/10/10 8/8/8 9/9/9
f 10/10/10 9/9/9 11/11/11
f 12/12/12 10/10/10 11/11/11
f 12/12/12 11/11/11 13/13/13
f 14/14/14 12/12/12 13/13/13
f 17/17/17 16/16/16 15/15/15
f 18/18/18 17/17/17 15/15/15
f 15/15/15 19/19/19 18/18/18
f 19/19/19 20/20/20 18/18/18
f 19/19/19 21/21/21 20/20/20
f 21/21/21 22/22/22 20/20/20
f 25/25/25 24/24/24 23/23/23
f 26/26/26 25/25/25 23/23/23
f 28/28/28 25/25/25 27/27/27
f 29/29/29 28/28/28 27/27/27
f 27/27/27 30/30/30 29/29/29
f 30/30/30 31/31/31 29/29/29
f 30/30/30 32/32/32 31/31/31
f 32/32/32 33/33/33 31/31/31
f 32/32/32 34/34/34 33/33/33
f 34/34/34 35/35/35 33/33/33
f 34/34/34 36/36/36 35/35/35
f 36/36/36 37/37/37 35/35/35
f 36/36/36 38/38/38 37/37/37
f 38/38/38 39/39/39 37/37/37
f 38/38/38 26/26/26 39/39/39
f 26/26/26 40/40/40 39/39/39
f 43/43/43 42/42/42 41/41/41
f 42/42/42 44/44/44 41/41/41
f 44/44/44 42/42/42 45/45/45
f 46/46/46 44/44/44 45/45/45
f 46/46/46 45/45/45 47/47/47
f 48/48/48 46/46/46 47/47/47
f 51/51/51 50/50/50 49/49/49
f 52/52/52 51/51/51 49/49/49
f 55/55/55 54/54/54 53/53/53
f 56/56/56 55/55/55 53/53/53
f 57/57/57 55/55/55 56/56/56
f 58/58/58 57/57/57 56/56/56
f 59/59/59 57/57/57 58/58/58
f 60/60/60 59/59/59 58/58/58
f 60/60/60 61/61/61 59/59/59
f 61/61/61 62/62/62 59/59/59
f 65/65/65 64/64/64 63/63/63
f 64/64/64 66/66/66 63/63/63
f 64/64/64 67/67/67 66/66/66
f 67/67/67 68/68/68 66/66/66
f 67/67/67 69/69/69 68/68/68
f 69/69/69 70/70/70 68/68/68
f 73/73/73 72/72/72 71/71/71
f 74/74/74 73/73/73 71/71/71
f 74/74/74 75/75/75 73/73/73
f 75/75/75 76/76/76 73/73/73
f 75/75/75 77/77/77 76/76/76
f 77/77/77 78/78/78 76/76/76
f 79/79/79 78/78/78 77/77/77
f 80/80/80 79/79/79 77/77/77
f 83/83/83 82/82/82 81/81/81
f 82/82/82 84/84/84 81/81/81
f 84/84/84 85/85/85 81/81/81
f 85/85/85 86/86/86 81/81/81
f 85/85/85 87/87/87 86/86/86
f 87/87/87 88/88/88 86/86/86
f 89/89/89 88/88/88 87/87/87
f 90/90/90 89/89/89 87/87/87
f 93/93/93 92/92/92 91/91/91
f 92/92/92 94/94/94 91/91/91
f 92/92/92 95/95/95 94/94/94
f 95/95/95 96/96/96 94/94/94
f 95/95/95 98/98/98 97/97/97
f 98/98/98 99/99/99 97/97/97
f 102/102/102 101/101/101 100/100/100
f 103/103/103 102/102/102 100/100/100
f 100/100/100 104/104/104 103/103/103
f 104/104/104 105/105/105 103/103/103
f 104/104/104 107/107/107 106/106/106
f 107/107/107 108/108/108 106/106/106
f 111/111/111 110/110/110 109/109/109
f 112/112/112 111/111/111 109/109/109
f 112/112/112 109/109/109 113/113/113
f 114/114/114 112/112/112 113/113/113
f 114/114/114 113/113/113 115/115/115
f 116/116/116 114/114/114 115/115/115
f 116/116/116 115/115/115 117/117/117
f 118/118/118 116/116/116 117/117/117
f 118/118/118 117/117/117 119/119/119
f 120/120/120 118/118/118 119/119/119
f 120/120/120 119/119/119 121/121/121
f 122/122/122 120/120/120 121/121/121
f 125/125/125 124/124/124 123/123/123
f 126/126/126 125/125/125 123/123/123
f 129/129/129 128/128/128 127/127/127
f 130/130/130 129/129/129 127/127/127
f 133/133/133 132/132/132 131/131/131
f 134/134/134 133/133/133 131/131/131
f 137/137/137 136/136/136 135/135/135
f 138/138/138 137/137/137 135/135/135
f 141/141/141 140/140/140 139/139/139
f 142/142/142 141/141/141 139/139/139
f 145/145/145 144/144/144 143/143/143
f 146/146/146 145/145/145 143/143/143
f 149/149/149 148/148/148 147/147/147
f 150/150/150 149/149/149 147/147/147
f 153/153/153 152/152/152 151/151/151
f 152/152/152 154/154/154 151/151/151
f 151/151/151 154/154/154 155/155/155
f 154/154/154 156/156/156 155/155/155
f 155/155/155 156/156/156 157/157/157
f 156/156/156 158/158/158 157/157/157
f 157/157/157 158/158/158 159/159/159
f 158/158/158 160/160/160 159/159/159
f 159/159/159 160/160/160 161/161/161
f 160/160/160 162/162/162 161/161/161
f 161/161/161 162/162/162 163/163/163
f 162/162/162 164/164/164 163/163/163
f 167/167/167 166/166/166 165/165/165
f 168/168/168 167/167/167 165/165/165
f 165/165/165 170/170/170 169/169/169
f 169/169/169 170/170/170 171/171/171
f 170/170/170 172/172/172 171/171/171
f 173/173/173 165/165/165 169/169/169
f 174/174/174 165/165/165 173/173/173
f 175/175/175 174/174/174 173/173/173
f 176/176/176 174/174/174 175/175/175
f 177/177/177 176/176/176 175/175/175
f 178/178/178 176/176/176 177/177/177
f 179/179/179 178/178/178 177/177/177
f 180/180/180 178/178/178 179/179/179
f 181/181/181 180/180/180 179/179/179
f 184/184/184 183/183/183 182/182/182
f 185/185/185 184/184/184 182/182/182
f 185/185/185 182/182/182 186/186/186
f 187/187/187 185/185/185 186/186/186
f 187/187/187 186/186/186 188/188/188
f 189/189/189 187/187/187 188/188/188
f 192/192/192 191/191/191 190/190/190
f 193/193/193 192/192/192 190/190/190
