g fcbg_cityforest_etc_0001
v -0 2.2232566 -0.46731177
v 0.2831192 2.165429 0.46730977
v -0 2.2232566 0.46730977
v 0.2831192 2.165429 -0.46731177
v 0.4557724 1.9027755 0.46730977
v 0.4557724 1.9027755 -0.46731177
v 0.4557724 0.76710844 0.4673097
v 0.4557724 0.76710844 -0.46731183
v -0.4557724 0.76710844 -0.46731183
v 0.4557724 0.76710844 -0.46731183
v 0.4557724 1.9027755 -0.46731177
v -0.4557724 1.9027755 -0.46731177
v -0.28312683 2.1654294 -0.46731177
v 0.2831192 2.165429 -0.46731177
v -0 2.2232566 -0.46731177
v -0.31539917 0.6858072 -0.32338807
v 0.31539917 0.6858072 -0.32338807
v 0.4557724 0.76710844 -0.46731183
v 0.11267853 0.50813675 -0.11553476
v -0.11268616 0.50813675 -0.11553476
v 0.31539917 0.6858072 0.32338694
v 0.4557724 0.76710844 0.4673097
v 0.31539917 0.6858072 -0.32338807
v 0.11267853 0.50813675 0.11553289
v 0.11267853 0.50813675 -0.11553476
v -0.28312683 2.1654294 -0.46731177
v -0 2.2232566 -0.46731177
v -0 2.2232566 0.46730977
v -0.28312683 2.165429 0.46730977
v -0.4557724 1.9027755 -0.46731177
v -0.4557724 1.9027755 0.46730977
v -0.4557724 0.76710844 -0.46731183
v -0.4557724 0.76710844 0.4673097
v -0.31539917 0.6858072 -0.32338807
v -0.31539917 0.6858072 0.32338694
v -0.11268616 0.50813675 -0.11553476
v -0.11268616 0.50813675 0.11553385
v 0.4557724 0.76710844 0.4673097
v 0.4557724 1.9027755 0.46730977
v 0.2831192 2.165429 0.46730977
v -0.28312683 2.165429 0.46730977
v -0 2.2232566 0.46730977
v 0.4557724 0.76710844 0.4673097
v -0.31539917 0.6858072 0.32338694
v 0.31539917 0.6858072 0.32338694
v -0.11268616 0.50813675 0.11553385
v 0.11267853 0.50813675 0.11553289
v 0.11267853 0.50813675 0.11553289
v -0.11268616 0.2700367 0.11553384
v -0.11268616 0.50813675 0.11553385
v 0.11267853 0.2700367 0.11553384
v -0.42229462 0.05961416 0.43298602
v 0.42229462 0.05961416 0.43298694
v -0.42229462 -0.00010635361 0.43298602
v 0.42229462 -0.00010635361 0.43298694
v -0.11268616 0.50813675 0.11553385
v -0.11268616 0.2700367 -0.11553477
v -0.11268616 0.50813675 -0.11553476
v -0.11268616 0.2700367 0.11553384
v -0.42229462 0.059614196 -0.43298817
v -0.42229462 0.05961416 0.43298602
v -0.42229462 -0.00010631576 -0.43298817
v -0.42229462 -0.00010635361 0.43298602
v -0.11268616 0.50813675 -0.11553476
v 0.11267853 0.2700367 -0.11553477
v 0.11267853 0.50813675 -0.11553476
v -0.11268616 0.2700367 -0.11553477
v 0.42229462 0.059614196 -0.43298817
v -0.42229462 0.059614196 -0.43298817
v 0.42229462 -0.00010631576 -0.43298817
v -0.42229462 -0.00010631576 -0.43298817
v 0.11267853 0.50813675 -0.11553476
v 0.11267853 0.2700367 0.11553384
v 0.11267853 0.50813675 0.11553289
v 0.11267853 0.2700367 -0.11553477
v 0.42229462 0.05961416 0.43298694
v 0.42229462 0.059614196 -0.43298817
v 0.42229462 -0.00010635361 0.43298694
v 0.42229462 -0.00010631576 -0.43298817
vt 0.5289004 0.8353939
vt 0.52221185 0.85701954
vt 0.5289004 0.85701954
vt 0.52221185 0.8353939
vt 0.51548886 0.85701954
vt 0.51548886 0.8353939
vt 0.4890045 0.85701954
vt 0.4890045 0.8353939
vt 0.4890045 0.8139702
vt 0.4890045 0.8353939
vt 0.51548886 0.8353939
vt 0.51548886 0.8139702
vt 0.52221185 0.8180279
vt 0.52221185 0.8313362
vt 0.5235478 0.82468206
vt 0.4851852 0.81726927
vt 0.4851852 0.8320949
vt 0.4890045 0.8353939
vt 0.4788534 0.82733035
vt 0.4788534 0.82203364
vt 0.4851852 0.85368943
vt 0.4890045 0.85701954
vt 0.4851852 0.83872396
vt 0.4788534 0.84888005
vt 0.4788534 0.8435334
vt 0.52221185 0.85701954
vt 0.5289004 0.85701954
vt 0.5289004 0.8353939
vt 0.52221185 0.8353939
vt 0.51548886 0.85701954
vt 0.51548886 0.8353939
vt 0.4890045 0.85701954
vt 0.4890045 0.8353939
vt 0.4851852 0.85368943
vt 0.4851852 0.8387241
vt 0.4788534 0.84888005
vt 0.4788534 0.8435334
vt 0.4890045 0.8139702
vt 0.51548886 0.8139702
vt 0.52221185 0.8180279
vt 0.52221185 0.8313362
vt 0.5235478 0.82468206
vt 0.4890045 0.8139702
vt 0.4851852 0.8320949
vt 0.4851852 0.81726927
vt 0.4788534 0.82733035
vt 0.4788534 0.82203364
vt 0.4788534 0.82203364
vt 0.4733007 0.82733035
vt 0.4788534 0.82733035
vt 0.4733007 0.82203364
vt 0.46449414 0.8346072
vt 0.46449414 0.81475693
vt 0.46310142 0.8346072
vt 0.46310142 0.81475693
vt 0.4788534 0.8435334
vt 0.4733007 0.84888005
vt 0.4788534 0.84888005
vt 0.4733007 0.8435334
vt 0.46449414 0.85622525
vt 0.46449414 0.836188
vt 0.46310142 0.85622525
vt 0.46310142 0.836188
vt 0.4788534 0.82203364
vt 0.4733007 0.82733035
vt 0.4788534 0.82733035
vt 0.4733007 0.82203364
vt 0.46449414 0.8346072
vt 0.46449414 0.81475693
vt 0.46310142 0.8346072
vt 0.46310142 0.81475693
vt 0.4788534 0.8435334
vt 0.4733007 0.84888005
vt 0.4788534 0.84888005
vt 0.4733007 0.8435334
vt 0.46449414 0.85622525
vt 0.46449414 0.836188
vt 0.46310142 0.85622525
vt 0.46310142 0.836188
vn -0 0.74709606 -0.6647162
vn 0.4355024 0.6429279 0.6300646
vn -0 0.74709606 0.6647161
vn 0.4355024 0.6429279 -0.6300646
vn 0.72974205 0.21836814 0.64791346
vn 0.72974205 0.21836816 -0.64791346
vn 0.62525254 -0.46586847 0.6261197
vn 0.6252523 -0.4658688 -0.6261197
vn -0.6252523 -0.4658688 -0.6261197
vn 0.6252523 -0.4658688 -0.6261197
vn 0.72974205 0.21836816 -0.64791346
vn -0.7297427 0.21836022 -0.6479153
vn -0.43550825 0.6429262 -0.6300622
vn 0.4355024 0.6429279 -0.6300646
vn -0 0.74709606 -0.6647162
vn -0.2971142 -0.90900016 -0.29230443
vn 0.29711318 -0.9090012 -0.29230246
vn 0.6252523 -0.4658688 -0.6261197
vn 0.5593234 -0.6173305 -0.5532274
vn -0.55933094 -0.61732495 -0.5532258
vn 0.29711288 -0.90900075 0.2923038
vn 0.62525254 -0.46586847 0.6261197
vn 0.29711318 -0.9090012 -0.29230246
vn 0.55932504 -0.6173296 0.5532266
vn 0.5593234 -0.6173305 -0.5532274
vn -0.43550825 0.6429262 -0.6300622
vn -0 0.74709606 -0.6647162
vn -0 0.74709606 0.6647161
vn -0.4355082 0.64292604 0.63006246
vn -0.7297427 0.21836022 -0.6479153
vn -0.7297428 0.21836023 0.6479153
vn -0.6252523 -0.4658688 -0.6261197
vn -0.62525254 -0.46586847 0.6261197
vn -0.2971142 -0.90900016 -0.29230443
vn -0.29711396 -0.90899986 0.2923056
vn -0.55933094 -0.61732495 -0.5532258
vn -0.55933017 -0.6173252 0.55322623
vn 0.62525254 -0.46586847 0.6261197
vn 0.72974205 0.21836814 0.64791346
vn 0.4355024 0.6429279 0.6300646
vn -0.4355082 0.64292604 0.63006246
vn -0 0.74709606 0.6647161
vn 0.62525254 -0.46586847 0.6261197
vn -0.29711396 -0.90899986 0.2923056
vn 0.29711288 -0.90900075 0.2923038
vn -0.55933017 -0.6173252 0.55322623
vn 0.55932504 -0.6173296 0.5532266
vn 0.55932504 -0.6173296 0.5532266
vn -0.518648 0.6842997 0.5125798
vn -0.55933017 -0.6173252 0.55322623
vn 0.51864326 0.68430275 0.51258075
vn -0.63187194 0.44750202 0.6328347
vn 0.6318712 0.44750354 0.6328344
vn -0.70710707 0 0.7071065
vn 0.70710635 0 0.7071072
vn -0.55933017 -0.6173252 0.55322623
vn -0.51864874 0.68429965 -0.5125794
vn -0.55933094 -0.61732495 -0.5532258
vn -0.518648 0.6842997 0.5125798
vn -0.6318715 0.4475022 -0.632835
vn -0.63187194 0.44750202 0.6328347
vn -0.7071067 0 -0.70710677
vn -0.70710707 0 0.7071065
vn -0.55933094 -0.61732495 -0.5532258
vn 0.5186437 0.6843026 -0.5125804
vn 0.5593234 -0.6173305 -0.5532274
vn -0.51864874 0.68429965 -0.5125794
vn 0.63187146 0.44750366 -0.63283396
vn -0.6318715 0.4475022 -0.632835
vn 0.70710677 0 -0.70710677
vn -0.7071067 0 -0.70710677
vn 0.5593234 -0.6173305 -0.5532274
vn 0.51864326 0.68430275 0.51258075
vn 0.55932504 -0.6173296 0.5532266
vn 0.5186437 0.6843026 -0.5125804
vn 0.6318712 0.44750354 0.6328344
vn 0.63187146 0.44750366 -0.63283396
vn 0.70710635 0 0.7071072
vn 0.70710677 0 -0.70710677
g fcbg_cityforest_etc_0001_0
f 3/3/3 2/2/2 1/1/1
f 2/2/2 4/4/4 1/1/1
f 4/4/4 2/2/2 5/5/5
f 6/6/6 4/4/4 5/5/5
f 6/6/6 5/5/5 7/7/7
f 8/8/8 6/6/6 7/7/7
f 11/11/11 10/10/10 9/9/9
f 12/12/12 11/11/11 9/9/9
f 11/11/11 12/12/12 13/13/13
f 14/14/14 11/11/11 13/13/13
f 15/15/15 14/14/14 13/13/13
f 17/17/17 16/16/16 9/9/9
f 18/18/18 17/17/17 9/9/9
f 17/17/17 19/19/19 16/16/16
f 19/19/19 20/20/20 16/16/16
f 22/22/22 21/21/21 18/18/18
f 21/21/21 23/23/23 18/18/18
f 21/21/21 24/24/24 23/23/23
f 24/24/24 25/25/25 23/23/23
f 28/28/28 27/27/27 26/26/26
f 29/29/29 28/28/28 26/26/26
f 29/29/29 26/26/26 30/30/30
f 31/31/31 29/29/29 30/30/30
f 31/31/31 30/30/30 32/32/32
f 33/33/33 31/31/31 32/32/32
f 32/32/32 34/34/34 33/33/33
f 34/34/34 35/35/35 33/33/33
f 34/34/34 36/36/36 35/35/35
f 36/36/36 37/37/37 35/35/35
f 31/31/31 33/33/33 38/38/38
f 39/39/39 31/31/31 38/38/38
f 31/31/31 39/39/39 40/40/40
f 41/41/41 31/31/31 40/40/40
f 42/42/42 41/41/41 40/40/40
f 33/33/33 44/44/44 43/43/43
f 44/44/44 45/45/45 43/43/43
f 44/44/44 46/46/46 45/45/45
f 46/46/46 47/47/47 45/45/45
f 50/50/50 49/49/49 48/48/48
f 49/49/49 51/51/51 48/48/48
f 49/49/49 52/52/52 51/51/51
f 52/52/52 53/53/53 51/51/51
f 52/52/52 54/54/54 53/53/53
f 54/54/54 55/55/55 53/53/53
f 58/58/58 57/57/57 56/56/56
f 57/57/57 59/59/59 56/56/56
f 57/57/57 60/60/60 59/59/59
f 60/60/60 61/61/61 59/59/59
f 60/60/60 62/62/62 61/61/61
f 62/62/62 63/63/63 61/61/61
f 66/66/66 65/65/65 64/64/64
f 65/65/65 67/67/67 64/64/64
f 65/65/65 68/68/68 67/67/67
f 68/68/68 69/69/69 67/67/67
f 68/68/68 70/70/70 69/69/69
f 70/70/70 71/71/71 69/69/69
f 74/74/74 73/73/73 72/72/72
f 73/73/73 75/75/75 72/72/72
f 73/73/73 76/76/76 75/75/75
f 76/76/76 77/77/77 75/75/75
f 76/76/76 78/78/78 77/77/77
f 78/78/78 79/79/79 77/77/77
