g fcbg_iceland_004_lighthouse_02
v 7.8118725 -4.327062 -11.906807
v -13.082423 -0.5589438 5.6256194
v -13.082428 -4.327062 5.6256175
v 7.8118796 -0.55894476 -11.906801
v -12.274126 0.00010100906 5.580715
v 8.110593 0.00010053222 -11.524109
v -7.627293 0.00010069306 11.118593
v -7.8118725 -0.55894417 11.906816
v 12.757423 0.000100216224 -5.986235
v 13.082434 -0.5589451 -5.625598
vt 0.7101471 0.0011031053
vt 0.9987718 0.046420343
vt 0.9987718 0.0011031053
vt 0.7101471 0.046420414
vt 0.9886285 0.053559273
vt 0.7101471 0.053559408
vt 0.98862803 0.12630542
vt 0.998772 0.13324924
vt 0.71014696 0.12630542
vt 0.7101471 0.13324918
vn -0.6427881 0 -0.7660441
vn -0.7261858 0.5051199 -0.4663776
vn -0.6427881 0 -0.766044
vn -0.6027955 0.3472227 -0.7183829
vn -0.41887325 0.9038477 -0.087203644
vn -0.2687521 0.9083992 -0.320286
vn 0.013141341 0.9038484 0.4276509
vn -0.06927928 0.82129735 0.5662782
vn 0.26875028 0.9084005 0.32028386
vn 0.48546153 0.6554442 0.57855
g fcbg_iceland_004_lighthouse_02_0
f 3/3/3 2/2/2 1/1/1
f 2/2/2 4/4/4 1/1/1
f 2/2/2 5/5/5 4/4/4
f 5/5/5 6/6/6 4/4/4
f 7/7/7 5/5/5 2/2/2
f 5/5/5 7/7/7 6/6/6
f 8/8/8 7/7/7 2/2/2
f 7/7/7 9/9/9 6/6/6
f 9/9/9 7/7/7 8/8/8
f 10/10/10 9/9/9 8/8/8
