g fcbg_arkcity_003_EER_hall_02
v -1.4493046 2.1192179 3.279654
v -1.4493046 -2.1192245 3.279654
v -3.4225655 -2.1192245 1.4000378
v -3.4225655 2.1192245 1.4000311
v -3.4215407 -2.1192245 -1.4160838
v -3.421534 2.1192245 -1.4160903
v -1.4917564 -2.1192245 -3.274915
v -1.4917564 2.1192245 -3.2749214
v 1.4833225 -2.1192245 -3.2796478
v 1.4833225 2.1192245 -3.2796478
v 3.422566 -2.1192245 -1.4350085
v 3.422566 2.1192245 -1.4350085
v 3.422566 -2.1192245 1.3934441
v 3.422566 2.1192179 1.3934441
v 1.4637711 -2.1192245 3.279654
v 1.4637711 2.1192179 3.279654
v -1.4493046 -2.1192245 3.279654
v -1.4493046 2.1192179 3.279654
vt 0.00196159 0.80406123
vt 0.16169596 0.80406123
vt 0.16169596 0.71925616
vt 0.00196159 0.71925616
vt 0.16169596 0.6353722
vt 0.00196159 0.6353722
vt 0.16169596 0.54902685
vt 0.00196159 0.54920805
vt 0.16169596 0.6353722
vt 0.00196159 0.6353722
vt 0.16169596 0.71925616
vt 0.00196159 0.71925616
vt 0.16169596 0.80406123
vt 0.00196159 0.80406123
vt 0.16169596 0.8900744
vt 0.00196159 0.8900744
vt 0.16169596 0.80406123
vt 0.00196159 0.80406123
vn -0.37147957 0.00087863207 0.9284407
vn -0.37147957 0.00087863207 0.9284407
vn -0.9183858 0.00087863207 0.39568517
vn -0.9183858 0.00087863207 0.39568517
vn -0.9201848 0.00087863207 -0.39148328
vn -0.9201848 0.00087863207 -0.39148328
vn -0.37507766 0.00087863207 -0.926993
vn -0.37507766 0.00087863207 -0.926993
vn 0.36972225 0.00087863207 -0.9291419
vn 0.36972225 0.00087863207 -0.9291419
vn 0.91842747 0.00087863207 -0.39558843
vn 0.91842747 0.00087863207 -0.39558843
vn 0.9202265 0.00087863207 0.39138523
vn 0.9202265 0.00087863207 0.39138523
vn 0.37332034 0.00087863207 0.92770207
vn 0.37332034 0.00087863207 0.92770207
vn -0.37147957 0.00087863207 0.9284407
vn -0.37147957 0.00087863207 0.9284407
g fcbg_arkcity_003_EER_hall_02_0
f 3/3/3 2/2/2 1/1/1
f 4/4/4 3/3/3 1/1/1
f 5/5/5 3/3/3 4/4/4
f 6/6/6 5/5/5 4/4/4
f 7/7/7 5/5/5 6/6/6
f 8/8/8 7/7/7 6/6/6
f 9/9/9 7/7/7 8/8/8
f 10/10/10 9/9/9 8/8/8
f 11/11/11 9/9/9 10/10/10
f 12/12/12 11/11/11 10/10/10
f 13/13/13 11/11/11 12/12/12
f 14/14/14 13/13/13 12/12/12
f 15/15/15 13/13/13 14/14/14
f 16/16/16 15/15/15 14/14/14
f 17/17/17 15/15/15 16/16/16
f 18/18/18 17/17/17 16/16/16
