g fcbg_cityforest_006_can_01
v 0.047986984 -8.940697E-07 -7.2359256E-08
v 0.047986984 0.1565755 4.6850033E-08
v 0.023994446 0.1565755 -0.041558694
v 0.023994446 -8.940697E-07 -0.041558813
v -0.023994446 0.1565755 -0.041558694
v -0.023994446 -8.940697E-07 -0.041558813
v -0.047986984 0.1565755 4.6850033E-08
v -0.047986984 -8.940697E-07 -7.2359256E-08
v -0.023994446 0.1565755 0.04155879
v -0.023994446 -8.940697E-07 0.04155867
v 0.023994446 0.1565755 0.04155879
v 0.023994446 -8.940697E-07 0.04155867
v 0.047986984 0.1565755 4.6850033E-08
v 0.047986984 -8.940697E-07 -7.2359256E-08
v 0.047986984 0.1565755 4.6850033E-08
v 0.023994446 0.1565755 0.04155879
v -0.023994446 0.1565755 0.04155879
v -0.047986984 0.1565755 4.6850033E-08
v 0.023994446 0.1565755 -0.041558694
v -0.023994446 0.1565755 -0.041558694
vt 0.91471994 0.96256614
vt 0.91471994 0.985056
vt 0.9202385 0.985056
vt 0.9202385 0.96256614
vt 0.92575705 0.985056
vt 0.92575705 0.96256614
vt 0.9312756 0.985056
vt 0.9312756 0.96256614
vt 0.92575705 0.985056
vt 0.92575705 0.96256614
vt 0.9202385 0.985056
vt 0.9202385 0.96256614
vt 0.91471994 0.985056
vt 0.91471994 0.96256614
vt 0.89771456 0.9477104
vt 0.8916574 0.9477104
vt 0.8886288 0.952956
vt 0.8916574 0.95820165
vt 0.9007432 0.952956
vt 0.89771456 0.95820165
vn 1 0 0
vn 0.792403 0.6099979 0
vn 0.39621237 0.60999274 -0.68623954
vn 0.50001097 0 -0.86601907
vn -0.39621237 0.60999274 -0.68623954
vn -0.50001097 0 -0.86601907
vn -0.792403 0.6099979 0
vn -1 0 0
vn -0.39621243 0.6099922 0.68623996
vn -0.50001115 0 0.866019
vn 0.39621243 0.6099922 0.68623996
vn 0.50001115 0 0.866019
vn 0.792403 0.6099979 0
vn 1 0 0
vn 0.792403 0.6099979 0
vn 0.39621243 0.6099922 0.68623996
vn -0.39621243 0.6099922 0.68623996
vn -0.792403 0.6099979 0
vn 0.39621237 0.60999274 -0.68623954
vn -0.39621237 0.60999274 -0.68623954
g fcbg_cityforest_006_can_01_0
f 3/3/3 2/2/2 1/1/1
f 4/4/4 3/3/3 1/1/1
f 5/5/5 3/3/3 4/4/4
f 6/6/6 5/5/5 4/4/4
f 7/7/7 5/5/5 6/6/6
f 8/8/8 7/7/7 6/6/6
f 9/9/9 7/7/7 8/8/8
f 10/10/10 9/9/9 8/8/8
f 11/11/11 9/9/9 10/10/10
f 12/12/12 11/11/11 10/10/10
f 13/13/13 11/11/11 12/12/12
f 14/14/14 13/13/13 12/12/12
f 17/17/17 16/16/16 15/15/15
f 18/18/18 17/17/17 15/15/15
f 18/18/18 15/15/15 19/19/19
f 20/20/20 18/18/18 19/19/19
