g fcbg_arkcity_flowerpot_01
v -1.0294056 1.0728836E-06 0.41419804
v 1.0880272 0.5407945 0.43778527
v 1.0294056 1.0728836E-06 0.41419804
v -1.0880272 0.5407945 0.43778527
v 1.0880272 0.5407945 -0.4377852
v -1.0880272 0.5407945 -0.4377852
v -1.0294056 1.0728836E-06 -0.41419792
v -1.0294056 1.0728836E-06 0.41419804
v 1.0294056 1.0728836E-06 0.41419804
v 1.0880272 0.5407945 0.43778527
v 1.0880272 0.5407945 -0.4377852
v 1.0294056 1.0728836E-06 -0.41419792
v 1.0294056 1.0728836E-06 -0.41419792
v 1.0880272 0.5407945 -0.4377852
v -1.0880272 0.5407945 -0.4377852
v -1.0294056 1.0728836E-06 -0.41419792
vt 0.7050467 0.4024174
vt 0.7201211 0.3417444
vt 0.7050467 0.3417444
vt 0.7201211 0.4024174
vt 0.74453443 0.3417444
vt 0.74453443 0.4024174
vt 0.74453443 0.41749182
vt 0.7201211 0.41749182
vt 0.7201211 0.41749182
vt 0.7201211 0.4024174
vt 0.74453443 0.4024174
vt 0.74453443 0.41749182
vt 0.7050467 0.3417444
vt 0.7201211 0.3417444
vt 0.7201211 0.4024174
vt 0.7050467 0.4024174
vn -0.6874711 -0.10550636 0.71850675
vn 0.6081734 0.5369398 0.58465445
vn 0.6874711 -0.10550636 0.71850675
vn -0.6081733 0.5369398 0.5846545
vn 0.6081734 0.5369398 -0.58465445
vn -0.6081733 0.5369398 -0.5846545
vn -0.6874711 -0.10550636 -0.71850675
vn -0.6874711 -0.10550636 0.71850675
vn 0.6874711 -0.10550636 0.71850675
vn 0.6081734 0.5369398 0.58465445
vn 0.6081734 0.5369398 -0.58465445
vn 0.6874711 -0.10550636 -0.71850675
vn 0.6874711 -0.10550636 -0.71850675
vn 0.6081734 0.5369398 -0.58465445
vn -0.6081733 0.5369398 -0.5846545
vn -0.6874711 -0.10550636 -0.71850675
g fcbg_arkcity_flowerpot_01_0
f 3/3/3 2/2/2 1/1/1
f 2/2/2 4/4/4 1/1/1
f 2/2/2 5/5/5 4/4/4
f 5/5/5 6/6/6 4/4/4
f 4/4/4 6/6/6 7/7/7
f 8/8/8 4/4/4 7/7/7
f 11/11/11 10/10/10 9/9/9
f 12/12/12 11/11/11 9/9/9
f 15/15/15 14/14/14 13/13/13
f 16/16/16 15/15/15 13/13/13
