g fcbg_arkcity_etc_03
v 0.37441564 0.00069049 -0.3651805
v -0.37443852 0.00069049 -0.3651805
v -0.37443852 0.00069049 0.36518186
v 0.37441564 0.00069049 0.36518186
v -0.37443852 1.362265 -1.4901161E-07
v -0.37443852 1.315932 -0.22685222
v 0.37441564 1.315932 -0.22685222
v 0.37441564 1.362265 -1.4901161E-07
v 0.37441564 0.00069049 -0.3651805
v 0.37441564 1.1054832 -0.3651805
v -0.37443852 1.1054832 -0.3651805
v -0.37443852 0.00069049 -0.3651805
v -0.37443852 0.00069049 0.36518186
v -0.37443852 0.00069049 -0.3651805
v -0.37443852 1.1054832 -0.3651805
v -0.37443852 1.1054832 0.36518186
v -0.37443852 1.315932 0.22684526
v -0.37443852 1.315932 -0.22685222
v -0.37443852 1.362265 -1.4901161E-07
v -0.37443852 0.00069049 0.36518186
v -0.37443852 1.1054832 0.36518186
v 0.37441564 1.1054832 0.36518186
v 0.37441564 0.00069049 0.36518186
v 0.37441564 0.00069049 -0.3651805
v 0.37441564 0.00069049 0.36518186
v 0.37441564 1.1054832 0.36518186
v 0.37441564 1.1054832 -0.3651805
v 0.37441564 1.315932 -0.22685222
v 0.37441564 1.315932 0.22684526
v 0.37441564 1.362265 -1.4901161E-07
v -0.37443852 1.1054832 0.36518186
v -0.37443852 1.315932 0.22684526
v 0.37441564 1.315932 0.22684526
v 0.37441564 1.1054832 0.36518186
v -0.37443852 1.315932 0.22684526
v -0.37443852 1.362265 -1.4901161E-07
v 0.37441564 1.362265 -1.4901161E-07
v 0.37441564 1.315932 0.22684526
v 0.37441564 1.1054832 -0.3651805
v 0.37441564 1.315932 -0.22685222
v -0.37443852 1.315932 -0.22685222
v -0.37443852 1.1054832 -0.3651805
vt 0.7934003 0.33104923
vt 0.7934003 0.3178656
vt 0.8064021 0.3178656
vt 0.8064021 0.33104923
vt 0.8232226 0.36375067
vt 0.8232226 0.35785592
vt 0.8064021 0.35785592
vt 0.8064021 0.36375067
vt 0.8064021 0.33104923
vt 0.8064021 0.3530674
vt 0.8232226 0.3530674
vt 0.8232226 0.33104923
vt 0.8064021 0.33104923
vt 0.7934003 0.33104923
vt 0.7934003 0.3530674
vt 0.8064021 0.3530674
vt 0.80435634 0.35706794
vt 0.7957339 0.35706794
vt 0.80003756 0.35794684
vt 0.8232226 0.33104923
vt 0.8232226 0.3530674
vt 0.8064021 0.3530674
vt 0.8064021 0.33104923
vt 0.7934003 0.33104923
vt 0.8064021 0.33104923
vt 0.8064021 0.3530674
vt 0.7934003 0.3530674
vt 0.7957339 0.35706794
vt 0.80435634 0.35706794
vt 0.80003756 0.35794684
vt 0.8232226 0.3530674
vt 0.8232226 0.35785592
vt 0.8064021 0.35785592
vt 0.8064021 0.3530674
vt 0.8232226 0.35785592
vt 0.8232226 0.36375067
vt 0.8064021 0.36375067
vt 0.8064021 0.35785592
vt 0.8064021 0.3530674
vt 0.8064021 0.35785592
vt 0.8232226 0.35785592
vt 0.8232226 0.3530674
vn -0.0009775162 -0.9999995 -0
vn -0.0009775162 -0.9999995 -0
vn -0.0009775162 -0.9999995 -0
vn -0.0009775162 -0.9999995 -0
vn -0.0009775162 0.9804492 -0.19676992
vn -0.0009775162 0.9804492 -0.19676992
vn -0.0009775162 0.9804492 -0.19676992
vn -0.0009775162 0.9804492 -0.19676992
vn -0.0009775162 0.0009775162 -0.99999905
vn -0.0009775162 0.0009775162 -0.99999905
vn -0.0009775162 0.0009775162 -0.99999905
vn -0.0009775162 0.0009775162 -0.99999905
vn -0.9999995 0.0009775162 -0
vn -0.9999995 0.0009775162 -0
vn -0.9999995 0.0009775162 -0
vn -0.9999995 0.0009775162 -0
vn -0.9999995 0.0009775162 -0
vn -0.9999995 0.0009775162 -0
vn -0.9999995 0.0009775162 -0
vn -0.0009775162 0.0009775162 0.99999905
vn -0.0009775162 0.0009775162 0.99999905
vn -0.0009775162 0.0009775162 0.99999905
vn -0.0009775162 0.0009775162 0.99999905
vn 0.9999995 0.0009775162 -0
vn 0.9999995 0.0009775162 -0
vn 0.9999995 0.0009775162 -0
vn 0.9999995 0.0009775162 -0
vn 0.9999995 0.0009775162 -0
vn 0.9999995 0.0009775162 -0
vn 0.9999995 0.0009775162 -0
vn -0.0009775162 0.5483868 0.83622426
vn -0.0009775162 0.5483868 0.83622426
vn -0.0009775162 0.5483868 0.83622426
vn -0.0009775162 0.5483868 0.83622426
vn -0.0009775162 0.9804492 0.19676992
vn -0.0009775162 0.9804492 0.19676992
vn -0.0009775162 0.9804492 0.19676992
vn -0.0009775162 0.9804492 0.19676992
vn -0.0009775162 0.5483868 -0.83622426
vn -0.0009775162 0.5483868 -0.83622426
vn -0.0009775162 0.5483868 -0.83622426
vn -0.0009775162 0.5483868 -0.83622426
g fcbg_arkcity_etc_03_0
f 3/3/3 2/2/2 1/1/1
f 4/4/4 3/3/3 1/1/1
f 7/7/7 6/6/6 5/5/5
f 8/8/8 7/7/7 5/5/5
f 11/11/11 10/10/10 9/9/9
f 12/12/12 11/11/11 9/9/9
f 15/15/15 14/14/14 13/13/13
f 16/16/16 15/15/15 13/13/13
f 15/15/15 16/16/16 17/17/17
f 18/18/18 15/15/15 17/17/17
f 19/19/19 18/18/18 17/17/17
f 22/22/22 21/21/21 20/20/20
f 23/23/23 22/22/22 20/20/20
f 26/26/26 25/25/25 24/24/24
f 27/27/27 26/26/26 24/24/24
f 26/26/26 27/27/27 28/28/28
f 29/29/29 26/26/26 28/28/28
f 30/30/30 29/29/29 28/28/28
f 33/33/33 32/32/32 31/31/31
f 34/34/34 33/33/33 31/31/31
f 37/37/37 36/36/36 35/35/35
f 38/38/38 37/37/37 35/35/35
f 41/41/41 40/40/40 39/39/39
f 42/42/42 41/41/41 39/39/39
