g fcbg_greathole_001_building_05
v 3.2209558 3.1050334 4.0329246E-07
v 3.2209558 0.5723591 1.5524902
v 3.2209558 3.1050324 1.55249
v 3.2209558 5.1498413E-05 -1.9275399E-07
v 3.2209558 5.0783157E-05 1.398612
v 3.2209558 0.57235956 -1.5524902
v 3.2209558 3.105033 -1.5524896
v 3.2209558 5.1259995E-05 -1.3986126
v 3.2209558 5.0783157E-05 1.398612
v -3.2814863 5.054474E-05 1.398612
v -3.2814863 0.57235885 1.5524902
v 3.2209558 0.5723591 1.5524902
v -1.2574115 3.1050324 1.55249
v 3.2209558 3.1050324 1.55249
v -2.5774822 3.1050315 1.5524905
v -3.2814863 3.1050324 1.5524905
v -3.144981 3.1050324 1.4077148
v -3.2814863 3.105033 1.6487388E-07
v -0.689929 3.105033 1.4076583
v -0.689929 3.1050334 2.8408317E-07
v 3.2209558 3.1050334 4.0329246E-07
v 3.2209558 3.105033 -1.5524896
v -0.689929 3.1050334 -1.4076581
v -1.2574115 3.105033 -1.55249
v -1.2574286 3.105033 -1.407673
v -1.0464082 3.3649619 2.8408317E-07
v -0.689929 3.1050334 -1.4076581
v -1.0464082 3.364962 -1.4076581
v -1.2574286 3.105033 -1.407673
v -1.2574272 3.364962 -1.407666
v -1.2574115 3.105033 -1.55249
v -2.5774975 3.3649611 -1.407707
v -1.2574286 3.1050324 1.4076734
v -1.0464082 3.3649616 1.4076583
v -1.2574272 3.3649616 1.4076664
v -2.5774977 3.3649607 1.407707
v -2.788507 3.364961 1.6487388E-07
v -2.577499 3.1050315 1.4076998
v -2.788507 3.3649607 1.4077141
v -3.144981 3.105033 1.6487388E-07
v -2.7885065 3.3649611 -1.4077141
v -3.1449804 3.105033 -1.4077146
v -3.2814858 3.105033 -1.5524906
v -2.5774987 3.105032 -1.4077
v -2.577482 3.105032 -1.5524905
v -3.2814858 0.5723593 -1.552491
v 3.2209558 0.57235956 -1.5524902
v 3.2209558 3.105033 -1.5524896
v 3.2209558 5.1259995E-05 -1.3986126
v -3.2814858 5.1021576E-05 -1.3986133
v -3.2814863 0.57235885 1.5524902
v -3.2814863 5.054474E-05 1.398612
v -3.2814863 5.1021576E-05 -4.3117257E-07
v -3.2814863 3.1050324 1.5524905
v -3.2814863 3.105033 1.6487388E-07
v -3.2814858 3.105033 -1.5524906
v -3.2814858 0.5723593 -1.552491
v -3.2814858 5.1021576E-05 -1.3986133
v 2.9709196 3.0935953 1.0288503
v 2.9709196 3.0935955 0.7375732
v 2.9709196 3.1865034 0.7375732
v 2.9709196 3.0935955 0.446297
v 2.9709196 3.1865034 1.0288503
v 3.2109327 3.093536 1.0288503
v 2.9709196 3.1865036 0.446297
v 3.2109327 3.093536 0.446297
v 3.2773829 3.1204348 0.7375732
v 3.2773829 3.1204348 1.0288503
v 3.2773829 3.1204348 0.446297
v 3.2814856 2.6974921 1.0288503
v 3.2110815 2.6686168 1.0288503
v 3.2110815 2.6686168 0.7375732
v 3.2814856 2.6974921 0.7375732
v 3.2814856 2.6974921 0.44629687
v 3.2110815 2.6686165 0.44629687
vt 0.38726938 0.17688426
vt 0.3593298 0.13147464
vt 0.3593298 0.17688426
vt 0.38726938 0.12096524
vt 0.36182532 0.12096524
vt 0.3593298 0.13147461
vt 0.3593298 0.17688423
vt 0.36182532 0.120965235
vt 0.3593298 0.120965414
vt 0.24351352 0.120965414
vt 0.24351352 0.1314748
vt 0.3593298 0.13147464
vt 0.27963647 0.17688423
vt 0.3593298 0.17688426
vt 0.25667268 0.17686641
vt 0.24351352 0.17688428
vt 0.2463032 0.1793604
vt 0.24351352 0.20381336
vt 0.28956145 0.1793604
vt 0.28956145 0.20381336
vt 0.35929757 0.20381336
vt 0.3593298 0.23074244
vt 0.28956145 0.2282663
vt 0.27963647 0.2307425
vt 0.28252932 0.22826636
vt 0.28328884 0.20665717
vt 0.2895615 0.17936036
vt 0.2832889 0.18216857
vt 0.28252938 0.17936032
vt 0.27963588 0.18216857
vt 0.27963653 0.17688419
vt 0.25667238 0.18216857
vt 0.28252932 0.17936036
vt 0.28328884 0.18216857
vt 0.27963585 0.18216857
vt 0.2566723 0.18216857
vt 0.25298277 0.20665717
vt 0.25364012 0.17936035
vt 0.2529828 0.18216857
vt 0.2463032 0.20381336
vt 0.25298283 0.18216857
vt 0.24630328 0.17936036
vt 0.2435136 0.17688423
vt 0.2536402 0.1793603
vt 0.25667274 0.17686635
vt 0.2435136 0.1314748
vt 0.3593298 0.13147461
vt 0.3593298 0.17688423
vt 0.3593298 0.12096541
vt 0.2435136 0.12096541
vt 0.24351352 0.1314748
vt 0.24101798 0.120965414
vt 0.21557394 0.120965414
vt 0.24351352 0.17688428
vt 0.21557394 0.17688447
vt 0.2435136 0.17688423
vt 0.2435136 0.1314748
vt 0.24101806 0.12096541
vt 0.23235095 0.20088431
vt 0.24027364 0.20088431
vt 0.24027728 0.19867696
vt 0.23235095 0.20088431
vt 0.23447786 0.19868417
vt 0.2331278 0.19281627
vt 0.23447786 0.19868417
vt 0.2331278 0.19281627
vt 0.24027728 0.19243522
vt 0.23447786 0.19243856
vt 0.23447786 0.19243856
vt 0.23447786 0.18400349
vt 0.23305547 0.18212222
vt 0.24027364 0.18213624
vt 0.24027728 0.18401404
vt 0.23447786 0.18400349
vt 0.23305547 0.18212222
vn 0.7071067 0.7071068 0
vn 0.6787857 -0.09616378 0.7280128
vn 0.57735026 0.57735026 0.57735026
vn 1 0 0
vn 0.7594077 -0.16893303 0.62830067
vn 0.6787858 -0.09616335 -0.72801274
vn 0.57735026 0.5773504 -0.5773501
vn 0.75940746 -0.16893242 -0.62830085
vn 0.7594077 -0.16893303 0.62830067
vn -0.7594077 -0.16893302 0.62830055
vn -0.67878574 -0.09616379 0.72801274
vn 0.6787857 -0.09616378 0.7280128
vn 0.20464416 0.44980448 0.8693657
vn 0.57735026 0.57735026 0.57735026
vn -0.2046489 0.44975096 0.8693922
vn -0.5773501 0.57735026 0.5773504
vn -0.15207444 0.9829317 0.10353164
vn -0.70710695 0.70710653 0
vn 0.1520797 0.98293084 0.10353119
vn 0.30982897 0.9507924 0
vn 0.7071067 0.7071068 0
vn 0.57735026 0.5773504 -0.5773501
vn 0.1520797 0.98293084 -0.10353107
vn 0.2046436 0.44980478 -0.86936563
vn 0.577397 0.5773525 -0.57730114
vn 0.30982864 0.9507924 0
vn 0.1520797 0.98293084 -0.10353107
vn 0.23715273 0.7277396 -0.6435477
vn 0.577397 0.5773525 -0.57730114
vn 0.103388846 0.79440075 -0.59853
vn 0.2046436 0.44980478 -0.86936563
vn -0.10335113 0.7943904 -0.59855026
vn 0.57739675 0.57735294 0.57730114
vn 0.23715296 0.7277397 0.6435476
vn 0.103388794 0.79440045 0.5985305
vn -0.10335113 0.7943902 0.59855056
vn -0.30983204 0.9507913 0
vn -0.57730347 0.5773478 0.5773994
vn -0.23713061 0.72771734 0.6435811
vn -0.30983216 0.9507913 0
vn -0.23713076 0.72771734 -0.643581
vn -0.15207472 0.98293155 -0.103531696
vn -0.57734996 0.5773503 -0.57735056
vn -0.57730395 0.5773475 -0.5773993
vn -0.20464846 0.44975126 -0.8693922
vn -0.6787856 -0.09616337 -0.72801286
vn 0.6787858 -0.09616335 -0.72801274
vn 0.57735026 0.5773504 -0.5773501
vn 0.75940746 -0.16893242 -0.62830085
vn -0.75940734 -0.1689325 -0.6283011
vn -0.67878574 -0.09616379 0.72801274
vn -0.7594077 -0.16893302 0.62830055
vn -1 0 0
vn -0.5773501 0.57735026 0.5773504
vn -0.70710695 0.70710653 0
vn -0.57734996 0.5773503 -0.57735056
vn -0.6787856 -0.09616337 -0.72801286
vn -0.75940734 -0.1689325 -0.6283011
vn -0.7070511 0 0.70716244
vn -1 0 0
vn -0.62819475 0.7780562 0
vn -0.7070511 0 -0.70716244
vn -0.5174557 0.6408994 0.56699884
vn -0 0 1
vn -0.5174556 0.64089966 -0.5669986
vn -0 0 -1
vn 0.77500015 0.6319609 0
vn 0.62577546 0.510278 0.58993345
vn 0.62577546 0.51027805 -0.5899332
vn 0.666569 -0.4423961 0.5999762
vn 0.30321544 -0.7392987 0.6012469
vn 0.37946433 -0.9252063 0
vn 0.833193 -0.5529824 0
vn 0.6665691 -0.4423954 -0.5999766
vn 0.3032168 -0.7392988 -0.60124606
g fcbg_greathole_001_building_05_0
f 3/3/3 2/2/2 1/1/1
f 2/2/2 4/4/4 1/1/1
f 5/5/5 4/4/4 2/2/2
f 4/4/4 6/6/6 1/1/1
f 6/6/6 7/7/7 1/1/1
f 4/4/4 8/8/8 6/6/6
f 11/11/11 10/10/10 9/9/9
f 12/12/12 11/11/11 9/9/9
f 12/12/12 13/13/13 11/11/11
f 14/14/14 13/13/13 12/12/12
f 13/13/13 15/15/15 11/11/11
f 15/15/15 16/16/16 11/11/11
f 17/17/17 16/16/16 15/15/15
f 16/16/16 17/17/17 18/18/18
f 14/14/14 19/19/19 13/13/13
f 19/19/19 14/14/14 20/20/20
f 14/14/14 21/21/21 20/20/20
f 21/21/21 22/22/22 20/20/20
f 22/22/22 23/23/23 20/20/20
f 23/23/23 22/22/22 24/24/24
f 25/25/25 23/23/23 24/24/24
f 20/20/20 26/26/26 19/19/19
f 26/26/26 20/20/20 27/27/27
f 28/28/28 26/26/26 27/27/27
f 28/28/28 27/27/27 29/29/29
f 30/30/30 28/28/28 29/29/29
f 28/28/28 30/30/30 26/26/26
f 30/30/30 29/29/29 31/31/31
f 30/30/30 32/32/32 26/26/26
f 30/30/30 31/31/31 32/32/32
f 19/19/19 33/33/33 13/13/13
f 19/19/19 34/34/34 33/33/33
f 26/26/26 34/34/34 19/19/19
f 34/34/34 35/35/35 33/33/33
f 33/33/33 35/35/35 13/13/13
f 35/35/35 34/34/34 26/26/26
f 35/35/35 36/36/36 13/13/13
f 36/36/36 35/35/35 26/26/26
f 36/36/36 15/15/15 13/13/13
f 32/32/32 37/37/37 26/26/26
f 37/37/37 36/36/36 26/26/26
f 36/36/36 38/38/38 15/15/15
f 38/38/38 17/17/17 15/15/15
f 36/36/36 39/39/39 38/38/38
f 39/39/39 17/17/17 38/38/38
f 39/39/39 36/36/36 37/37/37
f 17/17/17 39/39/39 40/40/40
f 39/39/39 37/37/37 40/40/40
f 17/17/17 40/40/40 18/18/18
f 37/37/37 41/41/41 40/40/40
f 32/32/32 41/41/41 37/37/37
f 40/40/40 42/42/42 18/18/18
f 41/41/41 42/42/42 40/40/40
f 42/42/42 43/43/43 18/18/18
f 32/32/32 44/44/44 41/41/41
f 44/44/44 42/42/42 41/41/41
f 45/45/45 43/43/43 42/42/42
f 44/44/44 45/45/45 42/42/42
f 44/44/44 32/32/32 45/45/45
f 43/43/43 45/45/45 46/46/46
f 31/31/31 45/45/45 32/32/32
f 45/45/45 31/31/31 46/46/46
f 31/31/31 47/47/47 46/46/46
f 31/31/31 48/48/48 47/47/47
f 46/46/46 47/47/47 49/49/49
f 50/50/50 46/46/46 49/49/49
f 53/53/53 52/52/52 51/51/51
f 51/51/51 54/54/54 53/53/53
f 54/54/54 55/55/55 53/53/53
f 53/53/53 55/55/55 56/56/56
f 57/57/57 53/53/53 56/56/56
f 58/58/58 53/53/53 57/57/57
f 61/61/61 60/60/60 59/59/59
f 62/62/62 60/60/60 61/61/61
f 63/63/63 61/61/61 59/59/59
f 59/59/59 64/64/64 63/63/63
f 65/65/65 62/62/62 61/61/61
f 62/62/62 65/65/65 66/66/66
f 67/67/67 61/61/61 63/63/63
f 65/65/65 61/61/61 67/67/67
f 64/64/64 68/68/68 63/63/63
f 68/68/68 67/67/67 63/63/63
f 65/65/65 69/69/69 66/66/66
f 69/69/69 65/65/65 67/67/67
f 68/68/68 64/64/64 70/70/70
f 64/64/64 71/71/71 70/70/70
f 71/71/71 72/72/72 70/70/70
f 73/73/73 67/67/67 68/68/68
f 70/70/70 73/73/73 68/68/68
f 69/69/69 67/67/67 73/73/73
f 72/72/72 73/73/73 70/70/70
f 69/69/69 74/74/74 66/66/66
f 74/74/74 69/69/69 73/73/73
f 74/74/74 73/73/73 72/72/72
f 74/74/74 75/75/75 66/66/66
f 75/75/75 74/74/74 72/72/72
