g fcbg_wastland_001_traffic_lights_02
v -0.6432724 4.64361 0.04972415
v -0.035469055 3.2419224 0.04972445
v -0.6432724 3.2419224 0.04972445
v -0.035469055 4.64361 0.04972415
v -0.6432724 4.64361 -0.052625906
v -0.035469055 4.64361 -0.052625846
v -0.035469055 4.64361 -0.052625846
v -0.035469055 3.2419224 -0.052625548
v -0.6432724 4.64361 -0.052625906
v -0.6432724 3.2419224 -0.052625608
v -0.035469055 3.2419224 -0.052625548
v -0.035469055 4.64361 -0.052625846
v -0.6432724 4.64361 0.04972415
v -0.6432724 3.2419224 0.04972445
v -0.6432724 3.2419224 -0.052625608
v -0.6432724 4.64361 -0.052625906
v -0.6432724 3.2419224 0.04972445
v -0.035469055 3.2419224 0.04972445
v -0.035469055 3.2419224 -0.052625548
v -0.6432724 3.2419224 -0.052625608
v 0.5656204 0.055480957 4.7961466E-06
v 0.2789688 0.055480957 0.16550437
v 0.4700699 0.055480957 0.16550437
v 0.18341827 0.055480957 4.825949E-06
v 0.2789688 0.055480957 -0.16549471
v 0.4700699 0.055480957 -0.16549473
v 0.4700699 0.055480957 0.16550437
v 0.5656204 5.4270077 -3.9307906E-07
v 0.5656204 0.055480957 4.7961466E-06
v 0.4700699 5.4270077 0.16549924
v 0.2789688 0.055480957 0.16550437
v 0.6432724 5.4270077 -3.9307906E-07
v 0.2789688 5.4270077 0.16549924
v 0.18341827 0.055480957 4.825949E-06
v 0.5088959 5.4270077 0.23274997
v 0.6432724 5.536833 -4.4788294E-07
v 0.18341827 5.4270077 -3.6327674E-07
v 0.2789688 0.055480957 -0.16549471
v 0.24014282 5.4270077 0.23274997
v 0.5088959 5.536833 0.23274991
v 0.5422058 5.536785 -4.478852E-07
v 0.2789688 5.4270077 -0.16549988
v 0.4700699 0.055480957 -0.16549473
v 0.10575867 5.4270077 -3.6327674E-07
v 0.24014282 5.536833 0.23274991
v 0.45835876 5.536785 0.14522323
v 0.5422058 5.602623 -5.642164E-07
v 0.45835876 5.602623 0.14522317
v 0.2906723 5.536785 0.14522323
v 0.2906723 5.602623 0.14522317
v 0.4700699 5.4270077 -0.16549991
v 0.5656204 0.055480957 4.7961466E-06
v 0.5656204 5.4270077 -3.9307906E-07
v 0.2401352 5.4270077 -0.23275062
v 0.10575867 5.536833 -4.4788294E-07
v 0.20682526 5.536785 -4.180829E-07
v 0.20682526 5.602623 -5.642164E-07
v 0.5088959 5.4270077 -0.2327507
v 0.6432724 5.4270077 -3.9307906E-07
v 0.2401352 5.536833 -0.23275082
v 0.2906723 5.536785 -0.1452241
v 0.2906723 5.602623 -0.14522418
v 0.5088959 5.536833 -0.2327509
v 0.6432724 5.536833 -4.4788294E-07
v 0.45835876 5.536785 -0.14522414
v 0.45835876 5.602623 -0.1452242
v 0.5422058 5.536785 -4.478852E-07
v 0.5422058 5.602623 -5.642164E-07
v -0.07511902 3.4209156 -0.023008171
v 0.21031189 3.4209156 -0.023008171
v 0.21031189 4.472513 -0.023008393
v -0.07511902 4.472513 -0.023008393
v -0.07511902 3.4209156 0.020107474
v 0.21031189 3.4209156 -0.023008171
v -0.07511902 3.4209156 -0.023008171
v 0.21031189 3.4209156 0.020107474
v 0.21031189 4.472513 0.020107223
v -0.07511902 4.472513 0.020107223
v -0.07511902 3.4209156 -0.023008171
v -0.07511902 4.472513 -0.023008393
v -0.07511902 4.472513 -0.023008393
v 0.21031189 4.472513 -0.023008393
v 0.2906723 5.602623 0.14522317
v 0.37451935 5.602623 -5.642164E-07
v 0.45835876 5.602623 0.14522317
v 0.20682526 5.602623 -5.642164E-07
v 0.5422058 5.602623 -5.642164E-07
v 0.2906723 5.602623 -0.14522418
v 0.45835876 5.602623 -0.1452242
vt 0.17653483 0.9044895
vt 0.1549105 0.8554802
vt 0.17653483 0.8554814
vt 0.1549105 0.9044894
vt 0.17653483 0.906255
vt 0.1549105 0.90625393
vt 0.15270698 0.9044895
vt 0.15271491 0.8554802
vt 0.17653483 0.8554814
vt 0.17653483 0.9044895
vt 0.1549105 0.9044894
vt 0.1549105 0.8554802
vt 0.1549105 0.9044894
vt 0.1549105 0.8554801
vt 0.15271491 0.8554802
vt 0.1527229 0.9044894
vt 0.17653483 0.85271895
vt 0.15481472 0.8527175
vt 0.1549105 0.8554801
vt 0.17653483 0.8554814
vt 0.2447191 0.93783116
vt 0.24319576 0.9464701
vt 0.24645112 0.9425905
vt 0.23820843 0.9455903
vt 0.23647623 0.9408317
vt 0.2397316 0.9369521
vt 0.18359889 0.8732745
vt 0.27024868 0.9475305
vt 0.18094961 0.87661034
vt 0.27289793 0.94419473
vt 0.18624735 0.8699398
vt 0.2710749 0.94965607
vt 0.2755464 0.94086
vt 0.18889673 0.8666038
vt 0.27420086 0.94571996
vt 0.2731649 0.95131594
vt 0.27819577 0.937524
vt 0.18624735 0.8699398
vt 0.27732635 0.9417845
vt 0.2762909 0.9473798
vt 0.2759496 0.95046806
vt 0.2755464 0.94086
vt 0.18359889 0.8732745
vt 0.28045258 0.9378481
vt 0.27941638 0.9434443
vt 0.27808255 0.9477824
vt 0.27886567 0.9527613
vt 0.28099865 0.9500756
vt 0.28021505 0.9450972
vt 0.28313115 0.9473905
vt 0.27289793 0.94419473
vt 0.18094961 0.87661034
vt 0.27024868 0.9475305
vt 0.27732635 0.9417845
vt 0.28254262 0.939508
vt 0.28234714 0.9424126
vt 0.28526318 0.9447059
vt 0.27420086 0.94571996
vt 0.2710749 0.94965607
vt 0.27941638 0.9434443
vt 0.28021505 0.9450972
vt 0.28313115 0.9473905
vt 0.2762909 0.9473798
vt 0.2731649 0.95131594
vt 0.27808255 0.9477824
vt 0.28099865 0.9500756
vt 0.2759496 0.95046806
vt 0.27886567 0.9527613
vt 0.3155662 0.9632093
vt 0.29176074 0.94323415
vt 0.28401184 0.95246893
vt 0.30782083 0.9724408
vt 0.29176074 0.94323415
vt 0.31630936 0.9623246
vt 0.29250032 0.9423527
vt 0.3155662 0.9632093
vt 0.30782083 0.9724408
vt 0.28401184 0.95246893
vt 0.29099318 0.94259006
vt 0.2832447 0.9518253
vt 0.2831688 0.9534736
vt 0.30697787 0.97344553
vt 0.24319576 0.9464701
vt 0.24146731 0.9417065
vt 0.23820843 0.9455903
vt 0.24645112 0.9425905
vt 0.23647623 0.9408317
vt 0.2447191 0.93783116
vt 0.2397316 0.9369521
vn -0.5773502 0.5773503 0.5773502
vn 0.57735026 -0.5773502 0.5773504
vn -0.5773502 -0.5773502 0.5773503
vn 0.57735026 0.5773504 0.5773502
vn -0.5773502 0.5773502 -0.5773504
vn 0.5773503 0.5773502 -0.5773504
vn 0.5773503 0.5773502 -0.5773504
vn 0.5773503 -0.5773504 -0.5773502
vn -0.5773502 0.5773502 -0.5773504
vn -0.5773502 -0.5773503 -0.57735026
vn 0.5773503 -0.5773504 -0.5773502
vn 0.5773503 0.5773502 -0.5773504
vn -0.5773502 0.5773503 0.5773502
vn -0.5773502 -0.5773502 0.5773503
vn -0.5773502 -0.5773503 -0.57735026
vn -0.5773502 0.5773502 -0.5773504
vn -0.5773502 -0.5773502 0.5773503
vn 0.57735026 -0.5773502 0.5773504
vn 0.5773503 -0.5773504 -0.5773502
vn -0.5773502 -0.5773503 -0.57735026
vn 0.79240555 -0.6099947 0
vn -0.396204 -0.60999376 0.68624336
vn 0.39620408 -0.6099938 0.6862433
vn -0.79240555 -0.60999465 0
vn -0.39620408 -0.6099944 -0.6862429
vn 0.39620394 -0.6099944 -0.6862429
vn 0.39620408 -0.6099938 0.6862433
vn 0.5447061 -0.838627 0
vn 0.79240555 -0.6099947 0
vn 0.27235305 -0.83862805 0.47172737
vn -0.396204 -0.60999376 0.68624336
vn 0.7924051 -0.60999525 0
vn -0.27235302 -0.83862805 0.47172737
vn -0.79240555 -0.60999465 0
vn 0.39620525 -0.6099937 0.68624276
vn 0.7922981 0.6101342 0
vn -0.54470605 -0.838627 0
vn -0.39620408 -0.6099944 -0.6862429
vn -0.39619616 -0.60999537 0.68624645
vn 0.39615166 0.6101332 0.6861497
vn 0.5444221 0.8388114 0
vn -0.2723526 -0.8386284 -0.47172698
vn 0.39620394 -0.6099944 -0.6862429
vn -0.79240644 -0.60999346 0
vn -0.3961426 0.6101349 0.6861534
vn 0.27221155 0.8388073 0.47149032
vn 0.79240704 0.6099927 0
vn 0.39619884 0.6099954 0.68624485
vn -0.27221152 0.83880734 0.4714903
vn -0.3961988 0.6099955 0.6862449
vn 0.2723525 -0.8386285 -0.47172695
vn 0.79240555 -0.6099947 0
vn 0.5447061 -0.838627 0
vn -0.39620528 -0.6099943 -0.6862421
vn -0.7922995 0.6101324 0
vn -0.5444221 0.83881146 0
vn -0.79240704 0.6099927 0
vn 0.3962051 -0.6099943 -0.6862422
vn 0.7924051 -0.60999525 0
vn -0.3961518 0.6101324 -0.6861503
vn -0.27221218 0.8388068 -0.471491
vn -0.39619893 0.60999465 -0.68624556
vn 0.39615163 0.6101324 -0.6861505
vn 0.7922981 0.6101342 0
vn 0.27221194 0.83880687 -0.47149083
vn 0.3961989 0.60999465 -0.6862456
vn 0.5444221 0.8388114 0
vn 0.79240704 0.6099927 0
vn -0.5773502 -0.5773503 -0.5773502
vn -0 -0.7071068 -0.7071067
vn -0 0.70710665 -0.7071068
vn -0.5773502 0.5773502 -0.5773503
vn -0.57735026 -0.5773502 0.5773504
vn -0 -0.7071068 -0.7071067
vn -0.5773502 -0.5773503 -0.5773502
vn -0 -0.70710665 0.7071069
vn -0 0.7071068 0.70710665
vn -0.57735026 0.5773504 0.5773502
vn -0.5773502 -0.5773503 -0.5773502
vn -0.5773502 0.5773502 -0.5773503
vn -0.5773502 0.5773502 -0.5773503
vn -0 0.70710665 -0.7071068
vn -0.3961988 0.6099955 0.6862449
vn -0 1 0
vn 0.39619884 0.6099954 0.68624485
vn -0.79240704 0.6099927 0
vn 0.79240704 0.6099927 0
vn -0.39619893 0.60999465 -0.68624556
vn 0.3961989 0.60999465 -0.6862456
g fcbg_wastland_001_traffic_lights_02_0
f 3/3/3 2/2/2 1/1/1
f 2/2/2 4/4/4 1/1/1
f 5/5/5 1/1/1 4/4/4
f 6/6/6 5/5/5 4/4/4
f 7/7/7 4/4/4 2/2/2
f 8/8/8 7/7/7 2/2/2
f 11/11/11 10/10/10 9/9/9
f 12/12/12 11/11/11 9/9/9
f 15/15/15 14/14/14 13/13/13
f 16/16/16 15/15/15 13/13/13
f 19/19/19 18/18/18 17/17/17
f 20/20/20 19/19/19 17/17/17
f 23/23/23 22/22/22 21/21/21
f 22/22/22 24/24/24 21/21/21
f 24/24/24 25/25/25 21/21/21
f 25/25/25 26/26/26 21/21/21
f 29/29/29 28/28/28 27/27/27
f 28/28/28 30/30/30 27/27/27
f 27/27/27 30/30/30 31/31/31
f 28/28/28 32/32/32 30/30/30
f 30/30/30 33/33/33 31/31/31
f 31/31/31 33/33/33 34/34/34
f 32/32/32 35/35/35 30/30/30
f 30/30/30 35/35/35 33/33/33
f 32/32/32 36/36/36 35/35/35
f 33/33/33 37/37/37 34/34/34
f 34/34/34 37/37/37 38/38/38
f 35/35/35 39/39/39 33/33/33
f 33/33/33 39/39/39 37/37/37
f 36/36/36 40/40/40 35/35/35
f 35/35/35 40/40/40 39/39/39
f 36/36/36 41/41/41 40/40/40
f 37/37/37 42/42/42 38/38/38
f 38/38/38 42/42/42 43/43/43
f 39/39/39 44/44/44 37/37/37
f 37/37/37 44/44/44 42/42/42
f 40/40/40 45/45/45 39/39/39
f 39/39/39 45/45/45 44/44/44
f 41/41/41 46/46/46 40/40/40
f 40/40/40 46/46/46 45/45/45
f 41/41/41 47/47/47 46/46/46
f 47/47/47 48/48/48 46/46/46
f 46/46/46 48/48/48 49/49/49
f 46/46/46 49/49/49 45/45/45
f 48/48/48 50/50/50 49/49/49
f 42/42/42 51/51/51 43/43/43
f 43/43/43 51/51/51 52/52/52
f 51/51/51 53/53/53 52/52/52
f 44/44/44 54/54/54 42/42/42
f 42/42/42 54/54/54 51/51/51
f 45/45/45 55/55/55 44/44/44
f 45/45/45 49/49/49 55/55/55
f 44/44/44 55/55/55 54/54/54
f 49/49/49 50/50/50 56/56/56
f 49/49/49 56/56/56 55/55/55
f 50/50/50 57/57/57 56/56/56
f 51/51/51 58/58/58 53/53/53
f 54/54/54 58/58/58 51/51/51
f 58/58/58 59/59/59 53/53/53
f 55/55/55 60/60/60 54/54/54
f 55/55/55 56/56/56 60/60/60
f 54/54/54 60/60/60 58/58/58
f 56/56/56 57/57/57 61/61/61
f 56/56/56 61/61/61 60/60/60
f 57/57/57 62/62/62 61/61/61
f 58/58/58 63/63/63 59/59/59
f 60/60/60 63/63/63 58/58/58
f 60/60/60 61/61/61 63/63/63
f 63/63/63 64/64/64 59/59/59
f 61/61/61 62/62/62 65/65/65
f 61/61/61 65/65/65 63/63/63
f 63/63/63 65/65/65 64/64/64
f 62/62/62 66/66/66 65/65/65
f 65/65/65 67/67/67 64/64/64
f 65/65/65 66/66/66 67/67/67
f 66/66/66 68/68/68 67/67/67
f 71/71/71 70/70/70 69/69/69
f 72/72/72 71/71/71 69/69/69
f 75/75/75 74/74/74 73/73/73
f 74/74/74 76/76/76 73/73/73
f 76/76/76 77/77/77 73/73/73
f 77/77/77 78/78/78 73/73/73
f 79/79/79 73/73/73 78/78/78
f 80/80/80 79/79/79 78/78/78
f 81/81/81 78/78/78 77/77/77
f 82/82/82 81/81/81 77/77/77
f 85/85/85 84/84/84 83/83/83
f 83/83/83 84/84/84 86/86/86
f 87/87/87 84/84/84 85/85/85
f 86/86/86 84/84/84 88/88/88
f 89/89/89 84/84/84 87/87/87
f 88/88/88 84/84/84 89/89/89
