g fcbg_iceland_003_ice_01
v -41.822453 0.118359566 102.62115
v -50.7554 0.11836039 85.105545
v -44.394726 0.118365034 63.00525
v -16.073343 0.11704614 51.64054
v -35.241085 0.11728002 52.771553
v -12.825188 0.042653643 58.25532
v -10.5625 -0.1118158 80.90405
v -7.506097 -0.18704134 88.046616
v -2.335783 -0.27394834 93.03798
v -9.32699 0.11835475 122.2612
v 30.016865 -0.084942855 135.2048
v 57.278374 -0.6251243 98.99919
v 129.14891 -0.084940284 194.68045
v 156.41043 -0.6251217 158.47484
v 135.75522 -0.62836444 -0.43664935
v 234.88727 -0.6283619 59.038998
v 193.86646 -0.62836236 -83.13981
v 292.9985 -0.6283598 -23.664162
v 68.783325 -0.045695305 -47.04108
v 133.85675 -1.2237121 -123.63065
v 56.79387 -1.6163871 -48.096252
v 48.263474 -0.132897 -43.009426
v -8.1856 -2.952948 -63.6557
v 37.830452 -0.39423606 -31.834776
v 49.872955 -2.9529479 -174.33064
v -77.65874 -2.9529488 -239.26451
v -132.99278 -2.952949 -120.59387
v -65.98346 -2.952948 -38.771484
v -23.814629 -2.9529483 -41.709106
v -200.53743 -16.20815 50.49411
v -49.228638 -9.348963 0.6276848
v -41.413147 -2.9529476 -11.643555
v -38.49492 -12.599123 57.89686
v -51.081833 -13.662048 76.37844
v -40.273247 -16.20815 104.627686
v 62.675167 -0.45239583 -12.455446
v 45.23571 -0.37985343 -19.020737
v 65.385376 -0.46653584 -6.4912004
v 38.835186 -0.35568443 -16.564125
v 39.069374 -0.37892845 10.39049
v 35.43726 -0.33607927 -17.56046
v 28.778057 -0.18387273 -23.527597
v 45.22393 -0.37863448 -18.685778
v 62.101624 -0.4523653 -11.75621
v 36.643887 -0.36224896 -9.783352
v 35.206 -0.32989347 -13.492852
v 36.37787 -0.35263807 6.7481327
v -2.3929176 0.11705084 35.975166
v 35.970966 -0.35204792 7.109255
v 26.274284 -0.17331862 -7.0382175
v 35.744583 -0.2890066 -9.584709
v -15.42141 0.11704636 50.894016
v 2.1346073 0.0391167 10.659751
v -1.9000282 -0.12205041 65.47437
v 29.801329 -0.22071065 -11.502143
v 33.96684 -0.25498492 -16.47784
v 26.156574 -0.16073611 -9.878802
v 12.076237 0.097349 -3.7048059
v 15.646561 0.1212825 -11.477119
v 28.36485 -0.17097178 -16.40585
v 26.892292 -0.14005056 -21.797073
v 28.201408 -0.15711984 -19.45456
v 28.226673 -0.19942142 -13.16313
v 26.348927 -0.16391698 -9.840924
v 28.534513 -0.19811283 -16.387089
v 30.01138 -0.21056494 -15.166061
v 30.21139 -0.22683069 -15.262995
v 28.399858 -0.18545312 -19.57629
v 28.525335 -0.19724989 -16.604475
v 28.778057 -0.18387273 -23.527597
v 26.892292 -0.14005056 -21.797073
v 28.399858 -0.18545312 -19.57629
v 27.646076 -1.2303481 -20.686682
v 26.892292 -0.14005056 -21.797073
v 28.525335 -0.19724989 -16.604475
v 28.0143 -1.8455694 -16.534214
v 30.21139 -0.22683069 -15.262995
v 30.111385 -1.1511321 -15.214528
v 29.801329 -0.22071065 -11.502143
v 29.801329 -0.3378372 -11.502143
v 30.01138 -0.21056494 -15.166061
v 30.111385 -1.1511321 -15.214528
v 28.534513 -0.19811283 -16.387089
v 28.0143 -1.8455694 -16.534214
v 28.226673 -0.19942142 -13.16313
v 27.272701 -3.0951428 -13.265736
v 25.833302 -0.98587763 -9.879357
v 26.348927 -0.16391698 -9.840924
v 26.274284 -0.17331862 -7.0382175
v 39.069374 -0.37892845 10.39049
v 35.324287 -1.0986401 6.9797506
v 36.37787 -0.35263807 6.7481327
v 35.590305 -4.268041 -9.551734
v 36.643887 -0.36224896 -9.783352
v 34.15242 -4.0080247 -13.261234
v 35.206 -0.32989347 -13.492852
v 33.730976 -3.5240984 -16.82302
v 35.43726 -0.33607927 -17.56046
v 28.778057 -1.7737468 -23.527597
v 28.778057 -0.18387273 -23.527597
v 45.23571 -0.37985343 -19.020737
v 45.0942 -4.1838083 -18.079803
v 38.835186 -0.35568443 -16.564125
v 62.675167 -0.45239583 -12.455446
v 61.699936 -2.5496247 -11.352765
v 65.385376 -0.46653584 -6.4912004
v -1.9000282 -0.12205041 65.47437
v -11.580371 -4.039034 71.04727
v -10.597754 -0.048735045 69.88735
v -12.859265 -3.4870567 58.630623
v -11.886125 0.032822408 58.115547
v -15.42141 -4.4470105 50.894016
v -10.616707 -0.055858444 71.17703
v -11.580371 -4.039034 71.04727
v -9.749572 -0.118413165 80.44678
v -10.7227125 -4.3941507 80.96185
v -6.9568925 -0.19127779 87.698906
v -7.930033 -3.8145506 88.21398
vt -0.06363572 0.28234047
vt -0.016638529 0.38185647
vt 0.103011295 0.4293324
vt 0.25028372 0.34280205
vt 0.17966615 0.42382112
vt 0.23210655 0.30577248
vt 0.13954541 0.21822256
vt 0.118374474 0.18023568
vt 0.11396648 0.14024952
vt -0.039410364 0.0711965
vt 0.03792591 -0.14735906
vt 0.29161432 -0.14417855
vt 0.03792591 -0.7324268
vt 0.29161432 -0.7292463
vt 1.0008184 -0.1514811
vt 1.0008184 -0.73654884
vt 1.5793973 -0.12145404
vt 1.5793973 -0.7065218
vt 0.9779532 0.30530998
vt 1.5304317 0.2918575
vt 0.9424117 0.36335477
vt 0.88950527 0.38207647
vt 0.78591716 0.6946982
vt 0.80449986 0.3897597
vt 1.4585326 0.8262044
vt 1.2888737 1.4465542
vt 0.60830224 1.3253522
vt 0.4936324 0.78573734
vt 0.63834953 0.6862178
vt -0.5252503 0.989289
vt 0.38810116 0.52893937
vt 0.48759747 0.55107236
vt 0.17605023 0.22052835
vt 0.034968793 0.19389385
vt -0.04517466 0.016482174
vt 0.8037062 0.21339731
vt 0.7730919 0.3131079
vt 0.7865675 0.18097985
vt 0.7402541 0.33301258
vt 0.62172586 0.23975234
vt 0.7330861 0.351508
vt 0.7367169 0.4014363
vt 0.7716811 0.3127267
vt 0.7986528 0.21355873
vt 0.7027723 0.31954384
vt 0.71427906 0.33861086
vt 0.6286448 0.26414052
vt 0.36648914 0.33583665
vt 0.6256527 0.26470664
vt 0.6551159 0.35608926
vt 0.6988129 0.32285073
vt 0.25582144 0.3424701
vt 0.4941004 0.40244398
vt 0.23753116 0.23267141
vt 0.6869621 0.35573858
vt 0.7232569 0.35431916
vt 0.6672934 0.36633387
vt 0.59174764 0.40758622
vt 0.6383905 0.41837457
vt 0.70376194 0.37888744
vt 0.72259665 0.40386873
vt 0.7167048 0.3900468
vt 0.688927 0.36840117
vt 0.6677843 0.36535168
vt 0.7042614 0.37806883
vt 0.7039079 0.36734962
vt 0.7050219 0.36679503
vt 0.7179237 0.38958436
vt 0.7051927 0.37885377
vt 0.7367169 0.4014363
vt 0.72259665 0.40386873
vt 0.08810133 0.5170596
vt 0.06141365 0.49390012
vt 0.032269895 0.5150583
vt 0.15041165 0.5128899
vt 0.15136193 0.47852445
vt 0.19547553 0.5116797
vt 0.19418533 0.49225238
vt 0.2739661 0.50156987
vt 0.27365103 0.49915028
vt 0.35012424 0.49188802
vt 0.34869942 0.47213382
vt 0.3901997 0.49124402
vt 0.39095673 0.45671818
vt 0.45769247 0.49712083
vt 0.46297193 0.4367762
vt 0.53865206 0.4876893
vt 0.53715336 0.5048184
vt 0.59559757 0.5097341
vt 0.6021421 0.5785065
vt 0.5357635 0.56795794
vt 0.5357635 0.5788918
vt 0.2934355 0.52150506
vt 0.2934355 0.57875097
vt 0.23512492 0.525316
vt 0.23512492 0.5792251
vt 0.17541105 0.5324088
vt 0.17541105 0.5791345
vt 0.044357285 0.5580631
vt 0.044357285 0.58136535
vt 0.107554466 0.6289596
vt 0.107554466 0.59353167
vt 0.043703433 0.6291847
vt 0.28110445 0.62828404
vt 0.28110445 0.60875154
vt 0.34211835 0.6281523
vt 0.16339868 0.20892717
vt 0.17486054 0.2654388
vt 0.18838306 0.2562736
vt 0.22625676 0.31130806
vt 0.23577213 0.30190763
vt 0.23825297 0.36048377
vt 0.18271418 0.25201622
vt 0.17980015 0.2698472
vt 0.14407767 0.21592988
vt 0.13119406 0.22898996
vt 0.1217943 0.17899339
vt 0.111769296 0.1895824
vn 0.0059359553 0.99998105 -0.001645543
vn -0 1 0
vn 3.484467E-05 1 -1.4256932E-05
vn 0.0053340993 0.99998224 0.0026626287
vn 3.9997813E-05 1 -1.6375343E-05
vn 0.011315146 0.9999198 0.005689254
vn 0.011315149 0.9999198 0.0056892554
vn 0.011315147 0.9999198 0.0056892564
vn -0.04683918 0.9978516 0.045807265
vn 0.008106398 0.9999012 -0.011483703
vn 0.007501646 0.99991953 -0.010237631
vn 0.00626272 0.99998 -0.00096914236
vn 0.0061654425 0.99992824 -0.0102764
vn 1.3250237E-05 1 -2.2128153E-05
vn 0.0024422233 0.999997 -0.00032088172
vn 1.3250237E-05 1 -2.2128152E-05
vn 0.0032490534 0.99998283 -0.004882589
vn -0 1 0
vn -0.045795113 0.99743015 -0.055098925
vn -0.008726924 0.9999093 -0.010266117
vn -0.064146176 0.9758251 -0.20892772
vn -0.013382088 0.99919003 -0.03795084
vn -0.0049705165 0.9999833 -0.0029625047
vn 0.005604807 0.99997234 0.004883629
vn -0.008006236 0.9999566 -0.0047718384
vn -0 1 0
vn -0.021966321 0.9995969 0.017989546
vn -0.022844536 0.99742895 0.06792269
vn -0 1 0
vn -0.039929617 0.9960711 0.07904406
vn -0.019938014 0.9916317 0.1275504
vn -0.016830105 0.9857815 0.16718775
vn -0.02463582 0.99831367 0.05256259
vn -0.029590769 0.9969078 0.07279604
vn -0.03475551 0.9940849 0.102894805
vn -0.26648238 0.9181243 0.29331735
vn -0.001270458 0.8749943 0.48413154
vn -0.045061126 0.99874616 0.021806126
vn 0.034347538 0.99634176 0.07825195
vn -0.011641529 0.9998337 0.0140332
vn -0.3688384 0.91729754 0.15007792
vn -0.40696234 0.8123635 0.41766873
vn 0.004049223 0.99999166 0.00051354105
vn 0.0040492234 0.99999166 0.000513541
vn -0.5122381 0.8542662 0.088551685
vn -0.6043103 0.7849701 0.13649586
vn -0.46515253 0.8782357 0.11106326
vn 0.00957314 0.9999511 0.0024595212
vn 0.012575569 0.9999207 0.0007343354
vn -0.032494273 0.99947196 -4.654993E-05
vn 0.011878656 0.9999269 0.0022734643
vn -0.5338369 0.8164117 0.22020474
vn 0.0100015225 0.9999491 0.0013216544
vn -0.0007872208 0.9998983 0.014238369
vn 0.013646815 0.9998659 -0.009051712
vn 0.010316639 0.9999436 0.0025194518
vn 0.020500349 0.9997738 0.0056607667
vn 0.02792347 0.99937004 0.021906285
vn 0.024500513 0.9996419 0.010759427
vn 0.022774322 0.9997352 0.0033093428
vn 0.020811863 0.9997776 0.0034161082
vn 0.005429345 0.9999763 0.004252367
vn -0.49309343 0.85399675 -0.16597694
vn -0.511784 0.84503806 -0.1548806
vn -0.2013291 0.6384337 -0.74287885
vn 0.7047827 0.6269792 -0.3319313
vn -0.44918397 0.8699109 0.2036883
vn -0.49125895 0.8632813 0.11580191
vn -0.5688775 0.7399393 0.35898203
vn 0.018773476 0.99982136 0.002196794
vn -0.2767435 0.9383727 0.20705028
vn -0.49125895 0.8632813 0.11580191
vn -0.89613867 0.14030665 0.4210102
vn -0.2767435 0.9383727 0.20705028
vn -0.5688775 0.7399393 0.35898203
vn -0.92362696 0.38329154 0.0009679338
vn -0.44918397 0.8699109 0.2036883
vn -0.34930128 0.9368371 -0.018022258
vn 0.013646815 0.9998659 -0.009051712
vn 0.01963615 0.97019786 -0.24151707
vn 0.7047827 0.6269792 -0.3319313
vn -0.34930128 0.9368371 -0.018022258
vn -0.2013291 0.6384337 -0.74287885
vn -0.92362696 0.38329154 0.0009679338
vn -0.49309343 0.85399675 -0.16597694
vn -0.899679 0.30593222 -0.31142125
vn -0.82873684 0.47256547 -0.2997949
vn -0.511784 0.84503806 -0.1548806
vn -0.032494273 0.99947196 -4.654993E-05
vn -0.011641529 0.9998337 0.0140332
vn -0.79086787 0.6001269 0.11989873
vn -0.46515253 0.8782357 0.11106326
vn -0.9245218 0.34482482 0.1623434
vn -0.5122381 0.8542662 0.088551685
vn -0.92468745 0.27687606 0.26132905
vn -0.6043103 0.7849701 0.13649586
vn -0.8575498 0.38309687 0.34328568
vn -0.3688384 0.91729754 0.15007792
vn -0.66717607 0.34051707 0.6625136
vn -0.40696234 0.8123635 0.41766873
vn -0.001270458 0.8749943 0.48413154
vn -0.057215795 0.3213514 0.9452299
vn 0.034347538 0.99634176 0.07825195
vn -0.26648238 0.9181243 0.29331735
vn -0.56558394 0.46848252 0.67870384
vn -0.045061126 0.99874616 0.021806126
vn -0.0007872208 0.9998983 0.014238369
vn -0.94251627 0.32745826 0.066588864
vn -0.3062635 0.6915235 0.6542156
vn -0.94901067 0.2078549 0.2370128
vn -0.55964404 0.8147089 0.15181544
vn -0.9203648 0.13419692 0.36731443
vn -0.63867867 0.69536 -0.32949066
vn -0.94251627 0.32745826 0.066588864
vn -0.6233259 0.76849633 0.14449292
vn -0.94233304 0.25157234 0.22072554
vn -0.5437153 0.7709772 0.33161417
vn -0.8440156 0.27716246 0.45914978
g fcbg_iceland_003_ice_01_0
f 3/3/3 2/2/2 1/1/1
f 3/3/3 1/1/1 4/4/4
f 5/5/5 3/3/3 4/4/4
f 4/4/4 1/1/1 6/6/6
f 6/6/6 1/1/1 7/7/7
f 7/7/7 1/1/1 8/8/8
f 1/1/1 9/9/9 8/8/8
f 10/10/10 9/9/9 1/1/1
f 11/11/11 9/9/9 10/10/10
f 12/12/12 9/9/9 11/11/11
f 11/11/11 13/13/13 12/12/12
f 13/13/13 14/14/14 12/12/12
f 12/12/12 14/14/14 15/15/15
f 14/14/14 16/16/16 15/15/15
f 15/15/15 16/16/16 17/17/17
f 16/16/16 18/18/18 17/17/17
f 15/15/15 17/17/17 19/19/19
f 17/17/17 20/20/20 19/19/19
f 19/19/19 20/20/20 21/21/21
f 21/21/21 22/22/22 19/19/19
f 21/21/21 20/20/20 23/23/23
f 22/22/22 24/24/24 19/19/19
f 24/24/24 15/15/15 19/19/19
f 20/20/20 25/25/25 23/23/23
f 25/25/25 26/26/26 23/23/23
f 26/26/26 27/27/27 23/23/23
f 27/27/27 28/28/28 23/23/23
f 28/28/28 29/29/29 23/23/23
f 27/27/27 30/30/30 28/28/28
f 30/30/30 31/31/31 28/28/28
f 31/31/31 32/32/32 28/28/28
f 30/30/30 33/33/33 31/31/31
f 34/34/34 33/33/33 30/30/30
f 35/35/35 34/34/34 30/30/30
f 15/15/15 24/24/24 36/36/36
f 24/24/24 37/37/37 36/36/36
f 38/38/38 15/15/15 36/36/36
f 39/39/39 37/37/37 24/24/24
f 40/40/40 15/15/15 38/38/38
f 12/12/12 15/15/15 40/40/40
f 41/41/41 39/39/39 24/24/24
f 42/42/42 41/41/41 24/24/24
f 43/43/43 39/39/39 38/38/38
f 44/44/44 43/43/43 38/38/38
f 41/41/41 45/45/45 39/39/39
f 39/39/39 45/45/45 38/38/38
f 45/45/45 40/40/40 38/38/38
f 45/45/45 41/41/41 46/46/46
f 47/47/47 40/40/40 45/45/45
f 48/48/48 12/12/12 40/40/40
f 49/49/49 48/48/48 40/40/40
f 50/50/50 48/48/48 49/49/49
f 50/50/50 49/49/49 51/51/51
f 48/48/48 52/52/52 12/12/12
f 53/53/53 48/48/48 50/50/50
f 12/12/12 52/52/52 54/54/54
f 9/9/9 12/12/12 54/54/54
f 55/55/55 50/50/50 51/51/51
f 55/55/55 51/51/51 56/56/56
f 57/57/57 53/53/53 50/50/50
f 58/58/58 53/53/53 57/57/57
f 59/59/59 58/58/58 57/57/57
f 59/59/59 57/57/57 60/60/60
f 61/61/61 59/59/59 60/60/60
f 62/62/62 61/61/61 60/60/60
f 50/50/50 55/55/55 63/63/63
f 64/64/64 50/50/50 63/63/63
f 65/65/65 63/63/63 55/55/55
f 66/66/66 65/65/65 55/55/55
f 67/67/67 55/55/55 56/56/56
f 67/67/67 56/56/56 68/68/68
f 69/69/69 67/67/67 68/68/68
f 68/68/68 56/56/56 70/70/70
f 71/71/71 68/68/68 70/70/70
f 74/74/74 73/73/73 72/72/72
f 72/72/72 73/73/73 75/75/75
f 73/73/73 76/76/76 75/75/75
f 75/75/75 76/76/76 77/77/77
f 76/76/76 78/78/78 77/77/77
f 77/77/77 78/78/78 79/79/79
f 78/78/78 80/80/80 79/79/79
f 79/79/79 80/80/80 81/81/81
f 80/80/80 82/82/82 81/81/81
f 81/81/81 82/82/82 83/83/83
f 82/82/82 84/84/84 83/83/83
f 83/83/83 84/84/84 85/85/85
f 84/84/84 86/86/86 85/85/85
f 86/86/86 87/87/87 85/85/85
f 85/85/85 87/87/87 88/88/88
f 87/87/87 89/89/89 88/88/88
f 92/92/92 91/91/91 90/90/90
f 93/93/93 91/91/91 92/92/92
f 94/94/94 93/93/93 92/92/92
f 95/95/95 93/93/93 94/94/94
f 96/96/96 95/95/95 94/94/94
f 97/97/97 95/95/95 96/96/96
f 98/98/98 97/97/97 96/96/96
f 99/99/99 97/97/97 98/98/98
f 100/100/100 99/99/99 98/98/98
f 103/103/103 102/102/102 101/101/101
f 101/101/101 102/102/102 104/104/104
f 102/102/102 105/105/105 104/104/104
f 105/105/105 106/106/106 104/104/104
f 109/109/109 108/108/108 107/107/107
f 110/110/110 108/108/108 109/109/109
f 111/111/111 110/110/110 109/109/109
f 112/112/112 110/110/110 111/111/111
f 52/52/52 112/112/112 111/111/111
f 109/109/109 54/54/54 111/111/111
f 54/54/54 52/52/52 111/111/111
f 54/54/54 114/114/114 113/113/113
f 113/113/113 9/9/9 54/54/54
f 113/113/113 114/114/114 115/115/115
f 9/9/9 113/113/113 115/115/115
f 114/114/114 116/116/116 115/115/115
f 117/117/117 9/9/9 115/115/115
f 115/115/115 116/116/116 117/117/117
f 118/118/118 9/9/9 117/117/117
f 116/116/116 118/118/118 117/117/117
