g fcbg_desertcrystal_billboard _01
v 1.6222715 5.552044 -0.3550942
v 1.6222715 5.552044 -0.4912007
v 1.6222715 4.77607 -0.4912007
v 1.6222715 4.77607 -0.3550942
v -1.6222696 4.77607 -0.3550942
v -1.6222696 5.552044 -0.4912007
v -1.6222696 5.552044 -0.3550942
v -1.6222696 4.77607 -0.4912007
v 1.6222715 4.77607 -0.4912007
v 1.6222715 5.552044 -0.4912007
v -1.6222696 5.552044 -0.3550942
v 1.6222715 5.552044 -0.3550942
v 2.6261625 4.572719 -0.36290216
v 2.6261625 1.7953949 -0.4912007
v 2.6261625 1.7953949 -0.36290216
v 2.6261625 4.572719 -0.4912007
v -2.6261606 1.7953949 -0.4912007
v -2.6261606 4.572719 -0.4912007
v -2.6261606 4.572719 -0.36290216
v 2.6261625 4.572719 -0.36290216
v -2.6261606 1.7953949 -0.36290216
v -2.6261606 1.7953949 -0.4912007
v -2.6261606 4.572719 -0.4912007
v -2.6261606 4.572719 -0.36290216
v 0.88117564 0.21649837 0.5983677
v 0.71412754 0.8358879 0.59053564
v 0.71412754 0.21649837 0.5983677
v 0.88117564 0.8358879 0.59053564
v 0.88117564 0.21649837 0.6826525
v 0.88117564 0.83113074 0.6889713
v 0.88117564 2.77872 0.33274698
v 0.88117564 2.779211 0.22655201
v 0.71412754 2.779211 0.22655201
v 0.88117564 4.7233143 -0.023477077
v 0.71412754 4.724023 -0.13743162
v 0.88117564 4.724023 -0.13743162
v 0.71412754 0.21649837 0.5983677
v 0.71412754 0.83113074 0.6889713
v 0.71412754 0.21649837 0.6826525
v 0.71412754 0.8358879 0.59053564
v 0.71412754 2.77872 0.33274698
v 0.71412754 2.779211 0.22655201
v 0.71412754 4.7233143 -0.023477077
v 0.71412754 4.724023 -0.13743162
v 0.7139665 2.9736028 -0.24464107
v 0.71412754 0.20959997 -0.24796534
v 0.71412754 0.20959997 -0.34430003
v 0.7139665 2.9736028 -0.3476243
v 0.71381354 5.737605 -0.24131656
v 0.71381354 5.737605 -0.3509488
v 0.7139665 2.9736028 -0.3476243
v 0.71412754 0.20959997 -0.34430003
v 0.88117564 0.20959997 -0.34430003
v 0.88115156 2.9736028 -0.3476243
v 0.71381354 5.737605 -0.3509488
v 0.88117564 0.20959997 -0.24796534
v 0.88113546 5.737605 -0.3509488
v 0.88115156 2.9736028 -0.24464107
v 0.88113546 5.737605 -0.24131656
v 2.4190607 1.9707341 -0.47795153
v 2.4190607 4.397847 -0.699687
v 2.4190607 4.397847 -0.47795153
v 2.4190607 1.9707341 -0.699687
v 2.5289345 4.483782 -0.699687
v -3.0994415E-06 4.483782 -0.699687
v -3.0994415E-06 4.397847 -0.699687
v 2.5289345 1.884799 -0.699687
v -2.4190588 4.397847 -0.699687
v 2.5289345 4.483782 -0.47795153
v 2.5289345 1.884799 -0.47795153
v -3.0994415E-06 4.483782 -0.47795153
v -2.528932 4.483782 -0.47795153
v -2.528932 4.483782 -0.699687
v -2.528932 1.884799 -0.699687
v -2.528932 1.884799 -0.47795153
v -2.4190588 1.9707341 -0.699687
v -2.4190588 1.9707341 -0.47795153
v -2.4190588 4.397847 -0.47795153
v 2.4190607 1.9707341 -0.699687
v -3.0994415E-06 1.884799 -0.699687
v 2.5289345 1.884799 -0.699687
v -3.0994415E-06 1.9707341 -0.699687
v 2.4190607 1.9707341 -0.47795153
v -3.0994415E-06 1.9707341 -0.47795153
v -2.4190588 1.9707341 -0.47795153
v -2.4190588 1.9707341 -0.699687
v -2.528932 1.884799 -0.699687
v 0.9084549 4.766894 -0.47868395
v 0.9084549 4.766894 0.06535578
v 0.6755469 4.766894 0.06535578
v 0.6755469 4.766894 -0.47868395
v 0.66386735 4.65442 0.07675362
v 0.66386735 4.65442 -0.4900818
v 0.66386735 4.65442 -0.4900818
v 0.92013454 4.65442 -0.4900818
v 0.92013454 4.65442 -0.4900818
v 0.92013454 4.65442 0.07675362
v 0.9084549 4.766894 0.06535578
v 0.9084549 4.766894 -0.47868395
v 0.91468513 1.7996287 -0.80519783
v 0.91468513 1.7996287 -0.21940637
v 0.66931677 1.7996287 -0.21940637
v 0.66931677 1.7996287 -0.80519783
v 0.65700924 1.6871552 -0.20800829
v 0.65700924 1.6871552 -0.8165958
v 0.65700924 1.6871552 -0.8165958
v 0.92699265 1.6871552 -0.8165958
v 0.92699265 1.6871552 -0.8165958
v 0.92699265 1.6871552 -0.20800829
v 0.91468513 1.7996287 -0.21940637
v 0.91468513 1.7996287 -0.80519783
v -0.8811736 0.21649837 0.5983677
v -0.7141254 0.21649837 0.5983677
v -0.7141254 0.8358879 0.59053564
v -0.8811736 0.8358879 0.59053564
v -0.8811736 0.21649837 0.6826525
v -0.8811736 0.83113074 0.6889713
v -0.8811736 2.77872 0.33274698
v -0.8811736 2.779211 0.22655201
v -0.7141254 2.779211 0.22655201
v -0.8811736 4.7233143 -0.023477077
v -0.7141254 4.724023 -0.13743162
v -0.8811736 4.724023 -0.13743162
v -0.7141254 0.21649837 0.5983677
v -0.7141254 0.21649837 0.6826525
v -0.7141254 0.83113074 0.6889713
v -0.7141254 0.8358879 0.59053564
v -0.7141254 2.77872 0.33274698
v -0.7141254 2.779211 0.22655201
v -0.7141254 4.7233143 -0.023477077
v -0.7141254 4.724023 -0.13743162
v -0.7141254 0.20959997 -0.34430003
v -0.7141254 0.20959997 -0.24796534
v -0.71396446 2.9736028 -0.24464107
v -0.71396446 2.9736028 -0.3476243
v -0.8811736 0.20959997 -0.34430003
v -0.8811574 2.9736028 -0.3476243
v -0.7138114 5.737605 -0.24131656
v -0.7138114 5.737605 -0.3509488
v -0.8811736 0.20959997 -0.24796534
v -0.8811736 0.20959997 -0.34430003
v -0.8811574 2.9736028 -0.3476243
v -0.8811574 2.9736028 -0.24464107
v -0.8811333 5.737605 -0.3509488
v -0.8811333 5.737605 -0.24131656
v -0.7138114 5.737605 -0.3509488
v -0.71396446 2.9736028 -0.3476243
v -0.90845275 5.814187 -0.47868395
v -0.675545 5.814187 0.06535578
v -0.90845275 5.814187 0.06535578
v -0.675545 5.814187 -0.47868395
v -0.6638653 5.7017136 0.07675362
v -0.6638653 5.7017136 -0.4900818
v -0.6638653 5.7017136 -0.4900818
v -0.9201405 5.7017136 -0.4900818
v -0.9201405 5.7017136 -0.4900818
v -0.90845275 5.814187 -0.47868395
v -0.90845275 5.814187 0.06535578
v -0.9201405 5.7017136 0.07675362
v -0.90845275 4.766894 -0.47868395
v -0.675545 4.766894 0.06535578
v -0.90845275 4.766894 0.06535578
v -0.675545 4.766894 -0.47868395
v -0.6638653 4.65442 0.07675362
v -0.6638653 4.65442 -0.4900818
v -0.6638653 4.65442 -0.4900818
v -0.9201405 4.65442 -0.4900818
v -0.9201405 4.65442 -0.4900818
v -0.90845275 4.766894 -0.47868395
v -0.90845275 4.766894 0.06535578
v -0.9201405 4.65442 0.07675362
v -0.9146831 1.7996287 -0.80519783
v -0.6693146 1.7996287 -0.21940637
v -0.9146831 1.7996287 -0.21940637
v -0.6693146 1.7996287 -0.80519783
v -0.6570072 1.6871552 -0.20800829
v -0.6570072 1.6871552 -0.8165958
v -0.6570072 1.6871552 -0.8165958
v -0.9269905 1.6871552 -0.8165958
v -0.9269905 1.6871552 -0.8165958
v -0.9146831 1.7996287 -0.80519783
v -0.9146831 1.7996287 -0.21940637
v -0.9269905 1.6871552 -0.20800829
v 1.4157654 3.0994415E-06 0.81659365
v 1.2721086 0.2787521 -0.4779272
v 1.4157654 3.0994415E-06 -0.49071765
v 1.2721086 0.2787521 0.8038032
v -3.0994415E-06 0.2787521 0.8038032
v -3.0994415E-06 0.2787521 -0.4779353
v -1.2721064 0.2787521 -0.4779272
v -1.2721064 0.2787521 0.8038032
v -1.4157634 3.0994415E-06 0.81659365
v -1.4157634 3.0994415E-06 -0.49071765
v -3.0994415E-06 3.0994415E-06 -0.49071765
v 1.4157654 3.0994415E-06 -0.49071765
v -1.4157634 3.0994415E-06 -0.49071765
v 0.6757159 5.814187 -0.47868395
v 0.90862393 5.814187 0.06535578
v 0.6757159 5.814187 0.06535578
v 0.90862393 5.814187 -0.47868395
v 0.9203036 5.7017136 0.07675362
v 0.9203036 5.7017136 -0.4900818
v 0.9203036 5.7017136 -0.4900818
v 0.6640283 5.7017136 -0.4900818
v 0.6640283 5.7017136 -0.4900818
v 0.6757159 5.814187 -0.47868395
v 0.6757159 5.814187 0.06535578
v 0.6640283 5.7017136 0.07675362
vt 0.56267726 0.9918371
vt 0.56740713 0.9918371
vt 0.56740713 0.9649024
vt 0.56267726 0.9649024
vt 0.56267726 0.9649024
vt 0.56740713 0.9918371
vt 0.56267726 0.9918371
vt 0.56740713 0.9649024
vt 0.6800582 0.9649024
vt 0.6800582 0.9918371
vt 0.56740713 0.996567
vt 0.6800582 0.996567
vt 0.5883039 0.92135984
vt 0.59268403 0.8266399
vt 0.5883039 0.8266399
vt 0.59268403 0.92135984
vt 0.77182764 0.8266399
vt 0.77182764 0.92135984
vt 0.77182764 0.92573994
vt 0.59268403 0.92573994
vt 0.5883039 0.8266399
vt 0.59268403 0.8266399
vt 0.59268403 0.92135984
vt 0.5883039 0.92135984
vt 0.575118 0.8001463
vt 0.581095 0.82232064
vt 0.581095 0.8001463
vt 0.575118 0.82232064
vt 0.5716048 0.8001463
vt 0.5716048 0.82232064
vt 0.5716048 0.89349747
vt 0.575118 0.89349747
vt 0.581095 0.89349747
vt 0.5716048 0.8223054
vt 0.581095 0.8223054
vt 0.575118 0.8223054
vt 0.575118 0.8001463
vt 0.5716048 0.82232064
vt 0.5716048 0.8001463
vt 0.575118 0.82232064
vt 0.5716048 0.89349747
vt 0.575118 0.89349747
vt 0.5716048 0.8223054
vt 0.575118 0.8223054
vt 0.5546774 0.92172486
vt 0.5546774 0.81485313
vt 0.5576127 0.81485313
vt 0.5576127 0.92172486
vt 0.5546774 0.81485313
vt 0.5576127 0.81485313
vt 0.56255555 0.92172486
vt 0.56255555 0.81485313
vt 0.5576127 0.81485313
vt 0.5576127 0.92172486
vt 0.56255555 0.81485313
vt 0.5546774 0.81485313
vt 0.5576127 0.81485313
vt 0.5546774 0.92172486
vt 0.5546774 0.81485313
vt 0.56740713 0.9427585
vt 0.6376411 0.949207
vt 0.6376411 0.9427585
vt 0.56740713 0.949207
vt 0.6376411 0.95205104
vt 0.70959353 0.95205104
vt 0.70959353 0.949207
vt 0.5635137 0.95205104
vt 0.6376411 0.949207
vt 0.6376411 0.9584083
vt 0.5635137 0.9584083
vt 0.70959353 0.9584083
vt 0.6376411 0.9584083
vt 0.6376411 0.95205104
vt 0.5635137 0.95205104
vt 0.5635137 0.9584083
vt 0.56740713 0.949207
vt 0.56740713 0.9427585
vt 0.6376411 0.9427585
vt 0.6376411 0.95205104
vt 0.70959353 0.949207
vt 0.6376411 0.949207
vt 0.70959353 0.95205104
vt 0.6376411 0.9584083
vt 0.70959353 0.9584083
vt 0.6376411 0.9584083
vt 0.6376411 0.95205104
vt 0.6376411 0.949207
vt 0.5812471 0.90484315
vt 0.5812471 0.9239605
vt 0.57282144 0.9239605
vt 0.57282144 0.90484315
vt 0.569141 0.9239605
vt 0.569141 0.90484315
vt 0.57282144 0.9011474
vt 0.5812471 0.9011474
vt 0.569141 0.90484315
vt 0.569141 0.9239605
vt 0.57282144 0.9239605
vt 0.57282144 0.90484315
vt 0.5812471 0.90484315
vt 0.5812471 0.9239605
vt 0.57282144 0.9239605
vt 0.57282144 0.90484315
vt 0.569141 0.9239605
vt 0.569141 0.90484315
vt 0.57282144 0.9011474
vt 0.5812471 0.9011474
vt 0.569141 0.90484315
vt 0.569141 0.9239605
vt 0.57282144 0.9239605
vt 0.57282144 0.90484315
vt 0.575118 0.8001463
vt 0.581095 0.8001463
vt 0.581095 0.82232064
vt 0.575118 0.82232064
vt 0.5716048 0.8001463
vt 0.5716048 0.82232064
vt 0.5716048 0.89349747
vt 0.575118 0.89349747
vt 0.581095 0.89349747
vt 0.5716048 0.8223054
vt 0.581095 0.8223054
vt 0.575118 0.8223054
vt 0.575118 0.8001463
vt 0.5716048 0.8001463
vt 0.5716048 0.82232064
vt 0.575118 0.82232064
vt 0.5716048 0.89349747
vt 0.575118 0.89349747
vt 0.5716048 0.8223054
vt 0.575118 0.8223054
vt 0.5576127 0.81485313
vt 0.5546774 0.81485313
vt 0.5546774 0.92172486
vt 0.5576127 0.92172486
vt 0.56255555 0.81485313
vt 0.56255555 0.92172486
vt 0.5546774 0.81485313
vt 0.5576127 0.81485313
vt 0.5546774 0.81485313
vt 0.5576127 0.81485313
vt 0.5576127 0.92172486
vt 0.5546774 0.92172486
vt 0.5576127 0.81485313
vt 0.5546774 0.81485313
vt 0.56255555 0.81485313
vt 0.56255555 0.92172486
vt 0.74235314 0.9775865
vt 0.7339275 0.99670386
vt 0.74235314 0.99670386
vt 0.7339275 0.9775865
vt 0.73024696 0.99670386
vt 0.73024696 0.9775865
vt 0.7339275 0.9738908
vt 0.74235314 0.9738908
vt 0.73024696 0.9775865
vt 0.7339275 0.9775865
vt 0.7339275 0.99670386
vt 0.73024696 0.99670386
vt 0.5812471 0.90484315
vt 0.57282144 0.9239605
vt 0.5812471 0.9239605
vt 0.57282144 0.90484315
vt 0.569141 0.9239605
vt 0.569141 0.90484315
vt 0.57282144 0.9011474
vt 0.5812471 0.9011474
vt 0.569141 0.90484315
vt 0.57282144 0.90484315
vt 0.57282144 0.9239605
vt 0.569141 0.9239605
vt 0.5812471 0.90484315
vt 0.57282144 0.9239605
vt 0.5812471 0.9239605
vt 0.57282144 0.90484315
vt 0.569141 0.9239605
vt 0.569141 0.90484315
vt 0.57282144 0.9011474
vt 0.5812471 0.9011474
vt 0.569141 0.90484315
vt 0.57282144 0.90484315
vt 0.57282144 0.9239605
vt 0.569141 0.9239605
vt 0.7819262 0.91384673
vt 0.7881922 0.8824255
vt 0.7819262 0.8824255
vt 0.7881922 0.91384673
vt 0.8084655 0.91384673
vt 0.8084655 0.8824255
vt 0.7881922 0.8824255
vt 0.7881922 0.91384673
vt 0.7819262 0.91384673
vt 0.7819262 0.8824255
vt 0.8084655 0.8757945
vt 0.7881922 0.8757945
vt 0.7881922 0.8757945
vt 0.74235314 0.9775865
vt 0.7339275 0.99670386
vt 0.74235314 0.99670386
vt 0.7339275 0.9775865
vt 0.73024696 0.99670386
vt 0.73024696 0.9775865
vt 0.7339275 0.9738908
vt 0.74235314 0.9738908
vt 0.73024696 0.9775865
vt 0.7339275 0.9775865
vt 0.7339275 0.99670386
vt 0.73024696 0.99670386
vn 0.70674455 0.70674455 -0.03200431
vn 0.5777123 0.5777123 -0.5766255
vn 0.70674455 0.0009775162 -0.70746815
vn 0.9999995 0.0009775162 -0
vn -0.9999995 0.0009775162 -0
vn -0.5777123 0.5777123 -0.5766255
vn -0.70674455 0.70674455 -0.03200431
vn -0.70674455 0.0009775162 -0.70746815
vn 0.70674455 0.0009775162 -0.70746815
vn 0.5777123 0.5777123 -0.5766255
vn -0.70674455 0.70674455 -0.03200431
vn 0.70674455 0.70674455 -0.03200431
vn 0.70674455 0.70674455 -0.03200431
vn 0.70674455 0.0009775162 -0.70746815
vn 0.9999995 0.0009775162 -0
vn 0.5777123 0.5777123 -0.5766255
vn -0.70674455 0.0009775162 -0.70746815
vn -0.5777123 0.5777123 -0.5766255
vn -0.70674455 0.70674455 -0.03200431
vn 0.70674455 0.70674455 -0.03200431
vn -0.9999995 0.0009775162 -0
vn -0.70674455 0.0009775162 -0.70746815
vn -0.5777123 0.5777123 -0.5766255
vn -0.70674455 0.70674455 -0.03200431
vn 0.7106546 -0.008797646 -0.703486
vn -0.7262949 -0.067448676 -0.68406606
vn -0.7106546 -0.008797646 -0.703486
vn 0.7262949 -0.067448676 -0.68406606
vn 0.9999995 0.0009775162 -0
vn 0.9999995 0.0009775162 -0
vn 0.9999995 0.0009775162 -0
vn 0.70674455 -0.13000971 -0.69542044
vn -0.70674455 -0.13000971 -0.69542044
vn 0.9999995 0.0009775162 -0
vn -0.6598238 -0.13782984 -0.7386715
vn 0.6598238 -0.13782984 -0.7386715
vn -0.7106546 -0.008797646 -0.703486
vn -0.9999995 0.0009775162 -0
vn -0.9999995 0.0009775162 -0
vn -0.7262949 -0.067448676 -0.68406606
vn -0.9999995 0.0009775162 -0
vn -0.70674455 -0.13000971 -0.69542044
vn -0.9999995 0.0009775162 -0
vn -0.6598238 -0.13782984 -0.7386715
vn -0.9999995 -0.0009775162 -0
vn -0.9999995 -0.0009775162 -0
vn -0.70674455 -0.0009775162 -0.70746815
vn -0.70674455 -0.0009775162 -0.70746815
vn -0.9999995 -0.0009775162 -0
vn -0.70674455 -0.0009775162 -0.70746815
vn -0.70674455 -0.0009775162 -0.70746815
vn -0.70674455 -0.0009775162 -0.70746815
vn 0.70674455 -0.0009775162 -0.70746815
vn 0.70674455 -0.0009775162 -0.70746815
vn -0.70674455 -0.0009775162 -0.70746815
vn 0.9999995 0.0009775162 -0
vn 0.70674455 -0.0009775162 -0.70746815
vn 0.9999995 0.0009775162 -0
vn 0.9999995 0.0009775162 -0
vn -0.70674455 0.70674455 -0.03200431
vn -0.31573784 0.0009775162 -0.948846
vn -0.9999995 0.0009775162 -0
vn -0.30205262 0.30205262 -0.90417284
vn 0.5777123 0.5777123 -0.5766255
vn -0.0009775162 0.70674455 -0.70746815
vn -0.0009775162 0.0009775162 -0.99999905
vn 0.70674455 0.0009775162 -0.70746815
vn 0.3157379 0.0009775162 -0.9488459
vn 0.70674455 0.70674455 -0.03200431
vn 0.9999995 0.0009775162 -0
vn -0.0009775162 0.9999995 -0
vn -0.70674455 0.70674455 -0.03200431
vn -0.5777123 0.5777123 -0.5766255
vn -0.70674455 0.0009775162 -0.70746815
vn -0.9999995 0.0009775162 -0
vn 0.30205262 0.30205262 -0.90417284
vn 0.70674455 0.70674455 -0.03200431
vn 0.9999995 0.0009775162 -0
vn -0.30205262 0.30205262 -0.90417284
vn -0.0009775162 0.0009775162 -0.99999905
vn 0.70674455 0.0009775162 -0.70746815
vn -0.0009775162 0.70674455 -0.70746815
vn -0.70674455 0.70674455 -0.03200431
vn -0.0009775162 0.9999995 -0
vn 0.70674455 0.70674455 -0.03200431
vn 0.30205262 0.30205262 -0.90417284
vn -0.70674455 0.0009775162 -0.70746815
vn 0.5483868 0.6304983 -0.5493122
vn 0.68914926 0.72433984 -0.02012643
vn -0.68914926 0.72433984 -0.02012643
vn -0.5483868 0.6304983 -0.5493122
vn -0.9941344 0.1026392 -0.034087397
vn -0.70087945 0.143695 -0.69865566
vn -0.70087945 0.143695 -0.69865566
vn 0.70087945 0.143695 -0.69865566
vn 0.70087945 0.143695 -0.69865566
vn 0.9941344 0.1026392 -0.034087397
vn 0.68914926 0.72433984 -0.02012643
vn 0.5483868 0.6304983 -0.5493122
vn 0.5464318 0.6324533 -0.54901284
vn 0.6871942 0.7262949 -0.016118828
vn -0.6871942 0.7262949 -0.016118828
vn -0.5464318 0.6324533 -0.54901284
vn -0.9940965 0.10850015 -0
vn -0.70087945 0.14760506 -0.69784003
vn -0.70087945 0.14760506 -0.69784003
vn 0.70087945 0.14760506 -0.69784003
vn 0.70087945 0.14760506 -0.69784003
vn 0.9940965 0.10850015 -0
vn 0.6871942 0.7262949 -0.016118828
vn 0.5464318 0.6324533 -0.54901284
vn -0.7106546 -0.008797646 -0.703486
vn 0.7106546 -0.008797646 -0.703486
vn 0.7262949 -0.067448676 -0.68406606
vn -0.7262949 -0.067448676 -0.68406606
vn -0.9999995 0.0009775162 -0
vn -0.9999995 0.0009775162 -0
vn -0.9999995 0.0009775162 -0
vn -0.70674455 -0.13000971 -0.69542044
vn 0.70674455 -0.13000971 -0.69542044
vn -0.9999995 0.0009775162 -0
vn 0.6598238 -0.13782984 -0.7386715
vn -0.6598238 -0.13782984 -0.7386715
vn 0.7106546 -0.008797646 -0.703486
vn 0.9999995 0.0009775162 -0
vn 0.9999995 0.0009775162 -0
vn 0.7262949 -0.067448676 -0.68406606
vn 0.9999995 0.0009775162 -0
vn 0.70674455 -0.13000971 -0.69542044
vn 0.9999995 0.0009775162 -0
vn 0.6598238 -0.13782984 -0.7386715
vn 0.70674455 -0.0009775162 -0.70746815
vn 0.9999995 -0.0009775162 -0
vn 0.9999995 -0.0009775162 -0
vn 0.70674455 -0.0009775162 -0.70746815
vn -0.70674455 -0.0009775162 -0.70746815
vn -0.70674455 -0.0009775162 -0.70746815
vn 0.9999995 -0.0009775162 -0
vn 0.70674455 -0.0009775162 -0.70746815
vn -0.9999995 0.0009775162 -0
vn -0.70674455 -0.0009775162 -0.70746815
vn -0.70674455 -0.0009775162 -0.70746815
vn -0.9999995 0.0009775162 -0
vn -0.70674455 -0.0009775162 -0.70746815
vn -0.9999995 0.0009775162 -0
vn 0.70674455 -0.0009775162 -0.70746815
vn 0.70674455 -0.0009775162 -0.70746815
vn -0.5483868 0.6304983 -0.5493122
vn 0.68914926 0.72433984 -0.02012643
vn -0.68914926 0.72433984 -0.02012643
vn 0.5483868 0.6304983 -0.5493122
vn 0.9941344 0.1026392 -0.034087397
vn 0.70087945 0.143695 -0.69865566
vn 0.70087945 0.143695 -0.69865566
vn -0.70087945 0.143695 -0.69865566
vn -0.70087945 0.143695 -0.69865566
vn -0.5483868 0.6304983 -0.5493122
vn -0.68914926 0.72433984 -0.02012643
vn -0.9941344 0.1026392 -0.034087397
vn -0.5483868 0.6304983 -0.5493122
vn 0.68914926 0.72433984 -0.02012643
vn -0.68914926 0.72433984 -0.02012643
vn 0.5483868 0.6304983 -0.5493122
vn 0.9941344 0.1026392 -0.034087397
vn 0.70087945 0.143695 -0.69865566
vn 0.70087945 0.143695 -0.69865566
vn -0.70087945 0.143695 -0.69865566
vn -0.70087945 0.143695 -0.69865566
vn -0.5483868 0.6304983 -0.5493122
vn -0.68914926 0.72433984 -0.02012643
vn -0.9941344 0.1026392 -0.034087397
vn -0.5464318 0.6324533 -0.54901284
vn 0.6871942 0.7262949 -0.016118828
vn -0.6871942 0.7262949 -0.016118828
vn 0.5464318 0.6324533 -0.54901284
vn 0.9940965 0.10850015 -0
vn 0.70087945 0.14760506 -0.69784003
vn 0.70087945 0.14760506 -0.69784003
vn -0.70087945 0.14760506 -0.69784003
vn -0.70087945 0.14760506 -0.69784003
vn -0.5464318 0.6324533 -0.54901284
vn -0.6871942 0.7262949 -0.016118828
vn -0.9940965 0.10850015 -0
vn 0.8885626 0.45845532 -0.01658944
vn 0.41348952 0.6930593 -0.59050417
vn 0.7165197 0.3958943 -0.5743407
vn 0.52688146 0.8494619 -0.028467258
vn -0.0009775162 0.9999995 -0
vn -0.0009775162 0.7223848 -0.6914906
vn -0.41348958 0.6930593 -0.5905041
vn -0.52688146 0.8494619 -0.028467258
vn -0.8885627 0.45845532 -0.016585847
vn -0.7165197 0.3958943 -0.5743407
vn -0.0009775162 0.04594326 -0.99894357
vn 0.7165197 0.3958943 -0.5743407
vn -0.7165197 0.3958943 -0.5743407
vn -0.5483868 0.6304983 -0.5493122
vn 0.68914926 0.72433984 -0.02012643
vn -0.68914926 0.72433984 -0.02012643
vn 0.5483868 0.6304983 -0.5493122
vn 0.9941344 0.1026392 -0.034087397
vn 0.70087945 0.143695 -0.69865566
vn 0.70087945 0.143695 -0.69865566
vn -0.70087945 0.143695 -0.69865566
vn -0.70087945 0.143695 -0.69865566
vn -0.5483868 0.6304983 -0.5493122
vn -0.68914926 0.72433984 -0.02012643
vn -0.9941344 0.1026392 -0.034087397
g fcbg_desertcrystal_billboard _01_0
f 3/3/3 2/2/2 1/1/1
f 4/4/4 3/3/3 1/1/1
f 7/7/7 6/6/6 5/5/5
f 6/6/6 8/8/8 5/5/5
f 8/8/8 6/6/6 9/9/9
f 6/6/6 10/10/10 9/9/9
f 10/10/10 6/6/6 11/11/11
f 12/12/12 10/10/10 11/11/11
f 15/15/15 14/14/14 13/13/13
f 14/14/14 16/16/16 13/13/13
f 14/14/14 17/17/17 16/16/16
f 17/17/17 18/18/18 16/16/16
f 16/16/16 18/18/18 19/19/19
f 20/20/20 16/16/16 19/19/19
f 23/23/23 22/22/22 21/21/21
f 24/24/24 23/23/23 21/21/21
f 27/27/27 26/26/26 25/25/25
f 26/26/26 28/28/28 25/25/25
f 25/25/25 28/28/28 29/29/29
f 28/28/28 30/30/30 29/29/29
f 31/31/31 30/30/30 28/28/28
f 32/32/32 28/28/28 26/26/26
f 32/32/32 31/31/31 28/28/28
f 33/33/33 32/32/32 26/26/26
f 34/34/34 31/31/31 32/32/32
f 32/32/32 33/33/33 35/35/35
f 36/36/36 34/34/34 32/32/32
f 36/36/36 32/32/32 35/35/35
f 39/39/39 38/38/38 37/37/37
f 38/38/38 40/40/40 37/37/37
f 38/38/38 41/41/41 40/40/40
f 41/41/41 42/42/42 40/40/40
f 42/42/42 41/41/41 43/43/43
f 44/44/44 42/42/42 43/43/43
f 47/47/47 46/46/46 45/45/45
f 48/48/48 47/47/47 45/45/45
f 48/48/48 45/45/45 49/49/49
f 50/50/50 48/48/48 49/49/49
f 53/53/53 52/52/52 51/51/51
f 54/54/54 53/53/53 51/51/51
f 54/54/54 51/51/51 55/55/55
f 56/56/56 53/53/53 54/54/54
f 57/57/57 54/54/54 55/55/55
f 58/58/58 56/56/56 54/54/54
f 58/58/58 54/54/54 57/57/57
f 59/59/59 58/58/58 57/57/57
f 62/62/62 61/61/61 60/60/60
f 61/61/61 63/63/63 60/60/60
f 61/61/61 64/64/64 63/63/63
f 65/65/65 64/64/64 61/61/61
f 66/66/66 65/65/65 61/61/61
f 64/64/64 67/67/67 63/63/63
f 65/65/65 66/66/66 68/68/68
f 67/67/67 64/64/64 69/69/69
f 64/64/64 65/65/65 69/69/69
f 70/70/70 67/67/67 69/69/69
f 65/65/65 71/71/71 69/69/69
f 72/72/72 71/71/71 65/65/65
f 73/73/73 72/72/72 65/65/65
f 73/73/73 65/65/65 68/68/68
f 73/73/73 74/74/74 72/72/72
f 74/74/74 75/75/75 72/72/72
f 74/74/74 73/73/73 76/76/76
f 73/73/73 68/68/68 76/76/76
f 76/76/76 68/68/68 77/77/77
f 68/68/68 78/78/78 77/77/77
f 81/81/81 80/80/80 79/79/79
f 80/80/80 82/82/82 79/79/79
f 79/79/79 82/82/82 83/83/83
f 82/82/82 84/84/84 83/83/83
f 85/85/85 84/84/84 82/82/82
f 86/86/86 85/85/85 82/82/82
f 86/86/86 82/82/82 80/80/80
f 87/87/87 86/86/86 80/80/80
f 90/90/90 89/89/89 88/88/88
f 91/91/91 90/90/90 88/88/88
f 90/90/90 91/91/91 92/92/92
f 91/91/91 93/93/93 92/92/92
f 91/91/91 88/88/88 94/94/94
f 88/88/88 95/95/95 94/94/94
f 98/98/98 97/97/97 96/96/96
f 99/99/99 98/98/98 96/96/96
f 102/102/102 101/101/101 100/100/100
f 103/103/103 102/102/102 100/100/100
f 102/102/102 103/103/103 104/104/104
f 103/103/103 105/105/105 104/104/104
f 103/103/103 100/100/100 106/106/106
f 100/100/100 107/107/107 106/106/106
f 110/110/110 109/109/109 108/108/108
f 111/111/111 110/110/110 108/108/108
f 114/114/114 113/113/113 112/112/112
f 115/115/115 114/114/114 112/112/112
f 115/115/115 112/112/112 116/116/116
f 117/117/117 115/115/115 116/116/116
f 115/115/115 117/117/117 118/118/118
f 114/114/114 115/115/115 119/119/119
f 119/119/119 115/115/115 118/118/118
f 120/120/120 114/114/114 119/119/119
f 118/118/118 121/121/121 119/119/119
f 122/122/122 120/120/120 119/119/119
f 121/121/121 123/123/123 119/119/119
f 123/123/123 122/122/122 119/119/119
f 126/126/126 125/125/125 124/124/124
f 127/127/127 126/126/126 124/124/124
f 128/128/128 126/126/126 127/127/127
f 129/129/129 128/128/128 127/127/127
f 130/130/130 128/128/128 129/129/129
f 131/131/131 130/130/130 129/129/129
f 134/134/134 133/133/133 132/132/132
f 135/135/135 134/134/134 132/132/132
f 135/135/135 132/132/132 136/136/136
f 137/137/137 135/135/135 136/136/136
f 138/138/138 134/134/134 135/135/135
f 139/139/139 138/138/138 135/135/135
f 142/142/142 141/141/141 140/140/140
f 143/143/143 142/142/142 140/140/140
f 144/144/144 142/142/142 143/143/143
f 145/145/145 144/144/144 143/143/143
f 144/144/144 146/146/146 142/142/142
f 146/146/146 147/147/147 142/142/142
f 150/150/150 149/149/149 148/148/148
f 149/149/149 151/151/151 148/148/148
f 151/151/151 149/149/149 152/152/152
f 153/153/153 151/151/151 152/152/152
f 148/148/148 151/151/151 154/154/154
f 155/155/155 148/148/148 154/154/154
f 158/158/158 157/157/157 156/156/156
f 159/159/159 158/158/158 156/156/156
f 162/162/162 161/161/161 160/160/160
f 161/161/161 163/163/163 160/160/160
f 163/163/163 161/161/161 164/164/164
f 165/165/165 163/163/163 164/164/164
f 160/160/160 163/163/163 166/166/166
f 167/167/167 160/160/160 166/166/166
f 170/170/170 169/169/169 168/168/168
f 171/171/171 170/170/170 168/168/168
f 174/174/174 173/173/173 172/172/172
f 173/173/173 175/175/175 172/172/172
f 175/175/175 173/173/173 176/176/176
f 177/177/177 175/175/175 176/176/176
f 172/172/172 175/175/175 178/178/178
f 179/179/179 172/172/172 178/178/178
f 182/182/182 181/181/181 180/180/180
f 183/183/183 182/182/182 180/180/180
f 186/186/186 185/185/185 184/184/184
f 185/185/185 187/187/187 184/184/184
f 187/187/187 185/185/185 188/188/188
f 185/185/185 189/189/189 188/188/188
f 188/188/188 189/189/189 190/190/190
f 191/191/191 188/188/188 190/190/190
f 191/191/191 190/190/190 192/192/192
f 190/190/190 193/193/193 192/192/192
f 189/189/189 185/185/185 194/194/194
f 189/189/189 194/194/194 190/190/190
f 185/185/185 195/195/195 194/194/194
f 194/194/194 196/196/196 190/190/190
f 199/199/199 198/198/198 197/197/197
f 198/198/198 200/200/200 197/197/197
f 200/200/200 198/198/198 201/201/201
f 202/202/202 200/200/200 201/201/201
f 197/197/197 200/200/200 203/203/203
f 204/204/204 197/197/197 203/203/203
f 207/207/207 206/206/206 205/205/205
f 208/208/208 207/207/207 205/205/205
