g fcbg_cityforest_006_fence_02
v -1.2152978 0.25971884 -0.049285263
v -1.1299334 0.25971884 -8.1418435E-08
v -1.1299334 1.2314394 7.699258E-08
v -1.2152978 1.2484336 -0.049285103
v -1.2152978 0.25971884 0.0492851
v -1.0835643 1.3432832 9.552582E-08
v -1.2152978 1.2484336 0.04928526
v -1.1299334 0.25971884 -8.1418435E-08
v -1.1299334 1.2314394 7.699258E-08
v -1.1488909 1.4086096 -0.049285077
v -0.9717205 1.3896523 1.0276872E-07
v -1.1488909 1.4086096 0.049285285
v -1.0835643 1.3432832 9.552582E-08
v -0.9887147 1.4750166 -0.049285065
v -0.9887147 1.4750166 0.049285296
v -0 1.4750166 0.049285296
v -0.9717205 1.3896523 1.0276872E-07
v 5.9604645E-08 1.3896523 1.0276872E-07
v 0.97172064 1.3896523 1.0276872E-07
v -0 1.4750166 -0.049285065
v 5.9604645E-08 1.3896523 1.0276872E-07
v 0.97172064 1.3896523 1.0276872E-07
v 0.98871475 1.4750166 0.049285296
v 1.0835643 1.3432832 9.552582E-08
v 0.98871475 1.4750166 -0.049285065
v 1.148891 1.4086096 0.049285285
v 1.1299334 1.2314394 7.699258E-08
v 1.148891 1.4086096 -0.049285077
v 1.0835643 1.3432832 9.552582E-08
v 1.2152979 1.2484336 0.04928526
v 1.1299334 0.25971884 -8.1418435E-08
v 1.2152979 0.25971884 0.0492851
v 1.2152979 1.2484336 -0.049285103
v 1.1299334 1.2314394 7.699258E-08
v 1.2152979 0.25971884 -0.049285263
v 1.1299334 0.25971884 -8.1418435E-08
v 1.2448721 -7.850335E-18 0.1282057
v 1.2448721 0.28751338 -0.12820572
v 1.2448721 7.850337E-18 -0.12820573
v 1.2448721 0.28751343 0.12820572
v -1.244872 -7.850335E-18 0.1282057
v -1.244872 0.28751343 0.12820572
v -1.244872 7.850337E-18 -0.12820573
v -1.244872 0.28751338 -0.12820572
v 1.2448721 0.28751338 -0.12820572
v -1.244872 0.28751338 -0.12820572
v 1.2448721 7.850337E-18 -0.12820573
v -1.244872 7.850337E-18 -0.12820573
vt 0.2291123 0.9967619
vt 0.23560439 0.9967619
vt 0.23560439 0.92985755
vt 0.2291123 0.92985755
vt 0.2224752 0.9967619
vt 0.23560439 0.9184875
vt 0.2224752 0.92985755
vt 0.2159832 0.9967619
vt 0.2159832 0.92985755
vt 0.22911236 0.9184875
vt 0.23560439 0.9076021
vt 0.2224752 0.9184875
vt 0.2159832 0.9184875
vt 0.22911236 0.9076021
vt 0.2224752 0.9076021
vt 0.22243986 0.8412239
vt 0.2159832 0.9076021
vt 0.2159832 0.8412239
vt 0.2159832 0.9076021
vt 0.22914776 0.8412239
vt 0.23560439 0.8412239
vt 0.23560439 0.9076021
vt 0.22243974 0.9076021
vt 0.2159832 0.9184875
vt 0.2291477 0.9076021
vt 0.22243974 0.9184875
vt 0.2159832 0.92985755
vt 0.22914758 0.9184875
vt 0.23560439 0.9184875
vt 0.22243974 0.92985755
vt 0.2159832 0.9967619
vt 0.22243974 0.9967619
vt 0.22914746 0.92985755
vt 0.23560439 0.92985755
vt 0.22914746 0.9967619
vt 0.23560439 0.9967619
vt 0.15509915 0.80878866
vt 0.17460424 0.79139364
vt 0.15509915 0.7913935
vt 0.1746043 0.80878866
vt 0.15509921 0.97769475
vt 0.17460436 0.97769475
vt 0.15509921 0.99509
vt 0.17460448 0.99509
vt 0.19199944 0.80878866
vt 0.19199955 0.97769475
vt 0.21150452 0.80878866
vt 0.21150452 0.97769475
vn -0.5000056 0 -0.8660222
vn 1 0 0
vn 0.9807576 -0.19522983 0
vn -0.56473655 0.112486474 -0.81756926
vn -0.5000056 0 0.8660222
vn 0.7070544 -0.7071591 0
vn -0.56474465 0.11238336 0.8175778
vn 1 0 0
vn 0.9807576 -0.19522983 0
vn -0.45247847 0.45247847 -0.7684573
vn 0.19522983 -0.9807576 0
vn -0.45247847 0.45247847 0.7684573
vn 0.7070544 -0.7071591 0
vn -0.11242812 0.5648112 -0.8175257
vn -0.11242841 0.56481266 0.81752455
vn -0 0.50008416 0.86597687
vn 0.19522983 -0.9807576 0
vn -0 -1 0
vn -0.19522983 -0.9807576 0
vn -0 0.50008416 -0.86597687
vn -0 -1 0
vn -0.19522983 -0.9807576 0
vn 0.11248012 0.5648094 0.8175198
vn -0.70700204 -0.70721155 0
vn 0.11247982 0.5648079 -0.8175209
vn 0.4523118 0.4525213 0.7685301
vn -0.9807576 -0.19522983 0
vn 0.4523118 0.4525213 -0.7685301
vn -0.70700204 -0.70721155 0
vn 0.56474465 0.11238336 0.8175778
vn -1 0 0
vn 0.49984846 0 0.8661129
vn 0.56473655 0.112486474 -0.81756926
vn -0.9807576 -0.19522983 0
vn 0.49984846 0 -0.8661129
vn -1 0 0
vn 0.70703477 0 0.70717883
vn 0.57731533 0.5773677 -0.5773677
vn 0.7070413 0 -0.7071723
vn 0.57731533 0.5773677 0.5773677
vn -0.7070871 0 0.7071264
vn -0.5773852 0.5773328 0.5773328
vn -0.70709366 0 -0.7071198
vn -0.5773852 0.5773328 -0.5773328
vn 0.57731533 0.5773677 -0.5773677
vn -0.5773852 0.5773328 -0.5773328
vn 0.7070413 0 -0.7071723
vn -0.70709366 0 -0.7071198
g fcbg_cityforest_006_fence_02_0
f 3/3/3 2/2/2 1/1/1
f 4/4/4 3/3/3 1/1/1
f 4/4/4 1/1/1 5/5/5
f 6/6/6 3/3/3 4/4/4
f 7/7/7 4/4/4 5/5/5
f 7/7/7 5/5/5 8/8/8
f 9/9/9 7/7/7 8/8/8
f 10/10/10 6/6/6 4/4/4
f 10/10/10 4/4/4 7/7/7
f 11/11/11 6/6/6 10/10/10
f 12/12/12 7/7/7 9/9/9
f 12/12/12 10/10/10 7/7/7
f 13/13/13 12/12/12 9/9/9
f 14/14/14 11/11/11 10/10/10
f 14/14/14 10/10/10 12/12/12
f 15/15/15 12/12/12 13/13/13
f 15/15/15 14/14/14 12/12/12
f 15/15/15 16/16/16 14/14/14
f 17/17/17 15/15/15 13/13/13
f 15/15/15 17/17/17 16/16/16
f 17/17/17 18/18/18 16/16/16
f 16/16/16 18/18/18 19/19/19
f 14/14/14 20/20/20 11/11/11
f 16/16/16 20/20/20 14/14/14
f 20/20/20 21/21/21 11/11/11
f 21/21/21 20/20/20 22/22/22
f 23/23/23 16/16/16 19/19/19
f 23/23/23 19/19/19 24/24/24
f 20/20/20 16/16/16 25/25/25
f 20/20/20 25/25/25 22/22/22
f 16/16/16 23/23/23 25/25/25
f 26/26/26 23/23/23 24/24/24
f 25/25/25 23/23/23 26/26/26
f 26/26/26 24/24/24 27/27/27
f 22/22/22 25/25/25 28/28/28
f 28/28/28 25/25/25 26/26/26
f 29/29/29 22/22/22 28/28/28
f 30/30/30 26/26/26 27/27/27
f 28/28/28 26/26/26 30/30/30
f 30/30/30 27/27/27 31/31/31
f 32/32/32 30/30/30 31/31/31
f 29/29/29 28/28/28 33/33/33
f 33/33/33 28/28/28 30/30/30
f 33/33/33 30/30/30 32/32/32
f 34/34/34 29/29/29 33/33/33
f 35/35/35 33/33/33 32/32/32
f 34/34/34 33/33/33 35/35/35
f 36/36/36 34/34/34 35/35/35
f 39/39/39 38/38/38 37/37/37
f 38/38/38 40/40/40 37/37/37
f 37/37/37 40/40/40 41/41/41
f 40/40/40 42/42/42 41/41/41
f 41/41/41 42/42/42 43/43/43
f 42/42/42 44/44/44 43/43/43
f 40/40/40 45/45/45 42/42/42
f 45/45/45 46/46/46 42/42/42
f 46/46/46 45/45/45 47/47/47
f 48/48/48 46/46/46 47/47/47
