g fcbg_desertcrystal_crystal_bottom_01
v -2.9818401 7.3985147 -2.3841858E-06
v -3.7838097 6.99463 -2.3841858E-06
v -2.8729124 6.890444 -1.921659
v 3.1026707 5.8820486 -2.3841858E-06
v 1.6598825 5.651372 -2.3841858E-06
v 2.0704432 5.651372 -2.2592685
v -2.9818401 7.3985147 -2.3841858E-06
v -2.8729124 6.890444 1.9216666
v -3.7838097 6.99463 -2.3841858E-06
v 3.1026707 5.8820486 -2.3841858E-06
v 2.0704432 5.651372 2.259264
v 1.6598825 5.651372 -2.3841858E-06
v -2.8729124 6.890444 -1.921659
v -1.4658546 6.284542 -3.0813875
v -1.3299661 7.3834143 -2.3841858E-06
v -2.9818401 7.3985147 -2.3841858E-06
v -2.8729124 6.890444 1.9216666
v -1.4658546 6.284542 3.0813951
v -1.4658546 6.284542 -3.0813875
v -0.5149045 5.0491524 -3.111169
v -0.32083225 5.715024 -2.3841858E-06
v -1.3299661 7.3834143 -2.3841858E-06
v -1.4658546 6.284542 3.0813951
v -0.5149045 5.0491524 3.1111765
v 2.0704432 5.651372 -2.2592685
v 1.2645326 4.3692284 -2.3841858E-06
v 1.2769723 3.6896496 -2.810694
v 1.6598825 5.651372 -2.3841858E-06
v 2.0704432 5.651372 2.259264
v 1.2769723 3.6896496 2.8107014
v -0.5149045 5.0491524 -3.111169
v 1.2769723 3.6896496 -2.810694
v 1.2645326 4.3692284 -2.3841858E-06
v -0.32083225 5.715024 -2.3841858E-06
v -0.5149045 5.0491524 3.1111765
v 1.2769723 3.6896496 2.8107014
v -3.4885073 2.7686157 -2.389886
v -1.9007778 -0.01659298 -3.4343066
v -2.0962048 1.9709945 -3.333089
v -4.6159906 -0.018083096 -2.3841858E-06
v -4.532941 2.6997414 -2.3841858E-06
v -3.4885073 2.7686157 2.3898811
v -1.9007778 -0.01659298 3.4343023
v -2.0962048 1.9709945 3.333084
v -1.406292 1.5247402 -4.1874285
v -1.2726817 -0.023243904 -4.2682004
v 1.3415112 0.01508522 -4.1637683
v -0.9521179 2.547841 -3.9965336
v 1.3428416 2.3787346 -3.8090508
v 2.1979935 0.009136677 -3.2026196
v -1.491621 3.3051996 -3.0826807
v -2.9177084 3.9572392 -1.9379907
v -3.4885073 2.7686157 -2.389886
v -2.0962048 1.9709945 -3.333089
v -3.4885073 2.7686157 -2.389886
v -2.9177084 3.9572392 -1.9379907
v -3.8297749 4.126137 -2.3841858E-06
v -4.532941 2.6997414 -2.3841858E-06
v -2.0962048 1.9709945 -3.333089
v -1.9007778 -0.01659298 -3.4343066
v -1.2726817 -0.023243904 -4.2682004
v -1.406292 1.5247402 -4.1874285
v 2.401648 -2.3841858E-06 -2.2768319
v 1.3021355 3.1014347 -2.8542821
v 1.3428416 2.3787346 -3.8090508
v 2.1979935 0.009136677 -3.2026196
v 1.3021355 3.1014347 -2.8542821
v -1.491621 3.3051996 -3.0826807
v -0.9521179 2.547841 -3.9965336
v 1.3428416 2.3787346 -3.8090508
v -1.491621 3.3051996 -3.0826807
v -2.0962048 1.9709945 -3.333089
v -1.406292 1.5247402 -4.1874285
v -0.9521179 2.547841 -3.9965336
v 2.0704432 5.651372 -2.2592685
v 3.988146 2.8146925 -2.3841858E-06
v 3.1026707 5.8820486 -2.3841858E-06
v 2.2205822 2.4872189 -2.267225
v 5.5163374 -2.3841858E-06 -2.3841858E-06
v 2.401648 -2.3841858E-06 -2.2768319
v 1.2769723 3.6896496 -2.810694
v 1.3021355 3.1014347 -2.8542821
v -0.5149045 5.0491524 -3.111169
v -1.491621 3.3051996 -3.0826807
v -1.4658546 6.284542 -3.0813875
v -2.8729124 6.890444 -1.921659
v -2.9177084 3.9572392 -1.9379907
v -3.8297749 4.126137 -2.3841858E-06
v -3.7838097 6.99463 -2.3841858E-06
v -2.8729124 6.890444 1.9216666
v -2.9177084 3.9572392 1.9379859
v -1.491621 3.3051996 3.082676
v -1.4658546 6.284542 3.0813951
v -0.5149045 5.0491524 3.1111765
v 1.3021355 3.1014347 2.8542776
v 1.2769723 3.6896496 2.8107014
v 2.2205822 2.4872189 2.267233
v 2.401648 -2.3841858E-06 2.2768397
v 5.5163374 -2.3841858E-06 -2.3841858E-06
v 2.0704432 5.651372 2.259264
v 3.988146 2.8146925 -2.3841858E-06
v 3.1026707 5.8820486 -2.3841858E-06
v -1.406292 1.5247402 4.187436
v 1.3415112 0.01508522 4.163763
v -1.2726817 -0.023243904 4.2682076
v -0.9521179 2.547841 3.996541
v 1.3428416 2.3787346 3.8090458
v 2.1979935 0.009136677 3.2026148
v -1.491621 3.3051996 3.082676
v -2.0962048 1.9709945 3.333084
v -3.4885073 2.7686157 2.3898811
v -2.9177084 3.9572392 1.9379859
v -3.8297749 4.126137 -2.3841858E-06
v -2.9177084 3.9572392 1.9379859
v -3.4885073 2.7686157 2.3898811
v -4.532941 2.6997414 -2.3841858E-06
v -2.0962048 1.9709945 3.333084
v -1.406292 1.5247402 4.187436
v -1.2726817 -0.023243904 4.2682076
v -1.9007778 -0.01659298 3.4343023
v 2.401648 -2.3841858E-06 2.2768397
v 2.1979935 0.009136677 3.2026148
v 1.3428416 2.3787346 3.8090458
v 1.3021355 3.1014347 2.8542776
v 1.3021355 3.1014347 2.8542776
v 1.3428416 2.3787346 3.8090458
v -0.9521179 2.547841 3.996541
v -1.491621 3.3051996 3.082676
v -1.491621 3.3051996 3.082676
v -0.9521179 2.547841 3.996541
v -1.406292 1.5247402 4.187436
v -2.0962048 1.9709945 3.333084
vt 0.56895894 0.43609175
vt 0.5644946 0.4321285
vt 0.5595595 0.44538486
vt 0.6012722 0.48129696
vt 0.59469724 0.47416008
vt 0.58548003 0.48630795
vt 0.56895894 0.43609175
vt 0.5595595 0.44538486
vt 0.5644946 0.4321285
vt 0.6012722 0.48129696
vt 0.58548003 0.48630795
vt 0.59469724 0.47416008
vt 0.5595595 0.44538486
vt 0.55942285 0.4581401
vt 0.5762173 0.4443219
vt 0.56895894 0.43609175
vt 0.5595595 0.44538486
vt 0.55942285 0.4581401
vt 0.55942285 0.4581401
vt 0.5636746 0.46760026
vt 0.5815016 0.4561509
vt 0.5762173 0.4443219
vt 0.55942285 0.4581401
vt 0.5636746 0.46760026
vt 0.58548003 0.48630795
vt 0.58789444 0.46838984
vt 0.5724666 0.4798392
vt 0.59469724 0.47416008
vt 0.58548003 0.48630795
vt 0.5724666 0.4798392
vt 0.5636746 0.46760026
vt 0.5724666 0.4798392
vt 0.58789444 0.46838984
vt 0.5815016 0.4561509
vt 0.5636746 0.46760026
vt 0.5724666 0.4798392
vt 0.7191672 0.45865637
vt 0.75612706 0.44710073
vt 0.7326513 0.4428186
vt 0.7417318 0.49622363
vt 0.7109218 0.48690015
vt 0.7191672 0.45865637
vt 0.75612706 0.44710073
vt 0.7326513 0.4428186
vt 0.74177736 0.43255368
vt 0.7593614 0.43480104
vt 0.7634461 0.4033988
vt 0.73087466 0.42646456
vt 0.73597676 0.40241182
vt 0.7616391 0.38674107
vt 0.7167224 0.43287256
vt 0.7039064 0.45396426
vt 0.7191672 0.45865637
vt 0.7326513 0.4428186
vt 0.7191672 0.45865637
vt 0.7039064 0.45396426
vt 0.6944463 0.47772852
vt 0.7109218 0.48690015
vt 0.7326513 0.4428186
vt 0.75612706 0.44710073
vt 0.7593614 0.43480104
vt 0.74177736 0.43255368
vt 0.75840473 0.37472987
vt 0.72150564 0.39647454
vt 0.73597676 0.40241182
vt 0.7616391 0.38674107
vt 0.72150564 0.39647454
vt 0.7167224 0.43287256
vt 0.73087466 0.42646456
vt 0.73597676 0.40241182
vt 0.7167224 0.43287256
vt 0.7326513 0.4428186
vt 0.74177736 0.43255368
vt 0.73087466 0.42646456
vt 0.68778014 0.38774326
vt 0.7180283 0.34593946
vt 0.6795652 0.35746473
vt 0.7281262 0.38116825
vt 0.7525738 0.3277177
vt 0.75840473 0.37472987
vt 0.7138221 0.39699084
vt 0.72150564 0.39647454
vt 0.6966329 0.41855326
vt 0.7167224 0.43287256
vt 0.6807648 0.42729974
vt 0.6700443 0.4464478
vt 0.7039064 0.45396426
vt 0.6944463 0.47772852
vt 0.66298336 0.46951354
vt 0.6700443 0.4464478
vt 0.7039064 0.45396426
vt 0.7167224 0.43287256
vt 0.6807648 0.42729974
vt 0.6966329 0.41855326
vt 0.72150564 0.39647454
vt 0.7138221 0.39699084
vt 0.7281262 0.38116825
vt 0.75840473 0.37472987
vt 0.7525738 0.3277177
vt 0.68778014 0.38774326
vt 0.7180283 0.34593946
vt 0.6795652 0.35746473
vt 0.74177736 0.43255368
vt 0.7634461 0.4033988
vt 0.7593614 0.43480104
vt 0.73087466 0.42646456
vt 0.73597676 0.40241182
vt 0.7616391 0.38674107
vt 0.7167224 0.43287256
vt 0.7326513 0.4428186
vt 0.7191672 0.45865637
vt 0.7039064 0.45396426
vt 0.6944463 0.47772852
vt 0.7039064 0.45396426
vt 0.7191672 0.45865637
vt 0.7109218 0.48690015
vt 0.7326513 0.4428186
vt 0.74177736 0.43255368
vt 0.7593614 0.43480104
vt 0.75612706 0.44710073
vt 0.75840473 0.37472987
vt 0.7616391 0.38674107
vt 0.73597676 0.40241182
vt 0.72150564 0.39647454
vt 0.72150564 0.39647454
vt 0.73597676 0.40241182
vt 0.73087466 0.42646456
vt 0.7167224 0.43287256
vt 0.7167224 0.43287256
vt 0.73087466 0.42646456
vt 0.74177736 0.43255368
vt 0.7326513 0.4428186
vn -0.4348747 0.8639439 -0.25393888
vn -0.4348747 0.8639439 -0.25393888
vn -0.4348747 0.8639439 -0.25393888
vn -0.15724176 0.98625773 -0.050702546
vn -0.15724176 0.98625773 -0.050702546
vn -0.15724176 0.98625773 -0.050702546
vn -0.4348747 0.8639439 0.25393888
vn -0.4348747 0.8639439 0.25393888
vn -0.4348747 0.8639439 0.25393888
vn -0.15724176 0.98625773 0.050702546
vn -0.15724176 0.98625773 0.050702546
vn -0.15724176 0.98625773 0.050702546
vn 0.0776785 0.9493694 -0.30440733
vn 0.0776785 0.9493694 -0.30440733
vn 0.081561446 0.9959652 -0.037430827
vn 0.081561446 0.9959652 -0.037430827
vn 0.0776785 0.9493694 0.30440733
vn 0.0776785 0.9493694 0.30440733
vn 0.81156147 0.54942256 -0.19875312
vn 0.81156147 0.54942256 -0.19875312
vn 0.82709336 0.5610716 -0.03339599
vn 0.82709336 0.5610716 -0.03339599
vn 0.81156147 0.54942256 0.19875312
vn 0.81156147 0.54942256 0.19875312
vn -0.92413 0.35915667 -0.1303464
vn -0.9317898 0.3629983 -0
vn -0.92413 0.35915667 -0.1303464
vn -0.9317898 0.3629983 -0
vn -0.92413 0.35915667 0.1303464
vn -0.92413 0.35915667 0.1303464
vn 0.623237 0.7571619 -0.19565643
vn 0.623237 0.7571619 -0.19565643
vn 0.63484275 0.7726414 -0
vn 0.63484275 0.7726414 -0
vn 0.623237 0.7571619 0.19565643
vn 0.623237 0.7571619 0.19565643
vn -0.7901673 -0.10097635 -0.6045159
vn -0.7105662 -0.1475721 -0.68798125
vn -0.566896 -0.01360935 -0.82367694
vn -0.993201 -0.11641183 -0
vn -0.9995183 0.031034656 -0
vn -0.7901673 -0.10097635 0.6045159
vn -0.7105662 -0.1475721 0.68798125
vn -0.566896 -0.01360935 0.82367694
vn 0.071853995 0.11258751 -0.9910404
vn 0.0388487 0.05628425 -0.99765867
vn 0.4252051 0.116470516 -0.89757186
vn 0.089327395 0.14753431 -0.98501486
vn 0.2601785 0.14170986 -0.95510495
vn 0.7436093 0.09899706 -0.66124487
vn -0.3960449 0.41351837 -0.8198481
vn -0.3960449 0.41351837 -0.8198481
vn -0.3960449 0.41351837 -0.8198481
vn -0.3960449 0.41351837 -0.8198481
vn -0.80569917 0.45817262 -0.37540206
vn -0.80569917 0.45817262 -0.37540206
vn -0.80569917 0.45817262 -0.37540206
vn -0.80569917 0.45817262 -0.37540206
vn -0.79210883 -0.042731643 -0.60888225
vn -0.79210883 -0.042731643 -0.60888225
vn -0.79210883 -0.042731643 -0.60888225
vn -0.79210883 -0.042731643 -0.60888225
vn 0.9358168 0.29314595 -0.1957354
vn 0.9358168 0.29314595 -0.1957354
vn 0.9358168 0.29314595 -0.1957354
vn 0.9358168 0.29314595 -0.1957354
vn 0.106800795 0.7959917 -0.595811
vn 0.106800795 0.7959917 -0.595811
vn 0.106800795 0.7959917 -0.595811
vn 0.106800795 0.7959917 -0.595811
vn -0.6018428 0.3999279 -0.69126177
vn -0.6018428 0.3999279 -0.69126177
vn -0.6018428 0.3999279 -0.69126177
vn -0.6018428 0.3999279 -0.69126177
vn 0.77855617 0.11841196 -0.6163026
vn 0.9427116 0.333609 -0
vn 0.98629236 0.16500711 -0
vn 0.6543008 0.106763065 -0.7486602
vn 0.9435828 0.32809275 -0.04479631
vn 0.5844072 0.046576798 -0.8101227
vn 0.345604 0.00386405 -0.93837255
vn 0.39802426 0.013571501 -0.9172745
vn 0.025258243 -0.01360935 -0.9995883
vn -0.25043327 -0.009726346 -0.968085
vn -0.49700242 0.00386405 -0.8677406
vn -0.8037577 0.013571501 -0.5948019
vn -0.7649279 0.015513003 -0.64392906
vn -0.9998477 0.017454438 -0
vn -0.9998477 0.017454438 -0
vn -0.8037577 0.013571501 0.5948019
vn -0.7649279 0.015513003 0.64392906
vn -0.25043327 -0.009726346 0.968085
vn -0.49700242 0.00386405 0.8677406
vn 0.025258243 -0.01360935 0.9995883
vn 0.39802426 0.013571501 0.9172745
vn 0.345604 0.00386405 0.93837255
vn 0.6543008 0.106763065 0.7486602
vn 0.5844072 0.046576798 0.8101227
vn 0.9435828 0.32809275 -0.04479631
vn 0.77855617 0.11841196 0.6163026
vn 0.9427116 0.333609 -0
vn 0.98629236 0.16500711 -0
vn 0.071853995 0.11258751 0.9910404
vn 0.4252051 0.116470516 0.89757186
vn 0.0388487 0.05628425 0.99765867
vn 0.089327395 0.14753431 0.98501486
vn 0.2601785 0.14170986 0.95510495
vn 0.7436093 0.09899706 0.66124487
vn -0.3960449 0.41351837 0.8198481
vn -0.3960449 0.41351837 0.8198481
vn -0.3960449 0.41351837 0.8198481
vn -0.3960449 0.41351837 0.8198481
vn -0.80569917 0.45817262 0.37540206
vn -0.80569917 0.45817262 0.37540206
vn -0.80569917 0.45817262 0.37540206
vn -0.80569917 0.45817262 0.37540206
vn -0.79210883 -0.042731643 0.60888225
vn -0.79210883 -0.042731643 0.60888225
vn -0.79210883 -0.042731643 0.60888225
vn -0.79210883 -0.042731643 0.60888225
vn 0.9358168 0.29314595 0.1957354
vn 0.9358168 0.29314595 0.1957354
vn 0.9358168 0.29314595 0.1957354
vn 0.9358168 0.29314595 0.1957354
vn 0.106800795 0.7959917 0.595811
vn 0.106800795 0.7959917 0.595811
vn 0.106800795 0.7959917 0.595811
vn 0.106800795 0.7959917 0.595811
vn -0.6018428 0.3999279 0.69126177
vn -0.6018428 0.3999279 0.69126177
vn -0.6018428 0.3999279 0.69126177
vn -0.6018428 0.3999279 0.69126177
g fcbg_desertcrystal_crystal_bottom_01_0
f 3/3/3 2/2/2 1/1/1
f 6/6/6 5/5/5 4/4/4
f 9/9/9 8/8/8 7/7/7
f 12/12/12 11/11/11 10/10/10
f 15/15/15 14/14/14 13/13/13
f 16/16/16 15/15/15 13/13/13
f 16/16/16 17/17/17 15/15/15
f 17/17/17 18/18/18 15/15/15
f 21/21/21 20/20/20 19/19/19
f 22/22/22 21/21/21 19/19/19
f 22/22/22 23/23/23 21/21/21
f 23/23/23 24/24/24 21/21/21
f 27/27/27 26/26/26 25/25/25
f 26/26/26 28/28/28 25/25/25
f 28/28/28 26/26/26 29/29/29
f 26/26/26 30/30/30 29/29/29
f 33/33/33 32/32/32 31/31/31
f 34/34/34 33/33/33 31/31/31
f 34/34/34 35/35/35 33/33/33
f 35/35/35 36/36/36 33/33/33
f 39/39/39 38/38/38 37/37/37
f 38/38/38 40/40/40 37/37/37
f 41/41/41 37/37/37 40/40/40
f 42/42/42 41/41/41 40/40/40
f 40/40/40 43/43/43 42/42/42
f 43/43/43 44/44/44 42/42/42
f 47/47/47 46/46/46 45/45/45
f 45/45/45 48/48/48 47/47/47
f 48/48/48 49/49/49 47/47/47
f 50/50/50 47/47/47 49/49/49
f 53/53/53 52/52/52 51/51/51
f 54/54/54 53/53/53 51/51/51
f 57/57/57 56/56/56 55/55/55
f 58/58/58 57/57/57 55/55/55
f 61/61/61 60/60/60 59/59/59
f 62/62/62 61/61/61 59/59/59
f 65/65/65 64/64/64 63/63/63
f 66/66/66 65/65/65 63/63/63
f 69/69/69 68/68/68 67/67/67
f 70/70/70 69/69/69 67/67/67
f 73/73/73 72/72/72 71/71/71
f 74/74/74 73/73/73 71/71/71
f 77/77/77 76/76/76 75/75/75
f 76/76/76 78/78/78 75/75/75
f 79/79/79 78/78/78 76/76/76
f 80/80/80 78/78/78 79/79/79
f 75/75/75 78/78/78 81/81/81
f 80/80/80 82/82/82 78/78/78
f 78/78/78 82/82/82 81/81/81
f 81/81/81 82/82/82 83/83/83
f 82/82/82 84/84/84 83/83/83
f 83/83/83 84/84/84 85/85/85
f 84/84/84 86/86/86 85/85/85
f 87/87/87 86/86/86 84/84/84
f 86/86/86 87/87/87 88/88/88
f 89/89/89 86/86/86 88/88/88
f 89/89/89 88/88/88 90/90/90
f 88/88/88 91/91/91 90/90/90
f 90/90/90 91/91/91 92/92/92
f 90/90/90 92/92/92 93/93/93
f 92/92/92 94/94/94 93/93/93
f 92/92/92 95/95/95 94/94/94
f 95/95/95 96/96/96 94/94/94
f 96/96/96 95/95/95 97/97/97
f 95/95/95 98/98/98 97/97/97
f 97/97/97 98/98/98 99/99/99
f 100/100/100 96/96/96 97/97/97
f 97/97/97 99/99/99 101/101/101
f 100/100/100 97/97/97 101/101/101
f 102/102/102 100/100/100 101/101/101
f 105/105/105 104/104/104 103/103/103
f 106/106/106 103/103/103 104/104/104
f 107/107/107 106/106/106 104/104/104
f 104/104/104 108/108/108 107/107/107
f 111/111/111 110/110/110 109/109/109
f 112/112/112 111/111/111 109/109/109
f 115/115/115 114/114/114 113/113/113
f 116/116/116 115/115/115 113/113/113
f 119/119/119 118/118/118 117/117/117
f 120/120/120 119/119/119 117/117/117
f 123/123/123 122/122/122 121/121/121
f 124/124/124 123/123/123 121/121/121
f 127/127/127 126/126/126 125/125/125
f 128/128/128 127/127/127 125/125/125
f 131/131/131 130/130/130 129/129/129
f 132/132/132 131/131/131 129/129/129
