g fcbg_wasteland_001_cliff_02
v 2.3697143 1.8518012 -8.282168
v 1.0987087 0.025195122 -9.230892
v 2.5477147 0.025196075 -8.9846945
v 3.9574354 0.025195122 -7.7068424
v 1.0147855 2.002133 -8.374752
v 0.379709 2.3400042 -7.6352406
v 0.20996056 0.025194645 -8.594352
v -0.3780835 2.4261496 -8.017076
v -0.4726347 0.025195122 -9.110939
v -1.6932108 2.1551104 -7.815424
v -1.9687818 0.025195122 -9.071872
v -0.15331762 2.8490665 -6.5827456
v -2.405967 2.6932733 -6.4837103
v -2.692529 0.025195122 -7.764167
v -3.609218 0.025195122 -7.7635117
v 0.9097346 4.2104406 -6.709256
v 2.0982828 4.3279395 -6.5407476
v 3.5266507 2.283415 -6.3690224
v -3.5470343 4.321118 -5.076526
v -4.9196963 0.025195122 -6.9333906
v -2.1085262 4.4521585 -5.4492316
v -0.07985123 4.041243 -5.774752
v 6.9945474 3.278373 -3.448536
v 8.107559 0.02519226 -4.633535
v 3.0536823 4.4978004 -5.0571747
v 0.8316316 4.578185 -5.391327
v 2.0353832 4.777291 -5.0474863
v 0.58147925 7.692713 -3.548348
v -0.06880644 7.9868927 -3.262503
v 8.542577 3.552855 -4.3301253E-07
v 6.923632 5.711466 -3.622462E-07
v 10.135765 0.025191784 -5.02653E-07
v 8.107559 0.02519226 4.633534
v 6.9945474 3.278373 3.4485354
v 3.9574358 0.025195122 7.706842
v 5.542402 5.115861 -3.0843246
v 2.8882775 5.5230517 -4.5384054
v 2.5214696 7.637214 -3.4686432
v 3.564375 6.0090394 -3.4817364
v 4.730026 6.332766 -1.7505112
v 0.7383597 8.087165 -3.0410323
v 3.6004794 8.160375 -1.7296426
v 3.7641473 8.520845 -2.1757185E-07
v 2.3509855 8.567013 -1.3650955
v 4.8183827 6.360363 -2.702228E-07
v 4.730026 6.332766 1.7505108
v 1.7813787 8.542221 -1.374712E-07
v 5.542402 5.115861 3.0843241
v 3.6004794 8.160375 1.7485883
v 2.3509855 8.567013 1.3650953
v 3.5643754 6.0090394 3.481736
v 2.52147 7.637214 3.4686432
v 0.7383599 8.087165 3.0410323
v 0.60736513 10.5912 -8.615343E-08
v 2.888278 5.5230517 4.5384054
v 3.0536828 4.4978004 5.0571747
v 2.0353837 4.777291 5.0474863
v 3.5266511 2.283415 6.3690224
v 2.0982833 4.3279395 6.540747
v 2.3697152 1.8518012 8.282167
v 2.5477157 0.025196075 8.9846945
v 1.0987095 0.025195122 9.230892
v 0.5814796 7.692713 3.548348
v 1.0147862 2.002133 8.374752
v 0.8316321 4.578185 5.391327
v 0.37970966 2.3400042 7.6352406
v 0.20996131 0.025194645 8.594352
v 0.9097352 4.2104406 6.709256
v -0.079850726 4.041243 5.774752
v -0.06880616 7.9868927 3.262503
v -0.37808278 2.4261496 8.0170765
v -0.47263393 0.025195122 9.110939
v -0.15331705 2.8490665 6.582745
v -1.6932101 2.1551104 7.815424
v -1.9687811 0.025195122 9.071872
v -2.4059665 2.6932733 6.4837103
v -2.6925285 0.025195122 7.7641673
v -4.2644563 0.025195114 7.1810064
v -2.1085258 4.4521585 5.4492316
v -3.5470338 4.321118 5.076526
v -0.13167994 10.58745 2.0893164
v -4.3388944 4.0060844 4.245038
v -5.1637273 0.025194168 6.0866375
v -5.2405887 3.6483097 4.485647
v -5.974563 0.025194645 5.9859047
v -5.967727 3.6758027 3.5579212
v -6.8937206 0.025193691 4.8881493
v -6.733774 0.025194168 3.7368388
v -4.7044597 5.6014237 3.454231
v -4.071297 5.8143024 3.4132483
v -4.289416 6.175095 2.3436682
v -2.595941 7.96446 3.07747
v -5.311383 5.441816 2.799059
v -4.865421 5.3181086 2.167668
v -5.582289 3.6063375 2.5706146
v -3.6454961 7.7804976 2.361994
v -3.4769714 7.8328333 1.5851502
v -1.4989209 7.644952 3.2701075
v -1.8294864 8.249858 2.7902613
v -1.3170046 9.824845 2.553814
v -4.9299827 6.2399473 1.7493194
v -1.9401268 10.227594 1.9991728
v -2.0913043 10.730609 3.1809165E-08
v -2.8334727 9.137674 1.8107387
v -4.0174623 6.836366 1.1385392
v -5.2904496 6.974636 1.7164825E-07
v -5.857758 6.0548573 1.329032
v -0.05433702 10.9814005 -5.722951E-08
v -0.13168012 10.58745 -2.0893166
v -3.041328 9.394943 6.8942825E-08
v -4.049597 7.0912905 1.2229376E-07
v -3.6498327 7.8659945 1.0720197E-07
v -3.4769714 7.8328333 -1.5851499
v -2.8334727 9.137674 -1.8107384
v -1.940127 10.227594 -1.9991726
v -1.3170048 9.824845 -2.553814
v -1.8294866 8.249858 -2.7902613
v -1.4989212 7.644952 -3.2701075
v -2.5959415 7.96446 -3.07747
v -3.6454961 7.7804976 -2.3619938
v -4.289416 6.175095 -2.3436677
v -4.0174623 6.836366 -1.138539
v -4.071297 5.8143024 -3.4132478
v -4.3388944 4.0060844 -4.245038
v -5.163728 0.025194168 -6.0866375
v -4.7044597 5.6014237 -3.4542305
v -5.2405887 3.6483097 -4.4856477
v -5.967727 3.6758027 -3.5579207
v -5.974564 0.025194645 -5.9859037
v -6.8937206 0.025193691 -4.8881483
v -6.733774 0.025194168 -3.736838
v -5.311383 5.441816 -2.7990584
v -4.865421 5.3181086 -2.1676676
v -4.9299827 6.2399473 -1.7493188
v -5.582289 3.6063375 -2.570614
v -5.857758 6.0548573 -1.3290315
v -6.026305 6.0833726 1.9822988E-07
v -6.365772 3.7513852 -1.9212794
v -6.680649 2.2068937 -2.3732908
v -6.365772 3.7513852 1.9212798
v -6.635254 3.9635985 2.3043154E-07
v -6.9082503 2.535683 2.423646E-07
v -7.9392157 2.4944427 2.799698E-07
v -6.680649 2.206894 2.3732915
v -8.190662 1.3167834 -2.8494127
v -8.436754 0.025195122 -3.5131974
v -8.190662 1.3167834 2.8494139
v -8.436754 0.025195122 3.5131986
v -8.033131 2.3175485 -1.9747835
v -9.178305 1.8313475 -0.972181
v -10.135765 0.025195122 -1.9395032
v -10.268562 0.025193214 3.8329068E-07
v -8.033131 2.3175485 1.9747843
v -9.178305 1.8313475 0.97218186
v -10.135765 0.025195122 1.9395043
v -9.314161 1.8506842 3.3739673E-07
vt 0.051428154 0.15794004
vt 0.020203235 0.16519366
vt 0.02363861 0.14920169
vt 0.03797612 0.12869807
vt 0.05162737 0.171964
vt 0.055339113 0.18435264
vt 0.023684353 0.18116584
vt 0.0516742 0.19235276
vt 0.01964297 0.18976964
vt 0.04520086 0.20648332
vt 0.014029749 0.2017197
vt 0.07128011 0.19180323
vt 0.061844308 0.21852517
vt 0.021468246 0.21807581
vt 0.018271679 0.22640665
vt 0.08672929 0.17952672
vt 0.08909956 0.1697856
vt 0.07229496 0.14246355
vt 0.09077623 0.23291983
vt 0.019067192 0.24316819
vt 0.09211026 0.21980025
vt 0.09155895 0.19468142
vt 0.10764774 0.10347189
vt 0.05024844 0.06985439
vt 0.10594767 0.155962
vt 0.10047797 0.18457825
vt 0.10817358 0.1702033
vt 0.14763832 0.1969268
vt 0.15331364 0.20943421
vt 0.14609388 0.070788965
vt 0.16350979 0.10183832
vt 0.113298126 0.009410622
vt 0.05024844 0.06985439
vt 0.10764774 0.10347189
vt 0.03797612 0.12869807
vt 0.12755588 0.124455065
vt 0.12138082 0.16213611
vt 0.15320548 0.17486767
vt 0.13980046 0.15714669
vt 0.16132331 0.13756476
vt 0.1604169 0.19743843
vt 0.17850503 0.16349085
vt 0.19131544 0.15713559
vt 0.17742375 0.17490484
vt 0.17164019 0.12817815
vt 0.16132331 0.13756476
vt 0.19590965 0.1791675
vt 0.12755588 0.124455065
vt 0.17833468 0.1634842
vt 0.17742375 0.17490484
vt 0.13980046 0.15714669
vt 0.15320548 0.17486767
vt 0.1604169 0.19743843
vt 0.21002325 0.21149635
vt 0.12138082 0.16213611
vt 0.10594767 0.155962
vt 0.10817358 0.1702033
vt 0.07229496 0.14246355
vt 0.08909956 0.1697856
vt 0.051428154 0.15794004
vt 0.02363861 0.14920169
vt 0.020203235 0.16519366
vt 0.14763832 0.1969268
vt 0.05162737 0.171964
vt 0.10047797 0.18457825
vt 0.055339113 0.18435264
vt 0.023684353 0.18116584
vt 0.08672929 0.17952672
vt 0.09155895 0.19468142
vt 0.15331364 0.20943421
vt 0.0516742 0.19235276
vt 0.01964297 0.18976964
vt 0.07128011 0.19180323
vt 0.04520086 0.20648332
vt 0.014029749 0.2017197
vt 0.061844308 0.21852517
vt 0.021468246 0.21807581
vt 0.019643646 0.23569226
vt 0.09211026 0.21980025
vt 0.09077623 0.23291983
vt 0.189125 0.21756181
vt 0.087581955 0.2528353
vt 0.026605288 0.2532001
vt 0.07783748 0.26909238
vt 0.019509861 0.26334232
vt 0.0787504 0.2824285
vt 0.018994806 0.28413248
vt 0.026320439 0.30076373
vt 0.104914896 0.267907
vt 0.113456 0.25632638
vt 0.12228782 0.26815984
vt 0.14501032 0.24010845
vt 0.10655856 0.27648038
vt 0.10998645 0.28031465
vt 0.08132825 0.29003102
vt 0.1416614 0.25519255
vt 0.14968514 0.26032168
vt 0.14468032 0.2271925
vt 0.15385035 0.23683663
vt 0.17567357 0.22930908
vt 0.12295005 0.2785429
vt 0.18232593 0.23888427
vt 0.20221108 0.2516088
vt 0.16747025 0.24864107
vt 0.14038539 0.27056724
vt 0.13798377 0.3012671
vt 0.12238342 0.29148534
vt 0.21327966 0.22229175
vt 0.189125 0.21756181
vt 0.17918363 0.26599538
vt 0.15136069 0.28310993
vt 0.16094017 0.27713734
vt 0.14968514 0.26032168
vt 0.16747025 0.24864107
vt 0.18232593 0.23888427
vt 0.17567357 0.22930908
vt 0.15385035 0.23683663
vt 0.14468032 0.2271925
vt 0.14501032 0.24010845
vt 0.1416614 0.25519255
vt 0.12228782 0.26815984
vt 0.14038539 0.27056724
vt 0.113456 0.25632638
vt 0.087581955 0.2528353
vt 0.026605288 0.2532001
vt 0.104914896 0.267907
vt 0.07783748 0.26909238
vt 0.0787504 0.2824285
vt 0.019509861 0.26334232
vt 0.018994806 0.28413248
vt 0.026320439 0.30076373
vt 0.10655856 0.27648038
vt 0.10998645 0.28031465
vt 0.12295005 0.2785429
vt 0.08132825 0.29003102
vt 0.12238342 0.29148534
vt 0.12236646 0.31131774
vt 0.08814929 0.30339244
vt 0.0616277 0.30550265
vt 0.08814929 0.30339244
vt 0.094781525 0.32695982
vt 0.07920706 0.33489737
vt 0.07159646 0.3435752
vt 0.0616277 0.30550265
vt 0.039110996 0.31988144
vt 0.015113654 0.31837267
vt 0.039110996 0.31988144
vt 0.015113654 0.31837267
vt 0.05079091 0.32061577
vt 0.054019865 0.3409935
vt 0.0145137 0.3520169
vt 0.03385098 0.3775993
vt 0.05079091 0.32061577
vt 0.054019865 0.3409935
vt 0.0145137 0.3520169
vt 0.06301291 0.3552998
vn 0.4181273 0.4781325 -0.77237225
vn -0.21667737 0.3837728 -0.8976466
vn 0.41584367 0.41501492 -0.8092197
vn 0.6103018 0.4369874 -0.66073734
vn -0.2459047 0.46444198 -0.85077876
vn -0.20592923 0.6317062 -0.74735564
vn -0.024757322 0.38524944 -0.92248034
vn 0.14567582 0.715428 -0.6833311
vn 0.17341979 0.42224595 -0.8897381
vn -0.4224557 0.65404564 -0.62749946
vn -0.45044237 0.4520059 -0.7699301
vn -0.31754416 0.705475 -0.6336173
vn -0.27871242 0.59994435 -0.7499241
vn -0.4689463 0.43767908 -0.7671547
vn -0.25697136 0.47457626 -0.8418688
vn -0.28241867 0.75477713 -0.59207374
vn 0.31935444 0.76558197 -0.55847746
vn 0.60263276 0.4693132 -0.6454292
vn -0.507432 0.49507904 -0.7052727
vn -0.6433314 0.4543478 -0.6161921
vn -0.12920877 0.5391687 -0.8322273
vn -0.24363753 0.62117976 -0.74483323
vn 0.662612 0.50385284 -0.5541458
vn 0.6823849 0.45028144 -0.575845
vn 0.43596554 0.58352166 -0.6851543
vn -0.055765383 0.7615895 -0.64565593
vn 0.11245301 0.7359964 -0.66758054
vn 0.010268895 0.63556826 -0.77197635
vn 0.021441313 0.5059046 -0.862323
vn 0.8499755 0.5268222 0
vn 0.6350375 0.7724813 0
vn 0.90178055 0.4321941 0
vn 0.68238497 0.45028144 0.575845
vn 0.6626121 0.5038528 0.55414575
vn 0.61030185 0.4369873 0.6607373
vn 0.5419781 0.6408028 -0.54371995
vn 0.33206397 0.49748042 -0.801403
vn 0.3459023 0.66775656 -0.65913033
vn 0.57434165 0.5795449 -0.5781516
vn 0.6355683 0.6934902 -0.3392997
vn 0.24823056 0.74685407 -0.61692035
vn 0.57941484 0.73545796 -0.35125485
vn 0.5545004 0.83218336 -0.00046827286
vn 0.027936393 0.98243076 -0.18452428
vn 0.62598985 0.7798312 -0.00017347433
vn 0.63617617 0.69296706 0.33922955
vn 0.4020532 0.9156164 0
vn 0.5419783 0.6408028 0.54371995
vn 0.5780975 0.73568493 0.352946
vn 0.0265959 0.98259073 0.18386963
vn 0.5744126 0.5787562 0.57887083
vn 0.34520236 0.6673854 0.6598728
vn 0.24823052 0.74685407 0.61692023
vn 0.74744177 0.6643273 0
vn 0.33206412 0.49748036 0.801403
vn 0.43596563 0.58352166 0.6851543
vn 0.11245302 0.7359964 0.66758054
vn 0.6026328 0.4693132 0.6454292
vn 0.31935447 0.76558197 0.55847734
vn 0.41812754 0.47813243 0.7723721
vn 0.41584378 0.41501498 0.80921966
vn -0.2166772 0.3837729 0.8976465
vn 0.038548123 0.63157827 0.77435315
vn -0.2559466 0.46543762 0.84726566
vn -0.086738914 0.7627566 0.64084226
vn -0.2258125 0.6325086 0.74090594
vn -0.024757048 0.38524935 0.92248034
vn -0.26753488 0.7564446 0.59683895
vn -0.24636343 0.62315345 0.7422835
vn 0.027938422 0.49847218 0.8664553
vn 0.14567597 0.71542794 0.68333113
vn 0.17341991 0.42224583 0.88973814
vn -0.33982107 0.6961111 0.6324167
vn -0.4224557 0.6540457 0.6274994
vn -0.45044243 0.45200586 0.7699301
vn -0.3208603 0.5799923 0.7487707
vn -0.6042796 0.4112055 0.68246347
vn -0.5195962 0.43849906 0.73330647
vn -0.12920876 0.53916866 0.8322273
vn -0.48831624 0.48185033 0.7275764
vn 0.3237429 0.7715153 0.54768115
vn -0.40500942 0.44643176 0.79791355
vn -0.40453455 0.4396175 0.8019278
vn -0.38714814 0.45868236 0.7998293
vn -0.38694116 0.43074203 0.8153146
vn -0.9233869 0.35894972 0.13605735
vn -0.90289336 0.3396839 0.26343572
vn -0.79193354 0.46947286 0.39043143
vn -0.36775675 0.67951185 0.6348375
vn -0.5046615 0.6005636 0.6201938
vn -0.73376745 0.6148834 0.2889699
vn -0.29911497 0.77303606 0.55941534
vn -0.8312558 0.55442566 -0.040321298
vn -0.8393124 0.47783098 0.25929207
vn -0.9020671 0.34467876 0.25975254
vn -0.6857852 0.69422126 0.21853046
vn -0.83500975 0.52440584 0.16660476
vn -0.122108564 0.50008565 0.8573236
vn -0.42550614 0.50540257 0.7506749
vn -0.22797717 0.46105108 0.85758865
vn -0.44205958 0.65909266 0.60842437
vn -0.49408677 0.70005184 0.5155634
vn -0.5082094 0.8612336 0
vn -0.76746476 0.39518845 0.5048008
vn -0.65452975 0.72005737 0.23045214
vn -0.43865526 0.8986555 0
vn -0.7053442 0.5349985 0.4650442
vn 0.18489847 0.9827576 0
vn 0.31037623 0.76968795 -0.5578951
vn -0.8645561 0.50253624 0
vn -0.5934547 0.80486745 0
vn -0.9069558 0.42122576 0
vn -0.83500975 0.52440584 -0.16660474
vn -0.7674649 0.3951885 -0.50480074
vn -0.49408683 0.70005184 -0.5155634
vn -0.24038622 0.45260885 -0.8586964
vn -0.42550614 0.50540257 -0.7506749
vn -0.10508418 0.51010925 -0.8536662
vn -0.29911506 0.773036 -0.5594152
vn -0.68578523 0.69422126 -0.21853045
vn -0.73376757 0.61488336 -0.28896993
vn -0.65452975 0.72005737 -0.23045215
vn -0.5046616 0.6005636 -0.62019354
vn -0.44012916 0.45614105 -0.77344793
vn -0.49146456 0.45767912 -0.7409402
vn -0.36775666 0.6795119 -0.6348374
vn -0.3871483 0.45868227 -0.7998292
vn -0.923387 0.35894972 -0.13605718
vn -0.3869415 0.4307419 -0.8153144
vn -0.90289354 0.33968377 -0.26343545
vn -0.79193354 0.46947286 -0.39043137
vn -0.8312558 0.55442566 0.040321402
vn -0.8393124 0.47783098 -0.259292
vn -0.44205958 0.6590926 -0.60842437
vn -0.9020671 0.34467873 -0.25975254
vn -0.70534414 0.53499854 -0.46504423
vn -0.8899447 0.45606843 0
vn -0.8092434 0.31137568 -0.49816698
vn -0.5216059 0.60141647 -0.60516566
vn -0.8092434 0.3113757 0.4981669
vn -0.97070843 0.24026054 0
vn -0.6271646 0.77888674 0
vn -0.20685604 0.9783714 0
vn -0.52160585 0.6014166 0.6051656
vn -0.3733247 0.5747051 -0.72824633
vn -0.35856202 0.5507547 -0.7537258
vn -0.3733246 0.5747052 0.72824633
vn -0.35856193 0.5507547 0.7537258
vn -0.32977334 0.85271174 -0.40513247
vn -0.6736893 0.7025513 -0.22926937
vn -0.7580941 0.53484654 -0.3731389
vn -0.8754763 0.48326114 0
vn -0.3297733 0.85271174 0.40513235
vn -0.67368925 0.7025513 0.22926936
vn -0.7580941 0.53484654 0.37313887
vn -0.6957149 0.718318 0
g fcbg_wasteland_001_cliff_02_0
f 3/3/3 2/2/2 1/1/1
f 4/4/4 3/3/3 1/1/1
f 2/2/2 5/5/5 1/1/1
f 5/5/5 2/2/2 6/6/6
f 2/2/2 7/7/7 6/6/6
f 6/6/6 7/7/7 8/8/8
f 7/7/7 9/9/9 8/8/8
f 10/10/10 8/8/8 9/9/9
f 11/11/11 10/10/10 9/9/9
f 8/8/8 12/12/12 6/6/6
f 8/8/8 10/10/10 12/12/12
f 13/13/13 10/10/10 11/11/11
f 10/10/10 13/13/13 12/12/12
f 14/14/14 13/13/13 11/11/11
f 13/13/13 14/14/14 15/15/15
f 16/16/16 5/5/5 6/6/6
f 12/12/12 16/16/16 6/6/6
f 17/17/17 1/1/1 5/5/5
f 16/16/16 17/17/17 5/5/5
f 18/18/18 4/4/4 1/1/1
f 1/1/1 17/17/17 18/18/18
f 19/19/19 13/13/13 15/15/15
f 15/15/15 20/20/20 19/19/19
f 13/13/13 21/21/21 12/12/12
f 19/19/19 21/21/21 13/13/13
f 12/12/12 22/22/22 16/16/16
f 21/21/21 22/22/22 12/12/12
f 4/4/4 18/18/18 23/23/23
f 24/24/24 4/4/4 23/23/23
f 17/17/17 25/25/25 18/18/18
f 18/18/18 25/25/25 23/23/23
f 16/16/16 26/26/26 17/17/17
f 26/26/26 16/16/16 22/22/22
f 26/26/26 27/27/27 17/17/17
f 25/25/25 17/17/17 27/27/27
f 26/26/26 22/22/22 28/28/28
f 26/26/26 28/28/28 27/27/27
f 22/22/22 21/21/21 29/29/29
f 28/28/28 22/22/22 29/29/29
f 23/23/23 30/30/30 24/24/24
f 30/30/30 23/23/23 31/31/31
f 30/30/30 32/32/32 24/24/24
f 32/32/32 30/30/30 33/33/33
f 30/30/30 34/34/34 33/33/33
f 34/34/34 30/30/30 31/31/31
f 33/33/33 34/34/34 35/35/35
f 25/25/25 36/36/36 23/23/23
f 23/23/23 36/36/36 31/31/31
f 37/37/37 25/25/25 27/27/27
f 37/37/37 36/36/36 25/25/25
f 28/28/28 38/38/38 27/27/27
f 38/38/38 37/37/37 27/27/27
f 37/37/37 39/39/39 36/36/36
f 37/37/37 38/38/38 39/39/39
f 39/39/39 40/40/40 36/36/36
f 40/40/40 31/31/31 36/36/36
f 38/38/38 28/28/28 41/41/41
f 29/29/29 41/41/41 28/28/28
f 39/39/39 38/38/38 42/42/42
f 40/40/40 39/39/39 42/42/42
f 42/42/42 43/43/43 40/40/40
f 44/44/44 42/42/42 38/38/38
f 38/38/38 41/41/41 44/44/44
f 44/44/44 43/43/43 42/42/42
f 40/40/40 45/45/45 31/31/31
f 43/43/43 45/45/45 40/40/40
f 45/45/45 46/46/46 31/31/31
f 45/45/45 43/43/43 46/46/46
f 44/44/44 41/41/41 47/47/47
f 47/47/47 43/43/43 44/44/44
f 31/31/31 46/46/46 48/48/48
f 48/48/48 34/34/34 31/31/31
f 43/43/43 49/49/49 46/46/46
f 43/43/43 47/47/47 50/50/50
f 43/43/43 50/50/50 49/49/49
f 51/51/51 46/46/46 49/49/49
f 46/46/46 51/51/51 48/48/48
f 49/49/49 50/50/50 52/52/52
f 52/52/52 51/51/51 49/49/49
f 50/50/50 47/47/47 53/53/53
f 53/53/53 52/52/52 50/50/50
f 47/47/47 41/41/41 54/54/54
f 47/47/47 54/54/54 53/53/53
f 51/51/51 55/55/55 48/48/48
f 52/52/52 55/55/55 51/51/51
f 48/48/48 56/56/56 34/34/34
f 48/48/48 55/55/55 56/56/56
f 55/55/55 52/52/52 57/57/57
f 56/56/56 55/55/55 57/57/57
f 56/56/56 58/58/58 34/34/34
f 34/34/34 58/58/58 35/35/35
f 58/58/58 56/56/56 59/59/59
f 59/59/59 56/56/56 57/57/57
f 35/35/35 58/58/58 60/60/60
f 60/60/60 58/58/58 59/59/59
f 61/61/61 35/35/35 60/60/60
f 61/61/61 60/60/60 62/62/62
f 57/57/57 52/52/52 63/63/63
f 63/63/63 52/52/52 53/53/53
f 60/60/60 64/64/64 62/62/62
f 64/64/64 60/60/60 59/59/59
f 59/59/59 57/57/57 65/65/65
f 65/65/65 57/57/57 63/63/63
f 62/62/62 64/64/64 66/66/66
f 67/67/67 62/62/62 66/66/66
f 68/68/68 64/64/64 59/59/59
f 68/68/68 59/59/59 65/65/65
f 66/66/66 64/64/64 68/68/68
f 68/68/68 65/65/65 69/69/69
f 69/69/69 65/65/65 63/63/63
f 69/69/69 66/66/66 68/68/68
f 53/53/53 70/70/70 63/63/63
f 70/70/70 69/69/69 63/63/63
f 66/66/66 71/71/71 67/67/67
f 71/71/71 72/72/72 67/67/67
f 73/73/73 66/66/66 69/69/69
f 73/73/73 71/71/71 66/66/66
f 72/72/72 71/71/71 74/74/74
f 74/74/74 71/71/71 73/73/73
f 75/75/75 72/72/72 74/74/74
f 75/75/75 74/74/74 76/76/76
f 76/76/76 74/74/74 73/73/73
f 77/77/77 75/75/75 76/76/76
f 77/77/77 76/76/76 78/78/78
f 69/69/69 79/79/79 73/73/73
f 79/79/79 76/76/76 73/73/73
f 79/79/79 69/69/69 70/70/70
f 80/80/80 78/78/78 76/76/76
f 79/79/79 80/80/80 76/76/76
f 81/81/81 70/70/70 53/53/53
f 54/54/54 81/81/81 53/53/53
f 78/78/78 80/80/80 82/82/82
f 83/83/83 78/78/78 82/82/82
f 82/82/82 84/84/84 83/83/83
f 84/84/84 85/85/85 83/83/83
f 85/85/85 84/84/84 86/86/86
f 87/87/87 85/85/85 86/86/86
f 87/87/87 86/86/86 88/88/88
f 89/89/89 84/84/84 82/82/82
f 86/86/86 84/84/84 89/89/89
f 82/82/82 80/80/80 90/90/90
f 90/90/90 89/89/89 82/82/82
f 89/89/89 90/90/90 91/91/91
f 90/90/90 80/80/80 92/92/92
f 80/80/80 79/79/79 92/92/92
f 93/93/93 86/86/86 89/89/89
f 93/93/93 89/89/89 91/91/91
f 86/86/86 93/93/93 94/94/94
f 94/94/94 93/93/93 91/91/91
f 95/95/95 86/86/86 94/94/94
f 86/86/86 95/95/95 88/88/88
f 96/96/96 90/90/90 92/92/92
f 90/90/90 96/96/96 91/91/91
f 96/96/96 97/97/97 91/91/91
f 79/79/79 98/98/98 92/92/92
f 98/98/98 79/79/79 70/70/70
f 92/92/92 99/99/99 96/96/96
f 99/99/99 92/92/92 98/98/98
f 99/99/99 97/97/97 96/96/96
f 100/100/100 98/98/98 70/70/70
f 99/99/99 98/98/98 100/100/100
f 100/100/100 70/70/70 81/81/81
f 101/101/101 94/94/94 91/91/91
f 95/95/95 94/94/94 101/101/101
f 102/102/102 99/99/99 100/100/100
f 102/102/102 100/100/100 81/81/81
f 103/103/103 102/102/102 81/81/81
f 102/102/102 104/104/104 99/99/99
f 99/99/99 104/104/104 97/97/97
f 102/102/102 103/103/103 104/104/104
f 105/105/105 101/101/101 91/91/91
f 97/97/97 105/105/105 91/91/91
f 106/106/106 101/101/101 105/105/105
f 101/101/101 107/107/107 95/95/95
f 106/106/106 107/107/107 101/101/101
f 108/108/108 103/103/103 81/81/81
f 54/54/54 108/108/108 81/81/81
f 108/108/108 54/54/54 109/109/109
f 108/108/108 109/109/109 103/103/103
f 41/41/41 109/109/109 54/54/54
f 29/29/29 109/109/109 41/41/41
f 103/103/103 110/110/110 104/104/104
f 104/104/104 110/110/110 97/97/97
f 111/111/111 105/105/105 97/97/97
f 111/111/111 106/106/106 105/105/105
f 110/110/110 112/112/112 97/97/97
f 112/112/112 111/111/111 97/97/97
f 113/113/113 112/112/112 110/110/110
f 111/111/111 112/112/112 113/113/113
f 110/110/110 103/103/103 114/114/114
f 114/114/114 113/113/113 110/110/110
f 109/109/109 115/115/115 103/103/103
f 103/103/103 115/115/115 114/114/114
f 116/116/116 109/109/109 29/29/29
f 116/116/116 115/115/115 109/109/109
f 114/114/114 115/115/115 117/117/117
f 117/117/117 115/115/115 116/116/116
f 114/114/114 117/117/117 113/113/113
f 118/118/118 116/116/116 29/29/29
f 118/118/118 117/117/117 116/116/116
f 21/21/21 118/118/118 29/29/29
f 119/119/119 118/118/118 21/21/21
f 119/119/119 117/117/117 118/118/118
f 19/19/19 119/119/119 21/21/21
f 117/117/117 119/119/119 120/120/120
f 113/113/113 117/117/117 120/120/120
f 113/113/113 120/120/120 121/121/121
f 122/122/122 111/111/111 113/113/113
f 122/122/122 113/113/113 121/121/121
f 106/106/106 111/111/111 122/122/122
f 123/123/123 120/120/120 119/119/119
f 19/19/19 123/123/123 119/119/119
f 120/120/120 123/123/123 121/121/121
f 19/19/19 124/124/124 123/123/123
f 124/124/124 19/19/19 20/20/20
f 125/125/125 124/124/124 20/20/20
f 123/123/123 124/124/124 126/126/126
f 123/123/123 126/126/126 121/121/121
f 124/124/124 125/125/125 127/127/127
f 124/124/124 127/127/127 126/126/126
f 127/127/127 128/128/128 126/126/126
f 125/125/125 129/129/129 127/127/127
f 128/128/128 127/127/127 129/129/129
f 130/130/130 128/128/128 129/129/129
f 128/128/128 130/130/130 131/131/131
f 126/126/126 132/132/132 121/121/121
f 128/128/128 132/132/132 126/126/126
f 132/132/132 133/133/133 121/121/121
f 132/132/132 128/128/128 133/133/133
f 133/133/133 134/134/134 121/121/121
f 134/134/134 122/122/122 121/121/121
f 134/134/134 106/106/106 122/122/122
f 128/128/128 135/135/135 133/133/133
f 134/134/134 133/133/133 135/135/135
f 135/135/135 128/128/128 131/131/131
f 136/136/136 106/106/106 134/134/134
f 135/135/135 136/136/136 134/134/134
f 106/106/106 136/136/136 137/137/137
f 106/106/106 137/137/137 107/107/107
f 135/135/135 138/138/138 136/136/136
f 136/136/136 138/138/138 137/137/137
f 131/131/131 139/139/139 135/135/135
f 138/138/138 135/135/135 139/139/139
f 140/140/140 107/107/107 137/137/137
f 107/107/107 140/140/140 95/95/95
f 138/138/138 141/141/141 137/137/137
f 141/141/141 140/140/140 137/137/137
f 142/142/142 141/141/141 138/138/138
f 141/141/141 142/142/142 140/140/140
f 139/139/139 142/142/142 138/138/138
f 142/142/142 139/139/139 143/143/143
f 95/95/95 140/140/140 144/144/144
f 142/142/142 144/144/144 140/140/140
f 142/142/142 143/143/143 144/144/144
f 144/144/144 88/88/88 95/95/95
f 139/139/139 131/131/131 145/145/145
f 131/131/131 146/146/146 145/145/145
f 88/88/88 144/144/144 147/147/147
f 148/148/148 88/88/88 147/147/147
f 145/145/145 149/149/149 139/139/139
f 139/139/139 149/149/149 143/143/143
f 145/145/145 146/146/146 150/150/150
f 145/145/145 150/150/150 149/149/149
f 150/150/150 143/143/143 149/149/149
f 146/146/146 151/151/151 150/150/150
f 151/151/151 152/152/152 150/150/150
f 153/153/153 147/147/147 144/144/144
f 143/143/143 153/153/153 144/144/144
f 148/148/148 147/147/147 154/154/154
f 154/154/154 147/147/147 153/153/153
f 143/143/143 154/154/154 153/153/153
f 155/155/155 148/148/148 154/154/154
f 152/152/152 155/155/155 154/154/154
f 152/152/152 156/156/156 150/150/150
f 156/156/156 143/143/143 150/150/150
f 156/156/156 152/152/152 154/154/154
f 156/156/156 154/154/154 143/143/143
