g fcbg_cityforest_003_drain_01
v 1.215929E-07 -0.60008806 -0.9507905
v 0.42432642 -0.42432642 0.95078677
v 0.42432642 -0.4243262 -0.9507905
v 1.215929E-07 -0.6000883 0.95078665
v 0.34248587 -0.34248596 0.9507869
v -0.42432624 -0.4243264 -0.9507905
v 7.734512E-08 -0.4843484 0.9507869
v -0.42432624 -0.4243266 0.95078677
v -0.600088 -9.536222E-08 -0.95079046
v -0.34248582 -0.34248608 0.9507869
v -0.600088 -3.1442835E-07 0.95078677
v -0.42432636 0.42432627 -0.9507904
v -0.48434812 -2.93187E-07 0.9507869
v -0.42432636 0.42432606 0.95078677
v -6.9131545E-08 0.60008806 -0.9507904
v -0.34248587 0.34248564 0.9507869
v -6.9131545E-08 0.6000878 0.9507869
v 0.4243263 0.42432636 -0.9507904
v -6.917281E-08 0.48434788 0.9507869
v 0.4243263 0.42432615 0.95078677
v 0.600088 7.628751E-08 -0.95079046
v 0.34248582 0.34248567 0.9507869
v 0.600088 -1.4277862E-07 0.95078677
v 0.42432642 -0.4243262 -0.9507905
v 0.48434806 -1.5464364E-07 0.950787
v 0.42432642 -0.42432642 0.95078677
v 0.34248587 -0.34248596 0.9507869
v -0.34248587 0.34248564 0.9507869
v -0.3515795 0.34248576 -0.34425646
v -0.49344167 -2.1969382E-07 -0.34425652
v -0.48434812 -2.93187E-07 0.9507869
v -0.35157943 -0.34248602 -0.34425658
v -0.34248582 -0.34248608 0.9507869
v -0.009093531 -0.4843483 -0.3442564
v 7.734512E-08 -0.4843484 0.9507869
v 0.33339232 -0.34248587 -0.34425658
v 0.34248587 -0.34248596 0.9507869
vt 0.060351886 0.34431878
vt 0.04613563 0.40610978
vt 0.04613563 0.34431878
vt 0.060351886 0.40610978
vt 0.04613563 0.4096781
vt 0.04613563 0.34431878
vt 0.060351886 0.4096781
vt 0.04613563 0.40610978
vt 0.03161888 0.34431878
vt 0.04613563 0.4096781
vt 0.03161888 0.40610978
vt 0.016677096 0.34431878
vt 0.03161888 0.4096781
vt 0.016677096 0.40610978
vt 0.0024324188 0.34431878
vt 0.016677096 0.4096781
vt 0.0024324188 0.40610978
vt 0.016677096 0.34431878
vt 0.0024324188 0.4096781
vt 0.016677096 0.40610978
vt 0.03161888 0.34431878
vt 0.016677096 0.4096781
vt 0.03161888 0.40610978
vt 0.04613563 0.34431878
vt 0.03161888 0.4096781
vt 0.04613563 0.40610978
vt 0.04613563 0.4096781
vt 0.0032817435 0.41235477
vt 0.0030103086 0.44641408
vt 0.012759175 0.44651797
vt 0.013030823 0.41245866
vt 0.02250815 0.44656962
vt 0.022780543 0.41251037
vt 0.03225723 0.4465845
vt 0.032530364 0.41252518
vt 0.042006627 0.44659948
vt 0.04227998 0.4125402
vn -0 -1 0
vn 0.5489854 -0.5489852 0.630262
vn 0.70710695 -0.70710653 0
vn -0 -0.7763826 0.63026184
vn -0.14148673 0.34157997 0.9291419
vn -0.7071067 -0.70710677 0
vn -0.0010168739 0.5943711 0.8041903
vn -0.5489852 -0.5489854 0.6302621
vn -1 0 0
vn 0.42110103 0.42212263 0.80279905
vn -0.7763824 0 0.63026214
vn -0.7071069 0.7071066 0
vn 0.59702843 0 0.80222005
vn -0.5489854 0.548985 0.6302622
vn -0 1 0
vn 0.34337437 -0.1422301 0.92836666
vn -0 0.77638215 0.63026243
vn 0.70710677 0.70710677 0
vn -0 0 1
vn 0.54898536 0.5489852 0.63026214
vn 1 0 0
vn -0 0 1
vn 0.7763825 0 0.630262
vn 0.70710695 -0.70710653 0
vn -0 0 1
vn 0.5489854 -0.5489852 0.630262
vn -0.14148673 0.34157997 0.9291419
vn 0.34337437 -0.1422301 0.92836666
vn 0.9238602 -0.38267517 -0.0064872233
vn 0.9999753 0 -0.0070216674
vn 0.59702843 0 0.80222005
vn 0.7079513 0.7062437 -0.0049710833
vn 0.42110103 0.42212263 0.80279905
vn 0.001710484 0.99999857 -1.1952269E-05
vn -0.0010168739 0.5943711 0.8041903
vn -0.38268238 0.92387605 0.0026871962
vn -0.14148673 0.34157997 0.9291419
g fcbg_cityforest_003_drain_01_0
f 3/3/3 2/2/2 1/1/1
f 2/2/2 4/4/4 1/1/1
f 2/2/2 5/5/5 4/4/4
f 1/1/1 4/4/4 6/6/6
f 5/5/5 7/7/7 4/4/4
f 4/4/4 8/8/8 6/6/6
f 4/4/4 7/7/7 8/8/8
f 6/6/6 8/8/8 9/9/9
f 7/7/7 10/10/10 8/8/8
f 8/8/8 11/11/11 9/9/9
f 8/8/8 10/10/10 11/11/11
f 9/9/9 11/11/11 12/12/12
f 10/10/10 13/13/13 11/11/11
f 11/11/11 14/14/14 12/12/12
f 11/11/11 13/13/13 14/14/14
f 12/12/12 14/14/14 15/15/15
f 13/13/13 16/16/16 14/14/14
f 14/14/14 17/17/17 15/15/15
f 14/14/14 16/16/16 17/17/17
f 15/15/15 17/17/17 18/18/18
f 16/16/16 19/19/19 17/17/17
f 17/17/17 20/20/20 18/18/18
f 17/17/17 19/19/19 20/20/20
f 18/18/18 20/20/20 21/21/21
f 19/19/19 22/22/22 20/20/20
f 20/20/20 23/23/23 21/21/21
f 20/20/20 22/22/22 23/23/23
f 21/21/21 23/23/23 24/24/24
f 22/22/22 25/25/25 23/23/23
f 23/23/23 26/26/26 24/24/24
f 23/23/23 25/25/25 26/26/26
f 25/25/25 27/27/27 26/26/26
f 30/30/30 29/29/29 28/28/28
f 31/31/31 30/30/30 28/28/28
f 32/32/32 30/30/30 31/31/31
f 33/33/33 32/32/32 31/31/31
f 34/34/34 32/32/32 33/33/33
f 35/35/35 34/34/34 33/33/33
f 36/36/36 34/34/34 35/35/35
f 37/37/37 36/36/36 35/35/35
