g fcbg_desert_001_rock_01
v -8.441624 1.4601951 -3.2988648
v -9.312425 -4.5677413E-07 -3.2988648
v -7.147744 7.280235E-07 -4.586645
v -8.400526 1.4380152 -3.3064852
v -6.931801 1.928935 -3.0354476
v -6.965109 0.89301205 -4.30995
v -4.8574753 1.6833607E-06 -4.8112106
v -6.860429 1.3206125 -3.548997
v -5.1233244 1.5288708 -3.596963
v -6.871751 2.4300146 -3.0354476
v -5.160753 1.1404114 -3.6866565
v -4.832517 0.4229674 -4.5937195
v -1.8527508 0.4092727 -4.103863
v -1.9377217 2.7803273E-06 -4.2476296
v -0.06549072 3.1888485E-06 -3.7228518
v -2.7231283 0.98536915 -3.4906354
v -2.69275 1.3955351 -3.4138727
v -0.22652578 0.94961536 -3.5307944
v 1.1077318 3.999853E-06 -3.8322468
v -1.6161366 0.87141067 -3.7167974
v -4.6612325 2.3356283 -3.6161742
v -1.6814108 1.340957 -3.668847
v -1.3350005 2.1758683 -3.1036034
v -0.22293472 1.6555195 -2.990275
v 1.1134787 1.5312834 -3.4661841
v 3.7143764 1.3708135 -3.9183564
v 3.7143764 4.887581E-06 -4.102942
v 6.8752213 1.4871897 -2.6790848
v 7.622547 6.3311613E-06 -2.6161008
v 9.007811 6.6651614E-06 -1.4857849
v 1.2679434 2.7164843 -3.0385332
v 1.3334923 3.2194395 -2.8546243
v 3.5904598 2.83539 -3.445879
v 9.74127 0.73366773 -5.9604645E-08
v 10.05554 6.8591216E-06 -1.1920929E-07
v 9.007811 6.5352697E-06 1.4857846
v 6.8752213 1.4871894 2.6790848
v 7.622547 6.102455E-06 2.6161008
v 3.469244 4.6410814E-06 3.769446
v 6.161375 2.1047983 -2.207686
v 8.058376 1.9263113 -5.9604645E-08
v 8.827965 1.4871897 -5.9604645E-08
v 3.469244 1.3708133 3.5848603
v 1.1077318 3.6648273E-06 3.8322468
v 5.6612444 2.7128325 -2.0023508
v 6.161375 2.104798 2.207686
v 1.0705099 1.5312831 3.4661841
v -0.06549072 2.943611E-06 3.3803225
v 5.6612444 2.7128325 2.0023508
v 3.3453274 2.8353899 3.112383
v 7.2520638 2.6700342 1.6349245E-16
v 6.097804 3.0581944 1.872604E-16
v 1.2679434 2.716484 3.0385332
v 4.0451536 3.027355 -2.4356012
v 5.2499228 2.882831 -1.6971462
v 3.2388163 3.3400671 -2.674045
v 4.6238422 3.447042 -1.5585042
v 3.1846523 3.8242679 5.9604645E-08
v 5.298527 3.6699746 5.9604645E-08
v 0.9703274 3.4109702 -2.1465492
v 4.6238422 3.447042 1.5585042
v -1.2692628 3.6165507 -2.7381759
v 5.2499228 2.882831 1.6971463
v 4.0451536 3.0273547 2.4356012
v 3.2388163 3.340067 2.674045
v 1.3334923 3.2194393 2.8546243
v 0.9703274 3.4109702 2.1465492
v 0.8426609 3.9813101 -2.0543523
v 1.881958 4.8120556 1.1920929E-07
v 0.65254116 2.6228154 2.437388
v -1.2692628 3.6165504 2.7381759
v 0.8426609 3.9813101 2.0543523
v -0.22293472 1.6555192 2.990275
v -1.3350005 2.175868 3.1036034
v -0.21846676 1.209657 3.200683
v -1.6814108 1.3409567 3.668847
v -0.0031394958 0.6895733 3.3577318
v -1.8527508 0.40927234 4.103863
v -1.9377217 2.408988E-06 4.2476296
v -4.8574753 1.2627513E-06 4.8112106
v -1.6161366 0.87141037 3.7167974
v -2.69275 1.3955349 3.4138727
v -2.7231283 0.98536885 3.4906354
v -4.832517 0.422967 4.5937195
v -6.965109 0.8930116 4.30995
v -7.147744 3.270462E-07 4.586645
v -5.160753 1.140411 3.6866565
v -4.6612325 2.3356278 3.6161742
v -5.1233244 1.5288705 3.596963
v -6.860429 1.3206123 3.548997
v -8.400526 1.438015 3.3064852
v -6.931801 1.9289348 3.0354476
v -8.441624 1.4601948 3.2988648
v -8.902753 1.4601941 -5.9604645E-08
v -9.312425 -7.4517004E-07 3.2988648
v -9.773554 -1.1928919E-06 -1.1920929E-07
v -9.312425 -4.5677413E-07 -3.2988648
v -8.441624 1.4601951 -3.2988648
v -6.931801 1.928935 -3.0354476
v -7.330643 1.9289343 -5.9604645E-08
v -6.871751 2.4300144 3.0354476
v -6.522691 3.6672463 3.2720966
v -8.639875 3.9589374 1.9554507
v -8.671726 3.0904438 1.6640264
v -4.658071 3.379353 3.471846
v -6.2800016 4.1135845 3.4222112
v -4.6258936 3.9246693 3.5695577
v -4.042393 4.4508176 3.189403
v -9.811308 3.8994393 0.7771119
v -9.9301405 3.4782844 5.9604645E-08
v -10.055541 3.9823377 5.9604645E-08
v -9.633913 5.3848867 0.7833878
v -8.156861 5.364944 1.469341
v 0.097756386 4.8063426 1.8493117
v -5.980928 5.150477 2.5853148
v -3.5708046 5.2650967 2.4593048
v -3.523849 5.913137 1.1920929E-07
v -8.301927 5.512248 1.1920929E-07
v -0.8770609 5.00911 1.5809935
v -9.819905 5.3848867 1.1920929E-07
v -9.633913 5.3848867 -0.7833876
v -8.156861 5.364944 -1.4693408
v -9.811308 3.8994393 -0.7771118
v -9.9301405 3.4782844 5.9604645E-08
v -8.671726 3.0904438 -1.6640263
v -8.639875 3.9589374 -1.9554507
v -6.522691 3.6672468 -3.2720966
v -6.2800016 4.1135845 -3.4222112
v -4.658071 3.3793535 -3.471846
v -4.6258936 3.9246697 -3.5695577
v -4.042393 4.4508176 -3.189403
v -5.980928 5.150477 -2.5853148
v -3.5708046 5.2650967 -2.4593046
v 0.097756386 4.8063426 -1.8493115
v -0.8770609 5.00911 -1.5809933
v -1.4898319 5.7183237 -1.241991
v 0.7751999 5.1306434 1.1920929E-07
v -0.38614845 5.737022 1.1920929E-07
v -1.4898319 5.7183237 1.2419913
v -6.931801 1.9289348 3.0354476
v -7.330643 1.9289343 -5.9604645E-08
v -7.5846043 2.449945 1.5001586E-16
v -6.871751 2.4300144 3.0354476
v -6.931801 1.928935 -3.0354476
v -8.671726 3.0904438 1.6640264
v -6.871751 2.4300146 -3.0354476
v -9.9301405 3.4782844 5.9604645E-08
v -8.671726 3.0904438 -1.6640263
vt 0.058327384 0.88181233
vt 0.042450745 0.86065567
vt 0.0793107 0.8541375
vt 0.057506863 0.8829575
vt 0.07745665 0.90070224
vt 0.08113425 0.87013036
vt 0.11217189 0.8549585
vt 0.081541434 0.885646
vt 0.108660474 0.88815427
vt 0.08095841 0.91205424
vt 0.10855511 0.88169503
vt 0.11268058 0.86241955
vt 0.15833052 0.85799927
vt 0.15625545 0.8514791
vt 0.18688618 0.84823936
vt 0.14686818 0.87355345
vt 0.14801973 0.8795063
vt 0.18751615 0.86397296
vt 0.21753019 0.8404179
vt 0.16367508 0.866102
vt 0.118304186 0.89865917
vt 0.16393298 0.8733403
vt 0.172756 0.8873477
vt 0.18985666 0.8757121
vt 0.21807581 0.86536586
vt 0.25576818 0.8593463
vt 0.25643018 0.8377275
vt 0.3113902 0.8680134
vt 0.32753453 0.8475447
vt 0.35643306 0.8596904
vt 0.22076775 0.8848127
vt 0.22264494 0.8923705
vt 0.25335872 0.8821017
vt 0.3719857 0.88514376
vt 0.3700148 0.87246644
vt 0.35643306 0.8596904
vt 0.3113902 0.8680134
vt 0.32753453 0.8475447
vt 0.25643018 0.8377275
vt 0.30174306 0.8805763
vt 0.34319857 0.9024586
vt 0.35646132 0.8951752
vt 0.25576818 0.8593463
vt 0.21753019 0.8404179
vt 0.29342422 0.8900041
vt 0.30174306 0.8805763
vt 0.21807581 0.86536586
vt 0.18688618 0.84823936
vt 0.29342422 0.8900041
vt 0.25335872 0.8821017
vt 0.3275652 0.91204035
vt 0.30876443 0.9192372
vt 0.22076775 0.8848127
vt 0.26645446 0.8904205
vt 0.28836805 0.89654946
vt 0.25240135 0.8915928
vt 0.27747637 0.9042387
vt 0.25975427 0.9326727
vt 0.29343972 0.92611974
vt 0.21671572 0.90405387
vt 0.27747637 0.9042387
vt 0.17858456 0.91023684
vt 0.28836805 0.89654946
vt 0.26645446 0.8904205
vt 0.25240135 0.8915928
vt 0.22264494 0.8923705
vt 0.21671572 0.90405387
vt 0.21419597 0.9140775
vt 0.23982124 0.9459518
vt 0.20763701 0.88982713
vt 0.17858456 0.91023684
vt 0.21419597 0.9140775
vt 0.18985666 0.8757121
vt 0.172756 0.8873477
vt 0.18656357 0.86872023
vt 0.16393298 0.8733403
vt 0.18846874 0.8592257
vt 0.15833052 0.85799927
vt 0.15625545 0.8514791
vt 0.11217189 0.8549585
vt 0.16367508 0.866102
vt 0.14801973 0.8795063
vt 0.14686818 0.87355345
vt 0.11268058 0.86241955
vt 0.08113425 0.87013036
vt 0.0793107 0.8541375
vt 0.10855511 0.88169503
vt 0.118304186 0.89865917
vt 0.108660474 0.88815427
vt 0.081541434 0.885646
vt 0.057506863 0.8829575
vt 0.07745665 0.90070224
vt 0.058327384 0.88181233
vt 0.016494894 0.9086975
vt 0.042450745 0.86065567
vt -0.0003782187 0.8886575
vt 0.042450745 0.86065567
vt 0.058327384 0.88181233
vt 0.07745665 0.90070224
vt 0.033441223 0.9245022
vt 0.08095841 0.91205424
vt 0.09526507 0.9267432
vt 0.06677439 0.95435643
vt 0.05749487 0.94613343
vt 0.122598566 0.9136423
vt 0.101085275 0.93078643
vt 0.124965794 0.92112684
vt 0.13609175 0.92801034
vt 0.046395127 0.9694095
vt 0.033211187 0.9687565
vt 0.037407655 0.97800237
vt 0.06103657 0.98592
vt 0.08152574 0.9729745
vt 0.20384324 0.92896426
vt 0.110726446 0.9493647
vt 0.14723732 0.94190985
vt 0.15802877 0.98025864
vt 0.08235845 0.995834
vt 0.1913151 0.9386515
vt 0.055490796 0.9957514
vt 0.06103657 0.98592
vt 0.08152574 0.9729745
vt 0.046395127 0.9694095
vt 0.033211187 0.9687565
vt 0.05749487 0.94613343
vt 0.06677439 0.95435643
vt 0.09526507 0.9267432
vt 0.101085275 0.93078643
vt 0.122598566 0.9136423
vt 0.124965794 0.92112684
vt 0.13609175 0.92801034
vt 0.110726446 0.9493647
vt 0.14723732 0.94190985
vt 0.20384324 0.92896426
vt 0.1913151 0.9386515
vt 0.18331547 0.9520229
vt 0.22407354 0.9538242
vt 0.20579308 0.9642628
vt 0.18331547 0.9520229
vt 0.07745665 0.90070224
vt 0.033441223 0.9245022
vt 0.03362819 0.9283567
vt 0.08095841 0.91205424
vt 0.07745665 0.90070224
vt 0.05749487 0.94613343
vt 0.08095841 0.91205424
vt 0.033211187 0.9687565
vt 0.05749487 0.94613343
vn -0.53932846 0.6823469 -0.49348515
vn -0.7709252 0.45974836 -0.4408012
vn -0.27901325 0.35274723 -0.8931523
vn -0.23442079 0.5480893 -0.8028979
vn -0.4761886 0.511652 -0.71516204
vn -0.14097373 0.62463206 -0.7680893
vn 0.04224241 0.36953405 -0.9282566
vn -0.028883459 0.73905647 -0.67302394
vn -0.06777344 0.21433656 -0.9744058
vn -0.594297 -0.17039259 -0.7859882
vn 0.050376557 0.62126654 -0.7819783
vn 0.071955875 0.5819712 -0.8100197
vn 0.13377468 0.49147427 -0.8605565
vn 0.20253411 0.32192355 -0.9248487
vn 0.08086948 0.23192212 -0.96936697
vn -0.0023191476 0.4867698 -0.87352717
vn 0.00982503 0.18765758 -0.9821853
vn 0.052474234 0.3871762 -0.92051136
vn -0.09875879 0.19997737 -0.9748106
vn 0.013528828 0.50242347 -0.86451584
vn -0.018112468 0.054445475 -0.9983524
vn -0.011193861 0.41414115 -0.9101438
vn 0.14545393 0.32720876 -0.9336903
vn -0.0072401883 0.35547733 -0.93465686
vn -0.17308018 0.30865988 -0.93529266
vn 0.12428595 0.29248837 -0.9481579
vn 0.11342451 0.16389552 -0.9799352
vn 0.48479274 0.48525363 -0.7276708
vn 0.5226259 0.22523569 -0.8222719
vn 0.6565333 0.49692997 -0.5674722
vn -0.10149544 0.33276555 -0.9375318
vn -0.107930906 0.776056 -0.6213598
vn 0.1555909 0.6326068 -0.75868315
vn 0.831826 0.5550366 0
vn 0.9192158 0.39375398 0
vn 0.6565333 0.4969299 0.5674722
vn 0.43887576 0.47911 0.76015896
vn 0.49276257 0.2189628 0.8421641
vn 0.12677558 0.14947274 0.9806049
vn 0.49358386 0.64839745 -0.5796169
vn 0.55781543 0.82996505 0
vn 0.65689576 0.7539814 0
vn 0.13253328 0.27807143 0.95137334
vn -0.14699201 0.17944212 0.972725
vn 0.4255568 0.798769 -0.42528743
vn 0.44803154 0.6420111 0.62216514
vn -0.15622555 0.26453397 0.9516382
vn 0.06926686 0.13317224 0.98866946
vn 0.40201068 0.7793152 0.4806821
vn 0.1690172 0.5220421 0.8360055
vn 0.56321406 0.82631105 0
vn 0.42354023 0.90587735 0
vn -0.30354202 0.45423493 0.83757555
vn 0.3736202 0.8126063 -0.4473018
vn 0.38314003 0.86710113 -0.31833825
vn 0.11715021 0.88660264 -0.44745
vn 0.3340752 0.8618557 -0.38157368
vn 0.2288554 0.9734605 0
vn 0.41045097 0.9118827 0
vn 0.17052989 0.7067796 -0.6865728
vn 0.3340752 0.8618557 0.38157374
vn 0.23667134 0.2499095 -0.9388993
vn 0.38314 0.86710113 0.3183383
vn 0.37721547 0.7322976 0.5669644
vn 0.15220894 0.8233048 0.54681045
vn -0.30200452 0.70926464 0.63697493
vn 0.124093264 0.5966131 0.7928769
vn 0.46011165 0.42346203 -0.7803699
vn 0.5101602 0.8600794 0
vn -0.24758525 0.5117114 0.8227108
vn 0.23598804 0.25107822 0.93875945
vn 0.46011165 0.42346203 0.7803699
vn 0.021738974 0.4079947 0.9127255
vn 0.19510598 0.32135394 0.92664194
vn 0.03411623 0.36919597 0.92872506
vn 0.02173864 0.36901003 0.92917114
vn -0.027790705 0.26280633 0.9644483
vn 0.20314084 0.4333831 0.8780165
vn 0.26057884 0.26136842 0.9294005
vn 0.04224241 0.36953405 0.9282566
vn 0.100947544 0.41757745 0.9030164
vn 0.009825036 0.18765756 0.9821853
vn -0.0023191527 0.4867698 0.87352717
vn 0.071955875 0.5819712 0.8100197
vn -0.1409737 0.624632 0.76808935
vn -0.27901325 0.35274723 0.8931523
vn 0.050376557 0.62126654 0.78197837
vn -0.018112455 0.054445468 0.9983524
vn -0.06777344 0.21433659 0.9744058
vn -0.028883448 0.73905647 0.67302394
vn -0.23442079 0.5480893 0.8028979
vn -0.47618854 0.5116519 0.7151621
vn -0.5393285 0.6823468 0.49348527
vn -0.6342745 0.77310795 0
vn -0.7709252 0.4597483 0.44080126
vn -0.85886943 0.5121947 0
vn -0.7709252 0.45974836 -0.4408012
vn -0.53932846 0.6823469 -0.49348515
vn -0.4761886 0.511652 -0.71516204
vn -0.84146196 0.5403165 0
vn -0.594297 -0.17039257 0.7859882
vn -0.38241944 -0.07268853 0.9211252
vn -0.58204204 0.12920322 0.8028285
vn -0.61498994 -0.6130837 0.49589884
vn 0.020216497 -0.039487112 0.99901557
vn -0.26306957 0.23713748 0.93517923
vn 0.06316956 0.18188713 0.9812883
vn 0.13436225 0.55518776 0.8208005
vn -0.85246557 -0.17807703 0.49151912
vn -0.79195607 -0.610578 0
vn -0.9993186 -0.0369101 0
vn -0.59504294 0.6692011 0.44507745
vn -0.24533574 0.8197495 0.51751435
vn 0.30523017 0.7369229 0.6031411
vn -0.14097877 0.8015252 0.58110446
vn 0.0655564 0.8561311 0.51258355
vn -0.03751978 0.99929583 0
vn -0.053042345 0.9985922 0
vn 0.29454976 0.77194947 0.5633246
vn -0.7187567 0.69526166 0
vn -0.5950428 0.6692011 -0.44507742
vn -0.24533573 0.8197496 -0.51751435
vn -0.85246557 -0.17807703 -0.49151912
vn -0.79195607 -0.610578 0
vn -0.61499 -0.6130838 -0.49589884
vn -0.5820421 0.12920322 -0.8028285
vn -0.38241944 -0.07268857 -0.9211252
vn -0.26306957 0.23713745 -0.9351793
vn 0.020216513 -0.03948713 -0.99901557
vn 0.06316953 0.18188737 -0.9812882
vn 0.13436225 0.5551879 -0.8208003
vn -0.14097875 0.8015252 -0.58110446
vn 0.06555638 0.8561311 -0.51258343
vn 0.30523014 0.736923 -0.603141
vn 0.29454976 0.77194947 -0.5633246
vn 0.21558577 0.8787683 -0.4257806
vn 0.29746595 0.9547325 0
vn 0.3918562 0.9200265 0
vn 0.21558577 0.8787683 0.4257806
vn -0.47618854 0.5116519 0.7151621
vn -0.84146196 0.5403165 0
vn -0.7472348 -0.66456014 0
vn -0.594297 -0.17039257 0.7859882
vn -0.4761886 0.511652 -0.71516204
vn -0.61498994 -0.6130837 0.49589884
vn -0.594297 -0.17039259 -0.7859882
vn -0.79195607 -0.610578 0
vn -0.61499 -0.6130838 -0.49589884
g fcbg_desert_001_rock_01_0
f 3/3/3 2/2/2 1/1/1
f 1/1/1 4/4/4 3/3/3
f 4/4/4 1/1/1 5/5/5
f 4/4/4 6/6/6 3/3/3
f 7/7/7 3/3/3 6/6/6
f 8/8/8 4/4/4 5/5/5
f 6/6/6 4/4/4 8/8/8
f 5/5/5 9/9/9 8/8/8
f 9/9/9 5/5/5 10/10/10
f 11/11/11 6/6/6 8/8/8
f 9/9/9 11/11/11 8/8/8
f 12/12/12 7/7/7 6/6/6
f 11/11/11 12/12/12 6/6/6
f 7/7/7 12/12/12 13/13/13
f 14/14/14 7/7/7 13/13/13
f 15/15/15 14/14/14 13/13/13
f 12/12/12 11/11/11 16/16/16
f 13/13/13 12/12/12 16/16/16
f 11/11/11 9/9/9 17/17/17
f 16/16/16 11/11/11 17/17/17
f 18/18/18 15/15/15 13/13/13
f 19/19/19 15/15/15 18/18/18
f 13/13/13 16/16/16 20/20/20
f 20/20/20 16/16/16 17/17/17
f 18/18/18 13/13/13 20/20/20
f 21/21/21 9/9/9 10/10/10
f 17/17/17 9/9/9 21/21/21
f 22/22/22 20/20/20 17/17/17
f 18/18/18 20/20/20 22/22/22
f 23/23/23 22/22/22 17/17/17
f 23/23/23 17/17/17 21/21/21
f 24/24/24 18/18/18 22/22/22
f 23/23/23 24/24/24 22/22/22
f 25/25/25 19/19/19 18/18/18
f 18/18/18 24/24/24 25/25/25
f 19/19/19 25/25/25 26/26/26
f 27/27/27 19/19/19 26/26/26
f 27/27/27 26/26/26 28/28/28
f 29/29/29 27/27/27 28/28/28
f 30/30/30 29/29/29 28/28/28
f 24/24/24 31/31/31 25/25/25
f 26/26/26 25/25/25 31/31/31
f 31/31/31 24/24/24 32/32/32
f 24/24/24 23/23/23 32/32/32
f 33/33/33 26/26/26 31/31/31
f 31/31/31 32/32/32 33/33/33
f 30/30/30 28/28/28 34/34/34
f 34/34/34 35/35/35 30/30/30
f 35/35/35 34/34/34 36/36/36
f 36/36/36 34/34/34 37/37/37
f 38/38/38 36/36/36 37/37/37
f 39/39/39 38/38/38 37/37/37
f 26/26/26 33/33/33 40/40/40
f 28/28/28 26/26/26 40/40/40
f 28/28/28 40/40/40 41/41/41
f 28/28/28 42/42/42 34/34/34
f 34/34/34 42/42/42 37/37/37
f 42/42/42 28/28/28 41/41/41
f 42/42/42 41/41/41 37/37/37
f 43/43/43 39/39/39 37/37/37
f 44/44/44 39/39/39 43/43/43
f 33/33/33 45/45/45 40/40/40
f 40/40/40 45/45/45 41/41/41
f 37/37/37 46/46/46 43/43/43
f 41/41/41 46/46/46 37/37/37
f 47/47/47 44/44/44 43/43/43
f 48/48/48 44/44/44 47/47/47
f 49/49/49 46/46/46 41/41/41
f 46/46/46 50/50/50 43/43/43
f 49/49/49 50/50/50 46/46/46
f 45/45/45 51/51/51 41/41/41
f 51/51/51 49/49/49 41/41/41
f 51/51/51 45/45/45 52/52/52
f 51/51/51 52/52/52 49/49/49
f 47/47/47 43/43/43 53/53/53
f 43/43/43 50/50/50 53/53/53
f 54/54/54 45/45/45 33/33/33
f 45/45/45 55/55/55 52/52/52
f 55/55/55 45/45/45 54/54/54
f 54/54/54 33/33/33 56/56/56
f 32/32/32 56/56/56 33/33/33
f 54/54/54 57/57/57 55/55/55
f 55/55/55 57/57/57 52/52/52
f 56/56/56 57/57/57 54/54/54
f 57/57/57 56/56/56 58/58/58
f 57/57/57 58/58/58 59/59/59
f 57/57/57 59/59/59 52/52/52
f 60/60/60 58/58/58 56/56/56
f 60/60/60 56/56/56 32/32/32
f 23/23/23 60/60/60 32/32/32
f 59/59/59 61/61/61 52/52/52
f 58/58/58 61/61/61 59/59/59
f 62/62/62 60/60/60 23/23/23
f 23/23/23 21/21/21 62/62/62
f 61/61/61 63/63/63 52/52/52
f 52/52/52 63/63/63 49/49/49
f 49/49/49 63/63/63 64/64/64
f 61/61/61 64/64/64 63/63/63
f 49/49/49 64/64/64 50/50/50
f 61/61/61 65/65/65 64/64/64
f 50/50/50 64/64/64 65/65/65
f 65/65/65 61/61/61 58/58/58
f 65/65/65 66/66/66 50/50/50
f 66/66/66 53/53/53 50/50/50
f 65/65/65 67/67/67 66/66/66
f 58/58/58 67/67/67 65/65/65
f 60/60/60 62/62/62 68/68/68
f 68/68/68 58/58/58 60/60/60
f 69/69/69 58/58/58 68/68/68
f 70/70/70 53/53/53 66/66/66
f 67/67/67 70/70/70 66/66/66
f 70/70/70 67/67/67 71/71/71
f 58/58/58 72/72/72 67/67/67
f 58/58/58 69/69/69 72/72/72
f 71/71/71 67/67/67 72/72/72
f 70/70/70 73/73/73 53/53/53
f 74/74/74 70/70/70 71/71/71
f 73/73/73 70/70/70 74/74/74
f 73/73/73 75/75/75 53/53/53
f 53/53/53 75/75/75 47/47/47
f 73/73/73 74/74/74 76/76/76
f 73/73/73 76/76/76 75/75/75
f 75/75/75 77/77/77 47/47/47
f 77/77/77 75/75/75 78/78/78
f 77/77/77 48/48/48 47/47/47
f 77/77/77 78/78/78 48/48/48
f 78/78/78 79/79/79 48/48/48
f 80/80/80 79/79/79 78/78/78
f 76/76/76 81/81/81 75/75/75
f 75/75/75 81/81/81 78/78/78
f 76/76/76 74/74/74 82/82/82
f 81/81/81 76/76/76 82/82/82
f 83/83/83 78/78/78 81/81/81
f 83/83/83 81/81/81 82/82/82
f 84/84/84 80/80/80 78/78/78
f 84/84/84 78/78/78 83/83/83
f 84/84/84 85/85/85 80/80/80
f 85/85/85 86/86/86 80/80/80
f 87/87/87 84/84/84 83/83/83
f 87/87/87 83/83/83 82/82/82
f 84/84/84 87/87/87 85/85/85
f 82/82/82 74/74/74 88/88/88
f 74/74/74 71/71/71 88/88/88
f 89/89/89 87/87/87 82/82/82
f 89/89/89 82/82/82 88/88/88
f 85/85/85 87/87/87 90/90/90
f 90/90/90 87/87/87 89/89/89
f 86/86/86 85/85/85 91/91/91
f 91/91/91 85/85/85 90/90/90
f 92/92/92 90/90/90 89/89/89
f 91/91/91 90/90/90 92/92/92
f 93/93/93 86/86/86 91/91/91
f 93/93/93 91/91/91 92/92/92
f 94/94/94 93/93/93 92/92/92
f 95/95/95 86/86/86 93/93/93
f 95/95/95 93/93/93 94/94/94
f 96/96/96 95/95/95 94/94/94
f 96/96/96 94/94/94 97/97/97
f 94/94/94 98/98/98 97/97/97
f 98/98/98 94/94/94 99/99/99
f 94/94/94 100/100/100 99/99/99
f 100/100/100 94/94/94 92/92/92
f 92/92/92 89/89/89 101/101/101
f 89/89/89 88/88/88 101/101/101
f 101/101/101 88/88/88 102/102/102
f 102/102/102 103/103/103 101/101/101
f 103/103/103 104/104/104 101/101/101
f 88/88/88 105/105/105 102/102/102
f 71/71/71 105/105/105 88/88/88
f 106/106/106 102/102/102 105/105/105
f 106/106/106 103/103/103 102/102/102
f 107/107/107 105/105/105 71/71/71
f 107/107/107 106/106/106 105/105/105
f 107/107/107 71/71/71 108/108/108
f 106/106/106 107/107/107 108/108/108
f 108/108/108 71/71/71 72/72/72
f 104/104/104 103/103/103 109/109/109
f 110/110/110 104/104/104 109/109/109
f 111/111/111 110/110/110 109/109/109
f 109/109/109 103/103/103 112/112/112
f 111/111/111 109/109/109 112/112/112
f 103/103/103 106/106/106 113/113/113
f 112/112/112 103/103/103 113/113/113
f 108/108/108 72/72/72 114/114/114
f 69/69/69 114/114/114 72/72/72
f 108/108/108 115/115/115 106/106/106
f 106/106/106 115/115/115 113/113/113
f 116/116/116 115/115/115 108/108/108
f 108/108/108 114/114/114 116/116/116
f 116/116/116 113/113/113 115/115/115
f 116/116/116 117/117/117 113/113/113
f 112/112/112 113/113/113 118/118/118
f 117/117/117 118/118/118 113/113/113
f 114/114/114 119/119/119 116/116/116
f 114/114/114 69/69/69 119/119/119
f 120/120/120 111/111/111 112/112/112
f 120/120/120 112/112/112 118/118/118
f 120/120/120 121/121/121 111/111/111
f 120/120/120 118/118/118 121/121/121
f 118/118/118 117/117/117 122/122/122
f 118/118/118 122/122/122 121/121/121
f 121/121/121 123/123/123 111/111/111
f 124/124/124 111/111/111 123/123/123
f 125/125/125 124/124/124 123/123/123
f 126/126/126 123/123/123 121/121/121
f 126/126/126 125/125/125 123/123/123
f 126/126/126 121/121/121 122/122/122
f 10/10/10 125/125/125 126/126/126
f 127/127/127 10/10/10 126/126/126
f 21/21/21 10/10/10 127/127/127
f 126/126/126 128/128/128 127/127/127
f 126/126/126 122/122/122 128/128/128
f 129/129/129 21/21/21 127/127/127
f 127/127/127 128/128/128 129/129/129
f 21/21/21 129/129/129 62/62/62
f 129/129/129 130/130/130 62/62/62
f 128/128/128 130/130/130 129/129/129
f 62/62/62 130/130/130 131/131/131
f 130/130/130 128/128/128 131/131/131
f 62/62/62 131/131/131 68/68/68
f 122/122/122 132/132/132 128/128/128
f 132/132/132 131/131/131 128/128/128
f 122/122/122 133/133/133 132/132/132
f 132/132/132 133/133/133 131/131/131
f 117/117/117 133/133/133 122/122/122
f 68/68/68 131/131/131 134/134/134
f 134/134/134 131/131/131 133/133/133
f 134/134/134 69/69/69 68/68/68
f 135/135/135 134/134/134 133/133/133
f 69/69/69 134/134/134 135/135/135
f 136/136/136 133/133/133 117/117/117
f 133/133/133 136/136/136 135/135/135
f 137/137/137 69/69/69 135/135/135
f 69/69/69 137/137/137 119/119/119
f 136/136/136 138/138/138 135/135/135
f 138/138/138 137/137/137 135/135/135
f 136/136/136 117/117/117 138/138/138
f 119/119/119 137/137/137 138/138/138
f 117/117/117 139/139/139 138/138/138
f 139/139/139 119/119/119 138/138/138
f 116/116/116 139/139/139 117/117/117
f 139/139/139 116/116/116 119/119/119
f 142/142/142 141/141/141 140/140/140
f 143/143/143 142/142/142 140/140/140
f 144/144/144 141/141/141 142/142/142
f 143/143/143 145/145/145 142/142/142
f 146/146/146 144/144/144 142/142/142
f 142/142/142 145/145/145 147/147/147
f 148/148/148 146/146/146 142/142/142
f 148/148/148 142/142/142 147/147/147
