g fcbg_cityforest_006_can_03
v 0.047986984 -1.1473894E-06 -7.545094E-08
v 0.047986984 0.19452907 4.3758348E-08
v 0.023994446 0.19452907 -0.041558698
v 0.023994446 -1.1473894E-06 -0.041558817
v -0.023994446 0.19452907 -0.041558698
v -0.023994446 -1.1473894E-06 -0.041558817
v -0.047986984 0.19452907 4.3758348E-08
v -0.047986984 -1.1473894E-06 -7.545094E-08
v -0.023994446 0.19452907 0.041558787
v -0.023994446 -1.1473894E-06 0.041558668
v 0.023994446 0.19452907 0.041558787
v 0.023994446 -1.1473894E-06 0.041558668
v 0.047986984 0.19452907 4.3758348E-08
v 0.047986984 -1.1473894E-06 -7.545094E-08
v 0.047986984 0.19452907 4.3758348E-08
v 0.023994446 0.19452907 0.041558787
v -0.023994446 0.19452907 0.041558787
v -0.047986984 0.19452907 4.3758348E-08
v 0.023994446 0.19452907 -0.041558698
v -0.023994446 0.19452907 -0.041558698
vt 0.8843955 0.9224445
vt 0.8843955 0.94517624
vt 0.88963187 0.94517624
vt 0.88963187 0.9224445
vt 0.89486825 0.94517624
vt 0.89486825 0.9224445
vt 0.9001045 0.94517624
vt 0.9001045 0.9224445
vt 0.89486825 0.94517624
vt 0.89486825 0.9224445
vt 0.88963187 0.94517624
vt 0.88963187 0.9224445
vt 0.8843955 0.94517624
vt 0.8843955 0.9224445
vt 0.89771456 0.9477104
vt 0.8916574 0.9477104
vt 0.8886288 0.952956
vt 0.8916574 0.95820165
vt 0.9007432 0.952956
vt 0.89771456 0.95820165
vn 1 0 0
vn 0.7924029 0.609998 0
vn 0.3962123 0.6099926 -0.68623954
vn 0.50001097 0 -0.86601907
vn -0.3962123 0.6099926 -0.68623954
vn -0.50001097 0 -0.86601907
vn -0.7924029 0.609998 0
vn -1 0 0
vn -0.3962124 0.6099923 0.68623996
vn -0.5000111 0 0.866019
vn 0.3962124 0.6099923 0.68623996
vn 0.5000111 0 0.866019
vn 0.7924029 0.609998 0
vn 1 0 0
vn 0.7924029 0.609998 0
vn 0.3962124 0.6099923 0.68623996
vn -0.3962124 0.6099923 0.68623996
vn -0.7924029 0.609998 0
vn 0.3962123 0.6099926 -0.68623954
vn -0.3962123 0.6099926 -0.68623954
g fcbg_cityforest_006_can_03_0
f 3/3/3 2/2/2 1/1/1
f 4/4/4 3/3/3 1/1/1
f 5/5/5 3/3/3 4/4/4
f 6/6/6 5/5/5 4/4/4
f 7/7/7 5/5/5 6/6/6
f 8/8/8 7/7/7 6/6/6
f 9/9/9 7/7/7 8/8/8
f 10/10/10 9/9/9 8/8/8
f 11/11/11 9/9/9 10/10/10
f 12/12/12 11/11/11 10/10/10
f 13/13/13 11/11/11 12/12/12
f 14/14/14 13/13/13 12/12/12
f 17/17/17 16/16/16 15/15/15
f 18/18/18 17/17/17 15/15/15
f 18/18/18 15/15/15 19/19/19
f 20/20/20 18/18/18 19/19/19
