g fcbg_wasteland_001_factory_11
v -1.6192596 4.5693386E-07 2.8046393
v -4.974764E-08 4.0563893 3.238518
v -4.9747854E-08 5.276217E-07 3.2385187
v -1.6192596 4.0563893 2.8046386
v -2.8046396 2.6381096E-07 1.619259
v -2.8046396 4.0563893 1.6192583
v -3.238519 -2.299924E-13 -2.4656497E-06
v -3.238519 4.056389 -3.1265195E-06
v -2.8046381 -2.63811E-07 -1.6192613
v -2.8046381 4.0563884 -1.619262
v -1.6192577 -4.569338E-07 -2.8046403
v -1.6192577 4.0563884 -2.804641
v 1.4773261E-06 -5.2762164E-07 -3.2385185
v 1.4773264E-06 4.0563884 -3.2385192
v 1.6192603 -4.5693383E-07 -2.804639
v 1.6192603 4.0563884 -2.8046398
v 2.8046398 -2.6381088E-07 -1.6192586
v 2.8046398 4.0563884 -1.6192594
v 3.2385185 -9.204426E-14 4.890027E-07
v 3.2385185 4.056389 -1.7186699E-07
v 2.8046396 2.638107E-07 1.6192595
v 2.8046396 4.0563893 1.6192588
v 1.6192591 4.5693372E-07 2.8046396
v 1.6192591 4.0563893 2.8046389
v -4.9747854E-08 5.276217E-07 3.2385187
v -4.974764E-08 4.0563893 3.238518
v 0.58082575 2.847447 0.33533943
v 0.5808258 2.847447 -0.3353402
v 0.6706798 2.847447 -3.6263816E-07
v 0.33534005 2.847447 -0.5808261
v 0.3353398 2.847447 0.58082527
v 3.4835082E-07 2.847447 -0.6706802
v -4.6362814E-08 2.847447 0.6706793
v -0.33533952 2.847447 -0.5808264
v -0.33533993 2.847447 0.5808252
v -0.58082575 2.847447 0.3353393
v -0.58082557 2.847447 -0.33534074
v -0.67067987 2.847447 -9.495259E-07
v -3.4630613 3.349995E-08 0.118738554
v -3.6835892 5.3715667E-08 0.19039242
v -3.6835892 4.1052833 0.19039126
v -3.4630613 4.1052833 0.11873739
v -3.4192479 4.2656054 0.11873736
v -3.6102304 4.3758693 0.19039118
v -3.291877 4.376886 0.11873734
v -3.3850765 4.576752 0.19039117
v -3.1280143 4.3949494 0.11873737
v -3.1280143 4.615477 0.1903912
v -0.6494082 4.6154594 0.19039157
v -0.6494082 4.394932 0.11873774
v -0.52659327 4.3716273 0.11873776
v -0.37065646 4.5275645 0.19039163
v -0.48572016 4.2686305 0.1187378
v -0.2651927 4.26863 0.19039172
v -0.48572016 2.7916155 0.11873822
v -0.2651927 2.791615 0.19039214
v -3.4630613 -3.191945E-08 -0.11313826
v -3.4630613 3.349995E-08 0.118738554
v -3.4630613 4.1052833 0.11873739
v -3.4630613 4.1052833 -0.11313942
v -3.6835895 -5.2135146E-08 -0.18479215
v -3.4192479 4.2656054 -0.11313945
v -3.4192479 4.2656054 0.11873736
v -3.6835895 4.1052833 -0.18479331
v -3.8198829 7.9026696E-10 0.0028001124
v -3.291877 4.376886 -0.11313947
v -3.291877 4.376886 0.11873734
v -3.6102304 4.3758693 -0.18479338
v -3.8198829 4.1052833 0.002798954
v -3.6835892 5.3715667E-08 0.19039242
v -3.6835892 4.1052833 0.19039126
v -3.6102304 4.3758693 0.19039118
v -3.7282646 4.4440165 0.0027988723
v -3.3850765 4.576752 0.19039117
v -3.4426768 4.7002764 0.0027988432
v -3.1280143 4.615477 0.1903912
v -3.3850765 4.576752 -0.18479338
v -3.1280143 4.751771 0.002798876
v -0.6494082 4.6154594 0.19039157
v -3.1280143 4.615477 -0.18479335
v -0.6494082 4.7517533 0.0027992504
v -0.37065646 4.5275645 0.19039163
v -3.1280143 4.3949494 -0.11313944
v -3.1280143 4.3949494 0.11873737
v -0.6494082 4.6154594 -0.18479298
v -0.27428216 4.623939 0.002799343
v -0.2651927 4.26863 0.19039172
v -0.6494082 4.394932 -0.11313907
v -0.6494082 4.394932 0.11873774
v -0.3706564 4.5275645 -0.18479294
v -0.12889802 4.2686305 0.002799465
v -0.2651927 2.791615 0.19039214
v -0.12889802 2.7916155 0.0027998819
v -0.52659327 4.3716273 -0.113139056
v -0.52659327 4.3716273 0.11873776
v -0.26519263 4.26863 -0.18479285
v -0.26519263 2.791615 -0.18479243
v -0.4857201 4.2686305 -0.11313901
v -0.48572016 4.2686305 0.1187378
v -0.4857201 2.7916155 -0.1131386
v -0.48572016 2.7916155 0.11873822
v -0.58082557 3.8956988 -0.3353409
v -0.67067987 2.847447 -9.495259E-07
v -0.67067987 3.8956988 -1.1203078E-06
v -0.58082557 2.847447 -0.33534074
v -0.58082575 2.847447 0.3353393
v -0.33533952 3.8956988 -0.5808266
v -0.58082575 3.8956988 0.33533916
v -0.33533952 2.847447 -0.5808264
v -0.33533993 2.847447 0.5808252
v 3.4835088E-07 3.8956988 -0.6706804
v -0.33533993 3.8956988 0.58082503
v 3.4835082E-07 2.847447 -0.6706802
v -4.6362814E-08 2.847447 0.6706793
v 0.33534005 3.8956988 -0.5808263
v -4.636276E-08 3.8956988 0.6706791
v 0.33534005 2.847447 -0.5808261
v 0.3353398 2.847447 0.58082527
v 0.5808258 3.8956988 -0.33534035
v 0.3353398 3.8956988 0.5808251
v 0.5808258 2.847447 -0.3353402
v 0.58082575 2.847447 0.33533943
v 0.6706798 3.8956988 -5.3342006E-07
v 0.58082575 3.8956988 0.33533928
v 0.6706798 2.847447 -3.6263816E-07
v -2.8046381 4.0563884 -1.619262
v -2.9528325 4.056389 -2.9735684E-06
v -3.238519 4.056389 -3.1265195E-06
v -2.5572267 4.0563884 -1.4764184
v -1.6192577 4.0563884 -2.804641
v -2.5572276 4.0563893 1.4764152
v -2.8046396 4.0563893 1.6192583
v -1.4764147 4.0563884 -2.557229
v 1.4773264E-06 4.0563884 -3.2385192
v -1.476416 4.0563893 2.5572267
v -1.6192596 4.0563893 2.8046386
v 1.4341889E-06 4.0563884 -2.952833
v 1.6192603 4.0563884 -2.8046398
v -1.1642386E-07 4.0563893 2.9528313
v -4.974764E-08 4.0563893 3.238518
v 1.4764168 4.0563884 -2.5572276
v 2.8046398 4.0563884 -1.6192594
v 1.476416 4.0563893 2.557227
v 1.6192591 4.0563893 2.8046389
v 2.5572278 4.0563884 -1.4764161
v 3.2385185 4.056389 -1.7186699E-07
v 2.5572274 4.0563893 1.4764153
v 2.8046396 4.0563893 1.6192588
v 2.952832 4.056389 -1.05190736E-07
v -1.1642387E-07 3.8956993 2.9528313
v 1.476416 3.8956993 2.557227
v 2.5572274 3.895699 1.4764154
v 2.952832 3.8956988 -7.901099E-08
v 2.5572278 3.8956985 -1.476416
v 1.4764168 3.8956983 -2.5572276
v -1.476416 3.8956993 2.5572267
v 1.4341889E-06 3.8956983 -2.952833
v -2.5572276 3.895699 1.4764153
v -1.4764147 3.8956983 -2.557229
v -2.9528325 3.8956988 -2.9473886E-06
v -2.5572267 3.8956985 -1.4764183
v 0.33534005 3.8956988 -0.5808263
v 0.5808258 3.8956988 -0.33534035
v 3.4835088E-07 3.8956988 -0.6706804
v -0.33533952 3.8956988 -0.5808266
v 0.6706798 3.8956988 -5.3342006E-07
v -0.58082557 3.8956988 -0.3353409
v -0.67067987 3.8956988 -1.1203078E-06
v 0.58082575 3.8956988 0.33533928
v -0.58082575 3.8956988 0.33533916
v 0.3353398 3.8956988 0.5808251
v -0.33533993 3.8956988 0.58082503
v -4.636276E-08 3.8956988 0.6706791
vt 0.7675876 0.005073098
vt 0.7499708 0.049015585
vt 0.7499708 0.0050726025
vt 0.7675866 0.049016
vt 0.7852038 0.0050735925
vt 0.78520286 0.04901637
vt 0.80282 0.00507386
vt 0.8028191 0.049016654
vt 0.8204361 0.005074146
vt 0.82043546 0.049016982
vt 0.8380521 0.0050742812
vt 0.8380523 0.049017176
vt 0.8204359 0.005074339
vt 0.8204359 0.049017176
vt 0.80282 0.0050742812
vt 0.8028196 0.04901714
vt 0.7852038 0.005074088
vt 0.78520334 0.049016982
vt 0.7675876 0.0050737476
vt 0.7675871 0.049016654
vt 0.7499715 0.0050734803
vt 0.7499706 0.04901637
vt 0.73235404 0.0050730594
vt 0.73235494 0.049015973
vt 0.7499708 0.0050726025
vt 0.7499708 0.049015585
vt 0.7799969 0.03538168
vt 0.7729523 0.03538621
vt 0.7764752 0.036327485
vt 0.7703722 0.03280956
vt 0.7825735 0.032801453
vt 0.7694261 0.029287938
vt 0.78351504 0.02927852
vt 0.7703676 0.025764998
vt 0.7825689 0.025756832
vt 0.77998877 0.023180302
vt 0.77294433 0.023184951
vt 0.7764659 0.022238668
vt 0.73306483 0.064719655
vt 0.73306483 0.06728659
vt 0.7752481 0.06728659
vt 0.7752481 0.064719655
vt 0.7774 0.064719655
vt 0.7774 0.06728659
vt 0.7790045 0.064719655
vt 0.7790045 0.06728659
vt 0.78060895 0.064719655
vt 0.78060895 0.06728659
vt 0.81465524 0.06728659
vt 0.81465524 0.064719655
vt 0.81806505 0.064719655
vt 0.81806505 0.06728659
vt 0.8212452 0.064719655
vt 0.8212452 0.06728659
vt 0.83633626 0.064719655
vt 0.83633626 0.06728659
vt 0.73306483 0.06215242
vt 0.73306483 0.064719655
vt 0.7752481 0.064719655
vt 0.7752481 0.06215242
vt 0.73306483 0.05958518
vt 0.7774 0.06215242
vt 0.7774 0.064719655
vt 0.7752481 0.05958518
vt 0.73306483 0.057018127
vt 0.7790045 0.06215242
vt 0.7790045 0.064719655
vt 0.7774 0.05958518
vt 0.7752481 0.057018127
vt 0.73306483 0.054450896
vt 0.7752481 0.054450896
vt 0.7774 0.054450896
vt 0.7774 0.057018127
vt 0.7790045 0.054450896
vt 0.7790045 0.057018127
vt 0.78060895 0.054450896
vt 0.7790045 0.05958518
vt 0.78060895 0.057018127
vt 0.81465524 0.054450896
vt 0.78060895 0.05958518
vt 0.81465524 0.057018127
vt 0.81806505 0.054450896
vt 0.78060895 0.06215242
vt 0.78060895 0.064719655
vt 0.81465524 0.05958518
vt 0.81806505 0.057018127
vt 0.8212452 0.054450896
vt 0.81465524 0.06215242
vt 0.81465524 0.064719655
vt 0.81806505 0.05958518
vt 0.8212452 0.057018127
vt 0.83633626 0.054450896
vt 0.83633626 0.057018127
vt 0.81806505 0.06215242
vt 0.81806505 0.064719655
vt 0.8212452 0.05958518
vt 0.83633626 0.05958518
vt 0.8212452 0.06215242
vt 0.8212452 0.064719655
vt 0.83633626 0.06215242
vt 0.83633626 0.064719655
vt 0.83618313 0.020147242
vt 0.8222493 0.024550118
vt 0.8361832 0.024550058
vt 0.8222493 0.020147242
vt 0.8222493 0.028952755
vt 0.83618313 0.015744368
vt 0.83618313 0.028952755
vt 0.82224923 0.015744368
vt 0.8222493 0.03335575
vt 0.8361832 0.011341432
vt 0.8361832 0.03335575
vt 0.8222493 0.011341492
vt 0.8222493 0.037758626
vt 0.83618313 0.015744368
vt 0.83618313 0.037758686
vt 0.82224923 0.015744368
vt 0.8222493 0.03335575
vt 0.83618313 0.020147242
vt 0.8361832 0.03335575
vt 0.8222493 0.020147242
vt 0.8222493 0.028952755
vt 0.8361832 0.024550058
vt 0.83618313 0.028952755
vt 0.8222493 0.024550118
vt 0.87653506 0.059457067
vt 0.877893 0.04141486
vt 0.8818074 0.04141486
vt 0.8735792 0.057817224
vt 0.86364484 0.07306409
vt 0.8735792 0.025184872
vt 0.8767244 0.023277106
vt 0.861743 0.07005453
vt 0.84419703 0.07896727
vt 0.861743 0.013278605
vt 0.86384094 0.009774448
vt 0.84419703 0.07445848
vt 0.86364484 0.07306409
vt 0.84419703 0.008171739
vt 0.8441888 0.0038195276
vt 0.861743 0.07005453
vt 0.87653506 0.059457067
vt 0.861743 0.013278605
vt 0.86384094 0.009774448
vt 0.8735792 0.057817224
vt 0.8818074 0.04141486
vt 0.8735792 0.025184872
vt 0.8767244 0.023277106
vt 0.877893 0.04141486
vt 0.84419703 0.010109069
vt 0.8608172 0.014855625
vt 0.87203056 0.02611834
vt 0.87611425 0.04141486
vt 0.87203056 0.05699337
vt 0.8608172 0.06854284
vt 0.8608172 0.014855625
vt 0.84419703 0.07252115
vt 0.87203056 0.02611834
vt 0.8608172 0.06854284
vt 0.87611425 0.04141486
vt 0.87203056 0.05699337
vt 0.8483874 0.047616486
vt 0.8507366 0.044628445
vt 0.84419703 0.04888058
vt 0.8483874 0.047616486
vt 0.8515785 0.04141486
vt 0.8507366 0.044628445
vt 0.8515785 0.04141486
vt 0.8507366 0.038169984
vt 0.8507366 0.038169984
vt 0.8479673 0.035673384
vt 0.8479673 0.035673384
vt 0.84419703 0.03501505
vn -0.49999577 0 0.86602783
vn -0 0.6532094 0.7571773
vn -0 0 1
vn -0.37859234 0.6532157 0.6557263
vn -0.8660223 0 0.50000554
vn -0.6557263 0.6532157 0.37859234
vn -1 0 0
vn -0.7571773 0.6532094 0
vn -0.8660223 0 -0.50000554
vn -0.6557411 0.6532047 -0.37858593
vn -0.49999577 0 -0.86602783
vn -0.37859234 0.6532157 -0.6557263
vn -0 0 -1
vn -0 0.6532222 -0.75716627
vn 0.49999577 0 -0.86602783
vn 0.37859234 0.6532157 -0.6557263
vn 0.86602783 0 -0.49999577
vn 0.6557263 0.6532157 -0.37859234
vn 1 0 0
vn 0.7571773 0.6532094 0
vn 0.86602783 0 0.49999577
vn 0.6557263 0.6532157 0.37859234
vn 0.49999577 0 0.86602783
vn 0.37859234 0.6532157 0.6557263
vn -0 0 1
vn -0 0.6532094 0.7571773
vn -0.6557354 0.65321183 -0.37858358
vn -0.6557345 0.653211 0.37858632
vn -0.75717455 0.6532126 0
vn -0.37858796 0.6532138 0.65573084
vn -0.37858796 0.6532138 -0.65573084
vn -0 0.6532126 0.75717455
vn -0 0.6532126 -0.75717455
vn 0.37858632 0.653211 0.6557345
vn 0.37858632 0.653211 -0.6557345
vn 0.65573084 0.6532138 -0.37858796
vn 0.65573084 0.6532138 0.37858796
vn 0.75717455 0.6532126 0
vn 0.8090242 0 0.58777535
vn -0.3090273 0 0.9510532
vn -0.3498479 0.05191943 0.9353667
vn 0.78398865 -0.10756163 0.6113855
vn 0.6468219 -0.4061271 0.64550924
vn -0.3390749 0.21171153 0.91662776
vn 0.30894664 -0.69553757 0.6486752
vn -0.17377305 0.35981426 0.9166988
vn 0.04699951 -0.8014245 0.5962465
vn -0.02997082 0.33345774 0.9422886
vn 0.06914295 0.3554592 0.93213093
vn -0.0857244 -0.79516834 0.6002988
vn -0.45937973 -0.5511237 0.6965866
vn 0.29847604 0.32320917 0.89802444
vn -0.7692439 -0.15332402 0.62028664
vn 0.36535972 0.08421922 0.92704874
vn -0.8090186 0 0.58778304
vn 0.3090151 0 0.9510571
vn 0.80902386 0 -0.5877758
vn 0.8090242 0 0.58777535
vn 0.78398865 -0.10756163 0.6113855
vn 0.78398824 -0.10756157 -0.61138606
vn -0.30900386 0 -0.9510608
vn 0.64682156 -0.40612692 -0.6455097
vn 0.6468219 -0.4061271 0.64550924
vn -0.3498701 0.05191888 -0.93535835
vn -1 0 0
vn 0.30894646 -0.69553715 -0.6486756
vn 0.30894664 -0.69553757 0.6486752
vn -0.3390749 0.21171153 -0.91662776
vn -0.99205774 0.12578331 0
vn -0.3090273 0 0.9510532
vn -0.3498479 0.05191943 0.9353667
vn -0.3390749 0.21171153 0.91662776
vn -0.8526343 0.522508 0
vn -0.17377305 0.35981426 0.9166988
vn -0.4287527 0.9034219 0
vn -0.02997082 0.33345774 0.9422886
vn -0.1737728 0.35981375 -0.916699
vn -0.07609086 0.9971009 0
vn 0.06914295 0.3554592 0.93213093
vn -0.02997082 0.33345774 -0.9422886
vn 0.15050551 0.9886092 0
vn 0.29847604 0.32320917 0.89802444
vn 0.04699951 -0.8014245 -0.5962465
vn 0.04699951 -0.8014245 0.5962465
vn 0.069149286 0.35545856 -0.93213075
vn 0.68633604 0.7272846 0
vn 0.36535972 0.08421922 0.92704874
vn -0.0857244 -0.79516834 -0.6002988
vn -0.0857244 -0.79516834 0.6002988
vn 0.29847604 0.32320917 -0.89802444
vn 0.983613 0.18029238 0
vn 0.3090151 0 0.9510571
vn 1 0 0
vn -0.45938 -0.551124 -0.6965862
vn -0.45937973 -0.5511237 0.6965866
vn 0.36535972 0.08421922 -0.92704874
vn 0.3090151 0 -0.9510571
vn -0.76924354 -0.15332395 -0.6202872
vn -0.7692439 -0.15332402 0.62028664
vn -0.80901635 0 -0.587786
vn -0.8090186 0 0.58778304
vn 0.55227643 0.7702728 0.31885818
vn 0.75717455 0.6532126 0
vn 0.63771176 0.77027506 0
vn 0.65573084 0.6532138 0.37858796
vn 0.65573084 0.6532138 -0.37858796
vn 0.31885526 0.77027357 0.55227697
vn 0.55227697 0.77027357 -0.31885526
vn 0.37858632 0.653211 0.6557345
vn 0.37858632 0.653211 -0.6557345
vn -0 0.77027506 0.63771176
vn 0.31885526 0.77027357 -0.55227697
vn -0 0.6532126 0.75717455
vn -0 0.6532126 -0.75717455
vn -0.31885526 0.77027357 0.55227697
vn -0 0.77027506 -0.63771176
vn -0.37858796 0.6532138 0.65573084
vn -0.37858796 0.6532138 -0.65573084
vn -0.55227643 0.7702728 0.31885818
vn -0.31885526 0.77027357 -0.55227697
vn -0.6557345 0.653211 0.37858632
vn -0.6557354 0.65321183 -0.37858358
vn -0.63771176 0.77027506 0
vn -0.55227697 0.77027357 -0.31885526
vn -0.75717455 0.6532126 0
vn -0.6557411 0.6532047 -0.37858593
vn 0.63771176 0.77027506 0
vn -0.7571773 0.6532094 0
vn 0.552295 0.7702626 0.31885073
vn -0.37859234 0.6532157 -0.6557263
vn 0.55227697 0.77027357 -0.31885526
vn -0.6557263 0.6532157 0.37859234
vn 0.31885526 0.77027357 0.55227697
vn -0 0.6532222 -0.75716627
vn 0.3188437 0.77027684 -0.5522793
vn -0.37859234 0.6532157 0.6557263
vn -0 0.77027506 0.63771176
vn 0.37859234 0.6532157 -0.6557263
vn -0 0.77027506 -0.63771176
vn -0 0.6532094 0.7571773
vn -0.31885526 0.77027357 0.55227697
vn 0.6557263 0.6532157 -0.37859234
vn -0.31885526 0.77027357 -0.55227697
vn 0.37859234 0.6532157 0.6557263
vn -0.5522793 0.77027684 0.3188437
vn 0.7571773 0.6532094 0
vn -0.55227697 0.77027357 -0.31885526
vn 0.6557263 0.6532157 0.37859234
vn -0.63771176 0.77027506 0
vn -0 0.65322423 -0.7571645
vn -0.37858596 0.6532306 -0.6557153
vn -0.6557153 0.6532306 -0.37858596
vn -0.7571645 0.65322423 0
vn -0.6557153 0.6532306 0.37858596
vn -0.37858596 0.6532306 0.6557153
vn 0.37857485 0.65323377 -0.65571845
vn -0 0.65322423 0.7571645
vn 0.6557153 0.6532306 -0.37858596
vn 0.37858596 0.6532306 0.6557153
vn 0.7571645 0.65322423 0
vn 0.65572995 0.65321946 0.3785795
vn -0.31885526 0.77027357 0.55227697
vn -0.55227643 0.7702728 0.31885818
vn -0 0.77027506 0.63771176
vn 0.31885526 0.77027357 0.55227697
vn -0.63771176 0.77027506 0
vn 0.55227643 0.7702728 0.31885818
vn 0.63771176 0.77027506 0
vn -0.55227697 0.77027357 -0.31885526
vn 0.55227697 0.77027357 -0.31885526
vn -0.31885526 0.77027357 -0.55227697
vn 0.31885526 0.77027357 -0.55227697
vn -0 0.77027506 -0.63771176
g fcbg_wasteland_001_factory_11_0
f 3/3/3 2/2/2 1/1/1
f 2/2/2 4/4/4 1/1/1
f 1/1/1 4/4/4 5/5/5
f 4/4/4 6/6/6 5/5/5
f 5/5/5 6/6/6 7/7/7
f 6/6/6 8/8/8 7/7/7
f 7/7/7 8/8/8 9/9/9
f 8/8/8 10/10/10 9/9/9
f 9/9/9 10/10/10 11/11/11
f 10/10/10 12/12/12 11/11/11
f 11/11/11 12/12/12 13/13/13
f 12/12/12 14/14/14 13/13/13
f 13/13/13 14/14/14 15/15/15
f 14/14/14 16/16/16 15/15/15
f 15/15/15 16/16/16 17/17/17
f 16/16/16 18/18/18 17/17/17
f 17/17/17 18/18/18 19/19/19
f 18/18/18 20/20/20 19/19/19
f 19/19/19 20/20/20 21/21/21
f 20/20/20 22/22/22 21/21/21
f 21/21/21 22/22/22 23/23/23
f 22/22/22 24/24/24 23/23/23
f 23/23/23 24/24/24 25/25/25
f 24/24/24 26/26/26 25/25/25
f 29/29/29 28/28/28 27/27/27
f 28/28/28 30/30/30 27/27/27
f 30/30/30 31/31/31 27/27/27
f 30/30/30 32/32/32 31/31/31
f 32/32/32 33/33/33 31/31/31
f 32/32/32 34/34/34 33/33/33
f 34/34/34 35/35/35 33/33/33
f 36/36/36 35/35/35 34/34/34
f 37/37/37 36/36/36 34/34/34
f 38/38/38 36/36/36 37/37/37
f 41/41/41 40/40/40 39/39/39
f 42/42/42 41/41/41 39/39/39
f 42/42/42 43/43/43 41/41/41
f 43/43/43 44/44/44 41/41/41
f 44/44/44 43/43/43 45/45/45
f 46/46/46 44/44/44 45/45/45
f 46/46/46 45/45/45 47/47/47
f 48/48/48 46/46/46 47/47/47
f 49/49/49 48/48/48 47/47/47
f 50/50/50 49/49/49 47/47/47
f 50/50/50 51/51/51 49/49/49
f 51/51/51 52/52/52 49/49/49
f 51/51/51 53/53/53 52/52/52
f 53/53/53 54/54/54 52/52/52
f 53/53/53 55/55/55 54/54/54
f 55/55/55 56/56/56 54/54/54
f 59/59/59 58/58/58 57/57/57
f 60/60/60 59/59/59 57/57/57
f 60/60/60 57/57/57 61/61/61
f 60/60/60 62/62/62 59/59/59
f 62/62/62 63/63/63 59/59/59
f 64/64/64 60/60/60 61/61/61
f 64/64/64 61/61/61 65/65/65
f 63/63/63 62/62/62 66/66/66
f 67/67/67 63/63/63 66/66/66
f 68/68/68 62/62/62 60/60/60
f 64/64/64 68/68/68 60/60/60
f 69/69/69 64/64/64 65/65/65
f 69/69/69 65/65/65 70/70/70
f 71/71/71 69/69/69 70/70/70
f 71/71/71 72/72/72 69/69/69
f 69/69/69 73/73/73 64/64/64
f 72/72/72 73/73/73 69/69/69
f 73/73/73 68/68/68 64/64/64
f 73/73/73 72/72/72 74/74/74
f 75/75/75 73/73/73 74/74/74
f 68/68/68 73/73/73 75/75/75
f 75/75/75 74/74/74 76/76/76
f 62/62/62 68/68/68 77/77/77
f 77/77/77 68/68/68 75/75/75
f 66/66/66 62/62/62 77/77/77
f 78/78/78 75/75/75 76/76/76
f 77/77/77 75/75/75 78/78/78
f 78/78/78 76/76/76 79/79/79
f 66/66/66 77/77/77 80/80/80
f 80/80/80 77/77/77 78/78/78
f 81/81/81 78/78/78 79/79/79
f 80/80/80 78/78/78 81/81/81
f 79/79/79 82/82/82 81/81/81
f 83/83/83 66/66/66 80/80/80
f 67/67/67 66/66/66 83/83/83
f 84/84/84 67/67/67 83/83/83
f 85/85/85 80/80/80 81/81/81
f 83/83/83 80/80/80 85/85/85
f 82/82/82 86/86/86 81/81/81
f 81/81/81 86/86/86 85/85/85
f 82/82/82 87/87/87 86/86/86
f 84/84/84 83/83/83 88/88/88
f 88/88/88 83/83/83 85/85/85
f 89/89/89 84/84/84 88/88/88
f 86/86/86 90/90/90 85/85/85
f 85/85/85 90/90/90 88/88/88
f 87/87/87 91/91/91 86/86/86
f 86/86/86 91/91/91 90/90/90
f 87/87/87 92/92/92 91/91/91
f 92/92/92 93/93/93 91/91/91
f 88/88/88 94/94/94 89/89/89
f 90/90/90 94/94/94 88/88/88
f 94/94/94 95/95/95 89/89/89
f 91/91/91 96/96/96 90/90/90
f 91/91/91 93/93/93 96/96/96
f 90/90/90 96/96/96 94/94/94
f 93/93/93 97/97/97 96/96/96
f 94/94/94 98/98/98 95/95/95
f 96/96/96 98/98/98 94/94/94
f 96/96/96 97/97/97 98/98/98
f 98/98/98 99/99/99 95/95/95
f 97/97/97 100/100/100 98/98/98
f 98/98/98 100/100/100 99/99/99
f 100/100/100 101/101/101 99/99/99
f 104/104/104 103/103/103 102/102/102
f 103/103/103 105/105/105 102/102/102
f 106/106/106 103/103/103 104/104/104
f 102/102/102 105/105/105 107/107/107
f 108/108/108 106/106/106 104/104/104
f 105/105/105 109/109/109 107/107/107
f 110/110/110 106/106/106 108/108/108
f 107/107/107 109/109/109 111/111/111
f 112/112/112 110/110/110 108/108/108
f 109/109/109 113/113/113 111/111/111
f 114/114/114 110/110/110 112/112/112
f 111/111/111 113/113/113 115/115/115
f 116/116/116 114/114/114 112/112/112
f 113/113/113 117/117/117 115/115/115
f 118/118/118 114/114/114 116/116/116
f 115/115/115 117/117/117 119/119/119
f 120/120/120 118/118/118 116/116/116
f 117/117/117 121/121/121 119/119/119
f 122/122/122 118/118/118 120/120/120
f 119/119/119 121/121/121 123/123/123
f 124/124/124 122/122/122 120/120/120
f 121/121/121 125/125/125 123/123/123
f 125/125/125 122/122/122 124/124/124
f 123/123/123 125/125/125 124/124/124
f 128/128/128 127/127/127 126/126/126
f 127/127/127 129/129/129 126/126/126
f 126/126/126 129/129/129 130/130/130
f 131/131/131 127/127/127 128/128/128
f 132/132/132 131/131/131 128/128/128
f 129/129/129 133/133/133 130/130/130
f 130/130/130 133/133/133 134/134/134
f 135/135/135 131/131/131 132/132/132
f 136/136/136 135/135/135 132/132/132
f 133/133/133 137/137/137 134/134/134
f 134/134/134 137/137/137 138/138/138
f 139/139/139 135/135/135 136/136/136
f 140/140/140 139/139/139 136/136/136
f 137/137/137 141/141/141 138/138/138
f 138/138/138 141/141/141 142/142/142
f 143/143/143 139/139/139 140/140/140
f 144/144/144 143/143/143 140/140/140
f 141/141/141 145/145/145 142/142/142
f 142/142/142 145/145/145 146/146/146
f 147/147/147 143/143/143 144/144/144
f 148/148/148 147/147/147 144/144/144
f 146/146/146 149/149/149 148/148/148
f 145/145/145 149/149/149 146/146/146
f 149/149/149 147/147/147 148/148/148
f 139/139/139 150/150/150 135/135/135
f 143/143/143 151/151/151 139/139/139
f 151/151/151 150/150/150 139/139/139
f 147/147/147 152/152/152 143/143/143
f 152/152/152 151/151/151 143/143/143
f 149/149/149 153/153/153 147/147/147
f 153/153/153 152/152/152 147/147/147
f 145/145/145 154/154/154 149/149/149
f 154/154/154 153/153/153 149/149/149
f 141/141/141 155/155/155 145/145/145
f 155/155/155 154/154/154 145/145/145
f 150/150/150 156/156/156 135/135/135
f 135/135/135 156/156/156 131/131/131
f 157/157/157 155/155/155 141/141/141
f 137/137/137 157/157/157 141/141/141
f 156/156/156 158/158/158 131/131/131
f 131/131/131 158/158/158 127/127/127
f 159/159/159 157/157/157 137/137/137
f 133/133/133 159/159/159 137/137/137
f 158/158/158 160/160/160 127/127/127
f 127/127/127 160/160/160 129/129/129
f 129/129/129 161/161/161 133/133/133
f 161/161/161 159/159/159 133/133/133
f 160/160/160 161/161/161 129/129/129
f 155/155/155 162/162/162 154/154/154
f 162/162/162 163/163/163 154/154/154
f 164/164/164 162/162/162 155/155/155
f 157/157/157 164/164/164 155/155/155
f 154/154/154 163/163/163 153/153/153
f 165/165/165 164/164/164 157/157/157
f 159/159/159 165/165/165 157/157/157
f 163/163/163 166/166/166 153/153/153
f 167/167/167 165/165/165 159/159/159
f 161/161/161 167/167/167 159/159/159
f 153/153/153 166/166/166 152/152/152
f 168/168/168 167/167/167 161/161/161
f 160/160/160 168/168/168 161/161/161
f 166/166/166 169/169/169 152/152/152
f 170/170/170 168/168/168 160/160/160
f 152/152/152 169/169/169 151/151/151
f 158/158/158 170/170/170 160/160/160
f 169/169/169 171/171/171 151/151/151
f 172/172/172 170/170/170 158/158/158
f 151/151/151 171/171/171 150/150/150
f 156/156/156 172/172/172 158/158/158
f 171/171/171 173/173/173 150/150/150
f 173/173/173 172/172/172 156/156/156
f 150/150/150 173/173/173 156/156/156
