g fcbg_cityforestcrystal_003_vendingmachine_02
v 0.49207056 1.910916 -0.27337202
v 0.49207056 1.910916 0.273372
v -0.4920705 1.910916 0.273372
v -0.4920705 1.910916 -0.27337202
v 0.49207056 -1.1622906E-06 -0.27337202
v -0.4920705 -1.1622906E-06 -0.27337202
v 0.49207056 1.1324883E-06 0.273372
v 0.49207056 1.910916 0.273372
v -0.4920705 -1.1622906E-06 -0.27337202
v -0.4920705 1.910916 -0.27337202
v -0.4920705 1.910916 0.273372
v -0.4920705 1.1324883E-06 0.273372
v -0.4920705 1.1324883E-06 0.273372
v -0.4920705 1.910916 0.273372
v 0.49207056 1.910916 0.273372
v 0.49207056 1.1324883E-06 0.273372
vt 0.9582797 0.1660027
vt 0.9582797 0.1844988
vt 0.99800754 0.1844988
vt 0.99800754 0.1660027
vt 0.9582797 0.09551392
vt 0.99800754 0.09551392
vt 0.93782306 0.09551392
vt 0.93782306 0.1660027
vt 0.9582797 0.09551392
vt 0.9582797 0.1660027
vt 0.93782306 0.1660027
vt 0.93782306 0.09551392
vt 0.99800754 0.09551392
vt 0.99800754 0.1660027
vt 0.9582797 0.1660027
vt 0.9582797 0.09551392
vn 0.57715946 0.57715946 -0.57773167
vn 0.57715946 0.57715946 0.57773167
vn -0.57715946 0.57715946 0.57773167
vn -0.57715946 0.57715946 -0.57773167
vn 0.70710677 -0.00069117546 -0.7071065
vn -0.70710677 -0.00069117546 -0.7071065
vn 0.70710677 -0.00069117546 0.7071065
vn 0.57715946 0.57715946 0.57773167
vn -0.70710677 -0.00069117546 -0.7071065
vn -0.57715946 0.57715946 -0.57773167
vn -0.57715946 0.57715946 0.57773167
vn -0.70710677 -0.00069117546 0.7071065
vn -0.70710677 -0.00069117546 0.7071065
vn -0.57715946 0.57715946 0.57773167
vn 0.57715946 0.57715946 0.57773167
vn 0.70710677 -0.00069117546 0.7071065
g fcbg_cityforestcrystal_003_vendingmachine_02_0
f 3/3/3 2/2/2 1/1/1
f 4/4/4 3/3/3 1/1/1
f 4/4/4 1/1/1 5/5/5
f 6/6/6 4/4/4 5/5/5
f 5/5/5 1/1/1 7/7/7
f 1/1/1 8/8/8 7/7/7
f 11/11/11 10/10/10 9/9/9
f 12/12/12 11/11/11 9/9/9
f 15/15/15 14/14/14 13/13/13
f 16/16/16 15/15/15 13/13/13
