g fcbg_common_crystal_09
v -0.18614468 -0.019913822 -0.16281071
v -0.07883468 -0.0067355335 -0.4869894
v -0.03900978 3.00438 -0.31429633
v -0.3568689 3.0910625 0.17387065
v -0.28204736 2.975563 0.48589477
v 0.16310418 2.9523594 0.48699012
v 0.22127023 -0.030703515 -0.115567416
v 0.3568682 2.9135616 -0.060257465
v 0.2588601 -0.015894145 -0.40147376
v -0.03900978 3.00438 -0.31429633
v -0.07883468 -0.0067355335 -0.4869894
v -0.3568689 3.0910625 0.17387065
v -0.03900978 3.00438 -0.31429633
v -0.28204736 2.975563 0.48589477
vt 0.067982405 0.62216866
vt 0.043935046 0.6188922
vt 0.012771333 0.7509747
vt 0.046366468 0.76176786
vt 0.06675187 0.75829864
vt 0.093764365 0.75736463
vt 0.09750046 0.6222873
vt 0.12841214 0.75195324
vt 0.11803411 0.62123466
vt 0.15714443 0.7531541
vt 0.14258555 0.61825466
vt 0.1063366 0.7929761
vt 0.13896807 0.77903986
vt 0.08781925 0.78375447
vn -0.88570124 -0.16276246 0.43478927
vn -0.31349474 0.060537636 -0.9476583
vn -0.20358926 0.6135543 -0.76295644
vn -0.6955473 0.71822613 -0.019111704
vn -0.52458316 0.39548773 0.75392437
vn 0.5046907 0.4896925 0.71097714
vn 0.6111072 -0.15927339 0.775358
vn 0.8099838 0.5053932 -0.29749614
vn 0.8989549 0.015179813 -0.43777806
vn -0.20358926 0.6135543 -0.76295644
vn -0.31349474 0.060537636 -0.9476583
vn -0.6955473 0.71822613 -0.019111704
vn -0.20358926 0.6135543 -0.76295644
vn -0.52458316 0.39548773 0.75392437
g fcbg_common_crystal_09_0
f 3/3/3 2/2/2 1/1/1
f 4/4/4 3/3/3 1/1/1
f 5/5/5 4/4/4 1/1/1
f 6/6/6 5/5/5 1/1/1
f 7/7/7 6/6/6 1/1/1
f 6/6/6 7/7/7 8/8/8
f 7/7/7 9/9/9 8/8/8
f 8/8/8 9/9/9 10/10/10
f 9/9/9 11/11/11 10/10/10
f 6/6/6 8/8/8 12/12/12
f 8/8/8 13/13/13 12/12/12
f 12/12/12 14/14/14 6/6/6
