g fcbg_iceland_002_house_02
v -2.3939006 1.4994165 3.2604542
v -2.3939006 0.0011270046 3.2604542
v -5.6868277 0.0011270046 3.2604537
v -5.6868277 1.4994165 3.260454
v -5.6868277 0.0011277199 -7.1520645E-07
v -5.6868277 1.4994165 2.5133538
v -5.6868277 2.5415213 2.5133538
v -5.6868277 3.3019276 0.45597222
v -5.6868277 3.3019276 -2.1329603E-07
v -5.6868277 3.3019276 -0.45597252
v -5.686827 2.541522 -2.5133548
v -5.686827 1.4994172 -2.5133548
v -5.686827 1.4994173 -3.2604551
v -5.686827 0.0011281967 -3.2604551
v -2.3939 1.4994173 -3.2604547
v -2.3939 0.0011281967 -3.2604547
v 2.3939002 0.0011267662 3.2604547
v 2.3939002 1.4994165 3.2604547
v 5.6868277 1.4994165 3.260455
v 5.6868277 0.0011267662 3.2604547
v 5.6868277 1.4994165 2.5133548
v 5.6868277 0.0011274815 2.3846786E-07
v 5.6868277 2.5415213 2.513355
v 5.6868277 3.3019276 0.45597318
v 5.6868277 3.3019278 7.4037825E-07
v 5.6868277 3.3019276 -0.45597157
v -5.6868277 3.3019276 0.45597222
v -5.6868277 2.5415213 2.5133538
v -5.6868277 3.3019276 -2.1329603E-07
v 5.6868277 3.3019278 7.4037825E-07
v 5.6868277 1.4994165 2.5133548
v -5.6868277 3.3019276 -0.45597252
v -5.6868277 1.4994165 2.5133538
v 5.686828 2.541522 -2.5133538
v -5.686827 2.541522 -2.5133548
v 5.686828 1.4994172 -2.5133538
v 5.686828 0.0011279583 -3.2604542
v 5.686828 1.4994173 -3.2604542
v 2.3939009 0.0011279583 -3.2604547
v 2.3939009 1.4994173 -3.2604547
v 5.686828 1.4994172 -2.5133538
v -5.686827 1.4994172 -2.5133548
v 2.3939004 1.4994165 2.809236
v 5.6868277 1.4994165 3.260455
v 2.3939002 1.4994165 3.2604547
v -2.3939004 1.4994165 2.8092356
v -2.3939006 1.4994165 3.2604542
v -5.6868277 1.4994165 3.260454
v 2.3939009 1.4994172 -2.8092356
v 5.686828 1.4994173 -3.2604542
v 2.3939009 1.4994173 -3.2604547
v -2.3939 1.4994172 -2.8092356
v -2.3939 1.4994173 -3.2604547
v -5.686827 1.4994173 -3.2604551
v -2.3939004 1.4994165 2.8092356
v -2.3939006 0.0011270046 3.2604542
v -2.3939006 1.4994165 3.2604542
v -2.3939004 0.001127243 2.8092353
v 2.3939004 1.4994165 2.809236
v 2.3939004 0.0011270046 2.8092358
v 2.3939002 1.4994165 3.2604547
v 2.3939002 0.0011267662 3.2604547
v -2.3939 1.4994172 -2.8092356
v -2.3939 1.4994173 -3.2604547
v -2.3939 0.0011281967 -3.2604547
v -2.3939 0.0011281967 -2.8092356
v 2.3939009 1.4994172 -2.8092356
v 2.3939009 0.0011279583 -2.8092356
v 2.3939009 1.4994173 -3.2604547
v 2.3939009 0.0011279583 -3.2604547
vt 0.07613929 0.65864325
vt 0.082140595 0.6758288
vt 0.04879334 0.6881537
vt 0.042600784 0.6709795
vt 0.014600747 0.7007901
vt 0.035034884 0.67377603
vt 0.031471957 0.6647171
vt 0.007790888 0.6647171
vt 0.0019989987 0.6668564
vt 0.007790888 0.6647171
vt 0.031471957 0.6647171
vt 0.035034884 0.67377603
vt 0.042600784 0.6709795
vt 0.04879334 0.6881537
vt 0.07613929 0.65864325
vt 0.082140595 0.6758288
vt 0.082140595 0.6758288
vt 0.07613929 0.65864325
vt 0.042600784 0.6709795
vt 0.04879334 0.6881537
vt 0.035034884 0.67377603
vt 0.014600747 0.7007901
vt 0.031471957 0.6647171
vt 0.007790888 0.6647171
vt 0.0019989987 0.6668564
vt 0.007790888 0.6647171
vt 0.007790888 0.5414398
vt 0.031471957 0.5414398
vt 0.0014892056 0.5414398
vt 0.0014892056 0.6647171
vt 0.042722978 0.6647171
vt 0.007790888 0.5414398
vt 0.042722978 0.5414398
vt 0.031471957 0.6647171
vt 0.031471957 0.5414398
vt 0.035034884 0.67377603
vt 0.04879334 0.6881537
vt 0.042600784 0.6709795
vt 0.082140595 0.6758288
vt 0.07613929 0.65864325
vt 0.042722978 0.6647171
vt 0.042722978 0.5414398
vt 0.047283225 0.62868303
vt 0.052025042 0.6647171
vt 0.052025042 0.62868303
vt 0.047283225 0.57699174
vt 0.052025042 0.57699174
vt 0.052025042 0.5414398
vt 0.047283225 0.62868303
vt 0.052025042 0.6647171
vt 0.052025042 0.62868303
vt 0.047283225 0.57699174
vt 0.052025042 0.57699174
vt 0.052025042 0.5414398
vt 0.055088013 0.57600766
vt 0.07280022 0.570933
vt 0.055088013 0.570933
vt 0.07280022 0.57600766
vt 0.055088013 0.62985253
vt 0.07280022 0.62985253
vt 0.055088013 0.63492703
vt 0.07280022 0.63492703
vt 0.055088013 0.57600766
vt 0.055088013 0.570933
vt 0.07280022 0.570933
vt 0.07280022 0.57600766
vt 0.055088013 0.62985253
vt 0.07280022 0.62985253
vt 0.055088013 0.63492703
vt 0.07280022 0.63492703
vn 0.5773501 0.5773502 0.57735044
vn 0.7071064 0 0.7071071
vn -0.70710677 0 0.70710677
vn -0.57735026 0.57735026 0.5773503
vn -1 0 0
vn -0.90453404 0.30151123 0.30151135
vn -0.598287 0.45796677 0.6575098
vn -0.6695369 0.731172 0.13079645
vn -0.70710677 0.70710677 0
vn -0.669537 0.731172 -0.13079637
vn -0.5982868 0.45796698 -0.65750986
vn -0.90453404 0.30151135 -0.30151144
vn -0.5773502 0.5773504 -0.5773503
vn -0.7071067 0 -0.7071068
vn 0.5773503 0.5773504 -0.5773502
vn 0.7071068 0 -0.70710665
vn -0.7071068 0 0.7071067
vn -0.57735044 0.5773502 0.57735014
vn 0.5773502 0.5773502 0.5773503
vn 0.7071067 0 0.70710677
vn 0.90453404 0.30151126 0.30151135
vn 1 0 0
vn 0.59828687 0.4579668 0.65750986
vn 0.66953695 0.731172 0.13079646
vn 0.70710665 0.7071069 0
vn 0.669537 0.731172 -0.13079625
vn -0.6695369 0.731172 0.13079645
vn -0.598287 0.45796677 0.6575098
vn -0.70710677 0.70710677 0
vn 0.70710665 0.7071069 0
vn 0.90453404 0.30151126 0.30151135
vn -0.669537 0.731172 -0.13079637
vn -0.90453404 0.30151123 0.30151135
vn 0.5982869 0.45796695 -0.6575096
vn -0.5982868 0.45796698 -0.65750986
vn 0.90453416 0.30151132 -0.30151114
vn 0.7071069 0 -0.70710665
vn 0.5773504 0.5773504 -0.57735014
vn -0.7071067 0 -0.7071068
vn -0.5773502 0.5773504 -0.5773503
vn 0.90453416 0.30151132 -0.30151114
vn -0.90453404 0.30151135 -0.30151144
vn -0.30151138 0.90453404 0.30151117
vn 0.5773502 0.5773502 0.5773503
vn -0.57735044 0.5773502 0.57735014
vn 0.30151135 0.90453404 0.30151156
vn 0.5773501 0.5773502 0.57735044
vn -0.57735026 0.57735026 0.5773503
vn -0.30151138 0.90453404 -0.30151126
vn 0.5773504 0.5773504 -0.57735014
vn -0.5773502 0.5773504 -0.5773503
vn 0.3015114 0.90453404 -0.3015113
vn 0.5773503 0.5773504 -0.5773502
vn -0.5773502 0.5773504 -0.5773503
vn 0.30151135 0.90453404 0.30151156
vn 0.7071064 0 0.7071071
vn 0.5773501 0.5773502 0.57735044
vn 0.7071066 0 0.7071069
vn -0.30151138 0.90453404 0.30151117
vn -0.70710707 0 0.7071065
vn -0.57735044 0.5773502 0.57735014
vn -0.7071068 0 0.7071067
vn 0.3015114 0.90453404 -0.3015113
vn 0.5773503 0.5773504 -0.5773502
vn 0.7071068 0 -0.70710665
vn 0.70710677 0 -0.70710677
vn -0.30151138 0.90453404 -0.30151126
vn -0.70710677 0 -0.7071067
vn -0.5773502 0.5773504 -0.5773503
vn -0.7071067 0 -0.7071068
g fcbg_iceland_002_house_02_0
f 3/3/3 2/2/2 1/1/1
f 4/4/4 3/3/3 1/1/1
f 3/3/3 4/4/4 5/5/5
f 4/4/4 6/6/6 5/5/5
f 5/5/5 6/6/6 7/7/7
f 8/8/8 5/5/5 7/7/7
f 9/9/9 5/5/5 8/8/8
f 5/5/5 9/9/9 10/10/10
f 5/5/5 10/10/10 11/11/11
f 12/12/12 5/5/5 11/11/11
f 12/12/12 13/13/13 5/5/5
f 13/13/13 14/14/14 5/5/5
f 13/13/13 15/15/15 14/14/14
f 15/15/15 16/16/16 14/14/14
f 19/19/19 18/18/18 17/17/17
f 20/20/20 19/19/19 17/17/17
f 19/19/19 20/20/20 21/21/21
f 20/20/20 22/22/22 21/21/21
f 21/21/21 22/22/22 23/23/23
f 22/22/22 24/24/24 23/23/23
f 25/25/25 24/24/24 22/22/22
f 26/26/26 25/25/25 22/22/22
f 23/23/23 24/24/24 27/27/27
f 28/28/28 23/23/23 27/27/27
f 29/29/29 27/27/27 24/24/24
f 30/30/30 29/29/29 24/24/24
f 29/29/29 30/30/30 26/26/26
f 31/31/31 23/23/23 28/28/28
f 32/32/32 29/29/29 26/26/26
f 33/33/33 31/31/31 28/28/28
f 26/26/26 34/34/34 32/32/32
f 34/34/34 26/26/26 22/22/22
f 34/34/34 35/35/35 32/32/32
f 36/36/36 34/34/34 22/22/22
f 22/22/22 37/37/37 36/36/36
f 37/37/37 38/38/38 36/36/36
f 37/37/37 39/39/39 38/38/38
f 39/39/39 40/40/40 38/38/38
f 35/35/35 34/34/34 41/41/41
f 42/42/42 35/35/35 41/41/41
f 43/43/43 31/31/31 33/33/33
f 44/44/44 31/31/31 43/43/43
f 45/45/45 44/44/44 43/43/43
f 46/46/46 43/43/43 33/33/33
f 47/47/47 46/46/46 33/33/33
f 48/48/48 47/47/47 33/33/33
f 41/41/41 49/49/49 42/42/42
f 41/41/41 50/50/50 49/49/49
f 50/50/50 51/51/51 49/49/49
f 49/49/49 52/52/52 42/42/42
f 52/52/52 53/53/53 42/42/42
f 53/53/53 54/54/54 42/42/42
f 57/57/57 56/56/56 55/55/55
f 56/56/56 58/58/58 55/55/55
f 55/55/55 58/58/58 59/59/59
f 58/58/58 60/60/60 59/59/59
f 61/61/61 59/59/59 60/60/60
f 62/62/62 61/61/61 60/60/60
f 65/65/65 64/64/64 63/63/63
f 66/66/66 65/65/65 63/63/63
f 63/63/63 67/67/67 66/66/66
f 67/67/67 68/68/68 66/66/66
f 67/67/67 69/69/69 68/68/68
f 69/69/69 70/70/70 68/68/68
