g fcbg_iceland_002_mountain_04
v 14.134153 2.8993764 -18.716696
v 18.00089 -0.03007245 -20.274527
v 19.533216 -0.059476614 -17.303091
v 18.465185 -0.071560144 -15.991758
v 13.501736 3.0985441 -16.620329
v 17.60501 -0.06435776 -14.271402
v 11.865864 3.791728 -16.005941
v 18.172808 -0.1991415 -9.934172
v 9.410143 0.014306784 -20.518003
v 9.461784 4.5663853 -15.878233
v 13.926239 2.2974815 -20.144777
v 12.771679 2.3093004 -20.147623
v 14.782887 2.304553 -21.766706
v 18.557856 -0.009767771 -23.039103
v 12.822084 2.3234925 -21.967657
v 14.195427 2.562533 -23.539057
v 19.018524 0.010518074 -25.859964
v 9.880299 0.048266888 -22.560972
v 11.505019 0.07892561 -25.66487
v 14.93355 0.06319761 -28.54989
v 6.919918 0.0050194263 -20.287561
v 15.654688 1.6105847 -26.780718
v 19.974949 0.022795677 -27.474241
v 19.422106 0.03629756 -29.509642
v 7.2995615 3.078372 -15.320261
v 4.9893208 0.0050194263 -18.295813
v 4.794648 4.334571 -13.679369
v 0.032613754 -0.005845785 -16.215788
v 7.3958263 3.4155388 -13.488485
v 6.5576696 3.3958964 -11.272715
v 8.702664 3.7759619 -12.875784
v 9.042909 3.7591414 -11.21726
v 16.733786 -0.179708 -5.1382275
v 8.340479 4.8154182 -9.83872
v 5.498603 5.695816 -8.235395
v 13.355272 -0.022760391 -2.2154524
v 4.416935 4.3268757 -12.811754
v 3.4862933 3.3832793 -9.146547
v 1.8810978 7.349743 -5.8581333
v 1.9120722 4.266123 -9.221682
v 9.122629 2.4762502 -1.4999238
v 8.868548 4.029401 0.064557865
v 13.409994 -0.015442371 1.4144858
v 7.9060717 5.281739 3.1537282
v 13.456642 -0.0092048645 4.508938
v 6.6625776 3.8700495 -0.5266363
v 0.079490185 3.819777 -9.210344
v 8.077448 4.835868 1.490673
v 5.9574375 4.702717 1.1744384
v 2.2131777 7.5563793 -3.8862116
v -0.71204233 3.8182554 -6.593912
v -2.072431 4.220892 -4.2231083
v 1.6861191 7.56443 -3.2748148
v 1.8547792 7.5691156 -2.146889
v 0.86387634 7.577446 -2.1047251
v -2.119802 3.960415 -7.7067165
v -2.483173 2.517507 -10.486746
v -3.947063 4.474821 -5.5512066
v -3.7985187 2.527059 -8.550653
v -5.8423944 2.5401168 -7.465864
v -5.080602 3.1644921 -12.455385
v -6.9470534 3.5056033 -13.691896
v -3.9188495 -0.06781888 -17.116457
v -6.4244885 -0.0045883656 -16.907011
v -8.76973 0.0028808117 -18.014112
v -8.64834 3.5142193 -14.027384
v -11.849388 0.0050194263 -18.633604
v -9.166441 3.5163212 -13.70281
v -16.798012 0.0050194263 -17.445395
v -4.833203 4.485011 -4.315527
v -9.865332 3.1571698 -11.280283
v -10.991119 3.552627 -10.41654
v -19.411394 0.0050194263 -14.47497
v -7.975042 2.395615 -5.2049847
v -4.6759562 3.8697925 -2.3435805
v -12.046772 3.555686 -8.564848
v -10.060022 1.7015905 -2.7969115
v -12.030333 3.557397 -7.066637
v -13.180105 3.0074253 -6.320524
v -15.459785 1.9555197 -6.6666546
v -19.212606 0.0050194263 -9.4965
v -17.052195 0.6029806 -6.1286373
v -19.974949 -0.16598988 -7.678278
v -19.325846 -0.16598988 -5.424387
v -15.596216 0.0050194263 -3.858927
v -11.268093 0.0050194263 -0.55475634
v -8.489399 0.0050194263 1.342472
v -4.428612 2.378027 1.2456683
v -6.543926 0.0050194263 4.5738564
v 0.22086906 7.5877686 -0.65001696
v 4.63151 5.7085094 2.3441522
v -2.2576985 3.9249482 4.833744
v -5.893536 0.0020942688 8.06333
v 0.84282064 6.9260817 0.9417265
v 6.7957263 5.352828 3.56789
v -0.21967363 6.6502914 3.017162
v -2.5502772 2.179782 10.55636
v -6.556684 0.0050194263 11.72797
v -5.4195666 0.003938198 12.4363575
v -4.696671 0.0032479763 14.657876
v -2.8712964 0.0010151863 15.660486
v 1.2496891 5.1698647 7.3919735
v 0.7044139 6.913312 3.0522554
v 1.132976 6.6019135 2.0888956
v 1.1049953 7.2761316 2.8625104
v 3.1302676 7.0963707 2.5967252
v 2.1169758 7.100643 3.0627954
v 5.7415853 5.664056 3.6100576
v 3.4124622 5.647545 5.251444
v 8.447459 1.2684464 7.3601475
v 10.738552 0.85078096 5.002283
v 10.415709 2.7205734 11.726868
v 15.319609 0.036929846 8.717119
v 14.322177 -0.015387535 12.2008
v 14.295271 0.45882678 13.62065
v 7.297105 1.3451605 8.535652
v 12.3226185 1.2372041 14.5548315
v 13.171772 0.4509256 16.753338
v 12.28565 0.85799456 16.786774
v 13.118866 0.43766713 18.785782
v 11.001488 1.7207255 14.565269
v 10.079673 1.6403637 16.248705
v 12.35508 1.0121493 18.897907
v 11.27446 0.64051914 18.361376
v 8.466233 3.0273337 20.47225
v 12.450869 0.81760645 20.817488
v 13.346218 1.1259632 20.664362
v 13.746204 0.0374372 20.212265
v 13.59257 -0.0026712418 23.752102
v 8.538375 1.7995186 15.1594515
v 12.009628 1.8677878 25.587746
v 15.456665 0.00083613396 26.92519
v 14.383835 0.003932953 28.995995
v 13.274961 0.0050194263 29.509645
v 8.331437 0.0050194263 28.234827
v 10.776299 1.662837 25.355839
v 9.859188 2.7119794 23.300276
v 6.9726505 0.0050194263 27.56522
v 4.384968 0.0050194263 25.177015
v 3.6606638 0.0050194263 24.08479
v 5.8126397 3.0931444 19.652327
v 1.813664 0.0050194263 23.337246
v 7.2731795 1.5611415 13.737047
v 3.0546837 3.0917244 17.982655
v 0.8922181 0.0050194263 22.248524
v -2.5899034 0.0050194263 20.171352
v 2.3540225 3.624351 16.298084
v -3.2050242 0.0050194263 18.045212
v 6.8775206 1.57131 12.578802
v 2.7863498 3.9156265 13.808498
v 7.3660436 1.6792955 10.682671
v 3.8895237 5.199252 11.303995
v 3.4720922 5.029372 8.665325
v 1.170917 2.8847866 11.202942
v 2.383563 4.234454 7.806406
v 3.7106104 4.796361 7.8453846
vt 0.9398573 0.437046
vt 0.97787315 0.45034522
vt 0.9924933 0.42372522
vt 0.9825772 0.41205338
vt 0.9342283 0.41832453
vt 0.9745918 0.3971203
vt 0.9184093 0.41291592
vt 0.980611 0.3584625
vt 0.89425343 0.4511596
vt 0.89536774 0.41104862
vt 0.9397182 0.44955528
vt 0.92559546 0.44932187
vt 0.9480143 0.46346915
vt 0.9827776 0.47496447
vt 0.9262982 0.466169
vt 0.9407192 0.47989956
vt 0.98763245 0.5000579
vt 0.8988325 0.4711345
vt 0.91460264 0.49843314
vt 0.9480608 0.5239849
vt 0.86952937 0.45114943
vt 0.95453036 0.5059788
vt 0.9969328 0.5144554
vt 0.991576 0.53253704
vt 0.8737326 0.4070384
vt 0.851089 0.433732
vt 0.8494574 0.39245176
vt 0.80301213 0.4154462
vt 0.8750133 0.39121255
vt 0.8668232 0.3709808
vt 0.88749284 0.38513532
vt 0.8908425 0.37030727
vt 0.9664622 0.3150457
vt 0.8839855 0.35803542
vt 0.8561952 0.34387082
vt 0.9331667 0.2895586
vt 0.84579176 0.3847042
vt 0.8364299 0.35159492
vt 0.8211728 0.3225921
vt 0.8215008 0.35268056
vt 0.89175856 0.283486
vt 0.8892495 0.26968586
vt 0.9337139 0.2575184
vt 0.8798305 0.24218018
vt 0.93418044 0.23020484
vt 0.86770433 0.27490497
vt 0.8037238 0.35258862
vt 0.8815229 0.25700453
vt 0.8608213 0.25979987
vt 0.8243727 0.30493942
vt 0.79599375 0.32912642
vt 0.7826427 0.30795637
vt 0.8192134 0.29948354
vt 0.8208604 0.2894379
vt 0.81116307 0.28904524
vt 0.7823503 0.33904612
vt 0.7788454 0.36397925
vt 0.7644831 0.31977683
vt 0.7660639 0.3465601
vt 0.746213 0.33676428
vt 0.75365263 0.3815784
vt 0.7355436 0.39262736
vt 0.76696265 0.427748
vt 0.74054325 0.42148653
vt 0.71782744 0.43211156
vt 0.7190101 0.3955975
vt 0.68803734 0.43684214
vt 0.71396047 0.3926743
vt 0.6396379 0.42619312
vt 0.7558472 0.30869934
vt 0.7071483 0.3709032
vt 0.6961276 0.36314532
vt 0.61391395 0.39931622
vt 0.7254928 0.31640708
vt 0.75725394 0.29112834
vt 0.68580985 0.34650704
vt 0.70523405 0.29472974
vt 0.6859944 0.33304054
vt 0.6747368 0.32634005
vt 0.65242374 0.32944342
vt 0.61530095 0.35496154
vt 0.6366836 0.3246527
vt 0.60750216 0.338832
vt 0.61439705 0.31779215
vt 0.65109414 0.30422646
vt 0.6935675 0.27450573
vt 0.72007734 0.25790963
vt 0.7594356 0.25914618
vt 0.7386465 0.22941943
vt 0.80486596 0.27607518
vt 0.8478592 0.24937338
vt 0.7805766 0.22720115
vt 0.7450311 0.1984066
vt 0.8109277 0.26190862
vt 0.8689604 0.23852725
vt 0.8005197 0.24334593
vt 0.7777314 0.176284
vt 0.7386563 0.16595633
vt 0.74973375 0.15959863
vt 0.75676394 0.13976748
vt 0.7745668 0.13079616
vt 0.814788 0.20443745
vt 0.80951667 0.24306442
vt 0.81373453 0.25175154
vt 0.81344885 0.24475123
vt 0.83319765 0.2471078
vt 0.8232827 0.24301271
vt 0.8586394 0.2381577
vt 0.8358972 0.22349973
vt 0.8856025 0.20369998
vt 0.907468 0.22582965
vt 0.90470386 0.16523999
vt 0.9519801 0.19287425
vt 0.94240427 0.16248846
vt 0.9393272 0.151636
vt 0.8723621 0.19651356
vt 0.9223295 0.14099701
vt 0.92615825 0.122147135
vt 0.92183155 0.12071555
vt 0.92814034 0.10341158
vt 0.9094137 0.1405126
vt 0.9000447 0.12595785
vt 0.9223887 0.101895936
vt 0.91177315 0.107006036
vt 0.8847767 0.08802526
vt 0.9233876 0.08493364
vt 0.9320972 0.08596328
vt 0.9356514 0.091830015
vt 0.9347566 0.058511727
vt 0.8852031 0.13555625
vt 0.9192474 0.042157367
vt 0.9528647 0.030391082
vt 0.9432954 0.011880351
vt 0.93149126 0.0070594386
vt 0.88354945 0.018206632
vt 0.9074498 0.044273436
vt 0.8986543 0.06271016
vt 0.87053293 0.024883462
vt 0.84529704 0.04608372
vt 0.8382417 0.055840746
vt 0.8591553 0.095236264
vt 0.8202254 0.062427133
vt 0.87276393 0.14853416
vt 0.8323532 0.1101265
vt 0.8112457 0.072136454
vt 0.7772884 0.09055098
vt 0.8255279 0.12511973
vt 0.77130467 0.1095598
vt 0.86957794 0.15823801
vt 0.82975507 0.14729533
vt 0.8743548 0.1751283
vt 0.8405259 0.1696164
vt 0.836465 0.19310339
vt 0.8140104 0.1705003
vt 0.82584846 0.20075037
vt 0.8387949 0.20040865
vn 0.12570189 0.9829085 -0.13449876
vn 0.51994663 0.84636647 -0.11540952
vn 0.4585281 0.8871173 0.052677475
vn 0.4549296 0.8569388 0.2422703
vn 0.279522 0.9595846 -0.032631706
vn 0.5450427 0.83654916 0.055802353
vn 0.29766905 0.93252873 -0.20440963
vn 0.42570788 0.90064716 0.0872206
vn -0.29993212 0.84659314 -0.43968248
vn -0.07522621 0.9707664 -0.22793357
vn 0.22962195 0.96325696 -0.13931933
vn -0.37166825 0.9278447 0.031093717
vn 0.3343272 0.93501264 0.11822296
vn 0.5157525 0.8539861 0.068608254
vn -0.3465422 0.9336081 -0.09101834
vn -0.016979912 0.98780954 -0.15473881
vn 0.42361915 0.89618605 0.13189924
vn -0.57502365 0.79445016 -0.19543968
vn -0.46069267 0.8038424 -0.3762973
vn -0.27607816 0.7885909 -0.54945904
vn -0.30077082 0.7594996 -0.57679915
vn -0.040707767 0.93918544 -0.3409891
vn 0.3498306 0.9361192 0.03604713
vn 0.20709203 0.9435701 -0.25843453
vn -0.3312535 0.849304 -0.41103983
vn -0.34120283 0.7486403 -0.568435
vn -0.08769992 0.9564339 -0.2784656
vn -0.11378836 0.8442529 -0.5237264
vn -0.061149165 0.99786335 -0.02301385
vn -0.03206122 0.9795821 -0.19847183
vn 0.0068200883 0.9943516 0.10591674
vn 0.26429942 0.94057095 -0.21324204
vn 0.3929809 0.8983826 0.19614962
vn 0.22320648 0.9311177 -0.28844178
vn 0.1009528 0.9343794 -0.34167764
vn 0.49707967 0.8562768 0.14036351
vn -0.11673561 0.9926179 -0.032900702
vn 0.14192753 0.9359178 -0.3223575
vn -0.22930498 0.95440495 -0.19112933
vn 0.030258158 0.8783451 -0.47706857
vn 0.4367762 0.8531438 -0.28525817
vn 0.38851565 0.82972705 -0.4007598
vn 0.67822707 0.7344975 -0.022832822
vn 0.4213375 0.8964731 0.13715209
vn 0.49845296 0.86681426 0.013329199
vn 0.4223622 0.8714914 -0.24922465
vn -0.2799157 0.8602835 -0.42609802
vn 0.32094648 0.9099956 -0.2624905
vn 0.31466365 0.91978174 -0.23449571
vn 0.08758782 0.9959545 -0.020074287
vn -0.33064866 0.9254776 -0.18483141
vn -0.24630985 0.9300967 -0.2724915
vn -0.21193174 0.9752041 -0.06373435
vn 0.1509294 0.9795487 0.1330588
vn -0.060716134 0.916549 -0.3952863
vn -0.14887995 0.9501064 -0.27410343
vn -0.026964724 0.96242255 -0.27021405
vn -0.14700718 0.95994896 -0.23850994
vn -0.20392032 0.9532429 -0.22303487
vn -0.12276365 0.98102874 -0.15003924
vn 0.24540389 0.9668133 -0.071055785
vn 0.11277505 0.96067256 -0.253752
vn 0.07823271 0.72355026 -0.6858241
vn 0.14034021 0.68002784 -0.71962947
vn 0.1926329 0.72096926 -0.6656545
vn -0.0060486253 0.946449 -0.32279673
vn -0.047762565 0.8170292 -0.57461464
vn -0.1865788 0.97583663 -0.11371497
vn -0.208541 0.91637456 -0.3417139
vn -0.24433304 0.9695426 0.016982112
vn -0.057091527 0.9970772 -0.0507709
vn -0.060264934 0.9901877 -0.12608083
vn -0.31246135 0.9332583 -0.17719154
vn -0.20869689 0.9779333 -0.009605375
vn -0.42242205 0.87483376 0.23711924
vn -0.15464814 0.98796916 -0.0009710855
vn -0.25324163 0.87811565 0.40593308
vn -0.05373009 0.98957574 0.1336143
vn -0.31240615 0.9049255 0.28898484
vn -0.46809074 0.84745663 0.25041625
vn -0.4279036 0.9031219 0.03562863
vn -0.39813346 0.86599076 0.3025721
vn -0.26430094 0.9642325 0.020017786
vn -0.26575315 0.94768935 0.17680527
vn -0.38010955 0.7863229 0.4870452
vn -0.3149182 0.8144844 0.48727983
vn -0.41072252 0.8231253 0.39213756
vn -0.5963426 0.7640762 0.24609593
vn -0.6122723 0.7710404 0.17498353
vn -0.22011432 0.96746385 0.1247533
vn 0.46344268 0.8358754 -0.29416522
vn -0.6361836 0.7393818 0.22041996
vn -0.60780096 0.79037213 0.076745406
vn -0.17739038 0.9561247 0.23314847
vn 0.29914698 0.921897 0.24620503
vn -0.48756886 0.8675584 0.09807651
vn -0.44931304 0.85815436 0.24837261
vn -0.4294593 0.8858262 0.17571792
vn -0.41604847 0.8430782 0.34076795
vn -0.40175292 0.8686 0.29004925
vn -0.46686986 0.8714047 0.15062019
vn -0.026167424 0.8819296 0.47065443
vn -0.4649026 0.88519424 0.017224541
vn -0.117080905 0.9929751 -0.017104613
vn -0.25228265 0.94885427 -0.18981338
vn 0.31471363 0.93674093 -0.15320499
vn 0.08149181 0.99293596 0.08624003
vn 0.36547783 0.90638554 0.2118759
vn 0.31664315 0.8368183 0.44662312
vn 0.20737247 0.9669512 0.14833133
vn 0.35019064 0.8640982 0.36152577
vn 0.10886688 0.9940473 -0.004247036
vn 0.44820648 0.8915854 -0.06470231
vn 0.5755375 0.81738406 -0.025295343
vn 0.50753266 0.8613455 -0.022235652
vn 0.3231686 0.94603974 0.02389482
vn 0.397374 0.9005206 0.17651168
vn 0.4473924 0.89116126 0.0753096
vn 0.31702277 0.93991566 0.1267091
vn 0.63891834 0.7466678 -0.18512323
vn 0.34334767 0.9117992 0.22524332
vn 0.2967307 0.952213 0.07239643
vn 0.092917815 0.9946891 -0.044270474
vn 0.22556959 0.97422653 0.0010230392
vn 0.13840516 0.98986924 0.031667657
vn 0.12008621 0.9918035 0.04364566
vn 0.41572222 0.9072165 0.06429094
vn 0.8474364 0.50550133 -0.16223381
vn 0.6454024 0.75267684 -0.13012882
vn 0.0072696707 0.999198 -0.03937731
vn 0.16254078 0.9850853 0.056457546
vn 0.46922317 0.8827817 0.02294025
vn 0.27907592 0.91095734 0.30376548
vn 0.05232273 0.9084891 0.41462028
vn -0.15968196 0.8870313 0.43321726
vn -0.015541554 0.9694835 0.24466349
vn 0.17900166 0.96885216 0.1711255
vn -0.26314652 0.88516474 0.3837151
vn -0.34955496 0.8909478 0.2898678
vn -0.27357346 0.8778902 0.39302215
vn -0.06069718 0.9838299 0.1685073
vn -0.30330136 0.8454627 0.43954659
vn 0.016518736 0.99927 -0.034447704
vn -0.10577869 0.9723762 0.20807539
vn -0.3688227 0.83176804 0.41488758
vn -0.3685977 0.8614356 0.34937736
vn -0.11515195 0.9865372 0.11612197
vn -0.49213216 0.8596656 0.1370439
vn 0.22235186 0.96554446 0.13521639
vn -0.030928895 0.96133333 0.27364534
vn 0.20527679 0.9778634 -0.04055244
vn 0.12382774 0.97777885 0.16916077
vn -0.0033927967 0.99291784 -0.11875418
vn -0.38819697 0.89274377 0.22871737
vn -0.04139031 0.93534607 0.35130414
vn 0.2661283 0.9635556 0.027135137
g fcbg_iceland_002_mountain_04_0
f 3/3/3 2/2/2 1/1/1
f 4/4/4 3/3/3 1/1/1
f 4/4/4 1/1/1 5/5/5
f 6/6/6 4/4/4 5/5/5
f 7/7/7 6/6/6 5/5/5
f 8/8/8 6/6/6 7/7/7
f 5/5/5 9/9/9 7/7/7
f 1/1/1 9/9/9 5/5/5
f 10/10/10 8/8/8 7/7/7
f 7/7/7 9/9/9 10/10/10
f 2/2/2 11/11/11 1/1/1
f 12/12/12 9/9/9 1/1/1
f 1/1/1 11/11/11 12/12/12
f 11/11/11 2/2/2 13/13/13
f 2/2/2 14/14/14 13/13/13
f 15/15/15 12/12/12 11/11/11
f 15/15/15 9/9/9 12/12/12
f 13/13/13 15/15/15 11/11/11
f 14/14/14 16/16/16 13/13/13
f 16/16/16 15/15/15 13/13/13
f 16/16/16 14/14/14 17/17/17
f 18/18/18 9/9/9 15/15/15
f 19/19/19 18/18/18 15/15/15
f 16/16/16 19/19/19 15/15/15
f 20/20/20 19/19/19 16/16/16
f 10/10/10 9/9/9 21/21/21
f 22/22/22 16/16/16 17/17/17
f 22/22/22 20/20/20 16/16/16
f 23/23/23 22/22/22 17/17/17
f 24/24/24 20/20/20 22/22/22
f 24/24/24 22/22/22 23/23/23
f 25/25/25 10/10/10 21/21/21
f 26/26/26 25/25/25 21/21/21
f 25/25/25 26/26/26 27/27/27
f 26/26/26 28/28/28 27/27/27
f 10/10/10 25/25/25 29/29/29
f 25/25/25 27/27/27 29/29/29
f 29/29/29 27/27/27 30/30/30
f 10/10/10 29/29/29 31/31/31
f 31/31/31 29/29/29 30/30/30
f 31/31/31 8/8/8 10/10/10
f 32/32/32 8/8/8 31/31/31
f 32/32/32 31/31/31 30/30/30
f 8/8/8 32/32/32 33/33/33
f 32/32/32 34/34/34 33/33/33
f 34/34/34 32/32/32 30/30/30
f 34/34/34 35/35/35 33/33/33
f 35/35/35 34/34/34 30/30/30
f 33/33/33 35/35/35 36/36/36
f 27/27/27 37/37/37 30/30/30
f 27/27/27 28/28/28 37/37/37
f 37/37/37 38/38/38 30/30/30
f 38/38/38 35/35/35 30/30/30
f 39/39/39 35/35/35 38/38/38
f 40/40/40 38/38/38 37/37/37
f 37/37/37 28/28/28 40/40/40
f 39/39/39 38/38/38 40/40/40
f 36/36/36 35/35/35 41/41/41
f 35/35/35 39/39/39 41/41/41
f 36/36/36 41/41/41 42/42/42
f 43/43/43 36/36/36 42/42/42
f 44/44/44 43/43/43 42/42/42
f 45/45/45 43/43/43 44/44/44
f 42/42/42 41/41/41 46/46/46
f 46/46/46 41/41/41 39/39/39
f 40/40/40 28/28/28 47/47/47
f 40/40/40 47/47/47 39/39/39
f 48/48/48 44/44/44 42/42/42
f 48/48/48 42/42/42 46/46/46
f 44/44/44 48/48/48 49/49/49
f 49/49/49 48/48/48 46/46/46
f 50/50/50 46/46/46 39/39/39
f 47/47/47 51/51/51 39/39/39
f 39/39/39 51/51/51 50/50/50
f 50/50/50 51/51/51 52/52/52
f 53/53/53 46/46/46 50/50/50
f 49/49/49 46/46/46 53/53/53
f 53/53/53 50/50/50 52/52/52
f 54/54/54 49/49/49 53/53/53
f 54/54/54 53/53/53 52/52/52
f 55/55/55 49/49/49 54/54/54
f 55/55/55 54/54/54 52/52/52
f 47/47/47 56/56/56 51/51/51
f 57/57/57 47/47/47 28/28/28
f 47/47/47 57/57/57 56/56/56
f 56/56/56 58/58/58 51/51/51
f 58/58/58 52/52/52 51/51/51
f 57/57/57 59/59/59 56/56/56
f 59/59/59 58/58/58 56/56/56
f 60/60/60 58/58/58 59/59/59
f 57/57/57 28/28/28 61/61/61
f 57/57/57 61/61/61 59/59/59
f 61/61/61 28/28/28 62/62/62
f 61/61/61 62/62/62 59/59/59
f 62/62/62 28/28/28 63/63/63
f 64/64/64 62/62/62 63/63/63
f 65/65/65 62/62/62 64/64/64
f 62/62/62 66/66/66 59/59/59
f 66/66/66 62/62/62 65/65/65
f 60/60/60 59/59/59 66/66/66
f 67/67/67 66/66/66 65/65/65
f 68/68/68 66/66/66 67/67/67
f 68/68/68 60/60/60 66/66/66
f 69/69/69 68/68/68 67/67/67
f 58/58/58 70/70/70 52/52/52
f 58/58/58 60/60/60 70/70/70
f 71/71/71 68/68/68 69/69/69
f 71/71/71 60/60/60 68/68/68
f 72/72/72 71/71/71 69/69/69
f 72/72/72 60/60/60 71/71/71
f 73/73/73 72/72/72 69/69/69
f 74/74/74 60/60/60 72/72/72
f 60/60/60 74/74/74 70/70/70
f 70/70/70 75/75/75 52/52/52
f 75/75/75 55/55/55 52/52/52
f 76/76/76 72/72/72 73/73/73
f 76/76/76 74/74/74 72/72/72
f 74/74/74 77/77/77 70/70/70
f 70/70/70 77/77/77 75/75/75
f 78/78/78 74/74/74 76/76/76
f 78/78/78 76/76/76 73/73/73
f 77/77/77 74/74/74 78/78/78
f 79/79/79 78/78/78 73/73/73
f 79/79/79 77/77/77 78/78/78
f 80/80/80 79/79/79 73/73/73
f 81/81/81 80/80/80 73/73/73
f 82/82/82 80/80/80 81/81/81
f 81/81/81 83/83/83 82/82/82
f 83/83/83 84/84/84 82/82/82
f 85/85/85 82/82/82 84/84/84
f 82/82/82 85/85/85 80/80/80
f 80/80/80 85/85/85 79/79/79
f 85/85/85 86/86/86 79/79/79
f 79/79/79 86/86/86 77/77/77
f 77/77/77 86/86/86 87/87/87
f 75/75/75 77/77/77 87/87/87
f 75/75/75 87/87/87 88/88/88
f 88/88/88 87/87/87 89/89/89
f 88/88/88 90/90/90 75/75/75
f 90/90/90 55/55/55 75/75/75
f 90/90/90 91/91/91 55/55/55
f 91/91/91 49/49/49 55/55/55
f 92/92/92 88/88/88 89/89/89
f 93/93/93 92/92/92 89/89/89
f 90/90/90 88/88/88 94/94/94
f 94/94/94 91/91/91 90/90/90
f 91/91/91 95/95/95 49/49/49
f 95/95/95 44/44/44 49/49/49
f 92/92/92 96/96/96 88/88/88
f 88/88/88 96/96/96 94/94/94
f 97/97/97 92/92/92 93/93/93
f 98/98/98 97/97/97 93/93/93
f 99/99/99 97/97/97 98/98/98
f 99/99/99 100/100/100 97/97/97
f 100/100/100 101/101/101 97/97/97
f 92/92/92 97/97/97 102/102/102
f 96/96/96 92/92/92 102/102/102
f 101/101/101 102/102/102 97/97/97
f 103/103/103 96/96/96 102/102/102
f 96/96/96 104/104/104 94/94/94
f 103/103/103 104/104/104 96/96/96
f 105/105/105 103/103/103 102/102/102
f 105/105/105 104/104/104 103/103/103
f 106/106/106 94/94/94 104/104/104
f 94/94/94 106/106/106 91/91/91
f 105/105/105 107/107/107 104/104/104
f 107/107/107 105/105/105 102/102/102
f 107/107/107 106/106/106 104/104/104
f 106/106/106 107/107/107 102/102/102
f 106/106/106 108/108/108 91/91/91
f 108/108/108 95/95/95 91/91/91
f 106/106/106 109/109/109 108/108/108
f 106/106/106 102/102/102 109/109/109
f 108/108/108 110/110/110 95/95/95
f 109/109/109 110/110/110 108/108/108
f 95/95/95 110/110/110 44/44/44
f 110/110/110 111/111/111 44/44/44
f 111/111/111 45/45/45 44/44/44
f 111/111/111 112/112/112 45/45/45
f 110/110/110 112/112/112 111/111/111
f 112/112/112 113/113/113 45/45/45
f 114/114/114 113/113/113 112/112/112
f 114/114/114 112/112/112 115/115/115
f 116/116/116 112/112/112 110/110/110
f 116/116/116 110/110/110 109/109/109
f 112/112/112 117/117/117 115/115/115
f 117/117/117 118/118/118 115/115/115
f 118/118/118 117/117/117 119/119/119
f 120/120/120 118/118/118 119/119/119
f 121/121/121 117/117/117 112/112/112
f 117/117/117 121/121/121 119/119/119
f 121/121/121 112/112/112 122/122/122
f 119/119/119 121/121/121 122/122/122
f 123/123/123 120/120/120 119/119/119
f 124/124/124 119/119/119 122/122/122
f 123/123/123 119/119/119 124/124/124
f 125/125/125 124/124/124 122/122/122
f 123/123/123 124/124/124 126/126/126
f 126/126/126 124/124/124 125/125/125
f 120/120/120 123/123/123 127/127/127
f 127/127/127 123/123/123 126/126/126
f 128/128/128 120/120/120 127/127/127
f 129/129/129 128/128/128 127/127/127
f 129/129/129 127/127/127 126/126/126
f 122/122/122 112/112/112 130/130/130
f 130/130/130 125/125/125 122/122/122
f 129/129/129 126/126/126 131/131/131
f 129/129/129 131/131/131 132/132/132
f 132/132/132 131/131/131 133/133/133
f 134/134/134 133/133/133 131/131/131
f 135/135/135 134/134/134 131/131/131
f 131/131/131 126/126/126 136/136/136
f 136/136/136 135/135/135 131/131/131
f 136/136/136 126/126/126 137/137/137
f 137/137/137 135/135/135 136/136/136
f 137/137/137 126/126/126 125/125/125
f 138/138/138 135/135/135 137/137/137
f 138/138/138 137/137/137 139/139/139
f 137/137/137 125/125/125 139/139/139
f 139/139/139 125/125/125 140/140/140
f 125/125/125 141/141/141 140/140/140
f 141/141/141 125/125/125 130/130/130
f 140/140/140 141/141/141 142/142/142
f 141/141/141 130/130/130 143/143/143
f 130/130/130 112/112/112 143/143/143
f 141/141/141 144/144/144 142/142/142
f 144/144/144 141/141/141 143/143/143
f 142/142/142 144/144/144 145/145/145
f 145/145/145 144/144/144 146/146/146
f 144/144/144 147/147/147 146/146/146
f 147/147/147 144/144/144 143/143/143
f 147/147/147 148/148/148 146/146/146
f 148/148/148 147/147/147 101/101/101
f 143/143/143 112/112/112 149/149/149
f 149/149/149 147/147/147 143/143/143
f 147/147/147 150/150/150 101/101/101
f 150/150/150 147/147/147 149/149/149
f 149/149/149 112/112/112 151/151/151
f 151/151/151 112/112/112 116/116/116
f 152/152/152 150/150/150 149/149/149
f 150/150/150 152/152/152 101/101/101
f 149/149/149 151/151/151 152/152/152
f 151/151/151 116/116/116 153/153/153
f 152/152/152 151/151/151 153/153/153
f 152/152/152 154/154/154 101/101/101
f 153/153/153 154/154/154 152/152/152
f 101/101/101 154/154/154 102/102/102
f 102/102/102 154/154/154 155/155/155
f 153/153/153 155/155/155 154/154/154
f 102/102/102 155/155/155 109/109/109
f 116/116/116 156/156/156 153/153/153
f 156/156/156 116/116/116 109/109/109
f 156/156/156 155/155/155 153/153/153
f 109/109/109 155/155/155 156/156/156
