g fcbg_wasteland_001_factory_15
v -0.25127506 0.004234791 -0.7733418
v -0.43950486 9.606337 -0.31932783
v -0.65783525 0.0042345524 -0.47793758
v -0.1678766 9.606337 -0.51664805
v 0.25127482 0.0042345524 -0.77334166
v -4.053116E-06 9.606336 5.8821843E-16
v 0.16787577 9.606337 -0.51664805
v -0.54326046 9.606337 -1.1920929E-07
v 0.657835 0.004234791 -0.47793734
v -0.8131279 0.0042345524 -1.7881393E-07
v 0.4395039 9.606337 -0.3193277
v 0.8131273 0.0042352676 1.1920929E-07
v -0.43950498 9.606337 0.3193276
v -0.65783536 0.0042345524 0.4779654
v 0.54325247 9.606337 5.9604645E-08
v 0.65783477 0.004234791 0.4779656
v -0.16787672 9.606337 0.51667607
v -0.2512753 0.004234791 0.77334154
v 0.43950367 9.606337 0.31932777
v 0.2512746 0.0042345524 0.7733416
v 0.16787553 9.606337 0.5166762
vt 0.9686438 0.23961633
vt 0.9840342 0.44882223
vt 0.9809855 0.23923618
vt 0.9770392 0.44722
vt 0.95629513 0.24029112
vt 0.9746326 0.46202788
vt 0.9704522 0.4476337
vt 0.9900352 0.45003185
vt 0.9439589 0.24125445
vt 0.99221146 0.23915082
vt 0.96376216 0.4500734
vt 0.93166006 0.24251074
vt 0.9840342 0.44882223
vt 0.9809855 0.23923618
vt 0.9585594 0.45426354
vt 0.9439589 0.24125445
vt 0.9770392 0.44722
vt 0.9686438 0.23961633
vt 0.96376216 0.4500734
vt 0.95629513 0.24029112
vt 0.9704522 0.4476337
vn -0.30890012 0.028081827 -0.95067984
vn -0.61188173 0.65418535 -0.44456962
vn -0.80869853 0.028081607 -0.5875526
vn -0.23372428 0.6541847 -0.7193159
vn 0.30887645 0.028107913 -0.95068675
vn -0 1 0
vn 0.23371205 0.65418667 -0.71931803
vn -0.7563368 0.6541823 0
vn 0.80868894 0.028108057 -0.5875645
vn -0.9996057 0.028081719 0
vn 0.61188984 0.65418017 -0.44456613
vn 0.9996057 0.028081719 0
vn -0.6118835 0.65418726 0.44456446
vn -0.8087016 0.028081713 0.5875484
vn 0.75632584 0.6541952 0
vn 0.8086952 0.028108273 0.58755606
vn -0.23372428 0.6541847 0.7193159
vn -0.30889818 0.02808165 0.9506804
vn 0.6118772 0.6541943 0.44456276
vn 0.30887452 0.028107738 0.9506873
vn 0.23371314 0.6541897 0.71931493
g fcbg_wasteland_001_factory_15_0
f 3/3/3 2/2/2 1/1/1
f 2/2/2 4/4/4 1/1/1
f 1/1/1 4/4/4 5/5/5
f 2/2/2 6/6/6 4/4/4
f 4/4/4 6/6/6 7/7/7
f 4/4/4 7/7/7 5/5/5
f 8/8/8 6/6/6 2/2/2
f 8/8/8 2/2/2 3/3/3
f 5/5/5 7/7/7 9/9/9
f 10/10/10 8/8/8 3/3/3
f 7/7/7 11/11/11 9/9/9
f 7/7/7 6/6/6 11/11/11
f 9/9/9 11/11/11 12/12/12
f 13/13/13 8/8/8 10/10/10
f 13/13/13 6/6/6 8/8/8
f 14/14/14 13/13/13 10/10/10
f 11/11/11 15/15/15 12/12/12
f 11/11/11 6/6/6 15/15/15
f 12/12/12 15/15/15 16/16/16
f 17/17/17 13/13/13 14/14/14
f 17/17/17 6/6/6 13/13/13
f 18/18/18 17/17/17 14/14/14
f 15/15/15 19/19/19 16/16/16
f 15/15/15 6/6/6 19/19/19
f 16/16/16 19/19/19 20/20/20
f 21/21/21 17/17/17 18/18/18
f 21/21/21 6/6/6 17/17/17
f 20/20/20 21/21/21 18/18/18
f 19/19/19 21/21/21 20/20/20
f 19/19/19 6/6/6 21/21/21
