g fcbg_iceland_001_house_17
v -2.6578803 5.4741526 3.3105078
v 4.5397162 0.0105166435 3.3105078
v -2.6578803 0.0105166435 3.3105078
v 4.5397162 5.4741526 3.3105078
v 4.5397162 0.0105166435 -1.349735
v 4.5397162 5.4741526 -1.349735
v 2.5789366 5.4741526 -3.310515
v 2.5789366 0.0105166435 -3.310515
v 2.5789366 5.4741526 -3.310515
v -2.6578803 0.0105166435 -3.310515
v 2.5789366 0.0105166435 -3.310515
v -2.6578803 5.4741526 -3.310515
v -2.6578803 0.0105166435 3.3105078
v -2.6578803 5.4741526 3.3105078
v -4.5397143 5.946127 -0.5619631
v -4.3259788 5.946127 -1.3596339
v -4.3259788 5.946127 0.2357062
v -3.7420459 5.946127 -1.943569
v -3.7420459 5.946127 0.81964135
v -2.944375 5.946127 -2.157303
v -2.9443758 5.946127 1.0333755
v -2.598781 5.946127 1.0333755
v -2.598781 5.946127 -2.157303
v -2.598781 5.3642073 1.0333755
v -2.598781 5.3641224 -2.1573017
v -2.944375 0.011066437 -2.1573048
v -2.598781 0.011066437 -2.1573048
v -2.598781 5.3641224 -2.1573017
v -2.944375 5.946127 -2.157303
v -2.598781 5.946127 -2.157303
v -3.7420459 5.946127 -1.943569
v -3.7420459 0.011066437 -1.943569
v -4.3259788 5.946127 -1.3596339
v -4.3259788 0.011066437 -1.3596339
v -4.5397143 5.946127 -0.5619631
v -4.5397143 0.011066437 -0.5619631
v -4.3259788 5.946127 0.2357062
v -4.3259788 0.011066437 0.2357062
v -3.7420459 5.946127 0.81964135
v -3.7420459 0.011066437 0.81964135
v -2.9443758 5.946127 1.0333755
v -2.9443758 0.011066437 1.0333755
v -2.598781 0.011066437 1.0333755
v -2.598781 5.3642073 1.0333755
v -2.598781 5.946127 1.0333755
v 2.5789366 5.4741526 -3.310515
v -2.2939134 5.4741526 -2.9556782
v -2.6578803 5.4741526 -3.310515
v 2.3991973 5.4741526 -2.9556782
v 4.5397162 5.4741526 -1.349735
v -2.2939134 5.4741526 2.9374304
v -2.6578803 5.4741526 3.3105078
v 4.1564016 5.4741526 -1.2128907
v 4.5397162 5.4741526 3.3105078
v 4.1564016 5.4741526 2.9374304
v -2.2939134 5.2519245 -2.9556782
v -2.2939134 5.2519245 2.9374304
v 2.3991973 5.2519245 -2.9556782
v 4.1564016 5.2519245 -1.2128907
v 4.1564016 5.2519245 2.9374304
vt 0.692702 0.78752714
vt 0.77372867 0.724774
vt 0.692702 0.724774
vt 0.77372867 0.78752714
vt 0.826191 0.724774
vt 0.826191 0.78752714
vt 0.8574075 0.78752714
vt 0.8574075 0.724774
vt 0.692702 0.78752714
vt 0.77372867 0.724774
vt 0.692702 0.724774
vt 0.77372867 0.78752714
vt 0.8574075 0.724774
vt 0.8574075 0.78752714
vt 0.9319509 0.7091383
vt 0.94227684 0.70638925
vt 0.921634 0.7063556
vt 0.94984496 0.6988459
vt 0.91409093 0.6987877
vt 0.9526273 0.68852955
vt 0.91134244 0.6884617
vt 0.9113496 0.68398976
vt 0.9526347 0.6840576
vt 0.911362 0.6764601
vt 0.9526473 0.6765274
vt 0.96177006 0.6601313
vt 0.95729804 0.6601313
vt 0.95739275 0.7247692
vt 0.96186477 0.7328665
vt 0.95739275 0.7328665
vt 0.97106516 0.7328665
vt 0.97106516 0.6601313
vt 0.9848323 0.7328665
vt 0.9848323 0.6601313
vt 0.9985995 0.7328665
vt 0.9985995 0.6601313
vt 0.9848323 0.7328665
vt 0.9848323 0.6601313
vt 0.97106516 0.7328665
vt 0.97106516 0.6601313
vt 0.96186477 0.7328665
vt 0.96177006 0.6601313
vt 0.95729804 0.6601313
vt 0.95739275 0.7247701
vt 0.95739275 0.7328665
vt 0.9212207 0.7860527
vt 0.8652467 0.7818794
vt 0.8613644 0.7860527
vt 0.91859156 0.7818794
vt 0.942193 0.76473016
vt 0.8652467 0.7152481
vt 0.8613644 0.7112686
vt 0.938104 0.76264375
vt 0.942193 0.7112686
vt 0.938104 0.7152481
vt 0.8673274 0.78015405
vt 0.8673274 0.7172913
vt 0.9173897 0.78015405
vt 0.93613404 0.7615635
vt 0.93613404 0.7172913
vn -0.57735026 0.5773502 0.57735026
vn 0.70710677 0 0.70710677
vn -0.70710677 0 0.70710677
vn 0.57735026 0.5773502 0.57735026
vn 0.9238795 0 -0.3826834
vn 0.71728355 0.6302625 -0.29710856
vn 0.2971086 0.6302625 -0.71728355
vn 0.38268343 0 -0.9238795
vn 0.2971086 0.6302625 -0.71728355
vn -0.70710677 0 -0.70710677
vn 0.38268343 0 -0.9238795
vn -0.57735026 0.5773502 -0.57735026
vn -0.70710677 0 0.70710677
vn -0.57735026 0.5773502 0.57735026
vn -0.75716245 0.6532266 0
vn -0.65572196 0.6532269 -0.37858063
vn -0.65572184 0.65322703 0.37858072
vn -0.37858173 0.6532265 -0.6557217
vn -0.37858155 0.6532265 0.65572184
vn -0.09583902 0.6788743 -0.7279729
vn -0.095839046 0.67887455 0.72797275
vn 0.57735026 0.57735026 0.57735026
vn 0.57735014 0.57734966 -0.57735103
vn 0.44721964 0 0.89442414
vn 0.4472095 0 -0.89442927
vn -0.13052484 0 -0.99144506
vn -0 0 -1
vn 0.4472095 0 -0.89442927
vn -0.09583902 0.6788743 -0.7279729
vn 0.57735014 0.57734966 -0.57735103
vn -0.37858173 0.6532265 -0.6557217
vn -0.50000066 0 -0.8660251
vn -0.65572196 0.6532269 -0.37858063
vn -0.8660258 0 -0.4999994
vn -0.75716245 0.6532266 0
vn -1 0 0
vn -0.65572184 0.65322703 0.37858072
vn -0.8660257 0 0.49999952
vn -0.37858155 0.6532265 0.65572184
vn -0.50000036 0 0.86602527
vn -0.095839046 0.67887455 0.72797275
vn -0.13052568 0 0.99144495
vn -0 0 1
vn 0.44721964 0 0.89442414
vn 0.57735026 0.57735026 0.57735026
vn 0.2971086 0.6302625 -0.71728355
vn 0.30151135 0.90453404 0.30151135
vn -0.57735026 0.5773502 -0.57735026
vn -0.22660494 0.80364615 0.5502755
vn 0.71728355 0.6302625 -0.29710856
vn 0.30151135 0.90453404 -0.30151135
vn -0.57735026 0.5773502 0.57735026
vn -0.5479876 0.80472684 0.22830728
vn 0.57735026 0.5773502 0.57735026
vn -0.30151135 0.90453404 -0.30151135
vn 0.57735026 0.57735026 0.5773503
vn 0.57735026 0.57735026 -0.57735026
vn -0.2955254 0.6306028 0.7176383
vn -0.71692455 0.62992275 0.29869127
vn -0.57735026 0.57735026 -0.57735026
g fcbg_iceland_001_house_17_0
f 3/3/3 2/2/2 1/1/1
f 2/2/2 4/4/4 1/1/1
f 2/2/2 5/5/5 4/4/4
f 5/5/5 6/6/6 4/4/4
f 7/7/7 6/6/6 5/5/5
f 8/8/8 7/7/7 5/5/5
f 11/11/11 10/10/10 9/9/9
f 10/10/10 12/12/12 9/9/9
f 10/10/10 13/13/13 12/12/12
f 13/13/13 14/14/14 12/12/12
f 17/17/17 16/16/16 15/15/15
f 18/18/18 16/16/16 17/17/17
f 19/19/19 18/18/18 17/17/17
f 20/20/20 18/18/18 19/19/19
f 21/21/21 20/20/20 19/19/19
f 21/21/21 22/22/22 20/20/20
f 22/22/22 23/23/23 20/20/20
f 22/22/22 24/24/24 23/23/23
f 24/24/24 25/25/25 23/23/23
f 28/28/28 27/27/27 26/26/26
f 29/29/29 28/28/28 26/26/26
f 30/30/30 28/28/28 29/29/29
f 31/31/31 29/29/29 26/26/26
f 32/32/32 31/31/31 26/26/26
f 33/33/33 31/31/31 32/32/32
f 34/34/34 33/33/33 32/32/32
f 35/35/35 33/33/33 34/34/34
f 36/36/36 35/35/35 34/34/34
f 37/37/37 35/35/35 36/36/36
f 38/38/38 37/37/37 36/36/36
f 39/39/39 37/37/37 38/38/38
f 40/40/40 39/39/39 38/38/38
f 41/41/41 39/39/39 40/40/40
f 42/42/42 41/41/41 40/40/40
f 42/42/42 43/43/43 41/41/41
f 43/43/43 44/44/44 41/41/41
f 44/44/44 45/45/45 41/41/41
f 48/48/48 47/47/47 46/46/46
f 47/47/47 49/49/49 46/46/46
f 46/46/46 49/49/49 50/50/50
f 51/51/51 47/47/47 48/48/48
f 52/52/52 51/51/51 48/48/48
f 49/49/49 53/53/53 50/50/50
f 50/50/50 53/53/53 54/54/54
f 54/54/54 55/55/55 52/52/52
f 55/55/55 51/51/51 52/52/52
f 53/53/53 55/55/55 54/54/54
f 47/47/47 56/56/56 49/49/49
f 51/51/51 57/57/57 47/47/47
f 57/57/57 56/56/56 47/47/47
f 56/56/56 58/58/58 49/49/49
f 49/49/49 58/58/58 53/53/53
f 56/56/56 57/57/57 58/58/58
f 58/58/58 59/59/59 53/53/53
f 53/53/53 59/59/59 55/55/55
f 58/58/58 57/57/57 59/59/59
f 60/60/60 57/57/57 51/51/51
f 55/55/55 60/60/60 51/51/51
f 59/59/59 60/60/60 55/55/55
f 59/59/59 57/57/57 60/60/60
