g fcbg_cityforest_factory_0018
v -1.6466063 0.76685584 -0.6048782
v 1.6010716 0.7668562 -0.6048782
v 1.6010711 1.1945697 -0.42771342
v -1.6466064 1.1945693 -0.42771342
v 1.6010711 1.3717344 5.1076682E-08
v -1.6466064 1.3717341 5.1076682E-08
v 1.6010711 1.1945696 0.42771348
v -1.6466064 1.1945692 0.42771348
v 1.6010716 0.7668562 0.6048782
v -1.6466063 0.76685584 0.6048782
v 1.6010716 0.33914274 0.42771348
v -1.6466064 0.33914244 0.42771348
v -1.6466063 0.00039482117 0.42771348
v 1.6010716 0.000395298 0.42771348
v 1.6010716 0.33914274 -0.42771342
v 1.6010716 0.000395298 -0.42771342
v 1.6010716 -0.00040608644 -5.621485E-17
v 1.6010716 0.28027648 -3.9028003E-17
v 1.8278778 0.81719303 -6.1513448E-18
v 1.6010716 0.000395298 0.42771348
v 1.6010716 0.33914274 0.42771348
v 1.6010716 0.7668562 -0.6048782
v 1.6010716 0.7668562 0.6048782
v 1.6010711 1.1945697 -0.42771342
v 1.6010711 1.1945696 0.42771348
v 1.6010711 1.3717344 5.1076682E-08
v -1.6466063 0.76685584 0.6048782
v -1.8278807 0.8171927 -6.151366E-18
v -1.6466064 1.1945692 0.42771348
v -1.6466064 1.3717341 5.1076682E-08
v -1.6466064 1.1945693 -0.42771342
v -1.6466063 0.76685584 -0.6048782
v -1.6466064 0.33914244 0.42771348
v -1.6466064 0.33914244 -0.42771342
v -1.6466064 0.28027624 -3.9028016E-17
v -1.6466063 0.00039482117 0.42771348
v -1.6466063 0.00039482117 -0.42771342
vt 0.6963295 0.8482017
vt 0.6963296 0.99339235
vt 0.7167649 0.99339235
vt 0.7167646 0.8482017
vt 0.73719996 0.99339235
vt 0.73719984 0.8482017
vt 0.7167649 0.99339235
vt 0.7167646 0.8482017
vt 0.6963296 0.99339235
vt 0.6963295 0.8482017
vt 0.6758944 0.99339235
vt 0.67589426 0.8482017
vt 0.65973437 0.8482017
vt 0.6597345 0.99339235
vt 0.64923716 0.9544568
vt 0.64923716 0.94063437
vt 0.63178456 0.9406018
vt 0.6322479 0.95287913
vt 0.6318369 0.9737803
vt 0.61433184 0.94063437
vt 0.61433184 0.9544568
vt 0.65646625 0.9719096
vt 0.6071025 0.9719096
vt 0.64923716 0.9893622
vt 0.61433184 0.9893622
vt 0.63178456 0.9965913
vt 0.65646625 0.97190946
vt 0.6318212 0.97384965
vt 0.64923716 0.9893622
vt 0.63178456 0.9965913
vt 0.61433184 0.9893622
vt 0.6071025 0.97190946
vt 0.64923716 0.9544568
vt 0.61433184 0.9544568
vt 0.63178456 0.9518968
vt 0.64923716 0.94063437
vt 0.61433184 0.94063437
vn -0.7168028 0.1863373 -0.67191684
vn 0.6868593 0.18131346 -0.7038108
vn 0.50546026 0.60861105 -0.6116392
vn -0.5300131 0.5983242 -0.60091114
vn 0.5021832 0.8647613 0
vn -0.52731705 0.8496687 0
vn 0.5054603 0.608611 0.6116393
vn -0.53001314 0.5983241 0.6009112
vn 0.5126439 -0.002732989 0.85859704
vn -0.53590137 -0.0023227944 0.84427744
vn 0.68551224 -0.2305469 0.6905947
vn -0.7000445 -0.21217376 0.68185043
vn -0.70710665 0 0.7071068
vn 0.7075281 0 0.70668525
vn 0.9793426 -0.15817544 -0.12597068
vn 1 0 0
vn 1 0 0
vn 0.9833346 -0.18180521 0
vn 0.99988973 0.01485456 0
vn 0.7075281 0 0.70668525
vn 0.68551224 -0.2305469 0.6905947
vn 0.6868593 0.18131346 -0.7038108
vn 0.5126439 -0.002732989 0.85859704
vn 0.50546026 0.60861105 -0.6116392
vn 0.5054603 0.608611 0.6116393
vn 0.5021832 0.8647613 0
vn -0.53590137 -0.0023227944 0.84427744
vn -0.9999218 0.012506906 0
vn -0.53001314 0.5983241 0.6009112
vn -0.52731705 0.8496687 0
vn -0.5300131 0.5983242 -0.60091114
vn -0.7168028 0.1863373 -0.67191684
vn -0.7000445 -0.21217376 0.68185043
vn -0.9864786 -0.12817939 -0.102127604
vn -0.9889448 -0.14828357 0
vn -0.70710665 0 0.7071068
vn -1 0 0
g fcbg_cityforest_factory_0018_0
f 3/3/3 2/2/2 1/1/1
f 4/4/4 3/3/3 1/1/1
f 5/5/5 3/3/3 4/4/4
f 6/6/6 5/5/5 4/4/4
f 7/7/7 5/5/5 6/6/6
f 8/8/8 7/7/7 6/6/6
f 9/9/9 7/7/7 8/8/8
f 10/10/10 9/9/9 8/8/8
f 11/11/11 9/9/9 10/10/10
f 12/12/12 11/11/11 10/10/10
f 12/12/12 13/13/13 11/11/11
f 13/13/13 14/14/14 11/11/11
f 17/17/17 16/16/16 15/15/15
f 18/18/18 17/17/17 15/15/15
f 15/15/15 19/19/19 18/18/18
f 20/20/20 17/17/17 18/18/18
f 21/21/21 20/20/20 18/18/18
f 18/18/18 19/19/19 21/21/21
f 22/22/22 19/19/19 15/15/15
f 21/21/21 19/19/19 23/23/23
f 24/24/24 19/19/19 22/22/22
f 23/23/23 19/19/19 25/25/25
f 26/26/26 19/19/19 24/24/24
f 25/25/25 19/19/19 26/26/26
f 29/29/29 28/28/28 27/27/27
f 30/30/30 28/28/28 29/29/29
f 31/31/31 28/28/28 30/30/30
f 32/32/32 28/28/28 31/31/31
f 27/27/27 28/28/28 33/33/33
f 34/34/34 28/28/28 32/32/32
f 33/33/33 28/28/28 35/35/35
f 35/35/35 28/28/28 34/34/34
f 35/35/35 36/36/36 33/33/33
f 34/34/34 37/37/37 35/35/35
f 37/37/37 36/36/36 35/35/35
