g fcbg_common_crystal_11
v 6.021593 -0.00017929077 -2.7505126
v 7.3204145 -0.00017929077 1.335144E-05
v 8.453277 4.30688 1.335144E-05
v 5.9483137 3.5433464 -2.1718364
v 3.348165 -0.00017929077 -3.6828208
v 7.638795 5.3975105 -0.7202854
v 8.008586 5.309267 1.335144E-05
v 9.235786 7.2181206 1.335144E-05
v 6.60135 5.6453114 1.335144E-05
v 4.4001884 3.9114408 1.335144E-05
v -0.34330845 -0.00091171265 -5.2881813
v 3.7221603 5.6377516 -2.8987303
v 6.979472 7.6787014 1.335144E-05
v 6.66815 8.875124 -1.3975039
v 9.937958 11.401646 1.335144E-05
v 6.4142942 9.861889 1.335144E-05
v 3.2746153 7.173073 1.335144E-05
v 1.3483677 5.927129 -2.0425944
v 4.9881983 11.125614 -1.6218157
v 5.922589 10.308817 1.335144E-05
v 8.084411 15.076265 1.335144E-05
v 5.062249 13.158272 1.335144E-05
v 2.3431945 10.159983 -2.4851637
v 0.8719349 8.669903 -3.6858678
v 2.3359437 14.022005 -3.3475475
v -0.20454025 6.8669567 -4.4306955
v 4.8257494 18.164186 -2.037735
v 6.0503654 16.988976 1.335144E-05
v 7.3959312 22.957706 1.335144E-05
v 6.785783 26.112156 -0.7268038
v 8.9019785 30.503643 1.335144E-05
v 4.5666485 23.854568 1.335144E-05
v 2.3662968 17.576561 -1.5595284
v 2.1593018 19.122875 1.335144E-05
v -0.09230709 15.746347 1.335144E-05
v -0.3351326 15.059952 -1.3614426
v -3.7452507 25.208927 1.335144E-05
v 0.4203024 12.844906 -2.639822
v -1.8481989 14.959635 -2.6233149
v -4.044154 16.380331 1.335144E-05
v -3.2934637 12.981628 1.335144E-05
v -0.5083418 10.034405 -4.3519783
v -2.3598442 10.939407 -2.8485146
v -3.2253141 10.069502 1.335144E-05
v -2.0372992 6.777672 -2.5524268
v -3.6412716 8.932938 1.335144E-05
v -6.9046764 11.688517 1.335144E-05
v -5.058612 8.456697 -2.4786458
v -8.841955 12.658274 1.335144E-05
v -2.4400272 -0.00091171265 -3.7072344
v -4.909238 5.9090786 1.335144E-05
v -4.895893 3.4125624 -2.0953941
v -6.017416 4.1223316 -1.6075459
v -6.8388405 6.2604733 1.335144E-05
v -9.37435 6.0925865 1.335144E-05
v -7.504835 3.645051 1.335144E-05
v -5.3721714 2.4488983 1.335144E-05
v -6.041175 -0.00091171265 -2.0800824
v -7.1406364 1.394908 1.335144E-05
v -7.71727 0.7669029 -1.4599066
v -9.937946 2.0584345 1.335144E-05
v -9.42013 -0.00091171265 1.335144E-05
v 6.021593 -0.00017929077 2.7505398
v 8.453277 4.30688 1.335144E-05
v 7.3204145 -0.00017929077 1.335144E-05
v 5.9483137 3.5433464 2.1718636
v 3.348165 -0.00017929077 3.6828089
v 7.638795 5.3975105 0.720274
v 8.008586 5.309267 1.335144E-05
v 9.235786 7.2181206 1.335144E-05
v 6.60135 5.6453114 1.335144E-05
v 4.4001884 3.9114408 1.335144E-05
v -0.34330845 -0.00091171265 5.28817
v 3.7221603 5.6377516 2.8987188
v 6.979472 7.6787014 1.335144E-05
v 6.66815 8.875124 1.3974915
v 9.937958 11.401646 1.335144E-05
v 6.4142942 9.861889 1.335144E-05
v 3.2746153 7.173073 1.335144E-05
v 1.3483677 5.927129 2.0425825
v 4.9881983 11.125614 1.6218424
v 5.922589 10.308817 1.335144E-05
v 8.084411 15.076265 1.335144E-05
v 5.062249 13.158272 1.335144E-05
v 2.3431945 10.159983 2.4851522
v 0.8719349 8.669903 3.6858559
v 2.3359437 14.022005 3.347536
v -0.20454025 6.8669567 4.430723
v 4.8257494 18.164186 2.0377235
v 6.0503654 16.988976 1.335144E-05
v 7.3959312 22.957706 1.335144E-05
v 6.785783 26.112156 0.7267914
v 8.9019785 30.503643 1.335144E-05
v 4.5666485 23.854568 1.335144E-05
v 2.3662968 17.576561 1.559555
v 2.1593018 19.122875 1.335144E-05
v -0.09230709 15.746347 1.335144E-05
v -0.3351326 15.059952 1.3614311
v -3.7452507 25.208927 1.335144E-05
v 0.4203024 12.844906 2.6398106
v -1.8481989 14.959635 2.6233416
v -4.044154 16.380331 1.335144E-05
v -3.2934637 12.981628 1.335144E-05
v -0.5083418 10.034405 4.352005
v -2.3598442 10.939407 2.848503
v -3.2253141 10.069502 1.335144E-05
v -2.0372992 6.777672 2.552454
v -3.6412716 8.932938 1.335144E-05
v -6.9046764 11.688517 1.335144E-05
v -5.058612 8.456697 2.4786339
v -8.841955 12.658274 1.335144E-05
v -2.4400272 -0.00091171265 3.707223
v -4.909238 5.9090786 1.335144E-05
v -4.895893 3.4125624 2.0953827
v -6.017416 4.1223316 1.6075344
v -6.8388405 6.2604733 1.335144E-05
v -9.37435 6.0925865 1.335144E-05
v -7.504835 3.645051 1.335144E-05
v -5.3721714 2.4488983 1.335144E-05
v -6.041175 -0.00091171265 2.0800714
v -7.1406364 1.394908 1.335144E-05
v -7.71727 0.7669029 1.4599333
v -9.937946 2.0584345 1.335144E-05
v -9.42013 -0.00091171265 1.335144E-05
vt 0.09321044 0.10324327
vt 0.0699113 0.083917975
vt 0.038014747 0.114590645
vt 0.06838522 0.12817426
vt 0.112973906 0.123852886
vt 0.03976747 0.13062203
vt 0.034056008 0.12438172
vt 0.014685389 0.13417281
vt 0.043000944 0.14329906
vt 0.06974509 0.15420826
vt 0.14533886 0.1442963
vt 0.08807314 0.18386857
vt 0.038558695 0.18302242
vt 0.04378665 0.20021726
vt 0.0025674184 0.21337779
vt 0.040658943 0.21707967
vt 0.08033698 0.21277341
vt 0.109815985 0.20225707
vt 0.07402113 0.25498986
vt 0.057974644 0.24237329
vt 0.031154947 0.2848617
vt 0.06611877 0.27863652
vt 0.10272954 0.24710262
vt 0.123172946 0.23231024
vt 0.10717179 0.28835204
vt 0.14047354 0.21254677
vt 0.0761516 0.32842293
vt 0.054574963 0.31382698
vt 0.03790898 0.3716971
vt 0.043016054 0.40404692
vt 0.016105698 0.4448884
vt 0.07146759 0.38883147
vt 0.10150565 0.32748616
vt 0.105978124 0.34913832
vt 0.13254096 0.32437354
vt 0.13657525 0.30867457
vt 0.20280102 0.3966583
vt 0.12832536 0.279528
vt 0.15373985 0.29929146
vt 0.19004844 0.31032154
vt 0.1843672 0.2806159
vt 0.13838841 0.2453499
vt 0.15931533 0.25734696
vt 0.18735892 0.25523162
vt 0.16960503 0.21426927
vt 0.19178605 0.24587873
vt 0.23220447 0.25754339
vt 0.20425154 0.22220185
vt 0.2531918 0.2600365
vt 0.1705116 0.1414859
vt 0.22168812 0.19165006
vt 0.20893554 0.16259412
vt 0.22279114 0.16620535
vt 0.24042414 0.18761578
vt 0.26330018 0.17712966
vt 0.2422373 0.15520549
vt 0.2221263 0.14293642
vt 0.2012296 0.11803565
vt 0.22839682 0.12370179
vt 0.2188475 0.11023906
vt 0.24593917 0.10007024
vt 0.22761112 0.088496216
vt 0.09321044 0.10324327
vt 0.038014747 0.114590645
vt 0.0699113 0.083917975
vt 0.06838522 0.12817426
vt 0.112973906 0.123852886
vt 0.03976747 0.13062203
vt 0.034056008 0.12438172
vt 0.014685389 0.13417281
vt 0.043000944 0.14329906
vt 0.06974509 0.15420826
vt 0.14533886 0.1442963
vt 0.08807314 0.18386857
vt 0.038558695 0.18302242
vt 0.04378665 0.20021726
vt 0.0025674184 0.21337779
vt 0.040658943 0.21707967
vt 0.08033698 0.21277341
vt 0.109815985 0.20225707
vt 0.07402113 0.25498986
vt 0.057974644 0.24237329
vt 0.031154947 0.2848617
vt 0.06611877 0.27863652
vt 0.10272954 0.24710262
vt 0.123172946 0.23231024
vt 0.10717179 0.28835204
vt 0.14047354 0.21254677
vt 0.0761516 0.32842293
vt 0.054574963 0.31382698
vt 0.03790898 0.3716971
vt 0.043016054 0.40404692
vt 0.016105698 0.4448884
vt 0.07146759 0.38883147
vt 0.10150565 0.32748616
vt 0.105978124 0.34913832
vt 0.13254096 0.32437354
vt 0.13657525 0.30867457
vt 0.20280102 0.3966583
vt 0.12832536 0.279528
vt 0.15373985 0.29929146
vt 0.19004844 0.31032154
vt 0.1843672 0.2806159
vt 0.13838841 0.2453499
vt 0.15931533 0.25734696
vt 0.18735892 0.25523162
vt 0.16960503 0.21426927
vt 0.19178605 0.24587873
vt 0.23220447 0.25754339
vt 0.20425154 0.22220185
vt 0.2531918 0.2600365
vt 0.1705116 0.1414859
vt 0.22168812 0.19165006
vt 0.20893554 0.16259412
vt 0.22279114 0.16620535
vt 0.24042414 0.18761578
vt 0.26330018 0.17712966
vt 0.2422373 0.15520549
vt 0.2221263 0.14293642
vt 0.2012296 0.11803565
vt 0.22839682 0.12370179
vt 0.2188475 0.11023906
vt 0.24593917 0.10007024
vt 0.22761112 0.088496216
vn 0.5865447 0.04646969 -0.80858266
vn 0.9671248 -0.25430214 -0
vn 0.9968318 0.07382214 -0.0296096
vn 0.025819063 0.5114616 -0.85891813
vn 0.20361012 0.53881407 -0.8174487
vn 0.3091125 0.38837552 -0.8681094
vn 0.9987855 -0.049264014 -0.00075850147
vn 0.6996754 0.71446085 -0
vn -0.48410916 0.87485874 -0.016141001
vn 0.746752 0.663854 -0.040734187
vn 0.01800406 0.19690824 -0.9802566
vn 0.3794474 0.24184442 -0.8930459
vn 0.82099444 -0.57091475 -0.0049494957
vn 0.16062766 0.22621441 -0.9607423
vn 0.79160243 0.6110366 -0
vn -0.5075542 0.86118245 -0.027450353
vn 0.7094764 0.7047292 -0
vn 0.49471855 0.24965942 -0.8324204
vn 0.43024486 0.062099576 -0.90057373
vn 0.84053195 -0.53965473 -0.047736827
vn 0.6432034 0.7654488 -0.019430282
vn 0.7016463 0.7125254 -0
vn 0.5924059 -0.117645204 -0.7970037
vn 0.63148093 -0.05903274 -0.77314097
vn 0.14695144 0.11875832 -0.98198867
vn 0.072708964 -0.031680286 -0.99684995
vn 0.3677249 0.036700845 -0.9292101
vn 0.9710948 -0.23869443 -0
vn 0.99458367 -0.10393822 -0
vn -0.083590865 0.21449196 -0.9731422
vn 0.39701802 0.9178109 -0
vn -0.8511264 0.5249607 -0
vn -0.5095079 0.4411267 -0.73878884
vn -0.8741444 0.485666 -0
vn 0.14298542 0.9897248 -0
vn 0.16453516 0.58961153 -0.7907505
vn -0.18518579 0.9823148 -0.027637538
vn -0.038654685 0.35906935 -0.9325101
vn -0.21644568 0.28873432 -0.93262196
vn -0.99794483 -0.05903274 -0.02492469
vn -0.999838 -0.01800297 -0
vn -0.023024678 0.1558795 -0.9875077
vn -0.8025701 0.040608406 -0.5951741
vn -0.99989855 -0.014096558 -0.002044813
vn -0.3649305 0.28287315 -0.88702226
vn -0.18323195 0.9823148 -0.03851855
vn 0.4809938 0.876724 -0
vn -0.3629768 0.26138186 -0.8943866
vn -0.7107439 0.7029289 -0.02709411
vn -0.6384553 0.054284573 -0.7677422
vn -0.97965854 0.20067176 -0
vn -0.30045688 0.13438833 -0.9442804
vn -0.3258556 0.0034872293 -0.9454131
vn 0.021908524 0.9997599 -0
vn -0.89635 0.4411267 -0.04431539
vn -0.68687975 -0.72677106 -0
vn -0.9901298 -0.13327515 -0.043366842
vn -0.27505815 0.63064027 -0.7256968
vn -0.04842341 0.99794483 -0.04196734
vn -0.23012197 0.34734678 -0.9090622
vn -0.75958765 0.6501777 -0.017191557
vn -0.94248664 -0.33424407 -0
vn 0.5865447 0.04646969 0.80858266
vn 0.9968318 0.07382214 -0.0296096
vn 0.9671248 -0.25430214 -0
vn 0.025819063 0.5114616 0.85891813
vn 0.20361012 0.53881407 0.8174487
vn 0.3091125 0.38837552 0.8681094
vn 0.9987855 -0.049264014 -0.00075850147
vn 0.6996754 0.71446085 -0
vn -0.48410916 0.87485874 -0.016141001
vn 0.746752 0.663854 -0.040734187
vn 0.01800406 0.19690824 0.9802566
vn 0.3794474 0.24184442 0.8930459
vn 0.82099444 -0.57091475 -0.0049494957
vn 0.16062766 0.22621441 0.9607423
vn 0.79160243 0.6110366 -0
vn -0.5075542 0.86118245 -0.027450353
vn 0.7094764 0.7047292 -0
vn 0.49471855 0.24965942 0.8324204
vn 0.43024486 0.062099576 0.90057373
vn 0.84053195 -0.53965473 -0.047736827
vn 0.6432034 0.7654488 -0.019430282
vn 0.7016463 0.7125254 -0
vn 0.5924059 -0.117645204 0.7970037
vn 0.63148093 -0.05903274 0.77314097
vn 0.14695144 0.11875832 0.98198867
vn 0.072708964 -0.031680286 0.99684995
vn 0.3677249 0.036700845 0.9292101
vn 0.9710948 -0.23869443 -0
vn 0.99458367 -0.10393822 -0
vn -0.083590865 0.21449196 0.9731422
vn 0.39701802 0.9178109 -0
vn -0.8511264 0.5249607 -0
vn -0.5095079 0.4411267 0.73878884
vn -0.8741444 0.485666 -0
vn 0.14298542 0.9897248 -0
vn 0.16453516 0.58961153 0.7907505
vn -0.18518579 0.9823148 -0.027637538
vn -0.038654685 0.35906935 0.9325101
vn -0.21644568 0.28873432 0.93262196
vn -0.99794483 -0.05903274 -0.02492469
vn -0.999838 -0.01800297 -0
vn -0.023024678 0.1558795 0.9875077
vn -0.8025701 0.040608406 0.5951741
vn -0.99989855 -0.014096558 -0.002044813
vn -0.3649305 0.28287315 0.88702226
vn -0.18323195 0.9823148 -0.03851855
vn 0.4809938 0.876724 -0
vn -0.3629768 0.26138186 0.8943866
vn -0.7107439 0.7029289 -0.02709411
vn -0.6384553 0.054284573 0.7677422
vn -0.97965854 0.20067176 -0
vn -0.30045688 0.13438833 0.9442804
vn -0.3258556 0.0034872293 0.9454131
vn 0.021908524 0.9997599 -0
vn -0.89635 0.4411267 -0.04431539
vn -0.68687975 -0.72677106 -0
vn -0.9901298 -0.13327515 -0.043366842
vn -0.27505815 0.63064027 0.7256968
vn -0.04842341 0.99794483 -0.04196734
vn -0.23012197 0.34734678 0.9090622
vn -0.75958765 0.6501777 -0.017191557
vn -0.94248664 -0.33424407 -0
g fcbg_common_crystal_11_0
f 3/3/3 2/2/2 1/1/1
f 4/4/4 3/3/3 1/1/1
f 1/1/1 5/5/5 4/4/4
f 6/6/6 3/3/3 4/4/4
f 6/6/6 7/7/7 3/3/3
f 8/8/8 7/7/7 6/6/6
f 6/6/6 9/9/9 8/8/8
f 4/4/4 9/9/9 6/6/6
f 4/4/4 10/10/10 9/9/9
f 5/5/5 10/10/10 4/4/4
f 10/10/10 5/5/5 11/11/11
f 12/12/12 10/10/10 11/11/11
f 13/13/13 10/10/10 12/12/12
f 14/14/14 13/13/13 12/12/12
f 15/15/15 13/13/13 14/14/14
f 14/14/14 16/16/16 15/15/15
f 17/17/17 16/16/16 14/14/14
f 12/12/12 17/17/17 14/14/14
f 18/18/18 17/17/17 12/12/12
f 11/11/11 18/18/18 12/12/12
f 17/17/17 18/18/18 19/19/19
f 20/20/20 17/17/17 19/19/19
f 21/21/21 20/20/20 19/19/19
f 21/21/21 19/19/19 22/22/22
f 18/18/18 23/23/23 19/19/19
f 19/19/19 23/23/23 22/22/22
f 18/18/18 24/24/24 23/23/23
f 25/25/25 22/22/22 23/23/23
f 23/23/23 24/24/24 25/25/25
f 18/18/18 11/11/11 26/26/26
f 26/26/26 24/24/24 18/18/18
f 27/27/27 22/22/22 25/25/25
f 27/27/27 28/28/28 22/22/22
f 27/27/27 29/29/29 28/28/28
f 27/27/27 30/30/30 29/29/29
f 30/30/30 31/31/31 29/29/29
f 32/32/32 31/31/31 30/30/30
f 30/30/30 27/27/27 33/33/33
f 32/32/32 30/30/30 33/33/33
f 27/27/27 25/25/25 33/33/33
f 34/34/34 32/32/32 33/33/33
f 35/35/35 34/34/34 33/33/33
f 35/35/35 33/33/33 36/36/36
f 36/36/36 33/33/33 25/25/25
f 37/37/37 35/35/35 36/36/36
f 24/24/24 38/38/38 25/25/25
f 36/36/36 25/25/25 38/38/38
f 39/39/39 37/37/37 36/36/36
f 39/39/39 36/36/36 38/38/38
f 40/40/40 37/37/37 39/39/39
f 41/41/41 40/40/40 39/39/39
f 42/42/42 38/38/38 24/24/24
f 42/42/42 39/39/39 38/38/38
f 26/26/26 42/42/42 24/24/24
f 43/43/43 41/41/41 39/39/39
f 42/42/42 43/43/43 39/39/39
f 43/43/43 42/42/42 26/26/26
f 44/44/44 41/41/41 43/43/43
f 45/45/45 43/43/43 26/26/26
f 44/44/44 43/43/43 45/45/45
f 46/46/46 44/44/44 45/45/45
f 26/26/26 11/11/11 45/45/45
f 47/47/47 46/46/46 45/45/45
f 11/11/11 48/48/48 45/45/45
f 48/48/48 47/47/47 45/45/45
f 49/49/49 47/47/47 48/48/48
f 11/11/11 50/50/50 48/48/48
f 49/49/49 48/48/48 51/51/51
f 48/48/48 50/50/50 51/51/51
f 51/51/51 50/50/50 52/52/52
f 51/51/51 52/52/52 53/53/53
f 54/54/54 51/51/51 53/53/53
f 55/55/55 54/54/54 53/53/53
f 53/53/53 56/56/56 55/55/55
f 53/53/53 57/57/57 56/56/56
f 52/52/52 57/57/57 53/53/53
f 52/52/52 50/50/50 57/57/57
f 50/50/50 58/58/58 57/57/57
f 58/58/58 59/59/59 57/57/57
f 59/59/59 58/58/58 60/60/60
f 60/60/60 61/61/61 59/59/59
f 58/58/58 62/62/62 60/60/60
f 62/62/62 61/61/61 60/60/60
f 65/65/65 64/64/64 63/63/63
f 64/64/64 66/66/66 63/63/63
f 67/67/67 63/63/63 66/66/66
f 64/64/64 68/68/68 66/66/66
f 69/69/69 68/68/68 64/64/64
f 69/69/69 70/70/70 68/68/68
f 71/71/71 68/68/68 70/70/70
f 71/71/71 66/66/66 68/68/68
f 72/72/72 66/66/66 71/71/71
f 72/72/72 67/67/67 66/66/66
f 67/67/67 72/72/72 73/73/73
f 72/72/72 74/74/74 73/73/73
f 72/72/72 75/75/75 74/74/74
f 75/75/75 76/76/76 74/74/74
f 75/75/75 77/77/77 76/76/76
f 78/78/78 76/76/76 77/77/77
f 78/78/78 79/79/79 76/76/76
f 79/79/79 74/74/74 76/76/76
f 79/79/79 80/80/80 74/74/74
f 80/80/80 73/73/73 74/74/74
f 80/80/80 79/79/79 81/81/81
f 79/79/79 82/82/82 81/81/81
f 82/82/82 83/83/83 81/81/81
f 81/81/81 83/83/83 84/84/84
f 85/85/85 80/80/80 81/81/81
f 85/85/85 81/81/81 84/84/84
f 86/86/86 80/80/80 85/85/85
f 84/84/84 87/87/87 85/85/85
f 86/86/86 85/85/85 87/87/87
f 73/73/73 80/80/80 88/88/88
f 86/86/86 88/88/88 80/80/80
f 84/84/84 89/89/89 87/87/87
f 90/90/90 89/89/89 84/84/84
f 91/91/91 89/89/89 90/90/90
f 92/92/92 89/89/89 91/91/91
f 93/93/93 92/92/92 91/91/91
f 93/93/93 94/94/94 92/92/92
f 89/89/89 92/92/92 95/95/95
f 92/92/92 94/94/94 95/95/95
f 87/87/87 89/89/89 95/95/95
f 94/94/94 96/96/96 95/95/95
f 96/96/96 97/97/97 95/95/95
f 95/95/95 97/97/97 98/98/98
f 95/95/95 98/98/98 87/87/87
f 97/97/97 99/99/99 98/98/98
f 100/100/100 86/86/86 87/87/87
f 87/87/87 98/98/98 100/100/100
f 99/99/99 101/101/101 98/98/98
f 98/98/98 101/101/101 100/100/100
f 99/99/99 102/102/102 101/101/101
f 102/102/102 103/103/103 101/101/101
f 100/100/100 104/104/104 86/86/86
f 101/101/101 104/104/104 100/100/100
f 104/104/104 88/88/88 86/86/86
f 103/103/103 105/105/105 101/101/101
f 105/105/105 104/104/104 101/101/101
f 104/104/104 105/105/105 88/88/88
f 103/103/103 106/106/106 105/105/105
f 105/105/105 107/107/107 88/88/88
f 105/105/105 106/106/106 107/107/107
f 106/106/106 108/108/108 107/107/107
f 73/73/73 88/88/88 107/107/107
f 108/108/108 109/109/109 107/107/107
f 110/110/110 73/73/73 107/107/107
f 109/109/109 110/110/110 107/107/107
f 109/109/109 111/111/111 110/110/110
f 112/112/112 73/73/73 110/110/110
f 110/110/110 111/111/111 113/113/113
f 112/112/112 110/110/110 113/113/113
f 112/112/112 113/113/113 114/114/114
f 115/115/115 114/114/114 113/113/113
f 116/116/116 115/115/115 113/113/113
f 116/116/116 117/117/117 115/115/115
f 118/118/118 115/115/115 117/117/117
f 119/119/119 115/115/115 118/118/118
f 119/119/119 114/114/114 115/115/115
f 112/112/112 114/114/114 119/119/119
f 120/120/120 112/112/112 119/119/119
f 121/121/121 120/120/120 119/119/119
f 120/120/120 121/121/121 122/122/122
f 123/123/123 122/122/122 121/121/121
f 124/124/124 120/120/120 122/122/122
f 123/123/123 124/124/124 122/122/122
