g fcbg_arkcity_building_22
v -3.2322168 2.874714 2.2630491
v -0.7376864 2.874714 -2.5456262
v -0.7376864 2.874714 2.2630491
v -3.2322168 2.874714 -2.5456262
v -3.2322168 -2.3841858E-06 2.2630491
v -0.7376864 -2.3841858E-06 2.2630491
v -0.7376864 2.874714 2.2630491
v -3.2322168 5.4836273E-06 -2.5456262
v -0.7376864 2.874714 -2.5456262
v 2.9572 -2.3841858E-06 -2.5456262
v 2.9572 3.586585 -2.5456262
v -0.7376864 3.586585 -2.5456262
v 2.9572 3.8646393 1.1137867
v 2.9572 -2.3841858E-06 1.1137867
v 2.9572 3.8646393 -2.3724294
v 2.9572 3.8646393 -2.3724294
v -0.7376864 3.8646393 -2.3724294
v -0.7376864 3.8646393 1.1137867
v 2.9572 3.8646393 1.1137867
v -0.7376864 3.586585 -2.5456262
v -0.7376864 3.8646393 -2.3724294
v -0.7376864 2.874714 -2.5456262
v -0.7376864 2.874714 2.2630491
v -0.7376864 3.8646393 1.1137867
v -0.7376864 4.214427 2.545629
v -0.7376864 4.214427 1.3499169
v -0.7376864 -2.3841858E-06 2.5456214
v -0.7376864 -2.3841858E-06 2.2630491
v 2.9572 3.8646393 1.1137867
v -0.7376864 4.214427 1.3499169
v -0.7376864 3.8646393 1.1137867
v 3.2322216 4.214427 1.3499169
v 3.2322216 3.8646393 1.1137867
v -0.7376864 4.214427 2.545629
v 3.2322216 4.214427 2.545629
v 2.9572 -2.3841858E-06 1.1137867
v 3.2322216 -2.3841858E-06 1.1137867
v 2.9572 3.8646393 1.1137867
v 3.2322216 3.8646393 1.1137867
v 3.2322216 4.214427 2.545629
v 3.2322216 4.214427 1.3499169
v 3.2322216 -2.3841858E-06 2.5456214
v -0.7376864 -2.3841858E-06 2.5456214
v -0.7376864 4.214427 2.545629
v -0.20404029 5.0062885 0.4954672
v 2.070663 5.0062885 -0.5926614
v 2.070663 5.0062885 0.4954672
v -0.20404029 5.0062885 -0.5926614
v 2.070663 3.8504891 -0.5926614
v -0.20404029 3.8504891 -0.5926614
v -0.20404029 5.0062885 0.4954672
v -0.20404029 3.8504891 0.4954672
v -0.20404029 3.8504891 0.4954672
v -0.20404029 5.0062885 0.4954672
v 2.070663 5.0062885 0.4954672
v 2.070663 3.8504891 0.4954672
v 2.070663 3.8504891 0.4954672
v 2.070663 5.0062885 0.4954672
v 2.070663 5.0062885 -0.5926614
v 2.070663 3.8504891 -0.5926614
v -1.8953638 3.7104797 1.7308803
v -2.6143765 3.7104797 1.7308803
v -2.6143765 3.7104797 1.3784685
v -1.8953638 3.7104797 1.3784685
v -1.8953638 2.8556848 1.3784609
v -2.6143765 2.8556848 1.3784609
v -2.6143765 3.7104797 1.7308803
v -2.6143765 2.8556848 1.7308726
v -1.8953638 2.8556848 1.7308726
v -1.8953638 3.7104797 1.7308803
v -1.8953638 3.7104797 1.3784685
v -1.8953638 2.8556848 1.3784609
v -2.6143765 2.8556848 1.7308726
v -2.6143765 3.7104797 1.7308803
v -1.8953638 3.7104797 1.7308803
v -1.8953638 2.8556848 1.7308726
v -1.8953638 3.7104797 0.8408389
v -2.6143765 3.7104797 0.8408389
v -2.6143765 3.7104797 0.4884274
v -1.8953638 3.7104797 0.4884274
v -1.8953638 2.8556848 0.48841953
v -2.6143765 2.8556848 0.48841953
v -2.6143765 3.7104797 0.8408389
v -2.6143765 2.8556848 0.8408313
v -1.8953638 2.8556848 0.8408313
v -1.8953638 3.7104797 0.8408389
v -1.8953638 3.7104797 0.4884274
v -1.8953638 2.8556848 0.48841953
v -2.6143765 2.8556848 0.8408313
v -2.6143765 3.7104797 0.8408389
v -1.8953638 3.7104797 0.8408389
v -1.8953638 2.8556848 0.8408313
vt 0.15641199 0.23930256
vt 0.19101046 0.30708763
vt 0.19101046 0.23930256
vt 0.15641199 0.30708763
vt 0.116530396 0.23930256
vt 0.116530396 0.20471929
vt 0.15641199 0.20471929
vt 0.116530396 0.30708763
vt 0.15641199 0.34059304
vt 0.116530396 0.39183035
vt 0.16621919 0.39183035
vt 0.16621919 0.3406082
vt 0.17007528 0.44255146
vt 0.116530396 0.44255146
vt 0.17007528 0.394229
vt 0.17074326 0.39183035
vt 0.17074326 0.3406082
vt 0.21908091 0.3406082
vt 0.21908091 0.39183035
vt 0.41065532 0.8854543
vt 0.41329688 0.8896899
vt 0.41065532 0.8746148
vt 0.48386014 0.8746148
vt 0.46637112 0.8896899
vt 0.48817167 0.89501864
vt 0.46996912 0.89501864
vt 0.48817167 0.8308619
vt 0.48386014 0.8308619
vt 0.3894924 0.8636538
vt 0.33326042 0.8709864
vt 0.33326042 0.8636538
vt 0.39368248 0.8709864
vt 0.39368248 0.8636538
vt 0.33326042 0.88839954
vt 0.39368248 0.88839954
vt 0.3894924 0.80479544
vt 0.39368248 0.80479544
vt 0.3894924 0.8636538
vt 0.39368248 0.8636538
vt 0.41618136 0.8689521
vt 0.3972653 0.8689521
vt 0.41618136 0.80479544
vt 0.47572288 0.80479544
vt 0.47572288 0.8689521
vt 0.62270945 0.5771955
vt 0.59564096 0.63380706
vt 0.62270945 0.63380706
vt 0.59564096 0.5771955
vt 0.5668722 0.63380706
vt 0.5668722 0.5771955
vt 0.59564096 0.5501119
vt 0.5668722 0.5501119
vt 0.5668722 0.63380706
vt 0.59564096 0.63380706
vt 0.59564096 0.5771955
vt 0.5668722 0.5771955
vt 0.5668722 0.5501119
vt 0.59564096 0.5501119
vt 0.59564096 0.5771955
vt 0.5668722 0.5771955
vt 0.1564879 0.20178927
vt 0.1564879 0.17810625
vt 0.14493483 0.17810625
vt 0.14493483 0.20178927
vt 0.11645449 0.20178927
vt 0.11645449 0.17810625
vt 0.14493483 0.16634065
vt 0.11645449 0.16634065
vt 0.11645449 0.17810625
vt 0.14493483 0.17810625
vt 0.14493483 0.16634065
vt 0.11645449 0.16634065
vt 0.11645449 0.20178927
vt 0.14493483 0.20178927
vt 0.14493483 0.17810625
vt 0.11645449 0.17810625
vt 0.1564879 0.20178927
vt 0.1564879 0.17810625
vt 0.14493483 0.17810625
vt 0.14493483 0.20178927
vt 0.11645449 0.20178927
vt 0.11645449 0.17810625
vt 0.14493483 0.16634065
vt 0.11645449 0.16634065
vt 0.11645449 0.17810625
vt 0.14493483 0.17810625
vt 0.14493483 0.16634065
vt 0.11645449 0.16634065
vt 0.11645449 0.20178927
vt 0.14493483 0.20178927
vt 0.14493483 0.17810625
vt 0.11645449 0.17810625
vn -0.576849 0.576849 0.57835156
vn -0.30115247 0.30115247 -0.9047731
vn -0.9045341 0.30115247 0.3018696
vn -0.576849 0.576849 -0.57835156
vn -0.707608 0.00024926662 0.7066052
vn -0.707608 0.00024926662 0.7066052
vn -0.9045341 0.30115247 0.3018696
vn -0.707608 0.00024926662 -0.7066052
vn -0.30115247 0.30115247 -0.9047731
vn 0.70710945 0.00024926662 -0.7071041
vn 0.65039474 0.20820326 -0.73050535
vn -0.6508932 0.20820326 -0.73006123
vn 0.28174898 0.5973294 -0.75087625
vn 0.70710945 0.00024926662 -0.7071041
vn 0.6125849 0.6918539 -0.38220146
vn 0.6125849 0.6918539 -0.38220146
vn -0.61308336 0.6918539 -0.3814014
vn -0.8289145 0.4933523 -0.26363656
vn 0.28174898 0.5973294 -0.75087625
vn -0.6508932 0.20820326 -0.73006123
vn -0.61308336 0.6918539 -0.3814014
vn -0.30115247 0.30115247 -0.9047731
vn -0.9045341 0.30115247 0.3018696
vn -0.8289145 0.4933523 -0.26363656
vn -0.576849 0.576849 0.57835156
vn -0.61465883 0.69658005 -0.3700956
vn -0.707608 0.00024926662 0.7066052
vn -0.707608 0.00024926662 0.7066052
vn 0.28174898 0.5973294 -0.75087625
vn -0.61465883 0.69658005 -0.3700956
vn -0.8289145 0.4933523 -0.26363656
vn 0.6157357 0.69658005 -0.36830115
vn 0.6472439 0.22238195 -0.72912383
vn -0.576849 0.576849 0.57835156
vn 0.5779259 0.576849 0.5772754
vn 0.70710945 0.00024926662 -0.7071041
vn 0.70710945 0.00024926662 -0.7071041
vn 0.28174898 0.5973294 -0.75087625
vn 0.6472439 0.22238195 -0.72912383
vn 0.5779259 0.576849 0.5772754
vn 0.6157357 0.69658005 -0.36830115
vn 0.70710945 0.00024926662 0.7071041
vn -0.707608 0.00024926662 0.7066052
vn -0.576849 0.576849 0.57835156
vn -0.576849 0.576849 0.57835156
vn 0.5779259 0.576849 -0.5772754
vn 0.5779259 0.576849 0.5772754
vn -0.576849 0.576849 -0.57835156
vn 0.70710945 0.00024926662 -0.7071041
vn -0.707608 0.00024926662 -0.7066052
vn -0.576849 0.576849 0.57835156
vn -0.707608 0.00024926662 0.7066052
vn -0.707608 0.00024926662 0.7066052
vn -0.576849 0.576849 0.57835156
vn 0.5779259 0.576849 0.5772754
vn 0.70710945 0.00024926662 0.7071041
vn 0.70710945 0.00024926662 0.7071041
vn 0.5779259 0.576849 0.5772754
vn 0.5779259 0.576849 -0.5772754
vn 0.70710945 0.00024926662 -0.7071041
vn 0.5779259 0.576849 0.5772754
vn -0.576849 0.576849 0.57835156
vn -0.576849 0.576849 -0.57835156
vn 0.5779259 0.576849 -0.5772754
vn 0.70710945 0.00024926662 -0.7071041
vn -0.707608 0.00024926662 -0.7066052
vn -0.576849 0.576849 0.57835156
vn -0.707608 0.00024926662 0.7066052
vn 0.70710945 0.00024926662 0.7071041
vn 0.5779259 0.576849 0.5772754
vn 0.5779259 0.576849 -0.5772754
vn 0.70710945 0.00024926662 -0.7071041
vn -0.707608 0.00024926662 0.7066052
vn -0.576849 0.576849 0.57835156
vn 0.5779259 0.576849 0.5772754
vn 0.70710945 0.00024926662 0.7071041
vn 0.5779259 0.576849 0.5772754
vn -0.576849 0.576849 0.57835156
vn -0.576849 0.576849 -0.57835156
vn 0.5779259 0.576849 -0.5772754
vn 0.70710945 0.00024926662 -0.7071041
vn -0.707608 0.00024926662 -0.7066052
vn -0.576849 0.576849 0.57835156
vn -0.707608 0.00024926662 0.7066052
vn 0.70710945 0.00024926662 0.7071041
vn 0.5779259 0.576849 0.5772754
vn 0.5779259 0.576849 -0.5772754
vn 0.70710945 0.00024926662 -0.7071041
vn -0.707608 0.00024926662 0.7066052
vn -0.576849 0.576849 0.57835156
vn 0.5779259 0.576849 0.5772754
vn 0.70710945 0.00024926662 0.7071041
g fcbg_arkcity_building_22_0
f 3/3/3 2/2/2 1/1/1
f 2/2/2 4/4/4 1/1/1
f 1/1/1 4/4/4 5/5/5
f 1/1/1 5/5/5 6/6/6
f 7/7/7 1/1/1 6/6/6
f 4/4/4 8/8/8 5/5/5
f 4/4/4 9/9/9 8/8/8
f 8/8/8 9/9/9 10/10/10
f 9/9/9 11/11/11 10/10/10
f 12/12/12 11/11/11 9/9/9
f 11/11/11 13/13/13 10/10/10
f 13/13/13 14/14/14 10/10/10
f 11/11/11 15/15/15 13/13/13
f 11/11/11 12/12/12 16/16/16
f 12/12/12 17/17/17 16/16/16
f 17/17/17 18/18/18 16/16/16
f 18/18/18 19/19/19 16/16/16
f 22/22/22 21/21/21 20/20/20
f 21/21/21 22/22/22 23/23/23
f 24/24/24 21/21/21 23/23/23
f 24/24/24 23/23/23 25/25/25
f 24/24/24 25/25/25 26/26/26
f 23/23/23 27/27/27 25/25/25
f 28/28/28 27/27/27 23/23/23
f 31/31/31 30/30/30 29/29/29
f 30/30/30 32/32/32 29/29/29
f 32/32/32 33/33/33 29/29/29
f 30/30/30 34/34/34 32/32/32
f 34/34/34 35/35/35 32/32/32
f 38/38/38 37/37/37 36/36/36
f 39/39/39 37/37/37 38/38/38
f 39/39/39 40/40/40 37/37/37
f 41/41/41 40/40/40 39/39/39
f 40/40/40 42/42/42 37/37/37
f 42/42/42 40/40/40 43/43/43
f 40/40/40 44/44/44 43/43/43
f 47/47/47 46/46/46 45/45/45
f 46/46/46 48/48/48 45/45/45
f 48/48/48 46/46/46 49/49/49
f 50/50/50 48/48/48 49/49/49
f 51/51/51 48/48/48 50/50/50
f 52/52/52 51/51/51 50/50/50
f 55/55/55 54/54/54 53/53/53
f 56/56/56 55/55/55 53/53/53
f 59/59/59 58/58/58 57/57/57
f 60/60/60 59/59/59 57/57/57
f 63/63/63 62/62/62 61/61/61
f 64/64/64 63/63/63 61/61/61
f 63/63/63 64/64/64 65/65/65
f 66/66/66 63/63/63 65/65/65
f 67/67/67 63/63/63 66/66/66
f 68/68/68 67/67/67 66/66/66
f 71/71/71 70/70/70 69/69/69
f 72/72/72 71/71/71 69/69/69
f 75/75/75 74/74/74 73/73/73
f 76/76/76 75/75/75 73/73/73
f 79/79/79 78/78/78 77/77/77
f 80/80/80 79/79/79 77/77/77
f 79/79/79 80/80/80 81/81/81
f 82/82/82 79/79/79 81/81/81
f 83/83/83 79/79/79 82/82/82
f 84/84/84 83/83/83 82/82/82
f 87/87/87 86/86/86 85/85/85
f 88/88/88 87/87/87 85/85/85
f 91/91/91 90/90/90 89/89/89
f 92/92/92 91/91/91 89/89/89
