g fcbg_wasteland_003_roadsign_01
v -0.7059182 6.3816237 -0.12430806
v -0.70342803 6.3791337 -0.053222045
v -0.70342886 4.969793 -0.053222254
v -0.70591897 4.9722834 -0.12430823
v -0.70342803 6.3791337 -0.053222045
v 0.7059125 6.3791327 -0.053222083
v 0.7059125 4.969793 -0.053222276
v -0.70342886 4.969793 -0.053222254
v 0.7059125 6.3791327 -0.053222083
v 0.7034223 6.381623 -0.12430806
v 0.7034223 4.9722834 -0.12430826
v 0.7059125 4.969793 -0.053222276
v 0.7034223 6.381623 -0.12430806
v -0.7059182 6.3816237 -0.12430806
v -0.70591897 4.9722834 -0.12430823
v 0.7034223 4.9722834 -0.12430826
v 0.7034223 6.381623 -0.12430806
v 0.7059125 6.3791327 -0.053222083
v -0.70342803 6.3791337 -0.053222045
v -0.7059182 6.3816237 -0.12430806
v 0.053921454 2.9642894 -0.004293859
v 0.09791767 1.9631284 0.09005587
v 0.097917624 2.9642894 0.090056255
v 0.053921495 1.963128 -0.004294187
v 0.09791769 1.933123E-07 0.090055704
v -0.049786143 2.9642894 -0.013367057
v 0.053921532 -3.5079913E-07 -0.004294358
v -0.04978609 1.963128 -0.013367422
v -0.10949761 2.9642894 0.0719097
v -0.049786072 -3.5188074E-07 -0.013367571
v -0.10949756 1.9631284 0.0719094
v -0.06550146 2.9642904 0.16625966
v -0.10949754 1.9114907E-07 0.07190923
v -0.06550142 1.9631284 0.16625942
v -0.06550139 2.0239648E-07 0.16625929
v 0.053921357 6.0376506 -0.004293211
v 0.09791755 5.389136 0.09005668
v 0.09791748 6.037652 0.09005688
v 0.053921394 5.389136 -0.0042933375
v -0.04978623 6.0376506 -0.013366424
v 0.09791755 4.994798 0.0900564
v -0.049786195 5.389136 -0.01336655
v -0.1094977 6.037652 0.07191034
v 0.053921428 4.994798 -0.00429371
v 0.097917624 2.9642894 0.090056255
v 0.053921454 2.9642894 -0.004293859
v -0.04978616 4.994798 -0.013366848
v -0.049786143 2.9642894 -0.013367057
v -0.10949768 5.389136 0.071910135
v -0.06550153 6.037652 0.16626042
v -0.065501526 5.389137 0.1662601
v -0.10949764 4.994798 0.07190998
v -0.10949761 2.9642894 0.0719097
v -0.065501496 4.9947996 0.16625994
v -0.06550146 2.9642904 0.16625966
v 0.09791755 4.994798 0.0900564
v 0.097917624 2.9642894 0.090056255
v 0.03617332 2.9642894 0.17097364
v 0.03617329 4.994798 0.1709738
v 0.09791755 5.389136 0.09005668
v -0.065501496 4.9947996 0.16625994
v -0.06550146 2.9642904 0.16625966
v -0.065501526 5.389137 0.1662601
v 0.036173247 5.389137 0.17097396
v 0.09791748 6.037652 0.09005688
v -0.06550153 6.037652 0.16626042
v 0.03617324 6.037652 0.17097427
v -0.1669428 6.2080183 0.06809967
v 0.05813004 6.2080183 0.2197993
v -0.098684564 6.2080183 0.21447995
v 0.15485369 6.2080183 0.09625314
v 0.08659536 6.2080183 -0.050127104
v -0.07430284 6.2080183 -0.06420405
v 0.15485369 6.2080183 0.09625314
v 0.15485369 6.0437317 0.09625316
v 0.05813005 6.0437317 0.21979927
v 0.05813004 6.2080183 0.2197993
v -0.098684564 6.2080183 0.21447995
v -0.09868451 6.0437317 0.21448
v -0.098684564 6.2080183 0.21447995
v -0.09868451 6.0437317 0.21448
v -0.16694276 6.0437317 0.06809959
v -0.1669428 6.2080183 0.06809967
v -0.07430284 6.043728 -0.06420402
v -0.07430284 6.2080183 -0.06420405
v 0.08659536 6.043728 -0.050127134
v 0.08659536 6.2080183 -0.050127104
v 0.15485369 6.0437317 0.09625316
v 0.15485369 6.2080183 0.09625314
v 0.09791769 1.933123E-07 0.090055704
v 0.03617339 2.029584E-07 0.17097308
v 0.036173355 1.9631284 0.17097321
v 0.09791767 1.9631284 0.09005587
v -0.06550139 2.0239648E-07 0.16625929
v 0.097917624 2.9642894 0.090056255
v -0.06550142 1.9631284 0.16625942
v 0.03617332 2.9642894 0.17097364
v -0.06550146 2.9642904 0.16625966
vt 0.06254393 0.060151055
vt 0.06532434 0.06293114
vt 0.06532434 0.0013640171
vt 0.06254393 0.0041193548
vt 0.1465131 0.53883886
vt 0.13148765 0.55386436
vt 0.11646217 0.53883886
vt 0.13148765 0.52381337
vt 0.003600176 0.06293114
vt 0.006479063 0.06015106
vt 0.0064790607 0.0041193585
vt 0.0036001732 0.0013640171
vt 0.006479063 0.06015106
vt 0.06254393 0.060151055
vt 0.06254393 0.0041193548
vt 0.0064790607 0.0041193585
vt 0.006479063 0.06015106
vt 0.003600176 0.06293114
vt 0.06532434 0.06293114
vt 0.06254393 0.060151055
vt 0.012496678 0.89714867
vt 0.008576421 0.8152119
vt 0.008576421 0.89714867
vt 0.012496678 0.8152119
vt 0.008576421 0.75115144
vt 0.016416887 0.89714867
vt 0.012496678 0.75115144
vt 0.016416887 0.8152119
vt 0.020337196 0.89714867
vt 0.016416887 0.75115144
vt 0.020337196 0.8152119
vt 0.024257205 0.89714867
vt 0.020337196 0.75115144
vt 0.024257205 0.8152119
vt 0.024257205 0.75115144
vt 0.012496678 0.9933697
vt 0.008576421 0.9593549
vt 0.008576421 0.9933697
vt 0.012496678 0.9593549
vt 0.016416887 0.9933697
vt 0.008576421 0.8843206
vt 0.016416887 0.9593549
vt 0.020337196 0.9933697
vt 0.012496678 0.88432056
vt 0.008576421 0.80047333
vt 0.012496678 0.80047333
vt 0.016416887 0.88432056
vt 0.016416887 0.80047333
vt 0.020337196 0.9593549
vt 0.024257205 0.9933697
vt 0.024257205 0.9593549
vt 0.020337196 0.88432056
vt 0.020337196 0.80047333
vt 0.024257205 0.88432056
vt 0.024257205 0.80047333
vt 0.008576421 0.8843206
vt 0.008576421 0.80047333
vt 0.0056364853 0.80047333
vt 0.0056363926 0.8843206
vt 0.008576421 0.9593549
vt 0.0026963651 0.88432056
vt 0.0026965502 0.80047333
vt 0.0026963658 0.9593549
vt 0.005636393 0.9593549
vt 0.008576421 0.9933697
vt 0.0026963651 0.99336976
vt 0.0056363926 0.9933697
vt 0.094888374 0.75930864
vt 0.08857072 0.7628047
vt 0.09273875 0.7630288
vt 0.08629511 0.75930566
vt 0.08844466 0.75558555
vt 0.09274129 0.75558686
vt 0.08414824 0.7555851
vt 0.08414824 0.7512147
vt 0.079974316 0.7512143
vt 0.07997408 0.7555848
vt 0.075799905 0.7555842
vt 0.0758004 0.7512137
vt 0.10133477 0.75558704
vt 0.10133477 0.7512166
vt 0.09703814 0.75121653
vt 0.09703814 0.755587
vt 0.09274172 0.7512163
vt 0.09274129 0.75558686
vt 0.08844509 0.75121504
vt 0.08844466 0.75558555
vt 0.08414824 0.7512147
vt 0.08414824 0.7555851
vt 0.008576421 0.75115144
vt 0.0056363926 0.75115144
vt 0.005636392 0.8152119
vt 0.008576421 0.8152119
vt 0.002696365 0.75115144
vt 0.008576421 0.89714867
vt 0.0026963651 0.8152119
vt 0.0056363926 0.89714867
vt 0.0026963647 0.89714867
vn -0.7044196 -0.7071032 -0.061628304
vn -0.7044196 -0.7071032 -0.061628304
vn -0.70441955 -0.70710313 -0.061628986
vn -0.7044196 -0.7071032 -0.061628304
vn -0.08715738 0 0.9961946
vn -0.08715734 0 0.9961946
vn -0.0871574 0 0.9961946
vn -0.08715737 0 0.9961946
vn 0.70441955 0.70710313 0.061628643
vn 0.7044196 0.7071032 0.061628304
vn 0.7044196 0.7071032 0.061628304
vn 0.7044196 0.7071032 0.061628304
vn 0.087157354 0 -0.9961946
vn 0.08715462 0 -0.99619484
vn 0.08715462 0 -0.99619484
vn 0.08715462 0 -0.99619484
vn -0.7044196 0.7071032 -0.061628304
vn -0.7044196 0.7071032 -0.061628304
vn -0.70441955 0.70710313 -0.061628643
vn -0.7044196 0.7071032 -0.061628304
vn 0.5735763 0 -0.8191522
vn 0.9942022 0 0.107527174
vn 0.9942021 0 0.10752724
vn 0.5735763 0 -0.81915206
vn 0.9942022 0 0.10752615
vn -0.42261842 0 -0.90630776
vn 0.57357556 0 -0.81915265
vn -0.42261824 0 -0.90630776
vn -0.9961947 0 -0.08715564
vn -0.4226174 0 -0.9063082
vn -0.9961947 0 -0.08715585
vn -0.5566905 0 0.83072
vn -0.9961946 0 -0.08715686
vn -0.55669034 0 0.83072007
vn -0.55669016 0 0.83072025
vn 0.5735784 0 -0.8191506
vn 0.9942021 0 0.10752734
vn 0.99420184 0 0.107529975
vn 0.57357633 0 -0.81915206
vn -0.42262045 0 -0.9063068
vn 0.9942022 0 0.10752718
vn -0.4226182 0 -0.90630776
vn -0.99619496 0 -0.08715335
vn 0.5735762 0 -0.8191522
vn 0.9942021 0 0.10752724
vn 0.5735763 0 -0.8191522
vn -0.4226184 0 -0.90630776
vn -0.42261842 0 -0.90630776
vn -0.9961947 0 -0.08715586
vn -0.55669034 0 0.8307202
vn -0.55669034 0 0.8307202
vn -0.9961947 0 -0.08715577
vn -0.9961947 0 -0.08715564
vn -0.55669045 0 0.83072
vn -0.5566905 0 0.83072
vn 0.9942022 0 0.10752718
vn 0.9942021 0 0.10752724
vn 0.4226179 0 0.906308
vn 0.42261797 0 0.9063079
vn 0.9942021 0 0.10752734
vn -0.55669045 0 0.83072
vn -0.5566905 0 0.83072
vn -0.55669034 0 0.8307202
vn 0.42261806 0 0.9063079
vn 0.99420184 0 0.107529975
vn -0.55669034 0 0.8307202
vn 0.42261797 0 0.9063079
vn -0.78939056 0.60999423 -0.06906247
vn 0.33227566 0.6179323 0.71256745
vn -0.43863502 0.6061909 0.6634243
vn 0.7901617 0.60619104 0.09042697
vn 0.4545054 0.6099945 -0.6491007
vn -0.33488497 0.6099942 -0.7181637
vn 0.7901617 0.60619104 0.09042697
vn 0.99351573 0 0.11369442
vn 0.42261833 0 0.90630776
vn 0.33227566 0.6179323 0.71256745
vn -0.43863502 0.6061909 0.6634243
vn -0.55152047 0 0.8341613
vn -0.43863502 0.6061909 0.6634243
vn -0.55152047 0 0.8341613
vn -0.99619436 0 -0.087160066
vn -0.78939056 0.60999423 -0.06906247
vn -0.42261407 0 -0.9063097
vn -0.33488497 0.6099942 -0.7181637
vn 0.57357305 0 -0.8191545
vn 0.4545054 0.6099945 -0.6491007
vn 0.99351573 0 0.11369442
vn 0.7901617 0.60619104 0.09042697
vn 0.9942022 0 0.10752615
vn 0.42261827 0 0.90630776
vn 0.42261812 0 0.9063079
vn 0.9942022 0 0.107527174
vn -0.55669016 0 0.83072025
vn 0.9942021 0 0.10752724
vn -0.55669034 0 0.83072007
vn 0.4226179 0 0.906308
vn -0.5566905 0 0.83072
g fcbg_wasteland_003_roadsign_01_0
f 3/3/3 2/2/2 1/1/1
f 4/4/4 3/3/3 1/1/1
f 7/7/7 6/6/6 5/5/5
f 8/8/8 7/7/7 5/5/5
f 11/11/11 10/10/10 9/9/9
f 12/12/12 11/11/11 9/9/9
f 15/15/15 14/14/14 13/13/13
f 16/16/16 15/15/15 13/13/13
f 19/19/19 18/18/18 17/17/17
f 20/20/20 19/19/19 17/17/17
f 23/23/23 22/22/22 21/21/21
f 22/22/22 24/24/24 21/21/21
f 24/24/24 22/22/22 25/25/25
f 21/21/21 24/24/24 26/26/26
f 27/27/27 24/24/24 25/25/25
f 24/24/24 28/28/28 26/26/26
f 28/28/28 24/24/24 27/27/27
f 26/26/26 28/28/28 29/29/29
f 30/30/30 28/28/28 27/27/27
f 28/28/28 31/31/31 29/29/29
f 31/31/31 28/28/28 30/30/30
f 29/29/29 31/31/31 32/32/32
f 33/33/33 31/31/31 30/30/30
f 31/31/31 34/34/34 32/32/32
f 34/34/34 31/31/31 33/33/33
f 35/35/35 34/34/34 33/33/33
f 38/38/38 37/37/37 36/36/36
f 37/37/37 39/39/39 36/36/36
f 36/36/36 39/39/39 40/40/40
f 37/37/37 41/41/41 39/39/39
f 39/39/39 42/42/42 40/40/40
f 40/40/40 42/42/42 43/43/43
f 41/41/41 44/44/44 39/39/39
f 39/39/39 44/44/44 42/42/42
f 41/41/41 45/45/45 44/44/44
f 45/45/45 46/46/46 44/44/44
f 44/44/44 46/46/46 47/47/47
f 44/44/44 47/47/47 42/42/42
f 46/46/46 48/48/48 47/47/47
f 42/42/42 49/49/49 43/43/43
f 42/42/42 47/47/47 49/49/49
f 50/50/50 43/43/43 49/49/49
f 51/51/51 50/50/50 49/49/49
f 47/47/47 48/48/48 52/52/52
f 47/47/47 52/52/52 49/49/49
f 49/49/49 52/52/52 51/51/51
f 48/48/48 53/53/53 52/52/52
f 52/52/52 54/54/54 51/51/51
f 52/52/52 53/53/53 54/54/54
f 53/53/53 55/55/55 54/54/54
f 58/58/58 57/57/57 56/56/56
f 59/59/59 58/58/58 56/56/56
f 59/59/59 56/56/56 60/60/60
f 58/58/58 59/59/59 61/61/61
f 62/62/62 58/58/58 61/61/61
f 61/61/61 59/59/59 63/63/63
f 64/64/64 59/59/59 60/60/60
f 59/59/59 64/64/64 63/63/63
f 64/64/64 60/60/60 65/65/65
f 63/63/63 64/64/64 66/66/66
f 67/67/67 64/64/64 65/65/65
f 64/64/64 67/67/67 66/66/66
f 70/70/70 69/69/69 68/68/68
f 69/69/69 71/71/71 68/68/68
f 68/68/68 71/71/71 72/72/72
f 73/73/73 68/68/68 72/72/72
f 76/76/76 75/75/75 74/74/74
f 77/77/77 76/76/76 74/74/74
f 76/76/76 77/77/77 78/78/78
f 79/79/79 76/76/76 78/78/78
f 82/82/82 81/81/81 80/80/80
f 83/83/83 82/82/82 80/80/80
f 84/84/84 82/82/82 83/83/83
f 85/85/85 84/84/84 83/83/83
f 86/86/86 84/84/84 85/85/85
f 87/87/87 86/86/86 85/85/85
f 88/88/88 86/86/86 87/87/87
f 89/89/89 88/88/88 87/87/87
f 92/92/92 91/91/91 90/90/90
f 93/93/93 92/92/92 90/90/90
f 91/91/91 92/92/92 94/94/94
f 92/92/92 93/93/93 95/95/95
f 92/92/92 96/96/96 94/94/94
f 97/97/97 92/92/92 95/95/95
f 96/96/96 92/92/92 98/98/98
f 92/92/92 97/97/97 98/98/98
