g fcbg_cityforest_003_car_03
v -0.59223175 0.43666506 -0.6186838
v -0.53834534 0.43666506 -0.7548361
v -0.53321075 0.5217757 -0.7468996
v -0.5852585 0.5217757 -0.6187392
v -0.49534988 0.5217757 -0.6187392
v -0.47130585 0.5217757 -0.73364925
v -0.53834534 0.43666506 -0.7548361
v -0.4580841 0.43666506 -0.73770046
v -0.4580841 0.43666506 -0.73770046
v -0.4819641 0.43666506 -0.6186838
v -0.4819641 0.43666506 -0.6186838
v -0.4580841 0.43666506 -0.73770046
v -0.53834534 0.43666506 -0.7548361
v -0.59223175 0.43666506 -0.6186838
v -0.5671692 0.45659018 -0.61869717
v -0.50852585 0.45659018 -0.61869717
v -0.5634575 0.5018506 -0.61872584
v -0.49534988 0.5217757 -0.6187392
v -0.5852585 0.5217757 -0.6187392
v -0.5156441 0.5018506 -0.61872584
v -0.50852585 0.45659018 -0.61869717
v -0.59386444 0.44629908 -0.5655489
v -0.5085602 0.44629908 -0.5655489
v -0.5671692 0.45659018 -0.61869717
v -0.58847046 0.51214075 -0.5655928
v -0.5634575 0.5018506 -0.61872584
v -0.5634575 0.5018506 -0.61872584
v -0.51891327 0.51214075 -0.5655928
v -0.58847046 0.51214075 -0.5655928
v -0.5156441 0.5018506 -0.61872584
v -0.5085602 0.44629908 -0.5655489
v -0.50852585 0.45659018 -0.61869717
v -0.59223175 0.4366727 0.61868393
v -0.53321075 0.5217824 0.7468996
v -0.53834534 0.4366727 0.7548362
v -0.5852585 0.5217824 0.6187391
v -0.49534988 0.5217824 0.6187391
v -0.47130585 0.5217824 0.73364925
v -0.53834534 0.4366727 0.7548362
v -0.4580841 0.4366727 0.7377006
v -0.4580841 0.4366727 0.7377006
v -0.4819641 0.4366727 0.61868393
v -0.4819641 0.4366727 0.61868393
v -0.53834534 0.4366727 0.7548362
v -0.4580841 0.4366727 0.7377006
v -0.59223175 0.4366727 0.61868393
v -0.5671692 0.45659685 0.61869717
v -0.50852585 0.45659685 0.61869717
v -0.5634575 0.50185823 0.6187258
v -0.49534988 0.5217824 0.6187391
v -0.5852585 0.5217824 0.6187391
v -0.5156441 0.50185823 0.6187258
v -0.50852585 0.45659685 0.61869717
v -0.5085602 0.4463067 0.565549
v -0.59386444 0.4463067 0.565549
v -0.5671692 0.45659685 0.61869717
v -0.58847046 0.5121484 0.56559277
v -0.5634575 0.50185823 0.6187258
v -0.5634575 0.50185823 0.6187258
v -0.58847046 0.5121484 0.56559277
v -0.51891327 0.5121484 0.56559277
v -0.5156441 0.50185823 0.6187258
v -0.5085602 0.4463067 0.565549
v -0.50852585 0.45659685 0.61869717
v -1.2647095 0.019774914 0.0010677387
v -1.2647095 0.019773006 -0.56923336
v -1.3699493 0.05763483 -0.40551046
v -1.1008987 -0.0026249886 0.0010677387
v -1.41922 0.057635784 0.0010677387
v -1.3699493 0.057635784 0.40764198
v -1.2647095 0.019774914 0.5713651
v -1.1008987 -0.002626896 -0.5692333
v -1.1008987 -0.0026249886 0.5713688
v -0.67928696 -0.002626896 -0.5692333
v -0.67928696 -0.0026249886 0.571365
v -0.67928696 -0.0026249886 0.0010677387
v 1.1441345 -0.002626896 -0.56923324
v 1.1441345 -0.0026249886 0.5713651
v 1.1441307 -0.0026249886 0.001067858
v 1.3477936 0.018983364 -0.5692333
v 1.3477936 0.018985271 0.5713651
v 1.3477898 0.018985271 0.001067858
v 1.4427834 0.17280817 -0.40550664
v 1.4427834 0.17280912 0.40764198
v 1.4427795 0.17280912 0.0010677387
v -1.2647095 0.019773006 -0.56923336
v -1.3935165 0.3562417 -0.40551046
v -1.3699493 0.05763483 -0.40551046
v -1.41922 0.057635784 0.0010677387
v -1.283844 0.3221984 -0.5692334
v -1.100666 0.46644735 -0.56923354
v -1.1008987 -0.002626896 -0.5692333
v -0.6793823 0.52842474 -0.5692335
v -0.67928696 -0.002626896 -0.5692333
v 1.1441345 -0.002626896 -0.56923324
v -1.2559814 0.3747878 -0.5692335
v 1.0537872 0.5156913 -0.5692335
v 1.3477936 0.018983364 -0.5692333
v 1.2756386 0.47635794 -0.56923354
v 1.4427834 0.17280817 -0.40550664
v 1.395977 0.5187211 -0.4055067
v 1.4427795 0.17280912 0.0010677387
v -1.3648415 0.40627146 -0.40551051
v -1.1006393 0.5342736 -0.40551057
v -1.4427872 0.35624266 0.0010677387
v -0.70246506 0.5905061 -0.40551051
v -0.70246506 0.59050703 0.0010676195
v -1.4141121 0.4062724 0.0010677387
v -1.3935165 0.35624266 0.40764198
v -1.3699493 0.057635784 0.40764198
v -1.2647095 0.019774914 0.5713651
v -0.10707855 0.8654418 -0.340615
v -1.1006355 0.53427076 0.0010673811
v -1.3648415 0.4062724 0.40764198
v -1.1006355 0.53427076 0.40764162
v -1.2559814 0.3747897 0.5713688
v -1.2838478 0.3222003 0.5713688
v -1.100666 0.46644926 0.5713686
v -1.1008987 -0.0026249886 0.5713688
v -0.6793823 0.52842665 0.5713687
v -0.67928696 -0.0026249886 0.571365
v 1.1441345 -0.0026249886 0.5713651
v -0.70246506 0.59050703 0.40764186
v -0.10707855 0.8654418 0.34274623
v 1.0537872 0.5156932 0.5713649
v 1.3477936 0.018985271 0.5713651
v -0.10707855 0.8654437 0.0010676195
v 1.2756386 0.47635984 0.5713649
v 1.4427834 0.17280912 0.40764198
v 1.3959808 0.51872206 0.40764186
v 1.395977 0.51872206 0.0010675003
v 1.1466522 0.57662153 0.40764186
v 0.68979645 0.8055415 0.46873054
v 1.1466522 0.5766206 -0.4055067
v -0.093574524 0.8055415 0.46873054
v 0.7031059 0.8654418 0.34274623
v 1.1466522 0.57662153 0.0010677387
v 0.7031059 0.8654437 0.0010676195
v 0.7031059 0.8654418 -0.34061494
v 0.68979645 0.8055396 -0.46659908
v -0.093574524 0.8055396 -0.4665992
vt 0.17969793 0.10379692
vt 0.17347974 0.103799485
vt 0.17366308 0.09955605
vt 0.17954594 0.099558674
vt 0.17758447 0.095546804
vt 0.17280442 0.09655418
vt 0.16967541 0.10101821
vt 0.16856176 0.09712633
vt 0.17160863 0.09244367
vt 0.17654568 0.09139588
vt 0.1704058 0.11053189
vt 0.16946775 0.10664906
vt 0.17262274 0.10608991
vt 0.17473978 0.11053189
vt 0.17375475 0.111314975
vt 0.17144996 0.111314975
vt 0.1736092 0.113093875
vt 0.17093176 0.11387696
vt 0.17446607 0.11387696
vt 0.1717301 0.113093875
vt 0.17695439 0.112730585
vt 0.18096542 0.110030256
vt 0.17999375 0.11523517
vt 0.1776222 0.10915359
vt 0.18106604 0.10495808
vt 0.17769158 0.10566547
vt 0.17695439 0.112730585
vt 0.18096542 0.110030256
vt 0.17999375 0.11523517
vt 0.1776222 0.10915359
vt 0.18106604 0.10495808
vt 0.17769158 0.10566547
vt 0.17969793 0.10379692
vt 0.17366308 0.09955605
vt 0.17347974 0.103799485
vt 0.17954594 0.099558674
vt 0.17758447 0.095546804
vt 0.17280442 0.09655418
vt 0.16967541 0.10101821
vt 0.16856176 0.09712633
vt 0.17160863 0.09244367
vt 0.17654568 0.09139588
vt 0.1704058 0.11053189
vt 0.17262274 0.10608991
vt 0.16946775 0.10664906
vt 0.17473978 0.11053189
vt 0.17375475 0.111314975
vt 0.17144996 0.111314975
vt 0.1736092 0.113093875
vt 0.17093176 0.11387696
vt 0.17446607 0.11387696
vt 0.1717301 0.113093875
vt 0.17695439 0.112730585
vt 0.17999375 0.11523517
vt 0.18096542 0.110030256
vt 0.1776222 0.10915359
vt 0.18106604 0.10495808
vt 0.17769158 0.10566547
vt 0.17695439 0.112730585
vt 0.17999375 0.11523517
vt 0.18096542 0.110030256
vt 0.1776222 0.10915359
vt 0.18106604 0.10495808
vt 0.17769158 0.10566547
vt 0.2399649 0.020521514
vt 0.2399649 0.03499014
vt 0.2427147 0.03126324
vt 0.23589355 0.020521514
vt 0.24387586 0.020518057
vt 0.2427147 0.03126324
vt 0.2399649 0.03499014
vt 0.23589355 0.034990795
vt 0.23589355 0.034990795
vt 0.2255131 0.034990795
vt 0.2255131 0.034990795
vt 0.2255131 0.020521514
vt 0.18061727 0.034990795
vt 0.18061727 0.034990795
vt 0.18061727 0.020521514
vt 0.17572957 0.034990795
vt 0.17572957 0.034990795
vt 0.17572957 0.020521514
vt 0.17186141 0.031262346
vt 0.17186141 0.031262346
vt 0.17186141 0.020521514
vt 0.14828208 0.06523214
vt 0.14988646 0.074995324
vt 0.15307066 0.0680574
vt 0.16216639 0.07446246
vt 0.14661822 0.07254319
vt 0.14209178 0.07475041
vt 0.14421996 0.06371711
vt 0.13169228 0.0766844
vt 0.13257904 0.06225352
vt 0.08230298 0.062299
vt 0.14578828 0.07353042
vt 0.086832516 0.0761724
vt 0.07629793 0.06418906
vt 0.08118149 0.07530163
vt 0.07269635 0.07043277
vt 0.077756725 0.078013346
vt 0.06372099 0.0787546
vt 0.14893267 0.07590346
vt 0.1428465 0.078623645
vt 0.15569887 0.081499465
vt 0.13287495 0.08108162
vt 0.13506828 0.09163397
vt 0.1545603 0.08254028
vt 0.14988646 0.074995324
vt 0.15307066 0.0680574
vt 0.14828208 0.06523214
vt 0.11632647 0.08865623
vt 0.14708778 0.08772045
vt 0.14893267 0.07590346
vt 0.1428465 0.078623645
vt 0.14578828 0.07353042
vt 0.14661822 0.07254319
vt 0.14209178 0.07475041
vt 0.14421996 0.06371711
vt 0.13169228 0.0766844
vt 0.13257904 0.06225352
vt 0.08230298 0.062299
vt 0.13287495 0.08108162
vt 0.11632647 0.08865623
vt 0.086832516 0.0761724
vt 0.07629793 0.06418906
vt 0.11738459 0.09641692
vt 0.08118149 0.07530163
vt 0.07269635 0.07043277
vt 0.077756725 0.078013346
vt 0.07216375 0.08651178
vt 0.08363169 0.08040803
vt 0.09653246 0.08517419
vt 0.08363169 0.08040803
vt 0.11584946 0.08525412
vt 0.09488662 0.08844499
vt 0.07892495 0.09020095
vt 0.08830587 0.09580585
vt 0.09488662 0.08844499
vt 0.09653246 0.08517419
vt 0.11584946 0.08525412
vn -0.7117001 -0.532119 0.45862007
vn -0.39630887 -0.54727894 -0.7371737
vn -0.36383292 0.6263436 -0.68943405
vn -0.6590434 0.58656865 0.470743
vn 0.46321645 0.6222745 0.6310348
vn 0.63639677 0.63574076 -0.43684426
vn -0.39630887 -0.54727894 -0.7371737
vn 0.72384 -0.51871157 -0.45496592
vn 0.72384 -0.51871157 -0.45496592
vn 0.5569212 -0.55035245 0.6220538
vn 0.5569212 -0.55035245 0.6220538
vn 0.72384 -0.51871157 -0.45496592
vn -0.39630887 -0.54727894 -0.7371737
vn -0.7117001 -0.532119 0.45862007
vn -0.3641534 -0.42422453 0.82911146
vn 0.3408472 -0.24807498 0.9067977
vn -0.3513319 0.48048124 0.8035569
vn 0.46321645 0.6222745 0.6310348
vn -0.6590434 0.58656865 0.470743
vn 0.35032403 0.3532315 0.8674679
vn 0.3408472 -0.24807498 0.9067977
vn -0.69091827 -0.5611947 -0.45573288
vn 0.7099988 -0.6914452 -0.13343641
vn -0.3641534 -0.42422453 0.82911146
vn -0.6547274 0.6225024 -0.42874575
vn -0.3513319 0.48048124 0.8035569
vn -0.3513319 0.48048124 0.8035569
vn 0.59444594 0.79550767 -0.117479905
vn -0.6547274 0.6225024 -0.42874575
vn 0.35032403 0.3532315 0.8674679
vn 0.7099988 -0.6914452 -0.13343641
vn 0.3408472 -0.24807498 0.9067977
vn -0.71170056 -0.53211945 -0.4586188
vn -0.3638327 0.6263445 0.6894333
vn -0.39630902 -0.54727805 0.7371743
vn -0.6590431 0.5865687 -0.4707435
vn 0.46321633 0.62227446 -0.63103503
vn 0.6363963 0.63574165 0.4368436
vn -0.39630902 -0.54727805 0.7371743
vn 0.72384036 -0.5187108 0.45496637
vn 0.72384036 -0.5187108 0.45496637
vn 0.5569221 -0.5503528 -0.6220527
vn 0.5569221 -0.5503528 -0.6220527
vn -0.39630902 -0.54727805 0.7371743
vn 0.72384036 -0.5187108 0.45496637
vn -0.71170056 -0.53211945 -0.4586188
vn -0.36414778 -0.42422703 -0.8291126
vn 0.3408436 -0.24807946 -0.9067977
vn -0.35133338 0.48048043 -0.8035567
vn 0.46321633 0.62227446 -0.63103503
vn -0.6590431 0.5865687 -0.4707435
vn 0.3503254 0.35323036 -0.8674678
vn 0.3408436 -0.24807946 -0.9067977
vn 0.7100041 -0.6914425 0.13342261
vn -0.69092464 -0.56119263 0.4557257
vn -0.36414778 -0.42422703 -0.8291126
vn -0.65472645 0.6225029 0.42874622
vn -0.35133338 0.48048043 -0.8035567
vn -0.35133338 0.48048043 -0.8035567
vn -0.65472645 0.6225029 0.42874622
vn 0.5944457 0.79550767 0.11748089
vn 0.3503254 0.35323036 -0.8674678
vn 0.7100041 -0.6914425 0.13342261
vn 0.3408436 -0.24807946 -0.9067977
vn -0.21254043 -0.9771523 0
vn -0.41336632 -0.6027671 -0.68249553
vn -0.7851694 -0.56843895 -0.24573587
vn -0.06789759 -0.99769235 0
vn -0.7945912 -0.6071449 0
vn -0.7851689 -0.56844145 0.24573183
vn -0.41337365 -0.6027698 0.6824887
vn -0.049005974 -0.72009987 -0.6921378
vn -0.04901129 -0.7200954 0.69214195
vn -0 -0.7071081 -0.7071054
vn -0 -0.707109 0.7071045
vn -0 -1 0
vn 0.0379665 -0.71761453 -0.69540495
vn 0.037966866 -0.7176135 0.6954059
vn 0.052832376 -0.9986034 0
vn 0.50506246 -0.57693934 -0.6419135
vn 0.50505936 -0.5769397 0.64191556
vn 0.53258383 -0.8463773 0
vn 0.961887 -0.1362575 -0.23708062
vn 0.9618853 -0.13626009 0.23708662
vn 0.9781641 -0.20783398 0
vn -0.41336632 -0.6027671 -0.68249553
vn -0.91726404 0.20960377 -0.33866364
vn -0.7851694 -0.56843895 -0.24573587
vn -0.7945912 -0.6071449 0
vn -0.5132621 0.10670012 -0.8515732
vn -0.19107415 0.56643903 -0.80164677
vn -0.049005974 -0.72009987 -0.6921378
vn -0.12566946 0.5084737 -0.8518578
vn -0 -0.7071081 -0.7071054
vn 0.0379665 -0.71761453 -0.69540495
vn -0.37285334 0.430647 -0.8219025
vn 0.16504076 0.4457693 -0.87980175
vn 0.50506246 -0.57693934 -0.6419135
vn 0.37282208 0.45421118 -0.8091329
vn 0.961887 -0.1362575 -0.23708062
vn 0.72351074 0.629626 -0.28302526
vn 0.9781641 -0.20783398 0
vn -0.6609591 0.6938773 -0.285775
vn -0.27888575 0.9394845 -0.1989765
vn -0.9767522 0.21437144 0
vn -0.26288313 0.9419908 -0.20867623
vn -0.28255367 0.95925146 0
vn -0.6824245 0.730956 0
vn -0.9172654 0.20960867 0.33865654
vn -0.7851689 -0.56844145 0.24573183
vn -0.41337365 -0.6027698 0.6824887
vn -0.20076223 0.9582228 -0.20372447
vn -0.2751086 0.9614131 0
vn -0.66095346 0.6938871 0.28576428
vn -0.278884 0.9394872 0.19896577
vn -0.37284458 0.43065566 0.82190186
vn -0.5132711 0.10670471 0.8515674
vn -0.19107538 0.56644875 0.8016396
vn -0.04901129 -0.7200954 0.69214195
vn -0.12567079 0.50847924 0.8518543
vn -0 -0.707109 0.7071045
vn 0.037966866 -0.7176135 0.6954059
vn -0.26288605 0.94199204 0.20866682
vn -0.2007624 0.958224 0.20371836
vn 0.16504075 0.4457689 0.87980205
vn 0.50505936 -0.5769397 0.64191556
vn -0.21461935 0.97669774 0
vn 0.37281564 0.45421094 0.809136
vn 0.9618853 -0.13626009 0.23708662
vn 0.7235132 0.6296219 0.28302827
vn 0.73944324 0.67321897 0
vn 0.3479358 0.9061956 0.2403131
vn 0.1571922 0.68662846 0.7098113
vn 0.34793755 0.906195 -0.24031244
vn -0.10864349 0.70255816 0.7032841
vn 0.2654753 0.9381385 0.2223042
vn 0.39189136 0.9200115 0
vn 0.2846068 0.9586444 0
vn 0.26547566 0.9381374 -0.22230828
vn 0.15719251 0.686624 -0.7098155
vn -0.10864334 0.70255136 -0.70329106
g fcbg_cityforest_003_car_03_0
f 3/3/3 2/2/2 1/1/1
f 4/4/4 3/3/3 1/1/1
f 4/4/4 5/5/5 3/3/3
f 5/5/5 6/6/6 3/3/3
f 3/3/3 6/6/6 7/7/7
f 6/6/6 8/8/8 7/7/7
f 6/6/6 5/5/5 9/9/9
f 5/5/5 10/10/10 9/9/9
f 13/13/13 12/12/12 11/11/11
f 14/14/14 13/13/13 11/11/11
f 15/15/15 14/14/14 11/11/11
f 16/16/16 15/15/15 11/11/11
f 15/15/15 17/17/17 14/14/14
f 16/16/16 11/11/11 18/18/18
f 17/17/17 19/19/19 14/14/14
f 20/20/20 16/16/16 18/18/18
f 20/20/20 18/18/18 19/19/19
f 17/17/17 20/20/20 19/19/19
f 23/23/23 22/22/22 21/21/21
f 22/22/22 24/24/24 21/21/21
f 22/22/22 25/25/25 24/24/24
f 25/25/25 26/26/26 24/24/24
f 29/29/29 28/28/28 27/27/27
f 28/28/28 30/30/30 27/27/27
f 28/28/28 31/31/31 30/30/30
f 31/31/31 32/32/32 30/30/30
f 35/35/35 34/34/34 33/33/33
f 34/34/34 36/36/36 33/33/33
f 37/37/37 36/36/36 34/34/34
f 38/38/38 37/37/37 34/34/34
f 38/38/38 34/34/34 39/39/39
f 40/40/40 38/38/38 39/39/39
f 37/37/37 38/38/38 41/41/41
f 42/42/42 37/37/37 41/41/41
f 45/45/45 44/44/44 43/43/43
f 44/44/44 46/46/46 43/43/43
f 46/46/46 47/47/47 43/43/43
f 47/47/47 48/48/48 43/43/43
f 49/49/49 47/47/47 46/46/46
f 43/43/43 48/48/48 50/50/50
f 51/51/51 49/49/49 46/46/46
f 48/48/48 52/52/52 50/50/50
f 52/52/52 49/49/49 51/51/51
f 50/50/50 52/52/52 51/51/51
f 55/55/55 54/54/54 53/53/53
f 56/56/56 55/55/55 53/53/53
f 57/57/57 55/55/55 56/56/56
f 58/58/58 57/57/57 56/56/56
f 61/61/61 60/60/60 59/59/59
f 62/62/62 61/61/61 59/59/59
f 63/63/63 61/61/61 62/62/62
f 64/64/64 63/63/63 62/62/62
f 67/67/67 66/66/66 65/65/65
f 65/65/65 66/66/66 68/68/68
f 69/69/69 67/67/67 65/65/65
f 69/69/69 65/65/65 70/70/70
f 65/65/65 71/71/71 70/70/70
f 65/65/65 68/68/68 71/71/71
f 66/66/66 72/72/72 68/68/68
f 68/68/68 73/73/73 71/71/71
f 72/72/72 74/74/74 68/68/68
f 73/73/73 68/68/68 75/75/75
f 74/74/74 76/76/76 68/68/68
f 68/68/68 76/76/76 75/75/75
f 74/74/74 77/77/77 76/76/76
f 75/75/75 76/76/76 78/78/78
f 77/77/77 79/79/79 76/76/76
f 76/76/76 79/79/79 78/78/78
f 77/77/77 80/80/80 79/79/79
f 78/78/78 79/79/79 81/81/81
f 80/80/80 82/82/82 79/79/79
f 79/79/79 82/82/82 81/81/81
f 80/80/80 83/83/83 82/82/82
f 81/81/81 82/82/82 84/84/84
f 83/83/83 85/85/85 82/82/82
f 82/82/82 85/85/85 84/84/84
f 88/88/88 87/87/87 86/86/86
f 87/87/87 88/88/88 89/89/89
f 87/87/87 90/90/90 86/86/86
f 86/86/86 90/90/90 91/91/91
f 86/86/86 91/91/91 92/92/92
f 92/92/92 91/91/91 93/93/93
f 94/94/94 92/92/92 93/93/93
f 95/95/95 94/94/94 93/93/93
f 96/96/96 90/90/90 87/87/87
f 90/90/90 96/96/96 91/91/91
f 97/97/97 95/95/95 93/93/93
f 98/98/98 95/95/95 97/97/97
f 99/99/99 98/98/98 97/97/97
f 98/98/98 99/99/99 100/100/100
f 99/99/99 101/101/101 100/100/100
f 99/99/99 97/97/97 101/101/101
f 100/100/100 101/101/101 102/102/102
f 103/103/103 96/96/96 87/87/87
f 104/104/104 91/91/91 96/96/96
f 103/103/103 104/104/104 96/96/96
f 103/103/103 87/87/87 105/105/105
f 105/105/105 87/87/87 89/89/89
f 106/106/106 93/93/93 91/91/91
f 104/104/104 106/106/106 91/91/91
f 106/106/106 104/104/104 107/107/107
f 104/104/104 103/103/103 108/108/108
f 108/108/108 103/103/103 105/105/105
f 105/105/105 89/89/89 109/109/109
f 89/89/89 110/110/110 109/109/109
f 109/109/109 110/110/110 111/111/111
f 106/106/106 112/112/112 93/93/93
f 112/112/112 106/106/106 107/107/107
f 104/104/104 113/113/113 107/107/107
f 113/113/113 104/104/104 108/108/108
f 114/114/114 108/108/108 105/105/105
f 109/109/109 114/114/114 105/105/105
f 113/113/113 108/108/108 115/115/115
f 108/108/108 114/114/114 115/115/115
f 107/107/107 113/113/113 115/115/115
f 116/116/116 114/114/114 109/109/109
f 115/115/115 114/114/114 116/116/116
f 117/117/117 109/109/109 111/111/111
f 117/117/117 116/116/116 109/109/109
f 111/111/111 118/118/118 117/117/117
f 118/118/118 116/116/116 117/117/117
f 118/118/118 115/115/115 116/116/116
f 118/118/118 111/111/111 119/119/119
f 120/120/120 118/118/118 119/119/119
f 121/121/121 120/120/120 119/119/119
f 121/121/121 122/122/122 120/120/120
f 123/123/123 115/115/115 118/118/118
f 123/123/123 107/107/107 115/115/115
f 120/120/120 123/123/123 118/118/118
f 107/107/107 123/123/123 124/124/124
f 124/124/124 123/123/123 120/120/120
f 122/122/122 125/125/125 120/120/120
f 122/122/122 126/126/126 125/125/125
f 127/127/127 107/107/107 124/124/124
f 127/127/127 112/112/112 107/107/107
f 126/126/126 128/128/128 125/125/125
f 128/128/128 126/126/126 129/129/129
f 130/130/130 128/128/128 129/129/129
f 125/125/125 128/128/128 130/130/130
f 129/129/129 102/102/102 130/130/130
f 102/102/102 131/131/131 130/130/130
f 101/101/101 131/131/131 102/102/102
f 132/132/132 125/125/125 130/130/130
f 130/130/130 131/131/131 132/132/132
f 125/125/125 133/133/133 120/120/120
f 133/133/133 125/125/125 132/132/132
f 101/101/101 134/134/134 131/131/131
f 97/97/97 134/134/134 101/101/101
f 133/133/133 135/135/135 120/120/120
f 135/135/135 124/124/124 120/120/120
f 135/135/135 133/133/133 136/136/136
f 136/136/136 133/133/133 132/132/132
f 124/124/124 135/135/135 136/136/136
f 131/131/131 137/137/137 132/132/132
f 132/132/132 137/137/137 136/136/136
f 134/134/134 137/137/137 131/131/131
f 136/136/136 138/138/138 124/124/124
f 137/137/137 138/138/138 136/136/136
f 138/138/138 127/127/127 124/124/124
f 112/112/112 127/127/127 138/138/138
f 139/139/139 138/138/138 137/137/137
f 134/134/134 139/139/139 137/137/137
f 139/139/139 112/112/112 138/138/138
f 97/97/97 140/140/140 134/134/134
f 140/140/140 139/139/139 134/134/134
f 140/140/140 97/97/97 93/93/93
f 141/141/141 112/112/112 139/139/139
f 112/112/112 141/141/141 93/93/93
f 141/141/141 140/140/140 93/93/93
f 140/140/140 141/141/141 139/139/139
