g fcbg_cityforest_004_vine_01
v -0.35428727 0.35786408 0.32334474
v -0.35428724 1.8304322 0.3233451
v 1.3592741 1.8304319 0.5848098
v 1.3592741 0.35786396 0.58480954
v 3.0014005 0.35786396 0.029761672
v 3.0014007 1.8304319 0.02976203
v -2.6171355 -0.019098282 0.3390826
v -3.0014005 1.3467901 -0.054802895
v -1.3825866 1.8888512 0.24564302
v -0.9983213 0.52296287 0.6395285
v 0.63417435 0.84150624 0.15152775
v 0.2499091 2.2073946 -0.24235776
v -1.1313806 1.1636932 -0.122430265
v -1.6221238 -0.48224592 0.2210334
v -1.6831334 1.1601856 0.06166184
v -1.0703708 -0.4787383 0.03694147
v -1.0879627 -2.203887 -0.0564636
v -1.6397158 -2.2073946 0.12762839
v -1.8021888 -1.1923007 -0.13698441
v -2.6260178 -1.1895951 -0.38230073
v -2.6520467 -0.18290365 -0.28378856
v -1.8282175 -0.18560922 -0.038471818
v -1.7191961 0.7553327 -0.3942135
v -2.543025 0.7580383 -0.63953
v -1.8188531 0.66892576 -0.47692245
v -2.1654172 -0.4934404 -0.23436749
v -2.2085023 0.6664487 -0.34691614
v -1.7757679 -0.49096334 -0.3643738
v -1.7881911 -1.709267 -0.43033665
v -2.1778407 -1.711744 -0.3003304
v 0.79952 -1.1092898 0.42836577
v -0.21235442 -1.1061035 0.40041494
v -0.2119362 0.079401255 0.52040577
v 0.7999383 0.07621515 0.54835665
v 0.8155229 1.1842916 0.11047229
v -0.19635153 1.1874778 0.08252156
v 1.9172306 1.1636931 0.1770845
v 1.4264874 -0.48224592 0.52054834
v 1.3654777 1.1601856 0.36117664
v 1.9782401 -0.47873843 0.3364563
v 1.9606485 -2.2038865 0.24305111
v 1.4088955 -2.2073946 0.42714328
v 1.229758 0.6689255 -0.17740661
v 0.88319397 -0.49344063 0.065148205
v 0.8401089 0.6664485 -0.047400355
v 1.2728431 -0.49096358 -0.06485796
v 1.2604198 -1.7092673 -0.13082087
v 0.8707706 -1.7117442 -0.0008146465
vt 0.6900857 0.49590287
vt 0.6900857 0.5790776
vt 0.7672963 0.5790776
vt 0.7672963 0.49590287
vt 0.8445069 0.49590287
vt 0.8445069 0.5790776
vt 0.6900857 0.49590287
vt 0.6900857 0.5790776
vt 0.7672963 0.5790776
vt 0.7672963 0.49590287
vt 0.8445069 0.49590287
vt 0.8445069 0.5790776
vt 0.9945845 0.532665
vt 0.94487333 0.4158383
vt 0.94487333 0.532665
vt 0.9945845 0.4158383
vt 0.9945845 0.2990115
vt 0.94487333 0.2990115
vt 0.6900857 0.49590287
vt 0.6900857 0.5790776
vt 0.7672963 0.5790776
vt 0.7672963 0.49590287
vt 0.8445069 0.49590287
vt 0.8445069 0.5790776
vt 0.9945845 0.532665
vt 0.94487333 0.4158383
vt 0.94487333 0.532665
vt 0.9945845 0.4158383
vt 0.9945845 0.2990115
vt 0.94487333 0.2990115
vt 0.6900857 0.49590287
vt 0.6900857 0.5790776
vt 0.7672963 0.5790776
vt 0.7672963 0.49590287
vt 0.8445069 0.49590287
vt 0.8445069 0.5790776
vt 0.9945845 0.532665
vt 0.94487333 0.4158383
vt 0.94487333 0.532665
vt 0.9945845 0.4158383
vt 0.9945845 0.2990115
vt 0.94487333 0.2990115
vt 0.9945845 0.532665
vt 0.94487333 0.4158383
vt 0.94487333 0.532665
vt 0.9945845 0.4158383
vt 0.9945845 0.2990115
vt 0.94487333 0.2990115
vn -0.1508397 0 0.9885582
vn -0.1508397 0 0.9885582
vn 0.087155245 0 0.9961947
vn 0.08715527 0 0.9961947
vn 0.32020855 0 0.9473471
vn 0.32020852 0 0.9473471
vn -0.24441743 0.20457123 0.9478454
vn -0.2444174 0.20457122 0.9478453
vn -0.016692523 0.27270526 0.96195275
vn -0.016692473 0.27270526 0.96195275
vn 0.2119789 0.325377 0.9215177
vn 0.2119789 0.32537696 0.9215177
vn 0.3142156 0.10324482 0.94372094
vn 0.3162631 0.024445087 0.9483565
vn 0.31421557 0.103244804 0.94372094
vn 0.31626302 0.024448434 0.94835645
vn 0.31633872 -0.05450371 0.9470793
vn 0.31633872 -0.054503705 0.9470793
vn -0.2842461 -0.10065205 0.9534534
vn -0.2842461 -0.10065205 0.9534534
vn -0.28226954 0.13742341 0.94944125
vn -0.28226954 0.13742335 0.94944125
vn -0.26428837 0.36770698 0.89159596
vn -0.2642884 0.36770692 0.89159596
vn 0.31421572 0.10324482 0.9437208
vn 0.31626323 0.024445092 0.94835645
vn 0.31421578 0.10324483 0.9437208
vn 0.31626323 0.024448432 0.94835645
vn 0.31633887 -0.05450371 0.9470793
vn 0.31633887 -0.05450371 0.9470793
vn -0.027788777 -0.10065191 0.99453354
vn -0.027788775 -0.100651905 0.99453354
vn -0.026917933 0.13742347 0.9901466
vn -0.02691793 0.13742346 0.9901466
vn -0.02452084 0.3677069 0.9296183
vn -0.024520842 0.36770692 0.9296183
vn 0.31421572 0.10324487 0.9437208
vn 0.31626335 0.024445111 0.94835645
vn 0.31421575 0.10324487 0.9437208
vn 0.31626332 0.024448436 0.94835633
vn 0.31633905 -0.054503728 0.9470792
vn 0.31633908 -0.05450373 0.9470792
vn 0.31421563 0.10324478 0.94372094
vn 0.31626317 0.024445077 0.9483565
vn 0.31421563 0.103244774 0.94372094
vn 0.3162631 0.024448417 0.94835645
vn 0.31633878 -0.054503698 0.9470793
vn 0.31633878 -0.054503694 0.9470793
g fcbg_cityforest_004_vine_01_0
f 3/3/3 2/2/2 1/1/1
f 4/4/4 3/3/3 1/1/1
f 3/3/3 4/4/4 5/5/5
f 6/6/6 3/3/3 5/5/5
f 9/9/9 8/8/8 7/7/7
f 10/10/10 9/9/9 7/7/7
f 9/9/9 10/10/10 11/11/11
f 12/12/12 9/9/9 11/11/11
f 15/15/15 14/14/14 13/13/13
f 14/14/14 16/16/16 13/13/13
f 16/16/16 14/14/14 17/17/17
f 14/14/14 18/18/18 17/17/17
f 21/21/21 20/20/20 19/19/19
f 22/22/22 21/21/21 19/19/19
f 21/21/21 22/22/22 23/23/23
f 24/24/24 21/21/21 23/23/23
f 27/27/27 26/26/26 25/25/25
f 26/26/26 28/28/28 25/25/25
f 28/28/28 26/26/26 29/29/29
f 26/26/26 30/30/30 29/29/29
f 33/33/33 32/32/32 31/31/31
f 34/34/34 33/33/33 31/31/31
f 33/33/33 34/34/34 35/35/35
f 36/36/36 33/33/33 35/35/35
f 39/39/39 38/38/38 37/37/37
f 38/38/38 40/40/40 37/37/37
f 40/40/40 38/38/38 41/41/41
f 38/38/38 42/42/42 41/41/41
f 45/45/45 44/44/44 43/43/43
f 44/44/44 46/46/46 43/43/43
f 46/46/46 44/44/44 47/47/47
f 44/44/44 48/48/48 47/47/47
