g fcbg_desert_004_car_01
v -0.5871308 0.43521106 -0.6133558
v -0.53371 0.43521106 -0.7483362
v -0.52861917 0.5195888 -0.7404681
v -0.5802176 0.5195888 -0.6134104
v -0.49108458 0.5195888 -0.6134104
v -0.46724832 0.5195888 -0.7273318
v -0.53371 0.43521106 -0.7483362
v -0.45413935 0.43521106 -0.7313477
v -0.45413935 0.43521106 -0.7313477
v -0.47781456 0.43521106 -0.6133558
v -0.47781456 0.43521106 -0.6133558
v -0.45413935 0.43521106 -0.7313477
v -0.53371 0.43521106 -0.7483362
v -0.5871308 0.43521106 -0.6133558
v -0.56228507 0.45496595 -0.61336946
v -0.5041472 0.45496595 -0.61336946
v -0.5586047 0.49983668 -0.61339676
v -0.49108458 0.5195888 -0.6134104
v -0.5802176 0.5195888 -0.6134104
v -0.51120234 0.49983668 -0.61339676
v -0.5041472 0.45496595 -0.61336946
v -0.5887513 0.44476247 -0.5606798
v -0.50417995 0.44476247 -0.5606798
v -0.56228507 0.45496595 -0.61336946
v -0.58340406 0.5100374 -0.5607234
v -0.5586047 0.49983668 -0.61339676
v -0.5586047 0.49983668 -0.61339676
v -0.5144434 0.5100374 -0.5607234
v -0.58340406 0.5100374 -0.5607234
v -0.51120234 0.49983668 -0.61339676
v -0.50417995 0.44476247 -0.5606798
v -0.5041472 0.45496595 -0.61336946
v -0.5871308 0.4352193 0.61335707
v -0.52861917 0.5195942 0.7404666
v -0.53371 0.4352193 0.74833465
v -0.5802176 0.5195942 0.61341166
v -0.49108458 0.5195942 0.61341166
v -0.46724832 0.5195942 0.7273302
v -0.53371 0.4352193 0.74833465
v -0.45413935 0.4352193 0.73134875
v -0.45413935 0.4352193 0.73134875
v -0.47781456 0.4352193 0.61335707
v -0.47781456 0.4352193 0.61335707
v -0.53371 0.4352193 0.74833465
v -0.45413935 0.4352193 0.73134875
v -0.5871308 0.4352193 0.61335707
v -0.56228507 0.45497143 0.61337066
v -0.5041472 0.45497143 0.61337066
v -0.5586047 0.49984205 0.61339784
v -0.49108458 0.5195942 0.61341166
v -0.5802176 0.5195942 0.61341166
v -0.51120234 0.49984205 0.61339784
v -0.5041472 0.45497143 0.61337066
v -0.50417995 0.4447707 0.56067824
v -0.5887513 0.4447707 0.56067824
v -0.56228507 0.45497143 0.61337066
v -0.58340406 0.5100455 0.5607219
v -0.5586047 0.49984205 0.61339784
v -0.5586047 0.49984205 0.61339784
v -0.58340406 0.5100455 0.5607219
v -0.5144434 0.5100455 0.5607219
v -0.51120234 0.49984205 0.61339784
v -0.50417995 0.4447707 0.56067824
v -0.5041472 0.45497143 0.61337066
v -1.253818 0.021910787 0.0010591745
v -1.253818 0.021910787 -0.56433284
v -1.3581526 0.059445262 -0.40201867
v -1.0914192 -0.00029683113 0.0010591745
v -1.4069982 0.059445262 0.0010591745
v -1.3581526 0.059445262 0.4041314
v -1.253818 0.021910787 0.5664456
v -1.0914192 -0.00029683113 -0.5643301
v -1.0914192 -0.00029683113 0.56644833
v -0.67343736 -0.00029683113 -0.5643301
v -0.67343736 -0.00029683113 0.5664456
v -0.67343736 -0.00029683113 0.0010591745
v 1.1342809 -0.00029683113 -0.5643301
v 1.1342809 -0.00029683113 0.5664456
v 1.134278 -0.00029683113 0.0010591745
v 1.3361866 0.0211277 -0.5643301
v 1.3361866 0.0211277 0.5664456
v 1.3361839 0.0211277 0.0010591745
v 1.4303586 0.17362583 -0.40201592
v 1.4303586 0.17362857 0.4041314
v 1.4303559 0.17362857 0.0010591745
v -1.253818 0.021910787 -0.56433284
v -1.3815169 0.35547948 -0.40201867
v -1.3581526 0.059445262 -0.40201867
v -1.4069982 0.059445262 0.0010591745
v -1.2727873 0.32173157 -0.56433284
v -1.0911875 0.46473837 -0.56433284
v -1.0914192 -0.00029683113 -0.5643301
v -0.67353296 0.52618015 -0.56433284
v -0.67343736 -0.00029683113 -0.5643301
v 1.1342809 -0.00029683113 -0.5643301
v -1.245167 0.3738675 -0.56433284
v 1.0447114 0.5135567 -0.56433284
v 1.3361866 0.0211277 -0.5643301
v 1.2646533 0.47456264 -0.56433284
v 1.4303586 0.17362583 -0.40201592
v 1.3839548 0.51656044 -0.40201592
v 1.4303559 0.17362857 0.0010591745
v -1.3530891 0.4050808 -0.40201867
v -1.09116 0.5319803 -0.40201867
v -1.4303625 0.35548222 0.0010591745
v -0.6964171 0.58772826 -0.40201867
v -0.6964171 0.58772826 0.0010591745
v -1.4019346 0.4050808 0.0010591745
v -1.3815169 0.35548222 0.4041314
v -1.3581526 0.059445262 0.4041314
v -1.253818 0.021910787 0.5664456
v -0.10615754 0.86029434 -0.33768225
v -1.0911574 0.53197753 0.0010591745
v -1.3530891 0.4050808 0.4041314
v -1.0911574 0.53197753 0.4041314
v -1.245167 0.3738675 0.56644833
v -1.2727926 0.32173157 0.56644833
v -1.0911875 0.46473837 0.56644833
v -1.0914192 -0.00029683113 0.56644833
v -0.67353296 0.5261829 0.56644833
v -0.67343736 -0.00029683113 0.5664456
v 1.1342809 -0.00029683113 0.5664456
v -0.6964171 0.58772826 0.4041314
v -0.10615754 0.86029434 0.339795
v 1.0447114 0.51355946 0.5664456
v 1.3361866 0.0211277 0.5664456
v -0.10615754 0.8602972 0.0010591745
v 1.2646533 0.47456527 0.5664456
v 1.4303586 0.17362857 0.4041314
v 1.3839601 0.51656044 0.4041314
v 1.3839548 0.51656044 0.0010591745
v 1.1367772 0.57396173 0.4041314
v 0.68385524 0.80090976 0.46469474
v 1.1367772 0.57396173 -0.40201592
v -0.09276748 0.80090976 0.46469474
v 0.6970515 0.86029434 0.339795
v 1.1367772 0.57396173 0.0010591745
v 0.6970515 0.8602972 0.0010591745
v 0.6970515 0.86029434 -0.33768225
v 0.68385524 0.80090976 -0.46258193
v -0.09276748 0.80090976 -0.46258193
vt 0.067400806 0.058058254
vt 0.061217792 0.057423323
vt 0.061837606 0.05322069
vt 0.06768804 0.053825386
vt 0.06613094 0.049622744
vt 0.06127826 0.050151855
vt 0.05771056 0.054263785
vt 0.05700004 0.05028791
vt 0.05920718 0.04644809
vt 0.06422616 0.04590386
vt 0.0586176 0.06386334
vt 0.05807337 0.05990258
vt 0.061263144 0.059660703
vt 0.06292606 0.064301744
vt 0.06186784 0.06498203
vt 0.05957 0.06474014
vt 0.06153526 0.06673564
vt 0.058799006 0.067234516
vt 0.062306248 0.06759734
vt 0.05967582 0.066539116
vt 0.064407565 0.066765875
vt 0.06867067 0.06449827
vt 0.06717405 0.06957772
vt 0.06543554 0.06327376
vt 0.06929048 0.05946417
vt 0.06585883 0.059811875
vt 0.064407565 0.066765875
vt 0.06867067 0.06449827
vt 0.06717405 0.06957772
vt 0.06543554 0.06327376
vt 0.06929048 0.05946417
vt 0.06585883 0.059811875
vt 0.067400806 0.058058254
vt 0.061837606 0.05322069
vt 0.061217792 0.057423323
vt 0.06768804 0.053825386
vt 0.06613094 0.049622744
vt 0.06127826 0.050151855
vt 0.05771056 0.054263785
vt 0.05700004 0.05028791
vt 0.05920718 0.04644809
vt 0.06422616 0.04590386
vt 0.0586176 0.06386334
vt 0.061263144 0.059660703
vt 0.05807337 0.05990258
vt 0.06292606 0.064301744
vt 0.06186784 0.06498203
vt 0.05957 0.06474014
vt 0.06153526 0.06673564
vt 0.058799006 0.067234516
vt 0.062306248 0.06759734
vt 0.05967582 0.066539116
vt 0.064407565 0.066765875
vt 0.06717405 0.06957772
vt 0.06867067 0.06449827
vt 0.06543554 0.06327376
vt 0.06929048 0.05946417
vt 0.06585883 0.059811875
vt 0.064407565 0.066765875
vt 0.06717405 0.06957772
vt 0.06867067 0.06449827
vt 0.06543554 0.06327376
vt 0.06929048 0.05946417
vt 0.06585883 0.059811875
vt 0.27990612 0.0013075266
vt 0.27990612 0.016742393
vt 0.2825819 0.012312995
vt 0.27594537 0.0013075266
vt 0.28371572 0.0013075266
vt 0.2825819 0.012312995
vt 0.27990612 0.016742393
vt 0.27594537 0.016742393
vt 0.27594537 0.016742393
vt 0.26583183 0.016742393
vt 0.26583183 0.016742393
vt 0.26583183 0.0013075266
vt 0.2220972 0.016742393
vt 0.2220972 0.016742393
vt 0.2220972 0.0013075266
vt 0.21735033 0.016742393
vt 0.21735033 0.016742393
vt 0.21735033 0.0013075266
vt 0.21357098 0.012312995
vt 0.21357098 0.012312995
vt 0.21357098 0.0013075266
vt 0.16327538 0.045994565
vt 0.16492318 0.056138344
vt 0.16815831 0.048927344
vt 0.17744039 0.055594116
vt 0.16158223 0.05359862
vt 0.15697142 0.05588135
vt 0.15913321 0.04442236
vt 0.14641948 0.058224544
vt 0.14726606 0.04195822
vt 0.09600294 0.04195822
vt 0.16073567 0.054626606
vt 0.09938923 0.058224544
vt 0.089880385 0.044906117
vt 0.09485401 0.056455813
vt 0.08620686 0.0514066
vt 0.091361895 0.059282765
vt 0.07704571 0.06005375
vt 0.16394055 0.057090744
vt 0.15774241 0.059917696
vt 0.17187719 0.06282024
vt 0.1475684 0.062472537
vt 0.15077329 0.07446063
vt 0.17071314 0.06389357
vt 0.16492318 0.056138344
vt 0.16815831 0.048927344
vt 0.16327538 0.045994565
vt 0.13335805 0.06892767
vt 0.1625951 0.070227765
vt 0.16394055 0.057090744
vt 0.15774241 0.059917696
vt 0.16073567 0.054626606
vt 0.16158223 0.05359862
vt 0.15697142 0.05588135
vt 0.15913321 0.04442236
vt 0.14641948 0.058224544
vt 0.14726606 0.04195822
vt 0.09600294 0.04195822
vt 0.1475684 0.062472537
vt 0.13335805 0.06892767
vt 0.09938923 0.058224544
vt 0.089880385 0.044906117
vt 0.13483955 0.078769095
vt 0.09485401 0.056455813
vt 0.08620686 0.0514066
vt 0.091361895 0.059282765
vt 0.083682254 0.067189164
vt 0.097348385 0.06176202
vt 0.10885273 0.065314606
vt 0.097348385 0.06176202
vt 0.13031945 0.06539019
vt 0.10741657 0.06871602
vt 0.08972921 0.072208144
vt 0.103863984 0.07845163
vt 0.10741657 0.06871602
vt 0.10885273 0.065314606
vt 0.13031945 0.06539019
vn -0.7120261 -0.5323808 0.45780945
vn -0.3970598 -0.5478393 -0.7363529
vn -0.3642105 0.6270046 -0.6886334
vn -0.6598538 0.586426 0.46978453
vn 0.46281773 0.62314 0.6304731
vn 0.63672554 0.63666606 -0.43501368
vn -0.3970598 -0.5478393 -0.7363529
vn 0.7236794 -0.51885474 -0.45505804
vn 0.7236794 -0.51885474 -0.45505804
vn 0.55750084 -0.54977167 0.62204814
vn 0.55750084 -0.54977167 0.62204814
vn 0.7236794 -0.51885474 -0.45505804
vn -0.3970598 -0.5478393 -0.7363529
vn -0.7120261 -0.5323808 0.45780945
vn -0.3642105 -0.42417157 0.8291135
vn 0.34108227 -0.24833143 0.90663904
vn -0.3506844 0.48014903 0.80403817
vn 0.46281773 0.62314 0.6304731
vn -0.6598538 0.586426 0.46978453
vn 0.35074383 0.35261667 0.8675484
vn 0.34108227 -0.24833143 0.90663904
vn -0.69077075 -0.5613655 -0.45574617
vn 0.7101533 -0.69083023 -0.13577884
vn -0.3642105 -0.42417157 0.8291135
vn -0.6540569 0.62314 -0.4288428
vn -0.3506844 0.48014903 0.80403817
vn -0.3506844 0.48014903 0.80403817
vn 0.59421474 0.7951155 -0.121244766
vn -0.6540569 0.62314 -0.4288428
vn 0.35074383 0.35261667 0.8675484
vn 0.7101533 -0.69083023 -0.13577884
vn 0.34108227 -0.24833143 0.90663904
vn -0.7120261 -0.5323808 -0.45780945
vn -0.3642105 0.6270046 0.6886334
vn -0.3970598 -0.5478393 0.7363529
vn -0.6598538 0.586426 -0.46978453
vn 0.46281773 0.62314 -0.6304731
vn 0.63672554 0.63666606 0.43501368
vn -0.3970598 -0.5478393 0.7363529
vn 0.7236794 -0.51885474 0.45505804
vn 0.7236794 -0.51885474 0.45505804
vn 0.55750084 -0.54977167 -0.62204814
vn 0.55750084 -0.54977167 -0.62204814
vn -0.3970598 -0.5478393 0.7363529
vn 0.7236794 -0.51885474 0.45505804
vn -0.7120261 -0.5323808 -0.45780945
vn -0.3642105 -0.42417157 -0.8291135
vn 0.34108227 -0.24833143 -0.90663904
vn -0.3506844 0.48014903 -0.80403817
vn 0.46281773 0.62314 -0.6304731
vn -0.6598538 0.586426 -0.46978453
vn 0.35074383 0.35261667 -0.8675484
vn 0.34108227 -0.24833143 -0.90663904
vn 0.7101533 -0.69083023 0.13577884
vn -0.69077075 -0.5613655 0.45574617
vn -0.3642105 -0.42417157 -0.8291135
vn -0.6540569 0.62314 0.4288428
vn -0.3506844 0.48014903 -0.80403817
vn -0.3506844 0.48014903 -0.80403817
vn -0.6540569 0.62314 0.4288428
vn 0.59421474 0.7951155 0.121244766
vn 0.35074383 0.35261667 -0.8675484
vn 0.7101533 -0.69083023 0.13577884
vn 0.34108227 -0.24833143 -0.90663904
vn -0.21349049 -0.97681195 -0.016131766
vn -0.41251826 -0.60194397 -0.68373394
vn -0.7854539 -0.5690947 -0.24329676
vn -0.0685385 -0.9976485 -0
vn -0.794497 -0.60726815 -0
vn -0.7854539 -0.5690947 0.24329676
vn -0.41251826 -0.60194397 0.68373394
vn -0.049244165 -0.71981484 -0.6924172
vn -0.049244165 -0.71981484 0.6924172
vn -0.00093638897 -0.7062887 -0.7079233
vn -0.00093638897 -0.7062887 0.7079233
vn -0.00093638897 -0.99999964 -0
vn 0.037709773 -0.7178825 -0.6951422
vn 0.037709773 -0.7178825 0.6951422
vn 0.053168237 -0.9980673 -0.032167323
vn 0.50532854 -0.57682395 -0.6418078
vn 0.50532854 -0.57682395 0.6418078
vn 0.5323808 -0.84541494 -0.04294516
vn 0.9613535 -0.13625753 -0.23923492
vn 0.9613535 -0.13625753 0.23923492
vn 0.9782056 -0.2076386 -0
vn -0.41251826 -0.60194397 -0.68373394
vn -0.9168509 0.20962584 -0.33976665
vn -0.7854539 -0.5690947 -0.24329676
vn -0.794497 -0.60726815 -0
vn -0.51299834 0.10721338 -0.8516678
vn -0.19030273 0.567103 -0.8013607
vn -0.049244165 -0.71981484 -0.6924172
vn -0.12653649 0.5091337 -0.85133505
vn -0.00093638897 -0.7062887 -0.7079233
vn 0.037709773 -0.7178825 -0.6951422
vn -0.37193978 0.429909 -0.82270235
vn 0.16524214 0.44536757 -0.8799675
vn 0.50532854 -0.57682395 -0.6418078
vn 0.3719992 0.455029 -0.80905205
vn 0.9613535 -0.13625753 -0.23923492
vn 0.7236794 0.6289369 -0.28412405
vn 0.9782056 -0.2076386 -0
vn -0.6617861 0.6946354 -0.28199446
vn -0.279189 0.9400387 -0.19591019
vn -0.9767525 0.21349049 -0.019399388
vn -0.26373053 0.94197094 -0.20769438
vn -0.28298363 0.95912474 -0
vn -0.682558 0.73083144 -0
vn -0.9168509 0.20962584 0.33976665
vn -0.7854539 -0.5690947 0.24329676
vn -0.41251826 -0.60194397 0.68373394
vn -0.19996428 0.9574294 -0.20819026
vn -0.27532434 0.96129405 -0.010498047
vn -0.6617861 0.6946354 0.28199446
vn -0.279189 0.9400387 0.19591019
vn -0.37193978 0.429909 0.82270235
vn -0.51299834 0.10721338 0.8516678
vn -0.19030273 0.567103 0.8013607
vn -0.049244165 -0.71981484 0.6924172
vn -0.12653649 0.5091337 0.85133505
vn -0.00093638897 -0.7062887 0.7079233
vn 0.037709773 -0.7178825 0.6951422
vn -0.26373053 0.94197094 0.20769438
vn -0.19996428 0.9574294 0.20819026
vn 0.16524214 0.44536757 0.8799675
vn 0.50532854 -0.57682395 0.6418078
vn -0.21537405 0.9765317 -0
vn 0.3719992 0.455029 0.80905205
vn 0.9613535 -0.13625753 0.23923492
vn 0.7236794 0.6289369 0.28412405
vn 0.7391379 0.67338 -0.015315811
vn 0.3488115 0.9052571 0.24256977
vn 0.1575129 0.6869061 0.7094714
vn 0.3488115 0.9052571 -0.24256977
vn -0.10914576 0.70236456 0.7033997
vn 0.26572222 0.9381063 0.22214463
vn 0.39115605 0.9203243 -0
vn 0.2848139 0.9585828 -0
vn 0.26572222 0.9381063 -0.22214463
vn 0.1575129 0.6869061 -0.7094714
vn -0.10914576 0.70236456 -0.7033997
g fcbg_desert_004_car_01_0
f 3/3/3 2/2/2 1/1/1
f 4/4/4 3/3/3 1/1/1
f 4/4/4 5/5/5 3/3/3
f 5/5/5 6/6/6 3/3/3
f 3/3/3 6/6/6 7/7/7
f 6/6/6 8/8/8 7/7/7
f 6/6/6 5/5/5 9/9/9
f 5/5/5 10/10/10 9/9/9
f 13/13/13 12/12/12 11/11/11
f 14/14/14 13/13/13 11/11/11
f 15/15/15 14/14/14 11/11/11
f 16/16/16 15/15/15 11/11/11
f 15/15/15 17/17/17 14/14/14
f 16/16/16 11/11/11 18/18/18
f 17/17/17 19/19/19 14/14/14
f 20/20/20 16/16/16 18/18/18
f 20/20/20 18/18/18 19/19/19
f 17/17/17 20/20/20 19/19/19
f 23/23/23 22/22/22 21/21/21
f 22/22/22 24/24/24 21/21/21
f 22/22/22 25/25/25 24/24/24
f 25/25/25 26/26/26 24/24/24
f 29/29/29 28/28/28 27/27/27
f 28/28/28 30/30/30 27/27/27
f 28/28/28 31/31/31 30/30/30
f 31/31/31 32/32/32 30/30/30
f 35/35/35 34/34/34 33/33/33
f 34/34/34 36/36/36 33/33/33
f 37/37/37 36/36/36 34/34/34
f 38/38/38 37/37/37 34/34/34
f 38/38/38 34/34/34 39/39/39
f 40/40/40 38/38/38 39/39/39
f 37/37/37 38/38/38 41/41/41
f 42/42/42 37/37/37 41/41/41
f 45/45/45 44/44/44 43/43/43
f 44/44/44 46/46/46 43/43/43
f 46/46/46 47/47/47 43/43/43
f 47/47/47 48/48/48 43/43/43
f 49/49/49 47/47/47 46/46/46
f 43/43/43 48/48/48 50/50/50
f 51/51/51 49/49/49 46/46/46
f 48/48/48 52/52/52 50/50/50
f 52/52/52 49/49/49 51/51/51
f 50/50/50 52/52/52 51/51/51
f 55/55/55 54/54/54 53/53/53
f 56/56/56 55/55/55 53/53/53
f 57/57/57 55/55/55 56/56/56
f 58/58/58 57/57/57 56/56/56
f 61/61/61 60/60/60 59/59/59
f 62/62/62 61/61/61 59/59/59
f 63/63/63 61/61/61 62/62/62
f 64/64/64 63/63/63 62/62/62
f 67/67/67 66/66/66 65/65/65
f 65/65/65 66/66/66 68/68/68
f 69/69/69 67/67/67 65/65/65
f 69/69/69 65/65/65 70/70/70
f 65/65/65 71/71/71 70/70/70
f 65/65/65 68/68/68 71/71/71
f 66/66/66 72/72/72 68/68/68
f 68/68/68 73/73/73 71/71/71
f 72/72/72 74/74/74 68/68/68
f 73/73/73 68/68/68 75/75/75
f 74/74/74 76/76/76 68/68/68
f 68/68/68 76/76/76 75/75/75
f 74/74/74 77/77/77 76/76/76
f 75/75/75 76/76/76 78/78/78
f 77/77/77 79/79/79 76/76/76
f 76/76/76 79/79/79 78/78/78
f 77/77/77 80/80/80 79/79/79
f 78/78/78 79/79/79 81/81/81
f 80/80/80 82/82/82 79/79/79
f 79/79/79 82/82/82 81/81/81
f 80/80/80 83/83/83 82/82/82
f 81/81/81 82/82/82 84/84/84
f 83/83/83 85/85/85 82/82/82
f 82/82/82 85/85/85 84/84/84
f 88/88/88 87/87/87 86/86/86
f 87/87/87 88/88/88 89/89/89
f 87/87/87 90/90/90 86/86/86
f 86/86/86 90/90/90 91/91/91
f 86/86/86 91/91/91 92/92/92
f 92/92/92 91/91/91 93/93/93
f 94/94/94 92/92/92 93/93/93
f 95/95/95 94/94/94 93/93/93
f 96/96/96 90/90/90 87/87/87
f 90/90/90 96/96/96 91/91/91
f 97/97/97 95/95/95 93/93/93
f 98/98/98 95/95/95 97/97/97
f 99/99/99 98/98/98 97/97/97
f 98/98/98 99/99/99 100/100/100
f 99/99/99 101/101/101 100/100/100
f 99/99/99 97/97/97 101/101/101
f 100/100/100 101/101/101 102/102/102
f 103/103/103 96/96/96 87/87/87
f 104/104/104 91/91/91 96/96/96
f 103/103/103 104/104/104 96/96/96
f 103/103/103 87/87/87 105/105/105
f 105/105/105 87/87/87 89/89/89
f 106/106/106 93/93/93 91/91/91
f 104/104/104 106/106/106 91/91/91
f 106/106/106 104/104/104 107/107/107
f 104/104/104 103/103/103 108/108/108
f 108/108/108 103/103/103 105/105/105
f 105/105/105 89/89/89 109/109/109
f 89/89/89 110/110/110 109/109/109
f 109/109/109 110/110/110 111/111/111
f 106/106/106 112/112/112 93/93/93
f 112/112/112 106/106/106 107/107/107
f 104/104/104 113/113/113 107/107/107
f 113/113/113 104/104/104 108/108/108
f 114/114/114 108/108/108 105/105/105
f 109/109/109 114/114/114 105/105/105
f 113/113/113 108/108/108 115/115/115
f 108/108/108 114/114/114 115/115/115
f 107/107/107 113/113/113 115/115/115
f 116/116/116 114/114/114 109/109/109
f 115/115/115 114/114/114 116/116/116
f 117/117/117 109/109/109 111/111/111
f 117/117/117 116/116/116 109/109/109
f 111/111/111 118/118/118 117/117/117
f 118/118/118 116/116/116 117/117/117
f 118/118/118 115/115/115 116/116/116
f 118/118/118 111/111/111 119/119/119
f 120/120/120 118/118/118 119/119/119
f 121/121/121 120/120/120 119/119/119
f 121/121/121 122/122/122 120/120/120
f 123/123/123 115/115/115 118/118/118
f 123/123/123 107/107/107 115/115/115
f 120/120/120 123/123/123 118/118/118
f 107/107/107 123/123/123 124/124/124
f 124/124/124 123/123/123 120/120/120
f 122/122/122 125/125/125 120/120/120
f 122/122/122 126/126/126 125/125/125
f 127/127/127 107/107/107 124/124/124
f 127/127/127 112/112/112 107/107/107
f 126/126/126 128/128/128 125/125/125
f 128/128/128 126/126/126 129/129/129
f 130/130/130 128/128/128 129/129/129
f 125/125/125 128/128/128 130/130/130
f 129/129/129 102/102/102 130/130/130
f 102/102/102 131/131/131 130/130/130
f 101/101/101 131/131/131 102/102/102
f 132/132/132 125/125/125 130/130/130
f 130/130/130 131/131/131 132/132/132
f 125/125/125 133/133/133 120/120/120
f 133/133/133 125/125/125 132/132/132
f 101/101/101 134/134/134 131/131/131
f 97/97/97 134/134/134 101/101/101
f 133/133/133 135/135/135 120/120/120
f 135/135/135 124/124/124 120/120/120
f 135/135/135 133/133/133 136/136/136
f 136/136/136 133/133/133 132/132/132
f 124/124/124 135/135/135 136/136/136
f 131/131/131 137/137/137 132/132/132
f 132/132/132 137/137/137 136/136/136
f 134/134/134 137/137/137 131/131/131
f 136/136/136 138/138/138 124/124/124
f 137/137/137 138/138/138 136/136/136
f 138/138/138 127/127/127 124/124/124
f 112/112/112 127/127/127 138/138/138
f 139/139/139 138/138/138 137/137/137
f 134/134/134 139/139/139 137/137/137
f 139/139/139 112/112/112 138/138/138
f 97/97/97 140/140/140 134/134/134
f 140/140/140 139/139/139 134/134/134
f 140/140/140 97/97/97 93/93/93
f 141/141/141 112/112/112 139/139/139
f 112/112/112 141/141/141 93/93/93
f 141/141/141 140/140/140 93/93/93
f 140/140/140 141/141/141 139/139/139
