g fcbg_desert_006_wall_02
v 1.7910647 0.0002439022 -0.3070898
v -1.7911968 3.6422725 -0.3070898
v -1.7911968 0.0002439022 -0.3070898
v 1.7910647 3.6422791 -0.3070898
v -1.7911906 3.6422725 0.3094399
v 1.791071 3.6422791 0.3094399
v 1.7910583 0.00020575523 -0.46348
v 1.7910583 3.916545 -0.46347356
v 1.7910583 3.916545 0.46347857
v 2.7476907 3.916545 -0.46346712
v 2.7476907 3.916545 0.46347857
v 2.7476907 0.00020575523 -0.46346712
v 2.7476907 0.00020575523 0.46347857
v 2.7476907 3.916545 0.46347857
v 1.791071 3.6422791 0.3094399
v 1.7910583 0.00020575523 0.46347857
v 1.7910647 0.0002439022 0.3094399
v 1.7910583 3.916545 0.46347857
v 2.7476907 3.916545 0.46347857
v 2.7476907 0.00020575523 0.46347857
v -2.7476892 0.00020575523 -0.46347356
v -1.7911077 0.00020575523 -0.46347356
v -1.7911077 3.916545 -0.46346712
v -2.7476892 3.916545 -0.46346712
v -2.7476892 3.916545 0.46348476
v -1.7911077 3.916545 0.46347857
v -1.7911968 3.6422725 -0.3070898
v -1.7911077 0.00020575523 -0.46347356
v -1.7911968 0.0002439022 -0.3070898
v -1.7911077 3.916545 -0.46346712
v -1.7911906 3.6422725 0.3094399
v -1.7911077 3.916545 0.46347857
v -1.7911906 3.6422725 0.3094399
v -1.7912731 0.0002439022 0.3094399
v -1.7912283 0.00020575523 0.46347857
v -1.7911077 3.916545 0.46347857
v 1.7910647 0.0002439022 0.3094399
v -1.7912731 0.0002439022 0.3094399
v -1.7911906 3.6422725 0.3094399
v 1.791071 3.6422791 0.3094399
v -2.7476892 0.00020575523 0.46347857
v -2.7476892 3.916545 0.46348476
v -1.7911077 3.916545 0.46347857
v -1.7912283 0.00020575523 0.46347857
v -2.7476892 0.00020575523 0.46347857
v -2.7476892 0.00020575523 -0.46347356
v -2.7476892 3.916545 -0.46346712
v -2.7476892 3.916545 0.46348476
vt 0.8213319 0.9988007
vt 0.77371246 0.9479289
vt 0.77371246 0.9988007
vt 0.8213319 0.9479289
vt 0.77371246 0.93422395
vt 0.8213319 0.93422395
vt 0.82444805 0.9988007
vt 0.82444805 0.9479289
vt 0.82444805 0.931728
vt 0.8368067 0.9479289
vt 0.8368067 0.931728
vt 0.8368067 0.9988007
vt 0.8516008 0.9988007
vt 0.8516008 0.9479289
vt 0.8213319 0.9479289
vt 0.82444805 0.9988007
vt 0.8213319 0.9988007
vt 0.82444805 0.9479289
vt 0.8368067 0.9479289
vt 0.8368067 0.9988007
vt 0.9190668 0.9988007
vt 0.93296844 0.9988007
vt 0.93296844 0.9479289
vt 0.9190668 0.9479289
vt 0.9190668 0.9321667
vt 0.9329533 0.9321667
vt 0.91626835 0.9479289
vt 0.9190668 0.9988007
vt 0.91626835 0.9988007
vt 0.9190668 0.9479289
vt 0.91626835 0.93404245
vt 0.9190668 0.9321667
vt 0.91626835 0.9479289
vt 0.91626835 0.9988007
vt 0.9190668 0.9988007
vt 0.9190668 0.9479289
vt 0.8213319 0.9988007
vt 0.77371246 0.9988007
vt 0.77371246 0.9479289
vt 0.8213319 0.9479289
vt 0.9190668 0.9988007
vt 0.9190668 0.9479289
vt 0.93296844 0.9479289
vt 0.93296844 0.9988007
vt 0.8516008 0.9988007
vt 0.8368067 0.9988007
vt 0.8368067 0.9479289
vt 0.8516008 0.9479289
vn -0.7064697 0.00083458424 -0.70774275
vn 0.90464205 0.30148107 -0.30121738
vn 0.706569 0.00083458424 -0.7076436
vn -0.90454274 0.30148107 -0.30151555
vn 0.90464205 0.30148107 0.30121738
vn -0.90454274 0.30148107 0.30151555
vn -0.7064697 0.00083458424 -0.70774275
vn -0.57736856 0.57736856 -0.57731366
vn -0.57736856 0.57736856 0.57731366
vn 0.5774679 0.57736856 -0.57721436
vn 0.5774679 0.57736856 0.57721436
vn 0.706569 0.00083458424 -0.7076436
vn 0.706569 0.00083458424 0.7076436
vn 0.5774679 0.57736856 0.57721436
vn -0.90454274 0.30148107 0.30151555
vn -0.7064697 0.00083458424 0.70774275
vn -0.7064697 0.00083458424 0.70774275
vn -0.57736856 0.57736856 0.57731366
vn 0.5774679 0.57736856 0.57721436
vn 0.706569 0.00083458424 0.7076436
vn -0.7064697 0.00083458424 -0.70774275
vn 0.706569 0.00083458424 -0.7076436
vn 0.5774679 0.57736856 -0.57721436
vn -0.57736856 0.57736856 -0.57731366
vn -0.57736856 0.57736856 0.57731366
vn 0.5774679 0.57736856 0.57721436
vn 0.90464205 0.30148107 -0.30121738
vn 0.706569 0.00083458424 -0.7076436
vn 0.706569 0.00083458424 -0.7076436
vn 0.5774679 0.57736856 -0.57721436
vn 0.90464205 0.30148107 0.30121738
vn 0.5774679 0.57736856 0.57721436
vn 0.90464205 0.30148107 0.30121738
vn 0.706569 0.00083458424 0.7076436
vn 0.706569 0.00083458424 0.7076436
vn 0.5774679 0.57736856 0.57721436
vn -0.7064697 0.00083458424 0.70774275
vn 0.706569 0.00083458424 0.7076436
vn 0.90464205 0.30148107 0.30121738
vn -0.90454274 0.30148107 0.30151555
vn -0.7064697 0.00083458424 0.70774275
vn -0.57736856 0.57736856 0.57731366
vn 0.5774679 0.57736856 0.57721436
vn 0.706569 0.00083458424 0.7076436
vn -0.7064697 0.00083458424 0.70774275
vn -0.7064697 0.00083458424 -0.70774275
vn -0.57736856 0.57736856 -0.57731366
vn -0.57736856 0.57736856 0.57731366
g fcbg_desert_006_wall_02_0
f 3/3/3 2/2/2 1/1/1
f 2/2/2 4/4/4 1/1/1
f 2/2/2 5/5/5 4/4/4
f 5/5/5 6/6/6 4/4/4
f 7/7/7 1/1/1 4/4/4
f 8/8/8 4/4/4 6/6/6
f 8/8/8 7/7/7 4/4/4
f 9/9/9 8/8/8 6/6/6
f 8/8/8 10/10/10 7/7/7
f 10/10/10 8/8/8 9/9/9
f 11/11/11 10/10/10 9/9/9
f 10/10/10 12/12/12 7/7/7
f 12/12/12 10/10/10 13/13/13
f 10/10/10 14/14/14 13/13/13
f 17/17/17 16/16/16 15/15/15
f 16/16/16 18/18/18 15/15/15
f 19/19/19 18/18/18 16/16/16
f 20/20/20 19/19/19 16/16/16
f 23/23/23 22/22/22 21/21/21
f 24/24/24 23/23/23 21/21/21
f 23/23/23 24/24/24 25/25/25
f 26/26/26 23/23/23 25/25/25
f 29/29/29 28/28/28 27/27/27
f 28/28/28 30/30/30 27/27/27
f 31/31/31 27/27/27 30/30/30
f 32/32/32 31/31/31 30/30/30
f 35/35/35 34/34/34 33/33/33
f 36/36/36 35/35/35 33/33/33
f 39/39/39 38/38/38 37/37/37
f 40/40/40 39/39/39 37/37/37
f 43/43/43 42/42/42 41/41/41
f 44/44/44 43/43/43 41/41/41
f 47/47/47 46/46/46 45/45/45
f 48/48/48 47/47/47 45/45/45
