g fcbg_arkcity_002_garbage_03
v 1.5369623 0.0055947304 0.43650413
v 0.07691836 -0.046646833 -0.6781299
v 1.5073874 -0.056251287 0.48273373
v 0.09888816 0.014966965 -0.72946835
v 1.4975247 0.060390472 0.48594594
v 0.06259847 0.069859505 -0.67791057
v 1.4679499 -0.0014491081 0.53216934
v 0.04063511 0.008245707 -0.6265724
v 1.5073874 -0.056251287 0.48273373
v 0.07691836 -0.046646833 -0.6781299
v 1.4679499 -0.0014491081 0.53216934
v 1.4975247 0.060390472 0.48594594
v 1.5369623 0.0055947304 0.43650413
v 1.5073874 -0.056251287 0.48273373
v -2.1123638 -0.009724855 -1.9926733
v -2.0760741 -0.064617395 -2.044231
v -2.0541043 -0.0030035973 -2.0955691
v -2.090394 0.051888704 -2.0440116
v 0.07691836 -0.046646833 -0.6781299
v -2.0760741 -0.064617395 -2.044231
v -2.1123638 -0.009724855 -1.9926733
v 0.04063511 0.008245707 -0.6265724
v -2.090394 0.051888704 -2.0440116
v 0.06259847 0.069859505 -0.67791057
v -2.0541043 -0.0030035973 -2.0955691
v 0.09888816 0.014966965 -0.72946835
v -2.0760741 -0.064617395 -2.044231
v 0.07691836 -0.046646833 -0.6781299
v -0.7771535 0.35613918 -1.121166
v -0.77508307 0.27754164 -1.1217208
v -0.63763237 0.28117943 -1.1240234
v -0.6397033 0.35977054 -1.1234689
v -0.5772507 0.109812975 1.7503119
v -0.5751803 0.031221867 1.7497573
v -0.71262455 0.027570963 1.753963
v -0.714695 0.10616207 1.7545176
v -0.8083668 -0.001707077 0.30863857
v -0.71262455 0.027570963 1.753963
v -0.80629635 -0.08030462 0.30809045
v -0.78834486 0.046122313 -0.40681505
v -0.79041576 0.12471342 -0.4062605
v -0.77508307 0.27754164 -1.1217208
v -0.7771535 0.35613918 -1.121166
v -0.6397033 0.35977054 -1.1234689
v -0.65297127 0.12835765 -0.40904045
v -0.63763237 0.28117943 -1.1240234
v -0.65090084 0.049760103 -0.40959525
v -0.67091656 0.0019307137 0.30538774
v -0.66884565 -0.076660395 0.30483294
v -0.5751803 0.031221867 1.7497573
v -1.6478677 0.35413957 1.7815704
v -1.6500092 0.27554202 1.7815704
v -1.7857695 0.27924442 1.7599683
v -1.7836218 0.35783553 1.7599683
v -1.0766048 -0.037906647 -0.92220473
v -1.0787463 -0.11650419 -0.92220473
v -0.942657 -0.12021303 -0.90247965
v -0.9405155 -0.041621923 -0.90247965
v -1.1819906 -0.023799658 0.53048563
v -0.942657 -0.12021303 -0.90247965
v -1.1841321 -0.1023972 0.53048563
v -1.4601169 0.15272069 1.1557832
v -1.4579754 0.23131824 1.1557832
v -1.6500092 0.27554202 1.7815704
v -1.6478677 0.35413957 1.7815704
v -1.3179126 -0.020097017 0.5098252
v -1.5938201 0.23502088 1.1346517
v -1.7836218 0.35783553 1.7599683
v -1.7857695 0.27924442 1.7599683
v -1.5959616 0.15642333 1.1346517
v -1.320054 -0.098688126 0.5098252
v -1.0787463 -0.11650419 -0.92220473
v -0.5029621 -0.060186148 -0.46453285
v -3.3702407 -0.3593986 -0.6755755
v -0.49913692 -0.13871908 -0.46453285
v -3.3740659 -0.28086567 -0.6755755
v -0.51452756 -0.060747147 -0.32752752
v -3.3818388 -0.28123975 -0.5382347
v -3.3702407 -0.3593986 -0.6755755
v -3.3780136 -0.35977268 -0.5382347
v -0.5107024 -0.13928032 -0.32752752
v -3.3780136 -0.35977268 -0.5382347
v 2.378514 0.028506279 -0.3744409
v 2.382339 -0.050026655 -0.3744409
v 2.3745666 -0.050400972 -0.23710632
v 2.3707414 0.0281322 -0.23710632
v -0.51452756 -0.060747147 -0.32752752
v 2.3745666 -0.050400972 -0.23710632
v -0.5107024 -0.13928032 -0.32752752
v -0.5029621 -0.060186148 -0.46453285
v -0.49913692 -0.13871908 -0.46453285
v 2.382339 -0.050026655 -0.3744409
v -0.32995057 -0.0077188015 -0.15903783
v -3.2232695 -0.0074801445 -0.057302713
v -0.3320923 -0.08630991 -0.15903783
v -3.221128 0.071110964 -0.057302713
v -0.3295443 -0.007725239 -0.021542072
v -3.2169094 0.07100129 0.08019304
v -3.2232695 -0.0074801445 -0.057302713
v -3.2190576 -0.0075962543 0.08019304
v -0.33168578 -0.08632302 -0.021542072
v -3.2190576 -0.0075962543 0.08019304
v 2.557408 -0.08644557 -0.26076627
v 2.5552666 -0.16503668 -0.26076627
v 2.5594788 -0.16515279 -0.12327051
v 2.5616267 -0.086555004 -0.12327051
v -0.3295443 -0.007725239 -0.021542072
v 2.5594788 -0.16515279 -0.12327051
v -0.33168578 -0.08632302 -0.021542072
v -0.32995057 -0.0077188015 -0.15903783
v -0.3320923 -0.08630991 -0.15903783
v 2.5552666 -0.16503668 -0.26076627
v 0.49026346 -0.15172315 0.5083158
v -2.4030557 -0.15148449 0.5094187
v 0.488122 -0.23032069 0.5083158
v -2.4009142 -0.07289338 0.5094187
v 0.49066973 -0.15172958 0.64581156
v -2.3966956 -0.073002815 0.6469145
v -2.4030557 -0.15148449 0.5094187
v -2.398837 -0.1516006 0.6469145
v 0.48852825 -0.23032713 0.64581156
v -2.398837 -0.1516006 0.6469145
v 3.3776286 -0.23044968 0.36211848
v 3.3754807 -0.30904722 0.36211848
v 3.3796992 -0.3091569 0.49961424
v 3.3818407 -0.23055935 0.49961424
v 0.49066973 -0.15172958 0.64581156
v 3.3796992 -0.3091569 0.49961424
v 0.48852825 -0.23032713 0.64581156
v 0.49026346 -0.15172315 0.5083158
v 0.488122 -0.23032069 0.5083158
v 3.3754807 -0.30904722 0.36211848
v 0.3800397 0.14260006 0.34521222
v -2.4784732 -0.08883214 0.04534173
v 0.38406467 0.06408 0.34538627
v -2.4824982 -0.010311842 0.045167446
v 0.36154008 0.14195514 0.48146296
v -2.4972305 -0.010763407 0.1819408
v -2.4784732 -0.08883214 0.04534173
v -2.4932055 -0.089283705 0.18210864
v 0.36556506 0.06343484 0.4816308
v -2.4932055 -0.089283705 0.18210864
v 2.8455777 0.2198174 0.7845521
v 2.8496027 0.1412971 0.78472614
v 2.83487 0.14084554 0.9214997
v 2.830845 0.21936584 0.9213257
v 0.36154008 0.14195514 0.48146296
v 2.83487 0.14084554 0.9214997
v 0.36556506 0.06343484 0.4816308
v 0.3800397 0.14260006 0.34521222
v 0.38406467 0.06408 0.34538627
v 2.8496027 0.1412971 0.78472614
v -3.2468004 -0.27782106 0.6364455
v -3.2342415 -0.34663987 0.60056233
v -3.2063565 -0.2803948 0.48327565
v -3.2189155 -0.21157598 0.51915884
v -1.8619742 0.0008149147 1.197762
v -1.8494153 -0.06800389 1.1618786
v -3.2342415 -0.34663987 0.60056233
v -0.472497 -0.19091535 1.344933
v -0.48505592 -0.12209654 1.3808165
v -1.8322573 0.06711817 1.0810103
v -3.2063565 -0.2803948 0.48327565
v -0.45351362 -0.055741787 1.2646003
v -1.819705 -0.0017006397 1.0451207
v -0.4409547 -0.124560595 1.2287107
v 2.3547444 0.077922344 1.9782934
v 2.3673034 0.009103537 1.9424033
v 2.3394184 -0.05714798 2.0596905
v 2.3268595 0.011670828 2.09558
v -0.48505592 -0.12209654 1.3808165
v 2.3394184 -0.05714798 2.0596905
v -0.472497 -0.19091535 1.344933
v -0.45351362 -0.055741787 1.2646003
v -0.4409547 -0.124560595 1.2287107
v 2.3673034 0.009103537 1.9424033
vt 0.19856608 0.99532974
vt 0.30632672 0.9990802
vt 0.19856608 0.9990802
vt 0.30632672 0.99532974
vt 0.19856608 0.9915489
vt 0.30632672 0.9915489
vt 0.19856608 0.9878744
vt 0.30632672 0.9878744
vt 0.19856608 0.98410875
vt 0.30632672 0.98410875
vt 0.19454233 0.9915489
vt 0.19856608 0.9915489
vt 0.19856608 0.99532974
vt 0.19454233 0.99532974
vt 0.19454233 0.9915489
vt 0.19454233 0.99532974
vt 0.19856608 0.99532974
vt 0.19856608 0.9915489
vt 0.30632672 0.98410875
vt 0.19856608 0.98410875
vt 0.19856608 0.9878744
vt 0.30632672 0.9878744
vt 0.19856608 0.9915489
vt 0.30632672 0.9915489
vt 0.19856608 0.99532974
vt 0.30632672 0.99532974
vt 0.19856608 0.9990802
vt 0.30632672 0.9990802
vt 0.12711033 0.96637386
vt 0.12316249 0.96637386
vt 0.12316249 0.9759094
vt 0.12711033 0.9759094
vt 0.12711033 0.9759094
vt 0.12316249 0.9759094
vt 0.12316249 0.96637386
vt 0.12711033 0.96637386
vt 0.21760678 0.96637386
vt 0.12711033 0.9614391
vt 0.21760678 0.9614391
vt 0.26309797 0.9614391
vt 0.26309797 0.96637386
vt 0.30655447 0.9614391
vt 0.30655447 0.96637386
vt 0.30655447 0.9759094
vt 0.2630676 0.9759094
vt 0.30655447 0.9801913
vt 0.26308277 0.9801913
vt 0.21760678 0.9759094
vt 0.21760678 0.9801913
vt 0.12711033 0.9801913
vt 0.12711033 0.96637386
vt 0.12316249 0.96637386
vt 0.12316249 0.9759094
vt 0.12711033 0.9759094
vt 0.12736845 0.95135695
vt 0.12326878 0.95135695
vt 0.12326878 0.9420188
vt 0.12736845 0.9420188
vt 0.21859375 0.9420188
vt 0.12736845 0.9366892
vt 0.21859375 0.9366892
vt 0.26443416 0.9366892
vt 0.26443416 0.9420188
vt 0.30655447 0.9366892
vt 0.30655447 0.9420188
vt 0.21857856 0.95135695
vt 0.26441896 0.95135695
vt 0.30655447 0.95135695
vt 0.30655447 0.9566865
vt 0.26441896 0.9566865
vt 0.21857856 0.9566865
vt 0.12736845 0.9566865
vt 0.30655447 0.9759094
vt 0.12711033 0.9801913
vt 0.30655447 0.9801913
vt 0.12711033 0.9759094
vt 0.30655447 0.96637386
vt 0.12711033 0.96637386
vt 0.12316249 0.9759094
vt 0.12316249 0.96637386
vt 0.30655447 0.9614391
vt 0.12711033 0.9614391
vt 0.12711033 0.9759094
vt 0.12316249 0.9759094
vt 0.12316249 0.96637386
vt 0.12711033 0.96637386
vt 0.30655447 0.96637386
vt 0.12711033 0.9614391
vt 0.30655447 0.9614391
vt 0.30655447 0.9759094
vt 0.30655447 0.9801913
vt 0.12711033 0.9801913
vt 0.30655447 0.95134175
vt 0.12736845 0.95667136
vt 0.30655447 0.95667136
vt 0.12736845 0.95134175
vt 0.30655447 0.9420036
vt 0.12736845 0.9420036
vt 0.12326878 0.95134175
vt 0.12326878 0.9420036
vt 0.30655447 0.93667406
vt 0.12736845 0.93667406
vt 0.12736845 0.95134175
vt 0.12326878 0.95134175
vt 0.12326878 0.9420036
vt 0.12736845 0.9420036
vt 0.30655447 0.9420036
vt 0.12736845 0.93667406
vt 0.30655447 0.93667406
vt 0.30655447 0.95134175
vt 0.30655447 0.95667136
vt 0.12736845 0.95667136
vt 0.30655447 0.95135695
vt 0.12736845 0.9566865
vt 0.30655447 0.9566865
vt 0.12736845 0.95135695
vt 0.30655447 0.9420188
vt 0.12736845 0.9420188
vt 0.12326878 0.95135695
vt 0.12326878 0.9420188
vt 0.30655447 0.9366892
vt 0.12736845 0.9366892
vt 0.12736845 0.95135695
vt 0.12326878 0.95135695
vt 0.12326878 0.9420188
vt 0.12736845 0.9420188
vt 0.30655447 0.9420188
vt 0.12736845 0.9366892
vt 0.30655447 0.9366892
vt 0.30655447 0.95135695
vt 0.30655447 0.9566865
vt 0.12736845 0.9566865
vt 0.30655447 0.9759094
vt 0.12711033 0.9801913
vt 0.30655447 0.9801913
vt 0.12711033 0.9759094
vt 0.30655447 0.96637386
vt 0.12711033 0.96637386
vt 0.12316249 0.9759094
vt 0.12316249 0.96637386
vt 0.30655447 0.9614391
vt 0.12711033 0.9614391
vt 0.12711033 0.9759094
vt 0.12316249 0.9759094
vt 0.12316249 0.96637386
vt 0.12711033 0.96637386
vt 0.30655447 0.96637386
vt 0.12711033 0.9614391
vt 0.30655447 0.9614391
vt 0.30655447 0.9759094
vt 0.30655447 0.9801913
vt 0.12711033 0.9801913
vt 0.12736845 0.9420188
vt 0.12326878 0.9420188
vt 0.12326878 0.95135695
vt 0.12736845 0.95135695
vt 0.2185482 0.9420188
vt 0.2185482 0.9366892
vt 0.12736845 0.9366892
vt 0.30655447 0.9366892
vt 0.30655447 0.9420188
vt 0.21856338 0.95135695
vt 0.12736845 0.9566865
vt 0.30655447 0.95135695
vt 0.21856338 0.9566865
vt 0.30655447 0.9566865
vt 0.12736845 0.95135695
vt 0.12326878 0.95135695
vt 0.12326878 0.9420188
vt 0.12736845 0.9420188
vt 0.30655447 0.9420188
vt 0.12736845 0.9366892
vt 0.30655447 0.9366892
vt 0.30655447 0.95135695
vt 0.30655447 0.9566865
vt 0.12736845 0.9566865
vn 0.22959024 -0.81577843 -0.5308426
vn -0.44257218 -0.591073 0.6743609
vn -0.4562499 -0.55590165 0.69484484
vn 0.17487937 -0.8021007 -0.57100934
vn 0.4445259 0.59498113 -0.6696224
vn 0.45429575 0.55980986 -0.692985
vn -0.25108403 0.78842324 0.56155646
vn -0.18464941 0.7962391 0.57611454
vn -0.4562499 -0.55590165 0.69484484
vn -0.44257218 -0.591073 0.6743609
vn 0.89589083 -0.096720934 0.4336181
vn 0.89589083 -0.096720934 0.4336181
vn 0.89589083 -0.096720934 0.4336181
vn 0.89589083 -0.096720934 0.4336181
vn -0.92910844 0.15729398 -0.33468807
vn -0.92910844 0.15729398 -0.33468807
vn -0.92910844 0.15729398 -0.33468807
vn -0.92910844 0.15729398 -0.33468807
vn -0.44257218 -0.591073 0.6743609
vn -0.44257218 -0.59302694 0.67264324
vn -0.11626083 0.81773263 0.56373465
vn -0.18464941 0.7962391 0.57611454
vn 0.44843382 0.55590194 -0.69991434
vn 0.45429575 0.55980986 -0.692985
vn 0.15338576 -0.76692945 -0.6231308
vn 0.17487937 -0.8021007 -0.57100934
vn -0.44257218 -0.59302694 0.67264324
vn -0.44257218 -0.591073 0.6743609
vn -0.5773955 0.6594618 -0.48137778
vn -0.7610678 -0.014654577 -0.64850676
vn 0.7727913 0.024424613 -0.6341901
vn 0.55003977 0.68095535 -0.48348325
vn 0.5852111 0.6106128 0.5335541
vn 0.7571596 0.014654815 0.65306556
vn -0.6887712 -0.022470415 0.7246305
vn -0.55980986 0.58521134 0.586635
vn -0.76302177 0.6457841 0.027581409
vn -0.6887712 -0.022470415 0.7246305
vn -0.999451 -0.026378334 0.020048
vn -0.999451 -0.026378334 -0.020048
vn -0.7415282 0.6555539 0.14277604
vn -0.7610678 -0.014654577 -0.64850676
vn -0.5773955 0.6594618 -0.48137778
vn 0.55003977 0.68095535 -0.48348325
vn 0.7044027 0.68486327 0.18649164
vn 0.7727913 0.024424613 -0.6341901
vn 0.99945074 0.026378572 0.020059574
vn 0.7080826 0.7061296 -0
vn 0.99945074 0.026378572 -0.020059574
vn 0.7571596 0.014654815 0.65306556
vn 0.44843382 0.6301524 0.63388884
vn 0.5676254 -0.014654577 0.8231565
vn -0.88025934 0.024424613 0.4738638
vn -0.66141576 0.6399222 0.39118895
vn -0.46406573 0.58911926 -0.66149944
vn -0.5871653 0.016608775 -0.80929667
vn 0.80600864 -0.022470415 -0.5914771
vn 0.67704725 0.55590194 -0.48226553
vn 0.77669924 0.6164747 0.12921786
vn 0.80600864 -0.022470415 -0.5914771
vn 0.96037155 -0.026378334 0.27747193
vn 0.9310621 -0.024424374 0.36404228
vn 0.7041706 0.71003085 -0
vn 0.5676254 -0.014654577 0.8231565
vn 0.44843382 0.6301524 0.63388884
vn -0.6360143 0.6887712 -0.34796563
vn -0.5969351 0.6887712 -0.4114156
vn -0.66141576 0.6399222 0.39118895
vn -0.88025934 0.024424613 0.4738638
vn -0.9310624 0.024424613 -0.36404154
vn -0.9603718 0.026378572 -0.27747104
vn -0.5871653 0.016608775 -0.80929667
vn -0.000977099 0.7180807 -0.69595915
vn -0.6653237 -0.032240212 -0.74585855
vn 0.051779807 0.0029310584 -0.99865425
vn -0.5734876 0.54027027 -0.6158084
vn -0.07522756 0.704403 0.70580256
vn -0.64773804 0.5383163 0.5391205
vn -0.6653237 -0.032240212 -0.74585855
vn -0.7571599 -0.03614813 0.65222865
vn -0.051780045 -0.00293082 0.9986542
vn -0.7571599 -0.03614813 0.65222865
vn 0.5793492 0.59888905 -0.5528891
vn 0.73957396 0.03614837 -0.6721039
vn 0.6790012 0.03224045 0.7334289
vn 0.52659225 0.59888905 0.60335106
vn -0.07522756 0.704403 0.70580256
vn 0.6790012 0.03224045 0.7334289
vn -0.051780045 -0.00293082 0.9986542
vn -0.000977099 0.7180807 -0.69595915
vn 0.051779807 0.0029310584 -0.99865425
vn 0.73957396 0.03614837 -0.6721039
vn -0.004885018 0.7083109 -0.70588374
vn -0.72980446 0.020516694 -0.68334806
vn -0.03419441 0.000977099 -0.99941474
vn -0.57934946 0.5930272 -0.5591717
vn 0.04396397 0.70635694 0.7064892
vn -0.5422242 0.5930272 0.59524083
vn -0.72980446 0.020516694 -0.68334806
vn -0.6829093 0.018562734 0.7302673
vn 0.03419417 -0.0009768605 0.99941474
vn -0.6829093 0.018562734 0.7302673
vn 0.5734873 0.5617638 -0.5962665
vn 0.68290913 -0.018562496 -0.73026747
vn 0.72980416 -0.020516455 0.68334836
vn 0.6106126 0.5617638 0.5581879
vn 0.04396397 0.70635694 0.7064892
vn 0.72980416 -0.020516455 0.68334836
vn 0.03419417 -0.0009768605 0.99941474
vn -0.004885018 0.7083109 -0.70588374
vn -0.03419441 0.000977099 -0.99941474
vn 0.68290913 -0.018562496 -0.73026747
vn 0.0009768605 0.7122188 -0.7019568
vn -0.7180807 0.020516694 -0.6956574
vn -0.026378572 0.000977099 -0.99965155
vn -0.5715336 0.5910732 -0.56919396
vn 0.03614813 0.70049506 0.71274114
vn -0.551994 0.59498113 0.5842089
vn -0.7180807 0.020516694 -0.6956574
vn -0.69658715 0.018562734 0.717232
vn 0.026378334 -0.0009768605 0.99965155
vn -0.69658715 0.018562734 0.717232
vn 0.56957936 0.5617638 -0.6000006
vn 0.67704725 -0.018562496 -0.73570544
vn 0.73566604 -0.020516455 0.67703366
vn 0.6145205 0.5617638 0.55388266
vn 0.03614813 0.70049506 0.71274114
vn 0.73566604 -0.020516455 0.67703366
vn 0.026378334 -0.0009768605 0.99965155
vn 0.0009768605 0.7122188 -0.7019568
vn -0.026378572 0.000977099 -0.99965155
vn 0.67704725 -0.018562496 -0.73570544
vn 0.0693655 0.704403 -0.7064027
vn -0.62819844 -0.03419417 -0.7773014
vn 0.13970804 0.004885018 -0.99018073
vn -0.5422242 0.5480861 -0.636863
vn -0.12798458 0.7141728 0.6881694
vn -0.6653237 0.5441782 0.51109153
vn -0.62819844 -0.03419417 -0.7773014
vn -0.7766995 -0.03810209 0.6287179
vn -0.13970834 -0.0048847795 0.9901807
vn -0.7766995 -0.03810209 0.6287179
vn 0.62624425 0.6067049 -0.48961952
vn 0.8021007 0.04005629 -0.5958439
vn 0.6047507 0.03224045 0.795762
vn 0.4660195 0.5930272 0.65661603
vn -0.12798458 0.7141728 0.6881694
vn 0.6047507 0.03224045 0.795762
vn -0.13970834 -0.0048847795 0.9901807
vn 0.0693655 0.704403 -0.7064027
vn 0.13970804 0.004885018 -0.99018073
vn 0.8021007 0.04005629 -0.5958439
vn -0.81187075 0.14947814 0.56437767
vn -0.8665816 -0.3448739 0.36069143
vn -0.57544154 0.29407126 -0.76314425
vn -0.55004007 0.7141728 -0.43291235
vn -0.25889987 0.3155648 0.9129018
vn -0.20028108 -0.4816512 0.85317034
vn -0.8665816 -0.3448739 0.36069143
vn -0.17683357 -0.47969723 0.8594304
vn -0.17487961 0.2569459 0.9504714
vn 0.010746658 0.97600347 -0.21748956
vn -0.57544154 0.29407126 -0.76314425
vn 0.07522738 0.950602 -0.3011589
vn 0.20028085 0.48165137 -0.8531703
vn 0.17683333 0.4796974 -0.85943025
vn 0.5813032 0.80796283 -0.096346505
vn 0.8235943 0.37222964 -0.42794576
vn 0.5441779 -0.30774868 0.7804878
vn 0.35268974 0.253038 0.9008783
vn -0.17487961 0.2569459 0.9504714
vn 0.5441779 -0.30774868 0.7804878
vn -0.17683357 -0.47969723 0.8594304
vn 0.07522738 0.950602 -0.3011589
vn 0.17683333 0.4796974 -0.85943025
vn 0.8235943 0.37222964 -0.42794576
g fcbg_arkcity_002_garbage_03_0
f 3/3/3 2/2/2 1/1/1
f 2/2/2 4/4/4 1/1/1
f 1/1/1 4/4/4 5/5/5
f 4/4/4 6/6/6 5/5/5
f 5/5/5 6/6/6 7/7/7
f 6/6/6 8/8/8 7/7/7
f 7/7/7 8/8/8 9/9/9
f 8/8/8 10/10/10 9/9/9
f 13/13/13 12/12/12 11/11/11
f 14/14/14 13/13/13 11/11/11
f 17/17/17 16/16/16 15/15/15
f 18/18/18 17/17/17 15/15/15
f 21/21/21 20/20/20 19/19/19
f 22/22/22 21/21/21 19/19/19
f 23/23/23 21/21/21 22/22/22
f 24/24/24 23/23/23 22/22/22
f 25/25/25 23/23/23 24/24/24
f 26/26/26 25/25/25 24/24/24
f 27/27/27 25/25/25 26/26/26
f 28/28/28 27/27/27 26/26/26
f 31/31/31 30/30/30 29/29/29
f 32/32/32 31/31/31 29/29/29
f 35/35/35 34/34/34 33/33/33
f 36/36/36 35/35/35 33/33/33
f 37/37/37 36/36/36 33/33/33
f 38/38/38 36/36/36 37/37/37
f 39/39/39 38/38/38 37/37/37
f 40/40/40 39/39/39 37/37/37
f 41/41/41 40/40/40 37/37/37
f 42/42/42 40/40/40 41/41/41
f 43/43/43 42/42/42 41/41/41
f 43/43/43 41/41/41 44/44/44
f 41/41/41 45/45/45 44/44/44
f 41/41/41 37/37/37 45/45/45
f 46/46/46 44/44/44 45/45/45
f 47/47/47 46/46/46 45/45/45
f 37/37/37 48/48/48 45/45/45
f 47/47/47 45/45/45 48/48/48
f 48/48/48 37/37/37 33/33/33
f 49/49/49 47/47/47 48/48/48
f 49/49/49 48/48/48 33/33/33
f 50/50/50 49/49/49 33/33/33
f 53/53/53 52/52/52 51/51/51
f 54/54/54 53/53/53 51/51/51
f 57/57/57 56/56/56 55/55/55
f 58/58/58 57/57/57 55/55/55
f 59/59/59 58/58/58 55/55/55
f 60/60/60 58/58/58 59/59/59
f 61/61/61 60/60/60 59/59/59
f 62/62/62 61/61/61 59/59/59
f 63/63/63 62/62/62 59/59/59
f 64/64/64 62/62/62 63/63/63
f 65/65/65 64/64/64 63/63/63
f 66/66/66 59/59/59 55/55/55
f 63/63/63 59/59/59 66/66/66
f 65/65/65 63/63/63 67/67/67
f 67/67/67 63/63/63 66/66/66
f 68/68/68 65/65/65 67/67/67
f 69/69/69 68/68/68 67/67/67
f 70/70/70 69/69/69 67/67/67
f 70/70/70 67/67/67 66/66/66
f 71/71/71 70/70/70 66/66/66
f 71/71/71 66/66/66 55/55/55
f 72/72/72 71/71/71 55/55/55
f 75/75/75 74/74/74 73/73/73
f 74/74/74 76/76/76 73/73/73
f 77/77/77 73/73/73 76/76/76
f 78/78/78 77/77/77 76/76/76
f 76/76/76 79/79/79 78/78/78
f 79/79/79 80/80/80 78/78/78
f 81/81/81 77/77/77 78/78/78
f 82/82/82 81/81/81 78/78/78
f 85/85/85 84/84/84 83/83/83
f 86/86/86 85/85/85 83/83/83
f 87/87/87 86/86/86 83/83/83
f 88/88/88 86/86/86 87/87/87
f 89/89/89 88/88/88 87/87/87
f 90/90/90 87/87/87 83/83/83
f 91/91/91 90/90/90 83/83/83
f 92/92/92 91/91/91 83/83/83
f 95/95/95 94/94/94 93/93/93
f 94/94/94 96/96/96 93/93/93
f 97/97/97 93/93/93 96/96/96
f 98/98/98 97/97/97 96/96/96
f 96/96/96 99/99/99 98/98/98
f 99/99/99 100/100/100 98/98/98
f 101/101/101 97/97/97 98/98/98
f 102/102/102 101/101/101 98/98/98
f 105/105/105 104/104/104 103/103/103
f 106/106/106 105/105/105 103/103/103
f 107/107/107 106/106/106 103/103/103
f 108/108/108 106/106/106 107/107/107
f 109/109/109 108/108/108 107/107/107
f 110/110/110 107/107/107 103/103/103
f 111/111/111 110/110/110 103/103/103
f 112/112/112 111/111/111 103/103/103
f 115/115/115 114/114/114 113/113/113
f 114/114/114 116/116/116 113/113/113
f 117/117/117 113/113/113 116/116/116
f 118/118/118 117/117/117 116/116/116
f 116/116/116 119/119/119 118/118/118
f 119/119/119 120/120/120 118/118/118
f 121/121/121 117/117/117 118/118/118
f 122/122/122 121/121/121 118/118/118
f 125/125/125 124/124/124 123/123/123
f 126/126/126 125/125/125 123/123/123
f 127/127/127 126/126/126 123/123/123
f 128/128/128 126/126/126 127/127/127
f 129/129/129 128/128/128 127/127/127
f 130/130/130 127/127/127 123/123/123
f 131/131/131 130/130/130 123/123/123
f 132/132/132 131/131/131 123/123/123
f 135/135/135 134/134/134 133/133/133
f 134/134/134 136/136/136 133/133/133
f 137/137/137 133/133/133 136/136/136
f 138/138/138 137/137/137 136/136/136
f 136/136/136 139/139/139 138/138/138
f 139/139/139 140/140/140 138/138/138
f 141/141/141 137/137/137 138/138/138
f 142/142/142 141/141/141 138/138/138
f 145/145/145 144/144/144 143/143/143
f 146/146/146 145/145/145 143/143/143
f 147/147/147 146/146/146 143/143/143
f 148/148/148 146/146/146 147/147/147
f 149/149/149 148/148/148 147/147/147
f 150/150/150 147/147/147 143/143/143
f 151/151/151 150/150/150 143/143/143
f 152/152/152 151/151/151 143/143/143
f 155/155/155 154/154/154 153/153/153
f 156/156/156 155/155/155 153/153/153
f 153/153/153 157/157/157 156/156/156
f 158/158/158 157/157/157 153/153/153
f 159/159/159 158/158/158 153/153/153
f 158/158/158 160/160/160 157/157/157
f 160/160/160 161/161/161 157/157/157
f 157/157/157 162/162/162 156/156/156
f 157/157/157 161/161/161 162/162/162
f 163/163/163 156/156/156 162/162/162
f 161/161/161 164/164/164 162/162/162
f 165/165/165 163/163/163 162/162/162
f 165/165/165 162/162/162 164/164/164
f 166/166/166 165/165/165 164/164/164
f 169/169/169 168/168/168 167/167/167
f 170/170/170 169/169/169 167/167/167
f 171/171/171 170/170/170 167/167/167
f 172/172/172 170/170/170 171/171/171
f 173/173/173 172/172/172 171/171/171
f 174/174/174 171/171/171 167/167/167
f 175/175/175 174/174/174 167/167/167
f 176/176/176 175/175/175 167/167/167
