g fcbg_cityforest_007_metal_01
v -0.8827388 0.19987512 -0.9144479
v -0.87977386 0.24516356 -0.9139258
v -0.89509654 0.24567819 -0.8717923
v -0.8980541 0.20039225 -0.87231445
v -0.31664836 0.07111907 -0.67314017
v -0.87977386 0.24516356 -0.9139258
v -0.32267857 -0.021049023 -0.67420185
v 0.6623264 0.0029765368 -0.31640565
v 0.65629876 -0.08919406 -0.31746727
v -0.32267857 -0.021049023 -0.67420185
v -0.8827388 0.19987512 -0.9144479
v -0.35385084 -0.019999862 -0.588451
v 0.65629876 -0.08919406 -0.31746727
v 0.6251289 -0.088142395 -0.23171401
v -0.89509654 0.24567819 -0.8717923
v -0.35385084 -0.019999862 -0.588451
v -0.8980541 0.20039225 -0.87231445
v -0.34782326 0.072170734 -0.5873869
v -0.87977386 0.24516356 -0.9139258
v 0.6251289 -0.088142395 -0.23171401
v -0.31664836 0.07111907 -0.67314017
v 0.63115156 0.0040256977 -0.23064983
v 0.6623264 0.0029765368 -0.31640565
v -0.6393454 -0.098786235 1.2937622
v -0.6593592 -0.04266405 1.2879019
v -0.60504806 -0.022482872 1.3038015
v -0.58503425 -0.07860756 1.3096619
v -0.6078658 -0.07463825 0.66752267
v -0.6593592 -0.04266405 1.2879019
v -0.5858935 -0.1333834 0.6746094
v -0.58503425 -0.07860756 1.3096619
v -0.36114252 -0.06678963 0.057609916
v -0.52750814 -0.1122005 0.6914909
v -0.33958232 -0.1272558 0.063922405
v -0.09211707 -0.0078122616 -1.3096614
v -0.28106713 -0.10551584 0.081053495
v -0.070554495 -0.06827593 -1.303349
v -0.012039304 -0.046538472 -1.2862203
v -0.36114252 -0.06678963 0.057609916
v -0.09211707 -0.0078122616 -1.3096614
v -0.033599377 0.013927698 -1.2925327
v -0.3026272 -0.045049667 0.074741125
v -0.012039304 -0.046538472 -1.2862203
v -0.28106713 -0.10551584 0.081053495
v -0.6078658 -0.07463825 0.66752267
v -0.52750814 -0.1122005 0.6914909
v -0.5495254 -0.053645253 0.68431914
v -0.6593592 -0.04266405 1.2879019
v -0.58503425 -0.07860756 1.3096619
v -0.60504806 -0.022482872 1.3038015
v -0.7203901 0.14007592 -0.18671286
v -0.72234845 0.17988372 -0.19355476
v -0.7136378 0.18690062 -0.15520823
v -0.71168447 0.1470977 -0.14836621
v -0.45784688 0.12033689 -0.31290096
v -0.72234845 0.17988372 -0.19355476
v -0.45487678 0.05992806 -0.30251682
v -0.18195713 0.06666267 -0.35093027
v -0.1779728 -0.014351964 -0.337004
v 0.72484094 0.075562954 -0.5584802
v 0.72882026 -0.005449176 -0.544554
v -0.45487678 0.05992806 -0.30251682
v -0.7203901 0.14007592 -0.18671286
v -0.44166493 0.07057953 -0.24432135
v -0.1779728 -0.014351964 -0.337004
v -0.16024709 -6.592274E-05 -0.25895953
v 0.72882026 -0.005449176 -0.544554
v 0.7465434 0.008836865 -0.46650946
v -0.8000481 -0.23800397 0.5219077
v -0.8000481 -0.18963301 0.5219077
v -0.8083465 -0.18963051 0.5689647
v -0.8083465 -0.23800397 0.5689647
v -0.551916 -0.19536579 0.65157306
v -0.8000481 -0.18963301 0.5219077
v -0.551916 -0.24567771 0.65157056
v -0.8083465 -0.23800397 0.5689647
v -0.28159916 -0.067524076 0.65542495
v -0.5605465 -0.24567771 0.7005136
v -0.28159916 -0.119769335 0.65542495
v -0.00050103664 -0.006545782 0.5981412
v -0.2905619 -0.11977184 0.706254
v -0.00050103664 -0.060732007 0.5981412
v 0.89805365 -0.0032334328 0.75326085
v -0.009796023 -0.060732007 0.65085614
v 0.89805365 -0.06404185 0.75326085
v 0.88762456 -0.06404185 0.8124132
v -0.8083465 -0.18963051 0.5689647
v -0.5605465 -0.24567771 0.7005136
v -0.8083465 -0.23800397 0.5689647
v -0.5605465 -0.19536579 0.7005136
v -0.8000481 -0.18963301 0.5219077
v -0.2905619 -0.11977184 0.706254
v -0.551916 -0.19536579 0.65157306
v -0.2905594 -0.06752157 0.706254
v -0.009796023 -0.060732007 0.65085614
v -0.28159916 -0.067524076 0.65542495
v -0.009796023 -0.006545782 0.65085614
v 0.88762456 -0.06404185 0.8124132
v -0.00050103664 -0.006545782 0.5981412
v 0.88762206 -0.0032359362 0.8124132
v 0.89805365 -0.0032334328 0.75326085
v -0.18195713 0.06666267 -0.35093027
v 0.72484094 0.075562954 -0.5584802
v 0.74255913 0.089848995 -0.48043573
v -0.16423142 0.08094859 -0.2728858
v 0.7465434 0.008836865 -0.46650946
v -0.16024709 -6.592274E-05 -0.25895953
v -0.44166493 0.07057953 -0.24432135
v -0.44463253 0.13098824 -0.25470793
v -0.71168447 0.1470977 -0.14836621
v -0.45784688 0.12033689 -0.31290096
v -0.7136378 0.18690062 -0.15520823
v -0.72234845 0.17988372 -0.19355476
vt 0.8852894 0.99417084
vt 0.887791 0.99417084
vt 0.887791 0.997426
vt 0.8852894 0.997426
vt 0.86226225 0.99068964
vt 0.8852894 0.99068964
vt 0.86226225 0.99417084
vt 0.8459564 0.99068964
vt 0.8459564 0.99417084
vt 0.86226225 0.99417084
vt 0.8852894 0.99417084
vt 0.86226225 0.997426
vt 0.8459564 0.99417084
vt 0.8459564 0.997426
vt 0.8852894 0.99417084
vt 0.86226225 0.99068964
vt 0.8852894 0.99068964
vt 0.86226225 0.99417084
vt 0.8852894 0.997426
vt 0.8459564 0.99068964
vt 0.86226225 0.997426
vt 0.8459564 0.99417084
vt 0.8459564 0.997426
vt 0.8852894 0.99417084
vt 0.887791 0.99417084
vt 0.887791 0.997426
vt 0.8852894 0.997426
vt 0.86179507 0.99068964
vt 0.8852894 0.99068964
vt 0.86179507 0.99417084
vt 0.8852894 0.997426
vt 0.8465894 0.99068964
vt 0.86179507 0.997426
vt 0.8465894 0.99417084
vt 0.8226279 0.99068964
vt 0.8465894 0.997426
vt 0.8226279 0.99417084
vt 0.8226279 0.997426
vt 0.8465894 0.997426
vt 0.8226279 0.997426
vt 0.8226279 0.99417084
vt 0.8465894 0.99417084
vt 0.8226279 0.99068964
vt 0.8465894 0.99068964
vt 0.86179507 0.997426
vt 0.86179507 0.99068964
vt 0.86179507 0.99417084
vt 0.8852894 0.997426
vt 0.8852894 0.99068964
vt 0.8852894 0.99417084
vt 0.8852894 0.99417084
vt 0.887791 0.99417084
vt 0.887791 0.997426
vt 0.8852894 0.997426
vt 0.8797436 0.99068964
vt 0.8852894 0.99068964
vt 0.8797436 0.99417084
vt 0.86226225 0.99068964
vt 0.86226225 0.99417084
vt 0.8459564 0.99068964
vt 0.8459564 0.99417084
vt 0.8797436 0.99417084
vt 0.8852894 0.99417084
vt 0.8797436 0.997426
vt 0.86226225 0.99417084
vt 0.86226225 0.997426
vt 0.8459564 0.99417084
vt 0.8459564 0.997426
vt 0.8852894 0.99417084
vt 0.887791 0.99417084
vt 0.887791 0.997426
vt 0.8852894 0.997426
vt 0.8816575 0.99068964
vt 0.8852894 0.99068964
vt 0.8816575 0.99417084
vt 0.8852894 0.997426
vt 0.8743786 0.99068964
vt 0.8816575 0.997426
vt 0.8743786 0.99417084
vt 0.86226225 0.99068964
vt 0.8743786 0.997426
vt 0.86226225 0.99417084
vt 0.8459564 0.99068964
vt 0.86226225 0.997426
vt 0.8459564 0.99417084
vt 0.8459564 0.997426
vt 0.8852894 0.99417084
vt 0.8816575 0.99068964
vt 0.8852894 0.99068964
vt 0.8816575 0.99417084
vt 0.8852894 0.997426
vt 0.8743786 0.99068964
vt 0.8816575 0.997426
vt 0.8743786 0.99417084
vt 0.86226225 0.99068964
vt 0.8743786 0.997426
vt 0.86226225 0.99417084
vt 0.8459564 0.99068964
vt 0.86226225 0.997426
vt 0.8459564 0.99417084
vt 0.8459564 0.997426
vt 0.86226225 0.997426
vt 0.8459564 0.997426
vt 0.8459564 0.99417084
vt 0.86226225 0.99417084
vt 0.8459564 0.99068964
vt 0.86226225 0.99068964
vt 0.8797436 0.99068964
vt 0.8797436 0.99417084
vt 0.8852894 0.99068964
vt 0.8797436 0.997426
vt 0.8852894 0.99417084
vt 0.8852894 0.997426
vn -0.41156876 -0.44704628 -0.7942045
vn -0.2340492 0.6615453 -0.7124456
vn -0.64886534 0.69052815 0.31960073
vn -0.85717916 -0.43436632 0.27671248
vn 0.3800236 0.66697955 -0.6408747
vn -0.2340492 0.6615453 -0.7124456
vn 0.09562999 -0.7350627 -0.6712211
vn 0.28764093 0.6977738 -0.6560293
vn 0.19525832 -0.7133256 -0.673083
vn 0.09562999 -0.7350627 -0.6712211
vn -0.41156876 -0.44704628 -0.7942045
vn -0.40975738 -0.6952114 0.590576
vn 0.19525832 -0.7133256 -0.673083
vn -0.28839195 -0.6970228 0.6564978
vn -0.64886534 0.69052815 0.31960073
vn -0.40975738 -0.6952114 0.590576
vn -0.85717916 -0.43436632 0.27671248
vn -0.1941979 0.6724138 0.7142457
vn -0.2340492 0.6615453 -0.7124456
vn -0.28839195 -0.6970228 0.6564978
vn 0.3800236 0.66697955 -0.6408747
vn -0.19600928 0.71407664 0.67206764
vn 0.28764093 0.6977738 -0.6560293
vn -0.43874013 -0.7332513 0.5194706
vn -0.8281963 0.37171745 0.41942465
vn 0.24235535 0.7484937 0.6172691
vn 0.61550874 -0.31662375 0.7217329
vn -0.89521897 0.3862089 -0.2223189
vn -0.8281963 0.37171745 0.41942465
vn -0.45866585 -0.8835995 -0.09422057
vn 0.61550874 -0.31662375 0.7217329
vn -0.8680477 0.43330586 -0.24236171
vn 0.860051 -0.45972624 0.22127832
vn -0.3608489 -0.9234508 -0.13048603
vn -0.8934076 0.42062593 -0.15778692
vn 0.8763538 -0.4108178 0.2514613
vn -0.4459858 -0.88722235 -0.1180389
vn 0.8926566 -0.4198749 0.16391835
vn -0.8680477 0.43330586 -0.24236171
vn -0.8934076 0.42062593 -0.15778692
vn 0.36553216 0.92420185 0.11062184
vn 0.43255487 0.8897847 0.14553156
vn 0.8926566 -0.4198749 0.16391835
vn 0.8763538 -0.4108178 0.2514613
vn -0.89521897 0.3862089 -0.2223189
vn 0.860051 -0.45972624 0.22127832
vn 0.36190933 0.9296361 0.06927014
vn -0.8281963 0.37171745 0.41942465
vn 0.61550874 -0.31662375 0.7217329
vn 0.24235535 0.7484937 0.6172691
vn -0.7684194 -0.5901488 -0.2474996
vn -0.7013966 0.5456141 -0.45863715
vn -0.37171745 0.71407664 0.593229
vn -0.4043231 -0.3764007 0.8335738
vn -0.13985515 0.5365571 -0.83219415
vn -0.7013966 0.5456141 -0.45863715
vn -0.34816897 -0.7640455 -0.54315084
vn -0.10000384 0.5456141 -0.83204836
vn -0.19963217 -0.8419367 -0.50128794
vn -0.18876362 0.5709741 -0.79897237
vn -0.11992943 -0.82019967 -0.55936515
vn -0.34816897 -0.7640455 -0.54315084
vn -0.7684194 -0.5901488 -0.2474996
vn -0.009432614 -0.58109164 0.81378347
vn -0.19963217 -0.8419367 -0.50128794
vn 0.050344408 -0.5829031 0.81098056
vn -0.11992943 -0.82019967 -0.55936515
vn 0.1880126 -0.57203454 0.79839075
vn -0.36990607 -0.5557317 -0.7445346
vn -0.3608489 0.5691627 -0.7388111
vn -0.715888 0.60357976 0.35099262
vn -0.73037946 -0.58471453 0.35306478
vn 0.015927315 0.6941509 -0.71965325
vn -0.3608489 0.5691627 -0.7388111
vn 0.31843513 -0.7785369 -0.54081357
vn -0.73037946 -0.58471453 0.35306478
vn -0.2974491 0.68871665 -0.66120607
vn -0.04928392 -0.7006457 0.7118052
vn 0.16808695 -0.69883424 -0.69525355
vn -0.06739819 0.681471 -0.728735
vn 0.26046962 -0.5919602 0.76271796
vn 0.037664413 -0.64630294 -0.7621508
vn 0.11736709 0.70683086 -0.697578
vn 0.097441435 -0.7133256 0.6940257
vn 0.11736709 -0.70789135 -0.69650185
vn -0.12717521 -0.70789135 0.6947779
vn -0.715888 0.60357976 0.35099262
vn -0.04928392 -0.7006457 0.7118052
vn -0.73037946 -0.58471453 0.35306478
vn -0.31194043 0.5800313 0.7525004
vn -0.3608489 0.5691627 -0.7388111
vn 0.26046962 -0.5919602 0.76271796
vn 0.015927315 0.6941509 -0.71965325
vn -0.1724608 0.6995852 0.6934247
vn 0.097441435 -0.7133256 0.6940257
vn -0.2974491 0.68871665 -0.66120607
vn -0.10000384 0.77204216 0.6276545
vn -0.12717521 -0.70789135 0.6947779
vn -0.06739819 0.681471 -0.728735
vn -0.12717521 0.70683086 0.69585675
vn 0.11736709 0.70683086 -0.697578
vn -0.10000384 0.5456141 -0.83204836
vn -0.18876362 0.5709741 -0.79897237
vn 0.119178474 0.8209506 0.55842334
vn 0.14816129 0.7865336 0.5995107
vn 0.1880126 -0.57203454 0.79839075
vn 0.050344408 -0.5829031 0.81098056
vn -0.009432614 -0.58109164 0.81378347
vn 0.274961 0.83363056 0.4790162
vn -0.4043231 -0.3764007 0.8335738
vn -0.13985515 0.5365571 -0.83219415
vn -0.37171745 0.71407664 0.593229
vn -0.7013966 0.5456141 -0.45863715
g fcbg_cityforest_007_metal_01_0
f 3/3/3 2/2/2 1/1/1
f 4/4/4 3/3/3 1/1/1
f 6/6/6 5/5/5 1/1/1
f 5/5/5 7/7/7 1/1/1
f 5/5/5 8/8/8 7/7/7
f 8/8/8 9/9/9 7/7/7
f 11/11/11 10/10/10 4/4/4
f 10/10/10 12/12/12 4/4/4
f 10/10/10 13/13/13 12/12/12
f 13/13/13 14/14/14 12/12/12
f 17/17/17 16/16/16 15/15/15
f 16/16/16 18/18/18 15/15/15
f 15/15/15 18/18/18 19/19/19
f 16/16/16 20/20/20 18/18/18
f 18/18/18 21/21/21 19/19/19
f 20/20/20 22/22/22 18/18/18
f 18/18/18 22/22/22 21/21/21
f 22/22/22 23/23/23 21/21/21
f 26/26/26 25/25/25 24/24/24
f 27/27/27 26/26/26 24/24/24
f 29/29/29 28/28/28 24/24/24
f 28/28/28 30/30/30 24/24/24
f 24/24/24 30/30/30 31/31/31
f 28/28/28 32/32/32 30/30/30
f 30/30/30 33/33/33 31/31/31
f 32/32/32 34/34/34 30/30/30
f 30/30/30 34/34/34 33/33/33
f 32/32/32 35/35/35 34/34/34
f 34/34/34 36/36/36 33/33/33
f 35/35/35 37/37/37 34/34/34
f 34/34/34 37/37/37 36/36/36
f 37/37/37 38/38/38 36/36/36
f 41/41/41 40/40/40 39/39/39
f 42/42/42 41/41/41 39/39/39
f 43/43/43 41/41/41 42/42/42
f 44/44/44 43/43/43 42/42/42
f 42/42/42 39/39/39 45/45/45
f 46/46/46 44/44/44 42/42/42
f 47/47/47 42/42/42 45/45/45
f 47/47/47 46/46/46 42/42/42
f 47/47/47 45/45/45 48/48/48
f 49/49/49 46/46/46 47/47/47
f 50/50/50 47/47/47 48/48/48
f 50/50/50 49/49/49 47/47/47
f 53/53/53 52/52/52 51/51/51
f 54/54/54 53/53/53 51/51/51
f 56/56/56 55/55/55 51/51/51
f 55/55/55 57/57/57 51/51/51
f 55/55/55 58/58/58 57/57/57
f 58/58/58 59/59/59 57/57/57
f 58/58/58 60/60/60 59/59/59
f 60/60/60 61/61/61 59/59/59
f 63/63/63 62/62/62 54/54/54
f 62/62/62 64/64/64 54/54/54
f 62/62/62 65/65/65 64/64/64
f 65/65/65 66/66/66 64/64/64
f 65/65/65 67/67/67 66/66/66
f 67/67/67 68/68/68 66/66/66
f 71/71/71 70/70/70 69/69/69
f 72/72/72 71/71/71 69/69/69
f 74/74/74 73/73/73 69/69/69
f 73/73/73 75/75/75 69/69/69
f 69/69/69 75/75/75 76/76/76
f 73/73/73 77/77/77 75/75/75
f 75/75/75 78/78/78 76/76/76
f 77/77/77 79/79/79 75/75/75
f 75/75/75 79/79/79 78/78/78
f 79/79/79 77/77/77 80/80/80
f 79/79/79 81/81/81 78/78/78
f 82/82/82 79/79/79 80/80/80
f 81/81/81 79/79/79 82/82/82
f 80/80/80 83/83/83 82/82/82
f 84/84/84 81/81/81 82/82/82
f 83/83/83 85/85/85 82/82/82
f 82/82/82 85/85/85 84/84/84
f 85/85/85 86/86/86 84/84/84
f 89/89/89 88/88/88 87/87/87
f 88/88/88 90/90/90 87/87/87
f 87/87/87 90/90/90 91/91/91
f 88/88/88 92/92/92 90/90/90
f 90/90/90 93/93/93 91/91/91
f 92/92/92 94/94/94 90/90/90
f 90/90/90 94/94/94 93/93/93
f 94/94/94 92/92/92 95/95/95
f 94/94/94 96/96/96 93/93/93
f 97/97/97 94/94/94 95/95/95
f 96/96/96 94/94/94 97/97/97
f 95/95/95 98/98/98 97/97/97
f 99/99/99 96/96/96 97/97/97
f 98/98/98 100/100/100 97/97/97
f 97/97/97 100/100/100 99/99/99
f 100/100/100 101/101/101 99/99/99
f 104/104/104 103/103/103 102/102/102
f 105/105/105 104/104/104 102/102/102
f 106/106/106 104/104/104 105/105/105
f 107/107/107 106/106/106 105/105/105
f 108/108/108 107/107/107 105/105/105
f 109/109/109 105/105/105 102/102/102
f 109/109/109 108/108/108 105/105/105
f 110/110/110 108/108/108 109/109/109
f 111/111/111 109/109/109 102/102/102
f 112/112/112 110/110/110 109/109/109
f 112/112/112 109/109/109 111/111/111
f 113/113/113 112/112/112 111/111/111
