g fcbg_desert_002_sandbag_03
v 0.21440473 0.4811213 0.09640355
v 0.09552188 0.1969342 -0.12664843
v 0.85250956 0.27870002 -0.2023921
v 0.8460263 0.16564474 -0.49691564
v 0.86868715 0.001136072 -0.5262518
v 0.0770005 0.0011360534 -0.14385843
v 1.0162852 0.0011360608 -0.2788958
v 0.98699313 0.20701203 -0.26506948
v 0.9524856 0.29222867 0.012007883
v 1.1027719 0.1750579 -0.05814767
v 1.1163173 0.0011360534 -0.064412884
v 1.0524617 0.1800313 0.2264078
v 1.2228801 0.14310372 0.16371024
v 1.2163492 0.0011360422 0.15007007
v 1.31734 0.001136031 0.4067203
v 1.3071196 0.09942347 0.39846763
v 0.50451267 0.0011360198 0.7448629
v 0.5033083 0.16192082 0.7210653
v 0.4138062 0.2614537 0.5240345
v 0.12508954 0.0011360087 0.9965968
v 0.1413907 0.106724456 0.96118414
v 0.19160625 0.26932713 0.62786233
v 0.028375592 0.0011360198 0.7039821
v 0.053812303 0.1661164 0.69211733
v -0.046150006 0.16675095 0.47771174
v -0.008357931 0.35177946 0.19903699
v -0.071630515 0.0011360273 0.48951152
v -0.14611237 0.16738543 0.16156751
v -0.17163676 0.0011360422 0.17330223
v 0.43309498 0.4982254 0.23292536
v 0.47385532 0.37838006 0.24094526
v -0.2952928 0.20765327 0.5046636
v -0.29646328 0.43027934 0.48153713
v 0.14575672 0.5694424 0.065718874
v -0.627873 0.04925722 0.7349092
v -0.38344055 0.5743216 0.29006377
v 0.048600376 0.6192566 -0.022045124
v -0.65322906 0.23119476 0.7290499
v -0.812835 0.11863136 0.5298233
v -0.69081765 0.44901806 0.43757364
v -0.799863 0.2703035 0.51829314
v -0.95963675 0.20051531 0.30033082
v -0.9413851 0.34829247 0.30672267
v -1.0761209 0.25109634 0.104781255
v -0.80453527 0.5064699 0.23366119
v -1.0157299 0.38483217 0.10157712
v -1.1551924 0.19103898 -0.16770369
v -1.1400237 0.29097432 -0.16359298
v -0.7107465 0.30703527 -0.4182327
v -0.90073067 0.49922216 0.03869123
v -0.48032916 0.63358486 0.08227931
v -0.6927476 0.456668 -0.3747397
v -0.5772177 0.58229285 -0.14489338
v -0.04855594 0.5830316 -0.3509865
v 0.009698093 0.38428232 -0.67343056
v 0.030229986 0.28545165 -0.6754006
v 0.11060053 0.2765612 -0.4253321
v 0.082134426 0.47148997 -0.4118959
v 0.17929149 0.45367277 -0.08959077
v 0.20781118 0.2967872 -0.09631048
v 0.0012349654 0.35063103 -0.36642626
v -0.28741592 0.21709615 0.31396812
v -0.45180073 0.4812017 0.1732226
v 0.34192592 0.121682376 -0.33544612
v 0.09662285 0.19145295 -0.48008537
v -0.17998357 0.350631 -0.51848686
v -0.27626684 0.0011219122 0.33502683
v 0.38342756 0.001121942 -0.34569287
v -0.5137536 0.0011218973 0.72352636
v -0.51394594 0.11124383 0.6845428
v -0.7250706 0.0011219047 0.49920073
v -0.70703137 0.13288431 0.4776977
v 0.1175058 0.0011219457 -0.4570631
v -0.90007186 0.0011219122 0.35235375
v -0.08459213 0.19084226 -0.6321367
v -0.063798465 0.0011219494 -0.6091753
v -0.904467 0.13565956 0.3305051
v -0.81348807 0.35234532 0.20915896
v -1.2901419 0.0011219233 0.02958453
v -1.3172799 0.127948 0.02261826
v -1.0393144 0.0011219382 -0.28975353
v -0.7245816 0.43162596 -0.08141038
v -1.0152551 0.19503401 -0.28623575
v -0.44358236 0.0011219643 -0.97471094
v -0.36120215 0.24404088 -0.6705476
v -0.2658071 0.19023152 -0.7841878
v -0.24510255 0.0011219569 -0.76128745
v -0.44709954 0.11801793 -0.9965968
v 1.1053734 0.16720065 0.72870207
v 1.0693992 0.020334512 0.6931827
v 0.16839641 0.254684 0.68010736
v 1.1413987 0.13710421 0.4406775
v 0.22496314 0.38947892 0.70655763
v -0.18491405 0.3709854 0.559965
v 1.0853981 0.28855067 0.46439186
v 1.1382204 0.18296057 0.21659917
v 1.0902945 0.3373552 0.24035087
v 1.1350424 0.21352121 -0.007479161
v 0.92726326 0.43108 0.47169188
v 0.30062908 0.63569814 0.5453268
v -0.18444902 0.5217124 0.6297746
v -0.17811525 0.4666006 0.36513767
v 0.9475236 0.51193553 0.24771068
v 1.0951908 0.3708639 0.016309798
v 0.050672412 0.67566967 0.5584241
v -0.11603552 0.6664259 0.39239308
v -0.17092049 0.58497435 0.14087294
v -0.09126276 0.7574157 0.16834539
v -0.1460377 0.63334477 -0.082974985
v 1.146379 0.33916754 -0.24640025
v 1.0940366 0.18037322 -0.272361
v 0.9677837 0.51886 0.023729369
v 0.32543266 0.7795032 0.22951794
v 0.30964747 0.56067175 -0.33264747
v 0.29844618 0.3487267 -0.35018066
v 0.35023612 0.8000242 -0.08629088
v 0.075550914 0.8361883 0.19321646
v 0.100429356 0.86365247 -0.17199133
v -0.06649023 0.7971121 -0.055702254
v -0.1421628 0.64904404 -0.36058924
v -0.07662547 0.7913513 -0.32303306
vt 0.06308757 0.56940997
vt 0.054754127 0.56940997
vt 0.06308757 0.55301595
vt 0.054436076 0.5484393
vt 0.04993571 0.5443015
vt 0.04993571 0.56940997
vt 0.063141204 0.5443015
vt 0.063141204 0.5495043
vt 0.06852465 0.55301595
vt 0.06852465 0.5495043
vt 0.06852465 0.5443015
vt 0.06308757 0.55301595
vt 0.063141204 0.5495043
vt 0.063141204 0.5443015
vt 0.04993571 0.5443015
vt 0.054436076 0.5484393
vt 0.04993571 0.56940997
vt 0.054754127 0.56940997
vt 0.06308757 0.56940997
vt 0.04993571 0.5857211
vt 0.054754127 0.58232695
vt 0.06308757 0.5779102
vt 0.06308757 0.5857211
vt 0.06308757 0.58364165
vt 0.06850426 0.5835907
vt 0.06308757 0.5779102
vt 0.06851034 0.5857211
vt 0.06308757 0.58364165
vt 0.06308757 0.5857211
vt 0.03432792 0.54798144
vt 0.029509505 0.5441617
vt 0.029509505 0.56927025
vt 0.03432792 0.56927025
vt 0.0426627 0.5528762
vt 0.029509505 0.58611953
vt 0.0426627 0.56927025
vt 0.048004936 0.5528762
vt 0.03471384 0.58279353
vt 0.0426627 0.58611953
vt 0.0426627 0.5777705
vt 0.042315546 0.5835002
vt 0.048004936 0.58611953
vt 0.048004936 0.5835002
vt 0.0426627 0.58611953
vt 0.048004936 0.5777705
vt 0.042315546 0.5835002
vt 0.029509505 0.58611953
vt 0.03471384 0.58279353
vt 0.029509505 0.56927025
vt 0.0426627 0.5777705
vt 0.048004936 0.56927025
vt 0.03432792 0.56927025
vt 0.0426627 0.56927025
vt 0.0426627 0.5528762
vt 0.03432792 0.54798144
vt 0.029509505 0.5441617
vt 0.0426627 0.5441617
vt 0.0426627 0.54798144
vt 0.048004936 0.54798144
vt 0.048004936 0.5441617
vt 0.06308757 0.55301595
vt 0.054754127 0.56940997
vt 0.06308757 0.56940997
vt 0.054436076 0.5484393
vt 0.063141204 0.5495043
vt 0.06852465 0.55301595
vt 0.04993571 0.56940997
vt 0.04993571 0.5443015
vt 0.04993571 0.5857211
vt 0.054754127 0.58232695
vt 0.06308757 0.5857211
vt 0.06308757 0.58364165
vt 0.063141204 0.5443015
vt 0.0685692 0.58572865
vt 0.06852465 0.5495043
vt 0.06852465 0.5443015
vt 0.06852789 0.5835974
vt 0.06851034 0.5779102
vt 0.04993571 0.5857211
vt 0.054754127 0.58232695
vt 0.04993571 0.56940997
vt 0.06579895 0.56940997
vt 0.054754127 0.56940997
vt 0.04993571 0.5443015
vt 0.06308757 0.55301595
vt 0.063141204 0.5495043
vt 0.063141204 0.5443015
vt 0.054436076 0.5484393
vt 0.009302084 0.54769105
vt 0.004670662 0.54405165
vt 0.004670662 0.5721748
vt 0.020538975 0.54405165
vt 0.009302084 0.5721748
vt 0.004670662 0.58956546
vt 0.020538975 0.5488797
vt 0.026363578 0.54405165
vt 0.026363578 0.5488797
vt 0.020538975 0.54405165
vt 0.020538975 0.5538869
vt 0.01774301 0.57228637
vt 0.009332475 0.5856537
vt 0.020538975 0.58956546
vt 0.026363578 0.5538869
vt 0.020538975 0.5488797
vt 0.016418409 0.57939154
vt 0.020306837 0.58524865
vt 0.026363578 0.58956546
vt 0.026363578 0.5852196
vt 0.020538975 0.58956546
vt 0.009302084 0.54769105
vt 0.004670662 0.54405165
vt 0.020538975 0.5538869
vt 0.026363578 0.5721748
vt 0.009302084 0.5721748
vt 0.004670662 0.5721748
vt 0.01774301 0.57228637
vt 0.026363578 0.5794227
vt 0.016418409 0.57939154
vt 0.020306837 0.58524865
vt 0.004670662 0.58956546
vt 0.009332475 0.5856537
vn -0.14480597 0.6476824 -0.7480232
vn -0.3104175 0.45082098 -0.83689994
vn 0.17556211 0.9145803 -0.36430857
vn 0.19124326 0.53993237 -0.81969446
vn 0.30315265 0.19426972 -0.9329297
vn -0.43410063 0.11051169 -0.89406025
vn 0.8628968 0.15075056 -0.48237276
vn 0.6876737 0.59574825 -0.41495663
vn 0.468412 0.8797962 -0.08092493
vn 0.78027004 0.5532243 -0.29175603
vn 0.8907448 0.085850105 -0.44632217
vn 0.29395843 0.94454443 0.14636965
vn 0.78229326 0.58891106 -0.20298047
vn 0.91456103 0.036048193 -0.40283844
vn 0.9067125 0.10707578 0.40793055
vn 0.78072536 0.5233538 0.3414217
vn 0.46392608 0.1429285 0.87426776
vn 0.3544371 0.6389805 0.6826992
vn 0.22286902 0.89768875 0.38011083
vn -0.3242368 0.2793183 0.90379846
vn -0.24888003 0.5346123 0.807619
vn -0.18517357 0.891804 0.41279104
vn -0.91033995 0.18372703 0.37084416
vn -0.7393894 0.5710403 0.356674
vn -0.8103817 0.45760864 0.3658903
vn -0.7241554 0.6157266 0.3106116
vn -0.9185739 0.16687259 0.35829517
vn -0.89610326 0.34113196 0.28395084
vn -0.94024897 0.16560632 0.29750028
vn 0.24335282 0.45770442 0.85515267
vn 0.30340448 0.12308042 0.9448794
vn 0.4445459 0.10720373 0.88931787
vn 0.2320733 0.57309055 0.78594476
vn 0.081233986 0.93404037 0.34780678
vn -0.13635705 0.06838139 0.9882969
vn 0.0253865 0.8956158 0.44410357
vn 0.24286997 0.9694933 0.033117842
vn -0.20874478 0.3363349 0.91831607
vn -0.7972921 0.04110819 0.60219204
vn -0.3065746 0.78662145 0.53594655
vn -0.72825164 0.34262404 0.59351367
vn -0.838583 0.1585776 0.5211831
vn -0.7414932 0.4480309 0.49945566
vn -0.8952756 0.26908347 0.35507149
vn -0.41948968 0.850907 0.31620508
vn -0.785715 0.549412 0.28425086
vn -0.8828366 0.32320368 -0.3407917
vn -0.80450225 0.4987765 -0.3224873
vn -0.43073523 0.2492675 -0.8673713
vn -0.4840926 0.87496346 0.009657831
vn -0.14019676 0.98565465 0.09396635
vn -0.38544852 0.6506989 -0.6542326
vn -0.23990533 0.94275314 -0.2316505
vn 0.2169472 0.91261494 -0.34650782
vn 0.32721552 0.41987422 -0.8465434
vn 0.5250749 0.103610575 -0.84472555
vn 0.94027406 0.17072526 -0.29451236
vn 0.7846065 0.5264034 -0.3275546
vn 0.8425643 0.47027558 -0.2625382
vn 0.94426644 0.16912909 -0.28241163
vn 0.5730111 0.8113086 -0.11591642
vn 0.75079215 0.353979 0.5576828
vn 0.66367286 0.62890697 0.40498683
vn 0.89363706 0.43274114 -0.11894499
vn 0.56508696 0.40175024 -0.72060627
vn 0.18567923 0.8267324 -0.53107136
vn 0.78292584 0.13095926 0.60817486
vn 0.97142756 0.15632768 -0.17857853
vn 0.08573956 0.27680564 0.9570932
vn 0.16659959 0.27141386 0.9479341
vn -0.6608502 0.18979587 0.72612303
vn -0.63165176 0.27445373 0.7250457
vn 0.54237396 0.01996911 -0.83989984
vn -0.6158308 0.09101991 0.7826032
vn 0.5502574 0.39765194 -0.73422724
vn 0.6426179 -0.022251878 -0.76586366
vn -0.591083 0.41317642 0.6927525
vn -0.49307147 0.7525911 0.43644837
vn -0.9922167 -0.0009503203 0.12451944
vn -0.91118205 0.40894765 0.050090786
vn -0.75845444 -0.0012894128 -0.6517247
vn -0.423974 0.8854884 -0.19014792
vn -0.64813054 0.51596844 -0.5600923
vn -0.0020585612 -0.01935694 -0.9998105
vn -0.06925672 0.9011014 -0.42804176
vn 0.47940275 0.5417735 -0.6904017
vn 0.69224936 -0.029233204 -0.721066
vn -0.044271324 0.43994084 -0.8969349
vn 0.646028 0.1644203 0.74539506
vn 0.5312318 -0.30210873 0.7915321
vn -0.20521258 -0.22340469 0.95287883
vn 0.96866804 0.23178998 0.08919463
vn -0.058264636 0.14501643 0.9877123
vn -0.813078 -0.048299666 0.5801476
vn 0.82640964 0.534291 0.17770812
vn 0.9558592 0.28850245 0.055671968
vn 0.8665579 0.48522428 0.11676787
vn 0.99432266 0.10119663 0.03288804
vn 0.48413092 0.7764354 0.40344188
vn 0.2036302 0.7482652 0.6313746
vn -0.6873587 0.3127699 0.655525
vn -0.9674841 0.252926 -0.0017188706
vn 0.561286 0.80108225 0.20790696
vn 0.9006022 0.42985192 0.06436601
vn -0.09894771 0.77054435 0.6296593
vn -0.73649365 0.6396465 0.22006717
vn -0.9231151 0.38182482 0.045479704
vn -0.6992816 0.70212466 0.13426226
vn -0.9039605 0.4276139 0.0013200616
vn 0.77641565 0.35302222 -0.5220671
vn 0.66306734 0.048481725 -0.74698806
vn 0.57540935 0.816907 -0.03958577
vn 0.27787742 0.92784923 0.24875677
vn 0.20533136 0.38093778 -0.90151286
vn 0.10904958 0.10986292 -0.98794645
vn 0.34567592 0.8950711 -0.28170168
vn -0.10721221 0.9673551 0.22962974
vn 0.07531535 0.94847107 -0.30778274
vn -0.66803885 0.7435953 0.028109552
vn -0.50980806 0.37896678 -0.77232116
vn -0.40994182 0.6805417 -0.6072979
g fcbg_desert_002_sandbag_03_0
f 3/3/3 2/2/2 1/1/1
f 4/4/4 2/2/2 3/3/3
f 4/4/4 5/5/5 2/2/2
f 5/5/5 6/6/6 2/2/2
f 7/7/7 5/5/5 4/4/4
f 4/4/4 3/3/3 8/8/8
f 8/8/8 7/7/7 4/4/4
f 8/8/8 3/3/3 9/9/9
f 7/7/7 8/8/8 10/10/10
f 10/10/10 8/8/8 9/9/9
f 11/11/11 7/7/7 10/10/10
f 10/10/10 9/9/9 12/12/12
f 11/11/11 10/10/10 13/13/13
f 13/13/13 10/10/10 12/12/12
f 14/14/14 11/11/11 13/13/13
f 15/15/15 14/14/14 13/13/13
f 16/16/16 15/15/15 13/13/13
f 16/16/16 13/13/13 12/12/12
f 17/17/17 15/15/15 16/16/16
f 18/18/18 16/16/16 12/12/12
f 18/18/18 17/17/17 16/16/16
f 19/19/19 18/18/18 12/12/12
f 20/20/20 17/17/17 18/18/18
f 21/21/21 18/18/18 19/19/19
f 21/21/21 20/20/20 18/18/18
f 22/22/22 21/21/21 19/19/19
f 23/23/23 20/20/20 21/21/21
f 21/21/21 22/22/22 24/24/24
f 24/24/24 23/23/23 21/21/21
f 24/24/24 22/22/22 25/25/25
f 23/23/23 24/24/24 25/25/25
f 25/25/25 22/22/22 26/26/26
f 27/27/27 23/23/23 25/25/25
f 28/28/28 25/25/25 26/26/26
f 27/27/27 25/25/25 28/28/28
f 29/29/29 27/27/27 28/28/28
f 32/32/32 31/31/31 30/30/30
f 33/33/33 32/32/32 30/30/30
f 33/33/33 30/30/30 34/34/34
f 35/35/35 32/32/32 33/33/33
f 36/36/36 33/33/33 34/34/34
f 34/34/34 37/37/37 36/36/36
f 38/38/38 35/35/35 33/33/33
f 39/39/39 35/35/35 38/38/38
f 38/38/38 33/33/33 40/40/40
f 40/40/40 33/33/33 36/36/36
f 41/41/41 39/39/39 38/38/38
f 41/41/41 38/38/38 40/40/40
f 42/42/42 39/39/39 41/41/41
f 43/43/43 42/42/42 41/41/41
f 43/43/43 41/41/41 40/40/40
f 44/44/44 42/42/42 43/43/43
f 40/40/40 36/36/36 45/45/45
f 45/45/45 43/43/43 40/40/40
f 46/46/46 44/44/44 43/43/43
f 46/46/46 43/43/43 45/45/45
f 47/47/47 44/44/44 46/46/46
f 48/48/48 47/47/47 46/46/46
f 49/49/49 47/47/47 48/48/48
f 48/48/48 46/46/46 50/50/50
f 50/50/50 46/46/46 45/45/45
f 36/36/36 51/51/51 45/45/45
f 37/37/37 51/51/51 36/36/36
f 52/52/52 49/49/49 48/48/48
f 52/52/52 48/48/48 50/50/50
f 50/50/50 45/45/45 53/53/53
f 45/45/45 51/51/51 53/53/53
f 53/53/53 52/52/52 50/50/50
f 51/51/51 54/54/54 53/53/53
f 37/37/37 54/54/54 51/51/51
f 54/54/54 52/52/52 53/53/53
f 55/55/55 49/49/49 52/52/52
f 55/55/55 52/52/52 54/54/54
f 56/56/56 49/49/49 55/55/55
f 57/57/57 56/56/56 55/55/55
f 58/58/58 54/54/54 37/37/37
f 55/55/55 54/54/54 58/58/58
f 58/58/58 57/57/57 55/55/55
f 59/59/59 58/58/58 37/37/37
f 57/57/57 58/58/58 59/59/59
f 60/60/60 57/57/57 59/59/59
f 63/63/63 62/62/62 61/61/61
f 62/62/62 64/64/64 61/61/61
f 64/64/64 65/65/65 61/61/61
f 61/61/61 65/65/65 66/66/66
f 62/62/62 67/67/67 64/64/64
f 67/67/67 68/68/68 64/64/64
f 64/64/64 68/68/68 65/65/65
f 69/69/69 67/67/67 62/62/62
f 70/70/70 69/69/69 62/62/62
f 71/71/71 69/69/69 70/70/70
f 72/72/72 71/71/71 70/70/70
f 68/68/68 73/73/73 65/65/65
f 74/74/74 71/71/71 72/72/72
f 65/65/65 73/73/73 75/75/75
f 65/65/65 75/75/75 66/66/66
f 73/73/73 76/76/76 75/75/75
f 77/77/77 74/74/74 72/72/72
f 77/77/77 72/72/72 78/78/78
f 79/79/79 74/74/74 77/77/77
f 77/77/77 78/78/78 80/80/80
f 80/80/80 79/79/79 77/77/77
f 81/81/81 79/79/79 80/80/80
f 78/78/78 82/82/82 80/80/80
f 83/83/83 81/81/81 80/80/80
f 83/83/83 80/80/80 82/82/82
f 84/84/84 81/81/81 83/83/83
f 66/66/66 85/85/85 82/82/82
f 66/66/66 75/75/75 85/85/85
f 85/85/85 83/83/83 82/82/82
f 75/75/75 76/76/76 86/86/86
f 75/75/75 86/86/86 85/85/85
f 76/76/76 87/87/87 86/86/86
f 88/88/88 84/84/84 83/83/83
f 88/88/88 83/83/83 85/85/85
f 88/88/88 85/85/85 86/86/86
f 87/87/87 84/84/84 88/88/88
f 86/86/86 87/87/87 88/88/88
f 91/91/91 90/90/90 89/89/89
f 90/90/90 92/92/92 89/89/89
f 93/93/93 91/91/91 89/89/89
f 94/94/94 91/91/91 93/93/93
f 89/89/89 92/92/92 95/95/95
f 92/92/92 96/96/96 95/95/95
f 96/96/96 97/97/97 95/95/95
f 96/96/96 98/98/98 97/97/97
f 89/89/89 95/95/95 99/99/99
f 95/95/95 97/97/97 99/99/99
f 100/100/100 89/89/89 99/99/99
f 93/93/93 89/89/89 100/100/100
f 101/101/101 94/94/94 93/93/93
f 102/102/102 94/94/94 101/101/101
f 97/97/97 103/103/103 99/99/99
f 99/99/99 103/103/103 100/100/100
f 98/98/98 104/104/104 97/97/97
f 97/97/97 104/104/104 103/103/103
f 105/105/105 93/93/93 100/100/100
f 101/101/101 93/93/93 105/105/105
f 106/106/106 102/102/102 101/101/101
f 101/101/101 105/105/105 106/106/106
f 107/107/107 102/102/102 106/106/106
f 108/108/108 107/107/107 106/106/106
f 108/108/108 106/106/106 105/105/105
f 109/109/109 107/107/107 108/108/108
f 104/104/104 98/98/98 110/110/110
f 98/98/98 111/111/111 110/110/110
f 104/104/104 112/112/112 103/103/103
f 110/110/110 112/112/112 104/104/104
f 103/103/103 113/113/113 100/100/100
f 100/100/100 113/113/113 105/105/105
f 103/103/103 112/112/112 113/113/113
f 110/110/110 111/111/111 114/114/114
f 111/111/111 115/115/115 114/114/114
f 112/112/112 110/110/110 116/116/116
f 112/112/112 116/116/116 113/113/113
f 110/110/110 114/114/114 116/116/116
f 113/113/113 117/117/117 105/105/105
f 117/117/117 113/113/113 116/116/116
f 117/117/117 108/108/108 105/105/105
f 118/118/118 117/117/117 116/116/116
f 116/116/116 114/114/114 118/118/118
f 108/108/108 117/117/117 118/118/118
f 119/119/119 109/109/109 108/108/108
f 119/119/119 108/108/108 118/118/118
f 120/120/120 109/109/109 119/119/119
f 115/115/115 120/120/120 121/121/121
f 114/114/114 115/115/115 121/121/121
f 114/114/114 121/121/121 118/118/118
f 121/121/121 119/119/119 118/118/118
f 121/121/121 120/120/120 119/119/119
