g fcbg_cityforest_006_water_01
v 53.159836 -7.1559033 -4.2862453
v 59.97431 -9.899913 -26.971998
v 53.159843 -9.900131 -4.2862587
v 59.974304 -7.1556873 -26.972002
v 52.52137 -6.0589 -4.494219
v 59.28485 -6.058685 -27.10533
v 51.61985 -5.162766 -4.810356
v 58.36741 -5.162552 -27.238203
v 48.485306 -5.162554 -29.183893
v 42.568645 -5.1627645 -7.5842743
v 37.492516 -5.16255 -27.288046
v 32.406765 -5.162762 -6.516638
v 26.203602 -5.1625504 -23.52908
v 20.92418 -5.1627603 -4.9693336
v 18.46302 -5.1625476 -29.19413
v 11.968605 -5.162758 -11.174179
v 6.2228174 -5.162544 -29.609701
v -0.6857071 -5.162757 -11.648468
v -0.5517273 -5.162539 -41.426216
v -12.473057 -5.1627507 -21.53852
v -14.7679825 -5.1625357 -56.595036
v -27.933804 -5.1627483 -45.36029
v -18.105782 -5.1625333 -61.04176
v -30.71756 -5.162747 -54.310795
v -31.080727 -5.4267325 -55.20526
v -18.715122 -5.426088 -61.806324
v -31.130531 -6.3682976 -55.48517
v -18.83593 -6.366369 -62.03796
v -18.824333 -9.900055 -62.075058
v -31.097542 -9.90016 -55.512077
v -242.02917 -9.899866 -156.71313
v 182.47292 -9.899867 -156.71313
v 182.4729 -9.900028 268.31146
v -242.02916 -9.900025 268.31146
vt 0.02534717 0.99950004
vt 0.0148473745 0.9467928
vt 0.014847373 0.9995
vt 0.02534717 0.9467928
vt 0.030211488 0.99950004
vt 0.030211488 0.9467928
vt 0.03582737 0.99950004
vt 0.03582737 0.9467928
vt 0.06500208 0.9467928
vt 0.06500208 0.99950004
vt 0.09626536 0.9467928
vt 0.09626536 0.99950004
vt 0.12958826 0.9467928
vt 0.12958826 0.99950004
vt 0.15962823 0.9467928
vt 0.15962823 0.99950004
vt 0.19510198 0.9467928
vt 0.19510198 0.99950004
vt 0.23642413 0.9467928
vt 0.23642413 0.99950004
vt 0.30542946 0.9467928
vt 0.30542946 0.99950004
vt 0.32674086 0.9467928
vt 0.32674086 0.99950004
vt 0.33016658 0.99950004
vt 0.33016658 0.9467928
vt 0.33306018 0.99950004
vt 0.33306018 0.9467928
vt 0.3751079 0.9467914
vt 0.3750973 0.99940336
vt -0.148029 1.095686
vt 1.1001059 1.095686
vt 1.1001059 -0.15398528
vt -0.14802895 -0.15398529
vn 0.9210289 0.27442372 0.27640074
vn 0.9577246 0 0.28768656
vn 0.9577246 0 0.28768653
vn 0.92205393 0.27064133 0.27671233
vn 0.74438304 0.6293403 0.22321425
vn 0.7471276 0.62578684 0.2240341
vn 0.36125615 0.9261467 0.10838056
vn 0.38000947 0.91793 0.1140062
vn -0 1 0
vn -0 1 0
vn -0 1 1.0779134E-05
vn -0 1 1.1058125E-05
vn -0 1 1.0498755E-05
vn -0 1 1.0403933E-05
vn -0 1 1.0544415E-05
vn -0 1 1.0570712E-05
vn -0 1 0
vn -0 1 0
vn -0 1 0
vn -0 1 0
vn -1.0509082E-05 1 0
vn -1.0146256E-05 1 0
vn -0.05625499 0.9928429 -0.10534875
vn -0.057270784 0.992581 -0.107251555
vn -0.32006028 0.73329127 -0.59987104
vn -0.321625 0.7301939 -0.6028053
vn -0.46590087 0.14393595 -0.8730515
vn -0.4662185 0.13929299 -0.8736349
vn -0.47094432 0.005019532 -0.8821486
vn -0.47094437 0.005019532 -0.8821486
vn -0 1 0
vn -0 1 0
vn -0 1 0
vn -0 1 0
g fcbg_cityforest_006_water_01_0
f 3/3/3 2/2/2 1/1/1
f 2/2/2 4/4/4 1/1/1
f 1/1/1 4/4/4 5/5/5
f 4/4/4 6/6/6 5/5/5
f 5/5/5 6/6/6 7/7/7
f 6/6/6 8/8/8 7/7/7
f 8/8/8 9/9/9 7/7/7
f 9/9/9 10/10/10 7/7/7
f 10/10/10 9/9/9 11/11/11
f 12/12/12 10/10/10 11/11/11
f 11/11/11 13/13/13 12/12/12
f 13/13/13 14/14/14 12/12/12
f 13/13/13 15/15/15 14/14/14
f 15/15/15 16/16/16 14/14/14
f 15/15/15 17/17/17 16/16/16
f 17/17/17 18/18/18 16/16/16
f 17/17/17 19/19/19 18/18/18
f 19/19/19 20/20/20 18/18/18
f 19/19/19 21/21/21 20/20/20
f 21/21/21 22/22/22 20/20/20
f 21/21/21 23/23/23 22/22/22
f 23/23/23 24/24/24 22/22/22
f 25/25/25 24/24/24 23/23/23
f 26/26/26 25/25/25 23/23/23
f 27/27/27 25/25/25 26/26/26
f 28/28/28 27/27/27 26/26/26
f 28/28/28 29/29/29 27/27/27
f 29/29/29 30/30/30 27/27/27
f 33/33/33 32/32/32 31/31/31
f 34/34/34 33/33/33 31/31/31
