g fcbg_arkcity_003_cargo_02
v 0.5026911 -0.013087273 -0.3742017
v 0.5478802 -0.014661014 -0.0058714747
v 0.5055889 0.12019247 -0.0058130026
v 0.52689546 -0.01806879 0.39780486
v 0.4697014 0.086803555 -0.33223018
v 0.38624746 0.12019247 -0.3487193
v 0.39194062 -0.014660001 -0.4020155
v -0.21643305 -0.014660001 -0.44636858
v -0.21019125 0.15791082 -0.38713884
v -0.36080968 -0.014660001 -0.42920962
v 0.40177095 0.16514432 -0.0058130026
v -0.35538715 0.13591665 -0.37230814
v -0.51413465 -0.014150023 -0.38572598
v 0.4939068 0.08182204 0.32298368
v 0.38624746 0.12019247 0.34579194
v -0.16757292 0.215433 -0.0065246224
v -0.37017292 0.18611127 -0.0062048435
v -0.50016403 0.12019247 -0.0058130026
v -0.47713315 0.07744241 -0.34375447
v -0.5478841 -0.014661014 -0.0058714747
v -0.5002099 -0.015223265 0.3798977
v -0.12535894 0.15791082 0.3840317
v -0.35538715 0.13591665 0.36918747
v -0.46320844 0.08466756 0.335716
v -0.36080968 -0.014661014 0.42917377
v 0.39194062 -0.014661014 0.4019776
v -0.11822575 -0.014661014 0.4463693
v 0.38624746 -0.14951345 0.34579086
v -0.12535894 -0.18723181 0.3840317
v -0.35538715 -0.16523764 0.36918747
v -0.5002099 -0.015223265 0.3798977
v 0.4939068 -0.11795959 0.3536232
v 0.5055889 -0.14951345 -0.0058130026
v 0.5478802 -0.014661014 -0.0058714747
v 0.38624746 -0.14951345 0.34579086
v 0.40177095 -0.19446531 -0.0058130026
v 0.38624746 -0.14951345 -0.3487193
v -0.461712 -0.1338081 0.3077935
v -0.50016403 -0.14951345 -0.0058130026
v -0.35538715 -0.16523764 0.36918747
v -0.5478841 -0.014661014 -0.0058714747
v -0.37017292 -0.21543226 -0.0062048435
v -0.35538715 -0.16523764 -0.37230814
v 0.4605294 -0.1145508 -0.31125695
v 0.5026911 -0.013087273 -0.3742017
v 0.38624746 -0.14951345 -0.3487193
v 0.39194062 -0.014660001 -0.4020155
v -0.21019125 -0.18723181 -0.38713884
v -0.21643305 -0.014660001 -0.44636858
v -0.35538715 -0.16523764 -0.37230814
v -0.36080968 -0.014660001 -0.42920962
v -0.51413465 -0.014150023 -0.38572598
v -0.47713315 -0.11404082 -0.34375447
vt 0.15296316 0.19960886
vt 0.15472196 0.18735741
vt 0.15064816 0.18767309
vt 0.15141483 0.1740086
vt 0.1503926 0.19732393
vt 0.147792 0.1978651
vt 0.14935538 0.20181863
vt 0.12984325 0.20580223
vt 0.13000861 0.20025526
vt 0.124521755 0.20464472
vt 0.14726587 0.18803388
vt 0.12575442 0.20019512
vt 0.119245365 0.20207419
vt 0.14931028 0.1771654
vt 0.1460332 0.17812748
vt 0.1308354 0.18947698
vt 0.12497273 0.1896273
vt 0.12070352 0.18974757
vt 0.12177082 0.19966899
vt 0.11653952 0.18991293
vt 0.118568905 0.17715038
vt 0.1313916 0.17884904
vt 0.124672085 0.17880395
vt 0.12116952 0.17955557
vt 0.123153806 0.1740537
vt 0.14660443 0.17406872
vt 0.1313014 0.1740537
vt 0.1460783 0.1699799
vt 0.1313916 0.16925834
vt 0.124672085 0.16928841
vt 0.118614 0.17089687
vt 0.14931028 0.17085178
vt 0.1506632 0.1603892
vt 0.15476705 0.16070488
vt 0.1460783 0.1699799
vt 0.14731096 0.16007352
vt 0.14786716 0.15031745
vt 0.12147017 0.16754465
vt 0.12073358 0.15831472
vt 0.124672085 0.16928841
vt 0.11658462 0.15813433
vt 0.12501784 0.15843497
vt 0.12582959 0.1478822
vt 0.1503926 0.15118933
vt 0.15291807 0.14851356
vt 0.14786716 0.15031745
vt 0.14941551 0.14630379
vt 0.13008377 0.1478371
vt 0.12991841 0.14229012
vt 0.12582959 0.1478822
vt 0.12459692 0.14343259
vt 0.1193055 0.14597307
vt 0.12183095 0.1483933
vn 0.7547416 -0.01616788 -0.65582293
vn 0.998979 -0.018121779 -0.04138409
vn 0.7293409 0.6833279 -0.033538472
vn 0.6863552 0.022910118 0.7269056
vn 0.63164604 0.64229596 -0.43414193
vn 0.22328115 0.7732072 -0.59354544
vn 0.20374215 -0.029845178 -0.97856957
vn -0.030725718 -0.0005366802 -0.9995277
vn -0.040495157 0.77516115 -0.63046443
vn -0.20266879 -0.0005366802 -0.9792472
vn 0.23891234 0.970551 -0.030848788
vn -0.28668642 0.757576 -0.58642095
vn -0.7692994 0.0092327595 -0.6388217
vn 0.6531389 0.68528175 0.3221778
vn 0.20178825 0.79470015 0.57247984
vn -0.024859767 0.9996909 -0
vn -0.30036366 0.95296586 0.040469207
vn -0.74389875 0.6676967 0.028208544
vn -0.65401936 0.6481577 -0.39006445
vn -0.99985945 -0.0005366802 0.016757311
vn -0.777115 -0.00835228 0.6293032
vn -0.0053249598 0.7810228 0.6244798
vn -0.27300918 0.7614838 0.58788466
vn -0.6676967 0.6403421 0.3796618
vn -0.20657659 -0.0005366802 0.9784303
vn 0.063061476 0.0033711195 0.99800396
vn 0.00639838 -0.0005366802 0.9999794
vn 0.1861571 -0.6648623 0.72339725
vn 0.00249058 -0.35810018 0.9336798
vn -0.31404102 -0.59061414 0.7433392
vn -0.777115 -0.00835228 0.6293032
vn 0.56130564 -0.6629084 0.49546793
vn 0.7215253 -0.690263 -0.054205816
vn 0.998979 -0.018121779 -0.04138409
vn 0.1861571 -0.6648623 0.72339725
vn 0.38709858 -0.9220383 -0
vn 0.30143714 -0.59647584 -0.7438765
vn -0.67355835 -0.6765857 0.29757512
vn -0.738037 -0.6746318 0.013166629
vn -0.31404102 -0.59061414 0.7433392
vn -0.99985945 -0.0005366802 0.016757311
vn -0.42138317 -0.9068826 -0
vn -0.30817926 -0.59647584 -0.7411087
vn 0.6531389 -0.6453233 -0.39619124
vn 0.7547416 -0.01616788 -0.65582293
vn 0.30143714 -0.59647584 -0.7438765
vn 0.20374215 -0.029845178 -0.97856957
vn -0.022910118 -0.34246898 -0.93924975
vn -0.030725718 -0.0005366802 -0.9995277
vn -0.30817926 -0.59647584 -0.7411087
vn -0.20266879 -0.0005366802 -0.9792472
vn -0.7692994 0.0092327595 -0.6388217
vn -0.6520655 -0.6414155 -0.40422362
g fcbg_arkcity_003_cargo_02_0
f 3/3/3 2/2/2 1/1/1
f 4/4/4 2/2/2 3/3/3
f 5/5/5 3/3/3 1/1/1
f 5/5/5 1/1/1 6/6/6
f 5/5/5 6/6/6 3/3/3
f 1/1/1 7/7/7 6/6/6
f 6/6/6 7/7/7 8/8/8
f 9/9/9 6/6/6 8/8/8
f 9/9/9 8/8/8 10/10/10
f 6/6/6 11/11/11 3/3/3
f 11/11/11 6/6/6 9/9/9
f 12/12/12 9/9/9 10/10/10
f 12/12/12 10/10/10 13/13/13
f 14/14/14 4/4/4 3/3/3
f 14/14/14 3/3/3 15/15/15
f 3/3/3 11/11/11 15/15/15
f 14/14/14 15/15/15 4/4/4
f 16/16/16 11/11/11 9/9/9
f 15/15/15 11/11/11 16/16/16
f 16/16/16 9/9/9 17/17/17
f 17/17/17 9/9/9 12/12/12
f 18/18/18 17/17/17 12/12/12
f 19/19/19 12/12/12 13/13/13
f 19/19/19 18/18/18 12/12/12
f 19/19/19 13/13/13 18/18/18
f 13/13/13 20/20/20 18/18/18
f 18/18/18 20/20/20 21/21/21
f 22/22/22 15/15/15 16/16/16
f 22/22/22 16/16/16 17/17/17
f 23/23/23 17/17/17 18/18/18
f 23/23/23 22/22/22 17/17/17
f 24/24/24 18/18/18 21/21/21
f 24/24/24 23/23/23 18/18/18
f 24/24/24 21/21/21 23/23/23
f 21/21/21 25/25/25 23/23/23
f 26/26/26 15/15/15 22/22/22
f 15/15/15 26/26/26 4/4/4
f 27/27/27 22/22/22 23/23/23
f 27/27/27 26/26/26 22/22/22
f 25/25/25 27/27/27 23/23/23
f 28/28/28 26/26/26 27/27/27
f 4/4/4 26/26/26 28/28/28
f 29/29/29 28/28/28 27/27/27
f 29/29/29 27/27/27 25/25/25
f 30/30/30 29/29/29 25/25/25
f 30/30/30 25/25/25 31/31/31
f 32/32/32 4/4/4 28/28/28
f 32/32/32 33/33/33 4/4/4
f 33/33/33 34/34/34 4/4/4
f 32/32/32 35/35/35 33/33/33
f 35/35/35 36/36/36 33/33/33
f 33/33/33 36/36/36 37/37/37
f 38/38/38 30/30/30 31/31/31
f 38/38/38 31/31/31 39/39/39
f 38/38/38 39/39/39 40/40/40
f 31/31/31 41/41/41 39/39/39
f 39/39/39 42/42/42 40/40/40
f 43/43/43 42/42/42 39/39/39
f 44/44/44 33/33/33 37/37/37
f 45/45/45 34/34/34 33/33/33
f 44/44/44 45/45/45 33/33/33
f 44/44/44 46/46/46 45/45/45
f 46/46/46 47/47/47 45/45/45
f 47/47/47 46/46/46 48/48/48
f 49/49/49 47/47/47 48/48/48
f 49/49/49 48/48/48 50/50/50
f 51/51/51 49/49/49 50/50/50
f 52/52/52 51/51/51 50/50/50
f 39/39/39 41/41/41 52/52/52
f 53/53/53 43/43/43 39/39/39
f 53/53/53 52/52/52 50/50/50
f 53/53/53 39/39/39 52/52/52
