g fcbg_cityforestcrystal_002_construction_02
v 1.5735626E-05 -0.5278275 0.025374532
v 0.095573604 -0.4537084 0.005991578
v -0.095543146 -0.4537084 0.005991578
v 0.12718156 -0.35872036 -0.004543066
v -0.12715113 -0.35872036 -0.004543066
v -0.12715113 -0.21365753 -0.012268901
v 0.12718156 -0.21365753 -0.012268901
v 0.12718156 -0.21365753 0.004062593
v -0.12715113 -0.21365753 0.004062593
v -0.12715113 -0.35872036 0.011788428
v -0.12715113 -0.35872036 -0.004543066
v -0.12715113 -0.21365753 -0.012268901
v -0.095543146 -0.4537084 0.005991578
v 0.12718156 -0.35872036 0.011788428
v 0.12718156 -0.21365753 -0.012268901
v 0.12718156 -0.35872036 -0.004543066
v 0.095573604 -0.4537084 0.022324085
v 0.095573604 -0.4537084 0.005991578
v 1.5735626E-05 -0.5278275 0.025374532
v 1.5735626E-05 -0.5278275 0.041706085
v -0.095543146 -0.4537084 0.022324085
v -0.01941657 0.35982758 -0.0070619583
v -0.01941657 -0.29938948 -0.0070619583
v 0.00057047606 -0.29938948 -0.041706324
v 0.00057047606 0.35982758 -0.041706324
v 0.02055949 0.35982758 -0.0070619583
v 0.02055949 -0.29938948 -0.0070619583
v -0.01941657 -0.29938948 -0.0070619583
v -0.01941657 0.35982758 -0.0070619583
v -0.01941657 -0.29938948 -0.0070619583
v 0.00057047606 0.35982758 -0.041706324
v -0.04938358 0.50737 -0.0070619583
v -0.04938358 0.50737 -0.041706324
v 0.00057047606 0.3882562 -0.0070619583
v 0.05052346 0.50737 -0.0070619583
v 0.00057047606 0.35982758 -0.041706324
v 0.050525486 0.50737 -0.041706324
v -0.08531052 0.50737 -0.041706324
v -0.08531052 0.50737 -0.0070619583
v -0.01941657 0.35982758 -0.0070619583
v 0.00057047606 0.35982758 -0.041706324
v -0.04938358 0.50737 -0.041706324
v -0.058814824 0.52782726 -0.041706324
v 0.059957743 0.52782726 -0.041706324
v 0.050525486 0.50737 -0.041706324
v 0.086452425 0.50737 -0.041706324
v 0.00057047606 0.35982758 -0.041706324
v 0.02055949 0.35982758 -0.0070619583
v 0.086452425 0.50737 -0.0070619583
v 0.059955716 0.52782726 -0.0070619583
v 0.086452425 0.50737 -0.041706324
v 0.086452425 0.50737 -0.0070619583
v -0.058814824 0.52782726 -0.0070619583
v -0.08531052 0.50737 -0.041706324
v -0.08531052 0.50737 -0.0070619583
v 0.05052346 0.50737 -0.0070619583
v 0.086452425 0.50737 -0.0070619583
v 0.02055949 0.35982758 -0.0070619583
v 0.00057047606 0.3882562 -0.0070619583
v -0.01941657 0.35982758 -0.0070619583
v -0.04938358 0.50737 -0.0070619583
v -0.08531052 0.50737 -0.0070619583
vt 0.27243432 0.7724653
vt 0.26199126 0.7589904
vt 0.26199126 0.7859402
vt 0.2486006 0.75452685
vt 0.2486006 0.7903897
vt 0.22813559 0.7903897
vt 0.22813559 0.75452685
vt 0.22590381 0.75452685
vt 0.22590381 0.7903897
vt 0.20518616 0.7903897
vt 0.20518616 0.7927057
vt 0.22590381 0.7927057
vt 0.19079891 0.7882
vt 0.20518616 0.75452685
vt 0.22590381 0.75222486
vt 0.20518616 0.75222486
vt 0.19199198 0.7589904
vt 0.19079891 0.75673056
vt 0.17840481 0.7724653
vt 0.18153492 0.7724653
vt 0.19199198 0.7859402
vt 0.15812227 0.79234076
vt 0.15812227 0.6999254
vt 0.15326568 0.6999254
vt 0.15326568 0.79234076
vt 0.14765117 0.79234076
vt 0.14765117 0.6999254
vt 0.15045843 0.69506884
vt 0.14205065 0.79234076
vt 0.14205065 0.6999254
vt 0.15019172 0.6795446
vt 0.15587646 0.6717264
vt 0.1538412 0.6708702
vt 0.15292883 0.67873055
vt 0.14999524 0.6717264
vt 0.1556659 0.6795446
vt 0.1520305 0.6708702
vt 0.16485971 0.65965515
vt 0.16915485 0.6573251
vt 0.15840301 0.6373233
vt 0.15298498 0.6388112
vt 0.15980664 0.65965515
vt 0.16114008 0.6626028
vt 0.14445087 0.66264486
vt 0.14574221 0.65965515
vt 0.14078736 0.65965515
vt 0.15184802 0.6388673
vt 0.14638788 0.6377865
vt 0.13633785 0.65711457
vt 0.14445087 0.66750145
vt 0.13976273 0.66264486
vt 0.13976273 0.66750145
vt 0.16112605 0.66750145
vt 0.16581419 0.66263086
vt 0.16581419 0.66750145
vt 0.14577028 0.6703789
vt 0.14073125 0.6703789
vt 0.1499812 0.69108254
vt 0.15278846 0.6870822
vt 0.15559572 0.69108254
vt 0.1597926 0.6703789
vt 0.16483164 0.6703789
vn 0.00023841858 -0.8786207 -0.4775203
vn 0.60422766 -0.49706832 -0.6227616
vn -0.6037509 -0.49706832 -0.62322384
vn 0.7211288 -0.16422474 -0.6730553
vn -0.72065204 -0.16422474 -0.6735658
vn -0.57452554 0.56316024 -0.59394526
vn 0.57500243 0.56316024 -0.59348357
vn 0.5798733 0.59076184 0.56102353
vn -0.5793964 0.59076184 0.561516
vn -0.7401355 -0.07330161 0.6684507
vn -0.72065204 -0.16422474 -0.6735658
vn -0.57452554 0.56316024 -0.59394526
vn -0.6037509 -0.49706832 -0.62322384
vn 0.73898876 -0.07330161 0.6697182
vn 0.57500243 0.56316024 -0.59348357
vn 0.7211288 -0.16422474 -0.6730553
vn 0.64319474 -0.38016716 0.6646604
vn 0.60422766 -0.49706832 -0.6227616
vn 0.00023841858 -0.8786207 -0.4775203
vn 0.00023841858 -0.716258 0.6978355
vn -0.6427179 -0.38016716 0.6651215
vn -0.7823499 -0.22592258 0.58042026
vn -0.72065204 -0.55551887 0.41480047
vn 0.00023841858 -0.55389524 -0.83258635
vn 0.00023841858 -0.15773022 -0.98748225
vn 0.78120303 -0.22592258 0.5819629
vn 0.7211288 -0.55551887 0.413971
vn -0.72065204 -0.55551887 0.41480047
vn -0.7823499 -0.22592258 0.58042026
vn -0.72065204 -0.55551887 0.41480047
vn 0.00023841858 -0.15773022 -0.98748225
vn 0.28437316 0.10692096 0.9527328
vn 0.26488966 0.098802805 -0.95920354
vn 0.00023841858 0.29850894 0.9544068
vn -0.28389627 0.10692096 0.952875
vn 0.00023841858 -0.15773022 -0.98748225
vn -0.26603645 0.098802805 -0.95888615
vn -0.7823499 0.19134957 -0.59271747
vn -0.7823499 0.19622046 0.59112287
vn -0.7823499 -0.22592258 0.58042026
vn 0.00023841858 -0.15773022 -0.98748225
vn 0.26488966 0.098802805 -0.95920354
vn -0.24817652 0.72552294 -0.64189166
vn 0.24702972 0.72552294 -0.64233387
vn -0.26603645 0.098802805 -0.95888615
vn 0.78282666 0.19134957 -0.5920876
vn 0.00023841858 -0.15773022 -0.98748225
vn 0.78120303 -0.22592258 0.5819629
vn 0.78282666 0.19622046 0.5904913
vn 0.24702972 0.72552294 0.64233387
vn 0.78282666 0.19134957 -0.5920876
vn 0.78282666 0.19622046 0.5904913
vn -0.24817652 0.72552294 0.64189166
vn -0.7823499 0.19134957 -0.59271747
vn -0.7823499 0.19622046 0.59112287
vn -0.28389627 0.10692096 0.952875
vn 0.78282666 0.19622046 0.5904913
vn 0.78120303 -0.22592258 0.5819629
vn 0.00023841858 0.29850894 0.9544068
vn -0.7823499 -0.22592258 0.58042026
vn 0.28437316 0.10692096 0.9527328
vn -0.7823499 0.19622046 0.59112287
g fcbg_cityforestcrystal_002_construction_02_0
f 3/3/3 2/2/2 1/1/1
f 4/4/4 2/2/2 3/3/3
f 5/5/5 4/4/4 3/3/3
f 4/4/4 5/5/5 6/6/6
f 7/7/7 4/4/4 6/6/6
f 7/7/7 6/6/6 8/8/8
f 6/6/6 9/9/9 8/8/8
f 9/9/9 10/10/10 8/8/8
f 11/11/11 10/10/10 9/9/9
f 12/12/12 11/11/11 9/9/9
f 11/11/11 13/13/13 10/10/10
f 10/10/10 14/14/14 8/8/8
f 8/8/8 14/14/14 15/15/15
f 14/14/14 16/16/16 15/15/15
f 14/14/14 17/17/17 16/16/16
f 14/14/14 10/10/10 17/17/17
f 17/17/17 18/18/18 16/16/16
f 18/18/18 17/17/17 19/19/19
f 13/13/13 19/19/19 20/20/20
f 17/17/17 20/20/20 19/19/19
f 10/10/10 21/21/21 17/17/17
f 13/13/13 21/21/21 10/10/10
f 17/17/17 21/21/21 20/20/20
f 21/21/21 13/13/13 20/20/20
f 24/24/24 23/23/23 22/22/22
f 25/25/25 24/24/24 22/22/22
f 24/24/24 25/25/25 26/26/26
f 27/27/27 24/24/24 26/26/26
f 24/24/24 27/27/27 28/28/28
f 27/27/27 26/26/26 29/29/29
f 30/30/30 27/27/27 29/29/29
f 33/33/33 32/32/32 31/31/31
f 32/32/32 34/34/34 31/31/31
f 36/36/36 34/34/34 35/35/35
f 37/37/37 36/36/36 35/35/35
f 40/40/40 39/39/39 38/38/38
f 38/38/38 41/41/41 40/40/40
f 38/38/38 42/42/42 41/41/41
f 43/43/43 42/42/42 38/38/38
f 43/43/43 44/44/44 42/42/42
f 44/44/44 45/45/45 42/42/42
f 45/45/45 44/44/44 46/46/46
f 45/45/45 46/46/46 47/47/47
f 46/46/46 48/48/48 47/47/47
f 49/49/49 48/48/48 46/46/46
f 50/50/50 44/44/44 43/43/43
f 44/44/44 50/50/50 51/51/51
f 50/50/50 52/52/52 51/51/51
f 53/53/53 50/50/50 43/43/43
f 43/43/43 54/54/54 53/53/53
f 54/54/54 55/55/55 53/53/53
f 56/56/56 50/50/50 53/53/53
f 57/57/57 50/50/50 56/56/56
f 57/57/57 56/56/56 58/58/58
f 56/56/56 59/59/59 58/58/58
f 59/59/59 60/60/60 58/58/58
f 61/61/61 56/56/56 53/53/53
f 59/59/59 61/61/61 60/60/60
f 53/53/53 62/62/62 61/61/61
f 61/61/61 62/62/62 60/60/60
