g fcbg_iceland_001_barricade_02
v -1.154117 0.00043888038 -0.3970194
v -1.1541171 0.00043888038 0.397017
v 1.1541167 0.00043883393 0.39701653
v 1.1541166 0.00043883393 -0.39701986
v -1.0440613 1.1987551 -0.28354836
v 1.0440608 1.1987551 -0.28354836
v 1.0440608 1.1987551 0.28354406
v -1.0440617 1.1987551 0.28354502
v -1.154117 0.00043888038 -0.3970194
v -1.1541171 0.00043888038 0.397017
v -1.1541171 0.00043888038 0.397017
v 1.1541167 0.00043883393 0.39701653
v 1.1541167 0.00043883393 0.39701653
v 1.0440608 1.1987551 0.28354406
v 1.0440608 1.1987551 -0.28354836
v 1.1541166 0.00043883393 -0.39701986
v 1.1541166 0.00043883393 -0.39701986
v 1.0440608 1.1987551 -0.28354836
v -1.0440613 1.1987551 -0.28354836
v -1.154117 0.00043888038 -0.3970194
vt 0.61738193 0.13428092
vt 0.61738193 0.11876929
vt 0.6696669 0.11876929
vt 0.6696669 0.13428092
vt 0.61738193 0.13428092
vt 0.6696669 0.13428092
vt 0.6696669 0.11876929
vt 0.61738193 0.11876929
vt 0.58539116 0.13710605
vt 0.58539116 0.11594413
vt 0.6147678 0.08697529
vt 0.67228115 0.08697529
vt 0.58539116 0.11594413
vt 0.61738193 0.11876929
vt 0.61738193 0.13428092
vt 0.58539116 0.13710605
vt 0.67228115 0.08697529
vt 0.6696669 0.11876929
vt 0.61738193 0.11876929
vt 0.6147678 0.08697529
vn -0 -1 0
vn -0 -1 0
vn -0 -1 0
vn -0 -1 0
vn -0.5520166 0.62590176 -0.5509306
vn 0.5520167 0.6259018 -0.5509306
vn 0.55201685 0.625902 0.55093014
vn -0.55201685 0.62590194 0.5509303
vn -0.70045394 0.1307685 -0.7016152
vn -0.7004538 0.13076912 0.70161533
vn -0.7004538 0.13076912 0.70161533
vn 0.7004539 0.13076921 0.70161515
vn 0.7004539 0.13076921 0.70161515
vn 0.55201685 0.625902 0.55093014
vn 0.5520167 0.6259018 -0.5509306
vn 0.7004539 0.13076866 -0.7016152
vn 0.7004539 0.13076866 -0.7016152
vn 0.5520167 0.6259018 -0.5509306
vn -0.5520166 0.62590176 -0.5509306
vn -0.70045394 0.1307685 -0.7016152
g fcbg_iceland_001_barricade_02_0
f 3/3/3 2/2/2 1/1/1
f 4/4/4 3/3/3 1/1/1
f 7/7/7 6/6/6 5/5/5
f 8/8/8 7/7/7 5/5/5
f 8/8/8 5/5/5 9/9/9
f 10/10/10 8/8/8 9/9/9
f 7/7/7 8/8/8 11/11/11
f 12/12/12 7/7/7 11/11/11
f 15/15/15 14/14/14 13/13/13
f 16/16/16 15/15/15 13/13/13
f 19/19/19 18/18/18 17/17/17
f 20/20/20 19/19/19 17/17/17
