g fcbg_desert_002_cabinet_02
v 0.72547877 1.8632414 -0.36435056
v 0.725479 2.0509937 1.3773705
v -0.9538125 2.0509937 1.3773707
v -0.9538127 1.8632414 -0.3643503
v 0.6032127 1.7564292 -0.3643509
v 0.6032126 0.34362185 -0.3643506
v 0.72547877 0.23680955 -0.36435047
v -0.8595806 1.7564292 -0.36435068
v -0.9538127 0.23680955 -0.3643502
v -0.8595806 0.34362185 -0.36435038
v -0.9538128 -1.1920929E-07 -0.60293573
v 0.7254787 -1.1920929E-07 -0.60293597
v 0.7254787 0.23680949 -0.60293597
v -0.9538128 0.23680949 -0.60293573
v -0.9538127 0.23680955 -0.3643502
v 0.72547877 0.23680955 -0.36435047
v -0.8595806 0.34362185 -0.36435038
v 0.6032126 0.34362185 -0.3643506
v -0.84556335 0.3436218 0.96313334
v 0.61722976 0.3436218 0.9631331
v 0.6032127 1.7564292 -0.3643509
v 0.61722976 1.7564292 0.9631332
v -0.84556335 1.7564292 0.96313345
v -0.8595806 1.7564292 -0.36435068
v 0.72547877 0.23680955 -0.36435047
v 0.7254787 0.23680949 -0.60293597
v 0.7254787 -1.1920929E-07 -0.60293597
v 0.725479 -8.145266E-17 1.3773706
v 0.725479 2.0509937 1.3773705
v 0.72547877 1.8632414 -0.36435056
v -0.9538127 0.23680955 -0.3643502
v -0.9538128 -1.1920929E-07 -0.60293573
v -0.9538128 0.23680949 -0.60293573
v -0.9538125 -8.1452673E-17 1.3773708
v -0.9538125 2.0509937 1.3773707
v -0.9538127 1.8632414 -0.3643503
v 0.9538128 0.08228403 -1.008994
v 0.93162006 0.005795479 -0.9728873
v 0.3043903 0.6778679 0.06530687
v 0.32658243 0.75435483 0.029201005
v 0.34653842 0.084585845 -1.3773708
v -0.302884 0.6801697 -0.3030717
v -0.28069177 0.7566565 -0.33917734
v 0.324346 0.008097529 -1.341265
v -0.45224655 0.5811461 -0.79578215
v 0.2661947 0.91884315 -0.28149247
v 0.23068352 1.0068864 -0.28969562
v -0.48775792 0.669189 -0.8039854
v -0.8664111 0.57171386 -0.2110196
v 0.30248356 1.040636 -0.23829827
v 0.18685491 1.0667937 0.542952
v 0.33812565 1.0498111 -0.2941131
v 0.26632547 1.0160617 -0.3455109
v 0.30183685 0.92801857 -0.33730733
v 0.37363687 0.9617681 -0.2859096
v 0.33799478 0.95259297 -0.23009494
v 0.56550795 1.1642671 -0.050013863
v 0.2222464 0.97904855 0.55112815
v 0.60101897 1.0762254 -0.041810863
v 0.93162006 0.005795479 -0.9728873
v 0.9538128 0.08228403 -1.008994
v 0.34653842 0.084585845 -1.3773708
v 0.324346 0.008097529 -1.341265
v 0.18685491 1.0667937 0.542952
v 0.2222464 0.97904855 0.55112815
v -0.8311393 0.48426676 -0.20287144
v -0.8664111 0.57171386 -0.2110196
vt 0.5637392 0.73740304
vt 0.5637392 0.7805028
vt 0.6044598 0.7805028
vt 0.6044598 0.73740304
vt 0.5663603 0.73511946
vt 0.5663603 0.69935036
vt 0.5637392 0.6967859
vt 0.6021016 0.73511946
vt 0.6044598 0.6967859
vt 0.6021016 0.69935036
vt 0.6044598 0.6852747
vt 0.5637392 0.6852747
vt 0.5637392 0.6910596
vt 0.6044598 0.6910596
vt 0.6044598 0.6967859
vt 0.5637392 0.6967859
vt 0.6021016 0.69935036
vt 0.5663603 0.69935036
vt 0.5940235 0.7123467
vt 0.5725921 0.7123467
vt 0.5663603 0.73511946
vt 0.5725921 0.732329
vt 0.5940235 0.732329
vt 0.6021016 0.73511946
vt 0.55810165 0.6910596
vt 0.5637392 0.6910596
vt 0.5637392 0.6852747
vt 0.51581484 0.6852747
vt 0.51581484 0.74094963
vt 0.55810165 0.7363447
vt 0.55810165 0.6910596
vt 0.5637392 0.6852747
vt 0.5637392 0.6910596
vt 0.51581484 0.6852747
vt 0.51581484 0.74094963
vt 0.55810165 0.7363447
vt 0.9057288 0.45269185
vt 0.9042405 0.45131874
vt 0.90424657 0.4939159
vt 0.9057288 0.49235472
vt 0.92579406 0.45269185
vt 0.9270616 0.4939159
vt 0.92579406 0.49235472
vt 0.9270616 0.45132262
vt 0.9307467 0.452369
vt 0.93076307 0.47895825
vt 0.93212736 0.47895825
vt 0.93212736 0.452369
vt 0.95216537 0.452369
vt 0.93212736 0.48181546
vt 0.95216537 0.49210608
vt 0.9302435 0.48181546
vt 0.9302435 0.47895825
vt 0.92908007 0.47955763
vt 0.92908007 0.48290515
vt 0.9307467 0.48290515
vt 0.93212736 0.49210608
vt 0.95216537 0.49367195
vt 0.9307721 0.49361157
vt 0.9042405 0.45131874
vt 0.9057288 0.45269185
vt 0.92579406 0.45269185
vt 0.9270616 0.45132262
vt 0.9057288 0.49235472
vt 0.90424657 0.4939159
vt 0.9042405 0.45131874
vt 0.9057288 0.45269185
vn 0.5832082 0.54274625 -0.6043962
vn 0.68165517 0.72745913 -0.07841799
vn -0.68165517 0.72745913 -0.07841781
vn -0.5832084 0.5427463 -0.604396
vn -0.31721586 0 -0.9483534
vn -0.30217963 0.30422777 -0.9034007
vn 0.90453404 0.301511 -0.30151153
vn 0.31521183 0 -0.9490213
vn -0.90453416 0.30151102 -0.3015112
vn 0.30081108 0.29880643 -0.90566415
vn -0.7071069 0 -0.70710665
vn 0.7071066 0 -0.7071069
vn 0.57735014 0.5773502 -0.57735044
vn -0.5773504 0.57735014 -0.5773502
vn -0.90453416 0.30151102 -0.3015112
vn 0.90453404 0.301511 -0.30151153
vn 0.30081108 0.29880643 -0.90566415
vn -0.30217963 0.30422777 -0.9034007
vn 0.5740168 0.57790756 -0.58011
vn -0.5806682 0.57679707 -0.57456905
vn -0.31721586 0 -0.9483534
vn -0.7108301 0 -0.70336384
vn 0.7033638 0 -0.71083015
vn 0.31521183 0 -0.9490213
vn 0.90453404 0.301511 -0.30151153
vn 0.57735014 0.5773502 -0.57735044
vn 0.7071066 0 -0.7071069
vn 1 0 0
vn 0.68165517 0.72745913 -0.07841799
vn 0.5832082 0.54274625 -0.6043962
vn -0.90453416 0.30151102 -0.3015112
vn -0.7071069 0 -0.70710665
vn -0.5773504 0.57735014 -0.5773502
vn -1 0 0
vn -0.68165517 0.72745913 -0.07841781
vn -0.5832084 0.5427463 -0.604396
vn 0.7840216 0.6162143 0.074766584
vn 0.8549854 -0.003241745 0.51864207
vn 0.28472903 0.34040856 0.8961313
vn 0.37900445 0.78295183 0.49329707
vn -0.4251111 0.6207975 -0.658704
vn -0.9244034 0.3449938 0.16265783
vn -0.6082466 0.78669506 -0.10557926
vn -0.8549845 0.0032436054 -0.5186434
vn 0.5331068 0.1372386 -0.83484286
vn 0.5331068 0.1372386 -0.83484286
vn -0.18496603 0.9199437 -0.34567505
vn 0.11344476 0.7503802 -0.6511988
vn -0.37267163 0.9239609 -0.0860931
vn 0.05265483 0.98477757 -0.16565193
vn 0.27356207 0.9057899 0.3235868
vn 0.5311522 0.8188081 -0.21778578
vn 0.113445565 0.75037783 -0.6512014
vn 0.5331095 0.13723692 -0.83484143
vn 0.91404575 0.34948936 -0.20585825
vn 0.9140455 0.3494923 -0.2058538
vn 0.5311536 0.81880724 -0.21778552
vn 0.75954664 0.3570196 0.54371476
vn 0.91402054 0.34947115 -0.20600091
vn 0.45231816 -0.48465058 -0.74868023
vn 0.45231816 -0.48465058 -0.74868023
vn 0.45231816 -0.4846506 -0.74868023
vn 0.45231816 -0.4846506 -0.74868023
vn -0.53310776 -0.13723719 0.83484244
vn -0.5331078 -0.13723719 0.83484244
vn -0.5331079 -0.1372372 0.83484244
vn -0.5331079 -0.1372372 0.83484244
g fcbg_desert_002_cabinet_02_0
f 3/3/3 2/2/2 1/1/1
f 4/4/4 3/3/3 1/1/1
f 1/1/1 5/5/5 4/4/4
f 6/6/6 5/5/5 1/1/1
f 7/7/7 6/6/6 1/1/1
f 5/5/5 8/8/8 4/4/4
f 4/4/4 8/8/8 9/9/9
f 8/8/8 10/10/10 9/9/9
f 13/13/13 12/12/12 11/11/11
f 14/14/14 13/13/13 11/11/11
f 13/13/13 14/14/14 15/15/15
f 16/16/16 13/13/13 15/15/15
f 15/15/15 17/17/17 16/16/16
f 17/17/17 18/18/18 16/16/16
f 17/17/17 19/19/19 18/18/18
f 19/19/19 20/20/20 18/18/18
f 18/18/18 20/20/20 21/21/21
f 20/20/20 22/22/22 21/21/21
f 22/22/22 20/20/20 23/23/23
f 20/20/20 19/19/19 23/23/23
f 23/23/23 19/19/19 17/17/17
f 24/24/24 23/23/23 17/17/17
f 27/27/27 26/26/26 25/25/25
f 27/27/27 25/25/25 28/28/28
f 25/25/25 29/29/29 28/28/28
f 30/30/30 29/29/29 25/25/25
f 33/33/33 32/32/32 31/31/31
f 31/31/31 32/32/32 34/34/34
f 35/35/35 31/31/31 34/34/34
f 36/36/36 31/31/31 35/35/35
f 39/39/39 38/38/38 37/37/37
f 40/40/40 39/39/39 37/37/37
f 37/37/37 41/41/41 40/40/40
f 42/42/42 39/39/39 40/40/40
f 41/41/41 43/43/43 40/40/40
f 43/43/43 42/42/42 40/40/40
f 41/41/41 44/44/44 43/43/43
f 44/44/44 42/42/42 43/43/43
f 47/47/47 46/46/46 45/45/45
f 48/48/48 47/47/47 45/45/45
f 49/49/49 47/47/47 48/48/48
f 50/50/50 47/47/47 49/49/49
f 51/51/51 50/50/50 49/49/49
f 50/50/50 52/52/52 47/47/47
f 52/52/52 53/53/53 47/47/47
f 54/54/54 53/53/53 52/52/52
f 55/55/55 54/54/54 52/52/52
f 55/55/55 52/52/52 50/50/50
f 56/56/56 55/55/55 50/50/50
f 57/57/57 50/50/50 51/51/51
f 56/56/56 50/50/50 57/57/57
f 51/51/51 58/58/58 57/57/57
f 59/59/59 56/56/56 57/57/57
f 58/58/58 59/59/59 57/57/57
f 62/62/62 61/61/61 60/60/60
f 63/63/63 62/62/62 60/60/60
f 66/66/66 65/65/65 64/64/64
f 67/67/67 66/66/66 64/64/64
