g fcbg_desert_004_volcano_01
v 3.400904 0.0035357475 2.1615787
v 2.4530487 0.0057115555 2.6456618
v 1.5588198 1.4465618 2.993124
v 2.4739952 1.7277484 2.5446038
v 4.162749 0.004160404 0.79308367
v 1.0096998 1.9980035 3.1821537
v 2.7650928 1.6513329 1.2703791
v 2.1884363 2.214705 1.4987411
v 3.7645025 0.008126736 0.31694365
v 1.7945004 2.1186128 2.4855642
v 0.37345147 3.4057055 3.8496342
v 2.942296 1.671082 0.8194647
v 3.8416574 0.009313583 -0.33685732
v 3.475581 0.009875774 -1.1177642
v 1.0540187 3.482215 3.2584443
v -0.010760784 4.4759607 4.2661514
v 1.4802907 3.5818677 2.4365497
v 2.5325146 1.7551394 0.034122467
v 2.075947 1.8230906 -0.001159668
v 3.4401007 0.0015263557 -2.2398033
v 2.147938 2.097146 0.7262459
v 1.5579453 2.5449057 0.30866718
v 1.0318644 3.623188 1.3683033
v 0.8549738 4.595332 3.02977
v 2.024174 1.4906206 -0.8537557
v 0.48961568 4.538967 3.6940336
v -0.10145998 5.1756115 3.7125025
v 2.6490016 1.3209028 -1.634923
v 3.5922866 0.0033273697 -2.743095
v 3.2161741 0.00431633 -3.5928383
v 2.2918472 1.1478953 -2.4896429
v 2.042518 0.004201889 -4.229982
v 1.7281938 1.3805156 -1.8860116
v 1.3136652 2.6547089 -0.32370853
v 1.8946526 1.0115032 -2.9509473
v 1.3014011 1.0422359 -2.8267772
v 0.84323025 0.0032024384 -4.082075
v 1.0415256 3.5908523 0.8250346
v 0.81800485 2.2642608 -1.111393
v 0.6610198 2.779358 -0.3752525
v 0.044322968 2.4719257 -0.7822125
v 0.47155285 3.9460287 1.2824869
v 0.49719477 2.0746794 -1.5265253
v 0.3620515 1.1229095 -2.9682293
v -0.43886518 0.9265609 -2.512734
v 0.04975748 0.0013284683 -3.526157
v -1.5068512 0.7365527 -2.4338095
v -0.82971954 0.00070381165 -3.7941527
v -2.0708375 0.00025606155 -4.3688936
v -0.0079603195 2.0052075 -1.8384757
v 0.29039383 4.89277 2.657062
v 0.15017033 5.1969433 3.0445533
v -0.1369195 5.1124487 2.3847976
v -0.49882126 4.9503 1.7360353
v -0.3640008 5.9686995 2.9316998
v -0.55128145 6.20693 3.9967184
v -0.51488495 2.239327 -1.230139
v -0.69900084 5.129033 3.9987698
v -1.289639 4.9869356 4.031064
v -1.3576221 5.9218817 4.3507395
v -1.9108124 4.780843 3.7525635
v -0.943593 6.5471363 3.8940573
v -0.84176445 5.9543324 2.5610008
v -1.8614235 5.9050884 4.0172176
v -1.5307231 6.486264 3.453054
v -1.1407537 5.38058 2.1897502
v -1.9890499 5.304248 3.4012394
v -0.9547744 4.7769384 1.4402113
v -1.7044177 5.389408 2.7243261
v -2.2327056 4.6113024 3.265284
v -2.0440612 2.0855794 2.200307
v -1.6143117 4.8981104 1.9045868
v -1.348731 3.8227844 0.98084307
v -2.1279826 4.8366556 2.638187
v -2.1266189 3.6900883 2.0917845
v -1.9452724 4.854041 2.209281
v -1.8933225 4.0933313 1.6927576
v -1.069179 2.6416435 -0.4121797
v -2.2948895 3.6407824 1.0474725
v -2.3006673 2.4099083 1.3465657
v -2.5660815 1.5602169 1.8148975
v -2.2195773 2.4947882 0.05631876
v -2.2725892 0.677752 0.10610342
v -2.4087634 0.00016260147 0.5622544
v -2.0148482 -0.00048303604 -0.57758737
v -2.1576018 1.4006605 -1.0632114
v -2.4173732 0.6179004 -1.1334534
v -2.5179315 -0.0007328987 -1.3831472
v -2.325664 1.3618279 -1.2251523
v -2.8279872 1.288796 -0.96176815
v -3.4471822 -0.0008993149 -2.403264
v -3.2726865 1.2596455 -1.4787602
v -3.0827923 1.6489382 -1.432859
v -3.733262 -0.00074338913 -3.2289586
v -2.740921 1.6480951 -1.1944089
v -2.2248454 1.386939 -1.8231614
v -2.8176074 1.3329692 -2.128678
v -2.934698 -7.677078E-05 -4.3694143
v -3.3250527 1.2667975 -1.7406554
v -3.2632852 1.27141 -1.9855497
v -3.4871287 -0.0004515648 -3.9111395
v -3.071507 1.3075771 -2.102755
vt 0.2252672 0.2663543
vt 0.20950654 0.2973442
vt 0.17459925 0.29093668
vt 0.17957948 0.26006824
vt 0.22681594 0.28348148
vt 0.15540706 0.2875659
vt 0.17459925 0.29093668
vt 0.15540706 0.2875659
vt 0.20520955 0.30364543
vt 0.16445653 0.25742626
vt 0.11693159 0.267736
vt 0.17748414 0.29766306
vt 0.1987413 0.31963384
vt 0.18475713 0.33454424
vt 0.12666434 0.24260698
vt 0.08967687 0.25309893
vt 0.11693159 0.267736
vt 0.16450208 0.31861654
vt 0.15240069 0.32525182
vt 0.19447468 0.36524564
vt 0.15243106 0.30745652
vt 0.13062727 0.32039303
vt 0.10393435 0.29564363
vt 0.08967687 0.25309893
vt 0.15271954 0.3457346
vt 0.094186425 0.23241873
vt 0.06949775 0.23062705
vt 0.16084282 0.36453202
vt 0.18788497 0.37912354
vt 0.17440185 0.40138283
vt 0.15297766 0.38427082
vt 0.14881733 0.4229133
vt 0.13826467 0.37324744
vt 0.118480325 0.3366092
vt 0.14442925 0.3965696
vt 0.1292152 0.39963672
vt 0.11901176 0.43633568
vt 0.10162644 0.3083068
vt 0.11097959 0.3614801
vt 0.10253745 0.34423143
vt 0.089175805 0.36301365
vt 0.08616944 0.29978877
vt 0.105073124 0.3742192
vt 0.10766955 0.41249728
vt 0.079837844 0.4250694
vt 0.09023866 0.44937846
vt 0.049758952 0.44445896
vt 0.071820855 0.4668397
vt 0.050669976 0.4962657
vt 0.09562887 0.38720125
vt 0.072382644 0.2615107
vt 0.06368239 0.24971294
vt 0.059081737 0.2678271
vt 0.05230981 0.28604752
vt 0.038932983 0.24963702
vt 0.03727796 0.22611749
vt 0.07879017 0.3816592
vt 0.06368239 0.24971294
vt 0.059081737 0.2678271
vt 0.038932983 0.24963702
vt 0.05230981 0.28604752
vt 0.021441372 0.22765104
vt 0.031037465 0.26012897
vt 0.031037465 0.26012897
vt 0.00706242 0.24452013
vt 0.030657873 0.2800196
vt 0.030657873 0.2800196
vt 0.045173477 0.29892328
vt 0.008869279 0.28257045
vt 0.045173477 0.29892328
vt 0.089175805 0.36301365
vt 0.02406815 0.30053276
vt 0.040086944 0.33276775
vt 0.02406815 0.30053276
vt 0.040086944 0.33276775
vt 0.011890832 0.30393392
vt 0.017751737 0.32746863
vt 0.05917284 0.37084842
vt 0.017751737 0.3489991
vt 0.05917284 0.37084842
vt 0.09562887 0.38720125
vt 0.025510602 0.3831624
vt 0.079837844 0.4250694
vt 0.11901176 0.43633568
vt 0.09023866 0.44937846
vt 0.03159926 0.4236573
vt 0.049758952 0.44445896
vt 0.071820855 0.4668397
vt 0.029610198 0.42613223
vt 0.027256725 0.4425458
vt 0.050669976 0.4962657
vt 0.01793394 0.45759284
vt 0.005331479 0.44755644
vt 0.031811833 0.50979435
vt 0.011465689 0.43578908
vt 0.027211174 0.44231805
vt 0.01793394 0.45759284
vt 0.031811833 0.50979435
vt 0.017827656 0.4693602
vt 0.006515807 0.46468362
vt 0.01504904 0.5160045
vt 0.017827656 0.4693602
vn 0.72578037 0.2504323 0.64072347
vn 0.4408219 0.04636526 0.8963963
vn 0.4242759 0.08129561 0.90187633
vn 0.62282765 0.5022989 0.59981793
vn 0.769903 0.62363607 -0.1353789
vn 0.6081201 0.09232628 0.7884579
vn 0.77541834 0.6052516 0.17999133
vn 0.73681104 0.6751124 0.036506575
vn 0.8397638 0.5353908 -0.09029623
vn 0.6687887 0.5206832 0.53067005
vn 0.6595965 -0.058425963 0.7493456
vn 0.76806456 0.64018196 -0.015617369
vn 0.8177025 0.5556137 -0.15051937
vn 0.69085 0.6787893 -0.24894036
vn 0.77541834 0.09416473 0.6243872
vn 0.5382593 0.39015383 0.74703205
vn 0.8875633 0.4489841 0.1031731
vn 0.40956837 0.765196 -0.49671802
vn 0.5364209 0.75048846 -0.38603064
vn 0.848956 0.49678355 0.18022168
vn 0.5639975 0.8001265 -0.20421658
vn 0.7735799 0.59054404 -0.22985181
vn 0.6853347 0.69349676 -0.22221297
vn 0.7993181 0.59054404 0.11112301
vn 0.6871731 0.7100428 -0.15372796
vn 0.7349726 0.38280016 0.5597136
vn 0.66327333 0.44714564 0.6001077
vn 0.6393736 0.75416535 0.14978659
vn 0.75335705 0.64385885 -0.13378695
vn 0.4628832 0.7633576 -0.4505822
vn 0.2808774 0.8791794 -0.38490447
vn 0.11357921 0.7927727 -0.59884155
vn 0.27903897 0.893887 -0.35086083
vn 0.5400977 0.7265888 -0.42469186
vn 0.09519482 0.8534413 -0.5124216
vn 0.08967948 0.8332184 -0.54562324
vn -0.16954082 0.7100428 -0.6834436
vn 0.55296683 0.7725498 -0.31208086
vn 0.17240936 0.83137995 -0.5282825
vn 0.074971914 0.81483394 -0.57482594
vn -0.0040810704 0.84424907 -0.5359355
vn 0.42979124 0.7670345 -0.47637966
vn 0.15034807 0.8571182 -0.49269047
vn -0.18424839 0.6990121 -0.6909664
vn -0.36257726 0.65121263 -0.6666782
vn -0.3111009 0.67143553 -0.67259985
vn 0.08600259 0.8736641 -0.47886807
vn 0.15402496 0.8994023 -0.40908653
vn 0.104386985 0.8791794 -0.46491605
vn -0.15851015 0.7964496 -0.5835603
vn 0.59892786 0.71371967 -0.36316612
vn 0.7607108 0.64385885 -0.08224913
vn 0.65775806 0.60709006 -0.44586542
vn 0.32132316 0.7229119 -0.6116779
vn 0.62650454 0.7155581 -0.3089801
vn 0.65408117 0.482076 0.582907
vn -0.2945549 0.7762267 -0.5574132
vn 0.22388572 0.15115649 0.9628223
vn -0.1051954 -0.22388572 0.9689216
vn -0.15483326 0.20447129 0.96654963
vn -0.7872574 -0.08416414 0.6108537
vn 0.16137868 0.9324942 0.32312766
vn 0.05107218 0.7633576 -0.6439541
vn -0.8166724 0.31661624 0.4824939
vn -0.48391443 0.85895663 -0.16739272
vn -0.31293935 0.67143553 -0.67174643
vn -0.95790017 0.2871015 -0
vn -0.1438027 0.6861431 -0.71311176
vn -0.6916583 0.57399803 -0.4383321
vn -0.9600709 0.0077579618 0.27964923
vn -0.93433267 0.1603486 0.31829354
vn -0.50965255 0.59054404 -0.6257092
vn -0.33867747 0.6493742 -0.68088967
vn -0.90859455 0.3515466 -0.22554587
vn -0.9931628 0.11622602 -0.010916083
vn -0.75048846 0.46920687 -0.4654159
vn -0.75416535 0.5059758 -0.4185966
vn -0.2375632 0.7229119 -0.64881593
vn -0.7762267 0.54642147 -0.31447682
vn -0.9931628 0.08864939 0.07595349
vn -0.965239 0.26136896 -0
vn -0.81483394 0.37360793 -0.44324118
vn -0.9894859 0.0077579618 -0.14442094
vn -0.96190935 0.053718984 -0.26803854
vn -0.9545556 -0.2698468 0.12651633
vn -0.71739656 0.64753574 -0.25698188
vn -0.6456973 -0.1558634 0.747517
vn -0.7100428 -0.2698468 0.65040135
vn 0.2661699 0.81483394 0.51497495
vn -0.24491698 0.11071068 0.96320236
vn -0.8957254 -0.16505557 0.41283482
vn -0.8736641 0.03901148 0.4849631
vn -0.48391443 0.864472 0.13607001
vn -0.8902101 0.43427652 -0.13758586
vn 0.09335637 0.88469476 0.45672727
vn 0.47759074 0.864472 -0.15682895
vn 0.06945664 0.8865332 -0.45742175
vn -0.17137927 0.8460875 -0.5047426
vn -0.93800956 0.34235436 0.054143723
vn -0.62363607 0.6990121 -0.34994298
vn -0.5188448 0.7394579 -0.42895466
vn -0.2504323 0.84424907 -0.47384292
g fcbg_desert_004_volcano_01_0
f 3/3/3 2/2/2 1/1/1
f 4/4/4 3/3/3 1/1/1
f 4/4/4 1/1/1 5/5/5
f 4/4/4 6/6/6 3/3/3
f 7/7/7 4/4/4 5/5/5
f 8/8/8 4/4/4 7/7/7
f 7/7/7 5/5/5 9/9/9
f 4/4/4 10/10/10 6/6/6
f 10/10/10 4/4/4 8/8/8
f 11/11/11 6/6/6 10/10/10
f 7/7/7 9/9/9 12/12/12
f 7/7/7 12/12/12 8/8/8
f 9/9/9 13/13/13 12/12/12
f 12/12/12 13/13/13 14/14/14
f 15/15/15 11/11/11 10/10/10
f 11/11/11 15/15/15 16/16/16
f 8/8/8 17/17/17 10/10/10
f 17/17/17 15/15/15 10/10/10
f 18/18/18 12/12/12 14/14/14
f 18/18/18 14/14/14 19/19/19
f 14/14/14 20/20/20 19/19/19
f 21/21/21 12/12/12 18/18/18
f 12/12/12 21/21/21 8/8/8
f 19/19/19 21/21/21 18/18/18
f 22/22/22 8/8/8 21/21/21
f 22/22/22 21/21/21 19/19/19
f 17/17/17 8/8/8 23/23/23
f 8/8/8 22/22/22 23/23/23
f 15/15/15 17/17/17 24/24/24
f 17/17/17 23/23/23 24/24/24
f 20/20/20 25/25/25 19/19/19
f 25/25/25 22/22/22 19/19/19
f 15/15/15 26/26/26 16/16/16
f 26/26/26 15/15/15 24/24/24
f 27/27/27 16/16/16 26/26/26
f 24/24/24 27/27/27 26/26/26
f 28/28/28 25/25/25 20/20/20
f 20/20/20 29/29/29 28/28/28
f 29/29/29 30/30/30 28/28/28
f 30/30/30 31/31/31 28/28/28
f 30/30/30 32/32/32 31/31/31
f 28/28/28 33/33/33 25/25/25
f 28/28/28 31/31/31 33/33/33
f 22/22/22 25/25/25 34/34/34
f 25/25/25 33/33/33 34/34/34
f 32/32/32 35/35/35 31/31/31
f 33/33/33 31/31/31 35/35/35
f 32/32/32 36/36/36 35/35/35
f 33/33/33 35/35/35 36/36/36
f 37/37/37 36/36/36 32/32/32
f 22/22/22 34/34/34 38/38/38
f 23/23/23 22/22/22 38/38/38
f 33/33/33 39/39/39 34/34/34
f 36/36/36 39/39/39 33/33/33
f 40/40/40 38/38/38 34/34/34
f 34/34/34 39/39/39 40/40/40
f 40/40/40 39/39/39 41/41/41
f 40/40/40 41/41/41 42/42/42
f 42/42/42 38/38/38 40/40/40
f 38/38/38 42/42/42 23/23/23
f 39/39/39 43/43/43 41/41/41
f 36/36/36 43/43/43 39/39/39
f 44/44/44 36/36/36 37/37/37
f 36/36/36 44/44/44 43/43/43
f 37/37/37 45/45/45 44/44/44
f 46/46/46 45/45/45 37/37/37
f 47/47/47 45/45/45 46/46/46
f 46/46/46 48/48/48 47/47/47
f 47/47/47 48/48/48 49/49/49
f 44/44/44 50/50/50 43/43/43
f 43/43/43 50/50/50 41/41/41
f 44/44/44 45/45/45 50/50/50
f 42/42/42 51/51/51 23/23/23
f 24/24/24 23/23/23 51/51/51
f 24/24/24 51/51/51 52/52/52
f 52/52/52 27/27/27 24/24/24
f 53/53/53 51/51/51 42/42/42
f 51/51/51 53/53/53 52/52/52
f 54/54/54 53/53/53 42/42/42
f 42/42/42 41/41/41 54/54/54
f 52/52/52 53/53/53 55/55/55
f 53/53/53 54/54/54 55/55/55
f 52/52/52 56/56/56 27/27/27
f 55/55/55 56/56/56 52/52/52
f 41/41/41 50/50/50 57/57/57
f 45/45/45 57/57/57 50/50/50
f 56/56/56 58/58/58 27/27/27
f 27/27/27 58/58/58 16/16/16
f 59/59/59 16/16/16 58/58/58
f 59/59/59 58/58/58 60/60/60
f 56/56/56 60/60/60 58/58/58
f 61/61/61 59/59/59 60/60/60
f 62/62/62 56/56/56 55/55/55
f 56/56/56 62/62/62 60/60/60
f 55/55/55 54/54/54 63/63/63
f 55/55/55 63/63/63 62/62/62
f 60/60/60 62/62/62 64/64/64
f 61/61/61 60/60/60 64/64/64
f 62/62/62 63/63/63 65/65/65
f 64/64/64 62/62/62 65/65/65
f 63/63/63 54/54/54 66/66/66
f 65/65/65 63/63/63 66/66/66
f 61/61/61 64/64/64 67/67/67
f 64/64/64 65/65/65 67/67/67
f 66/66/66 54/54/54 68/68/68
f 41/41/41 68/68/68 54/54/54
f 66/66/66 69/69/69 65/65/65
f 69/69/69 67/67/67 65/65/65
f 61/61/61 67/67/67 70/70/70
f 70/70/70 71/71/71 61/61/61
f 66/66/66 68/68/68 72/72/72
f 72/72/72 69/69/69 66/66/66
f 73/73/73 68/68/68 41/41/41
f 72/72/72 68/68/68 73/73/73
f 69/69/69 74/74/74 67/67/67
f 70/70/70 67/67/67 74/74/74
f 70/70/70 75/75/75 71/71/71
f 70/70/70 74/74/74 75/75/75
f 76/76/76 69/69/69 72/72/72
f 69/69/69 76/76/76 74/74/74
f 77/77/77 76/76/76 72/72/72
f 76/76/76 77/77/77 74/74/74
f 77/77/77 72/72/72 73/73/73
f 74/74/74 77/77/77 75/75/75
f 78/78/78 73/73/73 41/41/41
f 41/41/41 57/57/57 78/78/78
f 57/57/57 45/45/45 78/78/78
f 73/73/73 79/79/79 77/77/77
f 79/79/79 75/75/75 77/77/77
f 78/78/78 79/79/79 73/73/73
f 75/75/75 80/80/80 71/71/71
f 79/79/79 80/80/80 75/75/75
f 71/71/71 80/80/80 81/81/81
f 82/82/82 79/79/79 78/78/78
f 78/78/78 45/45/45 82/82/82
f 79/79/79 82/82/82 80/80/80
f 80/80/80 83/83/83 81/81/81
f 83/83/83 80/80/80 82/82/82
f 83/83/83 84/84/84 81/81/81
f 83/83/83 85/85/85 84/84/84
f 82/82/82 45/45/45 86/86/86
f 83/83/83 82/82/82 86/86/86
f 45/45/45 47/47/47 86/86/86
f 83/83/83 87/87/87 85/85/85
f 87/87/87 83/83/83 86/86/86
f 88/88/88 85/85/85 87/87/87
f 89/89/89 87/87/87 86/86/86
f 47/47/47 89/89/89 86/86/86
f 88/88/88 87/87/87 90/90/90
f 89/89/89 90/90/90 87/87/87
f 88/88/88 90/90/90 91/91/91
f 90/90/90 92/92/92 91/91/91
f 92/92/92 90/90/90 93/93/93
f 91/91/91 92/92/92 94/94/94
f 95/95/95 90/90/90 89/89/89
f 90/90/90 95/95/95 93/93/93
f 96/96/96 95/95/95 89/89/89
f 96/96/96 89/89/89 47/47/47
f 95/95/95 96/96/96 93/93/93
f 97/97/97 96/96/96 47/47/47
f 97/97/97 93/93/93 96/96/96
f 49/49/49 97/97/97 47/47/47
f 97/97/97 49/49/49 98/98/98
f 92/92/92 99/99/99 94/94/94
f 99/99/99 92/92/92 93/93/93
f 94/94/94 99/99/99 100/100/100
f 99/99/99 93/93/93 100/100/100
f 101/101/101 94/94/94 100/100/100
f 101/101/101 100/100/100 98/98/98
f 102/102/102 97/97/97 98/98/98
f 97/97/97 102/102/102 93/93/93
f 100/100/100 102/102/102 98/98/98
f 93/93/93 102/102/102 100/100/100
