g fcbg_desert_001_sign_01
v -1.8083992 3.7121222 0.08309758
v 0.93530655 3.7121222 0.08309758
v 0.93530655 5.4676876 0.08309623
v -1.8083992 5.4676876 0.08309623
v -1.8083992 3.7121222 0.08309758
v 0.93530655 3.7121222 0.16063663
v 0.93530655 3.7121222 0.08309758
v -1.8083992 3.7121222 0.16063663
v 0.93530655 5.4676876 0.16063528
v -1.8083992 5.4676876 0.16063528
v 0.93530655 5.4676876 0.08309623
v -1.8083992 5.4676876 0.08309623
v -1.8083992 5.4676876 0.08309623
v -1.8083992 3.7121222 0.08309758
v 0.93530655 3.7121222 0.08309758
v 0.93530655 3.7121222 0.16063663
v 0.93530655 5.4676876 0.16063528
v 0.93530655 5.4676876 0.08309623
v -1.8348274 5.56612 0.08309614
v -0.36371994 5.56612 0.08309614
v -0.36371994 6.0442276 0.083095774
v -1.8348274 6.0442276 0.083095774
v -1.8348274 5.56612 0.08309614
v -0.36371994 5.56612 0.16063523
v -0.36371994 5.56612 0.08309614
v -1.8348274 5.56612 0.16063523
v -0.36371994 6.0442276 0.16063483
v -1.8348274 6.0442276 0.16063483
v -0.36371994 6.0442276 0.083095774
v -1.8348274 6.0442276 0.083095774
v -1.8348274 6.0442276 0.083095774
v -1.8348274 5.56612 0.08309614
v -0.36371994 5.56612 0.08309614
v -0.36371994 5.56612 0.16063523
v -0.36371994 6.0442276 0.16063483
v -0.36371994 6.0442276 0.083095774
v -0.28447342 5.562521 0.08309617
v 0.93382645 5.562521 0.08309617
v 0.93382645 6.0406303 0.083095774
v -0.28447342 6.0406303 0.083095774
v -0.28447342 5.562521 0.08309617
v 0.93382645 5.562521 0.16063523
v 0.93382645 5.562521 0.08309617
v -0.28447342 5.562521 0.16063523
v 0.93382645 6.0406303 0.16063483
v -0.28447342 6.0406303 0.16063483
v 0.93382645 6.0406303 0.083095774
v -0.28447342 6.0406303 0.083095774
v -0.28447342 6.0406303 0.083095774
v -0.28447342 5.562521 0.08309617
v 0.93382645 5.562521 0.08309617
v 0.93382645 5.562521 0.16063523
v 0.93382645 6.0406303 0.16063483
v 0.93382645 6.0406303 0.083095774
v 1.495861 -0.090904 4.783296E-06
v 1.2092094 -0.090904 0.16550432
v 1.4003105 -0.090904 0.16550432
v 1.1136589 -0.090904 4.8130983E-06
v 1.2092094 -0.090904 -0.16549473
v 1.4003105 -0.090904 -0.16549474
v 1.2092094 -0.090904 -0.16549473
v 1.1136589 5.2806225 -4.83019E-08
v 1.1136589 -0.090904 4.8130983E-06
v 1.2092094 5.2806225 -0.16549957
v 1.4003105 -0.090904 -0.16549474
v 1.0359993 5.2806225 -4.83019E-08
v 1.4003105 5.2806225 -0.1654996
v 1.495861 -0.090904 4.783296E-06
v 1.1703758 5.2806225 -0.23275031
v 1.0359993 5.3904476 -1.6271042E-07
v 1.495861 5.2806225 -7.810422E-08
v 1.4003105 -0.090904 0.16550432
v 1.4391365 5.2806225 -0.23275039
v 1.1703758 5.3904476 -0.23275046
v 1.1370659 5.3904 -1.3291037E-07
v 1.4003105 5.2806225 0.16549955
v 1.2092094 -0.090904 0.16550432
v 1.573513 5.2806225 -7.810422E-08
v 1.4391365 5.3904476 -0.23275054
v 1.2209129 5.3904 -0.14522374
v 1.1370659 5.456238 -2.194397E-07
v 1.2209129 5.456238 -0.14522383
v 1.3885994 5.3904 -0.14522378
v 1.3885994 5.456238 -0.14522384
v 1.2092094 5.2806225 0.16549955
v 1.1136589 -0.090904 4.8130983E-06
v 1.1136589 5.2806225 -4.83019E-08
v 1.4391365 5.2806225 0.23275028
v 1.573513 5.3904476 -1.6271042E-07
v 1.4724464 5.3904 -1.627127E-07
v 1.4724464 5.456238 -2.194397E-07
v 1.1703835 5.2806225 0.23275028
v 1.0359993 5.2806225 -4.83019E-08
v 1.4391365 5.3904476 0.23275016
v 1.3885994 5.3904 0.14522348
v 1.3885994 5.456238 0.14522342
v 1.1703835 5.3904476 0.23275016
v 1.0359993 5.3904476 -1.6271042E-07
v 1.2209129 5.3904 0.14522348
v 1.2209129 5.456238 0.14522342
v 1.1370659 5.3904 -1.3291037E-07
v 1.1370659 5.456238 -2.194397E-07
v 1.8348274 4.977566 2.662764E-07
v 1.8348274 4.8168564 0.092786126
v 1.8348274 4.923996 0.09278598
v 1.8348274 4.7632866 4.357239E-07
v 1.8348274 4.8168564 -0.09278531
v 1.8348274 4.923996 -0.092785455
v 1.8348274 4.8168564 -0.09278531
v -0.19481277 4.7632866 4.0592158E-07
v 1.8348274 4.7632866 4.357239E-07
v -0.19481277 4.8168564 -0.092785366
v 1.8348274 4.923996 -0.092785455
v -0.19481277 4.923998 -0.092785515
v 1.8348274 4.977566 2.662764E-07
v -0.19481277 4.977566 2.3647408E-07
v 1.8348274 4.923996 0.09278598
v -0.19481277 4.923998 0.09278598
v 1.8348274 4.8168564 0.092786126
v -0.19481277 4.8168564 0.092786126
v 1.8348274 4.7632866 4.357239E-07
v -0.19481277 4.7632866 4.0592158E-07
v -0.19481277 4.977566 2.3647408E-07
v -0.19481277 4.8168564 0.092786126
v -0.19481277 4.7632866 4.0592158E-07
v -0.19481277 4.8168564 -0.092785366
v -0.19481277 4.923998 -0.092785515
v 1.7810173 4.2158833 9.4823827E-07
v 1.7810173 4.055174 0.09278683
v 1.7810173 4.1623135 0.09278669
v 1.7810173 4.001604 1.1176855E-06
v 1.7810173 4.055174 -0.09278466
v 1.7810173 4.1623135 -0.0927848
v 1.7810173 4.055174 -0.09278466
v -0.1961708 4.001604 1.0878832E-06
v 1.7810173 4.001604 1.1176855E-06
v -0.1961708 4.055174 -0.09278472
v 1.7810173 4.1623135 -0.0927848
v -0.1961708 4.1623135 -0.0927848
v 1.7810173 4.2158833 9.4823827E-07
v -0.1961708 4.2158833 9.1843594E-07
v 1.7810173 4.1623135 0.09278669
v -0.1961708 4.1623135 0.09278675
v 1.7810173 4.055174 0.09278683
v -0.1961708 4.055174 0.09278683
v 1.7810173 4.001604 1.1176855E-06
v -0.1961708 4.001604 1.0878832E-06
v -0.1961708 4.2158833 9.1843594E-07
v -0.1961708 4.055174 0.09278683
v -0.1961708 4.001604 1.0878832E-06
v -0.1961708 4.055174 -0.09278472
v -0.1961708 4.1623135 -0.0927848
v 0.7034645 5.3929996 0.15723
v 0.7034645 5.6050186 0.15723002
v 0.77682877 5.6050186 0.15723002
v 0.77682877 5.3929996 0.15723
v 0.77682877 5.6050186 0.089882635
v 0.77682877 5.3929996 0.08988245
v 0.7034645 5.6050186 0.089882635
v 0.7034645 5.3929996 0.08988245
v 0.7034645 5.6050186 0.15723002
v 0.7034645 5.3929996 0.15723
v -0.03385544 5.3929996 0.15723
v -0.03385544 5.6050186 0.089882635
v -0.03385544 5.3929996 0.08988245
v -0.03385544 5.6050186 0.15723002
v -0.107227325 5.3929996 0.15723
v -0.107227325 5.6050186 0.15723002
v -0.107227325 5.3929996 0.08988245
v -0.107227325 5.6050186 0.089882635
v -0.03385544 5.3929996 0.08988245
v -0.03385544 5.6050186 0.089882635
v -0.6004524 5.3929996 0.15723
v -0.6004524 5.6050186 0.089882635
v -0.6004524 5.3929996 0.08988245
v -0.6004524 5.6050186 0.15723002
v -0.6738167 5.3929996 0.15723
v -0.6738167 5.6050186 0.15723002
v -0.6738167 5.3929996 0.08988245
v -0.6738167 5.6050186 0.089882635
v -0.6004524 5.3929996 0.08988245
v -0.6004524 5.6050186 0.089882635
v -1.6017036 5.3929996 0.15723
v -1.6017036 5.6050186 0.089882635
v -1.6017036 5.3929996 0.08988245
v -1.6017036 5.6050186 0.15723002
v -1.6750679 5.3929996 0.15723
v -1.6750679 5.6050186 0.15723002
v -1.6750679 5.3929996 0.08988245
v -1.6750679 5.6050186 0.089882635
v -1.6017036 5.3929996 0.08988245
v -1.6017036 5.6050186 0.089882635
v 1.2209129 5.456238 0.14522342
v 1.30476 5.456238 -2.194397E-07
v 1.3885994 5.456238 0.14522342
v 1.1370659 5.456238 -2.194397E-07
v 1.4724464 5.456238 -2.194397E-07
v 1.2209129 5.456238 -0.14522383
v 1.3885994 5.456238 -0.14522384
vt 0.5132754 0.9790615
vt 0.57208693 0.97906154
vt 0.5720868 0.9416921
vt 0.5132755 0.9416922
vt 0.5132755 0.9393812
vt 0.5720868 0.9416921
vt 0.5720868 0.9393811
vt 0.5132755 0.9416922
vt 0.57208693 0.97906154
vt 0.5132754 0.9790615
vt 0.5720868 0.9809034
vt 0.5132754 0.9809034
vt 0.5112721 0.9790615
vt 0.5112722 0.9416922
vt 0.5112722 0.9416922
vt 0.5132755 0.9416922
vt 0.5132754 0.9790615
vt 0.5112721 0.9790615
vt 0.51311207 0.99360836
vt 0.5427046 0.99360836
vt 0.5427046 0.9833896
vt 0.5131122 0.98338956
vt 0.51311207 0.9812895
vt 0.5427046 0.9833896
vt 0.5427046 0.9812895
vt 0.5131122 0.98338956
vt 0.5427046 0.99360836
vt 0.51311207 0.99360836
vt 0.5427046 0.99570847
vt 0.5131122 0.9957084
vt 0.51056457 0.99360836
vt 0.51056457 0.9833896
vt 0.51056457 0.9833896
vt 0.5131122 0.98338956
vt 0.51311207 0.99360836
vt 0.51056457 0.99360836
vt 0.5468738 0.9934635
vt 0.57172537 0.9934636
vt 0.57172525 0.9832691
vt 0.5468738 0.9832691
vt 0.5468738 0.98117316
vt 0.57172525 0.9832691
vt 0.57172537 0.9811732
vt 0.5468738 0.9832691
vt 0.57172537 0.9934636
vt 0.5468738 0.9934635
vt 0.57172525 0.99555945
vt 0.5468738 0.99555945
vt 0.54481995 0.9934635
vt 0.54481995 0.9832691
vt 0.54481995 0.9832691
vt 0.5468738 0.9832691
vt 0.5468738 0.9934635
vt 0.54481995 0.9934635
vt 0.58068633 0.98391366
vt 0.5759827 0.98665786
vt 0.5791017 0.98665786
vt 0.5743487 0.98391366
vt 0.57593286 0.9811693
vt 0.5791018 0.9811693
vt 0.5863447 0.8782975
vt 0.5826627 0.98830867
vt 0.5826628 0.87829745
vt 0.5863447 0.9883087
vt 0.5900253 0.87829745
vt 0.581669 0.990208
vt 0.5900252 0.9883088
vt 0.5937071 0.87829745
vt 0.58601356 0.990208
vt 0.5816691 0.99216217
vt 0.59370697 0.9883088
vt 0.5900253 0.87829745
vt 0.5903572 0.990208
vt 0.58601356 0.9921621
vt 0.58374 0.9937571
vt 0.5900252 0.9883088
vt 0.5863447 0.8782975
vt 0.5947015 0.9902081
vt 0.5903572 0.9921621
vt 0.58670294 0.9937571
vt 0.5837246 0.99586165
vt 0.58668756 0.99586153
vt 0.5896666 0.99375707
vt 0.5896512 0.9958616
vt 0.5863447 0.9883087
vt 0.5826628 0.87829745
vt 0.5826627 0.98830867
vt 0.5903572 0.990208
vt 0.5947014 0.9921621
vt 0.59263086 0.99375707
vt 0.5926155 0.9958616
vt 0.58601356 0.990208
vt 0.581669 0.990208
vt 0.5903572 0.9921621
vt 0.5896666 0.99375707
vt 0.5896512 0.9958616
vt 0.58601356 0.9921621
vt 0.5816691 0.99216217
vt 0.58670294 0.9937571
vt 0.58668756 0.99586153
vt 0.58374 0.9937571
vt 0.5837246 0.99586165
vt 0.5743487 0.98391366
vt 0.5791018 0.9811693
vt 0.57593286 0.9811693
vt 0.58068633 0.98391366
vt 0.5791017 0.98665786
vt 0.57588303 0.98665786
vt 0.5766313 0.94078696
vt 0.57450086 0.98048073
vt 0.57450086 0.94078696
vt 0.5766312 0.9804807
vt 0.57875466 0.94078696
vt 0.57875466 0.9804807
vt 0.58088267 0.94078696
vt 0.58088267 0.9804807
vt 0.57875466 0.94078696
vt 0.57875466 0.9804807
vt 0.5766313 0.94078696
vt 0.5766312 0.9804807
vt 0.57450086 0.94078696
vt 0.57450086 0.98048073
vt 0.58068633 0.98391366
vt 0.57593286 0.9811693
vt 0.5743487 0.98391366
vt 0.57588303 0.98665786
vt 0.5791017 0.98665786
vt 0.5743487 0.98391366
vt 0.5791018 0.9811693
vt 0.57593286 0.9811693
vt 0.58068633 0.98391366
vt 0.5791017 0.98665786
vt 0.57588303 0.98665786
vt 0.5766313 0.94078696
vt 0.57450086 0.98048073
vt 0.57450086 0.94078696
vt 0.5766312 0.9804807
vt 0.57875466 0.94078696
vt 0.57875466 0.9804807
vt 0.58088267 0.94078696
vt 0.58088267 0.9804807
vt 0.57875466 0.94078696
vt 0.57875466 0.9804807
vt 0.5766313 0.94078696
vt 0.5766313 0.9804808
vt 0.57450086 0.94078696
vt 0.57450086 0.98048073
vt 0.58068633 0.98391366
vt 0.57593286 0.9811693
vt 0.5743487 0.98391366
vt 0.57588303 0.98665786
vt 0.5791017 0.98665786
vt 0.58088267 0.9603106
vt 0.58088267 0.94078696
vt 0.5780867 0.94078696
vt 0.57808673 0.9603106
vt 0.57450086 0.94078696
vt 0.57450086 0.9603106
vt 0.5780867 0.94078696
vt 0.57808673 0.9603106
vt 0.58088267 0.94078696
vt 0.58088267 0.9603106
vt 0.57808673 0.9603106
vt 0.57450086 0.94078696
vt 0.57450086 0.9603106
vt 0.5780867 0.94078696
vt 0.58088267 0.9603106
vt 0.58088267 0.94078696
vt 0.57808673 0.9603106
vt 0.5780867 0.94078696
vt 0.57450086 0.9603106
vt 0.57450086 0.94078696
vt 0.57808673 0.9603106
vt 0.57450086 0.94078696
vt 0.57450086 0.9603106
vt 0.5780867 0.94078696
vt 0.58088267 0.9603106
vt 0.58088267 0.94078696
vt 0.57808673 0.9603106
vt 0.5780867 0.94078696
vt 0.57450086 0.9603106
vt 0.57450086 0.94078696
vt 0.57808673 0.9603106
vt 0.57450086 0.94078696
vt 0.57450086 0.9603106
vt 0.5780867 0.94078696
vt 0.58088267 0.9603106
vt 0.58088267 0.94078696
vt 0.57808673 0.9603106
vt 0.5780867 0.94078696
vt 0.57450086 0.9603106
vt 0.57450086 0.94078696
vt 0.5759827 0.98665786
vt 0.5775175 0.98391366
vt 0.5743487 0.98391366
vt 0.5791017 0.98665786
vt 0.57593286 0.9811693
vt 0.58068633 0.98391366
vt 0.5791018 0.9811693
vn -0.57735026 -0.57735044 -0.57735
vn 0.57735026 -0.57735044 -0.57735
vn 0.5773502 0.5773501 -0.5773505
vn -0.5773502 0.5773501 -0.5773505
vn -0.57735026 -0.57735044 -0.57735
vn 0.5773502 -0.5773501 0.5773505
vn 0.57735026 -0.57735044 -0.57735
vn -0.5773502 -0.5773501 0.5773505
vn 0.57735026 0.57735044 0.57735
vn -0.57735026 0.57735044 0.57735
vn 0.5773502 0.5773501 -0.5773505
vn -0.5773502 0.5773501 -0.5773505
vn -0.5773502 0.5773501 -0.5773505
vn -0.57735026 -0.57735044 -0.57735
vn 0.57735026 -0.57735044 -0.57735
vn 0.5773502 -0.5773501 0.5773505
vn 0.57735026 0.57735044 0.57735
vn 0.5773502 0.5773501 -0.5773505
vn -0.57735026 -0.57735044 -0.57735
vn 0.57735026 -0.57735044 -0.57735
vn 0.5773502 0.5773501 -0.5773505
vn -0.5773502 0.5773501 -0.5773505
vn -0.57735026 -0.57735044 -0.57735
vn 0.57735026 -0.5773501 0.57735056
vn 0.57735026 -0.57735044 -0.57735
vn -0.57735026 -0.5773501 0.57735056
vn 0.5773503 0.5773505 0.57735
vn -0.5773503 0.5773505 0.57735
vn 0.5773502 0.5773501 -0.5773505
vn -0.5773502 0.5773501 -0.5773505
vn -0.5773502 0.5773501 -0.5773505
vn -0.57735026 -0.57735044 -0.57735
vn 0.57735026 -0.57735044 -0.57735
vn 0.57735026 -0.5773501 0.57735056
vn 0.5773503 0.5773505 0.57735
vn 0.5773502 0.5773501 -0.5773505
vn -0.5773503 -0.5773505 -0.57735
vn 0.5773503 -0.5773505 -0.57735
vn 0.57735026 0.5773501 -0.57735056
vn -0.57735026 0.5773501 -0.57735056
vn -0.5773503 -0.5773505 -0.57735
vn 0.57735026 -0.5773501 0.57735056
vn 0.5773503 -0.5773505 -0.57735
vn -0.57735026 -0.5773501 0.57735056
vn 0.5773503 0.5773505 0.57735
vn -0.5773503 0.5773505 0.57735
vn 0.57735026 0.5773501 -0.57735056
vn -0.57735026 0.5773501 -0.57735056
vn -0.57735026 0.5773501 -0.57735056
vn -0.5773503 -0.5773505 -0.57735
vn 0.5773503 -0.5773505 -0.57735
vn 0.57735026 -0.5773501 0.57735056
vn 0.5773503 0.5773505 0.57735
vn 0.57735026 0.5773501 -0.57735056
vn 0.79240555 -0.60999465 0
vn -0.396204 -0.60999376 0.68624336
vn 0.39620405 -0.60999376 0.68624336
vn -0.79240555 -0.6099947 0
vn -0.39620408 -0.6099944 -0.6862429
vn 0.39620396 -0.60999435 -0.6862429
vn -0.39620408 -0.6099944 -0.6862429
vn -0.544706 -0.8386271 0
vn -0.79240555 -0.6099947 0
vn -0.27235264 -0.8386284 -0.47172704
vn 0.39620396 -0.60999435 -0.6862429
vn -0.7924065 -0.6099934 0
vn 0.27235252 -0.8386284 -0.47172704
vn 0.79240555 -0.60999465 0
vn -0.39620525 -0.60999423 -0.6862422
vn -0.79229945 0.6101324 0
vn 0.5447061 -0.838627 0
vn 0.39620405 -0.60999376 0.68624336
vn 0.3962051 -0.60999423 -0.68624234
vn -0.39615178 0.6101325 -0.68615025
vn -0.54442203 0.83881146 0
vn 0.27235302 -0.83862805 0.47172737
vn -0.396204 -0.60999376 0.68624336
vn 0.7924051 -0.60999525 0
vn 0.3961516 0.61013246 -0.6861504
vn -0.27221212 0.8388068 -0.471491
vn -0.79240704 0.6099927 0
vn -0.39619887 0.60999477 -0.68624556
vn 0.27221188 0.8388069 -0.47149083
vn 0.39619878 0.60999477 -0.68624556
vn -0.27235296 -0.83862805 0.47172737
vn -0.79240555 -0.6099947 0
vn -0.544706 -0.8386271 0
vn 0.39620522 -0.6099936 0.6862429
vn 0.7922981 0.6101342 0
vn 0.5444221 0.83881146 0
vn 0.7924071 0.6099927 0
vn -0.39619613 -0.6099953 0.6862466
vn -0.7924065 -0.6099934 0
vn 0.39615166 0.6101333 0.6861496
vn 0.2722116 0.8388073 0.47149047
vn 0.3961988 0.6099953 0.68624496
vn -0.39614257 0.6101351 0.6861533
vn -0.79229945 0.6101324 0
vn -0.27221152 0.8388073 0.47149047
vn -0.39619875 0.6099953 0.68624496
vn -0.54442203 0.83881146 0
vn -0.79240704 0.6099927 0
vn 0.6099928 0.7924069 0
vn 0.6099941 -0.39620268 0.6862439
vn 0.6099953 0.39620563 0.6862411
vn 0.6099943 -0.7924058 0
vn 0.6099943 -0.39620364 -0.6862431
vn 0.609995 0.39620483 -0.6862418
vn 0.6099943 -0.39620364 -0.6862431
vn -0.60999435 -0.7924058 0
vn 0.6099943 -0.7924058 0
vn -0.6099943 -0.39620364 -0.6862431
vn 0.609995 0.39620483 -0.6862418
vn -0.6099921 0.3962063 -0.68624353
vn 0.6099928 0.7924069 0
vn -0.60999805 0.7924029 0
vn 0.6099953 0.39620563 0.6862411
vn -0.6099922 0.3962072 0.68624294
vn 0.6099941 -0.39620268 0.6862439
vn -0.6099941 -0.3962027 0.68624395
vn 0.6099943 -0.7924058 0
vn -0.60999435 -0.7924058 0
vn -0.60999805 0.7924029 0
vn -0.6099941 -0.3962027 0.68624395
vn -0.60999435 -0.7924058 0
vn -0.6099943 -0.39620364 -0.6862431
vn -0.6099921 0.3962063 -0.68624353
vn 0.60999435 0.7924058 0
vn 0.60999405 -0.39620286 0.68624383
vn 0.6099943 0.39620355 0.6862431
vn 0.60999435 -0.7924058 0
vn 0.60999435 -0.39620355 -0.6862431
vn 0.60999405 0.39620286 -0.68624383
vn 0.60999435 -0.39620355 -0.6862431
vn -0.60999435 -0.7924057 0
vn 0.60999435 -0.7924058 0
vn -0.60999423 -0.39620358 -0.68624324
vn 0.60999405 0.39620286 -0.68624383
vn -0.60999423 0.39620277 -0.6862437
vn 0.60999435 0.7924058 0
vn -0.60999435 0.7924057 0
vn 0.6099943 0.39620355 0.6862431
vn -0.6099941 0.3962036 0.68624324
vn 0.60999405 -0.39620286 0.68624383
vn -0.60999423 -0.3962028 0.6862438
vn 0.60999435 -0.7924058 0
vn -0.60999435 -0.7924057 0
vn -0.60999435 0.7924057 0
vn -0.60999423 -0.3962028 0.6862438
vn -0.60999435 -0.7924057 0
vn -0.60999423 -0.39620358 -0.68624324
vn -0.60999423 0.39620277 -0.6862437
vn -0.7071067 0 0.70710677
vn -0.7071067 0 0.7071068
vn 0.7071067 0 0.70710677
vn 0.70710677 0 0.70710677
vn 0.70710695 0 -0.7071066
vn 0.70710653 0 -0.70710695
vn -0.7071069 0 -0.7071066
vn -0.70710653 0 -0.707107
vn -0.7071067 0 0.7071068
vn -0.7071067 0 0.70710677
vn 0.70710677 0 0.70710677
vn 0.70710695 0 -0.7071066
vn 0.70710653 0 -0.70710695
vn 0.7071067 0 0.70710677
vn -0.7071067 0 0.70710677
vn -0.7071067 0 0.7071068
vn -0.70710653 0 -0.707107
vn -0.7071069 0 -0.7071066
vn 0.70710653 0 -0.70710695
vn 0.70710695 0 -0.7071066
vn 0.70710677 0 0.70710677
vn 0.70710695 0 -0.7071066
vn 0.70710653 0 -0.70710695
vn 0.7071067 0 0.70710677
vn -0.7071067 0 0.70710677
vn -0.7071067 0 0.7071068
vn -0.70710653 0 -0.707107
vn -0.7071069 0 -0.7071066
vn 0.70710653 0 -0.70710695
vn 0.70710695 0 -0.7071066
vn 0.70710677 0 0.70710677
vn 0.70710695 0 -0.7071066
vn 0.70710653 0 -0.70710695
vn 0.7071067 0 0.70710677
vn -0.7071067 0 0.70710677
vn -0.7071067 0 0.7071068
vn -0.70710653 0 -0.707107
vn -0.7071069 0 -0.7071066
vn 0.70710653 0 -0.70710695
vn 0.70710695 0 -0.7071066
vn -0.39619875 0.6099953 0.68624496
vn -0 1 0
vn 0.3961988 0.6099953 0.68624496
vn -0.79240704 0.6099927 0
vn 0.7924071 0.6099927 0
vn -0.39619887 0.60999477 -0.68624556
vn 0.39619878 0.60999477 -0.68624556
g fcbg_desert_001_sign_01_0
f 3/3/3 2/2/2 1/1/1
f 4/4/4 3/3/3 1/1/1
f 7/7/7 6/6/6 5/5/5
f 6/6/6 8/8/8 5/5/5
f 6/6/6 9/9/9 8/8/8
f 9/9/9 10/10/10 8/8/8
f 10/10/10 9/9/9 11/11/11
f 12/12/12 10/10/10 11/11/11
f 8/8/8 10/10/10 13/13/13
f 14/14/14 8/8/8 13/13/13
f 17/17/17 16/16/16 15/15/15
f 18/18/18 17/17/17 15/15/15
f 21/21/21 20/20/20 19/19/19
f 22/22/22 21/21/21 19/19/19
f 25/25/25 24/24/24 23/23/23
f 24/24/24 26/26/26 23/23/23
f 24/24/24 27/27/27 26/26/26
f 27/27/27 28/28/28 26/26/26
f 28/28/28 27/27/27 29/29/29
f 30/30/30 28/28/28 29/29/29
f 26/26/26 28/28/28 31/31/31
f 32/32/32 26/26/26 31/31/31
f 35/35/35 34/34/34 33/33/33
f 36/36/36 35/35/35 33/33/33
f 39/39/39 38/38/38 37/37/37
f 40/40/40 39/39/39 37/37/37
f 43/43/43 42/42/42 41/41/41
f 42/42/42 44/44/44 41/41/41
f 42/42/42 45/45/45 44/44/44
f 45/45/45 46/46/46 44/44/44
f 46/46/46 45/45/45 47/47/47
f 48/48/48 46/46/46 47/47/47
f 44/44/44 46/46/46 49/49/49
f 50/50/50 44/44/44 49/49/49
f 53/53/53 52/52/52 51/51/51
f 54/54/54 53/53/53 51/51/51
f 57/57/57 56/56/56 55/55/55
f 56/56/56 58/58/58 55/55/55
f 58/58/58 59/59/59 55/55/55
f 59/59/59 60/60/60 55/55/55
f 63/63/63 62/62/62 61/61/61
f 62/62/62 64/64/64 61/61/61
f 61/61/61 64/64/64 65/65/65
f 62/62/62 66/66/66 64/64/64
f 64/64/64 67/67/67 65/65/65
f 65/65/65 67/67/67 68/68/68
f 66/66/66 69/69/69 64/64/64
f 64/64/64 69/69/69 67/67/67
f 66/66/66 70/70/70 69/69/69
f 67/67/67 71/71/71 68/68/68
f 68/68/68 71/71/71 72/72/72
f 69/69/69 73/73/73 67/67/67
f 67/67/67 73/73/73 71/71/71
f 70/70/70 74/74/74 69/69/69
f 69/69/69 74/74/74 73/73/73
f 70/70/70 75/75/75 74/74/74
f 71/71/71 76/76/76 72/72/72
f 72/72/72 76/76/76 77/77/77
f 73/73/73 78/78/78 71/71/71
f 71/71/71 78/78/78 76/76/76
f 74/74/74 79/79/79 73/73/73
f 73/73/73 79/79/79 78/78/78
f 75/75/75 80/80/80 74/74/74
f 74/74/74 80/80/80 79/79/79
f 75/75/75 81/81/81 80/80/80
f 81/81/81 82/82/82 80/80/80
f 80/80/80 82/82/82 83/83/83
f 80/80/80 83/83/83 79/79/79
f 82/82/82 84/84/84 83/83/83
f 76/76/76 85/85/85 77/77/77
f 77/77/77 85/85/85 86/86/86
f 85/85/85 87/87/87 86/86/86
f 78/78/78 88/88/88 76/76/76
f 76/76/76 88/88/88 85/85/85
f 79/79/79 89/89/89 78/78/78
f 79/79/79 83/83/83 89/89/89
f 78/78/78 89/89/89 88/88/88
f 83/83/83 84/84/84 90/90/90
f 83/83/83 90/90/90 89/89/89
f 84/84/84 91/91/91 90/90/90
f 85/85/85 92/92/92 87/87/87
f 88/88/88 92/92/92 85/85/85
f 92/92/92 93/93/93 87/87/87
f 89/89/89 94/94/94 88/88/88
f 89/89/89 90/90/90 94/94/94
f 88/88/88 94/94/94 92/92/92
f 90/90/90 91/91/91 95/95/95
f 90/90/90 95/95/95 94/94/94
f 91/91/91 96/96/96 95/95/95
f 92/92/92 97/97/97 93/93/93
f 94/94/94 97/97/97 92/92/92
f 94/94/94 95/95/95 97/97/97
f 97/97/97 98/98/98 93/93/93
f 95/95/95 96/96/96 99/99/99
f 95/95/95 99/99/99 97/97/97
f 97/97/97 99/99/99 98/98/98
f 96/96/96 100/100/100 99/99/99
f 99/99/99 101/101/101 98/98/98
f 99/99/99 100/100/100 101/101/101
f 100/100/100 102/102/102 101/101/101
f 105/105/105 104/104/104 103/103/103
f 104/104/104 106/106/106 103/103/103
f 106/106/106 107/107/107 103/103/103
f 107/107/107 108/108/108 103/103/103
f 111/111/111 110/110/110 109/109/109
f 110/110/110 112/112/112 109/109/109
f 109/109/109 112/112/112 113/113/113
f 112/112/112 114/114/114 113/113/113
f 113/113/113 114/114/114 115/115/115
f 114/114/114 116/116/116 115/115/115
f 115/115/115 116/116/116 117/117/117
f 116/116/116 118/118/118 117/117/117
f 117/117/117 118/118/118 119/119/119
f 118/118/118 120/120/120 119/119/119
f 119/119/119 120/120/120 121/121/121
f 120/120/120 122/122/122 121/121/121
f 124/124/124 118/118/118 123/123/123
f 125/125/125 124/124/124 123/123/123
f 126/126/126 125/125/125 123/123/123
f 127/127/127 126/126/126 123/123/123
f 130/130/130 129/129/129 128/128/128
f 129/129/129 131/131/131 128/128/128
f 131/131/131 132/132/132 128/128/128
f 132/132/132 133/133/133 128/128/128
f 136/136/136 135/135/135 134/134/134
f 135/135/135 137/137/137 134/134/134
f 134/134/134 137/137/137 138/138/138
f 137/137/137 139/139/139 138/138/138
f 138/138/138 139/139/139 140/140/140
f 139/139/139 141/141/141 140/140/140
f 140/140/140 141/141/141 142/142/142
f 141/141/141 143/143/143 142/142/142
f 142/142/142 143/143/143 144/144/144
f 143/143/143 145/145/145 144/144/144
f 144/144/144 145/145/145 146/146/146
f 145/145/145 147/147/147 146/146/146
f 149/149/149 143/143/143 148/148/148
f 150/150/150 149/149/149 148/148/148
f 151/151/151 150/150/150 148/148/148
f 152/152/152 151/151/151 148/148/148
f 155/155/155 154/154/154 153/153/153
f 156/156/156 155/155/155 153/153/153
f 157/157/157 155/155/155 156/156/156
f 158/158/158 157/157/157 156/156/156
f 159/159/159 157/157/157 158/158/158
f 160/160/160 159/159/159 158/158/158
f 161/161/161 159/159/159 160/160/160
f 162/162/162 161/161/161 160/160/160
f 165/165/165 164/164/164 163/163/163
f 164/164/164 166/166/166 163/163/163
f 163/163/163 166/166/166 167/167/167
f 166/166/166 168/168/168 167/167/167
f 167/167/167 168/168/168 169/169/169
f 168/168/168 170/170/170 169/169/169
f 169/169/169 170/170/170 171/171/171
f 170/170/170 172/172/172 171/171/171
f 175/175/175 174/174/174 173/173/173
f 174/174/174 176/176/176 173/173/173
f 173/173/173 176/176/176 177/177/177
f 176/176/176 178/178/178 177/177/177
f 177/177/177 178/178/178 179/179/179
f 178/178/178 180/180/180 179/179/179
f 179/179/179 180/180/180 181/181/181
f 180/180/180 182/182/182 181/181/181
f 185/185/185 184/184/184 183/183/183
f 184/184/184 186/186/186 183/183/183
f 183/183/183 186/186/186 187/187/187
f 186/186/186 188/188/188 187/187/187
f 187/187/187 188/188/188 189/189/189
f 188/188/188 190/190/190 189/189/189
f 189/189/189 190/190/190 191/191/191
f 190/190/190 192/192/192 191/191/191
f 195/195/195 194/194/194 193/193/193
f 193/193/193 194/194/194 196/196/196
f 197/197/197 194/194/194 195/195/195
f 196/196/196 194/194/194 198/198/198
f 199/199/199 194/194/194 197/197/197
f 198/198/198 194/194/194 199/199/199
