g fcbg_greathole_001_factory_07
v -0.50333184 -0.00014134918 0.50084746
v 0.32615918 5.8850126 0.3245494
v 0.50333184 -0.00014134918 0.50084746
v -0.32615918 5.8850126 0.3245494
v -0.50333184 -0.00014130541 -0.5008482
v -0 7.3404007 -3.723372E-08
v -0.32615918 5.8850126 -0.3245496
v -0 7.3404007 -3.723372E-08
v 0.32615918 5.8850126 0.3245494
v 0.32615918 5.8850126 -0.3245496
v 0.50333184 -0.00014134918 0.50084746
v -0.32615918 5.8850126 -0.3245496
v 0.50333184 -0.00014130541 -0.5008482
v -0.50333184 -0.00014130541 -0.5008482
vt 0.97006756 0.32099605
vt 0.95802283 0.15697719
vt 0.9402257 0.3191554
vt 0.9767932 0.15841939
vt 0.9979397 0.3210482
vt 0.9713137 0.118785344
vt 0.99539053 0.15820159
vt 0.98505205 0.118573956
vt 0.99539053 0.15820159
vt 0.97632027 0.15837933
vt 0.9979397 0.3210482
vt 0.95802283 0.15697719
vt 0.97006756 0.32099605
vt 0.9402257 0.3191554
vn -0.7064997 0.042431626 0.70644015
vn 0.6975879 0.16411644 0.6974503
vn 0.7064997 0.042431626 0.70644015
vn -0.6975879 0.16411644 0.6974503
vn -0.7064997 0.042431694 -0.70644015
vn -0 1 0
vn -0.6975879 0.16411644 -0.6974503
vn -0 1 0
vn 0.6975879 0.16411644 0.6974503
vn 0.6975879 0.16411644 -0.6974503
vn 0.7064997 0.042431626 0.70644015
vn -0.6975879 0.16411644 -0.6974503
vn 0.7064997 0.042431694 -0.70644015
vn -0.7064997 0.042431694 -0.70644015
g fcbg_greathole_001_factory_07_0
f 3/3/3 2/2/2 1/1/1
f 2/2/2 4/4/4 1/1/1
f 1/1/1 4/4/4 5/5/5
f 2/2/2 6/6/6 4/4/4
f 4/4/4 7/7/7 5/5/5
f 4/4/4 8/8/8 7/7/7
f 10/10/10 8/8/8 9/9/9
f 10/10/10 9/9/9 11/11/11
f 12/12/12 6/6/6 10/10/10
f 13/13/13 10/10/10 11/11/11
f 12/12/12 10/10/10 13/13/13
f 14/14/14 12/12/12 13/13/13
