g fcbg_iceland_001_house_21
v -2.9770966 7.441186 -0.63678056
v -2.9764862 -0.0018558502 -0.63677293
v -3.1891174 -0.0018558502 -0.34777912
v -3.189148 7.4407835 -0.34784016
v -2.8599854 7.6439486 -0.63678056
v -3.4247284 -0.0018558502 -0.6367653
v -3.001709 7.8350973 -0.3478478
v -2.652542 7.692258 -0.6368187
v -3.4260864 7.441264 -0.6367653
v -2.6524658 7.9770536 -0.348626
v -2.045105 7.692258 -0.63678056
v -2.045105 7.9770536 -0.34787068
v -3.1746826 8.016068 -0.6367653
v -2.6524048 8.262813 -0.63675004
v -2.045105 8.262813 -0.63678056
v -2.652481 7.978013 -0.92488176
v -2.045105 7.978013 -0.9255989
v -3.1891632 7.4416685 -0.9255379
v -3.1891174 -0.0018558502 -0.92544633
v -3.0013733 7.8334646 -0.9255608
v -2.652542 7.692258 -0.6368187
v -2.045105 7.692258 -0.63678056
v -2.8599854 7.6439486 -0.63678056
v -2.9770966 7.441186 -0.63678056
v -2.9764862 -0.0018558502 -0.63677293
v -2.9770966 7.441186 0.58895797
v -2.9764862 -0.0016040802 0.58895797
v -3.1891174 -0.0016040802 0.87796706
v -3.189148 7.4407835 0.87789077
v -2.8599854 7.6439486 0.58895797
v -3.4247284 -0.0016040802 0.5889732
v -3.001709 7.8350973 0.8778755
v -2.652542 7.692258 0.5889122
v -3.4260864 7.441264 0.58895797
v -2.6524658 7.9770536 0.87710494
v -2.045105 7.692258 0.58895797
v -2.045105 7.9770536 0.87786025
v -3.1746826 8.016068 0.58895797
v -2.6524048 8.262813 0.5889885
v -2.045105 8.262813 0.58895797
v -2.652481 7.978013 0.3008491
v -2.045105 7.978013 0.30013958
v -3.1891632 7.4416685 0.3002006
v -3.1891174 -0.0016040802 0.30028453
v -3.0013733 7.8334646 0.30018535
v -2.652542 7.692258 0.5889122
v -2.045105 7.692258 0.58895797
v -2.8599854 7.6439486 0.58895797
v -2.9770966 7.441186 0.58895797
v -2.9764862 -0.0016040802 0.58895797
v 0.34059143 0.0051202774 3.0854714
v 2.5223389 7.4488096 2.1817696
v 2.5223389 0.0051202774 2.1817696
v 0.34059143 7.4488096 3.0854714
v -1.841156 0.0051202774 2.1817696
v 3.426056 7.4488096 1.4456231E-05
v 3.426056 0.0051202774 1.4456231E-05
v -1.841156 7.4488096 2.1817696
v -2.744873 0.0051202774 -8.0255813E-07
v 2.5223389 7.4488096 -2.1817482
v 2.5223389 0.0051202774 -2.1817482
v -2.744873 7.4488096 -8.0255813E-07
v -1.841156 0.0051202774 -2.1817405
v 0.34059143 7.4488096 -3.0854576
v 0.34059143 0.0051202774 -3.0854576
v -1.841156 7.4488096 -2.1817405
v 2.2141724 8.432153 1.8736106
v 2.990265 8.432153 1.4456231E-05
v 0.34059143 8.432153 2.649665
v 2.2141724 8.432153 -1.8735741
v -1.5329895 8.432153 1.873603
v 0.34059143 8.432153 -2.649659
v -1.5329895 8.432153 -1.8735818
v -2.3090668 8.432153 -8.0255813E-07
v 1.3401031 9.173343 0.99954146
v 1.7541504 9.173343 1.4456231E-05
v 0.34059143 9.450719 1.4456231E-05
v 0.34059143 9.173343 1.4135581
v 1.3401031 9.173343 -0.9995201
v -0.65893555 9.173343 0.99954146
v 0.34059143 9.173343 -1.4135445
v -1.0729523 9.173343 1.4456231E-05
v -0.65893555 9.173343 -0.9995201
vt 0.2066999 0.1286008
vt 0.26042166 0.12860715
vt 0.26042166 0.12539448
vt 0.20664935 0.12540635
vt 0.20441446 0.1294568
vt 0.26042166 0.12200968
vt 0.20235005 0.12682074
vt 0.20312393 0.13123095
vt 0.20663323 0.1220334
vt 0.19977918 0.12972791
vt 0.20069689 0.13657871
vt 0.19723123 0.13535646
vt 0.20044433 0.12395555
vt 0.19641651 0.1282478
vt 0.19383535 0.13414992
vt 0.19977918 0.12972791
vt 0.19723123 0.13535646
vt 0.20664935 0.12540635
vt 0.26042166 0.12539448
vt 0.20235005 0.12682074
vt 0.20312393 0.13123095
vt 0.20069689 0.13657871
vt 0.20441446 0.1294568
vt 0.2066999 0.1286008
vt 0.26042166 0.12860715
vt 0.2066999 0.1286008
vt 0.26042166 0.12860715
vt 0.26042166 0.12539448
vt 0.20664935 0.12540635
vt 0.20441446 0.1294568
vt 0.26042166 0.12200968
vt 0.20235005 0.12682074
vt 0.20312393 0.13123095
vt 0.20663323 0.1220334
vt 0.19977918 0.12972791
vt 0.20069689 0.13657871
vt 0.19723123 0.13535646
vt 0.20044433 0.12395555
vt 0.19641651 0.1282478
vt 0.19383535 0.13414992
vt 0.19977918 0.12972791
vt 0.19723123 0.13535646
vt 0.20664935 0.12540635
vt 0.26042166 0.12539448
vt 0.20235005 0.12682074
vt 0.20312393 0.13123095
vt 0.20069689 0.13657871
vt 0.20441446 0.1294568
vt 0.2066999 0.1286008
vt 0.26042166 0.12860715
vt 0.34770137 0.18205044
vt 0.3276026 0.11451384
vt 0.32760262 0.18205044
vt 0.34770134 0.11451384
vt 0.36963415 0.18205044
vt 0.30846617 0.11451384
vt 0.3084662 0.18205044
vt 0.36963412 0.11451384
vt 0.34770137 0.18205044
vt 0.28664756 0.11451384
vt 0.2866476 0.18205044
vt 0.34770134 0.11451384
vt 0.32760262 0.18205044
vt 0.30846617 0.11451384
vt 0.3084662 0.18205044
vt 0.3276026 0.11451384
vt 0.32756802 0.10138913
vt 0.31043705 0.10138913
vt 0.34585366 0.10138913
vt 0.2934783 0.10138913
vt 0.36347023 0.10138913
vt 0.31043705 0.10138913
vt 0.32756802 0.10138913
vt 0.34585366 0.10138913
vt 0.32764134 0.09219401
vt 0.31361035 0.09219401
vt 0.32768193 0.08313692
vt 0.34212354 0.09219401
vt 0.30188698 0.09219401
vt 0.353213 0.09219401
vt 0.31361035 0.09219401
vt 0.34212354 0.09219401
vt 0.32764134 0.09219401
vn 0.9664827 -0.25673154 -2.6641246E-05
vn 1 4.2809093E-05 -0.00021613119
vn 0.025854643 -2.6267342E-05 0.99966574
vn -0.08328522 0.029208085 0.99609756
vn 0.667663 -0.7444635 0.0004894627
vn -1 -9.4629555E-05 -0.00018627533
vn -0.14647663 0.090047695 0.9851071
vn 0.17860913 -0.98392004 -0.00036710172
vn -0.9808911 0.1945575 -0.0003265538
vn -0.057874747 0.07868156 0.99521846
vn -0.00059924717 -0.9999994 -0.00090842065
vn -0.00062490377 -0.00087319093 0.9999994
vn -0.705774 0.70843697 -0.00020488164
vn -0.19293101 0.9812123 0.00019600053
vn -0.0005993563 0.9999995 0.0007817923
vn -0.058214344 0.080723 -0.9950352
vn -0.0005872256 0.00086667814 -0.9999995
vn -0.08378306 0.029243095 -0.99605477
vn 0.025825731 -3.695673E-05 -0.99966645
vn -0.1446086 0.087592304 -0.9856044
vn 0.17860913 -0.98392004 -0.00036710172
vn -0.00059924717 -0.9999994 -0.00090842065
vn 0.667663 -0.7444635 0.0004894627
vn 0.9664827 -0.25673154 -2.6641246E-05
vn 1 4.2809093E-05 -0.00021613119
vn 0.9664842 -0.256726 -2.386343E-05
vn 1 4.3375967E-05 -0.00021971011
vn 0.025851399 -2.4962526E-05 0.99966574
vn -0.08329088 0.029215628 0.9960969
vn 0.6676602 -0.744466 0.0005022974
vn -1 -9.400425E-05 -0.00019524543
vn -0.1464859 0.090051964 0.9851053
vn 0.17860124 -0.9839215 -0.00037361975
vn -0.98089075 0.19455883 -0.00033967802
vn -0.057882354 0.07867822 0.9952182
vn -0.0005961335 -0.9999994 -0.00089945825
vn -0.00062804495 -0.00087658403 0.9999994
vn -0.70577526 0.7084357 -0.00022053736
vn -0.19293351 0.9812118 0.00020476426
vn -0.0005962533 0.9999995 0.000791774
vn -0.05821548 0.08072053 -0.9950353
vn -0.00057778973 0.0008700238 -0.9999995
vn -0.08377257 0.029244361 -0.9960557
vn 0.02582904 -3.672684E-05 -0.99966633
vn -0.14460611 0.08758801 -0.98560506
vn 0.17860124 -0.9839215 -0.00037361975
vn -0.0005961335 -0.9999994 -0.00089945825
vn 0.6676602 -0.744466 0.0005022974
vn 0.9664842 -0.256726 -2.386343E-05
vn 1 4.3375967E-05 -0.00021971011
vn -0 0 1
vn 0.6931731 0.19752738 0.6931766
vn 0.7071051 0 0.7071084
vn -0 0.1975292 0.98029697
vn -0.707106 0 0.70710754
vn 0.9802973 0.1975276 0
vn 1 0 0
vn -0.6931738 0.19753 0.6931753
vn -1 0 0
vn 0.6931741 0.1975284 -0.6931754
vn 0.70710653 0 -0.70710695
vn -0.98029685 0.19752994 0
vn -0.7071063 0 -0.70710725
vn -0 0.19752896 -0.9802971
vn -0 0 -1
vn -0.6931748 0.19752796 -0.6931749
vn 0.55049664 0.62761396 0.5505035
vn 0.7785244 0.6276143 0
vn -0 0.6276153 0.7785237
vn 0.55049986 0.6276149 -0.5504994
vn -0.5504984 0.6276156 0.5505
vn -0 0.62761474 -0.7785241
vn -0.5504991 0.6276144 -0.5505006
vn -0.77852356 0.6276154 0
vn 0.2793026 0.91868216 0.27930844
vn 0.39499763 0.91868216 0
vn -0 1 0
vn -0 0.91868156 0.39499915
vn 0.27930444 0.91868174 -0.2793078
vn -0.27930707 0.91868114 0.279307
vn -0 0.918682 -0.39499807
vn -0.39499882 0.9186816 0
vn -0.27930725 0.9186816 -0.27930552
g fcbg_iceland_001_house_21_0
f 3/3/3 2/2/2 1/1/1
f 4/4/4 3/3/3 1/1/1
f 4/4/4 1/1/1 5/5/5
f 6/6/6 3/3/3 4/4/4
f 7/7/7 4/4/4 5/5/5
f 7/7/7 5/5/5 8/8/8
f 9/9/9 6/6/6 4/4/4
f 9/9/9 4/4/4 7/7/7
f 10/10/10 7/7/7 8/8/8
f 10/10/10 8/8/8 11/11/11
f 12/12/12 10/10/10 11/11/11
f 13/13/13 7/7/7 10/10/10
f 13/13/13 9/9/9 7/7/7
f 14/14/14 10/10/10 12/12/12
f 14/14/14 13/13/13 10/10/10
f 15/15/15 14/14/14 12/12/12
f 16/16/16 14/14/14 15/15/15
f 14/14/14 16/16/16 13/13/13
f 17/17/17 16/16/16 15/15/15
f 9/9/9 18/18/18 6/6/6
f 18/18/18 19/19/19 6/6/6
f 13/13/13 20/20/20 9/9/9
f 16/16/16 20/20/20 13/13/13
f 20/20/20 18/18/18 9/9/9
f 21/21/21 16/16/16 17/17/17
f 16/16/16 21/21/21 20/20/20
f 22/22/22 21/21/21 17/17/17
f 21/21/21 23/23/23 20/20/20
f 20/20/20 23/23/23 18/18/18
f 23/23/23 24/24/24 18/18/18
f 18/18/18 24/24/24 19/19/19
f 24/24/24 25/25/25 19/19/19
f 28/28/28 27/27/27 26/26/26
f 29/29/29 28/28/28 26/26/26
f 29/29/29 26/26/26 30/30/30
f 31/31/31 28/28/28 29/29/29
f 32/32/32 29/29/29 30/30/30
f 32/32/32 30/30/30 33/33/33
f 34/34/34 31/31/31 29/29/29
f 34/34/34 29/29/29 32/32/32
f 35/35/35 32/32/32 33/33/33
f 35/35/35 33/33/33 36/36/36
f 37/37/37 35/35/35 36/36/36
f 38/38/38 32/32/32 35/35/35
f 38/38/38 34/34/34 32/32/32
f 39/39/39 35/35/35 37/37/37
f 39/39/39 38/38/38 35/35/35
f 40/40/40 39/39/39 37/37/37
f 41/41/41 39/39/39 40/40/40
f 39/39/39 41/41/41 38/38/38
f 42/42/42 41/41/41 40/40/40
f 34/34/34 43/43/43 31/31/31
f 43/43/43 44/44/44 31/31/31
f 38/38/38 45/45/45 34/34/34
f 41/41/41 45/45/45 38/38/38
f 45/45/45 43/43/43 34/34/34
f 46/46/46 41/41/41 42/42/42
f 41/41/41 46/46/46 45/45/45
f 47/47/47 46/46/46 42/42/42
f 46/46/46 48/48/48 45/45/45
f 45/45/45 48/48/48 43/43/43
f 48/48/48 49/49/49 43/43/43
f 43/43/43 49/49/49 44/44/44
f 49/49/49 50/50/50 44/44/44
f 53/53/53 52/52/52 51/51/51
f 52/52/52 54/54/54 51/51/51
f 51/51/51 54/54/54 55/55/55
f 56/56/56 52/52/52 53/53/53
f 57/57/57 56/56/56 53/53/53
f 54/54/54 58/58/58 55/55/55
f 55/55/55 58/58/58 59/59/59
f 60/60/60 56/56/56 57/57/57
f 61/61/61 60/60/60 57/57/57
f 58/58/58 62/62/62 59/59/59
f 59/59/59 62/62/62 63/63/63
f 64/64/64 60/60/60 61/61/61
f 65/65/65 64/64/64 61/61/61
f 63/63/63 66/66/66 65/65/65
f 62/62/62 66/66/66 63/63/63
f 66/66/66 64/64/64 65/65/65
f 52/52/52 67/67/67 54/54/54
f 56/56/56 68/68/68 52/52/52
f 68/68/68 67/67/67 52/52/52
f 54/54/54 69/69/69 58/58/58
f 67/67/67 69/69/69 54/54/54
f 60/60/60 70/70/70 56/56/56
f 70/70/70 68/68/68 56/56/56
f 58/58/58 71/71/71 62/62/62
f 69/69/69 71/71/71 58/58/58
f 64/64/64 72/72/72 60/60/60
f 72/72/72 70/70/70 60/60/60
f 66/66/66 73/73/73 64/64/64
f 73/73/73 72/72/72 64/64/64
f 62/62/62 74/74/74 66/66/66
f 71/71/71 74/74/74 62/62/62
f 74/74/74 73/73/73 66/66/66
f 67/67/67 75/75/75 69/69/69
f 68/68/68 76/76/76 67/67/67
f 76/76/76 75/75/75 67/67/67
f 76/76/76 77/77/77 75/75/75
f 75/75/75 78/78/78 69/69/69
f 69/69/69 78/78/78 71/71/71
f 75/75/75 77/77/77 78/78/78
f 79/79/79 76/76/76 68/68/68
f 70/70/70 79/79/79 68/68/68
f 79/79/79 77/77/77 76/76/76
f 78/78/78 80/80/80 71/71/71
f 71/71/71 80/80/80 74/74/74
f 78/78/78 77/77/77 80/80/80
f 81/81/81 79/79/79 70/70/70
f 81/81/81 77/77/77 79/79/79
f 72/72/72 81/81/81 70/70/70
f 80/80/80 82/82/82 74/74/74
f 74/74/74 82/82/82 73/73/73
f 80/80/80 77/77/77 82/82/82
f 83/83/83 81/81/81 72/72/72
f 73/73/73 83/83/83 72/72/72
f 82/82/82 83/83/83 73/73/73
f 83/83/83 77/77/77 81/81/81
f 82/82/82 77/77/77 83/83/83
