g fcbg_cityforest_003_stone_04
v -0.2487705 0.23420958 0.32665586
v -0.45957193 0.23306409 0.22372329
v -0.24970138 0.302243 0.20729068
v 0.05366075 0.25247496 0.11163055
v -0.16013426 0.3057618 0.18090683
v 0.064808786 0.22705255 0.33593005
v -0.253374 0.0003572032 0.38008624
v -0.5250107 -0.00022950023 0.2617157
v 0.103675246 0.00031206757 0.3969038
v 0.17856011 0.18525156 0.15501678
v 0.24086133 0.00023404509 0.15662879
v -0.45957193 0.23306409 0.22372329
v 0.14197716 0.17038529 -0.11161006
v 0.20301962 0.00022467226 -0.13999426
v 0.07157248 0.00022324175 -0.15864533
v -0.53786457 -0.00032604486 -0.10857994
v -0.0051628053 0.1675955 -0.11912785
v -0.45988736 0.18471292 -0.094448484
v -0.37849587 -0.00032607466 -0.4250425
v -0.27335542 0.29223514 -0.12597704
v -0.042420864 0.15514705 -0.32438797
v -0.23768814 0.17842591 -0.19295448
v -0.006127812 0.18456157 -0.072328605
v -0.029650778 0.29440063 -0.03365374
v 0.03479007 -3.1515956E-06 -0.39693087
v -0.45988604 0.18471232 -0.09445206
v -0.22947398 0.14276427 -0.39553356
v -0.19844359 -0.00020664185 -0.50237644
v -0.29941726 0.14137335 -0.36774522
v 0.17856011 0.18525156 0.15501678
v 0.064808786 0.22705255 0.33593005
v 0.05366075 0.25247496 0.11163055
v 0.05366075 0.25247496 0.11163055
v 0.14197716 0.17038529 -0.11161006
v -0.006127812 0.18456157 -0.072328605
v 0.05366075 0.25247496 0.11163055
v -0.029650778 0.29440063 -0.03365374
v 0.05366075 0.25247496 0.11163055
v -0.16013426 0.3057618 0.18090683
v -0.029650778 0.29440063 -0.03365374
v -0.2487705 0.23420958 0.32665586
v -0.24970138 0.302243 0.20729068
v -0.16013426 0.3057618 0.18090683
v -0.27335542 0.29223514 -0.12597704
v -0.24970138 0.302243 0.20729068
v -0.45957193 0.23306409 0.22372329
v 0.7148196 0.09596519 -0.031332556
v 0.59694463 0.18099937 -0.20547754
v 0.7293937 0.088797 -0.17930491
v 0.80965996 0.103637196 0.18363382
v 0.7148196 0.09596519 -0.031332556
v 0.8129498 0.09911094 0.06272174
v 0.7455301 2.6255846E-05 0.38850403
v 0.80965996 0.103637196 0.18363382
v 0.8501978 2.6397407E-05 0.19511223
v 0.69029903 0.18099913 0.3335686
v 0.4723816 2.6218593E-05 0.42941284
v 0.59694463 0.18099937 -0.20547754
v 0.7148196 0.09596519 -0.031332556
v 0.48617077 0.1536255 0.37236217
v 0.33261776 2.6248395E-05 0.30587387
v 0.409209 0.15362571 -0.15748675
v 0.32682395 0.1004866 -0.035353515
v 0.29444006 2.6375055E-05 -0.033224914
v 0.39214778 2.6516616E-05 -0.19117627
v 0.6337545 2.6531518E-05 -0.24134333
v 0.7518709 2.6509166E-05 -0.19388662
v 0.7293937 0.088797 -0.17930491
v 0.7460205 2.6457012E-05 -0.033326577
v 0.7148196 0.09596519 -0.031332556
v 0.14197716 0.17038529 -0.11161006
v -0.006127812 0.18456157 -0.072328605
v -0.0051628053 0.1675955 -0.11912785
v 0.05366075 0.25247496 0.11163055
v -0.16013426 0.3057618 0.18090683
v -0.24970138 0.302243 0.20729068
v -0.27335542 0.29223514 -0.12597704
v -0.029650778 0.29440063 -0.03365374
v 0.80965996 0.103637196 0.18363382
v 0.8129498 0.09911094 0.06272174
v 0.84797907 2.643466E-05 0.06625181
v 0.8501978 2.6397407E-05 0.19511223
v 0.8129498 0.09911094 0.06272174
v 0.7148196 0.09596519 -0.031332556
v 0.7460205 2.6457012E-05 -0.033326577
v 0.84797907 2.643466E-05 0.06625181
v 0.39731216 -0.0010491163 0.8044567
v 0.3478899 0.12968071 0.5891819
v 0.39861107 -0.0010490417 0.5389061
v 0.34658813 0.12968081 0.7541771
v 0.11826038 -0.0010491163 0.8174553
v 0.16898441 0.12968086 0.7671833
v 0.09876251 -0.0010490716 0.56100845
v 0.14948559 0.12968071 0.61128235
vt 0.37439042 0.24168517
vt 0.38140887 0.2509674
vt 0.37976933 0.24054675
vt 0.38096148 0.22567907
vt 0.38008294 0.23616496
vt 0.37053338 0.22732118
vt 0.36105144 0.24934228
vt 0.37319705 0.26276338
vt 0.35700575 0.22473472
vt 0.37650228 0.218426
vt 0.3697329 0.20753652
vt 0.38140887 0.2509674
vt 0.39085156 0.21560127
vt 0.39309436 0.20414688
vt 0.40105262 0.2077643
vt 0.4032294 0.26153147
vt 0.39675587 0.22016932
vt 0.3978285 0.24905686
vt 0.4218127 0.2438088
vt 0.39499614 0.2383339
vt 0.40673596 0.22276594
vt 0.4009934 0.23541412
vt 0.39147976 0.22414638
vt 0.38846302 0.22803852
vt 0.41804028 0.21603027
vt 0.39801034 0.2488368
vt 0.4130925 0.2330956
vt 0.42446488 0.22947606
vt 0.41204557 0.23752421
vt 0.37650228 0.218426
vt 0.37053338 0.22732118
vt 0.38096148 0.22567907
vt 0.38096148 0.22567907
vt 0.39085156 0.21560127
vt 0.39147976 0.22414638
vt 0.38096148 0.22567907
vt 0.38846302 0.22803852
vt 0.38096148 0.22567907
vt 0.38008294 0.23616496
vt 0.38846302 0.22803852
vt 0.37439042 0.24168517
vt 0.37976933 0.24054675
vt 0.38008294 0.23616496
vt 0.39499614 0.2383339
vt 0.37976933 0.24054675
vt 0.38140887 0.2509674
vt 0.5417413 0.1468325
vt 0.55530274 0.15687528
vt 0.55462503 0.14749779
vt 0.527952 0.14612046
vt 0.5417413 0.1468325
vt 0.5360873 0.14654054
vt 0.5083138 0.15413387
vt 0.527952 0.14612046
vt 0.5229553 0.1376554
vt 0.5214212 0.15719269
vt 0.5083653 0.1733051
vt 0.55530274 0.15687528
vt 0.5417413 0.1468325
vt 0.52040684 0.16931835
vt 0.520842 0.18556221
vt 0.55514467 0.16820264
vt 0.55037713 0.17807728
vt 0.5529174 0.18640104
vt 0.56725526 0.1719454
vt 0.56666905 0.14940839
vt 0.5580416 0.14047356
vt 0.55462503 0.14749779
vt 0.541094 0.13911232
vt 0.5417413 0.1468325
vt 0.39085156 0.21560127
vt 0.39147976 0.22414638
vt 0.39675587 0.22016932
vt 0.38096148 0.22567907
vt 0.38008294 0.23616496
vt 0.37976933 0.24054675
vt 0.39499614 0.2383339
vt 0.38846302 0.22803852
vt 0.527952 0.14612046
vt 0.5360873 0.14654054
vt 0.5336566 0.13851495
vt 0.5229553 0.1376554
vt 0.5360873 0.14654054
vt 0.5417413 0.1468325
vt 0.541094 0.13911232
vt 0.5336566 0.13851495
vt 0.42343888 0.21322973
vt 0.4400876 0.21290441
vt 0.4434667 0.20570649
vt 0.43089637 0.21664375
vt 0.43043256 0.23414141
vt 0.4341161 0.22685666
vt 0.45041543 0.22824337
vt 0.44326022 0.22448231
vn -0.16077879 0.7232963 0.6715598
vn -0.11129105 0.85527235 -0.50608635
vn 0.37125826 0.8528636 -0.36713874
vn 0.5013562 0.86396974 -0.046885017
vn 0.37125826 0.8528636 -0.36713874
vn 0.37287784 0.69772416 0.6116724
vn -0.22099808 0.2405607 0.9451404
vn -0.79803187 0.2956325 0.5251158
vn 0.47015047 0.29865113 0.8305215
vn 0.72217184 0.6847368 0.09799717
vn 0.93182117 0.3222116 0.167
vn -0.60162 0.70079124 0.38333404
vn 0.5630635 0.72230726 -0.4015366
vn 0.8109861 0.3559431 -0.46433404
vn 0.66222686 0.4156559 -0.62344664
vn -0.9025922 0.36951488 -0.22087587
vn 0.3408298 0.85927004 -0.38143158
vn -0.7076656 0.6777187 -0.19976671
vn -0.5668826 0.5249762 -0.63485754
vn -0.11129105 0.85527235 -0.50608635
vn 0.39446107 0.80485505 -0.4434061
vn 0.014896311 0.89346844 -0.448879
vn 0.29088578 0.8743739 -0.38840136
vn 0.37125826 0.8528636 -0.36713874
vn 0.4970632 0.5763757 -0.64862883
vn -0.53015924 0.7529472 -0.38987413
vn -0.06054618 0.8043318 -0.5910876
vn -0.00040931912 0.5926119 -0.80548805
vn -0.3580287 0.7879584 -0.5009361
vn 0.4756997 0.8657609 -0.15545975
vn 0.5630635 0.72230726 -0.4015366
vn 0.72217184 0.6847368 0.09799717
vn 0.50181293 0.8570758 -0.11663987
vn 0.50181293 0.8570758 -0.116639875
vn 0.8580104 0.3240635 -0.39849856
vn 0.8580104 0.32406348 -0.39849856
vn 0.8580104 0.32406348 -0.39849856
vn 0.27576303 0.95405567 0.117185265
vn 0.27576303 0.95405567 0.11718527
vn 0.27576303 0.95405567 0.117185265
vn 0.11083725 0.86381066 0.4914734
vn 0.110837266 0.8638108 0.49147344
vn 0.110837266 0.86381066 0.4914734
vn -0.31349388 0.9495696 -0.0062645134
vn -0.31349388 0.9495696 -0.0062645134
vn -0.31349388 0.9495696 -0.0062645134
vn 0.56909424 0.82211226 0.01622593
vn 0.56909424 0.82211226 0.016225932
vn 0.5690943 0.82211226 0.016225932
vn 0.0037227531 0.9992969 -0.037306678
vn 0.0037227534 0.9992969 -0.03730668
vn 0.0037227531 0.9992969 -0.037306678
vn 0.5390353 0.39003035 0.74653673
vn 0.8014145 0.59505016 0.060416624
vn 0.92183 0.36514437 0.12999651
vn 0.34542736 0.79992455 0.49071446
vn -0.2624692 0.35418865 0.8975858
vn 0.1051183 0.7686371 -0.63098896
vn 0.67630315 0.4997676 -0.5411528
vn -0.32818267 0.7292768 0.60037625
vn -0.79173595 0.5044127 0.34456047
vn -0.49448675 0.693797 -0.5235729
vn -0.78126377 0.6145672 -0.109243505
vn -0.89059764 0.42855337 -0.1522423
vn -0.5710794 0.22124329 -0.7905187
vn 0.10045994 0.22954173 -0.96810037
vn 0.72206944 0.30936387 -0.6187969
vn 0.67630315 0.4997676 -0.5411528
vn 0.92183 0.36514437 0.12999651
vn 0.8014145 0.59505016 0.060416624
vn -0.00041080287 0.94012475 -0.34083036
vn -0.0004108029 0.94012475 -0.34083033
vn -0.00041080292 0.94012475 -0.34083036
vn -0.0018986058 0.9383116 -0.34578553
vn -0.008983628 0.9991301 -0.040724717
vn -0.008983628 0.9991301 -0.040724713
vn -0.008983628 0.9991301 -0.040724717
vn -0.008983628 0.9991301 -0.040724713
vn 0.9370551 0.34917387 -0.0023091543
vn 0.9370551 0.34917387 -0.0023091543
vn 0.9370551 0.34917387 -0.0023091545
vn 0.9370551 0.34917387 -0.0023091543
vn 0.675924 0.22401485 -0.7020997
vn 0.675924 0.22401483 -0.7020997
vn 0.67592406 0.22401485 -0.7020997
vn 0.675924 0.22401485 -0.7020997
vn 0.63741285 0.467901 0.61218745
vn 0.43451762 0.76010656 -0.48314855
vn 0.59492433 0.4971187 -0.63161546
vn 0.47344592 0.7596315 0.44587994
vn -0.5868868 0.47150645 0.6582139
vn -0.41416842 0.75954664 0.5015509
vn -0.6627311 0.47883162 -0.5757671
vn -0.5097686 0.758145 -0.40663522
g fcbg_cityforest_003_stone_04_0
f 3/3/3 2/2/2 1/1/1
f 5/5/5 1/1/1 4/4/4
f 1/1/1 6/6/6 4/4/4
f 6/6/6 1/1/1 7/7/7
f 7/7/7 1/1/1 8/8/8
f 9/9/9 6/6/6 7/7/7
f 10/10/10 6/6/6 9/9/9
f 11/11/11 10/10/10 9/9/9
f 1/1/1 12/12/12 8/8/8
f 13/13/13 10/10/10 11/11/11
f 14/14/14 13/13/13 11/11/11
f 15/15/15 13/13/13 14/14/14
f 8/8/8 12/12/12 16/16/16
f 17/17/17 13/13/13 15/15/15
f 12/12/12 18/18/18 16/16/16
f 16/16/16 18/18/18 19/19/19
f 12/12/12 20/20/20 18/18/18
f 21/21/21 17/17/17 15/15/15
f 21/21/21 22/22/22 17/17/17
f 22/22/22 23/23/23 17/17/17
f 23/23/23 22/22/22 24/24/24
f 22/22/22 20/20/20 24/24/24
f 25/25/25 21/21/21 15/15/15
f 20/20/20 26/26/26 18/18/18
f 18/18/18 26/26/26 19/19/19
f 22/22/22 26/26/26 20/20/20
f 27/27/27 21/21/21 25/25/25
f 22/22/22 21/21/21 27/27/27
f 28/28/28 27/27/27 25/25/25
f 26/26/26 29/29/29 19/19/19
f 29/29/29 26/26/26 22/22/22
f 27/27/27 29/29/29 22/22/22
f 29/29/29 27/27/27 28/28/28
f 19/19/19 29/29/29 28/28/28
f 32/32/32 31/31/31 30/30/30
f 34/34/34 33/33/33 30/30/30
f 37/37/37 36/36/36 35/35/35
f 40/40/40 39/39/39 38/38/38
f 43/43/43 42/42/42 41/41/41
f 46/46/46 45/45/45 44/44/44
f 49/49/49 48/48/48 47/47/47
f 52/52/52 51/51/51 50/50/50
f 55/55/55 54/54/54 53/53/53
f 54/54/54 56/56/56 53/53/53
f 57/57/57 53/53/53 56/56/56
f 54/54/54 58/58/58 56/56/56
f 59/59/59 58/58/58 54/54/54
f 60/60/60 57/57/57 56/56/56
f 57/57/57 60/60/60 61/61/61
f 62/62/62 60/60/60 56/56/56
f 58/58/58 62/62/62 56/56/56
f 61/61/61 60/60/60 63/63/63
f 62/62/62 63/63/63 60/60/60
f 64/64/64 61/61/61 63/63/63
f 64/64/64 63/63/63 62/62/62
f 65/65/65 64/64/64 62/62/62
f 65/65/65 62/62/62 58/58/58
f 66/66/66 65/65/65 58/58/58
f 67/67/67 66/66/66 58/58/58
f 68/68/68 67/67/67 58/58/58
f 69/69/69 67/67/67 68/68/68
f 70/70/70 69/69/69 68/68/68
f 73/73/73 72/72/72 71/71/71
f 72/72/72 74/74/74 71/71/71
f 77/77/77 76/76/76 75/75/75
f 78/78/78 77/77/77 75/75/75
f 81/81/81 80/80/80 79/79/79
f 82/82/82 81/81/81 79/79/79
f 85/85/85 84/84/84 83/83/83
f 86/86/86 85/85/85 83/83/83
f 89/89/89 88/88/88 87/87/87
f 88/88/88 90/90/90 87/87/87
f 87/87/87 90/90/90 91/91/91
f 90/90/90 92/92/92 91/91/91
f 90/90/90 88/88/88 92/92/92
f 91/91/91 92/92/92 93/93/93
f 94/94/94 88/88/88 89/89/89
f 93/93/93 94/94/94 89/89/89
f 88/88/88 94/94/94 92/92/92
f 92/92/92 94/94/94 93/93/93
