g fcbg_desert_004_cactus_03
v 0.22991478 -7.748604E-07 -7.748604E-07
v 0.18965346 1.0189703 -0.32848826
v 0.11495778 -7.748604E-07 -0.19911242
v 0.3793061 1.0189703 -7.748604E-07
v 0.11495778 -7.748604E-07 0.19911504
v 0.22632894 2.1304696 -0.3920116
v 0.18965346 1.0189703 0.32848668
v -0.1149562 -7.748604E-07 0.19911504
v 0.45265704 2.1304696 -7.748604E-07
v -0.18965185 1.0189703 0.32848668
v -0.2299174 -7.748604E-07 -7.748604E-07
v 0.60763663 2.7742112 -7.748604E-07
v 0.3038187 2.7742112 -0.52623004
v 0.24994701 3.417957 -0.43292224
v 0.22632894 2.1304696 0.39201003
v -0.37930453 1.0189703 -7.748604E-07
v -0.1149562 -7.748604E-07 -0.19911242
v 0.49989325 3.417957 -7.748604E-07
v 0.18807834 3.6634586 -0.32576117
v 0.3038187 2.7742112 0.5262285
v -0.22632736 2.1304696 0.39201003
v -0.18965185 1.0189703 -0.32848826
v 0.11495778 -7.748604E-07 -0.19911242
v 0.18965346 1.0189703 -0.32848826
v 0.3761559 3.6634586 -7.748604E-07
v 7.748604E-07 3.784938 -7.748604E-07
v -0.30381715 2.7742112 0.5262285
v 0.24994701 3.417957 0.43292075
v -0.4526555 2.1304696 -7.748604E-07
v -0.22632736 2.1304696 -0.3920116
v 0.22632894 2.1304696 -0.3920116
v 0.3038187 2.7742112 -0.52623004
v 0.18807834 3.6634586 0.32576376
v -0.6076351 2.7742112 -7.748604E-07
v -0.30381715 2.7742112 -0.52623004
v -0.24994546 3.417957 0.43292075
v -0.24994963 3.417957 -0.43292224
v 0.24994701 3.417957 -0.43292224
v -0.49989587 3.417957 -7.748604E-07
v -0.18808097 3.6634586 0.32576376
v -0.37615854 3.6634586 -7.748604E-07
v -0.18808097 3.6634586 -0.32576117
v 0.18807834 3.6634586 -0.32576117
vt 0.7488531 0.9750273
vt 0.7887572 0.95094776
vt 0.74634004 0.9653407
vt 0.7924278 0.96693987
vt 0.7499954 0.98501855
vt 0.8365356 0.93984467
vt 0.7943164 0.98294723
vt 0.74976695 0.9951012
vt 0.84025186 0.95935506
vt 0.7944687 0.99919826
vt 0.7499954 0.98501855
vt 0.86548895 0.9556083
vt 0.8639354 0.93123937
vt 0.89174646 0.9361132
vt 0.84239936 0.9790634
vt 0.7943164 0.98294723
vt 0.7488531 0.9750273
vt 0.8869488 0.9540091
vt 0.90202713 0.9421597
vt 0.86853504 0.97620004
vt 0.8434807 0.99919826
vt 0.7924278 0.96693987
vt 0.74634004 0.9653407
vt 0.7887572 0.95094776
vt 0.89575213 0.95528847
vt 0.91090655 0.9586392
vt 0.8736373 0.99919826
vt 0.8891116 0.9698946
vt 0.84239936 0.9790634
vt 0.84025186 0.95935506
vt 0.8365356 0.93984467
vt 0.8639354 0.93123937
vt 0.8976407 0.96672666
vt 0.86853504 0.97620004
vt 0.86548895 0.9556083
vt 0.8998491 0.9872422
vt 0.8869488 0.9540091
vt 0.89174646 0.9361132
vt 0.8891116 0.9698946
vt 0.90789086 0.9771291
vt 0.8976407 0.96672666
vt 0.89575213 0.95528847
vt 0.90202713 0.9421597
vn 0.9893903 -0.145282 -0
vn 0.4971252 -0.10427654 -0.8613901
vn 0.4951707 -0.14532042 -0.8565559
vn 0.99356085 -0.10427654 -0.04430821
vn 0.4951707 -0.14532042 0.8565559
vn 0.49321628 -0.15509278 -0.8559696
vn 0.4971252 -0.10427654 0.8613901
vn -0.49379164 -0.14532042 0.8573516
vn 0.9876975 -0.15509278 -0.01999826
vn -0.49770063 -0.10427654 0.86105776
vn -0.9894024 -0.14519936 -0
vn 0.9994243 -0.03391558 -0.00090465444
vn 0.4990797 -0.03391558 -0.8658922
vn 0.4775805 0.29834455 -0.8263821
vn 0.49321628 -0.15509278 0.8559696
vn -0.9941363 -0.10427654 -0.028626285
vn -0.49379164 -0.14532042 -0.8573516
vn 0.9544594 0.2983408 -0
vn 0.3564033 0.7009656 -0.6177572
vn 0.4990797 -0.03391558 0.8658922
vn -0.49379164 -0.15509278 0.8556378
vn -0.49770063 -0.10427654 -0.86105776
vn 0.4951707 -0.14532042 -0.8565559
vn 0.4971252 -0.10427654 -0.8613901
vn 0.712117 0.7009656 -0.039199587
vn 0.00068956614 0.9999997 -0.00034526698
vn -0.49965507 -0.03391558 0.86556023
vn 0.4775805 0.29834455 0.8263821
vn -0.9879089 -0.15503566 -0
vn -0.49379164 -0.15509278 -0.8556378
vn 0.49321628 -0.15509278 -0.8559696
vn 0.4990797 -0.03391558 -0.8658922
vn 0.3564033 0.7009656 0.6177572
vn -0.99942535 -0.0338961 -0
vn -0.49965507 -0.03391558 -0.86556023
vn -0.4781559 0.29834455 0.8260493
vn -0.4781559 0.29834455 -0.8260493
vn 0.4775805 0.29834455 -0.8263821
vn -0.95451057 0.29817703 -0
vn -0.3569787 0.7009656 0.6174249
vn -0.71269244 0.7009656 -0.02677211
vn -0.3569787 0.7009656 -0.6174249
vn 0.3564033 0.7009656 -0.6177572
g fcbg_desert_004_cactus_03_0
f 3/3/3 2/2/2 1/1/1
f 2/2/2 4/4/4 1/1/1
f 1/1/1 4/4/4 5/5/5
f 2/2/2 6/6/6 4/4/4
f 4/4/4 7/7/7 5/5/5
f 5/5/5 7/7/7 8/8/8
f 6/6/6 9/9/9 4/4/4
f 4/4/4 9/9/9 7/7/7
f 7/7/7 10/10/10 8/8/8
f 8/8/8 10/10/10 11/11/11
f 12/12/12 9/9/9 6/6/6
f 13/13/13 12/12/12 6/6/6
f 12/12/12 13/13/13 14/14/14
f 9/9/9 15/15/15 7/7/7
f 7/7/7 15/15/15 10/10/10
f 10/10/10 16/16/16 11/11/11
f 11/11/11 16/16/16 17/17/17
f 18/18/18 12/12/12 14/14/14
f 14/14/14 19/19/19 18/18/18
f 12/12/12 20/20/20 9/9/9
f 20/20/20 15/15/15 9/9/9
f 20/20/20 12/12/12 18/18/18
f 15/15/15 21/21/21 10/10/10
f 10/10/10 21/21/21 16/16/16
f 16/16/16 22/22/22 17/17/17
f 17/17/17 22/22/22 23/23/23
f 22/22/22 24/24/24 23/23/23
f 19/19/19 25/25/25 18/18/18
f 19/19/19 26/26/26 25/25/25
f 20/20/20 27/27/27 15/15/15
f 27/27/27 21/21/21 15/15/15
f 28/28/28 20/20/20 18/18/18
f 18/18/18 25/25/25 28/28/28
f 27/27/27 20/20/20 28/28/28
f 16/16/16 29/29/29 22/22/22
f 21/21/21 29/29/29 16/16/16
f 22/22/22 30/30/30 24/24/24
f 29/29/29 30/30/30 22/22/22
f 30/30/30 31/31/31 24/24/24
f 32/32/32 31/31/31 30/30/30
f 25/25/25 33/33/33 28/28/28
f 25/25/25 26/26/26 33/33/33
f 27/27/27 34/34/34 21/21/21
f 34/34/34 29/29/29 21/21/21
f 35/35/35 30/30/30 29/29/29
f 35/35/35 32/32/32 30/30/30
f 34/34/34 35/35/35 29/29/29
f 36/36/36 27/27/27 28/28/28
f 28/28/28 33/33/33 36/36/36
f 34/34/34 27/27/27 36/36/36
f 32/32/32 35/35/35 37/37/37
f 38/38/38 32/32/32 37/37/37
f 35/35/35 34/34/34 39/39/39
f 39/39/39 34/34/34 36/36/36
f 37/37/37 35/35/35 39/39/39
f 33/33/33 40/40/40 36/36/36
f 36/36/36 40/40/40 39/39/39
f 33/33/33 26/26/26 40/40/40
f 40/40/40 41/41/41 39/39/39
f 39/39/39 41/41/41 37/37/37
f 40/40/40 26/26/26 41/41/41
f 37/37/37 42/42/42 38/38/38
f 41/41/41 42/42/42 37/37/37
f 41/41/41 26/26/26 42/42/42
f 42/42/42 43/43/43 38/38/38
f 42/42/42 26/26/26 43/43/43
