g fcbg_desert_006_rock_06
v -0.8928566 3.2379398 -5.1702023
v 1.3482094 4.969919 -3.8527584
v -0.86421394 6.8534336 -4.625779
v -0.9730854 0.22068787 -6.0639753
v 1.3482094 4.969919 -3.8527584
v 1.5851898 0.0042095184 -4.2938557
v 4.026453 5.032089 -4.835294
v 4.267022 0.0042095184 -5.2690344
v 12.111506 5.271 -2.5245504
v 12.28891 0.0042095184 -3.3118334
v 15.10081 3.1664543 -1.7343435
v -13.010742 9.59005 2.8943481
v -13.270668 6.966528 2.8943176
v -13.487869 9.59005 0.66335297
v 14.656124 4.725401 -1.4071836
v 15.10081 3.1664543 -1.7343435
v 15.38781 4.218727 1.6846924
v 15.10081 3.1664543 -1.7343435
v 16.281221 0.0042095184 1.6211948
v 3.8965359 9.59005 -2.3572168
v 4.6527643 9.59005 5.589779
v -0.6124897 9.59005 4.427006
v 6.3713264 9.59005 -1.7145348
v 4.6527643 9.59005 5.589779
v 10.494248 9.59005 5.4653187
v 4.6527643 9.119284 6.0277405
v -0.6124897 9.119013 4.8649673
v -0.6124897 9.59005 4.427006
v 10.494248 9.119465 5.954565
v -2.8016376 9.08259 5.9191704
v 12.59192 9.59005 5.0010357
v 12.955019 9.121273 5.396757
v 14.407747 9.472855 1.9025879
v 11.998653 9.59005 -2.2260933
v 14.407747 9.472855 1.9025879
v 14.306473 9.59005 -1.1836491
v 14.656124 4.725401 -1.4071836
v 12.111506 5.271 -2.5245504
v 8.723194 9.446232 -3.9718819
v -2.8016376 9.59005 5.481207
v -11.363876 9.119013 4.8073196
v -3.8534565 9.59005 -2.3532066
v -9.329159 9.59005 -1.9281788
v -11.363876 9.59005 4.369358
v -9.329159 9.59005 -1.9281788
v -13.010742 9.59005 2.8943481
v -9.329159 9.59005 -1.9281788
v -13.487869 9.59005 0.66335297
v -13.360273 6.919071 0.66709137
v -9.679445 7.250271 -2.3724127
v -13.221764 4.5798054 0.5115166
v -9.710951 3.7973175 -2.5544596
v -14.414867 3.5931396 0.6274433
v -9.710951 3.7973175 -2.5544596
v -13.759945 0.0042095184 -1.8398991
v -10.009981 -0.0058918 -3.3494606
v -15.333546 0.0042095184 0.624279
v 16.281221 0.0042095184 1.6211948
v 15.10081 3.1664543 -1.7343435
v 15.615746 0.0042095184 -2.1092615
v -13.487869 9.59005 0.66335297
v -13.270668 6.966528 2.8943176
v -13.360273 6.919071 0.66709137
v -13.221764 4.5798054 0.5115166
v -13.360273 6.919071 0.66709137
v -13.270668 4.577635 2.8632336
v -14.414867 3.5931396 0.6274433
v -14.026926 3.8638592 3.1396809
v -14.910387 0.0042095184 3.2783718
v -15.333546 0.0042095184 0.624279
v 15.10081 3.1664543 -1.7343435
v 12.28891 0.0042095184 -3.3118334
v 15.615746 0.0042095184 -2.1092615
v 12.111506 5.271 -2.5245504
v 14.656124 4.725401 -1.4071836
v 3.8965359 9.59005 -2.3572168
v 1.3482094 4.969919 -3.8527584
v 4.026453 5.032089 -4.835294
v 1.2667437 9.59005 -2.7844753
v -3.8534565 9.59005 -2.3532066
v -1.6436882 9.59005 -3.6764393
v -0.86421394 6.8534336 -4.625779
v 1.3482094 4.969919 -3.8527584
v -1.6436882 9.59005 -3.6764393
v -4.0626698 6.3201065 -2.7205572
v -1.6436882 9.59005 -3.6764393
v -0.86421394 6.8534336 -4.625779
v -4.247551 2.793768 -3.2050714
v -0.8928566 3.2379398 -5.1702023
v -4.5866203 0.0042095184 -3.9017525
v -0.9730854 0.22068787 -6.0639753
v -4.247551 2.793768 -3.2050714
v -0.8928566 3.2379398 -5.1702023
v -3.8534565 9.59005 -2.3532066
v -9.329159 9.59005 -1.9281788
v -9.679445 7.250271 -2.3724127
v -4.0626698 6.3201065 -2.7205572
v 8.723194 9.446232 -3.9718819
v 8.771767 5.0140896 -4.4747267
v 3.8965359 9.59005 -2.3572168
v 4.026453 5.032089 -4.835294
v 15.38781 4.218727 1.6846924
v 14.407747 9.472855 1.9025879
v 14.306473 9.59005 -1.1836491
v 14.656124 4.725401 -1.4071836
v 14.407747 9.472855 1.9025879
v 15.38781 4.218727 1.6846924
v 13.51729 4.3439407 5.677696
v 12.955019 9.121273 5.396757
v 16.281221 0.0042095184 1.6211948
v 14.64108 0.0042095184 6.0686245
v 15.38781 4.218727 1.6846924
v 13.51729 4.3439407 5.677696
v 11.998653 9.59005 -2.2260933
v 8.723194 9.446232 -3.9718819
v 8.771767 5.0140896 -4.4747267
v 12.111506 5.271 -2.5245504
v 8.771767 5.0140896 -4.4747267
v 8.969009 0.0042095184 -5.2715673
v 12.28891 0.0042095184 -3.3118334
v 12.111506 5.271 -2.5245504
v -10.009981 -0.0058918 -3.3494606
v -4.5866203 0.0042095184 -3.9017525
v -4.247551 2.793768 -3.2050714
v -9.710951 3.7973175 -2.5544596
v -4.247551 2.793768 -3.2050714
v -4.0626698 6.3201065 -2.7205572
v -9.679445 7.250271 -2.3724127
v -9.710951 3.7973175 -2.5544596
v 8.771767 5.0140896 -4.4747267
v 4.026453 5.032089 -4.835294
v 4.267022 0.0042095184 -5.2690344
v 8.969009 0.0042095184 -5.2715673
vt 0.027312258 0.92920583
vt 0.039563227 0.93495035
vt 0.039380375 0.9232632
vt 0.018459259 0.9352094
vt 0.039563227 0.93495035
vt 0.02490473 0.94619566
vt 0.04567347 0.9438338
vt 0.031274013 0.9560696
vt 0.06990113 0.9680767
vt 0.057878725 0.9827657
vt 0.075158074 0.98078483
vt 0.034534846 0.86113983
vt 0.025179006 0.8625264
vt 0.035525285 0.8701604
vt 0.07819034 0.97539073
vt 0.075158074 0.98078483
vt 0.08961848 0.9812572
vt 0.075158074 0.98078483
vt 0.08567196 0.9965556
vt 0.06142907 0.9303182
vt 0.08667764 0.9173358
vt 0.07241532 0.90395725
vt 0.06924591 0.9371446
vt 0.08667764 0.9173358
vt 0.09888289 0.93490463
vt 0.08865852 0.91605586
vt 0.074457146 0.90269256
vt 0.07241532 0.90395725
vt 0.10093996 0.9337314
vt 0.073649555 0.8938243
vt 0.10211325 0.94273674
vt 0.104444586 0.9428129
vt 0.09604871 0.9554601
vt 0.079576954 0.9544696
vt 0.09604871 0.9554601
vt 0.085306264 0.95861423
vt 0.07819034 0.97539073
vt 0.06990113 0.9680767
vt 0.06918497 0.9480394
vt 0.071592495 0.8949976
vt 0.05409982 0.8689719
vt 0.04518587 0.90692854
vt 0.03744521 0.8880645
vt 0.052286554 0.8703585
vt 0.03744521 0.8880645
vt 0.044500183 0.86798143
vt 0.03744521 0.8880645
vt 0.035525285 0.8701604
vt 0.025636131 0.87127274
vt 0.028607447 0.889253
vt 0.01679837 0.87244606
vt 0.016722182 0.892392
vt 0.011267151 0.87069374
vt 0.016722182 0.892392
vt 0.00063136104 0.8801715
vt 0.004760729 0.8960337
vt 0.00063136104 0.87017566
vt 0.08567196 0.9965556
vt 0.075158074 0.98078483
vt 0.06955066 0.9911616
vt 0.035525285 0.8701604
vt 0.025179006 0.8625264
vt 0.025636131 0.87127274
vt 0.01679837 0.87244606
vt 0.025636131 0.87127274
vt 0.016965982 0.86289215
vt 0.011267151 0.87069374
vt 0.0133851655 0.8616122
vt 0.00063136104 0.85937226
vt 0.00063136104 0.87017566
vt 0.075158074 0.98078483
vt 0.057878725 0.9827657
vt 0.06955066 0.9911616
vt 0.06990113 0.9680767
vt 0.07819034 0.97539073
vt 0.06142907 0.9303182
vt 0.039563227 0.93495035
vt 0.04567347 0.9438338
vt 0.053459845 0.9238422
vt 0.04518587 0.90692854
vt 0.0467401 0.91585773
vt 0.039380375 0.9232632
vt 0.039563227 0.93495035
vt 0.0467401 0.91585773
vt 0.033056807 0.9106465
vt 0.0467401 0.91585773
vt 0.039380375 0.9232632
vt 0.0205468 0.9148673
vt 0.027312258 0.92920583
vt 0.010261474 0.9176405
vt 0.018459259 0.9352094
vt 0.0205468 0.9148673
vt 0.027312258 0.92920583
vt 0.04518587 0.90692854
vt 0.03744521 0.8880645
vt 0.028607447 0.889253
vt 0.033056807 0.9106465
vt 0.06918497 0.9480394
vt 0.057406362 0.9571971
vt 0.06142907 0.9303182
vt 0.04567347 0.9438338
vt 0.08961848 0.9812572
vt 0.09604871 0.9554601
vt 0.085306264 0.95861423
vt 0.07819034 0.97539073
vt 0.09810578 0.96309406
vt 0.08961848 0.9812572
vt 0.10676069 0.98326856
vt 0.10964058 0.9663701
vt 0.08567196 0.9965556
vt 0.104520775 0.9992222
vt 0.08961848 0.9812572
vt 0.10676069 0.98326856
vt 0.079576954 0.9544696
vt 0.06918497 0.9480394
vt 0.057406362 0.9571971
vt 0.06990113 0.9680767
vt 0.057406362 0.9571971
vt 0.04495731 0.97219086
vt 0.057878725 0.9827657
vt 0.06990113 0.9680767
vt 0.004760729 0.8960337
vt 0.010261474 0.9176405
vt 0.0205468 0.9148673
vt 0.016722182 0.892392
vt 0.0205468 0.9148673
vt 0.033056807 0.9106465
vt 0.028607447 0.889253
vt 0.016722182 0.892392
vt 0.057406362 0.9571971
vt 0.04567347 0.9438338
vt 0.031274013 0.9560696
vt 0.04495731 0.97219086
vn 0.5388754 0.14203954 -0.8303241
vn 0.6264216 0.2646042 -0.73319894
vn 0.48051125 0.5408611 -0.6903464
vn 0.54860276 0.30351365 -0.7790472
vn 0.14978117 0.120639324 -0.9813316
vn 0.17507225 0.18094897 -0.96778464
vn -0.37355065 0.33464122 -0.8651446
vn -0.4085691 0.033093095 -0.91212726
vn 0.5563846 0.16733062 -0.8139021
vn 0.5038569 0.11674845 -0.85586095
vn 0.56416655 0.06811166 -0.82284683
vn -0.4591514 0.86575484 0.19911954
vn -0.990265 -0.036943793 -0.13420269
vn -0.74513566 0.65953493 0.09892683
vn 0.7645501 0.2937863 -0.57371837
vn 0.7820593 0.43969667 -0.4416447
vn 0.93380606 0.28016794 -0.22251326
vn 0.9201878 0.2665497 -0.2867154
vn 0.96298814 0.243204 -0.11621379
vn 0.12059909 0.88131857 -0.45687354
vn 0.03305286 0.9455192 0.32388416
vn 0.064180434 0.8346273 -0.5470632
vn -0.10896647 0.96108294 -0.253862
vn -0.04476595 0.90855515 0.41535956
vn 0.050562143 0.91439164 0.40166083
vn -0.07005715 0.6906624 0.719776
vn 0.10114437 0.67120767 0.7343365
vn 0.03305286 0.9455192 0.32388416
vn 0.07974416 0.7062262 0.7034809
vn 0.105035305 0.6634258 0.74083316
vn 0.32487357 0.8774277 0.35295585
vn 0.7450954 0.4766606 0.46650565
vn 0.74898624 0.29573178 0.5929269
vn 0.32292807 0.79766333 -0.509363
vn 0.297637 0.91633713 0.26784042
vn 0.34627372 0.6906624 -0.6348858
vn 0.4902386 0.052547812 -0.8700028
vn 0.5038569 0.11674845 -0.85586095
vn 0.4085288 0.72373545 -0.5561576
vn 0.08363515 0.88326406 0.4613564
vn -0.25876784 0.6478621 0.7164593
vn -0.1751126 0.79377246 -0.582461
vn 0.017489076 0.7295718 -0.68368053
vn -0.23347664 0.86964583 0.43497673
vn -0.13425767 0.8968824 -0.42139867
vn -0.4591514 0.86575484 0.19911954
vn -0.4299693 0.79182696 -0.433747
vn -0.23542213 0.75097203 -0.616942
vn -0.62646186 0.005856514 -0.7794301
vn -0.69844437 0.042820454 -0.7143821
vn -0.60895264 0.35604143 -0.7088097
vn -0.6400802 0.3365867 -0.6906567
vn -0.6926079 0.43969667 -0.5718052
vn -0.5914434 0.38133252 -0.71047884
vn -0.5000062 0.22569478 -0.8360955
vn -0.5058427 0.13620317 -0.8518051
vn -0.8482456 0.21596742 -0.48356742
vn 0.92796963 0.26265872 0.2643535
vn 0.92796963 0.26265872 0.2643535
vn 0.92796963 0.26265872 0.2643535
vn -0.95719194 0.001965642 0.28944722
vn -0.95719194 -0.0019253492 0.28944752
vn -0.95719194 0.001965642 0.28944722
vn -0.86964583 0.44553304 -0.21264154
vn -0.990265 -0.036943793 -0.13420269
vn -0.86186385 0.4591514 0.2153386
vn -0.83851826 0.5447521 -0.011499257
vn -0.7606994 0.5758796 0.2994981
vn -0.88326406 0.22569478 0.4109823
vn -0.9688648 0.24709499 0.015654417
vn 0.38518316 0.22958577 -0.89382565
vn 0.33460093 0.16538525 -0.9277338
vn 0.33460093 0.16538525 -0.9277338
vn 0.43771088 0.30156815 -0.84703356
vn 0.43771088 0.30156815 -0.84703356
vn 0.064180434 0.8346273 -0.5470632
vn -0.21402192 0.4299693 -0.8771094
vn -0.12258482 0.22569478 -0.96645474
vn 0.17118132 0.857973 -0.48433384
vn -0.4319148 0.83851826 -0.3321697
vn -0.08172989 0.8112817 -0.5789147
vn 0.6264216 0.2646042 -0.73319894
vn 0.3132007 0.17316711 -0.9337657
vn 0.20619982 0.7529175 -0.62497747
vn -0.7801541 0.110911965 -0.61567694
vn -0.53697014 0.6906624 -0.48440534
vn -0.7101171 0.13231218 -0.6915397
vn -0.8015543 0.13425767 -0.5826539
vn -0.67898965 0.14398503 -0.7198899
vn -0.91633713 0.21791291 -0.33591697
vn -0.91244614 0.17316711 -0.37074947
vn -0.8715912 0.21791291 -0.43913865
vn -0.71984446 0.55642486 -0.4149884
vn 0.06612587 0.10702109 -0.99205536
vn -0.29767728 0.6945534 -0.65496856
vn -0.22958577 0.17900348 -0.956686
vn -0.20818555 0.124530315 -0.9701294
vn -0.5544795 0.70428073 -0.44332963
vn -0.44942403 0.5933889 -0.6677632
vn 0.118653595 0.5194609 -0.8462161
vn -0.20429456 0.47082412 -0.8582473
vn 0.9999521 0.0039111376 0.008974813
vn 0.768441 0.63229823 0.09847511
vn 0.9999521 0.0039111376 0.008974813
vn 0.93380606 0.28016794 -0.22251326
vn 0.8559872 0.1050756 0.5062066
vn 0.9513153 0.11869383 0.28444862
vn 0.7450954 0.4766606 0.46650565
vn 0.74898624 0.29573178 0.5929269
vn 0.7781683 0.1984582 0.59587616
vn 0.9532608 0.23542213 0.18939453
vn 0.801514 0.25682235 0.54001623
vn 0.9435334 0.21207654 0.25449598
vn 0.768441 0.11674845 -0.62918055
vn 0.54276633 0.14009404 -0.8281174
vn 0.81902325 0.046711445 -0.5718557
vn 0.8151323 0.06422067 -0.5757039
vn 0.5038569 0.097293735 -0.85829026
vn 0.51163876 0.17900348 -0.8403473
vn 0.5563846 0.16733062 -0.8139021
vn 0.56416655 0.06811166 -0.82284683
vn -0.1965127 0.28405893 -0.9384526
vn -0.08562088 0.22764027 -0.9699737
vn 0.24900019 0.2451495 -0.9369635
vn 0.16729039 0.46498775 -0.8693678
vn -0.07200253 0.097293735 -0.99264777
vn -0.07200253 0.097293735 -0.99264777
vn -0.07200253 0.097293735 -0.99264777
vn -0.07200253 0.097293735 -0.99264777
vn 0.036943793 0.12258482 -0.9917702
vn 0.036943793 0.12258482 -0.9917702
vn 0.036943793 0.12258482 -0.9917702
vn 0.036943793 0.12258482 -0.9917702
g fcbg_desert_006_rock_06_0
f 3/3/3 2/2/2 1/1/1
f 1/1/1 5/5/5 4/4/4
f 4/4/4 5/5/5 6/6/6
f 6/6/6 5/5/5 7/7/7
f 7/7/7 8/8/8 6/6/6
f 11/11/11 10/10/10 9/9/9
f 14/14/14 13/13/13 12/12/12
f 17/17/17 16/16/16 15/15/15
f 19/19/19 18/18/18 17/17/17
f 22/22/22 21/21/21 20/20/20
f 24/24/24 23/23/23 20/20/20
f 25/25/25 23/23/23 24/24/24
f 24/24/24 26/26/26 25/25/25
f 27/27/27 26/26/26 24/24/24
f 28/28/28 27/27/27 24/24/24
f 26/26/26 29/29/29 25/25/25
f 30/30/30 27/27/27 28/28/28
f 25/25/25 29/29/29 31/31/31
f 29/29/29 32/32/32 31/31/31
f 32/32/32 33/33/33 31/31/31
f 31/31/31 34/34/34 25/25/25
f 25/25/25 34/34/34 23/23/23
f 35/35/35 34/34/34 31/31/31
f 36/36/36 34/34/34 35/35/35
f 36/36/36 37/37/37 34/34/34
f 37/37/37 38/38/38 34/34/34
f 34/34/34 39/39/39 23/23/23
f 40/40/40 30/30/30 28/28/28
f 41/41/41 30/30/30 40/40/40
f 28/28/28 42/42/42 40/40/40
f 42/42/42 43/43/43 40/40/40
f 44/44/44 41/41/41 40/40/40
f 45/45/45 44/44/44 40/40/40
f 46/46/46 41/41/41 44/44/44
f 46/46/46 44/44/44 47/47/47
f 48/48/48 46/46/46 47/47/47
f 49/49/49 48/48/48 47/47/47
f 50/50/50 49/49/49 47/47/47
f 51/51/51 49/49/49 50/50/50
f 52/52/52 51/51/51 50/50/50
f 54/54/54 53/53/53 51/51/51
f 55/55/55 53/53/53 54/54/54
f 55/55/55 54/54/54 56/56/56
f 55/55/55 57/57/57 53/53/53
f 60/60/60 59/59/59 58/58/58
f 63/63/63 62/62/62 61/61/61
f 65/65/65 64/64/64 62/62/62
f 64/64/64 66/66/66 62/62/62
f 64/64/64 67/67/67 66/66/66
f 67/67/67 68/68/68 66/66/66
f 69/69/69 68/68/68 67/67/67
f 70/70/70 69/69/69 67/67/67
f 73/73/73 72/72/72 71/71/71
f 75/75/75 71/71/71 74/74/74
f 78/78/78 77/77/77 76/76/76
f 77/77/77 79/79/79 76/76/76
f 79/79/79 28/28/28 76/76/76
f 79/79/79 80/80/80 28/28/28
f 81/81/81 80/80/80 79/79/79
f 79/79/79 83/83/83 82/82/82
f 84/84/84 79/79/79 82/82/82
f 80/80/80 86/86/86 85/85/85
f 85/85/85 86/86/86 87/87/87
f 85/85/85 87/87/87 88/88/88
f 87/87/87 89/89/89 88/88/88
f 92/92/92 91/91/91 90/90/90
f 93/93/93 91/91/91 92/92/92
f 96/96/96 95/95/95 94/94/94
f 97/97/97 96/96/96 94/94/94
f 99/99/99 23/23/23 98/98/98
f 100/100/100 23/23/23 99/99/99
f 101/101/101 100/100/100 99/99/99
f 104/104/104 103/103/103 102/102/102
f 105/105/105 104/104/104 102/102/102
f 108/108/108 107/107/107 106/106/106
f 109/109/109 108/108/108 106/106/106
f 112/112/112 111/111/111 110/110/110
f 113/113/113 111/111/111 112/112/112
f 116/116/116 115/115/115 114/114/114
f 117/117/117 116/116/116 114/114/114
f 120/120/120 119/119/119 118/118/118
f 121/121/121 120/120/120 118/118/118
f 124/124/124 123/123/123 122/122/122
f 125/125/125 124/124/124 122/122/122
f 128/128/128 127/127/127 126/126/126
f 129/129/129 128/128/128 126/126/126
f 132/132/132 131/131/131 130/130/130
f 133/133/133 132/132/132 130/130/130
