g fcbg_iceland_001_mountain_02
v -2.0025864 7.8029366 -9.1671944E-05
v -3.1178584 7.371727 0.87280023
v -3.1079254 7.951473 -9.1671944E-05
v -4.118781 7.534008 -9.1671944E-05
v -1.6225996 6.5352173 0.89471364
v -1.4036732 7.434635 -9.1671944E-05
v -1.2124162 6.488415 0.78464186
v -0.57700443 6.7851143 -9.1671944E-05
v -0.93877697 5.9641266 0.8697938
v -0.6228075 5.2864304 0.9781376
v -0.25788212 6.0285683 -9.262562E-05
v 0.95414066 6.096203 -9.262562E-05
v 0.43957424 4.2576942 2.2894058
v 1.7400846 5.570568 -9.262562E-05
v 1.6693993 3.7723732 -9.357929E-05
v -1.344387 5.390522 1.1910474
v -2.7130847 5.914234 1.3222569
v -1.1119709 4.29163 2.2894058
v -2.6713476 4.984646 2.2894077
v -3.465517 7.197342 0.8767351
v -3.1787205 5.890457 1.039338
v -4.132739 5.682476 -9.262562E-05
v -4.160966 3.6551857 -9.357929E-05
v -2.7698412 3.4742088 2.2894058
v -3.0567694 2.6062965 -9.357929E-05
v -2.178915 1.2707634 2.2894068
v -3.567916 0.89160156 -9.357929E-05
v -2.9036875 0.40602875 -9.357929E-05
v -2.3442125 -0.92445755 2.2894058
v -2.8915925 -0.69503784 -9.357929E-05
v -3.2638783 -1.1730461 -9.357929E-05
v -1.7017937 -4.985838 -9.453297E-05
v 1.2024565 2.3547173 2.2894058
v 2.7058353 1.6651459 -9.357929E-05
v 2.4335308 -0.23966026 2.2894068
v 2.8032093 -0.07713699 -9.357929E-05
v 4.160966 -2.291771 -9.453297E-05
v -0.980669 -4.255644 2.2894049
v -0.48125362 -5.133133 -9.453297E-05
v 0.7756767 -4.1134872 2.2894049
v 2.4007196 -3.6870022 2.2894049
v 2.2858143 -5.5528316 2.2894049
v 3.6308327 -3.2291298 -9.453297E-05
v 3.8428898 -4.472561 -9.453297E-05
v 3.287939 -4.9119835 -9.453297E-05
v 3.6855373 -6.2797585 -9.453297E-05
v 3.1094751 -7.039276 -9.453297E-05
v 2.9857798 -7.699255 -9.548664E-05
v 0.9309511 -7.951473 -9.548664E-05
v 1.0382977 -5.6061516 2.2894049
v 0.2794094 -6.2923164 -9.453297E-05
vt 0.74629885 0.6985714
vt 0.75383496 0.6787005
vt 0.7403317 0.6804107
vt 0.74386567 0.664901
vt 0.7692062 0.69831574
vt 0.7528248 0.7066108
vt 0.7704248 0.70455134
vt 0.7634932 0.71770686
vt 0.778314 0.7072832
vt 0.7884238 0.7110745
vt 0.77388877 0.72261596
vt 0.7808573 0.73977256
vt 0.8149678 0.7154579
vt 0.79145604 0.7495264
vt 0.81886697 0.75252116
vt 0.78872573 0.69737077
vt 0.7771387 0.68003476
vt 0.80790716 0.69560385
vt 0.79327375 0.6768421
vt 0.75465435 0.67376685
vt 0.7761039 0.6690465
vt 0.76808584 0.64946806
vt 0.7951471 0.63408506
vt 0.8121461 0.6695391
vt 0.8184925 0.6338321
vt 0.84663635 0.6674556
vt 0.844567 0.62488973
vt 0.85601974 0.6282569
vt 0.87851536 0.66095054
vt 0.8734497 0.62671167
vt 0.88254637 0.62401956
vt 0.944048 0.6394179
vt 0.8425881 0.7201581
vt 0.853813 0.76055217
vt 0.882951 0.72777736
vt 0.8806014 0.7614532
vt 0.92019254 0.7634289
vt 0.9241131 0.6676202
vt 0.9565291 0.6555826
vt 0.93196183 0.69146264
vt 0.9303815 0.716921
vt 0.9542987 0.7096838
vt 0.9343861 0.7558104
vt 0.95295423 0.75199795
vt 0.9602482 0.74442565
vt 0.98112696 0.7367193
vt 0.9902136 0.7251253
vt 0.9979785 0.71849155
vt 0.9979184 0.6855844
vt 0.9531078 0.6943104
vt 0.9752899 0.66816896
vn 0.29521593 0.6680675 0.68303233
vn -0.029029788 0.61170816 0.7905507
vn -0.024681954 0.77106243 0.63628095
vn -0.63557345 0.39398846 0.66394234
vn 0.2525824 0.4686236 0.84651875
vn 0.39621234 0.61561316 0.6812021
vn 0.41052908 0.4808921 0.77473134
vn 0.6031748 0.4943065 0.62597233
vn 0.50949115 0.3530631 0.78470707
vn 0.23017852 0.66478044 0.7106932
vn 0.38885397 0.64324814 0.65956384
vn 0.21049465 0.7438363 0.6343497
vn 0.36570996 0.40946996 0.83581734
vn 0.68527055 0.39179355 0.6139235
vn 0.87049955 0.21012224 0.44506088
vn 0.29372695 0.5358161 0.79159695
vn -0.09110881 0.48854306 0.86777014
vn 0.08959577 0.37041843 0.92453384
vn -0.3003632 0.3937303 0.86876833
vn -0.5028277 0.3520765 0.78943425
vn -0.66493833 0.23138997 0.71015185
vn -0.80251044 0.052427407 0.59433013
vn -0.8249915 -0.28269035 0.48936197
vn -0.5679035 -0.13387036 0.81213564
vn -0.87634385 -0.2814507 0.3909054
vn -0.53469974 -0.048301615 0.84366053
vn -0.8048775 -0.26318142 0.53189075
vn -0.8575097 -0.34195545 0.38437432
vn -0.624877 -0.07333998 0.7772708
vn -0.90554506 0.33220884 0.26386625
vn -0.9276212 0.088748075 0.362826
vn -0.56382215 -0.7186815 0.40694156
vn 0.4892469 0.2209335 0.8436978
vn 0.8865132 0.30190095 0.35064253
vn 0.58331496 0.17029445 0.7941936
vn 0.941063 0.2908783 0.17259891
vn 0.8956154 -0.015321156 0.44456533
vn -0.33729213 -0.55694425 0.7589777
vn -0.45668486 -0.7564288 0.46824625
vn -0.16538894 -0.23806414 0.9570643
vn 0.4961623 -0.030035611 0.86771005
vn 0.45256698 -0.27864134 0.84707856
vn 0.87806493 -0.21079086 0.42961523
vn 0.75449836 -0.306395 0.5803915
vn 0.81494737 -0.25345019 0.52117527
vn 0.8105309 -0.25755537 0.52602744
vn 0.8161536 -0.30432877 0.49119976
vn 0.45617533 -0.57536024 0.67887014
vn -0.3170723 -0.66363156 0.67753845
vn -0.39895523 -0.3977712 0.82620394
vn -0.84139365 -0.3277939 0.42966026
g fcbg_iceland_001_mountain_02_0
f 3/3/3 2/2/2 1/1/1
f 3/3/3 4/4/4 2/2/2
f 2/2/2 5/5/5 1/1/1
f 1/1/1 5/5/5 6/6/6
f 6/6/6 5/5/5 7/7/7
f 8/8/8 6/6/6 7/7/7
f 9/9/9 8/8/8 7/7/7
f 9/9/9 7/7/7 5/5/5
f 8/8/8 9/9/9 10/10/10
f 11/11/11 8/8/8 10/10/10
f 11/11/11 10/10/10 12/12/12
f 12/12/12 10/10/10 13/13/13
f 14/14/14 12/12/12 13/13/13
f 15/15/15 14/14/14 13/13/13
f 16/16/16 9/9/9 5/5/5
f 10/10/10 9/9/9 16/16/16
f 5/5/5 2/2/2 17/17/17
f 16/16/16 5/5/5 17/17/17
f 10/10/10 16/16/16 18/18/18
f 10/10/10 18/18/18 13/13/13
f 18/18/18 16/16/16 19/19/19
f 16/16/16 17/17/17 19/19/19
f 17/17/17 2/2/2 20/20/20
f 4/4/4 20/20/20 2/2/2
f 17/17/17 20/20/20 21/21/21
f 21/21/21 20/20/20 4/4/4
f 17/17/17 21/21/21 19/19/19
f 22/22/22 21/21/21 4/4/4
f 19/19/19 21/21/21 22/22/22
f 22/22/22 23/23/23 19/19/19
f 19/19/19 24/24/24 18/18/18
f 23/23/23 24/24/24 19/19/19
f 18/18/18 24/24/24 13/13/13
f 23/23/23 25/25/25 24/24/24
f 24/24/24 25/25/25 26/26/26
f 24/24/24 26/26/26 13/13/13
f 25/25/25 27/27/27 26/26/26
f 27/27/27 28/28/28 26/26/26
f 26/26/26 28/28/28 29/29/29
f 28/28/28 30/30/30 29/29/29
f 30/30/30 31/31/31 29/29/29
f 31/31/31 32/32/32 29/29/29
f 26/26/26 33/33/33 13/13/13
f 26/26/26 29/29/29 33/33/33
f 33/33/33 15/15/15 13/13/13
f 34/34/34 15/15/15 33/33/33
f 35/35/35 34/34/34 33/33/33
f 29/29/29 35/35/35 33/33/33
f 36/36/36 34/34/34 35/35/35
f 37/37/37 36/36/36 35/35/35
f 32/32/32 38/38/38 29/29/29
f 32/32/32 39/39/39 38/38/38
f 38/38/38 40/40/40 29/29/29
f 29/29/29 40/40/40 35/35/35
f 38/38/38 39/39/39 40/40/40
f 41/41/41 37/37/37 35/35/35
f 40/40/40 41/41/41 35/35/35
f 41/41/41 40/40/40 42/42/42
f 43/43/43 37/37/37 41/41/41
f 44/44/44 43/43/43 41/41/41
f 45/45/45 44/44/44 41/41/41
f 45/45/45 41/41/41 42/42/42
f 46/46/46 45/45/45 42/42/42
f 47/47/47 46/46/46 42/42/42
f 47/47/47 42/42/42 48/48/48
f 48/48/48 42/42/42 49/49/49
f 50/50/50 40/40/40 39/39/39
f 40/40/40 50/50/50 42/42/42
f 42/42/42 50/50/50 49/49/49
f 51/51/51 50/50/50 39/39/39
f 49/49/49 50/50/50 51/51/51
