g fcbg_desertcrystal_streetsign_03
v -0.098184705 6.5436735 -0.27826756
v -0.098184705 0.00030875206 -0.27826756
v -0.031271577 0.00030875206 -0.36596096
v -0.031271577 6.5436735 -0.36596838
v 0.07892138 6.5436735 -0.36086226
v 0.07892138 0.00030875206 -0.36085483
v 0.12660319 0.00030875206 -0.25859904
v 0.12660319 6.5436735 -0.25860643
v 0.06189108 0.00030875206 -0.1661849
v 0.06189108 6.5436664 -0.1661849
v -0.050502896 0.00030875206 -0.17601919
v -0.050502896 6.5436664 -0.17601919
v -0.098184705 0.00030875206 -0.27826756
v -0.098184705 6.5436735 -0.27826756
v 0.07892138 6.5436735 -0.36086226
v 0.12660319 6.5436735 -0.25860643
v 0.06189108 6.5436664 -0.1661849
v -0.031271577 6.5436735 -0.36596838
v -0.050502896 6.5436664 -0.17601919
v -0.098184705 6.5436735 -0.27826756
v -0.5024799 5.257287 -0.15108883
v -0.5024799 5.257287 -0.21591955
v -0.7104672 5.4191933 -0.21591955
v -0.7104672 5.4191933 -0.15108883
v -0.76440394 5.595069 -0.21591955
v -0.76440394 5.595069 -0.15108883
v -0.76421857 5.868628 -0.21591955
v -0.76421857 5.868628 -0.15108883
v -0.6286211 6.2214026 -0.21591955
v -0.6286211 6.2214026 -0.15108883
v -0.35405397 6.856481 -0.15108883
v -0.15077257 5.2223887 -0.15108883
v -0.63848495 6.3990498 -0.21591955
v -0.63848495 6.3990498 -0.15108883
v -0.7553551 6.60139 -0.21591955
v -0.7553551 6.60139 -0.15108883
v -0.46571434 6.949629 -0.21591955
v -0.46571434 6.949629 -0.15108883
v -0.35405397 6.856481 -0.21591955
v -0.089573264 6.860431 -0.21591955
v -0.089573264 6.860431 -0.15108883
v 0.02843821 6.9492583 -0.21591955
v 0.02843821 5.1214595 -0.15108883
v -0.15077257 5.2223887 -0.21591955
v 0.02843821 5.1214595 -0.21591955
v 0.02843821 6.9492583 -0.15108883
v 0.14644963 6.860431 -0.21591955
v 0.14644963 6.860431 -0.15108883
v 0.410923 6.856481 -0.21591955
v 0.410923 6.856481 -0.15108883
v 0.5225907 6.949629 -0.21591955
v 0.20764899 5.2223887 -0.15108883
v 0.20764899 5.2223887 -0.21591955
v 0.5593562 5.257287 -0.15108883
v 0.5225907 6.949629 -0.15108883
v 0.81223154 6.60139 -0.21591955
v 0.81223154 6.60139 -0.15108883
v 0.6953614 6.3990498 -0.21591955
v 0.6953614 6.3990498 -0.15108883
v 0.68549746 6.2214026 -0.21591955
v 0.68549746 6.2214026 -0.15108883
v 0.8210876 5.868628 -0.21591955
v 0.7673362 5.4191933 -0.15108883
v 0.5593562 5.257287 -0.21591955
v 0.7673362 5.4191933 -0.21591955
v 0.8210876 5.868628 -0.15108883
v 0.82127285 5.595069 -0.21591955
v 0.82127285 5.595069 -0.15108883
vt 0.08967766 0.33683938
vt 0.08967766 0.2209403
vt 0.08735122 0.2209403
vt 0.08735122 0.33683938
vt 0.08502478 0.33683938
vt 0.08502478 0.2209403
vt 0.082653016 0.2209403
vt 0.082653016 0.33683938
vt 0.08028126 0.2209403
vt 0.08028126 0.33683938
vt 0.07790949 0.2209403
vt 0.07790949 0.33683938
vt 0.075537734 0.2209403
vt 0.075537734 0.33683938
vt 0.085447766 0.3348755
vt 0.08794038 0.3312499
vt 0.085447766 0.32760915
vt 0.08058339 0.33470932
vt 0.08046254 0.32760915
vt 0.07796992 0.3312499
vt 0.60487866 0.5772484
vt 0.60487866 0.5772484
vt 0.59792954 0.5826566
vt 0.59792954 0.5826566
vt 0.59613186 0.58853316
vt 0.59613186 0.58853316
vt 0.59613186 0.5976727
vt 0.59613186 0.5976727
vt 0.60066384 0.6094711
vt 0.60066384 0.6094711
vt 0.60983366 0.630681
vt 0.6166317 0.57608515
vt 0.60033154 0.615393
vt 0.60033154 0.615393
vt 0.596434 0.6221608
vt 0.596434 0.6221608
vt 0.6061023 0.633793
vt 0.6061023 0.633793
vt 0.60983366 0.630681
vt 0.6186711 0.63081694
vt 0.6186711 0.63081694
vt 0.6226291 0.6337779
vt 0.62256867 0.57271636
vt 0.6166317 0.57608515
vt 0.62256867 0.57271636
vt 0.6226291 0.6337779
vt 0.62657195 0.63080186
vt 0.62657195 0.63080186
vt 0.6354094 0.6306508
vt 0.6354094 0.6306508
vt 0.6391559 0.6337628
vt 0.6285207 0.5760701
vt 0.6285207 0.5760701
vt 0.6402738 0.5772182
vt 0.6391559 0.6337628
vt 0.64880913 0.6221155
vt 0.64880913 0.6221155
vt 0.64488137 0.61536276
vt 0.64488137 0.61536276
vt 0.644549 0.6094258
vt 0.644549 0.6094258
vt 0.64905083 0.5976274
vt 0.64722294 0.58261126
vt 0.6402738 0.5772182
vt 0.64722294 0.58261126
vt 0.64905083 0.5976274
vt 0.6490357 0.5884878
vt 0.6490357 0.5884878
vn -0.79081094 0.6070378 -0.07825078
vn -0.9941344 0.0009775162 -0.10814712
vn -0.42326474 0.0009775162 -0.9060055
vn -0.33333313 0.61681294 -0.7130434
vn 0.44281507 0.6070378 -0.65986353
vn 0.55620694 0.0009775162 -0.83104324
vn 0.99608946 0.0009775162 0.08834483
vn 0.7888559 0.61094785 0.066701345
vn 0.42326468 0.0009775162 0.90600556
vn 0.33528823 0.61094785 0.7171642
vn -0.57380223 0.0009775162 0.8189933
vn -0.45454526 0.61094785 0.64817536
vn -0.9941344 0.0009775162 -0.10814712
vn -0.79081094 0.6070378 -0.07825078
vn 0.44281507 0.6070378 -0.65986353
vn 0.7888559 0.61094785 0.066701345
vn 0.33528823 0.61094785 0.7171642
vn -0.33333313 0.61681294 -0.7130434
vn -0.45454526 0.61094785 0.64817536
vn -0.79081094 0.6070378 -0.07825078
vn -0.3196479 -0.40957946 0.8544413
vn -0.61475223 -0.7887203 -0
vn -0.8233859 -0.5674819 -0
vn -0.62854326 -0.43303984 0.6460727
vn -0.9882693 -0.147605 -0.039197925
vn -0.73020494 -0.108504355 0.6745573
vn -0.98240423 0.18279564 -0.038310587
vn -0.73216 0.13587487 0.66744274
vn -0.9878579 0.15536048 -0
vn -0.6441835 0.100684166 0.7582152
vn 0.20234597 0.5718472 0.7950138
vn -0.1984359 -0.35288352 0.91438305
vn -0.958175 -0.28618273 -0
vn -0.618768 -0.18475062 0.7635401
vn -0.99608946 0.08504391 -0.023943651
vn -0.7986311 0.067448616 0.5980293
vn -0.09088816 0.99586105 -0
vn -0.07331371 0.8123163 0.5785908
vn 0.33317786 0.942864 -0
vn -0.32355797 0.9452586 -0.042383544
vn -0.20039093 0.58748746 0.7840293
vn -0.0009775162 0.9999995 -0
vn -0.0009775162 -0.79081094 0.6120597
vn -0.4916063 -0.8708175 -0
vn -0.0009775162 -0.9999995 -0
vn -0.0009775162 0.80449617 0.593957
vn 0.32355803 0.9452586 -0.042383544
vn 0.20039093 0.58748746 0.7840293
vn -0.3331778 0.942864 -0
vn -0.20234597 0.5718472 0.7950138
vn 0.09088822 0.99586105 -0
vn 0.1984359 -0.35288352 0.91438305
vn 0.4916063 -0.8708175 -0
vn 0.31964797 -0.40957946 0.8544413
vn 0.07331377 0.8123163 0.5785908
vn 0.99608946 0.08504391 -0.023943651
vn 0.7986311 0.067448616 0.5980293
vn 0.958175 -0.28618273 -0
vn 0.61876804 -0.18475062 0.76353997
vn 0.9878579 0.15536048 -0
vn 0.64418346 0.100684166 0.75821525
vn 0.98240423 0.18279564 -0.038310587
vn 0.6285432 -0.43303984 0.64607275
vn 0.61475223 -0.7887202 -0
vn 0.8233859 -0.5674819 -0
vn 0.73216 0.13587487 0.66744274
vn 0.9882693 -0.147605 -0.039197925
vn 0.73020494 -0.108504355 0.6745573
g fcbg_desertcrystal_streetsign_03_0
f 3/3/3 2/2/2 1/1/1
f 4/4/4 3/3/3 1/1/1
f 4/4/4 5/5/5 3/3/3
f 5/5/5 6/6/6 3/3/3
f 7/7/7 6/6/6 5/5/5
f 8/8/8 7/7/7 5/5/5
f 9/9/9 7/7/7 8/8/8
f 10/10/10 9/9/9 8/8/8
f 11/11/11 9/9/9 10/10/10
f 12/12/12 11/11/11 10/10/10
f 13/13/13 11/11/11 12/12/12
f 14/14/14 13/13/13 12/12/12
f 17/17/17 16/16/16 15/15/15
f 17/17/17 15/15/15 18/18/18
f 19/19/19 17/17/17 18/18/18
f 20/20/20 19/19/19 18/18/18
f 23/23/23 22/22/22 21/21/21
f 24/24/24 23/23/23 21/21/21
f 25/25/25 23/23/23 24/24/24
f 26/26/26 25/25/25 24/24/24
f 27/27/27 25/25/25 26/26/26
f 28/28/28 27/27/27 26/26/26
f 26/26/26 24/24/24 28/28/28
f 29/29/29 27/27/27 28/28/28
f 24/24/24 30/30/30 28/28/28
f 30/30/30 29/29/29 28/28/28
f 24/24/24 21/21/21 30/30/30
f 30/30/30 21/21/21 31/31/31
f 21/21/21 32/32/32 31/31/31
f 33/33/33 29/29/29 30/30/30
f 34/34/34 33/33/33 30/30/30
f 34/34/34 30/30/30 31/31/31
f 35/35/35 33/33/33 34/34/34
f 36/36/36 35/35/35 34/34/34
f 36/36/36 34/34/34 31/31/31
f 37/37/37 35/35/35 36/36/36
f 38/38/38 37/37/37 36/36/36
f 38/38/38 36/36/36 31/31/31
f 39/39/39 37/37/37 38/38/38
f 31/31/31 39/39/39 38/38/38
f 40/40/40 39/39/39 31/31/31
f 41/41/41 40/40/40 31/31/31
f 32/32/32 41/41/41 31/31/31
f 42/42/42 40/40/40 41/41/41
f 32/32/32 43/43/43 41/41/41
f 32/32/32 44/44/44 43/43/43
f 44/44/44 45/45/45 43/43/43
f 46/46/46 42/42/42 41/41/41
f 43/43/43 46/46/46 41/41/41
f 47/47/47 42/42/42 46/46/46
f 48/48/48 47/47/47 46/46/46
f 46/46/46 43/43/43 48/48/48
f 49/49/49 47/47/47 48/48/48
f 50/50/50 49/49/49 48/48/48
f 51/51/51 49/49/49 50/50/50
f 43/43/43 45/45/45 52/52/52
f 43/43/43 52/52/52 48/48/48
f 48/48/48 52/52/52 50/50/50
f 45/45/45 53/53/53 52/52/52
f 52/52/52 54/54/54 50/50/50
f 55/55/55 51/51/51 50/50/50
f 56/56/56 51/51/51 55/55/55
f 57/57/57 56/56/56 55/55/55
f 57/57/57 55/55/55 50/50/50
f 58/58/58 56/56/56 57/57/57
f 59/59/59 58/58/58 57/57/57
f 59/59/59 57/57/57 50/50/50
f 60/60/60 58/58/58 59/59/59
f 61/61/61 59/59/59 50/50/50
f 61/61/61 60/60/60 59/59/59
f 54/54/54 61/61/61 50/50/50
f 62/62/62 60/60/60 61/61/61
f 63/63/63 61/61/61 54/54/54
f 54/54/54 64/64/64 63/63/63
f 64/64/64 65/65/65 63/63/63
f 66/66/66 62/62/62 61/61/61
f 66/66/66 61/61/61 63/63/63
f 67/67/67 62/62/62 66/66/66
f 65/65/65 67/67/67 68/68/68
f 63/63/63 65/65/65 68/68/68
f 68/68/68 66/66/66 63/63/63
f 68/68/68 67/67/67 66/66/66
