g fcbg_arkcity_001_garbage_07
v -0.42487192 0.18264866 -0.43175936
v -5.505066 -0.4668355 -4.0564837
v -0.41776752 0.0121798515 -0.42743635
v -5.512171 -0.2963786 -4.060795
v -0.6008196 0.18143272 -0.1906681
v -5.6814594 -0.29718542 -3.8148267
v -5.505066 -0.4668355 -4.0564837
v -5.6743546 -0.46765423 -3.8105159
v -0.5937152 0.010963917 -0.1863575
v -5.6743546 -0.46765423 -3.8105159
v 4.818073 0.37517738 2.9846506
v 4.8251653 0.20470858 2.9889612
v 4.655876 0.20388985 3.234929
v 4.6487722 0.37435865 3.2306185
v -0.6008196 0.18143272 -0.1906681
v 4.655876 0.20388985 3.234929
v -0.5937152 0.010963917 -0.1863575
v -0.42487192 0.18264866 -0.43175936
v -0.41776752 0.0121798515 -0.42743635
v 4.8251653 0.20470858 2.9889612
v -0.032649994 0.2965355 -0.6418443
v -6.3131104 0.29705334 -0.4210186
v -0.037310123 0.12593412 -0.6418443
v -6.308463 0.4676547 -0.4210186
v -0.031771183 0.29652357 -0.34338808
v -6.2993116 0.4674139 -0.12256241
v -6.3131104 0.29705334 -0.4210186
v -6.303959 0.29681253 -0.12256241
v -0.036418915 0.1259222 -0.34338808
v -6.303959 0.29681253 -0.12256241
v 6.2348657 0.12565708 -0.86266994
v 6.230218 -0.044956207 -0.86266994
v 6.2393575 -0.04519701 -0.56421375
v 6.244017 0.12540436 -0.56421375
v -0.031771183 0.29652357 -0.34338808
v 6.2393575 -0.04519701 -0.56421375
v -0.036418915 0.1259222 -0.34338808
v -0.032649994 0.2965355 -0.6418443
v -0.037310123 0.12593412 -0.6418443
v 6.230218 -0.044956207 -0.86266994
v 0.22301102 -0.016045094 2.2691917
v -5.87471 -0.015539169 3.7731762
v 0.21849537 -0.18664646 2.2703
v -5.8701954 0.1550622 3.772068
v 0.29523468 -0.016068935 2.5587854
v -5.78994 0.1548214 4.059675
v -5.87471 -0.015539169 3.7731762
v -5.794467 -0.015779972 4.060795
v 0.2907195 -0.1866703 2.5598936
v -5.794467 -0.015779972 4.060795
v 6.2328672 -0.18693542 0.4624648
v 6.2283516 -0.3575368 0.4635849
v 6.3085947 -0.35778952 0.75120354
v 6.3131104 -0.18717623 0.7500839
v 0.29523468 -0.016068935 2.5587854
v 6.3085947 -0.35778952 0.75120354
v 0.2907195 -0.1866703 2.5598936
v 0.22301102 -0.016045094 2.2691917
v 0.21849537 -0.18664646 2.2703
v 6.2283516 -0.3575368 0.4635849
vt 0.37482974 0.113921866
vt 0.37911487 0.29665276
vt 0.37911487 0.113921866
vt 0.37482974 0.29665276
vt 0.36530557 0.113921866
vt 0.36530557 0.29665276
vt 0.37482974 0.30060476
vt 0.36530557 0.30060476
vt 0.36035421 0.113921866
vt 0.36035421 0.29665276
vt 0.37482974 0.29665276
vt 0.37482974 0.30060476
vt 0.36530557 0.30060476
vt 0.36530557 0.29665276
vt 0.36530557 0.113921866
vt 0.36035421 0.29665276
vt 0.36035421 0.113921866
vt 0.37482974 0.113921866
vt 0.37911487 0.113921866
vt 0.37911487 0.29665276
vt 0.3502698 0.113921866
vt 0.3555997 0.29639536
vt 0.3555997 0.113921866
vt 0.3502698 0.29639536
vt 0.3409273 0.113921866
vt 0.3409273 0.29639536
vt 0.3502698 0.30049878
vt 0.3409273 0.30049878
vt 0.3355974 0.113921866
vt 0.3355974 0.29639536
vt 0.3502698 0.29639536
vt 0.3502698 0.30049878
vt 0.3409273 0.30049878
vt 0.3409273 0.29639536
vt 0.3409273 0.113921866
vt 0.3355974 0.29639536
vt 0.3355974 0.113921866
vt 0.3502698 0.113921866
vt 0.3555997 0.113921866
vt 0.3555997 0.29639536
vt 0.3502698 0.113921866
vt 0.35561484 0.29639536
vt 0.35561484 0.113921866
vt 0.3502698 0.29639536
vt 0.34094244 0.113921866
vt 0.34094244 0.29639536
vt 0.3502698 0.30049878
vt 0.34094244 0.30049878
vt 0.33561254 0.113921866
vt 0.33561254 0.29639536
vt 0.3502698 0.29639536
vt 0.3502698 0.30049878
vt 0.34094244 0.30049878
vt 0.34094244 0.29639536
vt 0.34094244 0.113921866
vt 0.33561254 0.29639536
vt 0.33561254 0.113921866
vt 0.3502698 0.113921866
vt 0.35561484 0.113921866
vt 0.35561484 0.29639536
vn 0.36033344 0.7183238 -0.5951224
vn -0.18187928 -0.031544864 -0.9828147
vn 0.5641439 0.0030644536 -0.8256708
vn -0.1703428 0.53950894 -0.8245686
vn -0.4299128 0.7048646 0.56421703
vn -0.83368814 0.5375862 0.1263532
vn -0.18187928 -0.031544864 -0.9828147
vn -0.9855846 -0.037313104 0.16501732
vn -0.5625818 -0.002703786 0.82673717
vn -0.9855846 -0.037313104 0.16501732
vn 0.78141356 0.59911394 -0.17451462
vn 0.98137856 0.035750985 -0.18872726
vn 0.19882327 0.03382826 0.97945136
vn 0.1372956 0.59911394 0.7888044
vn -0.4299128 0.7048646 0.56421703
vn 0.19882327 0.03382826 0.97945136
vn -0.5625818 -0.002703786 0.82673717
vn 0.36033344 0.7183238 -0.5951224
vn 0.5641439 0.0030644536 -0.8256708
vn 0.98137856 0.035750985 -0.18872726
vn -0.0049871802 0.70678735 -0.7074085
vn -0.7298602 0.020369053 -0.6832929
vn -0.035750985 0.0011416674 -0.9993601
vn -0.57988644 0.59334564 -0.55827653
vn 0.04500407 0.70678735 0.7059931
vn -0.54143167 0.5914229 0.5975539
vn -0.7298602 0.020369053 -0.6832929
vn -0.6837145 0.018446326 0.7295164
vn 0.035390377 -0.00078105927 0.99937326
vn -0.6837145 0.018446326 0.7295164
vn 0.57375765 0.5625818 -0.5952343
vn 0.6833538 -0.018085718 -0.72986335
vn 0.7294996 -0.020008445 0.6836885
vn 0.6122124 0.56065905 0.5575459
vn 0.04500407 0.70678735 0.7059931
vn 0.7294996 -0.020008445 0.6836885
vn 0.035390377 -0.00078105927 0.99937326
vn -0.0049871802 0.70678735 -0.7074085
vn -0.035750985 0.0011416674 -0.9993601
vn 0.6833538 -0.018085718 -0.72986335
vn -0.16649735 0.7125555 -0.6815741
vn -0.8625293 0.020369053 -0.505597
vn -0.26455712 0.0011416674 -0.96436936
vn -0.6914054 0.5914229 -0.4149428
vn 0.20651424 0.70101917 0.68258625
vn -0.3953035 0.59334564 0.7011962
vn -0.8625293 0.020369053 -0.505597
vn -0.5048996 0.018446326 0.8629809
vn 0.26419646 -0.00078105927 0.9644686
vn -0.5048996 0.018446326 0.8629809
vn 0.40840197 0.56065905 -0.7203258
vn 0.4814661 -0.018085718 -0.8762781
vn 0.8756279 -0.020008445 0.48257175
vn 0.7294996 0.5625818 0.38901427
vn 0.20651424 0.70101917 0.68258625
vn 0.8756279 -0.020008445 0.48257175
vn 0.26419646 -0.00078105927 0.9644686
vn -0.16649735 0.7125555 -0.6815741
vn -0.26455712 0.0011416674 -0.96436936
vn 0.4814661 -0.018085718 -0.8762781
g fcbg_arkcity_001_garbage_07_0
f 3/3/3 2/2/2 1/1/1
f 2/2/2 4/4/4 1/1/1
f 5/5/5 1/1/1 4/4/4
f 6/6/6 5/5/5 4/4/4
f 4/4/4 7/7/7 6/6/6
f 7/7/7 8/8/8 6/6/6
f 9/9/9 5/5/5 6/6/6
f 10/10/10 9/9/9 6/6/6
f 13/13/13 12/12/12 11/11/11
f 14/14/14 13/13/13 11/11/11
f 15/15/15 14/14/14 11/11/11
f 16/16/16 14/14/14 15/15/15
f 17/17/17 16/16/16 15/15/15
f 18/18/18 15/15/15 11/11/11
f 19/19/19 18/18/18 11/11/11
f 20/20/20 19/19/19 11/11/11
f 23/23/23 22/22/22 21/21/21
f 22/22/22 24/24/24 21/21/21
f 25/25/25 21/21/21 24/24/24
f 26/26/26 25/25/25 24/24/24
f 24/24/24 27/27/27 26/26/26
f 27/27/27 28/28/28 26/26/26
f 29/29/29 25/25/25 26/26/26
f 30/30/30 29/29/29 26/26/26
f 33/33/33 32/32/32 31/31/31
f 34/34/34 33/33/33 31/31/31
f 35/35/35 34/34/34 31/31/31
f 36/36/36 34/34/34 35/35/35
f 37/37/37 36/36/36 35/35/35
f 38/38/38 35/35/35 31/31/31
f 39/39/39 38/38/38 31/31/31
f 40/40/40 39/39/39 31/31/31
f 43/43/43 42/42/42 41/41/41
f 42/42/42 44/44/44 41/41/41
f 45/45/45 41/41/41 44/44/44
f 46/46/46 45/45/45 44/44/44
f 44/44/44 47/47/47 46/46/46
f 47/47/47 48/48/48 46/46/46
f 49/49/49 45/45/45 46/46/46
f 50/50/50 49/49/49 46/46/46
f 53/53/53 52/52/52 51/51/51
f 54/54/54 53/53/53 51/51/51
f 55/55/55 54/54/54 51/51/51
f 56/56/56 54/54/54 55/55/55
f 57/57/57 56/56/56 55/55/55
f 58/58/58 55/55/55 51/51/51
f 59/59/59 58/58/58 51/51/51
f 60/60/60 59/59/59 51/51/51
