g fcbg_cityforestcrystal_003_tree_06
v -0.04690361 2.8399634 -0.4805925
v -0.060323477 2.7490582 -0.8883343
v 0.4075091 1.8099604 -0.33265138
v 0.36976266 1.7537789 -0.79764223
v 0.54511833 1.1392369 0.035016775
v -0.419724 2.55265 -0.9906173
v 0.52070427 1.0464208 -0.23292518
v 0.70764565 0.53746367 0.36530566
v 0.022172213 1.527317 -0.84388614
v -0.70586586 2.4251862 -0.7831986
v 0.6053078 0.3358817 0.120512724
v 0.72840214 0.02611947 0.730428
v -0.26987743 1.4431462 -0.6682458
v -0.72840214 2.4955487 -0.4492085
v 0.2928574 0.9462457 -0.3721826
v 0.7084558 -0.16600132 0.5677912
v 0.6946912 -0.6759987 0.8834994
v 0.3139043 0.1921947 0.08026433
v 0.042868614 0.9685464 -0.26435876
v -0.23567915 1.4765782 -0.3541801
v 0.115284204 1.6907749 -0.07727504
v -0.35196233 2.7145367 -0.25207233
v -0.04690361 2.8399634 -0.4805925
v 0.4075091 1.8099604 -0.33265138
v 0.032224655 1.0525858 -0.049159527
v 0.3118565 1.0969462 0.19123101
v 0.54511833 1.1392369 0.035016775
v 0.04531598 0.27388 0.22872019
v 0.45180917 -0.2706113 0.517972
v 0.43906283 0.61915445 0.5137615
v 0.70764565 0.53746367 0.36530566
v 0.06813121 0.49925756 0.41742444
v 0.49170732 0.11363602 0.84321785
v 0.72840214 0.02611947 0.730428
v 0.21511436 -0.18310046 0.6307728
v 0.23506618 0.009025812 0.7933986
v 0.5006647 -0.6310303 0.99061155
v 0.6946912 -0.6759987 0.8834994
v 0.5524442 -1.5157372 0.6873596
v 0.27939367 -0.6539333 0.918946
v 0.39505816 -1.5157317 0.7725873
v 0.49238086 -2.1804101 0.46619797
v 0.25216532 -0.7218046 0.74015737
v 0.36515236 -2.17177 0.5059593
v 0.4031453 -2.9012427 0.636637
v 0.22120285 -1.4815223 0.715924
v 0.20473862 -1.447313 0.5740385
v 0.446208 -0.76677275 0.6330397
v 0.32163525 -2.2399974 0.38508224
v 0.66745734 -0.7438698 0.7047107
v 0.36212468 -1.4473184 0.48881078
v 0.44900584 -2.2486372 0.3399551
v 0.49238086 -2.1804101 0.46619797
v 0.5359802 -1.4815333 0.54547405
v 0.5524442 -1.5157372 0.6873596
vt 0.18050434 0.9415849
vt 0.19054209 0.93565625
vt 0.16434081 0.9115929
vt 0.1744089 0.90349597
vt 0.15688072 0.8880603
vt 0.20297557 0.92942435
vt 0.16443178 0.88238937
vt 0.14585738 0.8681819
vt 0.18940488 0.8969002
vt 0.21193677 0.92431444
vt 0.1555009 0.8653161
vt 0.14191505 0.84919804
vt 0.19898775 0.89439833
vt 0.20297557 0.92942435
vt 0.17718369 0.88138866
vt 0.15001199 0.84891
vt 0.14024715 0.827955
vt 0.16638778 0.8606914
vt 0.18420404 0.87894744
vt 0.18940488 0.8969002
vt 0.1744089 0.90349597
vt 0.19054209 0.93565625
vt 0.18050434 0.9415849
vt 0.16434081 0.9115929
vt 0.17718369 0.88138866
vt 0.16443178 0.88238937
vt 0.15688072 0.8880603
vt 0.17287745 0.8551722
vt 0.15704751 0.8453922
vt 0.1555009 0.8653161
vt 0.14585738 0.8681819
vt 0.16638778 0.8606914
vt 0.15001199 0.84891
vt 0.14191505 0.84919804
vt 0.16205123 0.84007007
vt 0.15704751 0.8453922
vt 0.14660035 0.8285767
vt 0.14024715 0.827955
vt 0.14194538 0.8020873
vt 0.15299904 0.82709074
vt 0.14744948 0.80267864
vt 0.14405301 0.77967674
vt 0.15777533 0.82434624
vt 0.14869282 0.7794038
vt 0.14117208 0.7579181
vt 0.1528171 0.80289096
vt 0.15706268 0.80242085
vt 0.15299904 0.82709074
vt 0.15157375 0.7762651
vt 0.14660035 0.8285767
vt 0.1528171 0.80289096
vt 0.14869282 0.7794038
vt 0.14405301 0.77967674
vt 0.14744948 0.80267864
vt 0.14194538 0.8020873
vn 0.81012404 0.42832625 0.40029445
vn 0.7238912 0.23934793 -0.64706576
vn 0.8706705 0.37144923 0.32242572
vn 0.7495776 0.0045010448 -0.66190124
vn 0.8358104 0.40997887 0.3651551
vn -0.11458552 -0.17530358 -0.97782356
vn 0.86883575 -0.11292237 -0.48205084
vn 0.9422254 0.25402582 0.21836248
vn 0.013846397 -0.41015047 -0.91191274
vn -0.7879355 -0.41015047 -0.45927578
vn 0.7202217 -0.33859557 -0.60550284
vn 0.87800944 0.20632255 0.4318917
vn -0.69986796 -0.55692977 -0.4472293
vn -0.78243124 -0.27254486 0.55992913
vn 0.17713833 -0.51656544 -0.8377244
vn 0.8413146 -0.23585004 -0.48637894
vn 0.85048836 -0.10925293 0.5145225
vn -0.10174227 -0.6229805 -0.77559257
vn -0.749406 -0.5349128 -0.3902037
vn -0.833804 -0.2963965 0.46574673
vn -0.04670012 0.26136482 0.9641097
vn 0.026689589 0.18063617 0.9831878
vn 0.81012404 0.42832625 0.40029445
vn 0.8706705 0.37144923 0.32242572
vn -0.8998548 0.030187428 0.43514374
vn -0.10174227 0.5237328 0.84578514
vn 0.8358104 0.40997887 0.3651551
vn -0.8888463 -0.38079458 -0.25484854
vn -0.07422125 -0.45601898 -0.8868697
vn 0.10191393 0.5512539 0.8280898
vn 0.9422254 0.25402582 0.21836248
vn -0.8081176 0.24301744 0.5365523
vn 0.10925293 0.40263987 0.90881515
vn 0.87800944 0.20632255 0.4318917
vn -0.92187166 -0.30740494 -0.23591276
vn -0.69619846 0.16595829 0.6984021
vn 0.10558343 -0.017515838 0.9942562
vn 0.85048836 -0.10925293 0.5145225
vn 0.86333156 -0.23585004 0.4461316
vn -0.7163806 -0.026689589 0.69719905
vn 0.04687172 -0.30740494 0.9504237
vn 0.92754745 -0.12026137 0.3538261
vn -0.92187166 -0.0010032058 -0.38749403
vn -0.45768213 -0.18447733 0.8697673
vn -0.0045010448 -0.9550686 0.29635072
vn -0.79710925 -0.20465946 0.5680945
vn -0.8943505 0.05587375 -0.44386402
vn -0.083394885 0.015509486 -0.9963959
vn -0.8558209 -0.12393087 -0.50220686
vn 0.8156283 -0.12026137 -0.56593966
vn -0.09807289 0.1971488 -0.9754558
vn 0.40831572 -0.1606257 -0.89859766
vn 0.92754745 -0.12026137 0.3538261
vn 0.7770987 0.05036962 -0.6273599
vn 0.86333156 -0.23585004 0.4461316
g fcbg_cityforestcrystal_003_tree_06_0
f 3/3/3 2/2/2 1/1/1
f 2/2/2 3/3/3 4/4/4
f 5/5/5 4/4/4 3/3/3
f 6/6/6 2/2/2 4/4/4
f 4/4/4 5/5/5 7/7/7
f 8/8/8 7/7/7 5/5/5
f 9/9/9 6/6/6 4/4/4
f 7/7/7 9/9/9 4/4/4
f 9/9/9 10/10/10 6/6/6
f 7/7/7 8/8/8 11/11/11
f 12/12/12 11/11/11 8/8/8
f 10/10/10 9/9/9 13/13/13
f 13/13/13 14/14/14 10/10/10
f 9/9/9 7/7/7 15/15/15
f 11/11/11 15/15/15 7/7/7
f 9/9/9 15/15/15 13/13/13
f 11/11/11 12/12/12 16/16/16
f 12/12/12 17/17/17 16/16/16
f 18/18/18 15/15/15 11/11/11
f 16/16/16 18/18/18 11/11/11
f 13/13/13 15/15/15 19/19/19
f 15/15/15 18/18/18 19/19/19
f 14/14/14 13/13/13 20/20/20
f 13/13/13 19/19/19 20/20/20
f 21/21/21 14/14/14 20/20/20
f 14/14/14 21/21/21 22/22/22
f 21/21/21 23/23/23 22/22/22
f 23/23/23 21/21/21 24/24/24
f 25/25/25 20/20/20 19/19/19
f 21/21/21 20/20/20 25/25/25
f 26/26/26 24/24/24 21/21/21
f 25/25/25 26/26/26 21/21/21
f 24/24/24 26/26/26 27/27/27
f 28/28/28 19/19/19 18/18/18
f 19/19/19 28/28/28 25/25/25
f 18/18/18 16/16/16 29/29/29
f 29/29/29 28/28/28 18/18/18
f 30/30/30 27/27/27 26/26/26
f 27/27/27 30/30/30 31/31/31
f 25/25/25 32/32/32 26/26/26
f 25/25/25 28/28/28 32/32/32
f 26/26/26 32/32/32 30/30/30
f 33/33/33 31/31/31 30/30/30
f 31/31/31 33/33/33 34/34/34
f 35/35/35 32/32/32 28/28/28
f 28/28/28 29/29/29 35/35/35
f 36/36/36 30/30/30 32/32/32
f 30/30/30 36/36/36 33/33/33
f 32/32/32 35/35/35 36/36/36
f 37/37/37 34/34/34 33/33/33
f 37/37/37 33/33/33 36/36/36
f 34/34/34 37/37/37 38/38/38
f 37/37/37 39/39/39 38/38/38
f 40/40/40 36/36/36 35/35/35
f 37/37/37 36/36/36 40/40/40
f 39/39/39 37/37/37 41/41/41
f 41/41/41 37/37/37 40/40/40
f 41/41/41 42/42/42 39/39/39
f 40/40/40 35/35/35 43/43/43
f 29/29/29 43/43/43 35/35/35
f 42/42/42 41/41/41 44/44/44
f 44/44/44 45/45/45 42/42/42
f 41/41/41 40/40/40 46/46/46
f 46/46/46 40/40/40 43/43/43
f 46/46/46 44/44/44 41/41/41
f 46/46/46 43/43/43 47/47/47
f 44/44/44 46/46/46 47/47/47
f 43/43/43 29/29/29 48/48/48
f 47/47/47 43/43/43 48/48/48
f 45/45/45 44/44/44 49/49/49
f 47/47/47 49/49/49 44/44/44
f 29/29/29 50/50/50 48/48/48
f 16/16/16 50/50/50 29/29/29
f 16/16/16 17/17/17 50/50/50
f 47/47/47 48/48/48 51/51/51
f 49/49/49 47/47/47 51/51/51
f 50/50/50 51/51/51 48/48/48
f 45/45/45 49/49/49 52/52/52
f 51/51/51 52/52/52 49/49/49
f 53/53/53 45/45/45 52/52/52
f 17/17/17 54/54/54 50/50/50
f 51/51/51 50/50/50 54/54/54
f 52/52/52 51/51/51 54/54/54
f 52/52/52 54/54/54 53/53/53
f 54/54/54 17/17/17 55/55/55
f 55/55/55 53/53/53 54/54/54
