g fcbg_arkcity_003_garbage_01
v -0.36817253 0.00042268634 -0.2799917
v -0.36817253 0.99129844 0.2799914
v -0.36817253 0.00042268634 0.2799914
v -0.36817253 0.99129844 -0.27999324
v 0.36817122 0.00042268634 -0.2799917
v -0.36817253 1.2738613 0.13544965
v 0.36817122 0.99129844 -0.2799917
v -0.36817253 1.2738613 -0.13544992
v 0.36817122 1.2738613 -0.13544992
v -0.36817253 1.2738613 0.13544965
v 0.36817122 1.2738613 0.13544965
v 0.36817122 0.00042268634 0.2799914
v 0.36817122 0.99129844 -0.2799917
v 0.36817122 0.00042268634 -0.2799917
v 0.36817122 0.99129844 0.2799914
v 0.36817122 1.2738613 -0.13544992
v 0.36817122 1.2738613 0.13544965
v -0.36817253 0.99129844 0.2799914
v -0.36817253 1.2738613 0.13544965
v 0.36817122 1.2738613 0.13544965
v 0.36817122 0.99129844 0.2799914
v -0.36817253 0.00042268634 0.2799914
v 0.36817122 0.00042268634 0.2799914
vt 0.7405479 0.9787705
vt 0.7761195 0.99915457
vt 0.7405479 0.99915457
vt 0.7761195 0.9787705
vt 0.7405479 0.9498694
vt 0.7856815 0.99395823
vt 0.7761195 0.9498694
vt 0.7856815 0.9787705
vt 0.7856815 0.9498694
vt 0.7962887 0.9787705
vt 0.7962887 0.9498694
vt 0.7405479 0.99915457
vt 0.7761195 0.9787705
vt 0.7405479 0.9787705
vt 0.7761195 0.99915457
vt 0.7856815 0.9787705
vt 0.7856815 0.99395823
vt 0.7761195 0.9787705
vt 0.7856815 0.9787705
vt 0.7856815 0.9498694
vt 0.7761195 0.9498694
vt 0.7405479 0.9787705
vt 0.7405479 0.9498694
vn -0.7071067 0.00069111586 -0.70710653
vn -0.6573397 0.1762582 0.732692
vn -0.7071067 0.00069111586 0.70710653
vn -0.6573397 0.1762582 -0.732692
vn 0.70710695 0.00069111586 -0.7071063
vn -0.6061902 0.6780759 0.4156278
vn 0.6573399 0.1762582 -0.7326918
vn -0.6061902 0.6780759 -0.4156278
vn 0.60619044 0.6780759 -0.41562745
vn -0.6061902 0.6780759 0.4156278
vn 0.60619044 0.6780759 0.41562745
vn 0.70710695 0.00069111586 0.7071063
vn 0.6573399 0.1762582 -0.7326918
vn 0.70710695 0.00069111586 -0.7071063
vn 0.6573399 0.1762582 0.7326918
vn 0.60619044 0.6780759 -0.41562745
vn 0.60619044 0.6780759 0.41562745
vn -0.6573397 0.1762582 0.732692
vn -0.6061902 0.6780759 0.4156278
vn 0.60619044 0.6780759 0.41562745
vn 0.6573399 0.1762582 0.7326918
vn -0.7071067 0.00069111586 0.70710653
vn 0.70710695 0.00069111586 0.7071063
g fcbg_arkcity_003_garbage_01_0
f 3/3/3 2/2/2 1/1/1
f 2/2/2 4/4/4 1/1/1
f 5/5/5 1/1/1 4/4/4
f 2/2/2 6/6/6 4/4/4
f 7/7/7 5/5/5 4/4/4
f 6/6/6 8/8/8 4/4/4
f 7/7/7 4/4/4 8/8/8
f 9/9/9 7/7/7 8/8/8
f 9/9/9 8/8/8 10/10/10
f 11/11/11 9/9/9 10/10/10
f 14/14/14 13/13/13 12/12/12
f 13/13/13 15/15/15 12/12/12
f 15/15/15 13/13/13 16/16/16
f 17/17/17 15/15/15 16/16/16
f 20/20/20 19/19/19 18/18/18
f 21/21/21 20/20/20 18/18/18
f 18/18/18 22/22/22 21/21/21
f 22/22/22 23/23/23 21/21/21
