g fcbg_cityforest_stone_0003
v -0.48692596 0.15733284 -0.214555
v -0.5706775 -8.329566E-05 -0.03425205
v -0.50768656 -7.355347E-05 -0.23423615
v -0.54508287 0.12736295 -0.039775863
v 0.02937073 0.42322037 -0.43621594
v -0.16777207 0.32214618 0.45916075
v -0.5706775 -8.329566E-05 -0.03425205
v -0.17653419 -0.00013639055 0.514603
v 0.14926776 0.27194667 0.59040886
v 0.15324841 -0.00013687766 0.6422899
v 0.098735064 0.4623498 0.46202934
v 0.65097064 0.32294312 0.26863822
v 0.68900996 -9.8883145E-05 0.2905747
v 0.72637904 -9.839604E-05 -0.19886668
v 0.5159421 0.6736256 0.17886549
v 0.40271842 0.6153927 -0.40355042
v 0.022833727 0.27214348 -0.50348324
v 0.5785882 0.7059025 -0.18311892
v 0.68882686 0.3331461 -0.19621778
v 0.44283283 0.3275502 -0.46243557
v 0.46166837 -9.839604E-05 -0.4897736
v 0.022299854 -9.157651E-05 -0.5273585
v -0.50768656 -7.355347E-05 -0.23423615
vt 0.8362663 0.57937944
vt 0.8514383 0.58118784
vt 0.843448 0.57304794
vt 0.8465866 0.587655
vt 0.8110381 0.58902353
vt 0.8448102 0.62106645
vt 0.8545553 0.5870112
vt 0.85812163 0.6278
vt 0.8385474 0.6398062
vt 0.8420917 0.6498252
vt 0.8347805 0.6286223
vt 0.80550396 0.6392407
vt 0.8001937 0.65021086
vt 0.77703017 0.6238732
vt 0.8115252 0.6260707
vt 0.800774 0.60208917
vt 0.8050742 0.57986736
vt 0.8024999 0.6136076
vt 0.79077494 0.6188045
vt 0.791522 0.5986594
vt 0.77756816 0.593284
vt 0.7998665 0.5703994
vt 0.8359342 0.5693396
vn -0.7160657 0.5315057 -0.4524949
vn -0.972585 0.17039458 0.15825367
vn -0.769156 0.14984374 -0.62124556
vn -0.8628487 0.49165758 0.11732441
vn -0.42140597 0.7171977 -0.55501753
vn -0.59381855 0.58369374 0.55378795
vn -0.972585 0.17039458 0.15825367
vn -0.595484 0.16157095 0.7869522
vn 0.0860586 0.33336532 0.9388618
vn 0.09510861 0.17912164 0.979219
vn -0.21463895 0.81792915 0.5337807
vn 0.81709564 0.26225922 0.5133953
vn 0.8530874 0.13162434 0.50489295
vn 0.94164896 0.11438234 -0.31656608
vn 0.3027131 0.87687683 0.37343258
vn 0.0842145 0.75589377 -0.64925545
vn -0.24911045 0.2306514 -0.94060826
vn 0.44965446 0.8641904 -0.2258002
vn 0.92829394 0.19478129 -0.31674987
vn 0.43136615 0.1672463 -0.88653934
vn 0.4420523 0.09679662 -0.89175117
vn -0.21144049 0.10420548 -0.97181994
vn -0.769156 0.14984374 -0.62124556
g fcbg_cityforest_stone_0003_0
f 3/3/3 2/2/2 1/1/1
f 2/2/2 4/4/4 1/1/1
f 1/1/1 4/4/4 5/5/5
f 4/4/4 6/6/6 5/5/5
f 4/4/4 7/7/7 6/6/6
f 7/7/7 8/8/8 6/6/6
f 9/9/9 6/6/6 8/8/8
f 10/10/10 9/9/9 8/8/8
f 6/6/6 11/11/11 5/5/5
f 6/6/6 9/9/9 11/11/11
f 10/10/10 12/12/12 9/9/9
f 13/13/13 12/12/12 10/10/10
f 13/13/13 14/14/14 12/12/12
f 11/11/11 9/9/9 15/15/15
f 9/9/9 12/12/12 15/15/15
f 11/11/11 16/16/16 5/5/5
f 16/16/16 11/11/11 15/15/15
f 5/5/5 17/17/17 1/1/1
f 16/16/16 17/17/17 5/5/5
f 15/15/15 12/12/12 18/18/18
f 18/18/18 16/16/16 15/15/15
f 12/12/12 19/19/19 18/18/18
f 14/14/14 19/19/19 12/12/12
f 18/18/18 19/19/19 16/16/16
f 20/20/20 19/19/19 14/14/14
f 19/19/19 20/20/20 16/16/16
f 20/20/20 17/17/17 16/16/16
f 21/21/21 20/20/20 14/14/14
f 17/17/17 20/20/20 21/21/21
f 22/22/22 17/17/17 21/21/21
f 1/1/1 17/17/17 22/22/22
f 23/23/23 1/1/1 22/22/22
