g fcbg_cityforest_stone_0014
v -1.048881 -0.0001654625 -1.0043446
v -1.2760944 0.67456317 -0.57130146
v -1.310682 -0.0001654625 -0.62515247
v -1.012835 0.64264655 -0.9561683
v -0.84059834 0.7125788 -0.77979434
v -1.2355268 1.5477786 -0.49791372
v -0.81792283 1.1765795 -0.74805987
v -0.7973082 1.5741353 -0.71945214
v -0.29722977 1.1765795 -0.6828078
v -0.3056786 1.5876329 -0.65041554
v 0.13570642 1.3907194 -0.6288419
v -0.65373063 1.123529 -0.8606639
v -0.67223716 0.7125788 -0.8985646
v -0.29883075 1.123529 -0.82603276
v -0.29190373 0.7125788 -0.8664775
v -0.74251795 0.5449705 -1.0984223
v -0.7503922 0.64264655 -1.0464854
v -0.26979113 0.64264655 -1.005371
v 0.1445713 0.7125788 -0.9165757
v 0.13687944 0.97674155 -0.88973534
v 0.13942337 1.0356452 -0.6651058
v -0.7068684 0.4130199 -1.1063639
v -0.6955228 -0.0001654625 -1.0976417
v -0.52481556 -0.0001654625 -1.166389
v -0.29301715 0.49857354 -1.0571256
v -0.52335715 0.29218912 -1.1512588
v -0.2825315 -0.0001654625 -1.0506504
v 0.1496079 -0.0001654625 -0.96856415
v 0.34727824 0.87352157 -1.0226053
v 0.49190998 -0.0001654625 -1.0318189
v 0.8302492 0.7125788 -0.8519378
v 0.86230063 -0.0001654625 -0.9419061
v 1.3152094 -0.0001654625 -0.85001576
v 0.43772614 0.93479085 -0.945655
v 0.48729324 0.9897475 -0.9481951
v 0.5311738 1.0626123 -0.7408159
v 0.7797507 1.3914566 -0.75008094
v 1.3151262 1.3426147 -0.64535105
v 1.7224901 1.2858388 -0.6300069
v 1.8037719 0.71265006 -0.72420764
v 1.8717067 -0.0001654625 -0.79732585
v -0.7973082 1.5741353 -0.71945214
v -1.3767822 1.5477786 -0.004992008
v -1.2355268 1.5477786 -0.49791372
v -1.2372782 1.5741353 0.49778104
v -0.8247192 1.6380124 0.781029
v -1.4138823 1.1765795 -0.009493828
v -0.3056786 1.5876329 -0.65041554
v -0.7093649 1.6271741 0.61573887
v -1.2355268 1.5477786 -0.49791372
v -1.2725277 1.1765795 0.5096657
v -1.4055445 0.7772484 -0.49127197
v -1.2760944 0.67456317 -0.57130146
v -0.5855303 1.6863551 0.7797172
v -0.6054394 1.6272573 0.81766534
v -0.33793592 1.6954219 0.8623543
v -0.63047266 1.4617493 0.95454574
v -0.7979343 1.1765795 0.82845616
v -0.4059739 1.4873176 0.8647239
v -0.34510875 1.0795336 0.9176161
v -0.06106448 1.6856537 0.78142524
v -1.5440495 1.1765795 0.07422495
v -1.6821544 1.0775759 0.6278651
v -1.5729544 0.5000794 0.045640945
v -1.4580798 0.7125788 -0.055672884
v -1.4281168 0.72272754 -0.37096417
v -1.3560605 0.7265835 -0.4653709
v -1.435539 0.6813636 -0.4916445
v -1.5576222 0.38797092 -0.49689126
v -1.310682 -0.0001654625 -0.62515247
v -1.5777853 -0.0001654625 -0.5820011
v -1.8227005 0.4247222 -0.056140423
v -1.8813186 -0.0001654625 -0.09381127
v -1.8910513 0.4247222 0.57520294
v -1.951592 -0.0001654625 0.60159564
v -1.3561676 -0.0001654625 0.96033144
v -1.7430038 0.4247222 0.663919
v -1.3154414 1.0821412 0.8854656
v -0.81989646 0.7125788 0.8530059
v -0.8678863 -0.0001654625 0.8995099
v -0.7084813 -0.0001654625 1.1100674
v -0.6627381 0.83404374 0.8743932
v -0.6904304 0.7125788 1.0402896
v -0.39318204 1.0079765 1.0679898
v -0.44821787 0.34882188 1.1075113
v -0.47102785 -0.0001654625 1.1305275
v -0.3009944 -0.0001654625 1.2402267
v -0.37733865 0.40407586 1.110836
v -0.3112979 0.31187248 1.200099
v -0.078318596 0.43219614 1.1434264
v 0.009462118 -0.0001654625 1.0723648
v -0.17392612 0.5351982 1.0593626
v 0.0047781467 1.0046439 0.97856045
v 0.0077342987 1.077136 0.8109839
v 0.0069932938 0.52967405 1.0229006
v 0.5432168 -0.0001654625 1.3081696
v 0.53050804 0.5071254 1.2430878
v 0.74958956 -0.0001654625 1.3509841
v 0.047402382 1.5905693 0.78874445
v 0.3216982 1.6398313 0.22002172
v 0.49877357 1.1765795 1.0083611
v 0.49412525 1.568532 0.9760916
v 0.45270956 1.5582643 0.22002578
v 0.97745275 1.5477786 -0.46252954
v 1.304696 1.5586843 0.70459366
v 0.20757234 1.5519357 -0.28041732
v 0.13576579 1.5477786 -0.5952766
v 0.13570642 1.3907194 -0.6288419
v 1.0199938 1.3909097 -0.48180866
v 0.7797507 1.3914566 -0.75008094
v 1.3151262 1.3426147 -0.64535105
v 1.4142644 1.3899586 -0.16196418
v 1.7224901 1.2858388 -0.6300069
v 1.7716609 1.2870674 -0.42705023
v 1.8037719 0.71265006 -0.72420764
v 1.5683159 1.4843414 0.24849868
v 1.3588324 1.5238509 -0.15107417
v 1.3556938 1.1758187 0.72399974
v 1.4105157 0.71265006 0.7447808
v 1.6867056 0.7131295 0.2557943
v 1.5026754 0.71258664 -0.1686256
v 1.844815 0.7131295 -0.4065187
v 2.0747902 0.6595044 -0.37896907
v 1.8717067 -0.0001654625 -0.79732585
v 2.203741 -0.0001654625 -0.38984704
v 2.033224 -0.0001654625 0.40171385
v 1.9358215 0.6177125 0.34450245
v 1.511893 -0.0001654625 0.8051388
v 1.2337215 -0.0001654625 1.1645484
v 1.2450197 1.1042657 0.89799213
v 1.2855713 0.63368654 0.951205
v 0.52050185 1.1050227 1.1796665
v 1.164566 0.54542637 1.1253004
v 0.7403997 0.46909022 1.2862947
vt 0.041835845 0.079830326
vt 0.06950821 0.071967304
vt 0.047179054 0.06544009
vt 0.062191658 0.08496102
vt 0.06902246 0.088482685
vt 0.09828869 0.077249795
vt 0.084019884 0.09160968
vt 0.0971654 0.093142815
vt 0.08408061 0.109597474
vt 0.09760561 0.10964301
vt 0.090956956 0.12465562
vt 0.07964817 0.09715022
vt 0.06651783 0.095176876
vt 0.07914724 0.10879296
vt 0.06563742 0.1077911
vt 0.057592247 0.093066916
vt 0.060840674 0.093112454
vt 0.060476366 0.10820095
vt 0.063208684 0.12198401
vt 0.07210392 0.1224394
vt 0.07957227 0.12366895
vt 0.053266067 0.0942661
vt 0.04019645 0.09249009
vt 0.039983936 0.09827351
vt 0.055770695 0.10680443
vt 0.048939887 0.09892623
vt 0.03943747 0.106743716
vt 0.03946783 0.12151344
vt 0.06817241 0.12778261
vt 0.039149057 0.13301957
vt 0.06345156 0.14561862
vt 0.039483007 0.14561862
vt 0.039224956 0.16058569
vt 0.069933236 0.1314409
vt 0.07093509 0.13353568
vt 0.07737123 0.13672338
vt 0.08666113 0.14627135
vt 0.08374666 0.1636975
vt 0.08102951 0.17634209
vt 0.061675552 0.17799667
vt 0.038040947 0.17820917
vt 0.8978426 0.07896509
vt 0.9266079 0.061174627
vt 0.9072539 0.06487844
vt 0.93746126 0.069265336
vt 0.9433358 0.08251711
vt 0.9338637 0.04983548
vt 0.89779705 0.09614837
vt 0.9380229 0.086008415
vt 0.9133561 0.04846932
vt 0.94802624 0.06396767
vt 0.93220913 0.027961709
vt 0.930676 0.024257893
vt 0.94298667 0.09006136
vt 0.94418585 0.08946936
vt 0.9452484 0.09795474
vt 0.9499237 0.08860412
vt 0.957468 0.081575975
vt 0.94914955 0.09532867
vt 0.96240133 0.09581442
vt 0.94259197 0.10598473
vt 0.93903995 0.049455993
vt 0.9545687 0.05375181
vt 0.95160866 0.031923577
vt 0.9432599 0.035156827
vt 0.93615586 0.02896356
vt 0.93345386 0.026610726
vt 0.9346227 0.025381181
vt 0.94222766 0.017427081
vt 0.9380381 0.0030975596
vt 0.9464172 0.0056477287
vt 0.95657235 0.024956152
vt 0.96437466 0.013920599
vt 0.9714939 0.03905798
vt 0.98190707 0.03219681
vt 0.99137914 0.05525459
vt 0.97211623 0.044613708
vt 0.9601548 0.0655008
vt 0.9723288 0.07800877
vt 0.9942481 0.0734549
vt 0.9964491 0.08285106
vt 0.9690348 0.08389845
vt 0.97510666 0.08520389
vt 0.96763825 0.09549565
vt 0.98750836 0.092808865
vt 0.9971474 0.0914427
vt 0.9978912 0.098167256
vt 0.9860663 0.095480464
vt 0.9892388 0.09768151
vt 0.9855957 0.10557489
vt 0.99781525 0.1095823
vt 0.9820589 0.103130974
vt 0.9668034 0.10804916
vt 0.96097445 0.10680443
vt 0.981816 0.108823314
vt 0.99760276 0.13112213
vt 0.9821196 0.1289818
vt 0.9969349 0.13978967
vt 0.9424098 0.10906619
vt 0.92505956 0.116428286
vt 0.9593502 0.12321356
vt 0.949104 0.1209518
vt 0.9254846 0.12084554
vt 0.90597886 0.13968341
vt 0.9438519 0.14366046
vt 0.9091514 0.11342273
vt 0.89913285 0.11154046
vt 0.89412355 0.11289144
vt 0.9022446 0.14358456
vt 0.8926056 0.13631354
vt 0.9003017 0.15624432
vt 0.91725725 0.15701848
vt 0.9044457 0.17242576
vt 0.91094255 0.17121139
vt 0.91704476 0.19363162
vt 0.93125284 0.1535879
vt 0.9178037 0.15067342
vt 0.9509256 0.150385
vt 0.96111107 0.16037317
vt 0.9453395 0.1726838
vt 0.93020546 0.17512771
vt 0.9254694 0.18675528
vt 0.93076706 0.19191633
vt 0.92589444 0.21627955
vt 0.94148386 0.20929696
vt 0.964572 0.19302444
vt 0.95086485 0.17927174
vt 0.97909886 0.17379192
vt 0.98920846 0.15903737
vt 0.95634466 0.14722766
vt 0.9687008 0.15449868
vt 0.9645416 0.12508065
vt 0.97531915 0.15035465
vt 0.9826661 0.13637426
vn -0.61188877 0.062443376 -0.7884751
vn -0.5584705 0.20552814 -0.8036597
vn -0.5603782 0.1387552 -0.81653124
vn -0.49360538 0.5794562 -0.64852464
vn -0.41538572 0.6157043 -0.66959906
vn -0.5870874 0.6500447 -0.48246273
vn -0.31045687 0.19980478 -0.9293517
vn -0.14257085 0.66530704 -0.7328302
vn 0.15313756 0.55656266 -0.8165702
vn 0.08636469 0.72826433 -0.67983246
vn 0.04439318 0.19598913 -0.97960067
vn -0.16164887 0.52985346 -0.8325412
vn -0.15974104 0.65767586 -0.7361693
vn 0.10162705 0.6519525 -0.7514186
vn -0.009025097 0.5508393 -0.8345625
vn -0.13493967 0.23414505 -0.96279144
vn -0.10441494 0.7072786 -0.6991813
vn 0.10544264 0.58136404 -0.8067823
vn -0.24368405 0.12730849 -0.96146274
vn -0.106322765 0.6443213 -0.75732785
vn 0.032946408 0.6595837 -0.7509087
vn -0.17691123 0.092968106 -0.97982615
vn -0.36005962 0.0013939142 -0.9329282
vn 0.038669765 0.0013939142 -0.99925107
vn 0.20274025 0.15974104 -0.96611553
vn 0.065378964 0.15020204 -0.9864912
vn 0.33056265 0.03382647 -0.9431777
vn -0.0033017397 0.031918645 -0.999485
vn -0.041457653 0.36387527 -0.9305246
vn 0.07301015 0.052904487 -0.99592704
vn 0.25043517 0.17500341 -0.95218486
vn 0.21609485 0.13112402 -0.96752757
vn 0.13978302 0.13303185 -0.981205
vn 0.113073826 0.27230096 -0.9555451
vn 0.20274025 0.55656266 -0.8056888
vn -0.030010879 0.4955132 -0.8680818
vn 0.01005286 0.7168175 -0.6971883
vn 0.16458434 0.7339877 -0.65891886
vn 0.5308812 0.6042576 -0.59417
vn 0.5404202 0.26466978 -0.7986839
vn 0.47937074 0.14257085 -0.8659545
vn -0.14257085 0.66530704 -0.7328302
vn -0.7530657 0.65767586 -0.018828133
vn -0.5870874 0.6500447 -0.48246273
vn -0.64813685 0.63669014 0.41778496
vn -0.35242844 0.7549734 0.5530003
vn -0.91332054 0.33716607 -0.22839575
vn 0.08636469 0.72826433 -0.67983246
vn -0.092968106 0.99535584 -0.024972852
vn -0.5870874 0.6500447 -0.48246273
vn -0.5432081 0.72063315 0.43082803
vn -0.8179307 -0.16267657 -0.55183846
vn -0.5584705 0.20552814 -0.8036597
vn -0.38867652 0.85799444 0.33582154
vn -0.2112515 0.6691226 0.712494
vn 0.029130816 0.7168175 0.69665205
vn -0.14066303 0.26848543 0.9529583
vn -0.49360538 0.17881894 0.8511037
vn -0.018564105 0.18835795 0.98192495
vn 0.00051385164 0.48978972 0.8718405
vn 0.252343 0.7797748 0.5729522
vn -0.6519525 0.6633992 -0.36723214
vn -0.77595925 0.54702365 0.31408975
vn -0.7244487 0.64813685 -0.23471846
vn -0.8923348 0.23223722 -0.3870458
vn -0.9362141 0.3028257 -0.17832501
vn -0.80457616 -0.025315225 -0.59330964
vn -0.6405057 0.55465484 -0.53114074
vn -0.6729382 0.3028257 -0.6748709
vn -0.5603782 0.1387552 -0.81653124
vn -0.52794576 0.20934367 -0.8230726
vn -0.7244487 0.63669014 -0.2641965
vn -0.93239856 0.15401769 -0.32697323
vn -0.69392395 0.6252433 0.35712796
vn -0.88470364 0.15783322 0.43862072
vn -0.22842169 0.08724475 0.96964526
vn -0.68438494 0.3295349 0.650403
vn -0.23223722 0.5680094 0.78957665
vn -0.30664134 0.16737223 0.93699396
vn -0.3772298 0.08533692 0.92217964
vn -0.48978972 0.09869158 0.8662367
vn -0.42110908 0.36387527 0.83082
vn -0.56419384 0.33335054 0.755356
vn -0.22651386 0.5966264 0.7698886
vn -0.26848543 0.15210986 0.9511983
vn -0.3295349 0.092968106 0.93955505
vn -0.07770574 0.054812193 0.99546844
vn -0.16164887 0.31999588 0.93352675
vn -0.19980478 0.28756332 0.93668854
vn 0.38016534 0.3562441 0.85355985
vn 0.08064133 0.031918645 0.996232
vn 0.11879724 0.33335054 0.93528855
vn -0.12158513 0.60044193 0.7903711
vn -0.07961357 0.5432081 0.83581495
vn -0.014748514 0.19789696 0.98011184
vn -0.28756332 0.1101383 0.95140785
vn -0.1463865 0.20362031 0.9680443
vn 0.082549095 0.12921631 0.98817444
vn 0.09781146 0.5794562 0.8091127
vn 0.37444192 0.9266751 0.032658316
vn -0.09487593 0.61951995 0.7792263
vn -0.01665628 0.6672149 0.74467903
vn 0.20074049 0.9796445 -0
vn 0.26760536 0.7358955 -0.62196875
vn 0.47555515 0.68629277 0.55031765
vn 0.12070501 0.98772466 -0.09914785
vn 0.13405961 0.7511579 -0.64636666
vn 0.04439318 0.19598913 -0.97960067
vn 0.2847755 0.8007606 -0.5269586
vn 0.01005286 0.7168175 -0.6971883
vn 0.16458434 0.7339877 -0.65891886
vn 0.8075117 0.5336691 -0.25124124
vn 0.5308812 0.6042576 -0.59417
vn 0.76744795 0.58517957 0.26189405
vn 0.5404202 0.26466978 -0.7986839
vn 0.7939831 0.60793984 -0
vn 0.47364736 0.8083918 -0.34951517
vn 0.72166085 0.22651386 0.6541384
vn 0.78080255 0.20171249 0.5913201
vn 0.6529802 0.74925005 0.11064015
vn 0.73883104 0.63669014 0.22080384
vn 0.5671294 0.80457616 0.17612915
vn 0.7712636 0.6157043 -0.16143318
vn 0.47937074 0.14257085 -0.8659545
vn 0.9563198 0.18645012 -0.2251417
vn 0.83612865 0.17881894 0.5185679
vn 0.7025829 0.57564056 0.41834822
vn 0.7063985 0.1559254 0.6904263
vn 0.6014697 0.14066303 0.78641474
vn 0.49081752 0.50123656 0.712643
vn 0.6606114 0.2207905 0.7175264
vn -0.039549828 0.5661017 0.82338613
vn 0.4087823 0.5336691 0.7403339
vn 0.07301015 0.4859742 0.8709182
g fcbg_cityforest_stone_0014_0
f 3/3/3 2/2/2 1/1/1
f 2/2/2 4/4/4 1/1/1
f 5/5/5 4/4/4 2/2/2
f 2/2/2 6/6/6 5/5/5
f 6/6/6 7/7/7 5/5/5
f 6/6/6 8/8/8 7/7/7
f 7/7/7 8/8/8 9/9/9
f 8/8/8 10/10/10 9/9/9
f 10/10/10 11/11/11 9/9/9
f 7/7/7 12/12/12 5/5/5
f 13/13/13 4/4/4 5/5/5
f 12/12/12 13/13/13 5/5/5
f 14/14/14 12/12/12 7/7/7
f 9/9/9 14/14/14 7/7/7
f 13/13/13 12/12/12 15/15/15
f 12/12/12 14/14/14 15/15/15
f 1/1/1 4/4/4 16/16/16
f 17/17/17 4/4/4 13/13/13
f 4/4/4 17/17/17 16/16/16
f 18/18/18 17/17/17 13/13/13
f 15/15/15 18/18/18 13/13/13
f 17/17/17 18/18/18 16/16/16
f 15/15/15 14/14/14 19/19/19
f 19/19/19 18/18/18 15/15/15
f 20/20/20 14/14/14 9/9/9
f 14/14/14 20/20/20 19/19/19
f 11/11/11 21/21/21 9/9/9
f 21/21/21 20/20/20 9/9/9
f 1/1/1 16/16/16 22/22/22
f 22/22/22 23/23/23 1/1/1
f 23/23/23 22/22/22 24/24/24
f 18/18/18 25/25/25 16/16/16
f 16/16/16 25/25/25 22/22/22
f 24/24/24 22/22/22 26/26/26
f 25/25/25 26/26/26 22/22/22
f 25/25/25 24/24/24 26/26/26
f 27/27/27 24/24/24 25/25/25
f 27/27/27 25/25/25 18/18/18
f 27/27/27 18/18/18 19/19/19
f 19/19/19 28/28/28 27/27/27
f 19/19/19 29/29/29 28/28/28
f 20/20/20 29/29/29 19/19/19
f 30/30/30 28/28/28 29/29/29
f 31/31/31 30/30/30 29/29/29
f 30/30/30 31/31/31 32/32/32
f 31/31/31 33/33/33 32/32/32
f 20/20/20 34/34/34 29/29/29
f 34/34/34 31/31/31 29/29/29
f 35/35/35 34/34/34 20/20/20
f 35/35/35 31/31/31 34/34/34
f 35/35/35 20/20/20 21/21/21
f 36/36/36 35/35/35 21/21/21
f 31/31/31 35/35/35 36/36/36
f 36/36/36 21/21/21 11/11/11
f 37/37/37 36/36/36 11/11/11
f 36/36/36 37/37/37 31/31/31
f 37/37/37 38/38/38 31/31/31
f 38/38/38 33/33/33 31/31/31
f 33/33/33 38/38/38 39/39/39
f 40/40/40 33/33/33 39/39/39
f 40/40/40 41/41/41 33/33/33
f 44/44/44 43/43/43 42/42/42
f 43/43/43 45/45/45 42/42/42
f 45/45/45 46/46/46 42/42/42
f 45/45/45 43/43/43 47/47/47
f 42/42/42 46/46/46 48/48/48
f 46/46/46 49/49/49 48/48/48
f 47/47/47 43/43/43 50/50/50
f 46/46/46 45/45/45 51/51/51
f 51/51/51 45/45/45 47/47/47
f 50/50/50 52/52/52 47/47/47
f 50/50/50 53/53/53 52/52/52
f 48/48/48 49/49/49 54/54/54
f 55/55/55 54/54/54 49/49/49
f 46/46/46 55/55/55 49/49/49
f 56/56/56 48/48/48 54/54/54
f 56/56/56 54/54/54 55/55/55
f 55/55/55 46/46/46 57/57/57
f 58/58/58 46/46/46 51/51/51
f 46/46/46 58/58/58 57/57/57
f 55/55/55 59/59/59 56/56/56
f 59/59/59 55/55/55 57/57/57
f 56/56/56 59/59/59 60/60/60
f 59/59/59 57/57/57 60/60/60
f 61/61/61 48/48/48 56/56/56
f 56/56/56 60/60/60 61/61/61
f 62/62/62 51/51/51 47/47/47
f 58/58/58 51/51/51 63/63/63
f 63/63/63 51/51/51 62/62/62
f 63/63/63 62/62/62 64/64/64
f 64/64/64 62/62/62 65/65/65
f 62/62/62 47/47/47 65/65/65
f 65/65/65 47/47/47 66/66/66
f 65/65/65 66/66/66 64/64/64
f 52/52/52 66/66/66 47/47/47
f 66/66/66 52/52/52 67/67/67
f 67/67/67 52/52/52 53/53/53
f 67/67/67 68/68/68 66/66/66
f 53/53/53 68/68/68 67/67/67
f 64/64/64 66/66/66 68/68/68
f 69/69/69 68/68/68 53/53/53
f 69/69/69 64/64/64 68/68/68
f 69/69/69 53/53/53 70/70/70
f 71/71/71 69/69/69 70/70/70
f 72/72/72 69/69/69 71/71/71
f 69/69/69 72/72/72 64/64/64
f 73/73/73 72/72/72 71/71/71
f 74/74/74 72/72/72 73/73/73
f 72/72/72 74/74/74 64/64/64
f 75/75/75 74/74/74 73/73/73
f 75/75/75 76/76/76 74/74/74
f 74/74/74 77/77/77 64/64/64
f 76/76/76 77/77/77 74/74/74
f 77/77/77 63/63/63 64/64/64
f 63/63/63 77/77/77 76/76/76
f 78/78/78 63/63/63 76/76/76
f 78/78/78 58/58/58 63/63/63
f 58/58/58 78/78/78 76/76/76
f 79/79/79 58/58/58 76/76/76
f 80/80/80 79/79/79 76/76/76
f 58/58/58 79/79/79 57/57/57
f 80/80/80 81/81/81 79/79/79
f 79/79/79 82/82/82 57/57/57
f 60/60/60 57/57/57 82/82/82
f 81/81/81 83/83/83 79/79/79
f 79/79/79 83/83/83 82/82/82
f 84/84/84 60/60/60 82/82/82
f 83/83/83 84/84/84 82/82/82
f 83/83/83 81/81/81 85/85/85
f 81/81/81 86/86/86 85/85/85
f 86/86/86 87/87/87 85/85/85
f 83/83/83 85/85/85 88/88/88
f 84/84/84 83/83/83 88/88/88
f 87/87/87 89/89/89 85/85/85
f 88/88/88 85/85/85 89/89/89
f 89/89/89 87/87/87 90/90/90
f 87/87/87 91/91/91 90/90/90
f 92/92/92 88/88/88 89/89/89
f 90/90/90 92/92/92 89/89/89
f 88/88/88 92/92/92 84/84/84
f 92/92/92 93/93/93 84/84/84
f 60/60/60 84/84/84 94/94/94
f 84/84/84 93/93/93 94/94/94
f 60/60/60 94/94/94 61/61/61
f 91/91/91 95/95/95 90/90/90
f 95/95/95 92/92/92 90/90/90
f 93/93/93 92/92/92 95/95/95
f 95/95/95 91/91/91 96/96/96
f 93/93/93 95/95/95 96/96/96
f 97/97/97 93/93/93 96/96/96
f 96/96/96 98/98/98 97/97/97
f 99/99/99 61/61/61 94/94/94
f 61/61/61 99/99/99 100/100/100
f 100/100/100 48/48/48 61/61/61
f 94/94/94 93/93/93 101/101/101
f 99/99/99 94/94/94 102/102/102
f 94/94/94 101/101/101 102/102/102
f 99/99/99 103/103/103 100/100/100
f 102/102/102 103/103/103 99/99/99
f 104/104/104 103/103/103 102/102/102
f 105/105/105 104/104/104 102/102/102
f 105/105/105 102/102/102 101/101/101
f 106/106/106 100/100/100 103/103/103
f 106/106/106 48/48/48 100/100/100
f 106/106/106 103/103/103 104/104/104
f 107/107/107 48/48/48 106/106/106
f 107/107/107 106/106/106 104/104/104
f 107/107/107 108/108/108 48/48/48
f 109/109/109 108/108/108 107/107/107
f 104/104/104 109/109/109 107/107/107
f 110/110/110 108/108/108 109/109/109
f 111/111/111 110/110/110 109/109/109
f 112/112/112 111/111/111 109/109/109
f 112/112/112 109/109/109 104/104/104
f 113/113/113 111/111/111 112/112/112
f 114/114/114 113/113/113 112/112/112
f 115/115/115 113/113/113 114/114/114
f 116/116/116 104/104/104 105/105/105
f 117/117/117 112/112/112 104/104/104
f 117/117/117 104/104/104 116/116/116
f 117/117/117 116/116/116 112/112/112
f 105/105/105 118/118/118 116/116/116
f 116/116/116 118/118/118 119/119/119
f 118/118/118 105/105/105 101/101/101
f 116/116/116 120/120/120 112/112/112
f 120/120/120 116/116/116 119/119/119
f 112/112/112 121/121/121 114/114/114
f 120/120/120 121/121/121 112/112/112
f 121/121/121 122/122/122 114/114/114
f 122/122/122 115/115/115 114/114/114
f 121/121/121 120/120/120 122/122/122
f 115/115/115 122/122/122 123/123/123
f 122/122/122 120/120/120 123/123/123
f 115/115/115 123/123/123 124/124/124
f 124/124/124 123/123/123 125/125/125
f 125/125/125 123/123/123 126/126/126
f 120/120/120 127/127/127 123/123/123
f 123/123/123 127/127/127 126/126/126
f 119/119/119 127/127/127 120/120/120
f 126/126/126 127/127/127 128/128/128
f 127/127/127 119/119/119 128/128/128
f 129/129/129 128/128/128 119/119/119
f 118/118/118 130/130/130 119/119/119
f 101/101/101 130/130/130 118/118/118
f 131/131/131 129/129/129 119/119/119
f 130/130/130 131/131/131 119/119/119
f 132/132/132 130/130/130 101/101/101
f 130/130/130 132/132/132 131/131/131
f 93/93/93 132/132/132 101/101/101
f 132/132/132 93/93/93 97/97/97
f 132/132/132 97/97/97 131/131/131
f 131/131/131 133/133/133 129/129/129
f 129/129/129 133/133/133 98/98/98
f 98/98/98 134/134/134 97/97/97
f 97/97/97 134/134/134 131/131/131
f 133/133/133 134/134/134 98/98/98
f 134/134/134 133/133/133 131/131/131
