g fcbg_arkcity_002_weaponbox_01
v 0.39675534 0.54208446 0.21726406
v 0.47593188 0.46926916 0.21726406
v 0.43159422 0.4690987 0.27472532
v 0.40739277 0.4690014 -0.28173667
v 0.47593188 0.46926916 -0.21658418
v 0.39675534 0.54208446 -0.21658418
v -0.47335958 0.46926916 -0.21658418
v -0.40481937 0.4690014 -0.28173667
v -0.39418298 0.54208446 -0.21658418
v -0.39418298 0.54208446 0.21726406
v -0.4290219 0.4690987 0.27472532
v -0.47335958 0.46926916 0.21726406
v 0.45125833 0.4318949 0.20636219
v 0.45125833 0.4318949 -0.20775422
v 0.45125833 -0.0007971227 -0.20775315
v 0.45125833 -0.0007971227 0.20636326
v 0.38583592 0.4318676 -0.2699441
v 0.38583592 -0.00012940168 -0.2699441
v 0.45125833 -0.0007971227 -0.20775315
v 0.45125833 0.4318949 -0.20775422
v 0.40893692 -0.0007971227 0.2612105
v 0.40893692 0.43187743 0.26120943
v 0.45125833 0.4318949 0.20636219
v 0.45125833 -0.0007971227 0.20636326
v 0.38583592 0.4318676 -0.2699441
v -0.0018005073 -0.00012940168 -0.2699441
v 0.38583592 -0.00012940168 -0.2699441
v -0.0018005073 0.4318676 -0.2699441
v -0.3894369 0.4318676 -0.2699441
v -0.3894369 -0.00012940168 -0.2699441
v -0.45485932 0.4318949 0.20636219
v -0.45485932 -0.0007971227 0.20636219
v -0.45485932 -0.0007971227 -0.20775422
v -0.45485932 0.4318949 -0.20775533
v -0.3894369 0.4318676 -0.2699441
v -0.45485932 0.4318949 -0.20775533
v -0.45485932 -0.0007971227 -0.20775422
v -0.3894369 -0.00012940168 -0.2699441
v -0.41253793 -0.0007971227 0.2612105
v -0.45485932 -0.0007971227 0.20636219
v -0.45485932 0.4318949 0.20636219
v -0.41253793 0.43187743 0.26120943
v 0.47593188 0.38223636 0.21726406
v 0.47593188 0.46926916 0.21726406
v 0.47593188 0.46926916 -0.21658418
v 0.47593188 0.38223636 -0.21658418
v 0.39675534 0.54208446 0.21726406
v 0.39675534 0.54208446 -0.21658418
v 0.47593188 0.46926916 -0.21658418
v 0.47593188 0.46926916 0.21726406
v 0.40739277 0.4690014 -0.28173667
v 0.40739277 0.38221014 -0.28173667
v 0.47593188 0.38223636 -0.21658418
v 0.47593188 0.46926916 -0.21658418
v 0.39675534 0.54208446 -0.21658418
v 0.39675534 0.54208446 0.21726406
v 0.0012867153 0.54208446 0.21739846
v 0.0012867153 0.54208446 -0.21658418
v -0.39418298 0.54208446 -0.21658418
v -0.39418298 0.54208446 0.21726406
v 0.40739277 0.4690014 -0.28173667
v 0.0012867153 0.38221014 -0.28173667
v 0.40739277 0.38221014 -0.28173667
v 0.0012867153 0.4690014 -0.28173667
v -0.40481937 0.4690014 -0.28173667
v -0.40481937 0.38221014 -0.28173667
v -0.47335958 0.46926916 -0.21658418
v -0.47335958 0.46926916 0.21726406
v -0.47335958 0.38223636 0.21726406
v -0.47335958 0.38223636 -0.21658418
v -0.39418298 0.54208446 0.21726406
v -0.47335958 0.46926916 0.21726406
v -0.47335958 0.46926916 -0.21658418
v -0.39418298 0.54208446 -0.21658418
v -0.40481937 0.4690014 -0.28173667
v -0.47335958 0.46926916 -0.21658418
v -0.47335958 0.38223636 -0.21658418
v -0.40481937 0.38221014 -0.28173667
v -0.39418298 0.54208446 0.21726406
v 0.0012867153 0.46959698 0.27472532
v -0.4290219 0.4690987 0.27472532
v 0.0012867153 0.54208446 0.21739846
v 0.43159422 0.4690987 0.27472532
v 0.39675534 0.54208446 0.21726406
v 0.0012867153 0.4690014 -0.28173667
v 0.40739277 0.4690014 -0.28173667
v 0.39675534 0.54208446 -0.21658418
v 0.0012867153 0.54208446 -0.21658418
v -0.39418298 0.54208446 -0.21658418
v -0.40481937 0.4690014 -0.28173667
v 0.47593188 0.38223636 0.21726406
v 0.43159422 0.38221997 0.27472532
v 0.43159422 0.4690987 0.27472532
v 0.47593188 0.46926916 0.21726406
v -0.4290219 0.4690987 0.27472532
v -0.4290219 0.38221997 0.27472532
v -0.47335958 0.38223636 0.21726406
v -0.47335958 0.46926916 0.21726406
v 0.32400995 0.5610503 0.025921106
v 0.32400995 0.5610503 -0.0118454695
v 0.332358 0.5389612 -0.016605765
v 0.332358 0.5389612 0.030681372
v 0.2476791 0.5389612 -0.016605765
v 0.332358 0.5389612 -0.016605765
v 0.32400995 0.5610503 -0.0118454695
v 0.2560282 0.5610503 -0.0118454695
v 0.2560282 0.5610503 -0.0118454695
v 0.32400995 0.5610503 -0.0118454695
v 0.32400995 0.5610503 0.025921106
v 0.2560282 0.5610503 0.025921106
v 0.2560282 0.5610503 0.025921106
v 0.2476791 0.5389612 0.030681372
v 0.2476791 0.5389612 -0.016605765
v 0.2560282 0.5610503 -0.0118454695
v 0.13801742 0.6699655 0.055573523
v 0.13801742 0.6699655 -0.046096444
v 0.14771831 0.6160865 -0.062619805
v 0.14771831 0.6160865 0.072096825
v -0.1625545 0.6160865 -0.062619805
v 0.14771831 0.6160865 -0.062619805
v 0.13801742 0.6699655 -0.046096444
v -0.15285361 0.6699655 -0.046096444
v -0.15285361 0.6699655 -0.046096444
v 0.13801742 0.6699655 -0.046096444
v 0.13801742 0.6699655 0.055573523
v -0.15285361 0.6699655 0.055573523
v -0.15285361 0.6699655 0.055573523
v -0.1625545 0.6160865 0.072096825
v -0.1625545 0.6160865 -0.062619805
v -0.15285361 0.6699655 -0.046096444
v 0.1152235 0.63189197 -0.042362303
v 0.2728346 0.5215319 -0.042362303
v 0.29063982 0.5469606 -0.042466134
v 0.13302979 0.6573206 -0.042466134
v 0.29063982 0.5469606 -0.042466134
v 0.13306916 0.6572933 -0.022231579
v 0.13302979 0.6573206 -0.042466134
v 0.27830303 0.55559933 -0.022231579
v 0.29063982 0.54696167 0.05530578
v 0.27830303 0.55559933 0.03470838
v 0.13302979 0.6573206 0.05530578
v 0.13306916 0.6572933 0.03470838
v 0.27830303 0.55559933 0.03470838
v 0.2624441 0.53294957 0.03470838
v 0.2624441 0.53294957 -0.022231579
v 0.27830303 0.55559933 -0.022231579
v 0.13306916 0.6572933 0.03470838
v 0.11721024 0.63464355 0.03470838
v 0.2624441 0.53294957 0.03470838
v 0.27830303 0.55559933 0.03470838
v -0.3380987 0.5610503 0.025921106
v -0.34644783 0.5389612 0.030681372
v -0.34644783 0.5389612 -0.016606867
v -0.3380987 0.5610503 -0.0118454695
v -0.2617678 0.5389612 -0.016606867
v -0.27011693 0.5610503 -0.0118454695
v -0.3380987 0.5610503 -0.0118454695
v -0.34644783 0.5389612 -0.016606867
v -0.27011693 0.5610503 -0.0118454695
v -0.27011693 0.5610503 0.025921106
v -0.3380987 0.5610503 0.025921106
v -0.3380987 0.5610503 -0.0118454695
v -0.27011693 0.5610503 0.025921106
v -0.27011693 0.5610503 -0.0118454695
v -0.2617678 0.5389612 -0.016606867
v -0.26176894 0.5389612 0.030681372
v -0.12931329 0.63189197 -0.042362303
v -0.14711851 0.6573206 -0.042466134
v -0.3047285 0.5469606 -0.042466134
v -0.2869233 0.5215319 -0.042362303
v -0.3047285 0.5469606 -0.042466134
v -0.14711851 0.6573206 -0.042466134
v -0.14715785 0.6572933 -0.022231579
v -0.29239285 0.55559933 -0.022231579
v -0.30472964 0.54696167 0.055304646
v -0.29239285 0.55559933 0.034707308
v -0.14711851 0.6573206 0.05530578
v -0.14715785 0.6572933 0.03470838
v -0.29239285 0.55559933 0.034707308
v -0.29239285 0.55559933 -0.022231579
v -0.27653283 0.53294957 -0.022231579
v -0.27653283 0.53294957 0.034707308
v -0.14715785 0.6572933 0.03470838
v -0.29239285 0.55559933 0.034707308
v -0.27653283 0.53294957 0.034707308
v -0.13129896 0.63464355 0.03470838
vt 0.35975784 0.9164075
vt 0.35879156 0.9134029
vt 0.36163005 0.9134029
vt 0.33144826 0.91225547
vt 0.33635524 0.9134029
vt 0.33366773 0.9164075
vt 0.29654065 0.91310096
vt 0.30046624 0.91225547
vt 0.298745 0.9164075
vt 0.35975784 0.9164075
vt 0.36163005 0.9134029
vt 0.35879156 0.9134029
vt 0.35956156 0.90528
vt 0.33624956 0.90528
vt 0.33624956 0.88002026
vt 0.35956156 0.88002026
vt 0.33267123 0.9044496
vt 0.33267123 0.88095635
vt 0.33624956 0.88002026
vt 0.33624956 0.90528
vt 0.36233968 0.88002026
vt 0.36233968 0.90528
vt 0.35956156 0.90528
vt 0.35956156 0.88002026
vt 0.33267123 0.9044496
vt 0.31690845 0.88095635
vt 0.33267123 0.88095635
vt 0.31690845 0.9044496
vt 0.30005857 0.9044496
vt 0.30005857 0.88095635
vt 0.35956156 0.90528
vt 0.35956156 0.88002026
vt 0.33624956 0.88002026
vt 0.33624956 0.90528
vt 0.30005857 0.9044496
vt 0.29631415 0.9053253
vt 0.29631415 0.88002026
vt 0.30005857 0.88095635
vt 0.36233968 0.88002026
vt 0.35956156 0.88002026
vt 0.35956156 0.90528
vt 0.36233968 0.90528
vt 0.35879156 0.9090546
vt 0.35879156 0.9134029
vt 0.33635524 0.9134029
vt 0.33635524 0.9090546
vt 0.35975784 0.9164075
vt 0.33366773 0.9164075
vt 0.33635524 0.9134029
vt 0.35879156 0.9134029
vt 0.33144826 0.91225547
vt 0.33144826 0.90906966
vt 0.33635524 0.9090546
vt 0.33635524 0.9134029
vt 0.33366773 0.9164075
vt 0.33366773 0.94376594
vt 0.31622902 0.94376594
vt 0.31622902 0.9164075
vt 0.298745 0.9164075
vt 0.298745 0.94376594
vt 0.33144826 0.91225547
vt 0.31622902 0.90906966
vt 0.33144826 0.90906966
vt 0.31622902 0.91225547
vt 0.30046624 0.91225547
vt 0.30046624 0.90906966
vt 0.33635524 0.9134029
vt 0.35879156 0.9134029
vt 0.35879156 0.9090546
vt 0.33635524 0.9090546
vt 0.35975784 0.9164075
vt 0.35879156 0.9134029
vt 0.33635524 0.9134029
vt 0.33366773 0.9164075
vt 0.30046624 0.91225547
vt 0.29654065 0.91310096
vt 0.29654065 0.9096887
vt 0.30046624 0.90906966
vt 0.298745 0.94376594
vt 0.31622902 0.9472688
vt 0.29718986 0.9472688
vt 0.31622902 0.94376594
vt 0.33517757 0.9472688
vt 0.33366773 0.94376594
vt 0.31622902 0.91225547
vt 0.33144826 0.91225547
vt 0.33366773 0.9164075
vt 0.31622902 0.9164075
vt 0.298745 0.9164075
vt 0.30046624 0.91225547
vt 0.35879156 0.9090546
vt 0.36163005 0.9090546
vt 0.36163005 0.9134029
vt 0.35879156 0.9134029
vt 0.36163005 0.9134029
vt 0.36163005 0.9090546
vt 0.35879156 0.9090546
vt 0.35879156 0.9134029
vt 0.28808552 0.93537116
vt 0.28808552 0.9429657
vt 0.29264525 0.943932
vt 0.29264525 0.9344049
vt 0.27674657 0.94746506
vt 0.28932357 0.94746506
vt 0.28808552 0.9429657
vt 0.27798465 0.9429657
vt 0.27798465 0.9429657
vt 0.28808552 0.9429657
vt 0.28808552 0.93537116
vt 0.27798465 0.93537116
vt 0.27798465 0.93537116
vt 0.27342492 0.9344049
vt 0.27342492 0.943932
vt 0.27798465 0.9429657
vt 0.3095404 0.9521305
vt 0.3095404 0.9615368
vt 0.31400955 0.9627296
vt 0.31400955 0.9509377
vt 0.27902645 0.96668535
vt 0.3095404 0.96668535
vt 0.3095404 0.9615368
vt 0.27902645 0.9615368
vt 0.27902645 0.9615368
vt 0.3095404 0.9615368
vt 0.3095404 0.9521305
vt 0.27902645 0.9521305
vt 0.27902645 0.9521305
vt 0.27454218 0.9509377
vt 0.27454218 0.9627296
vt 0.27902645 0.9615368
vt 0.36279264 0.9233679
vt 0.36279264 0.9495335
vt 0.35903314 0.9495335
vt 0.35903314 0.9233679
vt 0.35903314 0.9495335
vt 0.35556048 0.9233679
vt 0.35903314 0.9233679
vt 0.35556048 0.94705737
vt 0.34302875 0.9495335
vt 0.34624475 0.94705737
vt 0.34302875 0.9233679
vt 0.34624475 0.9233679
vt 0.28402403 0.92786723
vt 0.28402403 0.93185323
vt 0.2930076 0.93185323
vt 0.2930076 0.92786723
vt 0.34624475 0.9233679
vt 0.35057798 0.9233679
vt 0.35057798 0.94705737
vt 0.34624475 0.94705737
vt 0.28808552 0.93537116
vt 0.29264525 0.9344049
vt 0.29264525 0.943932
vt 0.28808552 0.9429657
vt 0.27674657 0.94746506
vt 0.27798465 0.9429657
vt 0.28808552 0.9429657
vt 0.28932357 0.94746506
vt 0.27798465 0.9429657
vt 0.27798465 0.93537116
vt 0.28808552 0.93537116
vt 0.28808552 0.9429657
vt 0.27798465 0.93537116
vt 0.27798465 0.9429657
vt 0.27342492 0.943932
vt 0.27342492 0.9344049
vt 0.36279264 0.9233679
vt 0.35903314 0.9233679
vt 0.35903314 0.9495335
vt 0.36279264 0.9495335
vt 0.35903314 0.9495335
vt 0.35903314 0.9233679
vt 0.35556048 0.9233679
vt 0.35556048 0.94705737
vt 0.34302875 0.9495335
vt 0.34624475 0.94705737
vt 0.34302875 0.9233679
vt 0.34624475 0.9233679
vt 0.28402403 0.92786723
vt 0.2930076 0.92786723
vt 0.2930076 0.93185323
vt 0.28402403 0.93185323
vt 0.34624475 0.9233679
vt 0.34624475 0.94705737
vt 0.35057798 0.94705737
vt 0.35057798 0.9233679
vn 0.5992177 0.65200365 0.46457443
vn 0.5992177 0.65200365 0.46457443
vn 0.5992177 0.65200365 0.46457443
vn 0.55034184 0.59921765 -0.58143103
vn 0.55034184 0.59921765 -0.58143103
vn 0.55034184 0.59921765 -0.58143103
vn -0.55034184 0.59921765 -0.58143103
vn -0.55034184 0.59921765 -0.58143103
vn -0.55034184 0.59921765 -0.58143103
vn -0.59921765 0.65200365 0.46457443
vn -0.59921765 0.65200365 0.46457443
vn -0.59921765 0.65200365 0.46457443
vn 0.9999995 0.0009775162 -0
vn 0.9999995 0.0009775162 -0
vn 0.9999995 0.0009775162 -0
vn 0.9999995 0.0009775162 -0
vn 0.68914926 0.0009775162 -0.72461873
vn 0.68914926 0.0009775162 -0.72461873
vn 0.68914926 0.0009775162 -0.72461873
vn 0.68914926 0.0009775162 -0.72461873
vn 0.79081094 0.0009775162 0.6120597
vn 0.79081094 0.0009775162 0.6120597
vn 0.79081094 0.0009775162 0.6120597
vn 0.79081094 0.0009775162 0.6120597
vn -0.0009775162 0.0009775162 -0.99999905
vn -0.0009775162 0.0009775162 -0.99999905
vn -0.0009775162 0.0009775162 -0.99999905
vn -0.0009775162 0.0009775162 -0.99999905
vn -0.0009775162 0.0009775162 -0.99999905
vn -0.0009775162 0.0009775162 -0.99999905
vn -0.9999995 0.0009775162 -0
vn -0.9999995 0.0009775162 -0
vn -0.9999995 0.0009775162 -0
vn -0.9999995 0.0009775162 -0
vn -0.68914926 0.0009775162 -0.72461873
vn -0.68914926 0.0009775162 -0.72461873
vn -0.68914926 0.0009775162 -0.72461873
vn -0.68914926 0.0009775162 -0.72461873
vn -0.79081094 0.0009775162 0.6120597
vn -0.79081094 0.0009775162 0.6120597
vn -0.79081094 0.0009775162 0.6120597
vn -0.79081094 0.0009775162 0.6120597
vn 0.9999995 0.0009775162 -0
vn 0.9999995 0.0009775162 -0
vn 0.9999995 0.0009775162 -0
vn 0.9999995 0.0009775162 -0
vn 0.67718357 0.73581415 -0
vn 0.67718357 0.73581415 -0
vn 0.67718357 0.73581415 -0
vn 0.67718357 0.73581415 -0
vn 0.68914926 0.0009775162 -0.72461873
vn 0.68914926 0.0009775162 -0.72461873
vn 0.68914926 0.0009775162 -0.72461873
vn 0.68914926 0.0009775162 -0.72461873
vn -0.0009775162 0.9999995 -0
vn -0.0009775162 0.9999995 -0
vn -0.0009775162 0.9999995 -0
vn -0.0009775162 0.9999995 -0
vn -0.0009775162 0.9999995 -0
vn -0.0009775162 0.9999995 -0
vn -0.0009775162 0.0009775162 -0.99999905
vn -0.0009775162 0.0009775162 -0.99999905
vn -0.0009775162 0.0009775162 -0.99999905
vn -0.0009775162 0.0009775162 -0.99999905
vn -0.0009775162 0.0009775162 -0.99999905
vn -0.0009775162 0.0009775162 -0.99999905
vn -0.9999995 0.0009775162 -0
vn -0.9999995 0.0009775162 -0
vn -0.9999995 0.0009775162 -0
vn -0.9999995 0.0009775162 -0
vn -0.67718357 0.73581415 -0
vn -0.67718357 0.73581415 -0
vn -0.67718357 0.73581415 -0
vn -0.67718357 0.73581415 -0
vn -0.68914926 0.0009775162 -0.72461873
vn -0.68914926 0.0009775162 -0.72461873
vn -0.68914926 0.0009775162 -0.72461873
vn -0.68914926 0.0009775162 -0.72461873
vn -0.0009775162 0.618768 0.7855732
vn -0.0009775162 0.618768 0.7855732
vn -0.0009775162 0.618768 0.7855732
vn -0.0009775162 0.618768 0.7855732
vn 0.0009775162 0.618768 0.7855732
vn 0.0009775162 0.618768 0.7855732
vn -0.0009775162 0.6656889 -0.74622875
vn -0.0009775162 0.6656889 -0.74622875
vn -0.0009775162 0.6656889 -0.74622875
vn -0.0009775162 0.6656889 -0.74622875
vn -0.0009775162 0.6656889 -0.74622875
vn -0.0009775162 0.6656889 -0.74622875
vn 0.79081094 0.0009775162 0.6120597
vn 0.79081094 0.0009775162 0.6120597
vn 0.79081094 0.0009775162 0.6120597
vn 0.79081094 0.0009775162 0.6120597
vn -0.79081094 0.0009775162 0.6120597
vn -0.79081094 0.0009775162 0.6120597
vn -0.79081094 0.0009775162 0.6120597
vn -0.79081094 0.0009775162 0.6120597
vn 0.93548346 0.35288346 -0.018546855
vn 0.93548346 0.35288346 -0.018546855
vn 0.93548346 0.35288346 -0.018546855
vn 0.93548346 0.35288346 -0.018546855
vn -0.0009775162 0.2101661 -0.9776652
vn -0.0009775162 0.2101661 -0.9776652
vn -0.0009775162 0.2101661 -0.9776652
vn -0.0009775162 0.2101661 -0.9776652
vn -0.0009775162 0.9999995 -0
vn -0.0009775162 0.9999995 -0
vn -0.0009775162 0.9999995 -0
vn -0.0009775162 0.9999995 -0
vn -0.93548346 0.35288346 -0.018546855
vn -0.93548346 0.35288346 -0.018546855
vn -0.93548346 0.35288346 -0.018546855
vn -0.93548346 0.35288346 -0.018546855
vn 0.9842276 0.17690688 -0
vn 0.9842276 0.17690688 -0
vn 0.9842276 0.17690688 -0
vn 0.9842276 0.17690688 -0
vn -0.0009775162 0.29227746 -0.9563331
vn -0.0009775162 0.29227746 -0.9563331
vn -0.0009775162 0.29227746 -0.9563331
vn -0.0009775162 0.29227746 -0.9563331
vn -0.0009775162 0.9999995 -0
vn -0.0009775162 0.9999995 -0
vn -0.0009775162 0.9999995 -0
vn -0.0009775162 0.9999995 -0
vn -0.9842276 0.17690688 -0
vn -0.9842276 0.17690688 -0
vn -0.9842276 0.17690688 -0
vn -0.9842276 0.17690688 -0
vn -0.0009775162 -0.0029325485 -0.99999523
vn -0.0009775162 -0.0029325485 -0.99999523
vn -0.0009775162 -0.0029325485 -0.99999523
vn -0.0009775162 -0.0029325485 -0.99999523
vn 0.57380223 0.8181814 -0.036471862
vn 0.57380223 0.8181814 -0.036471862
vn 0.57380223 0.8181814 -0.036471862
vn 0.57380223 0.8181814 -0.036471862
vn 0.57380223 0.8181814 -0.036471862
vn 0.57380223 0.8181814 -0.036471862
vn 0.57380223 0.8181814 -0.036471862
vn 0.57380223 0.8181814 -0.036471862
vn -0.8181814 0.57380223 -0.036472272
vn -0.8181814 0.57380223 -0.036472272
vn -0.8181814 0.57380223 -0.036472272
vn -0.8181814 0.57380223 -0.036472272
vn -0.0009775162 0.0009775162 -0.99999905
vn -0.0009775162 0.0009775162 -0.99999905
vn -0.0009775162 0.0009775162 -0.99999905
vn -0.0009775162 0.0009775162 -0.99999905
vn -0.93548346 0.35288346 -0.018546855
vn -0.93548346 0.35288346 -0.018546855
vn -0.93548346 0.35288346 -0.018546855
vn -0.93548346 0.35288346 -0.018546855
vn -0.0009775162 0.2101661 -0.9776652
vn -0.0009775162 0.2101661 -0.9776652
vn -0.0009775162 0.2101661 -0.9776652
vn -0.0009775162 0.2101661 -0.9776652
vn -0.0009775162 0.9999995 -0
vn -0.0009775162 0.9999995 -0
vn -0.0009775162 0.9999995 -0
vn -0.0009775162 0.9999995 -0
vn 0.93548346 0.35288346 -0.018546855
vn 0.93548346 0.35288346 -0.018546855
vn 0.93548346 0.35288346 -0.018546855
vn 0.93548346 0.35288346 -0.018546855
vn 0.0009775162 -0.0029325485 -0.99999523
vn 0.0009775162 -0.0029325485 -0.99999523
vn 0.0009775162 -0.0029325485 -0.99999523
vn 0.0009775162 -0.0029325485 -0.99999523
vn -0.57380223 0.8181814 -0.036471862
vn -0.57380223 0.8181814 -0.036471862
vn -0.57380223 0.8181814 -0.036471862
vn -0.57380223 0.8181814 -0.036471862
vn -0.57380223 0.8181814 -0.036471862
vn -0.57380223 0.8181814 -0.036471862
vn -0.57380223 0.8181814 -0.036471862
vn -0.57380223 0.8181814 -0.036471862
vn 0.8181814 0.57380223 -0.036472272
vn 0.8181814 0.57380223 -0.036472272
vn 0.8181814 0.57380223 -0.036472272
vn 0.8181814 0.57380223 -0.036472272
vn -0.0009775162 0.0009775162 -0.99999905
vn -0.0009775162 0.0009775162 -0.99999905
vn -0.0009775162 0.0009775162 -0.99999905
vn -0.0009775162 0.0009775162 -0.99999905
g fcbg_arkcity_002_weaponbox_01_0
f 3/3/3 2/2/2 1/1/1
f 6/6/6 5/5/5 4/4/4
f 9/9/9 8/8/8 7/7/7
f 12/12/12 11/11/11 10/10/10
f 15/15/15 14/14/14 13/13/13
f 16/16/16 15/15/15 13/13/13
f 19/19/19 18/18/18 17/17/17
f 20/20/20 19/19/19 17/17/17
f 23/23/23 22/22/22 21/21/21
f 24/24/24 23/23/23 21/21/21
f 27/27/27 26/26/26 25/25/25
f 26/26/26 28/28/28 25/25/25
f 29/29/29 28/28/28 26/26/26
f 30/30/30 29/29/29 26/26/26
f 33/33/33 32/32/32 31/31/31
f 34/34/34 33/33/33 31/31/31
f 37/37/37 36/36/36 35/35/35
f 38/38/38 37/37/37 35/35/35
f 41/41/41 40/40/40 39/39/39
f 42/42/42 41/41/41 39/39/39
f 45/45/45 44/44/44 43/43/43
f 46/46/46 45/45/45 43/43/43
f 49/49/49 48/48/48 47/47/47
f 50/50/50 49/49/49 47/47/47
f 53/53/53 52/52/52 51/51/51
f 54/54/54 53/53/53 51/51/51
f 57/57/57 56/56/56 55/55/55
f 58/58/58 57/57/57 55/55/55
f 58/58/58 59/59/59 57/57/57
f 59/59/59 60/60/60 57/57/57
f 63/63/63 62/62/62 61/61/61
f 62/62/62 64/64/64 61/61/61
f 65/65/65 64/64/64 62/62/62
f 66/66/66 65/65/65 62/62/62
f 69/69/69 68/68/68 67/67/67
f 70/70/70 69/69/69 67/67/67
f 73/73/73 72/72/72 71/71/71
f 74/74/74 73/73/73 71/71/71
f 77/77/77 76/76/76 75/75/75
f 78/78/78 77/77/77 75/75/75
f 81/81/81 80/80/80 79/79/79
f 80/80/80 82/82/82 79/79/79
f 80/80/80 83/83/83 82/82/82
f 83/83/83 84/84/84 82/82/82
f 87/87/87 86/86/86 85/85/85
f 88/88/88 87/87/87 85/85/85
f 89/89/89 88/88/88 85/85/85
f 90/90/90 89/89/89 85/85/85
f 93/93/93 92/92/92 91/91/91
f 94/94/94 93/93/93 91/91/91
f 97/97/97 96/96/96 95/95/95
f 98/98/98 97/97/97 95/95/95
f 101/101/101 100/100/100 99/99/99
f 102/102/102 101/101/101 99/99/99
f 105/105/105 104/104/104 103/103/103
f 106/106/106 105/105/105 103/103/103
f 109/109/109 108/108/108 107/107/107
f 110/110/110 109/109/109 107/107/107
f 113/113/113 112/112/112 111/111/111
f 114/114/114 113/113/113 111/111/111
f 117/117/117 116/116/116 115/115/115
f 118/118/118 117/117/117 115/115/115
f 121/121/121 120/120/120 119/119/119
f 122/122/122 121/121/121 119/119/119
f 125/125/125 124/124/124 123/123/123
f 126/126/126 125/125/125 123/123/123
f 129/129/129 128/128/128 127/127/127
f 130/130/130 129/129/129 127/127/127
f 133/133/133 132/132/132 131/131/131
f 134/134/134 133/133/133 131/131/131
f 137/137/137 136/136/136 135/135/135
f 136/136/136 138/138/138 135/135/135
f 135/135/135 138/138/138 139/139/139
f 138/138/138 140/140/140 139/139/139
f 139/139/139 140/140/140 141/141/141
f 140/140/140 142/142/142 141/141/141
f 145/145/145 144/144/144 143/143/143
f 146/146/146 145/145/145 143/143/143
f 149/149/149 148/148/148 147/147/147
f 150/150/150 149/149/149 147/147/147
f 153/153/153 152/152/152 151/151/151
f 154/154/154 153/153/153 151/151/151
f 157/157/157 156/156/156 155/155/155
f 158/158/158 157/157/157 155/155/155
f 161/161/161 160/160/160 159/159/159
f 162/162/162 161/161/161 159/159/159
f 165/165/165 164/164/164 163/163/163
f 166/166/166 165/165/165 163/163/163
f 169/169/169 168/168/168 167/167/167
f 170/170/170 169/169/169 167/167/167
f 173/173/173 172/172/172 171/171/171
f 174/174/174 173/173/173 171/171/171
f 174/174/174 171/171/171 175/175/175
f 176/176/176 174/174/174 175/175/175
f 176/176/176 175/175/175 177/177/177
f 178/178/178 176/176/176 177/177/177
f 181/181/181 180/180/180 179/179/179
f 182/182/182 181/181/181 179/179/179
f 185/185/185 184/184/184 183/183/183
f 186/186/186 185/185/185 183/183/183
