g fcbg_desert_003_building_03
v -1.8443835 3.6716228 1.2534127
v -1.844383 4.20187 -1.2534131
v -1.8443835 4.20187 1.2534126
v -1.844383 3.6716228 -1.253413
v -1.6880244 3.603607 -1.0763761
v -1.6880246 3.603607 1.0763758
v -1.6880251 0.29142076 1.076376
v 1.8443766 4.20187 -1.2534126
v -1.8443835 4.20187 1.2534126
v 1.8443761 4.20187 1.2534131
v 1.8443763 3.6716228 -1.2534125
v 1.6880182 3.603607 -1.0763756
v -1.6880249 0.29142064 -1.076376
v 1.6880182 0.29142064 -1.0763755
v -1.7441119 0.2633025 -1.1596875
v -1.7441121 0.26330262 1.1596873
v 1.7441052 0.26330245 -1.159687
v -1.7441119 8.911731E-05 -1.1596875
v -1.7441121 8.9218694E-05 1.1596873
v 1.744105 8.911731E-05 -1.159687
v 1.8443763 3.6716228 -1.2534125
v 1.8443761 4.20187 1.2534131
v 1.8443766 4.20187 -1.2534126
v 1.8443758 3.6716228 1.2534132
v 1.6880182 3.603607 -1.0763756
v 1.688018 3.603607 1.0763763
v 1.6880182 0.29142064 -1.0763755
v 1.688018 0.29142076 1.0763764
v 1.7441052 0.26330245 -1.159687
v 1.744105 0.26330256 1.1596878
v 1.744105 8.911731E-05 -1.159687
v 1.7441047 8.9218694E-05 1.1596878
v -0.5221482 5.013115 0.4156698
v 0.52214104 5.0131145 -0.41566986
v 0.5221409 5.0131145 0.41566998
v -0.5221481 5.013115 -0.41567004
v 0.5221408 4.18921 -0.41566983
v -0.5221476 4.18921 -0.41567
v -0.5221482 5.013115 0.4156698
v -0.5221477 4.18921 0.41566983
v 0.5221407 4.18921 0.41567
v 0.5221409 5.0131145 0.41566998
v 0.52214104 5.0131145 -0.41566986
v 0.5221408 4.18921 -0.41566983
vt 0.99580014 0.9239493
vt 0.93934643 0.93472326
vt 0.99580014 0.93472326
vt 0.93934643 0.9239493
vt 0.93934643 0.91873485
vt 0.99580014 0.91873485
vt 0.99580014 0.83943766
vt 0.84512 0.93472326
vt 0.93934643 0.9960714
vt 0.84512 0.9960714
vt 0.84512 0.9239493
vt 0.8545928 0.91873485
vt 0.93934643 0.83943766
vt 0.8545928 0.83943766
vt 0.93934643 0.8368032
vt 0.99580014 0.8368032
vt 0.8530008 0.8368032
vt 0.93934643 0.82900023
vt 0.99580014 0.82900023
vt 0.8530008 0.82900023
vt 0.93934643 0.9239493
vt 0.99580014 0.93472326
vt 0.93934643 0.93472326
vt 0.99580014 0.9239493
vt 0.93934643 0.91873485
vt 0.99580014 0.91873485
vt 0.9393464 0.83943766
vt 0.99580014 0.83943766
vt 0.93934643 0.8368032
vt 0.99580014 0.8368032
vt 0.93934643 0.82900023
vt 0.99580014 0.82900023
vt 0.9720315 0.9805979
vt 0.94350237 0.9580385
vt 0.94350237 0.98043126
vt 0.9720315 0.9580385
vt 0.94350237 0.93718415
vt 0.9720315 0.93718415
vt 0.99509215 0.9580385
vt 0.99509215 0.93718415
vt 0.99509215 0.93718415
vt 0.99509215 0.9580385
vt 0.9720315 0.9580385
vt 0.9720315 0.93718415
vn -0.9364472 -0.3508086 0
vn -0.57735026 0.57735026 -0.57735026
vn -0.70710677 0.70710677 0
vn -0.61177236 -0.49736682 -0.6151103
vn -0.45674118 -0.7777022 -0.43193358
vn -0.756368 -0.65414643 0
vn -0.52919334 0.8377632 0.13456328
vn 0.57735026 0.57735026 -0.57735026
vn -0.70710677 0.70710677 0
vn 0.70710677 0.70710677 0
vn 0.61177236 -0.49736682 -0.6151103
vn 0.45674118 -0.7777022 -0.43193358
vn -0.48742387 0.7716492 -0.40862638
vn 0.48742387 0.7716492 -0.40862638
vn -0.6076429 0.49894536 -0.6179187
vn -0.7660716 0.6290351 0.13209529
vn 0.6076429 0.49894536 -0.6179187
vn -0.70710677 0 -0.70710677
vn -1 0 0
vn 0.70710677 0 -0.70710677
vn 0.61177236 -0.49736682 -0.6151103
vn 0.70710677 0.70710677 0
vn 0.57735026 0.57735026 -0.57735026
vn 0.9364472 -0.3508086 0
vn 0.45674118 -0.7777022 -0.43193358
vn 0.756368 -0.65414643 0
vn 0.48742387 0.7716492 -0.40862638
vn 0.52919334 0.8377632 0.13456328
vn 0.6076429 0.49894536 -0.6179187
vn 0.7660716 0.6290351 0.13209529
vn 0.70710677 0 -0.70710677
vn 1 0 0
vn -0.70710975 0.7071038 0
vn 0.5773473 0.57735324 -0.57735026
vn 0.70710975 0.7071038 0
vn -0.5773473 0.57735324 -0.57735026
vn 0.70710677 0 -0.70710677
vn -0.70710677 0 -0.70710677
vn -0.70710975 0.7071038 0
vn -1 0 0
vn 1 0 0
vn 0.70710975 0.7071038 0
vn 0.5773473 0.57735324 -0.57735026
vn 0.70710677 0 -0.70710677
g fcbg_desert_003_building_03_0
f 3/3/3 2/2/2 1/1/1
f 2/2/2 4/4/4 1/1/1
f 4/4/4 5/5/5 1/1/1
f 5/5/5 6/6/6 1/1/1
f 6/6/6 5/5/5 7/7/7
f 2/2/2 8/8/8 4/4/4
f 2/2/2 9/9/9 8/8/8
f 9/9/9 10/10/10 8/8/8
f 8/8/8 11/11/11 4/4/4
f 11/11/11 12/12/12 4/4/4
f 12/12/12 5/5/5 4/4/4
f 5/5/5 12/12/12 13/13/13
f 5/5/5 13/13/13 7/7/7
f 12/12/12 14/14/14 13/13/13
f 7/7/7 13/13/13 15/15/15
f 15/15/15 13/13/13 14/14/14
f 16/16/16 7/7/7 15/15/15
f 17/17/17 15/15/15 14/14/14
f 16/16/16 15/15/15 18/18/18
f 18/18/18 15/15/15 17/17/17
f 19/19/19 16/16/16 18/18/18
f 20/20/20 18/18/18 17/17/17
f 23/23/23 22/22/22 21/21/21
f 22/22/22 24/24/24 21/21/21
f 21/21/21 24/24/24 25/25/25
f 24/24/24 26/26/26 25/25/25
f 25/25/25 26/26/26 27/27/27
f 26/26/26 28/28/28 27/27/27
f 29/29/29 27/27/27 28/28/28
f 30/30/30 29/29/29 28/28/28
f 31/31/31 29/29/29 30/30/30
f 32/32/32 31/31/31 30/30/30
f 35/35/35 34/34/34 33/33/33
f 34/34/34 36/36/36 33/33/33
f 36/36/36 34/34/34 37/37/37
f 38/38/38 36/36/36 37/37/37
f 39/39/39 36/36/36 38/38/38
f 40/40/40 39/39/39 38/38/38
f 43/43/43 42/42/42 41/41/41
f 44/44/44 43/43/43 41/41/41
