g fcbg_cityforest_006_can_02
v 0.023994446 6.109476E-07 -0.041558813
v 0.047986984 6.109476E-07 -7.1262974E-08
v 0.026787493 0.07155834 -1.1658329E-08
v 0.01061729 0.07155834 -0.028009275
v -0.023994446 6.109476E-07 -0.041558813
v 0.023994446 0.14311607 -0.041558694
v 0.047986984 0.14311607 4.7946315E-08
v -0.023994446 0.14311607 -0.041558694
v -0.021725688 0.07155834 -0.028009275
v -0.047986984 6.109476E-07 -7.1262974E-08
v -0.047986984 0.14311607 4.7946315E-08
v -0.03789589 0.07155834 -1.1658329E-08
v -0.023994446 6.109476E-07 0.04155867
v -0.023994446 0.14311607 0.04155879
v -0.021725688 0.07155834 0.028009253
v 0.023994446 6.109476E-07 0.04155867
v 0.023994446 0.14311607 0.04155879
v 0.01061729 0.07155834 0.028009253
v 0.047986984 6.109476E-07 -7.1262974E-08
v 0.047986984 0.14311607 4.7946315E-08
v 0.026787493 0.07155834 -1.1658329E-08
v 0.047986984 0.14311607 4.7946315E-08
v 0.023994446 0.14311607 0.04155879
v -0.023994446 0.14311607 0.04155879
v -0.047986984 0.14311607 4.7946315E-08
v 0.023994446 0.14311607 -0.041558694
v -0.023994446 0.14311607 -0.041558694
vt 0.899747 0.9625938
vt 0.89420676 0.9625938
vt 0.89420676 0.9742815
vt 0.899747 0.9742815
vt 0.90528727 0.9625938
vt 0.899747 0.98596925
vt 0.89420676 0.98596925
vt 0.90528727 0.98596925
vt 0.90528727 0.9742815
vt 0.9108274 0.9625938
vt 0.9108274 0.98596925
vt 0.9108274 0.9742815
vt 0.90528727 0.9625938
vt 0.90528727 0.98596925
vt 0.90528727 0.9742815
vt 0.899747 0.9625938
vt 0.899747 0.98596925
vt 0.899747 0.9742815
vt 0.89420676 0.9625938
vt 0.89420676 0.98596925
vt 0.89420676 0.9742815
vt 0.89771456 0.9477104
vt 0.8916574 0.9477104
vt 0.8886288 0.952956
vt 0.8916574 0.95820165
vt 0.9007432 0.952956
vt 0.89771456 0.95820165
vn 0.49953848 0.2504154 -0.829309
vn 0.9588083 0.28405386 0
vn 1 0 0
vn 0.47959158 0 -0.87749183
vn -0.47536412 0.17820735 -0.8615516
vn 0.44270626 0.5136604 -0.7349586
vn 0.8658655 0.50027686 0
vn -0.40598324 0.54200387 -0.7358052
vn -0.5197276 0 -0.8543321
vn -0.99020255 0.13963869 0
vn -0.83053535 0.5569659 0
vn -1 0 0
vn -0.47536436 0.17820592 0.86155164
vn -0.40598336 0.5420033 0.73580563
vn -0.5197276 0 0.854332
vn 0.49953887 0.25041416 0.8293092
vn 0.44270626 0.51365995 0.73495895
vn 0.47959158 0 0.87749183
vn 0.9588083 0.28405386 0
vn 0.8658655 0.50027686 0
vn 1 0 0
vn 0.8658655 0.50027686 0
vn 0.44270626 0.51365995 0.73495895
vn -0.40598336 0.5420033 0.73580563
vn -0.83053535 0.5569659 0
vn 0.44270626 0.5136604 -0.7349586
vn -0.40598324 0.54200387 -0.7358052
g fcbg_cityforest_006_can_02_0
f 3/3/3 2/2/2 1/1/1
f 4/4/4 3/3/3 1/1/1
f 4/4/4 1/1/1 5/5/5
f 3/3/3 4/4/4 6/6/6
f 7/7/7 3/3/3 6/6/6
f 6/6/6 4/4/4 8/8/8
f 9/9/9 4/4/4 5/5/5
f 4/4/4 9/9/9 8/8/8
f 9/9/9 5/5/5 10/10/10
f 8/8/8 9/9/9 11/11/11
f 12/12/12 9/9/9 10/10/10
f 9/9/9 12/12/12 11/11/11
f 12/12/12 10/10/10 13/13/13
f 11/11/11 12/12/12 14/14/14
f 15/15/15 12/12/12 13/13/13
f 12/12/12 15/15/15 14/14/14
f 15/15/15 13/13/13 16/16/16
f 14/14/14 15/15/15 17/17/17
f 18/18/18 15/15/15 16/16/16
f 15/15/15 18/18/18 17/17/17
f 18/18/18 16/16/16 19/19/19
f 17/17/17 18/18/18 20/20/20
f 21/21/21 18/18/18 19/19/19
f 18/18/18 21/21/21 20/20/20
f 24/24/24 23/23/23 22/22/22
f 25/25/25 24/24/24 22/22/22
f 25/25/25 22/22/22 26/26/26
f 27/27/27 25/25/25 26/26/26
