g fcbg_arkcity_building_10
v 1.5972624 0.00024223328 4.533518
v -1.59729 25.86897 4.533518
v 1.5972624 25.86897 4.533518
v -1.59729 0.00024223328 4.533518
v -1.59729 25.86897 6.2493496
v -1.59729 0.00024223328 6.2493496
v -4.7918425 25.86897 6.2493496
v -4.7918425 0.00024223328 6.2493496
v -4.7918425 25.86897 4.533518
v -4.7918425 0.00024223328 4.533518
v -8.811911 25.86897 4.533518
v -8.811911 0.00024223328 4.533518
v 8.811918 0.00024223328 4.533518
v 8.811918 25.86897 4.533518
v 8.811918 25.86897 -4.53349
v 8.811918 0.00024223328 -4.53349
v 4.7918153 0.00024223328 -4.53349
v 4.79185 25.86897 -4.53349
v 4.7918153 0.00027751923 -6.249357
v 4.79185 25.86897 -6.249357
v 1.5972624 0.00027751923 -6.249357
v 1.5972624 25.86897 -6.249357
v 1.5972624 0.00027751923 -4.53349
v 1.5972624 25.86897 -4.53349
v -1.59729 0.00027751923 -4.53349
v -1.59729 25.86897 -4.53349
v -8.811911 0.00027751923 -4.53349
v -8.811911 25.86897 -4.53349
v -8.811911 25.86897 4.533518
v -8.811911 0.00024223328 4.533518
v 8.811918 0.00024223328 4.533518
v 4.7918153 25.86897 4.533518
v 8.811918 25.86897 4.533518
v 4.7918153 0.00024223328 4.533518
v 4.7918153 25.86897 6.2493496
v 4.7918153 0.00024223328 6.2493496
v 1.5972624 25.86897 6.2493496
v 1.5972624 0.00024223328 6.2493496
v 1.5972624 25.86897 4.533518
v 1.5972624 0.00024223328 4.533518
v -8.811911 0.00027751923 -4.53349
v -4.7918425 25.86897 -4.53349
v -8.811911 25.86897 -4.53349
v -4.7918425 0.00027751923 -4.53349
v -4.7918425 25.86897 -6.249357
v -4.7918425 0.00027751923 -6.249357
v -1.59729 25.86897 -6.249357
v -1.59729 0.00027751923 -6.249357
v -1.59729 25.86897 -4.53349
v -1.59729 0.00027751923 -4.53349
v 4.7918153 25.86897 4.533518
v 4.7918153 25.86897 6.2493496
v 1.5972624 25.86897 6.2493496
v 1.5972624 25.86897 4.533518
v 7.7041597 28.016489 2.5532494
v 8.811918 25.86897 4.533518
v -1.59729 25.86897 4.533518
v -7.704151 28.016489 2.5532494
v -4.7918425 25.86897 4.533518
v -8.811911 25.86897 4.533518
v -4.7918425 25.86897 6.2493496
v -1.59729 25.86897 6.2493496
v 7.3097005 28.016489 2.1276722
v -7.3096924 28.016489 2.1276722
v -7.704151 28.016489 -2.5532575
v -7.3096924 28.016489 -2.127645
v 7.7041597 28.016489 -2.5532575
v 8.811918 25.86897 4.533518
v 8.811918 25.86897 -4.53349
v 7.3097005 28.016489 -2.127645
v -7.3096924 27.191854 2.1276722
v 7.3097005 27.191854 2.1276722
v -7.3096924 27.191854 -2.127645
v 7.3097005 27.191854 -2.127645
v -4.7918425 25.86897 -4.53349
v -4.7918425 25.86897 -6.249357
v -1.59729 25.86897 -6.249357
v -1.59729 25.86897 -4.53349
v -7.704151 28.016489 -2.5532575
v -8.811911 25.86897 -4.53349
v 1.5972624 25.86897 -4.53349
v 7.7041597 28.016489 -2.5532575
v 4.79185 25.86897 -4.53349
v 8.811918 25.86897 -4.53349
v 4.79185 25.86897 -6.249357
v 1.5972624 25.86897 -6.249357
v -8.811911 25.86897 -4.53349
v -7.704151 28.016489 -2.5532575
v -7.704151 28.016489 2.5532494
v -8.811911 25.86897 4.533518
v -4.0892906 27.96163 0.6281595
v -4.0892906 27.133516 0.6281595
v -4.9171944 27.133516 0.6281595
v -4.9171944 27.96163 0.6281595
v -4.9171944 27.528746 -0.14207363
v -4.9171944 27.133516 -0.14207363
v -4.9171944 27.96163 0.15783596
v -4.9171944 27.96163 0.15783596
v -4.0892906 27.96163 0.15783596
v -4.0892906 27.528746 -0.14207363
v -4.9171944 27.528746 -0.14207363
v -4.0892906 27.133516 -0.14207363
v -4.9171944 27.133516 -0.14207363
v -4.0892906 27.96163 0.15783596
v -4.0892906 27.528746 -0.14207363
v -4.0892906 27.96163 0.6281595
v -4.0892906 27.133516 0.6281595
v -4.0892906 27.133516 -0.14207363
v 5.003076 27.96163 0.6281595
v 5.003076 27.133516 0.6281595
v 4.175207 27.133516 0.6281595
v 4.175207 27.96163 0.6281595
v 4.175207 27.528746 -0.14207363
v 4.175207 27.133516 -0.14207363
v 4.175207 27.96163 0.15783596
v 4.175207 27.96163 0.15783596
v 5.003076 27.96163 0.15783596
v 5.003076 27.528746 -0.14207363
v 4.175207 27.528746 -0.14207363
v 5.003076 27.133516 -0.14207363
v 4.175207 27.133516 -0.14207363
v 5.003076 27.96163 0.15783596
v 5.003076 27.528746 -0.14207363
v 5.003076 27.96163 0.6281595
v 5.003076 27.133516 0.6281595
v 5.003076 27.133516 -0.14207363
vt 0.99853355 0.30789265
vt 0.9757841 0.44379744
vt 0.99853355 0.44379744
vt 0.9757841 0.30789265
vt 0.9662749 0.44379744
vt 0.9662749 0.30789265
vt 0.9447388 0.44379744
vt 0.9447388 0.30789265
vt 0.93771684 0.44379744
vt 0.93771684 0.30789265
vt 0.9070355 0.44379744
vt 0.9070355 0.30789265
vt 0.8506777 0.30789265
vt 0.8506777 0.44379744
vt 0.9070355 0.44379744
vt 0.9070355 0.30789265
vt 0.93771684 0.30789265
vt 0.93771684 0.44379744
vt 0.9447388 0.30789265
vt 0.9447388 0.44379744
vt 0.9662749 0.30789265
vt 0.9662749 0.44379744
vt 0.9757841 0.30789265
vt 0.9757841 0.44379744
vt 0.99853355 0.30789265
vt 0.99853355 0.44379744
vt 0.9070355 0.30789265
vt 0.9070355 0.44379744
vt 0.8506777 0.44379744
vt 0.8506777 0.30789265
vt 0.9070355 0.30789265
vt 0.93771684 0.44379744
vt 0.9070355 0.44379744
vt 0.93771684 0.30789265
vt 0.9447388 0.44379744
vt 0.9447388 0.30789265
vt 0.9662749 0.44379744
vt 0.9662749 0.30789265
vt 0.9757841 0.44379744
vt 0.9757841 0.30789265
vt 0.9070355 0.30789265
vt 0.93771684 0.44379744
vt 0.9070355 0.44379744
vt 0.93771684 0.30789265
vt 0.9447388 0.44379744
vt 0.9447388 0.30789265
vt 0.9662749 0.44379744
vt 0.9662749 0.30789265
vt 0.9757841 0.44379744
vt 0.9757841 0.30789265
vt 0.9538537 0.46228513
vt 0.9538537 0.45112276
vt 0.92981523 0.45112276
vt 0.92981523 0.46228513
vt 0.9757993 0.48304772
vt 0.9840801 0.46228513
vt 0.9057919 0.46228513
vt 0.859823 0.48304772
vt 0.8817685 0.46228513
vt 0.85152704 0.46228513
vt 0.8817685 0.45112276
vt 0.9057919 0.45112276
vt 0.97249305 0.4862478
vt 0.86303824 0.4862478
vt 0.85977745 0.52220696
vt 0.86303824 0.51902205
vt 0.97581446 0.52220696
vt 0.99239117 0.46829095
vt 0.99239117 0.53659976
vt 0.97249305 0.51902205
vt 0.86593497 0.48855308
vt 0.9695811 0.48855308
vt 0.86593497 0.5167168
vt 0.9695811 0.5167168
vt 0.9538537 0.46228513
vt 0.9538537 0.45112276
vt 0.92981523 0.45112276
vt 0.92981523 0.46228513
vt 0.9757993 0.48304772
vt 0.9840801 0.46228513
vt 0.9057919 0.46228513
vt 0.859823 0.48304772
vt 0.8817685 0.46228513
vt 0.85152704 0.46228513
vt 0.8817685 0.45112276
vt 0.9057919 0.45112276
vt 0.99239117 0.53659976
vt 0.97581446 0.52220696
vt 0.9757993 0.48304772
vt 0.99239117 0.46829095
vt 0.63889617 0.99865484
vt 0.6604019 0.99865484
vt 0.6604019 0.9722049
vt 0.63889617 0.9722049
vt 0.6496945 0.9543542
vt 0.6604019 0.9543542
vt 0.63889617 0.9615582
vt 0.6220464 0.9722049
vt 0.6220464 0.99865484
vt 0.6035436 0.99865484
vt 0.6035436 0.9722049
vt 0.588529 0.99865484
vt 0.588529 0.9722049
vt 0.63889617 0.9615582
vt 0.6496945 0.9543542
vt 0.63889617 0.9722049
vt 0.6604019 0.9722049
vt 0.6604019 0.9543542
vt 0.63889617 0.99865484
vt 0.6604019 0.99865484
vt 0.6604019 0.9722049
vt 0.63889617 0.9722049
vt 0.6496945 0.9543542
vt 0.6604019 0.9543542
vt 0.63889617 0.9615582
vt 0.6220464 0.9722049
vt 0.6220464 0.99865484
vt 0.6035436 0.99865484
vt 0.6035436 0.9722049
vt 0.588529 0.99865484
vt 0.588529 0.9722049
vt 0.63889617 0.9615582
vt 0.6496945 0.9543542
vt 0.63889617 0.9722049
vt 0.6604019 0.9722049
vt 0.6604019 0.9543542
vn -0.7076081 0.00025057793 0.7066051
vn 0.28174716 0.6619214 0.6946068
vn -0.28067297 0.6619214 0.69504154
vn 0.70710695 0.00025057793 0.7071066
vn 0.5779236 0.57684946 0.57727724
vn 0.70710695 0.00025057793 0.7071066
vn -0.57684946 0.57684946 0.57835054
vn -0.7076081 0.00025057793 0.7066051
vn -0.28067297 0.6619214 0.69504154
vn -0.7076081 0.00025057793 0.7066051
vn -0.65089357 0.33896303 0.67929494
vn -0.7076081 0.00025057793 0.7066051
vn 0.70710695 0.00025057793 0.7071066
vn 0.6503923 0.33896303 0.67977494
vn 0.6503923 0.33896303 -0.67977494
vn 0.70710695 0.00025057793 -0.7071066
vn 0.70710695 0.00025057793 -0.7071066
vn 0.28174716 0.6619214 -0.6946068
vn 0.70710695 0.00025057793 -0.7071066
vn 0.5779236 0.57684946 -0.57727724
vn -0.7076081 0.00025057793 -0.7066051
vn -0.57684946 0.57684946 -0.57835054
vn -0.7076081 0.00025057793 -0.7066051
vn -0.28067297 0.6619214 -0.69504154
vn 0.70710695 0.00025057793 -0.7071066
vn 0.28174716 0.6619214 -0.6946068
vn -0.7076081 0.00025057793 -0.7066051
vn -0.65089357 0.33896303 -0.67929494
vn -0.65089357 0.33896303 0.67929494
vn -0.7076081 0.00025057793 0.7066051
vn 0.70710695 0.00025057793 0.7071066
vn 0.28174716 0.6619214 0.6946068
vn 0.6503923 0.33896303 0.67977494
vn 0.70710695 0.00025057793 0.7071066
vn 0.5779236 0.57684946 0.57727724
vn 0.70710695 0.00025057793 0.7071066
vn -0.57684946 0.57684946 0.57835054
vn -0.7076081 0.00025057793 0.7066051
vn -0.28067297 0.6619214 0.69504154
vn -0.7076081 0.00025057793 0.7066051
vn -0.7076081 0.00025057793 -0.7066051
vn -0.28067297 0.6619214 -0.69504154
vn -0.65089357 0.33896303 -0.67929494
vn -0.7076081 0.00025057793 -0.7066051
vn -0.57684946 0.57684946 -0.57835054
vn -0.7076081 0.00025057793 -0.7066051
vn 0.5779236 0.57684946 -0.57727724
vn 0.70710695 0.00025057793 -0.7071066
vn 0.28174716 0.6619214 -0.6946068
vn 0.70710695 0.00025057793 -0.7071066
vn 0.28174716 0.6619214 0.6946068
vn 0.5779236 0.57684946 0.57727724
vn -0.57684946 0.57684946 0.57835054
vn -0.28067297 0.6619214 0.69504154
vn 0.4345616 0.846244 0.30826503
vn 0.6503923 0.33896303 0.67977494
vn 0.28174716 0.6619214 0.6946068
vn -0.43348742 0.846244 0.30977377
vn -0.28067297 0.6619214 0.69504154
vn -0.65089357 0.33896303 0.67929494
vn -0.57684946 0.57684946 0.57835054
vn 0.5779236 0.57684946 0.57727724
vn -0.3011533 0.904534 -0.3018691
vn 0.30222747 0.904534 -0.30079365
vn -0.43348742 0.846244 -0.30977377
vn 0.30222747 0.904534 0.30079365
vn 0.4345616 0.846244 -0.30826503
vn 0.6503923 0.33896303 0.67977494
vn 0.6503923 0.33896303 -0.67977494
vn -0.3011533 0.904534 0.3018691
vn 0.5779236 0.57684946 -0.57727724
vn -0.57684946 0.57684946 -0.57835054
vn 0.5779236 0.57684946 0.57727724
vn -0.57684946 0.57684946 0.57835054
vn -0.28067297 0.6619214 -0.69504154
vn -0.57684946 0.57684946 -0.57835054
vn 0.5779236 0.57684946 -0.57727724
vn 0.28174716 0.6619214 -0.6946068
vn -0.43348742 0.846244 -0.30977377
vn -0.65089357 0.33896303 -0.67929494
vn -0.28067297 0.6619214 -0.69504154
vn 0.4345616 0.846244 -0.30826503
vn 0.28174716 0.6619214 -0.6946068
vn 0.6503923 0.33896303 -0.67977494
vn 0.5779236 0.57684946 -0.57727724
vn -0.57684946 0.57684946 -0.57835054
vn -0.65089357 0.33896303 -0.67929494
vn -0.43348742 0.846244 -0.30977377
vn -0.43348742 0.846244 0.30977377
vn -0.65089357 0.33896303 0.67929494
vn 0.5779236 0.57684946 0.57727724
vn 0.70710695 0.00025057793 0.7071066
vn -0.7076081 0.00025057793 0.7066051
vn -0.57684946 0.57684946 0.57835054
vn -0.6461673 0.22710913 -0.7286215
vn -0.7076081 0.00025057793 -0.7066051
vn -0.61623454 0.69815576 -0.36446336
vn -0.61623454 0.69815576 -0.36446336
vn 0.6157334 0.69815576 -0.36530936
vn 0.6456661 0.22710913 -0.7290656
vn -0.6461673 0.22710913 -0.7286215
vn 0.70710695 0.00025057793 -0.7071066
vn -0.7076081 0.00025057793 -0.7066051
vn 0.6157334 0.69815576 -0.36530936
vn 0.6456661 0.22710913 -0.7290656
vn 0.5779236 0.57684946 0.57727724
vn 0.70710695 0.00025057793 0.7071066
vn 0.70710695 0.00025057793 -0.7071066
vn 0.5779236 0.57684946 0.57727724
vn 0.70710695 0.00025057793 0.7071066
vn -0.7076081 0.00025057793 0.7066051
vn -0.57684946 0.57684946 0.57835054
vn -0.6461673 0.22710913 -0.7286215
vn -0.7076081 0.00025057793 -0.7066051
vn -0.61623454 0.69815576 -0.36446336
vn -0.61623454 0.69815576 -0.36446336
vn 0.6157334 0.69815576 -0.36530936
vn 0.6456661 0.22710913 -0.7290656
vn -0.6461673 0.22710913 -0.7286215
vn 0.70710695 0.00025057793 -0.7071066
vn -0.7076081 0.00025057793 -0.7066051
vn 0.6157334 0.69815576 -0.36530936
vn 0.6456661 0.22710913 -0.7290656
vn 0.5779236 0.57684946 0.57727724
vn 0.70710695 0.00025057793 0.7071066
vn 0.70710695 0.00025057793 -0.7071066
g fcbg_arkcity_building_10_0
f 3/3/3 2/2/2 1/1/1
f 2/2/2 4/4/4 1/1/1
f 2/2/2 5/5/5 4/4/4
f 5/5/5 6/6/6 4/4/4
f 6/6/6 5/5/5 7/7/7
f 8/8/8 6/6/6 7/7/7
f 8/8/8 7/7/7 9/9/9
f 10/10/10 8/8/8 9/9/9
f 10/10/10 9/9/9 11/11/11
f 12/12/12 10/10/10 11/11/11
f 15/15/15 14/14/14 13/13/13
f 16/16/16 15/15/15 13/13/13
f 16/16/16 17/17/17 15/15/15
f 17/17/17 18/18/18 15/15/15
f 17/17/17 19/19/19 18/18/18
f 19/19/19 20/20/20 18/18/18
f 19/19/19 21/21/21 20/20/20
f 21/21/21 22/22/22 20/20/20
f 22/22/22 21/21/21 23/23/23
f 24/24/24 22/22/22 23/23/23
f 24/24/24 23/23/23 25/25/25
f 26/26/26 24/24/24 25/25/25
f 29/29/29 28/28/28 27/27/27
f 30/30/30 29/29/29 27/27/27
f 33/33/33 32/32/32 31/31/31
f 32/32/32 34/34/34 31/31/31
f 32/32/32 35/35/35 34/34/34
f 35/35/35 36/36/36 34/34/34
f 35/35/35 37/37/37 36/36/36
f 37/37/37 38/38/38 36/36/36
f 38/38/38 37/37/37 39/39/39
f 40/40/40 38/38/38 39/39/39
f 43/43/43 42/42/42 41/41/41
f 42/42/42 44/44/44 41/41/41
f 42/42/42 45/45/45 44/44/44
f 45/45/45 46/46/46 44/44/44
f 45/45/45 47/47/47 46/46/46
f 47/47/47 48/48/48 46/46/46
f 48/48/48 47/47/47 49/49/49
f 50/50/50 48/48/48 49/49/49
f 53/53/53 52/52/52 51/51/51
f 54/54/54 53/53/53 51/51/51
f 51/51/51 55/55/55 54/54/54
f 56/56/56 55/55/55 51/51/51
f 54/54/54 55/55/55 57/57/57
f 55/55/55 58/58/58 57/57/57
f 57/57/57 58/58/58 59/59/59
f 59/59/59 58/58/58 60/60/60
f 59/59/59 61/61/61 57/57/57
f 61/61/61 62/62/62 57/57/57
f 55/55/55 63/63/63 58/58/58
f 63/63/63 64/64/64 58/58/58
f 58/58/58 64/64/64 65/65/65
f 64/64/64 66/66/66 65/65/65
f 65/65/65 66/66/66 67/67/67
f 67/67/67 55/55/55 68/68/68
f 69/69/69 67/67/67 68/68/68
f 67/67/67 70/70/70 55/55/55
f 70/70/70 63/63/63 55/55/55
f 66/66/66 70/70/70 67/67/67
f 64/64/64 71/71/71 66/66/66
f 63/63/63 72/72/72 64/64/64
f 72/72/72 71/71/71 64/64/64
f 71/71/71 73/73/73 66/66/66
f 66/66/66 73/73/73 70/70/70
f 73/73/73 71/71/71 72/72/72
f 74/74/74 72/72/72 63/63/63
f 70/70/70 74/74/74 63/63/63
f 74/74/74 73/73/73 72/72/72
f 73/73/73 74/74/74 70/70/70
f 77/77/77 76/76/76 75/75/75
f 78/78/78 77/77/77 75/75/75
f 75/75/75 79/79/79 78/78/78
f 80/80/80 79/79/79 75/75/75
f 78/78/78 79/79/79 81/81/81
f 79/79/79 82/82/82 81/81/81
f 81/81/81 82/82/82 83/83/83
f 83/83/83 82/82/82 84/84/84
f 83/83/83 85/85/85 81/81/81
f 85/85/85 86/86/86 81/81/81
f 89/89/89 88/88/88 87/87/87
f 90/90/90 89/89/89 87/87/87
f 93/93/93 92/92/92 91/91/91
f 94/94/94 93/93/93 91/91/91
f 95/95/95 93/93/93 94/94/94
f 95/95/95 96/96/96 93/93/93
f 97/97/97 95/95/95 94/94/94
f 94/94/94 91/91/91 98/98/98
f 91/91/91 99/99/99 98/98/98
f 99/99/99 100/100/100 98/98/98
f 100/100/100 101/101/101 98/98/98
f 100/100/100 102/102/102 101/101/101
f 102/102/102 103/103/103 101/101/101
f 106/106/106 105/105/105 104/104/104
f 107/107/107 105/105/105 106/106/106
f 107/107/107 108/108/108 105/105/105
f 111/111/111 110/110/110 109/109/109
f 112/112/112 111/111/111 109/109/109
f 113/113/113 111/111/111 112/112/112
f 113/113/113 114/114/114 111/111/111
f 115/115/115 113/113/113 112/112/112
f 112/112/112 109/109/109 116/116/116
f 109/109/109 117/117/117 116/116/116
f 117/117/117 118/118/118 116/116/116
f 118/118/118 119/119/119 116/116/116
f 118/118/118 120/120/120 119/119/119
f 120/120/120 121/121/121 119/119/119
f 124/124/124 123/123/123 122/122/122
f 125/125/125 123/123/123 124/124/124
f 125/125/125 126/126/126 123/123/123
