g fcbg_iceland_001_house_34
v 6.6394334 0.00016307831 4.589493
v -10.389734 0.00016307831 4.589493
v -10.389734 5.509452 4.589493
v 6.6394334 5.509452 4.589493
v 7.6847486 0.00016307831 5.0612946
v 7.6847486 5.509452 5.0612946
v 10.389735 0.00016307831 5.0612946
v 10.389735 5.509452 5.0612946
v 10.389735 0.00016307831 5.0612946
v 10.389735 5.509452 5.0612946
v 10.389735 5.509452 -3.6595001
v 10.389735 0.00016307831 -3.6595001
v 8.986385 0.00016307831 -3.6595001
v 10.389735 0.00016307831 -3.6595001
v 10.389735 5.509452 -3.6595001
v 8.986385 5.509452 -3.6595001
v 6.777273 0.00016307831 -5.0612946
v 6.777273 5.509452 -5.0612946
v -10.389734 0.00016307831 -5.0612946
v -10.389734 5.509452 -5.0612946
v -10.389734 0.00016307831 -5.0612946
v -10.389734 5.509452 -5.0612946
v -10.389734 5.509452 4.589493
v -10.389734 0.00016307831 4.589493
v 10.389735 5.509452 5.0612946
v 9.945167 5.509452 4.584599
v 9.945167 5.509452 -3.2719774
v 10.389735 5.509452 -3.6595001
v 10.389735 5.509452 -3.6595001
v 9.945167 5.509452 -3.2719774
v 8.74058 5.509452 -3.2719774
v 8.986385 5.509452 -3.6595001
v 6.6369257 5.509452 -4.604205
v 6.777273 5.509452 -5.0612946
v -9.865838 5.509452 -4.604205
v -10.389734 5.509452 -5.0612946
v -10.389734 5.509452 -5.0612946
v -9.865838 5.509452 -4.604205
v -9.865838 5.509452 4.142723
v -10.389734 5.509452 4.589493
v 6.6393733 5.509452 4.142723
v 6.6394334 5.509452 4.589493
v 7.686862 5.509452 4.584599
v 7.6847486 5.509452 5.0612946
v 9.945167 5.509452 4.584599
v 10.389735 5.509452 5.0612946
v -9.865838 5.509452 4.142723
v -9.865838 5.105277 4.142723
v 6.6393733 5.105277 4.142723
v 6.6393733 5.509452 4.142723
v 7.686862 5.105277 4.584599
v 7.686862 5.509452 4.584599
v 9.945167 5.105277 4.584599
v 9.945167 5.509452 4.584599
v 9.945167 5.509452 4.584599
v 9.945167 5.105277 4.584599
v 9.945167 5.105277 -3.2719774
v 9.945167 5.509452 -3.2719774
v 9.945167 5.509452 -3.2719774
v 9.945167 5.105277 -3.2719774
v 8.74058 5.105277 -3.2719774
v 8.74058 5.509452 -3.2719774
v 6.6369257 5.105277 -4.604205
v 6.6369257 5.509452 -4.604205
v -9.865838 5.105277 -4.604205
v -9.865838 5.509452 -4.604205
v -9.865838 5.509452 -4.604205
v -9.865838 5.105277 -4.604205
v -9.865838 5.105277 4.142723
v -9.865838 5.509452 4.142723
v 6.6369257 5.105277 -4.604205
v -9.865838 5.105277 4.142723
v -9.865838 5.105277 -4.604205
v 6.6393733 5.105277 4.142723
v 8.74058 5.105277 -3.2719774
v 7.686862 5.105277 4.584599
v 9.945167 5.105277 4.584599
v 9.945167 5.105277 -3.2719774
v -6.3894234 5.0281935 3.8601422
v -9.64919 5.0281935 3.8601422
v -9.64919 7.0622873 3.8601418
v -6.3894234 7.0622873 3.8601418
v -3.1297865 5.0281935 3.8601422
v -7.4759016 7.8659744 3.8601418
v -8.562546 7.8659744 3.8601418
v -3.1297865 7.0622873 3.8601418
v 0.12924957 5.0281935 3.8601422
v 0.12924957 7.0622873 3.8601418
v -0.9566288 7.8659744 3.8601418
v -2.043273 7.8659744 3.8601418
v -4.2163005 7.8659744 3.8601418
v -5.302944 7.8659744 3.8601418
v -9.64919 5.0281935 -4.339024
v -9.64919 7.0622873 -4.3390236
v -9.64919 7.0622873 3.8601418
v -9.64919 5.0281935 3.8601422
v -9.64919 7.0622873 -4.3390236
v -8.562546 7.8659744 3.8601418
v -9.64919 7.0622873 3.8601418
v -8.562546 7.8659744 -4.3390236
v -7.4759016 7.8659744 3.8601418
v -7.4759016 7.8659744 -4.3390236
v -6.3894234 7.0622873 3.8601418
v -6.3894234 7.0622873 -4.3390236
v -5.302944 7.8659744 3.8601418
v -5.3029447 7.8659744 -4.3390236
v -4.2163005 7.8659744 3.8601418
v -4.216301 7.8659744 -4.3390236
v -3.1297865 7.0622873 3.8601418
v -3.1297865 7.0622873 -4.3390236
v -2.043273 7.8659744 3.8601418
v -2.043273 7.8659744 -4.3390236
v -0.9566288 7.8659744 3.8601418
v -0.9566293 7.8659744 -4.3390236
v -8.562546 7.8659744 -4.3390236
v -6.3894234 7.0622873 -4.3390236
v -7.4759016 7.8659744 -4.3390236
v -9.64919 7.0622873 -4.3390236
v -9.64919 5.0281935 -4.339024
v -6.3894234 5.0281935 -4.339024
v -3.1297865 7.0622873 -4.3390236
v -5.3029447 7.8659744 -4.3390236
v -4.216301 7.8659744 -4.3390236
v -3.1297865 5.0281935 -4.339024
v 0.12924957 7.0622873 -4.3390236
v 0.12924957 5.0281935 -4.339024
v -2.043273 7.8659744 -4.3390236
v -0.9566293 7.8659744 -4.3390236
v 0.12924957 7.0622873 3.8601418
v -0.9566288 7.8659744 3.8601418
v -0.9566293 7.8659744 -4.3390236
v 0.12924957 7.0622873 -4.3390236
v 1.2151318 7.8659744 3.8601418
v 1.2151289 7.8659744 -4.3390236
v 2.301774 7.8659744 3.8601418
v 2.301774 7.8659744 -4.3390236
v 3.38863 7.0622873 3.8601418
v 3.38863 7.0622873 -4.3390236
v 4.475485 7.8659744 3.8601418
v 4.475484 7.8659744 -4.3390236
v 5.562129 7.8659744 3.8601418
v 5.562129 7.8659744 -4.3390236
v 6.6487722 7.0622873 3.8601418
v 6.6487722 7.0622873 -4.3390236
v 3.38863 5.0281935 3.8601422
v 0.12924957 5.0281935 3.8601422
v 0.12924957 7.0622873 3.8601418
v 3.38863 7.0622873 3.8601418
v 6.6487722 5.0281935 3.8601422
v 6.6487722 7.0622873 3.8601418
v 5.562129 7.8659744 3.8601418
v 4.475485 7.8659744 3.8601418
v 2.301774 7.8659744 3.8601418
v 1.2151318 7.8659744 3.8601418
v 1.2151289 7.8659744 -4.3390236
v 3.38863 7.0622873 -4.3390236
v 2.301774 7.8659744 -4.3390236
v 0.12924957 7.0622873 -4.3390236
v 0.12924957 5.0281935 -4.339024
v 3.38863 5.0281935 -4.339024
v 6.6487722 7.0622873 -4.3390236
v 6.6487722 5.0281935 -4.339024
v 4.475484 7.8659744 -4.3390236
v 5.562129 7.8659744 -4.3390236
v 6.6487722 5.0281935 3.8601422
v 6.6487722 7.0622873 3.8601418
v 6.6487722 7.0622873 -4.3390236
v 6.6487722 5.0281935 -4.339024
v 6.583551 6.5188007 -0.1679498
v 6.583551 6.5188007 -2.550068
v 9.002916 6.5188007 -2.550068
v 9.002916 6.5188007 -0.1679498
v 6.583551 5.0872755 -0.1679498
v 6.583551 6.5188007 -0.1679498
v 9.002916 6.5188007 -0.1679498
v 9.002916 5.0872755 -0.1679498
v 9.002916 5.0872755 -0.1679498
v 9.002916 6.5188007 -0.1679498
v 9.002916 6.5188007 -2.550068
v 9.002916 5.0872755 -2.550068
v 9.002916 5.0872755 -2.550068
v 9.002916 6.5188007 -2.550068
v 6.583551 6.5188007 -2.550068
v 6.583551 5.0872755 -2.550068
vt 0.47497618 0.52649623
vt 0.47497618 0.37998646
vt 0.42739198 0.37998646
vt 0.42739198 0.52649623
vt 0.47497618 0.5363708
vt 0.42739198 0.5363708
vt 0.47497618 0.56016177
vt 0.42739198 0.56016207
vt 0.47497618 0.37998646
vt 0.42739198 0.37998646
vt 0.42739198 0.2964557
vt 0.47497618 0.2964557
vt 0.47497618 0.5363708
vt 0.47497618 0.56016177
vt 0.42739198 0.56016207
vt 0.42739198 0.5363708
vt 0.47497618 0.52649623
vt 0.42739198 0.52649623
vt 0.47497618 0.37998646
vt 0.42739198 0.37998646
vt 0.47497618 0.2964557
vt 0.42739198 0.2964557
vt 0.42739198 0.37998646
vt 0.47497618 0.37998646
vt 0.42739198 0.37998646
vt 0.42328545 0.37998646
vt 0.42328545 0.30040365
vt 0.42739198 0.2964557
vt 0.42739198 0.56016207
vt 0.42328545 0.55626994
vt 0.42328545 0.5363708
vt 0.42739198 0.5363708
vt 0.42328545 0.52649623
vt 0.42739198 0.52649623
vt 0.42328545 0.37998646
vt 0.42739198 0.37998646
vt 0.42739198 0.2964557
vt 0.42328545 0.30040365
vt 0.42328545 0.37998646
vt 0.42739198 0.37998646
vt 0.42328545 0.52649623
vt 0.42739198 0.52649623
vt 0.42328545 0.5363708
vt 0.42739198 0.5363708
vt 0.42328545 0.55626994
vt 0.42739198 0.56016207
vt 0.42328545 0.37998646
vt 0.41970906 0.37998646
vt 0.41970906 0.52649623
vt 0.42328545 0.52649623
vt 0.41970906 0.5363708
vt 0.42328545 0.5363708
vt 0.41970906 0.5562174
vt 0.42328545 0.55626994
vt 0.42328545 0.37998646
vt 0.41970906 0.37998646
vt 0.41970906 0.30040365
vt 0.42328545 0.30040365
vt 0.42328545 0.55626994
vt 0.41970906 0.5562174
vt 0.41970906 0.5363708
vt 0.42328545 0.5363708
vt 0.41970906 0.52649623
vt 0.42328545 0.52649623
vt 0.41970906 0.37998646
vt 0.42328545 0.37998646
vt 0.42328545 0.30040365
vt 0.41970906 0.30040365
vt 0.41970906 0.37998646
vt 0.42328545 0.37998646
vt 0.37929899 0.48294
vt 0.41410443 0.5486792
vt 0.37929899 0.5486792
vt 0.41410443 0.48293033
vt 0.38460013 0.47456932
vt 0.41586268 0.47876212
vt 0.41586268 0.46977615
vt 0.38460013 0.46977615
vt 0.26199248 0.45691514
vt 0.23456927 0.45691514
vt 0.23456673 0.47405204
vt 0.26198983 0.47405204
vt 0.28858277 0.45691514
vt 0.25321418 0.48054507
vt 0.2431558 0.48054507
vt 0.2885801 0.47405204
vt 0.315104 0.45691514
vt 0.31510165 0.47405204
vt 0.30733362 0.47996932
vt 0.2967989 0.47996932
vt 0.2811153 0.48054507
vt 0.26971048 0.48054507
vt 0.25724345 0.5440454
vt 0.27288342 0.5440455
vt 0.2728837 0.48279226
vt 0.25724366 0.4827922
vt 0.27288342 0.5440455
vt 0.28327578 0.48279244
vt 0.2728837 0.48279226
vt 0.28327534 0.5440455
vt 0.29163077 0.48279244
vt 0.29163077 0.5440455
vt 0.3020218 0.48279244
vt 0.30202165 0.5440455
vt 0.31241265 0.48279244
vt 0.31241265 0.5440455
vt 0.320768 0.48279244
vt 0.320768 0.5440455
vt 0.33115903 0.48279244
vt 0.33115903 0.5440454
vt 0.3415502 0.48279244
vt 0.3415502 0.5440454
vt 0.34990522 0.48279256
vt 0.34990534 0.5440454
vt 0.2431558 0.48054507
vt 0.26198983 0.47405204
vt 0.25321418 0.48054507
vt 0.23456673 0.47405204
vt 0.23456927 0.45691514
vt 0.26199248 0.45691514
vt 0.2885801 0.47405204
vt 0.26971048 0.48054507
vt 0.2811153 0.48054507
vt 0.28858277 0.45691514
vt 0.31510165 0.47405204
vt 0.315104 0.45691514
vt 0.2967989 0.47996932
vt 0.30733362 0.47996932
vt 0.33116275 0.48279244
vt 0.3415502 0.48279244
vt 0.34154987 0.54404527
vt 0.3311626 0.54404515
vt 0.32077575 0.48279244
vt 0.32077557 0.54404515
vt 0.3124207 0.48279244
vt 0.31242025 0.54404515
vt 0.30202731 0.48279244
vt 0.302027 0.54404503
vt 0.29163435 0.48279244
vt 0.29163375 0.54404503
vt 0.2832792 0.48279244
vt 0.28327888 0.5440449
vt 0.2728873 0.48279226
vt 0.2728867 0.5440448
vt 0.26199433 0.45691514
vt 0.28858277 0.45691514
vt 0.28858516 0.47405204
vt 0.26199698 0.47405204
vt 0.23456825 0.45691514
vt 0.23457094 0.47405204
vt 0.2431558 0.48054507
vt 0.25321418 0.48054507
vt 0.26971048 0.48054507
vt 0.28113094 0.48054507
vt 0.28113094 0.48054507
vt 0.26199698 0.47405204
vt 0.26971048 0.48054507
vt 0.28858516 0.47405204
vt 0.28858277 0.45691514
vt 0.26199433 0.45691514
vt 0.23457094 0.47405204
vt 0.23456825 0.45691514
vt 0.25321418 0.48054507
vt 0.2431558 0.48054507
vt 0.25724736 0.48279214
vt 0.2728873 0.48279226
vt 0.2728867 0.5440448
vt 0.2572471 0.5440448
vt 0.44293582 0.58360004
vt 0.44293582 0.6058398
vt 0.46608797 0.6058398
vt 0.46608797 0.58360004
vt 0.44293582 0.57222533
vt 0.44293582 0.58360004
vt 0.46608797 0.58360004
vt 0.46608797 0.57222533
vt 0.47879544 0.58360004
vt 0.46608797 0.58360004
vt 0.46608797 0.6058398
vt 0.47879544 0.6058398
vt 0.46608797 0.57222533
vt 0.46608797 0.58360004
vt 0.44293582 0.58360004
vt 0.44293582 0.57222533
vn -0.21040332 0 0.97761476
vn -0.70710677 0 0.70710677
vn -0.57735026 0.57735026 0.57735026
vn -0.13731655 0.7576724 0.6380256
vn -0.21040332 0 0.97761476
vn -0.15757282 0.6626734 0.73214394
vn 0.70710677 0 0.7071067
vn 0.5773503 0.57735026 0.57735026
vn 0.70710677 0 0.7071067
vn 0.5773503 0.57735026 0.57735026
vn 0.57735026 0.57735026 -0.57735026
vn 0.70710677 0 -0.70710677
vn 0.27896777 0 -0.9603005
vn 0.70710677 0 -0.70710677
vn 0.57735026 0.57735026 -0.57735026
vn 0.1760876 0.7756109 -0.60615253
vn 0.27896777 0 -0.9603005
vn 0.21214606 0.64937544 -0.7302778
vn -0.70710677 0 -0.70710677
vn -0.57735026 0.57735026 -0.57735026
vn -0.70710677 0 -0.70710677
vn -0.57735026 0.57735026 -0.57735026
vn -0.57735026 0.57735026 0.57735026
vn -0.70710677 0 0.70710677
vn 0.5773503 0.57735026 0.57735026
vn -0.30151135 0.90453404 -0.30151135
vn -0.30151135 0.90453404 0.30151135
vn 0.57735026 0.57735026 -0.57735026
vn 0.57735026 0.57735026 -0.57735026
vn -0.30151135 0.90453404 0.30151135
vn -0.21179865 0.64945734 0.73030573
vn 0.1760876 0.7756109 -0.60615253
vn -0.17585483 0.7754958 0.6063674
vn 0.21214606 0.64937544 -0.7302778
vn 0.30151135 0.90453404 0.30151135
vn -0.57735026 0.57735026 -0.57735026
vn -0.57735026 0.57735026 -0.57735026
vn 0.30151135 0.90453404 0.30151135
vn 0.30151135 0.90453404 -0.30151135
vn -0.57735026 0.57735026 0.57735026
vn 0.14806508 0.66508335 -0.7319432
vn -0.13731655 0.7576724 0.6380256
vn 0.13010998 0.75457627 -0.64318424
vn -0.15757282 0.6626734 0.73214394
vn -0.30151135 0.90453404 -0.30151135
vn 0.5773503 0.57735026 0.57735026
vn 0.30151135 0.90453404 -0.30151135
vn 0.5773502 0.57735026 -0.57735026
vn 0.13010998 0.75457627 -0.64318424
vn 0.14806508 0.66508335 -0.7319432
vn 0.14806506 0.6650833 -0.7319432
vn 0.13010998 0.75457627 -0.64318424
vn -0.57735026 0.57735026 -0.57735026
vn -0.30151135 0.90453404 -0.30151135
vn -0.30151135 0.90453404 -0.30151135
vn -0.57735026 0.57735026 -0.57735026
vn -0.57735026 0.57735026 0.57735026
vn -0.30151135 0.90453404 0.30151135
vn -0.30151135 0.90453404 0.30151135
vn -0.57735026 0.57735026 0.57735026
vn -0.17585482 0.7754958 0.60636735
vn -0.21179865 0.64945734 0.73030573
vn -0.21179865 0.64945734 0.73030573
vn -0.17585483 0.7754958 0.6063674
vn 0.5773502 0.57735026 0.57735026
vn 0.30151135 0.90453404 0.30151135
vn 0.30151135 0.90453404 0.30151135
vn 0.5773502 0.57735026 0.57735026
vn 0.5773502 0.57735026 -0.57735026
vn 0.30151135 0.90453404 -0.30151135
vn -0.21179865 0.64945734 0.73030573
vn 0.5773502 0.57735026 -0.57735026
vn 0.5773502 0.57735026 0.57735026
vn 0.13010998 0.75457627 -0.64318424
vn -0.17585482 0.7754958 0.60636735
vn 0.14806506 0.6650833 -0.7319432
vn -0.57735026 0.57735026 -0.57735026
vn -0.57735026 0.57735026 0.57735026
vn -0 0 1
vn -0.7071067 0 0.7071068
vn -0.7016976 0.35378617 0.6184302
vn -0 0.49652693 0.8680213
vn -0 0 1
vn 0.23979548 0.727395 0.6429577
vn -0.23976722 0.7273987 0.6429641
vn -0 0.49653387 0.8680173
vn -0 0 1
vn -0 0.49640924 0.86808854
vn 0.23989764 0.727382 0.6429343
vn -0.23978943 0.7273958 0.64295906
vn 0.23978937 0.7273959 0.64295906
vn -0.23979534 0.7273951 0.6429577
vn -0.7071067 0 -0.7071068
vn -0.7016976 0.35378617 -0.61843014
vn -0.7016976 0.35378617 0.6184302
vn -0.7071067 0 0.7071068
vn -0.7016976 0.35378617 -0.61843014
vn -0.23976722 0.7273987 0.6429641
vn -0.7016976 0.35378617 0.6184302
vn -0.23976722 0.7273987 -0.64296407
vn 0.23979548 0.727395 0.6429577
vn 0.23979548 0.727395 -0.6429576
vn -0 0.49652693 0.8680213
vn -0 0.49652693 -0.8680213
vn -0.23979534 0.7273951 0.6429577
vn -0.23979537 0.7273951 -0.6429577
vn 0.23978937 0.7273959 0.64295906
vn 0.23978934 0.7273959 -0.6429591
vn -0 0.49653387 0.8680173
vn -0 0.49653387 -0.8680173
vn -0.23978943 0.7273958 0.64295906
vn -0.23978943 0.7273958 -0.64295906
vn 0.23989764 0.727382 0.6429343
vn 0.23989758 0.72738194 -0.6429343
vn -0.23976722 0.7273987 -0.64296407
vn -0 0.49652693 -0.8680213
vn 0.23979548 0.727395 -0.6429576
vn -0.7016976 0.35378617 -0.61843014
vn -0.7071067 0 -0.7071068
vn -0 0 -1
vn -0 0.49653387 -0.8680173
vn -0.23979537 0.7273951 -0.6429577
vn 0.23978934 0.7273959 -0.6429591
vn -0 0 -1
vn -0 0.49640927 -0.86808866
vn -0 0 -1
vn -0.23978943 0.7273958 -0.64295906
vn 0.23989758 0.72738194 -0.6429343
vn -0 0.49640924 0.86808854
vn 0.23989764 0.727382 0.6429343
vn 0.23989758 0.72738194 -0.6429343
vn -0 0.49640927 -0.86808866
vn -0.23989715 0.72738194 0.64293456
vn -0.23989728 0.7273821 -0.6429342
vn 0.23973116 0.7274032 0.6429724
vn 0.23973116 0.7274033 -0.64297235
vn -0 0.49660087 0.86797905
vn -0 0.49660075 -0.86797905
vn -0.23973143 0.7274032 0.64297235
vn -0.23973148 0.7274032 -0.64297235
vn 0.23976737 0.7273987 0.6429641
vn 0.23976737 0.7273987 -0.6429641
vn 0.70169765 0.353786 0.6184302
vn 0.70169765 0.353786 -0.6184302
vn -0 0 1
vn -0 0 1
vn -0 0.49640924 0.86808854
vn -0 0.49660087 0.86797905
vn 0.7071067 0 0.7071068
vn 0.70169765 0.353786 0.6184302
vn 0.23976737 0.7273987 0.6429641
vn -0.23973143 0.7274032 0.64297235
vn 0.23973116 0.7274032 0.6429724
vn -0.23989715 0.72738194 0.64293456
vn -0.23989728 0.7273821 -0.6429342
vn -0 0.49660075 -0.86797905
vn 0.23973116 0.7274033 -0.64297235
vn -0 0.49640927 -0.86808866
vn -0 0 -1
vn -0 0 -1
vn 0.70169765 0.353786 -0.6184302
vn 0.7071067 0 -0.7071068
vn -0.23973148 0.7274032 -0.64297235
vn 0.23976737 0.7273987 -0.6429641
vn 0.7071067 0 0.7071068
vn 0.70169765 0.353786 0.6184302
vn 0.70169765 0.353786 -0.6184302
vn 0.7071067 0 -0.7071068
vn -0 0.70710677 0.70710677
vn -0 0.70710677 -0.7071067
vn 0.57735026 0.57735026 -0.5773502
vn 0.57735026 0.57735026 0.57735026
vn -0 0 1
vn -0 0.70710677 0.70710677
vn 0.57735026 0.57735026 0.57735026
vn 0.70710677 0 0.70710677
vn 0.70710677 0 0.70710677
vn 0.57735026 0.57735026 0.57735026
vn 0.57735026 0.57735026 -0.5773502
vn 0.70710677 0 -0.7071067
vn 0.70710677 0 -0.7071067
vn 0.57735026 0.57735026 -0.5773502
vn -0 0.70710677 -0.7071067
vn -0 0 -1
g fcbg_iceland_001_house_34_0
f 3/3/3 2/2/2 1/1/1
f 4/4/4 3/3/3 1/1/1
f 4/4/4 1/1/1 5/5/5
f 6/6/6 4/4/4 5/5/5
f 6/6/6 5/5/5 7/7/7
f 8/8/8 6/6/6 7/7/7
f 11/11/11 10/10/10 9/9/9
f 12/12/12 11/11/11 9/9/9
f 15/15/15 14/14/14 13/13/13
f 16/16/16 15/15/15 13/13/13
f 16/16/16 13/13/13 17/17/17
f 18/18/18 16/16/16 17/17/17
f 18/18/18 17/17/17 19/19/19
f 20/20/20 18/18/18 19/19/19
f 23/23/23 22/22/22 21/21/21
f 24/24/24 23/23/23 21/21/21
f 27/27/27 26/26/26 25/25/25
f 28/28/28 27/27/27 25/25/25
f 31/31/31 30/30/30 29/29/29
f 32/32/32 31/31/31 29/29/29
f 33/33/33 31/31/31 32/32/32
f 34/34/34 33/33/33 32/32/32
f 35/35/35 33/33/33 34/34/34
f 36/36/36 35/35/35 34/34/34
f 39/39/39 38/38/38 37/37/37
f 40/40/40 39/39/39 37/37/37
f 41/41/41 39/39/39 40/40/40
f 42/42/42 41/41/41 40/40/40
f 43/43/43 41/41/41 42/42/42
f 44/44/44 43/43/43 42/42/42
f 45/45/45 43/43/43 44/44/44
f 46/46/46 45/45/45 44/44/44
f 49/49/49 48/48/48 47/47/47
f 50/50/50 49/49/49 47/47/47
f 51/51/51 49/49/49 50/50/50
f 52/52/52 51/51/51 50/50/50
f 53/53/53 51/51/51 52/52/52
f 54/54/54 53/53/53 52/52/52
f 57/57/57 56/56/56 55/55/55
f 58/58/58 57/57/57 55/55/55
f 61/61/61 60/60/60 59/59/59
f 62/62/62 61/61/61 59/59/59
f 63/63/63 61/61/61 62/62/62
f 64/64/64 63/63/63 62/62/62
f 65/65/65 63/63/63 64/64/64
f 66/66/66 65/65/65 64/64/64
f 69/69/69 68/68/68 67/67/67
f 70/70/70 69/69/69 67/67/67
f 73/73/73 72/72/72 71/71/71
f 72/72/72 74/74/74 71/71/71
f 75/75/75 71/71/71 74/74/74
f 76/76/76 75/75/75 74/74/74
f 75/75/75 76/76/76 77/77/77
f 78/78/78 75/75/75 77/77/77
f 81/81/81 80/80/80 79/79/79
f 82/82/82 81/81/81 79/79/79
f 82/82/82 79/79/79 83/83/83
f 81/81/81 82/82/82 84/84/84
f 85/85/85 81/81/81 84/84/84
f 86/86/86 82/82/82 83/83/83
f 86/86/86 83/83/83 87/87/87
f 88/88/88 86/86/86 87/87/87
f 86/86/86 88/88/88 89/89/89
f 90/90/90 86/86/86 89/89/89
f 82/82/82 86/86/86 91/91/91
f 92/92/92 82/82/82 91/91/91
f 95/95/95 94/94/94 93/93/93
f 96/96/96 95/95/95 93/93/93
f 99/99/99 98/98/98 97/97/97
f 98/98/98 100/100/100 97/97/97
f 100/100/100 98/98/98 101/101/101
f 102/102/102 100/100/100 101/101/101
f 102/102/102 101/101/101 103/103/103
f 104/104/104 102/102/102 103/103/103
f 103/103/103 105/105/105 104/104/104
f 105/105/105 106/106/106 104/104/104
f 106/106/106 105/105/105 107/107/107
f 108/108/108 106/106/106 107/107/107
f 108/108/108 107/107/107 109/109/109
f 110/110/110 108/108/108 109/109/109
f 109/109/109 111/111/111 110/110/110
f 111/111/111 112/112/112 110/110/110
f 112/112/112 111/111/111 113/113/113
f 114/114/114 112/112/112 113/113/113
f 117/117/117 116/116/116 115/115/115
f 116/116/116 118/118/118 115/115/115
f 118/118/118 116/116/116 119/119/119
f 116/116/116 120/120/120 119/119/119
f 116/116/116 121/121/121 120/120/120
f 121/121/121 116/116/116 122/122/122
f 123/123/123 121/121/121 122/122/122
f 121/121/121 124/124/124 120/120/120
f 121/121/121 125/125/125 124/124/124
f 125/125/125 126/126/126 124/124/124
f 125/125/125 121/121/121 127/127/127
f 128/128/128 125/125/125 127/127/127
f 131/131/131 130/130/130 129/129/129
f 132/132/132 131/131/131 129/129/129
f 129/129/129 133/133/133 132/132/132
f 133/133/133 134/134/134 132/132/132
f 134/134/134 133/133/133 135/135/135
f 136/136/136 134/134/134 135/135/135
f 136/136/136 135/135/135 137/137/137
f 138/138/138 136/136/136 137/137/137
f 137/137/137 139/139/139 138/138/138
f 139/139/139 140/140/140 138/138/138
f 140/140/140 139/139/139 141/141/141
f 142/142/142 140/140/140 141/141/141
f 142/142/142 141/141/141 143/143/143
f 144/144/144 142/142/142 143/143/143
f 147/147/147 146/146/146 145/145/145
f 148/148/148 147/147/147 145/145/145
f 148/148/148 145/145/145 149/149/149
f 150/150/150 148/148/148 149/149/149
f 148/148/148 150/150/150 151/151/151
f 152/152/152 148/148/148 151/151/151
f 147/147/147 148/148/148 153/153/153
f 154/154/154 147/147/147 153/153/153
f 157/157/157 156/156/156 155/155/155
f 156/156/156 158/158/158 155/155/155
f 158/158/158 156/156/156 159/159/159
f 156/156/156 160/160/160 159/159/159
f 156/156/156 161/161/161 160/160/160
f 161/161/161 162/162/162 160/160/160
f 161/161/161 156/156/156 163/163/163
f 164/164/164 161/161/161 163/163/163
f 167/167/167 166/166/166 165/165/165
f 168/168/168 167/167/167 165/165/165
f 171/171/171 170/170/170 169/169/169
f 172/172/172 171/171/171 169/169/169
f 175/175/175 174/174/174 173/173/173
f 176/176/176 175/175/175 173/173/173
f 179/179/179 178/178/178 177/177/177
f 180/180/180 179/179/179 177/177/177
f 183/183/183 182/182/182 181/181/181
f 184/184/184 183/183/183 181/181/181
