g fcbg_cityforest_007_grass_01
v 0.08587718 -0.00355196 0.0024023056
v 0.09977198 0.5329609 0.08338308
v 0.034288883 -0.003431797 0.038553
v 0.17587018 0.52795815 0.025757313
v 0.24169064 0.79161835 0.22236848
v 0.33468628 0.78124356 0.14087033
v 0.5978985 0.9011004 0.5191815
v 0.26311958 0.91005707 0.44599342
v 0.56580365 0.87447 0.18134451
v 0.3765279 1.0367553 0.753911
v 0.8694161 0.9747782 0.3250556
v 0.62677836 1.0981364 1.0869763
v 1.175172 1.0236874 0.610796
v 0.8980696 0.96098495 0.8502233
v 1.1931133 0.9434271 1.1775653
v 0.9670727 1.0649884 1.3915172
v 1.4383103 0.9960778 0.9814484
v 1.3454994 0.93639636 1.6101902
v 1.6155019 0.89438844 1.3740287
v 1.4713845 0.86605835 1.4821618
v 1.7362504 0.7399516 1.7629919
v 0.112849236 0.0024161339 -0.018010378
v 0.029424667 0.004490137 0.015779734
v 0.07541442 0.49563694 -0.12940931
v -0.019761562 0.49629283 -0.090745926
v 0.031096935 0.762794 -0.29521906
v -0.10383749 0.7783749 -0.23963499
v -0.19854212 0.87484884 -0.69877934
v -0.28846598 0.89487815 -0.36269772
v 0.09843707 0.8492534 -0.52239144
v -0.5169549 1.0169754 -0.60208356
v 0.117413044 0.93967605 -0.8648708
v -0.7074132 1.0686562 -0.9743434
v 0.0033533573 0.978349 -1.2692486
v -0.3611877 0.92370725 -1.1169043
v -0.5335336 0.8933029 -1.5225016
v -0.83583426 1.0213914 -1.4118325
v -0.22175884 0.93985176 -1.6663003
v -0.8777869 0.87498283 -1.8412238
v -0.5252373 0.8263924 -1.9866762
v -0.7018423 0.8008616 -1.8985217
v -0.8671901 0.537534 -2.2461329
v -0.048895597 -0.0023925304 -0.023895502
v -0.11682677 0.30076718 -0.15459847
v -0.0082502365 -0.0029098988 -0.072125435
v -0.16734815 0.30685544 -0.08074975
v -0.23886871 0.53641605 -0.2607776
v -0.3081951 0.5447862 -0.15941167
v -0.5506296 0.55878735 -0.40824866
v -0.3043611 0.56248736 -0.42762196
v -0.49765563 0.5849142 -0.14472246
v -0.43895817 0.58346367 -0.648064
v -0.7524977 0.61689806 -0.18909526
v -0.6588321 0.57794356 -0.8569163
v -1.004642 0.6089852 -0.34761572
v -0.8057442 0.5528054 -0.60396826
v -1.0359654 0.5118184 -0.79891646
v -0.91824245 0.53735375 -1.0223426
v -1.2115955 0.5565748 -0.58487666
v -1.1732972 0.4622996 -1.1112363
v -1.3387234 0.46827674 -0.8602699
v -1.236018 0.44494486 -0.9802562
v -1.4110014 0.35651755 -1.1463892
v 0.11539912 0.006000757 0.013031244
v 0.050331593 0.010781765 -0.018093586
v 0.15994763 0.4903109 -0.0321455
v 0.07889271 0.4964223 -0.06978822
v 0.24977899 0.7353647 -0.1679666
v 0.13313246 0.73077774 -0.21588731
v 0.34089923 0.8022013 -0.5392842
v 0.09724522 0.8223183 -0.39720845
v 0.41281712 0.8031528 -0.26760948
v 0.0986588 0.90161777 -0.6722553
v 0.6167221 0.8681278 -0.46011412
v 0.19932699 0.92248297 -0.9984238
v 0.7800096 0.881958 -0.76075184
v 0.4825362 0.82105255 -0.87629426
v 0.61563194 0.77565885 -1.2063061
v 0.3750497 0.86506057 -1.3211973
v 0.87663615 0.8272655 -1.1154861
v 0.5982865 0.7325976 -1.5844972
v 0.88598096 0.70945954 -1.4659199
v 0.7342601 0.6811571 -1.5135586
v 0.839617 0.5456779 -1.7995578
v -0.011710167 0.0015246868 0.07474041
v -0.01016736 0.0012059212 0.16418386
v -0.14268112 0.7211833 0.06419921
v -0.1387732 0.72062445 0.17772317
v -0.37480545 1.0282094 0.048895597
v -0.37581706 1.0184121 0.19258332
v -0.8602426 1.1004784 0.119473696
v -0.574867 1.1020813 0.34235477
v -0.5722618 1.1307395 -0.09427953
v -0.90315604 1.1838198 0.48369145
v -0.8995483 1.2282991 -0.23304796
v -1.3387742 1.2015765 0.52331114
v -1.3350141 1.247654 -0.28053427
v -1.3285701 1.1206462 0.1155889
v -1.7836542 1.0584614 0.10848451
v -1.8056741 1.1305177 0.4606135
v -1.8018446 1.1667376 -0.23439217
v -2.2236557 0.97484756 0.30196834
v -2.2208195 0.9937959 -0.09717584
v -2.2040238 0.9333246 0.0999341
v -2.5925345 0.7558651 0.09060764
v 0.024689913 0.40642452 0.2472713
v -0.035046816 0.0049242973 0.17715955
v 0.01668477 0.004651785 0.17822194
v -0.043066025 0.412776 0.24588537
v -0.06604695 0.72753024 0.37195516
v 0.03742075 0.7182548 0.3745005
v -0.09415078 0.80244136 0.5763037
v 0.058914185 0.8008108 0.57997155
v 0.010665655 0.7956326 0.902015
v 0.18504882 0.8402827 0.6856241
v -0.17768145 0.8444586 0.7723882
v 0.32840872 0.8266511 0.88818026
v -0.26439953 0.83160305 1.0303714
v 0.38328135 0.77235126 1.1556144
v -0.27537036 0.7747302 1.3143749
v 0.035198927 0.7357111 1.1986153
v 0.051985264 0.6457503 1.4620032
v 0.3485073 0.6776233 1.4334004
v -0.21357799 0.67659783 1.569582
v 0.23266912 0.55427885 1.672694
v -0.08529544 0.55206156 1.74997
v 0.065408945 0.53610206 1.6848288
v 0.078560114 0.41043854 1.8719196
v 0.0039401054 0.5199621 0.13468981
v -0.030071735 0.00090551376 0.14728642
v -0.075558186 0.0018618107 0.022001982
v -0.041537046 0.52091837 0.009400606
v 0.13098454 0.8739712 0.087688446
v 0.075954914 0.8750243 -0.046834707
v 0.35599053 0.9719789 0.006878376
v 0.27926397 0.9726393 -0.15039945
v 0.7632508 0.9895091 -0.27792442
v 0.6120982 1.0346627 0.055505753
v 0.406327 1.0459938 -0.36630535
v 0.98427033 1.0819921 0.04988408
v 0.6502305 1.0958407 -0.63640034
v 1.3972309 1.0497587 -0.09622908
v 1.0251373 1.059413 -0.8596879
v 1.1856995 0.95357084 -0.47838807
v 1.5827187 0.840569 -0.6778585
v 1.7778147 0.9240582 -0.35308957
v 1.4558775 0.92755055 -1.0097088
v 2.0553236 0.7205968 -0.6858499
v 1.8690042 0.72035193 -1.0625582
v 1.936945 0.673563 -0.87001204
v 2.251145 0.46383762 -1.05829
v 0.040732622 -0.0022354126 -0.022135496
v -0.023373842 0.5278058 0.004993677
v -0.012019634 -0.002064705 -0.056096554
v 0.058179855 0.52068734 0.05423546
v -0.08411765 0.9814439 0.14564204
v 0.02507329 0.9666898 0.2036097
v -0.1916225 1.137114 0.48837996
v -0.2682197 1.1498494 0.20702791
v 0.08661151 1.0992498 0.3958509
v -0.486717 1.3300066 0.3584299
v 0.089318514 1.2418845 0.6663339
v -0.6697798 1.4172883 0.62389636
v -0.029725313 1.3114278 0.96665287
v -0.35212922 1.2222662 0.793226
v -0.5115781 1.1973035 1.0932446
v -0.79062057 1.3701484 0.95546484
v -0.23988032 1.2721639 1.2498343
v -0.8214314 1.1873028 1.3004386
v -0.50484324 1.1275752 1.4688582
v -0.6583562 1.0872903 1.3754005
v -0.7902558 0.90797377 1.6421604
vt 0.015222199 0.99483156
vt 0.019921364 0.9826137
vt 0.019921364 0.99483156
vt 0.015222199 0.9826137
vt 0.019921364 0.9713054
vt 0.015222199 0.9713054
vt 0.017844636 0.955495
vt 0.025090447 0.9644537
vt 0.010568509 0.96442336
vt 0.029759295 0.9540246
vt 0.005945136 0.9539943
vt 0.03133579 0.94063956
vt 0.0044141174 0.9405941
vt 0.017874954 0.9406092
vt 0.01790527 0.92604184
vt 0.029728977 0.9260721
vt 0.0060664047 0.92602664
vt 0.024893384 0.91211104
vt 0.0109626325 0.91208076
vt 0.017920429 0.9120959
vt 0.017950747 0.8984532
vt 0.019921364 0.99483156
vt 0.015222199 0.99483156
vt 0.019921364 0.9826137
vt 0.015222199 0.9826137
vt 0.019921364 0.9713054
vt 0.015222199 0.9713054
vt 0.017844636 0.955495
vt 0.010568509 0.96442336
vt 0.025090447 0.9644537
vt 0.005945136 0.9539943
vt 0.029759295 0.9540246
vt 0.0044141174 0.9405941
vt 0.03133579 0.94063956
vt 0.017874954 0.9406092
vt 0.01790527 0.92604184
vt 0.0060664047 0.92602664
vt 0.029728977 0.9260721
vt 0.0109626325 0.91208076
vt 0.024893384 0.91211104
vt 0.017920429 0.9120959
vt 0.017950747 0.8984532
vt 0.015222199 0.99483156
vt 0.019921364 0.9826137
vt 0.019921364 0.99483156
vt 0.015222199 0.9826137
vt 0.019921364 0.9713054
vt 0.015222199 0.9713054
vt 0.017844636 0.955495
vt 0.025090447 0.9644537
vt 0.010568509 0.96442336
vt 0.029759295 0.9540246
vt 0.005945136 0.9539943
vt 0.03133579 0.94063956
vt 0.0044141174 0.9405941
vt 0.017874954 0.9406092
vt 0.01790527 0.92604184
vt 0.029728977 0.9260721
vt 0.0060664047 0.92602664
vt 0.024893384 0.91211104
vt 0.0109626325 0.91208076
vt 0.017920429 0.9120959
vt 0.017950747 0.8984532
vt 0.019921364 0.99483156
vt 0.015222199 0.99483156
vt 0.019921364 0.9826137
vt 0.015222199 0.9826137
vt 0.019921364 0.9713054
vt 0.015222199 0.9713054
vt 0.017844636 0.955495
vt 0.010568509 0.96442336
vt 0.025090447 0.9644537
vt 0.005945136 0.9539943
vt 0.029759295 0.9540246
vt 0.0044141174 0.9405941
vt 0.03133579 0.94063956
vt 0.017874954 0.9406092
vt 0.01790527 0.92604184
vt 0.0060664047 0.92602664
vt 0.029728977 0.9260721
vt 0.0109626325 0.91208076
vt 0.024893384 0.91211104
vt 0.017920429 0.9120959
vt 0.017950747 0.8984532
vt 0.019921364 0.99483156
vt 0.015222199 0.99483156
vt 0.019921364 0.9826137
vt 0.015222199 0.9826137
vt 0.019921364 0.9713054
vt 0.015222199 0.9713054
vt 0.017844636 0.955495
vt 0.010568509 0.96442336
vt 0.025090447 0.9644537
vt 0.005945136 0.9539943
vt 0.029759295 0.9540246
vt 0.0044141174 0.9405941
vt 0.03133579 0.94063956
vt 0.017874954 0.9406092
vt 0.01790527 0.92604184
vt 0.0060664047 0.92602664
vt 0.029728977 0.9260721
vt 0.0109626325 0.91208076
vt 0.024893384 0.91211104
vt 0.017920429 0.9120959
vt 0.017950747 0.8984532
vt 0.015222199 0.99483156
vt 0.019921364 0.99483156
vt 0.015222199 0.99483156
vt 0.019921364 0.99483156
vt 0.019921364 0.9826137
vt 0.015222199 0.9826137
vt 0.019921364 0.9713054
vt 0.015222199 0.9713054
vt 0.017844636 0.955495
vt 0.010568509 0.96442336
vt 0.025090447 0.9644537
vt 0.005945136 0.9539943
vt 0.029759295 0.9540246
vt 0.0044141174 0.9405941
vt 0.03133579 0.94063956
vt 0.017874954 0.9406092
vt 0.01790527 0.92604184
vt 0.0060664047 0.92602664
vt 0.029728977 0.9260721
vt 0.0109626325 0.91208076
vt 0.024893384 0.91211104
vt 0.017920429 0.9120959
vt 0.017950747 0.8984532
vt 0.019921364 0.99483156
vt 0.019921364 0.99483156
vt 0.015222199 0.99483156
vt 0.015222199 0.99483156
vt 0.019921364 0.9826137
vt 0.015222199 0.9826137
vt 0.019921364 0.9713054
vt 0.015222199 0.9713054
vt 0.017844636 0.955495
vt 0.025090447 0.9644537
vt 0.010568509 0.96442336
vt 0.029759295 0.9540246
vt 0.005945136 0.9539943
vt 0.03133579 0.94063956
vt 0.0044141174 0.9405941
vt 0.017874954 0.9406092
vt 0.01790527 0.92604184
vt 0.029728977 0.9260721
vt 0.0060664047 0.92602664
vt 0.024893384 0.91211104
vt 0.0109626325 0.91208076
vt 0.017920429 0.9120959
vt 0.017950747 0.8984532
vt 0.015222199 0.99483156
vt 0.019921364 0.9826137
vt 0.019921364 0.99483156
vt 0.015222199 0.9826137
vt 0.019921364 0.9713054
vt 0.015222199 0.9713054
vt 0.017844636 0.955495
vt 0.025090447 0.9644537
vt 0.010568509 0.96442336
vt 0.029759295 0.9540246
vt 0.005945136 0.9539943
vt 0.03133579 0.94063956
vt 0.0044141174 0.9405941
vt 0.017874954 0.9406092
vt 0.01790527 0.92604184
vt 0.029728977 0.9260721
vt 0.0060664047 0.92602664
vt 0.024893384 0.91211104
vt 0.0109626325 0.91208076
vt 0.017920429 0.9120959
vt 0.017950747 0.8984532
vn -0.5711875 0.13688695 -0.8093249
vn -0.54210484 0.37730324 -0.7508426
vn -0.56730974 0.13688695 -0.8120478
vn -0.54210484 0.39475286 -0.741817
vn -0.22607362 0.8465029 -0.48199952
vn -0.33464873 0.8620137 -0.38071325
vn -0.061272144 0.9764054 -0.2070707
vn 0.12291783 0.88334095 -0.45232728
vn -0.3404653 0.9395673 -0.03600888
vn 0.17720538 0.91630125 -0.3591522
vn -0.24546206 0.96865 0.0382834
vn 0.24118716 0.9298731 -0.27778536
vn -0.15627539 0.98416066 0.083700724
vn 0.0414865 0.9938549 -0.10262215
vn 0.14812279 0.9880384 0.04289239
vn 0.328435 0.9279343 -0.17626226
vn -0.057394385 0.980283 0.18907963
vn 0.4118052 0.90660703 -0.09208763
vn 0.027914584 0.95701694 0.28868553
vn 0.24118716 0.9647722 0.10508715
vn 0.27802515 0.9473227 0.1590021
vn 0.37108952 0.2318902 0.89917713
vn 0.3691507 0.2318902 0.8999748
vn 0.365273 0.38699746 0.84664553
vn 0.365273 0.38699746 0.84664553
vn 0.21016568 0.8445641 0.49248543
vn 0.34394574 0.84068644 0.41826746
vn 0.16751117 0.9783442 0.121583745
vn 0.46609277 0.88140213 0.07673204
vn -0.09423244 0.94926155 0.3000379
vn 0.40184963 0.9157057 -0
vn -0.10974312 0.9783442 0.1754967
vn 0.34782344 0.9298731 -0.119811624
vn -0.12913156 0.98997724 0.057185218
vn 0.11319152 0.9935732 -0
vn 0.05505836 0.98222184 -0.17946811
vn 0.29741353 0.9201789 -0.25458986
vn -0.17760265 0.98222184 -0.06080719
vn 0.21404338 0.86589134 -0.4521257
vn -0.2648505 0.9279343 -0.2622826
vn -0.045761347 0.90660703 -0.4194873
vn -0.12137616 0.81742036 -0.56310904
vn 0.71232563 0.4063859 0.5722261
vn 0.7394694 0.47812307 0.47390226
vn 0.7006926 0.40832472 0.58506477
vn 0.7414082 0.48393953 0.4648832
vn 0.36333418 0.9027294 0.23036475
vn 0.39241678 0.90854585 0.14336503
vn 0.04730302 0.99773264 -0.04787522
vn -0.005045712 0.98997724 0.14113693
vn 0.17332768 0.9764054 -0.1288024
vn -0.057394385 0.9957937 0.07141979
vn 0.10546827 0.980283 -0.1670978
vn -0.12718794 0.9918787 -0
vn 0.04536414 0.98222184 -0.18216015
vn -0.03412831 0.9957937 -0.08503036
vn -0.13300931 0.98416066 -0.11720199
vn -0.21820596 0.9759028 -0
vn -0.03606713 0.9725276 -0.22997658
vn -0.33464873 0.94150615 -0.03970345
vn -0.10974312 0.9531392 -0.28192577
vn -0.23770666 0.95701694 -0.16617478
vn -0.2900554 0.9376285 -0.19162628
vn -0.41995776 0.123315096 0.8991267
vn -0.41995776 0.12137616 0.8993905
vn -0.37536442 0.34240413 0.86131346
vn -0.3734256 0.35403717 0.85744447
vn -0.26291168 0.8717079 0.41352478
vn -0.12913156 0.8542583 0.5035552
vn 0.008526146 0.99191606 0.12660898
vn 0.27414745 0.89885163 0.34191945
vn -0.3055662 0.94926155 0.07437639
vn 0.27802515 0.9395673 0.19978805
vn -0.2259952 0.9741284 -0
vn 0.31098545 0.9473227 0.07660104
vn -0.16403067 0.980283 -0.11017777
vn 0.07248154 0.99736977 -0
vn 0.13842857 0.9783442 -0.15388356
vn 0.365273 0.9298731 -0.04372231
vn -0.10586548 0.9647722 -0.24084654
vn 0.42149943 0.89109635 -0.16818294
vn -0.059333324 0.9298731 -0.3630641
vn 0.19465494 0.9376285 -0.2880316
vn 0.21792108 0.9104847 -0.35146558
vn 0.9837509 0.17953917 -0
vn 0.98376346 0.17760265 -0.025821622
vn 0.91008747 0.41220248 -0.042777937
vn 0.91202635 0.40832472 -0.038456023
vn 0.45058203 0.88334095 0.12916885
vn 0.46415395 0.8852798 -0.028997289
vn 0.10546827 0.99191606 0.07056213
vn 0.1830219 0.9531392 -0.24089134
vn 0.17138886 0.91630125 0.361964
vn 0.06863028 0.97446644 -0.21378733
vn 0.05505836 0.94150615 0.33246765
vn -0.045761347 0.9783442 -0.20186266
vn -0.055455565 0.9473227 0.3154431
vn -0.045761347 0.99773264 0.04935084
vn -0.20862412 0.9764054 0.055753935
vn -0.18341911 0.9608946 -0.20745848
vn -0.19505215 0.9318119 0.30607378
vn -0.32107687 0.9221177 -0.21589017
vn -0.32495463 0.8969128 0.29991978
vn -0.35209835 0.9356897 0.022618283
vn -0.41608012 0.90854585 0.037706885
vn 0.0414865 0.26872814 -0.9623222
vn 0.029853404 0.16790843 -0.9853505
vn 0.029853404 0.16790843 -0.9853505
vn 0.04342532 0.28036118 -0.95891184
vn 0.05699718 0.7398666 -0.67033476
vn 0.05699718 0.71660054 -0.6951511
vn 0.089957535 0.98222184 -0.16476616
vn -0.053516746 0.98997724 -0.13069439
vn 0.04730302 0.99191606 0.117749706
vn -0.19505215 0.980283 0.03162069
vn 0.24891074 0.9685264 -0
vn -0.08841586 0.9783442 0.18715031
vn 0.20628798 0.9628334 0.17434768
vn -0.074844 0.9628334 0.2595192
vn 0.21792108 0.94150615 0.25705364
vn 0.06863028 0.9647722 0.25397724
vn 0.093835175 0.92405665 0.3705594
vn -0.065149784 0.9318119 0.35704622
vn 0.24700367 0.9027294 0.352234
vn -0.057394385 0.8775244 0.47608492
vn 0.28384167 0.8465029 0.4504073
vn 0.11710131 0.8639525 0.48976868
vn 0.14230621 0.8271146 0.5437191
vn -0.91436243 0.21250176 0.344651
vn -0.9376285 0.06902754 0.34071684
vn -0.9376285 0.06902754 0.34071684
vn -0.91436243 0.21444058 0.34344804
vn -0.662313 0.6972121 0.27429327
vn -0.6564965 0.7030287 0.27342817
vn -0.19699109 0.980283 0.015483213
vn -0.14658117 0.9764054 0.15857643
vn 0.022098064 0.99967146 0.012985435
vn -0.16596961 0.9647722 -0.20412901
vn 0.0705691 0.9453839 0.3182284
vn -0.055455565 0.9705888 -0.23426919
vn 0.17138886 0.95701694 0.23397526
vn 0.04536414 0.9608946 -0.2731734
vn 0.2625144 0.95120037 0.16218528
vn 0.15200043 0.9860995 -0.06710937
vn 0.2857805 0.94926155 -0.13127095
vn 0.1539393 0.9298731 -0.33412373
vn 0.38272256 0.9182401 0.10177736
vn 0.254759 0.8852798 -0.3890727
vn 0.49323654 0.8697691 0.014812316
vn 0.3982333 0.8969128 -0.1922438
vn 0.45058203 0.86589134 -0.21727419
vn 0.53589106 0.1078043 -0.83737624
vn 0.5184415 0.21444058 -0.8277885
vn 0.5378299 0.1078043 -0.8361323
vn 0.5165026 0.21444058 -0.8289996
vn 0.48742002 0.69915104 -0.523077
vn 0.3187408 0.70108986 -0.63786936
vn 0.26445323 0.9318119 -0.24857797
vn 0.61538357 0.7786435 -0.12254546
vn -0.055455565 0.8561971 -0.5136644
vn 0.5416532 0.84060204 -0
vn -0.12525392 0.9279343 -0.35106894
vn 0.46027625 0.8717079 0.16814005
vn -0.18729687 0.96671116 -0.17432547
vn 0.15772815 0.98748255 -0
vn 0.027914584 0.9705888 0.23911951
vn 0.36333418 0.8639525 0.34867513
vn -0.29005343 0.95701045 -0
vn 0.2605756 0.81742036 0.51373565
vn -0.381181 0.8930352 0.23914269
vn -0.07872164 0.894974 0.43911785
vn -0.13107038 0.8523195 0.506332
g fcbg_cityforest_007_grass_01_0
f 3/3/3 2/2/2 1/1/1
f 4/4/4 1/1/1 2/2/2
f 2/2/2 5/5/5 4/4/4
f 6/6/6 4/4/4 5/5/5
f 6/6/6 5/5/5 7/7/7
f 5/5/5 8/8/8 7/7/7
f 9/9/9 6/6/6 7/7/7
f 10/10/10 7/7/7 8/8/8
f 11/11/11 9/9/9 7/7/7
f 10/10/10 12/12/12 7/7/7
f 11/11/11 7/7/7 13/13/13
f 14/14/14 7/7/7 12/12/12
f 14/14/14 13/13/13 7/7/7
f 14/14/14 12/12/12 15/15/15
f 14/14/14 15/15/15 13/13/13
f 16/16/16 15/15/15 12/12/12
f 17/17/17 13/13/13 15/15/15
f 16/16/16 18/18/18 15/15/15
f 17/17/17 15/15/15 19/19/19
f 20/20/20 15/15/15 18/18/18
f 20/20/20 19/19/19 15/15/15
f 18/18/18 21/21/21 20/20/20
f 19/19/19 20/20/20 21/21/21
f 24/24/24 23/23/23 22/22/22
f 23/23/23 24/24/24 25/25/25
f 25/25/25 24/24/24 26/26/26
f 27/27/27 25/25/25 26/26/26
f 26/26/26 28/28/28 27/27/27
f 27/27/27 28/28/28 29/29/29
f 30/30/30 28/28/28 26/26/26
f 29/29/29 28/28/28 31/31/31
f 28/28/28 30/30/30 32/32/32
f 28/28/28 33/33/33 31/31/31
f 34/34/34 28/28/28 32/32/32
f 33/33/33 28/28/28 35/35/35
f 28/28/28 34/34/34 35/35/35
f 36/36/36 33/33/33 35/35/35
f 34/34/34 36/36/36 35/35/35
f 33/33/33 36/36/36 37/37/37
f 36/36/36 34/34/34 38/38/38
f 36/36/36 39/39/39 37/37/37
f 40/40/40 36/36/36 38/38/38
f 39/39/39 36/36/36 41/41/41
f 36/36/36 40/40/40 41/41/41
f 41/41/41 42/42/42 39/39/39
f 42/42/42 41/41/41 40/40/40
f 45/45/45 44/44/44 43/43/43
f 46/46/46 43/43/43 44/44/44
f 44/44/44 47/47/47 46/46/46
f 48/48/48 46/46/46 47/47/47
f 48/48/48 47/47/47 49/49/49
f 47/47/47 50/50/50 49/49/49
f 51/51/51 48/48/48 49/49/49
f 52/52/52 49/49/49 50/50/50
f 53/53/53 51/51/51 49/49/49
f 52/52/52 54/54/54 49/49/49
f 53/53/53 49/49/49 55/55/55
f 56/56/56 49/49/49 54/54/54
f 56/56/56 55/55/55 49/49/49
f 56/56/56 54/54/54 57/57/57
f 56/56/56 57/57/57 55/55/55
f 58/58/58 57/57/57 54/54/54
f 59/59/59 55/55/55 57/57/57
f 58/58/58 60/60/60 57/57/57
f 59/59/59 57/57/57 61/61/61
f 62/62/62 57/57/57 60/60/60
f 62/62/62 61/61/61 57/57/57
f 60/60/60 63/63/63 62/62/62
f 61/61/61 62/62/62 63/63/63
f 66/66/66 65/65/65 64/64/64
f 65/65/65 66/66/66 67/67/67
f 68/68/68 67/67/67 66/66/66
f 67/67/67 68/68/68 69/69/69
f 68/68/68 70/70/70 69/69/69
f 69/69/69 70/70/70 71/71/71
f 72/72/72 70/70/70 68/68/68
f 71/71/71 70/70/70 73/73/73
f 70/70/70 72/72/72 74/74/74
f 70/70/70 75/75/75 73/73/73
f 76/76/76 70/70/70 74/74/74
f 75/75/75 70/70/70 77/77/77
f 70/70/70 76/76/76 77/77/77
f 78/78/78 75/75/75 77/77/77
f 76/76/76 78/78/78 77/77/77
f 75/75/75 78/78/78 79/79/79
f 78/78/78 76/76/76 80/80/80
f 78/78/78 81/81/81 79/79/79
f 82/82/82 78/78/78 80/80/80
f 81/81/81 78/78/78 83/83/83
f 78/78/78 82/82/82 83/83/83
f 83/83/83 84/84/84 81/81/81
f 84/84/84 83/83/83 82/82/82
f 87/87/87 86/86/86 85/85/85
f 86/86/86 87/87/87 88/88/88
f 88/88/88 87/87/87 89/89/89
f 90/90/90 88/88/88 89/89/89
f 89/89/89 91/91/91 90/90/90
f 90/90/90 91/91/91 92/92/92
f 93/93/93 91/91/91 89/89/89
f 92/92/92 91/91/91 94/94/94
f 91/91/91 93/93/93 95/95/95
f 91/91/91 96/96/96 94/94/94
f 97/97/97 91/91/91 95/95/95
f 96/96/96 91/91/91 98/98/98
f 91/91/91 97/97/97 98/98/98
f 99/99/99 96/96/96 98/98/98
f 97/97/97 99/99/99 98/98/98
f 96/96/96 99/99/99 100/100/100
f 99/99/99 97/97/97 101/101/101
f 99/99/99 102/102/102 100/100/100
f 103/103/103 99/99/99 101/101/101
f 102/102/102 99/99/99 104/104/104
f 99/99/99 103/103/103 104/104/104
f 104/104/104 105/105/105 102/102/102
f 105/105/105 104/104/104 103/103/103
f 108/108/108 107/107/107 106/106/106
f 107/107/107 109/109/109 106/106/106
f 110/110/110 106/106/106 109/109/109
f 106/106/106 110/110/110 111/111/111
f 111/111/111 110/110/110 112/112/112
f 113/113/113 111/111/111 112/112/112
f 112/112/112 114/114/114 113/113/113
f 113/113/113 114/114/114 115/115/115
f 116/116/116 114/114/114 112/112/112
f 115/115/115 114/114/114 117/117/117
f 114/114/114 116/116/116 118/118/118
f 114/114/114 119/119/119 117/117/117
f 120/120/120 114/114/114 118/118/118
f 119/119/119 114/114/114 121/121/121
f 114/114/114 120/120/120 121/121/121
f 122/122/122 119/119/119 121/121/121
f 120/120/120 122/122/122 121/121/121
f 119/119/119 122/122/122 123/123/123
f 122/122/122 120/120/120 124/124/124
f 122/122/122 125/125/125 123/123/123
f 126/126/126 122/122/122 124/124/124
f 125/125/125 122/122/122 127/127/127
f 122/122/122 126/126/126 127/127/127
f 127/127/127 128/128/128 125/125/125
f 128/128/128 127/127/127 126/126/126
f 131/131/131 130/130/130 129/129/129
f 132/132/132 131/131/131 129/129/129
f 129/129/129 133/133/133 132/132/132
f 133/133/133 134/134/134 132/132/132
f 133/133/133 135/135/135 134/134/134
f 135/135/135 136/136/136 134/134/134
f 136/136/136 135/135/135 137/137/137
f 135/135/135 138/138/138 137/137/137
f 139/139/139 136/136/136 137/137/137
f 140/140/140 137/137/137 138/138/138
f 141/141/141 139/139/139 137/137/137
f 140/140/140 142/142/142 137/137/137
f 141/141/141 137/137/137 143/143/143
f 144/144/144 137/137/137 142/142/142
f 144/144/144 143/143/143 137/137/137
f 144/144/144 142/142/142 145/145/145
f 144/144/144 145/145/145 143/143/143
f 146/146/146 145/145/145 142/142/142
f 147/147/147 143/143/143 145/145/145
f 146/146/146 148/148/148 145/145/145
f 147/147/147 145/145/145 149/149/149
f 150/150/150 145/145/145 148/148/148
f 150/150/150 149/149/149 145/145/145
f 148/148/148 151/151/151 150/150/150
f 149/149/149 150/150/150 151/151/151
f 154/154/154 153/153/153 152/152/152
f 155/155/155 152/152/152 153/153/153
f 153/153/153 156/156/156 155/155/155
f 157/157/157 155/155/155 156/156/156
f 157/157/157 156/156/156 158/158/158
f 156/156/156 159/159/159 158/158/158
f 160/160/160 157/157/157 158/158/158
f 161/161/161 158/158/158 159/159/159
f 162/162/162 160/160/160 158/158/158
f 161/161/161 163/163/163 158/158/158
f 162/162/162 158/158/158 164/164/164
f 165/165/165 158/158/158 163/163/163
f 165/165/165 164/164/164 158/158/158
f 165/165/165 163/163/163 166/166/166
f 165/165/165 166/166/166 164/164/164
f 167/167/167 166/166/166 163/163/163
f 168/168/168 164/164/164 166/166/166
f 167/167/167 169/169/169 166/166/166
f 168/168/168 166/166/166 170/170/170
f 171/171/171 166/166/166 169/169/169
f 171/171/171 170/170/170 166/166/166
f 169/169/169 172/172/172 171/171/171
f 170/170/170 171/171/171 172/172/172
