g fcbg_cityforest_005_substation_12
v 1.4181249 2.562589 -0.46077704
v 0.75896186 2.7744863 -1.0446223
v 0.876449 2.562589 -1.2063297
v 1.2280266 2.7744863 -0.39901036
v 1.4181249 2.562589 0.46077684
v -9.02174E-09 2.7744865 -1.1676581E-07
v 1.2280266 2.7744863 0.3990101
v 1.5397656E-08 2.7744863 -1.2912239
v 0.87644964 2.562589 1.2063289
v 1.7781229E-08 2.562589 -1.491105
v 0.75896245 2.7744863 1.0446217
v 1.1257527E-07 2.562589 1.4911047
v -0.7589622 2.7744863 -1.0446221
v -0.87644947 2.562589 -1.2063292
v 9.7484644E-08 2.7744863 1.2912236
v -0.87644935 2.562589 1.2063291
v -1.2280266 2.7744863 -0.39901018
v -1.418125 2.562589 -0.46077687
v -0.75896215 2.7744863 1.044622
v -1.4181249 2.562589 0.46077666
v -1.2280266 2.7744863 0.39901
v 1.4181249 -2.014119E-08 -0.46077693
v 1.4181249 2.562589 -0.46077704
v 0.876449 2.562589 -1.2063297
v 1.4181249 2.014121E-08 0.46077695
v 0.876449 -5.2730336E-08 -1.2063296
v 1.4181249 2.562589 0.46077684
v 1.7781229E-08 2.562589 -1.491105
v 0.87644964 5.273032E-08 1.206329
v 1.7781247E-08 -6.517826E-08 -1.4911048
v 0.87644964 2.562589 1.2063289
v -0.87644947 2.562589 -1.2063292
v 1.12575286E-07 6.517826E-08 1.4911048
v -0.87644947 -5.2730325E-08 -1.2063291
v 1.1257527E-07 2.562589 1.4911047
v -1.418125 2.562589 -0.46077687
v -0.87644935 5.273032E-08 1.2063292
v -1.418125 -2.01412E-08 -0.46077675
v -0.87644935 2.562589 1.2063291
v -1.4181249 2.562589 0.46077666
v -1.4181249 2.0141185E-08 0.46077678
vt 0.7997211 0.088127576
vt 0.8194339 0.07461605
vt 0.81529284 0.06842183
vt 0.80694485 0.09047378
vt 0.7997211 0.11414298
vt 0.83821917 0.10045371
vt 0.80694485 0.11119171
vt 0.83821917 0.06911563
vt 0.8156645 0.13276678
vt 0.83821917 0.061637618
vt 0.81980073 0.12638631
vt 0.83821917 0.13944367
vt 0.8194339 0.07461605
vt 0.81529284 0.06842183
vt 0.83821917 0.13190714
vt 0.8156645 0.13276678
vt 0.80694485 0.09047378
vt 0.7997211 0.088127576
vt 0.81980073 0.12638631
vt 0.7997211 0.11414298
vt 0.80694485 0.11119171
vt 0.9075572 0.060714897
vt 0.9075572 0.114606775
vt 0.9270131 0.114606775
vt 0.8881008 0.060714897
vt 0.9270131 0.060714897
vt 0.8881008 0.114606775
vt 0.94599676 0.114606716
vt 0.86864513 0.060714852
vt 0.94599676 0.060714852
vt 0.86864513 0.114606775
vt 0.9270131 0.114606716
vt 0.84918875 0.060714807
vt 0.9270131 0.060714807
vt 0.84918875 0.114606716
vt 0.9075572 0.1146066
vt 0.8686448 0.060714807
vt 0.9075572 0.06071463
vt 0.8686448 0.114606716
vt 0.8881008 0.114606716
vt 0.8881008 0.060714763
vn 0.8921867 0.3463557 -0.28989765
vn 0.26952562 0.88866866 -0.37097716
vn 0.5514022 0.34635106 -0.75894433
vn 0.4361019 0.88867116 -0.14169918
vn 0.8921907 0.3463515 0.28989038
vn -0 1 0
vn 0.4361019 0.88867116 0.14169918
vn -0 0.8886749 -0.45853764
vn 0.5514022 0.34635106 0.75894433
vn -0 0.34635228 -0.93810445
vn 0.2695271 0.88867354 0.3709643
vn -0 0.34635228 0.93810445
vn -0.2695271 0.88867354 -0.3709643
vn -0.5514022 0.34635106 -0.75894433
vn -0 0.8886749 0.45853764
vn -0.5514022 0.34635106 0.75894433
vn -0.43610215 0.88867164 -0.14169553
vn -0.89218974 0.3463511 -0.2898938
vn -0.2695271 0.88867354 0.3709643
vn -0.8921867 0.3463557 0.28989765
vn -0.43610215 0.88867164 0.14169553
vn 0.951056 0 -0.3090186
vn 0.8921867 0.3463557 -0.28989765
vn 0.5514022 0.34635106 -0.75894433
vn 0.9510571 0 0.3090152
vn 0.5877903 0 -0.80901337
vn 0.8921907 0.3463515 0.28989038
vn -0 0.34635228 -0.93810445
vn 0.58778316 0 0.80901855
vn -0 0 -1
vn 0.5514022 0.34635106 0.75894433
vn -0.5514022 0.34635106 -0.75894433
vn -0 0 1
vn -0.58778316 0 -0.80901855
vn -0 0.34635228 0.93810445
vn -0.89218974 0.3463511 -0.2898938
vn -0.5877881 0 0.80901504
vn -0.951056 0 -0.3090186
vn -0.5514022 0.34635106 0.75894433
vn -0.8921867 0.3463557 0.28989765
vn -0.951056 0 0.3090186
g fcbg_cityforest_005_substation_12_0
f 3/3/3 2/2/2 1/1/1
f 2/2/2 4/4/4 1/1/1
f 1/1/1 4/4/4 5/5/5
f 2/2/2 6/6/6 4/4/4
f 4/4/4 6/6/6 7/7/7
f 4/4/4 7/7/7 5/5/5
f 8/8/8 6/6/6 2/2/2
f 8/8/8 2/2/2 3/3/3
f 5/5/5 7/7/7 9/9/9
f 10/10/10 8/8/8 3/3/3
f 7/7/7 11/11/11 9/9/9
f 7/7/7 6/6/6 11/11/11
f 9/9/9 11/11/11 12/12/12
f 13/13/13 8/8/8 10/10/10
f 13/13/13 6/6/6 8/8/8
f 14/14/14 13/13/13 10/10/10
f 11/11/11 15/15/15 12/12/12
f 11/11/11 6/6/6 15/15/15
f 12/12/12 15/15/15 16/16/16
f 17/17/17 13/13/13 14/14/14
f 17/17/17 6/6/6 13/13/13
f 18/18/18 17/17/17 14/14/14
f 15/15/15 19/19/19 16/16/16
f 15/15/15 6/6/6 19/19/19
f 16/16/16 19/19/19 20/20/20
f 21/21/21 17/17/17 18/18/18
f 21/21/21 6/6/6 17/17/17
f 20/20/20 21/21/21 18/18/18
f 19/19/19 21/21/21 20/20/20
f 19/19/19 6/6/6 21/21/21
f 24/24/24 23/23/23 22/22/22
f 22/22/22 23/23/23 25/25/25
f 26/26/26 24/24/24 22/22/22
f 23/23/23 27/27/27 25/25/25
f 28/28/28 24/24/24 26/26/26
f 25/25/25 27/27/27 29/29/29
f 30/30/30 28/28/28 26/26/26
f 27/27/27 31/31/31 29/29/29
f 32/32/32 28/28/28 30/30/30
f 29/29/29 31/31/31 33/33/33
f 34/34/34 32/32/32 30/30/30
f 31/31/31 35/35/35 33/33/33
f 36/36/36 32/32/32 34/34/34
f 33/33/33 35/35/35 37/37/37
f 38/38/38 36/36/36 34/34/34
f 35/35/35 39/39/39 37/37/37
f 40/40/40 36/36/36 38/38/38
f 37/37/37 39/39/39 41/41/41
f 41/41/41 40/40/40 38/38/38
f 39/39/39 40/40/40 41/41/41
