g fcbg_common_crystal_27
v 2.5905669 0.4978094 3.0517578E-05
v 3.8409681 0.5735369 3.2767792
v -0.4415307 2.4794354 3.0517578E-05
v 0.16146326 1.5239549 3.074153
v 5.445463 0.58814335 6.096156
v 2.7314117 -0.87148905 5.4080896
v -0.7483053 -1.6059394 4.095213
v -1.8595791 1.2686043 2.294805
v -2.877018 2.2563357 3.0517578E-05
v -2.9969387 -0.64966583 2.8960266
v -5.4454584 1.097116 3.0517578E-05
v 3.8409681 0.5735369 3.2767792
v 2.1803815 -1.5368378 2.547855
v 2.5905669 0.4978094 3.0517578E-05
v 2.7314117 -0.87148905 5.4080896
v 0.7393179 -2.0932505 3.0517578E-05
v -2.9516668 -2.4794405 3.0517578E-05
v -0.7483053 -1.6059394 4.095213
v -5.2011366 -1.0874786 3.0517578E-05
v -2.9969387 -0.64966583 2.8960266
v -5.4454584 1.097116 3.0517578E-05
vt 0.54918134 0.2922781
vt 0.56628096 0.33224288
vt 0.579557 0.26413286
vt 0.5976732 0.29748234
vt 0.57931423 0.36956757
vt 0.609963 0.34662652
vt 0.63622683 0.30995426
vt 0.6115713 0.27607372
vt 0.6016484 0.2464112
vt 0.6385179 0.278031
vt 0.6301881 0.23014612
vt 0.56628096 0.33224288
vt 0.5323549 0.3264621
vt 0.54918134 0.2922781
vt 0.54186815 0.36108607
vt 0.51269114 0.2976644
vt 0.469176 0.3003955
vt 0.49899027 0.34732446
vt 0.43916452 0.30846733
vt 0.46770427 0.34072438
vt 0.42072973 0.3265683
vn 0.9082621 0.20693499 -0.36364534
vn 0.8472314 0.3752318 -0.376032
vn 0.08342308 0.965195 0.24786924
vn -0.1514526 0.7987477 0.5822922
vn 0.78065246 0.18289262 0.5976052
vn -0.031240642 -0.52358377 0.8514012
vn -0.28645986 -0.52173436 0.80357575
vn -0.32899636 0.6877828 0.64708287
vn -0.24762219 0.84498304 0.4740115
vn -0.5897638 -0.06492895 0.8049614
vn -0.6544934 0.3493399 0.6705222
vn 0.8472314 0.3752318 -0.376032
vn 0.50693905 -0.85832787 -0.07928483
vn 0.9082621 0.20693499 -0.36364534
vn -0.031240642 -0.52358377 0.8514012
vn 0.37563062 -0.9267562 -0.0049555134
vn -0.28091162 -0.8953161 0.34568432
vn -0.28645986 -0.52173436 0.80357575
vn -0.7136746 -0.39042592 0.58158076
vn -0.5897638 -0.06492895 0.8049614
vn -0.6544934 0.3493399 0.6705222
g fcbg_common_crystal_27_0
f 3/3/3 2/2/2 1/1/1
f 4/4/4 2/2/2 3/3/3
f 5/5/5 2/2/2 4/4/4
f 5/5/5 4/4/4 6/6/6
f 4/4/4 7/7/7 6/6/6
f 8/8/8 4/4/4 3/3/3
f 8/8/8 7/7/7 4/4/4
f 9/9/9 8/8/8 3/3/3
f 10/10/10 7/7/7 8/8/8
f 11/11/11 8/8/8 9/9/9
f 10/10/10 8/8/8 11/11/11
f 5/5/5 13/13/13 12/12/12
f 12/12/12 13/13/13 14/14/14
f 15/15/15 13/13/13 5/5/5
f 14/14/14 13/13/13 16/16/16
f 17/17/17 16/16/16 13/13/13
f 15/15/15 18/18/18 13/13/13
f 18/18/18 17/17/17 13/13/13
f 17/17/17 18/18/18 19/19/19
f 18/18/18 20/20/20 19/19/19
f 19/19/19 20/20/20 21/21/21
