g fcbg_campaign_light_06
v 0.08262444 0.08343372 0.15258801
v -1.4901161E-07 0.16070017 0.06770362
v 0.063967854 0.16069984 7.793307E-06
v 0.16524777 0.08343372 7.793307E-06
v 0.08342258 -0.054312885 0.15406048
v 0.08262444 0.08343372 -0.15258007
v -1.4901161E-07 0.16069984 -0.06768771
v 0.16684723 -0.054312885 7.793307E-06
v 0.053021483 -0.13276222 0.09792364
v -0.08262539 0.08343372 -0.15258007
v -0.06396881 0.16069984 7.793307E-06
v 0.08342354 -0.054312885 -0.15405254
v 0.1060428 -0.13276222 7.793307E-06
v -1.4901161E-07 -0.1607005 7.793307E-06
v 0.053021483 -0.13276222 -0.09790774
v -0.05302243 -0.13276222 -0.09790774
v -0.08342448 -0.054312885 -0.15405254
v -0.16524968 0.08343372 7.793307E-06
v -0.16684723 -0.054312885 7.793307E-06
v -0.08262539 0.08343372 0.15258801
v -1.4901161E-07 0.16070017 0.06770362
v 0.08262444 0.08343372 0.15258801
v -0.08342448 -0.054312885 0.15406048
v 0.08342258 -0.054312885 0.15406048
v -0.1060428 -0.13276222 7.793307E-06
v -1.4901161E-07 -0.1607005 7.793307E-06
v -0.05302243 -0.13276222 0.09792364
v 0.053021483 -0.13276222 0.09792364
vt 0.009396444 0.5252631
vt 0.015572408 0.5332388
vt 0.025421062 0.52973056
vt 0.021054035 0.52103305
vt 0.007660596 0.50817865
vt 0.032401 0.5194525
vt 0.03805621 0.52860683
vt 0.02023179 0.5101886
vt 0.0155541375 0.49790975
vt 0.042203974 0.5191967
vt 0.050791852 0.5301417
vt 0.032401 0.50937545
vt 0.022981739 0.50279754
vt 0.028993255 0.49458423
vt 0.032665946 0.5028158
vt 0.04354697 0.5006414
vt 0.04294399 0.5092019
vt 0.052500293 0.5213254
vt 0.053971197 0.5110017
vt 0.063408725 0.5243951
vt 0.06097854 0.5351117
vt 0.0750115 0.52916414
vt 0.06590287 0.5137334
vt 0.07841011 0.51279235
vt 0.054455407 0.50434154
vt 0.0585849 0.49678603
vt 0.06399343 0.5059221
vt 0.07134795 0.5018017
vn 0.47028047 0.40748584 0.78281003
vn -0.00015640259 0.87027335 0.49256906
vn 0.5313623 0.8471448 -0
vn 0.9157671 0.40170953 -0
vn 0.4855792 -0.29816943 0.82177114
vn 0.47028047 0.40748584 -0.78281003
vn -0.00015640259 0.87027335 -0.49256906
vn 0.95601606 -0.29243237 -0.022728693
vn 0.31346816 -0.79729146 0.51581395
vn -0.46868086 0.40748584 -0.78376883
vn -0.5315867 0.8470039 -0
vn 0.4855792 -0.29816943 -0.82177114
vn 0.6136542 -0.7895749 -0
vn -0.00015640259 -1 -0
vn 0.31346816 -0.79729146 -0.51581395
vn -0.31378102 -0.79729146 -0.51562375
vn -0.48589206 -0.29816943 -0.8215862
vn -0.9142573 0.4017489 -0.052263062
vn -0.9562899 -0.29242045 -0
vn -0.46868086 0.40748584 0.78376883
vn -0.00015640259 0.87027335 0.49256906
vn 0.47028047 0.40748584 0.78281003
vn -0.48589206 -0.29816943 0.8215862
vn 0.4855792 -0.29816943 0.82177114
vn -0.6138491 -0.78942335 -0
vn -0.00015640259 -1 -0
vn -0.31378102 -0.79729146 0.51562375
vn 0.31346816 -0.79729146 0.51581395
g fcbg_campaign_light_06_0
f 3/3/3 2/2/2 1/1/1
f 4/4/4 3/3/3 1/1/1
f 4/4/4 1/1/1 5/5/5
f 6/6/6 3/3/3 4/4/4
f 7/7/7 3/3/3 6/6/6
f 8/8/8 4/4/4 5/5/5
f 6/6/6 4/4/4 8/8/8
f 5/5/5 9/9/9 8/8/8
f 10/10/10 7/7/7 6/6/6
f 11/11/11 7/7/7 10/10/10
f 12/12/12 6/6/6 8/8/8
f 10/10/10 6/6/6 12/12/12
f 9/9/9 13/13/13 8/8/8
f 8/8/8 13/13/13 12/12/12
f 9/9/9 14/14/14 13/13/13
f 13/13/13 14/14/14 15/15/15
f 13/13/13 15/15/15 12/12/12
f 15/15/15 14/14/14 16/16/16
f 12/12/12 15/15/15 17/17/17
f 17/17/17 10/10/10 12/12/12
f 15/15/15 16/16/16 17/17/17
f 18/18/18 11/11/11 10/10/10
f 18/18/18 10/10/10 17/17/17
f 17/17/17 16/16/16 19/19/19
f 19/19/19 18/18/18 17/17/17
f 20/20/20 11/11/11 18/18/18
f 20/20/20 18/18/18 19/19/19
f 21/21/21 11/11/11 20/20/20
f 22/22/22 21/21/21 20/20/20
f 22/22/22 20/20/20 23/23/23
f 23/23/23 20/20/20 19/19/19
f 24/24/24 22/22/22 23/23/23
f 16/16/16 25/25/25 19/19/19
f 19/19/19 25/25/25 23/23/23
f 16/16/16 26/26/26 25/25/25
f 23/23/23 27/27/27 24/24/24
f 25/25/25 27/27/27 23/23/23
f 25/25/25 26/26/26 27/27/27
f 27/27/27 28/28/28 24/24/24
f 27/27/27 26/26/26 28/28/28
