g fcbg_common_crystal_12
v 8.698314 -0.20028019 -1.0813341
v 9.576689 -0.20028019 7.6293945E-06
v 8.904216 2.7534704 7.6293945E-06
v 8.393051 3.2887707 -0.51984787
v 8.775106 5.06501 7.6293945E-06
v 7.6268024 3.1987848 -0.70104504
v 7.7705865 -0.20028019 -1.2680311
v 6.7532434 3.1521387 7.6293945E-06
v 5.8574295 -0.20028019 -1.3898735
v 6.1074414 4.045787 7.6293945E-06
v 4.9632974 -0.20028019 -2.3568096
v 4.6800895 6.3828297 -1.3734608
v 5.3316755 6.048588 7.6293945E-06
v 3.0742755 -0.20028019 -2.766306
v 6.429459 10.537058 7.6293945E-06
v 3.1281018 4.869053 -1.8222508
v 0.5499954 -0.20028019 -2.5250988
v 2.0848289 5.7214127 -2.5504875
v -1.8591385 -0.20028019 -2.9042196
v 5.494494 10.3393345 -1.5154209
v 8.373105 15.378321 7.6293945E-06
v 4.839004 10.112717 -2.2117152
v 4.725994 10.570938 -1.5928693
v 5.2037063 12.563368 7.6293945E-06
v 3.4307432 10.493547 7.6293945E-06
v 3.5013242 9.9797325 -1.6609998
v 0.584815 6.336155 -1.9904261
v -3.1717997 -0.20028019 -2.107026
v 5.158542 16.997015 7.6293945E-06
v -2.5556898 3.1735668 -2.0320568
v -3.8650455 -0.20028019 -3.8364778
v -2.4202833 6.5692406 -3.3357139
v -6.042774 -0.20028019 -3.7637596
v -3.1826563 7.14563 -2.703333
v -6.5086327 -0.20028019 -2.9737182
v -1.9589558 5.962676 -1.887361
v -2.4892683 6.823841 -1.8062086
v 4.0165925 17.358297 -1.5754309
v 5.4307513 18.262917 7.6293945E-06
v 4.88867 20.302048 7.6293945E-06
v -1.2660236 9.202343 -1.7139144
v 3.1449423 17.343252 -1.3972826
v -5.3091526 5.371128 -1.432559
v -8.430082 -0.20028019 -1.7961211
v 2.1325855 17.147352 7.6293945E-06
v -2.1479607 10.068008 7.6293945E-06
v -2.1944637 9.02066 -2.6110673
v -3.6627054 9.271328 -1.7873735
v -6.037019 5.7301884 7.6293945E-06
v -9.425741 -0.20028019 7.6293945E-06
v -8.430082 -0.20028019 1.7961369
v -4.4468203 9.561317 7.6293945E-06
v -5.3091526 5.371128 1.4325743
v -6.5086327 -0.20028019 2.9737053
v -3.1826563 7.14563 2.703349
v -6.042774 -0.20028019 3.7637472
v -3.6627054 9.271328 1.7873898
v -2.1944637 9.02066 2.6110544
v -1.2660236 9.202343 1.7139301
v -2.4202833 6.5692406 3.3357296
v -3.8650455 -0.20028019 3.8364658
v 3.1449423 17.343252 1.3972692
v -2.4892683 6.823841 1.8061962
v -2.5556898 3.1735668 2.0320444
v -3.1717997 -0.20028019 2.1070423
v 4.0165925 17.358297 1.5754461
v 5.4307513 18.262917 7.6293945E-06
v 5.158542 16.997015 7.6293945E-06
v 0.584815 6.336155 1.9904423
v -1.8591385 -0.20028019 2.9042358
v 3.4307432 10.493547 7.6293945E-06
v -1.9589558 5.962676 1.8873768
v 2.0848289 5.7214127 2.5504751
v 0.5499954 -0.20028019 2.525115
v 3.5013242 9.9797325 1.6610155
v 4.725994 10.570938 1.5928564
v 5.2037063 12.563368 7.6293945E-06
v 8.373105 15.378321 7.6293945E-06
v 4.839004 10.112717 2.2117023
v 4.6800895 6.3828297 1.373477
v 3.1281018 4.869053 1.8222666
v 3.0742755 -0.20028019 2.7663221
v 4.9632974 -0.20028019 2.3568258
v 5.494494 10.3393345 1.5154371
v 6.429459 10.537058 7.6293945E-06
v 5.3316755 6.048588 7.6293945E-06
v 6.1074414 4.045787 7.6293945E-06
v 5.8574295 -0.20028019 1.3898897
v 6.7532434 3.1521387 7.6293945E-06
v 7.6268024 3.1987848 0.70106125
v 7.7705865 -0.20028019 1.2680178
v 8.775106 5.06501 7.6293945E-06
v 8.698314 -0.20028019 1.0813217
v 8.393051 3.2887707 0.5198641
v 8.904216 2.7534704 7.6293945E-06
v 9.576689 -0.20028019 7.6293945E-06
vt 0.20834212 0.29032063
vt 0.19413532 0.29023045
vt 0.19826958 0.32085398
vt 0.2056962 0.32634127
vt 0.19944221 0.3447575
vt 0.21370913 0.3261759
vt 0.2179336 0.29158348
vt 0.22436799 0.33037028
vt 0.23720674 0.29484576
vt 0.23077233 0.33946565
vt 0.25042132 0.29346266
vt 0.25365356 0.36159518
vt 0.23743224 0.35897934
vt 0.26975462 0.29317704
vt 0.22814144 0.40325344
vt 0.2702507 0.34642622
vt 0.29439476 0.29283127
vt 0.2842771 0.3558824
vt 0.31837344 0.28992978
vt 0.24621189 0.40239653
vt 0.214987 0.45474368
vt 0.2548262 0.39874333
vt 0.25475103 0.40543333
vt 0.25144362 0.43154678
vt 0.27486604 0.41460383
vt 0.26810092 0.3991643
vt 0.30156583 0.36342928
vt 0.3336777 0.2888173
vt 0.2739039 0.4853823
vt 0.33025002 0.32428166
vt 0.3532064 0.2889676
vt 0.34129974 0.35559675
vt 0.37601244 0.2879754
vt 0.34893686 0.36329398
vt 0.3850928 0.29038078
vt 0.327108 0.3548
vt 0.33414373 0.364196
vt 0.29356793 0.48469073
vt 0.27830875 0.5007767
vt 0.2931169 0.5191178
vt 0.3280551 0.39080557
vt 0.3021822 0.48258603
vt 0.3768243 0.34934276
vt 0.407974 0.29256067
vt 0.319516 0.48260105
vt 0.3472681 0.40544835
vt 0.34069842 0.38386002
vt 0.3560628 0.38521305
vt 0.39142194 0.35768643
vt 0.42790863 0.298965
vt 0.407974 0.29256067
vt 0.3724495 0.39603728
vt 0.3768243 0.34934276
vt 0.3850928 0.29038078
vt 0.34893686 0.36329398
vt 0.37601244 0.2879754
vt 0.3560628 0.38521305
vt 0.34069842 0.38386002
vt 0.3280551 0.39080557
vt 0.34129974 0.35559675
vt 0.3532064 0.2889676
vt 0.3021822 0.48258603
vt 0.33414373 0.364196
vt 0.33025002 0.32428166
vt 0.3336777 0.2888173
vt 0.29356793 0.48469073
vt 0.27830875 0.5007767
vt 0.2739039 0.4853823
vt 0.30156583 0.36342928
vt 0.31837344 0.28992978
vt 0.27486604 0.41460383
vt 0.327108 0.3548
vt 0.2842771 0.3558824
vt 0.29439476 0.29283127
vt 0.26810092 0.3991643
vt 0.25475103 0.40543333
vt 0.25144362 0.43154678
vt 0.214987 0.45474368
vt 0.2548262 0.39874333
vt 0.25365356 0.36159518
vt 0.2702507 0.34642622
vt 0.26975462 0.29317704
vt 0.25042132 0.29346266
vt 0.24621189 0.40239653
vt 0.22814144 0.40325344
vt 0.23743224 0.35897934
vt 0.23077233 0.33946565
vt 0.23720674 0.29484576
vt 0.22436799 0.33037028
vt 0.21370913 0.3261759
vt 0.2179336 0.29158348
vt 0.19944221 0.3447575
vt 0.20834212 0.29032063
vt 0.2056962 0.32634127
vt 0.19826958 0.32085398
vt 0.19413532 0.29023045
vn 0.51489896 0.18051845 -0.8380287
vn 0.97592777 0.21538621 -0.034260247
vn 0.98367614 0.17470723 -0.043111693
vn 0.47228283 0.16114753 -0.8665912
vn 0.3772827 0.9260982 -0
vn -0.20957488 0.3897249 -0.896768
vn 0.13329107 0.1688959 -0.97657955
vn -0.30642968 0.9514827 -0.027955968
vn 0.42579252 0.22507173 -0.87638086
vn 0.9643052 0.26187652 -0.039193507
vn 0.4935909 0.16502172 -0.85389453
vn 0.6698666 -0.06549269 -0.73958737
vn 0.9931822 0.11657331 -0
vn 0.048058808 0.17277008 -0.983789
vn 0.94880843 -0.31344098 -0.038952675
vn 0.30375546 -0.013191104 -0.9526587
vn 0.09648621 0.029424965 -0.9948993
vn 0.10036039 0.048795998 -0.99375385
vn -0.2831846 0.19407815 -0.9392232
vn 0.6524328 0.031362116 -0.7571973
vn 0.56717503 0.8235973 -0
vn 0.2475797 0.3664797 -0.89688176
vn -0.23088294 0.70934564 -0.6659744
vn -0.6914508 0.72242355 -0
vn 0.175906 0.984407 -0
vn -0.5330699 0.6279877 -0.56698143
vn -0.13596529 0.1688959 -0.97621083
vn 0.4567861 0.0352363 -0.8888784
vn 0.97133416 -0.23771816 -0
vn 0.557515 -0.08486366 -0.8258179
vn 0.48196834 -0.03643626 -0.8754307
vn 0.46259737 0.44783777 -0.7651438
vn -0.5563151 0.2967443 -0.7761806
vn -0.13790244 0.37422806 -0.91702574
vn -0.65316993 0.35873133 -0.66684395
vn 0.47034574 0.103034675 -0.87644666
vn 0.59819406 0.22894591 -0.7679503
vn 0.31731516 0.14371365 -0.9373673
vn 0.99723583 0.073978245 -0.0069224807
vn 0.2765847 0.96098953 -0
vn -0.013928235 0.38197643 -0.9240671
vn -0.46720868 0.41103286 -0.782795
vn -0.7267795 0.35292 -0.5892699
vn -0.674478 0.41103286 -0.6132956
vn -0.8255715 0.5640635 -0.016251406
vn -0.47495705 0.87981015 -0.01870506
vn 0.22627163 0.3800394 -0.89686745
vn -0.50207645 0.6434844 -0.57779497
vn -0.89918107 0.4362151 -0.034493666
vn -0.8623763 0.5040135 -0.04772434
vn -0.674478 0.41103286 0.6132956
vn -0.68610054 0.7267795 -0.032520227
vn -0.7267795 0.35292 0.5892699
vn -0.65316993 0.35873133 0.66684395
vn -0.13790244 0.37422806 0.91702574
vn -0.5563151 0.2967443 0.7761806
vn -0.50207645 0.6434844 0.57779497
vn 0.22627163 0.3800394 0.89686745
vn -0.013928235 0.38197643 0.9240671
vn 0.46259737 0.44783777 0.7651438
vn 0.48196834 -0.03643626 0.8754307
vn -0.46720868 0.41103286 0.782795
vn 0.59819406 0.22894591 0.7679503
vn 0.557515 -0.08486366 0.8258179
vn 0.4567861 0.0352363 0.8888784
vn 0.31731516 0.14371365 0.9373673
vn 0.99723583 0.073978245 -0.0069224807
vn 0.97133416 -0.23771816 -0
vn -0.13596529 0.1688959 0.97621083
vn -0.2831846 0.19407815 0.9392232
vn 0.175906 0.984407 -0
vn 0.47034574 0.103034675 0.87644666
vn 0.10036039 0.048795998 0.99375385
vn 0.09648621 0.029424965 0.9948993
vn -0.5330699 0.6279877 0.56698143
vn -0.23088294 0.70934564 0.6659744
vn -0.6914508 0.72242355 -0
vn 0.56717503 0.8235973 -0
vn 0.2475797 0.3664797 0.89688176
vn 0.6698666 -0.06549269 0.73958737
vn 0.30375546 -0.013191104 0.9526587
vn 0.048058808 0.17277008 0.983789
vn 0.4935909 0.16502172 0.85389453
vn 0.6524328 0.031362116 0.7571973
vn 0.94880843 -0.31344098 -0.038952675
vn 0.9931822 0.11657331 -0
vn 0.9643052 0.26187652 -0.039193507
vn 0.42579252 0.22507173 0.87638086
vn -0.30642968 0.9514827 -0.027955968
vn -0.20957488 0.3897249 0.896768
vn 0.13329107 0.1688959 0.97657955
vn 0.3772827 0.9260982 -0
vn 0.51489896 0.18051845 0.8380287
vn 0.47228283 0.16114753 0.8665912
vn 0.98367614 0.17470723 -0.043111693
vn 0.97592777 0.21538621 -0.034260247
g fcbg_common_crystal_12_0
f 3/3/3 2/2/2 1/1/1
f 4/4/4 3/3/3 1/1/1
f 4/4/4 5/5/5 3/3/3
f 4/4/4 1/1/1 6/6/6
f 4/4/4 6/6/6 5/5/5
f 1/1/1 7/7/7 6/6/6
f 6/6/6 8/8/8 5/5/5
f 7/7/7 9/9/9 6/6/6
f 9/9/9 8/8/8 6/6/6
f 10/10/10 8/8/8 9/9/9
f 11/11/11 10/10/10 9/9/9
f 12/12/12 10/10/10 11/11/11
f 12/12/12 13/13/13 10/10/10
f 14/14/14 12/12/12 11/11/11
f 15/15/15 13/13/13 12/12/12
f 14/14/14 16/16/16 12/12/12
f 17/17/17 16/16/16 14/14/14
f 16/16/16 17/17/17 18/18/18
f 16/16/16 18/18/18 12/12/12
f 17/17/17 19/19/19 18/18/18
f 20/20/20 15/15/15 12/12/12
f 21/21/21 15/15/15 20/20/20
f 12/12/12 22/22/22 20/20/20
f 18/18/18 22/22/22 12/12/12
f 21/21/21 20/20/20 23/23/23
f 23/23/23 20/20/20 22/22/22
f 24/24/24 21/21/21 23/23/23
f 25/25/25 24/24/24 23/23/23
f 26/26/26 23/23/23 22/22/22
f 26/26/26 22/22/22 18/18/18
f 23/23/23 26/26/26 25/25/25
f 19/19/19 27/27/27 18/18/18
f 27/27/27 26/26/26 18/18/18
f 25/25/25 26/26/26 27/27/27
f 28/28/28 27/27/27 19/19/19
f 29/29/29 25/25/25 27/27/27
f 27/27/27 28/28/28 30/30/30
f 28/28/28 31/31/31 30/30/30
f 31/31/31 32/32/32 30/30/30
f 33/33/33 32/32/32 31/31/31
f 32/32/32 33/33/33 34/34/34
f 34/34/34 33/33/33 35/35/35
f 30/30/30 32/32/32 36/36/36
f 30/30/30 36/36/36 27/27/27
f 36/36/36 32/32/32 37/37/37
f 32/32/32 34/34/34 37/37/37
f 36/36/36 37/37/37 27/27/27
f 38/38/38 29/29/29 27/27/27
f 38/38/38 39/39/39 29/29/29
f 39/39/39 38/38/38 40/40/40
f 37/37/37 41/41/41 27/27/27
f 37/37/37 34/34/34 41/41/41
f 27/27/27 42/42/42 38/38/38
f 38/38/38 42/42/42 40/40/40
f 41/41/41 42/42/42 27/27/27
f 34/34/34 35/35/35 43/43/43
f 35/35/35 44/44/44 43/43/43
f 42/42/42 45/45/45 40/40/40
f 45/45/45 42/42/42 41/41/41
f 46/46/46 45/45/45 41/41/41
f 34/34/34 47/47/47 41/41/41
f 41/41/41 47/47/47 46/46/46
f 47/47/47 34/34/34 48/48/48
f 34/34/34 43/43/43 48/48/48
f 47/47/47 48/48/48 46/46/46
f 49/49/49 43/43/43 44/44/44
f 50/50/50 49/49/49 44/44/44
f 49/49/49 50/50/50 51/51/51
f 52/52/52 48/48/48 43/43/43
f 49/49/49 52/52/52 43/43/43
f 52/52/52 46/46/46 48/48/48
f 53/53/53 49/49/49 51/51/51
f 52/52/52 49/49/49 53/53/53
f 51/51/51 54/54/54 53/53/53
f 54/54/54 55/55/55 53/53/53
f 56/56/56 55/55/55 54/54/54
f 57/57/57 52/52/52 53/53/53
f 46/46/46 52/52/52 57/57/57
f 53/53/53 55/55/55 57/57/57
f 57/57/57 58/58/58 46/46/46
f 55/55/55 58/58/58 57/57/57
f 58/58/58 59/59/59 46/46/46
f 58/58/58 55/55/55 59/59/59
f 46/46/46 59/59/59 45/45/45
f 56/56/56 60/60/60 55/55/55
f 60/60/60 56/56/56 61/61/61
f 59/59/59 62/62/62 45/45/45
f 45/45/45 62/62/62 40/40/40
f 55/55/55 63/63/63 59/59/59
f 55/55/55 60/60/60 63/63/63
f 60/60/60 61/61/61 64/64/64
f 61/61/61 65/65/65 64/64/64
f 62/62/62 66/66/66 40/40/40
f 66/66/66 67/67/67 40/40/40
f 67/67/67 66/66/66 68/68/68
f 62/62/62 59/59/59 69/69/69
f 62/62/62 69/69/69 66/66/66
f 68/68/68 66/66/66 69/69/69
f 59/59/59 63/63/63 69/69/69
f 65/65/65 69/69/69 64/64/64
f 69/69/69 65/65/65 70/70/70
f 71/71/71 68/68/68 69/69/69
f 60/60/60 64/64/64 72/72/72
f 60/60/60 72/72/72 63/63/63
f 63/63/63 72/72/72 69/69/69
f 72/72/72 64/64/64 69/69/69
f 69/69/69 70/70/70 73/73/73
f 70/70/70 74/74/74 73/73/73
f 75/75/75 71/71/71 69/69/69
f 75/75/75 69/69/69 73/73/73
f 75/75/75 76/76/76 71/71/71
f 77/77/77 71/71/71 76/76/76
f 78/78/78 77/77/77 76/76/76
f 76/76/76 75/75/75 79/79/79
f 79/79/79 75/75/75 73/73/73
f 80/80/80 79/79/79 73/73/73
f 81/81/81 80/80/80 73/73/73
f 74/74/74 81/81/81 73/73/73
f 81/81/81 74/74/74 82/82/82
f 81/81/81 82/82/82 80/80/80
f 80/80/80 82/82/82 83/83/83
f 84/84/84 78/78/78 76/76/76
f 84/84/84 76/76/76 79/79/79
f 79/79/79 80/80/80 84/84/84
f 85/85/85 78/78/78 84/84/84
f 85/85/85 84/84/84 80/80/80
f 86/86/86 85/85/85 80/80/80
f 86/86/86 80/80/80 87/87/87
f 87/87/87 80/80/80 83/83/83
f 87/87/87 83/83/83 88/88/88
f 89/89/89 87/87/87 88/88/88
f 89/89/89 88/88/88 90/90/90
f 88/88/88 91/91/91 90/90/90
f 89/89/89 90/90/90 92/92/92
f 91/91/91 93/93/93 90/90/90
f 90/90/90 94/94/94 92/92/92
f 93/93/93 94/94/94 90/90/90
f 92/92/92 94/94/94 95/95/95
f 95/95/95 94/94/94 93/93/93
f 96/96/96 95/95/95 93/93/93
