g fcbg_cityforest_007_stone_11
v -0.033516347 -0.06588736 0.11965209
v 0.053561717 -0.0063933134 0.29767638
v 0.39259744 0.045903623 0.25791156
v 0.5277325 0.032155216 -0.04009998
v 0.36502424 -0.0015387535 -0.29701197
v -0.03768587 -0.06943554 -0.23693079
v 0.34577152 0.22278601 0.27371198
v 0.39259744 0.045903623 0.25791156
v 0.053561717 -0.0063933134 0.29767638
v -0.00087332726 0.12373358 0.27879357
v -0.09305155 0.065029144 0.23896807
v -0.033516347 -0.06588736 0.11965209
v -0.100097954 0.18043298 0.16555035
v 0.04242304 0.27540094 0.20082074
v -0.11677909 0.08013189 -0.26505297
v -0.033516347 -0.06588736 0.11965209
v -0.03768587 -0.06943554 -0.23693079
v 0.14311254 0.30950785 0.07003045
v 0.028198063 0.20271522 -0.19599172
v 0.08562839 0.1622175 -0.30658698
v -0.03768587 -0.06943554 -0.23693079
v 0.36502424 -0.0015387535 -0.29701197
v 0.32814413 0.18151814 -0.2869947
v 0.39190662 0.2541442 -0.107529014
v 0.5295868 0.13871986 -0.11490622
v 0.5277325 0.032155216 -0.04009998
v 0.39259744 0.045903623 0.25791156
v -0.49648285 -0.3269738 0.11776745
v -0.4850731 -0.3126128 0.15370911
v -0.45529526 -0.33549297 0.15928674
v -0.46670496 -0.34985495 0.12333727
v -0.4850731 -0.3126128 0.15370911
v -0.28804755 -0.0776445 0.11708832
v -0.25827754 -0.10052857 0.12266499
v -0.29945338 -0.09200454 0.08115351
v -0.49648285 -0.3269738 0.11776745
v 0.016956627 0.06751853 0.031425238
v 0.028366327 0.081879556 0.067352235
v 0.058136374 0.058995485 0.07293671
v -0.45529526 -0.33549297 0.15928674
v -0.26968437 -0.11488959 0.08671552
v -0.46670496 -0.34985495 0.12333727
v -0.25827754 -0.10052857 0.12266499
v 0.046729565 0.04463446 0.036987245
v 0.058136374 0.058995485 0.07293671
v -0.46670496 -0.34985495 0.12333727
v -0.29945338 -0.09200454 0.08115351
v -0.49648285 -0.3269738 0.11776745
v -0.26968437 -0.11488959 0.08671552
v 0.016956627 0.06751853 0.031425238
v 0.046729565 0.04463446 0.036987245
vt 0.9695161 0.71048474
vt 0.980056 0.7037872
vt 0.9744519 0.6824949
vt 0.9550428 0.67710346
vt 0.94073653 0.6893443
vt 0.9471151 0.71399295
vt 0.9471151 0.71399295
vt 0.9511397 0.72987866
vt 0.9749379 0.7231963
vt 0.9702451 0.7105911
vt 0.980056 0.7037872
vt 0.99294984 0.7181998
vt 0.97067034 0.69997525
vt 0.9627882 0.7055793
vt 0.96634203 0.67610115
vt 0.98739135 0.6938093
vt 0.97894734 0.6735497
vt 0.95525545 0.6998082
vt 0.95896107 0.68569934
vt 0.9550732 0.6815685
vt 0.9570475 0.66323763
vt 0.93543625 0.6737471
vt 0.9444574 0.6827986
vt 0.94330317 0.6932626
vt 0.93419087 0.69318664
vt 0.92822236 0.69318664
vt 0.9367423 0.71399295
vt 0.9091777 0.57814425
vt 0.9039382 0.57814425
vt 0.9039382 0.57422596
vt 0.9091777 0.57422596
vt 0.9091777 0.57422596
vt 0.9091777 0.5601171
vt 0.9039382 0.5601171
vt 0.9132782 0.5601171
vt 0.9132782 0.57422596
vt 0.9132782 0.54600835
vt 0.9091777 0.54600835
vt 0.9039382 0.54600835
vt 0.9132782 0.57422596
vt 0.9091777 0.5601171
vt 0.9091777 0.57422596
vt 0.9132782 0.5601171
vt 0.9091777 0.54600835
vt 0.9132782 0.54600835
vt 0.9091777 0.57422596
vt 0.9039382 0.5601171
vt 0.9039382 0.57422596
vt 0.9091777 0.5601171
vt 0.9039382 0.54600835
vt 0.9091777 0.54600835
vn -0.424596 -0.8907421 0.16216268
vn -0.106185615 -0.57612234 0.8104367
vn 0.59318006 -0.45861372 0.66167283
vn 0.83956903 -0.5325304 0.1074019
vn 0.40554535 -0.56854117 -0.7157471
vn -0.3942712 -0.78839594 -0.4722098
vn 0.43776542 0.557267 0.70555997
vn 0.59318006 -0.45861372 0.66167283
vn -0.106185615 -0.57612234 0.8104367
vn -0.32224983 0.2843439 0.90294164
vn -0.80744666 -0.16673756 0.56588733
vn -0.424596 -0.8907421 0.16216268
vn -0.8263996 0.51177984 0.2348299
vn -0.32793576 0.8396668 0.43291777
vn -0.7941795 0.106185615 -0.59833395
vn -0.424596 -0.8907421 0.16216268
vn -0.3942712 -0.78839594 -0.4722098
vn -0.09481388 0.99508137 -0.028694574
vn -0.34688872 0.88136333 -0.3207287
vn -0.15925401 0.4700833 -0.86813587
vn -0.3942712 -0.78839594 -0.4722098
vn 0.40554535 -0.56854117 -0.7157471
vn 0.27287436 0.56863886 -0.77600867
vn 0.38090646 0.9022116 -0.20229802
vn 0.9248575 0.29571563 -0.23914611
vn 0.83956903 -0.5325304 0.1074019
vn 0.59318006 -0.45861372 0.66167283
vn -0.866201 -0.22928244 -0.44398805
vn -0.7430064 0.11376685 0.6595442
vn 0.18758583 -0.6329813 0.7510967
vn -0.00763005 -0.9438105 -0.33039895
vn -0.7430064 0.11376685 0.6595442
vn -0.43975848 0.7126816 0.54653215
vn 0.3960688 -0.35058165 0.8486589
vn -0.50988454 0.43596786 -0.74158597
vn -0.866201 -0.22928244 -0.44398805
vn -0.3374123 0.40374774 -0.8503768
vn -0.23317069 0.6785663 0.6965481
vn 0.36384875 -0.47188082 0.8030832
vn 0.18758583 -0.6329813 0.7510967
vn 0.42449832 -0.6386672 -0.64179856
vn -0.00763005 -0.9438105 -0.33039895
vn 0.3960688 -0.35058165 0.8486589
vn 0.38090646 -0.8604173 -0.33851486
vn 0.36384875 -0.47188082 0.8030832
vn -0.00763005 -0.9438105 -0.33039895
vn -0.50988454 0.43596786 -0.74158597
vn -0.866201 -0.22928244 -0.44398805
vn 0.42449832 -0.6386672 -0.64179856
vn -0.3374123 0.40374774 -0.8503768
vn 0.38090646 -0.8604173 -0.33851486
g fcbg_cityforest_007_stone_11_0
f 3/3/3 2/2/2 1/1/1
f 3/3/3 1/1/1 4/4/4
f 5/5/5 4/4/4 1/1/1
f 6/6/6 5/5/5 1/1/1
f 9/9/9 8/8/8 7/7/7
f 10/10/10 9/9/9 7/7/7
f 9/9/9 10/10/10 11/11/11
f 12/12/12 9/9/9 11/11/11
f 11/11/11 10/10/10 13/13/13
f 7/7/7 14/14/14 10/10/10
f 14/14/14 13/13/13 10/10/10
f 15/15/15 11/11/11 13/13/13
f 16/16/16 11/11/11 15/15/15
f 17/17/17 16/16/16 15/15/15
f 14/14/14 18/18/18 13/13/13
f 7/7/7 18/18/18 14/14/14
f 15/15/15 13/13/13 19/19/19
f 18/18/18 19/19/19 13/13/13
f 19/19/19 20/20/20 15/15/15
f 15/15/15 20/20/20 21/21/21
f 22/22/22 21/21/21 20/20/20
f 19/19/19 23/23/23 20/20/20
f 18/18/18 23/23/23 19/19/19
f 22/22/22 20/20/20 23/23/23
f 24/24/24 18/18/18 7/7/7
f 24/24/24 23/23/23 18/18/18
f 22/22/22 23/23/23 25/25/25
f 23/23/23 24/24/24 25/25/25
f 24/24/24 7/7/7 25/25/25
f 26/26/26 22/22/22 25/25/25
f 7/7/7 27/27/27 25/25/25
f 27/27/27 26/26/26 25/25/25
f 30/30/30 29/29/29 28/28/28
f 31/31/31 30/30/30 28/28/28
f 33/33/33 32/32/32 30/30/30
f 34/34/34 33/33/33 30/30/30
f 33/33/33 35/35/35 32/32/32
f 35/35/35 36/36/36 32/32/32
f 37/37/37 35/35/35 33/33/33
f 38/38/38 37/37/37 33/33/33
f 38/38/38 33/33/33 34/34/34
f 39/39/39 38/38/38 34/34/34
f 42/42/42 41/41/41 40/40/40
f 41/41/41 43/43/43 40/40/40
f 41/41/41 44/44/44 43/43/43
f 44/44/44 45/45/45 43/43/43
f 48/48/48 47/47/47 46/46/46
f 47/47/47 49/49/49 46/46/46
f 47/47/47 50/50/50 49/49/49
f 50/50/50 51/51/51 49/49/49
