g fcbg_OuterRim_stone_02
v 0.13865167 0.64776516 -0.7450369
v 0.27038616 9.435415E-05 -0.8733942
v 0.6931038 9.435415E-05 -0.70355546
v -0.59428084 9.435415E-05 -0.69385505
v 0.61266255 0.31778812 -0.65137064
v 0.9407164 9.435415E-05 0.042533815
v 0.7956382 0.3708986 0.0014531612
v 0.56612873 9.435415E-05 0.7346481
v 0.36846673 0.6477634 0.538043
v -0.41142023 9.435415E-05 0.88105273
v -0.53322077 0.5497997 -0.5732858
v -0.9439589 9.435415E-05 -0.12857562
v -0.36207175 0.5497979 0.6768789
v -0.9116099 9.435415E-05 0.43892896
v -0.8280628 0.35962367 -0.13619286
vt 0.6663483 0.7250409
vt 0.67805034 0.71823245
vt 0.66894704 0.7078222
vt 0.67805034 0.74048156
vt 0.66567963 0.7157856
vt 0.64800495 0.7069863
vt 0.6531873 0.7144179
vt 0.6338257 0.72233576
vt 0.64674354 0.72536004
vt 0.6338257 0.7412566
vt 0.66619635 0.73622626
vt 0.6640079 0.7545848
vt 0.6457405 0.7373205
vt 0.6476554 0.7545848
vt 0.6614851 0.7459678
vn 0.096927285 0.7678808 -0.63321733
vn 0.10048616 0.2287103 -0.96829444
vn 0.70371646 0.30166733 -0.6432573
vn -0.5703629 0.22159255 -0.79093796
vn 0.6610099 0.4849497 -0.5726165
vn 0.9243671 0.36750662 0.10239349
vn 0.80514455 0.5917162 0.04017764
vn 0.5382285 0.39063942 0.7468005
vn 0.34604895 0.79991066 0.49029893
vn -0.26251972 0.35505056 0.89723045
vn -0.4938469 0.6931442 -0.52503943
vn -0.8960005 0.42622817 -0.12454971
vn -0.31590295 0.7358508 0.5989398
vn -0.78567517 0.49206746 0.3749455
vn -0.79457235 0.60061336 -0.088985324
g fcbg_OuterRim_stone_02_0
f 3/3/3 2/2/2 1/1/1
f 2/2/2 4/4/4 1/1/1
f 5/5/5 3/3/3 1/1/1
f 6/6/6 3/3/3 5/5/5
f 7/7/7 6/6/6 5/5/5
f 5/5/5 1/1/1 7/7/7
f 6/6/6 7/7/7 8/8/8
f 7/7/7 9/9/9 8/8/8
f 7/7/7 1/1/1 9/9/9
f 10/10/10 8/8/8 9/9/9
f 4/4/4 11/11/11 1/1/1
f 1/1/1 11/11/11 9/9/9
f 4/4/4 12/12/12 11/11/11
f 13/13/13 10/10/10 9/9/9
f 11/11/11 13/13/13 9/9/9
f 10/10/10 13/13/13 14/14/14
f 12/12/12 15/15/15 11/11/11
f 12/12/12 14/14/14 15/15/15
f 14/14/14 13/13/13 15/15/15
f 11/11/11 15/15/15 13/13/13
