g fcbg_arkcity_002_garbage_02
v 0.38127017 0.0232988 -0.3739102
v -0.38126624 0.023301482 0.33874667
v 0.38127017 0.023301482 0.33874667
v -0.38126624 0.0232988 -0.37391287
v 0.5209149 1.9009252 -0.5044247
v -0.520911 1.9009252 -0.5044247
v -0.38126624 0.023301482 0.33874667
v -0.520911 1.9009252 0.4692558
v -0.57635045 1.9606333 0.521068
v -0.57635045 1.9606333 -0.64869547
v 0.57635164 1.9606333 -0.64869547
v -0.57635045 2.058798 0.521068
v 0.57635164 2.0587952 -0.64869547
v -0.57635045 2.0587952 -0.64869547
v -0.43055296 2.058798 0.3848095
v -0.43055296 2.0587952 -0.4199757
v 0.43055686 2.058798 -0.4199757
v 0.38127017 0.023301482 0.33874667
v -0.38126624 0.023301482 0.33874667
v -0.520911 1.9009252 0.4692558
v 0.5209149 1.9009252 0.4692558
v 0.57635164 1.9606333 0.521068
v -0.57635045 1.9606333 0.521068
v 0.57635164 2.058798 0.521068
v -0.57635045 2.058798 0.521068
v 0.43055686 2.058798 0.3848095
v -0.43055296 2.058798 0.3848095
v 0.38127017 0.0232988 -0.3739102
v 0.38127017 0.023301482 0.33874667
v 0.5209149 1.9009252 0.4692558
v 0.5209149 1.9009252 -0.5044247
v 0.57635164 1.9606333 -0.64869547
v 0.57635164 1.9606333 0.521068
v 0.57635164 2.0587952 -0.64869547
v 0.57635164 2.058798 0.521068
v 0.43055686 2.058798 -0.4199757
v 0.43055686 2.058798 0.3848095
v 0.55362475 0.37120748 0.20081806
v 0.55362475 0.1874705 0.30689764
v 0.55362475 0.3924023 0.36180925
v 0.55362475 0.24238205 0.10196859
v 0.55362475 0.29355276 0.49063468
v 0.55362475 0.08139092 0.12316334
v 0.55362475 0.13256162 0.5118294
v 0.55362475 -0.017458558 0.25198877
v 0.55362475 0.003736198 0.41297996
v -0.5497067 0.37121022 0.20081806
v -0.5497067 0.39240503 0.36180925
v -0.5497067 0.18747318 0.30689764
v -0.5497067 0.24238479 0.10196859
v -0.5497067 0.2935555 0.49063468
v -0.5497067 0.08139366 0.12316066
v -0.5497067 0.1325643 0.5118294
v -0.5497067 -0.017455876 0.25198877
v -0.5497067 0.0037389398 0.41297722
v 0.4674028 2.054394 0.4363159
v 0.4072101 2.1896617 -0.3976413
v 0.4674028 2.054394 -0.47148204
v -0.46739888 2.054394 -0.47148475
v 0.4072101 2.1896617 0.36247516
v 0.29227635 2.054394 0.4363159
v 0.29058728 2.1896617 0.36247516
v -0.40720618 2.1896617 -0.3976413
v -0.40720618 2.1896617 0.36247516
v -0.46739888 2.054394 0.4363159
v -0.2922724 2.054394 0.4363159
v -0.2905833 2.1896617 0.36247516
v -0.2922724 2.0431929 0.5193572
v -0.2905833 2.1309335 0.64869153
v -0.2922724 1.8240716 0.45961654
v 0.29058728 2.1309335 0.64869153
v 0.29227635 2.0431929 0.5193572
v -0.2905833 1.8511295 0.6286174
v 0.29227635 1.8240716 0.45961654
v 0.29058728 1.8511295 0.6286174
v 0.4049986 0.37120748 0.20081806
v 0.55362475 0.37120748 0.20081806
v 0.55362475 0.3924023 0.36180925
v 0.40499586 0.24238205 0.10196859
v 0.55362475 0.24238205 0.10196859
v 0.40499586 0.08139092 0.12316334
v 0.55362475 0.08139092 0.12316334
v 0.4049986 0.3924023 0.36180925
v 0.40499586 -0.017458558 0.25198877
v 0.55362475 0.29355276 0.49063468
v 0.55362475 -0.017458558 0.25198877
v 0.40499586 0.29355276 0.49063468
v 0.55362475 0.13256162 0.5118294
v 0.40499586 0.1874705 0.30689764
v 0.40499586 0.003736198 0.41297996
v 0.55362475 0.003736198 0.41297996
v 0.40499586 0.13256162 0.5118294
v -0.40107775 0.37121022 0.20081806
v -0.40107775 0.39240503 0.36180925
v -0.5497067 0.39240503 0.36180925
v -0.5497067 0.37121022 0.20081806
v -0.40107512 0.24238479 0.10196859
v -0.5497067 0.24238479 0.10196859
v -0.40107512 0.08139366 0.12316066
v -0.5497067 0.08139366 0.12316066
v -0.40107512 -0.017455876 0.25198877
v -0.5497067 0.2935555 0.49063468
v -0.5497067 -0.017455876 0.25198877
v -0.40107512 0.2935555 0.49063468
v -0.5497067 0.1325643 0.5118294
v -0.40107512 0.18747318 0.30689764
v -0.40107512 0.0037389398 0.41297722
v -0.5497067 0.0037389398 0.41297722
v -0.40107512 0.1325643 0.5118294
vt 0.52934974 0.89593345
vt 0.5501905 0.8804787
vt 0.52934974 0.8804787
vt 0.5501905 0.89593345
vt 0.5247422 0.95377284
vt 0.5501905 0.95377284
vt 0.57270104 0.89593345
vt 0.57782334 0.95377284
vt 0.58093685 0.9569742
vt 0.5501905 0.9569742
vt 0.5228841 0.9569742
vt 0.58093685 0.9608788
vt 0.5228841 0.9608788
vt 0.5501905 0.9608788
vt 0.5729646 0.96750766
vt 0.5501905 0.96750766
vt 0.52946275 0.96750766
vt 0.52934974 0.89593345
vt 0.5501905 0.89593345
vt 0.5501905 0.95377284
vt 0.5247422 0.95377284
vt 0.5228841 0.9569742
vt 0.5501905 0.9569742
vt 0.5228841 0.9608788
vt 0.5501905 0.9608788
vt 0.52946275 0.96750766
vt 0.5501905 0.96750766
vt 0.5501905 0.89593345
vt 0.57270104 0.89593345
vt 0.57782334 0.95377284
vt 0.5501905 0.95377284
vt 0.5501905 0.9569742
vt 0.58093685 0.9569742
vt 0.5501905 0.9608788
vt 0.58093685 0.9608788
vt 0.5501905 0.96750766
vt 0.5729646 0.96750766
vt 0.5042278 0.96538585
vt 0.50177974 0.9595228
vt 0.4993692 0.96538585
vt 0.5076427 0.9619333
vt 0.49591666 0.961971
vt 0.5076427 0.9570747
vt 0.49591666 0.9571249
vt 0.50419015 0.95365983
vt 0.49933153 0.95367235
vt 0.5042278 0.96538585
vt 0.4993692 0.96538585
vt 0.50177974 0.9595228
vt 0.5076427 0.9619333
vt 0.49591666 0.961971
vt 0.5076427 0.9570747
vt 0.49591666 0.9571249
vt 0.50419015 0.95365983
vt 0.49933153 0.95367235
vt 0.47973365 0.9181301
vt 0.48655087 0.89180297
vt 0.47973365 0.88580185
vt 0.5239764 0.88580185
vt 0.48655087 0.91565686
vt 0.48753017 0.9181301
vt 0.4909324 0.91565686
vt 0.5171717 0.89180297
vt 0.5171717 0.91565686
vt 0.5239764 0.9181301
vt 0.5159413 0.9181301
vt 0.5127776 0.91565686
vt 0.5159413 0.9214069
vt 0.5127776 0.92469615
vt 0.5159413 0.94092935
vt 0.4909324 0.92469615
vt 0.48753017 0.9214069
vt 0.5127776 0.9350161
vt 0.48753017 0.94092935
vt 0.4909324 0.9350161
vt 0.5042278 0.96538585
vt 0.50632447 0.97039515
vt 0.49732274 0.97039515
vt 0.5076427 0.9619333
vt 0.512652 0.9639923
vt 0.5076427 0.9570747
vt 0.512652 0.95497805
vt 0.4993692 0.96538585
vt 0.50419015 0.95365983
vt 0.4909199 0.96406764
vt 0.5062491 0.94865054
vt 0.49591666 0.961971
vt 0.49089473 0.9550659
vt 0.50177974 0.9595228
vt 0.49933153 0.95367235
vt 0.49723488 0.94865054
vt 0.49591666 0.9571249
vt 0.5042278 0.96538585
vt 0.4993692 0.96538585
vt 0.49732274 0.97039515
vt 0.50632447 0.97039515
vt 0.5076427 0.9619333
vt 0.512652 0.9639923
vt 0.5076427 0.9570747
vt 0.512652 0.95497805
vt 0.50419015 0.95365983
vt 0.4909199 0.96406764
vt 0.5062491 0.94865054
vt 0.49591666 0.961971
vt 0.49089473 0.9550659
vt 0.50177974 0.9595228
vt 0.49933153 0.95367235
vt 0.49723488 0.94865054
vt 0.49591666 0.9571249
vn 0.55620694 -0.614858 -0.5590917
vn -0.55620694 -0.614858 0.5590917
vn 0.55620694 -0.614858 0.5590917
vn -0.55620694 -0.614858 -0.5590917
vn 0.616813 -0.6793741 -0.39748275
vn -0.61681294 -0.6793741 -0.39748284
vn -0.55620694 -0.614858 0.5590917
vn -0.56989217 -0.5777123 0.58435553
vn -0.65786874 -0.37438887 0.6534843
vn -0.61094785 -0.46627545 -0.639789
vn 0.6109479 -0.46627545 -0.6397889
vn -0.5777123 0.5777123 0.5766255
vn 0.5777123 0.5777123 -0.5766255
vn -0.5777123 0.5777123 -0.5766255
vn -0.0009775162 0.9999995 -0
vn -0.0009775162 0.9999995 -0
vn -0.0009775162 0.9999995 -0
vn 0.55620694 -0.614858 0.5590917
vn -0.55620694 -0.614858 0.5590917
vn -0.56989217 -0.5777123 0.58435553
vn 0.56989217 -0.5777123 0.58435553
vn 0.65786874 -0.37438887 0.6534843
vn -0.65786874 -0.37438887 0.6534843
vn 0.5777123 0.5777123 0.5766255
vn -0.5777123 0.5777123 0.5766255
vn -0.0009775162 0.9999995 -0
vn -0.0009775162 0.9999995 -0
vn 0.55620694 -0.614858 -0.5590917
vn 0.55620694 -0.614858 0.5590917
vn 0.56989217 -0.5777123 0.58435553
vn 0.616813 -0.6793741 -0.39748275
vn 0.6109479 -0.46627545 -0.6397889
vn 0.65786874 -0.37438887 0.6534843
vn 0.5777123 0.5777123 -0.5766255
vn 0.5777123 0.5777123 0.5766255
vn -0.0009775162 0.9999995 -0
vn -0.0009775162 0.9999995 -0
vn 0.63049823 0.67155397 -0.38921356
vn 0.9999995 0.0009775162 -0
vn 0.63049823 0.74975526 0.20084569
vn 0.63049823 0.20039093 -0.7498769
vn 0.63049823 0.38807416 0.6722131
vn 0.63049823 -0.3880741 -0.6722131
vn 0.63049823 -0.20039093 0.7498769
vn 0.63049823 -0.74975526 -0.20084569
vn 0.63049823 -0.67155397 0.38921356
vn -0.6304983 0.67155397 -0.38921356
vn -0.6304983 0.74975526 0.20084569
vn -0.9999995 0.0009775162 -0
vn -0.6304983 0.20039093 -0.7498769
vn -0.6304983 0.38807416 0.6722131
vn -0.6304983 -0.3880741 -0.6722131
vn -0.6304983 -0.20039093 0.7498769
vn -0.6304983 -0.74975526 -0.20084569
vn -0.6304983 -0.67155397 0.38921356
vn 0.56793714 0.57380223 0.5900834
vn 0.4447701 0.79667604 -0.40925157
vn 0.56793714 0.57380223 -0.5900834
vn -0.56793714 0.57380223 -0.5900834
vn 0.4447701 0.79667604 0.40925157
vn 0.80840623 0.29032242 0.5120471
vn 0.15151507 0.9433036 0.29533297
vn -0.4447701 0.79667604 -0.40925157
vn -0.4447701 0.79667604 0.40925157
vn -0.56793714 0.57380223 0.5900834
vn -0.80840623 0.29032242 0.5120471
vn -0.15151513 0.9433036 0.29533288
vn -0.99997663 0.0068424568 -0
vn -0.58162236 0.49169087 0.64803976
vn -0.5913975 -0.794721 0.13662913
vn 0.58162236 0.49169087 0.64803976
vn 0.99997663 0.0068424568 -0
vn -0.5855324 -0.5464318 0.59880227
vn 0.5913975 -0.794721 0.13662913
vn 0.5855324 -0.5464318 0.59880227
vn -0.0009775162 0.8651022 -0.5015947
vn 0.63049823 0.67155397 -0.38921356
vn 0.63049823 0.74975526 0.20084569
vn -0.0009775162 0.2590419 -0.96586555
vn 0.63049823 0.20039093 -0.7498769
vn -0.0009775162 -0.499511 -0.866307
vn 0.63049823 -0.3880741 -0.6722131
vn -0.37634385 0.8944278 0.24158698
vn -0.37634385 -0.8944277 -0.24158712
vn 0.63049823 0.38807416 0.6722131
vn 0.63049823 -0.74975526 -0.20084569
vn -0.6304983 0.38807416 0.6722131
vn 0.63049823 -0.20039093 0.7498769
vn -0.9999995 0.0009775162 -0
vn -0.6304983 -0.67155397 0.38921356
vn 0.63049823 -0.67155397 0.38921356
vn -0.6304983 -0.20039093 0.7498769
vn -0.0009775162 0.8651022 -0.5015947
vn 0.3763439 0.8944278 0.24158698
vn -0.6304983 0.74975526 0.20084569
vn -0.6304983 0.67155397 -0.38921356
vn -0.0009775162 0.2590419 -0.96586555
vn -0.6304983 0.20039093 -0.7498769
vn -0.0009775162 -0.499511 -0.866307
vn -0.6304983 -0.3880741 -0.6722131
vn 0.3763439 -0.8944277 -0.24158712
vn -0.6304983 0.38807416 0.6722131
vn -0.6304983 -0.74975526 -0.20084569
vn 0.63049823 0.38807416 0.6722131
vn -0.6304983 -0.20039093 0.7498769
vn 0.9999995 0.0009775162 -0
vn 0.63049823 -0.67155397 0.38921356
vn -0.6304983 -0.67155397 0.38921356
vn 0.63049823 -0.20039093 0.7498769
g fcbg_arkcity_002_garbage_02_0
f 3/3/3 2/2/2 1/1/1
f 2/2/2 4/4/4 1/1/1
f 5/5/5 1/1/1 4/4/4
f 6/6/6 5/5/5 4/4/4
f 6/6/6 4/4/4 7/7/7
f 8/8/8 6/6/6 7/7/7
f 8/8/8 9/9/9 6/6/6
f 6/6/6 10/10/10 5/5/5
f 9/9/9 10/10/10 6/6/6
f 10/10/10 11/11/11 5/5/5
f 9/9/9 12/12/12 10/10/10
f 11/11/11 10/10/10 13/13/13
f 12/12/12 14/14/14 10/10/10
f 10/10/10 14/14/14 13/13/13
f 12/12/12 15/15/15 14/14/14
f 15/15/15 16/16/16 14/14/14
f 14/14/14 16/16/16 13/13/13
f 16/16/16 17/17/17 13/13/13
f 20/20/20 19/19/19 18/18/18
f 21/21/21 20/20/20 18/18/18
f 21/21/21 22/22/22 20/20/20
f 22/22/22 23/23/23 20/20/20
f 22/22/22 24/24/24 23/23/23
f 24/24/24 25/25/25 23/23/23
f 24/24/24 26/26/26 25/25/25
f 26/26/26 27/27/27 25/25/25
f 30/30/30 29/29/29 28/28/28
f 31/31/31 30/30/30 28/28/28
f 31/31/31 32/32/32 30/30/30
f 32/32/32 33/33/33 30/30/30
f 32/32/32 34/34/34 33/33/33
f 34/34/34 35/35/35 33/33/33
f 34/34/34 36/36/36 35/35/35
f 36/36/36 37/37/37 35/35/35
f 40/40/40 39/39/39 38/38/38
f 38/38/38 39/39/39 41/41/41
f 42/42/42 39/39/39 40/40/40
f 41/41/41 39/39/39 43/43/43
f 44/44/44 39/39/39 42/42/42
f 43/43/43 39/39/39 45/45/45
f 46/46/46 39/39/39 44/44/44
f 45/45/45 39/39/39 46/46/46
f 49/49/49 48/48/48 47/47/47
f 49/49/49 47/47/47 50/50/50
f 49/49/49 51/51/51 48/48/48
f 49/49/49 50/50/50 52/52/52
f 49/49/49 53/53/53 51/51/51
f 49/49/49 52/52/52 54/54/54
f 49/49/49 55/55/55 53/53/53
f 49/49/49 54/54/54 55/55/55
f 58/58/58 57/57/57 56/56/56
f 57/57/57 58/58/58 59/59/59
f 57/57/57 60/60/60 56/56/56
f 56/56/56 60/60/60 61/61/61
f 60/60/60 57/57/57 62/62/62
f 60/60/60 62/62/62 61/61/61
f 63/63/63 57/57/57 59/59/59
f 57/57/57 63/63/63 62/62/62
f 64/64/64 63/63/63 59/59/59
f 65/65/65 64/64/64 59/59/59
f 65/65/65 66/66/66 64/64/64
f 64/64/64 67/67/67 63/63/63
f 66/66/66 67/67/67 64/64/64
f 63/63/63 67/67/67 62/62/62
f 66/66/66 68/68/68 67/67/67
f 68/68/68 69/69/69 67/67/67
f 67/67/67 69/69/69 62/62/62
f 68/68/68 70/70/70 69/69/69
f 62/62/62 71/71/71 61/61/61
f 69/69/69 71/71/71 62/62/62
f 71/71/71 72/72/72 61/61/61
f 70/70/70 73/73/73 69/69/69
f 69/69/69 73/73/73 71/71/71
f 73/73/73 70/70/70 74/74/74
f 75/75/75 74/74/74 72/72/72
f 71/71/71 75/75/75 72/72/72
f 75/75/75 73/73/73 74/74/74
f 73/73/73 75/75/75 71/71/71
f 78/78/78 77/77/77 76/76/76
f 76/76/76 77/77/77 79/79/79
f 77/77/77 80/80/80 79/79/79
f 79/79/79 80/80/80 81/81/81
f 80/80/80 82/82/82 81/81/81
f 83/83/83 78/78/78 76/76/76
f 81/81/81 82/82/82 84/84/84
f 85/85/85 78/78/78 83/83/83
f 82/82/82 86/86/86 84/84/84
f 87/87/87 85/85/85 83/83/83
f 88/88/88 85/85/85 87/87/87
f 83/83/83 89/89/89 87/87/87
f 84/84/84 86/86/86 90/90/90
f 90/90/90 89/89/89 84/84/84
f 86/86/86 91/91/91 90/90/90
f 92/92/92 88/88/88 87/87/87
f 87/87/87 89/89/89 92/92/92
f 92/92/92 89/89/89 90/90/90
f 91/91/91 88/88/88 92/92/92
f 90/90/90 91/91/91 92/92/92
f 95/95/95 94/94/94 93/93/93
f 96/96/96 95/95/95 93/93/93
f 96/96/96 93/93/93 97/97/97
f 98/98/98 96/96/96 97/97/97
f 98/98/98 97/97/97 99/99/99
f 100/100/100 98/98/98 99/99/99
f 100/100/100 99/99/99 101/101/101
f 95/95/95 102/102/102 94/94/94
f 103/103/103 100/100/100 101/101/101
f 102/102/102 104/104/104 94/94/94
f 102/102/102 105/105/105 104/104/104
f 106/106/106 94/94/94 104/104/104
f 103/103/103 101/101/101 107/107/107
f 106/106/106 107/107/107 101/101/101
f 108/108/108 103/103/103 107/107/107
f 105/105/105 109/109/109 104/104/104
f 106/106/106 104/104/104 109/109/109
f 106/106/106 109/109/109 107/107/107
f 108/108/108 107/107/107 109/109/109
f 105/105/105 108/108/108 109/109/109
