g fcbg_cityforestcrystal_002_brokencrystal_04
v 1.1468294 -1.0703461 -0.4411285
v 0.3073684 -0.25555217 1.8699536
v 1.4629986 0.399431 -0.90264225
v 0.10769665 1.2809641 -1.4844092
v -1.4492459 0.20842624 -1.0043275
v -1.4629774 0.24770927 -1.8699462
v 1.4629986 0.399431 -0.90264225
v 0.17339432 0.58954763 0.68806934
v 0.10769665 1.2809641 -1.4844092
v 0.3073684 -0.25555217 1.8699536
v -0.36034775 -0.9494795 0.03861797
v -1.4492459 0.20842624 -1.0043275
v 0.17339432 0.58954763 0.68806934
v -1.4492459 0.20842624 -1.0043275
v 0.10769665 1.2809641 -1.4844092
v 1.1468294 -1.0703461 -0.4411285
v -0.36034775 -0.9494795 0.03861797
v 0.3073684 -0.25555217 1.8699536
v 0.3073684 -0.25555217 1.8699536
v 0.17339432 0.58954763 0.68806934
v 1.4629986 0.399431 -0.90264225
v 0.17339432 0.58954763 0.68806934
v 0.3073684 -0.25555217 1.8699536
v -1.4492459 0.20842624 -1.0043275
v -1.4492459 0.20842624 -1.0043275
v -0.36034775 -0.9494795 0.03861797
v -0.45584464 -1.2809639 -1.4607588
v 1.4629986 0.399431 -0.90264225
v 0.9888803 -1.2523131 -1.516427
v 1.1468294 -1.0703461 -0.4411285
v -0.45584464 -1.2809639 -1.4607588
v -1.4629774 0.24770927 -1.8699462
v -1.4492459 0.20842624 -1.0043275
v 0.9888803 -1.2523131 -1.516427
v 0.10769665 1.2809641 -1.4844092
v -0.45584464 -1.2809639 -1.4607588
v 1.4629986 0.399431 -0.90264225
v 0.10769665 1.2809641 -1.4844092
v 0.9888803 -1.2523131 -1.516427
v -0.45584464 -1.2809639 -1.4607588
v 0.10769665 1.2809641 -1.4844092
v -1.4629774 0.24770927 -1.8699462
v -0.45584464 -1.2809639 -1.4607588
v -0.36034775 -0.9494795 0.03861797
v 1.1468294 -1.0703461 -0.4411285
v 0.9888803 -1.2523131 -1.516427
vt 0.25762248 0.07173725
vt 0.2842962 0.04712563
vt 0.25760767 0.09022193
vt 0.24088837 0.023997528
vt 0.24332136 0.04286792
vt 0.2347021 0.0421855
vt 0.25440326 0.010586495
vt 0.2684374 0.03660746
vt 0.24088837 0.023997528
vt 0.2842962 0.04712563
vt 0.25903183 0.054750927
vt 0.24332136 0.04286792
vt 0.2684374 0.03660746
vt 0.24332136 0.04286792
vt 0.24088837 0.023997528
vt 0.25762248 0.07173725
vt 0.25903183 0.054750927
vt 0.2842962 0.04712563
vt 0.2842962 0.04712563
vt 0.2684374 0.03660746
vt 0.25440326 0.010586495
vt 0.2684374 0.03660746
vt 0.2842962 0.04712563
vt 0.24332136 0.04286792
vt 0.24332136 0.04286792
vt 0.25903183 0.054750927
vt 0.24164498 0.06089271
vt 0.25760767 0.09022193
vt 0.2449829 0.073695496
vt 0.25762248 0.07173725
vt 0.24164498 0.06089271
vt 0.2347021 0.0421855
vt 0.24332136 0.04286792
vt 0.31180072 0.08882742
vt 0.31295785 0.06430481
vt 0.29942814 0.08413949
vt 0.32298645 0.07641034
vt 0.31295785 0.06430481
vt 0.31180072 0.08882742
vt 0.29942814 0.08413949
vt 0.31295785 0.06430481
vt 0.29567483 0.06739053
vt 0.24164498 0.06089271
vt 0.25903183 0.054750927
vt 0.25762248 0.07173725
vt 0.2449829 0.073695496
vn 0.9268832 -0.08448547 0.36571807
vn 0.9268832 -0.08448547 0.36571807
vn 0.9268832 -0.08448547 0.36571807
vn -0.5567426 0.8297586 0.03922163
vn -0.5567426 0.8297586 0.03922163
vn -0.5567426 0.8297586 0.03922163
vn 0.44551307 0.85670096 0.2599645
vn 0.44551307 0.85670096 0.2599645
vn 0.44551307 0.85670096 0.2599645
vn -0.81718546 -0.37366676 0.4388406
vn -0.81718546 -0.37366676 0.4388406
vn -0.81718546 -0.37366676 0.4388406
vn -0.48489636 0.8297586 0.27636245
vn -0.48489636 0.8297586 0.27636245
vn -0.48489636 0.8297586 0.27636245
vn 0.03419304 -0.9394563 0.34095854
vn 0.03419304 -0.9394563 0.34095854
vn 0.03419304 -0.9394563 0.34095854
vn 0.6107595 0.6752891 0.41347
vn 0.6107595 0.6752891 0.41347
vn 0.6107595 0.6752891 0.41347
vn -0.6483467 0.58188885 0.49097034
vn -0.6483467 0.58188885 0.49097034
vn -0.6483467 0.58188885 0.49097034
vn -0.7920392 -0.5838171 0.17841369
vn -0.7920392 -0.5838171 0.17841369
vn -0.7920392 -0.5838171 0.17841369
vn 0.96639866 -0.23895496 -0.094732165
vn 0.96639866 -0.23895496 -0.094732165
vn 0.96639866 -0.23895496 -0.094732165
vn -0.83335084 -0.5514864 -0.037271246
vn -0.83335084 -0.5514864 -0.037271246
vn -0.83335084 -0.5514864 -0.037271246
vn -0.037653267 -6.604195E-05 -0.9992909
vn -0.037653267 -6.604195E-05 -0.9992909
vn -0.037653267 -6.604195E-05 -0.9992909
vn 0.4850285 0.17954963 -0.85586756
vn 0.4850285 0.17954963 -0.85586756
vn 0.4850285 0.17954963 -0.85586756
vn 0.28206277 -0.07011622 -0.9568303
vn 0.28206277 -0.07011622 -0.9568303
vn 0.28206277 -0.07011622 -0.9568303
vn 0.0054545403 -0.9807679 0.19510151
vn 0.0054545403 -0.9807679 0.19510151
vn 0.0054545403 -0.9807679 0.19510151
vn 0.0054545403 -0.9807679 0.19510151
g fcbg_cityforestcrystal_002_brokencrystal_04_0
f 3/3/3 2/2/2 1/1/1
f 6/6/6 5/5/5 4/4/4
f 9/9/9 8/8/8 7/7/7
f 12/12/12 11/11/11 10/10/10
f 15/15/15 14/14/14 13/13/13
f 18/18/18 17/17/17 16/16/16
f 21/21/21 20/20/20 19/19/19
f 24/24/24 23/23/23 22/22/22
f 27/27/27 26/26/26 25/25/25
f 30/30/30 29/29/29 28/28/28
f 33/33/33 32/32/32 31/31/31
f 36/36/36 35/35/35 34/34/34
f 39/39/39 38/38/38 37/37/37
f 42/42/42 41/41/41 40/40/40
f 45/45/45 44/44/44 43/43/43
f 46/46/46 45/45/45 43/43/43
