g fcbg_cityforest_004_stem_02
v 1.7672834 2.980439 -0.05153179
v 1.7251635 2.7122445 -0.48175335
v 0.9206629 2.081754 0.024600029
v 0.6968689 1.9390345 -0.46689415
v 1.4960127 2.7711682 -0.9115629
v -0.35314846 1.6558628 -0.34556866
v -0.40423965 1.7175627 0.041024208
v -0.5686159 1.6398907 -0.029790878
v 0.4564972 2.2733393 -0.58201504
v 1.2054186 3.2651029 -0.832448
v -0.84472656 1.5866661 -0.30111313
v -0.3915472 1.1330509 0.057826996
v -0.4881649 2.0427783 -0.5456543
v 0.37491894 2.666943 -0.34486675
v 1.1379719 3.6685982 -0.40908432
v -0.69458675 0.9393482 -0.06320953
v 0.055384636 0.8604231 0.18537045
v -1.259059 1.7431784 -0.3092518
v 0.49237442 2.7216094 -0.012084007
v 1.4498367 3.4224648 -0.079034805
v -0.67428684 2.3818336 -0.35914803
v 0.66371155 2.399716 0.061351776
v 1.7672834 2.980439 -0.05153179
v 0.9206629 2.081754 0.024600029
v -0.7253847 2.3339727 0.027431488
v -0.608881 1.9902325 0.14796448
v -0.40423965 1.7175627 0.041024208
v -1.3135786 1.9672365 -0.06924629
v -1.076045 0.9859743 0.022663116
v -0.7068548 1.8496242 0.2333889
v -0.5686159 1.6398907 -0.029790878
v -0.919569 1.9874043 0.19189167
v -0.46996593 1.3733788 0.26472378
v -0.3915472 1.1330509 0.057826996
v -1.1544552 1.2263021 0.22956467
v -0.85141563 1.4200039 0.3505926
v 0.014115334 1.0199809 0.40635586
v 0.055384636 0.8604231 0.18537045
v 0.08232117 0.42975664 0.5743036
v -0.480402 0.69756126 0.5281334
v -0.2537861 0.93854904 0.5777254
v 0.024172783 0.44751644 0.80038834
v -0.17627239 0.27118015 0.9115629
v 0.20181751 -0.46563053 0.73205376
v 0.2217722 -0.4190774 0.5397148
v -0.012983322 -0.42570448 0.8228054
v -0.72787 -1.5922604 0.61831474
v -0.47282028 -1.3707848 0.38967323
v -1.4257469 -1.5902638 0.36798096
v -1.3998461 -1.5498352 0.25570488
v -1.6481504 -2.2156525 0.1454153
v -1.5777493 -2.180541 0.060484886
v -1.5455637 -2.8656826 -0.06540775
v -1.531784 -1.530242 0.42687702
v -0.84589195 -1.4935656 0.70217705
v -0.2078352 -0.33922577 0.72121716
v -1.5809345 -2.8856125 -0.023584366
v -1.6900787 -3.6685991 -0.21498775
v -1.641799 -2.8851805 -0.044858932
v -0.7088728 -1.1733985 0.5574055
v -0.3185768 0.0770812 0.79664326
v -1.7672844 -2.1767635 0.1131506
v -1.6969004 -2.1416502 0.028216362
v -1.6064358 -2.8652468 -0.086686134
v -1.5455637 -2.8656826 -0.06540775
v -1.5777493 -2.180541 0.060484886
v -1.3998461 -1.5498352 0.25570488
v -1.6119375 -1.4297929 0.3734951
v -1.5860357 -1.3893642 0.2612095
v -1.47999 -1.4493856 0.20231628
v -0.570734 -1.2297058 0.3205309
v -0.47282028 -1.3707848 0.38967323
v -0.6887646 -1.1310134 0.40440083
v -0.18787289 -0.29267406 0.5288763
v 0.026935577 -0.33259964 0.4381237
v 0.2217722 -0.4190774 0.5397148
v -0.26042938 0.059321404 0.5705662
v -0.059975624 0.2356596 0.45939922
v 0.08232117 0.42975664 0.5743036
v -0.1712389 0.61943674 0.13576508
v -0.43913174 0.53800535 0.30714512
vt 0.91964954 0.8626342
vt 0.8998323 0.87513167
vt 0.901031 0.8126937
vt 0.88506085 0.819785
vt 0.8822205 0.8826692
vt 0.8447083 0.7769108
vt 0.85870326 0.77165663
vt 0.8560319 0.7645221
vt 0.87166184 0.82975817
vt 0.8619244 0.87975526
vt 0.8431015 0.76831377
vt 0.86744577 0.7528435
vt 0.8340484 0.7890375
vt 0.86049056 0.83163303
vt 0.8822205 0.8826692
vt 0.85740393 0.7493414
vt 0.8850407 0.7299309
vt 0.8319834 0.7716662
vt 0.87166184 0.82975817
vt 0.8998323 0.87513167
vt 0.82823044 0.79846793
vt 0.88506085 0.819785
vt 0.91964954 0.8626342
vt 0.901031 0.8126937
vt 0.8340484 0.7890375
vt 0.8447083 0.7769108
vt 0.85870326 0.77165663
vt 0.8136176 0.76861304
vt 0.8412902 0.74374497
vt 0.8431015 0.76831377
vt 0.8560319 0.7645221
vt 0.8319834 0.7716662
vt 0.85740393 0.7493414
vt 0.86744577 0.7528435
vt 0.8278395 0.73674613
vt 0.8412902 0.74374497
vt 0.8776279 0.72761315
vt 0.8850407 0.7299309
vt 0.888053 0.7068844
vt 0.8588602 0.7129198
vt 0.8679093 0.72297937
vt 0.8810002 0.70447916
vt 0.8730635 0.7000358
vt 0.8922807 0.6744466
vt 0.89706683 0.6764378
vt 0.8847297 0.67315376
vt 0.88687265 0.6384536
vt 0.8924214 0.6384055
vt 0.87928957 0.6149373
vt 0.8823946 0.61606306
vt 0.8861903 0.59192014
vt 0.8895871 0.59383804
vt 0.9021356 0.5738566
vt 0.8743465 0.61434317
vt 0.8811484 0.64046127
vt 0.8769612 0.6735991
vt 0.90106237 0.5724208
vt 0.91293937 0.54742384
vt 0.89919615 0.5712257
vt 0.87577283 0.6426094
vt 0.86677504 0.6946256
vt 0.88185865 0.59051305
vt 0.8861903 0.59192014
vt 0.90106237 0.5724208
vt 0.9021356 0.5738566
vt 0.8895871 0.59383804
vt 0.8823946 0.61606306
vt 0.8698484 0.614223
vt 0.8743465 0.61434317
vt 0.87928957 0.6149373
vt 0.88687265 0.6384536
vt 0.8924214 0.6384055
vt 0.8811484 0.64046127
vt 0.8847297 0.67315376
vt 0.8922807 0.6744466
vt 0.89706683 0.6764378
vt 0.8730635 0.7000358
vt 0.8810002 0.70447916
vt 0.888053 0.7068844
vt 0.8776279 0.72761315
vt 0.8679093 0.72297937
vn 0.38651484 -0.2526778 0.886995
vn 0.6695847 -0.74271566 -0.0054482515
vn 0.41846514 -0.6314297 0.6528273
vn 0.27346173 -0.83529526 -0.4769701
vn 0.13198072 -0.47610253 -0.8694294
vn 0.15738183 -0.87916756 -0.4497726
vn 0.25523233 -0.72472745 0.64002067
vn 0.83523 -0.5494857 0.021363767
vn -0.19589016 -0.011963099 -0.98055285
vn -0.5560608 0.28020748 -0.7824833
vn 0.070171 -0.45373547 -0.88836944
vn 0.61334944 0.2666745 -0.74342936
vn -0.13932678 -0.01183859 -0.99017566
vn -0.53590536 0.7068199 -0.4617479
vn -0.6949731 0.69215816 0.19475517
vn 0.024799084 -0.48361945 -0.8749269
vn 0.8046795 0.15695892 -0.57258606
vn -0.73402405 -0.09575974 -0.6723383
vn -0.35213625 0.5717656 0.74100214
vn -0.16136824 0.3413443 0.9259829
vn -0.40010405 0.758852 -0.5138681
vn 0.034144603 0.07247983 0.9967853
vn 0.38651484 -0.2526778 0.886995
vn 0.41846514 -0.6314297 0.6528273
vn -0.31138685 0.76275396 0.56678444
vn 0.18701042 0.20390734 0.96096253
vn 0.25523233 -0.72472745 0.64002067
vn -0.8979504 0.41971684 0.13237381
vn -0.6939101 -0.6564891 -0.29582223
vn 0.3166459 0.24962166 0.915109
vn 0.83523 -0.5494857 0.021363767
vn -0.27393878 0.40050885 0.8743857
vn 0.6798828 0.6062194 0.41262254
vn 0.61334944 0.2666745 -0.74342936
vn -0.82156336 -0.18752886 0.5383926
vn -0.18741696 0.21360649 0.9587738
vn 0.7307858 0.6410251 0.23460385
vn 0.8046795 0.15695892 -0.57258606
vn 0.99225265 0.024174543 -0.12186207
vn -0.7224313 -0.13895951 0.67733544
vn 0.012132579 0.4675293 0.8838943
vn 0.6302969 0.30550155 0.7137189
vn -0.14457193 0.10668294 0.98372644
vn 0.81398183 -0.28735068 0.5048398
vn 0.8857821 -0.16391943 -0.4341895
vn 0.0635525 -0.11502324 0.9913277
vn 0.321436 -0.90645975 0.27387872
vn 0.6274586 -0.6212646 -0.469389
vn 0.34928948 -0.841357 0.41245034
vn 0.5666108 -0.47606394 -0.67254394
vn 0.23827064 -0.3159494 0.91836977
vn 0.92805034 -0.030008279 -0.3712441
vn 0.9617247 0.0006249631 -0.27401692
vn -0.33176625 -0.1504232 0.9312916
vn -0.2025566 -0.21258332 0.955918
vn -0.83566296 0.07251037 0.54443526
vn 0.32653293 -0.24153914 0.91380256
vn -0.11762213 -0.973463 -0.19630277
vn -0.9535646 -0.109311275 0.28065187
vn -0.70333576 0.6437233 0.30156136
vn -0.83694977 -0.24327938 0.49023482
vn -0.97424215 -0.08066617 0.21058288
vn -0.34389365 0.23205535 -0.9098832
vn -0.2381 0.14249615 -0.9607306
vn 0.9617247 0.0006249631 -0.27401692
vn 0.92805034 -0.030008279 -0.3712441
vn 0.5666108 -0.47606394 -0.67254394
vn -0.75036216 0.45347315 0.48095602
vn -0.59356725 0.7078294 -0.38295636
vn 0.031243755 0.3024642 -0.95264846
vn 0.108776756 0.040776562 -0.9932295
vn 0.6274586 -0.6212646 -0.469389
vn -0.4739128 0.732216 -0.48914856
vn -0.7357312 0.18410084 -0.6517719
vn 0.1452701 0.06384418 -0.98732996
vn 0.8857821 -0.16391943 -0.4341895
vn -0.7454707 -0.3127581 -0.588605
vn 0.34133625 -0.2765115 -0.89834905
vn 0.99225265 0.024174543 -0.12186207
vn 0.20898893 -0.45622835 -0.86497355
vn -0.6306999 -0.6738252 -0.38493785
g fcbg_cityforest_004_stem_02_0
f 3/3/3 2/2/2 1/1/1
f 4/4/4 2/2/2 3/3/3
f 4/4/4 5/5/5 2/2/2
f 6/6/6 4/4/4 3/3/3
f 7/7/7 6/6/6 3/3/3
f 6/6/6 7/7/7 8/8/8
f 5/5/5 4/4/4 9/9/9
f 9/9/9 10/10/10 5/5/5
f 11/11/11 6/6/6 8/8/8
f 12/12/12 11/11/11 8/8/8
f 13/13/13 4/4/4 6/6/6
f 4/4/4 13/13/13 9/9/9
f 11/11/11 13/13/13 6/6/6
f 10/10/10 9/9/9 14/14/14
f 13/13/13 14/14/14 9/9/9
f 14/14/14 15/15/15 10/10/10
f 11/11/11 12/12/12 16/16/16
f 17/17/17 16/16/16 12/12/12
f 18/18/18 13/13/13 11/11/11
f 16/16/16 18/18/18 11/11/11
f 15/15/15 14/14/14 19/19/19
f 19/19/19 20/20/20 15/15/15
f 14/14/14 13/13/13 21/21/21
f 13/13/13 18/18/18 21/21/21
f 21/21/21 19/19/19 14/14/14
f 22/22/22 20/20/20 19/19/19
f 20/20/20 22/22/22 23/23/23
f 23/23/23 22/22/22 24/24/24
f 19/19/19 21/21/21 25/25/25
f 25/25/25 22/22/22 19/19/19
f 26/26/26 24/24/24 22/22/22
f 22/22/22 25/25/25 26/26/26
f 24/24/24 26/26/26 27/27/27
f 21/21/21 18/18/18 28/28/28
f 21/21/21 28/28/28 25/25/25
f 18/18/18 16/16/16 29/29/29
f 29/29/29 28/28/28 18/18/18
f 30/30/30 27/27/27 26/26/26
f 27/27/27 30/30/30 31/31/31
f 25/25/25 32/32/32 26/26/26
f 25/25/25 28/28/28 32/32/32
f 26/26/26 32/32/32 30/30/30
f 30/30/30 33/33/33 31/31/31
f 34/34/34 31/31/31 33/33/33
f 28/28/28 35/35/35 32/32/32
f 28/28/28 29/29/29 35/35/35
f 32/32/32 36/36/36 30/30/30
f 32/32/32 35/35/35 36/36/36
f 33/33/33 30/30/30 36/36/36
f 33/33/33 37/37/37 34/34/34
f 34/34/34 37/37/37 38/38/38
f 39/39/39 38/38/38 37/37/37
f 35/35/35 40/40/40 36/36/36
f 40/40/40 35/35/35 29/29/29
f 36/36/36 41/41/41 33/33/33
f 37/37/37 33/33/33 41/41/41
f 36/36/36 40/40/40 41/41/41
f 37/37/37 42/42/42 39/39/39
f 42/42/42 37/37/37 41/41/41
f 43/43/43 41/41/41 40/40/40
f 41/41/41 43/43/43 42/42/42
f 42/42/42 44/44/44 39/39/39
f 39/39/39 44/44/44 45/45/45
f 44/44/44 42/42/42 46/46/46
f 46/46/46 42/42/42 43/43/43
f 47/47/47 45/45/45 44/44/44
f 47/47/47 44/44/44 46/46/46
f 45/45/45 47/47/47 48/48/48
f 49/49/49 48/48/48 47/47/47
f 48/48/48 49/49/49 50/50/50
f 49/49/49 51/51/51 50/50/50
f 50/50/50 51/51/51 52/52/52
f 51/51/51 53/53/53 52/52/52
f 47/47/47 54/54/54 49/49/49
f 54/54/54 51/51/51 49/49/49
f 47/47/47 46/46/46 55/55/55
f 54/54/54 47/47/47 55/55/55
f 46/46/46 43/43/43 56/56/56
f 55/55/55 46/46/46 56/56/56
f 53/53/53 51/51/51 57/57/57
f 58/58/58 53/53/53 57/57/57
f 51/51/51 59/59/59 57/57/57
f 58/58/58 57/57/57 59/59/59
f 60/60/60 54/54/54 55/55/55
f 55/55/55 56/56/56 60/60/60
f 56/56/56 43/43/43 61/61/61
f 40/40/40 61/61/61 43/43/43
f 54/54/54 62/62/62 51/51/51
f 62/62/62 59/59/59 51/51/51
f 63/63/63 59/59/59 62/62/62
f 64/64/64 58/58/58 59/59/59
f 59/59/59 63/63/63 64/64/64
f 65/65/65 58/58/58 64/64/64
f 64/64/64 66/66/66 65/65/65
f 64/64/64 63/63/63 66/66/66
f 63/63/63 67/67/67 66/66/66
f 68/68/68 62/62/62 54/54/54
f 68/68/68 63/63/63 62/62/62
f 60/60/60 68/68/68 54/54/54
f 63/63/63 68/68/68 69/69/69
f 60/60/60 69/69/69 68/68/68
f 63/63/63 70/70/70 67/67/67
f 63/63/63 69/69/69 70/70/70
f 70/70/70 71/71/71 67/67/67
f 69/69/69 71/71/71 70/70/70
f 72/72/72 67/67/67 71/71/71
f 69/69/69 60/60/60 73/73/73
f 71/71/71 69/69/69 73/73/73
f 60/60/60 74/74/74 73/73/73
f 74/74/74 71/71/71 73/73/73
f 74/74/74 60/60/60 56/56/56
f 61/61/61 74/74/74 56/56/56
f 75/75/75 72/72/72 71/71/71
f 75/75/75 71/71/71 74/74/74
f 76/76/76 72/72/72 75/75/75
f 74/74/74 61/61/61 77/77/77
f 77/77/77 75/75/75 74/74/74
f 78/78/78 76/76/76 75/75/75
f 78/78/78 75/75/75 77/77/77
f 79/79/79 76/76/76 78/78/78
f 78/78/78 17/17/17 79/79/79
f 17/17/17 78/78/78 80/80/80
f 77/77/77 80/80/80 78/78/78
f 16/16/16 17/17/17 80/80/80
f 80/80/80 29/29/29 16/16/16
f 61/61/61 81/81/81 77/77/77
f 80/80/80 77/77/77 81/81/81
f 29/29/29 80/80/80 81/81/81
f 81/81/81 61/61/61 40/40/40
f 40/40/40 29/29/29 81/81/81
