g fcbg_greathole_001_building_06
v 3.220952 3.1049767 1.5524902
v 3.220952 -4.529953E-06 2.476283E-13
v 3.220952 -5.2452087E-06 1.5524907
v 3.220952 3.1049774 5.960467E-07
v 3.220952 3.1049771 -1.5524894
v 3.220952 -4.6491623E-06 -1.5524896
v -3.2814903 3.1049762 1.5524907
v -3.2814903 -5.4836273E-06 1.5524907
v -3.2814903 -5.00679E-06 -2.3841834E-07
v -3.2814903 3.1049771 3.5762812E-07
v -3.2814898 3.1049767 -1.5524904
v -3.2814903 -5.00679E-06 -1.5524904
v 3.220952 -4.6491623E-06 -1.5524896
v 3.220952 3.1049771 -1.5524894
v -1.4002254 3.1049917 -1.5524899
v -3.2814903 -5.00679E-06 -1.5524904
v -2.4988065 3.1049924 -1.5524902
v -3.2814898 3.1049767 -1.5524904
v -3.1449845 3.1049771 -1.4077144
v -3.2814903 3.1049771 3.5762812E-07
v -0.68993306 3.1049776 -1.4076579
v -0.68993306 3.1049774 4.768374E-07
v 3.220952 3.1049774 5.960467E-07
v 3.220952 3.1049767 1.5524902
v -1.0464122 3.3649058 4.768374E-07
v -0.68993306 3.1049771 1.4076586
v -1.4002254 3.1049912 1.5524902
v -1.0464122 3.364906 -1.4076579
v 3.220952 -5.2452087E-06 1.5524907
v -3.2814903 -5.4836273E-06 1.5524907
v -1.4002426 3.1049917 -1.4076729
v -2.4988065 3.104992 1.5524907
v -3.2814903 3.1049762 1.5524907
v -3.144985 3.1049767 1.4077151
v -3.144985 3.1049771 3.5762812E-07
v -1.4002264 3.2349563 -1.5524694
v -1.4002268 3.2349555 -1.4076759
v -2.4988074 3.2349567 -1.5524901
v -2.4988234 3.1049926 -1.4077
v -2.4988077 3.2349565 -1.4077069
v -2.7885106 3.364905 -1.4077139
v -1.2574313 3.364906 -1.4076657
v -2.5775015 3.364905 -1.4077067
v -2.788511 3.3649049 3.5762812E-07
v -2.788511 3.3649046 1.4077144
v -2.5775018 3.3649046 1.4077072
v -2.4988234 3.104992 1.4077001
v -2.4988277 3.2349565 1.407707
v -2.4988077 3.2349565 1.5524912
v -1.2574313 3.3649056 1.4076667
v -1.4002459 3.2349558 1.4076769
v -1.0464122 3.3649056 1.4076586
v -1.4002426 3.104991 1.4076736
v -1.4002264 3.234956 1.5524702
v 2.9709158 3.0935392 1.0288506
v 2.9709158 3.0935392 0.7375734
v 2.9709158 3.1864474 0.7375734
v 2.9709158 3.0935392 0.44629717
v 2.9709158 3.1864474 1.0288506
v 3.210929 3.09348 1.0288506
v 2.9709158 3.1864476 0.44629717
v 3.210929 3.09348 0.44629717
v 3.277379 3.1203787 0.7375734
v 3.277379 3.1203785 1.0288506
v 3.277379 3.1203787 0.44629717
v 3.2814817 1.5290692 1.0288506
v 3.2110777 1.5001936 1.0288506
v 3.2110777 1.5001936 0.7375734
v 3.2814817 1.5290692 0.7375734
v 3.2814817 1.5290694 0.44629693
v 3.2110777 1.5001936 0.44629693
vt 0.26404032 0.28994805
vt 0.23610073 0.23402901
vt 0.26404032 0.23402901
vt 0.23610073 0.28994805
vt 0.26404032 0.289948
vt 0.26404032 0.23402901
vt 0.26404026 0.28994787
vt 0.26404026 0.23402902
vt 0.23610067 0.23402902
vt 0.23610067 0.2899481
vt 0.26404032 0.28994787
vt 0.26404032 0.23402901
vt 0.37985653 0.23402901
vt 0.37985653 0.28994787
vt 0.29744163 0.2899478
vt 0.26404032 0.23402901
vt 0.27816573 0.28993
vt 0.26404032 0.28994787
vt 0.26683 0.29242396
vt 0.26404026 0.31687695
vt 0.3100882 0.29242396
vt 0.3100882 0.31687695
vt 0.3798243 0.31687695
vt 0.37985653 0.28994787
vt 0.30381507 0.3214675
vt 0.3100882 0.29242402
vt 0.29744157 0.28994787
vt 0.30381513 0.29697886
vt 0.37985653 0.23402902
vt 0.26404026 0.23402902
vt 0.30305606 0.2924239
vt 0.27816567 0.28993005
vt 0.26404026 0.28994787
vt 0.26682994 0.29242402
vt 0.26682994 0.31687695
vt 0.2974413 0.29259
vt 0.29744074 0.2950971
vt 0.27816555 0.29258108
vt 0.27416694 0.2924239
vt 0.27816504 0.29509264
vt 0.27350906 0.29697886
vt 0.3001621 0.29697886
vt 0.2771986 0.29697886
vt 0.273509 0.3214675
vt 0.27350903 0.29697886
vt 0.2771985 0.29698002
vt 0.27416685 0.29242396
vt 0.2781649 0.2950938
vt 0.27816546 0.29258227
vt 0.30016202 0.29698002
vt 0.29744062 0.29509827
vt 0.30381507 0.29697886
vt 0.30305606 0.29242396
vt 0.29744127 0.2925889
vt 0.35619664 0.04479838
vt 0.36411935 0.04479838
vt 0.364123 0.042591028
vt 0.35619664 0.04479838
vt 0.35832357 0.04259824
vt 0.35697347 0.03673034
vt 0.35832357 0.04259824
vt 0.35697347 0.03673034
vt 0.364123 0.03634929
vt 0.35832357 0.036352627
vt 0.35832357 0.036352627
vt 0.35832357 0.0068913084
vt 0.35690117 0.0050100368
vt 0.36411935 0.0050240587
vt 0.364123 0.0069018584
vt 0.35832357 0.0068913084
vt 0.35690117 0.0050100368
vn 0.5773505 0.57734984 0.5773505
vn 1 0 0
vn 0.70710665 0 0.7071069
vn 0.7071067 0.7071068 0
vn 0.5773505 0.5773499 -0.57735044
vn 0.70710677 0 -0.7071067
vn -0.57735336 0.57734627 0.5773512
vn -0.70710677 0 0.70710677
vn -1 0 0
vn -0.7071072 0.7071063 0
vn -0.5773531 0.57734627 -0.5773514
vn -0.7071068 0 -0.7071067
vn 0.70710677 0 -0.7071067
vn 0.5773505 0.5773499 -0.57735044
vn 0.30149668 0.30155188 -0.90452534
vn -0.7071068 0 -0.7071067
vn -0.3015089 0.30152443 -0.9045304
vn -0.5773531 0.57734627 -0.5773514
vn -0.15208444 0.98293096 -0.10352352
vn -0.7071072 0.7071063 0
vn 0.15208213 0.9829348 -0.10349033
vn 0.30982897 0.9507924 0
vn 0.7071067 0.7071068 0
vn 0.5773505 0.57734984 0.5773505
vn 0.3098286 0.9507924 0
vn 0.1520831 0.98293465 0.10349055
vn 0.30150115 0.30157632 0.9045158
vn 0.23715277 0.7277369 -0.64355075
vn 0.70710665 0 0.7071069
vn -0.70710677 0 0.70710677
vn 0.5774246 0.5773348 -0.5772913
vn -0.30150652 0.3014962 0.90454066
vn -0.57735336 0.57734627 0.5773512
vn -0.15208459 0.98293084 0.1035235
vn -0.30983242 0.9507912 0
vn 0.57739687 0.5773534 -0.57730055
vn 0.30155143 0.30149466 -0.90452623
vn -0.57731223 0.5773907 -0.5773479
vn -0.57729983 0.5773557 -0.5773953
vn -0.30150616 0.3015294 -0.90452975
vn -0.23713365 0.72771925 -0.6435778
vn 2.4873949E-05 0.70711887 -0.7070946
vn 2.2774E-05 0.7071158 -0.7070977
vn -0.30983192 0.9507913 0
vn -0.23713379 0.7277187 0.64357823
vn 2.2637256E-05 0.70711505 0.7070984
vn -0.5773154 0.5773365 0.5773989
vn -0.30148953 0.30147704 0.9045527
vn -0.5772971 0.57737947 0.57737416
vn 2.5386962E-05 0.7071184 0.7070951
vn 0.30154824 0.30156526 0.9045038
vn 0.2371548 0.7277356 0.6435515
vn 0.5773946 0.5773689 0.57728714
vn 0.5774118 0.5773601 0.5772789
vn -0.70705134 0 0.7071622
vn -1 0 0
vn -0.62819475 0.7780562 0
vn -0.70705134 0 -0.7071622
vn -0.51745564 0.6408994 0.5669988
vn -0 0 1
vn -0.5174556 0.64089966 -0.5669986
vn -0 0 -1
vn 0.77724564 0.6291972 0
vn 0.62783384 0.5082447 0.5895015
vn 0.6278338 0.508245 -0.5895012
vn 0.6646925 -0.4445675 0.6004527
vn 0.30324045 -0.7393565 0.6011632
vn 0.37946564 -0.9252058 0
vn 0.8312189 -0.55594534 0
vn 0.66469264 -0.44456667 -0.60045326
vn 0.3032417 -0.7393566 -0.6011625
g fcbg_greathole_001_building_06_0
f 3/3/3 2/2/2 1/1/1
f 2/2/2 4/4/4 1/1/1
f 5/5/5 4/4/4 2/2/2
f 6/6/6 5/5/5 2/2/2
f 9/9/9 8/8/8 7/7/7
f 10/10/10 9/9/9 7/7/7
f 10/10/10 11/11/11 9/9/9
f 11/11/11 12/12/12 9/9/9
f 15/15/15 14/14/14 13/13/13
f 15/15/15 13/13/13 16/16/16
f 17/17/17 15/15/15 16/16/16
f 17/17/17 16/16/16 18/18/18
f 17/17/17 18/18/18 19/19/19
f 19/19/19 18/18/18 20/20/20
f 21/21/21 14/14/14 15/15/15
f 14/14/14 21/21/21 22/22/22
f 23/23/23 14/14/14 22/22/22
f 24/24/24 23/23/23 22/22/22
f 25/25/25 22/22/22 21/21/21
f 22/22/22 25/25/25 26/26/26
f 26/26/26 24/24/24 22/22/22
f 24/24/24 26/26/26 27/27/27
f 28/28/28 25/25/25 21/21/21
f 24/24/24 27/27/27 29/29/29
f 30/30/30 29/29/29 27/27/27
f 31/31/31 21/21/21 15/15/15
f 21/21/21 31/31/31 28/28/28
f 32/32/32 30/30/30 27/27/27
f 32/32/32 33/33/33 30/30/30
f 34/34/34 33/33/33 32/32/32
f 33/33/33 34/34/34 20/20/20
f 34/34/34 35/35/35 20/20/20
f 35/35/35 19/19/19 20/20/20
f 31/31/31 15/15/15 36/36/36
f 28/28/28 31/31/31 37/37/37
f 37/37/37 31/31/31 36/36/36
f 36/36/36 15/15/15 38/38/38
f 15/15/15 17/17/17 38/38/38
f 39/39/39 17/17/17 19/19/19
f 17/17/17 39/39/39 38/38/38
f 36/36/36 38/38/38 40/40/40
f 39/39/39 40/40/40 38/38/38
f 37/37/37 36/36/36 40/40/40
f 41/41/41 39/39/39 19/19/19
f 40/40/40 39/39/39 41/41/41
f 41/41/41 19/19/19 35/35/35
f 42/42/42 28/28/28 37/37/37
f 28/28/28 42/42/42 25/25/25
f 37/37/37 40/40/40 43/43/43
f 42/42/42 37/37/37 43/43/43
f 43/43/43 40/40/40 41/41/41
f 42/42/42 43/43/43 25/25/25
f 43/43/43 41/41/41 44/44/44
f 44/44/44 41/41/41 35/35/35
f 43/43/43 44/44/44 25/25/25
f 45/45/45 44/44/44 35/35/35
f 34/34/34 45/45/45 35/35/35
f 44/44/44 46/46/46 25/25/25
f 45/45/45 46/46/46 44/44/44
f 45/45/45 34/34/34 47/47/47
f 47/47/47 34/34/34 32/32/32
f 46/46/46 45/45/45 48/48/48
f 48/48/48 45/45/45 47/47/47
f 32/32/32 49/49/49 47/47/47
f 49/49/49 48/48/48 47/47/47
f 49/49/49 32/32/32 27/27/27
f 46/46/46 50/50/50 25/25/25
f 46/46/46 48/48/48 50/50/50
f 48/48/48 49/49/49 51/51/51
f 48/48/48 51/51/51 50/50/50
f 50/50/50 52/52/52 25/25/25
f 50/50/50 51/51/51 52/52/52
f 25/25/25 52/52/52 26/26/26
f 26/26/26 52/52/52 53/53/53
f 26/26/26 53/53/53 27/27/27
f 52/52/52 51/51/51 53/53/53
f 54/54/54 49/49/49 27/27/27
f 54/54/54 27/27/27 53/53/53
f 51/51/51 54/54/54 53/53/53
f 49/49/49 54/54/54 51/51/51
f 57/57/57 56/56/56 55/55/55
f 58/58/58 56/56/56 57/57/57
f 59/59/59 57/57/57 55/55/55
f 55/55/55 60/60/60 59/59/59
f 61/61/61 58/58/58 57/57/57
f 58/58/58 61/61/61 62/62/62
f 63/63/63 57/57/57 59/59/59
f 61/61/61 57/57/57 63/63/63
f 60/60/60 64/64/64 59/59/59
f 64/64/64 63/63/63 59/59/59
f 61/61/61 65/65/65 62/62/62
f 65/65/65 61/61/61 63/63/63
f 64/64/64 60/60/60 66/66/66
f 60/60/60 67/67/67 66/66/66
f 67/67/67 68/68/68 66/66/66
f 69/69/69 63/63/63 64/64/64
f 66/66/66 69/69/69 64/64/64
f 65/65/65 63/63/63 69/69/69
f 68/68/68 69/69/69 66/66/66
f 65/65/65 70/70/70 62/62/62
f 70/70/70 65/65/65 69/69/69
f 70/70/70 69/69/69 68/68/68
f 70/70/70 71/71/71 62/62/62
f 71/71/71 70/70/70 68/68/68
