g fcbg_arkcity_003_terminal_03
v 0.39814866 0.90497804 0.35355258
v -0.45210177 0.90497804 0.35355258
v -0.45210177 1.2467529 0.35355258
v 0.39814866 1.2467529 0.35355258
v 0.23061052 1.7814842 0.35355258
v -0.28456366 1.7814842 0.35355258
v 0.39814866 1.2467529 -0.5252937
v 0.39814866 0.90497804 -0.5252937
v 0.23061052 1.7814842 0.35355258
v 0.23061052 1.7814842 -0.5252937
v -0.45210177 0.90497804 -0.5252937
v 0.39814866 0.90497804 -0.5252937
v 0.39814866 1.2467529 -0.5252937
v -0.45210177 1.2467529 -0.5252937
v -0.28456366 1.7814842 -0.5252937
v 0.23061052 1.7814842 -0.5252937
v -0.45210177 0.90497804 -0.5252937
v -0.45210177 1.2467529 0.35355258
v -0.45210177 0.90497804 0.35355258
v -0.45210177 1.2467529 -0.5252937
v -0.28456366 1.7814842 -0.5252937
v -0.28456366 1.7814842 0.35355258
v 0.23061052 1.7814842 -0.5252937
v 0.23061052 1.7814842 0.35355258
v -0.3614772 7.0273876E-05 0.25988525
v 0.30753154 0.9146894 0.25988525
v 0.30753154 7.0273876E-05 0.25988525
v -0.3614772 0.9146894 0.25988525
v -0.3614772 7.0273876E-05 -0.43162635
v -0.3614772 0.9146894 -0.43162635
v 0.30753154 7.0273876E-05 0.25988525
v 0.30753154 0.9146894 0.25988525
v 0.30753154 0.9146894 -0.43162635
v 0.30753154 7.0273876E-05 -0.43162635
v 0.30753154 7.0273876E-05 -0.43162635
v 0.30753154 0.9146894 -0.43162635
v -0.3614772 0.9146894 -0.43162635
v -0.3614772 7.0273876E-05 -0.43162635
v -7.3138986 0.9018606 0.3561991
v -7.3138986 0.9018606 0.52528477
v 0.1844908 0.9018606 0.52528477
v 0.1844908 0.9018606 0.3561991
v 0.1844908 1.28432 0.3561991
v -7.3138986 1.28432 0.3561991
v 0.1844908 1.28432 0.52528477
v -7.3138986 1.28432 0.52528477
v 0.1844908 0.9018606 0.3561991
v 0.1844908 1.28432 0.52528477
v 0.1844908 1.28432 0.3561991
v 0.1844908 0.9018606 0.52528477
v -7.3138986 1.28432 0.52528477
v 0.1844908 1.28432 0.52528477
v -7.3138986 0.9018606 0.52528477
v -7.3138986 0.9018606 0.3561991
v -7.3138986 1.28432 0.3561991
v -7.3138986 1.28432 0.52528477
vt 0.33107916 0.36920628
vt 0.30555505 0.36920628
vt 0.30555505 0.3802339
vt 0.33107916 0.3802339
vt 0.32679233 0.3969723
vt 0.31126577 0.3969723
vt 0.35914811 0.3802339
vt 0.35914811 0.36920628
vt 0.33107916 0.396942
vt 0.35914811 0.396942
vt 0.30555505 0.36920628
vt 0.33107916 0.36920628
vt 0.33107916 0.3802339
vt 0.30555505 0.3802339
vt 0.31126577 0.3969723
vt 0.32679233 0.3969723
vt 0.35914811 0.36920628
vt 0.33107916 0.3802339
vt 0.33107916 0.36920628
vt 0.35914811 0.3802339
vt 0.35914811 0.396942
vt 0.33107916 0.396942
vt 0.35914811 0.4130896
vt 0.33107916 0.4130896
vt 0.33385122 0.33965284
vt 0.31435594 0.3652224
vt 0.31435594 0.33965284
vt 0.33385122 0.3652224
vt 0.35342222 0.33965284
vt 0.35342222 0.3652224
vt 0.35342222 0.33965284
vt 0.35342222 0.3652224
vt 0.33385122 0.3652224
vt 0.33385122 0.33965284
vt 0.33385122 0.33965284
vt 0.33385122 0.3652224
vt 0.31435594 0.3652224
vt 0.31435594 0.33965284
vt 0.03851362 0.15807559
vt 0.034741804 0.15807559
vt 0.034741804 0.36004186
vt 0.03851362 0.36004186
vt 0.050874263 0.36004186
vt 0.050874263 0.15807559
vt 0.05400987 0.36004186
vt 0.05400987 0.15807559
vt 0.050874263 0.36508608
vt 0.03851362 0.36004186
vt 0.03851362 0.36508608
vt 0.050874263 0.36004186
vt 0.03851362 0.15807559
vt 0.03851362 0.36004186
vt 0.050874263 0.15807559
vt 0.050874263 0.15316768
vt 0.03851362 0.15316768
vt 0.03851362 0.15807559
vn 0.70686835 -0.0007131696 0.7073448
vn -0.7068686 -0.0007131696 0.7073445
vn -0.72969383 0.11198634 0.67454135
vn 0.7296936 0.11198634 0.67454153
vn 0.47576305 0.6483789 0.594352
vn -0.47576326 0.6483789 0.5943519
vn 0.7296936 0.11198634 -0.67454153
vn 0.70686835 -0.0007131696 -0.7073448
vn 0.47576305 0.6483789 0.594352
vn 0.47576305 0.6483789 -0.594352
vn -0.7068686 -0.0007131696 -0.7073445
vn 0.70686835 -0.0007131696 -0.7073448
vn 0.7296936 0.11198634 -0.67454153
vn -0.72969383 0.11198634 -0.67454135
vn -0.47576326 0.6483789 -0.5943519
vn 0.47576305 0.6483789 -0.594352
vn -0.7068686 -0.0007131696 -0.7073445
vn -0.72969383 0.11198634 0.67454135
vn -0.7068686 -0.0007131696 0.7073445
vn -0.72969383 0.11198634 -0.67454135
vn -0.47576326 0.6483789 -0.5943519
vn -0.47576326 0.6483789 0.5943519
vn 0.47576305 0.6483789 -0.594352
vn 0.47576305 0.6483789 0.594352
vn -0.7068686 -0.0007131696 0.7073445
vn 0.70686835 -0.0007131696 0.7073448
vn 0.70686835 -0.0007131696 0.7073448
vn -0.7068686 -0.0007131696 0.7073445
vn -0.7068686 -0.0007131696 -0.7073445
vn -0.7068686 -0.0007131696 -0.7073445
vn 0.70686835 -0.0007131696 0.7073448
vn 0.70686835 -0.0007131696 0.7073448
vn 0.70686835 -0.0007131696 -0.7073448
vn 0.70686835 -0.0007131696 -0.7073448
vn 0.70686835 -0.0007131696 -0.7073448
vn 0.70686835 -0.0007131696 -0.7073448
vn -0.7068686 -0.0007131696 -0.7073445
vn -0.7068686 -0.0007131696 -0.7073445
vn -0.57705015 -0.57705 -0.57795024
vn -0.57705015 -0.57705 0.57795024
vn 0.57705 -0.57705 0.57795036
vn 0.57705 -0.57705 -0.57795036
vn 0.57705 0.57705015 -0.5779502
vn -0.57705015 0.57705015 -0.5779501
vn 0.57705 0.57705015 0.5779502
vn -0.57705015 0.57705015 0.5779501
vn 0.57705 -0.57705 -0.57795036
vn 0.57705 0.57705015 0.5779502
vn 0.57705 0.57705015 -0.5779502
vn 0.57705 -0.57705 0.57795036
vn -0.57705015 0.57705015 0.5779501
vn 0.57705 0.57705015 0.5779502
vn -0.57705015 -0.57705 0.57795024
vn -0.57705015 -0.57705 -0.57795024
vn -0.57705015 0.57705015 -0.5779501
vn -0.57705015 0.57705015 0.5779501
g fcbg_arkcity_003_terminal_03_0
f 3/3/3 2/2/2 1/1/1
f 4/4/4 3/3/3 1/1/1
f 3/3/3 4/4/4 5/5/5
f 6/6/6 3/3/3 5/5/5
f 7/7/7 4/4/4 1/1/1
f 8/8/8 7/7/7 1/1/1
f 9/9/9 4/4/4 7/7/7
f 10/10/10 9/9/9 7/7/7
f 13/13/13 12/12/12 11/11/11
f 14/14/14 13/13/13 11/11/11
f 13/13/13 14/14/14 15/15/15
f 16/16/16 13/13/13 15/15/15
f 19/19/19 18/18/18 17/17/17
f 18/18/18 20/20/20 17/17/17
f 21/21/21 20/20/20 18/18/18
f 22/22/22 21/21/21 18/18/18
f 21/21/21 22/22/22 23/23/23
f 22/22/22 24/24/24 23/23/23
f 27/27/27 26/26/26 25/25/25
f 26/26/26 28/28/28 25/25/25
f 25/25/25 28/28/28 29/29/29
f 28/28/28 30/30/30 29/29/29
f 33/33/33 32/32/32 31/31/31
f 34/34/34 33/33/33 31/31/31
f 37/37/37 36/36/36 35/35/35
f 38/38/38 37/37/37 35/35/35
f 41/41/41 40/40/40 39/39/39
f 42/42/42 41/41/41 39/39/39
f 43/43/43 42/42/42 39/39/39
f 44/44/44 43/43/43 39/39/39
f 45/45/45 43/43/43 44/44/44
f 46/46/46 45/45/45 44/44/44
f 49/49/49 48/48/48 47/47/47
f 48/48/48 50/50/50 47/47/47
f 52/52/52 51/51/51 50/50/50
f 51/51/51 53/53/53 50/50/50
f 55/55/55 54/54/54 53/53/53
f 56/56/56 55/55/55 53/53/53
