g fcbg_cityforest_building_0018
v -1.5026927 1.8672485 0.6230576
v 0.865211 1.8672485 0.09018195
v 0.865211 1.8672485 0.6230576
v -1.5026927 1.8672485 -0.62305826
v 1.5026932 1.8672485 0.09018195
v 1.5026932 1.8672485 -0.62305826
v -1.5026927 6.687641E-05 -0.62305826
v 1.5026932 6.687641E-05 -0.62305826
v -1.5026927 6.687641E-05 0.6230576
v -1.5026927 1.8672485 0.6230576
v 0.865211 1.8672485 0.6230576
v 0.865211 6.687641E-05 0.6230576
v 0.865211 6.687641E-05 0.09018195
v 0.865211 1.8672485 0.09018195
v -1.5026927 6.687641E-05 -0.62305826
v -1.5026927 1.8672485 -0.62305826
v -1.5026927 1.8672485 0.6230576
v -1.5026927 6.687641E-05 0.6230576
v 1.5026932 6.687641E-05 -0.62305826
v 1.5026932 6.687641E-05 0.09018195
v 1.5026932 1.8672485 0.09018195
v 1.5026932 1.8672485 -0.62305826
v 0.865211 1.8672485 0.09018195
v 1.5026932 1.8672485 0.09018195
v 1.5026932 6.687641E-05 0.09018195
v 0.865211 6.687641E-05 0.09018195
v -0.77605414 1.8513999 -0.17409694
v -0.85974216 2.3721848 -0.37613893
v -0.85974216 1.8513999 -0.37613893
v -0.77605414 2.3721848 -0.17409694
v -0.85974216 1.8513999 0.027941227
v -1.0617843 2.3721848 -0.459831
v -1.0617843 1.8513999 -0.459831
v -0.85974216 2.3721848 0.027941227
v -1.0617843 1.8513999 0.11162937
v -1.26383 2.3721848 -0.37613893
v -1.26383 1.8513999 -0.37613893
v -1.0617843 2.3721848 0.11162937
v -1.2638261 1.8513999 0.027941227
v -1.3475144 2.3721848 -0.17409694
v -1.3475144 1.8513999 -0.17409694
v -1.2638261 2.3721848 0.027941227
v -0.88231325 2.4430842 -0.35356414
v -1.0617843 2.4430842 -0.42790723
v -0.8079779 2.4430842 -0.17409694
v -1.2412553 2.4430842 -0.35356414
v -0.88231325 2.4430842 0.005374074
v -1.3155906 2.4430842 -0.17409694
v -1.2412553 2.4430842 0.005374074
v -1.0617843 2.4430842 0.07970941
v -0.95478106 2.4871066 -0.28110003
v -1.0617843 2.4871066 -0.32542133
v -1.0617843 2.5182633 -0.17409694
v -0.91045976 2.4871066 -0.17409694
v -1.1687872 2.4871066 -0.28110003
v -0.95478106 2.4871066 -0.067097664
v -1.2131085 2.4871066 -0.17409694
v -1.0617843 2.4871066 -0.022776365
v -1.1687872 2.4871066 -0.067097664
vt 0.39993864 0.3588349
vt 0.349091 0.34813333
vt 0.349091 0.3588349
vt 0.39993864 0.33156413
vt 0.33560762 0.34813333
vt 0.33560762 0.33156413
vt 0.39993864 0.28182617
vt 0.33560762 0.28182617
vt 0.49327332 0.30531186
vt 0.49327332 0.3558555
vt 0.4456787 0.3558555
vt 0.4456787 0.30531186
vt 0.4313289 0.30531186
vt 0.4313289 0.3558555
vt 0.402006 0.30528146
vt 0.402006 0.3559011
vt 0.42918554 0.3559011
vt 0.42918554 0.30528146
vt 0.4313289 0.30531186
vt 0.4456787 0.30531186
vt 0.4456787 0.3558555
vt 0.4313289 0.3558555
vt 0.4456787 0.32875195
vt 0.46028697 0.32875195
vt 0.46028697 0.30531186
vt 0.4456787 0.30531186
vt 0.039095186 0.1772883
vt 0.029442497 0.20001392
vt 0.029442497 0.1772883
vt 0.039095186 0.20001392
vt 0.029442497 0.1772883
vt 0.020048223 0.20001392
vt 0.020048223 0.1772883
vt 0.029442497 0.20001392
vt 0.020048223 0.1772883
vt 0.010729955 0.20001392
vt 0.010729955 0.1772883
vt 0.020048223 0.20001392
vt 0.010729955 0.1772883
vt 0.0009556541 0.20001392
vt 0.0009556541 0.1772883
vt 0.010729955 0.20001392
vt 0.029442497 0.20361659
vt 0.020048223 0.20361659
vt 0.039095186 0.20361659
vt 0.010729955 0.20361659
vt 0.029442497 0.20361659
vt 0.0009556541 0.20361659
vt 0.010729955 0.20361659
vt 0.020048223 0.20361659
vt 0.029184077 0.20957541
vt 0.020124229 0.20957541
vt 0.02015463 0.22023137
vt 0.037316658 0.20957541
vt 0.011064379 0.20957541
vt 0.029184077 0.20957541
vt 0.0027645838 0.20957541
vt 0.020124229 0.20957541
vt 0.011064379 0.20957541
vn -0.5777123 0.5777123 0.5766255
vn 0.30205262 0.90420294 0.30196238
vn 0.5777123 0.5777123 0.5766255
vn -0.5777123 0.5777123 -0.5766255
vn 0.5777123 0.5777123 0.5766255
vn 0.5777123 0.5777123 -0.5766255
vn -0.70674455 0.0009775162 -0.70746815
vn 0.70674455 0.0009775162 -0.70746815
vn -0.70674455 0.0009775162 0.70746815
vn -0.5777123 0.5777123 0.5766255
vn 0.5777123 0.5777123 0.5766255
vn 0.70674455 0.0009775162 0.70746815
vn 0.70674455 0.0009775162 0.70746815
vn 0.30205262 0.90420294 0.30196238
vn -0.70674455 0.0009775162 -0.70746815
vn -0.5777123 0.5777123 -0.5766255
vn -0.5777123 0.5777123 0.5766255
vn -0.70674455 0.0009775162 0.70746815
vn 0.70674455 0.0009775162 -0.70746815
vn 0.70674455 0.0009775162 0.70746815
vn 0.5777123 0.5777123 0.5766255
vn 0.5777123 0.5777123 -0.5766255
vn 0.30205262 0.90420294 0.30196238
vn 0.5777123 0.5777123 0.5766255
vn 0.70674455 0.0009775162 0.70746815
vn 0.70674455 0.0009775162 0.70746815
vn 0.9999995 0.0009775162 -0
vn 0.6930593 0.20039093 -0.6924682
vn 0.70674455 0.0009775162 -0.70746815
vn 0.9797454 0.2002471 -0
vn 0.70674455 0.0009775162 0.70746815
vn -0.0009775162 0.20039093 -0.9797155
vn -0.0009775162 0.0009775162 -0.99999905
vn 0.6930593 0.20039093 0.6924682
vn -0.0009775162 0.0009775162 0.99999905
vn -0.6930593 0.20039093 -0.6924682
vn -0.70674455 0.0009775162 -0.70746815
vn -0.0009775162 0.20039093 0.9797155
vn -0.70674455 0.0009775162 0.70746815
vn -0.9797454 0.2002471 -0
vn -0.9999995 0.0009775162 -0
vn -0.6930593 0.20039093 0.6924682
vn 0.5249264 0.67155397 -0.52294123
vn -0.0009775162 0.67155397 -0.740955
vn 0.7413969 0.6710668 -0
vn -0.5249264 0.67155397 -0.52294123
vn 0.5249264 0.67155397 0.52294123
vn -0.7413969 0.6710668 -0
vn -0.5249264 0.67155397 0.52294123
vn -0.0009775162 0.67155397 0.740955
vn 0.22776139 0.94721365 -0.22563481
vn -0.0009775162 0.94721365 -0.32060155
vn -0.0009775162 0.9999995 -0
vn 0.3214998 0.94690967 -0
vn -0.22776139 0.94721365 -0.22563481
vn 0.22776139 0.94721365 0.22563481
vn -0.32149974 0.94690967 -0
vn -0.0009775162 0.94721365 0.32060155
vn -0.22776139 0.94721365 0.22563481
g fcbg_cityforest_building_0018_0
f 3/3/3 2/2/2 1/1/1
f 2/2/2 4/4/4 1/1/1
f 2/2/2 5/5/5 4/4/4
f 5/5/5 6/6/6 4/4/4
f 4/4/4 6/6/6 7/7/7
f 6/6/6 8/8/8 7/7/7
f 11/11/11 10/10/10 9/9/9
f 12/12/12 11/11/11 9/9/9
f 11/11/11 12/12/12 13/13/13
f 14/14/14 11/11/11 13/13/13
f 17/17/17 16/16/16 15/15/15
f 18/18/18 17/17/17 15/15/15
f 21/21/21 20/20/20 19/19/19
f 22/22/22 21/21/21 19/19/19
f 25/25/25 24/24/24 23/23/23
f 26/26/26 25/25/25 23/23/23
f 29/29/29 28/28/28 27/27/27
f 28/28/28 30/30/30 27/27/27
f 27/27/27 30/30/30 31/31/31
f 32/32/32 28/28/28 29/29/29
f 33/33/33 32/32/32 29/29/29
f 30/30/30 34/34/34 31/31/31
f 31/31/31 34/34/34 35/35/35
f 36/36/36 32/32/32 33/33/33
f 37/37/37 36/36/36 33/33/33
f 34/34/34 38/38/38 35/35/35
f 35/35/35 38/38/38 39/39/39
f 40/40/40 36/36/36 37/37/37
f 41/41/41 40/40/40 37/37/37
f 39/39/39 42/42/42 41/41/41
f 38/38/38 42/42/42 39/39/39
f 42/42/42 40/40/40 41/41/41
f 28/28/28 43/43/43 30/30/30
f 32/32/32 44/44/44 28/28/28
f 44/44/44 43/43/43 28/28/28
f 30/30/30 45/45/45 34/34/34
f 43/43/43 45/45/45 30/30/30
f 36/36/36 46/46/46 32/32/32
f 46/46/46 44/44/44 32/32/32
f 34/34/34 47/47/47 38/38/38
f 45/45/45 47/47/47 34/34/34
f 40/40/40 48/48/48 36/36/36
f 48/48/48 46/46/46 36/36/36
f 42/42/42 49/49/49 40/40/40
f 49/49/49 48/48/48 40/40/40
f 38/38/38 50/50/50 42/42/42
f 47/47/47 50/50/50 38/38/38
f 50/50/50 49/49/49 42/42/42
f 43/43/43 51/51/51 45/45/45
f 44/44/44 52/52/52 43/43/43
f 52/52/52 51/51/51 43/43/43
f 52/52/52 53/53/53 51/51/51
f 51/51/51 54/54/54 45/45/45
f 45/45/45 54/54/54 47/47/47
f 51/51/51 53/53/53 54/54/54
f 55/55/55 52/52/52 44/44/44
f 46/46/46 55/55/55 44/44/44
f 55/55/55 53/53/53 52/52/52
f 54/54/54 56/56/56 47/47/47
f 47/47/47 56/56/56 50/50/50
f 54/54/54 53/53/53 56/56/56
f 57/57/57 55/55/55 46/46/46
f 57/57/57 53/53/53 55/55/55
f 48/48/48 57/57/57 46/46/46
f 56/56/56 58/58/58 50/50/50
f 50/50/50 58/58/58 49/49/49
f 56/56/56 53/53/53 58/58/58
f 59/59/59 57/57/57 48/48/48
f 49/49/49 59/59/59 48/48/48
f 58/58/58 59/59/59 49/49/49
f 59/59/59 53/53/53 57/57/57
f 58/58/58 53/53/53 59/59/59
