g fcbg_cityforest_002_tree_01
v -0.106549025 2.8446693 0.0048179626
v -0.047624826 4.570314 0.0048184395
v -0.09780073 4.570314 -0.06424856
v -0.20395279 2.8446698 -0.12925005
v 0.25621223 1.4030604 0.0048184395
v 0.04421091 1.4030609 -0.2869873
v 0.48775768 -0.006608486 0.004817486
v 0.11575723 -0.006608486 -0.5071993
v -0.20395279 2.8446698 -0.12925005
v -0.09780073 4.570314 -0.06424856
v -0.17899466 4.570314 -0.037867546
v -0.36156082 2.8446689 -0.0780406
v 0.04421091 1.4030609 -0.2869873
v -0.17899466 4.570314 0.04750395
v -0.29883027 1.4030609 -0.17552757
v 0.11575723 -0.006608486 -0.5071993
v -0.48614955 -0.006608486 -0.31162643
v -0.36156082 2.8446689 0.08767605
v -0.09780073 4.570314 0.073884964
v -0.29883027 1.40306 0.1851635
v -0.48614955 -0.006608486 0.32126093
v -0.20395279 2.8446689 0.1388855
v -0.047624826 4.570314 0.0048184395
v -0.106549025 2.8446693 0.0048179626
v 0.04421091 1.40306 0.29662323
v 0.11575723 -0.006608486 0.5168338
v 0.25621223 1.4030604 0.0048184395
v 0.48775768 -0.006608486 0.004817486
vt 0.6731583 0.9740166
vt 0.5774395 0.9853014
vt 0.5771949 0.9825064
vt 0.6722619 0.9637708
vt 0.72220993 0.9763381
vt 0.7230229 0.9634123
vt 0.7790195 0.9833564
vt 0.7840488 0.9678814
vt 0.6722619 0.9637708
vt 0.5771949 0.9825064
vt 0.57695043 0.97971135
vt 0.67136556 0.9535251
vt 0.7230229 0.9634123
vt 0.5771949 0.9825064
vt 0.72471863 0.9488679
vt 0.7840488 0.9678814
vt 0.78422296 0.9496109
vt 0.6722619 0.9637708
vt 0.5774395 0.9853014
vt 0.7230229 0.9634123
vt 0.7840488 0.9678814
vt 0.6731583 0.9740166
vt 0.57768023 0.98805296
vt 0.67404073 0.9841029
vt 0.72220993 0.9763381
vt 0.7790195 0.9833564
vt 0.7228488 0.98565865
vt 0.7733397 0.9947037
vn 0.9937117 0.111968756 0
vn 0.99941754 -0.03412742 0
vn 0.33401826 0.014953679 -0.942448
vn 0.27033335 0.08593705 -0.9589237
vn 0.97975963 0.20017764 0
vn 0.32429132 0.16147064 -0.9320743
vn 0.9867776 0.1620803 0
vn 0.30493328 0.16208267 -0.9384802
vn 0.27033335 0.08593705 -0.9589237
vn 0.33401826 0.014953679 -0.942448
vn -0.79502434 0.09804582 -0.5986011
vn -0.82119316 0.049936876 -0.5684612
vn 0.32429132 0.16147064 -0.9320743
vn -0.7950243 0.09804548 0.59860134
vn -0.7973214 0.08733983 -0.5972021
vn 0.30493328 0.16208267 -0.9384802
vn -0.7983195 0.16208099 -0.5800136
vn -0.82119316 0.049936805 0.56846106
vn 0.33401722 0.0149532 0.9424483
vn -0.79732114 0.08733983 0.5972024
vn -0.79831964 0.16208044 0.5800136
vn 0.2703325 0.08593713 0.95892406
vn 0.99941754 -0.03412742 0
vn 0.9937117 0.111968756 0
vn 0.3242905 0.16147013 0.9320746
vn 0.30493295 0.16208172 0.9384804
vn 0.97975963 0.20017764 0
vn 0.9867776 0.1620803 0
g fcbg_cityforest_002_tree_01_0
f 3/3/3 2/2/2 1/1/1
f 4/4/4 3/3/3 1/1/1
f 4/4/4 1/1/1 5/5/5
f 6/6/6 4/4/4 5/5/5
f 5/5/5 7/7/7 6/6/6
f 7/7/7 8/8/8 6/6/6
f 11/11/11 10/10/10 9/9/9
f 12/12/12 11/11/11 9/9/9
f 12/12/12 9/9/9 13/13/13
f 14/14/14 11/11/11 12/12/12
f 15/15/15 12/12/12 13/13/13
f 13/13/13 16/16/16 15/15/15
f 16/16/16 17/17/17 15/15/15
f 18/18/18 14/14/14 12/12/12
f 18/18/18 12/12/12 15/15/15
f 19/19/19 14/14/14 18/18/18
f 15/15/15 17/17/17 20/20/20
f 20/20/20 18/18/18 15/15/15
f 17/17/17 21/21/21 20/20/20
f 22/22/22 19/19/19 18/18/18
f 22/22/22 18/18/18 20/20/20
f 23/23/23 19/19/19 22/22/22
f 24/24/24 23/23/23 22/22/22
f 20/20/20 21/21/21 25/25/25
f 25/25/25 22/22/22 20/20/20
f 24/24/24 22/22/22 25/25/25
f 21/21/21 26/26/26 25/25/25
f 27/27/27 24/24/24 25/25/25
f 25/25/25 26/26/26 27/27/27
f 26/26/26 28/28/28 27/27/27
