g fcbg_wasteland_stone_04
v 0.46555066 0.25896192 -0.09818279
v 0.4993638 0.007798353 -0.11975645
v 0.37905493 0.0077982843 0.21611476
v 0.34392932 0.250081 0.19651067
v 0.32075405 0.419909 -0.06658164
v 0.039045967 0.21727502 0.30544525
v 0.06304747 0.007798273 0.3785186
v -0.27956378 0.0077983215 0.34449688
v 0.23749779 0.3985451 0.11025081
v 0.13474864 0.45616764 -0.042751487
v 0.025747472 0.34294015 0.22897357
v -0.09574282 0.38330543 -0.0003499773
v -0.22169195 0.22576107 0.26104227
v -0.42378357 0.24963996 0.052134138
v -0.55033195 0.007798421 0.064391755
v 0.46555066 0.25896192 -0.09818279
v 0.28991926 0.007798454 -0.41369882
v 0.4993638 0.007798353 -0.11975645
v 0.27878743 0.26379377 -0.35128042
v 0.32075405 0.419909 -0.06658164
v -0.07885016 0.22159849 -0.36125287
v -0.09218726 0.0077984966 -0.45432577
v -0.41193345 0.0077984864 -0.28672194
v 0.18547145 0.4322483 -0.21347404
v 0.13474864 0.45616764 -0.042751487
v -0.060198788 0.36168242 -0.27281156
v -0.09574282 0.38330543 -0.0003499773
v -0.3105513 0.24187958 -0.21359038
v -0.55033195 0.007798421 0.064391755
v -0.42378357 0.24963996 0.052134138
v 0.47011465 0.0013479348 0.5548755
v 0.27093625 0.0013479795 0.7158274
v 0.25414357 0.12161914 0.66157365
v 0.42540812 0.15214245 0.5389582
v 0.24114412 0.22708231 0.47800487
v 0.3816317 0.18970457 0.38368228
v 0.41766793 0.0013479888 0.36141515
v 0.23838206 0.21588345 0.2969378
v 0.24513234 0.0013480596 0.24487714
v 0.041247487 0.0013480354 0.36264127
v 0.24513234 0.0013480596 0.24487714
v 0.23838206 0.21588345 0.2969378
v 0.077077284 0.1884083 0.39675942
v 0.24114412 0.22708231 0.47800487
v 0.09826053 0.15996052 0.5739361
v 0.05698722 0.0013480261 0.59501916
v 0.25414357 0.12161914 0.66157365
v 0.27093625 0.0013479795 0.7158274
v -0.6565991 -0.00077200495 0.54943496
v -0.9261481 -0.0007719733 0.42048416
v -0.8617082 0.17199609 0.39035082
v -0.66005534 0.17753524 0.49772453
v -0.74813414 0.22275418 0.3343866
v -0.39419335 -0.0007720012 0.4495678
v -0.52223176 0.28249675 0.24322475
v -0.4283506 0.18836823 0.41174877
v -0.33860627 -0.000771977 0.16558287
v -0.39247343 0.27239266 0.18803969
v -0.5687989 -0.0007719062 0.003510135
v -0.33860627 -0.000771977 0.16558287
v -0.39247343 0.27239266 0.18803969
v -0.57434 0.19327565 0.05456683
v -0.52223176 0.28249675 0.24322475
v -0.82982993 0.18520941 0.15138006
v -0.74813414 0.22275418 0.3343866
v -0.86412036 -0.0007718969 0.10899114
v -0.8617082 0.17199609 0.39035082
v -0.9261481 -0.0007719733 0.42048416
v -1.0361804 0.008125548 0.10306752
v -1.1677074 0.008125596 -0.09034906
v -1.0448157 0.20287387 -0.09906563
v -0.8236543 0.21210627 0.026511047
v -0.82018435 0.0081255315 0.13527328
v -0.7778643 0.31891346 -0.1509545
v -0.5984516 0.18428022 0.029852696
v -0.55685467 0.008125516 0.05163572
v -0.47332528 0.008125557 -0.21226677
v -0.52651894 0.22920525 -0.19778387
v -0.6501833 0.2881834 -0.01666573
v -0.60696834 0.32909358 -0.18407963
v -1.1029944 0.008125646 -0.32940602
v -1.0448157 0.20287387 -0.09906563
v -1.1677074 0.008125596 -0.09034906
v -0.873585 0.2923324 -0.29653051
v -0.93686026 0.008125659 -0.43349335
v -0.7778643 0.31891346 -0.1509545
v -0.6831906 0.20328256 -0.39258212
v -0.6514718 0.008125629 -0.4462534
v -0.47332528 0.008125557 -0.21226677
v -0.52651894 0.22920525 -0.19778387
v -0.60696834 0.32909358 -0.18407963
v -0.71490735 0.3663324 -0.3099507
v 1.012676 0.0061526448 -0.945332
v 1.1043246 0.0061526746 -0.6951644
v 1.0452609 0.13006867 -0.696837
v 0.98199606 0.16182517 -0.9066487
v 0.860239 0.24392198 -0.7376681
v 0.83628964 0.2009048 -0.9201676
v 0.8264569 0.006152734 -0.9631287
v 0.66174996 0.22814123 -0.7501139
v 0.6204957 0.0061525702 -0.74170655
v 0.66806084 0.0061525106 -0.56400764
v 0.6204957 0.0061525702 -0.74170655
v 0.66174996 0.22814123 -0.7501139
v 0.71368563 0.22368653 -0.5878409
v 0.860239 0.24392198 -0.7376681
v 0.88642323 0.16995904 -0.5381376
v 0.89333224 0.0061525702 -0.4904163
v 1.0452609 0.13006867 -0.696837
v 1.1043246 0.0061526746 -0.6951644
vt 0.8012981 0.16985813
vt 0.8100645 0.1569905
vt 0.82745665 0.17073855
vt 0.8166742 0.18058369
vt 0.7984968 0.18411872
vt 0.82737 0.1957595
vt 0.8394932 0.19049975
vt 0.84267306 0.21236302
vt 0.8092573 0.18811437
vt 0.80115336 0.19743076
vt 0.8187985 0.19930924
vt 0.8089294 0.21005113
vt 0.82843643 0.2118885
vt 0.823427 0.2270336
vt 0.8372578 0.2353628
vt 0.8012981 0.16985813
vt 0.82745665 0.17073855
vt 0.8100645 0.1569905
vt 0.8166742 0.18058369
vt 0.7984968 0.18411872
vt 0.82737 0.1957595
vt 0.8394932 0.19049975
vt 0.84267306 0.21236302
vt 0.8092573 0.18811437
vt 0.80115336 0.19743076
vt 0.8187985 0.19930924
vt 0.8089294 0.21005113
vt 0.82843643 0.2118885
vt 0.8372578 0.2353628
vt 0.823427 0.2270336
vt 0.9657886 0.03717838
vt 0.95536566 0.046322804
vt 0.96001816 0.052295905
vt 0.967999 0.045376044
vt 0.97428477 0.05553202
vt 0.9795805 0.04600845
vt 0.9804046 0.03708647
vt 0.98630404 0.054337006
vt 0.99125075 0.045229
vt 0.9804046 0.03708647
vt 0.99125075 0.045229
vt 0.98630404 0.054337006
vt 0.9795805 0.04600845
vt 0.97428477 0.05553202
vt 0.967999 0.045376044
vt 0.9657886 0.03717838
vt 0.96001816 0.052295905
vt 0.95536566 0.046322804
vt 0.9657886 0.03717838
vt 0.95536566 0.046322804
vt 0.96001816 0.052295905
vt 0.967999 0.045376044
vt 0.9685539 0.054574054
vt 0.9804046 0.03708647
vt 0.9791441 0.056155484
vt 0.9795805 0.04600845
vt 0.99125075 0.045229
vt 0.98630404 0.054337006
vt 0.9804046 0.03708647
vt 0.99125075 0.045229
vt 0.98630404 0.054337006
vt 0.9795805 0.04600845
vt 0.9791441 0.056155484
vt 0.967999 0.045376044
vt 0.9685539 0.054574054
vt 0.9657886 0.03717838
vt 0.96001816 0.052295905
vt 0.95536566 0.046322804
vt 0.84267306 0.21236302
vt 0.8372578 0.2353628
vt 0.823427 0.2270336
vt 0.8187985 0.19930924
vt 0.8394932 0.19049975
vt 0.80115336 0.19743076
vt 0.8166742 0.18058369
vt 0.82745665 0.17073855
vt 0.8100645 0.1569905
vt 0.8012981 0.16985813
vt 0.8092573 0.18811437
vt 0.7984968 0.18411872
vt 0.84267306 0.21236302
vt 0.823427 0.2270336
vt 0.8372578 0.2353628
vt 0.8187985 0.19930924
vt 0.8394932 0.19049975
vt 0.80115336 0.19743076
vt 0.8166742 0.18058369
vt 0.82745665 0.17073855
vt 0.8100645 0.1569905
vt 0.8012981 0.16985813
vt 0.7984968 0.18411872
vt 0.8092573 0.18811437
vt 0.95878553 0.0075004525
vt 0.9488151 0.017836314
vt 0.9554894 0.0238267
vt 0.96256304 0.014879566
vt 0.9691547 0.02714483
vt 0.97090983 0.015701633
vt 0.9749882 0.0072063035
vt 0.9820645 0.024499994
vt 0.98864985 0.01462565
vt 0.9749882 0.0072063035
vt 0.98864985 0.01462565
vt 0.9820645 0.024499994
vt 0.97090983 0.015701633
vt 0.9691547 0.02714483
vt 0.96256304 0.014879566
vt 0.95878553 0.0075004525
vt 0.9554894 0.0238267
vt 0.9488151 0.017836314
vn 0.90042126 0.42335767 -0.10004905
vn 0.97501594 0.16771668 -0.1456535
vn 0.7136171 0.19465075 0.67295
vn 0.63512534 0.40908387 0.65518415
vn 0.54755276 0.8366043 -0.016711516
vn 0.10016701 0.41775095 0.9030231
vn 0.14348029 0.29966396 0.943194
vn -0.41424975 0.39212236 0.82136303
vn 0.32973027 0.8085235 0.48740923
vn -0.0629427 0.99509394 0.076329395
vn -0.07021898 0.7712413 0.63265806
vn -0.3477791 0.93221855 0.10009117
vn -0.36945087 0.6042275 0.7059852
vn -0.698749 0.69836354 0.1550428
vn -0.8597969 0.48533803 0.15873359
vn 0.90042126 0.42335767 -0.10004905
vn 0.44611856 0.26942763 -0.8534559
vn 0.97501594 0.16771668 -0.1456535
vn 0.42785862 0.4606489 -0.77765
vn 0.54755276 0.8366043 -0.016711516
vn -0.21643731 0.4615325 -0.86031544
vn -0.2011349 0.37377304 -0.90544933
vn -0.67259175 0.44614437 -0.5904029
vn 0.1550464 0.86973554 -0.46853036
vn -0.0629427 0.99509394 0.076329395
vn -0.28190294 0.7947693 -0.5374686
vn -0.3477791 0.93221855 0.10009117
vn -0.5869231 0.64851946 -0.48471013
vn -0.8597969 0.48533803 0.15873359
vn -0.698749 0.69836354 0.1550428
vn 0.8899236 0.32865041 0.3162674
vn 0.096180715 0.34617332 0.93322736
vn 0.04183204 0.56774217 0.82214284
vn 0.72741294 0.612529 0.30931965
vn 0.019492848 0.9784565 0.20553066
vn 0.6539288 0.65790826 -0.37354213
vn 0.7959855 0.23362717 -0.5584133
vn 0.0061784834 0.70859987 -0.70558345
vn 0.025716761 0.24893326 -0.9681791
vn -0.85747504 0.25086272 -0.4492264
vn 0.025716761 0.24893326 -0.9681791
vn 0.0061784834 0.70859987 -0.70558345
vn -0.71645933 0.6392962 -0.2792608
vn 0.019492848 0.9784565 0.20553066
vn -0.6170352 0.613543 0.4927804
vn -0.8043331 0.2705384 0.52901536
vn 0.04183204 0.56774217 0.82214284
vn 0.096180715 0.34617332 0.93322736
vn -0.045220137 0.28730935 0.95676976
vn -0.84388274 0.3297881 0.42320412
vn -0.6979009 0.617837 0.3622319
vn -0.0668046 0.6183658 0.7830459
vn -0.26511955 0.9519833 0.15309957
vn 0.7268994 0.2530048 0.6384402
vn -0.023187753 0.99922097 0.03193626
vn 0.5975377 0.5569378 0.57686126
vn 0.90131056 0.23176935 -0.36595392
vn 0.63305104 0.73132354 -0.25379562
vn 0.1145165 0.24927686 -0.9616377
vn 0.90131056 0.23176935 -0.36595392
vn 0.63305104 0.73132354 -0.25379562
vn 0.046641126 0.5667618 -0.8225604
vn -0.023187753 0.99922097 0.03193626
vn -0.61787856 0.6310173 -0.46908754
vn -0.26511955 0.9519833 0.15309957
vn -0.72587675 0.2946532 -0.6215162
vn -0.6979009 0.617837 0.3622319
vn -0.84388274 0.3297881 0.42320412
vn -0.4432144 0.5593487 0.70049274
vn -0.8357894 0.5332587 0.13073385
vn -0.65056735 0.7356703 0.18855038
vn -0.18204333 0.6746701 0.71531844
vn 0.011271717 0.41542023 0.9095598
vn -0.23652129 0.93413085 0.26731494
vn 0.57219654 0.40544647 0.7128845
vn 0.6963582 0.23062228 0.67963123
vn 0.947014 0.27095973 -0.1724685
vn 0.89422125 0.42536438 -0.13940397
vn 0.26380253 0.76821876 0.5833079
vn 0.5476391 0.8367146 0.0003764918
vn -0.68121636 0.54812 -0.4852925
vn -0.65056735 0.7356703 0.18855038
vn -0.8357894 0.5332587 0.13073385
vn -0.4611372 0.7633304 -0.45241487
vn -0.31510448 0.42723927 -0.8474525
vn -0.23652129 0.93413085 0.26731494
vn 0.3113107 0.4167286 -0.8540626
vn 0.40400818 0.28438517 -0.86942655
vn 0.947014 0.27095973 -0.1724685
vn 0.89422125 0.42536438 -0.13940397
vn 0.5476391 0.8367146 0.0003764918
vn 0.07985543 0.88722944 -0.45436442
vn 0.5995747 0.32781255 -0.73010206
vn 0.91821426 0.34541792 0.19382723
vn 0.79749113 0.5661191 0.2086077
vn 0.54523325 0.6066229 -0.5785581
vn 0.22676133 0.97380644 0.016746089
vn -0.18039411 0.65285367 -0.7356901
vn -0.3170675 0.20972066 -0.92492455
vn -0.71397275 0.66779435 -0.2104608
vn -0.95523554 0.20371644 -0.21453337
vn -0.6972784 0.23249911 0.67804646
vn -0.95523554 0.20371644 -0.21453337
vn -0.71397275 0.66779435 -0.2104608
vn -0.44874653 0.69397837 0.5630457
vn 0.22676133 0.97380644 0.016746089
vn 0.2728258 0.5897156 0.7601325
vn 0.23676662 0.2742311 0.93206155
vn 0.79749113 0.5661191 0.2086077
vn 0.91821426 0.34541792 0.19382723
g fcbg_wasteland_stone_04_0
f 3/3/3 2/2/2 1/1/1
f 4/4/4 3/3/3 1/1/1
f 1/1/1 5/5/5 4/4/4
f 3/3/3 4/4/4 6/6/6
f 7/7/7 3/3/3 6/6/6
f 8/8/8 7/7/7 6/6/6
f 5/5/5 9/9/9 4/4/4
f 5/5/5 10/10/10 9/9/9
f 4/4/4 9/9/9 11/11/11
f 9/9/9 10/10/10 11/11/11
f 6/6/6 4/4/4 11/11/11
f 10/10/10 12/12/12 11/11/11
f 11/11/11 13/13/13 6/6/6
f 12/12/12 13/13/13 11/11/11
f 13/13/13 8/8/8 6/6/6
f 14/14/14 13/13/13 12/12/12
f 13/13/13 14/14/14 8/8/8
f 14/14/14 15/15/15 8/8/8
f 18/18/18 17/17/17 16/16/16
f 17/17/17 19/19/19 16/16/16
f 16/16/16 19/19/19 20/20/20
f 21/21/21 19/19/19 17/17/17
f 22/22/22 21/21/21 17/17/17
f 21/21/21 22/22/22 23/23/23
f 19/19/19 24/24/24 20/20/20
f 19/19/19 21/21/21 24/24/24
f 24/24/24 25/25/25 20/20/20
f 24/24/24 26/26/26 25/25/25
f 21/21/21 26/26/26 24/24/24
f 26/26/26 27/27/27 25/25/25
f 28/28/28 21/21/21 23/23/23
f 26/26/26 21/21/21 28/28/28
f 26/26/26 28/28/28 27/27/27
f 23/23/23 29/29/29 28/28/28
f 28/28/28 30/30/30 27/27/27
f 29/29/29 30/30/30 28/28/28
f 33/33/33 32/32/32 31/31/31
f 34/34/34 33/33/33 31/31/31
f 34/34/34 35/35/35 33/33/33
f 36/36/36 34/34/34 31/31/31
f 36/36/36 35/35/35 34/34/34
f 37/37/37 36/36/36 31/31/31
f 36/36/36 38/38/38 35/35/35
f 36/36/36 37/37/37 39/39/39
f 38/38/38 36/36/36 39/39/39
f 42/42/42 41/41/41 40/40/40
f 43/43/43 42/42/42 40/40/40
f 42/42/42 43/43/43 44/44/44
f 45/45/45 43/43/43 40/40/40
f 44/44/44 43/43/43 45/45/45
f 46/46/46 45/45/45 40/40/40
f 44/44/44 45/45/45 47/47/47
f 45/45/45 46/46/46 48/48/48
f 47/47/47 45/45/45 48/48/48
f 51/51/51 50/50/50 49/49/49
f 52/52/52 51/51/51 49/49/49
f 52/52/52 53/53/53 51/51/51
f 52/52/52 49/49/49 54/54/54
f 55/55/55 53/53/53 52/52/52
f 56/56/56 52/52/52 54/54/54
f 56/56/56 55/55/55 52/52/52
f 56/56/56 54/54/54 57/57/57
f 58/58/58 55/55/55 56/56/56
f 58/58/58 56/56/56 57/57/57
f 61/61/61 60/60/60 59/59/59
f 62/62/62 61/61/61 59/59/59
f 62/62/62 63/63/63 61/61/61
f 64/64/64 62/62/62 59/59/59
f 62/62/62 64/64/64 63/63/63
f 64/64/64 65/65/65 63/63/63
f 66/66/66 64/64/64 59/59/59
f 65/65/65 64/64/64 67/67/67
f 67/67/67 64/64/64 66/66/66
f 68/68/68 67/67/67 66/66/66
f 71/71/71 70/70/70 69/69/69
f 71/71/71 69/69/69 72/72/72
f 69/69/69 73/73/73 72/72/72
f 74/74/74 71/71/71 72/72/72
f 72/72/72 73/73/73 75/75/75
f 73/73/73 76/76/76 75/75/75
f 75/75/75 76/76/76 77/77/77
f 78/78/78 75/75/75 77/77/77
f 79/79/79 74/74/74 72/72/72
f 79/79/79 72/72/72 75/75/75
f 79/79/79 75/75/75 78/78/78
f 80/80/80 74/74/74 79/79/79
f 80/80/80 79/79/79 78/78/78
f 83/83/83 82/82/82 81/81/81
f 82/82/82 84/84/84 81/81/81
f 84/84/84 85/85/85 81/81/81
f 84/84/84 82/82/82 86/86/86
f 84/84/84 87/87/87 85/85/85
f 87/87/87 88/88/88 85/85/85
f 88/88/88 87/87/87 89/89/89
f 87/87/87 90/90/90 89/89/89
f 91/91/91 90/90/90 87/87/87
f 92/92/92 84/84/84 86/86/86
f 92/92/92 87/87/87 84/84/84
f 92/92/92 91/91/91 87/87/87
f 92/92/92 86/86/86 91/91/91
f 95/95/95 94/94/94 93/93/93
f 96/96/96 95/95/95 93/93/93
f 96/96/96 97/97/97 95/95/95
f 98/98/98 96/96/96 93/93/93
f 98/98/98 97/97/97 96/96/96
f 99/99/99 98/98/98 93/93/93
f 98/98/98 100/100/100 97/97/97
f 98/98/98 99/99/99 101/101/101
f 100/100/100 98/98/98 101/101/101
f 104/104/104 103/103/103 102/102/102
f 105/105/105 104/104/104 102/102/102
f 104/104/104 105/105/105 106/106/106
f 107/107/107 105/105/105 102/102/102
f 106/106/106 105/105/105 107/107/107
f 108/108/108 107/107/107 102/102/102
f 106/106/106 107/107/107 109/109/109
f 107/107/107 108/108/108 110/110/110
f 109/109/109 107/107/107 110/110/110
