g fcbg_cityforest_002_barricade_03
v -1.7283211 1.9980822 0.41622734
v -1.7283201 1.7830713 0.39226055
v -1.728322 1.9980822 0.33710432
v -1.7283192 1.7830713 0.52711725
v -1.7283201 1.5680602 0.3922596
v -1.7283192 1.5680602 0.5271168
v -1.335144E-05 1.5680602 0.5271158
v -1.7283192 1.3530492 0.2947874
v -1.7283182 1.3530492 0.4296441
v -1.7283201 1.1380382 0.3882928
v -1.7283192 1.1380382 0.5231495
v -1.728322 0.9230272 0.36131477
v -1.7283182 1.3530492 0.4296441
v -1.7283211 0.9230272 0.49617195
v -1.728323 0.70801616 0.2886219
v -1.7283211 0.70801616 0.36480188
v -1.335144E-05 1.783071 0.52711725
v -1.7283211 1.9980822 0.41622734
v -1.335144E-05 1.998082 0.41622686
v 1.7282944 1.998082 0.41622686
v 1.7282915 1.783071 0.5271168
v -1.335144E-05 1.1380382 0.5231495
v -1.335144E-05 0.92302716 0.49617195
v -1.7283211 0.9230272 0.49617195
v -1.7283211 0.70801616 0.36480188
v -1.335144E-05 0.70801616 0.36480093
v 1.7282944 0.70801616 0.36480093
v 1.7282944 0.9230272 0.49617147
v 1.7282915 1.1380382 0.523149
v -1.335144E-05 1.3530492 0.4296441
v 1.7282915 1.3530492 0.42964363
v 1.7282915 1.5680602 0.5271158
v 1.7282934 1.5680602 0.39225912
v 1.7282934 1.783071 0.3922596
v 1.7282944 1.998082 0.41622686
v 1.7282944 1.998082 0.33710384
v 1.7282915 1.3530492 0.29478645
v 1.7282915 1.3530492 0.42964363
v 1.7282934 1.1380382 0.38829184
v 1.7282944 0.9230273 0.36131382
v 1.7282944 0.9230272 0.49617147
v 1.7282963 0.70801616 0.28862143
v 1.7282944 0.70801616 0.36480093
v -0.91643333 0.003750801 0.05564785
v -1.09622 2.0504546 -0.048151493
v -1.09622 0.003750801 -0.048151493
v -0.91643333 2.0504546 0.05564785
v -0.91643333 0.003750801 0.26324797
v -0.91643333 2.0504546 0.26324797
v -1.09622 0.003750801 0.3670473
v -1.09622 2.0504546 0.3670473
v -1.2760067 0.003750801 0.26324797
v -1.09622 2.0504546 -0.048151493
v -0.91643333 2.0504546 0.05564785
v -1.2760067 2.0504546 0.05564785
v -1.2760067 2.0504546 0.26324797
v -1.2760067 2.0504546 0.26324797
v -1.2760067 0.003750801 0.05564785
v -1.2760067 2.0504546 0.05564785
v -1.09622 0.003750801 -0.048151493
v -1.09622 2.0504546 -0.048151493
v -1.728322 1.9980822 0.33710432
v -1.335144E-05 1.998082 0.41622686
v -1.7283211 1.9980822 0.41622734
v -1.335144E-05 1.998082 0.33710384
v 1.7282944 1.998082 0.33710384
v 1.7282944 1.998082 0.41622686
v -1.335144E-05 1.783071 0.3922596
v -1.335144E-05 1.998082 0.33710384
v 1.7282944 1.998082 0.33710384
v -1.7283201 1.7830713 0.39226055
v -1.335144E-05 1.5680602 0.3922596
v 1.7282934 1.783071 0.3922596
v -1.7283201 1.5680602 0.3922596
v 1.7282934 1.5680602 0.39225912
v -1.7283192 1.3530492 0.2947874
v 1.7282915 1.3530492 0.29478645
v -1.335144E-05 1.3530492 0.29478645
v -1.335144E-05 1.1380382 0.38829184
v -1.7283201 1.1380382 0.3882928
v -1.335144E-05 0.9230272 0.36131477
v 1.7282934 1.1380382 0.38829184
v -1.728322 0.9230272 0.36131477
v 1.7282944 0.9230273 0.36131382
v -1.728323 0.70801616 0.2886219
v 1.7282963 0.70801616 0.28862143
v -1.335144E-05 0.70801616 0.2886219
v 0.9164076 0.0037509203 0.055646896
v 1.0961924 0.0037509203 -0.048152447
v 1.0961924 2.0504546 -0.048152447
v 0.9164076 2.0504546 0.055646896
v 0.9164076 0.0037509203 0.2632475
v 0.9164076 2.0504546 0.2632475
v 1.0961924 0.0037509203 0.36704683
v 1.0961924 2.0504546 0.36704683
v 0.9164076 2.0504546 0.055646896
v 1.0961924 2.0504546 -0.048152447
v 1.275981 2.0504546 0.055646896
v 1.275981 2.0504546 0.2632475
v 1.275981 0.0037509203 0.2632475
v 1.275981 2.0504546 0.2632475
v 1.275981 0.0037509203 0.055646896
v 1.275981 2.0504546 0.055646896
v 1.0961924 0.0037509203 -0.048152447
v 1.0961924 2.0504546 -0.048152447
vt 0.9939462 0.5769567
vt 0.99474275 0.57003623
vt 0.99649394 0.57696587
vt 0.9904003 0.57002026
vt 0.994769 0.5631117
vt 0.9904252 0.5630962
vt 0.9241563 0.5631445
vt 0.9979341 0.55619496
vt 0.9935888 0.55618006
vt 0.9949441 0.54925567
vt 0.9905983 0.54924196
vt 0.9958346 0.54232925
vt 0.9899545 0.5561542
vt 0.9914887 0.5423159
vt 0.9981984 0.53540784
vt 0.9957435 0.5354002
vt 0.9241563 0.57013494
vt 0.9899545 0.5771254
vt 0.9241563 0.5771254
vt 0.9899545 0.5771254
vt 0.9904003 0.57002026
vt 0.9241563 0.54916364
vt 0.9241563 0.5421733
vt 0.9899545 0.5421733
vt 0.9899545 0.5351829
vt 0.9241563 0.5351829
vt 0.9899545 0.5351829
vt 0.9899545 0.5421733
vt 0.9905983 0.54924196
vt 0.9241563 0.5561541
vt 0.9899545 0.5561542
vt 0.9904252 0.5630962
vt 0.994769 0.5631117
vt 0.99474275 0.57003623
vt 0.9939462 0.5769567
vt 0.99649394 0.57696587
vt 0.9979341 0.55619496
vt 0.9935888 0.55618006
vt 0.9949441 0.54925567
vt 0.9958346 0.54232925
vt 0.9914887 0.5423159
vt 0.9981984 0.53540784
vt 0.9957435 0.5354002
vt 0.9073196 0.5753759
vt 0.91416377 0.6428513
vt 0.91416377 0.5753759
vt 0.9073196 0.6428513
vt 0.9004756 0.5753759
vt 0.9004756 0.6428513
vt 0.8936314 0.5753759
vt 0.8936314 0.6428513
vt 0.9004756 0.5753759
vt 0.9004756 0.65470564
vt 0.9038975 0.6487784
vt 0.8936314 0.65470564
vt 0.8902094 0.6487784
vt 0.9004756 0.6428512
vt 0.9073196 0.5753759
vt 0.9073196 0.6428512
vt 0.91416377 0.5753759
vt 0.91416377 0.6428512
vt 0.9899545 0.5771255
vt 0.9241563 0.580144
vt 0.9899545 0.580144
vt 0.9241563 0.5771254
vt 0.9899545 0.5771255
vt 0.9899545 0.580144
vt 0.9241563 0.57013494
vt 0.9241563 0.5771254
vt 0.9899545 0.5771255
vt 0.9899545 0.57013494
vt 0.9241563 0.5631444
vt 0.9899545 0.57013494
vt 0.9899545 0.5631445
vt 0.9899545 0.5631445
vt 0.9899545 0.5561542
vt 0.9899545 0.5561542
vt 0.9241563 0.5561542
vt 0.9241563 0.54916376
vt 0.9899545 0.54916376
vt 0.9241563 0.5421731
vt 0.9899545 0.54916376
vt 0.9899545 0.5421732
vt 0.9899545 0.5421732
vt 0.9899545 0.5351828
vt 0.9899545 0.5351828
vt 0.9241563 0.53518265
vt 0.9073196 0.5753759
vt 0.91416377 0.5753759
vt 0.91416377 0.6428513
vt 0.9073196 0.6428513
vt 0.9004756 0.5753759
vt 0.9004756 0.6428513
vt 0.8936314 0.5753759
vt 0.8936314 0.6428513
vt 0.9038975 0.6487784
vt 0.9004756 0.65470564
vt 0.8936314 0.65470564
vt 0.8902094 0.6487784
vt 0.9004756 0.5753759
vt 0.9004756 0.6428512
vt 0.9073196 0.5753759
vt 0.9073196 0.6428512
vt 0.91416377 0.5753759
vt 0.91416377 0.6428512
vn -0.60660696 0.6788692 0.41372052
vn -0.73641205 -0.08472206 -0.67120755
vn -0.56528723 0.50565344 -0.6517399
vn -0.6576731 0.17765382 0.7320554
vn -0.75788206 0.13779049 -0.63767433
vn -0.6625116 -0.15820937 0.7321531
vn -0 -0.21121182 0.97744036
vn -0.6261499 0.0060082423 -0.77967954
vn -0.81080914 -0.004509761 0.58529323
vn -0.7717232 -0.0904367 -0.62949544
vn -0.6521642 0.10781308 0.75037205
vn -0.73043096 0.15266192 -0.6657064
vn -0.81080914 -0.004509761 0.58529323
vn -0.6627038 -0.24736616 0.7068476
vn -0.6210838 0.25101742 -0.7424589
vn -0.803375 -0.3104641 0.5081345
vn -0 0.23583554 0.97179294
vn -0.60660696 0.6788692 0.41372052
vn -0 0.8539237 0.5203982
vn 0.606609 0.6788672 0.41372064
vn 0.6576713 0.17765342 0.7320572
vn -0 0.14221445 0.9898359
vn -0 -0.33031908 0.9438694
vn -0.6627038 -0.24736616 0.7068476
vn -0.803375 -0.3104641 0.5081345
vn -0 -0.52137786 0.85332596
vn 0.8033777 -0.3104616 0.5081316
vn 0.662705 -0.2473657 0.7068468
vn 0.6521634 0.10781319 0.7503727
vn -0 -0.007704643 0.9999703
vn 0.8108098 -0.0045094974 0.58529234
vn 0.6625104 -0.15820934 0.7321542
vn 0.75788385 0.13779026 -0.6376722
vn 0.736413 -0.08472211 -0.67120636
vn 0.606609 0.6788672 0.41372064
vn 0.5652855 0.5056565 -0.65173906
vn 0.6261485 0.0060085775 -0.77968067
vn 0.8108098 -0.0045094974 0.58529234
vn 0.7717239 -0.09043662 -0.6294946
vn 0.7304285 0.15266348 -0.66570866
vn 0.662705 -0.2473657 0.7068468
vn 0.62108356 0.2510183 -0.74245876
vn 0.8033777 -0.3104616 0.5081316
vn 0.8660248 0 -0.50000095
vn -0 0.60999453 -0.7924056
vn -0 0 -1
vn 0.68624324 0.609994 -0.3962038
vn 0.8660248 0 0.50000095
vn 0.68624324 0.609994 0.3962038
vn -0 0 1
vn -0 0.60999453 0.7924056
vn -0.8660248 0 0.50000095
vn -0 0.60999453 -0.7924056
vn 0.68624324 0.609994 -0.3962038
vn -0.68624324 0.60999405 -0.3962038
vn -0.68624324 0.60999405 0.3962038
vn -0.68624324 0.60999405 0.3962038
vn -0.8660248 0 -0.50000095
vn -0.68624324 0.60999405 -0.3962038
vn -0 0 -1
vn -0 0.60999453 -0.7924056
vn -0.56528723 0.50565344 -0.6517399
vn -0 0.8539237 0.5203982
vn -0.60660696 0.6788692 0.41372052
vn -0 0.6129924 -0.7900888
vn 0.5652855 0.5056565 -0.65173906
vn 0.606609 0.6788672 0.41372064
vn -0 -0.12522513 -0.9921284
vn -0 0.6129924 -0.7900888
vn 0.5652855 0.5056565 -0.65173906
vn -0.73641205 -0.08472206 -0.67120755
vn -0 0.21121149 -0.97744036
vn 0.736413 -0.08472211 -0.67120636
vn -0.75788206 0.13779049 -0.63767433
vn 0.75788385 0.13779026 -0.6376722
vn -0.6261499 0.0060082423 -0.77967954
vn 0.6261485 0.0060085775 -0.77968067
vn -0 0.0077060084 -0.9999703
vn -0 -0.14221443 -0.9898359
vn -0.7717232 -0.0904367 -0.62949544
vn -0 0.22351691 -0.9747001
vn 0.7717239 -0.09043662 -0.6294946
vn -0.73043096 0.15266192 -0.6657064
vn 0.7304285 0.15266348 -0.66570866
vn -0.6210838 0.25101742 -0.7424589
vn 0.62108356 0.2510183 -0.74245876
vn -0 0.3202791 -0.94732326
vn -0.866026 0 -0.499999
vn -0 0 -1
vn -0 0.6099946 -0.7924056
vn -0.686244 0.6099944 -0.39620215
vn -0.866026 0 0.499999
vn -0.686244 0.6099944 0.39620215
vn -0 0 1
vn -0 0.6099946 0.7924056
vn -0.686244 0.6099944 -0.39620215
vn -0 0.6099946 -0.7924056
vn 0.6862425 0.60999376 -0.39620546
vn 0.6862425 0.60999376 0.39620546
vn 0.8660237 0 0.500003
vn 0.6862425 0.60999376 0.39620546
vn 0.8660237 0 -0.500003
vn 0.6862425 0.60999376 -0.39620546
vn -0 0 -1
vn -0 0.6099946 -0.7924056
g fcbg_cityforest_002_barricade_03_0
f 3/3/3 2/2/2 1/1/1
f 2/2/2 4/4/4 1/1/1
f 2/2/2 5/5/5 4/4/4
f 5/5/5 6/6/6 4/4/4
f 6/6/6 7/7/7 4/4/4
f 6/6/6 5/5/5 8/8/8
f 9/9/9 6/6/6 8/8/8
f 8/8/8 10/10/10 9/9/9
f 10/10/10 11/11/11 9/9/9
f 10/10/10 12/12/12 11/11/11
f 7/7/7 6/6/6 13/13/13
f 12/12/12 14/14/14 11/11/11
f 14/14/14 12/12/12 15/15/15
f 16/16/16 14/14/14 15/15/15
f 7/7/7 17/17/17 4/4/4
f 4/4/4 17/17/17 18/18/18
f 17/17/17 19/19/19 18/18/18
f 20/20/20 19/19/19 17/17/17
f 21/21/21 20/20/20 17/17/17
f 21/21/21 17/17/17 7/7/7
f 11/11/11 22/22/22 13/13/13
f 23/23/23 22/22/22 11/11/11
f 24/24/24 23/23/23 11/11/11
f 23/23/23 24/24/24 25/25/25
f 26/26/26 23/23/23 25/25/25
f 26/26/26 27/27/27 23/23/23
f 27/27/27 28/28/28 23/23/23
f 28/28/28 29/29/29 23/23/23
f 29/29/29 22/22/22 23/23/23
f 22/22/22 30/30/30 13/13/13
f 30/30/30 7/7/7 13/13/13
f 31/31/31 30/30/30 22/22/22
f 30/30/30 31/31/31 7/7/7
f 29/29/29 31/31/31 22/22/22
f 31/31/31 32/32/32 7/7/7
f 32/32/32 21/21/21 7/7/7
f 21/21/21 32/32/32 33/33/33
f 34/34/34 21/21/21 33/33/33
f 35/35/35 21/21/21 34/34/34
f 36/36/36 35/35/35 34/34/34
f 37/37/37 33/33/33 32/32/32
f 38/38/38 37/37/37 32/32/32
f 37/37/37 38/38/38 39/39/39
f 38/38/38 29/29/29 39/39/39
f 39/39/39 29/29/29 40/40/40
f 29/29/29 41/41/41 40/40/40
f 42/42/42 40/40/40 41/41/41
f 43/43/43 42/42/42 41/41/41
f 46/46/46 45/45/45 44/44/44
f 45/45/45 47/47/47 44/44/44
f 44/44/44 47/47/47 48/48/48
f 47/47/47 49/49/49 48/48/48
f 48/48/48 49/49/49 50/50/50
f 49/49/49 51/51/51 50/50/50
f 50/50/50 51/51/51 52/52/52
f 53/53/53 51/51/51 49/49/49
f 54/54/54 53/53/53 49/49/49
f 53/53/53 55/55/55 51/51/51
f 55/55/55 56/56/56 51/51/51
f 51/51/51 57/57/57 52/52/52
f 52/52/52 57/57/57 58/58/58
f 57/57/57 59/59/59 58/58/58
f 58/58/58 59/59/59 60/60/60
f 59/59/59 61/61/61 60/60/60
f 64/64/64 63/63/63 62/62/62
f 63/63/63 65/65/65 62/62/62
f 66/66/66 65/65/65 63/63/63
f 67/67/67 66/66/66 63/63/63
f 69/69/69 68/68/68 62/62/62
f 69/69/69 70/70/70 68/68/68
f 68/68/68 71/71/71 62/62/62
f 68/68/68 72/72/72 71/71/71
f 70/70/70 73/73/73 68/68/68
f 68/68/68 73/73/73 72/72/72
f 72/72/72 74/74/74 71/71/71
f 73/73/73 75/75/75 72/72/72
f 74/74/74 72/72/72 76/76/76
f 75/75/75 77/77/77 72/72/72
f 72/72/72 78/78/78 76/76/76
f 77/77/77 78/78/78 72/72/72
f 78/78/78 79/79/79 76/76/76
f 78/78/78 77/77/77 79/79/79
f 79/79/79 80/80/80 76/76/76
f 79/79/79 81/81/81 80/80/80
f 77/77/77 82/82/82 79/79/79
f 79/79/79 82/82/82 81/81/81
f 81/81/81 83/83/83 80/80/80
f 82/82/82 84/84/84 81/81/81
f 83/83/83 81/81/81 85/85/85
f 84/84/84 86/86/86 81/81/81
f 81/81/81 87/87/87 85/85/85
f 86/86/86 87/87/87 81/81/81
f 90/90/90 89/89/89 88/88/88
f 91/91/91 90/90/90 88/88/88
f 91/91/91 88/88/88 92/92/92
f 93/93/93 91/91/91 92/92/92
f 93/93/93 92/92/92 94/94/94
f 95/95/95 93/93/93 94/94/94
f 93/93/93 95/95/95 96/96/96
f 95/95/95 97/97/97 96/96/96
f 97/97/97 95/95/95 98/98/98
f 95/95/95 99/99/99 98/98/98
f 95/95/95 94/94/94 100/100/100
f 101/101/101 95/95/95 100/100/100
f 101/101/101 100/100/100 102/102/102
f 103/103/103 101/101/101 102/102/102
f 103/103/103 102/102/102 104/104/104
f 105/105/105 103/103/103 104/104/104
