g fcbg_wasteland_001_factory_06
v 3.8157365 0.0042382963 -1.0762917
v 3.815736 3.101738 1.0490894
v 3.8157365 3.101738 -1.0762917
v 3.815736 0.0042382963 1.0490894
v 2.0947359 1.7730707 1.0490764
v 2.094775 0.0042382963 1.0490894
v 1.3407395 1.7730752 1.0490721
v 1.3407557 3.1038766 1.0490553
v -1.1345152 3.1060145 1.0490204
v 1.340746 0.0042381287 1.0490896
v -3.1403697 0.004880607 1.0490894
v -3.1402142 3.668111 1.0489515
v -1.1347251 3.6681092 1.0489515
v -2.1374695 4.032261 1.0489515
v -1.1344105 3.1035554 -1.0761464
v -1.1343056 0.004238639 -3.0997431
v -1.1343055 0.0042382963 -1.0762917
v -1.1347253 3.6681094 -3.1009624
v -1.1347253 3.6681094 -1.0760585
v -1.1347251 3.6681092 1.0489515
v -1.1345152 3.1060145 1.0490204
v 1.3407395 1.7730752 1.0490721
v 1.340746 0.0042381287 0.6653108
v 1.340746 0.0042381287 1.0490896
v 1.3407395 1.7730752 0.6652935
v 2.0947359 1.7730707 0.66529775
v 2.094775 0.0042382963 0.66531074
v 2.094775 0.0042382963 1.0490894
v 2.0947359 1.7730707 1.0490764
v 2.0947359 1.7730707 1.0490764
v 1.3407395 1.7730752 1.0490721
v -3.1403706 0.004559368 -1.0725625
v -3.1403704 0.004238639 -3.0997431
v -3.1402154 3.6681116 -3.1009672
v -3.1402159 3.6681123 -1.0741246
v -3.1403697 0.004880607 1.0490894
v -3.1402142 3.668111 1.0489515
v -1.0381567 3.7066166 1.2252812
v -1.0381567 3.6110802 1.2252812
v -2.1398783 3.998962 1.2252812
v -2.1398783 4.094498 1.2252812
v -3.2416027 3.6110806 1.2252812
v -3.2416027 3.7066176 1.2252812
v -1.0381576 3.7066169 -1.0766411
v -2.1398804 4.094499 -1.0766411
v -1.0381576 3.6110814 -1.0766411
v -1.0381567 3.6110802 1.2252812
v -1.0381577 3.6110806 -3.28294
v -1.0381577 3.7066169 -3.28294
v -2.1398807 4.0944986 -3.28294
v -3.241604 3.706619 -1.0766411
v -3.2416027 3.6110806 1.2252812
v -3.241603 3.7066183 -3.2829454
v -3.241604 3.6110814 -1.0766411
v -3.241603 3.6110814 -3.2829454
v 3.815736 3.101738 1.0490894
v 3.6857305 3.1018932 -0.95023197
v 3.8157365 3.101738 -1.0762917
v 3.6857305 3.1017427 0.91908187
v 3.6856577 2.960622 -0.9501635
v 3.6856577 2.960599 0.91915053
v 1.3407551 2.9607494 -0.9493175
v 1.340754 2.960915 0.9191181
v 3.6857305 3.1017427 0.91908187
v 1.3407569 3.1027217 -0.9493862
v 3.6857305 3.1018932 -0.95023197
v 1.3407571 3.1026466 -1.0762191
v 3.8157365 3.101738 -1.0762917
v -1.0044111 3.1035502 -0.9485401
v -1.1344105 3.1035554 -1.0761464
v -1.0044842 2.9608767 -0.94847155
v -1.004576 2.9612315 0.91908514
v -1.0044111 3.1035502 -0.9485401
v -1.0045029 3.1058595 0.9190165
v -1.1344105 3.1035554 -1.0761464
v -1.1345152 3.1060145 1.0490204
v 1.3407557 3.1038013 0.91904944
v -1.0045029 3.1058595 0.9190165
v 1.3407557 3.1038766 1.0490553
v -1.1345152 3.1060145 1.0490204
v 3.815736 3.101738 1.0490894
vt 0.3822188 0.0036636286
vt 0.31076744 0.09871257
vt 0.3822188 0.09871257
vt 0.31076792 0.0036636286
vt 0.25291118 0.057940785
vt 0.25291285 0.0036631583
vt 0.22756375 0.05794014
vt 0.22756276 0.098776735
vt 0.14434853 0.0988383
vt 0.22756687 0.0036622186
vt 0.07692057 0.0036742634
vt 0.0769197 0.1160829
vt 0.14434043 0.11608672
vt 0.11062933 0.12725908
vt 0.0039178752 0.099652365
vt 0.072482385 0.004680028
vt 0.0039178752 0.004680028
vt 0.072482385 0.11662236
vt 0.0039178752 0.11662236
vt 0.072482385 0.11662236
vt 0.072482385 0.099652365
vt 0.22951706 0.04983597
vt 0.23489705 0.027201686
vt 0.2295169 0.027201686
vt 0.23489721 0.04983591
vt 0.24546748 0.049835734
vt 0.2454676 0.027201563
vt 0.25084776 0.027201563
vt 0.2508476 0.049835734
vt 0.24546748 0.055216014
vt 0.23489721 0.05521595
vt 0.072482385 0.004680028
vt 0.0039178752 0.004680028
vt 0.0039178752 0.11662236
vt 0.072482385 0.11662236
vt 0.0039178752 0.004680028
vt 0.0039178752 0.11662236
vt 0.3105534 0.17973119
vt 0.30768076 0.17973119
vt 0.30768076 0.14153625
vt 0.3105534 0.14153625
vt 0.30768076 0.1034424
vt 0.3105534 0.1034424
vt 0.38218683 0.17973119
vt 0.38218683 0.14153625
vt 0.38218683 0.18169403
vt 0.3105534 0.18166952
vt 0.3105534 0.18171851
vt 0.3105534 0.17973119
vt 0.3105534 0.14153625
vt 0.38218683 0.1034424
vt 0.3105534 0.10132782
vt 0.3105534 0.1034424
vt 0.38218683 0.10132782
vt 0.3105534 0.10132782
vt 0.10033186 0.12829295
vt 0.09772312 0.1684171
vt 0.100332044 0.17094693
vt 0.0977227 0.1309021
vt 0.09513572 0.16841829
vt 0.095136836 0.13089773
vt 0.04805063 0.16840199
vt 0.04805063 0.13090461
vt 0.09513767 0.12829752
vt 0.04805063 0.17100269
vt 0.09513544 0.17101392
vt 0.04805063 0.1735481
vt 0.097744465 0.17354766
vt 0.09509188 0.17099157
vt 0.09770066 0.17354855
vt 0.09509393 0.16838565
vt 0.09508918 0.13091153
vt 0.09771703 0.1683884
vt 0.09772861 0.13090861
vt 0.10033088 0.17094919
vt 0.100332975 0.12829953
vt 0.04805063 0.12828714
vt 0.09509058 0.12827681
vt 0.04805063 0.12567809
vt 0.097699925 0.12567513
vt 0.09774692 0.12568107
vn 1 0 0
vn 0.5775922 0.577166 0.57729256
vn 0.7072866 0.7069268 -0.00023767266
vn 0.707105 0 0.70710856
vn -0.30152276 -0.30151188 0.90453005
vn -0.7071018 -1.3742591E-05 0.70711166
vn 0.3015048 -0.30149966 0.90454006
vn 0.000606619 0.7073149 0.7068983
vn 0.30200058 0.30176833 0.90428513
vn 0.70713633 1.626333E-05 0.7070772
vn -0.7071134 4.8322396E-05 0.70710015
vn -0.6333885 6.0019425E-05 0.77383393
vn 0.6333282 0.00037263252 0.7738832
vn -0 0 1
vn 0.94857293 0.3165584 -0.0002798977
vn 1 7.757988E-05 -6.697998E-05
vn 1 7.757988E-05 -6.697998E-05
vn 1 0.0001607023 -5.538299E-05
vn 0.9999999 0.0005117125 1.2151534E-05
vn 0.6333282 0.00037263252 0.7738832
vn 0.30200058 0.30176833 0.90428513
vn 0.3015048 -0.30149966 0.90454006
vn 0.7071072 0 0.7071063
vn 0.70713633 1.626333E-05 0.7070772
vn 0.57734877 -0.57734823 0.5773538
vn -0.57734513 -0.57735264 0.5773531
vn -0.7071143 0 0.7070992
vn -0.7071018 -1.3742591E-05 0.70711166
vn -0.30152276 -0.30151188 0.90453005
vn -0.30152276 -0.30151188 0.90453005
vn 0.3015048 -0.30149966 0.90454006
vn -1 4.230109E-05 0
vn -1 4.2266583E-05 0
vn -1 4.2266583E-05 0
vn -1 4.230107E-05 0
vn -0.7071134 4.8322396E-05 0.70710015
vn -0.6333885 6.0019425E-05 0.77383393
vn 0.65455675 0.4634899 0.59727097
vn 0.7867847 0 0.61722755
vn -0 0 1
vn -0 0.76884055 0.6394404
vn -0.7867841 0 0.61722827
vn -0.6545561 0.4634904 0.59727126
vn 0.8161152 0.57788926 0
vn -0 1 0
vn 1 0 0
vn 0.7867847 0 0.61722755
vn 1 0 0
vn 0.8161152 0.57788926 0
vn -0 1 0
vn -0.8161148 0.57788986 0
vn -0.7867841 0 0.61722827
vn -0.8161153 0.57788897 0
vn -1 0 0
vn -1 0 0
vn 0.5775922 0.577166 0.57729256
vn -0.30084383 0.90487427 0.3011569
vn 0.7072866 0.7069268 -0.00023767266
vn -0.3009586 0.9045892 -0.30189803
vn -0.57709956 0.57762414 0.577327
vn -0.5771281 0.5773869 -0.57753575
vn 0.0003219499 0.7073088 0.70690453
vn 7.656491E-05 0.7069054 -0.70730805
vn -0.3009586 0.9045892 -0.30189803
vn 0.0005099467 0.70748675 0.7067265
vn -0.30084383 0.90487427 0.3011569
vn 0.00036029887 0.99999976 -0.0005920846
vn 0.7072866 0.7069268 -0.00023767266
vn 0.30222616 0.9045206 0.30083522
vn 0.94857293 0.3165584 -0.0002798977
vn 0.577625 0.57739055 0.5770352
vn 0.5775443 0.5770041 -0.5775022
vn 0.30222616 0.9045206 0.30083522
vn 0.30200833 0.9041582 -0.30214044
vn 0.94857293 0.3165584 -0.0002798977
vn 0.30200058 0.30176833 0.90428513
vn 0.00062528823 0.7067319 -0.70748115
vn 0.30200833 0.9041582 -0.30214044
vn 0.000606619 0.7073149 0.7068983
vn 0.30200058 0.30176833 0.90428513
vn 0.5775922 0.577166 0.57729256
g fcbg_wasteland_001_factory_06_0
f 3/3/3 2/2/2 1/1/1
f 2/2/2 4/4/4 1/1/1
f 4/4/4 2/2/2 5/5/5
f 6/6/6 4/4/4 5/5/5
f 5/5/5 2/2/2 7/7/7
f 2/2/2 8/8/8 7/7/7
f 8/8/8 9/9/9 7/7/7
f 7/7/7 9/9/9 10/10/10
f 9/9/9 11/11/11 10/10/10
f 12/12/12 11/11/11 9/9/9
f 13/13/13 12/12/12 9/9/9
f 13/13/13 14/14/14 12/12/12
f 17/17/17 16/16/16 15/15/15
f 16/16/16 18/18/18 15/15/15
f 19/19/19 15/15/15 18/18/18
f 15/15/15 19/19/19 20/20/20
f 21/21/21 15/15/15 20/20/20
f 24/24/24 23/23/23 22/22/22
f 23/23/23 25/25/25 22/22/22
f 25/25/25 23/23/23 26/26/26
f 23/23/23 27/27/27 26/26/26
f 26/26/26 27/27/27 28/28/28
f 29/29/29 26/26/26 28/28/28
f 25/25/25 26/26/26 30/30/30
f 31/31/31 25/25/25 30/30/30
f 34/34/34 33/33/33 32/32/32
f 35/35/35 34/34/34 32/32/32
f 35/35/35 32/32/32 36/36/36
f 37/37/37 35/35/35 36/36/36
f 40/40/40 39/39/39 38/38/38
f 41/41/41 40/40/40 38/38/38
f 42/42/42 40/40/40 41/41/41
f 43/43/43 42/42/42 41/41/41
f 41/41/41 38/38/38 44/44/44
f 41/41/41 45/45/45 43/43/43
f 45/45/45 41/41/41 44/44/44
f 46/46/46 44/44/44 38/38/38
f 47/47/47 46/46/46 38/38/38
f 46/46/46 48/48/48 44/44/44
f 48/48/48 49/49/49 44/44/44
f 45/45/45 44/44/44 49/49/49
f 50/50/50 45/45/45 49/49/49
f 45/45/45 51/51/51 43/43/43
f 45/45/45 50/50/50 51/51/51
f 52/52/52 43/43/43 51/51/51
f 50/50/50 53/53/53 51/51/51
f 54/54/54 52/52/52 51/51/51
f 54/54/54 51/51/51 53/53/53
f 55/55/55 54/54/54 53/53/53
f 58/58/58 57/57/57 56/56/56
f 57/57/57 59/59/59 56/56/56
f 57/57/57 60/60/60 59/59/59
f 60/60/60 61/61/61 59/59/59
f 60/60/60 62/62/62 61/61/61
f 62/62/62 63/63/63 61/61/61
f 61/61/61 63/63/63 64/64/64
f 62/62/62 60/60/60 65/65/65
f 60/60/60 66/66/66 65/65/65
f 65/65/65 66/66/66 67/67/67
f 66/66/66 68/68/68 67/67/67
f 69/69/69 65/65/65 67/67/67
f 62/62/62 65/65/65 69/69/69
f 70/70/70 69/69/69 67/67/67
f 71/71/71 62/62/62 69/69/69
f 62/62/62 71/71/71 63/63/63
f 71/71/71 72/72/72 63/63/63
f 72/72/72 71/71/71 73/73/73
f 74/74/74 72/72/72 73/73/73
f 74/74/74 73/73/73 75/75/75
f 76/76/76 74/74/74 75/75/75
f 63/63/63 72/72/72 77/77/77
f 72/72/72 78/78/78 77/77/77
f 63/63/63 77/77/77 64/64/64
f 77/77/77 78/78/78 79/79/79
f 64/64/64 77/77/77 79/79/79
f 78/78/78 80/80/80 79/79/79
f 81/81/81 64/64/64 79/79/79
