g fcbg_desertcrystal_crystal_ani_06
v 1.9482732 8.956329 -1.912953
v 2.0034065 13.847226 -9.536743E-06
v 0.7585516 11.743933 -2.028028
v 0.5123923 14.644334 -1.433457
v -1.8684025 17.531563 -9.536743E-06
v -2.671534 13.881484 -1.7108618
v -2.671534 13.881484 -1.7108618
v -2.0491548 9.135189 -1.912953
v -0.7266114 9.745711 -2.7176294
v -2.671534 13.881484 -1.7108618
v 0.7585516 11.743933 -2.028028
v 0.5123923 14.644334 -1.433457
v 1.9482732 8.956329 -1.912953
v 2.7114305 9.778251 -9.536743E-06
v 2.0034065 13.847226 -9.536743E-06
v -0.7266114 9.745711 -2.7176294
v 1.9482732 8.956329 -1.912953
v 0.7585516 11.743933 -2.028028
v -1.8684025 17.531563 -9.536743E-06
v -3.4527283 13.902862 -9.536743E-06
v -2.671534 13.881484 -1.7108618
v 2.0034065 13.847226 -9.536743E-06
v -0.30414128 17.046024 -9.536743E-06
v 0.5123923 14.644334 -1.433457
v 0.5123923 14.644334 -1.433457
v -0.30414128 17.046024 -9.536743E-06
v -1.8684025 17.531563 -9.536743E-06
v 2.0034065 13.847226 -9.536743E-06
v 0.5123923 14.644334 -1.433457
v 0.7585516 11.743933 -2.028028
v -2.671534 13.881484 -1.7108618
v -0.7266114 9.745711 -2.7176294
v 0.7585516 11.743933 -2.028028
v 1.9482732 8.956329 1.9129534
v 0.7585516 11.743933 2.0280285
v 2.0034065 13.847226 -9.536743E-06
v 0.5123923 14.644334 1.4334574
v -2.671534 13.881484 1.7108622
v -1.8684025 17.531563 -9.536743E-06
v -2.671534 13.881484 1.7108622
v -0.7266114 9.745711 2.71763
v -2.0491548 9.135189 1.9129534
v -2.671534 13.881484 1.7108622
v 0.5123923 14.644334 1.4334574
v 0.7585516 11.743933 2.0280285
v 1.9482732 8.956329 1.9129534
v 2.0034065 13.847226 -9.536743E-06
v 2.7114305 9.778251 -9.536743E-06
v -0.7266114 9.745711 2.71763
v 0.7585516 11.743933 2.0280285
v 1.9482732 8.956329 1.9129534
v -1.8684025 17.531563 -9.536743E-06
v -2.671534 13.881484 1.7108622
v -3.4527283 13.902862 -9.536743E-06
v 2.0034065 13.847226 -9.536743E-06
v 0.5123923 14.644334 1.4334574
v -0.30414128 17.046024 -9.536743E-06
v 0.5123923 14.644334 1.4334574
v -1.8684025 17.531563 -9.536743E-06
v -0.30414128 17.046024 -9.536743E-06
v 2.0034065 13.847226 -9.536743E-06
v 0.7585516 11.743933 2.0280285
v 0.5123923 14.644334 1.4334574
v -2.671534 13.881484 1.7108622
v 0.7585516 11.743933 2.0280285
v -0.7266114 9.745711 2.71763
v 1.9482732 8.956329 -1.912953
v 2.39971 2.778151 -9.536743E-06
v 2.7114305 9.778251 -9.536743E-06
v 1.4085264 2.7305489 -1.912953
v 0.35798025 2.7305489 -2.7176294
v -0.7266114 9.745711 -2.7176294
v -2.387216 2.7305489 -1.912953
v -2.0491548 9.135189 -1.912953
v -3.6057692 2.7305489 -9.536743E-06
v -3.1412973 9.355511 -9.536743E-06
v -2.671534 13.881484 -1.7108618
v -3.4527283 13.902862 -9.536743E-06
v -3.1412973 9.355511 -9.536743E-06
v -2.0491548 9.135189 -1.912953
v 1.9482732 8.956329 1.9129534
v 2.7114305 9.778251 -9.536743E-06
v 2.39971 2.778151 -9.536743E-06
v 1.4085264 2.7305489 1.9129534
v 0.35798025 2.7305489 2.71763
v -0.7266114 9.745711 2.71763
v -2.387216 2.7305489 1.9129534
v -2.0491548 9.135189 1.9129534
v -3.6057692 2.7305489 -9.536743E-06
v -3.1412973 9.355511 -9.536743E-06
v -3.1412973 9.355511 -9.536743E-06
v -3.4527283 13.902862 -9.536743E-06
v -2.671534 13.881484 1.7108622
v -2.0491548 9.135189 1.9129534
vt 0.5929933 0.3792175
vt 0.58188576 0.4424064
vt 0.60687774 0.41177204
vt 0.609049 0.44513896
vt 0.635518 0.4856992
vt 0.64355326 0.43700033
vt 0.64355326 0.43700033
vt 0.64495647 0.3825557
vt 0.6257103 0.3884344
vt 0.64355326 0.43700033
vt 0.60687774 0.41177204
vt 0.609049 0.44513896
vt 0.5929933 0.3792175
vt 0.569183 0.3916101
vt 0.58188576 0.4424064
vt 0.6257103 0.3884344
vt 0.5929933 0.3792175
vt 0.60687774 0.41177204
vt 0.635518 0.4856992
vt 0.6645867 0.44410503
vt 0.64355326 0.43700033
vt 0.58188576 0.4424064
vt 0.6154595 0.4791115
vt 0.609049 0.44513896
vt 0.609049 0.44513896
vt 0.6154595 0.4791115
vt 0.635518 0.4856992
vt 0.58188576 0.4424064
vt 0.609049 0.44513896
vt 0.60687774 0.41177204
vt 0.64355326 0.43700033
vt 0.6257103 0.3884344
vt 0.60687774 0.41177204
vt 0.5929933 0.3792175
vt 0.60687774 0.41177204
vt 0.58188576 0.4424064
vt 0.609049 0.44513896
vt 0.64355326 0.43700033
vt 0.635518 0.4856992
vt 0.64355326 0.43700033
vt 0.6257103 0.3884344
vt 0.64495647 0.3825557
vt 0.64355326 0.43700033
vt 0.609049 0.44513896
vt 0.60687774 0.41177204
vt 0.5929933 0.3792175
vt 0.58188576 0.4424064
vt 0.569183 0.3916101
vt 0.6257103 0.3884344
vt 0.60687774 0.41177204
vt 0.5929933 0.3792175
vt 0.635518 0.4856992
vt 0.64355326 0.43700033
vt 0.6645867 0.44410503
vt 0.58188576 0.4424064
vt 0.609049 0.44513896
vt 0.6154595 0.4791115
vt 0.609049 0.44513896
vt 0.635518 0.4856992
vt 0.6154595 0.4791115
vt 0.58188576 0.4424064
vt 0.60687774 0.41177204
vt 0.609049 0.44513896
vt 0.64355326 0.43700033
vt 0.60687774 0.41177204
vt 0.6257103 0.3884344
vt 0.5929933 0.3792175
vt 0.56922734 0.30359173
vt 0.569183 0.3916101
vt 0.5971439 0.30279413
vt 0.6142188 0.3025578
vt 0.6257103 0.3884344
vt 0.6503035 0.30279413
vt 0.64495647 0.3825557
vt 0.67892903 0.30382806
vt 0.67240036 0.3880208
vt 0.64355326 0.43700033
vt 0.6645867 0.44410503
vt 0.67240036 0.3880208
vt 0.64495647 0.3825557
vt 0.5929933 0.3792175
vt 0.569183 0.3916101
vt 0.56922734 0.30359173
vt 0.5971439 0.30279413
vt 0.6142188 0.3025578
vt 0.6257103 0.3884344
vt 0.6503035 0.30279413
vt 0.64495647 0.3825557
vt 0.67892903 0.30382806
vt 0.67240036 0.3880208
vt 0.67240036 0.3880208
vt 0.6645867 0.44410503
vt 0.64355326 0.43700033
vt 0.64495647 0.3825557
vn 0.67884636 0.26017022 -0.68664336
vn 0.67884636 0.26017022 -0.68664336
vn 0.67884636 0.26017022 -0.68664336
vn -0.023951888 0.428061 -0.90343237
vn -0.023951888 0.428061 -0.90343237
vn -0.023951888 0.428061 -0.90343237
vn -0.5100541 -0.03071016 -0.8595939
vn -0.5100541 -0.03071016 -0.8595939
vn -0.5100541 -0.03071016 -0.8595939
vn 0.036566794 0.20355594 -0.97838026
vn 0.036566794 0.20355594 -0.97838026
vn 0.036566794 0.20355594 -0.97838026
vn 0.89359033 0.15475047 -0.42136517
vn 0.89359033 0.15475047 -0.42136517
vn 0.89359033 0.15475047 -0.42136517
vn 0.3118295 0.094231725 -0.9454537
vn 0.3118295 0.094231725 -0.9454537
vn 0.3118295 0.094231725 -0.9454537
vn -0.8438834 0.36754227 -0.3908625
vn -0.8438834 0.36754227 -0.3908625
vn -0.8438834 0.36754227 -0.3908625
vn 0.719843 0.5198152 -0.46001986
vn 0.719843 0.5198152 -0.46001986
vn 0.719843 0.5198152 -0.46001986
vn 0.1693176 0.5471463 -0.81973314
vn 0.1693176 0.5471463 -0.81973314
vn 0.1693176 0.5471463 -0.81973314
vn 0.7315563 0.19574714 -0.6530762
vn 0.7315563 0.19574714 -0.6530762
vn 0.7315563 0.19574714 -0.6530762
vn 0.07951558 0.2718836 -0.9590394
vn 0.07951558 0.2718836 -0.9590394
vn 0.07951558 0.2718836 -0.9590394
vn 0.67884636 0.26017022 0.68664336
vn 0.67884636 0.26017022 0.68664336
vn 0.67884636 0.26017022 0.68664336
vn -0.023951888 0.428061 0.90343237
vn -0.023951888 0.428061 0.90343237
vn -0.023951888 0.428061 0.90343237
vn -0.5100541 -0.03071016 0.8595939
vn -0.5100541 -0.03071016 0.8595939
vn -0.5100541 -0.03071016 0.8595939
vn 0.036566794 0.20355594 0.97838026
vn 0.036566794 0.20355594 0.97838026
vn 0.036566794 0.20355594 0.97838026
vn 0.89359033 0.15475047 0.42136517
vn 0.89359033 0.15475047 0.42136517
vn 0.89359033 0.15475047 0.42136517
vn 0.3118295 0.094231725 0.9454537
vn 0.3118295 0.094231725 0.9454537
vn 0.3118295 0.094231725 0.9454537
vn -0.8438834 0.36754227 0.3908625
vn -0.8438834 0.36754227 0.3908625
vn -0.8438834 0.36754227 0.3908625
vn 0.719843 0.5198152 0.46001986
vn 0.719843 0.5198152 0.46001986
vn 0.719843 0.5198152 0.46001986
vn 0.1693176 0.5471463 0.81973314
vn 0.1693176 0.5471463 0.81973314
vn 0.1693176 0.5471463 0.81973314
vn 0.7315563 0.19574714 0.6530762
vn 0.7315563 0.19574714 0.6530762
vn 0.7315563 0.19574714 0.6530762
vn 0.07951558 0.2718836 0.9590394
vn 0.07951558 0.2718836 0.9590394
vn 0.07951558 0.2718836 0.9590394
vn 0.73350847 -0.018996835 -0.6794148
vn 0.9969878 -0.0775579 -0
vn 0.9990101 -0.044375658 -0.0031105108
vn 0.6729897 -0.03071016 -0.73901397
vn 0.054136753 0.00052535534 -0.99853337
vn -0.012238622 -0.0033791065 -0.99991935
vn -0.6506138 0.018095255 -0.7591931
vn -0.6193783 0.014190912 -0.7849644
vn -0.9981085 0.061044097 -0.007282136
vn -0.9981085 0.061044097 -0.007282136
vn -0.8868321 -0.07951558 -0.45519894
vn -0.8868321 -0.07951558 -0.45519894
vn -0.8868321 -0.07951558 -0.45519894
vn -0.8868321 -0.07951558 -0.45519894
vn 0.73350847 -0.018996835 0.6794148
vn 0.9990101 -0.044375658 -0.0031105108
vn 0.9969878 -0.0775579 -0
vn 0.6729897 -0.03071016 0.73901397
vn 0.054136753 0.00052535534 0.99853337
vn -0.012238622 -0.0033791065 0.99991935
vn -0.6506138 0.018095255 0.7591931
vn -0.6193783 0.014190912 0.7849644
vn -0.9981085 0.061044097 -0.007282136
vn -0.9981085 0.061044097 -0.007282136
vn -0.8868321 -0.07951558 0.45519894
vn -0.8868321 -0.07951558 0.45519894
vn -0.8868321 -0.07951558 0.45519894
vn -0.8868321 -0.07951558 0.45519894
g fcbg_desertcrystal_crystal_ani_06_0
f 3/3/3 2/2/2 1/1/1
f 6/6/6 5/5/5 4/4/4
f 9/9/9 8/8/8 7/7/7
f 12/12/12 11/11/11 10/10/10
f 15/15/15 14/14/14 13/13/13
f 18/18/18 17/17/17 16/16/16
f 21/21/21 20/20/20 19/19/19
f 24/24/24 23/23/23 22/22/22
f 27/27/27 26/26/26 25/25/25
f 30/30/30 29/29/29 28/28/28
f 33/33/33 32/32/32 31/31/31
f 36/36/36 35/35/35 34/34/34
f 39/39/39 38/38/38 37/37/37
f 42/42/42 41/41/41 40/40/40
f 45/45/45 44/44/44 43/43/43
f 48/48/48 47/47/47 46/46/46
f 51/51/51 50/50/50 49/49/49
f 54/54/54 53/53/53 52/52/52
f 57/57/57 56/56/56 55/55/55
f 60/60/60 59/59/59 58/58/58
f 63/63/63 62/62/62 61/61/61
f 66/66/66 65/65/65 64/64/64
f 69/69/69 68/68/68 67/67/67
f 67/67/67 68/68/68 70/70/70
f 67/67/67 70/70/70 71/71/71
f 72/72/72 67/67/67 71/71/71
f 72/72/72 71/71/71 73/73/73
f 74/74/74 72/72/72 73/73/73
f 73/73/73 75/75/75 74/74/74
f 75/75/75 76/76/76 74/74/74
f 79/79/79 78/78/78 77/77/77
f 80/80/80 79/79/79 77/77/77
f 83/83/83 82/82/82 81/81/81
f 83/83/83 81/81/81 84/84/84
f 84/84/84 81/81/81 85/85/85
f 81/81/81 86/86/86 85/85/85
f 85/85/85 86/86/86 87/87/87
f 86/86/86 88/88/88 87/87/87
f 87/87/87 88/88/88 89/89/89
f 88/88/88 90/90/90 89/89/89
f 93/93/93 92/92/92 91/91/91
f 94/94/94 93/93/93 91/91/91
