g fcbg_desert_005_eden_11
v -9.13068 0.00053954124 -4.2962894
v -8.875622 0.00012934208 -5.4028416
v -8.159433 1.1628504 -5.6386433
v -7.791773 -0.00067842007 -6.5793324
v -7.1308002 1.1359553 -4.901182
v -6.0913105 -0.00022876263 -6.274935
v -8.782394 1.487206 -4.159754
v -8.659842 1.4085563 -2.0834827
v -8.942472 0.00049316883 -1.8854904
v -9.331911 1.3141469 0.010267258
v -9.389278 0.000238657 0.10964963
v -9.049707 0.00021278858 2.1800156
v -7.356432 0.00021278858 3.6330814
v -8.340994 1.3141483 0.335661
v -7.282963 1.4085597 -1.5605011
v -7.4054985 1.4872074 -3.6367779
v -6.271639 1.2390147 -5.047758
v -6.789053 2.464851 -3.588316
v -4.1814003 1.4526303 -5.2517643
v -3.8987942 0.0003556013 -6.641062
v -0.3348999 2.4831314 -2.2910347
v -0.5463562 1.349578 -3.8112354
v -6.69602 2.386208 -1.4467297
v -0.15265274 0.00032651424 -4.972498
v -7.7139435 2.291792 0.4057141
v 1.5002594 1.268355 -4.243799
v 1.5855789 0.00021731853 -5.5054417
v 3.7121153 -0.00011920929 -5.2245235
v -6.8999443 1.6711555 3.3836823
v -5.115103 2.8458138 1.753582
v 3.1131287 2.4832966 -3.1230335
v 3.451232 1.0228397 -4.142
v 5.606881 0.89710253 -3.5011883
v 6.9283285 -0.0006250143 -4.454775
v 7.115453 -0.0007688999 -3.7166004
v -5.3107586 1.4334214 5.1698494
v -5.6217937 0.00032746792 5.5184727
v -3.808817 0.00033819675 6.6410656
v -3.759163 1.707293 5.836794
v -0.9997883 2.2344809 3.7496128
v -0.26135826 0.00041353703 5.6043262
v 2.7154427 2.6443365 3.50169
v 3.3902426 0.00041782856 5.545946
v 6.4650106 1.0058992 -1.5128231
v 7.5659857 -0.0006546974 -2.5382366
v 4.75078 2.6493123 2.861269
v 5.9488983 0.00040984154 4.8194904
v 7.280716 0.00024366379 3.325039
v 5.5949507 2.8084216 0.26938814
v 6.200614 2.8058782 1.3552437
v 6.5757523 1.0334795 1.0991268
v 7.7784863 4.696846E-05 2.619543
v 6.1428995 1.0482569 0.17102629
v 5.9042616 2.4867003 -1.6204567
v 8.606195 0.7342301 -1.940258
v 8.606195 -0.0007431507 -1.940258
v 9.389257 -0.0005995035 -0.27903175
v 9.225996 0.7536194 1.4179516
v 8.621162 -0.00014638901 2.3176804
v 9.225996 -0.00036025047 1.4179516
v 9.389257 0.7683988 -0.27903175
vt 0.9572892 0.47486487
vt 0.9662429 0.46281183
vt 0.9575691 0.451454
vt 0.964776 0.43676254
vt 0.94252 0.44523013
vt 0.94763374 0.4222023
vt 0.9465858 0.4676365
vt 0.9267448 0.4845084
vt 0.93526757 0.49132663
vt 0.9152286 0.5090535
vt 0.91797435 0.51416796
vt 0.8881388 0.52368844
vt 0.8594185 0.52004105
vt 0.89943504 0.5005987
vt 0.91042876 0.47522342
vt 0.93109775 0.4588845
vt 0.936424 0.4352033
vt 0.9236046 0.45265308
vt 0.9154204 0.41964233
vt 0.9303581 0.40806893
vt 0.86002624 0.40043038
vt 0.8783132 0.38831612
vt 0.90252686 0.46868604
vt 0.88693297 0.3736653
vt 0.89246523 0.49302906
vt 0.8658533 0.36446744
vt 0.87192047 0.34471387
vt 0.8559809 0.33634022
vt 0.85755455 0.50950056
vt 0.85760784 0.4789654
vt 0.8398063 0.3607562
vt 0.84936047 0.3450492
vt 0.8253875 0.32841018
vt 0.8254377 0.3040257
vt 0.81613576 0.3068287
vt 0.8273829 0.50875276
vt 0.82605684 0.5161487
vt 0.8000924 0.5066141
vt 0.8078364 0.49924263
vt 0.8019334 0.45482653
vt 0.77741647 0.46289635
vt 0.7788906 0.41707197
vt 0.7520205 0.42773312
vt 0.7971021 0.33383814
vt 0.7999053 0.30894625
vt 0.7689333 0.392431
vt 0.7384728 0.39641964
vt 0.74288106 0.3706969
vt 0.78787124 0.36327836
vt 0.7728293 0.36697018
vt 0.768471 0.35403457
vt 0.7403891 0.3522946
vt 0.78143406 0.3506592
vt 0.80430746 0.34636158
vt 0.7824631 0.31109396
vt 0.78353894 0.30115294
vt 0.7574744 0.30600086
vt 0.7477579 0.32845312
vt 0.7366774 0.33904117
vt 0.74027383 0.3234867
vt 0.76195073 0.31526402
vn -0.9465598 0.2866689 -0.14780238
vn -0.82455426 0.3302218 -0.45941672
vn -0.25341144 0.76052004 -0.59782267
vn -0.10416727 0.6907789 -0.7155233
vn -0.052699298 0.8430524 -0.53524345
vn -0.05845711 0.7301321 -0.680801
vn -0.60118496 0.78661996 -0.14073254
vn -0.6030708 0.7975026 -0.01718458
vn -0.98241675 0.14933428 -0.11205693
vn -0.7136888 0.69637644 0.07555206
vn -0.9964257 0.074207015 -0.040362813
vn -0.58377624 0.6586308 0.47477448
vn -0.7141586 0.44590122 0.53958285
vn -0.47413784 0.8631614 0.17362526
vn -0.5441711 0.8337781 -0.0932307
vn -0.44398305 0.88847154 -0.11617789
vn -0.16674733 0.70156795 -0.6928187
vn -0.43223023 0.86257327 -0.26295316
vn 0.07957693 0.770052 -0.63299865
vn 0.09087251 0.69642705 -0.7118509
vn -0.008852105 0.9668657 -0.25513214
vn 0.048767146 0.78041697 -0.62335485
vn -0.4416836 0.8911254 -0.10397622
vn 0.037848573 0.6842491 -0.72826546
vn -0.6551469 0.75547624 0.0061740577
vn -0.046543617 0.69898415 -0.71362096
vn -0.023100266 0.69525194 -0.7183948
vn 0.14297366 0.75206584 -0.64339364
vn -0.62188256 0.6373328 0.45504832
vn -0.11951075 0.9840814 0.13153376
vn 0.0936276 0.85975605 -0.50204927
vn 0.16746354 0.67942697 -0.71437734
vn 0.39203608 0.7548953 -0.5257765
vn 0.3707417 0.86157334 -0.34675932
vn 0.49957374 0.84660673 -0.18352972
vn -0.49018347 0.61365414 0.6189902
vn -0.6052057 0.30428356 0.73562056
vn -0.032037027 0.48336253 0.8748339
vn 0.027222438 0.6911234 0.7222239
vn 0.06873487 0.9036376 0.42274642
vn 0.094639175 0.6465312 0.75699455
vn 0.025757259 0.890629 0.45400083
vn 0.117309146 0.63481486 0.7637073
vn 0.60468304 0.7674641 -0.21297285
vn 0.35443145 0.7406028 -0.5708641
vn 0.24108437 0.86919004 0.43172544
vn 0.39389548 0.64358824 0.656232
vn 0.73930526 0.5973657 0.31077617
vn 0.46248013 0.8807158 -0.10223404
vn 0.61500424 0.7881574 0.02403564
vn 0.62794733 0.7752892 -0.06788897
vn 0.5712196 0.7533099 0.32593304
vn 0.6777132 0.72647893 -0.11372333
vn 0.62185276 0.7490639 -0.22847857
vn 0.52045995 0.61905164 -0.58812976
vn 0.73523945 0 -0.67780745
vn 0.9851918 0 -0.17145553
vn 0.66856927 0.6460925 0.36821136
vn 0.40359795 0.5494219 0.73160386
vn 0.9414623 0 0.33711815
vn 0.7702368 0.62362826 -0.1335033
g fcbg_desert_005_eden_11_0
f 3/3/3 2/2/2 1/1/1
f 3/3/3 4/4/4 2/2/2
f 4/4/4 3/3/3 5/5/5
f 5/5/5 6/6/6 4/4/4
f 7/7/7 3/3/3 1/1/1
f 5/5/5 3/3/3 7/7/7
f 7/7/7 1/1/1 8/8/8
f 1/1/1 9/9/9 8/8/8
f 8/8/8 9/9/9 10/10/10
f 9/9/9 11/11/11 10/10/10
f 11/11/11 12/12/12 10/10/10
f 10/10/10 12/12/12 13/13/13
f 8/8/8 10/10/10 14/14/14
f 14/14/14 10/10/10 13/13/13
f 7/7/7 8/8/8 15/15/15
f 15/15/15 8/8/8 14/14/14
f 16/16/16 5/5/5 7/7/7
f 16/16/16 7/7/7 15/15/15
f 6/6/6 5/5/5 17/17/17
f 16/16/16 18/18/18 5/5/5
f 17/17/17 5/5/5 18/18/18
f 6/6/6 17/17/17 19/19/19
f 18/18/18 19/19/19 17/17/17
f 20/20/20 6/6/6 19/19/19
f 19/19/19 18/18/18 21/21/21
f 22/22/22 19/19/19 21/21/21
f 19/19/19 22/22/22 20/20/20
f 18/18/18 23/23/23 21/21/21
f 18/18/18 16/16/16 23/23/23
f 16/16/16 15/15/15 23/23/23
f 22/22/22 24/24/24 20/20/20
f 15/15/15 14/14/14 25/25/25
f 23/23/23 15/15/15 25/25/25
f 22/22/22 26/26/26 24/24/24
f 26/26/26 27/27/27 24/24/24
f 28/28/28 27/27/27 26/26/26
f 25/25/25 14/14/14 29/29/29
f 14/14/14 13/13/13 29/29/29
f 23/23/23 25/25/25 30/30/30
f 23/23/23 30/30/30 21/21/21
f 25/25/25 29/29/29 30/30/30
f 22/22/22 31/31/31 26/26/26
f 21/21/21 31/31/31 22/22/22
f 32/32/32 28/28/28 26/26/26
f 26/26/26 31/31/31 32/32/32
f 32/32/32 33/33/33 28/28/28
f 32/32/32 31/31/31 33/33/33
f 33/33/33 34/34/34 28/28/28
f 33/33/33 35/35/35 34/34/34
f 29/29/29 13/13/13 36/36/36
f 13/13/13 37/37/37 36/36/36
f 37/37/37 38/38/38 36/36/36
f 36/36/36 39/39/39 29/29/29
f 36/36/36 38/38/38 39/39/39
f 39/39/39 30/30/30 29/29/29
f 40/40/40 39/39/39 38/38/38
f 40/40/40 30/30/30 39/39/39
f 30/30/30 40/40/40 21/21/21
f 41/41/41 40/40/40 38/38/38
f 42/42/42 40/40/40 41/41/41
f 21/21/21 40/40/40 42/42/42
f 43/43/43 42/42/42 41/41/41
f 35/35/35 33/33/33 44/44/44
f 45/45/45 35/35/35 44/44/44
f 42/42/42 43/43/43 46/46/46
f 43/43/43 47/47/47 46/46/46
f 47/47/47 48/48/48 46/46/46
f 21/21/21 42/42/42 49/49/49
f 49/49/49 42/42/42 46/46/46
f 48/48/48 50/50/50 46/46/46
f 50/50/50 49/49/49 46/46/46
f 50/50/50 48/48/48 51/51/51
f 48/48/48 52/52/52 51/51/51
f 51/51/51 53/53/53 50/50/50
f 53/53/53 49/49/49 50/50/50
f 53/53/53 44/44/44 49/49/49
f 21/21/21 49/49/49 54/54/54
f 44/44/44 54/54/54 49/49/49
f 33/33/33 54/54/54 44/44/44
f 31/31/31 21/21/21 54/54/54
f 33/33/33 31/31/31 54/54/54
f 55/55/55 45/45/45 44/44/44
f 55/55/55 44/44/44 53/53/53
f 56/56/56 45/45/45 55/55/55
f 57/57/57 56/56/56 55/55/55
f 52/52/52 58/58/58 51/51/51
f 51/51/51 58/58/58 53/53/53
f 59/59/59 58/58/58 52/52/52
f 59/59/59 60/60/60 58/58/58
f 61/61/61 55/55/55 53/53/53
f 61/61/61 57/57/57 55/55/55
f 58/58/58 61/61/61 53/53/53
f 60/60/60 57/57/57 61/61/61
f 58/58/58 60/60/60 61/61/61
