g fcbg_desert_grass_01
v 1.3711287 0.017639995 0.17563309
v 1.3711287 1.586305 0.17563301
v -5.3039784E-08 1.586305 -0.17563322
v -5.3039738E-08 0.017639875 -0.17563313
v -1.3711287 1.586305 0.17563343
v -1.3711287 0.017639995 0.1756335
vt 0.003735666 0.86898625
vt 0.003735666 0.9908269
vt 0.12556714 0.9908269
vt 0.12556714 0.86898625
vt 0.24739869 0.9908269
vt 0.24739869 0.86898625
vn 0.24816702 0 -0.9687173
vn 0.24816751 0 -0.96871716
vn -0 0 -1
vn -0 0 -1
vn -0.24816751 0 -0.96871716
vn -0.24816702 0 -0.9687173
g fcbg_desert_grass_01_0
f 3/3/3 2/2/2 1/1/1
f 4/4/4 3/3/3 1/1/1
f 5/5/5 3/3/3 4/4/4
f 6/6/6 5/5/5 4/4/4
