g fcbg_desertcrystal_ax_01
v -0.25290054 0.9832072 -0.045102715
v -0.13363117 0.0001603663 -0.0624934
v -0.15572426 0.9832072 -0.045102715
v -0.2749952 0.0001603663 -0.0624934
v -0.13363117 0.0001603663 0.048767686
v -0.2749952 0.0001603663 0.048767686
v -0.2749952 0.0001603663 0.048767686
v -0.25290054 0.9832072 0.031378597
v 0.27976036 1.3956752 5.9604645E-07
v -0.018995494 0.98723364 -0.070345104
v 0.27976036 0.90730274 5.9604645E-07
v -0.018995494 1.3157442 -0.070345104
v -0.018995494 1.3157442 0.070346266
v -0.27975994 1.3508835 0.0846228
v -0.27975994 1.3508835 -0.08462164
v -0.27975994 0.95209277 -0.08462164
v -0.27975994 0.95209277 0.0846228
v -0.27975994 1.3508835 0.0846228
v 0.27976036 0.90730274 5.9604645E-07
v -0.018995494 1.3157442 0.070346266
v -0.018995494 0.98723364 0.070346266
v -0.27975994 0.95209277 0.0846228
v -0.27975994 1.3508835 0.0846228
v -0.018995494 0.98723364 -0.070345104
v -0.018995494 0.98723364 0.070346266
v 0.27976036 0.90730274 5.9604645E-07
v -0.27975994 0.95209277 -0.08462164
v -0.27975994 0.95209277 0.0846228
v -0.13363117 0.0001603663 -0.0624934
v -0.15572426 0.9832072 0.031378597
v -0.15572426 0.9832072 -0.045102715
v -0.13363117 0.0001603663 0.048767686
v -0.2749952 0.0001603663 0.048767686
v -0.25290054 0.9832072 0.031378597
vt 0.013246609 0.18121241
vt 0.0027496966 0.10869244
vt 0.0027496966 0.18121241
vt 0.013246609 0.10869244
vt 0.0027496966 0.10021885
vt 0.013246609 0.10021885
vt 0.021385517 0.10869244
vt 0.021385517 0.18121241
vt 0.0025215028 0.2212376
vt 0.02514311 0.1912225
vt 0.0025215028 0.1851982
vt 0.02514311 0.2155936
vt 0.024549805 0.22630349
vt 0.04324648 0.23004587
vt 0.04453958 0.2179364
vt 0.04453958 0.18848419
vt 0.057257574 0.18848419
vt 0.057257574 0.2179364
vt 0.0025215028 0.1851982
vt 0.02514311 0.2155936
vt 0.02514311 0.1912225
vt 0.04453958 0.18848419
vt 0.04453958 0.2179364
vt 0.041512206 0.182612
vt 0.041512206 0.17451873
vt 0.023728307 0.17856537
vt 0.056633845 0.1834335
vt 0.056633845 0.17369723
vt 0.021385517 0.10869244
vt 0.013246609 0.18121241
vt 0.021385517 0.18121241
vt 0.013246609 0.10869244
vt 0.0027496966 0.10869244
vt 0.0027496966 0.18121241
vn -0.7057239 0.027685702 -0.7079458
vn 0.5835438 -0.56648624 -0.58186764
vn 0.7057897 0.027685702 -0.7078802
vn -0.5834781 -0.56648624 -0.5819335
vn 0.5835438 -0.56648624 0.58186764
vn -0.5834781 -0.56648624 0.5819335
vn -0.5834781 -0.56648624 0.5819335
vn -0.7057239 0.027685702 0.7079458
vn 0.7484336 0.66308 -0.013119009
vn 0.083188474 -0.63898087 -0.7647111
vn 0.7484336 -0.6631458 -0.009211254
vn 0.083188474 0.6389152 -0.76476604
vn 0.083188474 0.6389152 0.76476604
vn -0.528041 0.61475027 0.5858795
vn -0.528041 0.61475027 -0.5858795
vn -0.528041 -0.61481595 -0.5858106
vn -0.528041 -0.61481595 0.5858106
vn -0.528041 0.61475027 0.5858795
vn 0.7484336 -0.6631458 -0.009211254
vn 0.083188474 0.6389152 0.76476604
vn 0.083188474 -0.63898087 0.7647111
vn -0.528041 -0.61481595 0.5858106
vn -0.528041 0.61475027 0.5858795
vn 0.083188474 -0.63898087 -0.7647111
vn 0.083188474 -0.63898087 0.7647111
vn 0.7484336 -0.6631458 -0.009211254
vn -0.528041 -0.61481595 -0.5858106
vn -0.528041 -0.61481595 0.5858106
vn 0.5835438 -0.56648624 -0.58186764
vn 0.7057897 0.027685702 0.7078802
vn 0.7057897 0.027685702 -0.7078802
vn 0.5835438 -0.56648624 0.58186764
vn -0.5834781 -0.56648624 0.5819335
vn -0.7057239 0.027685702 0.7079458
g fcbg_desertcrystal_ax_01_0
f 3/3/3 2/2/2 1/1/1
f 2/2/2 4/4/4 1/1/1
f 4/4/4 2/2/2 5/5/5
f 6/6/6 4/4/4 5/5/5
f 4/4/4 7/7/7 1/1/1
f 7/7/7 8/8/8 1/1/1
f 11/11/11 10/10/10 9/9/9
f 10/10/10 12/12/12 9/9/9
f 12/12/12 13/13/13 9/9/9
f 14/14/14 13/13/13 12/12/12
f 15/15/15 14/14/14 12/12/12
f 12/12/12 10/10/10 15/15/15
f 10/10/10 16/16/16 15/15/15
f 16/16/16 17/17/17 15/15/15
f 17/17/17 18/18/18 15/15/15
f 9/9/9 20/20/20 19/19/19
f 20/20/20 21/21/21 19/19/19
f 21/21/21 20/20/20 22/22/22
f 20/20/20 23/23/23 22/22/22
f 26/26/26 25/25/25 24/24/24
f 24/24/24 25/25/25 27/27/27
f 25/25/25 28/28/28 27/27/27
f 31/31/31 30/30/30 29/29/29
f 30/30/30 32/32/32 29/29/29
f 33/33/33 32/32/32 30/30/30
f 34/34/34 33/33/33 30/30/30
