g fcbg_arkcity_003_EER_airconditioner_01
v 2.2183366 0.7998984 9.4652176E-05
v -2.211175 0.7998984 9.4652176E-05
v -2.211175 0.7998984 -0.5802463
v 2.2183366 0.7998984 -0.5802463
v -2.211175 0.6431129 -0.72263396
v 2.2183366 0.6431129 -0.72263396
v 2.2183366 -0.7998984 -0.5179738
v -2.211175 -0.7998984 -0.5179738
v -2.3063521 0.6156013 -0.63976955
v -2.3063521 -0.72006047 -0.44546473
v -2.3063521 0.7200606 -0.5449046
v -2.211175 0.7998984 -0.5802463
v -2.3063521 0.7200606 -2.4080276E-05
v -2.211175 0.7998984 9.4652176E-05
v -2.3063521 -0.72006047 -2.4080276E-05
v -2.211175 -0.7998984 9.4652176E-05
v -2.211175 -0.7998984 -0.5179738
v 2.3063521 -0.72006047 -2.4080276E-05
v 2.2183366 -0.7998984 -0.5179738
v 2.2183366 -0.7998984 9.4652176E-05
v 2.3063521 -0.72006047 -0.44546473
v 2.3063521 0.6156013 -0.63976955
v 2.2183366 0.6431129 -0.72263396
v 2.2183366 -0.7998984 -0.5179738
v 2.2183366 0.7998984 -0.5802463
v 2.3063521 0.7200606 -0.5449046
v 2.3063521 0.7200606 -2.4080276E-05
v 2.2183366 0.7998984 9.4652176E-05
v 1.5976126 -0.6112462 -0.79416203
v 1.5976126 -0.41769814 -0.5638336
v 1.5969615 -0.3397299 -0.5752095
v 1.5969615 -0.5566324 -0.80714357
v -1.6310759 -0.3397299 -0.5752095
v -1.6310759 -0.5566324 -0.80714357
v -1.631573 -0.6112462 -0.79416203
v -1.631573 -0.41769814 -0.5638336
vt 0.17002979 0.5735619
vt 0.2954365 0.5735619
vt 0.2954235 0.5614348
vt 0.1700168 0.5614348
vt 0.295417 0.55671513
vt 0.1700168 0.55671513
vt 0.16998434 0.5231188
vt 0.2953846 0.5231188
vt 0.29899412 0.5552349
vt 0.29899412 0.5245925
vt 0.3012144 0.55723447
vt 0.29962385 0.5604026
vt 0.31338698 0.5577408
vt 0.31322467 0.5612725
vt 0.30974495 0.5232681
vt 0.30932295 0.5197884
vt 0.29687774 0.52133346
vt 0.30974495 0.5232681
vt 0.29687774 0.52133346
vt 0.30932295 0.5197884
vt 0.29899412 0.5245925
vt 0.29899412 0.5552349
vt 0.295417 0.55671513
vt 0.2953846 0.5231188
vt 0.29962385 0.5604026
vt 0.3012144 0.55723447
vt 0.31338698 0.5577408
vt 0.31322467 0.5612725
vt 0.17073742 0.57832706
vt 0.17073742 0.59544015
vt 0.17374973 0.59544015
vt 0.17374973 0.5806772
vt 0.2732337 0.59544015
vt 0.2732337 0.5806772
vt 0.27623954 0.57832706
vt 0.27623954 0.59544015
vn 0.36040235 0.9327969 -0
vn -0.34114957 0.93935955 -0.03493771
vn -0.3352847 0.86116207 -0.3820786
vn 0.35089725 0.85725224 -0.37681523
vn -0.33723962 0.27859163 -0.89925313
vn 0.35285217 0.27663672 -0.8938498
vn 0.47796798 -0.37240154 -0.79552734
vn -0.46040058 -0.38413113 -0.8002966
vn -0.8748467 0.13979125 -0.46379057
vn -0.8768016 -0.36458182 -0.31352675
vn -0.8748467 0.44280612 -0.19638234
vn -0.3352847 0.86116207 -0.3820786
vn -0.9060306 0.42321235 -0
vn -0.34114957 0.93935955 -0.03493771
vn -0.90604085 -0.4231902 -0
vn -0.6422094 -0.76534337 -0.042621948
vn -0.46040058 -0.38413113 -0.8002966
vn 0.9139184 -0.40563542 -0.014597997
vn 0.47796798 -0.37240154 -0.79552734
vn 0.6715065 -0.7399292 -0.03979642
vn 0.88850427 -0.34894234 -0.29799226
vn 0.8865493 0.13392651 -0.44282505
vn 0.35285217 0.27663672 -0.8938498
vn 0.47796798 -0.37240154 -0.79552734
vn 0.35089725 0.85725224 -0.37681523
vn 0.8865493 0.4252118 -0.18227799
vn 0.9139184 0.40566242 -0.013827393
vn 0.36040235 0.9327969 -0
vn 0.5776696 -0.18277287 -0.79554504
vn 0.9999355 0.008810639 -0.0071663857
vn 0.52097654 0.6246151 -0.5817555
vn 0.60503876 0.23167324 -0.7617451
vn -0.5210035 0.62266016 -0.5838233
vn -0.6070206 0.23167324 -0.76016676
vn -0.57574165 -0.18472785 -0.79649055
vn -0.99996245 0.0068557262 -0.005301025
g fcbg_arkcity_003_EER_airconditioner_01_0
f 3/3/3 2/2/2 1/1/1
f 4/4/4 3/3/3 1/1/1
f 5/5/5 3/3/3 4/4/4
f 6/6/6 5/5/5 4/4/4
f 5/5/5 6/6/6 7/7/7
f 8/8/8 5/5/5 7/7/7
f 9/9/9 5/5/5 8/8/8
f 10/10/10 9/9/9 8/8/8
f 9/9/9 11/11/11 5/5/5
f 11/11/11 12/12/12 5/5/5
f 11/11/11 13/13/13 12/12/12
f 13/13/13 14/14/14 12/12/12
f 13/13/13 11/11/11 15/15/15
f 11/11/11 9/9/9 15/15/15
f 15/15/15 9/9/9 10/10/10
f 16/16/16 15/15/15 10/10/10
f 17/17/17 16/16/16 10/10/10
f 20/20/20 19/19/19 18/18/18
f 19/19/19 21/21/21 18/18/18
f 21/21/21 22/22/22 18/18/18
f 23/23/23 22/22/22 21/21/21
f 24/24/24 23/23/23 21/21/21
f 22/22/22 23/23/23 25/25/25
f 22/22/22 26/26/26 18/18/18
f 26/26/26 22/22/22 25/25/25
f 26/26/26 27/27/27 18/18/18
f 26/26/26 25/25/25 28/28/28
f 27/27/27 26/26/26 28/28/28
f 31/31/31 30/30/30 29/29/29
f 32/32/32 31/31/31 29/29/29
f 33/33/33 31/31/31 32/32/32
f 32/32/32 29/29/29 34/34/34
f 34/34/34 33/33/33 32/32/32
f 29/29/29 35/35/35 34/34/34
f 36/36/36 33/33/33 34/34/34
f 35/35/35 36/36/36 34/34/34
