g fcbg_cityforestcrystal_002_barricade_01
v 2.7047024 2.8198462 0.08017635
v -2.7047038 2.8198462 -0.07984781
v -2.7046914 2.8198462 0.0802629
v 2.7046962 2.8198462 -0.08027983
v -2.7047038 3.312284 -0.07984781
v -2.7046914 3.312284 0.0802629
v -2.7046914 2.8198462 0.0802629
v 2.7046962 3.312284 -0.08027983
v 2.7047024 3.312284 0.08017635
v -2.7046914 3.312284 0.0802629
v 2.7047024 3.312284 0.08017635
v 2.7047024 2.8198462 0.08017635
v -1.6489077 3.7459817 0.0003092289
v -1.6489697 0.018844604 -0.76939905
v -1.6489635 -0.0004003048 -0.66027284
v -1.64892 3.7652202 -0.1088109
v -2.1414075 0.018844604 -0.7693621
v -2.1414013 -0.0004003048 -0.6602359
v -1.6489635 -0.0004003048 -0.66027284
v -2.141358 3.7652202 -0.10876751
v -1.6489077 3.7459817 0.0003092289
v -2.1413517 3.7459817 0.00035238266
v -2.1413517 3.7459817 0.00035238266
v -2.1414013 -0.0004003048 -0.6602359
v -2.1413393 3.7652202 0.10910845
v -2.141284 0.018844604 0.7697029
v -2.1412964 -0.0004003048 0.6605768
v -2.1413517 3.7459817 -1.168251E-05
v -1.6489077 3.7459817 -4.863739E-05
v -1.6489015 3.7652202 0.10907149
v -2.1413393 3.7652202 0.10910845
v -1.6488585 -0.0004003048 0.6605396
v -2.141284 0.018844604 0.7697029
v -1.6489015 3.7652202 0.10907149
v -1.6488461 0.018844604 0.76965976
v 2.1844368 3.7459817 6.914139E-06
v 2.1843815 0.018844604 -0.7697015
v 2.1843874 -0.0004003048 -0.66058135
v 2.1844306 3.7652202 -0.109119415
v 1.6919434 0.018844604 -0.7696644
v 1.6919496 -0.0004003048 -0.6605382
v 2.1843874 -0.0004003048 -0.66058135
v 1.6919928 3.7652202 -0.10908222
v 2.1844368 3.7459817 6.914139E-06
v 1.6920052 3.7459817 4.386902E-05
v 1.6920052 3.7459817 4.386902E-05
v 1.6919496 -0.0004003048 -0.6605382
v 1.6920114 3.7652202 0.108799934
v 1.6920669 0.018844604 0.7693944
v 1.6920545 -0.0004003048 0.6602683
v 1.6920052 3.7459817 -0.00031995773
v 2.1844368 3.7459817 -0.00035715103
v 2.1844492 3.7652202 0.10876298
v 1.6920114 3.7652202 0.108799934
v 2.1844923 -0.0004003048 0.6602311
v 1.6920669 0.018844604 0.7693944
v 2.1844492 3.7652202 0.10876298
v 2.1845047 0.018844604 0.76935124
v -1.6488461 0.018844604 0.76965976
v -2.141284 0.018844604 0.7697029
v -2.1413393 3.7652202 0.10910845
v -1.6489015 3.7652202 0.10907149
v 2.1845047 0.018844604 0.76935124
v 1.6920669 0.018844604 0.7693944
v 1.6920114 3.7652202 0.108799934
v 2.1844492 3.7652202 0.10876298
v 2.7047024 3.312284 0.08017635
v 2.7047024 2.8198462 0.08017635
v -2.7046914 2.8198462 0.0802629
v -2.7046914 3.312284 0.0802629
v -2.1413517 3.7459817 0.00035238266
v -1.6489077 3.7459817 0.0003092289
v -1.6489635 -0.0004003048 -0.66027284
v -2.1414013 -0.0004003048 -0.6602359
v 1.6920052 3.7459817 4.386902E-05
v 2.1844368 3.7459817 6.914139E-06
v 2.1843874 -0.0004003048 -0.66058135
v 1.6919496 -0.0004003048 -0.6605382
vt 0.44522095 0.0015106201
vt 0.57242584 0.005332947
vt 0.57242584 0.0015106201
vt 0.44522095 0.005332947
vt 0.57242584 0.017662048
vt 0.57624817 0.017662048
vt 0.57624817 0.005332947
vt 0.44522095 0.017662048
vt 0.44522095 0.021499634
vt 0.57242584 0.021499634
vt 0.44522095 0.017662048
vt 0.44522095 0.005332947
vt 0.44522095 0.023742676
vt 0.54958725 0.026733398
vt 0.54958725 0.023742676
vt 0.44522095 0.026733398
vt 0.54958725 0.040462494
vt 0.55233 0.040462494
vt 0.55233 0.026733398
vt 0.44522095 0.040462494
vt 0.4420433 0.026733398
vt 0.4420433 0.040462494
vt 0.44522095 0.043468475
vt 0.54958725 0.043468475
vt 0.66135406 0.0010223389
vt 0.58268356 0.0010223389
vt 0.58268356 0.0033416748
vt 0.66135406 0.0033416748
vt 0.66135406 0.015407562
vt 0.6638298 0.015407562
vt 0.6638298 0.0033416748
vt 0.58268356 0.015407562
vt 0.58268356 0.017726898
vt 0.66135406 0.017726898
vt 0.58268356 0.017726898
vt 0.44522095 0.043468475
vt 0.54958725 0.040462494
vt 0.54958725 0.043468475
vt 0.44522095 0.040462494
vt 0.54958725 0.026733398
vt 0.55233 0.026733398
vt 0.55233 0.040462494
vt 0.44522095 0.026733398
vt 0.4420433 0.040462494
vt 0.4420433 0.026733398
vt 0.44522095 0.023742676
vt 0.54958725 0.023742676
vt 0.66135406 0.0010223389
vt 0.58268356 0.0010223389
vt 0.58268356 0.0033416748
vt 0.66135406 0.0033416748
vt 0.66135406 0.015407562
vt 0.6638298 0.015407562
vt 0.6638298 0.0033416748
vt 0.58268356 0.015407562
vt 0.58268356 0.017726898
vt 0.66135406 0.017726898
vt 0.58268356 0.017726898
vt 0.54958725 0.026733398
vt 0.54958725 0.040462494
vt 0.44522095 0.040462494
vt 0.44522095 0.026733398
vt 0.54958725 0.026733398
vt 0.54958725 0.040462494
vt 0.44522095 0.040462494
vt 0.44522095 0.026733398
vt 0.44522095 0.005332947
vt 0.44522095 0.017662048
vt 0.57242584 0.017662048
vt 0.57242584 0.005332947
vt 0.66135406 0.0033416748
vt 0.66135406 0.015407562
vt 0.58268356 0.015407562
vt 0.58268356 0.0033416748
vt 0.66135406 0.0033416748
vt 0.66135406 0.015407562
vt 0.58268356 0.015407562
vt 0.58268356 0.0033416748
vn 0.5773064 -0.5773064 0.577438
vn -0.57730657 -0.5773064 -0.5774378
vn -0.57730657 -0.5773064 0.5774378
vn 0.5773064 -0.5773064 -0.577438
vn -0.57730657 0.57730657 -0.57743764
vn -0.57730657 0.57730657 0.57743764
vn -0.57730657 -0.5773064 0.5774378
vn 0.5773064 0.57730657 -0.5774378
vn 0.5773064 0.57730657 0.5774378
vn -0.57730657 0.57730657 0.57743764
vn 0.5773064 0.57730657 0.5774378
vn 0.5773064 -0.5773064 0.577438
vn 0.5773064 0.46877557 0.66855574
vn 0.5773064 -0.4687754 -0.66855586
vn 0.5773064 -0.66883856 0.46837193
vn 0.5773064 0.6688388 -0.4683716
vn -0.57730657 -0.4687754 -0.66855574
vn -0.57730657 -0.66883856 0.46837175
vn 0.5773064 -0.66883856 0.46837193
vn -0.57730657 0.6688388 -0.4683714
vn 0.5773064 0.46877557 0.66855574
vn -0.57730657 0.46877557 0.6685556
vn -0.57730657 0.46877557 0.6685556
vn -0.57730657 -0.66883856 0.46837175
vn -0.57730657 0.6688388 0.4683714
vn -0.57730657 -0.4687754 0.66855574
vn -0.57730657 -0.66883856 -0.46837175
vn -0.57730657 0.46877557 -0.6685556
vn 0.5773064 0.46877557 -0.66855574
vn 0.5773064 0.6688388 0.4683716
vn -0.57730657 0.6688388 0.4683714
vn 0.5773064 -0.66883856 -0.46837193
vn -0.57730657 -0.4687754 0.66855574
vn 0.5773064 0.6688388 0.4683716
vn 0.5773064 -0.4687754 0.66855586
vn 0.5773064 0.46877557 0.66855574
vn 0.5773064 -0.4687754 -0.66855586
vn 0.5773064 -0.66883856 0.46837193
vn 0.5773064 0.6688388 -0.4683716
vn -0.57730657 -0.4687754 -0.66855574
vn -0.57730657 -0.66883856 0.46837175
vn 0.5773064 -0.66883856 0.46837193
vn -0.57730657 0.6688388 -0.4683714
vn 0.5773064 0.46877557 0.66855574
vn -0.57730657 0.46877557 0.6685556
vn -0.57730657 0.46877557 0.6685556
vn -0.57730657 -0.66883856 0.46837175
vn -0.57730657 0.6688388 0.4683714
vn -0.57730657 -0.4687754 0.66855574
vn -0.57730657 -0.66883856 -0.46837175
vn -0.57730657 0.46877557 -0.6685556
vn 0.5773064 0.46877557 -0.66855574
vn 0.5773064 0.6688388 0.4683716
vn -0.57730657 0.6688388 0.4683714
vn 0.5773064 -0.66883856 -0.46837193
vn -0.57730657 -0.4687754 0.66855574
vn 0.5773064 0.6688388 0.4683716
vn 0.5773064 -0.4687754 0.66855586
vn 0.5773064 -0.4687754 0.66855586
vn -0.57730657 -0.4687754 0.66855574
vn -0.57730657 0.6688388 0.4683714
vn 0.5773064 0.6688388 0.4683716
vn 0.5773064 -0.4687754 0.66855586
vn -0.57730657 -0.4687754 0.66855574
vn -0.57730657 0.6688388 0.4683714
vn 0.5773064 0.6688388 0.4683716
vn 0.5773064 0.57730657 0.5774378
vn 0.5773064 -0.5773064 0.577438
vn -0.57730657 -0.5773064 0.5774378
vn -0.57730657 0.57730657 0.57743764
vn -0.57730657 0.46877557 0.6685556
vn 0.5773064 0.46877557 0.66855574
vn 0.5773064 -0.66883856 0.46837193
vn -0.57730657 -0.66883856 0.46837175
vn -0.57730657 0.46877557 0.6685556
vn 0.5773064 0.46877557 0.66855574
vn 0.5773064 -0.66883856 0.46837193
vn -0.57730657 -0.66883856 0.46837175
g fcbg_cityforestcrystal_002_barricade_01_0
f 3/3/3 2/2/2 1/1/1
f 2/2/2 4/4/4 1/1/1
f 4/4/4 2/2/2 5/5/5
f 5/5/5 2/2/2 6/6/6
f 2/2/2 7/7/7 6/6/6
f 8/8/8 4/4/4 5/5/5
f 8/8/8 5/5/5 9/9/9
f 5/5/5 10/10/10 9/9/9
f 8/8/8 11/11/11 4/4/4
f 11/11/11 12/12/12 4/4/4
f 15/15/15 14/14/14 13/13/13
f 14/14/14 16/16/16 13/13/13
f 16/16/16 14/14/14 17/17/17
f 17/17/17 14/14/14 18/18/18
f 14/14/14 19/19/19 18/18/18
f 20/20/20 16/16/16 17/17/17
f 21/21/21 16/16/16 20/20/20
f 22/22/22 21/21/21 20/20/20
f 20/20/20 17/17/17 23/23/23
f 17/17/17 24/24/24 23/23/23
f 27/27/27 26/26/26 25/25/25
f 28/28/28 27/27/27 25/25/25
f 28/28/28 29/29/29 27/27/27
f 30/30/30 29/29/29 28/28/28
f 31/31/31 30/30/30 28/28/28
f 29/29/29 32/32/32 27/27/27
f 27/27/27 32/32/32 33/33/33
f 32/32/32 29/29/29 34/34/34
f 32/32/32 35/35/35 33/33/33
f 35/35/35 32/32/32 34/34/34
f 38/38/38 37/37/37 36/36/36
f 37/37/37 39/39/39 36/36/36
f 39/39/39 37/37/37 40/40/40
f 40/40/40 37/37/37 41/41/41
f 37/37/37 42/42/42 41/41/41
f 43/43/43 39/39/39 40/40/40
f 44/44/44 39/39/39 43/43/43
f 45/45/45 44/44/44 43/43/43
f 43/43/43 40/40/40 46/46/46
f 40/40/40 47/47/47 46/46/46
f 50/50/50 49/49/49 48/48/48
f 51/51/51 50/50/50 48/48/48
f 51/51/51 52/52/52 50/50/50
f 53/53/53 52/52/52 51/51/51
f 54/54/54 53/53/53 51/51/51
f 52/52/52 55/55/55 50/50/50
f 50/50/50 55/55/55 56/56/56
f 55/55/55 52/52/52 57/57/57
f 55/55/55 58/58/58 56/56/56
f 58/58/58 55/55/55 57/57/57
f 61/61/61 60/60/60 59/59/59
f 62/62/62 61/61/61 59/59/59
f 65/65/65 64/64/64 63/63/63
f 66/66/66 65/65/65 63/63/63
f 69/69/69 68/68/68 67/67/67
f 70/70/70 69/69/69 67/67/67
f 73/73/73 72/72/72 71/71/71
f 74/74/74 73/73/73 71/71/71
f 77/77/77 76/76/76 75/75/75
f 78/78/78 77/77/77 75/75/75
