g fcbg_desertcrystal_001_machineobj_05
v -0.32077467 1.9012272 -0.40017843
v -0.32077467 1.8527439 -0.2996691
v -0.27503467 1.8527439 -0.2996691
v -0.27503467 1.9012272 -0.40017843
v -0.32077467 1.9894831 -0.40017843
v -0.32077467 1.8527439 -0.2996691
v -0.32077467 1.9894831 -0.2996691
v -0.27503467 1.9894831 -0.40017843
v -0.32077467 1.9894831 -0.2996691
v -0.27503467 1.9894831 -0.2996691
v -0.27503467 1.9012272 -0.40017843
v -0.27503467 1.8527439 -0.2996691
v -0.27503467 1.9894831 -0.2996691
v -0.27503467 1.9894831 -0.40017843
v 0.039761186 1.9012272 -0.40017843
v 0.039761186 1.8527439 -0.2996691
v 0.085501194 1.8527439 -0.2996691
v 0.085501194 1.9012272 -0.40017843
v 0.039761186 1.9894831 -0.40017843
v 0.039761186 1.8527439 -0.2996691
v 0.039761186 1.9894831 -0.2996691
v 0.085501194 1.9894831 -0.40017843
v 0.039761186 1.9894831 -0.2996691
v 0.085501194 1.9894831 -0.2996691
v 0.085501194 1.9012272 -0.40017843
v 0.085501194 1.8527439 -0.2996691
v 0.085501194 1.9894831 -0.2996691
v 0.085501194 1.9894831 -0.40017843
v 0.041864872 1.9356751 -0.31486583
v -0.28216016 1.9356751 -0.31486583
v -0.28216016 1.9707971 -0.34998775
v 0.041864872 1.9707971 -0.34998775
v -0.28216016 1.9356751 -0.38510656
v 0.041864872 1.9356751 -0.38510656
v -0.28216016 1.9005532 -0.34998775
v 0.041864872 1.9005532 -0.34998775
v -1.1548588 -0.00827539 -0.15849787
v -0.38322818 -0.00827539 -0.15849787
v -0.38322818 1.0117681 -0.15850097
v -1.1548588 1.0117681 -0.15850097
v -1.1548588 1.145324 -0.31088638
v 0.18783945 1.145324 -0.31088638
v 0.18783945 1.0117681 -0.15850097
v -1.1548588 2.0745118 -0.31088638
v 0.18783945 2.0745118 -0.31088638
v -1.1548588 1.0117681 -0.15850097
v 0.18783945 2.1178641 -0.26753408
v -1.1548588 2.1178641 -0.26753408
v -1.1548588 2.1178641 0.3614303
v 0.18783945 2.1178641 0.3614303
v -1.1548588 2.1178641 0.3614303
v -1.1548588 2.1178641 -0.26753408
v -1.1548588 -0.00827539 0.3614303
v -1.1548588 -0.00827539 -0.15849787
v 0.18783945 1.0117681 -0.15850097
v 0.18783945 1.0117681 0.3614303
v 0.18783945 2.1178641 0.3614303
v 0.18783945 2.0745118 -0.31088638
v 0.18783945 1.145324 -0.31088638
v 0.18783945 2.1178641 -0.26753408
v -0.38322818 -0.00827539 -0.15849787
v -0.38322818 -0.00827539 0.3614303
v -0.38322818 1.0117681 0.3614303
v -0.38322818 1.0117681 -0.15850097
v 0.0035281181 -0.0015337467 -0.039355397
v 0.0035281181 0.68302715 0.3424102
v 0.0035281181 -0.0015337467 0.3424102
v 0.0035281181 0.68302715 -0.039355397
v 0.0035281181 0.61709976 -0.10528278
v 0.0035281181 0.06439364 -0.10528278
v 1.1548615 0.06439364 -0.10528278
v 0.0035281181 -0.0015337467 -0.039355397
v 1.1548615 -0.0015337467 -0.039355397
v 1.1548615 0.61709976 -0.10528278
v 1.1548615 0.68302715 -0.039355397
v 0.0035281181 0.68302715 -0.039355397
v 0.0035281181 0.68302715 0.3424102
v 1.1548615 0.68302715 0.3424102
v 1.1548615 0.68302715 -0.039355397
v 1.1548615 -0.0015337467 0.3424102
v 1.1548615 0.68302715 0.3424102
v 1.1548615 -0.0015337467 -0.039355397
v 1.1548615 0.06439364 -0.10528278
v 1.1548615 0.61709976 -0.10528278
v 0.12204635 1.4851606 0.18386066
v 0.13632858 1.5163248 0.15226865
v 0.3379777 1.4855225 0.21305561
v 0.31336457 1.4559374 0.24153268
v 0.12637532 1.4511528 0.15226865
v 0.51623404 1.2944884 0.24451017
v 0.3041916 1.4239929 0.20587385
v 0.48178315 1.2771881 0.27118015
v 0.5892307 1.0566592 0.23065245
v 0.4579503 1.2628589 0.2327373
v 0.55270743 1.046066 0.25769997
v 0.6437005 0.6720065 0.18417895
v 0.5253259 1.0433695 0.21992207
v 0.60618466 0.66708446 0.21165419
v 0.5797675 0.65940344 0.17308033
v 0.14065754 1.4823172 0.120679855
v 0.12637532 1.4511528 0.15226865
v 0.3041916 1.4239929 0.20587385
v 0.32880783 1.453578 0.17739677
v 0.13632858 1.5163248 0.15226865
v 0.4579503 1.2628589 0.2327373
v 0.3379777 1.4855225 0.21305561
v 0.49240118 1.2801592 0.20606422
v 0.5253259 1.0433695 0.21992207
v 0.51623404 1.2944884 0.24451017
v 0.5618461 1.0539625 0.19287443
v 0.5797675 0.65940344 0.17308033
v 0.5892307 1.0566592 0.23065245
v 0.61728334 0.66432536 0.14560199
v 0.6437005 0.6720065 0.18417895
v 0.08117843 1.8735712 0.057783127
v 0.08556664 1.9062397 0.024817824
v 0.24252146 1.8851628 0.024817824
v 0.23191589 1.8533275 0.057780027
v 0.076793194 1.8408992 0.024817824
v 0.37989742 1.8083708 0.024817824
v 0.22130722 1.8214922 0.024817824
v 0.35343033 1.7853994 0.057783127
v 0.46265697 1.628273 0.024814725
v 0.3269664 1.7624311 0.024817824
v 0.4297167 1.6220777 0.057783127
v 0.45601833 1.1147306 0.024231076
v 0.39675146 1.6159229 0.024820924
v 0.4230656 1.1134012 0.057202578
v 0.5325325 0.5072739 0.024808526
v 0.3900941 1.1120965 0.024246693
v 0.50013846 0.49966776 0.057783127
v 0.4677319 0.49203968 0.024830341
v 0.08117843 1.8735712 -0.008147359
v 0.076793194 1.8408992 0.024817824
v 0.22130722 1.8214922 0.024817824
v 0.23191589 1.8533275 -0.008147359
v 0.08556664 1.9062397 0.024817824
v 0.3269664 1.7624311 0.024817824
v 0.24252146 1.8851628 0.024817824
v 0.35343033 1.7853994 -0.008144259
v 0.39675146 1.6159229 0.024820924
v 0.37989742 1.8083708 0.024817824
v 0.42969173 1.6221151 -0.008144259
v 0.3900941 1.1120965 0.024246693
v 0.46265697 1.628273 0.024814725
v 0.4230469 1.113426 -0.008724809
v 0.4677319 0.49203968 0.024830341
v 0.45601833 1.1147306 0.024231076
v 0.50012594 0.49964905 -0.008144259
v 0.5325325 0.5072739 0.024808526
vt 0.9113633 0.92254907
vt 0.92112434 0.92254907
vt 0.92112434 0.9158801
vt 0.9113633 0.9158801
vt 0.89849514 0.92254907
vt 0.9184416 0.93722093
vt 0.89849514 0.93722093
vt 0.89849514 0.9158801
vt 0.88382334 0.92254907
vt 0.88382334 0.9158801
vt 0.88588464 0.93858504
vt 0.8793824 0.9250803
vt 0.897707 0.9250803
vt 0.897707 0.93858504
vt 0.9113633 0.92254907
vt 0.921094 0.92254907
vt 0.921094 0.9158801
vt 0.9113633 0.9158801
vt 0.89848 0.92254907
vt 0.91845673 0.9372361
vt 0.89848 0.9372361
vt 0.89848 0.9158801
vt 0.883793 0.92254907
vt 0.883793 0.9158801
vt 0.88588464 0.93858504
vt 0.87935203 0.92509544
vt 0.8977373 0.92509544
vt 0.8977373 0.93858504
vt 0.85005385 0.9423742
vt 0.8763813 0.9423742
vt 0.8763813 0.94504184
vt 0.85005385 0.94504184
vt 0.8763813 0.9423742
vt 0.85005385 0.9423742
vt 0.8763813 0.9397066
vt 0.85005385 0.9397066
vt 0.9732336 0.8887038
vt 0.9442234 0.8887038
vt 0.9442234 0.92705065
vt 0.9732336 0.92705065
vt 0.9732336 0.9346594
vt 0.92276126 0.9346594
vt 0.92276126 0.92705065
vt 0.9732336 0.96959597
vt 0.92276126 0.96959597
vt 0.9789629 0.9296425
vt 0.92276126 0.9718998
vt 0.9732336 0.9718998
vt 0.9732336 0.9955445
vt 0.92276126 0.9955445
vt 0.99850005 0.97121775
vt 0.97485536 0.97121775
vt 0.99850005 0.8913108
vt 0.9789629 0.8913108
vt 0.9069527 0.96855015
vt 0.9197602 0.96855015
vt 0.9197602 0.99574155
vt 0.9032089 0.9946805
vt 0.9032089 0.9718543
vt 0.90426993 0.99574155
vt 0.9069527 0.94332916
vt 0.9197602 0.94332916
vt 0.9197602 0.96855015
vt 0.9069527 0.96855015
vt 0.883793 0.9506802
vt 0.89979863 0.98160017
vt 0.89979863 0.9506802
vt 0.883793 0.98160017
vt 0.8810193 0.97862947
vt 0.8810193 0.9536661
vt 0.83232033 0.9536661
vt 0.8810193 0.9501194
vt 0.83232033 0.9501194
vt 0.83232033 0.97862947
vt 0.83232033 0.98279756
vt 0.8810193 0.98279756
vt 0.8810193 0.9970147
vt 0.83232033 0.9970147
vt 0.883793 0.98160017
vt 0.89979863 0.9506802
vt 0.89979863 0.98160017
vt 0.883793 0.9506802
vt 0.8810193 0.9536661
vt 0.8810193 0.97862947
vt 0.81980073 0.99833333
vt 0.82160443 0.99833333
vt 0.82160443 0.99425614
vt 0.81980073 0.99425614
vt 0.81807286 0.99833333
vt 0.82160443 0.989603
vt 0.81807286 0.99425614
vt 0.81980073 0.989603
vt 0.82160443 0.98464674
vt 0.81807286 0.989603
vt 0.81980073 0.98464674
vt 0.82160443 0.97659844
vt 0.81807286 0.98464674
vt 0.81980073 0.97659844
vt 0.81807286 0.97659844
vt 0.8233929 0.99833333
vt 0.82510567 0.99833333
vt 0.82510567 0.99425614
vt 0.8233929 0.99425614
vt 0.82160443 0.99833333
vt 0.82510567 0.989603
vt 0.82160443 0.99425614
vt 0.8233929 0.989603
vt 0.82510567 0.98464674
vt 0.82160443 0.989603
vt 0.8233929 0.98464674
vt 0.82510567 0.97659844
vt 0.82160443 0.98464674
vt 0.8233929 0.97659844
vt 0.82160443 0.97659844
vt 0.81980073 0.99833333
vt 0.82160443 0.99833333
vt 0.82160443 0.9950746
vt 0.81980073 0.9950746
vt 0.81807286 0.99833333
vt 0.82160443 0.9920736
vt 0.81807286 0.9950746
vt 0.81980073 0.9920736
vt 0.82160443 0.9882995
vt 0.81807286 0.9920736
vt 0.81980073 0.9882995
vt 0.82160443 0.9781444
vt 0.81807286 0.9882995
vt 0.81980073 0.9781444
vt 0.82160443 0.9479671
vt 0.81807286 0.9781444
vt 0.81980073 0.9479671
vt 0.81807286 0.9479671
vt 0.8233929 0.99833333
vt 0.82510567 0.99833333
vt 0.82510567 0.9950746
vt 0.8233929 0.9950746
vt 0.82160443 0.99833333
vt 0.82510567 0.9920736
vt 0.82160443 0.9950746
vt 0.8233929 0.9920736
vt 0.82510567 0.9882995
vt 0.82160443 0.9920736
vt 0.8233929 0.9882995
vt 0.82510567 0.9781444
vt 0.82160443 0.9882995
vt 0.8233929 0.9781444
vt 0.82510567 0.9479671
vt 0.82160443 0.9781444
vt 0.8233929 0.9479671
vt 0.82160443 0.9479671
vn -0.60508275 -0.42326468 -0.6743307
vn -0.58162236 -0.73216 -0.35448152
vn 0.58162236 -0.73216 -0.35448152
vn 0.6050828 -0.42326468 -0.6743306
vn -0.5777123 0.5777123 -0.5766255
vn -0.58162236 -0.73216 -0.35448152
vn -0.70674455 0.70674455 -0.03200431
vn 0.5777123 0.5777123 -0.5766255
vn -0.70674455 0.70674455 -0.03200431
vn 0.70674455 0.70674455 -0.03200431
vn 0.6050828 -0.42326468 -0.6743306
vn 0.58162236 -0.73216 -0.35448152
vn 0.70674455 0.70674455 -0.03200431
vn 0.5777123 0.5777123 -0.5766255
vn -0.60508275 -0.42326468 -0.6743307
vn -0.58162236 -0.73216 -0.35448152
vn 0.58162236 -0.73216 -0.35448152
vn 0.6050828 -0.42326468 -0.6743306
vn -0.5777123 0.5777123 -0.5766255
vn -0.58162236 -0.73216 -0.35448152
vn -0.70674455 0.70674455 -0.03200431
vn 0.5777123 0.5777123 -0.5766255
vn -0.70674455 0.70674455 -0.03200431
vn 0.70674455 0.70674455 -0.03200431
vn 0.6050828 -0.42326468 -0.6743306
vn 0.58162236 -0.73216 -0.35448152
vn 0.70674455 0.70674455 -0.03200431
vn 0.5777123 0.5777123 -0.5766255
vn -0.0009775162 0.70674455 0.70746815
vn -0.0009775162 0.70674455 0.70746815
vn -0.0009775162 0.9999995 -0
vn -0.0009775162 0.9999995 -0
vn -0.0009775162 0.0009775162 -0.99999905
vn -0.0009775162 0.0009775162 -0.99999905
vn -0.0009775162 -0.70674455 -0.70746815
vn -0.0009775162 -0.70674455 -0.70746815
vn -0.70674455 0.0009775162 -0.70746815
vn 0.70674455 0.0009775162 -0.70746815
vn 0.34115332 -0.5112412 -0.7888262
vn -0.8123163 -0.24144661 -0.5308915
vn -0.6246331 -0.321603 -0.7116214
vn 0.62463313 -0.321603 -0.7116214
vn 0.8396868 -0.40957946 -0.35661003
vn -0.6304983 0.29618752 -0.71745723
vn 0.63049823 0.29618752 -0.71745723
vn -0.8123163 -0.24144661 -0.5308915
vn 0.63049823 0.7165197 -0.2984484
vn -0.6304983 0.7165197 -0.2984484
vn -0.70674455 0.70674455 -0.03200431
vn 0.70674455 0.70674455 -0.03200431
vn -0.70674455 0.70674455 -0.03200431
vn -0.6304983 0.7165197 -0.2984484
vn -0.9999995 0.0009775162 -0
vn -0.70674455 0.0009775162 -0.70746815
vn 0.8396868 -0.40957946 -0.35661003
vn 0.9999995 0.0009775162 -0
vn 0.70674455 0.70674455 -0.03200431
vn 0.63049823 0.29618752 -0.71745723
vn 0.62463313 -0.321603 -0.7116214
vn 0.63049823 0.7165197 -0.2984484
vn 0.70674455 0.0009775162 -0.70746815
vn 0.9999995 0.0009775162 -0
vn 0.9999995 0.0009775162 -0
vn 0.34115332 -0.5112412 -0.7888262
vn -0.8318666 -0.39198416 -0.39286938
vn -0.70674455 0.70674455 -0.03200431
vn -0.9999995 0.0009775162 -0
vn -0.6304983 0.7165197 -0.2984484
vn -0.6304983 0.29618752 -0.71745723
vn -0.6304983 -0.29618752 -0.71745723
vn 0.63049823 -0.29618752 -0.71745723
vn -0.8318666 -0.39198416 -0.39286938
vn 0.8318667 -0.39198416 -0.39286923
vn 0.63049823 0.29618752 -0.71745723
vn 0.63049823 0.7165197 -0.2984484
vn -0.6304983 0.7165197 -0.2984484
vn -0.70674455 0.70674455 -0.03200431
vn 0.70674455 0.70674455 -0.03200431
vn 0.63049823 0.7165197 -0.2984484
vn 0.9999995 0.0009775162 -0
vn 0.70674455 0.70674455 -0.03200431
vn 0.8318667 -0.39198416 -0.39286923
vn 0.63049823 -0.29618752 -0.71745723
vn 0.63049823 0.29618752 -0.71745723
vn -0.2825023 0.043988228 0.95825756
vn 0.15151507 0.9882693 -0.019155318
vn 0.45259023 0.8846526 0.112035014
vn -0.17106545 0.14565003 0.97443455
vn -0.15151513 -0.9882693 -0.019153763
vn 0.849462 0.4936459 0.18635476
vn -0.45259023 -0.89051765 -0.04626449
vn -0.075268745 -0.0009775162 0.9971628
vn 0.96480894 0.20039093 0.17025623
vn -0.85141695 -0.5053761 -0.14030038
vn -0.10459423 -0.11241442 0.9881412
vn 0.9882693 0.13000977 0.08013223
vn -0.966764 -0.20234597 -0.15628023
vn -0.16911042 -0.1417399 0.975352
vn -0.96480894 -0.108504355 -0.23952143
vn 0.2825023 -0.043988228 -0.95825756
vn -0.15151513 -0.9882693 -0.019153763
vn -0.45259023 -0.89051765 -0.04626449
vn 0.29227746 0.11045933 -0.949933
vn 0.15151507 0.9882693 -0.019155318
vn -0.85141695 -0.5053761 -0.14030038
vn 0.45259023 0.8846526 0.112035014
vn 0.25122178 0.11045933 -0.96160614
vn -0.966764 -0.20234597 -0.15628023
vn 0.849462 0.4936459 0.18635476
vn 0.17693049 0.12805474 -0.9758574
vn -0.96480894 -0.108504355 -0.23952143
vn 0.96480894 0.20039093 0.17025623
vn 0.10459429 0.13391984 -0.985457
vn 0.9882693 0.13000977 0.08013223
vn -0.0009775162 0.0009775162 0.99999905
vn 0.13391978 0.99022436 -0.039002944
vn 0.3156414 0.9488786 -0
vn 0.026392937 0.07917881 0.996511
vn -0.13391984 -0.99022436 -0.039002944
vn 0.73607004 0.67546403 -0.044149984
vn -0.31564134 -0.9488786 -0
vn 0.09677416 0.09481907 0.9907795
vn 0.97849417 0.20625603 0.0027641582
vn -0.7282499 -0.6852392 0.009965005
vn 0.09677416 0.02052784 0.99509466
vn 0.9980445 0.055718422 -0.028331274
vn -0.97653913 -0.21407616 0.023296729
vn -0.030303001 -0.0029325485 0.99953645
vn 0.9921794 0.124144554 0.012968714
vn -0.9980445 -0.055718422 -0.028331274
vn -0.047898293 -0.004887581 0.9988403
vn -0.9921794 -0.124144614 0.01296814
vn -0.0009775162 0.0009775162 -0.99999905
vn -0.13391984 -0.99022436 -0.039002944
vn -0.31564134 -0.9488786 -0
vn 0.026392937 0.07917881 -0.996511
vn 0.13391978 0.99022436 -0.039002944
vn -0.7282499 -0.6852392 0.009965005
vn 0.3156414 0.9488786 -0
vn 0.09677416 0.09481907 -0.9907795
vn -0.97653913 -0.21407616 0.023296729
vn 0.73607004 0.67546403 -0.044149984
vn 0.09677416 0.022482872 -0.9950524
vn -0.9980445 -0.055718422 -0.028331274
vn 0.97849417 0.20625603 0.0027641582
vn -0.030303001 -0.0029325485 -0.99953645
vn -0.9921794 -0.124144614 0.01296814
vn 0.9980445 0.055718422 -0.028331274
vn -0.047898293 -0.006842613 -0.99882877
vn 0.9921794 0.124144554 0.012968714
g fcbg_desertcrystal_001_machineobj_05_0
f 3/3/3 2/2/2 1/1/1
f 4/4/4 3/3/3 1/1/1
f 1/1/1 5/5/5 4/4/4
f 1/1/1 6/6/6 5/5/5
f 6/6/6 7/7/7 5/5/5
f 5/5/5 8/8/8 4/4/4
f 5/5/5 9/9/9 8/8/8
f 9/9/9 10/10/10 8/8/8
f 13/13/13 12/12/12 11/11/11
f 14/14/14 13/13/13 11/11/11
f 17/17/17 16/16/16 15/15/15
f 18/18/18 17/17/17 15/15/15
f 15/15/15 19/19/19 18/18/18
f 15/15/15 20/20/20 19/19/19
f 20/20/20 21/21/21 19/19/19
f 19/19/19 22/22/22 18/18/18
f 19/19/19 23/23/23 22/22/22
f 23/23/23 24/24/24 22/22/22
f 27/27/27 26/26/26 25/25/25
f 28/28/28 27/27/27 25/25/25
f 31/31/31 30/30/30 29/29/29
f 32/32/32 31/31/31 29/29/29
f 33/33/33 31/31/31 32/32/32
f 34/34/34 33/33/33 32/32/32
f 35/35/35 33/33/33 34/34/34
f 36/36/36 35/35/35 34/34/34
f 39/39/39 38/38/38 37/37/37
f 40/40/40 39/39/39 37/37/37
f 40/40/40 41/41/41 39/39/39
f 41/41/41 42/42/42 39/39/39
f 39/39/39 42/42/42 43/43/43
f 44/44/44 42/42/42 41/41/41
f 44/44/44 45/45/45 42/42/42
f 44/44/44 41/41/41 46/46/46
f 47/47/47 45/45/45 44/44/44
f 48/48/48 47/47/47 44/44/44
f 47/47/47 48/48/48 49/49/49
f 50/50/50 47/47/47 49/49/49
f 51/51/51 44/44/44 46/46/46
f 52/52/52 44/44/44 51/51/51
f 53/53/53 51/51/51 46/46/46
f 54/54/54 53/53/53 46/46/46
f 57/57/57 56/56/56 55/55/55
f 58/58/58 57/57/57 55/55/55
f 59/59/59 58/58/58 55/55/55
f 58/58/58 60/60/60 57/57/57
f 63/63/63 62/62/62 61/61/61
f 64/64/64 63/63/63 61/61/61
f 67/67/67 66/66/66 65/65/65
f 66/66/66 68/68/68 65/65/65
f 65/65/65 68/68/68 69/69/69
f 70/70/70 65/65/65 69/69/69
f 70/70/70 69/69/69 71/71/71
f 72/72/72 70/70/70 71/71/71
f 73/73/73 72/72/72 71/71/71
f 69/69/69 74/74/74 71/71/71
f 75/75/75 74/74/74 69/69/69
f 76/76/76 75/75/75 69/69/69
f 76/76/76 77/77/77 75/75/75
f 77/77/77 78/78/78 75/75/75
f 81/81/81 80/80/80 79/79/79
f 80/80/80 82/82/82 79/79/79
f 79/79/79 82/82/82 83/83/83
f 84/84/84 79/79/79 83/83/83
f 87/87/87 86/86/86 85/85/85
f 88/88/88 87/87/87 85/85/85
f 88/88/88 85/85/85 89/89/89
f 90/90/90 87/87/87 88/88/88
f 91/91/91 88/88/88 89/89/89
f 92/92/92 90/90/90 88/88/88
f 92/92/92 88/88/88 91/91/91
f 93/93/93 90/90/90 92/92/92
f 94/94/94 92/92/92 91/91/91
f 95/95/95 93/93/93 92/92/92
f 95/95/95 92/92/92 94/94/94
f 96/96/96 93/93/93 95/95/95
f 97/97/97 95/95/95 94/94/94
f 98/98/98 96/96/96 95/95/95
f 98/98/98 95/95/95 97/97/97
f 99/99/99 98/98/98 97/97/97
f 102/102/102 101/101/101 100/100/100
f 103/103/103 102/102/102 100/100/100
f 103/103/103 100/100/100 104/104/104
f 105/105/105 102/102/102 103/103/103
f 106/106/106 103/103/103 104/104/104
f 107/107/107 105/105/105 103/103/103
f 107/107/107 103/103/103 106/106/106
f 108/108/108 105/105/105 107/107/107
f 109/109/109 107/107/107 106/106/106
f 110/110/110 108/108/108 107/107/107
f 110/110/110 107/107/107 109/109/109
f 111/111/111 108/108/108 110/110/110
f 112/112/112 110/110/110 109/109/109
f 113/113/113 111/111/111 110/110/110
f 113/113/113 110/110/110 112/112/112
f 114/114/114 113/113/113 112/112/112
f 117/117/117 116/116/116 115/115/115
f 118/118/118 117/117/117 115/115/115
f 118/118/118 115/115/115 119/119/119
f 120/120/120 117/117/117 118/118/118
f 121/121/121 118/118/118 119/119/119
f 122/122/122 120/120/120 118/118/118
f 122/122/122 118/118/118 121/121/121
f 123/123/123 120/120/120 122/122/122
f 124/124/124 122/122/122 121/121/121
f 125/125/125 123/123/123 122/122/122
f 125/125/125 122/122/122 124/124/124
f 126/126/126 123/123/123 125/125/125
f 127/127/127 125/125/125 124/124/124
f 128/128/128 126/126/126 125/125/125
f 128/128/128 125/125/125 127/127/127
f 129/129/129 126/126/126 128/128/128
f 130/130/130 128/128/128 127/127/127
f 131/131/131 129/129/129 128/128/128
f 131/131/131 128/128/128 130/130/130
f 132/132/132 131/131/131 130/130/130
f 135/135/135 134/134/134 133/133/133
f 136/136/136 135/135/135 133/133/133
f 136/136/136 133/133/133 137/137/137
f 138/138/138 135/135/135 136/136/136
f 139/139/139 136/136/136 137/137/137
f 140/140/140 138/138/138 136/136/136
f 140/140/140 136/136/136 139/139/139
f 141/141/141 138/138/138 140/140/140
f 142/142/142 140/140/140 139/139/139
f 143/143/143 141/141/141 140/140/140
f 143/143/143 140/140/140 142/142/142
f 144/144/144 141/141/141 143/143/143
f 145/145/145 143/143/143 142/142/142
f 146/146/146 144/144/144 143/143/143
f 146/146/146 143/143/143 145/145/145
f 147/147/147 144/144/144 146/146/146
f 148/148/148 146/146/146 145/145/145
f 149/149/149 147/147/147 146/146/146
f 149/149/149 146/146/146 148/148/148
f 150/150/150 149/149/149 148/148/148
