g fcbg_arkcity_building_29
v -0.6858971 1.89989 -0.15730643
v -1.5846109 2.0595665 0.12478924
v -1.5846109 1.7549901 -0.3616662
v -1.75597 2.043827 0.07303381
v -1.5846109 2.0595665 0.12478924
v -1.75597 2.2224402 0.2074027
v -2.9222198 2.853374 0.2074027
v -2.428698 2.8105426 0.8370371
v -2.9222198 2.853374 1.6991601
v -2.9222198 2.853374 1.6991601
v -2.428698 2.8105426 0.8370371
v -1.7468524 2.2224402 1.671094
v -1.5846167 2.2224345 -1.9120572
v -1.5846109 2.0595665 -1.9120572
v -1.75597 2.2224402 -2.1019824
v -1.5846109 2.2224402 1.5092406
v -1.5846109 2.0595665 0.12478924
v -1.5846109 2.0595665 1.5092406
v -1.75597 2.2224402 0.2074027
v -1.5846109 2.0595665 0.12478924
v -1.5846109 2.2224402 1.5092406
v -0.6858971 1.89989 -0.15730643
v 2.750844 2.0595665 -1.9120572
v 2.750844 2.0595665 1.5092406
v -0.6858971 1.89989 -0.15730643
v 2.750844 2.0595665 1.5092406
v -1.5846109 2.0595665 1.5092406
v -0.6858971 1.89989 -0.15730643
v -1.5846109 2.0595665 1.5092406
v -1.5846109 2.0595665 0.12478924
v -0.6858971 1.89989 -0.15730643
v -1.5846109 2.0595665 -1.9120572
v 2.750844 2.0595665 -1.9120572
v -1.5846109 1.7549901 -0.3616662
v -1.5846109 2.0595665 -1.9120572
v -0.6858971 1.89989 -0.15730643
v -1.75597 2.2224402 -2.1019824
v -1.5846109 2.0595665 -1.9120572
v -1.75597 1.9648776 -1.9157898
v -0.66143847 2.4490252 0.23456836
v -1.7096629 2.8355598 1.3148875
v -0.9278455 1.8340135 0.28681946
v -1.7044315 2.2752156 1.5188088
v -0.9278455 1.8340135 0.28681946
v -1.7096629 2.8355598 1.3148875
v 2.922203 -0.004040718 -2.1019766
v 2.922203 2.2224402 -2.1019766
v -1.75597 2.2224402 -2.1019824
v -1.75597 -0.004040718 -2.1019766
v -2.9222198 -0.004040718 1.6991601
v -2.9222198 -0.004040718 0.2074027
v -2.9222198 2.853374 0.2074027
v -2.9222198 2.853374 1.6991601
v 2.922203 -0.004040718 -2.1019766
v 2.922203 -0.004040718 1.6991658
v 2.922203 2.2224402 1.6991601
v 2.922203 2.2224402 -2.1019766
v -1.75597 2.2224402 0.2074027
v -2.9222198 2.853374 0.2074027
v -2.9222198 -0.004040718 0.2074027
v -1.75597 -0.004040718 0.2074027
v 2.922203 2.2224402 -2.1019766
v -1.5846167 2.2224345 -1.9120572
v -1.75597 2.2224402 -2.1019824
v 2.750844 2.2224402 -1.9120572
v 2.922203 2.2224402 1.6991601
v 2.750844 2.2224402 1.5092406
v -1.7468524 2.2224402 1.671094
v -1.5846109 2.2224402 1.5092406
v -1.75597 2.2224402 0.2074027
v 2.750844 2.2224402 -1.9120572
v 2.750844 2.0595665 -1.9120572
v -1.5846109 2.0595665 -1.9120572
v -1.5846167 2.2224345 -1.9120572
v -1.5846109 2.2224402 1.5092406
v -1.5846109 2.0595665 1.5092406
v 2.750844 2.0595665 1.5092406
v 2.750844 2.2224402 1.5092406
v 2.750844 2.2224402 1.5092406
v 2.750844 2.0595665 1.5092406
v 2.750844 2.0595665 -1.9120572
v 2.750844 2.2224402 -1.9120572
v 2.922203 -0.004040718 1.6991658
v -1.7468524 -0.004040718 1.671094
v -1.7468524 2.2224402 1.671094
v 2.922203 2.2224402 1.6991601
v -2.9222198 -0.004040718 1.6991601
v -2.9222198 2.853374 1.6991601
v -1.7468524 2.2224402 1.671094
v -1.7468524 -0.004040718 1.671094
v -1.7468524 2.2224402 1.671094
v -2.428698 2.8105426 0.8370371
v -1.8181767 2.2472467 0.29379463
v -1.75597 2.2224402 0.2074027
v -2.9222198 2.853374 0.2074027
v -1.75597 2.2224402 0.2074027
v -1.8181767 2.2472467 0.29379463
v -2.428698 2.8105426 0.8370371
v -1.75597 2.2224402 -2.1019824
v -1.75597 1.9648776 -1.9157898
v -1.75597 -0.004040718 -2.1019766
v -1.75597 1.680953 -0.39307737
v -1.75597 -0.004040718 0.2074027
v -1.75597 2.043827 0.07303381
v -1.75597 2.2224402 0.2074027
v -1.75597 2.043827 0.07303381
v -1.75597 1.680953 -0.39307737
v -1.5846109 1.7549901 -0.3616662
v -1.5846109 2.0595665 0.12478924
v -1.75597 1.9648776 -1.9157898
v -1.5846109 2.0595665 -1.9120572
v -1.5846109 1.7549901 -0.3616662
v -1.75597 1.680953 -0.39307737
v -0.66143847 2.4490252 0.23456836
v 0.114948034 2.6122065 0.6655927
v -0.6617291 3.0532775 1.8975649
v -1.7096629 2.8355598 1.3148875
v -0.65379643 1.7044201 0.5059843
v 0.11680031 1.754426 0.9738848
v 0.114948034 2.6122065 0.6655927
v -0.66143847 2.4490252 0.23456836
v -0.9278455 1.8340135 0.28681946
v -0.6753373 2.4583993 2.1019816
v -0.6617291 3.0532775 1.8975649
v 0.114948034 2.6122065 0.6655927
v 0.11680031 1.754426 0.9738848
v -0.6753373 2.4583993 2.1019816
v -1.7044315 2.2752156 1.5188088
v -1.7096629 2.8355598 1.3148875
v -0.6617291 3.0532775 1.8975649
vt 0.8128804 0.10133724
vt 0.82867813 0.10533932
vt 0.83176243 0.09831311
vt 0.8311907 0.10449678
vt 0.82867813 0.10533932
vt 0.8311907 0.10664827
vt 0.7154162 0.09641738
vt 0.7248948 0.08376418
vt 0.7154162 0.07058439
vt 0.7154162 0.07058439
vt 0.7248948 0.08376418
vt 0.73909765 0.07058439
vt 0.82613546 0.07314211
vt 0.82867813 0.075910464
vt 0.82866305 0.06837271
vt 0.82825685 0.12810303
vt 0.82867813 0.10533932
vt 0.82867813 0.12534973
vt 0.8311907 0.10664827
vt 0.82867813 0.10533932
vt 0.82825685 0.12810303
vt 0.8128804 0.10133724
vt 0.75779915 0.075910464
vt 0.75779915 0.12534973
vt 0.8128804 0.10133724
vt 0.75779915 0.12534973
vt 0.82867813 0.12534973
vt 0.8128804 0.10133724
vt 0.82867813 0.12534973
vt 0.82867813 0.10533932
vt 0.8128804 0.10133724
vt 0.82867813 0.075910464
vt 0.75779915 0.075910464
vt 0.83176243 0.09831311
vt 0.82867813 0.075910464
vt 0.8128804 0.10133724
vt 0.82866305 0.06837271
vt 0.82867813 0.075910464
vt 0.8311907 0.07583524
vt 0.2408083 0.038176548
vt 0.2483611 0.07779114
vt 0.2576291 0.026170302
vt 0.26385787 0.081853405
vt 0.2576291 0.026170302
vt 0.2483611 0.07779114
vt 0.99777365 0.33311197
vt 0.9513284 0.33311197
vt 0.9513284 0.41173935
vt 0.99777365 0.41173935
vt 0.6599437 0.07058439
vt 0.6599437 0.09641738
vt 0.7154162 0.09641738
vt 0.7154162 0.07058439
vt 0.99777365 0.33311197
vt 0.99777365 0.2524986
vt 0.9513284 0.2524986
vt 0.9513284 0.33311197
vt 0.704749 0.11863947
vt 0.7154162 0.09641738
vt 0.6599437 0.09641738
vt 0.6599437 0.11863947
vt 0.74803466 0.06837271
vt 0.82613546 0.07314211
vt 0.82866305 0.06837271
vt 0.7540378 0.07297661
vt 0.74803466 0.13114221
vt 0.7540378 0.12810303
vt 0.8311907 0.13114221
vt 0.82825685 0.12810303
vt 0.8311907 0.10664827
vt 0.7540378 0.07297661
vt 0.75779915 0.075910464
vt 0.82867813 0.075910464
vt 0.82613546 0.07314211
vt 0.82825685 0.12810303
vt 0.82867813 0.12534973
vt 0.75779915 0.12534973
vt 0.7540378 0.12810303
vt 0.7540378 0.12810303
vt 0.75779915 0.12534973
vt 0.75779915 0.075910464
vt 0.7540378 0.07297661
vt 0.99777365 0.33311197
vt 0.99777365 0.41173935
vt 0.9513284 0.41173935
vt 0.9513284 0.33311197
vt 0.6599437 0.09641738
vt 0.715341 0.09641738
vt 0.704749 0.11863947
vt 0.6599437 0.11863947
vt 0.73909765 0.07058439
vt 0.7248948 0.08376418
vt 0.7380294 0.09491284
vt 0.73909765 0.09641738
vt 0.7154162 0.09641738
vt 0.73909765 0.09641738
vt 0.7380294 0.09491284
vt 0.7248948 0.08376418
vt 0.82866305 0.06837271
vt 0.8311907 0.07583524
vt 0.86818737 0.06837271
vt 0.834275 0.09754579
vt 0.86818737 0.10664827
vt 0.8311907 0.10449678
vt 0.8311907 0.10664827
vt 0.8311907 0.10449678
vt 0.834275 0.09754579
vt 0.83176243 0.09831311
vt 0.82867813 0.10533932
vt 0.8311907 0.07583524
vt 0.82867813 0.075910464
vt 0.83176243 0.09831311
vt 0.834275 0.09754579
vt 0.2408083 0.038176548
vt 0.22251306 0.038176548
vt 0.22251306 0.07779114
vt 0.2483611 0.07779114
vt 0.24159066 0.023386898
vt 0.22251306 0.019851223
vt 0.22251306 0.038176548
vt 0.2408083 0.038176548
vt 0.2576291 0.026170302
vt 0.1962588 0.07779114
vt 0.22251306 0.07779114
vt 0.22251306 0.038176548
vt 0.1962588 0.038176548
vt 0.22251306 0.08836807
vt 0.25118965 0.08836807
vt 0.2483611 0.07779114
vt 0.22251306 0.07779114
vn -0.016617775 0.8475069 -0.5305242
vn -0.016617775 0.8475069 -0.5305242
vn -0.016617775 0.8475069 -0.5305242
vn 0.18279558 0.5913975 -0.7853883
vn 0.18279558 0.5913975 -0.7853883
vn 0.18279558 0.5913975 -0.7853883
vn 0.086999 0.99608946 -0.01539248
vn 0.086999 0.99608946 -0.01539248
vn 0.086999 0.99608946 -0.01539248
vn 0.46432042 0.85728204 0.22242765
vn 0.46432042 0.85728204 0.22242765
vn 0.46432042 0.85728204 0.22242765
vn -0.74193513 -0.0009775162 0.67047095
vn -0.74193513 -0.0009775162 0.67047095
vn -0.74193513 -0.0009775162 0.67047095
vn 0.9999995 0.0009775162 -0
vn 0.9999995 0.0009775162 -0
vn 0.9999995 0.0009775162 -0
vn 0.66373384 0.74193513 -0.09481399
vn 0.66373384 0.74193513 -0.09481399
vn 0.66373384 0.74193513 -0.09481399
vn -0.04594326 0.9980445 -0.04238425
vn -0.04594326 0.9980445 -0.04238425
vn -0.04594326 0.9980445 -0.04238425
vn -0.0009775162 0.99608946 -0.08834484
vn -0.0009775162 0.99608946 -0.08834484
vn -0.0009775162 0.99608946 -0.08834484
vn 0.17497545 0.98435926 -0.020504907
vn 0.17497545 0.98435926 -0.020504907
vn 0.17497545 0.98435926 -0.020504907
vn -0.0009775162 0.99608946 0.08834484
vn -0.0009775162 0.99608946 0.08834484
vn -0.0009775162 0.99608946 0.08834484
vn -0.1984359 0.9608989 0.1931231
vn -0.1984359 0.9608989 0.1931231
vn -0.1984359 0.9608989 0.1931231
vn -0.32355797 0.5542519 0.7668866
vn -0.32355797 0.5542519 0.7668866
vn -0.32355797 0.5542519 0.7668866
vn -0.65786874 0.22385132 -0.7190961
vn -0.65786874 0.22385132 -0.7190961
vn -0.65786874 0.22385132 -0.7190961
vn -0.8592371 -0.18084055 -0.47854817
vn -0.8592371 -0.18084055 -0.47854817
vn -0.8592371 -0.18084055 -0.47854817
vn -0.0009775162 0.0009775162 -0.99999905
vn -0.0009775162 0.0009775162 -0.99999905
vn -0.0009775162 0.0009775162 -0.99999905
vn -0.0009775162 0.0009775162 -0.99999905
vn -0.9999995 0.0009775162 -0
vn -0.9999995 0.0009775162 -0
vn -0.9999995 0.0009775162 -0
vn -0.9999995 0.0009775162 -0
vn 0.9999995 0.0009775162 -0
vn 0.9999995 0.0009775162 -0
vn 0.9999995 0.0009775162 -0
vn 0.9999995 0.0009775162 -0
vn -0.0009775162 0.0009775162 -0.99999905
vn -0.0009775162 0.0009775162 -0.99999905
vn -0.0009775162 0.0009775162 -0.99999905
vn -0.0009775162 0.0009775162 -0.99999905
vn -0.0009775162 0.9999995 -0
vn -0.0009775162 0.9999995 -0
vn -0.0009775162 0.9999995 -0
vn -0.0009775162 0.9999995 -0
vn -0.0009775162 0.9999995 -0
vn -0.0009775162 0.9999995 -0
vn -0.0009775162 0.9999995 -0
vn -0.0009775162 0.9999995 -0
vn -0.0009775162 0.9999995 -0
vn -0.0009775162 0.0009775162 0.99999905
vn -0.0009775162 0.0009775162 0.99999905
vn -0.0009775162 0.0009775162 0.99999905
vn -0.0009775162 0.0009775162 0.99999905
vn -0.0009775162 0.0009775162 -0.99999905
vn -0.0009775162 0.0009775162 -0.99999905
vn -0.0009775162 0.0009775162 -0.99999905
vn -0.0009775162 0.0009775162 -0.99999905
vn -0.9999995 0.0009775162 -0
vn -0.9999995 0.0009775162 -0
vn -0.9999995 0.0009775162 -0
vn -0.9999995 0.0009775162 -0
vn -0.006842613 0.0009775162 0.9999761
vn -0.006842613 0.0009775162 0.9999761
vn -0.006842613 0.0009775162 0.9999761
vn -0.006842613 0.0009775162 0.9999761
vn 0.024437904 0.0009775162 0.99970084
vn 0.024437904 0.0009775162 0.99970084
vn 0.024437904 0.0009775162 0.99970084
vn 0.024437904 0.0009775162 0.99970084
vn 0.6480935 0.76148546 -0.010708844
vn 0.6480935 0.76148546 -0.010708844
vn 0.6480935 0.76148546 -0.010708844
vn 0.6480935 0.76148546 -0.010708844
vn 0.47996068 0.8357767 -0.2666741
vn 0.47996068 0.8357767 -0.2666741
vn 0.47996068 0.8357767 -0.2666741
vn 0.47996068 0.8357767 -0.2666741
vn -0.9999995 0.0009775162 -0
vn -0.9999995 0.0009775162 -0
vn -0.9999995 0.0009775162 -0
vn -0.9999995 0.0009775162 -0
vn -0.9999995 0.0009775162 -0
vn -0.9999995 0.0009775162 -0
vn -0.9999995 0.0009775162 -0
vn -0.075268745 0.81622636 -0.57280815
vn -0.075268745 0.81622636 -0.57280815
vn -0.075268745 0.81622636 -0.57280815
vn -0.075268745 0.81622636 -0.57280815
vn -0.44868016 0.87683237 0.17277482
vn -0.44868016 0.87683237 0.17277482
vn -0.44868016 0.87683237 0.17277482
vn -0.44868016 0.87683237 0.17277482
vn -0.006842613 0.9393935 -0.34277248
vn -0.006842613 0.9393935 -0.34277248
vn -0.006842613 0.9393935 -0.34277248
vn -0.006842613 0.9393935 -0.34277248
vn 0.5112412 -0.29032242 -0.80891615
vn 0.5112412 -0.29032242 -0.80891615
vn 0.5112412 -0.29032242 -0.80891615
vn 0.5112412 -0.29032242 -0.80891615
vn 0.5112412 -0.29032242 -0.80891615
vn 0.8572821 0.16520035 0.48762307
vn 0.8572821 0.16520035 0.48762307
vn 0.8572821 0.16520035 0.48762307
vn 0.8572821 0.16520035 0.48762307
vn -0.5112412 0.29032242 0.80891615
vn -0.5112412 0.29032242 0.80891615
vn -0.5112412 0.29032242 0.80891615
vn -0.5112412 0.29032242 0.80891615
g fcbg_arkcity_building_29_0
f 3/3/3 2/2/2 1/1/1
f 6/6/6 5/5/5 4/4/4
f 9/9/9 8/8/8 7/7/7
f 12/12/12 11/11/11 10/10/10
f 15/15/15 14/14/14 13/13/13
f 18/18/18 17/17/17 16/16/16
f 21/21/21 20/20/20 19/19/19
f 24/24/24 23/23/23 22/22/22
f 27/27/27 26/26/26 25/25/25
f 30/30/30 29/29/29 28/28/28
f 33/33/33 32/32/32 31/31/31
f 36/36/36 35/35/35 34/34/34
f 39/39/39 38/38/38 37/37/37
f 42/42/42 41/41/41 40/40/40
f 45/45/45 44/44/44 43/43/43
f 48/48/48 47/47/47 46/46/46
f 49/49/49 48/48/48 46/46/46
f 52/52/52 51/51/51 50/50/50
f 53/53/53 52/52/52 50/50/50
f 56/56/56 55/55/55 54/54/54
f 57/57/57 56/56/56 54/54/54
f 60/60/60 59/59/59 58/58/58
f 61/61/61 60/60/60 58/58/58
f 64/64/64 63/63/63 62/62/62
f 63/63/63 65/65/65 62/62/62
f 62/62/62 65/65/65 66/66/66
f 65/65/65 67/67/67 66/66/66
f 66/66/66 67/67/67 68/68/68
f 67/67/67 69/69/69 68/68/68
f 68/68/68 69/69/69 70/70/70
f 73/73/73 72/72/72 71/71/71
f 74/74/74 73/73/73 71/71/71
f 77/77/77 76/76/76 75/75/75
f 78/78/78 77/77/77 75/75/75
f 81/81/81 80/80/80 79/79/79
f 82/82/82 81/81/81 79/79/79
f 85/85/85 84/84/84 83/83/83
f 86/86/86 85/85/85 83/83/83
f 89/89/89 88/88/88 87/87/87
f 90/90/90 89/89/89 87/87/87
f 93/93/93 92/92/92 91/91/91
f 94/94/94 93/93/93 91/91/91
f 97/97/97 96/96/96 95/95/95
f 98/98/98 97/97/97 95/95/95
f 101/101/101 100/100/100 99/99/99
f 102/102/102 100/100/100 101/101/101
f 103/103/103 102/102/102 101/101/101
f 104/104/104 102/102/102 103/103/103
f 105/105/105 104/104/104 103/103/103
f 108/108/108 107/107/107 106/106/106
f 109/109/109 108/108/108 106/106/106
f 112/112/112 111/111/111 110/110/110
f 113/113/113 112/112/112 110/110/110
f 116/116/116 115/115/115 114/114/114
f 117/117/117 116/116/116 114/114/114
f 120/120/120 119/119/119 118/118/118
f 121/121/121 120/120/120 118/118/118
f 122/122/122 121/121/121 118/118/118
f 125/125/125 124/124/124 123/123/123
f 126/126/126 125/125/125 123/123/123
f 129/129/129 128/128/128 127/127/127
f 130/130/130 129/129/129 127/127/127
