g fcbg_cityforest_005_trashcan_03
v -0.41123027 1.0116771 -0.049036328
v 0.33993745 1.0116771 0.49036604
v -0.41123042 1.0116771 0.49036592
v 0.3399376 1.0116771 -0.049036212
v 0.6044886 0.7627167 -0.04903617
v -0.618717 0.7627167 -0.049036358
v -0.618717 1.7588002E-14 -0.049036358
v 0.6044886 -1.7177601E-14 -0.04903617
v -0.6187171 0.7627167 0.4903659
v -0.6187171 1.7554976E-14 0.4903659
v -0.41123042 1.0116771 0.49036592
v -0.41123027 1.0116771 -0.049036328
v 0.60448855 -1.7210629E-14 0.49036607
v -0.6187171 1.7554976E-14 0.4903659
v -0.6187171 0.7627167 0.4903659
v 0.60448855 0.7627167 0.49036607
v -0.41123042 1.0116771 0.49036592
v 0.33993745 1.0116771 0.49036604
v 0.60448855 -1.7210629E-14 0.49036607
v 0.6044886 0.7627167 -0.04903617
v 0.6044886 -1.7177601E-14 -0.04903617
v 0.60448855 0.7627167 0.49036607
v 0.3399376 1.0116771 -0.049036212
v 0.33993745 1.0116771 0.49036604
v 0.056524195 1.0025023 0.060183324
v 0.056524184 1.1394448 0.060183324
v -0.37594336 1.1394448 0.06018326
v -0.3759434 1.0025023 0.06018326
v -0.37594345 1.1394448 0.38114643
v -0.37594345 1.0025023 0.38114643
v -0.37594345 1.0025023 0.38114643
v -0.37594345 1.1394448 0.38114643
v 0.056524094 1.1394448 0.3811465
v 0.056524105 1.0025023 0.3811465
v 0.056524184 1.1394448 0.060183324
v 0.056524195 1.0025023 0.060183324
v -0.37594336 1.1394448 0.06018326
v -0.53621113 1.1654172 0.42586032
v -0.37594345 1.1394448 0.38114643
v -0.5362111 1.1654172 0.015469261
v 0.056524184 1.1394448 0.060183324
v -0.5362111 1.6258092 0.42586032
v 0.2167882 1.1654172 0.015469375
v -0.536211 1.6258092 0.015469261
v 0.21678816 1.6258092 0.015469375
v -0.5362111 1.6258092 0.42586032
v 0.21678802 1.6258092 0.42586043
v -0.37594345 1.1394448 0.38114643
v 0.21678807 1.1654172 0.42586043
v 0.056524094 1.1394448 0.3811465
v -0.53621113 1.1654172 0.42586032
v 0.21678802 1.6258092 0.42586043
v -0.5362111 1.6258092 0.42586032
v 0.056524094 1.1394448 0.3811465
v 0.2167882 1.1654172 0.015469375
v 0.056524184 1.1394448 0.060183324
v 0.21678807 1.1654172 0.42586043
v 0.21678816 1.6258092 0.015469375
v 0.21678802 1.6258092 0.42586043
vt 0.9574507 0.38591468
vt 0.9412254 0.35327306
vt 0.94122547 0.38591468
vt 0.9574507 0.35327303
vt 0.9672846 0.3417772
vt 0.9672846 0.39508575
vt 0.9977672 0.39508578
vt 0.99776715 0.34177715
vt 0.9672846 0.41735274
vt 0.9977672 0.41735274
vt 0.95363647 0.41735268
vt 0.95363647 0.39508584
vt 0.99776715 0.34177715
vt 0.9977672 0.39508578
vt 0.9672846 0.39508575
vt 0.9672846 0.3417772
vt 0.9574507 0.38591468
vt 0.9574507 0.35327303
vt 0.9977672 0.41735274
vt 0.9672846 0.39508575
vt 0.9977672 0.39508578
vt 0.9672846 0.41735274
vt 0.95363647 0.39508584
vt 0.95363647 0.41735268
vt 0.58875173 0.9850666
vt 0.58875173 0.99200886
vt 0.6094212 0.99200886
vt 0.6094212 0.9850666
vt 0.6241352 0.99200886
vt 0.6241352 0.9850666
vt 0.58875173 0.9850666
vt 0.58875173 0.99200886
vt 0.6094212 0.99200886
vt 0.6094212 0.9850666
vt 0.6241352 0.99200886
vt 0.6241352 0.9850666
vt 0.58421063 0.95277476
vt 0.60715973 0.9577683
vt 0.60715973 0.95277476
vt 0.58421063 0.9577683
vt 0.5485295 0.95277476
vt 0.60715973 0.980031
vt 0.5485295 0.9577683
vt 0.58421063 0.980031
vt 0.5485295 0.980031
vt 0.58421063 0.99699235
vt 0.5485295 0.99699235
vt 0.58421063 0.95277476
vt 0.5485295 0.9577683
vt 0.5485295 0.95277476
vt 0.58421063 0.9577683
vt 0.5485295 0.980031
vt 0.58421063 0.980031
vt 0.60715973 0.95277476
vt 0.58421063 0.9577683
vt 0.58421063 0.95277476
vt 0.60715973 0.9577683
vt 0.58421063 0.980031
vt 0.60715973 0.980031
vn -0.3317861 0.7084203 -0.6229435
vn 0.2854316 0.7197987 0.63278633
vn -0.33178633 0.70842034 0.6229434
vn 0.28543183 0.7197987 -0.6327862
vn 0.71454006 0.3087577 -0.62777483
vn -0.7241112 0.26218352 -0.637905
vn -0.7071067 0 -0.7071068
vn 0.7071069 0 -0.70710665
vn -0.7241113 0.26218352 0.6379048
vn -0.7071069 0 0.70710665
vn -0.33178633 0.70842034 0.6229434
vn -0.3317861 0.7084203 -0.6229435
vn 0.7071067 0 0.7071068
vn -0.7071069 0 0.70710665
vn -0.7241113 0.26218352 0.6379048
vn 0.71453995 0.3087577 0.627775
vn -0.33178633 0.70842034 0.6229434
vn 0.2854316 0.7197987 0.63278633
vn 0.7071067 0 0.7071068
vn 0.71454006 0.3087577 -0.62777483
vn 0.7071069 0 -0.70710665
vn 0.71453995 0.3087577 0.627775
vn 0.28543183 0.7197987 -0.6327862
vn 0.2854316 0.7197987 0.63278633
vn 0.70710695 0 -0.70710653
vn 0.3371618 -0.7705668 -0.54087764
vn -0.33716026 -0.770567 -0.5408784
vn -0.70710665 0 -0.7071068
vn -0.33716047 -0.77056694 0.5408784
vn -0.7071069 0 0.7071066
vn -0.7071069 0 0.7071066
vn -0.33716047 -0.77056694 0.5408784
vn 0.33716163 -0.77056664 0.540878
vn 0.70710665 0 0.7071069
vn 0.3371618 -0.7705668 -0.54087764
vn 0.70710695 0 -0.70710653
vn -0.33716026 -0.770567 -0.5408784
vn -0.60779023 -0.53129214 0.5901861
vn -0.33716047 -0.77056694 0.5408784
vn -0.60779005 -0.53129214 -0.59018636
vn 0.3371618 -0.7705668 -0.54087764
vn -0.5773503 0.5773503 0.57735014
vn 0.60779065 -0.53129137 -0.5901864
vn -0.57735014 0.5773503 -0.5773503
vn 0.5773504 0.57735026 -0.57735014
vn -0.5773503 0.5773503 0.57735014
vn 0.57735014 0.5773503 0.5773504
vn -0.33716047 -0.77056694 0.5408784
vn 0.6077904 -0.53129125 0.59018666
vn 0.33716163 -0.77056664 0.540878
vn -0.60779023 -0.53129214 0.5901861
vn 0.57735014 0.5773503 0.5773504
vn -0.5773503 0.5773503 0.57735014
vn 0.33716163 -0.77056664 0.540878
vn 0.60779065 -0.53129137 -0.5901864
vn 0.3371618 -0.7705668 -0.54087764
vn 0.6077904 -0.53129125 0.59018666
vn 0.5773504 0.57735026 -0.57735014
vn 0.57735014 0.5773503 0.5773504
g fcbg_cityforest_005_trashcan_03_0
f 3/3/3 2/2/2 1/1/1
f 2/2/2 4/4/4 1/1/1
f 4/4/4 5/5/5 1/1/1
f 5/5/5 6/6/6 1/1/1
f 6/6/6 5/5/5 7/7/7
f 5/5/5 8/8/8 7/7/7
f 9/9/9 6/6/6 7/7/7
f 10/10/10 9/9/9 7/7/7
f 9/9/9 11/11/11 6/6/6
f 11/11/11 12/12/12 6/6/6
f 15/15/15 14/14/14 13/13/13
f 16/16/16 15/15/15 13/13/13
f 17/17/17 15/15/15 16/16/16
f 18/18/18 17/17/17 16/16/16
f 21/21/21 20/20/20 19/19/19
f 20/20/20 22/22/22 19/19/19
f 20/20/20 23/23/23 22/22/22
f 23/23/23 24/24/24 22/22/22
f 27/27/27 26/26/26 25/25/25
f 28/28/28 27/27/27 25/25/25
f 29/29/29 27/27/27 28/28/28
f 30/30/30 29/29/29 28/28/28
f 33/33/33 32/32/32 31/31/31
f 34/34/34 33/33/33 31/31/31
f 35/35/35 33/33/33 34/34/34
f 36/36/36 35/35/35 34/34/34
f 39/39/39 38/38/38 37/37/37
f 38/38/38 40/40/40 37/37/37
f 37/37/37 40/40/40 41/41/41
f 38/38/38 42/42/42 40/40/40
f 40/40/40 43/43/43 41/41/41
f 42/42/42 44/44/44 40/40/40
f 40/40/40 44/44/44 43/43/43
f 44/44/44 45/45/45 43/43/43
f 45/45/45 44/44/44 46/46/46
f 47/47/47 45/45/45 46/46/46
f 50/50/50 49/49/49 48/48/48
f 49/49/49 51/51/51 48/48/48
f 49/49/49 52/52/52 51/51/51
f 52/52/52 53/53/53 51/51/51
f 56/56/56 55/55/55 54/54/54
f 55/55/55 57/57/57 54/54/54
f 55/55/55 58/58/58 57/57/57
f 58/58/58 59/59/59 57/57/57
