g fcbg_arkcity_MMR_Lotus_leaves_02
v -1.1666253 0.012944818 -0.0037616491
v -1.1752291 0.0021737814 0.23517656
v -1.2151074 0.0008864403 0.0629884
v -0.7939637 0.082615614 0.1227355
v -1.0391581 0.026957631 0.3373947
v -0.88613915 0.055022836 0.3041587
v -0.7609329 0.09297919 -0.11995292
v -1.1953936 0.013489366 -0.07215583
v -0.9568629 0.035027742 -0.48815036
v -0.43524265 0.061152935 0.021819115
v -0.6918032 0.084887385 0.3279941
v -0.5901835 0.087804556 -0.31823027
v -0.9953456 0.025190711 0.48569727
v -0.82838964 0.019078612 -0.6186105
v -0.85007954 0.008181334 0.7188153
v -0.5254097 0.0134785175 -0.72819924
v -0.6642897 0.004247308 0.77781606
v -0.4094348 0.084447384 -0.3561722
v -0.17975664 0.08865559 -0.2752111
v -0.43773437 0.033884645 -0.5195222
v -0.37591362 0.013099909 -0.75167036
v -0.16928124 0.025028348 -0.72949016
v 0.010742784 0.0342741 -0.57973814
v 0.13745987 0.029492617 -0.5789882
v 0.2243923 0.027696848 -0.43523288
v 0.11219287 0.032965183 -0.26560485
v -0.4578879 0.07947123 0.4133904
v -0.5200548 0.00980401 0.63579893
v -0.4604373 -0.011427879 0.82026553
v -0.23969483 -0.0064840317 0.75441694
v -0.052794337 0.093786836 -0.08177662
v 0.27325666 0.022244573 -0.28217065
v 0.34822464 0.00812006 -0.0026762486
v -0.27708507 0.083019495 0.36800933
v -0.11739159 0.008430123 0.6440458
v 0.09287572 0.025609016 0.55620456
v -0.09559703 0.09481454 0.168607
v 0.2550466 0.031760693 0.3378961
v 0.12431967 -0.085562825 -1.5157411
v 0.14715266 -0.085562825 -1.6009609
v 0.3147577 -0.03884399 -1.4698265
v 0.28448927 -0.085562825 -1.7382939
v 0.46052516 -0.03884399 -1.6373811
v 0.34689045 -0.07296717 -1.726012
v 0.35915792 -0.085562825 -1.8129625
v 0.6487527 -0.08375621 -1.3113589
v 0.2722975 -0.03884399 -1.3113589
v 0.39163315 -0.03884399 -1.0542321
v 0.11514616 -0.085562825 -1.4815061
v 0.069556 -0.085562825 -1.3113589
v 0.14715266 -0.085562825 -1.0217605
v 0.22985542 -0.07773793 -0.9854449
v 0.29539728 -0.07941103 -0.90999734
v 0.34730875 -0.085562825 -0.8216044
v 0.5937834 -0.085562825 -0.7468889
v 0.6487527 -0.03884399 -1.6878176
v 0.6487527 -0.085562825 -1.8905592
v 0.6487527 -0.03884399 -0.9349001
v 0.6487527 -0.07303572 -0.78653646
v 0.8614719 -0.050130606 -1.679798
v 0.8767108 -0.08411324 -1.823189
v 0.7176013 -0.05989921 -0.861984
v 0.7272581 -0.085562825 -0.7531922
v 0.67642486 -0.085562825 -0.7395724
v 0.90588295 -0.03884399 -1.0542321
v 0.9947014 -0.085562825 -0.8660984
v 0.75552154 -0.085562825 -0.7607683
v 1.0704554 -0.07936776 -0.9785863
v 1.1487372 -0.085562825 -1.0201414
v 1.025215 -0.03884399 -1.3113589
v 1.2122996 -0.08483446 -1.3103961
v 1.1472119 -0.07919109 -1.5094416
v 0.9747785 -0.03884399 -1.4995865
v 1.1503563 -0.085562825 -1.6009609
v 0.94222385 -0.081614256 -1.7856834
v 0.63823044 -0.050184727 1.1880808
v 0.77602506 -0.050184727 1.3258753
v 0.58295465 -0.05867672 1.4790385
v 0.53781164 -0.05867672 1.3620107
v 0.44999933 -0.116458654 1.5141029
v 0.44999933 -0.050184727 1.137644
v 0.44999933 -0.05867672 1.3384817
v 0.26177168 -0.050184727 1.1880808
v 0.330047 -0.05867672 1.3941505
v 0.123977184 -0.050184727 1.3258753
v 0.27437818 -0.05867672 1.5141029
v 0.073544145 -0.050184727 1.5141029
v 0.123977184 -0.050184727 1.7023342
v 0.330047 -0.05867672 1.6340551
v 0.26177168 -0.050184727 1.8401251
v 0.44999933 -0.050184727 1.8905616
v 0.44999933 -0.05867672 1.689724
v 0.63823044 -0.050184727 1.8401251
v 0.5699552 -0.05867672 1.6340551
v 0.77602506 -0.050184727 1.7023342
v 0.81698155 -0.050184727 1.5093358
vt 0.8250122 0.7605896
vt 0.82403564 0.7709961
vt 0.8267822 0.76379395
vt 0.80792236 0.763855
vt 0.81744385 0.77459717
vt 0.8109131 0.7722473
vt 0.8078613 0.7531433
vt 0.82662964 0.7578125
vt 0.81866455 0.73828125
vt 0.7929077 0.7573242
vt 0.8022461 0.7720947
vt 0.80163574 0.74349976
vt 0.8146057 0.78082275
vt 0.8140259 0.7318115
vt 0.80703735 0.79016113
vt 0.8017273 0.72506714
vt 0.79867554 0.791687
vt 0.79403687 0.74069214
vt 0.7835388 0.7429199
vt 0.7961731 0.73339844
vt 0.7944031 0.7229309
vt 0.7853699 0.72302246
vt 0.7758789 0.72732544
vt 0.7713318 0.7279358
vt 0.76675415 0.7336426
vt 0.77056885 0.7416382
vt 0.791626 0.77456665
vt 0.7929077 0.78497314
vt 0.789093 0.792572
vt 0.77996826 0.7883606
vt 0.776947 0.7506714
vt 0.76364136 0.74017334
vt 0.758728 0.7518616
vt 0.7840271 0.7714844
vt 0.7753296 0.7828064
vt 0.76678467 0.7775574
vt 0.77734375 0.76174927
vt 0.76104736 0.7671509
vt 0.1234436 0.8437195
vt 0.11911011 0.8450012
vt 0.12609863 0.85375977
vt 0.111968994 0.8520813
vt 0.117370605 0.8613281
vt 0.112701416 0.8553467
vt 0.10809326 0.85601807
vt 0.13421631 0.8711548
vt 0.1343689 0.8516846
vt 0.14764404 0.8579407
vt 0.1257019 0.84310913
vt 0.13458252 0.8409729
vt 0.14950562 0.8451538
vt 0.1513977 0.84942627
vt 0.15527344 0.8529053
vt 0.15988159 0.8555908
vt 0.16369629 0.86846924
vt 0.114746094 0.87106323
vt 0.104034424 0.87094116
vt 0.15374756 0.8713074
vt 0.16156006 0.8713074
vt 0.11505127 0.8821106
vt 0.10739136 0.882843
vt 0.15762329 0.8748779
vt 0.16339111 0.8753357
vt 0.1640625 0.8727417
vt 0.14749146 0.8845825
vt 0.15731812 0.8894043
vt 0.16299438 0.87701416
vt 0.1513977 0.89331055
vt 0.14920044 0.89733887
vt 0.13412476 0.8906555
vt 0.13412476 0.90060425
vt 0.12374878 0.89712524
vt 0.12435913 0.8880005
vt 0.119018555 0.8972168
vt 0.109436035 0.8864746
vt 0.10620117 0.8235779
vt 0.11239624 0.8335571
vt 0.124053955 0.82437134
vt 0.11782837 0.82003784
vt 0.12799072 0.81677246
vt 0.10574341 0.8117981
vt 0.11764526 0.81448364
vt 0.111328125 0.8013916
vt 0.122528076 0.8081665
vt 0.12124634 0.795105
vt 0.13034058 0.80648804
vt 0.1329956 0.7946472
vt 0.1434021 0.80010986
vt 0.13665771 0.81137085
vt 0.1496582 0.8100586
vt 0.150177 0.82177734
vt 0.13833618 0.8191223
vt 0.14471436 0.8322449
vt 0.13339233 0.8255005
vt 0.13476562 0.838562
vt 0.12289429 0.838562
vn -0.18383583 0.9819534 0.044406757
vn -0.19703779 0.9795531 0.04064263
vn -0.19223708 0.9807532 0.034177072
vn -0.084221154 0.99635553 0.013507399
vn -0.19223708 0.9807532 0.034177072
vn -0.16223267 0.9843538 0.06876189
vn -0.06141779 0.99755573 -0.033323184
vn -0.17778361 0.9840695 -0
vn -0.11182523 0.98675406 -0.11752246
vn -0.0050094873 0.999956 0.007929874
vn -0.047015667 0.99635553 0.071169816
vn -0.012210548 0.99755573 -0.06880046
vn -0.12862772 0.9843538 0.12042643
vn -0.054216743 0.9819534 -0.18118525
vn -0.067418694 0.9843538 0.16279548
vn 0.011792988 0.9795531 -0.2008399
vn 0.016593695 0.9783529 0.20627701
vn -0.0050094873 0.99635553 -0.085150145
vn 0.038196877 0.99755573 -0.058511294
vn 0.12340943 0.94114745 -0.3146611
vn -0.084221154 0.9795531 -0.18270887
vn 0.011792988 0.98795426 -0.1542963
vn 0.04899846 0.98795426 -0.14678395
vn 0.09340501 0.99155486 -0.08996905
vn 0.14261225 0.98915446 -0.035146076
vn 0.1198089 0.985554 -0.11970462
vn 0.0033917427 0.99395514 0.109734625
vn 0.011792988 0.9531492 0.30227065
vn -0.029013038 0.9759525 0.2160439
vn 0.053799167 0.9747523 0.2167108
vn 0.08500376 0.99515533 -0.049398523
vn 0.16541561 0.9831536 -0.07776061
vn 0.20022073 0.9795531 -0.019681733
vn 0.00819245 0.99395514 0.10948094
vn 0.06940147 0.9771527 0.20088798
vn 0.08500376 0.9843538 0.1543438
vn 0.045397937 0.99755573 0.053118963
vn 0.15341385 0.98675406 0.052731548
vn -0.22464186 0.972352 -0.06377727
vn -0.19103691 0.9759525 -0.10498387
vn -0.06261799 0.99755573 -0.031008743
vn -0.16343284 0.9747523 -0.1521435
vn -0.04221496 0.99635553 -0.074118294
vn -0.164633 0.972352 -0.16561249
vn -0.09502277 0.9747523 -0.20206085
vn 0.0033917427 0.999956 -0.00874487
vn -0.083020985 0.99635553 0.019573929
vn -0.05541691 0.99635553 0.064843126
vn -0.22464186 0.972352 -0.06377727
vn -0.21143991 0.9771527 0.021581259
vn -0.19103691 0.9771527 0.09315301
vn -0.164633 0.972352 0.16561249
vn -0.164633 0.972352 0.16561249
vn -0.10342398 0.9771527 0.18567725
vn -0.0722194 0.9759525 0.20567222
vn 0.016593695 0.99755573 -0.06787636
vn -0.00020878017 0.9747523 -0.22328873
vn 0.0021915734 0.99635553 0.08526906
vn 0.004591927 0.9747523 0.22324161
vn 0.058599874 0.99395514 -0.09283991
vn 0.05980006 0.972352 -0.22573319
vn 0.07900289 0.9747523 0.20884557
vn 0.05980006 0.972352 0.22573319
vn 0.05980006 0.972352 0.22573319
vn 0.057399705 0.99635553 0.063094646
vn 0.12220925 0.9747523 0.18687654
vn 0.09340501 0.972352 0.2140257
vn 0.16421545 0.972352 0.16602658
vn 0.19421986 0.9759525 0.09897155
vn 0.087388225 0.99617434 -0
vn 0.22182393 0.9747523 0.025535755
vn 0.2278248 0.972352 -0.051257905
vn 0.052598998 0.99755573 -0.045998972
vn 0.1918195 0.9747523 -0.11429432
vn 0.16421545 0.972352 -0.16602658
vn -0.021811962 0.99875593 0.044842195
vn -0.032613546 0.99875593 0.0377219
vn -0.21023974 0.9771527 0.031173613
vn -0.08662152 0.99035466 0.10814052
vn -0.025405416 0.99967724 -0
vn 0.0009913892 0.99875593 0.049856123
vn 0.010592803 0.98915446 0.14649658
vn 0.021394402 0.99875593 0.04504312
vn 0.10660695 0.98795426 0.11216661
vn 0.035796523 0.99875593 0.034716077
vn 0.14017956 0.99012613 -0
vn 0.039397046 0.99875593 -0.030569293
vn 0.035796523 0.99875593 -0.034716077
vn 0.10660695 0.98795426 -0.11216661
vn 0.021394402 0.99875593 -0.04504312
vn -0.00020878017 0.99875593 -0.04986509
vn -0.00020878017 0.99035466 -0.13855535
vn -0.020611793 0.99875593 -0.04540622
vn -0.10582435 0.99035466 -0.08943614
vn -0.035013914 0.99875593 -0.035505466
vn -0.037414253 0.99875593 -0.03296622
g fcbg_arkcity_MMR_Lotus_leaves_02_0
f 3/3/3 2/2/2 1/1/1
f 2/2/2 4/4/4 1/1/1
f 2/2/2 5/5/5 4/4/4
f 4/4/4 5/5/5 6/6/6
f 4/4/4 7/7/7 1/1/1
f 1/1/1 7/7/7 8/8/8
f 7/7/7 9/9/9 8/8/8
f 10/10/10 7/7/7 4/4/4
f 4/4/4 11/11/11 10/10/10
f 11/11/11 4/4/4 6/6/6
f 12/12/12 7/7/7 10/10/10
f 7/7/7 12/12/12 9/9/9
f 13/13/13 11/11/11 6/6/6
f 12/12/12 14/14/14 9/9/9
f 11/11/11 13/13/13 15/15/15
f 12/12/12 16/16/16 14/14/14
f 11/11/11 15/15/15 17/17/17
f 12/12/12 18/18/18 16/16/16
f 10/10/10 18/18/18 12/12/12
f 19/19/19 18/18/18 10/10/10
f 18/18/18 20/20/20 16/16/16
f 20/20/20 18/18/18 21/21/21
f 18/18/18 22/22/22 21/21/21
f 19/19/19 22/22/22 18/18/18
f 19/19/19 23/23/23 22/22/22
f 23/23/23 19/19/19 24/24/24
f 19/19/19 25/25/25 24/24/24
f 25/25/25 19/19/19 26/26/26
f 27/27/27 11/11/11 17/17/17
f 10/10/10 11/11/11 27/27/27
f 28/28/28 27/27/27 17/17/17
f 27/27/27 28/28/28 29/29/29
f 27/27/27 29/29/29 30/30/30
f 19/19/19 31/31/31 26/26/26
f 31/31/31 19/19/19 10/10/10
f 31/31/31 32/32/32 26/26/26
f 31/31/31 33/33/33 32/32/32
f 34/34/34 27/27/27 30/30/30
f 10/10/10 27/27/27 34/34/34
f 34/34/34 30/30/30 35/35/35
f 34/34/34 35/35/35 36/36/36
f 31/31/31 37/37/37 33/33/33
f 37/37/37 31/31/31 10/10/10
f 34/34/34 37/37/37 10/10/10
f 37/37/37 34/34/34 36/36/36
f 38/38/38 33/33/33 37/37/37
f 37/37/37 36/36/36 38/38/38
f 41/41/41 40/40/40 39/39/39
f 40/40/40 41/41/41 42/42/42
f 41/41/41 43/43/43 42/42/42
f 42/42/42 43/43/43 44/44/44
f 44/44/44 43/43/43 45/45/45
f 46/46/46 43/43/43 41/41/41
f 47/47/47 46/46/46 41/41/41
f 46/46/46 47/47/47 48/48/48
f 47/47/47 41/41/41 49/49/49
f 50/50/50 47/47/47 49/49/49
f 47/47/47 50/50/50 51/51/51
f 48/48/48 47/47/47 51/51/51
f 51/51/51 52/52/52 48/48/48
f 52/52/52 53/53/53 48/48/48
f 48/48/48 53/53/53 54/54/54
f 48/48/48 54/54/54 55/55/55
f 43/43/43 56/56/56 45/45/45
f 46/46/46 56/56/56 43/43/43
f 56/56/56 57/57/57 45/45/45
f 58/58/58 48/48/48 55/55/55
f 46/46/46 48/48/48 58/58/58
f 59/59/59 58/58/58 55/55/55
f 56/56/56 60/60/60 57/57/57
f 60/60/60 56/56/56 46/46/46
f 60/60/60 61/61/61 57/57/57
f 58/58/58 59/59/59 62/62/62
f 62/62/62 59/59/59 63/63/63
f 59/59/59 64/64/64 63/63/63
f 65/65/65 58/58/58 62/62/62
f 46/46/46 58/58/58 65/65/65
f 65/65/65 62/62/62 66/66/66
f 62/62/62 67/67/67 66/66/66
f 66/66/66 68/68/68 65/65/65
f 65/65/65 68/68/68 69/69/69
f 70/70/70 65/65/65 69/69/69
f 65/65/65 70/70/70 46/46/46
f 71/71/71 70/70/70 69/69/69
f 71/71/71 72/72/72 70/70/70
f 46/46/46 70/70/70 73/73/73
f 70/70/70 72/72/72 73/73/73
f 73/73/73 60/60/60 46/46/46
f 73/73/73 72/72/72 74/74/74
f 60/60/60 73/73/73 74/74/74
f 60/60/60 74/74/74 75/75/75
f 78/78/78 77/77/77 76/76/76
f 79/79/79 78/78/78 76/76/76
f 80/80/80 78/78/78 79/79/79
f 79/79/79 76/76/76 81/81/81
f 82/82/82 79/79/79 81/81/81
f 80/80/80 79/79/79 82/82/82
f 82/82/82 81/81/81 83/83/83
f 84/84/84 82/82/82 83/83/83
f 80/80/80 82/82/82 84/84/84
f 84/84/84 83/83/83 85/85/85
f 84/84/84 85/85/85 86/86/86
f 80/80/80 84/84/84 86/86/86
f 85/85/85 87/87/87 86/86/86
f 86/86/86 87/87/87 88/88/88
f 89/89/89 86/86/86 88/88/88
f 80/80/80 86/86/86 89/89/89
f 89/89/89 88/88/88 90/90/90
f 89/89/89 90/90/90 91/91/91
f 92/92/92 89/89/89 91/91/91
f 80/80/80 89/89/89 92/92/92
f 92/92/92 91/91/91 93/93/93
f 80/80/80 92/92/92 94/94/94
f 94/94/94 92/92/92 93/93/93
f 80/80/80 94/94/94 78/78/78
f 94/94/94 93/93/93 95/95/95
f 94/94/94 95/95/95 78/78/78
f 95/95/95 96/96/96 78/78/78
