g fcbg_cityforest_006_iron_unit_02
v -0.29303718 -0.012047267 -1.1518886
v -0.2930367 11.313459 1.1518911
v -0.29303718 11.313459 -1.1518868
v -0.2930367 -0.012047643 1.1518893
v -2.3274615 11.313459 1.1518911
v -2.3274615 -0.012047643 1.1518893
v -2.327462 -0.012047267 -1.1518886
v -0.29303718 -0.012047267 -1.1518886
v -0.29303718 11.313459 -1.1518868
v -2.327462 11.313459 -1.1518868
v -2.3274615 -0.012047643 1.1518893
v -2.327462 -0.012047267 -1.1518886
v -2.327462 11.313459 -1.1518868
v -2.3274615 11.313459 1.1518911
v 5.4148192 14.357576 -1.151886
v 6.859771 12.311755 -1.1518863
v 6.859771 12.311755 1.1518916
v 5.41482 14.357576 1.151892
v -6.8597693 14.357576 -1.1518865
v -6.8597684 14.357576 1.1518915
v 0.4636228 12.311755 1.1518915
v 6.859771 12.311755 1.1518916
v -3.084121 12.311755 1.1518912
v -5.832867 12.311755 1.1518912
v -0.2930367 11.313459 1.1518911
v -2.3274615 11.313459 1.1518911
v 0.46362233 12.311755 -1.1518865
v -0.29303718 11.313459 -1.1518868
v -5.832867 12.311755 1.1518912
v -5.832868 12.311755 -1.1518867
v -6.8597693 14.357576 -1.1518865
v -2.327462 11.313459 -1.1518868
v -3.0841215 12.311755 -1.1518867
v -3.084121 12.311755 1.1518912
v -2.3274615 11.313459 1.1518911
v 0.46362233 12.311755 -1.1518865
v 6.859771 12.311755 -1.1518863
v 5.4148192 14.357576 -1.151886
v -6.8597693 14.357576 -1.1518865
v -3.0841215 12.311755 -1.1518867
v -5.832868 12.311755 -1.1518867
v -0.29303718 11.313459 -1.1518868
v -2.327462 11.313459 -1.1518868
vt 0.123429336 0.9558791
vt 0.044116057 0.9416121
vt 0.044116057 0.9558791
vt 0.123429336 0.9416121
vt 0.044116057 0.9250859
vt 0.123429336 0.9250859
vt 0.123429336 0.9250859
vt 0.123429336 0.9416121
vt 0.044116057 0.9416121
vt 0.044116057 0.9250859
vt 0.123429336 0.9558791
vt 0.123429336 0.9416121
vt 0.044116057 0.9416121
vt 0.044116057 0.9558791
vt 0.0023813625 0.98727405
vt 0.018426456 0.9977373
vt 0.03589145 0.9977373
vt 0.020507254 0.98727214
vt 0.0023813625 0.88947093
vt 0.020507254 0.88947093
vt 0.03589145 0.9479836
vt 0.03589145 0.9977373
vt 0.03589145 0.91924894
vt 0.03589145 0.8976525
vt 0.044116057 0.9416121
vt 0.044116057 0.9250859
vt 0.039385594 0.95878017
vt 0.044116057 0.9558791
vt 0.03589145 0.8976525
vt 0.03589145 0.87494123
vt 0.020507254 0.8746966
vt 0.044116057 0.9416121
vt 0.03589145 0.9479836
vt 0.039385594 0.95878017
vt 0.044116057 0.9558791
vt 0.03589145 0.9479836
vt 0.03589145 0.9977373
vt 0.020507254 0.98727214
vt 0.020507254 0.88947093
vt 0.03589145 0.91924894
vt 0.03589145 0.8976525
vt 0.044116057 0.9416121
vt 0.044116057 0.9250859
vn 0.70710665 0 -0.7071068
vn 0.58560336 -0.19685195 0.786332
vn 0.5856033 -0.19685154 -0.7863322
vn 0.7071068 0 0.70710665
vn -0.5856032 -0.19685186 0.7863321
vn -0.70710665 0 0.7071068
vn -0.7071068 0 -0.70710665
vn 0.70710665 0 -0.7071068
vn 0.5856033 -0.19685154 -0.7863322
vn -0.58560336 -0.1968516 -0.7863321
vn -0.70710665 0 0.7071068
vn -0.7071068 0 -0.70710665
vn -0.58560336 -0.1968516 -0.7863321
vn -0.5856032 -0.19685186 0.7863321
vn 0.36204305 0.6989496 -0.61676115
vn 0.6977722 0.49283236 -0.51983666
vn 0.6977723 0.49283227 0.51983654
vn 0.36204323 0.6989495 0.61676115
vn -0.70695794 0.43616262 -0.5567519
vn -0.70695764 0.43616265 0.55675226
vn 0.2873284 -0.2177811 0.93274534
vn 0.6977723 0.49283227 0.51983654
vn -0.28732848 -0.21778108 0.9327452
vn -0.5459285 -0.27402925 0.7917512
vn 0.58560336 -0.19685195 0.786332
vn -0.5856032 -0.19685186 0.7863321
vn 0.2873286 -0.21778084 -0.93274534
vn 0.5856033 -0.19685154 -0.7863322
vn -0.5459285 -0.27402925 0.7917512
vn -0.5459287 -0.2740292 -0.7917511
vn -0.70695794 0.43616262 -0.5567519
vn -0.58560336 -0.1968516 -0.7863321
vn -0.28732845 -0.21778078 -0.93274534
vn -0.28732848 -0.21778108 0.9327452
vn -0.5856032 -0.19685186 0.7863321
vn 0.2873286 -0.21778084 -0.93274534
vn 0.6977722 0.49283236 -0.51983666
vn 0.36204305 0.6989496 -0.61676115
vn -0.70695794 0.43616262 -0.5567519
vn -0.28732845 -0.21778078 -0.93274534
vn -0.5459287 -0.2740292 -0.7917511
vn 0.5856033 -0.19685154 -0.7863322
vn -0.58560336 -0.1968516 -0.7863321
g fcbg_cityforest_006_iron_unit_02_0
f 3/3/3 2/2/2 1/1/1
f 2/2/2 4/4/4 1/1/1
f 2/2/2 5/5/5 4/4/4
f 5/5/5 6/6/6 4/4/4
f 9/9/9 8/8/8 7/7/7
f 10/10/10 9/9/9 7/7/7
f 13/13/13 12/12/12 11/11/11
f 14/14/14 13/13/13 11/11/11
f 17/17/17 16/16/16 15/15/15
f 18/18/18 17/17/17 15/15/15
f 15/15/15 19/19/19 18/18/18
f 19/19/19 20/20/20 18/18/18
f 18/18/18 20/20/20 21/21/21
f 21/21/21 22/22/22 18/18/18
f 20/20/20 23/23/23 21/21/21
f 20/20/20 24/24/24 23/23/23
f 21/21/21 23/23/23 25/25/25
f 23/23/23 26/26/26 25/25/25
f 27/27/27 21/21/21 25/25/25
f 28/28/28 27/27/27 25/25/25
f 30/30/30 29/29/29 20/20/20
f 31/31/31 30/30/30 20/20/20
f 34/34/34 33/33/33 32/32/32
f 35/35/35 34/34/34 32/32/32
f 38/38/38 37/37/37 36/36/36
f 38/38/38 36/36/36 39/39/39
f 36/36/36 40/40/40 39/39/39
f 40/40/40 41/41/41 39/39/39
f 40/40/40 36/36/36 42/42/42
f 43/43/43 40/40/40 42/42/42
