g fcbg_iceland_004_house_01
v -5.177038 11.807107 1.7712201
v -5.1770372 11.8071 3.5762787E-07
v -4.3487124 11.807107 1.7712202
v -0.77733433 11.807108 2.7166255
v -4.3487124 11.807108 2.7166243
v -0.7773343 11.807107 1.7712214
v -5.1770372 11.8071 3.5762787E-07
v -0.7773337 11.8071 -1.7712193
v -4.3487115 11.807094 -1.7712195
v -5.1770372 11.807094 -1.7712195
v -0.77733344 11.8070965 -2.7166243
v -4.3487115 11.8070965 -2.7166233
v 0.77733 11.8071 -1.7712193
v 0.7773294 11.807107 1.7712216
v -0.7773337 11.8071 -1.7712193
v -5.1770372 -1.0206193E-05 -2.3841858E-07
v -5.1770372 11.8071 3.5762787E-07
v -5.177038 11.807107 1.7712201
v -5.177038 -4.5918387E-06 1.7712183
v -5.1770372 11.807094 -1.7712195
v -5.1770372 11.8071 3.5762787E-07
v -5.1770372 -1.618654E-05 -1.7712188
v -4.3487115 11.807094 -1.7712195
v -4.348711 -1.618654E-05 -1.7712188
v -4.3487115 11.8070965 -2.7166233
v -4.348711 -1.57623E-05 -2.7166228
v -0.77733344 11.8070965 -2.7166243
v -0.7773325 -1.57623E-05 -2.7166238
v -0.7773337 11.8071 -1.7712193
v -0.7773325 -1.6186537E-05 -1.7712197
v 0.77733 11.8071 -1.7712193
v 0.7773312 -1.6186537E-05 -1.7712197
v -4.348712 -4.5918387E-06 1.7712184
v -4.3487124 11.807107 1.7712202
v -4.3487124 11.807108 2.7166243
v -4.348712 -4.72714E-06 2.7166224
v -0.7773343 11.807107 1.7712214
v -0.7773333 -4.5918387E-06 1.7712197
v -0.7773334 -4.72714E-06 2.7166238
v -0.77733433 11.807108 2.7166255
v 0.7773294 11.807107 1.7712216
v 4.348709 11.807108 2.7166264
v 0.7773293 11.807108 2.7166257
v 4.348709 11.807107 1.7712224
v 5.1770344 11.8071 8.34465E-07
v 5.1770344 11.807107 1.7712225
v 0.77733 11.8071 -1.7712193
v 4.34871 11.807094 -1.7712209
v 5.1770353 11.807094 -1.7712209
v 4.34871 11.8070965 -2.7166247
v 0.7773302 11.8070965 -2.7166243
v 4.348709 11.807107 1.7712224
v 4.348709 -4.5918387E-06 1.7712206
v 4.348709 -4.72714E-06 2.7166247
v 4.348709 11.807108 2.7166264
v 0.77733034 -4.5918387E-06 1.7712197
v 0.7773294 11.807107 1.7712216
v 0.7773293 11.807108 2.7166257
v 0.7773303 -4.72714E-06 2.7166238
v 5.1770344 -4.5918387E-06 1.7712207
v 5.1770344 11.807107 1.7712225
v 5.1770344 11.8071 8.34465E-07
v 5.1770344 -1.0206193E-05 2.3841858E-07
v 5.1770353 -1.6186537E-05 -1.7712202
v 5.1770344 11.8071 8.34465E-07
v 5.1770353 11.807094 -1.7712209
v 4.34871 -1.6186537E-05 -1.7712202
v 4.34871 11.807094 -1.7712209
v 4.34871 -1.57623E-05 -2.7166243
v 4.34871 11.8070965 -2.7166247
v 0.7773312 -1.57623E-05 -2.7166238
v 0.7773302 11.8070965 -2.7166243
v 0.7773312 -1.6186537E-05 -1.7712197
v 0.77733 11.8071 -1.7712193
v 5.0441446 5.755583 -3.4516098
v 3.0040157 3.0373383 -3.4516091
v 5.0441446 3.0373383 -3.4516096
v 3.0040147 5.755583 -3.4516094
v 3.0040145 5.7555866 -2.6954134
v 4.2679415 5.755583 -2.6954143
v 5.0441446 5.755583 -3.4516098
v 4.2679415 5.755583 -1.7250164
v 5.0441446 5.75558 -1.7250171
v 5.0441446 3.0373383 -3.4516096
v 5.0441446 3.0373373 -1.7250166
v 5.0441446 5.75558 -1.7250171
v 5.0441446 5.755583 -3.4516098
vt 0.0032318092 0.28773656
vt 0.0032318092 0.26451367
vt 0.014092181 0.28773656
vt 0.06091741 0.300132
vt 0.014092181 0.300132
vt 0.06091741 0.28773656
vt 0.0032318092 0.26451367
vt 0.06091741 0.24129078
vt 0.014092181 0.24129078
vt 0.0032318092 0.24129078
vt 0.06091741 0.22889532
vt 0.014092181 0.22889535
vt 0.081300974 0.24129078
vt 0.081300974 0.28773656
vt 0.06091741 0.24129078
vt 0.0013470647 0.001305446
vt 0.0013470647 0.22470693
vt 0.03471783 0.2247069
vt 0.03471783 0.001305446
vt 0.03471783 0.2247069
vt 0.0013470647 0.22470693
vt 0.03471783 0.001305446
vt 0.050208624 0.2247069
vt 0.050208624 0.001305446
vt 0.06797855 0.22470693
vt 0.06797855 0.001305446
vt 0.13510655 0.22470695
vt 0.13510655 0.001305446
vt 0.15287648 0.22470693
vt 0.15287648 0.001305446
vt 0.18207557 0.22470693
vt 0.18207557 0.001305446
vt 0.050208624 0.001305446
vt 0.050208624 0.2247069
vt 0.06797855 0.22470693
vt 0.06797855 0.001305446
vt 0.15287648 0.22470693
vt 0.15287648 0.001305446
vt 0.13510655 0.001305446
vt 0.13510655 0.22470695
vt 0.06091741 0.28773656
vt 0.014092151 0.300132
vt 0.06091741 0.300132
vt 0.014092151 0.28773656
vt 0.0032318372 0.26451364
vt 0.0032318372 0.28773656
vt 0.06091741 0.24129078
vt 0.014092151 0.24129075
vt 0.0032318372 0.24129075
vt 0.014092151 0.22889532
vt 0.06091741 0.22889532
vt 0.050208624 0.22470693
vt 0.050208624 0.001305446
vt 0.06797855 0.0013054758
vt 0.06797855 0.22470695
vt 0.15287648 0.001305446
vt 0.15287648 0.22470693
vt 0.13510655 0.22470695
vt 0.13510655 0.0013054758
vt 0.03471783 0.0013054758
vt 0.03471783 0.22470693
vt 0.0013470647 0.22470695
vt 0.0013470647 0.0013054758
vt 0.03471783 0.0013054758
vt 0.0013470647 0.22470695
vt 0.03471783 0.22470693
vt 0.050208624 0.001305446
vt 0.050208624 0.22470693
vt 0.06797855 0.0013054758
vt 0.06797855 0.22470695
vt 0.13510655 0.0013054758
vt 0.13510655 0.22470695
vt 0.15287648 0.001305446
vt 0.15287648 0.22470693
vt 0.11787361 0.27309892
vt 0.083810486 0.22771361
vt 0.11787361 0.22771361
vt 0.083810486 0.27309892
vt 0.083810456 0.2857248
vt 0.10491368 0.2857248
vt 0.11787361 0.27309892
vt 0.10491368 0.3019271
vt 0.1178736 0.30192706
vt 0.11787361 0.22771361
vt 0.14670177 0.22771358
vt 0.14670175 0.27309886
vt 0.11787361 0.27309892
vn -0 1 0
vn -0 1 0
vn -0 1 0
vn -0 1 0
vn -0 1 0
vn -0 1 0
vn -0.502289 0.86469984 0
vn 0.4082465 0.81649685 -0.40824956
vn -0.30151257 0.90453285 -0.30151376
vn -0.5773505 0.57734907 -0.57735133
vn 0.5773508 0.5773498 -0.5773502
vn -0.5773499 0.5773504 -0.57735056
vn -0 1 0
vn -0 1 0
vn -0 1 0
vn -1 0 0
vn -1 0 0
vn -1 0 0
vn -1 0 0
vn -0.5773505 0.57734907 -0.57735133
vn -0.502289 0.86469984 0
vn -0.707106 0 -0.7071075
vn -0.30151257 0.90453285 -0.30151376
vn -0.70710665 0 -0.7071069
vn -0.5773499 0.5773504 -0.57735056
vn -0.707107 0 -0.70710653
vn 0.5773508 0.5773498 -0.5773502
vn 0.7071069 0 -0.70710665
vn 0.4082465 0.81649685 -0.40824956
vn 0.7071067 0 -0.7071068
vn -0.40824652 0.81649673 -0.40824974
vn -0.7071066 0 -0.7071069
vn -1 0 0
vn -1 0 0
vn -1 0 0
vn -1 0 0
vn 1 0 0
vn 1 0 0
vn 1 0 0
vn 1 0 0
vn -0 1 0
vn -0 1 0
vn -0 1 0
vn -0 1 0
vn 0.44721314 0.8944275 0
vn -0 1 0
vn -0.40824652 0.81649673 -0.40824974
vn 0.30151254 0.90453285 -0.30151376
vn 0.5773506 0.577349 -0.5773512
vn 0.5773497 0.5773504 -0.57735074
vn -0.57735074 0.57734984 -0.57735014
vn 1 0 0
vn 1 0 0
vn 1 0 0
vn 1 0 0
vn -1 0 0
vn -1 0 0
vn -1 0 0
vn -1 0 0
vn 1 0 0
vn 1 0 0
vn 1 0 0
vn 1 0 0
vn 0.7071062 0 -0.7071073
vn 0.44721314 0.8944275 0
vn 0.5773506 0.577349 -0.5773512
vn 0.7071066 0 -0.70710695
vn 0.30151254 0.90453285 -0.30151376
vn 0.70710677 0 -0.7071067
vn 0.5773497 0.5773504 -0.57735074
vn -0.7071069 0 -0.70710665
vn -0.57735074 0.57734984 -0.57735014
vn -0.7071066 0 -0.7071069
vn -0.40824652 0.81649673 -0.40824974
vn -0 0.4412362 -0.89739096
vn -0 0 -1
vn -0 0 -1
vn -0 0.70710623 -0.70710725
vn -0 1 0
vn -0 1 0
vn -0 1 0
vn -0 1 0
vn -0 1 0
vn 1 0 0
vn 1 0 0
vn 1 0 0
vn 1 0 0
g fcbg_iceland_004_house_01_0
f 3/3/3 2/2/2 1/1/1
f 5/5/5 4/4/4 3/3/3
f 4/4/4 6/6/6 3/3/3
f 3/3/3 6/6/6 7/7/7
f 8/8/8 7/7/7 6/6/6
f 8/8/8 9/9/9 7/7/7
f 7/7/7 9/9/9 10/10/10
f 8/8/8 11/11/11 9/9/9
f 11/11/11 12/12/12 9/9/9
f 6/6/6 14/14/14 13/13/13
f 15/15/15 6/6/6 13/13/13
f 18/18/18 17/17/17 16/16/16
f 19/19/19 18/18/18 16/16/16
f 21/21/21 20/20/20 16/16/16
f 20/20/20 22/22/22 16/16/16
f 20/20/20 23/23/23 22/22/22
f 23/23/23 24/24/24 22/22/22
f 23/23/23 25/25/25 24/24/24
f 25/25/25 26/26/26 24/24/24
f 25/25/25 27/27/27 26/26/26
f 27/27/27 28/28/28 26/26/26
f 28/28/28 27/27/27 29/29/29
f 30/30/30 28/28/28 29/29/29
f 29/29/29 31/31/31 30/30/30
f 31/31/31 32/32/32 30/30/30
f 35/35/35 34/34/34 33/33/33
f 36/36/36 35/35/35 33/33/33
f 39/39/39 38/38/38 37/37/37
f 40/40/40 39/39/39 37/37/37
f 43/43/43 42/42/42 41/41/41
f 42/42/42 44/44/44 41/41/41
f 45/45/45 41/41/41 44/44/44
f 46/46/46 45/45/45 44/44/44
f 45/45/45 47/47/47 41/41/41
f 47/47/47 45/45/45 48/48/48
f 45/45/45 49/49/49 48/48/48
f 48/48/48 50/50/50 47/47/47
f 50/50/50 51/51/51 47/47/47
f 54/54/54 53/53/53 52/52/52
f 55/55/55 54/54/54 52/52/52
f 58/58/58 57/57/57 56/56/56
f 59/59/59 58/58/58 56/56/56
f 62/62/62 61/61/61 60/60/60
f 63/63/63 62/62/62 60/60/60
f 65/65/65 63/63/63 64/64/64
f 66/66/66 65/65/65 64/64/64
f 64/64/64 67/67/67 66/66/66
f 67/67/67 68/68/68 66/66/66
f 67/67/67 69/69/69 68/68/68
f 69/69/69 70/70/70 68/68/68
f 69/69/69 71/71/71 70/70/70
f 71/71/71 72/72/72 70/70/70
f 72/72/72 71/71/71 73/73/73
f 74/74/74 72/72/72 73/73/73
f 77/77/77 76/76/76 75/75/75
f 76/76/76 78/78/78 75/75/75
f 78/78/78 79/79/79 75/75/75
f 79/79/79 80/80/80 75/75/75
f 80/80/80 82/82/82 81/81/81
f 82/82/82 83/83/83 81/81/81
f 86/86/86 85/85/85 84/84/84
f 87/87/87 86/86/86 84/84/84
