g fcbg_cityforest_006_sign_01
v 0.43822092 2.2104142 0.2155204
v 0.4382209 2.190883 0.2961559
v 0.43822092 2.0660982 0.24320018
v 0.5169602 0.5363757 -0.34289393
v -0.51692206 2.1697655 0.22112754
v 0.5169601 2.1697655 0.22112769
v -0.51692194 0.5363757 -0.34289408
v -0.516922 2.1945477 0.14935906
v -0.51692194 0.56115794 -0.41466248
v 0.5169602 0.5611578 -0.4146623
v 0.51696014 2.1945477 0.14935921
v -0.51692206 2.1697655 0.22112754
v 0.5169601 2.1697655 0.22112769
v 0.5169601 2.1697655 0.22112769
v 0.5169602 0.5363757 -0.34289393
v 0.5169602 -0.004749362 -0.45249808
v 0.43822092 2.0660982 0.24320018
v 0.5169601 2.0660982 0.2432002
v 0.43822104 -0.004749362 -0.4524981
v 0.43822104 -0.004222717 -0.5215618
v 0.43822092 2.2104142 0.2155204
v 0.5169601 2.2104142 0.21552041
v 0.43822092 2.2104142 0.2155204
v 0.43822104 -0.004222717 -0.5215618
v 0.5169602 -0.0042228363 -0.5215618
v 0.5169602 -0.004749362 -0.45249808
v 0.5169601 2.0660982 0.2432002
v 0.5169601 2.190883 0.29615593
v 0.5169601 2.2104142 0.21552041
v 0.5169601 2.190883 0.29615593
v 0.4382209 2.190883 0.2961559
v 0.43822092 2.2104142 0.2155204
v 0.5169601 0.002244118 0.5215609
v 0.4382209 2.190883 0.2961559
v 0.5169601 2.190883 0.29615593
v 0.4382209 0.002244118 0.5215609
v 0.43822092 2.0660982 0.24320018
v 0.4382209 0.0022522067 0.46351707
v 0.4382209 0.0022522067 0.46351707
v 0.5169601 2.0660982 0.2432002
v 0.43822092 2.0660982 0.24320018
v 0.5169601 0.0022520875 0.4635171
v 0.5169601 0.002244118 0.5215609
v 0.5169601 2.190883 0.29615593
v -0.51696783 2.210401 0.21552037
v -0.51696783 2.066085 0.24320018
v -0.5169677 -0.0047625345 -0.4524983
v -0.5169677 -0.004236009 -0.5215618
v -0.4382247 -0.004236009 -0.5215618
v -0.43822482 2.210401 0.2155204
v -0.5169677 -0.0047625345 -0.4524983
v -0.51696783 2.066085 0.24320018
v -0.43822482 2.066085 0.24320018
v -0.4382247 -0.0047625345 -0.45249823
v -0.4382247 -0.004236009 -0.5215618
v -0.43822482 2.210401 0.2155204
v -0.51696783 0.0022309453 0.5215609
v -0.43822485 2.1908698 0.29615584
v -0.43822485 0.0022309453 0.5215609
v -0.51696783 2.1908698 0.2961558
v -0.51696783 2.210401 0.21552037
v -0.43822482 2.210401 0.2155204
v -0.51696783 2.066085 0.24320018
v -0.51696783 0.002239034 0.46351698
v -0.51696783 2.210401 0.21552037
v -0.51696783 2.066085 0.24320018
v -0.51696783 0.002239034 0.46351698
v -0.43822485 0.002239034 0.46351698
v -0.43822482 2.066085 0.24320018
v -0.43822482 2.210401 0.2155204
v -0.43822482 2.066085 0.24320018
v -0.43822485 2.1908698 0.29615584
v -0.43822485 0.0022309453 0.5215609
v -0.43822485 0.002239034 0.46351698
v 0.44656745 0.4801271 0.46760458
v 0.44656745 0.4204413 0.47380537
v 3.7431544E-06 0.42043462 0.47380537
v 3.7440907E-06 0.48012015 0.46760446
v -0.4465676 0.4801138 0.4676045
v -0.4465676 0.42042813 0.47380534
v 0.44656745 0.4796098 0.41729295
v 0.44656745 0.4801271 0.46760458
v 3.7440907E-06 0.48012015 0.46760446
v 3.7516877E-06 0.47960296 0.41729283
v 0.44656745 0.41998243 0.42360464
v 3.7507348E-06 0.4199757 0.42360455
v -0.4465676 0.41996926 0.42360455
v -0.4465676 0.4795966 0.41729286
v -0.4465676 0.4801138 0.4676045
vt 0.6636563 0.9507192
vt 0.6586597 0.94719034
vt 0.6629196 0.942764
vt 0.56942403 0.9452351
vt 0.60665596 0.8876101
vt 0.56942403 0.88760996
vt 0.6066558 0.9452351
vt 0.6091887 0.8876107
vt 0.60918844 0.94523406
vt 0.64366686 0.9452342
vt 0.64366716 0.8876108
vt 0.6091892 0.8850795
vt 0.6436663 0.8850795
vt 0.64619994 0.8876103
vt 0.6461994 0.9452352
vt 0.6629196 0.8555334
vt 0.66671854 0.9430961
vt 0.6629196 0.942764
vt 0.66671854 0.8555334
vt 0.6629196 0.8555334
vt 0.6629196 0.942764
vt 0.6586597 0.94719034
vt 0.65421283 0.94679993
vt 0.65421283 0.8555334
vt 0.6586597 0.8555334
vt 0.6629196 0.8555334
vt 0.6629196 0.942764
vt 0.6586597 0.94719034
vt 0.6636563 0.9507192
vt 0.6586597 0.94719034
vt 0.65421283 0.94679993
vt 0.65796745 0.95178455
vt 0.65419364 0.85553354
vt 0.6586597 0.94719034
vt 0.65419364 0.94679993
vt 0.6586597 0.8555334
vt 0.6629196 0.942764
vt 0.6629196 0.8555334
vt 0.66671854 0.8555334
vt 0.6629196 0.942764
vt 0.66671854 0.9430961
vt 0.6629196 0.8555334
vt 0.6586597 0.8555334
vt 0.6586597 0.94719034
vt 0.6586597 0.94719034
vt 0.6629196 0.942764
vt 0.6629196 0.8555334
vt 0.6586597 0.8555334
vt 0.65421283 0.8555334
vt 0.65421283 0.94679993
vt 0.6629196 0.8555334
vt 0.6629196 0.942764
vt 0.66671854 0.9430961
vt 0.66671854 0.8555334
vt 0.6629196 0.8555334
vt 0.6629196 0.942764
vt 0.6586597 0.8555334
vt 0.65419364 0.94679993
vt 0.65419364 0.8555334
vt 0.6586597 0.94719034
vt 0.6636563 0.9507192
vt 0.65796745 0.95178455
vt 0.6629196 0.942764
vt 0.6629196 0.8555334
vt 0.6636563 0.9507192
vt 0.6629196 0.942764
vt 0.6629196 0.8555334
vt 0.66671854 0.8555334
vt 0.66671854 0.9430961
vt 0.6636563 0.9507192
vt 0.6629196 0.942764
vt 0.6586597 0.94719034
vt 0.6586597 0.8555334
vt 0.6629196 0.8555334
vt 0.6126475 0.8773267
vt 0.6126475 0.8723711
vt 0.65183634 0.8723711
vt 0.65183634 0.8773267
vt 0.6126475 0.8773267
vt 0.6126475 0.8723711
vt 0.6126475 0.8773267
vt 0.6126475 0.88103616
vt 0.65183634 0.88103616
vt 0.65183634 0.8773267
vt 0.6126475 0.8723711
vt 0.65183634 0.8723711
vt 0.6126475 0.8723711
vt 0.6126475 0.8773267
vt 0.6126475 0.88103616
vn -0.581877 0.71139175 -0.39413318
vn -0.5973854 0.5275242 0.6040273
vn -0.99349314 -0.11321703 -0.012375879
vn 0.5773503 -0.7341753 0.35728583
vn -0.5773505 0.3572857 0.7341752
vn 0.57734996 0.3572859 0.73417556
vn -0.57735014 -0.73417556 0.35728547
vn -0.57735014 0.7341755 -0.35728592
vn -0.5773503 -0.35728544 -0.7341755
vn 0.57735026 -0.35728583 -0.7341754
vn 0.57735044 0.73417526 -0.35728577
vn -0.5773505 0.3572857 0.7341752
vn 0.57734996 0.3572859 0.73417556
vn 0.57734996 0.3572859 0.73417556
vn 0.5773503 -0.7341753 0.35728583
vn 0.7686082 -0.20372383 0.60641396
vn -0.99349314 -0.11321703 -0.012375879
vn 0.99349314 -0.11321696 -0.012375688
vn -0.7686081 -0.203724 0.60641414
vn -0.6248442 0.2465544 -0.7407974
vn -0.581877 0.71139175 -0.39413318
vn 0.58187705 0.7113917 -0.39413297
vn -0.581877 0.71139175 -0.39413318
vn -0.6248442 0.2465544 -0.7407974
vn 0.6248445 0.24655436 -0.7407971
vn 0.7686082 -0.20372383 0.60641396
vn 0.99349314 -0.11321696 -0.012375688
vn 0.59738517 0.5275241 0.6040275
vn 0.58187705 0.7113917 -0.39413297
vn 0.59738517 0.5275241 0.6040275
vn -0.5973854 0.5275242 0.6040273
vn -0.581877 0.71139175 -0.39413318
vn 0.68280417 0.07484777 0.7267574
vn -0.5973854 0.5275242 0.6040273
vn 0.59738517 0.5275241 0.6040275
vn -0.6828038 0.0748478 0.7267577
vn -0.99349314 -0.11321703 -0.012375879
vn -0.72989637 -0.07255796 -0.6796959
vn -0.72989637 -0.07255796 -0.6796959
vn 0.99349314 -0.11321696 -0.012375688
vn -0.99349314 -0.11321703 -0.012375879
vn 0.7298969 -0.072557926 -0.6796954
vn 0.68280417 0.07484777 0.7267574
vn 0.59738517 0.5275241 0.6040275
vn -0.58187705 0.71139175 -0.39413306
vn -0.99349314 -0.11321701 -0.012375749
vn -0.76860845 -0.20372392 0.6064137
vn -0.62484384 0.24655443 -0.74079764
vn 0.62484425 0.2465544 -0.7407972
vn 0.58187723 0.71139175 -0.3941327
vn -0.76860845 -0.20372392 0.6064137
vn -0.99349314 -0.11321701 -0.012375749
vn 0.99349314 -0.11321696 -0.012375541
vn 0.7686081 -0.20372397 0.6064141
vn 0.62484425 0.2465544 -0.7407972
vn 0.58187723 0.71139175 -0.3941327
vn -0.6828038 0.07484783 0.72675776
vn 0.59738505 0.5275241 0.6040276
vn 0.6828035 0.074847855 0.726758
vn -0.5973853 0.52752423 0.60402745
vn -0.58187705 0.71139175 -0.39413306
vn 0.58187723 0.71139175 -0.3941327
vn -0.99349314 -0.11321701 -0.012375749
vn -0.72989684 -0.07255789 -0.6796955
vn -0.58187705 0.71139175 -0.39413306
vn -0.99349314 -0.11321701 -0.012375749
vn -0.72989684 -0.07255789 -0.6796955
vn 0.7298969 -0.07255788 -0.67969537
vn 0.99349314 -0.11321696 -0.012375541
vn 0.58187723 0.71139175 -0.3941327
vn 0.99349314 -0.11321696 -0.012375541
vn 0.59738505 0.5275241 0.6040276
vn 0.6828035 0.074847855 0.726758
vn 0.7298969 -0.07255788 -0.67969537
vn -1.1579435E-05 0.74617827 0.6657461
vn -0 -0.66617054 0.7457995
vn -0 -0.6661744 0.74579597
vn -1.1099102E-05 0.74617517 0.6657496
vn -1.0618776E-05 0.74617255 0.66575265
vn -0 -0.66617805 0.74579275
vn -1.0095898E-05 0.6650296 -0.746817
vn -1.1579435E-05 0.74617827 0.6657461
vn -1.1099102E-05 0.74617517 0.6657496
vn -0 0.6650256 -0.7468206
vn 1.1376454E-05 -0.74643874 -0.66545403
vn 1.1075935E-05 -0.7464416 -0.6654509
vn 1.0775418E-05 -0.74644434 -0.6654479
vn -0 0.6650223 -0.74682355
vn -1.0618776E-05 0.74617255 0.66575265
g fcbg_cityforest_006_sign_01_0
f 3/3/3 2/2/2 1/1/1
f 6/6/6 5/5/5 4/4/4
f 5/5/5 7/7/7 4/4/4
f 5/5/5 8/8/8 7/7/7
f 8/8/8 9/9/9 7/7/7
f 9/9/9 8/8/8 10/10/10
f 8/8/8 11/11/11 10/10/10
f 11/11/11 8/8/8 12/12/12
f 13/13/13 11/11/11 12/12/12
f 10/10/10 11/11/11 14/14/14
f 15/15/15 10/10/10 14/14/14
f 18/18/18 17/17/17 16/16/16
f 17/17/17 19/19/19 16/16/16
f 20/20/20 19/19/19 17/17/17
f 21/21/21 20/20/20 17/17/17
f 24/24/24 23/23/23 22/22/22
f 25/25/25 24/24/24 22/22/22
f 25/25/25 22/22/22 26/26/26
f 22/22/22 27/27/27 26/26/26
f 29/29/29 28/28/28 27/27/27
f 31/31/31 30/30/30 29/29/29
f 32/32/32 31/31/31 29/29/29
f 35/35/35 34/34/34 33/33/33
f 34/34/34 36/36/36 33/33/33
f 36/36/36 34/34/34 37/37/37
f 38/38/38 36/36/36 37/37/37
f 41/41/41 40/40/40 39/39/39
f 40/40/40 42/42/42 39/39/39
f 43/43/43 42/42/42 40/40/40
f 44/44/44 43/43/43 40/40/40
f 47/47/47 46/46/46 45/45/45
f 48/48/48 47/47/47 45/45/45
f 49/49/49 48/48/48 45/45/45
f 50/50/50 49/49/49 45/45/45
f 53/53/53 52/52/52 51/51/51
f 54/54/54 53/53/53 51/51/51
f 53/53/53 54/54/54 55/55/55
f 56/56/56 53/53/53 55/55/55
f 59/59/59 58/58/58 57/57/57
f 58/58/58 60/60/60 57/57/57
f 61/61/61 60/60/60 58/58/58
f 62/62/62 61/61/61 58/58/58
f 60/60/60 63/63/63 57/57/57
f 63/63/63 64/64/64 57/57/57
f 60/60/60 65/65/65 63/63/63
f 68/68/68 67/67/67 66/66/66
f 69/69/69 68/68/68 66/66/66
f 72/72/72 71/71/71 70/70/70
f 71/71/71 72/72/72 73/73/73
f 74/74/74 71/71/71 73/73/73
f 77/77/77 76/76/76 75/75/75
f 78/78/78 77/77/77 75/75/75
f 77/77/77 78/78/78 79/79/79
f 80/80/80 77/77/77 79/79/79
f 83/83/83 82/82/82 81/81/81
f 84/84/84 83/83/83 81/81/81
f 84/84/84 81/81/81 85/85/85
f 86/86/86 84/84/84 85/85/85
f 84/84/84 86/86/86 87/87/87
f 88/88/88 84/84/84 87/87/87
f 83/83/83 84/84/84 88/88/88
f 89/89/89 83/83/83 88/88/88
