g fcbg_cityforest_007_right_01
v -0.040571332 7.2739277 -0.082968116
v 1.0394526 6.1938963 -0.082968116
v -0.040571332 5.11388 -0.082968116
v -1.1205952 6.1939044 -0.082968116
v 1.0394526 6.1938963 -0.082968116
v -0.040571332 5.1176953 -0.1600107
v -0.040571332 5.11388 -0.082968116
v 1.0394526 6.1977196 -0.1600107
v -0.040571332 7.2739277 -0.082968116
v -1.1205952 6.1977196 -0.1600107
v -0.040571332 7.2777433 -0.1600107
v -1.1205952 6.1939044 -0.082968116
v 0.105566084 6.5433283 0.07231474
v 0.105566084 -3.20673E-05 0.07230687
v 0.03865254 -3.20673E-05 0.160002
v 0.03865254 6.5433283 0.16000986
v -0.071537495 6.5433283 0.15490174
v -0.071537495 -3.20673E-05 0.15489388
v -0.119216084 -3.20673E-05 0.052643657
v -0.119216084 6.5433283 0.052643657
v -0.054507613 -3.20673E-05 -0.03977889
v -0.054507613 6.5433283 -0.03977096
v 0.057887435 -3.20673E-05 -0.029943347
v 0.057887435 6.5433283 -0.029943347
v 0.105566084 -3.20673E-05 0.07230687
v 0.105566084 6.5433283 0.07231474
v -0.071537495 6.5433283 0.15490174
v -0.119216084 6.5433283 0.052643657
v -0.054507613 6.5433283 -0.03977096
v 0.03865254 6.5433283 0.16000986
v 0.057887435 6.5433283 -0.029943347
v 0.105566084 6.5433283 0.07231474
vt 0.045728244 0.44327033
vt 0.037786245 0.45121232
vt 0.029844243 0.44327033
vt 0.037786245 0.43532833
vt 0.017908376 0.47086152
vt 0.01853337 0.43118203
vt 0.017755939 0.4307857
vt 0.01853337 0.4695658
vt 0.057755575 0.47086152
vt 0.056490343 0.43118203
vt 0.056490343 0.4695658
vt 0.057755575 0.4307857
vt 0.015484619 0.5457999
vt 0.015484619 0.4299168
vt 0.013167567 0.4299168
vt 0.013167567 0.5457999
vt 0.010850515 0.5457999
vt 0.010850515 0.4299168
vt 0.008472488 0.4299168
vt 0.008472488 0.5457999
vt 0.006094461 0.4299168
vt 0.006094461 0.5457999
vt 0.0037316778 0.4299168
vt 0.0037316778 0.5457999
vt 0.0013536508 0.4299168
vt 0.0013536508 0.5457999
vt 0.011262096 0.5438487
vt 0.013762074 0.5402207
vt 0.011262096 0.53659266
vt 0.0063993363 0.543681
vt 0.006277386 0.53659266
vt 0.0037926529 0.5402207
vn -2.3424625E-05 0.8035758 0.59520245
vn 0.81714845 -0.017487407 0.576162
vn 0.50195354 -0.50195354 0.70433325
vn -0.48643523 0.48643523 0.7257834
vn 0.81714845 -0.017487407 0.576162
vn 0.4961166 -0.4961166 -0.7125564
vn 0.50195354 -0.50195354 0.70433325
vn 0.81714845 0.017534316 -0.57616055
vn -2.3424625E-05 0.8035758 0.59520245
vn -0.5136743 0.5136743 -0.68722445
vn -2.3424625E-05 0.82886916 -0.55944246
vn -0.48643523 0.48643523 0.7257834
vn 0.78990936 0.6070654 0.086688146
vn 0.9942023 2.3424625E-05 0.10752558
vn 0.42218202 2.3424625E-05 0.90651107
vn 0.33268225 0.6167936 0.713364
vn -0.44168538 0.6070654 0.6605949
vn -0.55647856 2.3424625E-05 0.8308619
vn -0.9961949 2.3424625E-05 -0.08715341
vn -0.7899563 0.6109567 -0.051970996
vn -0.42222887 2.3424625E-05 -0.90648925
vn -0.33467478 0.6109567 -0.71744317
vn 0.57394254 2.3424625E-05 -0.8188956
vn 0.455258 0.6109567 -0.6476666
vn 0.9942023 2.3424625E-05 0.10752558
vn 0.78990936 0.6070654 0.086688146
vn -0.44168538 0.6070654 0.6605949
vn -0.7899563 0.6109567 -0.051970996
vn -0.33467478 0.6109567 -0.71744317
vn 0.33268225 0.6167936 0.713364
vn 0.455258 0.6109567 -0.6476666
vn 0.78990936 0.6070654 0.086688146
g fcbg_cityforest_007_right_01_0
f 3/3/3 2/2/2 1/1/1
f 4/4/4 3/3/3 1/1/1
f 7/7/7 6/6/6 5/5/5
f 6/6/6 8/8/8 5/5/5
f 9/9/9 5/5/5 8/8/8
f 6/6/6 10/10/10 8/8/8
f 11/11/11 9/9/9 8/8/8
f 10/10/10 11/11/11 8/8/8
f 12/12/12 9/9/9 11/11/11
f 10/10/10 12/12/12 11/11/11
f 15/15/15 14/14/14 13/13/13
f 16/16/16 15/15/15 13/13/13
f 16/16/16 17/17/17 15/15/15
f 17/17/17 18/18/18 15/15/15
f 19/19/19 18/18/18 17/17/17
f 20/20/20 19/19/19 17/17/17
f 21/21/21 19/19/19 20/20/20
f 22/22/22 21/21/21 20/20/20
f 23/23/23 21/21/21 22/22/22
f 24/24/24 23/23/23 22/22/22
f 25/25/25 23/23/23 24/24/24
f 26/26/26 25/25/25 24/24/24
f 29/29/29 28/28/28 27/27/27
f 29/29/29 27/27/27 30/30/30
f 31/31/31 29/29/29 30/30/30
f 32/32/32 31/31/31 30/30/30
