g fcbg_cityforest_building_0046
v -1.5228312 1.2712686 0.63985753
v -1.5228312 1.2712686 -0.6398581
v 1.5228348 1.2712686 -0.6398581
v 1.5228348 1.2712686 0.63985753
v -1.5228312 0.0002988577 0.63985753
v -1.5228312 1.2712686 0.63985753
v 1.5228348 1.2712686 0.63985753
v 1.5228348 0.0002988577 0.63985753
v 1.5228348 0.0002988577 0.63985753
v 1.5228348 1.2712686 0.63985753
v 1.5228348 1.2712686 -0.6398581
v 1.5228348 0.0002988577 -0.6398581
v 1.5228348 0.0002988577 -0.6398581
v 1.5228348 1.2712686 -0.6398581
v -1.5228312 1.2712686 -0.6398581
v -1.5228312 0.0002988577 -0.6398581
v -1.5228312 0.0002988577 -0.6398581
v -1.5228312 1.2712686 -0.6398581
v -1.5228312 1.2712686 0.63985753
v -1.5228312 0.0002988577 0.63985753
vt 0.9956543 0.9321817
vt 0.9956543 0.90575594
vt 0.9351014 0.90575594
vt 0.9351014 0.9321817
vt 0.9956543 0.8749954
vt 0.9956543 0.90575594
vt 0.9351014 0.90575594
vt 0.9351014 0.8749954
vt 0.9040578 0.9321817
vt 0.9351014 0.9321817
vt 0.9351014 0.90575594
vt 0.9040578 0.90575594
vt 0.9351014 0.8749954
vt 0.9351014 0.90575594
vt 0.9956543 0.90575594
vt 0.9956543 0.8749954
vt 0.9040578 0.90575594
vt 0.9351014 0.90575594
vt 0.9351014 0.9321817
vt 0.9040578 0.9321817
vn -0.57715946 0.57715946 0.57773167
vn -0.57715946 0.57715946 -0.57773167
vn 0.57715946 0.57715946 -0.57773167
vn 0.57715946 0.57715946 0.57773167
vn -0.70710677 -0.00069117546 0.7071065
vn -0.57715946 0.57715946 0.57773167
vn 0.57715946 0.57715946 0.57773167
vn 0.70710677 -0.00069117546 0.7071065
vn 0.70710677 -0.00069117546 0.7071065
vn 0.57715946 0.57715946 0.57773167
vn 0.57715946 0.57715946 -0.57773167
vn 0.70710677 -0.00069117546 -0.7071065
vn 0.70710677 -0.00069117546 -0.7071065
vn 0.57715946 0.57715946 -0.57773167
vn -0.57715946 0.57715946 -0.57773167
vn -0.70710677 -0.00069117546 -0.7071065
vn -0.70710677 -0.00069117546 -0.7071065
vn -0.57715946 0.57715946 -0.57773167
vn -0.57715946 0.57715946 0.57773167
vn -0.70710677 -0.00069117546 0.7071065
g fcbg_cityforest_building_0046_0
f 3/3/3 2/2/2 1/1/1
f 4/4/4 3/3/3 1/1/1
f 7/7/7 6/6/6 5/5/5
f 8/8/8 7/7/7 5/5/5
f 11/11/11 10/10/10 9/9/9
f 12/12/12 11/11/11 9/9/9
f 15/15/15 14/14/14 13/13/13
f 16/16/16 15/15/15 13/13/13
f 19/19/19 18/18/18 17/17/17
f 20/20/20 19/19/19 17/17/17
