g fcbg_greathole_001_minebox_01
v -0.7259252 -0.65416414 1.0747737
v -1.0471814 -0.65416414 1.0747706
v -1.0471814 0.6541637 1.0747706
v -0.7259252 0.6541637 1.0747737
v -0.72591317 0.5860698 0.997212
v -0.72591317 -0.58606994 0.997212
v -0.7259252 0.6541637 1.0747737
v -0.7259252 0.58606994 -0.9971938
v -0.72591317 0.5860698 0.997212
v -0.72591317 0.65416396 -1.0747585
v -1.0471814 0.65416414 -1.0747526
v -1.0471814 0.6541637 1.0747706
v -1.0471814 -0.65416414 1.0747706
v -1.0471814 -0.65416396 -1.0747526
v -0.72591317 0.65416396 -1.0747585
v -0.72591317 -0.65416396 -1.0747585
v -0.7259252 -0.5860697 -0.9971938
v -0.7259252 0.58606994 -0.9971938
v -0.72591317 -0.654164 -0.78338885
v -0.7259252 -0.58606976 -0.78291255
v -0.72591317 -0.58606994 0.997212
v -0.72591317 0.5860698 0.997212
v -0.0006812811 0.5860698 0.9972089
v -0.0006812811 -0.5860699 0.9972089
v 0.7245626 -0.5860699 0.9972089
v 0.7245626 0.5860698 0.9972089
v -0.7259252 0.58606994 -0.9971938
v -0.7259252 -0.5860697 -0.9971938
v -0.0006812811 -0.5860697 -0.9971878
v -0.0006812811 0.58607 -0.9971878
v -0.72591317 0.5860698 0.997212
v -0.0006812811 0.5860698 0.9972089
v 0.7245626 0.5860698 0.9972089
v 0.7245626 0.58607 -0.9971968
v 0.7245626 -0.5860697 -0.9971968
v 0.7245626 -0.65416414 1.0747706
v 1.0471692 0.654164 1.0747737
v 1.0471692 -0.65416414 1.0747737
v 0.7245626 0.654164 1.0747706
v 0.7245626 0.5860698 0.9972089
v 0.7245626 -0.5860699 0.9972089
v 0.7245626 0.654164 1.0747706
v 0.7245626 0.5860698 0.9972089
v 0.7245626 0.58607 -0.9971968
v 0.7245626 0.654164 -1.0747526
v 1.0471814 0.654164 -1.0747585
v 1.0471692 0.654164 1.0747737
v 1.0471692 -0.65416414 1.0747737
v 1.0471814 -0.65416396 -1.0747585
v 0.7245626 0.654164 -1.0747526
v 0.7245626 -0.65416396 -1.0747526
v 0.7245626 -0.5860697 -0.9971968
v 0.7245626 0.58607 -0.9971968
v 0.72455055 -0.58606976 -0.78291553
v 0.7245626 -0.654164 -0.78339183
vt 0.1441175 0.8259111
vt 0.15062499 0.8259111
vt 0.15062499 0.8516688
vt 0.1441175 0.8516688
vt 0.14261585 0.85050166
vt 0.14261585 0.82737565
vt 0.19223659 0.8574482
vt 0.15198445 0.8587666
vt 0.1905933 0.8587666
vt 0.15062499 0.8574482
vt 0.15062499 0.8516688
vt 0.19223659 0.8516688
vt 0.19223659 0.8259111
vt 0.15062499 0.8259111
vt 0.1441175 0.8516688
vt 0.1441175 0.8259111
vt 0.14261585 0.82737565
vt 0.14261585 0.85050166
vt 0.13840185 0.8259111
vt 0.13840036 0.82737565
vt 0.1952632 0.8789432
vt 0.1952632 0.8562973
vt 0.20927519 0.8562973
vt 0.20927519 0.8789432
vt 0.2232869 0.8789432
vt 0.2232869 0.8562973
vt 0.1952632 0.8562973
vt 0.1952632 0.8789432
vt 0.20927519 0.8789432
vt 0.20927519 0.8562973
vt 0.1952632 0.8187348
vt 0.20927519 0.8187348
vt 0.2232869 0.8187348
vt 0.2232869 0.8562973
vt 0.2232869 0.8789432
vt 0.1441175 0.8259111
vt 0.15062499 0.8516688
vt 0.15062499 0.8259111
vt 0.1441175 0.8516688
vt 0.14261585 0.85050166
vt 0.14261585 0.82737565
vt 0.19223659 0.8574482
vt 0.1905933 0.8587666
vt 0.15198445 0.8587666
vt 0.15062499 0.8574482
vt 0.15062499 0.8516688
vt 0.19223659 0.8516688
vt 0.19223659 0.8259111
vt 0.15062499 0.8259111
vt 0.1441175 0.8516688
vt 0.1441175 0.8259111
vt 0.14261585 0.82737565
vt 0.14261585 0.85050166
vt 0.13840036 0.82737565
vt 0.13840185 0.8259111
vn 0.47682974 0 0.87899566
vn -0.7073066 0 0.70690686
vn -0.5773704 0.5773025 0.5773779
vn 0.5778542 0.5769529 0.57724327
vn 0.9044956 0.30164436 0.3014935
vn 0.82471186 0 0.56555307
vn 0.5778542 0.5769529 0.57724327
vn 0.90453124 0.30138347 -0.30164745
vn 0.9044956 0.30164436 0.3014935
vn 0.5769014 0.57762927 -0.5775199
vn -0.57743955 0.5773679 -0.57724345
vn -0.5773704 0.5773025 0.5773779
vn -0.7073066 0 0.70690686
vn -0.7069031 0 -0.7073104
vn 0.5769014 0.57762927 -0.5775199
vn 0.7070012 2.6398653E-05 -0.7072124
vn 0.9487036 3.7712514E-05 -0.31616664
vn 0.90453124 0.30138347 -0.30164745
vn 1 7.165377E-05 0
vn 1 7.542502E-05 0
vn 0.82471186 0 0.56555307
vn 0.9044956 0.30164436 0.3014935
vn -0 0.7070973 0.7071162
vn -0 0 1
vn -0.82468116 0 0.5655979
vn -0.90451646 0.3014376 0.30163747
vn 0.90453124 0.30138347 -0.30164745
vn 0.9487036 3.7712514E-05 -0.31616664
vn 0.000814593 0 -0.99999964
vn -0 0.70689183 -0.70732176
vn 0.9044956 0.30164436 0.3014935
vn -0 0.7070973 0.7071162
vn -0.90451646 0.3014376 0.30163747
vn -0.9046246 0.30147365 -0.30127752
vn -0.94876325 -3.3941513E-05 -0.31598794
vn -0.4762834 0 0.8792919
vn 0.5773163 0.57722956 0.5775049
vn 0.7074122 0 0.70680124
vn -0.5772358 0.5771642 0.57765067
vn -0.90451646 0.3014376 0.30163747
vn -0.82468116 0 0.5655979
vn -0.5772358 0.5771642 0.57765067
vn -0.90451646 0.3014376 0.30163747
vn -0.9046246 0.30147365 -0.30127752
vn -0.577305 0.5772371 -0.5775086
vn 0.57689637 0.5776393 -0.5775148
vn 0.5773163 0.57722956 0.5775049
vn 0.7074122 0 0.70680124
vn 0.7070012 0 -0.7072124
vn -0.577305 0.5772371 -0.5775086
vn -0.7074122 -1.8856279E-05 -0.70680124
vn -0.94876325 -3.3941513E-05 -0.31598794
vn -0.9046246 0.30147365 -0.30127752
vn -1 -7.165377E-05 -0.0004072951
vn -1 -6.7883026E-05 -0.00040729818
g fcbg_greathole_001_minebox_01_0
f 3/3/3 2/2/2 1/1/1
f 4/4/4 3/3/3 1/1/1
f 5/5/5 4/4/4 1/1/1
f 6/6/6 5/5/5 1/1/1
f 9/9/9 8/8/8 7/7/7
f 8/8/8 10/10/10 7/7/7
f 10/10/10 11/11/11 7/7/7
f 11/11/11 12/12/12 7/7/7
f 12/12/12 11/11/11 13/13/13
f 11/11/11 14/14/14 13/13/13
f 11/11/11 15/15/15 14/14/14
f 15/15/15 16/16/16 14/14/14
f 17/17/17 16/16/16 15/15/15
f 18/18/18 17/17/17 15/15/15
f 19/19/19 16/16/16 17/17/17
f 20/20/20 19/19/19 17/17/17
f 23/23/23 22/22/22 21/21/21
f 24/24/24 23/23/23 21/21/21
f 23/23/23 24/24/24 25/25/25
f 26/26/26 23/23/23 25/25/25
f 29/29/29 28/28/28 27/27/27
f 30/30/30 29/29/29 27/27/27
f 30/30/30 27/27/27 31/31/31
f 32/32/32 30/30/30 31/31/31
f 30/30/30 32/32/32 33/33/33
f 34/34/34 30/30/30 33/33/33
f 29/29/29 30/30/30 34/34/34
f 35/35/35 29/29/29 34/34/34
f 38/38/38 37/37/37 36/36/36
f 37/37/37 39/39/39 36/36/36
f 39/39/39 40/40/40 36/36/36
f 40/40/40 41/41/41 36/36/36
f 44/44/44 43/43/43 42/42/42
f 45/45/45 44/44/44 42/42/42
f 46/46/46 45/45/45 42/42/42
f 47/47/47 46/46/46 42/42/42
f 46/46/46 47/47/47 48/48/48
f 49/49/49 46/46/46 48/48/48
f 50/50/50 46/46/46 49/49/49
f 51/51/51 50/50/50 49/49/49
f 51/51/51 52/52/52 50/50/50
f 52/52/52 53/53/53 50/50/50
f 54/54/54 52/52/52 51/51/51
f 55/55/55 54/54/54 51/51/51
