g fcbg_wasteland_debris_04
v -0.33546516 1.3780365 1.3339976
v -0.9268195 1.3780365 1.3339976
v -0.3354651 1.3781986 0.51536024
v -0.9369073 1.3781542 -0.26106665
v -0.2470701 1.3783442 -0.26155806
v -0.37363076 1.2330513 -0.3526946
v 0.0048891744 1.4331789 -0.054789484
v -0.24543743 0.8793787 -0.6209555
v 0.33546683 1.3781986 0.51536024
v -1.142303 0.0023405552 -1.331182
v 0.2608485 1.3782425 -0.26153943
v -0.3330309 0.2571664 -1.1626234
v -0.3330309 0.0009698868 -1.333998
v 0.0077102915 0.7736709 -0.7415874
v 0.33303285 0.2575624 -1.160711
v 0.26651052 0.8748703 -0.62403023
v -0.33303094 0.2571664 -1.0292511
v -0.33303082 0.0009698868 -1.2006259
v 0.33303285 0.0009698868 -1.2006259
v 0.33303285 0.2575624 -1.027339
v 0.33303285 0.0009698868 -1.333998
v 1.1423057 0.0023405552 -1.3311818
v 0.9369092 1.3781542 -0.26106656
v 0.38722503 1.2305012 -0.3543296
v 1.1423053 0.0023403168 1.3339978
v 0.9268212 1.3780365 1.3339976
v 0.9268212 1.3780365 1.3339976
v 0.33546677 1.3780365 1.3339976
v -0.9268195 1.3780365 1.3339976
v -0.3354654 0.002329111 1.3339978
v -1.1423032 0.0023403168 1.3339978
v -0.33546516 1.3780365 1.3339976
v -0.3354651 1.3781986 0.51536024
v -0.33546534 0.0023179054 0.5153601
v 0.33546683 1.3781986 0.51536024
v 0.33546695 0.0023179054 0.5153601
v -1.1423032 0.0023403168 1.3339978
v -1.142303 0.0023405552 -1.331182
v -0.9369073 1.3781542 -0.26106665
v -0.9268195 1.3780365 1.3339976
v 0.9268212 1.3780365 1.3339976
v 1.1423053 0.0023403168 1.3339978
v 0.3354669 0.002329111 1.3339978
v 0.33546677 1.3780365 1.3339976
v 0.33546683 1.3781986 0.51536024
v 0.33546695 0.0023179054 0.5153601
v -0.24588762 0.8784435 -0.86126757
v 0.0071437177 0.77363443 -0.57671607
v 0.007143741 0.77363443 -0.8612675
v -0.24543743 0.8793787 -0.6209555
v -0.3506966 1.1314747 -0.86126757
v -0.37363076 1.2330513 -0.3526946
v 0.007143741 0.77363443 -0.8612675
v 0.0071437177 0.77363443 -0.57671607
v 0.26651052 0.8748703 -0.62403023
v 0.26017514 0.8784435 -0.86126745
v 0.38722503 1.2305012 -0.3543296
v 0.3649841 1.1314747 -0.86126745
v 0.2608485 1.3782425 -0.26153943
v 0.26017514 1.3845061 -0.86126745
v 0.0071437215 1.489315 -0.26446068
v 0.0048891744 1.4331789 -0.054789484
v 0.007143771 1.4893152 -0.8612675
v -0.2470701 1.3783442 -0.26155806
v -0.24588762 1.3845061 -0.8612675
v -0.37363076 1.2330513 -0.3526946
v -0.3506966 1.1314747 -0.86126757
v 0.3649841 1.1314747 -0.86126745
v 0.007143755 1.1314747 -0.86126745
v 0.26017514 0.8784435 -0.86126745
v 0.26017514 1.3845061 -0.86126745
v 0.007143741 0.77363443 -0.8612675
v 0.007143771 1.4893152 -0.8612675
v -0.24588762 0.8784435 -0.86126757
v -0.24588762 1.3845061 -0.8612675
v -0.3506966 1.1314747 -0.86126757
vt 0.22118421 0.8529034
vt 0.19671984 0.85289663
vt 0.22114725 0.88682896
vt 0.1964872 0.9189504
vt 0.2250991 0.91929954
vt 0.22014464 0.92624754
vt 0.23507513 0.9107973
vt 0.2253988 0.9452252
vt 0.24858864 0.8867492
vt 0.18554945 0.99034387
vt 0.24522902 0.9192845
vt 0.22059269 0.9802142
vt 0.21761556 0.99414307
vt 0.23572488 0.9523538
vt 0.25044984 0.98020476
vt 0.24606223 0.9455703
vt 0.22271295 0.9814934
vt 0.221806 0.9930679
vt 0.24931152 0.9931205
vt 0.24837156 0.981523
vt 0.2535947 0.9941804
vt 0.28577083 0.98997325
vt 0.27333856 0.91857
vt 0.25037616 0.92645913
vt 0.36028576 0.90856844
vt 0.3177169 0.86969405
vt 0.2730109 0.8527698
vt 0.24854912 0.8528002
vt 0.354565 0.98974663
vt 0.37784413 0.93559176
vt 0.34608266 0.935592
vt 0.37784383 0.98974675
vt 0.41006967 0.9897533
vt 0.4100699 0.93559146
vt 0.43648103 0.98975354
vt 0.4364812 0.9355917
vt 0.36028576 0.90856844
vt 0.28577083 0.98997325
vt 0.27333856 0.91857
vt 0.3177169 0.86969405
vt 0.35457084 0.989729
vt 0.34608862 0.93557435
vt 0.37784997 0.9355743
vt 0.37784985 0.98972934
vt 0.41007575 0.9897358
vt 0.41007575 0.9355739
vt 0.19416842 0.5359482
vt 0.20620228 0.5514848
vt 0.19416842 0.5514848
vt 0.20527416 0.5359482
vt 0.19416842 0.5160339
vt 0.21707323 0.5160339
vt 0.19425683 0.5514848
vt 0.20620228 0.5514848
vt 0.20527416 0.5359482
vt 0.19425683 0.5359482
vt 0.21707323 0.5160339
vt 0.19425683 0.5160339
vt 0.22084352 0.5019061
vt 0.19425683 0.5019061
vt 0.22084352 0.4865318
vt 0.23044357 0.4864265
vt 0.19425683 0.48652002
vt 0.22084352 0.47113442
vt 0.19425683 0.4711365
vt 0.21565396 0.4569723
vt 0.19425683 0.4569723
vt 0.31052646 0.9777231
vt 0.32879624 0.9777231
vt 0.3158776 0.96480453
vt 0.3158776 0.99064183
vt 0.32879624 0.9594536
vt 0.32879624 0.9959928
vt 0.3417146 0.96480453
vt 0.3417146 0.9906417
vt 0.34706572 0.9777231
vn 0.5773607 0.57728785 0.5774022
vn -0.52654237 0.615061 0.58690137
vn 0.28518602 0.90388495 0.31884307
vn -0.5592028 0.7522242 -0.34849814
vn -0.3428509 0.93185294 -0.11875836
vn -0.46720323 0.59671474 -0.65242064
vn -0.0006188359 0.99672085 0.080913894
vn -0.68474454 0.011475345 -0.7286927
vn -0.28499833 0.9037857 0.31929192
vn -0.51081496 0.5767751 -0.6374939
vn 0.34210372 0.9321952 -0.1182253
vn 0.46038145 0.3139228 -0.8303623
vn 0.5294236 0.47168285 -0.70514244
vn 0.0011749087 0.65534884 -0.7553254
vn -0.46053848 0.31307748 -0.8305943
vn 0.67146116 0.026614247 -0.74056166
vn 0.5537096 -0.39187688 -0.73473674
vn 0.80901074 0.32789293 -0.4878401
vn -0.8091661 0.32777345 -0.48766264
vn -0.55119383 -0.39197898 -0.73657167
vn -0.5277087 0.47539437 -0.70393455
vn 0.5102834 0.5772904 -0.63745314
vn 0.55901456 0.75221795 -0.34881356
vn 0.46981677 0.5967143 -0.6505415
vn 0.733592 0.1115361 0.6703749
vn 0.5265421 0.615061 0.58690137
vn 0.5265421 0.615061 0.58690137
vn -0.5773607 0.57728785 0.5774022
vn -0.52654237 0.615061 0.58690137
vn 0.7071129 0 0.70710063
vn -0.7335921 0.11153587 0.6703749
vn 0.5773607 0.57728785 0.5774022
vn 0.28518602 0.90388495 0.31884307
vn 0.70710367 0 0.70710987
vn -0.28499833 0.9037857 0.31929192
vn -0.70710367 0 0.7071098
vn -0.7335921 0.11153587 0.6703749
vn -0.51081496 0.5767751 -0.6374939
vn -0.5592028 0.7522242 -0.34849814
vn -0.52654237 0.615061 0.58690137
vn 0.5265421 0.615061 0.58690137
vn 0.733592 0.1115361 0.6703749
vn -0.7071129 0 0.7071006
vn -0.5773607 0.57728785 0.5774022
vn -0.28499833 0.9037857 0.31929192
vn -0.70710367 0 0.7071098
vn -0.5565631 -0.54661065 -0.62566304
vn -0.007871317 -0.99995756 -0.0047874604
vn -0.0051832795 -0.7751157 -0.63179797
vn -0.68474454 0.011475345 -0.7286927
vn -0.7641843 0.018873218 -0.6447217
vn -0.46720323 0.59671474 -0.65242064
vn -0.0051832795 -0.7751157 -0.63179797
vn -0.007871317 -0.99995756 -0.0047874604
vn 0.67146116 0.026614247 -0.74056166
vn 0.55320424 -0.5430288 -0.63173145
vn 0.46981677 0.5967143 -0.6505415
vn 0.7627707 0.026165202 -0.6461395
vn 0.34210372 0.9321952 -0.1182253
vn 0.5081463 0.5826593 -0.63426757
vn 0.0014819646 0.9918051 0.12775119
vn -0.0006188359 0.99672085 0.080913894
vn 0.00020585713 0.77696115 -0.6295485
vn -0.3428509 0.93185294 -0.11875836
vn -0.50675976 0.58343893 -0.6346602
vn -0.46720323 0.59671474 -0.65242064
vn -0.7641843 0.018873218 -0.6447217
vn 0.7627707 0.026165202 -0.6461395
vn -0 0 -1
vn 0.55320424 -0.5430288 -0.63173145
vn 0.5081463 0.5826593 -0.63426757
vn -0.0051832795 -0.7751157 -0.63179797
vn 0.00020585713 0.77696115 -0.6295485
vn -0.5565631 -0.54661065 -0.62566304
vn -0.50675976 0.58343893 -0.6346602
vn -0.7641843 0.018873218 -0.6447217
g fcbg_wasteland_debris_04_0
f 3/3/3 2/2/2 1/1/1
f 4/4/4 2/2/2 3/3/3
f 3/3/3 5/5/5 4/4/4
f 5/5/5 6/6/6 4/4/4
f 7/7/7 5/5/5 3/3/3
f 6/6/6 8/8/8 4/4/4
f 3/3/3 9/9/9 7/7/7
f 8/8/8 10/10/10 4/4/4
f 7/7/7 9/9/9 11/11/11
f 10/10/10 8/8/8 12/12/12
f 13/13/13 10/10/10 12/12/12
f 8/8/8 14/14/14 12/12/12
f 12/12/12 14/14/14 15/15/15
f 15/15/15 14/14/14 16/16/16
f 12/12/12 17/17/17 13/13/13
f 12/12/12 15/15/15 17/17/17
f 17/17/17 18/18/18 13/13/13
f 18/18/18 17/17/17 19/19/19
f 17/17/17 20/20/20 19/19/19
f 15/15/15 20/20/20 17/17/17
f 19/19/19 20/20/20 15/15/15
f 21/21/21 19/19/19 15/15/15
f 21/21/21 15/15/15 22/22/22
f 22/22/22 15/15/15 16/16/16
f 23/23/23 22/22/22 16/16/16
f 24/24/24 23/23/23 16/16/16
f 25/25/25 22/22/22 23/23/23
f 26/26/26 25/25/25 23/23/23
f 24/24/24 11/11/11 23/23/23
f 11/11/11 9/9/9 23/23/23
f 23/23/23 9/9/9 27/27/27
f 27/27/27 9/9/9 28/28/28
f 31/31/31 30/30/30 29/29/29
f 30/30/30 32/32/32 29/29/29
f 32/32/32 30/30/30 33/33/33
f 30/30/30 34/34/34 33/33/33
f 35/35/35 33/33/33 34/34/34
f 36/36/36 35/35/35 34/34/34
f 39/39/39 38/38/38 37/37/37
f 40/40/40 39/39/39 37/37/37
f 43/43/43 42/42/42 41/41/41
f 44/44/44 43/43/43 41/41/41
f 43/43/43 44/44/44 45/45/45
f 46/46/46 43/43/43 45/45/45
f 49/49/49 48/48/48 47/47/47
f 48/48/48 50/50/50 47/47/47
f 47/47/47 50/50/50 51/51/51
f 50/50/50 52/52/52 51/51/51
f 55/55/55 54/54/54 53/53/53
f 56/56/56 55/55/55 53/53/53
f 57/57/57 55/55/55 56/56/56
f 58/58/58 57/57/57 56/56/56
f 59/59/59 57/57/57 58/58/58
f 60/60/60 59/59/59 58/58/58
f 61/61/61 59/59/59 60/60/60
f 61/61/61 62/62/62 59/59/59
f 63/63/63 61/61/61 60/60/60
f 61/61/61 64/64/64 62/62/62
f 64/64/64 61/61/61 63/63/63
f 65/65/65 64/64/64 63/63/63
f 66/66/66 64/64/64 65/65/65
f 67/67/67 66/66/66 65/65/65
f 70/70/70 69/69/69 68/68/68
f 68/68/68 69/69/69 71/71/71
f 72/72/72 69/69/69 70/70/70
f 71/71/71 69/69/69 73/73/73
f 74/74/74 69/69/69 72/72/72
f 73/73/73 69/69/69 75/75/75
f 76/76/76 69/69/69 74/74/74
f 75/75/75 69/69/69 76/76/76
