g fcbg_cityforestcrystal_001_stone_01
v -0.69625044 -0.34235525 0.31671286
v -0.65118027 -0.34235525 0.36223269
v -0.63645923 -0.3973874 0.3476498
v -0.6815294 -0.3973874 0.30213785
v -0.4605794 -0.086431265 0.16816711
v -0.69625044 -0.34235525 0.31671286
v -0.44585443 -0.14146346 0.15359211
v -0.63645923 -0.3973874 0.3476498
v -0.18643272 -0.011420727 -0.086986005
v -0.40078807 -0.14146346 0.19910991
v -0.17170775 -0.06645286 -0.10156691
v -0.12663758 -0.06645286 -0.056045175
v -0.65118027 -0.34235525 0.36223269
v -0.4155053 -0.086431265 0.21368885
v -0.40078807 -0.14146346 0.19910991
v -0.4605794 -0.086431265 0.16816711
v -0.69625044 -0.34235525 0.31671286
v -0.18643272 -0.011420727 -0.086986005
v -0.14136052 -0.011420727 -0.04147595
v -0.12663758 -0.06645286 -0.056045175
v -0.4508977 0.39024997 1.000906
v -0.3674667 0.38715315 1.0187802
v -0.3594551 0.3072356 1.0205028
v -0.44289386 0.31033635 1.0026343
v -0.10126543 0.39738762 0.4488169
v -0.4508977 0.39024997 1.000906
v -0.0932616 0.31747591 0.4505415
v 0.23994052 0.11055589 -0.16331828
v 0.24794436 0.03063643 -0.16159952
v -0.3674667 0.38715315 1.0187802
v -0.017826796 0.39429665 0.4666971
v -0.009826779 0.31438303 0.4684217
v -0.10126543 0.39738762 0.4488169
v -0.4508977 0.39024997 1.000906
v 0.23994052 0.11055589 -0.16331828
v 0.32337534 0.10745323 -0.14545172
v 0.3313831 0.027541518 -0.14371938
v -0.3594551 0.3072356 1.0205028
v -0.0932616 0.31747591 0.4505415
v -0.44289386 0.31033635 1.0026343
v -0.009826779 0.31438303 0.4684217
v 0.24794436 0.03063643 -0.16159952
v 0.3313831 0.027541518 -0.14371938
v 0.56166834 0.3700652 -0.73567957
v 0.6110772 -0.13225478 -0.78144854
v 0.6813092 -0.13225478 -0.6491265
v 0.63190037 0.3700652 -0.60335755
v 0.6480715 0.3700652 -0.03757912
v 0.6962658 -0.16711384 0.08155179
v -0.11461234 0.3700652 -0.04969585
v 0.6962658 -0.16711384 0.08155179
v -0.11461234 -0.20234275 0.077102184
v -0.32624078 -0.19954377 -0.14616609
v -0.2904824 0.3700652 -0.20341331
v -0.1914779 0.3700652 -0.9648086
v 0.6110772 -0.13225478 -0.78144854
v -0.16907811 -0.13225478 -1.0205026
v -0.32624078 -0.19954377 -0.14616609
v -0.25947928 -0.19674474 -0.9740387
v -0.16907811 -0.13225478 -1.0205026
vt 0.9924883 0.4572283
vt 0.98724127 0.4572283
vt 0.98724127 0.45331576
vt 0.9924883 0.45331576
vt 0.98724127 0.4392124
vt 0.98724127 0.45331576
vt 0.9924883 0.4392124
vt 0.99658287 0.45331576
vt 0.98724127 0.4250939
vt 0.99658287 0.4392124
vt 0.9924883 0.4250939
vt 0.99658287 0.4250939
vt 0.9924883 0.45331576
vt 0.9924883 0.4392124
vt 0.98724127 0.4392124
vt 0.99658287 0.4392124
vt 0.99658287 0.45331576
vt 0.99658287 0.4250939
vt 0.9924883 0.4250939
vt 0.98724127 0.4250939
vt 0.9924883 0.4572283
vt 0.98724127 0.4572283
vt 0.98724127 0.45331576
vt 0.9924883 0.45331576
vt 0.98724127 0.4392124
vt 0.98724127 0.45331576
vt 0.9924883 0.4392124
vt 0.98724127 0.4250939
vt 0.9924883 0.4250939
vt 0.9924883 0.45331576
vt 0.9924883 0.4392124
vt 0.98724127 0.4392124
vt 0.99658287 0.4392124
vt 0.99658287 0.45331576
vt 0.99658287 0.4250939
vt 0.9924883 0.4250939
vt 0.98724127 0.4250939
vt 0.99658287 0.45331576
vt 0.9924883 0.4392124
vt 0.9924883 0.45331576
vt 0.99658287 0.4392124
vt 0.9924883 0.4250939
vt 0.99658287 0.4250939
vt 0.18788464 0.8748088
vt 0.18661079 0.8857123
vt 0.18944661 0.8871985
vt 0.19072047 0.8763101
vt 0.20295854 0.8766589
vt 0.20523328 0.88838136
vt 0.2027159 0.8601898
vt 0.21234562 0.8760826
vt 0.2113144 0.8573388
vt 0.20747767 0.8526225
vt 0.19940996 0.8563986
vt 0.18295604 0.8585217
vt 0.17763317 0.8786758
vt 0.1725226 0.8617973
vt 0.19915216 0.84400886
vt 0.18134856 0.84629875
vt 0.17952879 0.8481489
vn -0.9784373 0.20338786 0.03596934
vn -0.20907283 0.16359317 0.9641192
vn 0.21161407 -0.8312746 0.51400584
vn -0.5388005 -0.78200495 -0.31330863
vn -0.6676595 0.7074542 -0.23181741
vn -0.9784373 0.20338786 0.03596934
vn -0.2583425 -0.5394467 -0.801409
vn 0.21161407 -0.8312746 0.51400584
vn -0.5956501 0.67144954 -0.44085878
vn 0.6929406 -0.5868214 0.41889617
vn -0.34740686 -0.7308403 -0.58752096
vn 0.5621866 -0.7289454 0.3906212
vn -0.20907283 0.16359317 0.9641192
vn 0.18887424 0.6430247 0.7421898
vn 0.6929406 -0.5868214 0.41889617
vn -0.6676595 0.7074542 -0.23181741
vn -0.9784373 0.20338786 0.03596934
vn -0.5956501 0.67144954 -0.44085878
vn 0.4181676 0.64491963 0.6396988
vn 0.5621866 -0.7289454 0.3906212
vn -0.7851486 0.5369055 0.308665
vn 0.2912035 0.60133505 0.7440408
vn 0.32910323 -0.59250635 0.7352736
vn -0.73966897 -0.58492637 0.33279264
vn -0.5425904 0.7112442 -0.4469086
vn -0.7851486 0.5369055 0.308665
vn -0.6638695 -0.7005205 -0.26181728
vn -0.57859516 0.56533027 -0.5879025
vn -0.55775034 -0.82558966 0.085534975
vn 0.2912035 0.60133505 0.7440408
vn 0.6228261 0.76240885 0.17555732
vn 0.6266161 -0.5754515 0.5255548
vn -0.5425904 0.7112442 -0.4469086
vn -0.7851486 0.5369055 0.308665
vn -0.57859516 0.56533027 -0.5879025
vn 0.79905987 0.5767002 0.17005932
vn 0.5167069 -0.6285111 0.5813672
vn 0.32910323 -0.59250635 0.7352736
vn -0.6638695 -0.7005205 -0.26181728
vn -0.73966897 -0.58492637 0.33279264
vn 0.6266161 -0.5754515 0.5255548
vn -0.55775034 -0.82558966 0.085534975
vn 0.5167069 -0.6285111 0.5813672
vn 0.46364728 0.67902946 -0.5691662
vn 0.63419604 0.13327336 -0.76159936
vn 0.9601337 0.1143235 -0.25509506
vn 0.6929406 0.6998743 -0.173232
vn 0.5621866 0.6543946 0.50568163
vn 0.639881 0.22612774 0.73445123
vn -0.28297734 0.7074542 0.647636
vn 0.639881 0.22612774 0.73445123
vn -0.3625667 0.19012296 0.9123588
vn -0.9253776 0.12379849 0.35825998
vn -0.7131392 0.6562896 0.24640714
vn -0.43078625 0.6240748 -0.6518848
vn 0.63419604 0.13327336 -0.76159936
vn -0.1673832 0.1010586 -0.9806987
vn -0.9253776 0.12379849 0.35825998
vn -0.9007429 0.09158373 -0.42458764
vn -0.1673832 0.1010586 -0.9806987
g fcbg_cityforestcrystal_001_stone_01_0
f 3/3/3 2/2/2 1/1/1
f 4/4/4 3/3/3 1/1/1
f 6/6/6 5/5/5 4/4/4
f 5/5/5 7/7/7 4/4/4
f 4/4/4 7/7/7 8/8/8
f 5/5/5 9/9/9 7/7/7
f 7/7/7 10/10/10 8/8/8
f 9/9/9 11/11/11 7/7/7
f 7/7/7 11/11/11 10/10/10
f 11/11/11 12/12/12 10/10/10
f 14/14/14 13/13/13 3/3/3
f 15/15/15 14/14/14 3/3/3
f 14/14/14 16/16/16 13/13/13
f 16/16/16 17/17/17 13/13/13
f 18/18/18 16/16/16 14/14/14
f 19/19/19 18/18/18 14/14/14
f 19/19/19 14/14/14 15/15/15
f 20/20/20 19/19/19 15/15/15
f 23/23/23 22/22/22 21/21/21
f 24/24/24 23/23/23 21/21/21
f 26/26/26 25/25/25 24/24/24
f 25/25/25 27/27/27 24/24/24
f 25/25/25 28/28/28 27/27/27
f 28/28/28 29/29/29 27/27/27
f 31/31/31 30/30/30 23/23/23
f 32/32/32 31/31/31 23/23/23
f 31/31/31 33/33/33 30/30/30
f 33/33/33 34/34/34 30/30/30
f 35/35/35 33/33/33 31/31/31
f 36/36/36 35/35/35 31/31/31
f 36/36/36 31/31/31 32/32/32
f 37/37/37 36/36/36 32/32/32
f 40/40/40 39/39/39 38/38/38
f 39/39/39 41/41/41 38/38/38
f 39/39/39 42/42/42 41/41/41
f 42/42/42 43/43/43 41/41/41
f 46/46/46 45/45/45 44/44/44
f 47/47/47 46/46/46 44/44/44
f 46/46/46 47/47/47 48/48/48
f 49/49/49 46/46/46 48/48/48
f 50/50/50 48/48/48 47/47/47
f 50/50/50 47/47/47 44/44/44
f 51/51/51 48/48/48 50/50/50
f 52/52/52 51/51/51 50/50/50
f 52/52/52 50/50/50 53/53/53
f 50/50/50 54/54/54 53/53/53
f 54/54/54 50/50/50 44/44/44
f 55/55/55 54/54/54 44/44/44
f 44/44/44 56/56/56 55/55/55
f 56/56/56 57/57/57 55/55/55
f 58/58/58 54/54/54 55/55/55
f 59/59/59 58/58/58 55/55/55
f 55/55/55 60/60/60 59/59/59
