g fcbg_cityforest_005_water_01
v 167.35822 -0.39135742 55.211796
v 167.3582 4.1444836 55.211796
v 112.49698 4.1444836 42.297768
v 167.35818 4.1444845 162.20343
v 112.49698 -0.39135742 42.297764
v 167.35822 -0.39135742 -141.05243
v 90.7266 4.1444836 43.50451
v 90.7266 -0.39135742 43.504513
v 44.5537 4.1444826 39.921776
v -146.7977 4.1444845 162.20343
v 44.553703 -0.39135793 39.92178
v -14.3223095 4.144483 -17.715527
v -14.322311 -0.39135766 -17.715527
v -36.404625 -0.39135742 -105.794395
v -54.966053 4.1444836 -117.49145
v -146.7977 4.1444836 -141.05243
v -62.89507 4.1444836 -141.05243
v -36.404625 4.1444836 -105.794395
v -54.966057 -0.39135745 -117.49144
v -62.895073 -0.39135742 -141.05243
vt 0.950077 0.3390253
vt 0.9460227 0.3284299
vt 0.8485691 0.36585206
vt 0.95885867 0.07674977
vt 0.85077286 0.37750888
vt 0.95477116 0.90577585
vt 0.7879401 0.36578703
vt 0.7860083 0.37865463
vt 0.66459644 0.3508969
vt 0.033823945 0.044580594
vt 0.67021024 0.36359072
vt 0.45319676 0.5499322
vt 0.46490386 0.55576193
vt 0.40040734 0.83798873
vt 0.33581856 0.8708079
vt 0.04503359 0.95506096
vt 0.31238142 0.9465198
vt 0.38851523 0.830736
vt 0.34721133 0.87903255
vt 0.32392117 0.95017767
vn 0.17434135 0.6488955 -0.74063474
vn 0.15056193 0.7538059 -0.63961536
vn 0.06466756 0.6763359 -0.7337492
vn -0 1 0
vn 0.058981992 0.74070346 -0.66923803
vn -0 1 0
vn 0.007629004 0.72235197 -0.69148344
vn 0.007959093 0.6924716 -0.7214012
vn 0.2519848 0.7926691 -0.55513906
vn -0 1 0
vn 0.31838292 0.6376858 -0.70141935
vn 0.54956365 0.77368206 -0.31527123
vn 0.65860915 0.6507534 -0.37782797
vn 0.48452342 0.8012282 -0.35109898
vn 0.4809484 0.7909145 -0.37834245
vn -0 1 0
vn 0.6047638 0.76996064 -0.20352212
vn 0.6274443 0.6321351 -0.45466337
vn 0.6046626 0.6388484 -0.4756637
vn 0.7424916 0.6215064 -0.24987191
g fcbg_cityforest_005_water_01_0
f 3/3/3 2/2/2 1/1/1
f 2/2/2 3/3/3 4/4/4
f 5/5/5 3/3/3 1/1/1
f 1/1/1 6/6/6 5/5/5
f 3/3/3 7/7/7 4/4/4
f 7/7/7 3/3/3 5/5/5
f 8/8/8 5/5/5 6/6/6
f 8/8/8 7/7/7 5/5/5
f 7/7/7 9/9/9 4/4/4
f 9/9/9 10/10/10 4/4/4
f 9/9/9 7/7/7 11/11/11
f 7/7/7 8/8/8 11/11/11
f 9/9/9 12/12/12 10/10/10
f 12/12/12 9/9/9 11/11/11
f 13/13/13 11/11/11 8/8/8
f 13/13/13 12/12/12 11/11/11
f 8/8/8 6/6/6 14/14/14
f 14/14/14 13/13/13 8/8/8
f 10/10/10 12/12/12 15/15/15
f 16/16/16 10/10/10 15/15/15
f 17/17/17 16/16/16 15/15/15
f 12/12/12 13/13/13 18/18/18
f 13/13/13 14/14/14 18/18/18
f 12/12/12 18/18/18 15/15/15
f 15/15/15 18/18/18 14/14/14
f 14/14/14 6/6/6 19/19/19
f 19/19/19 15/15/15 14/14/14
f 17/17/17 15/15/15 19/19/19
f 6/6/6 20/20/20 19/19/19
f 20/20/20 17/17/17 19/19/19
