g fcbg_wasteland_grass_02
v -1.8486928 0.023784041 -0.2581136
v -1.8486928 2.138815 -0.25811324
v -0 2.138815 0.25811347
v -0 0.023783922 0.25811312
v 1.8486928 2.138815 -0.25811324
v 1.8486928 0.023784041 -0.2581136
vt 0.31293425 0.8388301
vt 0.31293425 0.99057186
vt 0.4455677 0.99057186
vt 0.4455677 0.8388301
vt 0.5782011 0.99057186
vt 0.5782011 0.8388301
vn -0.26894996 0 0.9631541
vn -0.26894996 0 0.9631541
vn -0 0 1
vn -0 0 1
vn 0.26894996 0 0.9631541
vn 0.26894996 0 0.9631541
g fcbg_wasteland_grass_02_0
f 3/3/3 2/2/2 1/1/1
f 4/4/4 3/3/3 1/1/1
f 5/5/5 3/3/3 4/4/4
f 6/6/6 5/5/5 4/4/4
