g fcbg_desert_004_stone_07
v 0.53807735 -0.0011054277 0.43114257
v 0.3957057 0.5098455 0.2884586
v 0.642959 -0.0011085272 0.099187374
v -0.25773752 -0.0011054277 0.8413646
v -0.3170029 0.5543549 0.6644254
v -1.0742486 -0.0010992289 0.70143914
v -0.9424987 0.67951226 0.52964497
v -1.3925669 -0.0010961294 -0.3203609
v -0.24417508 0.599597 0.35511434
v 0.45319307 0.50149035 -0.07624304
v -1.2375267 0.7009411 -0.36212432
v -1.3376927 -0.0011456013 -1.2058406
v 0.80553514 0.46422005 -0.44824553
v 0.23577654 0.5339184 -0.86304724
v 1.1535296 -0.0011270046 -0.46969306
v 0.81415623 0.4271443 -1.0473895
v 1.1465381 -0.0011456013 -1.0694957
v 0.6643447 0.42297912 -1.2157202
v 0.74457526 -0.0011548996 -1.4968858
v -0.2689066 0.5527408 -1.3873441
v -0.2689159 0.5527439 -1.3873441
v -0.30901253 -0.0011548996 -1.6212082
v -1.1637866 0.6975119 -1.0606334
v 0.010805726 0.8035903 -0.89481354
v 0.13351703 0.55228925 -0.08801508
v 0.00061678886 0.81007147 -0.11459267
v -0.32283473 0.75563 0.26858807
v 1.39257 -0.0012198687 0.78719854
v 0.6466604 0.38796902 1.0039039
v 0.49478948 -0.0012198687 0.85337496
v 1.2407084 0.38796902 0.9377334
v 1.3886831 -0.0012198687 1.5822866
v 0.70504135 0.38796902 1.4706886
v 0.55317044 -0.0012198687 1.6212082
v 1.2368091 0.38796902 1.4317422
vt 0.44983798 0.69420433
vt 0.44602427 0.70409566
vt 0.45640182 0.6987018
vt 0.42838395 0.693551
vt 0.43272945 0.7043692
vt 0.41428384 0.70693696
vt 0.42598328 0.7113888
vt 0.41401035 0.7296065
vt 0.43630007 0.7084108
vt 0.45059767 0.7091249
vt 0.42716843 0.724866
vt 0.42277732 0.7435395
vt 0.45912156 0.7130298
vt 0.45198035 0.7234377
vt 0.4703044 0.70877546
vt 0.46317837 0.7232858
vt 0.47393578 0.72182715
vt 0.46153742 0.72708434
vt 0.46930158 0.7342559
vt 0.44719422 0.73498523
vt 0.4469967 0.73516756
vt 0.44985318 0.74718606
vt 0.43198493 0.7342863
vt 0.4461458 0.7251091
vt 0.44523418 0.7118598
vt 0.44192186 0.71486825
vt 0.43558595 0.71157116
vt 0.493369 0.7331771
vt 0.49022382 0.74996656
vt 0.49602798 0.75446403
vt 0.48920584 0.73910284
vt 0.47425485 0.73676294
vt 0.48165438 0.75065035
vt 0.4772177 0.7565912
vt 0.48039326 0.7409869
vn 0.71366227 0.3542986 0.60428363
vn 0.56953096 0.7224411 0.39206302
vn 0.812644 0.41507673 0.40904894
vn 0.16144842 0.32130468 0.93311185
vn 0.15450233 0.6842376 0.71270466
vn -0.6199863 0.2987299 0.72551876
vn -0.44807065 0.6981298 0.5584331
vn -0.9638176 0.23968816 0.11664149
vn 0.3090527 0.8665724 0.39184016
vn 0.47575882 0.8596263 0.18626906
vn -0.6859741 0.7224411 0.08670877
vn -0.76759064 0.29525685 -0.5688831
vn 0.55216575 0.8040576 0.22046386
vn 0.4271362 0.8926202 -0.14416602
vn 0.7796501 0.57483673 0.24841192
vn 0.5348005 0.8040576 -0.25976872
vn 0.7570753 0.59220195 -0.27592358
vn 0.34899274 0.7884289 -0.50654113
vn 0.4028249 0.5244776 -0.75010353
vn 0.18575972 0.75369847 -0.63042206
vn -0.055616796 0.6772915 -0.73360956
vn -0.10076636 0.3699273 -0.92357993
vn -0.5661541 0.6998663 -0.43549585
vn 0.43755534 0.8544167 -0.2802095
vn 0.46360317 0.87351847 0.14845055
vn 0.47228578 0.8526802 0.2233441
vn 0.21528059 0.86483586 0.45355618
vn 0.59384227 0.49842978 -0.6316005
vn -0.5088489 0.75890803 -0.4063636
vn -0.6616628 0.48106456 -0.5751341
vn 0.4340823 0.76064456 -0.48269287
vn 0.6372553 0.47064543 0.6102447
vn -0.4133402 0.76064456 0.5005694
vn -0.5869924 0.47411847 0.6562406
vn 0.47228578 0.76064456 0.44538295
g fcbg_desert_004_stone_07_0
f 3/3/3 2/2/2 1/1/1
f 1/1/1 2/2/2 4/4/4
f 2/2/2 5/5/5 4/4/4
f 4/4/4 5/5/5 6/6/6
f 5/5/5 7/7/7 6/6/6
f 6/6/6 7/7/7 8/8/8
f 5/5/5 2/2/2 9/9/9
f 7/7/7 5/5/5 9/9/9
f 10/10/10 2/2/2 3/3/3
f 2/2/2 10/10/10 9/9/9
f 7/7/7 11/11/11 8/8/8
f 8/8/8 11/11/11 12/12/12
f 13/13/13 10/10/10 3/3/3
f 13/13/13 14/14/14 10/10/10
f 15/15/15 13/13/13 3/3/3
f 16/16/16 13/13/13 15/15/15
f 14/14/14 13/13/13 16/16/16
f 17/17/17 16/16/16 15/15/15
f 18/18/18 16/16/16 17/17/17
f 16/16/16 18/18/18 14/14/14
f 19/19/19 18/18/18 17/17/17
f 20/20/20 18/18/18 19/19/19
f 18/18/18 20/20/20 14/14/14
f 21/21/21 20/20/20 19/19/19
f 22/22/22 21/21/21 19/19/19
f 12/12/12 23/23/23 22/22/22
f 23/23/23 21/21/21 22/22/22
f 11/11/11 23/23/23 12/12/12
f 24/24/24 20/20/20 21/21/21
f 23/23/23 24/24/24 21/21/21
f 14/14/14 20/20/20 24/24/24
f 24/24/24 23/23/23 11/11/11
f 14/14/14 25/25/25 10/10/10
f 10/10/10 25/25/25 9/9/9
f 14/14/14 24/24/24 26/26/26
f 25/25/25 14/14/14 26/26/26
f 26/26/26 24/24/24 11/11/11
f 25/25/25 26/26/26 9/9/9
f 26/26/26 11/11/11 27/27/27
f 9/9/9 26/26/26 27/27/27
f 11/11/11 7/7/7 27/27/27
f 7/7/7 9/9/9 27/27/27
f 30/30/30 29/29/29 28/28/28
f 29/29/29 31/31/31 28/28/28
f 28/28/28 31/31/31 32/32/32
f 33/33/33 29/29/29 30/30/30
f 31/31/31 29/29/29 33/33/33
f 34/34/34 33/33/33 30/30/30
f 32/32/32 35/35/35 34/34/34
f 31/31/31 35/35/35 32/32/32
f 35/35/35 31/31/31 33/33/33
f 35/35/35 33/33/33 34/34/34
