g fcbg_cityforest_006_building_06
v 4.663432 5.1940094E-07 -1.4054852
v 4.663432 -5.194007E-07 1.4054847
v 4.663432 2.100101 1.4054855
v 4.663432 2.100102 -1.4054843
v 4.663432 2.755639 0.10672065
v 4.663432 2.755639 -0.106719024
v 4.663432 2.8553703 0.06336243
v 4.663432 2.8553703 -0.058486767
v 4.663432 5.1940094E-07 -1.4054852
v 4.663432 2.100102 -1.4054843
v -4.663432 2.100102 -1.4054838
v -4.663432 5.194007E-07 -1.4054847
v -4.663432 -5.1940094E-07 1.4054852
v -4.663432 5.194007E-07 -1.4054847
v -4.663432 2.100102 -1.4054838
v -4.663432 2.100101 1.405486
v -4.663432 2.755639 -0.10671862
v -4.663432 2.755639 0.10672105
v -4.663432 2.8553703 -0.058486346
v -4.663432 2.8553703 0.063362814
v -4.663432 -5.1940094E-07 1.4054852
v -4.663432 2.100101 1.405486
v 4.663432 2.100101 1.4054855
v 4.663432 -5.194007E-07 1.4054847
v 4.663432 2.755639 -0.106719024
v -4.663432 2.100102 -1.4054838
v 4.663432 2.100102 -1.4054843
v -4.663432 2.755639 -0.10671862
v -4.663432 2.8553703 -0.058486346
v 4.663432 2.8553703 -0.058486767
v -4.663432 2.8553703 0.063362814
v 4.663432 2.8553703 0.06336243
v -4.663432 2.755639 0.10672105
v 4.663432 2.755639 0.10672065
v 4.663432 2.100101 1.4054855
v -4.663432 2.100101 1.405486
vt 0.13069364 0.20867224
vt 0.13069366 0.27219993
vt 0.17765228 0.27219993
vt 0.17765227 0.20867224
vt 0.19231024 0.2439154
vt 0.19231024 0.23695679
vt 0.19231024 0.24242075
vt 0.19231024 0.2396669
vt 0.69655836 0.949249
vt 0.7274677 0.949249
vt 0.72746766 0.81442064
vt 0.69655836 0.81442064
vt 0.13069364 0.20867224
vt 0.13069366 0.27219993
vt 0.17765228 0.27219993
vt 0.17765227 0.20867224
vt 0.19231024 0.2439154
vt 0.19231024 0.23695679
vt 0.19231024 0.2423106
vt 0.19231024 0.23955674
vt 0.13069358 0.0038360767
vt 0.17765227 0.0038360767
vt 0.17765221 0.20867224
vt 0.13069364 0.20867224
vt 0.21716851 0.20862068
vt 0.18272755 0.004367632
vt 0.18272755 0.20862068
vt 0.2171685 0.004367632
vt 0.2197957 0.004367632
vt 0.21979572 0.20862068
vt 0.22314885 0.004367632
vt 0.22314887 0.20862068
vt 0.22564176 0.004367632
vt 0.22564183 0.20862068
vt 0.2600828 0.20862068
vt 0.2600828 0.004367632
vn 0.70710665 0 -0.7071068
vn 0.70710677 0 0.70710677
vn 0.60599387 0.41692165 0.67745686
vn 0.60599387 0.41692215 -0.67745656
vn 0.7921397 0.41902834 0.44376785
vn 0.78689414 0.43262875 -0.4400341
vn 0.60203606 0.6677372 0.43781233
vn 0.604809 0.6746578 -0.4231345
vn 0.70710665 0 -0.7071068
vn 0.60599387 0.41692215 -0.67745656
vn -0.6059939 0.4169221 -0.67745644
vn -0.7071067 0 -0.70710677
vn -0.7071067 0 0.7071068
vn -0.7071067 0 -0.70710677
vn -0.6059939 0.4169221 -0.67745644
vn -0.60599387 0.4169217 0.6774569
vn -0.78689414 0.4326288 -0.4400341
vn -0.7921397 0.41902834 0.44376785
vn -0.6048091 0.6746578 -0.42313445
vn -0.602036 0.6677371 0.43781236
vn -0.7071067 0 0.7071068
vn -0.60599387 0.4169217 0.6774569
vn 0.60599387 0.41692165 0.67745686
vn 0.70710677 0 0.70710677
vn 0.78689414 0.43262875 -0.4400341
vn -0.6059939 0.4169221 -0.67745644
vn 0.60599387 0.41692215 -0.67745656
vn -0.78689414 0.4326288 -0.4400341
vn -0.6048091 0.6746578 -0.42313445
vn 0.604809 0.6746578 -0.4231345
vn -0.602036 0.6677371 0.43781236
vn 0.60203606 0.6677372 0.43781233
vn -0.7921397 0.41902834 0.44376785
vn 0.7921397 0.41902834 0.44376785
vn 0.60599387 0.41692165 0.67745686
vn -0.60599387 0.4169217 0.6774569
g fcbg_cityforest_006_building_06_0
f 3/3/3 2/2/2 1/1/1
f 4/4/4 3/3/3 1/1/1
f 5/5/5 3/3/3 4/4/4
f 6/6/6 5/5/5 4/4/4
f 7/7/7 5/5/5 6/6/6
f 8/8/8 7/7/7 6/6/6
f 11/11/11 10/10/10 9/9/9
f 12/12/12 11/11/11 9/9/9
f 15/15/15 14/14/14 13/13/13
f 16/16/16 15/15/15 13/13/13
f 17/17/17 15/15/15 16/16/16
f 18/18/18 17/17/17 16/16/16
f 19/19/19 17/17/17 18/18/18
f 20/20/20 19/19/19 18/18/18
f 23/23/23 22/22/22 21/21/21
f 24/24/24 23/23/23 21/21/21
f 27/27/27 26/26/26 25/25/25
f 26/26/26 28/28/28 25/25/25
f 28/28/28 29/29/29 25/25/25
f 29/29/29 30/30/30 25/25/25
f 30/30/30 29/29/29 31/31/31
f 32/32/32 30/30/30 31/31/31
f 32/32/32 31/31/31 33/33/33
f 34/34/34 32/32/32 33/33/33
f 35/35/35 34/34/34 33/33/33
f 36/36/36 35/35/35 33/33/33
