g fcbg_cityforest_005_stone_06
v 0.038742065 0.18099935 -0.20817944
v 0.07555199 2.6534024E-05 -0.24404526
v 0.19366837 2.6503942E-05 -0.19658852
v -0.16605473 2.651095E-05 -0.19387817
v 0.17119122 0.088797 -0.18200682
v 0.26285648 2.6388021E-05 0.011884689
v 0.22231865 0.10363719 0.00040628214
v 0.15818882 2.6244754E-05 0.20527649
v 0.102957726 0.18099912 0.15034106
v -0.11495972 2.6208287E-05 0.2461853
v -0.14899349 0.15362571 -0.16018865
v -0.26376247 2.6373458E-05 -0.03592682
v -0.10117054 0.1536255 0.18913463
v -0.25472355 2.6243315E-05 0.12264633
v -0.23137856 0.1004866 -0.038055405
vt 0.03593321 0.5820665
vt 0.04681395 0.5763336
vt 0.037189372 0.5659929
vt 0.04681395 0.5964375
vt 0.03496515 0.5735183
vt 0.017822102 0.5659929
vt 0.023343297 0.5727294
vt 0.006066523 0.5795088
vt 0.017783925 0.58309484
vt 0.006066523 0.5983108
vt 0.036209702 0.59346575
vt 0.03484971 0.60910124
vt 0.01730717 0.59421843
vt 0.018308638 0.60910124
vt 0.03221786 0.6016334
vn 0.097229235 0.7674024 -0.6337506
vn 0.10045998 0.22954181 -0.96810037
vn 0.70326835 0.30218458 -0.6435045
vn -0.5710794 0.22124334 -0.7905187
vn 0.66048354 0.48415315 -0.5738965
vn 0.92436683 0.3678222 0.10125525
vn 0.80562055 0.5916278 0.030853862
vn 0.5390353 0.39003035 0.7465368
vn 0.34576353 0.8001055 0.49018234
vn -0.2624692 0.35418862 0.8975858
vn -0.49441633 0.6934905 -0.5240453
vn -0.8960006 0.425587 -0.12672193
vn -0.31537536 0.73536277 0.5998166
vn -0.7852375 0.49172032 0.37631524
vn -0.79383594 0.60075486 -0.09443543
g fcbg_cityforest_005_stone_06_0
f 3/3/3 2/2/2 1/1/1
f 2/2/2 4/4/4 1/1/1
f 5/5/5 3/3/3 1/1/1
f 6/6/6 3/3/3 5/5/5
f 7/7/7 6/6/6 5/5/5
f 5/5/5 1/1/1 7/7/7
f 6/6/6 7/7/7 8/8/8
f 7/7/7 9/9/9 8/8/8
f 7/7/7 1/1/1 9/9/9
f 10/10/10 8/8/8 9/9/9
f 4/4/4 11/11/11 1/1/1
f 1/1/1 11/11/11 9/9/9
f 4/4/4 12/12/12 11/11/11
f 13/13/13 10/10/10 9/9/9
f 11/11/11 13/13/13 9/9/9
f 10/10/10 13/13/13 14/14/14
f 12/12/12 15/15/15 11/11/11
f 12/12/12 14/14/14 15/15/15
f 14/14/14 13/13/13 15/15/15
f 11/11/11 15/15/15 13/13/13
