g fcbg_cityforestcrystal_003_flowerpot_01
v -1.0419445 -4.7683716E-07 0.43712425
v 2.5787408 0.4278171 0.4377873
v 2.579321 -4.7683716E-07 0.43712425
v -1.0418997 0.4278171 0.4377873
v 2.5787408 0.4278171 -0.2074771
v -1.0418997 0.4278171 -0.2074771
v -1.0419445 -4.7683716E-07 -0.20711446
v -1.0419445 -4.7683716E-07 0.43712425
v 2.579321 -4.7683716E-07 0.43712425
v 2.5787408 0.4278171 0.4377873
v 2.5787408 0.4278171 -0.2074771
v 2.579321 -4.7683716E-07 -0.20711446
v 2.579321 -4.7683716E-07 -0.20711446
v 2.5787408 0.4278171 -0.2074771
v -1.0418997 0.4278171 -0.2074771
v -1.0419445 -4.7683716E-07 -0.20711446
vt 0.24303183 0.45932364
vt 0.1055841 0.4509279
vt 0.1055841 0.45932364
vt 0.24303183 0.4509279
vt 0.1055841 0.43462056
vt 0.24303183 0.43462056
vt 0.25083756 0.43462056
vt 0.25083756 0.4509279
vt 0.25083756 0.4509279
vt 0.24303183 0.4509279
vt 0.24303183 0.43462056
vt 0.25083756 0.43462056
vt 0.1055841 0.45932364
vt 0.1055841 0.4509279
vt 0.24303183 0.4509279
vt 0.24303183 0.45932364
vn -0.6874687 -0.10550594 0.7185091
vn 0.6081712 0.5369379 0.58465844
vn 0.6874687 -0.10550594 0.7185091
vn -0.6081713 0.5369379 0.5846583
vn 0.6081712 0.5369379 -0.58465844
vn -0.6081713 0.5369379 -0.5846583
vn -0.6874687 -0.10550594 -0.7185091
vn -0.6874687 -0.10550594 0.7185091
vn 0.6874687 -0.10550594 0.7185091
vn 0.6081712 0.5369379 0.58465844
vn 0.6081712 0.5369379 -0.58465844
vn 0.6874687 -0.10550594 -0.7185091
vn 0.6874687 -0.10550594 -0.7185091
vn 0.6081712 0.5369379 -0.58465844
vn -0.6081713 0.5369379 -0.5846583
vn -0.6874687 -0.10550594 -0.7185091
g fcbg_cityforestcrystal_003_flowerpot_01_0
f 3/3/3 2/2/2 1/1/1
f 2/2/2 4/4/4 1/1/1
f 2/2/2 5/5/5 4/4/4
f 5/5/5 6/6/6 4/4/4
f 4/4/4 6/6/6 7/7/7
f 8/8/8 4/4/4 7/7/7
f 11/11/11 10/10/10 9/9/9
f 12/12/12 11/11/11 9/9/9
f 15/15/15 14/14/14 13/13/13
f 16/16/16 15/15/15 13/13/13
