g fcbg_arkcity_001_etc_04
v 1.7326357 1.0489695 -0.7280501
v 1.7326357 1.0350368 0.72846913
v -1.732635 1.0350368 0.72846913
v -1.732635 1.0489695 -0.7280501
v 1.7326357 -1.0350342 -0.72847974
v -1.732635 -1.0350342 -0.72847974
v -1.732635 1.0350368 0.72846913
v -1.732635 -1.0489703 0.72804284
v 1.7326357 -1.0489703 0.72804284
v 1.7326357 1.0350368 0.72846913
v 1.7326357 1.0489695 -0.7280501
v 1.7326357 -1.0350342 -0.72847974
vt 0.446239 0.90206325
vt 0.446239 0.91406256
vt 0.47864184 0.91406256
vt 0.47864184 0.90206325
vt 0.446239 0.87990004
vt 0.47864184 0.87990004
vt 0.49132386 0.90206325
vt 0.49132386 0.87990004
vt 0.49132386 0.87990004
vt 0.49132386 0.90206325
vt 0.47864184 0.90206325
vt 0.47864184 0.87990004
vn 0.5777123 0.5796673 -0.5746601
vn 0.7086996 0.7047895 0.031884898
vn -0.7086996 0.7047895 0.031884898
vn -0.5777123 0.5796673 -0.5746601
vn 0.7086996 0.0009775162 -0.7055097
vn -0.7086996 0.0009775162 -0.7055097
vn -0.7086996 0.7047895 0.031884898
vn -0.9999995 0.0009775162 -0
vn 0.9999995 0.0009775162 -0
vn 0.7086996 0.7047895 0.031884898
vn 0.5777123 0.5796673 -0.5746601
vn 0.7086996 0.0009775162 -0.7055097
g fcbg_arkcity_001_etc_04_0
f 3/3/3 2/2/2 1/1/1
f 4/4/4 3/3/3 1/1/1
f 4/4/4 1/1/1 5/5/5
f 6/6/6 4/4/4 5/5/5
f 7/7/7 4/4/4 6/6/6
f 8/8/8 7/7/7 6/6/6
f 11/11/11 10/10/10 9/9/9
f 12/12/12 11/11/11 9/9/9
