g fcbg_cityforest_005_barrier_03
v 1.6292537 1.2299227 -0.9867004
v 1.9925537 -0.0001619194 -0.9867005
v 1.7793614 -0.000174932 -0.04661244
v 1.4532284 1.2411456 -0.27760148
v 1.2475979 2.497093 -0.3895939
v 1.3134642 2.5012774 -0.9867005
v 0.8736814 2.825132 -0.9867004
v 0.6209912 1.2073252 0.3290739
v 0.66635287 2.513564E-05 0.8214346
v 0.3515083 1.121768 0.69596016
v 0.4049117 7.515252E-05 0.9621639
v -0.3606558 0.00020202462 0.98670065
v 0.18667538 1.3392966 0.30104446
v -1.0077899 -3.34208E-05 0.73362494
v 0.7025391 2.5336723 -0.26445717
v 0.6695767 2.838429 -0.5512298
v 0.29454273 2.714963 -0.18498057
v -0.24432547 2.8478363 0.016987324
v -0.45840102 3.36659 -0.42085308
v -0.58341396 3.5536344 -0.9867006
v -0.682127 2.5532663 -0.07907826
v -0.90289587 3.1542263 -0.6626831
v -0.98054975 3.1398458 -0.9867007
v -1.184456 1.7309618 -0.98670083
v -1.154602 1.5291262 -0.44559032
v -1.6210263 0.00018169257 0.0011254549
v -1.7484856 1.4033915 -0.9867007
v -1.9925534 0.00015851398 -0.98670083
v -1.9925534 0.00015851398 -0.98670083
v 1.9925537 -0.0001619194 -0.9867005
v 1.6292537 1.2299227 -0.9867004
v -1.7484856 1.4033915 -0.9867007
v -1.184456 1.7309618 -0.98670083
v 1.3134642 2.5012774 -0.9867005
v 0.8736814 2.825132 -0.9867004
v -0.98054975 3.1398458 -0.9867007
v -0.58341396 3.5536344 -0.9867006
vt 0.59604424 0.24909927
vt 0.6272881 0.2191494
vt 0.65347993 0.242457
vt 0.6155005 0.2673127
vt 0.58019865 0.29173648
vt 0.5611906 0.28148264
vt 0.5510532 0.29998797
vt 0.63542 0.2967168
vt 0.68051237 0.28115314
vt 0.6481997 0.30415928
vt 0.68571657 0.2901281
vt 0.692286 0.31500626
vt 0.6339791 0.3139547
vt 0.6926039 0.33811998
vt 0.583799 0.30911428
vt 0.566647 0.311211
vt 0.58225685 0.324435
vt 0.58706695 0.3446493
vt 0.5664919 0.36254686
vt 0.5527713 0.3812183
vt 0.5991901 0.3574254
vt 0.5749389 0.3776431
vt 0.57145894 0.38995367
vt 0.61836535 0.39650655
vt 0.63213545 0.37707722
vt 0.69119215 0.37025458
vt 0.63863385 0.40551496
vt 0.68601567 0.4076019
vt 0.23999038 0.12840757
vt 0.088311374 0.12844115
vt 0.10215344 0.17434785
vt 0.23071723 0.18078369
vt 0.20925318 0.19301614
vt 0.11418774 0.22179541
vt 0.13093019 0.23387769
vt 0.20150858 0.24560267
vt 0.18639787 0.2610512
vn 0.9477308 0.24065731 0.2095002
vn 0.934442 0.2811091 0.21862297
vn 0.7942194 0.31329533 0.5206357
vn 0.8058892 0.2459938 0.538544
vn 0.66471857 0.53922856 0.5170898
vn 0.8336104 0.5439875 0.09576696
vn 0.4897861 0.85819876 0.15363732
vn 0.45922494 0.43581524 0.77406555
vn 0.5516095 0.27788943 0.7864504
vn 0.09633823 0.61723775 0.7808563
vn 0.25070742 0.23481862 0.93915176
vn -0.2338053 0.44921416 0.86228865
vn 0.024731208 0.4785795 0.877696
vn -0.49460843 0.41943452 0.7612077
vn 0.2796227 0.50394297 0.81722254
vn 0.41216004 0.81425774 0.40878892
vn 0.39207977 0.4990316 0.7728137
vn 0.025359495 0.50071186 0.8652425
vn -0.08571406 0.82280725 0.5618197
vn -0.16596307 0.9430649 0.28824428
vn -0.634814 0.3201977 0.70319605
vn -0.79208964 0.46762085 0.39233238
vn -0.8921078 0.40722716 0.19572866
vn -0.83928883 0.4890304 0.23757821
vn -0.81246394 0.37048778 0.45015696
vn -0.7836374 0.32202658 0.53123564
vn -0.71286684 0.4847341 0.5068073
vn -0.9238275 0.16068359 0.34745303
vn -0 0 -1
vn -0 0 -1
vn -0 0 -1
vn -0 0 -1
vn -0 0 -1
vn -0 0 -1
vn -0 0 -1
vn -0 0 -1
vn -0 0 -1
g fcbg_cityforest_005_barrier_03_0
f 3/3/3 2/2/2 1/1/1
f 4/4/4 3/3/3 1/1/1
f 4/4/4 1/1/1 5/5/5
f 1/1/1 6/6/6 5/5/5
f 7/7/7 5/5/5 6/6/6
f 3/3/3 4/4/4 8/8/8
f 8/8/8 4/4/4 5/5/5
f 9/9/9 3/3/3 8/8/8
f 9/9/9 8/8/8 10/10/10
f 11/11/11 9/9/9 10/10/10
f 10/10/10 12/12/12 11/11/11
f 10/10/10 13/13/13 12/12/12
f 13/13/13 10/10/10 8/8/8
f 14/14/14 12/12/12 13/13/13
f 8/8/8 5/5/5 15/15/15
f 15/15/15 13/13/13 8/8/8
f 7/7/7 16/16/16 5/5/5
f 15/15/15 5/5/5 16/16/16
f 15/15/15 17/17/17 13/13/13
f 17/17/17 15/15/15 16/16/16
f 17/17/17 18/18/18 13/13/13
f 18/18/18 17/17/17 16/16/16
f 14/14/14 13/13/13 18/18/18
f 7/7/7 19/19/19 16/16/16
f 19/19/19 18/18/18 16/16/16
f 20/20/20 19/19/19 7/7/7
f 21/21/21 14/14/14 18/18/18
f 18/18/18 19/19/19 21/21/21
f 20/20/20 22/22/22 19/19/19
f 21/21/21 19/19/19 22/22/22
f 20/20/20 23/23/23 22/22/22
f 23/23/23 24/24/24 22/22/22
f 21/21/21 25/25/25 14/14/14
f 21/21/21 22/22/22 25/25/25
f 22/22/22 24/24/24 25/25/25
f 25/25/25 26/26/26 14/14/14
f 27/27/27 25/25/25 24/24/24
f 27/27/27 26/26/26 25/25/25
f 27/27/27 28/28/28 26/26/26
f 31/31/31 30/30/30 29/29/29
f 32/32/32 31/31/31 29/29/29
f 31/31/31 32/32/32 33/33/33
f 34/34/34 31/31/31 33/33/33
f 35/35/35 34/34/34 33/33/33
f 36/36/36 35/35/35 33/33/33
f 37/37/37 35/35/35 36/36/36
