g fcbg_iceland_004_device_01
v 0.551467 1.3909899 -0.43772313
v 0.5514671 1.3909899 0.43772274
v -0.551467 1.3909899 0.43772292
v -0.5514671 1.3909899 -0.43772295
v 0.551467 1.5409795E-06 -0.437723
v -0.5514671 1.5409795E-06 -0.43772283
v -0.5514671 1.5409795E-06 -0.43772283
v -0.551467 1.6175132E-06 0.437723
v 0.5514671 1.6175132E-06 0.43772283
v 0.5514671 1.3909899 0.43772274
v 0.551467 1.3909899 -0.43772313
v 0.551467 1.5409795E-06 -0.437723
vt 0.74211764 0.29974708
vt 0.74211764 0.3348413
vt 0.70064044 0.3348413
vt 0.70064044 0.2997471
vt 0.74211764 0.24309893
vt 0.70064044 0.2430989
vt 0.6496949 0.29974708
vt 0.64969486 0.33484134
vt 0.64969486 0.33484152
vt 0.70064044 0.3348413
vt 0.70064044 0.2997471
vt 0.6496949 0.29974708
vn 0.5773502 0.5773502 -0.5773504
vn 0.70710677 0.7071067 0
vn -0.7071068 0.7071067 0
vn -0.5773504 0.57735026 -0.5773502
vn 0.70710665 0 -0.7071068
vn -0.7071069 0 -0.70710665
vn -0.7071069 0 -0.70710665
vn -1 0 0
vn 1 0 0
vn 0.70710677 0.7071067 0
vn 0.5773502 0.5773502 -0.5773504
vn 0.70710665 0 -0.7071068
g fcbg_iceland_004_device_01_0
f 3/3/3 2/2/2 1/1/1
f 4/4/4 3/3/3 1/1/1
f 4/4/4 1/1/1 5/5/5
f 6/6/6 4/4/4 5/5/5
f 3/3/3 4/4/4 7/7/7
f 8/8/8 3/3/3 7/7/7
f 11/11/11 10/10/10 9/9/9
f 12/12/12 11/11/11 9/9/9
