g fcbg_OuterRim_waste_10
v -1.6758378 0.0042579174 3.5762787E-07
v -1.6758378 0.0042579174 -0.5701618
v -1.6758378 0.5023155 -0.5701618
v -1.6734884 0.50345993 3.5762787E-07
v -1.6758378 0.50231886 0.57016253
v -1.6758378 0.0042579174 0.57016563
v -1.1535323 0.84885406 -0.7406294
v -1.4959569 0.6251662 -0.7406294
v -1.1535323 0.84885716 0.7406299
v -1.4959569 0.6251695 0.7406299
v -1.153203 0.8488443 3.5762787E-07
v -0.90802574 1.2164056 -0.68483293
v -0.90802574 1.2164087 0.6848335
v -0.90802574 1.2164056 3.5762787E-07
v -0.6789522 1.3271067 -0.58193743
v -0.6789522 1.3271098 0.581938
v -0.6789522 1.3271098 3.5762787E-07
v 0.21658814 1.3271098 3.5762787E-07
v 0.21404386 1.3271098 -0.58194065
v 0.30370307 1.2193782 -0.68483293
v -0.90802574 1.2164056 -0.68483293
v -1.1535323 0.84885406 -0.7406294
v 0.2949704 0.84923124 -0.7406326
v 0.30771446 1.2208581 3.5762787E-07
v 0.30370307 1.2193782 -0.68483293
v 0.29497683 0.85167 3.5762787E-07
v 0.2949704 0.84923124 -0.7406326
v 0.21404386 1.3271098 0.581938
v 0.30370307 1.2193813 0.6848335
v 0.30370307 1.2193813 0.6848335
v -0.90802574 1.2164087 0.6848335
v -1.1535323 0.84885716 0.7406299
v 0.2949704 0.84923124 0.7406299
v 0.2949704 0.84923124 0.7406299
v -1.4959409 0.0042579174 0.74063325
v -1.4959569 0.6251695 0.7406299
v -1.6758378 0.50231886 0.57016253
v -1.6758378 0.0042579174 0.57016563
v 1.5454078 0.0042579174 0.74063325
v 1.5454078 0.84955716 0.7406299
v 1.675834 0.0042579174 0.6236224
v 1.6758307 0.84955716 0.623616
v 0.4087242 0.84925985 0.6268699
v 1.5454078 0.84955716 0.7406299
v 1.5018568 0.8495476 0.6268699
v 1.6758307 0.84955716 0.623616
v 1.5620706 0.84953165 0.57284427
v 1.6758307 0.84955716 3.5762787E-07
v 0.40869534 0.84925675 3.5762787E-07
v 0.40879452 0.5583198 0.6268699
v 1.5019239 0.5586107 0.6268699
v 0.4087242 0.84925675 -0.6268693
v 1.5454078 0.84955716 -0.7406326
v 0.40876245 0.5583198 3.5762787E-07
v 1.5618213 0.5585916 3.5762787E-07
v 1.562141 0.5585916 0.57284427
v 1.5620706 0.8495283 3.5762787E-07
v 1.5620706 0.8495283 -0.5728437
v 1.6758307 0.84955716 -0.6236154
v 1.5018568 0.8495443 -0.6268693
v 0.40879452 0.5583198 -0.6268693
v 1.5019239 0.5586076 -0.6268693
v 1.562141 0.5585916 -0.5728437
v -1.0755239 0.72346854 -0.7801753
v -1.0211146 0.72346854 -0.91765594
v -1.0159268 0.9172859 -0.9096426
v -1.0684855 0.9172859 -0.78023285
v -0.97769785 0.9172859 -0.78023285
v -0.9534211 0.9172859 -0.8962624
v -1.0211146 0.72346854 -0.91765594
v -0.9400699 0.72346854 -0.9003538
v -0.9400699 0.72346854 -0.9003538
v -0.96418357 0.72346854 -0.7801753
v -0.97769785 0.9172859 -0.78023285
v -0.96418357 0.72346854 -0.7801753
v -1.0755239 0.72346854 -0.7801753
v -1.0684855 0.9172859 -0.78023285
v -1.0464718 0.8719127 -0.7802201
v -1.001492 0.8953457 -0.7265684
v -1.0717266 0.8953457 -0.7265684
v -0.99819016 0.8719127 -0.7802201
v -0.99103975 0.7454088 -0.72652364
v -0.99100447 0.7688415 -0.7801913
v -1.0502179 0.7688415 -0.7801913
v -1.0464718 0.8719127 -0.7802201
v -1.0717266 0.8953457 -0.7265684
v -1.0771732 0.7454088 -0.72652364
v -1.495944 0.0042579174 -0.7406294
v -1.6758378 0.5023155 -0.5701618
v -1.6758378 0.0042579174 -0.5701618
v -1.4959569 0.6251662 -0.7406294
v 1.5454078 0.0042579174 -0.7406294
v 1.5454078 0.84955716 -0.7406326
v 1.675834 0.0042579174 -0.6236217
v 1.6758307 0.84955716 -0.6236154
v 1.675834 0.0042579174 -0.6236217
v 1.6758307 0.84955716 3.5762787E-07
v 1.6758307 0.84955716 -0.6236154
v 1.675834 0.0042579174 3.5762787E-07
v 1.675834 0.0042579174 0.6236224
v 1.6758307 0.84955716 0.623616
v -1.0755239 0.72347164 0.7801759
v -1.0159268 0.917289 0.9096401
v -1.0211146 0.72347164 0.91765666
v -1.0684822 0.917289 0.7802336
v -0.97769785 0.917289 0.7802336
v -0.9534211 0.917289 0.8962631
v -1.0211146 0.72347164 0.91765666
v -0.9400699 0.72347164 0.9003513
v -0.9400699 0.72347164 0.9003513
v -0.96418357 0.72347164 0.7801759
v -0.97769785 0.917289 0.7802336
v -1.0684822 0.917289 0.7802336
v -1.0755239 0.72347164 0.7801759
v -0.96418357 0.72347164 0.7801759
v -1.0464685 0.8719127 0.7802174
v -1.0717266 0.8953457 0.72656894
v -1.001492 0.8953457 0.72656894
v -0.99819016 0.8719127 0.7802174
v -0.9910364 0.7454088 0.72652435
v -0.99100447 0.7688446 0.7801919
v -1.0502179 0.7688446 0.7801919
v -1.0771732 0.7454088 0.72652435
v -1.0717266 0.8953457 0.72656894
v -1.0464685 0.8719127 0.7802174
vt 0.15781261 0.9991645
vt 0.15781261 0.9819474
vt 0.14207472 0.9819474
vt 0.14207472 0.9991645
vt 0.14207472 0.9819474
vt 0.15781261 0.9819474
vt 0.11854415 0.97633547
vt 0.13380928 0.97633547
vt 0.11854415 0.97633547
vt 0.13380928 0.97633547
vt 0.11854415 0.9991645
vt 0.10864697 0.97818065
vt 0.10864697 0.97818065
vt 0.10864697 0.9991645
vt 0.10091527 0.98156613
vt 0.10091527 0.98156613
vt 0.10091527 0.9991645
vt 0.072672464 0.9991645
vt 0.072672464 0.98156613
vt 0.067396 0.97691494
vt 0.107228726 0.97691494
vt 0.11532642 0.9604298
vt 0.067457005 0.9604145
vt 0.067335 0.9991645
vt 0.067396 0.97691494
vt 0.049477376 0.9991645
vt 0.049477376 0.97691494
vt 0.072672464 0.98156613
vt 0.067396 0.97691494
vt 0.067396 0.97691494
vt 0.107228726 0.97691494
vt 0.11532642 0.9604298
vt 0.049477376 0.97691494
vt 0.067457005 0.9604145
vt 0.12662658 0.93261397
vt 0.12661134 0.9530641
vt 0.13477002 0.9490229
vt 0.13478528 0.93261397
vt 0.026434787 0.932553
vt 0.026419535 0.96039927
vt 0.020655077 0.932553
vt 0.020639826 0.96039927
vt 0.046290148 0.9805749
vt 0.021188822 0.97691494
vt 0.02304931 0.9805749
vt 0.019404585 0.9849059
vt 0.021783568 0.9849059
vt 0.019404585 0.9991645
vt 0.046290148 0.9991645
vt 0.042508177 0.9843569
vt 0.029393265 0.98449415
vt 0.046290148 0.9805749
vt 0.021188822 0.97691494
vt 0.042508177 0.9991645
vt 0.028676521 0.9991645
vt 0.028676521 0.9860801
vt 0.021783568 0.9991645
vt 0.021783568 0.9849059
vt 0.019404585 0.9849059
vt 0.02304931 0.9805749
vt 0.042508177 0.9843569
vt 0.029393265 0.98449415
vt 0.028676521 0.9860801
vt 0.117110655 0.3777466
vt 0.11201719 0.3777466
vt 0.11201719 0.37448314
vt 0.117110655 0.37448314
vt 0.117110655 0.37082314
vt 0.11201719 0.37082314
vt 0.10873847 0.37448314
vt 0.10873847 0.37082314
vt 0.11201719 0.3667209
vt 0.117110655 0.3667209
vt 0.106954224 0.38454807
vt 0.11248994 0.38393804
vt 0.11248994 0.38895527
vt 0.106954224 0.38863504
vt 0.11572292 0.38643906
vt 0.11932189 0.38488355
vt 0.11833065 0.389001
vt 0.116287164 0.3838008
vt 0.11982514 0.3801866
vt 0.11663791 0.38056782
vt 0.116287164 0.3838008
vt 0.11663791 0.38056782
vt 0.11982514 0.3801866
vt 0.11932189 0.38488355
vt 0.12662658 0.93261397
vt 0.13477002 0.9490229
vt 0.13478528 0.93261397
vt 0.12661134 0.9530641
vt 0.026434787 0.932553
vt 0.026419535 0.96039927
vt 0.020655077 0.932553
vt 0.020639826 0.96039927
vt 0.020655077 0.932553
vt 9.821961E-05 0.9603841
vt 0.020639826 0.96039927
vt 0.000113469505 0.93253773
vt 0.020655077 0.932553
vt 0.020639826 0.96039927
vt 0.117110655 0.3777466
vt 0.11201719 0.37448314
vt 0.11201719 0.3777466
vt 0.117110655 0.37448314
vt 0.117110655 0.37082314
vt 0.11201719 0.37082314
vt 0.10873847 0.37448314
vt 0.10873847 0.37082314
vt 0.11201719 0.3667209
vt 0.117110655 0.3667209
vt 0.106954224 0.38454807
vt 0.106954224 0.38863504
vt 0.11248994 0.38895527
vt 0.11248994 0.38393804
vt 0.11572292 0.38643906
vt 0.11833065 0.389001
vt 0.11932189 0.38488355
vt 0.116287164 0.3838008
vt 0.11982514 0.3801866
vt 0.11663791 0.38056782
vt 0.116287164 0.3838008
vt 0.11932189 0.38488355
vt 0.11982514 0.3801866
vt 0.11663791 0.38056782
vn -0.9999957 0.0029306412 -0
vn -0.9198395 0.0009756088 -0.39229372
vn -0.8709638 0.3861164 -0.3038687
vn -0.8805343 0.4739826 -0
vn -0.8709638 0.3861164 0.3038687
vn -0.9198395 0.0009756088 0.39229372
vn -0.44281232 0.48386788 -0.7548438
vn -0.5092833 0.49364305 -0.70494473
vn -0.44281232 0.48386788 0.7548438
vn -0.5092833 0.49364305 0.70494473
vn -0.70612943 0.7080828 -0
vn -0.45845246 0.6500454 -0.6060217
vn -0.45845246 0.6500454 0.6060217
vn -0.6559105 0.753662 -0.042131063
vn -0.15542293 0.92765963 -0.33954582
vn -0.15542293 0.92765963 0.33954582
vn -0.22384894 0.9745803 -0.009212872
vn 0.42131078 0.9061543 -0.037171163
vn 0.33528948 0.890514 -0.30751544
vn 0.66568947 0.40957677 -0.62378234
vn -0.45845246 0.6500454 -0.6060217
vn -0.44281232 0.48386788 -0.7548438
vn 0.2727285 0.33919573 -0.9003141
vn 0.9449055 0.3273432 -0
vn 0.66568947 0.40957677 -0.62378234
vn 0.7223853 0.6911011 -0.023211984
vn 0.2727285 0.33919573 -0.9003141
vn 0.33528948 0.890514 0.30751544
vn 0.66568947 0.40957677 0.62378234
vn 0.66568947 0.40957677 0.62378234
vn -0.45845246 0.6500454 0.6060217
vn -0.44281232 0.48386788 0.7548438
vn 0.2727285 0.33919573 0.9003141
vn 0.2727285 0.33919573 0.9003141
vn -0.37047625 0.0009756088 0.9288414
vn -0.5092833 0.49364305 0.70494473
vn -0.8709638 0.3861164 0.3038687
vn -0.9198395 0.0009756088 0.39229372
vn 0.35679477 0.0009756088 0.9341823
vn 0.27663857 0.63440514 0.72180414
vn 0.9139782 0.0009756088 0.40576208
vn 0.7126102 0.626585 0.31555977
vn 0.30596405 0.90419924 -0.2980096
vn 0.27663857 0.63440514 0.72180414
vn -0.21602881 0.7966726 -0.5644859
vn 0.7126102 0.626585 0.31555977
vn -0.5346987 0.8103578 -0.23961951
vn 0.7067451 0.7067412 -0.032066643
vn 0.71065515 0.70283127 -0.031582493
vn 0.57771313 0.5777093 -0.5766277
vn -0.2766348 0.63440514 -0.7218056
vn 0.30596405 0.90419924 0.2980096
vn 0.27663857 0.63440514 -0.72180414
vn 0.7067451 0.7067412 -0.032066643
vn -0.7067412 0.7067412 -0.03215203
vn -0.7126063 0.626585 -0.31556854
vn -0.7067412 0.7067412 -0.03215203
vn -0.5346987 0.8103578 0.23961951
vn 0.7126102 0.626585 -0.31555977
vn -0.21602881 0.7966726 0.5644859
vn 0.57771313 0.5777093 0.5766277
vn -0.2766348 0.63440514 0.7218056
vn -0.7126063 0.626585 0.31556854
vn -0.8338182 0.03421116 0.55097806
vn -0.47018266 0.047896266 -0.8812685
vn -0.37243128 0.60507977 -0.7036856
vn -0.6754608 0.5718442 0.46556082
vn 0.4897368 0.60507977 0.62772316
vn 0.66373444 0.60312474 -0.44237667
vn -0.47018266 0.047896266 -0.8812685
vn 0.8396871 0.071356654 -0.53836215
vn 0.8396871 0.071356654 -0.53836215
vn 0.6480942 0.0439862 0.7602889
vn 0.4897368 0.60507977 0.62772316
vn 0.6480942 0.0439862 0.7602889
vn -0.8338182 0.03421116 0.55097806
vn -0.6754608 0.5718442 0.46556082
vn -0.5718442 0.618765 -0.5386317
vn 0.5640279 0.76930225 -0.30007753
vn -0.5894395 0.5992147 -0.541759
vn 0.7732161 0.59725964 -0.21311435
vn 0.997591 0.06937009 -0
vn 0.997591 0.06937009 -0
vn -0.89833415 0.032256126 -0.43812707
vn -0.5718442 0.618765 -0.5386317
vn -0.5894395 0.5992147 -0.541759
vn -0.89833415 0.032256126 -0.43812707
vn -0.37047625 0.0009756088 -0.9288414
vn -0.8709638 0.3861164 -0.3038687
vn -0.9198395 0.0009756088 -0.39229372
vn -0.5092833 0.49364305 -0.70494473
vn 0.35679477 0.0009756088 -0.9341823
vn 0.27663857 0.63440514 -0.72180414
vn 0.9139782 0.0009756088 -0.40576208
vn 0.7126102 0.626585 -0.31555977
vn 0.9139782 0.0009756088 -0.40576208
vn 0.7067451 0.7067412 -0.032066643
vn 0.7126102 0.626585 -0.31555977
vn 0.9999995 0.0009756088 -4.3147837E-05
vn 0.9139782 0.0009756088 0.40576208
vn 0.7126102 0.626585 0.31555977
vn -0.8338182 0.03421116 -0.55097806
vn -0.37243128 0.60507977 0.7036856
vn -0.47018266 0.047896266 0.8812685
vn -0.6754608 0.5718442 -0.46556082
vn 0.4897368 0.60507977 -0.62772316
vn 0.66373444 0.60312474 0.44237667
vn -0.47018266 0.047896266 0.8812685
vn 0.8396871 0.071356654 0.53836215
vn 0.8396871 0.071356654 0.53836215
vn 0.6480942 0.0439862 -0.7602889
vn 0.4897368 0.60507977 -0.62772316
vn -0.6754608 0.5718442 -0.46556082
vn -0.8338182 0.03421116 -0.55097806
vn 0.6480942 0.0439862 -0.7602889
vn -0.5718442 0.618765 0.5386317
vn -0.5894395 0.5992147 0.541759
vn 0.5640279 0.76930225 0.30007753
vn 0.7732161 0.59725964 0.21311435
vn 0.997591 0.06937009 -0
vn 0.997591 0.06937009 -0
vn -0.89833415 0.032256126 0.43812707
vn -0.89833415 0.032256126 0.43812707
vn -0.5894395 0.5992147 0.541759
vn -0.5718442 0.618765 0.5386317
g fcbg_OuterRim_waste_10_0
f 3/3/3 2/2/2 1/1/1
f 4/4/4 3/3/3 1/1/1
f 4/4/4 1/1/1 5/5/5
f 1/1/1 6/6/6 5/5/5
f 3/3/3 4/4/4 7/7/7
f 8/8/8 3/3/3 7/7/7
f 4/4/4 5/5/5 9/9/9
f 5/5/5 10/10/10 9/9/9
f 4/4/4 11/11/11 7/7/7
f 11/11/11 4/4/4 9/9/9
f 12/12/12 7/7/7 11/11/11
f 11/11/11 9/9/9 13/13/13
f 14/14/14 12/12/12 11/11/11
f 14/14/14 11/11/11 13/13/13
f 15/15/15 12/12/12 14/14/14
f 14/14/14 13/13/13 16/16/16
f 17/17/17 15/15/15 14/14/14
f 17/17/17 14/14/14 16/16/16
f 17/17/17 18/18/18 15/15/15
f 17/17/17 16/16/16 18/18/18
f 18/18/18 19/19/19 15/15/15
f 15/15/15 19/19/19 20/20/20
f 21/21/21 15/15/15 20/20/20
f 21/21/21 20/20/20 22/22/22
f 20/20/20 23/23/23 22/22/22
f 19/19/19 18/18/18 24/24/24
f 25/25/25 19/19/19 24/24/24
f 24/24/24 26/26/26 25/25/25
f 26/26/26 27/27/27 25/25/25
f 16/16/16 28/28/28 18/18/18
f 18/18/18 28/28/28 24/24/24
f 28/28/28 29/29/29 24/24/24
f 26/26/26 24/24/24 29/29/29
f 30/30/30 28/28/28 16/16/16
f 31/31/31 30/30/30 16/16/16
f 31/31/31 32/32/32 30/30/30
f 29/29/29 33/33/33 26/26/26
f 32/32/32 34/34/34 30/30/30
f 34/34/34 32/32/32 35/35/35
f 32/32/32 36/36/36 35/35/35
f 36/36/36 37/37/37 35/35/35
f 37/37/37 38/38/38 35/35/35
f 39/39/39 34/34/34 35/35/35
f 39/39/39 40/40/40 34/34/34
f 39/39/39 41/41/41 40/40/40
f 41/41/41 42/42/42 40/40/40
f 26/26/26 33/33/33 43/43/43
f 43/43/43 33/33/33 44/44/44
f 45/45/45 43/43/43 44/44/44
f 45/45/45 44/44/44 46/46/46
f 47/47/47 45/45/45 46/46/46
f 47/47/47 46/46/46 48/48/48
f 49/49/49 26/26/26 43/43/43
f 50/50/50 43/43/43 45/45/45
f 49/49/49 43/43/43 50/50/50
f 51/51/51 50/50/50 45/45/45
f 51/51/51 45/45/45 47/47/47
f 49/49/49 52/52/52 26/26/26
f 52/52/52 27/27/27 26/26/26
f 27/27/27 52/52/52 53/53/53
f 54/54/54 49/49/49 50/50/50
f 54/54/54 50/50/50 51/51/51
f 55/55/55 54/54/54 51/51/51
f 56/56/56 51/51/51 47/47/47
f 51/51/51 56/56/56 55/55/55
f 56/56/56 47/47/47 55/55/55
f 57/57/57 47/47/47 48/48/48
f 47/47/47 57/57/57 55/55/55
f 58/58/58 57/57/57 48/48/48
f 55/55/55 57/57/57 58/58/58
f 59/59/59 58/58/58 48/48/48
f 53/53/53 60/60/60 59/59/59
f 52/52/52 60/60/60 53/53/53
f 60/60/60 58/58/58 59/59/59
f 61/61/61 52/52/52 49/49/49
f 54/54/54 61/61/61 49/49/49
f 52/52/52 61/61/61 60/60/60
f 61/61/61 54/54/54 62/62/62
f 61/61/61 62/62/62 60/60/60
f 54/54/54 55/55/55 62/62/62
f 60/60/60 62/62/62 58/58/58
f 55/55/55 63/63/63 62/62/62
f 62/62/62 63/63/63 58/58/58
f 63/63/63 55/55/55 58/58/58
f 66/66/66 65/65/65 64/64/64
f 67/67/67 66/66/66 64/64/64
f 67/67/67 68/68/68 66/66/66
f 68/68/68 69/69/69 66/66/66
f 66/66/66 69/69/69 70/70/70
f 69/69/69 71/71/71 70/70/70
f 69/69/69 68/68/68 72/72/72
f 68/68/68 73/73/73 72/72/72
f 76/76/76 75/75/75 74/74/74
f 77/77/77 76/76/76 74/74/74
f 80/80/80 79/79/79 78/78/78
f 79/79/79 81/81/81 78/78/78
f 79/79/79 82/82/82 81/81/81
f 82/82/82 83/83/83 81/81/81
f 86/86/86 85/85/85 84/84/84
f 87/87/87 86/86/86 84/84/84
f 90/90/90 89/89/89 88/88/88
f 89/89/89 91/91/91 88/88/88
f 91/91/91 22/22/22 88/88/88
f 22/22/22 23/23/23 88/88/88
f 23/23/23 92/92/92 88/88/88
f 93/93/93 92/92/92 23/23/23
f 92/92/92 93/93/93 94/94/94
f 93/93/93 95/95/95 94/94/94
f 98/98/98 97/97/97 96/96/96
f 97/97/97 99/99/99 96/96/96
f 100/100/100 99/99/99 97/97/97
f 101/101/101 100/100/100 97/97/97
f 104/104/104 103/103/103 102/102/102
f 103/103/103 105/105/105 102/102/102
f 106/106/106 105/105/105 103/103/103
f 107/107/107 106/106/106 103/103/103
f 107/107/107 103/103/103 108/108/108
f 109/109/109 107/107/107 108/108/108
f 106/106/106 107/107/107 110/110/110
f 111/111/111 106/106/106 110/110/110
f 114/114/114 113/113/113 112/112/112
f 115/115/115 114/114/114 112/112/112
f 118/118/118 117/117/117 116/116/116
f 119/119/119 118/118/118 116/116/116
f 120/120/120 118/118/118 119/119/119
f 121/121/121 120/120/120 119/119/119
f 124/124/124 123/123/123 122/122/122
f 125/125/125 124/124/124 122/122/122
