g fcbg_cityforest_007_cliff_04
v -1.2543843 1.4012213 1.0027986
v -1.5788057 0.0025578737 1.2147703
v -1.647263 0.0025578737 0.33004546
v -1.3664532 1.1310616 0.2716086
v -1.3042564 1.3469441 0.2696135
v -0.5932431 1.1154106 -0.29021466
v -1.321631 1.1182053 -0.73187554
v -0.7716534 1.5418694 1.3589294
v -0.57399416 1.3920758 -0.26952136
v 0.49258435 1.5252113 1.5419674
v -1.6478515 1.1319027 0.04822874
v -1.9772661 0.0025578737 0.068386555
v -1.6444118 1.1265776 -0.34689403
v -1.9700062 0.0025578737 -0.3917427
v -1.5887508 0.0025578737 -0.8351573
v -1.1566277 0.0025578737 -0.9079366
v 0.000104784966 1.3833904 -0.36725163
v 0.96060693 1.3127947 0.19780731
v 1.1018775 1.3624368 1.0686009
v 1.1615739 0.8868301 1.1359606
v -1.0415001 0.6447859 -0.8601235
v -0.95138025 1.1137965 -0.797938
v -0.655421 0.6457174 -0.31295204
v -0.015772581 0.6558094 -0.4234823
v 0.7752044 0.91169834 -0.0769155
v 0.6538919 0.57368875 -0.22681475
v 1.007081 0.9139421 0.21710896
v -0.88739204 0.6440995 -1.1852804
v -1.0047069 0.0025578737 -1.2564266
v -0.08043957 0.0025578737 -1.5334764
v -0.018005252 0.6594186 -1.4434433
v 0.45739412 0.6581929 -1.2855678
v 0.5204885 0.44519544 -1.3133059
v 0.48028982 0.0025578737 -1.35556
v 0.6185318 0.44231415 -1.4930439
v 0.6174005 0.0025578737 -1.5419657
v 1.1706628 0.44544077 -1.434264
v 1.1948521 0.0025578737 -1.4786487
v 1.6724236 0.0025578737 -1.1199006
v 1.6265906 0.44696045 -1.0909593
v 1.9101082 0.0025578737 -0.49590695
v 1.8566307 0.4459083 -0.48445344
v 1.9772606 0.0025578737 -0.14601767
v 1.2135994 0.54190755 -0.17882824
v 1.1777792 0.9142704 -0.13871253
v 1.5412642 0.9098315 0.05444765
v 1.7493627 0.5432124 0.04229641
v 1.710763 0.896183 0.6606331
v 1.4905095 0.8830247 1.092217
v 1.9241376 0.4441886 -0.16123116
v 1.7930535 0.0025578737 0.061002254
v 1.8309819 0.0025578737 0.7568624
v 1.6047659 0.0025578737 1.222343
vt 0.15373822 0.3229875
vt 0.17565288 0.31083634
vt 0.16731893 0.2979096
vt 0.15046851 0.30946764
vt 0.1481417 0.31218988
vt 0.13349643 0.3057417
vt 0.14061376 0.29573485
vt 0.14808087 0.33373952
vt 0.13377018 0.30942202
vt 0.12713951 0.34519112
vt 0.15048373 0.3036278
vt 0.16449024 0.28997105
vt 0.14703152 0.2988677
vt 0.15814853 0.28286892
vt 0.14727484 0.27824572
vt 0.13856068 0.27743968
vt 0.12491915 0.31136864
vt 0.11308736 0.32443225
vt 0.11308736 0.33938166
vt 0.10373447 0.33915356
vt 0.13453057 0.2891042
vt 0.13710073 0.29644963
vt 0.12955758 0.29953685
vt 0.1196724 0.30266967
vt 0.11007619 0.31580937
vt 0.1089508 0.30817497
vt 0.10715626 0.3227746
vt 0.12963362 0.28581926
vt 0.13161065 0.27509767
vt 0.113680474 0.27544746
vt 0.11509481 0.28629074
vt 0.10878351 0.29004708
vt 0.10501194 0.2877355
vt 0.10349114 0.27978173
vt 0.1022593 0.28726402
vt 0.09926333 0.28058773
vt 0.09464012 0.29111165
vt 0.089682326 0.28588012
vt 0.08315811 0.29552194
vt 0.08989523 0.29836583
vt 0.080876924 0.3076883
vt 0.08838965 0.30876806
vt 0.08074005 0.31412128
vt 0.10003894 0.31200737
vt 0.10338469 0.31726933
vt 0.09812274 0.32040215
vt 0.091157496 0.31804493
vt 0.095704675 0.3297094
vt 0.09721026 0.33754152
vt 0.08808549 0.31406045
vt 0.08150045 0.31872928
vt 0.08093775 0.33077398
vt 0.08163732 0.33991396
vn -0.5945636 0.8031696 -0.03758656
vn -0.9677578 0.2385937 0.08073316
vn -0.851015 0.23285222 0.47069457
vn -0.8318769 0.5524596 0.052624058
vn -0.684513 0.63092613 -0.36520433
vn -0.0452981 0.3419398 -0.93862945
vn -0.32471538 0.70939255 -0.6255575
vn -0.054867268 0.9945513 -0.08864154
vn -0.2826115 0.6749439 -0.6816021
vn 0.08484137 0.9926375 -0.08644509
vn -0.6156156 0.7208755 0.31836453
vn -0.88163614 0.26347327 0.39153486
vn -0.62327087 0.7400136 -0.25281078
vn -0.90460193 0.27495623 -0.32572138
vn -0.52183855 0.19840348 -0.8296509
vn -0.58690834 0.17926538 -0.7895584
vn 0.13077301 0.6538919 -0.7452005
vn 0.674297 0.6175294 -0.40494573
vn 0.65515876 0.7380998 -0.1611698
vn 0.61688244 0.7821176 -0.08802345
vn -0.1735239 0.5103556 -0.84227467
vn 0.35851717 0.6098741 -0.70676655
vn 0.33746523 0.60413265 -0.72190094
vn 0.09249663 0.78977287 -0.6063853
vn 0.339379 0.39935422 -0.8516678
vn 0.18818748 0.7648933 -0.616055
vn 0.56712323 0.78977287 -0.2337307
vn -0.4682517 0.69025445 -0.55162406
vn -0.6558057 0.19648969 -0.7289106
vn -0.016590893 0.12950611 -0.9914398
vn 0.012116373 0.6998235 -0.714213
vn 0.5192778 0.7208755 -0.45900878
vn 0.1537388 0.6558057 -0.73910975
vn -0.32471538 0.114195585 -0.9388926
vn -0.3438536 0.6328399 -0.6937423
vn -0.41466475 0.11802316 -0.902288
vn 0.26665395 0.66728866 -0.695429
vn 0.36617243 0.114195585 -0.9235135
vn 0.7948674 0.12185085 -0.5944226
vn 0.59200287 0.6615472 -0.46031284
vn 0.9537142 0.11802316 -0.27658594
vn 0.70300424 0.67303 -0.22981654
vn 0.96136945 0.11802316 0.2486751
vn 0.17670459 0.7840314 -0.59503806
vn 0.14034206 0.73044455 -0.66839725
vn 0.45803565 0.7610656 -0.45932832
vn 0.84079903 0.52758 -0.12131075
vn 0.695349 0.70747876 0.1263472
vn 0.50205344 0.8203939 0.27367163
vn 0.85036814 0.50078654 0.16151421
vn 0.93840367 0.1122818 0.32678944
vn 0.9632833 0.14864421 0.2235848
vn 0.8809892 0.1735239 0.4401676
g fcbg_cityforest_007_cliff_04_0
f 3/3/3 2/2/2 1/1/1
f 4/4/4 3/3/3 1/1/1
f 4/4/4 1/1/1 5/5/5
f 6/6/6 4/4/4 5/5/5
f 7/7/7 4/4/4 6/6/6
f 1/1/1 8/8/8 5/5/5
f 8/8/8 9/9/9 5/5/5
f 9/9/9 6/6/6 5/5/5
f 9/9/9 8/8/8 10/10/10
f 4/4/4 11/11/11 3/3/3
f 11/11/11 12/12/12 3/3/3
f 13/13/13 11/11/11 4/4/4
f 12/12/12 11/11/11 13/13/13
f 7/7/7 13/13/13 4/4/4
f 14/14/14 12/12/12 13/13/13
f 14/14/14 13/13/13 7/7/7
f 15/15/15 14/14/14 7/7/7
f 16/16/16 15/15/15 7/7/7
f 17/17/17 9/9/9 10/10/10
f 9/9/9 17/17/17 6/6/6
f 18/18/18 17/17/17 10/10/10
f 19/19/19 18/18/18 10/10/10
f 19/19/19 20/20/20 18/18/18
f 21/21/21 16/16/16 7/7/7
f 22/22/22 7/7/7 6/6/6
f 22/22/22 21/21/21 7/7/7
f 22/22/22 6/6/6 23/23/23
f 21/21/21 22/22/22 23/23/23
f 17/17/17 24/24/24 6/6/6
f 24/24/24 23/23/23 6/6/6
f 18/18/18 25/25/25 17/17/17
f 25/25/25 24/24/24 17/17/17
f 26/26/26 24/24/24 25/25/25
f 20/20/20 27/27/27 18/18/18
f 27/27/27 25/25/25 18/18/18
f 21/21/21 28/28/28 16/16/16
f 28/28/28 29/29/29 16/16/16
f 29/29/29 28/28/28 30/30/30
f 31/31/31 21/21/21 23/23/23
f 31/31/31 28/28/28 21/21/21
f 24/24/24 31/31/31 23/23/23
f 28/28/28 31/31/31 30/30/30
f 32/32/32 31/31/31 24/24/24
f 26/26/26 32/32/32 24/24/24
f 31/31/31 33/33/33 30/30/30
f 32/32/32 33/33/33 31/31/31
f 33/33/33 32/32/32 26/26/26
f 33/33/33 34/34/34 30/30/30
f 33/33/33 35/35/35 34/34/34
f 35/35/35 36/36/36 34/34/34
f 37/37/37 35/35/35 33/33/33
f 35/35/35 37/37/37 36/36/36
f 26/26/26 37/37/37 33/33/33
f 37/37/37 38/38/38 36/36/36
f 38/38/38 37/37/37 39/39/39
f 37/37/37 40/40/40 39/39/39
f 40/40/40 37/37/37 26/26/26
f 41/41/41 39/39/39 40/40/40
f 42/42/42 41/41/41 40/40/40
f 41/41/41 42/42/42 43/43/43
f 44/44/44 40/40/40 26/26/26
f 42/42/42 40/40/40 44/44/44
f 45/45/45 44/44/44 26/26/26
f 25/25/25 45/45/45 26/26/26
f 27/27/27 45/45/45 25/25/25
f 44/44/44 45/45/45 46/46/46
f 46/46/46 45/45/45 27/27/27
f 47/47/47 42/42/42 44/44/44
f 47/47/47 44/44/44 46/46/46
f 48/48/48 46/46/46 27/27/27
f 48/48/48 47/47/47 46/46/46
f 20/20/20 48/48/48 27/27/27
f 49/49/49 48/48/48 20/20/20
f 42/42/42 50/50/50 43/43/43
f 50/50/50 42/42/42 47/47/47
f 43/43/43 50/50/50 47/47/47
f 51/51/51 43/43/43 47/47/47
f 51/51/51 47/47/47 48/48/48
f 52/52/52 51/51/51 48/48/48
f 52/52/52 48/48/48 49/49/49
f 53/53/53 52/52/52 49/49/49
