g fcbg_arkcity_003_sign_09
v -1.750246 -5.174557 0.004609585
v 1.9759598 -5.174557 0.004609585
v 1.9759598 5.0432463 0.004609585
v -1.750246 5.0432463 0.004609585
v -2.0232053 5.191886 0.08033562
v -2.0232053 5.191886 -0.080336094
v 2.0318906 5.191886 -0.080336094
v 2.0318906 5.191886 0.08033562
v -2.0232053 5.191886 0.08033562
v 2.0318906 5.191886 0.08033562
v 2.0318906 5.023589 0.08033562
v -2.0232053 5.023589 0.08033562
v 2.0318906 5.191886 -0.080336094
v -2.0232053 5.191886 -0.080336094
v -2.0232053 5.023589 -0.080336094
v 2.0318906 5.023589 -0.080336094
v -2.03188 -5.0235896 0.08033562
v -2.03188 -5.0235896 -0.080336094
v 2.0058858 -5.0235896 -0.080336094
v 2.0058858 -5.0235896 0.08033562
v -2.03188 -5.0235896 0.08033562
v 2.0058858 -5.0235896 0.08033562
v 2.0058858 -5.191887 0.08033562
v -2.03188 -5.191887 0.08033562
v 2.0058858 -5.0235896 -0.080336094
v -2.03188 -5.0235896 -0.080336094
v -2.03188 -5.191887 -0.080336094
v 2.0058858 -5.191887 -0.080336094
vt 1 -1.0588E-41
vt 0.83318835 -1.0588E-41
vt 0.83318835 0.4574197
vt 1 0.4574197
vt 0.7254902 0.99626154
vt 0.7254902 0.9901274
vt 0.6138857 0.9901274
vt 0.6138857 0.99626154
vt 0.7254902 0.9901274
vt 0.6138857 0.9901274
vt 0.6138857 0.98304725
vt 0.7254902 0.98304725
vt 0.6138857 0.9901274
vt 0.7254902 0.9901274
vt 0.7254902 0.98304725
vt 0.6138857 0.98304725
vt 0.7254902 0.99626154
vt 0.7254902 0.9901274
vt 0.6138857 0.9901274
vt 0.6138857 0.99626154
vt 0.7254902 0.9901274
vt 0.6138857 0.9901274
vt 0.6138857 0.98304725
vt 0.7254902 0.98304725
vt 0.6138857 0.9901274
vt 0.7254902 0.9901274
vt 0.7254902 0.98304725
vt 0.6138857 0.98304725
vn -0 0 -1
vn -0 0 -1
vn -0 0 -1
vn -0 0 -1
vn -0 1 -0
vn -0 1 -0
vn -0 1 -0
vn -0 1 -0
vn -0 0 1
vn -0 0 1
vn -0 0 1
vn -0 0 1
vn -0 0 -1
vn -0 0 -1
vn -0 0 -1
vn -0 0 -1
vn -0 1 -0
vn -0 1 -0
vn -0 1 -0
vn -0 1 -0
vn -0 0 1
vn -0 0 1
vn -0 0 1
vn -0 0 1
vn -0 0 -1
vn -0 0 -1
vn -0 0 -1
vn -0 0 -1
g fcbg_arkcity_003_sign_09_0
f 3/3/3 2/2/2 1/1/1
f 4/4/4 3/3/3 1/1/1
g fcbg_arkcity_003_sign_09_1
f 7/7/7 6/6/6 5/5/5
f 8/8/8 7/7/7 5/5/5
f 11/11/11 10/10/10 9/9/9
f 12/12/12 11/11/11 9/9/9
f 15/15/15 14/14/14 13/13/13
f 16/16/16 15/15/15 13/13/13
f 19/19/19 18/18/18 17/17/17
f 20/20/20 19/19/19 17/17/17
f 23/23/23 22/22/22 21/21/21
f 24/24/24 23/23/23 21/21/21
f 27/27/27 26/26/26 25/25/25
f 28/28/28 27/27/27 25/25/25
