g fcbg_desert_001_tree_01
v -0.38144094 1.4912088 0.11184317
v -0.041478276 -0.00018924475 0.51002276
v -0.37737256 -0.00018924475 0.021848917
v -0.13080657 1.7487314 0.44001162
v 0.44669038 -0.00018924475 0.17413366
v 0.21610156 1.6199987 0.15571135
v 0.11080131 -0.00018924475 -0.31405056
v -0.09757769 1.6511102 -0.16388845
v -0.37737256 -0.00018924475 0.021848917
v -0.38144094 1.4912088 0.11184317
v -1.2695216 2.126985 -0.020843446
v -1.375389 2.0483482 0.124886036
v -1.6790323 2.5253937 0.088988245
v -0.38144618 2.1284366 0.21410513
v -1.986172 3.0988793 -0.04063928
v -1.2900094 2.169152 0.25429505
v -1.375389 2.0483482 0.124886036
v -1.1841369 2.2477891 0.10857594
v -1.4839149 2.679385 0.028674722
v -1.6745114 2.746113 0.1540153
v -1.6790323 2.5253937 0.088988245
v -1.5302126 2.5478947 0.21423
v -0.38144618 2.1284366 0.21410513
v -0.09757769 1.6511102 -0.16388845
v -0.41605896 2.9394722 -0.1474899
v -0.15924913 2.8668392 -0.2821015
v 0.21610156 1.6199987 0.15571135
v -0.0316298 2.9474583 -0.08466354
v -0.26343602 3.0435603 0.08749509
v -0.13080657 1.7487314 0.44001162
v -0.38144618 2.1284366 0.21410513
v -0.41605896 2.9394722 -0.1474899
v -0.08563775 3.4323545 -0.43898016
v -0.23550856 3.4068775 -0.36649257
v -0.6720259 4.22696 -0.5286102
v -0.09419602 3.613628 -0.30111694
v 0.034619898 3.408792 -0.24710894
v -0.0316298 2.9474583 -0.08466354
v -0.18619329 3.4537475 -0.19212285
v -0.23550856 3.4068775 -0.36649257
v -1.3781984 2.8793514 0.38341272
v -1.5302126 2.5478947 0.21423
v -1.4245585 2.7763505 0.4837029
v -1.4839149 2.679385 0.028674722
v -1.5369864 3.2881596 0.71253324
v -1.6745114 2.746113 0.1540153
v -1.5374494 2.904152 0.38541573
v -1.5489836 2.783962 0.4807582
v -1.4245585 2.7763505 0.4837029
v -1.6790323 2.5253937 0.088988245
v -1.5302126 2.5478947 0.21423
v 0.034619898 3.408792 -0.24710894
v 0.3781984 4.1089087 -0.44215372
v -0.08563775 3.4323545 -0.43898016
v 0.42373657 4.118965 -0.27974993
v -0.09419602 3.613628 -0.30111694
v 0.40956476 4.926687 -0.4977537
v 0.22621536 4.1612415 -0.39611608
v 0.2619363 4.168858 -0.24150577
v -0.18619329 3.4537475 -0.19212285
v 0.42373657 4.118965 -0.27974993
v 0.034619898 3.408792 -0.24710894
vt 0.6351857 0.07018604
vt 0.6567752 0.02705206
vt 0.636625 0.02616749
vt 0.64929384 0.083049774
vt 0.6766855 0.029870685
vt 0.66355187 0.08393434
vt 0.6567752 0.02705206
vt 0.64929384 0.083049774
vt 0.636625 0.02616749
vt 0.6351857 0.07018604
vt 0.6081389 0.11266034
vt 0.6011973 0.10630344
vt 0.59181184 0.119736895
vt 0.63855904 0.10417447
vt 0.58400065 0.14074165
vt 0.6081389 0.11266034
vt 0.6011973 0.10630344
vt 0.61446583 0.11955698
vt 0.6040309 0.1291373
vt 0.59493035 0.12780295
vt 0.59181184 0.119736895
vt 0.599713 0.12113121
vt 0.63855904 0.10417447
vt 0.64929384 0.083049774
vt 0.63672996 0.13032173
vt 0.6461754 0.1322108
vt 0.66355187 0.08393434
vt 0.65281713 0.1342948
vt 0.6461754 0.1322108
vt 0.64929384 0.083049774
vt 0.63855904 0.10417447
vt 0.63672996 0.13032173
vt 0.6247058 0.1613566
vt 0.61767423 0.15994729
vt 0.618169 0.18423545
vt 0.63061297 0.16531467
vt 0.6323821 0.16305077
vt 0.65281713 0.1342948
vt 0.6247058 0.1613566
vt 0.61767423 0.15994729
vt 0.6130415 0.1531556
vt 0.6179891 0.14158124
vt 0.6175693 0.15393522
vt 0.6112724 0.13784806
vt 0.6074342 0.17054713
vt 0.6056651 0.1431105
vt 0.60779405 0.15333551
vt 0.6130415 0.1531556
vt 0.6175693 0.15393522
vt 0.6112724 0.13784806
vt 0.6179891 0.14158124
vt 0.6450209 0.16556954
vt 0.6596538 0.18344083
vt 0.63810927 0.17032222
vt 0.66320705 0.179003
vt 0.6403732 0.17793852
vt 0.6727274 0.2040258
vt 0.65680516 0.18798362
vt 0.6596538 0.18344083
vt 0.63810927 0.17032222
vt 0.66320705 0.179003
vt 0.6450209 0.16556954
vn -0.8736493 -0.48338285 -0.055478908
vn -0.12102574 0.038256466 0.9919119
vn -0.98721653 -0.006015539 -0.1592712
vn 0.098409176 0.059430063 0.9933699
vn 0.98192376 0.14797395 0.11802304
vn 0.978074 0.15952319 0.13387887
vn 0.1580801 0.10755175 -0.98155147
vn 0.15423036 -0.013714969 -0.9879397
vn -0.98721653 -0.006015539 -0.1592712
vn -0.8736493 -0.48338285 -0.055478908
vn -0.13449985 -0.13113195 -0.98219866
vn -0.6888619 -0.7239914 0.036135286
vn -0.8544007 -0.51610565 0.06028593
vn -0.6426651 0.6407402 0.42003995
vn -0.6234165 0.76008207 -0.18337691
vn -0.16144806 0.019007742 0.98669815
vn -0.6888619 -0.7239914 0.036135286
vn 0.51033103 0.85055095 -0.12698576
vn 0.70281786 0.48675078 -0.5187685
vn -0.56567043 0.6272662 0.53530747
vn -0.8544007 -0.51610565 0.06028593
vn 0.22352564 -0.43911088 0.8701827
vn -0.6426651 0.6407402 0.42003995
vn 0.15423036 -0.013714969 -0.9879397
vn -0.96026844 0.08637816 -0.26537403
vn 0.18695313 -0.17925364 -0.9658761
vn 0.978074 0.15952319 0.13387887
vn 0.978074 0.117176116 0.1721655
vn -0.24421734 0.4386291 0.86484826
vn 0.098409176 0.059430063 0.9933699
vn -0.6426651 0.6407402 0.42003995
vn -0.96026844 0.08637816 -0.26537403
vn 0.28319657 -0.21582615 -0.9344618
vn -0.85055095 -0.21390128 -0.48042622
vn -0.5618207 0.79665464 -0.22293247
vn -0.39435714 0.89674777 -0.20081304
vn 0.9164782 -0.21775103 0.33563694
vn 0.978074 0.117176116 0.1721655
vn -0.3693338 0.2884894 0.88338345
vn -0.85055095 -0.21390128 -0.48042622
vn 0.8933798 0.35200995 -0.2792159
vn 0.22352564 -0.43911088 0.8701827
vn 0.5584527 -0.5372791 0.63202983
vn 0.70281786 0.48675078 -0.5187685
vn -0.117176116 0.8390017 0.5313623
vn -0.56567043 0.6272662 0.53530747
vn -0.65998894 0.6368905 -0.39847854
vn -0.6484397 -0.39098918 0.6531871
vn 0.5584527 -0.5372791 0.63202983
vn -0.8544007 -0.51610565 0.06028593
vn 0.22352564 -0.43911088 0.8701827
vn 0.9164782 -0.21775103 0.33563694
vn 0.4602844 -0.17155421 -0.87103814
vn 0.28319657 -0.21582615 -0.9344618
vn 0.876056 -0.15038061 0.45816106
vn -0.39435714 0.89674777 -0.20081304
vn 0.10803354 0.9756673 -0.19079337
vn -0.82167786 0.3154375 -0.47470483
vn -0.38088304 0.323137 0.8663202
vn -0.3693338 0.2884894 0.88338345
vn 0.876056 -0.15038061 0.45816106
vn 0.9164782 -0.21775103 0.33563694
g fcbg_desert_001_tree_01_0
f 3/3/3 2/2/2 1/1/1
f 2/2/2 4/4/4 1/1/1
f 4/4/4 2/2/2 5/5/5
f 6/6/6 4/4/4 5/5/5
f 6/6/6 5/5/5 7/7/7
f 8/8/8 6/6/6 7/7/7
f 7/7/7 9/9/9 8/8/8
f 9/9/9 10/10/10 8/8/8
f 11/11/11 8/8/8 10/10/10
f 12/12/12 11/11/11 10/10/10
f 13/13/13 11/11/11 12/12/12
f 14/14/14 8/8/8 11/11/11
f 15/15/15 11/11/11 13/13/13
f 1/1/1 4/4/4 16/16/16
f 16/16/16 4/4/4 14/14/14
f 17/17/17 1/1/1 16/16/16
f 18/18/18 14/14/14 11/11/11
f 18/18/18 16/16/16 14/14/14
f 19/19/19 18/18/18 11/11/11
f 15/15/15 19/19/19 11/11/11
f 18/18/18 19/19/19 16/16/16
f 15/15/15 20/20/20 19/19/19
f 15/15/15 21/21/21 20/20/20
f 22/22/22 21/21/21 17/17/17
f 16/16/16 22/22/22 17/17/17
f 19/19/19 22/22/22 16/16/16
f 25/25/25 24/24/24 23/23/23
f 26/26/26 24/24/24 25/25/25
f 27/27/27 24/24/24 26/26/26
f 28/28/28 27/27/27 26/26/26
f 27/27/27 28/28/28 29/29/29
f 30/30/30 27/27/27 29/29/29
f 29/29/29 31/31/31 30/30/30
f 32/32/32 31/31/31 29/29/29
f 33/33/33 26/26/26 25/25/25
f 34/34/34 33/33/33 25/25/25
f 35/35/35 33/33/33 34/34/34
f 35/35/35 36/36/36 33/33/33
f 33/33/33 37/37/37 26/26/26
f 37/37/37 38/38/38 26/26/26
f 29/29/29 38/38/38 37/37/37
f 35/35/35 39/39/39 36/36/36
f 39/39/39 29/29/29 37/37/37
f 32/32/32 29/29/29 39/39/39
f 35/35/35 40/40/40 39/39/39
f 40/40/40 32/32/32 39/39/39
f 43/43/43 42/42/42 41/41/41
f 42/42/42 44/44/44 41/41/41
f 45/45/45 43/43/43 41/41/41
f 41/41/41 44/44/44 46/46/46
f 45/45/45 41/41/41 47/47/47
f 47/47/47 41/41/41 46/46/46
f 45/45/45 47/47/47 48/48/48
f 47/47/47 46/46/46 48/48/48
f 45/45/45 48/48/48 49/49/49
f 46/46/46 50/50/50 48/48/48
f 49/49/49 48/48/48 51/51/51
f 48/48/48 50/50/50 51/51/51
f 54/54/54 53/53/53 52/52/52
f 53/53/53 55/55/55 52/52/52
f 53/53/53 54/54/54 56/56/56
f 57/57/57 55/55/55 53/53/53
f 58/58/58 53/53/53 56/56/56
f 57/57/57 53/53/53 58/58/58
f 59/59/59 58/58/58 56/56/56
f 57/57/57 58/58/58 59/59/59
f 60/60/60 59/59/59 56/56/56
f 57/57/57 59/59/59 61/61/61
f 59/59/59 60/60/60 62/62/62
f 61/61/61 59/59/59 62/62/62
