g fcbg_campaign_light_07
v -0.61802363 -0.060730457 2.6883256
v 0.6109092 -0.060730457 2.6899426
v 0.5442095 -0.060730457 2.3956816
v -0.55046535 -0.060730457 2.3942387
v -1.7245595 -0.060730457 2.1536524
v -1.5361102 -0.060730457 1.9179804
v -2.489527 -0.060730457 1.1918297
v -2.2175028 -0.060730457 1.0612321
v -2.7613509 -0.060730457 2.1457672E-06
v -2.4599116 -0.060730457 2.1457672E-06
v -2.2175028 -0.060730457 -1.0612332
v -2.489527 -0.060730457 -1.1918256
v -1.5361102 -0.060730457 -1.9179816
v -1.7245595 -0.060730457 -2.1536536
v -0.55046535 -0.060730457 -2.3942397
v -0.61802363 -0.060730457 -2.6883268
v 0.5442095 -0.060730457 -2.3956776
v 0.6109092 -0.060730457 -2.6899438
v 0.6109092 -0.060730457 2.6899426
v 1.5311025 -0.060730457 1.922015
v 0.5442095 -0.060730457 2.3956816
v 1.7188407 -0.060730457 2.158182
v 2.2147443 -0.060730457 1.0670574
v 2.4863365 -0.060730457 1.1983712
v 2.4597335 -0.060730457 2.1457672E-06
v 2.7613733 -0.060730457 2.1457672E-06
v 2.4863365 -0.060730457 -1.1983724
v 2.2147443 -0.060730457 -1.0670583
v 1.7188407 -0.060730457 -2.158183
v 1.5311025 -0.060730457 -1.9220161
v 0.6109092 -0.060730457 -2.6899438
v 0.5442095 -0.060730457 -2.3956776
v -2.489527 -0.060730457 1.1918297
v -2.489527 0.060729265 1.1918297
v -1.7245595 0.060729265 2.1536524
v -1.7245595 -0.060730457 2.1536524
v -1.5361102 -0.060730457 1.9179804
v -1.5361102 0.060729265 1.9179804
v -2.2175028 0.060729265 1.0612321
v -2.2175028 -0.060730457 1.0612321
v -1.7245595 -0.060730457 2.1536524
v -1.7245595 0.060729265 2.1536524
v -0.61802363 0.060729265 2.6883256
v -0.61802363 -0.060730457 2.6883256
v -0.55046535 -0.060730457 2.3942387
v -0.55046535 0.060729265 2.3942387
v -1.5361102 0.060729265 1.9179804
v -1.5361102 -0.060730457 1.9179804
v -0.61802363 -0.060730457 2.6883256
v -0.61802363 0.060729265 2.6883256
v 0.6109092 0.060729265 2.6899426
v 0.6109092 -0.060730457 2.6899426
v 0.5442095 -0.060730457 2.3956816
v 0.5442095 0.060729265 2.3956816
v -0.55046535 0.060729265 2.3942387
v -0.55046535 -0.060730457 2.3942387
v 0.6109092 -0.060730457 2.6899426
v 0.6109092 0.060729265 2.6899426
v 1.7188407 0.060729265 2.158182
v 1.7188407 -0.060730457 2.158182
v 1.5311025 -0.060730457 1.922015
v 1.5311025 0.060729265 1.922015
v 0.5442095 0.060729265 2.3956816
v 0.5442095 -0.060730457 2.3956816
v 1.7188407 -0.060730457 2.158182
v 1.7188407 0.060729265 2.158182
v 2.4863365 0.060729265 1.1983712
v 2.4863365 -0.060730457 1.1983712
v 2.2147443 -0.060730457 1.0670574
v 2.2147443 0.060729265 1.0670574
v 1.5311025 0.060729265 1.922015
v 1.5311025 -0.060730457 1.922015
v 2.4863365 -0.060730457 1.1983712
v 2.4863365 0.060729265 1.1983712
v 2.7613733 0.060729265 2.1457672E-06
v 2.7613733 -0.060730457 2.1457672E-06
v 2.4597335 -0.060730457 2.1457672E-06
v 2.4597335 0.060729265 2.1457672E-06
v 2.2147443 0.060729265 1.0670574
v 2.2147443 -0.060730457 1.0670574
v -2.7613509 -0.060730457 2.1457672E-06
v -2.7613509 0.060729265 2.1457672E-06
v -2.489527 0.060729265 1.1918297
v -2.489527 -0.060730457 1.1918297
v -2.2175028 -0.060730457 1.0612321
v -2.2175028 0.060729265 1.0612321
v -2.4599116 0.060729265 2.1457672E-06
v -2.4599116 -0.060730457 2.1457672E-06
v -2.2175028 -0.060730457 -1.0612332
v -2.2175028 0.060729265 -1.0612332
v -1.5361102 0.060729265 -1.9179816
v -1.5361102 -0.060730457 -1.9179816
v -1.7245595 -0.060730457 -2.1536536
v -1.7245595 0.060729265 -2.1536536
v -2.489527 0.060729265 -1.1918256
v -2.489527 -0.060730457 -1.1918256
v -1.5361102 -0.060730457 -1.9179816
v -1.5361102 0.060729265 -1.9179816
v -0.55046535 0.060729265 -2.3942397
v -0.55046535 -0.060730457 -2.3942397
v -0.61802363 -0.060730457 -2.6883268
v -0.61802363 0.060729265 -2.6883268
v -1.7245595 0.060729265 -2.1536536
v -1.7245595 -0.060730457 -2.1536536
v -0.55046535 -0.060730457 -2.3942397
v -0.55046535 0.060729265 -2.3942397
v 0.5442095 0.060729265 -2.3956776
v 0.5442095 -0.060730457 -2.3956776
v 0.6109092 -0.060730457 -2.6899438
v 0.6109092 0.060729265 -2.6899438
v -0.61802363 0.060729265 -2.6883268
v -0.61802363 -0.060730457 -2.6883268
v 0.5442095 -0.060730457 -2.3956776
v 0.5442095 0.060729265 -2.3956776
v 1.5311025 0.060729265 -1.9220161
v 1.5311025 -0.060730457 -1.9220161
v 1.7188407 -0.060730457 -2.158183
v 1.7188407 0.060729265 -2.158183
v 0.6109092 0.060729265 -2.6899438
v 0.6109092 -0.060730457 -2.6899438
v 1.5311025 -0.060730457 -1.9220161
v 1.5311025 0.060729265 -1.9220161
v 2.2147443 0.060729265 -1.0670583
v 2.2147443 -0.060730457 -1.0670583
v 2.4863365 -0.060730457 -1.1983724
v 2.4863365 0.060729265 -1.1983724
v 1.7188407 0.060729265 -2.158183
v 1.7188407 -0.060730457 -2.158183
v 2.2147443 -0.060730457 -1.0670583
v 2.2147443 0.060729265 -1.0670583
v 2.4597335 0.060729265 2.1457672E-06
v 2.4597335 -0.060730457 2.1457672E-06
v 2.7613733 -0.060730457 2.1457672E-06
v 2.7613733 0.060729265 2.1457672E-06
v 2.4863365 0.060729265 -1.1983724
v 2.4863365 -0.060730457 -1.1983724
v -2.4599116 -0.060730457 2.1457672E-06
v -2.4599116 0.060729265 2.1457672E-06
v -2.2175028 0.060729265 -1.0612332
v -2.2175028 -0.060730457 -1.0612332
v -2.489527 -0.060730457 -1.1918256
v -2.489527 0.060729265 -1.1918256
v -2.7613509 0.060729265 2.1457672E-06
v -2.7613509 -0.060730457 2.1457672E-06
vt 0.059459772 0.517003
vt 0.07535812 0.5252176
vt 0.0727039 0.5288075
vt 0.058056183 0.5212317
vt 0.041815933 0.51404285
vt 0.04179794 0.5185055
vt 0.02411811 0.51676005
vt 0.025512703 0.5209888
vt 0.008156777 0.5250826
vt 0.0110449325 0.5284836
vt 0.025512703 0.5209888
vt 0.02411811 0.51676005
vt 0.04179794 0.5185055
vt 0.041815933 0.51404285
vt 0.058056183 0.5212317
vt 0.059459772 0.517003
vt 0.0727039 0.5288075
vt 0.07535812 0.5252176
vt 0.059459772 0.517003
vt 0.04179794 0.5185055
vt 0.058056183 0.5212317
vt 0.041815933 0.51404285
vt 0.025512703 0.5209888
vt 0.02411811 0.51676005
vt 0.0110449325 0.5284836
vt 0.008156777 0.5250826
vt 0.02411811 0.51676005
vt 0.025512703 0.5209888
vt 0.041815933 0.51404285
vt 0.04179794 0.5185055
vt 0.059459772 0.517003
vt 0.058056183 0.5212317
vt 0.02411811 0.51676005
vt 0.023569271 0.51507753
vt 0.04182493 0.51227033
vt 0.041815933 0.51404285
vt 0.04179794 0.5185055
vt 0.041788943 0.52027804
vt 0.026061542 0.5226893
vt 0.025512703 0.5209888
vt 0.041815933 0.51404285
vt 0.04182493 0.51227033
vt 0.06002661 0.5153205
vt 0.059459772 0.517003
vt 0.058056183 0.5212317
vt 0.057498347 0.52292323
vt 0.041788943 0.52027804
vt 0.04179794 0.5185055
vt 0.059459772 0.517003
vt 0.06002661 0.5153205
vt 0.076410815 0.52379596
vt 0.07535812 0.5252176
vt 0.0727039 0.5288075
vt 0.071651205 0.5302381
vt 0.057498347 0.52292323
vt 0.058056183 0.5212317
vt 0.059459772 0.517003
vt 0.06002661 0.5153205
vt 0.04182493 0.51227033
vt 0.041815933 0.51404285
vt 0.04179794 0.5185055
vt 0.041788943 0.52027804
vt 0.057498347 0.52292323
vt 0.058056183 0.5212317
vt 0.041815933 0.51404285
vt 0.04182493 0.51227033
vt 0.023569271 0.51507753
vt 0.02411811 0.51676005
vt 0.025512703 0.5209888
vt 0.026061542 0.5226893
vt 0.041788943 0.52027804
vt 0.04179794 0.5185055
vt 0.02411811 0.51676005
vt 0.023569271 0.51507753
vt 0.0073290197 0.5234721
vt 0.008156777 0.5250826
vt 0.0110449325 0.5284836
vt 0.011854696 0.53006715
vt 0.026061542 0.5226893
vt 0.025512703 0.5209888
vt 0.008156777 0.5250826
vt 0.0073290197 0.5234721
vt 0.023569271 0.51507753
vt 0.02411811 0.51676005
vt 0.025512703 0.5209888
vt 0.026061542 0.5226893
vt 0.011854696 0.53006715
vt 0.0110449325 0.5284836
vt 0.025512703 0.5209888
vt 0.026061542 0.5226893
vt 0.041788943 0.52027804
vt 0.04179794 0.5185055
vt 0.041815933 0.51404285
vt 0.04182493 0.51227033
vt 0.023569271 0.51507753
vt 0.02411811 0.51676005
vt 0.04179794 0.5185055
vt 0.041788943 0.52027804
vt 0.057498347 0.52292323
vt 0.058056183 0.5212317
vt 0.059459772 0.517003
vt 0.06002661 0.5153205
vt 0.04182493 0.51227033
vt 0.041815933 0.51404285
vt 0.058056183 0.5212317
vt 0.057498347 0.52292323
vt 0.071651205 0.5302381
vt 0.0727039 0.5288075
vt 0.07535812 0.5252176
vt 0.076410815 0.52379596
vt 0.06002661 0.5153205
vt 0.059459772 0.517003
vt 0.058056183 0.5212317
vt 0.057498347 0.52292323
vt 0.041788943 0.52027804
vt 0.04179794 0.5185055
vt 0.041815933 0.51404285
vt 0.04182493 0.51227033
vt 0.06002661 0.5153205
vt 0.059459772 0.517003
vt 0.04179794 0.5185055
vt 0.041788943 0.52027804
vt 0.026061542 0.5226893
vt 0.025512703 0.5209888
vt 0.02411811 0.51676005
vt 0.023569271 0.51507753
vt 0.04182493 0.51227033
vt 0.041815933 0.51404285
vt 0.025512703 0.5209888
vt 0.026061542 0.5226893
vt 0.011854696 0.53006715
vt 0.0110449325 0.5284836
vt 0.008156777 0.5250826
vt 0.0073290197 0.5234721
vt 0.023569271 0.51507753
vt 0.02411811 0.51676005
vt 0.0110449325 0.5284836
vt 0.011854696 0.53006715
vt 0.026061542 0.5226893
vt 0.025512703 0.5209888
vt 0.02411811 0.51676005
vt 0.023569271 0.51507753
vt 0.0073290197 0.5234721
vt 0.008156777 0.5250826
vn -3.0398369E-05 -1 -0
vn -3.0398369E-05 -1 -0
vn -3.0398369E-05 -1 -0
vn -3.0398369E-05 -1 -0
vn -3.0398369E-05 -1 -0
vn -3.0398369E-05 -1 -0
vn -3.0398369E-05 -1 -0
vn -3.0398369E-05 -1 -0
vn -3.0398369E-05 -1 -0
vn -3.0398369E-05 -1 -0
vn -3.0398369E-05 -1 -0
vn -3.0398369E-05 -1 -0
vn -3.0398369E-05 -1 -0
vn -3.0398369E-05 -1 -0
vn -3.0398369E-05 -1 -0
vn -3.0398369E-05 -1 -0
vn -3.0398369E-05 -1 -0
vn -3.0398369E-05 -1 -0
vn -3.0398369E-05 -1 -0
vn -3.0398369E-05 -1 -0
vn -3.0398369E-05 -1 -0
vn -3.0398369E-05 -1 -0
vn -3.0398369E-05 -1 -0
vn -3.0398369E-05 -1 -0
vn -3.0398369E-05 -1 -0
vn -3.0398369E-05 -1 -0
vn -3.0398369E-05 -1 -0
vn -3.0398369E-05 -1 -0
vn -3.0398369E-05 -1 -0
vn -3.0398369E-05 -1 -0
vn -3.0398369E-05 -1 -0
vn -3.0398369E-05 -1 -0
vn -0.78190744 3.0398369E-05 0.62339455
vn -0.78190744 3.0398369E-05 0.62339455
vn -0.78190744 3.0398369E-05 0.62339455
vn -0.78190744 3.0398369E-05 0.62339455
vn 0.78184664 3.0398369E-05 -0.6234708
vn 0.78184664 3.0398369E-05 -0.6234708
vn 0.78184664 3.0398369E-05 -0.6234708
vn 0.78184664 3.0398369E-05 -0.6234708
vn -0.43440652 3.0398369E-05 0.9007169
vn -0.43440652 3.0398369E-05 0.9007169
vn -0.43440652 3.0398369E-05 0.9007169
vn -0.43440652 3.0398369E-05 0.9007169
vn 0.43434572 3.0398369E-05 -0.9007462
vn 0.43434572 3.0398369E-05 -0.9007462
vn 0.43434572 3.0398369E-05 -0.9007462
vn 0.43434572 3.0398369E-05 -0.9007462
vn -0.0019609928 3.0398369E-05 0.99999803
vn -0.0019609928 3.0398369E-05 0.99999803
vn -0.0019609928 3.0398369E-05 0.99999803
vn -0.0019609928 3.0398369E-05 0.99999803
vn 0.0019001365 3.0398369E-05 -0.99999815
vn 0.0019001365 3.0398369E-05 -0.99999815
vn 0.0019001365 3.0398369E-05 -0.99999815
vn 0.0019001365 3.0398369E-05 -0.99999815
vn 0.4324152 3.0398369E-05 0.9016746
vn 0.4324152 3.0398369E-05 0.9016746
vn 0.4324152 3.0398369E-05 0.9016746
vn 0.4324152 3.0398369E-05 0.9016746
vn -0.43247592 3.0398369E-05 -0.9016455
vn -0.43247592 3.0398369E-05 -0.9016455
vn -0.43247592 3.0398369E-05 -0.9016455
vn -0.43247592 3.0398369E-05 -0.9016455
vn 0.78184664 3.0398369E-05 0.6234708
vn 0.78184664 3.0398369E-05 0.6234708
vn 0.78184664 3.0398369E-05 0.6234708
vn 0.78184664 3.0398369E-05 0.6234708
vn -0.78190744 3.0398369E-05 -0.62339455
vn -0.78190744 3.0398369E-05 -0.62339455
vn -0.78190744 3.0398369E-05 -0.62339455
vn -0.78190744 3.0398369E-05 -0.62339455
vn 0.9749027 3.0398369E-05 0.22263135
vn 0.9749027 3.0398369E-05 0.22263135
vn 0.9749027 3.0398369E-05 0.22263135
vn 0.9749027 3.0398369E-05 0.22263135
vn -0.97496355 3.0398369E-05 -0.2223648
vn -0.97496355 3.0398369E-05 -0.2223648
vn -0.97496355 3.0398369E-05 -0.2223648
vn -0.97496355 3.0398369E-05 -0.2223648
vn -0.97496355 3.0398369E-05 0.2223648
vn -0.97496355 3.0398369E-05 0.2223648
vn -0.97496355 3.0398369E-05 0.2223648
vn -0.97496355 3.0398369E-05 0.2223648
vn 0.9749027 3.0398369E-05 -0.22263135
vn 0.9749027 3.0398369E-05 -0.22263135
vn 0.9749027 3.0398369E-05 -0.22263135
vn 0.9749027 3.0398369E-05 -0.22263135
vn 0.78184664 3.0398369E-05 0.6234708
vn 0.78184664 3.0398369E-05 0.6234708
vn 0.78184664 3.0398369E-05 0.6234708
vn 0.78184664 3.0398369E-05 0.6234708
vn -0.78190744 3.0398369E-05 -0.62339455
vn -0.78190744 3.0398369E-05 -0.62339455
vn -0.78190744 3.0398369E-05 -0.62339455
vn -0.78190744 3.0398369E-05 -0.62339455
vn 0.43434572 3.0398369E-05 0.9007462
vn 0.43434572 3.0398369E-05 0.9007462
vn 0.43434572 3.0398369E-05 0.9007462
vn 0.43434572 3.0398369E-05 0.9007462
vn -0.43440652 3.0398369E-05 -0.9007169
vn -0.43440652 3.0398369E-05 -0.9007169
vn -0.43440652 3.0398369E-05 -0.9007169
vn -0.43440652 3.0398369E-05 -0.9007169
vn 0.0019001365 3.0398369E-05 0.99999815
vn 0.0019001365 3.0398369E-05 0.99999815
vn 0.0019001365 3.0398369E-05 0.99999815
vn 0.0019001365 3.0398369E-05 0.99999815
vn -0.0019609928 3.0398369E-05 -0.99999803
vn -0.0019609928 3.0398369E-05 -0.99999803
vn -0.0019609928 3.0398369E-05 -0.99999803
vn -0.0019609928 3.0398369E-05 -0.99999803
vn -0.43247592 3.0398369E-05 0.9016455
vn -0.43247592 3.0398369E-05 0.9016455
vn -0.43247592 3.0398369E-05 0.9016455
vn -0.43247592 3.0398369E-05 0.9016455
vn 0.4324152 3.0398369E-05 -0.9016746
vn 0.4324152 3.0398369E-05 -0.9016746
vn 0.4324152 3.0398369E-05 -0.9016746
vn 0.4324152 3.0398369E-05 -0.9016746
vn -0.78190744 3.0398369E-05 0.62339455
vn -0.78190744 3.0398369E-05 0.62339455
vn -0.78190744 3.0398369E-05 0.62339455
vn -0.78190744 3.0398369E-05 0.62339455
vn 0.78184664 3.0398369E-05 -0.6234708
vn 0.78184664 3.0398369E-05 -0.6234708
vn 0.78184664 3.0398369E-05 -0.6234708
vn 0.78184664 3.0398369E-05 -0.6234708
vn -0.97496355 3.0398369E-05 0.2223648
vn -0.97496355 3.0398369E-05 0.2223648
vn -0.97496355 3.0398369E-05 0.2223648
vn -0.97496355 3.0398369E-05 0.2223648
vn 0.9749027 3.0398369E-05 -0.22263135
vn 0.9749027 3.0398369E-05 -0.22263135
vn 0.9749027 3.0398369E-05 -0.22263135
vn 0.9749027 3.0398369E-05 -0.22263135
vn 0.9749027 3.0398369E-05 0.22263135
vn 0.9749027 3.0398369E-05 0.22263135
vn 0.9749027 3.0398369E-05 0.22263135
vn 0.9749027 3.0398369E-05 0.22263135
vn -0.97496355 3.0398369E-05 -0.2223648
vn -0.97496355 3.0398369E-05 -0.2223648
vn -0.97496355 3.0398369E-05 -0.2223648
vn -0.97496355 3.0398369E-05 -0.2223648
g fcbg_campaign_light_07_0
f 3/3/3 2/2/2 1/1/1
f 4/4/4 3/3/3 1/1/1
f 4/4/4 1/1/1 5/5/5
f 6/6/6 4/4/4 5/5/5
f 6/6/6 5/5/5 7/7/7
f 8/8/8 6/6/6 7/7/7
f 8/8/8 7/7/7 9/9/9
f 10/10/10 8/8/8 9/9/9
f 11/11/11 10/10/10 9/9/9
f 12/12/12 11/11/11 9/9/9
f 13/13/13 11/11/11 12/12/12
f 14/14/14 13/13/13 12/12/12
f 15/15/15 13/13/13 14/14/14
f 16/16/16 15/15/15 14/14/14
f 17/17/17 15/15/15 16/16/16
f 18/18/18 17/17/17 16/16/16
f 21/21/21 20/20/20 19/19/19
f 20/20/20 22/22/22 19/19/19
f 20/20/20 23/23/23 22/22/22
f 23/23/23 24/24/24 22/22/22
f 23/23/23 25/25/25 24/24/24
f 25/25/25 26/26/26 24/24/24
f 26/26/26 25/25/25 27/27/27
f 25/25/25 28/28/28 27/27/27
f 27/27/27 28/28/28 29/29/29
f 28/28/28 30/30/30 29/29/29
f 29/29/29 30/30/30 31/31/31
f 30/30/30 32/32/32 31/31/31
f 35/35/35 34/34/34 33/33/33
f 36/36/36 35/35/35 33/33/33
f 39/39/39 38/38/38 37/37/37
f 40/40/40 39/39/39 37/37/37
f 43/43/43 42/42/42 41/41/41
f 44/44/44 43/43/43 41/41/41
f 47/47/47 46/46/46 45/45/45
f 48/48/48 47/47/47 45/45/45
f 51/51/51 50/50/50 49/49/49
f 52/52/52 51/51/51 49/49/49
f 55/55/55 54/54/54 53/53/53
f 56/56/56 55/55/55 53/53/53
f 59/59/59 58/58/58 57/57/57
f 60/60/60 59/59/59 57/57/57
f 63/63/63 62/62/62 61/61/61
f 64/64/64 63/63/63 61/61/61
f 67/67/67 66/66/66 65/65/65
f 68/68/68 67/67/67 65/65/65
f 71/71/71 70/70/70 69/69/69
f 72/72/72 71/71/71 69/69/69
f 75/75/75 74/74/74 73/73/73
f 76/76/76 75/75/75 73/73/73
f 79/79/79 78/78/78 77/77/77
f 80/80/80 79/79/79 77/77/77
f 83/83/83 82/82/82 81/81/81
f 84/84/84 83/83/83 81/81/81
f 87/87/87 86/86/86 85/85/85
f 88/88/88 87/87/87 85/85/85
f 91/91/91 90/90/90 89/89/89
f 92/92/92 91/91/91 89/89/89
f 95/95/95 94/94/94 93/93/93
f 96/96/96 95/95/95 93/93/93
f 99/99/99 98/98/98 97/97/97
f 100/100/100 99/99/99 97/97/97
f 103/103/103 102/102/102 101/101/101
f 104/104/104 103/103/103 101/101/101
f 107/107/107 106/106/106 105/105/105
f 108/108/108 107/107/107 105/105/105
f 111/111/111 110/110/110 109/109/109
f 112/112/112 111/111/111 109/109/109
f 115/115/115 114/114/114 113/113/113
f 116/116/116 115/115/115 113/113/113
f 119/119/119 118/118/118 117/117/117
f 120/120/120 119/119/119 117/117/117
f 123/123/123 122/122/122 121/121/121
f 124/124/124 123/123/123 121/121/121
f 127/127/127 126/126/126 125/125/125
f 128/128/128 127/127/127 125/125/125
f 131/131/131 130/130/130 129/129/129
f 132/132/132 131/131/131 129/129/129
f 135/135/135 134/134/134 133/133/133
f 136/136/136 135/135/135 133/133/133
f 139/139/139 138/138/138 137/137/137
f 140/140/140 139/139/139 137/137/137
f 143/143/143 142/142/142 141/141/141
f 144/144/144 143/143/143 141/141/141
