g fcbg_cityforest_007_rapture_04
v -0.36074132 -0.031433284 -0.55947423
v -0.36785132 -0.014911056 -0.03063804
v -0.35157937 -0.27154177 -0.13532692
v -0.3478207 -0.27768952 -0.42789683
v -0.039401114 -0.25959474 -0.42431486
v -0.36074132 -0.031433284 -0.55947423
v -0.05159682 -0.013224006 -0.5579835
v 0.25783896 -0.001000464 -0.5598211
v 0.26930326 -0.24732703 -0.42824373
v -0.039548337 -0.25323588 -0.13170403
v -0.36785132 -0.014911056 -0.03063804
v -0.052127004 0.0036107898 -0.026972592
v 0.26388526 0.016169786 -0.030993104
v 0.27276576 -0.24082416 -0.1356771
v 0.25783896 -0.001000464 -0.5598211
v 0.26388526 0.016169786 -0.030993104
v 0.50827444 -0.054425716 -0.2539035
v 0.38276625 0.00017118454 -0.42694283
v 0.26388526 0.016169786 -0.030993104
v 0.41045824 -0.0077552795 0.23728186
v 0.25783896 -0.001000464 -0.5598211
v 0.3986454 -0.022040665 -0.47472268
v 0.19525832 0.010622561 -0.67606103
v -0.05159682 -0.013224006 -0.5579835
v -0.03641963 0.014621794 -0.78650826
v -0.2755807 -0.018360496 -0.6774814
v -0.36074132 -0.031433284 -0.55947423
v -0.47469527 -0.07360208 -0.49011093
v -0.45929223 -0.057322025 -0.46624473
v -0.36785132 -0.014911056 -0.03063804
v -0.5641988 -0.11422944 -0.33920985
v -0.48105735 -0.05183208 0.22649342
v 0.19175488 0.044513047 0.37113374
v 0.3052457 -0.027859509 0.5330197
v 0.1413945 0.04113233 0.68404025
v -0.052127004 0.0036107898 -0.026972592
v -0.29718047 0.020581424 0.37188977
v -0.36870545 -0.05861801 0.5281336
v -0.213072 0.023692131 0.68423826
v -0.05426246 0.051650822 0.37876242
v -0.043099225 0.07858354 0.80606633
v 0.3052457 -0.027859509 0.5330197
v 0.1413945 0.04113233 0.68404025
v 0.14757663 0.15062398 0.7322816
v -0.043099225 0.07858354 0.80606633
v 0.32299525 0.07538283 0.56970996
v 0.41045824 -0.0077552795 0.23728186
v 0.4374662 0.09795302 0.2509454
v 0.50827444 -0.054425716 -0.2539035
v 0.54285383 0.04766959 -0.27825737
v 0.38276625 0.00017118454 -0.42694283
v 0.40763062 0.106493175 -0.4646902
v 0.3986454 -0.022040665 -0.47472268
v 0.42473868 0.08255988 -0.51616824
v 0.19525832 0.010622561 -0.67606103
v 0.20560986 0.11775291 -0.73308957
v -0.03641963 0.014621794 -0.78650826
v 0.30849385 0.17077893 -0.41603327
v 0.2781068 0.23107845 -0.111938536
v -0.043999255 0.12206143 -0.85208505
v -0.2755807 -0.018360496 -0.6774814
v -0.047952652 0.20541066 -0.57365
v -0.30129427 0.086852014 -0.7341074
v -0.47469527 -0.07360208 -0.49011093
v -0.052943528 0.29704958 -0.19674903
v -0.05328226 0.32668394 0.2192443
v 0.23326916 0.24605924 0.2198891
v -0.39919394 0.13597041 -0.41556856
v -0.51563674 0.027542472 -0.5316514
v -0.45929223 -0.057322025 -0.46624473
v -0.52221817 0.04625249 -0.48947275
v -0.5641988 -0.11422944 -0.33920985
v -0.61263484 -0.016771615 -0.37017614
v -0.48105735 -0.05183208 0.22649342
v -0.37442118 0.1989749 -0.11157203
v -0.52305275 0.05046445 0.23932236
v -0.36870545 -0.05861801 0.5281336
v -0.3308975 0.21830338 0.22020489
v -0.40125412 0.042220533 0.5642168
v -0.213072 0.023692131 0.68423826
v -0.23432499 0.13183367 0.73249596
v -0.05119753 0.19097477 0.86375266
vt 0.50280386 0.19904405
vt 0.50299966 0.20853466
vt 0.4984201 0.2066064
vt 0.49835983 0.20136398
vt 0.49281612 0.20139411
vt 0.49835983 0.19636257
vt 0.49281612 0.19636257
vt 0.48725733 0.19636257
vt 0.48725733 0.20136398
vt 0.49281612 0.20666666
vt 0.49848035 0.21157768
vt 0.49281612 0.21165301
vt 0.4871368 0.21157768
vt 0.48721215 0.2066064
vt 0.48281333 0.19904405
vt 0.48261747 0.20853466
vt 0.48368704 0.7863622
vt 0.478761 0.78244543
vt 0.49011958 0.7791614
vt 0.497697 0.783515
vt 0.47499487 0.7790409
vt 0.47742024 0.78306305
vt 0.4716355 0.7772632
vt 0.47504005 0.7702432
vt 0.46847194 0.770665
vt 0.4719217 0.7639764
vt 0.4751907 0.7614305
vt 0.4774805 0.75814646
vt 0.47779685 0.75847787
vt 0.4903305 0.7609484
vt 0.48127675 0.7549528
vt 0.4976217 0.75754386
vt 0.5017192 0.7772331
vt 0.50644946 0.780939
vt 0.5106976 0.77608824
vt 0.49039075 0.77004737
vt 0.50189996 0.7632081
vt 0.5065549 0.76022536
vt 0.51089346 0.76543766
vt 0.50206566 0.770198
vt 0.5143131 0.77069515
vt 0.5813499 0.80588573
vt 0.5738177 0.8123032
vt 0.5713622 0.8116554
vt 0.5613895 0.8175607
vt 0.5794367 0.8058556
vt 0.585809 0.7925085
vt 0.58383554 0.79255366
vt 0.58999693 0.77051437
vt 0.5880988 0.7706198
vt 0.5840013 0.7630876
vt 0.5820128 0.76366
vt 0.58425736 0.760843
vt 0.5828865 0.7613401
vt 0.5754597 0.75141263
vt 0.57378757 0.75266296
vt 0.5631822 0.7462154
vt 0.5774181 0.76560336
vt 0.57588154 0.7777905
vt 0.5633931 0.74775195
vt 0.55052805 0.7507799
vt 0.5631069 0.7592612
vt 0.5525467 0.75234663
vt 0.54132366 0.7588846
vt 0.56274533 0.7743859
vt 0.5631671 0.79065555
vt 0.5748873 0.7908966
vt 0.54852444 0.7649255
vt 0.5431615 0.7603157
vt 0.54132366 0.75963783
vt 0.54361343 0.7607827
vt 0.536262 0.76515144
vt 0.53805465 0.7657088
vt 0.5382656 0.7911828
vt 0.54945844 0.77717286
vt 0.54072106 0.79113764
vt 0.54216725 0.8046956
vt 0.55070883 0.7910924
vt 0.54463786 0.8046956
vt 0.5495338 0.8118211
vt 0.55259186 0.81121856
vt 0.56259465 0.81646097
vn 0.1170311 -0.9838067 -0.13575009
vn 0.05275333 -0.94874614 0.31160522
vn -0.5666504 -0.69163513 0.44782606
vn -0.560807 -0.7208523 -0.4072683
vn 0.043014288 -0.8630425 -0.5032966
vn 0.1170311 -0.9838067 -0.13575009
vn 0.04690993 -0.8279819 -0.55878925
vn 0.095605135 -0.97211987 -0.21410896
vn 0.6273574 -0.662418 -0.40942037
vn 0.041066468 -0.82019067 0.5706144
vn 0.05275333 -0.94874614 0.31160522
vn 0.039118648 -0.80460817 0.5925162
vn 0.08197051 -0.94874614 0.30522382
vn 0.6332009 -0.6332009 0.44509912
vn 0.095605135 -0.97211987 -0.21410896
vn 0.08197051 -0.94874614 0.30522382
vn 0.5124366 -0.84746003 -0.13863684
vn 0.40530705 -0.9097899 -0.08949011
vn 0.08197051 -0.94874614 0.30522382
vn 0.5124366 -0.83966875 0.17990299
vn 0.095605135 -0.97211987 -0.21410896
vn 0.58450556 -0.8104516 -0.039004475
vn 0.32544678 -0.7948691 -0.51212054
vn 0.04690993 -0.8279819 -0.55878925
vn 0.05470115 -0.7792866 -0.6242757
vn -0.21409667 -0.83966875 -0.4991182
vn 0.1170311 -0.9838067 -0.13575009
vn -0.45757306 -0.888364 -0.037897673
vn -0.10696709 -0.9935458 -0.03774717
vn 0.05275333 -0.94874614 0.31160522
vn -0.37771273 -0.91173774 -0.16145395
vn -0.39719093 -0.9019987 0.1692268
vn -0.17115615 -0.9852439 -0
vn 0.33713365 -0.888364 0.31168938
vn 0.22026503 -0.82603407 0.5187977
vn 0.039118648 -0.80460817 0.5925162
vn 0.3059687 -0.95069396 -0.05063726
vn -0.2063055 -0.93511146 0.2881052
vn -0.13618433 -0.8571991 0.49665236
vn 0.05080551 -0.9974414 0.05029356
vn 0.033275247 -0.7266958 0.6861531
vn 0.33713365 -0.888364 0.31168938
vn 0.22026503 -0.82603407 0.5187977
vn 0.5961925 0.385504 0.7042309
vn 0.033275247 -0.7266958 0.6861531
vn 0.8123994 0.19072294 0.55102813
vn 0.5124366 -0.83966875 0.17990299
vn 0.90589434 0.34654784 0.24343383
vn 0.5124366 -0.84746003 -0.13863684
vn 0.94874614 0.2121489 -0.23425114
vn 0.40530705 -0.9097899 -0.08949011
vn 0.7909735 0.5783373 -0.19971696
vn 0.58450556 -0.8104516 -0.039004475
vn 0.91952896 0.2179923 -0.3270258
vn 0.32544678 -0.7948691 -0.51212054
vn 0.5260713 0.36602592 -0.76764184
vn 0.05470115 -0.7792866 -0.6242757
vn 0.36050737 0.91141284 -0.19839637
vn 0.4014114 0.9133607 -0.0681253
vn -0.013472199 0.32706976 -0.94490415
vn -0.21409667 -0.83966875 -0.4991182
vn -0.050480604 0.9698472 -0.23842841
vn -0.54327667 0.2998004 -0.7842003
vn -0.45757306 -0.888364 -0.037897673
vn -0.048532844 0.9893253 -0.13740455
vn -0.050480604 0.9951687 0.08420799
vn 0.41894168 0.9016738 0.107108474
vn -0.44004273 0.8783001 -0.1869529
vn -0.9133607 0.038793802 -0.40529895
vn -0.10696709 -0.9935458 -0.03774717
vn -0.8627176 0.43419933 -0.25920886
vn -0.37771273 -0.91173774 -0.16145395
vn -0.9523169 0.07774997 -0.29503813
vn -0.39719093 -0.9019987 0.1692268
vn -0.49847698 0.8646654 -0.062245328
vn -0.9445256 0.22967923 0.23477407
vn -0.2063055 -0.93511146 0.2881052
vn -0.50821614 0.85492635 0.104006484
vn -0.8315526 0.11281061 0.5438695
vn -0.13618433 -0.8571991 0.49665236
vn -0.64456284 0.31343508 0.69735014
vn -0.031002522 0.41472113 0.90942025
g fcbg_cityforest_007_rapture_04_0
f 3/3/3 2/2/2 1/1/1
f 4/4/4 3/3/3 1/1/1
f 4/4/4 5/5/5 3/3/3
f 4/4/4 6/6/6 5/5/5
f 6/6/6 7/7/7 5/5/5
f 7/7/7 8/8/8 5/5/5
f 8/8/8 9/9/9 5/5/5
f 5/5/5 10/10/10 3/3/3
f 3/3/3 10/10/10 11/11/11
f 10/10/10 12/12/12 11/11/11
f 12/12/12 10/10/10 13/13/13
f 10/10/10 14/14/14 13/13/13
f 10/10/10 5/5/5 14/14/14
f 5/5/5 9/9/9 14/14/14
f 14/14/14 9/9/9 15/15/15
f 16/16/16 14/14/14 15/15/15
f 19/19/19 18/18/18 17/17/17
f 20/20/20 19/19/19 17/17/17
f 21/21/21 18/18/18 19/19/19
f 22/22/22 18/18/18 21/21/21
f 23/23/23 22/22/22 21/21/21
f 24/24/24 23/23/23 21/21/21
f 23/23/23 24/24/24 25/25/25
f 26/26/26 25/25/25 24/24/24
f 27/27/27 26/26/26 24/24/24
f 28/28/28 26/26/26 27/27/27
f 29/29/29 28/28/28 27/27/27
f 27/27/27 30/30/30 29/29/29
f 30/30/30 31/31/31 29/29/29
f 32/32/32 31/31/31 30/30/30
f 33/33/33 19/19/19 20/20/20
f 34/34/34 33/33/33 20/20/20
f 33/33/33 34/34/34 35/35/35
f 19/19/19 33/33/33 36/36/36
f 37/37/37 32/32/32 30/30/30
f 37/37/37 30/30/30 36/36/36
f 38/38/38 32/32/32 37/37/37
f 38/38/38 37/37/37 39/39/39
f 33/33/33 35/35/35 40/40/40
f 33/33/33 40/40/40 36/36/36
f 40/40/40 37/37/37 36/36/36
f 39/39/39 37/37/37 40/40/40
f 35/35/35 41/41/41 40/40/40
f 41/41/41 39/39/39 40/40/40
f 44/44/44 43/43/43 42/42/42
f 45/45/45 43/43/43 44/44/44
f 46/46/46 44/44/44 42/42/42
f 46/46/46 42/42/42 47/47/47
f 48/48/48 46/46/46 47/47/47
f 46/46/46 48/48/48 44/44/44
f 48/48/48 47/47/47 49/49/49
f 50/50/50 48/48/48 49/49/49
f 49/49/49 51/51/51 50/50/50
f 51/51/51 52/52/52 50/50/50
f 52/52/52 51/51/51 53/53/53
f 54/54/54 52/52/52 53/53/53
f 54/54/54 53/53/53 55/55/55
f 56/56/56 54/54/54 55/55/55
f 52/52/52 54/54/54 56/56/56
f 56/56/56 55/55/55 57/57/57
f 52/52/52 58/58/58 50/50/50
f 58/58/58 52/52/52 56/56/56
f 50/50/50 59/59/59 48/48/48
f 58/58/58 59/59/59 50/50/50
f 60/60/60 56/56/56 57/57/57
f 60/60/60 57/57/57 61/61/61
f 58/58/58 56/56/56 62/62/62
f 60/60/60 62/62/62 56/56/56
f 63/63/63 60/60/60 61/61/61
f 60/60/60 63/63/63 62/62/62
f 63/63/63 61/61/61 64/64/64
f 58/58/58 62/62/62 65/65/65
f 59/59/59 58/58/58 65/65/65
f 59/59/59 65/65/65 66/66/66
f 59/59/59 67/67/67 48/48/48
f 67/67/67 59/59/59 66/66/66
f 48/48/48 67/67/67 44/44/44
f 67/67/67 66/66/66 44/44/44
f 65/65/65 62/62/62 68/68/68
f 63/63/63 68/68/68 62/62/62
f 69/69/69 63/63/63 64/64/64
f 69/69/69 64/64/64 70/70/70
f 71/71/71 63/63/63 69/69/69
f 71/71/71 69/69/69 70/70/70
f 71/71/71 68/68/68 63/63/63
f 71/71/71 70/70/70 72/72/72
f 73/73/73 71/71/71 72/72/72
f 68/68/68 71/71/71 73/73/73
f 73/73/73 72/72/72 74/74/74
f 75/75/75 65/65/65 68/68/68
f 68/68/68 73/73/73 75/75/75
f 65/65/65 75/75/75 66/66/66
f 76/76/76 73/73/73 74/74/74
f 75/75/75 73/73/73 76/76/76
f 76/76/76 74/74/74 77/77/77
f 78/78/78 75/75/75 76/76/76
f 75/75/75 78/78/78 66/66/66
f 79/79/79 76/76/76 77/77/77
f 76/76/76 79/79/79 78/78/78
f 79/79/79 77/77/77 80/80/80
f 79/79/79 81/81/81 78/78/78
f 81/81/81 79/79/79 80/80/80
f 78/78/78 81/81/81 66/66/66
f 81/81/81 80/80/80 45/45/45
f 81/81/81 82/82/82 66/66/66
f 82/82/82 81/81/81 45/45/45
f 66/66/66 82/82/82 44/44/44
f 82/82/82 45/45/45 44/44/44
