g fcbg_desert_006_drumcan_02
v -0.6127881 2.1744487 0.36460495
v -0.6127881 -8.34465E-07 0.36460495
v -0.7079687 -8.34465E-07 0.010425568
v -0.7079687 2.1744487 0.010425568
v -0.6246561 2.2025037 0.37146842
v -0.61330724 -8.34465E-07 -0.3438949
v -0.7216759 2.2025037 0.010436833
v -0.60750437 2.2352893 0.36154985
v -0.701864 2.2352893 0.010422766
v -0.61330724 2.1744487 -0.3438949
v -0.35416722 -8.34465E-07 -0.6034128
v -0.62518644 2.2025037 -0.35074145
v -0.60802066 2.2352893 -0.3408482
v -0.35416722 2.1744487 -0.6034128
v 1.21593475E-05 1.9669533E-06 -0.6985934
v -0.36103356 2.2025037 -0.61528075
v -0.35111213 2.2352893 -0.5981291
v 1.21593475E-05 2.1744487 -0.6985934
v 0.3543326 1.9669533E-06 -0.6039319
v 8.34465E-07 2.2025037 -0.7123034
v 1.7762184E-05 2.2352893 -0.69249153
v 0.35432976 2.1744487 -0.6039319
v 0.61385053 1.9669533E-06 -0.34479478
v 0.36117634 2.2025037 -0.6158111
v 0.3512859 2.2352893 -0.5986453
v 0.61385053 2.1744487 -0.34479478
v 0.70903105 -8.34465E-07 0.0093874335
v 0.6257185 2.2025037 -0.35165545
v 0.60856396 2.2352893 -0.34173965
v 0.70903105 2.1744487 0.0093874335
v 0.6143696 -8.34465E-07 0.36370504
v 0.6143696 2.1744459 0.36370504
v 0.7227411 2.2025037 0.009376168
v 0.70292926 2.2352893 0.009393096
v 0.626246 2.2025037 0.3705516
v 0.6090802 2.2352893 0.36065555
v -0.60802066 2.2352893 -0.3408482
v -0.60750437 2.2352893 0.36154985
v -0.701864 2.2352893 0.010422766
v -0.35111213 2.2352893 -0.5981291
v -0.35022068 2.2352893 0.6184583
v 0.0010474324 2.2352893 0.71230173
v 1.7762184E-05 2.2352893 -0.69249153
v 0.35217735 2.2352893 0.6179421
v 0.3512859 2.2352893 -0.5986453
v 0.6090802 2.2352893 0.36065555
v 0.60856396 2.2352893 -0.34173965
v 0.70292926 2.2352893 0.009393096
vt 0.11551547 0.19435817
vt 0.11551547 0.12454665
vt 0.105763316 0.12454665
vt 0.105763316 0.19435817
vt 0.11551547 0.19625878
vt 0.09601122 0.12454665
vt 0.105763316 0.19625878
vt 0.11551547 0.19809383
vt 0.105763316 0.19809383
vt 0.09601122 0.19435817
vt 0.08627218 0.12454665
vt 0.09601122 0.19625878
vt 0.09601122 0.19809383
vt 0.08627218 0.19435817
vt 0.076520085 0.12454665
vt 0.08627218 0.19625878
vt 0.08627218 0.19809383
vt 0.076520085 0.19435817
vt 0.06676799 0.12454665
vt 0.076520085 0.19625878
vt 0.076520085 0.19809383
vt 0.06676799 0.19435817
vt 0.057015836 0.12454665
vt 0.06676799 0.19625878
vt 0.06676799 0.19809383
vt 0.057015836 0.19435817
vt 0.04726374 0.12454665
vt 0.057015836 0.19625878
vt 0.057015836 0.19809383
vt 0.04726374 0.19435817
vt 0.037511647 0.12454665
vt 0.037511647 0.19435817
vt 0.04726374 0.19625878
vt 0.04726374 0.19809383
vt 0.037511647 0.19625878
vt 0.037511647 0.19809383
vt 0.025334597 0.22814977
vt 0.03799659 0.24081177
vt 0.0333696 0.23278987
vt 0.016067445 0.22814977
vt 0.03799659 0.25007892
vt 0.0333696 0.2581008
vt 0.008045554 0.23278987
vt 0.025334597 0.26274097
vt 0.0034185648 0.24081177
vt 0.016067445 0.26274097
vt 0.0034185648 0.25007892
vt 0.008045554 0.2581008
vn -0.94134855 -0.22580636 0.2507477
vn -0.96480894 -0.0009775162 0.2629501
vn -0.9999995 -0.0009775162 -0
vn -0.97234285 -0.23355773 -0
vn -0.96480894 0.040078163 0.2598797
vn -0.8670572 -0.0009775162 -0.49820763
vn -0.9991178 0.041996133 -0
vn -0.37634385 0.9217982 0.093023345
vn -0.5483868 0.8357767 0.027372073
vn -0.8416418 -0.23362648 -0.4868858
vn -0.50146604 -0.0009775162 -0.8651768
vn -0.8651022 0.042033195 -0.49983144
vn -0.47605062 0.8357767 -0.27359298
vn -0.48582578 -0.23362648 -0.8422541
vn -0.0009775162 -0.0009775162 -0.99999905
vn -0.499511 0.042033195 -0.8652872
vn -0.27468216 0.8357767 -0.47542298
vn -0.0009775162 -0.23362648 -0.9723259
vn 0.499511 -0.0009775162 -0.866307
vn -0.0009775162 0.042033195 -0.9991157
vn -0.0009775162 0.8357767 -0.5490686
vn 0.48582578 -0.23362648 -0.8422541
vn 0.86510223 -0.0009775162 -0.5015946
vn 0.499511 0.042033195 -0.8652872
vn 0.27468216 0.8357767 -0.47542298
vn 0.84164184 -0.23362648 -0.48688573
vn 0.9999995 -0.0009775162 -0
vn 0.86510223 0.042033195 -0.49983132
vn 0.47409558 0.8357767 -0.27696696
vn 0.97234285 -0.23355773 -0
vn 0.966764 -0.0009775162 0.25566864
vn 0.94134855 -0.22580636 0.2507477
vn 0.9991178 0.041996133 -0
vn 0.5483868 0.8357767 -0.027372073
vn 0.96480894 0.040078163 0.2598797
vn 0.3763439 0.9217982 0.093023345
vn -0.47605062 0.8357767 -0.27359298
vn -0.37634385 0.9217982 0.093023345
vn -0.5483868 0.8357767 0.027372073
vn -0.27468216 0.8357767 -0.47542298
vn 0.0009775162 0.9999995 -0
vn 0.0009775162 0.9999995 -0
vn -0.0009775162 0.8357767 -0.5490686
vn 0.0009775162 0.9999995 -0
vn 0.27468216 0.8357767 -0.47542298
vn 0.3763439 0.9217982 0.093023345
vn 0.47409558 0.8357767 -0.27696696
vn 0.5483868 0.8357767 -0.027372073
g fcbg_desert_006_drumcan_02_0
f 3/3/3 2/2/2 1/1/1
f 4/4/4 3/3/3 1/1/1
f 4/4/4 1/1/1 5/5/5
f 6/6/6 3/3/3 4/4/4
f 7/7/7 4/4/4 5/5/5
f 7/7/7 5/5/5 8/8/8
f 9/9/9 7/7/7 8/8/8
f 10/10/10 6/6/6 4/4/4
f 10/10/10 4/4/4 7/7/7
f 11/11/11 6/6/6 10/10/10
f 12/12/12 7/7/7 9/9/9
f 12/12/12 10/10/10 7/7/7
f 13/13/13 12/12/12 9/9/9
f 14/14/14 11/11/11 10/10/10
f 14/14/14 10/10/10 12/12/12
f 15/15/15 11/11/11 14/14/14
f 16/16/16 12/12/12 13/13/13
f 16/16/16 14/14/14 12/12/12
f 17/17/17 16/16/16 13/13/13
f 18/18/18 15/15/15 14/14/14
f 18/18/18 14/14/14 16/16/16
f 19/19/19 15/15/15 18/18/18
f 20/20/20 16/16/16 17/17/17
f 20/20/20 18/18/18 16/16/16
f 21/21/21 20/20/20 17/17/17
f 22/22/22 19/19/19 18/18/18
f 22/22/22 18/18/18 20/20/20
f 23/23/23 19/19/19 22/22/22
f 24/24/24 20/20/20 21/21/21
f 24/24/24 22/22/22 20/20/20
f 25/25/25 24/24/24 21/21/21
f 26/26/26 23/23/23 22/22/22
f 26/26/26 22/22/22 24/24/24
f 27/27/27 23/23/23 26/26/26
f 28/28/28 24/24/24 25/25/25
f 28/28/28 26/26/26 24/24/24
f 29/29/29 28/28/28 25/25/25
f 30/30/30 27/27/27 26/26/26
f 30/30/30 26/26/26 28/28/28
f 31/31/31 27/27/27 30/30/30
f 32/32/32 31/31/31 30/30/30
f 33/33/33 28/28/28 29/29/29
f 33/33/33 30/30/30 28/28/28
f 32/32/32 30/30/30 33/33/33
f 34/34/34 33/33/33 29/29/29
f 35/35/35 32/32/32 33/33/33
f 35/35/35 33/33/33 34/34/34
f 36/36/36 35/35/35 34/34/34
f 39/39/39 38/38/38 37/37/37
f 40/40/40 37/37/37 38/38/38
f 41/41/41 40/40/40 38/38/38
f 40/40/40 41/41/41 42/42/42
f 43/43/43 40/40/40 42/42/42
f 43/43/43 42/42/42 44/44/44
f 45/45/45 43/43/43 44/44/44
f 45/45/45 44/44/44 46/46/46
f 47/47/47 45/45/45 46/46/46
f 48/48/48 47/47/47 46/46/46
