g fcbg_greathole_001_unilityploe_01
v -0.21564275 12.938239 0.21564077
v -0.30496493 4.2626224E-21 4.6048452E-08
v -0.30496493 12.938239 -2.004294E-06
v -0.21564275 3.513267E-08 0.21564281
v 4.6048115E-08 12.938239 0.30496287
v 5.9378866E-08 4.9685095E-08 0.30496493
v 0.21564281 12.938239 0.21564071
v 0.21564281 3.513267E-08 0.21564275
v 0.3049649 12.938239 -2.1191506E-06
v 0.30496493 -4.343603E-15 -7.270927E-08
v 0.2156427 12.938239 -0.21564487
v 0.21564272 -3.5132672E-08 -0.21564282
v -4.6048736E-08 12.938239 -0.304967
v -4.96851E-08 -4.9685095E-08 -0.30496493
v -0.21564281 12.938239 -0.2156448
v -0.21564281 -3.5132672E-08 -0.21564277
v -0.30496493 12.938239 -2.004294E-06
v -0.30496493 4.2626224E-21 4.6048452E-08
v -0.21808678 12.050426 -0.09439591
v -0.21808678 10.818149 -0.09439544
v -0.46559885 10.818149 0.13240783
v -0.46559885 12.050426 0.13240734
v -0.8009901 10.818149 0.11776436
v -0.8009901 12.050426 0.117763974
v -1.0277933 10.818149 -0.12974757
v -1.0277933 12.050426 -0.12974806
v -1.0131501 10.818149 -0.46513894
v -1.0131501 12.050426 -0.4651394
v -0.76563793 10.818149 -0.6919421
v -0.76563793 12.050426 -0.6919427
v -0.4302467 10.818149 -0.67729884
v -0.4302467 12.050426 -0.67729944
v -0.20344354 10.818149 -0.42978686
v -0.20344354 12.050426 -0.4297873
v -0.21808678 10.818149 -0.09439544
v -0.21808678 12.050426 -0.09439591
v -0.5553626 12.050426 -0.057484515
v -0.5553626 12.324358 -0.057484612
v -0.39382792 12.324358 -0.20550372
v -0.39382792 12.050426 -0.20550358
v -0.54184735 12.050426 -0.36703783
v -0.70338154 12.324358 -0.21901901
v -0.70338154 12.050426 -0.21901886
v -0.54184735 12.324358 -0.36703798
v -0.39382792 12.050426 -0.20550358
v -0.39382792 12.324358 -0.20550372
v -0.5486047 12.383219 -0.21226138
v -0.5553626 12.324358 -0.057484612
v -0.70338154 12.324358 -0.21901901
v -0.70338154 12.050426 -0.21901886
v -0.70338154 12.324358 -0.21901901
v -0.5553626 12.324358 -0.057484612
v -0.5553626 12.050426 -0.057484515
v -1.0277933 12.050426 -0.12974806
v -0.5553626 12.050426 -0.057484515
v -0.8009901 12.050426 0.117763974
v -0.46559885 12.050426 0.13240734
v -0.70338154 12.050426 -0.21901886
v -1.0131501 12.050426 -0.4651394
v -0.76563793 12.050426 -0.6919427
v -0.39382792 12.050426 -0.20550358
v -0.21808678 12.050426 -0.09439591
v -0.20344354 12.050426 -0.4297873
v -0.54184735 12.050426 -0.36703783
v -0.4302467 12.050426 -0.67729944
v -0.21564281 12.938239 -0.2156448
v -4.6048736E-08 12.938239 -0.304967
v -3.1400758E-13 13.024556 -2.0795783E-06
v -0.30496493 12.938239 -2.004294E-06
v 0.2156427 12.938239 -0.21564487
v -0.21564275 12.938239 0.21564077
v 0.3049649 12.938239 -2.1191506E-06
v 4.6048115E-08 12.938239 0.30496287
v 0.21564281 12.938239 0.21564071
vt 0.2898973 0.93213207
vt 0.0010160346 0.9228844
vt 0.2898973 0.9228844
vt 0.0010160346 0.93213207
vt 0.2898973 0.94137985
vt 0.0010160346 0.94137985
vt 0.2898973 0.9506275
vt 0.0010160346 0.9506275
vt 0.2898973 0.9600058
vt 0.0010160346 0.9600058
vt 0.2898973 0.97049826
vt 0.0010160346 0.97049826
vt 0.2898973 0.97933894
vt 0.0010160346 0.97933894
vt 0.2898973 0.9889936
vt 0.0010160346 0.9889936
vt 0.2898973 0.9992587
vt 0.0010160346 0.9992587
vt 0.4141526 0.9670904
vt 0.4141526 0.9225102
vt 0.4257229 0.9225102
vt 0.4257229 0.9670904
vt 0.43729305 0.9225102
vt 0.43729305 0.9670904
vt 0.44886315 0.9225102
vt 0.44886315 0.9670904
vt 0.46041188 0.9225102
vt 0.46041188 0.9670904
vt 0.44886315 0.9225102
vt 0.44886315 0.9670904
vt 0.43729305 0.9225102
vt 0.43729305 0.9670904
vt 0.4257229 0.9225102
vt 0.4257229 0.9670904
vt 0.4141526 0.9225102
vt 0.4141526 0.9670904
vt 0.43608508 0.97058284
vt 0.43608508 0.98592913
vt 0.4479619 0.98592913
vt 0.4479619 0.97058284
vt 0.4479619 0.97058284
vt 0.43608508 0.98592913
vt 0.43608508 0.97058284
vt 0.4479619 0.98592913
vt 0.46010384 0.97058284
vt 0.46010384 0.98592913
vt 0.45425123 0.9923341
vt 0.46010384 0.99847126
vt 0.4479619 0.99847126
vt 0.4479619 0.97058284
vt 0.4479619 0.98592913
vt 0.46010384 0.98592913
vt 0.46010384 0.97058284
vt 0.41505808 0.98089194
vt 0.4013818 0.9824741
vt 0.4081845 0.98776555
vt 0.39846367 0.98776555
vt 0.4058677 0.977988
vt 0.41505808 0.97117114
vt 0.4081845 0.96429753
vt 0.39689583 0.977988
vt 0.39159006 0.98089194
vt 0.39159006 0.97117114
vt 0.4013818 0.97350216
vt 0.39846367 0.96429753
vt 0.3123992 0.941467
vt 0.3057364 0.9387072
vt 0.3057364 0.9481298
vt 0.31515893 0.9481298
vt 0.29907364 0.941467
vt 0.3123992 0.9547925
vt 0.2963138 0.9481298
vt 0.3057364 0.95755243
vt 0.29907364 0.9547925
vn -0.5946899 0.54100615 0.59469014
vn -1 0 0
vn -0.8410187 0.54100615 0
vn -0.70710665 0 0.7071069
vn -0 0.54100615 0.8410187
vn -0 0 1
vn 0.59469014 0.5410061 0.5946899
vn 0.70710695 0 0.7071066
vn 0.8410187 0.5410061 0
vn 1 0 0
vn 0.5946899 0.5410061 -0.59469014
vn 0.7071066 0 -0.70710695
vn -0 0.541006 -0.8410188
vn -0 0 -1
vn -0.59469014 0.5410061 -0.59468997
vn -0.7071068 0 -0.70710665
vn -0.8410187 0.54100615 0
vn -1 0 0
vn 0.7036414 0.6302625 0.32811272
vn 0.90630805 0 0.42261776
vn 0.3420205 0 0.93969256
vn 0.2655386 0.63026255 0.7295604
vn -0.42261785 0 0.906308
vn -0.32811305 0.63026255 0.70364136
vn -0.9396923 0 0.34202096
vn -0.7295603 0.6302626 0.26553878
vn -0.90630805 0 -0.42261764
vn -0.7036414 0.63026243 -0.32811293
vn -0.34202066 0 -0.93969244
vn -0.26553872 0.6302624 -0.7295606
vn 0.4226178 0 -0.906308
vn 0.3281129 0.63026226 -0.70364153
vn 0.93969256 0 -0.3420206
vn 0.7295604 0.63026243 -0.26553878
vn 0.90630805 0 0.42261776
vn 0.7036414 0.6302625 0.32811272
vn -0.018599492 0.90453404 0.42599562
vn -0.038445566 0.47240648 0.88054186
vn 0.88054204 0.4724062 0.038444553
vn 0.42599502 0.90453434 0.018599123
vn 0.018598877 0.90453374 -0.4259961
vn -0.88054204 0.47240633 -0.038445346
vn -0.42599577 0.90453404 -0.018599195
vn 0.038444214 0.472406 -0.8805422
vn 0.42599502 0.90453434 0.018599123
vn 0.88054204 0.4724062 0.038444553
vn -0 1 0
vn -0.038445566 0.47240648 0.88054186
vn -0.88054204 0.47240633 -0.038445346
vn -0.42599577 0.90453404 -0.018599195
vn -0.88054204 0.47240633 -0.038445346
vn -0.038445566 0.47240648 0.88054186
vn -0.018599492 0.90453404 0.42599562
vn -0.7295603 0.6302626 0.26553878
vn -0.018599492 0.90453404 0.42599562
vn -0.32811305 0.63026255 0.70364136
vn 0.2655386 0.63026255 0.7295604
vn -0.42599577 0.90453404 -0.018599195
vn -0.7036414 0.63026243 -0.32811293
vn -0.26553872 0.6302624 -0.7295606
vn 0.42599502 0.90453434 0.018599123
vn 0.7036414 0.6302625 0.32811272
vn 0.7295604 0.63026243 -0.26553878
vn 0.018598877 0.90453374 -0.4259961
vn 0.3281129 0.63026226 -0.70364153
vn -0.59469014 0.5410061 -0.59468997
vn -0 0.541006 -0.8410188
vn -0 1 0
vn -0.8410187 0.54100615 0
vn 0.5946899 0.5410061 -0.59469014
vn -0.5946899 0.54100615 0.59469014
vn 0.8410187 0.5410061 0
vn -0 0.54100615 0.8410187
vn 0.59469014 0.5410061 0.5946899
g fcbg_greathole_001_unilityploe_01_0
f 3/3/3 2/2/2 1/1/1
f 2/2/2 4/4/4 1/1/1
f 1/1/1 4/4/4 5/5/5
f 4/4/4 6/6/6 5/5/5
f 5/5/5 6/6/6 7/7/7
f 6/6/6 8/8/8 7/7/7
f 7/7/7 8/8/8 9/9/9
f 8/8/8 10/10/10 9/9/9
f 9/9/9 10/10/10 11/11/11
f 10/10/10 12/12/12 11/11/11
f 11/11/11 12/12/12 13/13/13
f 12/12/12 14/14/14 13/13/13
f 13/13/13 14/14/14 15/15/15
f 14/14/14 16/16/16 15/15/15
f 15/15/15 16/16/16 17/17/17
f 16/16/16 18/18/18 17/17/17
f 21/21/21 20/20/20 19/19/19
f 22/22/22 21/21/21 19/19/19
f 23/23/23 21/21/21 22/22/22
f 24/24/24 23/23/23 22/22/22
f 25/25/25 23/23/23 24/24/24
f 26/26/26 25/25/25 24/24/24
f 27/27/27 25/25/25 26/26/26
f 28/28/28 27/27/27 26/26/26
f 29/29/29 27/27/27 28/28/28
f 30/30/30 29/29/29 28/28/28
f 31/31/31 29/29/29 30/30/30
f 32/32/32 31/31/31 30/30/30
f 33/33/33 31/31/31 32/32/32
f 34/34/34 33/33/33 32/32/32
f 35/35/35 33/33/33 34/34/34
f 36/36/36 35/35/35 34/34/34
f 39/39/39 38/38/38 37/37/37
f 40/40/40 39/39/39 37/37/37
f 43/43/43 42/42/42 41/41/41
f 42/42/42 44/44/44 41/41/41
f 41/41/41 44/44/44 45/45/45
f 44/44/44 46/46/46 45/45/45
f 44/44/44 47/47/47 46/46/46
f 48/48/48 46/46/46 47/47/47
f 49/49/49 47/47/47 44/44/44
f 48/48/48 47/47/47 49/49/49
f 52/52/52 51/51/51 50/50/50
f 53/53/53 52/52/52 50/50/50
f 56/56/56 55/55/55 54/54/54
f 57/57/57 55/55/55 56/56/56
f 55/55/55 58/58/58 54/54/54
f 54/54/54 58/58/58 59/59/59
f 59/59/59 58/58/58 60/60/60
f 61/61/61 55/55/55 57/57/57
f 62/62/62 61/61/61 57/57/57
f 63/63/63 61/61/61 62/62/62
f 58/58/58 64/64/64 60/60/60
f 64/64/64 61/61/61 63/63/63
f 60/60/60 64/64/64 65/65/65
f 65/65/65 64/64/64 63/63/63
f 68/68/68 67/67/67 66/66/66
f 69/69/69 68/68/68 66/66/66
f 70/70/70 67/67/67 68/68/68
f 71/71/71 68/68/68 69/69/69
f 72/72/72 70/70/70 68/68/68
f 73/73/73 68/68/68 71/71/71
f 72/72/72 68/68/68 74/74/74
f 74/74/74 68/68/68 73/73/73
