g fcbg_iceland_005_Safetysign_03
v 0.31710863 1.7881393E-07 -0.039139614
v 0.31710863 1.7881393E-07 0.038925156
v 0.7862798 0.47536623 0.038925275
v -0.33194226 -5.9604645E-08 -0.039139584
v -0.33194226 -5.9604645E-08 0.038925216
v 0.7862798 0.47536626 -0.039139524
v 0.78813434 1.1244177 0.039139614
v 0.3300897 1.5824621 -0.03909667
v 0.78813434 1.1244177 -0.038925126
v 0.3300897 1.5824621 0.03896813
v -0.34306914 1.5861712 0.038931295
v -0.34306914 1.5861712 -0.039133534
v -0.7881327 1.1318352 0.03892617
v -0.7881327 0.47907507 -0.039139435
v -0.7881327 0.47907507 0.038925394
v -0.7881327 1.1318352 -0.0391386
vt 0.114897825 0.71259844
vt 0.114897825 0.71259844
vt 0.086317934 0.7410642
vt 0.15443507 0.71259844
vt 0.15443507 0.71259844
vt 0.086317934 0.7410642
vt 0.08620498 0.78059983
vt 0.11410708 0.8085007
vt 0.08620498 0.78059983
vt 0.11410708 0.8085007
vt 0.15511289 0.80872667
vt 0.15511289 0.80872667
vt 0.18222418 0.78105164
vt 0.18222418 0.74129003
vt 0.18222418 0.74129003
vt 0.18222418 0.78105164
vn 0.29958907 -0.7166986 -0.6297536
vn 0.38559783 -0.922667 0
vn 0.9246181 -0.38089535 0
vn -0.30643392 -0.715264 -0.6280889
vn -0.39399523 -0.91911244 0
vn 0.71713793 -0.2955142 -0.631177
vn 0.92435986 0.38152182 0
vn 0.29904214 0.71588874 -0.6309336
vn 0.718032 0.29597113 -0.62994534
vn 0.3853659 0.9227638 0
vn -0.3848655 0.9229727 0
vn -0.29937053 0.71728116 -0.629194
vn -0.92581534 0.37797627 0
vn -0.71941924 -0.2876167 -0.6322283
vn -0.92848533 -0.37136894 0
vn -0.7181167 0.29338616 -0.631057
g fcbg_iceland_005_Safetysign_03_0
f 3/3/3 2/2/2 1/1/1
f 1/1/1 2/2/2 4/4/4
f 2/2/2 5/5/5 4/4/4
f 6/6/6 3/3/3 1/1/1
f 7/7/7 3/3/3 6/6/6
f 1/1/1 8/8/8 6/6/6
f 8/8/8 1/1/1 4/4/4
f 9/9/9 7/7/7 6/6/6
f 8/8/8 9/9/9 6/6/6
f 10/10/10 7/7/7 9/9/9
f 8/8/8 10/10/10 9/9/9
f 11/11/11 10/10/10 8/8/8
f 12/12/12 11/11/11 8/8/8
f 12/12/12 8/8/8 4/4/4
f 13/13/13 11/11/11 12/12/12
f 4/4/4 5/5/5 14/14/14
f 12/12/12 4/4/4 14/14/14
f 5/5/5 15/15/15 14/14/14
f 16/16/16 13/13/13 12/12/12
f 16/16/16 12/12/12 14/14/14
f 15/15/15 13/13/13 16/16/16
f 14/14/14 15/15/15 16/16/16
