g fcbg_cityforest_005_drumcan_02
v 0.613844 2.1744175 -0.35125875
v 0.6138446 -1.4743826E-05 -0.35125875
v 0.70902133 -1.4728343E-05 0.003432691
v 0.70902073 2.1744182 0.0034326315
v 0.62571245 2.202474 -0.35812175
v 0.7227318 2.2024746 0.0034314394
v 0.6085592 2.2352583 -0.34820557
v 0.7029184 2.2352588 0.0034326315
v 0.5359859 2.2352588 -0.3062569
v 0.6190887 2.2352588 0.0034314394
v 0.5359849 1.2774293 -0.3062557
v 0.61908674 1.2774293 0.003432691
v 0.30939877 2.2352588 -0.53251255
v 0.35128102 2.2352583 -0.60510814
v 3.564509E-05 2.2352588 -0.6151625
v 0.36117342 2.202474 -0.6222745
v 1.5082827E-05 2.2352583 -0.69895387
v -0.3092055 2.2352588 -0.53206086
v 0.3543271 2.1744175 -0.6103951
v 0.6138446 -1.4743826E-05 -0.35125875
v 0.3543277 -1.4755176E-05 -0.61039495
v 1.8882565E-07 2.202474 -0.7187648
v -0.35111305 2.2352583 -0.6045934
v -0.5354635 2.2352588 -0.30546927
v 9.125448E-06 2.1744175 -0.70505667
v 0.3543277 -1.4755176E-05 -0.61039495
v 9.721087E-06 -1.5057158E-05 -0.70505667
v -0.36103228 2.202474 -0.6217431
v -0.608018 2.2352583 -0.34731197
v -0.35416842 2.1744175 -0.60987663
v 9.721087E-06 -1.5057158E-05 -0.70505667
v -0.35416782 -1.5053025E-05 -0.60987663
v -0.62518287 2.2024734 -0.3572067
v -0.6133055 2.1744175 -0.3503592
v -0.35416782 -1.5053025E-05 -0.60987663
v -0.6133049 -1.50416745E-05 -0.35035908
v -0.61811465 2.2352593 0.0034328103
v -0.70186305 2.2352588 0.0034316182
v -0.7216753 2.2024746 0.0034316182
v -0.61811584 1.2774303 0.003435254
v -0.5354647 1.2774297 -0.30546927
v -0.53546876 1.2774297 0.31232777
v -0.53546727 2.2352588 0.31232655
v -0.3092092 1.2774297 0.53891814
v -0.3092077 2.2352588 0.5389157
v 3.121572E-05 1.2774293 0.6220208
v -0.60802203 2.2352588 0.3541656
v 3.2853743E-05 2.2352588 0.62201834
v 0.30939403 1.2774293 0.5393719
v -0.70796746 2.1744182 0.0034316182
v -0.6133049 -1.50416745E-05 -0.35035908
v -0.70796686 -1.4430552E-05 0.0034317374
v -0.61330986 2.1744182 0.35721293
v -0.6251866 2.202474 0.3640604
v -0.35417208 2.1744182 0.61673033
v -0.36103597 2.202474 0.62859666
v 6.063434E-06 2.1744182 0.711909
v -0.35111645 2.2352588 0.611447
v -3.464811E-06 2.202474 0.7256171
v 0.35432342 2.1744182 0.6172484
v 1.1125405E-05 2.2352588 0.7058061
v 0.36116943 2.202474 0.62912786
v 0.6138406 2.1744182 0.35811216
v 0.30939567 2.2352588 0.53936946
v 0.535982 1.2774293 0.31311387
v 0.625709 2.202474 0.36497396
v 0.70902073 2.1744182 0.0034326315
v 0.7227318 2.2024746 0.0034314394
v 0.35127732 2.2352588 0.6119615
v 0.5359833 2.2352588 0.31311265
v 0.61908674 1.2774293 0.003432691
v 0.6190887 2.2352588 0.0034314394
v 0.60855603 2.2352588 0.35505772
v 0.7029184 2.2352588 0.0034326315
v 0.6138412 -1.4712859E-05 0.35811225
v 0.6138406 2.1744182 0.35811216
v 0.70902073 2.1744182 0.0034326315
v 0.70902133 -1.4728343E-05 0.003432691
v -0.61330867 -1.5010708E-05 0.35721302
v -0.70796686 -1.4430552E-05 0.0034317374
v -0.70796746 2.1744182 0.0034316182
v -0.61330986 2.1744182 0.35721293
v 0.61908674 1.2774293 0.003432691
v 0.00019849758 1.2774305 0.0034315586
v 0.5359849 1.2774293 -0.3062557
v 0.30939713 1.2774293 -0.53251123
v 3.430486E-05 1.2774297 -0.6151624
v -0.3092073 1.2774297 -0.5320585
v -0.5354647 1.2774297 -0.30546927
v -0.61811584 1.2774303 0.003435254
v 0.00019849758 1.2774305 0.0034315586
v -0.53546876 1.2774297 0.31232777
v -0.3092092 1.2774297 0.53891814
v 3.121572E-05 1.2774293 0.6220208
v 0.30939403 1.2774293 0.5393719
v 0.535982 1.2774293 0.31311387
v 0.61908674 1.2774293 0.003432691
vt 0.9331783 0.95150673
vt 0.9994256 0.95150673
vt 0.9994256 0.942111
vt 0.9331783 0.942111
vt 0.93136084 0.95150673
vt 0.93136084 0.942111
vt 0.9295896 0.95150673
vt 0.9295896 0.942111
vt 0.92635643 0.95150673
vt 0.92635643 0.942111
vt 0.89916515 0.95150673
vt 0.89916515 0.942111
vt 0.92635643 0.9609025
vt 0.9295896 0.9609025
vt 0.92635643 0.97029835
vt 0.93136084 0.9609025
vt 0.9295896 0.97029835
vt 0.92635643 0.979694
vt 0.9331783 0.9609025
vt 0.9994256 0.95150673
vt 0.9994256 0.9609025
vt 0.93136084 0.97029835
vt 0.9295896 0.979694
vt 0.92635643 0.98908997
vt 0.9331783 0.97029835
vt 0.9994256 0.9609025
vt 0.9994256 0.97029835
vt 0.93136084 0.979694
vt 0.9295896 0.98908997
vt 0.9331783 0.979694
vt 0.9994256 0.97029835
vt 0.9994256 0.979694
vt 0.93136084 0.98908997
vt 0.9331783 0.98908997
vt 0.9994256 0.979694
vt 0.9994256 0.98908997
vt 0.92635643 0.9984856
vt 0.9295896 0.9984856
vt 0.93136084 0.9984856
vt 0.89916515 0.9984856
vt 0.89916515 0.98908997
vt 0.89916515 0.98908997
vt 0.92635643 0.98908997
vt 0.89916515 0.979694
vt 0.92635643 0.979694
vt 0.89916515 0.97029835
vt 0.9295896 0.98908997
vt 0.92635643 0.97029835
vt 0.89916515 0.9609025
vt 0.9331783 0.9984856
vt 0.9994256 0.98908997
vt 0.9994256 0.9984856
vt 0.9331783 0.98908997
vt 0.93136084 0.98908997
vt 0.9331783 0.979694
vt 0.93136084 0.979694
vt 0.9331783 0.97029835
vt 0.9295896 0.979694
vt 0.93136084 0.97029835
vt 0.9331783 0.9609025
vt 0.9295896 0.97029835
vt 0.93136084 0.9609025
vt 0.9331783 0.95150673
vt 0.92635643 0.9609025
vt 0.89916515 0.95150673
vt 0.93136084 0.95150673
vt 0.9331783 0.942111
vt 0.93136084 0.942111
vt 0.9295896 0.9609025
vt 0.92635643 0.95150673
vt 0.89916515 0.942111
vt 0.92635643 0.942111
vt 0.9295896 0.95150673
vt 0.9295896 0.942111
vt 0.9994256 0.95150673
vt 0.9331783 0.95150673
vt 0.9331783 0.942111
vt 0.9994256 0.942111
vt 0.9994256 0.98908997
vt 0.9994256 0.9984856
vt 0.9331783 0.9984856
vt 0.9331783 0.98908997
vt 0.8592729 0.8876448
vt 0.87772137 0.8925881
vt 0.8642236 0.87907714
vt 0.8727852 0.8741424
vt 0.8826671 0.8741495
vt 0.8912217 0.8790967
vt 0.89615655 0.8876585
vt 0.89615303 0.8975268
vt 0.87772137 0.8925881
vt 0.89122194 0.90607476
vt 0.8826674 0.9110219
vt 0.8727855 0.91102916
vt 0.86422366 0.90609443
vt 0.85927653 0.89754
vt 0.8592729 0.8876448
vn 0.8360899 -0.25953704 -0.48331574
vn 0.9657278 -0.25955695 0
vn 0.83924717 0.24556673 -0.4851403
vn 0.9657278 -0.25955695 0
vn 0.8650057 0.04136025 -0.5000544
vn 0.9991435 0.04137967 0
vn 0.4748567 0.8361562 -0.2745069
vn 0.548513 0.836142 0
vn -0.55206233 0.7703115 0.3191356
vn -0.63761634 0.77035403 0
vn -0.65553856 0.65319574 0.378952
vn -0.75721717 0.6531632 0
vn -0.31845474 0.7702654 0.5525195
vn 0.2738838 0.8361786 -0.475177
vn 0.00046612127 0.7702589 0.6377311
vn 0.4989306 0.04136024 -0.86565435
vn -0.00040248115 0.8361818 -0.5484521
vn 0.31926322 0.7702704 0.5520459
vn 0.4822559 -0.25952595 -0.8367052
vn 0.48407865 0.24555723 -0.83986276
vn 0.8360899 -0.25953704 -0.48331574
vn -0.00073292205 0.04137966 -0.99914324
vn -0.27457458 0.83617526 -0.47478378
vn 0.5525137 0.7702134 0.31859055
vn -0.00071034237 -0.2595189 -0.96573776
vn -0.0007130394 0.2455568 -0.969382
vn 0.4822559 -0.25952595 -0.8367052
vn -0.5002098 0.04137956 -0.8649149
vn -0.47509444 0.8362037 -0.2739502
vn -0.48347902 -0.25951725 -0.8360017
vn -0.48531017 0.24553835 -0.8391573
vn -0.00071034237 -0.2595189 -0.96573776
vn -0.86556077 0.041379414 -0.49909148
vn -0.8366165 -0.25952 -0.4824129
vn -0.83977103 0.24554737 -0.48424274
vn -0.48347902 -0.25951725 -0.8360017
vn 0.63783383 0.7701741 0
vn -0.5483825 0.8362276 0
vn -0.99914277 0.04139853 0
vn 0.7571049 0.6532933 0
vn 0.6559042 0.6532607 0.37820658
vn 0.6559082 0.6532552 -0.37820894
vn 0.55251414 0.770214 -0.3185884
vn 0.37905818 0.65323186 -0.6554411
vn 0.3192705 0.77025735 -0.55205977
vn 0.00055611046 0.6532321 -0.7571575
vn -0.47509354 0.836202 0.2739568
vn 0.00046781608 0.7702566 -0.63773394
vn -0.378098 0.65322995 -0.65599746
vn -0.96573836 -0.2595178 0
vn -0.9693848 0.24554677 0
vn -0.8366165 -0.25952 -0.4824129
vn -0.8422669 -0.2339047 0.48566958
vn -0.86555904 0.041398417 0.49909285
vn -0.48674342 -0.2339048 0.8416469
vn -0.50020784 0.041379392 0.86491615
vn -0.0007145305 -0.23390453 0.97225934
vn -0.2745752 0.8361772 0.47478008
vn -0.00073343114 0.041379463 0.99914324
vn 0.48551384 -0.23392347 0.8423516
vn -0.00040303823 0.8361775 0.5484588
vn 0.4989288 0.04136029 0.8656554
vn 0.8417274 -0.2339237 0.4865951
vn -0.3184603 0.7702597 -0.55252427
vn -0.655534 0.653196 -0.37895927
vn 0.86500674 0.041360304 0.50005263
vn 0.9722507 -0.23394176 0
vn 0.9991435 0.04137967 0
vn 0.2738838 0.8361786 0.475177
vn -0.5520606 0.7703091 -0.31914413
vn -0.75721717 0.6531632 0
vn -0.63761634 0.77035403 0
vn 0.47484848 0.83616084 0.27450693
vn 0.548513 0.836142 0
vn 0.83608323 -0.25953794 0.48332694
vn 0.9657278 -0.25955695 0
vn 1 0 0
vn 0.8657456 0 0.50048435
vn -1 0 0
vn -0.96573836 -0.2595178 0
vn -0.8366137 -0.25950956 0.4824232
vn -0.86629933 0 0.4995251
vn -0.75721717 0.6531632 0
vn -0 1 0
vn -0.65553856 0.65319574 0.378952
vn -0.37809828 0.65323454 0.65599257
vn 0.00055403216 0.6532321 0.7571575
vn 0.37905905 0.65322924 0.65544325
vn 0.6559042 0.6532607 0.37820658
vn 0.7571049 0.6532933 0
vn -0 1 0
vn 0.6559082 0.6532552 -0.37820894
vn 0.37905818 0.65323186 -0.6554411
vn 0.00055611046 0.6532321 -0.7571575
vn -0.378098 0.65322995 -0.65599746
vn -0.655534 0.653196 -0.37895927
vn -0.75721717 0.6531632 0
g fcbg_cityforest_005_drumcan_02_0
f 3/3/3 2/2/2 1/1/1
f 4/4/4 3/3/3 1/1/1
f 4/4/4 1/1/1 5/5/5
f 6/6/6 4/4/4 5/5/5
f 6/6/6 5/5/5 7/7/7
f 8/8/8 6/6/6 7/7/7
f 7/7/7 9/9/9 8/8/8
f 9/9/9 10/10/10 8/8/8
f 9/9/9 11/11/11 10/10/10
f 11/11/11 12/12/12 10/10/10
f 13/13/13 9/9/9 7/7/7
f 14/14/14 13/13/13 7/7/7
f 7/7/7 5/5/5 14/14/14
f 15/15/15 13/13/13 14/14/14
f 5/5/5 1/1/1 16/16/16
f 5/5/5 16/16/16 14/14/14
f 17/17/17 15/15/15 14/14/14
f 14/14/14 16/16/16 17/17/17
f 18/18/18 15/15/15 17/17/17
f 1/1/1 19/19/19 16/16/16
f 1/1/1 20/20/20 19/19/19
f 20/20/20 21/21/21 19/19/19
f 16/16/16 22/22/22 17/17/17
f 16/16/16 19/19/19 22/22/22
f 23/23/23 18/18/18 17/17/17
f 17/17/17 22/22/22 23/23/23
f 24/24/24 18/18/18 23/23/23
f 19/19/19 25/25/25 22/22/22
f 19/19/19 26/26/26 25/25/25
f 26/26/26 27/27/27 25/25/25
f 22/22/22 28/28/28 23/23/23
f 22/22/22 25/25/25 28/28/28
f 29/29/29 24/24/24 23/23/23
f 23/23/23 28/28/28 29/29/29
f 25/25/25 30/30/30 28/28/28
f 25/25/25 31/31/31 30/30/30
f 31/31/31 32/32/32 30/30/30
f 28/28/28 30/30/30 33/33/33
f 28/28/28 33/33/33 29/29/29
f 30/30/30 34/34/34 33/33/33
f 30/30/30 35/35/35 34/34/34
f 35/35/35 36/36/36 34/34/34
f 37/37/37 24/24/24 29/29/29
f 29/29/29 33/33/33 38/38/38
f 38/38/38 37/37/37 29/29/29
f 33/33/33 34/34/34 39/39/39
f 33/33/33 39/39/39 38/38/38
f 37/37/37 40/40/40 24/24/24
f 40/40/40 41/41/41 24/24/24
f 42/42/42 40/40/40 37/37/37
f 43/43/43 42/42/42 37/37/37
f 43/43/43 37/37/37 38/38/38
f 44/44/44 42/42/42 43/43/43
f 45/45/45 44/44/44 43/43/43
f 46/46/46 44/44/44 45/45/45
f 47/47/47 43/43/43 38/38/38
f 45/45/45 43/43/43 47/47/47
f 48/48/48 46/46/46 45/45/45
f 49/49/49 46/46/46 48/48/48
f 34/34/34 50/50/50 39/39/39
f 34/34/34 51/51/51 50/50/50
f 51/51/51 52/52/52 50/50/50
f 50/50/50 53/53/53 39/39/39
f 39/39/39 54/54/54 38/38/38
f 53/53/53 54/54/54 39/39/39
f 54/54/54 47/47/47 38/38/38
f 53/53/53 55/55/55 54/54/54
f 55/55/55 56/56/56 54/54/54
f 54/54/54 56/56/56 47/47/47
f 55/55/55 57/57/57 56/56/56
f 58/58/58 45/45/45 47/47/47
f 56/56/56 58/58/58 47/47/47
f 48/48/48 45/45/45 58/58/58
f 57/57/57 59/59/59 56/56/56
f 56/56/56 59/59/59 58/58/58
f 57/57/57 60/60/60 59/59/59
f 61/61/61 48/48/48 58/58/58
f 59/59/59 61/61/61 58/58/58
f 60/60/60 62/62/62 59/59/59
f 59/59/59 62/62/62 61/61/61
f 60/60/60 63/63/63 62/62/62
f 64/64/64 48/48/48 61/61/61
f 64/64/64 49/49/49 48/48/48
f 65/65/65 49/49/49 64/64/64
f 63/63/63 66/66/66 62/62/62
f 63/63/63 67/67/67 66/66/66
f 67/67/67 68/68/68 66/66/66
f 62/62/62 69/69/69 61/61/61
f 69/69/69 64/64/64 61/61/61
f 62/62/62 66/66/66 69/69/69
f 70/70/70 65/65/65 64/64/64
f 70/70/70 64/64/64 69/69/69
f 71/71/71 65/65/65 70/70/70
f 72/72/72 71/71/71 70/70/70
f 66/66/66 68/68/68 73/73/73
f 66/66/66 73/73/73 69/69/69
f 73/73/73 70/70/70 69/69/69
f 72/72/72 70/70/70 73/73/73
f 68/68/68 74/74/74 73/73/73
f 74/74/74 72/72/72 73/73/73
f 77/77/77 76/76/76 75/75/75
f 78/78/78 77/77/77 75/75/75
f 81/81/81 80/80/80 79/79/79
f 82/82/82 81/81/81 79/79/79
f 85/85/85 84/84/84 83/83/83
f 86/86/86 84/84/84 85/85/85
f 87/87/87 84/84/84 86/86/86
f 88/88/88 84/84/84 87/87/87
f 89/89/89 84/84/84 88/88/88
f 90/90/90 84/84/84 89/89/89
f 92/92/92 91/91/91 90/90/90
f 93/93/93 91/91/91 92/92/92
f 94/94/94 91/91/91 93/93/93
f 95/95/95 91/91/91 94/94/94
f 96/96/96 91/91/91 95/95/95
f 97/97/97 91/91/91 96/96/96
