g fcbg_cityforestcrystal_002_garbage_08
v -5.095028 -0.2222457 -0.36198092
v -5.095028 -0.2222457 -0.17491913
v -5.095028 -0.35559607 -0.36198092
v -5.095028 -0.2222457 0.17492914
v -5.095028 -0.35559607 0.36199093
v -5.095028 -0.2222457 0.36199093
v -5.095028 -0.2222457 -0.17491913
v -5.095028 0.22224617 -0.17491913
v -5.095028 0.22224617 0.17492914
v -5.095028 -0.2222457 0.17492914
v 5.095028 -0.2222457 -0.36199045
v 5.095028 -0.35559607 -0.36199045
v 5.095028 -0.2222457 -0.17492867
v 5.095028 -0.2222457 0.17491913
v 5.095028 -0.35559607 0.3619814
v 5.095028 -0.2222457 0.3619814
v -4.7683716E-06 -0.2222457 0.36199093
v -4.7683716E-06 -0.35559607 0.36199093
v -5.095028 -0.35559607 0.36199093
v -5.095028 -0.2222457 0.36199093
v -5.095028 -0.2222457 0.17492914
v 5.095028 -0.2222457 0.17491913
v -4.7683716E-06 -0.2222457 0.17492914
v -5.095028 0.22224617 0.17492914
v -4.7683716E-06 0.22224617 0.17492914
v 5.095028 0.22224617 0.17491913
v 5.095028 -0.2222457 -0.17492867
v 5.095028 0.22224617 -0.17492867
v -4.7683716E-06 -0.2222457 -0.36199045
v -4.7683716E-06 -0.35559607 -0.36199045
v 5.095028 -0.35559607 -0.36199045
v -5.095028 -0.35559607 -0.36198092
v 5.095028 -0.2222457 -0.36199045
v -4.7683716E-06 -0.2222457 -0.17492867
v -5.095028 -0.2222457 -0.36198092
v 5.095028 -0.2222457 -0.17492867
v -5.095028 -0.2222457 -0.17491913
v 5.095028 0.22224617 -0.17492867
v -5.095028 0.22224617 -0.17491913
v -4.7683716E-06 0.22224617 -0.17492867
v 5.095028 0.22224617 0.17491913
v 5.095028 0.22224617 0.3619814
v 5.095028 0.35559654 0.3619814
v 5.095028 0.22224617 -0.17492867
v -4.7683716E-06 0.22224617 0.36199093
v 5.095028 0.35559654 -0.36199045
v 5.095028 0.22224617 -0.36199045
v -4.7683716E-06 0.22224617 -0.36199045
v -4.7683716E-06 0.35559654 -0.36199045
v -4.7683716E-06 0.35559654 0.36199093
v -5.095028 0.35559654 0.36199093
v -5.095028 0.22224617 0.36199093
v -5.095028 0.22224617 0.17492914
v -5.095028 0.22224617 -0.17491913
v -5.095028 0.35559654 -0.36198092
v -5.095028 0.22224617 -0.36198092
vt 0.52892303 0.6076889
vt 0.52892303 0.59984016
vt 0.54141235 0.6076889
vt 0.52892303 0.58530426
vt 0.54141235 0.5773163
vt 0.52892303 0.5773163
vt 0.5135231 0.5903721
vt 0.49367142 0.5903721
vt 0.49367142 0.5773163
vt 0.5135231 0.5773163
vt 0.52892303 0.6076889
vt 0.54141235 0.6076889
vt 0.52892303 0.59984016
vt 0.52892303 0.58530426
vt 0.54141235 0.5773163
vt 0.52892303 0.5773163
vt 0.52892303 0.44000053
vt 0.54141235 0.44000053
vt 0.54141235 0.5773163
vt 0.52892303 0.5773163
vt 0.5135231 0.5773163
vt 0.5135231 0.5773163
vt 0.5135231 0.44000053
vt 0.49367142 0.5773163
vt 0.49367142 0.44000053
vt 0.49367142 0.5773163
vt 0.5135231 0.5903721
vt 0.49367142 0.5903721
vt 0.52892303 0.44000816
vt 0.54141235 0.44000816
vt 0.54141235 0.5772896
vt 0.54141235 0.5772896
vt 0.52892303 0.5772896
vt 0.5135231 0.44000816
vt 0.52892303 0.5772896
vt 0.5135231 0.5772896
vt 0.5135231 0.5772896
vt 0.49367142 0.5772896
vt 0.49367142 0.5772896
vt 0.49367142 0.44000816
vt 0.5091591 0.7419815
vt 0.49012756 0.7419815
vt 0.50193024 0.73677444
vt 0.5232773 0.7419815
vt 0.49012756 0.61704254
vt 0.53050804 0.73677444
vt 0.5423107 0.7419815
vt 0.5423107 0.61704254
vt 0.53050804 0.61704254
vt 0.50193024 0.61704254
vt 0.50193024 0.73677444
vt 0.49012756 0.7419815
vt 0.5091591 0.7419815
vt 0.5232773 0.7419815
vt 0.53050804 0.73677444
vt 0.5423107 0.7419815
vn -0.5777417 0.5777417 -0.5765667
vn -0.90417033 0.3013901 -0.30272096
vn -0.7075712 0.00092732906 -0.70664144
vn -0.90417033 0.3013901 0.30272096
vn -0.7075712 0.00092732906 0.70664144
vn -0.5777417 0.5777417 0.5765667
vn -0.90417033 0.3013901 -0.30272096
vn -0.9486833 0.00092732906 -0.31622636
vn -0.9486833 0.00092732906 0.31622636
vn -0.90417033 0.3013901 0.30272096
vn 0.5777416 0.5777417 -0.5765667
vn 0.70757127 0.00092732906 -0.7066414
vn 0.90417033 0.3013901 -0.30272096
vn 0.90417033 0.3013901 0.30272096
vn 0.70757127 0.00092732906 0.7066414
vn 0.5777416 0.5777417 0.5765667
vn -0.00092732906 0.7075712 0.70664144
vn -0.00092732906 0.00092732906 0.99999917
vn -0.7075712 0.00092732906 0.70664144
vn -0.5777417 0.5777417 0.5765667
vn -0.90417033 0.3013901 0.30272096
vn 0.90417033 0.3013901 0.30272096
vn -0.00092732906 0.7075712 0.70664144
vn -0.9486833 0.00092732906 0.31622636
vn -0.00092732906 0.00092732906 0.99999917
vn 0.9486833 0.00092732906 0.31622636
vn 0.90417033 0.3013901 -0.30272096
vn 0.9486833 0.00092732906 -0.31622636
vn -0.00092732906 0.7075712 -0.70664144
vn -0.00092732906 0.00092732906 -0.99999917
vn 0.70757127 0.00092732906 -0.7066414
vn -0.7075712 0.00092732906 -0.70664144
vn 0.5777416 0.5777417 -0.5765667
vn -0.00092732906 0.7075712 -0.70664144
vn -0.5777417 0.5777417 -0.5765667
vn 0.90417033 0.3013901 -0.30272096
vn -0.90417033 0.3013901 -0.30272096
vn 0.9486833 0.00092732906 -0.31622636
vn -0.9486833 0.00092732906 -0.31622636
vn -0.00092732906 0.00092732906 -0.99999917
vn 0.9486833 0.00092732906 0.31622636
vn 0.70757127 0.00092732906 0.7066414
vn 0.5777416 0.5777417 0.5765667
vn 0.9486833 0.00092732906 -0.31622636
vn -0.00092732906 0.00092732906 0.99999917
vn 0.5777416 0.5777417 -0.5765667
vn 0.70757127 0.00092732906 -0.7066414
vn -0.00092732906 0.00092732906 -0.99999917
vn -0.00092732906 0.7075712 -0.70664144
vn -0.00092732906 0.7075712 0.70664144
vn -0.5777417 0.5777417 0.5765667
vn -0.7075712 0.00092732906 0.70664144
vn -0.9486833 0.00092732906 0.31622636
vn -0.9486833 0.00092732906 -0.31622636
vn -0.5777417 0.5777417 -0.5765667
vn -0.7075712 0.00092732906 -0.70664144
g fcbg_cityforestcrystal_002_garbage_08_0
f 3/3/3 2/2/2 1/1/1
f 4/4/4 2/2/2 3/3/3
f 5/5/5 4/4/4 3/3/3
f 6/6/6 4/4/4 5/5/5
f 9/9/9 8/8/8 7/7/7
f 10/10/10 9/9/9 7/7/7
f 13/13/13 12/12/12 11/11/11
f 13/13/13 14/14/14 12/12/12
f 14/14/14 15/15/15 12/12/12
f 14/14/14 16/16/16 15/15/15
f 15/15/15 16/16/16 17/17/17
f 18/18/18 15/15/15 17/17/17
f 18/18/18 17/17/17 19/19/19
f 17/17/17 20/20/20 19/19/19
f 21/21/21 20/20/20 17/17/17
f 17/17/17 16/16/16 22/22/22
f 23/23/23 21/21/21 17/17/17
f 23/23/23 17/17/17 22/22/22
f 21/21/21 23/23/23 24/24/24
f 23/23/23 25/25/25 24/24/24
f 26/26/26 25/25/25 23/23/23
f 22/22/22 26/26/26 23/23/23
f 22/22/22 27/27/27 26/26/26
f 27/27/27 28/28/28 26/26/26
f 31/31/31 30/30/30 29/29/29
f 29/29/29 30/30/30 32/32/32
f 33/33/33 31/31/31 29/29/29
f 33/33/33 29/29/29 34/34/34
f 35/35/35 29/29/29 32/32/32
f 34/34/34 29/29/29 35/35/35
f 36/36/36 33/33/33 34/34/34
f 37/37/37 34/34/34 35/35/35
f 38/38/38 36/36/36 34/34/34
f 34/34/34 37/37/37 39/39/39
f 40/40/40 38/38/38 34/34/34
f 40/40/40 34/34/34 39/39/39
f 43/43/43 42/42/42 41/41/41
f 41/41/41 44/44/44 43/43/43
f 42/42/42 43/43/43 45/45/45
f 44/44/44 46/46/46 43/43/43
f 44/44/44 47/47/47 46/46/46
f 46/46/46 47/47/47 48/48/48
f 43/43/43 46/46/46 49/49/49
f 49/49/49 46/46/46 48/48/48
f 43/43/43 50/50/50 45/45/45
f 50/50/50 43/43/43 49/49/49
f 45/45/45 50/50/50 51/51/51
f 50/50/50 49/49/49 51/51/51
f 52/52/52 45/45/45 51/51/51
f 52/52/52 51/51/51 53/53/53
f 54/54/54 53/53/53 51/51/51
f 49/49/49 48/48/48 55/55/55
f 49/49/49 55/55/55 51/51/51
f 55/55/55 54/54/54 51/51/51
f 48/48/48 56/56/56 55/55/55
f 56/56/56 54/54/54 55/55/55
