g fcbg_wasteland_billboard_03
v -1.1426468 0.042713344 -0.05417403
v 1.1426544 0.042713344 -0.05417403
v 1.1426544 1.1499636 -0.054174878
v -1.1426468 1.1499636 -0.054174878
v -1.1426468 0.042713344 0.05417467
v -1.1426468 1.1499636 0.0541737
v -1.1426468 0.042713344 0.05417467
v -1.1426468 1.1499636 0.0541737
v 1.1426544 1.1499636 0.0541737
v 1.1426544 0.042713344 0.05417467
v -1.1426468 0.042713344 -0.05417403
v -1.1426468 0.042713344 0.05417467
v 1.1426544 0.042713344 0.05417467
v 1.1426544 0.042713344 -0.05417403
v 1.1426544 0.042713344 -0.05417403
v 1.1426544 0.042713344 0.05417467
v 1.1426544 1.1499636 0.0541737
v 1.1426544 1.1499636 -0.054174878
v 1.1426544 1.1499636 -0.054174878
v 1.1426544 1.1499636 0.0541737
v -1.1426468 1.1499636 0.0541737
v -1.1426468 1.1499636 -0.054174878
vt 0.8643911 0.74787813
vt 0.9167219 0.74787813
vt 0.9167219 0.7214297
vt 0.8643911 0.7214297
vt 0.86187357 0.74787813
vt 0.86187357 0.7214297
vt 0.8643911 0.7214297
vt 0.8643911 0.74787813
vt 0.9167219 0.74787813
vt 0.9167219 0.7214297
vt 0.8643911 0.7196903
vt 0.8643911 0.7214297
vt 0.9167219 0.7214297
vt 0.9167219 0.7196903
vt 0.8643911 0.74787813
vt 0.86187357 0.74787813
vt 0.86187357 0.7214297
vt 0.8643911 0.7214297
vt 0.9167219 0.74787813
vt 0.9167219 0.74947494
vt 0.8643911 0.74947494
vt 0.8643911 0.74787813
vn -0.57735026 -0.57735044 -0.57735
vn 0.57735026 -0.57735044 -0.57735
vn 0.5773502 0.5773501 -0.5773505
vn -0.5773502 0.5773501 -0.5773505
vn -0.57735026 -0.57735 0.57735056
vn -0.5773503 0.57735056 0.57735
vn -0.57735026 -0.57735 0.57735056
vn -0.5773503 0.57735056 0.57735
vn 0.5773503 0.57735056 0.57735
vn 0.57735026 -0.57735 0.57735056
vn -0.57735026 -0.57735044 -0.57735
vn -0.57735026 -0.57735 0.57735056
vn 0.57735026 -0.57735 0.57735056
vn 0.57735026 -0.57735044 -0.57735
vn 0.57735026 -0.57735044 -0.57735
vn 0.57735026 -0.57735 0.57735056
vn 0.5773503 0.57735056 0.57735
vn 0.5773502 0.5773501 -0.5773505
vn 0.5773502 0.5773501 -0.5773505
vn 0.5773503 0.57735056 0.57735
vn -0.5773503 0.57735056 0.57735
vn -0.5773502 0.5773501 -0.5773505
g fcbg_wasteland_billboard_03_0
f 3/3/3 2/2/2 1/1/1
f 4/4/4 3/3/3 1/1/1
f 1/1/1 5/5/5 4/4/4
f 5/5/5 6/6/6 4/4/4
f 9/9/9 8/8/8 7/7/7
f 10/10/10 9/9/9 7/7/7
f 13/13/13 12/12/12 11/11/11
f 14/14/14 13/13/13 11/11/11
f 17/17/17 16/16/16 15/15/15
f 18/18/18 17/17/17 15/15/15
f 21/21/21 20/20/20 19/19/19
f 22/22/22 21/21/21 19/19/19
