g fcbg_iceland_001_bg_06
v 17.770666 7.3742166 -14.781206
v 17.999823 6.9583545 -15.2891655
v 20.287214 6.958354 -14.160752
v 19.814795 7.374216 -13.704418
v 21.65695 7.153556 -2.5452843
v 20.993597 7.5694194 -3.0346184
v 20.189077 7.153554 -0.33278465
v 19.553709 7.569419 -0.8643131
v 15.944586 7.3742166 -14.7092085
v 16.101599 7.1535535 2.3075428
v 5.4805737 7.3742166 -14.576332
v 15.544203 7.569418 1.7256565
v 15.469267 7.1535516 5.925785
v 14.923925 7.569416 5.2748775
v 10.9634075 7.15355 9.409546
v 6.616934 7.5694156 7.337263
v 10.748289 7.5694146 8.6922
v 8.786993 7.15355 9.421776
v 8.909674 7.5694146 8.704193
v 6.4692745 7.153551 7.967594
v 5.039686 7.1535516 7.5393715
v 5.121664 7.5694156 6.8576355
v -8.153635 7.374216 -11.623158
v 1.8066998 7.153551 8.4927635
v 1.5219479 7.5694156 7.7929077
v -15.789949 7.3742146 -7.6505337
v -1.5468464 7.1535497 11.487576
v -5.4442196 7.374207 11.186241
v -19.597944 7.374212 -0.39083672
v -1.7676296 7.5694146 10.730591
v -5.294924 6.958343 11.952084
v -9.484697 6.958342 14.250145
v -9.554083 7.3742065 13.440472
v -13.278608 6.958341 15.289169
v -15.933882 7.374208 8.656227
v -20.063002 7.374209 6.019848
v -13.275633 7.374206 14.459675
v -16.252474 6.9583426 12.817364
v -15.800966 7.374207 12.241413
v -16.291483 6.9583435 9.851559
v -17.079287 6.9583435 10.809662
v -17.240854 7.3742075 10.226997
v -18.483942 6.958343 11.475357
v -18.381685 7.3742075 10.718609
v -21.582666 7.3742085 7.2773037
v -21.65695 6.958344 7.9972763
v 8.786993 7.15355 9.421776
v 10.9634075 7.15355 9.409546
v 10.7739315 -7.587139 4.3642273
v 8.682043 -7.587139 4.5321865
v 6.4692745 7.153551 7.967594
v 5.542532 -7.587138 3.4826956
v 5.039686 7.1535516 7.5393715
v 1.8066998 7.153551 8.4927635
v 2.370593 -7.5871396 4.7280803
v -0.83692044 -7.5871396 7.448135
v -1.5468464 7.1535497 11.487576
v -5.294924 6.958343 11.952084
v -5.628506 -7.5871396 8.056335
v -8.68137 -7.5871363 10.102044
v -9.484697 6.958342 14.250145
v -11.325003 0.08002805 12.550428
v -13.278608 6.958341 15.289169
v -12.560434 -1.5271864 13.805931
v -10.743128 -7.587139 11.264763
v -13.397966 -1.5484247 13.307804
v -12.6519375 -7.587139 9.681232
v -12.522947 0.8662367 12.792179
v -14.345095 1.7544355 12.19833
v -16.252474 6.9583426 12.817364
v -12.519541 -0.38934466 13.074841
v -12.984484 -0.45799062 12.852478
v -14.948439 -0.19171856 11.63266
v -15.028051 -0.8121023 11.95858
v -16.232347 -1.0524902 11.031574
v -14.09516 -7.587139 8.1792755
v -16.77185 -0.18541034 8.759118
v -14.806047 -7.585311 5.8383045
v -15.717142 -7.586075 6.4905643
v -16.57986 -7.5868564 5.8850355
v -16.291483 6.9583435 9.851559
v -17.079287 6.9583435 10.809662
v -18.483942 6.958343 11.475357
v -21.65695 6.958344 7.9972763
v -16.57986 -7.5868564 5.8850355
v -15.743349 -0.27707908 10.746952
v -15.952723 1.066968 11.33633
v -15.88291 1.4182854 10.506599
v -15.672121 1.6737952 11.098568
v -15.026903 0.80375624 12.038097
v -13.03158 0.31554845 13.171036
v -12.5391445 0.20845272 13.24823
v -12.010702 0.114068046 13.242504
v 10.9634075 7.15355 9.409546
v 15.469267 7.1535516 5.925785
v 10.7739315 -7.587139 4.3642273
v 12.718145 -7.587139 2.678522
v 16.101599 7.1535535 2.3075428
v 12.686224 -7.5871377 -0.8749864
v 20.189077 7.153554 -0.33278465
v 17.695322 -7.587135 -5.235541
v 21.65695 7.153556 -2.5452843
v 19.43742 -4.18318 -7.870432
vt 0.46888432 0.3140219
vt 0.4702849 0.31633055
vt 0.4852513 0.30350107
vt 0.48249722 0.3024534
vt 0.47276095 0.22057799
vt 0.46976766 0.22183104
vt 0.4579619 0.20642838
vt 0.4551768 0.20901047
vt 0.4539279 0.31781542
vt 0.4216842 0.19546369
vt 0.37544757 0.33800954
vt 0.4190406 0.1981161
vt 0.40985614 0.17042488
vt 0.40707475 0.17279744
vt 0.37099338 0.15286446
vt 0.34251013 0.17385602
vt 0.37048993 0.156175
vt 0.35552678 0.15705523
vt 0.35634562 0.15951608
vt 0.34126917 0.17219359
vt 0.3303704 0.17873757
vt 0.33109453 0.18102427
vt 0.26588836 0.34390885
vt 0.30186403 0.17796762
vt 0.3007136 0.18070859
vt 0.20013721 0.32872975
vt 0.2715859 0.16186836
vt 0.2427538 0.16937095
vt 0.15724449 0.2819773
vt 0.27121815 0.1648426
vt 0.2428113 0.16617972
vt 0.20666178 0.15692404
vt 0.20687135 0.15995046
vt 0.17724909 0.15728267
vt 0.16877805 0.20746848
vt 0.1414283 0.23469101
vt 0.17838371 0.16051093
vt 0.15968958 0.17889263
vt 0.16262425 0.17997205
vt 0.16534162 0.20263235
vt 0.15518992 0.19654924
vt 0.15516677 0.1992432
vt 0.14473644 0.19490118
vt 0.14579065 0.19793184
vt 0.12712611 0.22991915
vt 0.12620765 0.22628337
vt 0.036734305 0.14112364
vt 0.015797831 0.14112364
vt 0.015255882 0.0009651657
vt 0.033233464 0.0009651657
vt 0.05662179 0.14112364
vt 0.06853377 0.0009651657
vt 0.07386892 0.14112364
vt 0.10728845 0.14112364
vt 0.09502501 0.0009651657
vt 0.13795556 0.0009651657
vt 0.14661437 0.14112364
vt 0.17899528 0.14112364
vt 0.17881733 0.0009651657
vt 0.20406741 0.0009651657
vt 0.21924768 0.14112364
vt 0.19615532 0.0765714
vt 0.18567765 0.14112364
vt 0.18542343 0.06905465
vt 0.18681224 0.0009651657
vt 0.18103276 0.067581
vt 0.16993862 0.0009651657
vt 0.18618087 0.079470836
vt 0.16939619 0.0916613
vt 0.15712218 0.14112364
vt 0.18640144 0.07408039
vt 0.18125872 0.07021104
vt 0.16543949 0.06936018
vt 0.16595286 0.06405801
vt 0.15633662 0.0645176
vt 0.1522497 0.0009651657
vt 0.12470513 0.0724581
vt 0.12560496 0.0009651657
vt 0.11672067 0.0009651657
vt 0.110950164 0.0009651657
vt 0.13273777 0.14112364
vt 0.12267116 0.14165136
vt 0.103920795 0.14076088
vt 0.06545102 0.14075427
vt 0.107166626 0.0009651657
vt 0.15641257 0.071953505
vt 0.1576609 0.08613818
vt 0.15121524 0.08820829
vt 0.15667748 0.09088423
vt 0.16584834 0.083454266
vt 0.18271841 0.07762552
vt 0.18620415 0.076609574
vt 0.189882 0.07569862
vt 0.0016837483 0.14112364
vt 0.030205952 0.14112364
vt 0.0016837483 0.0009651657
vt 0.028570998 0.0009651657
vt 0.055182792 0.14112364
vt 0.052378144 0.0009651657
vt 0.09400601 0.14112364
vt 0.11612439 0.0009651657
vt 0.11718576 0.14112364
vt 0.15847228 0.03509062
vn 0.10253583 0.97146386 -0.21387938
vn 0.26173207 0.81682074 -0.5141014
vn 0.42336735 0.8419431 -0.3345024
vn 0.2995598 0.9328966 -0.19991988
vn 0.7939749 0.48594272 0.36532658
vn 0.31703386 0.94801205 0.027618894
vn 0.6608218 0.35583067 0.6608321
vn 0.17920667 0.9668737 0.18176976
vn -0.0020796277 0.9999243 -0.0121281
vn 0.76246667 0.45926815 0.45576015
vn -0.0025199673 0.9999461 -0.010074115
vn 0.14329256 0.9847113 0.09904951
vn 0.78766745 0.35027882 0.50683796
vn 0.27395684 0.9525203 0.13286327
vn 0.30457237 0.33554253 0.89142966
vn -0.10429857 0.9665559 0.2342895
vn 0.09543804 0.9576782 0.27155864
vn -0.19535206 0.32245082 0.926209
vn -0.088721246 0.95247984 0.2913946
vn -0.35534796 0.37786347 0.8549545
vn 0.00078395614 0.4199402 0.90755147
vn -0.007999777 0.9769378 0.21337427
vn -0.008436569 0.99995494 -0.004347074
vn 0.44792354 0.44151515 0.77745014
vn 0.09788941 0.976143 0.19381027
vn -0.008475933 0.9999641 -0.00019060406
vn 0.3478718 0.38449174 0.85507387
vn 0.04845306 0.9766118 0.20947993
vn -0 1 0
vn 0.10853179 0.9597121 0.25917873
vn 0.28564316 0.42579523 0.85854894
vn 0.33716604 0.38139486 0.86073047
vn 0.103468806 0.96512693 0.24046703
vn -0.19119628 0.3160871 0.92926466
vn -0.010106111 0.9993414 0.034848746
vn -0 1 0
vn -0.08834411 0.95472693 0.28406283
vn -0.80539227 0.33872384 0.4864253
vn -0.3697601 0.92226046 0.11275276
vn -0.22881539 0.8443651 0.4844492
vn 0.55291235 0.34150955 0.7600389
vn 0.23273824 0.9338654 0.27152932
vn -0.21415035 0.26140335 0.94117373
vn -0.08300552 0.93906987 0.3335531
vn -0.17799698 0.97027415 0.16396725
vn -0.6555531 0.41734543 0.62934315
vn -0.19535206 0.32245082 0.926209
vn 0.30457237 0.33554253 0.89142966
vn 0.36769998 -0.31138656 0.876262
vn -0.19197097 -0.29900032 0.9347438
vn -0.35534796 0.37786347 0.8549545
vn -0.03664743 -0.26286873 0.96413535
vn 0.00078395614 0.4199402 0.90755147
vn 0.44792354 0.44151515 0.77745014
vn 0.4941948 -0.19892539 0.8462861
vn 0.42729473 -0.2184442 0.8773262
vn 0.3478718 0.38449174 0.85507387
vn 0.28564316 0.42579523 0.85854894
vn 0.3114925 -0.24613892 0.917817
vn 0.48688787 -0.20505774 0.8490533
vn 0.33716604 0.38139486 0.86073047
vn 0.3391205 -0.11208912 0.9340414
vn -0.19119628 0.3160871 0.92926466
vn 0.0045979214 0.04275956 0.9990748
vn -0.0046078153 -0.39016688 0.9207326
vn -0.5664337 -0.0396931 0.8231508
vn -0.6007519 -0.45767397 0.65546286
vn -0.03957984 0.11439285 0.9926468
vn -0.52191645 -0.07432732 0.8497522
vn -0.80539227 0.33872384 0.4864253
vn -0.10308677 0.10440945 0.9891774
vn -0.47217688 0.110362954 0.8745679
vn -0.6281723 0.043990888 0.7768298
vn -0.613008 0.06625878 0.7872935
vn -0.84000766 -0.006088075 0.5425405
vn -0.80536526 -0.4153201 0.42296115
vn -0.75761503 -0.25801525 0.5995395
vn -0.3688306 -0.44692305 0.81499934
vn 0.06156759 -0.28448677 0.9567009
vn -0.5507199 -0.3145166 0.77316684
vn -0.22881539 0.8443651 0.4844492
vn 0.55291235 0.34150955 0.7600389
vn -0.21415035 0.26140335 0.94117373
vn -0.6555531 0.41734543 0.62934315
vn -0.5507199 -0.3145166 0.77316684
vn -0.8150317 0.1633603 0.5559107
vn -0.8320959 0.12936755 0.5393332
vn -0.9118383 0.033687506 0.40916502
vn -0.8364703 0.09662101 0.5394273
vn -0.5769649 -0.07170601 0.8136152
vn -0.2861622 0.08784586 0.95414585
vn -0.07230136 0.13600986 0.9880657
vn 0.4754032 0.012775236 0.87967527
vn 0.30457237 0.33554253 0.89142966
vn 0.78766745 0.35027882 0.50683796
vn 0.36769998 -0.31138656 0.876262
vn 0.8853207 -0.27061734 0.37811828
vn 0.76246667 0.45926815 0.45576015
vn 0.8528474 -0.30927345 0.42071497
vn 0.6608218 0.35583067 0.6608321
vn 0.7570644 -0.33409634 0.5614563
vn 0.7939749 0.48594272 0.36532658
vn 0.92693913 -0.29209968 0.23550291
g fcbg_iceland_001_bg_06_0
f 3/3/3 2/2/2 1/1/1
f 4/4/4 3/3/3 1/1/1
f 5/5/5 3/3/3 4/4/4
f 6/6/6 5/5/5 4/4/4
f 4/4/4 1/1/1 6/6/6
f 7/7/7 5/5/5 6/6/6
f 1/1/1 8/8/8 6/6/6
f 8/8/8 7/7/7 6/6/6
f 8/8/8 1/1/1 9/9/9
f 10/10/10 7/7/7 8/8/8
f 9/9/9 11/11/11 8/8/8
f 12/12/12 10/10/10 8/8/8
f 11/11/11 12/12/12 8/8/8
f 13/13/13 10/10/10 12/12/12
f 14/14/14 13/13/13 12/12/12
f 15/15/15 13/13/13 14/14/14
f 16/16/16 12/12/12 11/11/11
f 12/12/12 16/16/16 14/14/14
f 17/17/17 15/15/15 14/14/14
f 18/18/18 15/15/15 17/17/17
f 19/19/19 17/17/17 14/14/14
f 19/19/19 18/18/18 17/17/17
f 16/16/16 19/19/19 14/14/14
f 20/20/20 18/18/18 19/19/19
f 16/16/16 20/20/20 19/19/19
f 21/21/21 20/20/20 16/16/16
f 22/22/22 16/16/16 11/11/11
f 22/22/22 21/21/21 16/16/16
f 22/22/22 11/11/11 23/23/23
f 24/24/24 21/21/21 22/22/22
f 25/25/25 22/22/22 23/23/23
f 25/25/25 24/24/24 22/22/22
f 25/25/25 23/23/23 26/26/26
f 27/27/27 24/24/24 25/25/25
f 26/26/26 28/28/28 25/25/25
f 28/28/28 26/26/26 29/29/29
f 30/30/30 27/27/27 25/25/25
f 28/28/28 30/30/30 25/25/25
f 31/31/31 27/27/27 30/30/30
f 28/28/28 31/31/31 30/30/30
f 32/32/32 31/31/31 28/28/28
f 33/33/33 32/32/32 28/28/28
f 33/33/33 28/28/28 29/29/29
f 34/34/34 32/32/32 33/33/33
f 33/33/33 29/29/29 35/35/35
f 29/29/29 36/36/36 35/35/35
f 37/37/37 34/34/34 33/33/33
f 38/38/38 34/34/34 37/37/37
f 37/37/37 33/33/33 39/39/39
f 39/39/39 38/38/38 37/37/37
f 33/33/33 35/35/35 39/39/39
f 40/40/40 38/38/38 39/39/39
f 35/35/35 40/40/40 39/39/39
f 41/41/41 40/40/40 35/35/35
f 42/42/42 41/41/41 35/35/35
f 35/35/35 36/36/36 42/42/42
f 43/43/43 41/41/41 42/42/42
f 42/42/42 36/36/36 44/44/44
f 44/44/44 43/43/43 42/42/42
f 45/45/45 44/44/44 36/36/36
f 46/46/46 43/43/43 44/44/44
f 45/45/45 46/46/46 44/44/44
f 49/49/49 48/48/48 47/47/47
f 50/50/50 49/49/49 47/47/47
f 47/47/47 51/51/51 50/50/50
f 51/51/51 52/52/52 50/50/50
f 51/51/51 53/53/53 52/52/52
f 53/53/53 54/54/54 52/52/52
f 52/52/52 54/54/54 55/55/55
f 55/55/55 54/54/54 56/56/56
f 54/54/54 57/57/57 56/56/56
f 57/57/57 58/58/58 56/56/56
f 58/58/58 59/59/59 56/56/56
f 59/59/59 58/58/58 60/60/60
f 58/58/58 61/61/61 60/60/60
f 61/61/61 62/62/62 60/60/60
f 63/63/63 62/62/62 61/61/61
f 64/64/64 60/60/60 62/62/62
f 65/65/65 60/60/60 64/64/64
f 65/65/65 64/64/64 66/66/66
f 67/67/67 65/65/65 66/66/66
f 68/68/68 62/62/62 63/63/63
f 63/63/63 69/69/69 68/68/68
f 70/70/70 69/69/69 63/63/63
f 64/64/64 62/62/62 71/71/71
f 66/66/66 64/64/64 72/72/72
f 64/64/64 71/71/71 72/72/72
f 73/73/73 66/66/66 72/72/72
f 74/74/74 67/67/67 66/66/66
f 74/74/74 66/66/66 73/73/73
f 67/67/67 74/74/74 75/75/75
f 75/75/75 74/74/74 73/73/73
f 76/76/76 67/67/67 75/75/75
f 76/76/76 75/75/75 77/77/77
f 78/78/78 76/76/76 77/77/77
f 78/78/78 77/77/77 79/79/79
f 80/80/80 79/79/79 77/77/77
f 70/70/70 81/81/81 77/77/77
f 81/81/81 82/82/82 77/77/77
f 82/82/82 83/83/83 77/77/77
f 83/83/83 84/84/84 77/77/77
f 77/77/77 84/84/84 85/85/85
f 86/86/86 75/75/75 73/73/73
f 75/75/75 86/86/86 77/77/77
f 87/87/87 77/77/77 86/86/86
f 87/87/87 86/86/86 73/73/73
f 70/70/70 77/77/77 88/88/88
f 88/88/88 77/77/77 87/87/87
f 89/89/89 70/70/70 88/88/88
f 87/87/87 89/89/89 88/88/88
f 89/89/89 69/69/69 70/70/70
f 89/89/89 87/87/87 69/69/69
f 90/90/90 87/87/87 73/73/73
f 69/69/69 87/87/87 90/90/90
f 91/91/91 90/90/90 73/73/73
f 91/91/91 69/69/69 90/90/90
f 72/72/72 91/91/91 73/73/73
f 68/68/68 69/69/69 91/91/91
f 91/91/91 72/72/72 71/71/71
f 92/92/92 68/68/68 91/91/91
f 92/92/92 91/91/91 71/71/71
f 92/92/92 93/93/93 68/68/68
f 92/92/92 71/71/71 93/93/93
f 68/68/68 93/93/93 62/62/62
f 71/71/71 62/62/62 93/93/93
f 96/96/96 95/95/95 94/94/94
f 97/97/97 95/95/95 96/96/96
f 97/97/97 98/98/98 95/95/95
f 99/99/99 98/98/98 97/97/97
f 98/98/98 99/99/99 100/100/100
f 99/99/99 101/101/101 100/100/100
f 100/100/100 101/101/101 102/102/102
f 101/101/101 103/103/103 102/102/102
