g fcbg_cityforestcrystal_002_airport_02
v 0.812727 0.0025820732 -2.5213604
v 0.8126347 0.0025873184 2.6877146
v 0.8126347 0.7619593 2.6877146
v 0.812727 0.7619593 -2.5213604
v 1.0288999 0.7619593 -2.687407
v 1.0295256 0.7619593 2.6888428
v -0.8615556 0.7619593 -2.5222168
v -0.86163235 0.0025873184 2.6876836
v -0.8615556 0.0025820732 -2.5222168
v -0.86163235 0.7619593 2.6876836
v -1.029556 0.7619593 2.6888428
v -1.0294638 0.7619593 -2.6888123
v -1.7881393E-05 1.5431228 2.6888428
v -0.00028967857 1.5431228 -2.6881096
v 1.0295256 0.7619593 2.6888428
v 1.0288999 0.7619593 -2.687407
v 0.812727 0.7619593 -2.5213604
v -0.8615556 0.0025820732 -2.5222168
v 0.812727 0.0025820732 -2.5213604
v -0.8615556 0.7619593 -2.5222168
v 1.0288999 0.7619593 -2.687407
v -1.0294638 0.7619593 -2.6888123
v -0.00028967857 1.5431228 -2.6881096
vt 0.5024537 0.047667474
vt 0.58252156 0.047667474
vt 0.58252156 0.037085272
vt 0.5024537 0.037085272
vt 0.49973708 0.0346084
vt 0.58252156 0.0346084
vt 0.5024537 0.037085272
vt 0.58252156 0.047667474
vt 0.5024537 0.047667474
vt 0.58252156 0.037085272
vt 0.58252156 0.0346084
vt 0.49973708 0.0346084
vt 0.58252156 0.017181497
vt 0.49973708 0.017181497
vt 0.58252156 0.0007222649
vt 0.49973708 0.0007222649
vt 0.4929634 0.014686868
vt 0.4649188 0.00083767483
vt 0.4929634 0.00083767483
vt 0.4649188 0.014686868
vt 0.49620375 0.017421195
vt 0.4622466 0.017421195
vt 0.47897217 0.031350285
vn 0.70674455 0.0009775162 -0.70746815
vn 0.9999995 0.0009775162 -0
vn 0.7061295 -0.7080828 -0
vn 0.30205262 -0.9042029 -0.30196258
vn 0.794721 -0.26881707 -0.5442021
vn 0.9491687 -0.31378287 -0.024882589
vn -0.30009758 -0.9042029 -0.30390555
vn -0.9999995 0.0009775162 -0
vn -0.70674455 0.0009775162 -0.70746815
vn -0.7047895 -0.7086996 -0.031884428
vn -0.9491687 -0.31378287 -0.024882589
vn -0.794721 -0.26686203 -0.54516345
vn -0.0009775162 0.9999995 -0
vn -0.0009775162 0.8064512 -0.59129983
vn 0.9491687 -0.31378287 -0.024882589
vn 0.794721 -0.26881707 -0.5442021
vn 0.30205262 -0.9042029 -0.30196258
vn -0.70674455 0.0009775162 -0.70746815
vn 0.70674455 0.0009775162 -0.70746815
vn -0.30009758 -0.9042029 -0.30390555
vn 0.794721 -0.26881707 -0.5442021
vn -0.794721 -0.26686203 -0.54516345
vn -0.0009775162 0.8064512 -0.59129983
g fcbg_cityforestcrystal_002_airport_02_0
f 3/3/3 2/2/2 1/1/1
f 4/4/4 3/3/3 1/1/1
f 4/4/4 5/5/5 3/3/3
f 5/5/5 6/6/6 3/3/3
f 9/9/9 8/8/8 7/7/7
f 8/8/8 10/10/10 7/7/7
f 10/10/10 11/11/11 7/7/7
f 11/11/11 12/12/12 7/7/7
f 11/11/11 13/13/13 12/12/12
f 13/13/13 14/14/14 12/12/12
f 14/14/14 13/13/13 15/15/15
f 16/16/16 14/14/14 15/15/15
f 19/19/19 18/18/18 17/17/17
f 18/18/18 20/20/20 17/17/17
f 17/17/17 20/20/20 21/21/21
f 20/20/20 22/22/22 21/21/21
f 22/22/22 23/23/23 21/21/21
