g fcbg_desert_005_container_02
v -1.7032998 -0.0005765875 -1.2725542
v -1.7032998 1.9950149 -1.272555
v -1.7032996 1.9950149 1.2736522
v -1.7032996 -0.0005764618 1.2736523
v -0.90340996 1.5122906 1.3067304
v -0.97707915 1.4555334 1.3485664
v -0.4213873 1.1884457 1.3485662
v -1.0267773 1.3445008 1.3228039
v -0.42702723 1.0326146 1.3228036
v -1.7032996 -0.0005764618 1.2736523
v 0.23683561 1.001166 1.3228034
v 1.703299 -0.0005764618 1.2736518
v 0.94881284 1.3025935 1.3228036
v 1.703299 1.9950149 1.2736517
v 0.8436928 1.5624762 1.3067302
v 0.2032956 1.1714085 1.3485662
v 0.8787905 1.4736686 1.3485659
v 0.28380072 1.3388356 1.3067302
v -0.32581735 1.3462113 1.3067304
v 1.7032989 -0.0005765875 -1.2725544
v 1.703299 -0.0005764618 1.2736518
v 1.703299 1.9950149 1.2736517
v 1.7032989 1.9950149 -1.2725552
v -1.7032996 1.9950149 1.2736522
v 1.703299 1.9950149 1.2736517
v -1.7032998 1.9950149 -1.272555
v -0.8436936 1.5624764 -1.3061591
v -0.8787914 1.4736688 -1.347995
v -0.9488137 1.3025937 -1.3222324
v -1.7032998 -0.0005765875 -1.2725542
v -0.23683643 1.0011662 -1.3222322
v 1.7032989 -0.0005765875 -1.2725544
v -0.20329642 1.1714088 -1.3479949
v -0.28380156 1.3388358 -1.306159
v 0.9034091 1.5122908 -1.3061593
v 0.3258165 1.3462116 -1.3061591
v 0.42138648 1.1884459 -1.347995
v 0.4270264 1.0326148 -1.3222324
v 0.97707826 1.4555336 -1.347995
v 1.0267764 1.344501 -1.3222325
vt 0.49001986 0.37347025
vt 0.49001986 0.41322184
vt 0.54068863 0.41322184
vt 0.54068863 0.37347025
vt 0.5566193 0.40493232
vt 0.55515206 0.40285128
vt 0.5668546 0.39715523
vt 0.55370593 0.40106273
vt 0.5656506 0.39485008
vt 0.54068863 0.37347025
vt 0.57887214 0.3942236
vt 0.60853463 0.37347025
vt 0.5930519 0.40022796
vt 0.60853463 0.41322184
vt 0.59141463 0.40539896
vt 0.5786605 0.39681584
vt 0.5921137 0.40283677
vt 0.5802638 0.40147713
vt 0.5681226 0.40162405
vt 0.54068863 0.37347025
vt 0.49001986 0.37347025
vt 0.49001986 0.41322184
vt 0.54068863 0.41322184
vt 0.60853463 0.46388945
vt 0.54068863 0.46388945
vt 0.60853463 0.41322184
vt 0.59141463 0.40539896
vt 0.5921137 0.40283677
vt 0.5930519 0.40022796
vt 0.60853463 0.37347025
vt 0.57887214 0.3942236
vt 0.54068863 0.37347025
vt 0.5786605 0.39681584
vt 0.5802638 0.40147713
vt 0.5566193 0.40493232
vt 0.5681226 0.40162405
vt 0.5668546 0.39715523
vt 0.5656506 0.39485008
vt 0.55515206 0.40285128
vt 0.55370593 0.40106273
vn -0.71600264 -0.019084895 -0.6978367
vn -0.58597285 0.58356154 -0.56222034
vn -0.5849644 0.5852212 0.5615449
vn -0.71608704 -0.020071527 0.6977224
vn 0.078387015 0.20895977 0.9747775
vn -2.480016E-05 0.08957786 0.9959798
vn 0.0012206907 0.024798423 0.9996917
vn -0.08752343 -0.078651875 0.99305266
vn -0.019954816 -0.094415486 0.9953329
vn -0.71608704 -0.020071527 0.6977224
vn 0.0131424 -0.08668655 0.99614894
vn 0.7159098 -0.01888526 0.69793725
vn 0.0649309 -0.058811676 0.9961552
vn 0.58587396 0.58350486 0.56238216
vn -0.07657183 0.2146798 0.97367823
vn -5.6444915E-05 0.034537252 0.99940336
vn -0.015424797 0.11327841 0.9934436
vn -0.053016175 0.17244153 0.98359203
vn 0.024683034 0.1432139 0.9893839
vn 0.7161819 -0.020283632 -0.6976189
vn 0.7159098 -0.01888526 0.69793725
vn 0.58587396 0.58350486 0.56238216
vn 0.58505714 0.5853009 -0.56136525
vn -0.5849644 0.5852212 0.5615449
vn 0.58587396 0.58350486 0.56238216
vn -0.58597285 0.58356154 -0.56222034
vn 0.07644878 0.21521753 -0.9735692
vn 0.0151748685 0.11337444 -0.99343646
vn -0.06526255 -0.058859617 -0.9961307
vn -0.71600264 -0.019084895 -0.6978367
vn -0.013162468 -0.086950056 -0.99612576
vn 0.7161819 -0.020283632 -0.6976189
vn 5.6489585E-05 0.034537084 -0.99940336
vn 0.05301628 0.17244111 -0.98359203
vn -0.07831225 0.2095078 -0.974666
vn -0.02468292 0.14321354 -0.989384
vn -0.0012205421 0.024798295 -0.9996917
vn 0.019986028 -0.09467001 -0.9953081
vn 0.00028680995 0.08976121 -0.9959632
vn 0.08789751 -0.078681886 -0.9930172
g fcbg_desert_005_container_02_0
f 3/3/3 2/2/2 1/1/1
f 4/4/4 3/3/3 1/1/1
f 3/3/3 6/6/6 5/5/5
f 5/5/5 6/6/6 7/7/7
f 8/8/8 6/6/6 3/3/3
f 6/6/6 8/8/8 9/9/9
f 7/7/7 6/6/6 9/9/9
f 8/8/8 3/3/3 10/10/10
f 9/9/9 8/8/8 10/10/10
f 11/11/11 9/9/9 10/10/10
f 7/7/7 9/9/9 11/11/11
f 12/12/12 11/11/11 10/10/10
f 13/13/13 11/11/11 12/12/12
f 14/14/14 13/13/13 12/12/12
f 14/14/14 3/3/3 15/15/15
f 3/3/3 5/5/5 15/15/15
f 16/16/16 7/7/7 11/11/11
f 16/16/16 11/11/11 13/13/13
f 14/14/14 17/17/17 13/13/13
f 14/14/14 15/15/15 17/17/17
f 17/17/17 16/16/16 13/13/13
f 15/15/15 18/18/18 17/17/17
f 18/18/18 15/15/15 5/5/5
f 18/18/18 16/16/16 17/17/17
f 19/19/19 7/7/7 16/16/16
f 19/19/19 5/5/5 7/7/7
f 18/18/18 19/19/19 16/16/16
f 19/19/19 18/18/18 5/5/5
f 22/22/22 21/21/21 20/20/20
f 23/23/23 22/22/22 20/20/20
f 25/25/25 23/23/23 24/24/24
f 23/23/23 26/26/26 24/24/24
f 26/26/26 23/23/23 27/27/27
f 26/26/26 27/27/27 28/28/28
f 26/26/26 28/28/28 29/29/29
f 26/26/26 29/29/29 30/30/30
f 29/29/29 31/31/31 30/30/30
f 30/30/30 31/31/31 32/32/32
f 28/28/28 33/33/33 29/29/29
f 33/33/33 31/31/31 29/29/29
f 27/27/27 34/34/34 28/28/28
f 34/34/34 33/33/33 28/28/28
f 34/34/34 27/27/27 35/35/35
f 23/23/23 35/35/35 27/27/27
f 34/34/34 36/36/36 33/33/33
f 36/36/36 34/34/34 35/35/35
f 36/36/36 37/37/37 33/33/33
f 33/33/33 37/37/37 31/31/31
f 36/36/36 35/35/35 37/37/37
f 31/31/31 38/38/38 32/32/32
f 37/37/37 38/38/38 31/31/31
f 35/35/35 39/39/39 37/37/37
f 23/23/23 39/39/39 35/35/35
f 37/37/37 39/39/39 38/38/38
f 40/40/40 23/23/23 32/32/32
f 38/38/38 40/40/40 32/32/32
f 40/40/40 39/39/39 23/23/23
f 39/39/39 40/40/40 38/38/38
