g fcbg_arkcity_001_barricade_03
v -0.48870754 1.1563226 -0.14740789
v -0.48895073 1.1563226 0.10154331
v -0.69867957 0.7020811 0.10117161
v -0.6984838 0.7018546 -0.14740789
v -0.6984838 0.7018546 -0.14740789
v -0.69867957 0.7020811 0.10117161
v -0.8413032 0.69024694 0.10117161
v -0.84125555 0.6898111 -0.14740789
v -1.3853511 0.17074764 -0.14740789
v -1.3857564 0.17004895 0.10117161
v -1.4651653 9.2983246E-05 -0.14740789
v -1.4653133 9.858608E-05 0.10117161
v 1.3556302 1.1562976 -0.14740789
v -0.48870754 1.1563226 -0.14740789
v -0.6984838 0.7018546 -0.14740789
v 1.3553898 -9.703636E-05 -0.14740789
v -0.84125555 0.6898111 -0.14740789
v -1.3853511 0.17074764 -0.14740789
v -1.4651653 9.2983246E-05 -0.14740789
v 1.3553898 -9.703636E-05 -0.14740789
v 1.3553898 -9.703636E-05 0.15420127
v 1.3556302 1.1562976 0.15420127
v 1.3556302 1.1562976 -0.14740789
v -0.40139437 1.3456815 0.18956089
v -0.5810462 1.2244955 0.16276515
v -0.5536746 1.3456815 0.08088267
v -0.55826676 1.3456815 -0.18976331
v -0.5595974 1.1621922 -0.18952858
v -0.55887616 1.0977031 -0.08122766
v -0.55702865 1.0977031 0.18892086
v -0.49962485 1.0977031 -0.18944478
v 1.3103063 1.3456815 -0.18976331
v 1.3714387 1.0976945 -0.18946433
v 1.0979419 1.3456815 0.18956089
v -0.40139437 1.3456815 0.18956089
v -0.5536746 1.3456815 0.08088267
v 1.3819954 1.3456815 0.0538522
v 1.3875016 1.3456815 -0.10878086
v 1.3875016 1.3456815 -0.10878086
v 1.46546 1.1564568 -0.10740292
v 1.4520216 1.0977339 -0.09948182
v 1.3819954 1.3456815 0.0538522
v 1.4520216 1.0978624 0.18976486
v 1.0979419 1.3456815 0.18956089
v 1.3556302 1.1562976 0.15420127
v -0.69867957 0.7020811 0.10117161
v -0.48895073 1.1563226 0.10154331
v 1.3553898 -9.703636E-05 0.15420127
v -0.8413032 0.69024694 0.10117161
v -1.3857564 0.17004895 0.10117161
v -1.4653133 9.858608E-05 0.10117161
v -0.55702865 1.0977031 0.18892086
v -0.5810462 1.2244955 0.16276515
v -0.40139437 1.3456815 0.18956089
v 1.0979419 1.3456815 0.18956089
v 1.4520216 1.0978624 0.18976486
vt 0.065268256 0.5108815
vt 0.07064495 0.51470894
vt 0.07726711 0.5041226
vt 0.07179928 0.49959645
vt 0.07179928 0.49959645
vt 0.07726711 0.5041226
vt 0.07971244 0.5022545
vt 0.07523186 0.49775866
vt 0.089949444 0.48434728
vt 0.0947338 0.48864558
vt 0.09251629 0.4800186
vt 0.097968936 0.48451436
vt 0.016437462 0.5108815
vt 0.065268256 0.5108815
vt 0.07179928 0.49959645
vt 0.016437462 0.4800186
vt 0.07523186 0.49775866
vt 0.089949444 0.48434728
vt 0.09251629 0.4800186
vt 0.016437462 0.4800186
vt 0.008342031 0.4800186
vt 0.008342031 0.5108815
vt 0.016437462 0.5108815
vt 0.06807811 0.5201464
vt 0.06508599 0.516
vt 0.063719034 0.51920474
vt 0.057370268 0.5204502
vt 0.05668679 0.5162886
vt 0.05869166 0.5142381
vt 0.06501005 0.51293194
vt 0.055593222 0.51472414
vt 0.012807428 0.5204502
vt 0.011273397 0.51472414
vt 0.017895551 0.5292443
vt 0.053603537 0.5292443
vt 0.05724876 0.5267078
vt 0.011121513 0.5261155
vt 0.0109848175 0.52234876
vt 0.010134266 0.5207388
vt 0.008569858 0.5163189
vt 0.008235713 0.51504314
vt 0.006367536 0.5219538
vt 0.0015072399 0.51707834
vt 0.0010515872 0.5271179
vt 0.016437462 0.5108815
vt 0.07179928 0.49959645
vt 0.065268256 0.5108815
vt 0.016437462 0.4800186
vt 0.07523186 0.49775866
vt 0.089949444 0.48434728
vt 0.09251629 0.4800186
vt 0.055593222 0.51472414
vt 0.056200758 0.5175188
vt 0.05216064 0.5204502
vt 0.019186568 0.5204502
vt 0.011273397 0.51472414
vn -0.90817314 0.41859475 -0
vn -0.90817314 0.41859475 -0
vn -0.90817314 0.41859475 -0
vn -0.90817314 0.41859475 -0
vn -0.08315432 0.9965167 -0.0063099843
vn -0.08315432 0.9965167 -0.0063099843
vn -0.41066337 0.91178703 -0
vn -0.41066337 0.91178703 -0
vn -0.81111205 0.584723 -0.014008865
vn -0.8127813 0.58256906 -0
vn -0.90479016 0.4246894 -0.031522516
vn -0.90479016 0.4246894 -0.031522516
vn 0.00076568127 -0.00076568127 -0.9999994
vn 0.00076568127 -0.00076568127 -0.9999994
vn 0.00076568127 -0.00076568127 -0.9999994
vn 0.00076568127 -0.00076568127 -0.9999994
vn 0.00076568127 -0.00076568127 -0.9999994
vn 0.00076568127 -0.00076568127 -0.9999994
vn 0.00076568127 -0.00076568127 -0.9999994
vn 0.99999976 -0.00076568127 -0
vn 0.99999976 -0.00076568127 -0
vn 0.99999976 -0.00076568127 -0
vn 0.99999976 -0.00076568127 -0
vn -0.10657394 0.69791746 0.7082042
vn -0.8130636 0.16707444 0.55768603
vn -0.6061909 0.7662245 0.21314931
vn -0.5593518 0.584723 -0.58755815
vn -0.69011104 -0.19007373 -0.698297
vn -0.96724236 -0.2291063 -0.10932756
vn -0.6569333 -0.05931455 0.7516119
vn -0.2802689 -0.26033235 -0.92394614
vn 0.22520304 0.6569333 -0.7195292
vn 0.40865618 0.05192828 -0.91120994
vn 0.061266184 0.7037724 0.7077788
vn -0.10657394 0.69791746 0.7082042
vn -0.6061909 0.7662245 0.21314931
vn 0.54331857 0.78378916 0.300798
vn 0.5940609 0.7467083 -0.2991962
vn 0.5940609 0.7467083 -0.2991962
vn 0.92974114 0.07925105 -0.35958406
vn 0.9082732 -0.25252587 -0.33357227
vn 0.54331857 0.78378916 0.300798
vn 0.6701745 0.33686614 0.6613527
vn 0.061266184 0.7037724 0.7077788
vn -0.026557088 0.0031375885 0.9996424
vn -0.020702243 0.014847398 0.99967545
vn -0.026557088 0.0031375885 0.9996424
vn -0.024605513 0.0070408583 0.9996725
vn -0.016798973 0.022653818 0.9996022
vn -0.018750548 0.012895703 0.999741
vn -0.018750548 0.008992434 0.99978375
vn -0.6569333 -0.05931455 0.7516119
vn -0.8130636 0.16707444 0.55768603
vn -0.10657394 0.69791746 0.7082042
vn 0.061266184 0.7037724 0.7077788
vn 0.6701745 0.33686614 0.6613527
g fcbg_arkcity_001_barricade_03_0
f 3/3/3 2/2/2 1/1/1
f 4/4/4 3/3/3 1/1/1
f 7/7/7 6/6/6 5/5/5
f 8/8/8 7/7/7 5/5/5
f 7/7/7 8/8/8 9/9/9
f 10/10/10 7/7/7 9/9/9
f 10/10/10 9/9/9 11/11/11
f 12/12/12 10/10/10 11/11/11
f 15/15/15 14/14/14 13/13/13
f 16/16/16 15/15/15 13/13/13
f 17/17/17 15/15/15 16/16/16
f 18/18/18 17/17/17 16/16/16
f 19/19/19 18/18/18 16/16/16
f 22/22/22 21/21/21 20/20/20
f 23/23/23 22/22/22 20/20/20
f 26/26/26 25/25/25 24/24/24
f 27/27/27 25/25/25 26/26/26
f 27/27/27 28/28/28 25/25/25
f 25/25/25 28/28/28 29/29/29
f 30/30/30 25/25/25 29/29/29
f 28/28/28 31/31/31 29/29/29
f 28/28/28 27/27/27 31/31/31
f 27/27/27 32/32/32 31/31/31
f 32/32/32 33/33/33 31/31/31
f 32/32/32 27/27/27 34/34/34
f 27/27/27 35/35/35 34/34/34
f 27/27/27 36/36/36 35/35/35
f 37/37/37 32/32/32 34/34/34
f 38/38/38 32/32/32 37/37/37
f 33/33/33 32/32/32 39/39/39
f 40/40/40 33/33/33 39/39/39
f 41/41/41 33/33/33 40/40/40
f 39/39/39 42/42/42 40/40/40
f 43/43/43 41/41/41 40/40/40
f 42/42/42 43/43/43 40/40/40
f 44/44/44 43/43/43 42/42/42
f 47/47/47 46/46/46 45/45/45
f 46/46/46 48/48/48 45/45/45
f 46/46/46 49/49/49 48/48/48
f 49/49/49 50/50/50 48/48/48
f 50/50/50 51/51/51 48/48/48
f 54/54/54 53/53/53 52/52/52
f 54/54/54 52/52/52 55/55/55
f 52/52/52 56/56/56 55/55/55
