g fcbg_arkcity_001_garbage_03
v -0.2106998 0.05576998 -0.027859777
v -0.1948359 0.0035786033 -0.17240104
v -0.40264475 -0.01386708 -0.22074309
v -0.37114924 0.06858832 -0.08515236
v -0.24675447 0.20057124 0.13728154
v -0.39495707 0.22566587 -0.031974614
v -0.29157895 0.72303295 0.29549652
v -0.39142478 0.11136836 -0.22555666
v -0.42283 0.7591816 0.13765764
v -0.2484616 1.0670372 0.33047086
v -0.23155975 0.15187335 -0.3624342
v -0.1948359 0.0035786033 -0.17240104
v 0.045539588 -0.0022046864 -0.10536155
v -0.33016115 1.0963371 0.23646551
v -0.16231167 1.219563 0.28597635
v -0.42588842 0.25816613 -0.18807876
v -0.24227828 0.33547246 -0.37299418
v -0.45593125 0.79712224 -0.018903732
v 0.08822188 0.16546786 -0.34259003
v 0.34397456 0.1686554 -0.24233313
v 0.264467 0.010055035 -0.05642402
v 0.43688673 0.020480424 -0.053691864
v 0.42996964 0.13547117 -0.063566
v 0.45593262 0.3090744 -0.0071693957
v -0.35393953 1.1341044 0.1319536
v -0.2804309 0.8900528 -0.19943699
v 0.10462412 0.3977058 -0.42150766
v 0.3711174 0.36492902 -0.23036283
v 0.37956834 0.8422731 0.15198028
v 0.039122134 0.959159 -0.24147402
v 0.2965377 0.9135417 -0.06513858
v -0.03300932 1.2717378 -0.00077039003
v 0.14555869 1.2290573 0.104123116
v 0.20600192 1.1614518 0.2455008
v -0.2413491 1.2161947 0.01709932
v -0.07503343 1.312442 0.15729344
v -0.0022456944 1.2908317 0.20691127
v 0.021914274 1.2609345 0.25973868
v 0.021687508 1.3011132 0.28112596
v -0.0120792985 1.340018 0.23404676
v 0.074208915 1.3425455 0.30906707
v -0.17108333 1.2837026 0.17034227
v 0.011446476 1.4176931 0.26136655
v -0.10547447 1.3673563 0.29655105
v -0.081297874 1.3620081 0.19094414
v -0.06117904 1.434311 0.23575944
v -0.20520228 1.241684 0.2309385
v -0.099912405 1.4771869 0.18041551
v -0.16555816 1.4426771 0.19610792
v -0.21501374 1.379463 0.24047524
v -0.26715356 1.3298582 0.26691574
v -0.17944765 1.3349924 0.19781876
v -0.2137214 1.2835846 0.25627834
v -0.23947418 1.3192115 0.32319987
v -0.16384917 1.2694186 0.3091371
v -0.1083799 1.2593546 0.33993024
v -0.19007945 1.3247588 0.35038328
v -0.1517554 1.2930236 0.41119337
v -0.09680414 1.2959752 0.421521
v -0.056006014 1.3255848 0.3762946
v -0.05494964 1.272455 0.33181667
v -0.008314729 1.3430083 0.34403217
v 0.074208915 1.3425455 0.30906707
v 0.021687508 1.3011132 0.28112596
v -0.017344505 1.2884885 0.3081268
v -0.0010676384 1.2422849 0.28981102
v 0.021914274 1.2609345 0.25973868
vt 0.69951975 0.39671284
vt 0.70492315 0.39595407
vt 0.70627975 0.3866189
vt 0.6999912 0.39067715
vt 0.69148374 0.39647138
vt 0.6942314 0.38976896
vt 0.6730778 0.39233267
vt 0.7016351 0.3856417
vt 0.6748483 0.38667637
vt 0.66127086 0.38874573
vt 0.70109487 0.3773412
vt 0.7093264 0.37726074
vt 0.7113383 0.3669713
vt 0.66219056 0.38479096
vt 0.65518916 0.38679135
vt 0.695657 0.38503236
vt 0.6950592 0.37646747
vt 0.67604387 0.38261807
vt 0.7016351 0.36598265
vt 0.70216405 0.35641754
vt 0.710683 0.35791206
vt 0.70899296 0.35146254
vt 0.7031642 0.34903675
vt 0.6953006 0.34670293
vt 0.66282296 0.38129598
vt 0.6755955 0.3753178
vt 0.6935071 0.36487895
vt 0.694036 0.3542102
vt 0.6720431 0.34670293
vt 0.67408955 0.36530435
vt 0.67295134 0.35533684
vt 0.6606846 0.36847734
vt 0.6597649 0.36137253
vt 0.6573391 0.35624504
vt 0.6620412 0.3755707
vt 0.6551777 0.3706962
vt 0.6546143 0.36636204
vt 0.6536257 0.36364883
vt 0.6514758 0.36424667
vt 0.65211964 0.36744267
vt 0.6484637 0.36357987
vt 0.6556721 0.37630653
vt 0.64952147 0.3677646
vt 0.6412324 0.37607658
vt 0.6530049 0.37122506
vt 0.6499928 0.37022483
vt 0.6556951 0.38222724
vt 0.6489811 0.37263912
vt 0.6502112 0.37480044
vt 0.65155625 0.3776976
vt 0.65078604 0.381204
vt 0.6536372 0.37645596
vt 0.6538327 0.38208926
vt 0.6511769 0.38376772
vt 0.6533613 0.38628548
vt 0.652568 0.3892861
vt 0.651016 0.3855037
vt 0.6498318 0.3875271
vt 0.64927995 0.38891822
vt 0.6484523 0.3904587
vt 0.65126884 0.3915279
vt 0.6476015 0.39213723
vt 0.64625645 0.39487338
vt 0.649372 0.39473546
vt 0.65034914 0.39326388
vt 0.65160227 0.39474696
vt 0.65039515 0.3958506
vn -0.3551259 -0.74466217 0.56512284
vn 0.06420404 -0.95623314 -0.28547513
vn -0.6505629 -0.7141654 -0.2583326
vn -0.67915356 -0.5883664 0.43883413
vn -0.6772475 -0.38251358 0.6285055
vn -0.862134 -0.30245966 0.40650114
vn -0.76683164 -0.10994911 0.632361
vn -0.91550314 -0.043237507 -0.3999806
vn -0.90025485 -0.037519395 0.43374363
vn -0.6905899 0.2655418 0.6727356
vn -0.231233 -0.4130103 -0.8808824
vn 0.06420404 -0.95623314 -0.28547513
vn 0.15378815 -0.80374956 -0.5747485
vn -0.7935163 0.32844126 0.5123068
vn -0.7058382 -0.0051166415 0.7083546
vn -0.9479059 -0.05657983 -0.31348544
vn -0.42183745 0.05015874 -0.905283
vn -0.9631543 0.17023957 -0.20821202
vn 0.20715737 -0.52165484 -0.8276243
vn 0.5845543 -0.41491634 -0.6972379
vn 0.14235187 -0.7923133 -0.5932753
vn 0.49497023 -0.5483395 -0.67403877
vn 0.90858203 -0.018458962 -0.41729844
vn 0.9333606 0.08637357 -0.348393
vn -0.85956454 0.5110272 -0
vn -0.5095155 0.37799847 -0.77298844
vn 0.23384202 0.07874942 -0.9690802
vn 0.7770649 0.080655456 -0.6242314
vn 0.90858203 0.35131383 -0.22595863
vn 0.19000298 0.47711277 -0.8580573
vn 0.76562864 0.42183745 -0.48566034
vn 0.1023249 0.8335433 -0.5428952
vn 0.6093329 0.76301956 -0.21567222
vn 0.7522863 0.65818715 -0.029239854
vn -0.5190458 0.71727455 -0.46487483
vn 0.09851283 0.8373554 -0.53770924
vn 0.63029945 0.73824096 -0.24025597
vn 0.8533067 0.4580524 0.24910969
vn 0.9295485 -0.3539229 0.10333524
vn 0.6722324 0.24838734 -0.69742906
vn 0.95623314 0.05015874 0.2882747
vn -0.58956945 0.6848717 -0.428204
vn 0.5845543 0.81067073 -0.033304397
vn -0.13402462 0.79732835 0.5884768
vn 0.27386898 0.30175662 -0.91320246
vn 0.44541305 0.89072466 0.09064656
vn -0.8888185 0.3799045 0.2562698
vn 0.19000298 0.87166417 -0.45177484
vn -0.5724151 0.740147 -0.35287866
vn -0.7344289 0.6772475 0.044158757
vn -0.99365103 0.101621866 -0.048276685
vn -0.5533546 0.13211858 -0.8224009
vn -0.8545097 -0.51593673 -0.06018698
vn -0.7687377 0.05015874 0.6375943
vn -0.59528756 -0.61123896 0.52155507
vn -0.12830651 -0.83234024 0.5392098
vn -0.63912666 0.27507198 0.71822876
vn -0.48473704 -0.12710351 0.86537546
vn 0.30627173 -0.087076545 0.9479532
vn 0.4473191 0.27697802 0.8504051
vn 0.47400373 -0.49306417 0.72952604
vn 0.4644735 0.38371658 0.79813904
vn 0.95623314 0.05015874 0.2882747
vn 0.9295485 -0.3539229 0.10333524
vn 0.5845543 -0.38632566 0.7134765
vn 0.6722324 -0.1614123 0.72253007
vn 0.8533067 0.4580524 0.24910969
g fcbg_arkcity_001_garbage_03_0
f 3/3/3 2/2/2 1/1/1
f 4/4/4 3/3/3 1/1/1
f 1/1/1 5/5/5 4/4/4
f 5/5/5 6/6/6 4/4/4
f 6/6/6 5/5/5 7/7/7
f 4/4/4 8/8/8 3/3/3
f 8/8/8 4/4/4 6/6/6
f 9/9/9 6/6/6 7/7/7
f 9/9/9 7/7/7 10/10/10
f 3/3/3 8/8/8 11/11/11
f 12/12/12 3/3/3 11/11/11
f 12/12/12 11/11/11 13/13/13
f 14/14/14 9/9/9 10/10/10
f 14/14/14 10/10/10 15/15/15
f 16/16/16 8/8/8 6/6/6
f 17/17/17 11/11/11 8/8/8
f 16/16/16 17/17/17 8/8/8
f 18/18/18 16/16/16 6/6/6
f 9/9/9 18/18/18 6/6/6
f 16/16/16 18/18/18 17/17/17
f 11/11/11 19/19/19 13/13/13
f 11/11/11 17/17/17 19/19/19
f 19/19/19 20/20/20 13/13/13
f 20/20/20 21/21/21 13/13/13
f 22/22/22 21/21/21 20/20/20
f 20/20/20 23/23/23 22/22/22
f 24/24/24 23/23/23 20/20/20
f 14/14/14 25/25/25 9/9/9
f 25/25/25 18/18/18 9/9/9
f 18/18/18 26/26/26 17/17/17
f 18/18/18 25/25/25 26/26/26
f 17/17/17 27/27/27 19/19/19
f 20/20/20 19/19/19 27/27/27
f 17/17/17 26/26/26 27/27/27
f 28/28/28 24/24/24 20/20/20
f 28/28/28 20/20/20 27/27/27
f 24/24/24 28/28/28 29/29/29
f 28/28/28 27/27/27 30/30/30
f 26/26/26 30/30/30 27/27/27
f 28/28/28 31/31/31 29/29/29
f 31/31/31 28/28/28 30/30/30
f 30/30/30 26/26/26 32/32/32
f 31/31/31 30/30/30 32/32/32
f 29/29/29 31/31/31 33/33/33
f 33/33/33 31/31/31 32/32/32
f 34/34/34 29/29/29 33/33/33
f 26/26/26 35/35/35 32/32/32
f 25/25/25 35/35/35 26/26/26
f 32/32/32 36/36/36 33/33/33
f 36/36/36 32/32/32 35/35/35
f 33/33/33 37/37/37 34/34/34
f 36/36/36 37/37/37 33/33/33
f 37/37/37 38/38/38 34/34/34
f 39/39/39 38/38/38 37/37/37
f 40/40/40 39/39/39 37/37/37
f 37/37/37 36/36/36 40/40/40
f 39/39/39 40/40/40 41/41/41
f 42/42/42 35/35/35 25/25/25
f 42/42/42 36/36/36 35/35/35
f 40/40/40 43/43/43 41/41/41
f 43/43/43 44/44/44 41/41/41
f 36/36/36 45/45/45 40/40/40
f 45/45/45 36/36/36 42/42/42
f 46/46/46 43/43/43 40/40/40
f 46/46/46 44/44/44 43/43/43
f 45/45/45 46/46/46 40/40/40
f 47/47/47 42/42/42 25/25/25
f 25/25/25 14/14/14 47/47/47
f 47/47/47 14/14/14 15/15/15
f 48/48/48 44/44/44 46/46/46
f 48/48/48 46/46/46 45/45/45
f 49/49/49 44/44/44 48/48/48
f 49/49/49 48/48/48 45/45/45
f 50/50/50 44/44/44 49/49/49
f 51/51/51 44/44/44 50/50/50
f 52/52/52 45/45/45 42/42/42
f 52/52/52 49/49/49 45/45/45
f 52/52/52 50/50/50 49/49/49
f 42/42/42 47/47/47 52/52/52
f 52/52/52 51/51/51 50/50/50
f 47/47/47 53/53/53 52/52/52
f 53/53/53 47/47/47 15/15/15
f 53/53/53 51/51/51 52/52/52
f 54/54/54 44/44/44 51/51/51
f 53/53/53 54/54/54 51/51/51
f 55/55/55 53/53/53 15/15/15
f 15/15/15 56/56/56 55/55/55
f 57/57/57 54/54/54 53/53/53
f 55/55/55 57/57/57 53/53/53
f 57/57/57 44/44/44 54/54/54
f 55/55/55 56/56/56 57/57/57
f 58/58/58 44/44/44 57/57/57
f 56/56/56 58/58/58 57/57/57
f 59/59/59 58/58/58 56/56/56
f 59/59/59 44/44/44 58/58/58
f 59/59/59 56/56/56 60/60/60
f 60/60/60 44/44/44 59/59/59
f 61/61/61 60/60/60 56/56/56
f 62/62/62 44/44/44 60/60/60
f 62/62/62 60/60/60 61/61/61
f 63/63/63 44/44/44 62/62/62
f 63/63/63 62/62/62 64/64/64
f 65/65/65 62/62/62 61/61/61
f 62/62/62 65/65/65 64/64/64
f 65/65/65 61/61/61 66/66/66
f 67/67/67 64/64/64 65/65/65
f 66/66/66 67/67/67 65/65/65
