g fcbg_desert_004_cliff_07
v 6.0087943 2.182991 3.97859
v 5.585136 1.0966034 4.302739
v 4.5429535 1.3976998 4.639488
v 4.5429535 2.4840994 4.315339
v 2.9643931 1.3810172 5.5572557
v 5.722339 2.5821657 3.1669722
v 2.9643931 2.4674168 5.2331057
v 0.9020724 1.3738494 5.290803
v 1.0109434 2.4602365 4.985483
v 0.5505996 2.4493265 1.9331388
v 0.11773157 1.1680498 5.694681
v 2.7831252 2.5662928 2.7390547
v 0.22660255 2.1417074 5.38935
v -0.9560094 1.1421227 5.5280313
v 0.37668753 2.3584871 4.7845993
v -0.8471384 2.1157913 5.2227116
v -1.4072967 1.1403627 5.202298
v -0.6956105 2.3325243 4.614582
v -1.2984257 2.2267628 4.896966
v -1.8310256 1.140152 5.0309668
v -1.7221661 2.226551 4.7256355
v -2.5143795 1.1441288 5.1607437
v -2.0038347 2.3332872 4.2202177
v -2.405508 2.2305288 4.8554125
v -3.8253841 1.137301 3.9981585
v -1.9726286 2.3102694 1.1720271
v 0.48250818 2.314927 -1.6150608
v -2.1835775 2.2804003 -2.1727667
v -3.6370888 2.3055534 0.050115585
v -3.641922 2.326354 2.9326649
v -3.8253841 2.223689 3.673997
v -4.0266895 1.4303966 3.7739048
v -3.8117867 2.541397 2.7006683
v -4.0266895 2.516796 3.4497433
v -4.493451 1.4276628 3.5326643
v -4.493451 2.514063 3.2085142
v -5.279106 1.427968 3.457862
v 2.0154552 2.5354967 -0.9554286
v -5.859126 2.5222044 1.4223132
v -5.189968 2.5143557 3.1462069
v -5.880947 1.4245892 2.7606535
v -5.6310368 2.5109768 2.5541973
v -6.1308107 2.0957184 1.4270058
v -5.769202 2.5178757 -0.42158508
v -6.1308107 2.0957184 1.4270058
v -5.265873 2.4161606 -1.4718857
v -4.376356 2.2816324 -2.0613852
v -5.4931526 2.0642538 -1.6327991
v -6.0137625 2.0774288 -0.4694624
v -6.0332375 1.3563924 -0.46088648
v -6.150837 1.3726993 1.4368019
v -5.9699917 -0.0005893707 1.4597964
v -5.9037657 -0.00083589554 -0.41177702
v -5.5093775 1.3587971 -1.6126556
v -5.046417 -0.0008239746 -1.1829433
v -4.2383785 0.0004196167 -1.8708606
v -4.5614843 1.699606 -2.2559218
v -4.186043 1.9486485 -3.5916688
v -3.848812 -0.0007185936 -3.2466486
v -3.9857807 2.2658768 -3.4549348
v -3.610035 1.9290333 -4.1434155
v -2.6851006 2.2553997 -4.380386
v -3.3227234 0.5708666 -4.1576576
v -3.4500723 0.00039625168 -4.59523
v -1.8302393 0.00037240982 -4.4917088
v -2.7248363 1.918005 -4.561818
v -1.8287377 0.5732012 -3.9515066
v -0.42640114 -0.00026082993 -3.1081545
v -1.8294067 1.9234953 -4.6460056
v -1.8360586 2.2544613 -4.464139
v -0.71085024 1.930851 -3.9656317
v -0.8742976 2.2633305 -3.68042
v -0.47172117 1.87292 -3.698393
v -0.39085388 1.9503498 -2.9775915
v 0.33311558 0.00025510788 -2.842054
v -0.6480379 2.277174 -2.4557729
v 0.3388877 1.9464197 -2.6902447
v 1.2830391 0.00023174286 -2.5642686
v 1.2748857 1.9105558 -2.434468
v 1.8393254 2.0503998E-05 -2.3213148
v 2.9332805 -1.4781952E-05 -2.4957666
v 1.5511222 2.519166 -2.3968089
v 2.937985 2.2721176 -2.9178414
v 3.6611564 9.059906E-06 -2.201932
v 2.9349816 2.5176058 -2.535725
v 3.86929 2.2923203 -2.57864
v 3.9099643 -0.00042533875 -0.99319315
v 3.1995218 2.5411863 -0.4527092
v 5.0423174 2.5489292 0.23109007
v 4.7479663 2.584571 3.3796692
v 3.660734 2.5209017 -2.244272
v 4.0039477 2.5336666 -1.117949
v 4.1304398 2.0956593 -1.2143378
v 4.926982 2.118537 -0.73457766
v 4.716455 0.0002670288 -0.35541773
v 5.13589 0.0013580322 0.13447857
v 5.225298 2.123312 -0.03776741
v 5.800039 2.134081 0.24109745
v 6.064239 0.0013580322 1.1539955
v 5.7716713 2.5617409 1.3626337
v 6.0087943 2.182991 3.97859
v 6.150831 2.1461887 1.0446315
v 5.9177556 0.0014753342 4.005643
v 5.585136 1.0966034 4.302739
vt 0.9576603 0.8171385
vt 0.94463193 0.8016075
vt 0.93057215 0.8093578
vt 0.9364266 0.825814
vt 0.8987974 0.8077501
vt 0.9618464 0.83586967
vt 0.90554667 0.82215875
vt 0.8708295 0.82352376
vt 0.88044536 0.83729535
vt 0.8937316 0.87820065
vt 0.8574523 0.82640547
vt 0.9197581 0.85319036
vt 0.86696196 0.83787173
vt 0.84453 0.83614266
vt 0.87355953 0.84451485
vt 0.8546464 0.84694153
vt 0.83903956 0.84236115
vt 0.860971 0.8542217
vt 0.85083944 0.85437334
vt 0.8342923 0.8471387
vt 0.84625906 0.85965145
vt 0.8258595 0.85344815
vt 0.8462894 0.8687213
vt 0.83731055 0.86404985
vt 0.81192106 0.87516725
vt 0.86515707 0.9061685
vt 0.91519284 0.9194851
vt 0.8845708 0.9402032
vt 0.8518253 0.9319068
vt 0.8334278 0.89761436
vt 0.8244338 0.88909054
vt 0.81269455 0.8814312
vt 0.83188075 0.90301377
vt 0.8241153 0.89544547
vt 0.8065823 0.8885597
vt 0.8195652 0.9016336
vt 0.79790676 0.8992979
vt 0.9273416 0.898585
vt 0.81581897 0.93920213
vt 0.81190586 0.9077459
vt 0.79366004 0.91464686
vt 0.811011 0.91722524
vt 0.8073861 0.94138616
vt 0.8338676 0.9552943
vt 0.8113902 0.95503646
vt 0.84682024 0.9593894
vt 0.8602278 0.9591012
vt 0.845986 0.96463716
vt 0.8315774 0.96145207
vt 0.8293934 0.97247845
vt 0.80829614 0.9679739
vt 0.8055661 0.98957163
vt 0.82895356 0.99289316
vt 0.8443177 0.9743895
vt 0.84496987 0.9959721
vt 0.85910547 0.9895261
vt 0.85980314 0.9699911
vt 0.87581944 0.96909624
vt 0.87777597 0.9965333
vt 0.87489426 0.9647888
vt 0.88346356 0.96903557
vt 0.8936558 0.9640911
vt 0.8911381 0.9853097
vt 0.8941108 0.99275666
vt 0.91532934 0.9831105
vt 0.89392877 0.9681104
vt 0.91181064 0.97499615
vt 0.93268037 0.9639394
vt 0.9021948 0.96196777
vt 0.9011028 0.9599809
vt 0.91217464 0.95053184
vt 0.90776104 0.9483023
vt 0.91382784 0.948727
vt 0.9152384 0.9407037
vt 0.93842864 0.9538534
vt 0.9073212 0.9351374
vt 0.92254883 0.93396956
vt 0.9495763 0.94570875
vt 0.9313912 0.92427784
vt 0.956811 0.942008
vt 0.973161 0.93591094
vt 0.93079966 0.91642135
vt 0.94746816 0.91238695
vt 0.982519 0.92640126
vt 0.94522345 0.9095356
vt 0.9556431 0.9060017
vt 0.99102765 0.91064274
vt 0.9397178 0.8869065
vt 0.96086055 0.8731349
vt 0.94766533 0.8384784
vt 0.9523216 0.90402997
vt 0.9539899 0.89133525
vt 0.9622256 0.8945658
vt 0.9661235 0.88449496
vt 0.99427336 0.89535445
vt 0.9918467 0.88382757
vt 0.96835303 0.8772148
vt 0.9709466 0.8706778
vt 0.9958659 0.8640802
vt 0.9658808 0.85851395
vt 0.9692631 0.82780087
vt 0.97263014 0.8622147
vt 0.99585074 0.82928723
vt 0.9830347 0.82155204
vn 0.7336986 0.4420154 0.5160511
vn 0.5039614 0.086791515 0.8593545
vn 0.39391917 0.23544502 0.8884781
vn 0.24719626 0.78758657 0.5644479
vn 0.17769587 0.27984798 0.94345605
vn 0.41129428 0.90728164 0.0876186
vn 0.12750119 0.73353076 0.6675897
vn 0.17383474 0.2566812 0.95073456
vn -0.046249628 0.84550357 0.53196305
vn -0.053971887 0.99801815 0.03235485
vn 0.06572312 0.28757024 0.95550185
vn -0.02114867 0.99977636 -0
vn 0.054139733 0.62541914 0.77840847
vn -0.3512789 0.30880642 0.88387877
vn -0.13119447 0.97871256 0.15782818
vn -0.25088954 0.652447 0.7150996
vn -0.45166826 0.28950083 0.8439106
vn -0.04238856 0.9845042 0.17016059
vn -0.26440346 0.7489753 0.6075581
vn -0.08099985 0.2779174 0.95718384
vn -0.07713866 0.77600324 0.6259941
vn -0.25282013 0.27212572 0.9284555
vn -0.026944041 0.99608755 0.0841641
vn -0.18718088 0.6852666 0.7038274
vn -0.6099746 0.24316728 0.7541888
vn -0.01535957 0.9998821 -0
vn -0.061694145 0.9845042 -0.16415003
vn -0.0057078004 0.99994874 -0.008361594
vn 0.050278604 0.99801815 -0.037839435
vn 0.35144675 0.9304484 0.10368679
vn -0.32232046 0.683336 0.6551041
vn -0.50958526 0.24509788 0.8247726
vn 0.43446106 0.8995594 0.045127727
vn 0.0522092 0.8049617 0.59102535
vn -0.27984798 0.27405632 0.9200969
vn -0.16015291 0.82812846 0.5371725
vn -0.44008493 0.2933619 0.8486837
vn -0.057833076 0.99801815 -0.024801612
vn -0.48834896 0.8725314 0.01429005
vn -0.33004272 0.73546135 0.59175026
vn -0.82619786 0.26826465 0.4954101
vn -0.5732939 0.7624892 0.29990715
vn -0.9381707 0.34162605 0.055923525
vn -0.47676563 0.86673975 -0.14648113
vn -0.9381707 0.34162605 0.055923525
vn -0.2952925 0.8783231 -0.37596667
vn -0.29143143 0.9092121 -0.2973232
vn -0.70071113 0.310737 -0.6422199
vn -0.9381707 0.2586118 -0.23012112
vn -0.9709903 -0.042556345 -0.23530151
vn -0.99608755 -0.0522092 -0.071300626
vn -0.9922265 -0.1178484 -0.039979413
vn -0.9246566 -0.20279324 -0.32231197
vn -0.7258085 -0.16225135 -0.6684882
vn -0.5964607 -0.41901654 -0.68458736
vn -0.7663504 -0.31283545 -0.561107
vn -0.785656 0.07327759 -0.6143086
vn -0.843573 0.17366695 -0.50815785
vn -0.9130733 -0.10819554 -0.39318043
vn -0.4651822 0.8416424 -0.27430564
vn -0.5732939 0.27212572 -0.77284
vn -0.15629184 0.8339201 -0.5292921
vn -0.5424048 0.1620835 -0.82433367
vn -0.41498756 0.6099746 -0.6750676
vn 0.2935298 0.64086366 -0.7093194
vn -0.23351443 0.14663899 -0.96123254
vn 0.36109954 0.05976355 -0.93061024
vn 0.5348504 -0.0155284405 -0.84480405
vn 0.22016835 0.05590248 -0.9738588
vn 0.14680684 0.81075335 -0.5666805
vn 0.6352398 0.24509788 -0.7323916
vn 0.37461352 0.8956982 -0.23956093
vn 0.86883813 0.26440346 -0.41858226
vn 0.67192054 0.57136333 -0.47123963
vn 0.31090486 0.06748581 -0.9480421
vn 0.14101517 0.97871256 -0.14911877
vn 0.28580755 0.58487725 -0.7590999
vn 0.33600223 0.06748581 -0.93944037
vn -0.13891673 0.26826465 -0.9532766
vn 0.042556345 -0.067653716 -0.99680084
vn 0.07730651 -0.1719042 -0.9820757
vn -0.310737 0.7663504 -0.56227183
vn 0.06572312 0.3532095 -0.93323284
vn 0.76458764 -0.16804308 -0.62222767
vn 0.042556345 0.94589293 -0.3216761
vn 0.68929565 0.35513997 -0.63146424
vn 0.8282963 -0.16418195 -0.5356953
vn -0.0018466711 0.99994874 -0.009956029
vn 0.28773808 0.92272615 -0.25648236
vn 0.0058755875 0.99801815 0.062651925
vn 0.27036303 0.9381707 -0.21619351
vn 0.38812745 0.88797593 -0.24668969
vn 0.8225046 0.094513774 -0.56085056
vn 0.72404575 0.27984798 -0.63043064
vn 0.68157333 -0.19314039 -0.70580065
vn 0.73755974 -0.1719042 -0.65303487
vn 0.7028096 0.2952925 -0.64719474
vn 0.68350387 0.3512789 -0.6398637
vn 0.95185244 -0.10626501 -0.2875494
vn 0.42866933 0.90148985 -0.059654303
vn 0.7336986 0.4420154 0.5160511
vn 0.9151717 0.3512789 -0.19764599
vn 0.9750192 -0.038695216 0.218724
vn 0.5039614 0.086791515 0.8593545
g fcbg_desert_004_cliff_07_0
f 3/3/3 2/2/2 1/1/1
f 4/4/4 3/3/3 1/1/1
f 5/5/5 3/3/3 4/4/4
f 6/6/6 4/4/4 1/1/1
f 7/7/7 5/5/5 4/4/4
f 8/8/8 5/5/5 7/7/7
f 9/9/9 8/8/8 7/7/7
f 9/9/9 7/7/7 10/10/10
f 11/11/11 8/8/8 9/9/9
f 7/7/7 4/4/4 12/12/12
f 7/7/7 12/12/12 10/10/10
f 13/13/13 11/11/11 9/9/9
f 14/14/14 11/11/11 13/13/13
f 15/15/15 13/13/13 9/9/9
f 10/10/10 15/15/15 9/9/9
f 16/16/16 14/14/14 13/13/13
f 13/13/13 15/15/15 16/16/16
f 17/17/17 14/14/14 16/16/16
f 15/15/15 18/18/18 16/16/16
f 10/10/10 18/18/18 15/15/15
f 19/19/19 17/17/17 16/16/16
f 19/19/19 16/16/16 18/18/18
f 20/20/20 17/17/17 19/19/19
f 21/21/21 20/20/20 19/19/19
f 22/22/22 20/20/20 21/21/21
f 18/18/18 23/23/23 19/19/19
f 23/23/23 21/21/21 19/19/19
f 24/24/24 22/22/22 21/21/21
f 24/24/24 21/21/21 23/23/23
f 25/25/25 22/22/22 24/24/24
f 26/26/26 23/23/23 18/18/18
f 26/26/26 18/18/18 10/10/10
f 26/26/26 10/10/10 27/27/27
f 28/28/28 26/26/26 27/27/27
f 29/29/29 26/26/26 28/28/28
f 23/23/23 26/26/26 30/30/30
f 24/24/24 23/23/23 30/30/30
f 26/26/26 29/29/29 30/30/30
f 31/31/31 25/25/25 24/24/24
f 31/31/31 24/24/24 30/30/30
f 32/32/32 25/25/25 31/31/31
f 31/31/31 30/30/30 33/33/33
f 30/30/30 29/29/29 33/33/33
f 34/34/34 32/32/32 31/31/31
f 34/34/34 31/31/31 33/33/33
f 35/35/35 32/32/32 34/34/34
f 36/36/36 35/35/35 34/34/34
f 36/36/36 34/34/34 33/33/33
f 37/37/37 35/35/35 36/36/36
f 27/27/27 10/10/10 38/38/38
f 38/38/38 10/10/10 12/12/12
f 33/33/33 29/29/29 39/39/39
f 36/36/36 33/33/33 39/39/39
f 40/40/40 37/37/37 36/36/36
f 41/41/41 37/37/37 40/40/40
f 36/36/36 42/42/42 40/40/40
f 42/42/42 41/41/41 40/40/40
f 42/42/42 36/36/36 39/39/39
f 43/43/43 41/41/41 42/42/42
f 39/39/39 43/43/43 42/42/42
f 39/39/39 29/29/29 44/44/44
f 45/45/45 39/39/39 44/44/44
f 29/29/29 46/46/46 44/44/44
f 46/46/46 29/29/29 47/47/47
f 47/47/47 29/29/29 28/28/28
f 48/48/48 44/44/44 46/46/46
f 46/46/46 47/47/47 48/48/48
f 49/49/49 45/45/45 44/44/44
f 49/49/49 44/44/44 48/48/48
f 45/45/45 49/49/49 50/50/50
f 50/50/50 49/49/49 48/48/48
f 50/50/50 51/51/51 45/45/45
f 52/52/52 51/51/51 50/50/50
f 52/52/52 50/50/50 53/53/53
f 53/53/53 50/50/50 54/54/54
f 54/54/54 50/50/50 48/48/48
f 55/55/55 53/53/53 54/54/54
f 55/55/55 54/54/54 56/56/56
f 54/54/54 48/48/48 57/57/57
f 56/56/56 54/54/54 57/57/57
f 57/57/57 48/48/48 47/47/47
f 58/58/58 56/56/56 57/57/57
f 58/58/58 57/57/57 47/47/47
f 56/56/56 58/58/58 59/59/59
f 60/60/60 58/58/58 47/47/47
f 60/60/60 47/47/47 28/28/28
f 58/58/58 61/61/61 59/59/59
f 61/61/61 58/58/58 60/60/60
f 62/62/62 60/60/60 28/28/28
f 61/61/61 60/60/60 62/62/62
f 59/59/59 61/61/61 63/63/63
f 64/64/64 59/59/59 63/63/63
f 65/65/65 64/64/64 63/63/63
f 66/66/66 61/61/61 62/62/62
f 63/63/63 61/61/61 66/66/66
f 67/67/67 65/65/65 63/63/63
f 65/65/65 67/67/67 68/68/68
f 67/67/67 63/63/63 69/69/69
f 63/63/63 66/66/66 69/69/69
f 67/67/67 69/69/69 68/68/68
f 66/66/66 62/62/62 70/70/70
f 69/69/69 66/66/66 70/70/70
f 62/62/62 28/28/28 70/70/70
f 71/71/71 69/69/69 70/70/70
f 69/69/69 71/71/71 68/68/68
f 70/70/70 28/28/28 72/72/72
f 71/71/71 70/70/70 72/72/72
f 71/71/71 73/73/73 68/68/68
f 73/73/73 71/71/71 72/72/72
f 68/68/68 73/73/73 74/74/74
f 74/74/74 73/73/73 72/72/72
f 75/75/75 68/68/68 74/74/74
f 72/72/72 28/28/28 76/76/76
f 76/76/76 74/74/74 72/72/72
f 27/27/27 76/76/76 28/28/28
f 77/77/77 75/75/75 74/74/74
f 74/74/74 76/76/76 77/77/77
f 76/76/76 27/27/27 77/77/77
f 78/78/78 75/75/75 77/77/77
f 79/79/79 78/78/78 77/77/77
f 77/77/77 27/27/27 79/79/79
f 78/78/78 79/79/79 80/80/80
f 81/81/81 80/80/80 79/79/79
f 79/79/79 27/27/27 82/82/82
f 82/82/82 27/27/27 38/38/38
f 83/83/83 81/81/81 79/79/79
f 79/79/79 82/82/82 83/83/83
f 81/81/81 83/83/83 84/84/84
f 85/85/85 82/82/82 38/38/38
f 83/83/83 82/82/82 85/85/85
f 83/83/83 86/86/86 84/84/84
f 83/83/83 85/85/85 86/86/86
f 87/87/87 84/84/84 86/86/86
f 85/85/85 38/38/38 88/88/88
f 38/38/38 12/12/12 88/88/88
f 89/89/89 88/88/88 12/12/12
f 90/90/90 89/89/89 12/12/12
f 4/4/4 90/90/90 12/12/12
f 90/90/90 4/4/4 6/6/6
f 6/6/6 89/89/89 90/90/90
f 85/85/85 88/88/88 91/91/91
f 86/86/86 85/85/85 91/91/91
f 91/91/91 88/88/88 92/92/92
f 91/91/91 92/92/92 86/86/86
f 92/92/92 88/88/88 89/89/89
f 93/93/93 87/87/87 86/86/86
f 93/93/93 86/86/86 92/92/92
f 93/93/93 94/94/94 87/87/87
f 94/94/94 93/93/93 92/92/92
f 94/94/94 92/92/92 89/89/89
f 87/87/87 94/94/94 95/95/95
f 95/95/95 94/94/94 96/96/96
f 96/96/96 94/94/94 97/97/97
f 97/97/97 94/94/94 89/89/89
f 98/98/98 96/96/96 97/97/97
f 97/97/97 89/89/89 98/98/98
f 98/98/98 99/99/99 96/96/96
f 6/6/6 100/100/100 89/89/89
f 100/100/100 98/98/98 89/89/89
f 100/100/100 6/6/6 101/101/101
f 102/102/102 98/98/98 100/100/100
f 102/102/102 99/99/99 98/98/98
f 102/102/102 100/100/100 101/101/101
f 102/102/102 101/101/101 99/99/99
f 101/101/101 103/103/103 99/99/99
f 104/104/104 103/103/103 101/101/101
