g fcbg_cityforest_005_substation_13
v 0.6709349 0.0036740631 -0.21800102
v 0.27704203 8.334256 -0.38130262
v 0.4146484 0.0036740478 -0.5707241
v 0.44823304 8.334256 -0.14564382
v 0.67093503 0.003673701 0.21800053
v -1.4132218E-13 8.334255 -9.359344E-07
v 0.4482331 8.334256 0.14564791
v -7.116715E-08 8.334256 -0.4713187
v 0.4146486 0.0036739071 0.5707238
v -1.06520375E-07 0.003674042 -0.70545256
v 0.27704215 8.334256 0.3813069
v 1.0652033E-07 0.0036742939 0.70545226
v -0.27704215 8.334256 -0.38130257
v -0.41467297 0.0036740478 -0.570724
v 7.116688E-08 8.334256 0.47131693
v -0.4146728 0.0036739071 0.5707239
v -0.44825748 8.334256 -0.14564367
v -0.67093503 0.0036740631 -0.21800081
v -0.27704203 8.334256 0.38130695
v -0.6709349 0.003673701 0.21800074
v -0.44825742 8.334256 0.14564806
vt 0.67739755 0.09264456
vt 0.69310725 0.30280834
vt 0.6895796 0.09242405
vt 0.6861123 0.3012061
vt 0.6653682 0.09331934
vt 0.6837057 0.316014
vt 0.67952526 0.30161983
vt 0.69910824 0.30401796
vt 0.65247315 0.0943625
vt 0.7006459 0.092338696
vt 0.67283523 0.3040595
vt 0.6386576 0.09641705
vt 0.69310725 0.30280834
vt 0.6895796 0.09242405
vt 0.66763246 0.30824965
vt 0.65247315 0.0943625
vt 0.6861123 0.3012061
vt 0.67739755 0.09264456
vt 0.67283523 0.3040595
vt 0.6653682 0.09331934
vt 0.67952526 0.30161983
vn 0.95068234 0.028096432 -0.30889103
vn 0.4445382 0.65423757 -0.6118488
vn 0.58755726 0.028094687 -0.8086948
vn 0.7192664 0.6542467 -0.23370294
vn 0.95068234 0.028096259 0.30889103
vn -0 1 0
vn 0.7192667 0.6542469 0.23370118
vn -0 0.6542404 -0.75628656
vn 0.5875523 0.02809452 0.8086983
vn -0 0.028094498 -0.99960536
vn 0.4445372 0.6542361 0.61185104
vn -0 0.028094027 0.99960536
vn -0.44453028 0.6542424 -0.61184955
vn -0.58755475 0.02809501 -0.80869657
vn -0 0.6542404 0.75628656
vn -0.5875499 0.028094899 0.8087
vn -0.7192733 0.6542394 -0.23370221
vn -0.95068234 0.028094888 -0.30889103
vn -0.44452825 0.65423936 0.6118542
vn -0.95068234 0.028094713 0.30889103
vn -0.7192733 0.6542394 0.23370221
g fcbg_cityforest_005_substation_13_0
f 3/3/3 2/2/2 1/1/1
f 2/2/2 4/4/4 1/1/1
f 1/1/1 4/4/4 5/5/5
f 2/2/2 6/6/6 4/4/4
f 4/4/4 6/6/6 7/7/7
f 4/4/4 7/7/7 5/5/5
f 8/8/8 6/6/6 2/2/2
f 8/8/8 2/2/2 3/3/3
f 5/5/5 7/7/7 9/9/9
f 10/10/10 8/8/8 3/3/3
f 7/7/7 11/11/11 9/9/9
f 7/7/7 6/6/6 11/11/11
f 9/9/9 11/11/11 12/12/12
f 13/13/13 8/8/8 10/10/10
f 13/13/13 6/6/6 8/8/8
f 14/14/14 13/13/13 10/10/10
f 11/11/11 15/15/15 12/12/12
f 11/11/11 6/6/6 15/15/15
f 12/12/12 15/15/15 16/16/16
f 17/17/17 13/13/13 14/14/14
f 17/17/17 6/6/6 13/13/13
f 18/18/18 17/17/17 14/14/14
f 15/15/15 19/19/19 16/16/16
f 15/15/15 6/6/6 19/19/19
f 16/16/16 19/19/19 20/20/20
f 21/21/21 17/17/17 18/18/18
f 21/21/21 6/6/6 17/17/17
f 20/20/20 21/21/21 18/18/18
f 19/19/19 21/21/21 20/20/20
f 19/19/19 6/6/6 21/21/21
