g fcbg_cityforest_002_traffic_lights_02
v -0.6432724 1.8145638 0.04971835
v -0.035469055 0.41287613 0.049718708
v -0.6432724 0.41287613 0.049718708
v -0.035469055 1.8145638 0.04971835
v -0.6432724 1.8145638 -0.052631706
v -0.035469055 1.8145638 -0.052631646
v -0.035469055 1.8145638 -0.052631646
v -0.035469055 0.41287613 -0.05263129
v -0.6432724 1.8145638 -0.052631706
v -0.6432724 0.41287613 -0.05263135
v -0.035469055 0.41287613 -0.05263129
v -0.035469055 1.8145638 -0.052631646
v -0.6432724 1.8145638 0.04971835
v -0.6432724 0.41287613 0.049718708
v -0.6432724 0.41287613 -0.05263135
v -0.6432724 1.8145638 -0.052631706
v -0.6432724 0.41287613 0.049718708
v -0.035469055 0.41287613 0.049718708
v -0.035469055 0.41287613 -0.05263129
v -0.6432724 0.41287613 -0.05263135
v 0.5656204 -2.7735653 -8.046627E-07
v 0.2789688 -2.7735653 0.16549876
v 0.4700699 -2.7735653 0.16549876
v 0.18341827 -2.7735653 -7.748604E-07
v 0.2789688 -2.7735653 -0.16550031
v 0.4700699 -2.7735653 -0.16550033
v 0.4700699 -2.7735653 0.16549876
v 0.5656204 2.5979614 -6.2286854E-06
v 0.5656204 -2.7735653 -8.046627E-07
v 0.4700699 2.5979614 0.1654934
v 0.2789688 -2.7735653 0.16549876
v 0.6432724 2.5979614 -6.2286854E-06
v 0.2789688 2.5979614 0.1654934
v 0.18341827 -2.7735653 -7.748604E-07
v 0.5088959 2.5979614 0.23274413
v 0.6432724 2.7077866 -6.28829E-06
v 0.18341827 2.5979614 -6.198883E-06
v 0.2789688 -2.7735653 -0.16550031
v 0.24014282 2.5979614 0.23274413
v 0.5088959 2.7077866 0.23274407
v 0.5422058 2.7077389 -6.28829E-06
v 0.2789688 2.5979614 -0.16550572
v 0.4700699 -2.7735653 -0.16550033
v 0.10575867 2.5979614 -6.198883E-06
v 0.24014282 2.7077866 0.23274407
v 0.45835876 2.7077389 0.14521739
v 0.5422058 2.7735767 -6.4074993E-06
v 0.45835876 2.7735767 0.14521733
v 0.2906723 2.7077389 0.14521739
v 0.2906723 2.7735767 0.14521733
v 0.4700699 2.5979614 -0.16550575
v 0.5656204 -2.7735653 -8.046627E-07
v 0.5656204 2.5979614 -6.2286854E-06
v 0.2401352 2.5979614 -0.23275647
v 0.10575867 2.7077866 -6.28829E-06
v 0.20682526 2.7077389 -6.2584877E-06
v 0.20682526 2.7735767 -6.4074993E-06
v 0.5088959 2.5979614 -0.23275654
v 0.6432724 2.5979614 -6.2286854E-06
v 0.2401352 2.7077866 -0.23275666
v 0.2906723 2.7077389 -0.14522994
v 0.2906723 2.7735767 -0.14523003
v 0.5088959 2.7077866 -0.23275673
v 0.6432724 2.7077866 -6.28829E-06
v 0.45835876 2.7077389 -0.14522998
v 0.45835876 2.7735767 -0.14523004
v 0.5422058 2.7077389 -6.28829E-06
v 0.5422058 2.7735767 -6.4074993E-06
v -0.07511902 0.59186935 -0.02301392
v 0.21031189 0.59186935 -0.02301392
v 0.21031189 1.643467 -0.023014188
v -0.07511902 1.643467 -0.023014188
v -0.07511902 0.59186935 0.020101726
v 0.21031189 0.59186935 -0.02301392
v -0.07511902 0.59186935 -0.02301392
v 0.21031189 0.59186935 0.020101726
v 0.21031189 1.643467 0.020101428
v -0.07511902 1.643467 0.020101428
v -0.07511902 0.59186935 -0.02301392
v -0.07511902 1.643467 -0.023014188
v -0.07511902 1.643467 -0.023014188
v 0.21031189 1.643467 -0.023014188
v 0.2906723 2.7735767 0.14521733
v 0.37451935 2.7735767 -6.4074993E-06
v 0.45835876 2.7735767 0.14521733
v 0.20682526 2.7735767 -6.4074993E-06
v 0.5422058 2.7735767 -6.4074993E-06
v 0.2906723 2.7735767 -0.14523003
v 0.45835876 2.7735767 -0.14523004
vt 0.32803148 0.17106709
vt 0.27902225 0.19269134
vt 0.27902338 0.17106709
vt 0.32803148 0.19269134
vt 0.32979703 0.17106709
vt 0.329796 0.19269134
vt 0.32803148 0.19489485
vt 0.27902213 0.19488695
vt 0.27902338 0.17106709
vt 0.32803148 0.17106709
vt 0.32803148 0.19269134
vt 0.27902225 0.19269134
vt 0.32803148 0.19269134
vt 0.27902216 0.19269134
vt 0.27902213 0.19488695
vt 0.32803133 0.19487897
vt 0.27626103 0.17106709
vt 0.27625954 0.19278719
vt 0.27902216 0.19269134
vt 0.27902338 0.17106709
vt 0.18410373 0.29997045
vt 0.18848978 0.30756745
vt 0.18848978 0.30250293
vt 0.18410373 0.31009927
vt 0.17971805 0.30756745
vt 0.17971805 0.30250293
vt 0.17816883 0.32429028
vt 0.2922039 0.3285502
vt 0.17816883 0.3285502
vt 0.2922039 0.32429028
vt 0.17816883 0.32003182
vt 0.29417276 0.3297008
vt 0.2922039 0.32003182
vt 0.17816883 0.3157718
vt 0.29417276 0.32467443
vt 0.29684174 0.3297008
vt 0.2922039 0.3157718
vt 0.17816883 0.32003182
vt 0.29417276 0.31964874
vt 0.29684174 0.32467443
vt 0.2984951 0.32730505
vt 0.2922039 0.32003182
vt 0.17816883 0.32429028
vt 0.29417276 0.314622
vt 0.29684174 0.31964874
vt 0.2984951 0.32387534
vt 0.30220482 0.32728726
vt 0.30220482 0.3238576
vt 0.2984951 0.3204464
vt 0.30220482 0.32042867
vt 0.2922039 0.32429028
vt 0.17816883 0.3285502
vt 0.2922039 0.3285502
vt 0.29417276 0.31964874
vt 0.29684174 0.314622
vt 0.2984951 0.31701818
vt 0.30220482 0.3170004
vt 0.29417276 0.32467443
vt 0.29417276 0.3297008
vt 0.29684174 0.31964874
vt 0.2984951 0.3204464
vt 0.30220482 0.32042867
vt 0.29684174 0.32467443
vt 0.29684174 0.3297008
vt 0.2984951 0.32387534
vt 0.30220482 0.3238576
vt 0.2984951 0.32730505
vt 0.30220482 0.32728726
vt 0.3380924 0.312312
vt 0.30701655 0.312312
vt 0.30701655 0.3243672
vt 0.33809304 0.32436246
vt 0.30701655 0.312312
vt 0.33809304 0.31115666
vt 0.30701655 0.31116146
vt 0.3380924 0.312312
vt 0.33809304 0.32436246
vt 0.30701655 0.3243672
vt 0.3060146 0.312312
vt 0.30601522 0.32436734
vt 0.30701655 0.32567874
vt 0.33809313 0.32567403
vt 0.18848978 0.30756745
vt 0.18410373 0.30502933
vt 0.18410373 0.31009927
vt 0.18848978 0.30250293
vt 0.17971805 0.30756745
vt 0.18410373 0.29997045
vt 0.17971805 0.30250293
vn -0.57735026 0.5773504 0.5773502
vn 0.5773502 -0.5773502 0.5773503
vn -0.5773502 -0.57735026 0.5773504
vn 0.5773503 0.5773504 0.5773502
vn -0.5773502 0.5773502 -0.5773504
vn 0.57735026 0.5773502 -0.5773504
vn 0.57735026 0.5773502 -0.5773504
vn 0.5773503 -0.5773503 -0.57735014
vn -0.5773502 0.5773502 -0.5773504
vn -0.5773502 -0.5773503 -0.5773502
vn 0.5773503 -0.5773503 -0.57735014
vn 0.57735026 0.5773502 -0.5773504
vn -0.57735026 0.5773504 0.5773502
vn -0.5773502 -0.57735026 0.5773504
vn -0.5773502 -0.5773503 -0.5773502
vn -0.5773502 0.5773502 -0.5773504
vn -0.5773502 -0.57735026 0.5773504
vn 0.5773502 -0.5773502 0.5773503
vn 0.5773503 -0.5773503 -0.57735014
vn -0.5773502 -0.5773503 -0.5773502
vn 0.7924055 -0.60999477 0
vn -0.396204 -0.6099937 0.68624336
vn 0.39620408 -0.60999376 0.68624336
vn -0.79240555 -0.6099947 0
vn -0.39620408 -0.6099944 -0.6862429
vn 0.39620394 -0.6099944 -0.6862429
vn 0.39620408 -0.60999376 0.68624336
vn 0.54470605 -0.838627 0
vn 0.7924055 -0.60999477 0
vn 0.27235305 -0.83862805 0.47172737
vn -0.396204 -0.6099937 0.68624336
vn 0.7924051 -0.60999525 0
vn -0.27235302 -0.83862805 0.47172737
vn -0.79240555 -0.6099947 0
vn 0.39620525 -0.6099937 0.68624276
vn 0.7922981 0.6101342 0
vn -0.544706 -0.8386271 0
vn -0.39620408 -0.6099944 -0.6862429
vn -0.39619616 -0.60999537 0.68624645
vn 0.39615166 0.6101332 0.6861497
vn 0.5444221 0.8388114 0
vn -0.2723526 -0.8386285 -0.471727
vn 0.39620394 -0.6099944 -0.6862429
vn -0.7924065 -0.60999346 0
vn -0.3961426 0.6101349 0.6861534
vn 0.27221155 0.8388073 0.47149032
vn 0.79240704 0.6099927 0
vn 0.39619884 0.6099954 0.68624485
vn -0.27221152 0.83880734 0.4714903
vn -0.3961988 0.6099955 0.6862449
vn 0.2723525 -0.8386285 -0.47172695
vn 0.7924055 -0.60999477 0
vn 0.54470605 -0.838627 0
vn -0.39620528 -0.6099943 -0.6862421
vn -0.7922995 0.6101324 0
vn -0.5444221 0.83881146 0
vn -0.79240704 0.60999274 0
vn 0.3962051 -0.6099943 -0.6862422
vn 0.7924051 -0.60999525 0
vn -0.3961518 0.6101324 -0.6861503
vn -0.27221218 0.8388068 -0.471491
vn -0.39619893 0.60999465 -0.68624556
vn 0.39615163 0.6101324 -0.6861505
vn 0.7922981 0.6101342 0
vn 0.27221194 0.83880687 -0.47149083
vn 0.3961989 0.60999465 -0.6862456
vn 0.5444221 0.8388114 0
vn 0.79240704 0.6099927 0
vn -0.57735026 -0.5773503 -0.5773502
vn -0 -0.7071068 -0.7071067
vn -0 0.70710665 -0.7071068
vn -0.5773502 0.57735026 -0.5773504
vn -0.5773502 -0.5773502 0.5773504
vn -0 -0.7071068 -0.7071067
vn -0.57735026 -0.5773503 -0.5773502
vn -0 -0.7071066 0.7071069
vn -0 0.7071069 0.70710665
vn -0.57735026 0.5773504 0.5773502
vn -0.57735026 -0.5773503 -0.5773502
vn -0.5773502 0.57735026 -0.5773504
vn -0.5773502 0.57735026 -0.5773504
vn -0 0.70710665 -0.7071068
vn -0.3961988 0.6099955 0.6862449
vn -0 1 0
vn 0.39619884 0.6099954 0.68624485
vn -0.79240704 0.60999274 0
vn 0.79240704 0.6099927 0
vn -0.39619893 0.60999465 -0.68624556
vn 0.3961989 0.60999465 -0.6862456
g fcbg_cityforest_002_traffic_lights_02_0
f 3/3/3 2/2/2 1/1/1
f 2/2/2 4/4/4 1/1/1
f 5/5/5 1/1/1 4/4/4
f 6/6/6 5/5/5 4/4/4
f 7/7/7 4/4/4 2/2/2
f 8/8/8 7/7/7 2/2/2
f 11/11/11 10/10/10 9/9/9
f 12/12/12 11/11/11 9/9/9
f 15/15/15 14/14/14 13/13/13
f 16/16/16 15/15/15 13/13/13
f 19/19/19 18/18/18 17/17/17
f 20/20/20 19/19/19 17/17/17
f 23/23/23 22/22/22 21/21/21
f 22/22/22 24/24/24 21/21/21
f 24/24/24 25/25/25 21/21/21
f 25/25/25 26/26/26 21/21/21
f 29/29/29 28/28/28 27/27/27
f 28/28/28 30/30/30 27/27/27
f 27/27/27 30/30/30 31/31/31
f 28/28/28 32/32/32 30/30/30
f 30/30/30 33/33/33 31/31/31
f 31/31/31 33/33/33 34/34/34
f 32/32/32 35/35/35 30/30/30
f 30/30/30 35/35/35 33/33/33
f 32/32/32 36/36/36 35/35/35
f 33/33/33 37/37/37 34/34/34
f 34/34/34 37/37/37 38/38/38
f 35/35/35 39/39/39 33/33/33
f 33/33/33 39/39/39 37/37/37
f 36/36/36 40/40/40 35/35/35
f 35/35/35 40/40/40 39/39/39
f 36/36/36 41/41/41 40/40/40
f 37/37/37 42/42/42 38/38/38
f 38/38/38 42/42/42 43/43/43
f 39/39/39 44/44/44 37/37/37
f 37/37/37 44/44/44 42/42/42
f 40/40/40 45/45/45 39/39/39
f 39/39/39 45/45/45 44/44/44
f 41/41/41 46/46/46 40/40/40
f 40/40/40 46/46/46 45/45/45
f 41/41/41 47/47/47 46/46/46
f 47/47/47 48/48/48 46/46/46
f 46/46/46 48/48/48 49/49/49
f 46/46/46 49/49/49 45/45/45
f 48/48/48 50/50/50 49/49/49
f 42/42/42 51/51/51 43/43/43
f 43/43/43 51/51/51 52/52/52
f 51/51/51 53/53/53 52/52/52
f 44/44/44 54/54/54 42/42/42
f 42/42/42 54/54/54 51/51/51
f 45/45/45 55/55/55 44/44/44
f 45/45/45 49/49/49 55/55/55
f 44/44/44 55/55/55 54/54/54
f 49/49/49 50/50/50 56/56/56
f 49/49/49 56/56/56 55/55/55
f 50/50/50 57/57/57 56/56/56
f 51/51/51 58/58/58 53/53/53
f 54/54/54 58/58/58 51/51/51
f 58/58/58 59/59/59 53/53/53
f 55/55/55 60/60/60 54/54/54
f 55/55/55 56/56/56 60/60/60
f 54/54/54 60/60/60 58/58/58
f 56/56/56 57/57/57 61/61/61
f 56/56/56 61/61/61 60/60/60
f 57/57/57 62/62/62 61/61/61
f 58/58/58 63/63/63 59/59/59
f 60/60/60 63/63/63 58/58/58
f 60/60/60 61/61/61 63/63/63
f 63/63/63 64/64/64 59/59/59
f 61/61/61 62/62/62 65/65/65
f 61/61/61 65/65/65 63/63/63
f 63/63/63 65/65/65 64/64/64
f 62/62/62 66/66/66 65/65/65
f 65/65/65 67/67/67 64/64/64
f 65/65/65 66/66/66 67/67/67
f 66/66/66 68/68/68 67/67/67
f 71/71/71 70/70/70 69/69/69
f 72/72/72 71/71/71 69/69/69
f 75/75/75 74/74/74 73/73/73
f 74/74/74 76/76/76 73/73/73
f 76/76/76 77/77/77 73/73/73
f 77/77/77 78/78/78 73/73/73
f 79/79/79 73/73/73 78/78/78
f 80/80/80 79/79/79 78/78/78
f 81/81/81 78/78/78 77/77/77
f 82/82/82 81/81/81 77/77/77
f 85/85/85 84/84/84 83/83/83
f 83/83/83 84/84/84 86/86/86
f 87/87/87 84/84/84 85/85/85
f 86/86/86 84/84/84 88/88/88
f 89/89/89 84/84/84 87/87/87
f 88/88/88 84/84/84 89/89/89
