g fcbg_arkcity_building_28
v 2.1718836 8.893013E-05 1.6548686
v -2.1718864 4.6237936 1.6548686
v 2.1718836 4.6237936 1.6548686
v -2.1718864 8.893013E-05 1.6548686
v -2.1718864 4.1020575 0.33780694
v -2.1718864 8.893013E-05 0.33780694
v -2.1718864 4.1020575 -1.6548722
v -2.1718864 8.893013E-05 -1.6548722
v 0.76276124 4.1020575 -1.6548722
v 2.1718836 8.893013E-05 -1.6548722
v 2.1718836 4.6237936 -1.6548722
v 1.1316522 4.6237936 -1.6548722
v 2.1718836 8.893013E-05 -1.6548722
v 2.1718836 8.893013E-05 1.6548686
v 2.1718836 4.6237936 1.6548686
v 2.1718836 4.6237936 -1.6548722
v -1.9715757 4.6237936 1.3805594
v -2.1718864 4.6237936 1.6548686
v -2.1718864 4.1020575 0.33780694
v 2.1718836 4.6237936 1.6548686
v -2.0649586 4.1020575 0.33759308
v -2.1718864 4.1020575 -1.6548722
v -2.0649586 4.1020575 -1.5219108
v 0.76276124 4.1020575 -1.6548722
v 0.7619122 4.1020575 -1.5219108
v 1.1316522 4.6237936 -1.6548722
v 1.0244911 4.5932426 -0.14474559
v 0.7619122 3.8521295 0.33758664
v 2.1718836 4.6237936 -1.6548722
v 1.2648536 4.276024 0.8070996
v -0.12520862 4.384708 0.82864857
v -1.311739 4.312278 0.2664721
v -0.64978313 3.938435 0.33758664
v -2.0649586 3.8521295 0.33758664
v -2.0649586 3.8521295 -1.5219108
v 0.7619122 3.8521295 -1.5219108
vt 0.9962499 0.2470508
vt 0.9229064 0.18616183
vt 0.9229064 0.2470508
vt 0.9962499 0.18616183
vt 0.9313599 0.16799141
vt 0.9962499 0.16799141
vt 0.9313599 0.1407809
vt 0.9962499 0.1407809
vt 0.9313599 0.09401611
vt 0.9962499 0.07216046
vt 0.92356825 0.07216046
vt 0.92356825 0.087984376
vt 0.9962499 0.1407809
vt 0.9962499 0.16799141
vt 0.9313599 0.16799141
vt 0.9313599 0.1407809
vt 0.8805338 0.14756472
vt 0.8768035 0.15103936
vt 0.8939661 0.15111457
vt 0.8768035 0.06921228
vt 0.8939661 0.14926444
vt 0.92179334 0.15103936
vt 0.9199883 0.14918923
vt 0.92179334 0.1002434
vt 0.9199883 0.10025844
vt 0.92179334 0.08517157
vt 0.9012613 0.087036744
vt 0.8966135 0.10278545
vt 0.92179334 0.06921228
vt 0.88832545 0.09156431
vt 0.8880397 0.11561606
vt 0.89313877 0.13614804
vt 0.89470315 0.124686226
vt 0.8966135 0.14664717
vt 0.9180931 0.14664717
vt 0.9180931 0.10278545
vn 0.70710677 0.00043302774 0.70710665
vn -0.57447475 0.62954265 0.5231202
vn 0.54524034 0.61786157 0.5665334
vn -0.70630413 0.00043302774 0.70790845
vn -0.80309016 0.5828183 -0.12397176
vn -0.9999998 0.00043302774 -0.00041244982
vn -0.57781214 0.57781214 -0.57642543
vn -0.70630413 0.00043302774 -0.70790845
vn -0.25908554 0.4977134 -0.82774156
vn 0.70710677 0.00043302774 -0.70710665
vn 0.57527745 0.58114964 -0.5756048
vn -0.34752804 0.70296663 -0.62053376
vn 0.70710677 0.00043302774 -0.70710665
vn 0.70710677 0.00043302774 0.70710665
vn 0.54524034 0.61786157 0.5665334
vn 0.57527745 0.58114964 -0.5756048
vn -0.14894962 0.9599504 -0.23729578
vn -0.57447475 0.62954265 0.5231202
vn -0.80309016 0.5828183 -0.12397176
vn 0.54524034 0.61786157 0.5665334
vn 0.11637777 0.80142146 -0.58666843
vn -0.57781214 0.57781214 -0.57642543
vn 0.30160636 0.9048825 0.30036858
vn -0.25908554 0.4977134 -0.82774156
vn -0.74969095 0.6011744 0.27668178
vn -0.34752804 0.70296663 -0.62053376
vn -0.58114964 0.80642766 0.10926786
vn -0.39925855 0.8865265 -0.23380196
vn 0.57527745 0.58114964 -0.5756048
vn -0.38590866 0.91990095 -0.069690496
vn 0.06798476 0.85482067 -0.51445085
vn -0.010445356 0.5327566 -0.84620404
vn 0.11804652 0.2457357 -0.96212214
vn 0.57694614 0.57781214 -0.5772922
vn 0.57694614 0.57781214 0.5772922
vn -0.57781214 0.57781214 0.57642543
g fcbg_arkcity_building_28_0
f 3/3/3 2/2/2 1/1/1
f 2/2/2 4/4/4 1/1/1
f 2/2/2 5/5/5 4/4/4
f 4/4/4 5/5/5 6/6/6
f 5/5/5 7/7/7 6/6/6
f 7/7/7 8/8/8 6/6/6
f 7/7/7 9/9/9 8/8/8
f 8/8/8 9/9/9 10/10/10
f 9/9/9 11/11/11 10/10/10
f 9/9/9 12/12/12 11/11/11
f 15/15/15 14/14/14 13/13/13
f 16/16/16 15/15/15 13/13/13
f 19/19/19 18/18/18 17/17/17
f 18/18/18 20/20/20 17/17/17
f 21/21/21 19/19/19 17/17/17
f 19/19/19 21/21/21 22/22/22
f 21/21/21 23/23/23 22/22/22
f 22/22/22 23/23/23 24/24/24
f 23/23/23 25/25/25 24/24/24
f 24/24/24 25/25/25 26/26/26
f 25/25/25 27/27/27 26/26/26
f 28/28/28 27/27/27 25/25/25
f 26/26/26 27/27/27 29/29/29
f 27/27/27 20/20/20 29/29/29
f 30/30/30 20/20/20 27/27/27
f 28/28/28 30/30/30 27/27/27
f 20/20/20 30/30/30 31/31/31
f 17/17/17 20/20/20 31/31/31
f 30/30/30 28/28/28 31/31/31
f 31/31/31 32/32/32 17/17/17
f 21/21/21 17/17/17 32/32/32
f 31/31/31 33/33/33 32/32/32
f 33/33/33 21/21/21 32/32/32
f 28/28/28 33/33/33 31/31/31
f 21/21/21 33/33/33 34/34/34
f 21/21/21 34/34/34 23/23/23
f 33/33/33 28/28/28 34/34/34
f 34/34/34 35/35/35 23/23/23
f 23/23/23 35/35/35 25/25/25
f 34/34/34 28/28/28 35/35/35
f 35/35/35 36/36/36 25/25/25
f 28/28/28 36/36/36 35/35/35
f 25/25/25 36/36/36 28/28/28
