g fcbg_desert_cactus_01
v 0.0010244313 1.3011264 0.07857014
v 0.1691493 0.0028125793 0.1759811
v -0.009008444 0.002812542 0.12824513
v 0.18814582 1.3011264 0.12870926
v 0.29956973 0.0028125793 0.045560665
v 0.020090487 2.4745026 0.31858453
v -0.31231013 2.4465568 0.21931492
v 0.32512778 1.3011264 -0.008273077
v 0.25183266 0.002812542 -0.13259658
v 0.2749889 1.3011261 -0.19539388
v 0.3079785 2.5303953 0.05360445
v 0.20870917 2.5583413 -0.3106458
v -0.00093040196 3.210101 0.34082934
v -0.3501424 3.1987982 0.24604048
v 0.25592217 3.2417245 0.08658934
v 0.17236882 3.2620451 -0.2624407
v 0.053690806 3.5972002 -0.15453039
v 0.112583145 3.596056 0.06893695
v -0.12967175 3.6893458 0.017099243
v -0.05140031 3.58434 0.23221804
v -0.27427512 3.5737715 0.17203377
v 0.2749889 1.3011261 -0.19539388
v 0.07367467 0.0028125122 -0.18033405
v 0.25183266 0.002812542 -0.13259658
v 0.087868 1.3011261 -0.24553235
v 0.20870917 2.5583413 -0.3106458
v -0.056746133 0.0028125048 -0.049913526
v -0.1588819 2.5303953 -0.4097475
v 0.17236882 3.2620451 -0.2624407
v -0.049113728 1.3011261 -0.108550794
v -0.009008444 0.002812542 0.12824513
v 0.0010244313 1.3011264 0.07857014
v -0.31231013 2.4465568 0.21931492
v -0.41157967 2.4745026 -0.14493455
v -0.3501424 3.1987982 0.24604048
v -0.4425023 3.219118 -0.102989785
v -0.27427512 3.5737715 0.17203377
v -0.18564932 3.2507422 -0.35722983
v 0.053690806 3.5972002 -0.15453039
v -0.16918305 3.586631 -0.21471569
v -0.12967175 3.6893458 0.017099243
v -0.33316705 3.5749156 -0.051433645
v 0.051017165 1.5681081 0.08486375
v -0.13469067 1.5964057 0.106259614
v -0.02492708 1.6180537 0.014531553
v -0.07211763 1.5477571 0.2023616
v -0.32174546 1.7528439 0.2289913
v -0.08337268 1.4277393 0.22625056
v 0.08110377 1.4479271 0.07522659
v -0.28247046 1.7340455 0.38873884
v -0.15720034 1.3563689 0.15403739
v 0.035245597 1.3776922 -0.004743427
v -0.38718754 1.6659206 0.4820857
v -0.53117955 1.6165942 0.4156853
v -0.70915073 2.0810494 0.5029943
v -0.36268973 2.1869254 0.44523233
v -0.39976746 2.1968045 0.23771667
v -0.51738083 2.1290479 0.5778711
v -0.5706388 2.4306374 0.52942806
v -0.7040531 2.3972445 0.47733504
v -0.6171566 2.5202875 0.39169607
v -0.4630196 2.4709024 0.4371507
v -0.488815 2.4777756 0.2927819
v -0.070785254 1.5478187 -0.06543845
v -0.02492708 1.6180537 0.014531553
v -0.13469067 1.5964057 0.106259614
v -0.20851898 1.5250359 0.0340451
v -0.32174546 1.7528439 0.2289913
v -0.21977365 1.4050174 0.05793397
v -0.040699154 1.4276378 -0.07507631
v -0.46573806 1.7035176 0.16259056
v -0.15720034 1.3563689 0.15403739
v 0.035245597 1.3776922 -0.004743427
v -0.57045484 1.6353925 0.25593737
v -0.53117955 1.6165942 0.4156853
v -0.70915073 2.0810494 0.5029943
v -0.5915371 2.1488056 0.16284066
v -0.39976746 2.1968045 0.23771667
v -0.488815 2.4777756 0.2927819
v -0.7462282 2.0909266 0.29547858
v -0.6222291 2.4443822 0.24069026
v -0.6171566 2.5202875 0.39169607
v -0.7298479 2.404117 0.33296603
v -0.7040531 2.3972445 0.47733504
v 0.048864126 2.330142 -0.24753678
v 0.3146185 2.484683 -0.25017393
v 0.08192772 2.4047909 -0.17238522
v 0.3226113 2.4278564 -0.39097643
v 0.3436283 2.7639544 -0.28381
v 0.41780186 2.337375 -0.4118513
v 0.046172857 2.1950676 -0.23471373
v 0.39063543 2.7440236 -0.4838904
v 0.5050001 2.3037205 -0.2919258
v 0.07654607 2.1346412 -0.14673935
v 0.58823705 2.7344687 -0.543069
v 0.7388292 2.7448444 -0.40216765
v 0.792444 3.2678077 -0.4649356
v 0.35160688 3.2667687 -0.56840324
v 0.29209182 3.2920024 -0.31508604
v 0.60178316 3.2546713 -0.6433276
v 0.5874615 3.6701093 -0.5989215
v 0.7163203 3.6789875 -0.47835463
v 0.549567 3.8040323 -0.4388128
v 0.41837937 3.6782854 -0.54828316
v 0.3781561 3.6953394 -0.37708062
v 0.11230129 2.344364 -0.084410846
v 0.08192772 2.4047909 -0.17238522
v 0.3146185 2.484683 -0.25017393
v 0.40181637 2.45103 -0.13024831
v 0.49700725 2.3605483 -0.15112369
v 0.10961005 2.2092896 -0.07158795
v 0.49422276 2.7743301 -0.14290623
v 0.3436283 2.7639544 -0.28381
v 0.5050001 2.3037205 -0.2919258
v 0.07654607 2.1346412 -0.14673935
v 0.7388292 2.7448444 -0.40216765
v 0.6918224 2.7647753 -0.20208539
v 0.792444 3.2678077 -0.4649356
v 0.48275286 3.305139 -0.13669394
v 0.29209182 3.2920024 -0.31508604
v 0.3781561 3.6953394 -0.37708062
v 0.7329295 3.2930417 -0.21161877
v 0.5070159 3.7042177 -0.25651377
v 0.549567 3.8040323 -0.4388128
v 0.6760965 3.6960418 -0.30715114
v 0.7163203 3.6789875 -0.47835463
vt 0.4430096 0.053270247
vt 0.43432328 0.003042634
vt 0.44490692 0.003042634
vt 0.43214533 0.053270247
vt 0.42316052 0.003042634
vt 0.44483003 0.1011978
vt 0.4593 0.10018655
vt 0.42042097 0.053270247
vt 0.412577 0.003042634
vt 0.40955648 0.053270247
vt 0.42441854 0.103220545
vt 0.40525064 0.10423168
vt 0.44882524 0.13021326
vt 0.46237907 0.12903738
vt 0.43063134 0.13256498
vt 0.41437054 0.13374093
vt 0.42453134 0.15029204
vt 0.43714726 0.14938492
vt 0.44578242 0.16479203
vt 0.44982362 0.14757073
vt 0.46170664 0.14666378
vt 0.40955648 0.053270247
vt 0.42316052 0.003042634
vt 0.412577 0.003042634
vt 0.42042097 0.053270247
vt 0.40525064 0.10423168
vt 0.43432328 0.003042634
vt 0.42455193 0.103220545
vt 0.41437054 0.13374093
vt 0.43214533 0.053270247
vt 0.44490692 0.003042634
vt 0.4430096 0.053270247
vt 0.4593 0.10018655
vt 0.44483003 0.1011978
vt 0.46237907 0.12903738
vt 0.44882524 0.13021326
vt 0.46170664 0.14666378
vt 0.43063134 0.13256498
vt 0.42453134 0.15029204
vt 0.43714726 0.14938492
vt 0.44578242 0.16479203
vt 0.44982362 0.14757073
vt 0.4747426 0.083170235
vt 0.4811105 0.074403815
vt 0.47932833 0.083170235
vt 0.47731742 0.07254379
vt 0.48898047 0.06802587
vt 0.47287285 0.0698443
vt 0.46934974 0.083170235
vt 0.4898054 0.061883267
vt 0.4674291 0.0674827
vt 0.46328014 0.083170235
vt 0.48963207 0.0548436
vt 0.48876804 0.04866832
vt 0.51368463 0.04562026
vt 0.5110506 0.06266848
vt 0.5092157 0.07236432
vt 0.5125009 0.05319767
vt 0.526168 0.055681523
vt 0.5267807 0.050625976
vt 0.52959335 0.059510943
vt 0.5254291 0.06259804
vt 0.5246061 0.0693373
vt 0.4747426 0.083170235
vt 0.47932833 0.083170235
vt 0.4811105 0.074403815
vt 0.47731742 0.07254379
vt 0.48898047 0.06802587
vt 0.47287285 0.0698443
vt 0.46934974 0.083170235
vt 0.4898054 0.061883267
vt 0.4674291 0.0674827
vt 0.46328014 0.083170235
vt 0.48963207 0.0548436
vt 0.48876804 0.04866832
vt 0.51368463 0.04562026
vt 0.5110506 0.06266848
vt 0.5092157 0.07236432
vt 0.5246061 0.0693373
vt 0.5125009 0.05319767
vt 0.5254291 0.06259804
vt 0.52959335 0.059510943
vt 0.526168 0.055681523
vt 0.5267807 0.050625976
vt 0.52318466 0.0050970423
vt 0.515725 0.016268885
vt 0.5193461 0.0050970423
vt 0.5171429 0.019418037
vt 0.5035907 0.016600823
vt 0.5200654 0.023976302
vt 0.5288433 0.0050970423
vt 0.50304973 0.022796607
vt 0.52317655 0.028854346
vt 0.5351118 0.0050970423
vt 0.50231755 0.031165754
vt 0.501613 0.039219234
vt 0.47916993 0.039948855
vt 0.4812053 0.0191432
vt 0.4820672 0.010553217
vt 0.48025855 0.029964482
vt 0.46296984 0.026768958
vt 0.46187288 0.034171198
vt 0.45372516 0.022252774
vt 0.46365362 0.018952643
vt 0.4630857 0.013470029
vt 0.52318466 0.0050970423
vt 0.5193461 0.0050970423
vt 0.515725 0.016268885
vt 0.5171429 0.019418037
vt 0.5200654 0.023976242
vt 0.5288433 0.0050970423
vt 0.50304973 0.022796607
vt 0.5035907 0.016600823
vt 0.52317655 0.028854346
vt 0.5351118 0.0050970423
vt 0.501613 0.039219234
vt 0.50231755 0.031165814
vt 0.47916993 0.039948855
vt 0.4812053 0.0191432
vt 0.4820672 0.010553217
vt 0.4630857 0.013470029
vt 0.48025855 0.029964482
vt 0.46365362 0.018952703
vt 0.45372516 0.022252774
vt 0.46296984 0.026768958
vt 0.46187288 0.034171198
vn -0.69422954 -0.12476973 0.70885676
vn 0.25155538 0.0315403 0.96732885
vn -0.7019323 0.032646798 0.71149516
vn 0.28234363 -0.042117093 0.9583883
vn 0.9620672 -0.0076313093 0.27270606
vn 0.22175698 -0.07308354 0.9723593
vn -0.7113168 -0.16558619 0.6830882
vn 0.96839046 -0.002916111 0.24942215
vn 0.7112768 -0.04660981 -0.70136493
vn 0.71645874 -0.03561011 -0.69671994
vn 0.96179295 0.02502358 0.27263203
vn 0.69649637 0.031142924 -0.7168842
vn 0.23983867 0.13352028 0.96158713
vn -0.70892596 0.10032883 0.6981104
vn 0.9373796 0.20702358 0.28010848
vn 0.6922145 0.25126755 -0.67653805
vn 0.513972 0.6833301 -0.5185487
vn 0.71557236 0.6589423 0.2318434
vn -0.07892689 0.99639773 0.031015767
vn 0.17256112 0.60134655 0.7801314
vn -0.5874334 0.56559294 0.5788148
vn 0.71645874 -0.03561011 -0.69671994
vn -0.26592755 -0.045448612 -0.962921
vn 0.7112768 -0.04660981 -0.70136493
vn -0.22390151 -0.10978869 -0.9684083
vn 0.69649637 0.031142924 -0.7168842
vn -0.96953803 -0.0053604953 -0.24488206
vn -0.27280107 -0.057061654 -0.9603768
vn 0.6922145 0.25126755 -0.67653805
vn -0.94808483 -0.15823668 -0.27585557
vn -0.7019323 0.032646798 0.71149516
vn -0.69422954 -0.12476973 0.70885676
vn -0.7113168 -0.16558619 0.6830882
vn -0.9522429 -0.15602404 -0.26246893
vn -0.70892596 0.10032883 0.6981104
vn -0.959305 0.13927792 -0.24563295
vn -0.5874334 0.56559294 0.5788148
vn -0.26655665 0.2162587 -0.9392442
vn 0.513972 0.6833301 -0.5185487
vn -0.23118931 0.6447541 -0.7285902
vn -0.07892689 0.99639773 0.031015767
vn -0.78805333 0.58728737 -0.18456858
vn 0.50452393 0.5627924 0.6547675
vn 0.14436585 0.95990086 -0.24030983
vn -0.15385555 0.9880795 -0.005241976
vn 0.66607577 0.4666143 0.5819057
vn 0.6180515 0.5332797 -0.57760286
vn 0.4690257 -0.48879218 0.73559296
vn 0.6278673 -0.4495388 0.6353719
vn 0.8563556 0.24352151 0.45535952
vn -0.09557635 -0.97327405 0.20881292
vn 0.1453866 -0.9892908 0.0129092485
vn 0.21153866 -0.33943462 0.91653454
vn -0.554905 -0.6403095 0.5311159
vn -0.7583744 -0.16778022 0.6298556
vn 0.90588075 0.22016332 0.36181244
vn 0.7305505 0.25233978 -0.63452387
vn 0.13715 0.0075269057 0.9905218
vn 0.02839505 0.48596627 0.87351614
vn -0.7444649 0.3469809 0.5704177
vn -0.2665137 0.95963013 0.08989041
vn 0.66837597 0.66079634 0.34149918
vn 0.5208501 0.69147587 -0.5005759
vn -0.59567755 0.39066136 -0.70182043
vn -0.15385555 0.9880795 -0.005241976
vn 0.14436585 0.95990086 -0.24030983
vn -0.46614498 0.28063068 -0.8390205
vn 0.6180515 0.5332797 -0.57760286
vn -0.5416235 -0.65745175 -0.5238332
vn -0.42509085 -0.61563295 -0.66354644
vn -0.2793453 0.053284273 -0.9587111
vn -0.09557635 -0.97327405 0.20881292
vn 0.1453866 -0.9892908 0.0129092485
vn -0.7957044 -0.5028438 -0.33764288
vn -0.554905 -0.6403095 0.5311159
vn -0.7583744 -0.16778022 0.6298556
vn -0.20001483 0.0886074 -0.9757781
vn 0.7305505 0.25233978 -0.63452387
vn 0.5208501 0.69147587 -0.5005759
vn -0.9362129 -0.12390204 -0.3288671
vn -0.26672083 0.54443514 -0.7952674
vn -0.2665137 0.95963013 0.08989041
vn -0.8918848 0.37472612 -0.25322273
vn -0.7444649 0.3469809 0.5704177
vn -0.49509582 0.29512438 -0.8171791
vn -0.7598285 0.6244756 0.18080595
vn -0.37278894 0.92764884 0.022271287
vn -0.6055929 0.08381485 -0.7913484
vn -0.9568016 0.052153476 0.28602576
vn 0.10377943 -0.546752 -0.8308382
vn -0.07781836 -0.66749537 -0.7405364
vn -0.7122286 -0.11472397 -0.69250906
vn 0.63857967 -0.75831836 -0.13103163
vn 0.32093823 -0.9459606 -0.046445254
vn 0.25681478 -0.29898694 -0.91905004
vn 0.91881055 -0.3036714 -0.2521325
vn 0.9563812 0.014050899 -0.29178345
vn -0.7288553 -0.008618524 -0.68461347
vn -0.95563143 0.0815147 0.28306156
vn 0.2268774 -0.042435884 -0.9729984
vn 0.20436616 0.4259857 -0.8813459
vn 0.8315772 0.47091907 -0.2944735
vn 0.01983176 0.9953282 -0.094490714
vn -0.6191322 0.46237707 -0.6347304
vn -0.81523156 0.5437526 0.19932544
vn 0.015037128 0.45419323 0.89077634
vn -0.37278894 0.92764884 0.022271287
vn -0.7598285 0.6244756 0.18080595
vn -0.07310091 0.23718931 0.9687092
vn 0.57314163 -0.41186097 0.7084343
vn 0.38377255 -0.5580925 0.7356979
vn -0.20467706 0.03377415 0.9782468
vn -0.9568016 0.052153476 0.28602576
vn 0.63857967 -0.75831836 -0.13103163
vn 0.32093823 -0.9459606 -0.046445254
vn 0.91881055 -0.3036714 -0.2521325
vn 0.7359462 -0.15880425 0.6581523
vn 0.9563812 0.014050899 -0.29178345
vn -0.22808576 0.13789503 0.9638266
vn -0.95563143 0.0815147 0.28306156
vn -0.81523156 0.5437526 0.19932544
vn 0.72823095 0.10424727 0.67735684
vn -0.18743235 0.5886816 0.7863352
vn 0.01983176 0.9953282 -0.094490714
vn 0.6358886 0.55223906 0.53914535
vn 0.8315772 0.47091907 -0.2944735
g fcbg_desert_cactus_01_0
f 3/3/3 2/2/2 1/1/1
f 2/2/2 4/4/4 1/1/1
f 2/2/2 5/5/5 4/4/4
f 4/4/4 6/6/6 1/1/1
f 6/6/6 7/7/7 1/1/1
f 5/5/5 8/8/8 4/4/4
f 6/6/6 4/4/4 8/8/8
f 5/5/5 9/9/9 8/8/8
f 9/9/9 10/10/10 8/8/8
f 11/11/11 8/8/8 10/10/10
f 11/11/11 6/6/6 8/8/8
f 12/12/12 11/11/11 10/10/10
f 7/7/7 6/6/6 13/13/13
f 13/13/13 6/6/6 11/11/11
f 14/14/14 7/7/7 13/13/13
f 15/15/15 11/11/11 12/12/12
f 15/15/15 13/13/13 11/11/11
f 16/16/16 15/15/15 12/12/12
f 15/15/15 16/16/16 17/17/17
f 18/18/18 15/15/15 17/17/17
f 13/13/13 15/15/15 18/18/18
f 17/17/17 19/19/19 18/18/18
f 14/14/14 13/13/13 20/20/20
f 20/20/20 13/13/13 18/18/18
f 18/18/18 19/19/19 20/20/20
f 21/21/21 14/14/14 20/20/20
f 20/20/20 19/19/19 21/21/21
f 24/24/24 23/23/23 22/22/22
f 23/23/23 25/25/25 22/22/22
f 26/26/26 22/22/22 25/25/25
f 23/23/23 27/27/27 25/25/25
f 28/28/28 26/26/26 25/25/25
f 29/29/29 26/26/26 28/28/28
f 27/27/27 30/30/30 25/25/25
f 27/27/27 31/31/31 30/30/30
f 31/31/31 32/32/32 30/30/30
f 32/32/32 33/33/33 30/30/30
f 30/30/30 34/34/34 25/25/25
f 33/33/33 34/34/34 30/30/30
f 34/34/34 28/28/28 25/25/25
f 34/34/34 33/33/33 35/35/35
f 36/36/36 34/34/34 35/35/35
f 28/28/28 34/34/34 36/36/36
f 36/36/36 35/35/35 37/37/37
f 38/38/38 29/29/29 28/28/28
f 38/38/38 28/28/28 36/36/36
f 39/39/39 29/29/29 38/38/38
f 40/40/40 39/39/39 38/38/38
f 40/40/40 38/38/38 36/36/36
f 40/40/40 41/41/41 39/39/39
f 37/37/37 41/41/41 42/42/42
f 42/42/42 36/36/36 37/37/37
f 42/42/42 41/41/41 40/40/40
f 42/42/42 40/40/40 36/36/36
f 45/45/45 44/44/44 43/43/43
f 44/44/44 46/46/46 43/43/43
f 46/46/46 44/44/44 47/47/47
f 46/46/46 48/48/48 43/43/43
f 48/48/48 49/49/49 43/43/43
f 50/50/50 46/46/46 47/47/47
f 48/48/48 46/46/46 50/50/50
f 48/48/48 51/51/51 49/49/49
f 51/51/51 52/52/52 49/49/49
f 51/51/51 48/48/48 53/53/53
f 53/53/53 48/48/48 50/50/50
f 54/54/54 51/51/51 53/53/53
f 55/55/55 54/54/54 53/53/53
f 56/56/56 50/50/50 47/47/47
f 57/57/57 56/56/56 47/47/47
f 58/58/58 53/53/53 50/50/50
f 58/58/58 55/55/55 53/53/53
f 56/56/56 58/58/58 50/50/50
f 58/58/58 59/59/59 55/55/55
f 59/59/59 58/58/58 56/56/56
f 59/59/59 60/60/60 55/55/55
f 61/61/61 60/60/60 59/59/59
f 62/62/62 56/56/56 57/57/57
f 62/62/62 59/59/59 56/56/56
f 61/61/61 59/59/59 62/62/62
f 63/63/63 62/62/62 57/57/57
f 61/61/61 62/62/62 63/63/63
f 66/66/66 65/65/65 64/64/64
f 67/67/67 66/66/66 64/64/64
f 68/68/68 66/66/66 67/67/67
f 69/69/69 67/67/67 64/64/64
f 70/70/70 69/69/69 64/64/64
f 71/71/71 68/68/68 67/67/67
f 71/71/71 67/67/67 69/69/69
f 72/72/72 69/69/69 70/70/70
f 73/73/73 72/72/72 70/70/70
f 74/74/74 69/69/69 72/72/72
f 74/74/74 71/71/71 69/69/69
f 75/75/75 74/74/74 72/72/72
f 74/74/74 75/75/75 76/76/76
f 68/68/68 71/71/71 77/77/77
f 78/78/78 68/68/68 77/77/77
f 79/79/79 78/78/78 77/77/77
f 71/71/71 74/74/74 80/80/80
f 80/80/80 74/74/74 76/76/76
f 77/77/77 71/71/71 80/80/80
f 81/81/81 79/79/79 77/77/77
f 81/81/81 77/77/77 80/80/80
f 82/82/82 79/79/79 81/81/81
f 83/83/83 80/80/80 76/76/76
f 83/83/83 81/81/81 80/80/80
f 82/82/82 81/81/81 83/83/83
f 84/84/84 83/83/83 76/76/76
f 82/82/82 83/83/83 84/84/84
f 87/87/87 86/86/86 85/85/85
f 86/86/86 88/88/88 85/85/85
f 88/88/88 86/86/86 89/89/89
f 88/88/88 90/90/90 85/85/85
f 90/90/90 91/91/91 85/85/85
f 92/92/92 88/88/88 89/89/89
f 90/90/90 88/88/88 92/92/92
f 90/90/90 93/93/93 91/91/91
f 93/93/93 94/94/94 91/91/91
f 93/93/93 90/90/90 95/95/95
f 95/95/95 90/90/90 92/92/92
f 96/96/96 93/93/93 95/95/95
f 97/97/97 96/96/96 95/95/95
f 98/98/98 92/92/92 89/89/89
f 99/99/99 98/98/98 89/89/89
f 100/100/100 95/95/95 92/92/92
f 100/100/100 97/97/97 95/95/95
f 98/98/98 100/100/100 92/92/92
f 100/100/100 101/101/101 97/97/97
f 101/101/101 100/100/100 98/98/98
f 101/101/101 102/102/102 97/97/97
f 103/103/103 102/102/102 101/101/101
f 104/104/104 98/98/98 99/99/99
f 104/104/104 101/101/101 98/98/98
f 103/103/103 101/101/101 104/104/104
f 105/105/105 104/104/104 99/99/99
f 103/103/103 104/104/104 105/105/105
f 108/108/108 107/107/107 106/106/106
f 109/109/109 108/108/108 106/106/106
f 110/110/110 109/109/109 106/106/106
f 111/111/111 110/110/110 106/106/106
f 108/108/108 109/109/109 112/112/112
f 113/113/113 108/108/108 112/112/112
f 114/114/114 110/110/110 111/111/111
f 115/115/115 114/114/114 111/111/111
f 110/110/110 114/114/114 116/116/116
f 109/109/109 110/110/110 117/117/117
f 117/117/117 110/110/110 116/116/116
f 112/112/112 109/109/109 117/117/117
f 117/117/117 116/116/116 118/118/118
f 113/113/113 112/112/112 119/119/119
f 120/120/120 113/113/113 119/119/119
f 121/121/121 120/120/120 119/119/119
f 112/112/112 117/117/117 122/122/122
f 122/122/122 117/117/117 118/118/118
f 119/119/119 112/112/112 122/122/122
f 123/123/123 121/121/121 119/119/119
f 123/123/123 119/119/119 122/122/122
f 124/124/124 121/121/121 123/123/123
f 125/125/125 122/122/122 118/118/118
f 125/125/125 123/123/123 122/122/122
f 124/124/124 123/123/123 125/125/125
f 126/126/126 125/125/125 118/118/118
f 124/124/124 125/125/125 126/126/126
