g fcbg_cityforest_factory_0005
v -0.83950806 0.004597187 0.27277386
v -0.34664917 10.4282465 0.47710478
v -0.51882935 0.004597187 0.7141191
v -0.56085205 10.4282465 0.18223643
v -0.83950806 0.00459671 -0.2727735
v -0 10.428246 7.1525574E-07
v -0.56085205 10.4282465 -0.18224263
v -0 10.4282465 0.58973753
v -0.51882935 0.0045969486 -0.7141187
v -0 0.004597187 0.8826982
v -0.34664917 10.4282465 -0.4771111
v -0 0.0045974255 -0.8826978
v 0.34664917 10.4282465 0.47710478
v 0.51885986 0.004597187 0.7141191
v -0 10.4282465 -0.5897362
v 0.51885986 0.0045969486 -0.7141187
v 0.56088257 10.4282465 0.18223643
v 0.83950806 0.004597187 0.27277386
v 0.34664917 10.4282465 -0.4771111
v 0.83950806 0.00459671 -0.2727735
v 0.56088257 10.4282465 -0.18224263
vt 0.8314961 0.2702625
vt 0.8468865 0.47946838
vt 0.84383786 0.26988235
vt 0.83989155 0.47786614
vt 0.81914747 0.2709373
vt 0.83748496 0.49267402
vt 0.8333045 0.47827986
vt 0.8528875 0.480678
vt 0.8068112 0.27190062
vt 0.8550638 0.269797
vt 0.8266145 0.48071954
vt 0.7945124 0.2731569
vt 0.8468865 0.47946838
vt 0.84383786 0.26988235
vt 0.8214117 0.48490968
vt 0.8068112 0.27190062
vt 0.83989155 0.47786614
vt 0.8314961 0.2702625
vt 0.8266145 0.48071954
vt 0.81914747 0.2709373
vt 0.8333045 0.47827986
vn -0.95068234 0.02809646 0.30889106
vn -0.44456798 0.6541797 0.61188906
vn -0.5875566 0.028094785 0.8086952
vn -0.7193055 0.6542 0.23371334
vn -0.95068234 0.028096266 -0.30889103
vn -0 1 0
vn -0.7193056 0.6541999 -0.23371337
vn -0 0.6541893 0.7563308
vn -0.5875536 0.028094487 -0.80869746
vn -0 0.02809441 0.99960536
vn -0.44456685 0.65417707 -0.61189276
vn -0 0.028094064 -0.99960536
vn 0.44455904 0.65419024 0.61188424
vn 0.5875527 0.02809507 0.808698
vn -0 0.65419406 -0.7563268
vn 0.5875496 0.02809477 -0.80870014
vn 0.7193141 0.6541895 0.2337161
vn 0.9506822 0.028094921 0.30889133
vn 0.44455785 0.65418774 -0.6118879
vn 0.95068234 0.028094728 -0.30889133
vn 0.7193141 0.6541895 -0.23371617
g fcbg_cityforest_factory_0005_0
f 3/3/3 2/2/2 1/1/1
f 2/2/2 4/4/4 1/1/1
f 1/1/1 4/4/4 5/5/5
f 2/2/2 6/6/6 4/4/4
f 4/4/4 6/6/6 7/7/7
f 4/4/4 7/7/7 5/5/5
f 8/8/8 6/6/6 2/2/2
f 8/8/8 2/2/2 3/3/3
f 5/5/5 7/7/7 9/9/9
f 10/10/10 8/8/8 3/3/3
f 7/7/7 11/11/11 9/9/9
f 7/7/7 6/6/6 11/11/11
f 9/9/9 11/11/11 12/12/12
f 13/13/13 8/8/8 10/10/10
f 13/13/13 6/6/6 8/8/8
f 14/14/14 13/13/13 10/10/10
f 11/11/11 15/15/15 12/12/12
f 11/11/11 6/6/6 15/15/15
f 12/12/12 15/15/15 16/16/16
f 17/17/17 13/13/13 14/14/14
f 17/17/17 6/6/6 13/13/13
f 18/18/18 17/17/17 14/14/14
f 15/15/15 19/19/19 16/16/16
f 15/15/15 6/6/6 19/19/19
f 16/16/16 19/19/19 20/20/20
f 21/21/21 17/17/17 18/18/18
f 21/21/21 6/6/6 17/17/17
f 20/20/20 21/21/21 18/18/18
f 19/19/19 21/21/21 20/20/20
f 19/19/19 6/6/6 21/21/21
