g fcbg_cityforestcrystal_003_unilityploe_02
v -0.31611943 18.997114 -0.31663132
v 0.0005056858 18.997114 -0.44777578
v 0.0005056858 19.12386 -6.198883E-06
v -0.44726384 18.997114 -6.198883E-06
v 0.0005056858 19.12386 -6.198883E-06
v -0.31611943 18.997114 0.3166188
v 0.0005056858 18.997114 0.4477824
v 0.0005056858 19.12386 -6.198883E-06
v 0.31713068 18.997114 0.3166188
v 0.0005056858 19.12386 -6.198883E-06
v 0.0005056858 18.997114 -0.44777578
v 0.31713068 18.997114 -0.31663132
v -0.31611943 18.997114 -0.31663132
v 0.0005056858 19.12386 -6.198883E-06
v -0.44726384 18.997114 -6.198883E-06
v -0.31611943 18.997114 0.3166188
v 0.0005056858 19.12386 -6.198883E-06
v 0.0005056858 18.997114 0.4477824
v 0.31713068 18.997114 0.3166188
v 0.0005056858 19.12386 -6.198883E-06
v 0.44827515 18.997114 -6.198883E-06
v 0.0005056858 19.12386 -6.198883E-06
v 0.31713068 18.997114 -0.31663132
v 0.44827515 18.997114 -6.198883E-06
v -0.8050108 17.71715 -0.31165677
v -0.5777552 17.630718 -0.301746
v -0.8149408 17.630718 -0.08440119
v -0.5777552 17.630718 -0.301746
v -0.8050108 17.71715 -0.31165677
v -0.7950809 17.630718 -0.5389123
v -0.7950809 17.630718 -0.5389123
v -0.8050108 17.71715 -0.31165677
v -1.0322663 17.630718 -0.32158667
v -1.0322663 17.630718 -0.32158667
v -0.8050108 17.71715 -0.31165677
v -0.8149408 17.630718 -0.08440119
v -0.31611943 18.997114 0.3166188
v -0.31611943 -6.198883E-06 0.3166188
v -0.44726384 -6.198883E-06 -6.198883E-06
v -0.44726384 18.997114 -6.198883E-06
v 0.0005056858 18.997114 0.4477824
v 0.0005056858 -6.198883E-06 0.4477824
v -0.31611943 -6.198883E-06 0.3166188
v -0.31611943 18.997114 0.3166188
v 0.31713068 18.997114 0.3166188
v 0.31713068 -6.198883E-06 0.3166188
v 0.0005056858 -6.198883E-06 0.4477824
v 0.0005056858 18.997114 0.4477824
v 0.44827515 18.997114 -6.198883E-06
v 0.44827515 -6.198883E-06 -6.198883E-06
v 0.31713068 -6.198883E-06 0.3166188
v 0.31713068 18.997114 0.3166188
v 0.31713068 18.997114 -0.31663132
v 0.31713068 -6.198883E-06 -0.31663132
v 0.44827515 -6.198883E-06 -6.198883E-06
v 0.44827515 18.997114 -6.198883E-06
v 0.0005056858 18.997114 -0.44777578
v 0.0005056858 -6.198883E-06 -0.44777578
v 0.31713068 -6.198883E-06 -0.31663132
v 0.31713068 18.997114 -0.31663132
v -0.31611943 18.997114 -0.31663132
v -0.31611943 -6.198883E-06 -0.31663132
v 0.0005056858 -6.198883E-06 -0.44777578
v 0.0005056858 18.997114 -0.44777578
v -0.44726384 18.997114 -6.198883E-06
v -0.44726384 -6.198883E-06 -6.198883E-06
v -0.31611943 -6.198883E-06 -0.31663132
v -0.31611943 18.997114 -0.31663132
v -0.3197111 17.228508 -0.13860297
v -0.3197111 15.419165 -0.13860297
v -0.68312407 15.419165 0.19442475
v -0.68312407 17.228508 0.19440556
v -0.2982186 17.228508 -0.6310476
v -0.2982186 15.419165 -0.6310476
v -0.3197111 15.419165 -0.13860297
v -0.3197111 17.228508 -0.13860297
v -0.63122714 17.228508 -0.9944798
v -0.63122714 15.419165 -0.9944798
v -0.2982186 15.419165 -0.6310476
v -0.2982186 17.228508 -0.6310476
v -1.1236719 17.228508 -1.0159723
v -1.1236719 15.419165 -1.0159723
v -0.63122714 15.419165 -0.9944798
v -0.63122714 17.228508 -0.9944798
v -1.487104 17.228508 -0.6829637
v -1.487104 15.419165 -0.6829637
v -1.1236719 15.419165 -1.0159723
v -1.1236719 17.228508 -1.0159723
v -1.5085965 17.228508 -0.1904999
v -1.5085965 15.419165 -0.1904999
v -1.487104 15.419165 -0.6829637
v -1.487104 17.228508 -0.6829637
v -1.175588 17.228508 0.17291307
v -1.175588 15.419165 0.17291307
v -1.5085965 15.419165 -0.1904999
v -1.5085965 17.228508 -0.1904999
v -0.68312407 17.228508 0.19440556
v -0.68312407 15.419165 0.19442475
v -1.175588 15.419165 0.17291307
v -1.175588 17.228508 0.17291307
v -0.8149408 17.228508 -0.08440119
v -0.8149408 17.630718 -0.08440119
v -0.5777552 17.630718 -0.301746
v -0.5777552 17.228508 -0.301746
v -0.5777552 17.228508 -0.301746
v -0.5777552 17.630718 -0.301746
v -0.7950809 17.630718 -0.5389123
v -0.7950809 17.228508 -0.5389123
v -0.7950809 17.228508 -0.5389123
v -0.7950809 17.630718 -0.5389123
v -1.0322663 17.630718 -0.32158667
v -1.0322663 17.228508 -0.32158667
v -1.0322663 17.228508 -0.32158667
v -1.0322663 17.630718 -0.32158667
v -0.8149408 17.630718 -0.08440119
v -0.8149408 17.228508 -0.08440119
v -1.5085965 17.228508 -0.1904999
v -0.8149408 17.228508 -0.08440119
v -1.175588 17.228508 0.17291307
v -0.68312407 17.228508 0.19440556
v -1.0322663 17.228508 -0.32158667
v -1.487104 17.228508 -0.6829637
v -1.1236719 17.228508 -1.0159723
v -0.5777552 17.228508 -0.301746
v -0.3197111 17.228508 -0.13860297
v -0.2982186 17.228508 -0.6310476
v -0.7950809 17.228508 -0.5389123
v -0.63122714 17.228508 -0.9944798
vt 0.76675004 0.18223181
vt 0.7592937 0.17886885
vt 0.7592937 0.19035774
vt 0.76985437 0.19035774
vt 0.7592937 0.19035774
vt 0.76675004 0.19846843
vt 0.7592937 0.20183142
vt 0.7592937 0.19035774
vt 0.7518221 0.19846843
vt 0.7592937 0.19035774
vt 0.7592937 0.17886885
vt 0.7518221 0.18223181
vt 0.76675004 0.18223181
vt 0.7592937 0.19035774
vt 0.76985437 0.19035774
vt 0.76675004 0.19846843
vt 0.7592937 0.19035774
vt 0.7592937 0.20183142
vt 0.7518221 0.19846843
vt 0.7592937 0.19035774
vt 0.74873304 0.19035774
vt 0.7592937 0.19035774
vt 0.7518221 0.18223181
vt 0.74873304 0.19035774
vt 0.6618892 0.33866334
vt 0.6683565 0.33103958
vt 0.6683565 0.34595233
vt 0.6683565 0.33103958
vt 0.6618892 0.33866334
vt 0.654935 0.33103958
vt 0.654935 0.33103958
vt 0.6618892 0.33866334
vt 0.654935 0.34595233
vt 0.654935 0.34595233
vt 0.6618892 0.33866334
vt 0.6683565 0.34595233
vt 0.6642022 0.2614367
vt 0.91278833 0.2614367
vt 0.91278833 0.26906043
vt 0.6642022 0.26906043
vt 0.6642022 0.25382817
vt 0.91278833 0.25382817
vt 0.91278833 0.2614367
vt 0.6642022 0.2614367
vt 0.6642022 0.2462044
vt 0.91278833 0.2462044
vt 0.91278833 0.25382817
vt 0.6642022 0.25382817
vt 0.6642022 0.23848934
vt 0.91278833 0.23848934
vt 0.91278833 0.2462044
vt 0.6642022 0.2462044
vt 0.6642022 0.22984605
vt 0.91278833 0.22984605
vt 0.91278833 0.23848934
vt 0.6642022 0.23848934
vt 0.6642022 0.22255707
vt 0.91278833 0.22255707
vt 0.91278833 0.22984605
vt 0.6642022 0.22984605
vt 0.6642022 0.21459854
vt 0.91278833 0.21459854
vt 0.91278833 0.22255707
vt 0.6642022 0.22255707
vt 0.6642022 0.20615306
vt 0.91278833 0.20615306
vt 0.91278833 0.21459854
vt 0.6642022 0.21459854
vt 0.5930928 0.42281377
vt 0.5930928 0.36877793
vt 0.6057686 0.36877793
vt 0.6057686 0.42281377
vt 0.6057686 0.42281377
vt 0.6057686 0.36877793
vt 0.5930928 0.36877793
vt 0.5930928 0.42281377
vt 0.61844444 0.42281377
vt 0.61844444 0.36877793
vt 0.6057686 0.36877793
vt 0.6057686 0.42281377
vt 0.63112026 0.42281377
vt 0.63112026 0.36877793
vt 0.61844444 0.36877793
vt 0.61844444 0.42281377
vt 0.6437809 0.42281377
vt 0.6437809 0.36877793
vt 0.63112026 0.36877793
vt 0.63112026 0.42281377
vt 0.63112026 0.42281377
vt 0.63112026 0.36877793
vt 0.6437809 0.36877793
vt 0.6437809 0.42281377
vt 0.61844444 0.42281377
vt 0.61844444 0.36877793
vt 0.63112026 0.36877793
vt 0.63112026 0.42281377
vt 0.6057686 0.42281377
vt 0.6057686 0.36877793
vt 0.61844444 0.36877793
vt 0.61844444 0.42281377
vt 0.64181787 0.31280953
vt 0.64181787 0.33103958
vt 0.654935 0.33103958
vt 0.654935 0.31280953
vt 0.6683565 0.31280953
vt 0.6683565 0.33103958
vt 0.654935 0.33103958
vt 0.654935 0.31280953
vt 0.654935 0.31280953
vt 0.654935 0.33103958
vt 0.64181787 0.33103958
vt 0.64181787 0.31280953
vt 0.654935 0.31280953
vt 0.654935 0.33103958
vt 0.6683565 0.33103958
vt 0.6683565 0.31280953
vt 0.65205896 0.35648254
vt 0.63687235 0.3583999
vt 0.64442 0.36479107
vt 0.6336311 0.36479107
vt 0.6418483 0.3529826
vt 0.65205896 0.34475017
vt 0.64442 0.33644164
vt 0.6318811 0.3529826
vt 0.6259921 0.35648254
vt 0.6259921 0.34475017
vt 0.63687235 0.34756532
vt 0.6336311 0.33644164
vn -0.11283678 0.9570096 -0.26720867
vn -0.11283678 0.9570096 -0.26720867
vn -0.11283678 0.9570096 -0.26720867
vn -0.27111918 0.9570096 0.1030872
vn -0.27111918 0.9570096 0.1030872
vn -0.27111918 0.9570096 0.1030872
vn 0.11188513 0.9570096 0.26760852
vn 0.11188513 0.9570096 0.26760852
vn 0.11188513 0.9570096 0.26760852
vn 0.11188513 0.9570096 -0.26760852
vn 0.11188513 0.9570096 -0.26760852
vn 0.11188513 0.9570096 -0.26760852
vn -0.27111918 0.9570096 -0.1030872
vn -0.27111918 0.9570096 -0.1030872
vn -0.27111918 0.9570096 -0.1030872
vn -0.11283678 0.9570096 0.26720867
vn -0.11283678 0.9570096 0.26720867
vn -0.11283678 0.9570096 0.26720867
vn 0.27016753 0.9570096 0.10555631
vn 0.27016753 0.9570096 0.10555631
vn 0.27016753 0.9570096 0.10555631
vn 0.27016753 0.9570096 -0.10555631
vn 0.27016753 0.9570096 -0.10555631
vn 0.27016753 0.9570096 -0.10555631
vn 0.31902015 0.8807996 0.34988317
vn 0.31902015 0.8807996 0.34988317
vn 0.31902015 0.8807996 0.34988317
vn 0.3483317 0.8807996 -0.32071343
vn 0.3483317 0.8807996 -0.32071343
vn 0.3483317 0.8807996 -0.32071343
vn -0.31997186 0.8807996 -0.349013
vn -0.31997186 0.8807996 -0.349013
vn -0.31997186 0.8807996 -0.349013
vn -0.3492834 0.8807996 0.31967667
vn -0.3492834 0.8807996 0.31967667
vn -0.3492834 0.8807996 0.31967667
vn -0.9237899 -0.00050121546 0.38289934
vn -0.9237899 -0.00050121546 0.38289934
vn -0.9237899 -0.00050121546 0.38289934
vn -0.9237899 -0.00050121546 0.38289934
vn -0.3825031 -0.00050121546 0.92395407
vn -0.3825031 -0.00050121546 0.92395407
vn -0.3825031 -0.00050121546 0.92395407
vn -0.3825031 -0.00050121546 0.92395407
vn 0.38350558 -0.00050121546 0.92353845
vn 0.38350558 -0.00050121546 0.92353845
vn 0.38350558 -0.00050121546 0.92353845
vn 0.38350558 -0.00050121546 0.92353845
vn 0.92479235 -0.00050121546 0.3804719
vn 0.92479235 -0.00050121546 0.3804719
vn 0.92479235 -0.00050121546 0.3804719
vn 0.92479235 -0.00050121546 0.3804719
vn 0.92479235 -0.00050121546 -0.3804719
vn 0.92479235 -0.00050121546 -0.3804719
vn 0.92479235 -0.00050121546 -0.3804719
vn 0.92479235 -0.00050121546 -0.3804719
vn 0.38350558 -0.00050121546 -0.92353845
vn 0.38350558 -0.00050121546 -0.92353845
vn 0.38350558 -0.00050121546 -0.92353845
vn 0.38350558 -0.00050121546 -0.92353845
vn -0.3825031 -0.00050121546 -0.92395407
vn -0.3825031 -0.00050121546 -0.92395407
vn -0.3825031 -0.00050121546 -0.92395407
vn -0.3825031 -0.00050121546 -0.92395407
vn -0.9237899 -0.00050121546 -0.38289934
vn -0.9237899 -0.00050121546 -0.38289934
vn -0.9237899 -0.00050121546 -0.38289934
vn -0.9237899 -0.00050121546 -0.38289934
vn 0.67466706 -0.00050121546 0.73812205
vn 0.67466706 -0.00050121546 0.73812205
vn 0.67466706 -0.00050121546 0.73812205
vn 0.67466706 -0.00050121546 0.73812205
vn 0.9990483 -0.00050121546 0.043615013
vn 0.9990483 -0.00050121546 0.043615013
vn 0.9990483 -0.00050121546 0.043615013
vn 0.9990483 -0.00050121546 0.043615013
vn 0.73719835 -0.00050121546 -0.6756762
vn 0.73719835 -0.00050121546 -0.6756762
vn 0.73719835 -0.00050121546 -0.6756762
vn 0.73719835 -0.00050121546 -0.6756762
vn 0.043491542 -0.00050121546 -0.99905366
vn 0.043491542 -0.00050121546 -0.99905366
vn 0.043491542 -0.00050121546 -0.99905366
vn 0.043491542 -0.00050121546 -0.99905366
vn -0.6756187 -0.00050121546 -0.7372511
vn -0.6756187 -0.00050121546 -0.7372511
vn -0.6756187 -0.00050121546 -0.7372511
vn -0.6756187 -0.00050121546 -0.7372511
vn -0.99999994 -0.00050121546 -0
vn -0.99999994 -0.00050121546 -0
vn -0.99999994 -0.00050121546 -0
vn -0.99999994 -0.00050121546 -0
vn -0.73815006 -0.00050121546 0.6746364
vn -0.73815006 -0.00050121546 0.6746364
vn -0.73815006 -0.00050121546 0.6746364
vn -0.73815006 -0.00050121546 0.6746364
vn -0.04444319 -0.00050121546 0.9990118
vn -0.04444319 -0.00050121546 0.9990118
vn -0.04444319 -0.00050121546 0.9990118
vn -0.04444319 -0.00050121546 0.9990118
vn 0.67466706 -0.00050121546 0.73812205
vn 0.67466706 -0.00050121546 0.73812205
vn 0.67466706 -0.00050121546 0.73812205
vn 0.67466706 -0.00050121546 0.73812205
vn 0.73719835 -0.00050121546 -0.6756762
vn 0.73719835 -0.00050121546 -0.6756762
vn 0.73719835 -0.00050121546 -0.6756762
vn 0.73719835 -0.00050121546 -0.6756762
vn -0.6756187 -0.00050121546 -0.7372511
vn -0.6756187 -0.00050121546 -0.7372511
vn -0.6756187 -0.00050121546 -0.7372511
vn -0.6756187 -0.00050121546 -0.7372511
vn -0.73815006 -0.00050121546 0.6746364
vn -0.73815006 -0.00050121546 0.6746364
vn -0.73815006 -0.00050121546 0.6746364
vn -0.73815006 -0.00050121546 0.6746364
vn 0.00050121546 0.99999994 -0
vn 0.00050121546 0.99999994 -0
vn 0.00050121546 0.99999994 -0
vn 0.00050121546 0.99999994 -0
vn 0.00050121546 0.99999994 -0
vn 0.00050121546 0.99999994 -0
vn 0.00050121546 0.99999994 -0
vn 0.00050121546 0.99999994 -0
vn 0.00050121546 0.99999994 -0
vn 0.00050121546 0.99999994 -0
vn 0.00050121546 0.99999994 -0
vn 0.00050121546 0.99999994 -0
g fcbg_cityforestcrystal_003_unilityploe_02_0
f 3/3/3 2/2/2 1/1/1
f 6/6/6 5/5/5 4/4/4
f 9/9/9 8/8/8 7/7/7
f 12/12/12 11/11/11 10/10/10
f 15/15/15 14/14/14 13/13/13
f 18/18/18 17/17/17 16/16/16
f 21/21/21 20/20/20 19/19/19
f 24/24/24 23/23/23 22/22/22
f 27/27/27 26/26/26 25/25/25
f 30/30/30 29/29/29 28/28/28
f 33/33/33 32/32/32 31/31/31
f 36/36/36 35/35/35 34/34/34
f 39/39/39 38/38/38 37/37/37
f 40/40/40 39/39/39 37/37/37
f 43/43/43 42/42/42 41/41/41
f 44/44/44 43/43/43 41/41/41
f 47/47/47 46/46/46 45/45/45
f 48/48/48 47/47/47 45/45/45
f 51/51/51 50/50/50 49/49/49
f 52/52/52 51/51/51 49/49/49
f 55/55/55 54/54/54 53/53/53
f 56/56/56 55/55/55 53/53/53
f 59/59/59 58/58/58 57/57/57
f 60/60/60 59/59/59 57/57/57
f 63/63/63 62/62/62 61/61/61
f 64/64/64 63/63/63 61/61/61
f 67/67/67 66/66/66 65/65/65
f 68/68/68 67/67/67 65/65/65
f 71/71/71 70/70/70 69/69/69
f 72/72/72 71/71/71 69/69/69
f 75/75/75 74/74/74 73/73/73
f 76/76/76 75/75/75 73/73/73
f 79/79/79 78/78/78 77/77/77
f 80/80/80 79/79/79 77/77/77
f 83/83/83 82/82/82 81/81/81
f 84/84/84 83/83/83 81/81/81
f 87/87/87 86/86/86 85/85/85
f 88/88/88 87/87/87 85/85/85
f 91/91/91 90/90/90 89/89/89
f 92/92/92 91/91/91 89/89/89
f 95/95/95 94/94/94 93/93/93
f 96/96/96 95/95/95 93/93/93
f 99/99/99 98/98/98 97/97/97
f 100/100/100 99/99/99 97/97/97
f 103/103/103 102/102/102 101/101/101
f 104/104/104 103/103/103 101/101/101
f 107/107/107 106/106/106 105/105/105
f 108/108/108 107/107/107 105/105/105
f 111/111/111 110/110/110 109/109/109
f 112/112/112 111/111/111 109/109/109
f 115/115/115 114/114/114 113/113/113
f 116/116/116 115/115/115 113/113/113
f 119/119/119 118/118/118 117/117/117
f 120/120/120 118/118/118 119/119/119
f 118/118/118 121/121/121 117/117/117
f 117/117/117 121/121/121 122/122/122
f 122/122/122 121/121/121 123/123/123
f 124/124/124 118/118/118 120/120/120
f 125/125/125 124/124/124 120/120/120
f 126/126/126 124/124/124 125/125/125
f 121/121/121 127/127/127 123/123/123
f 127/127/127 124/124/124 126/126/126
f 123/123/123 127/127/127 128/128/128
f 128/128/128 127/127/127 126/126/126
