g fcbg_iceland_005_Barbedwire_02
v 0.6296973 2.4679885 0.030482994
v -0.62967765 2.4679885 0.030482994
v -0.62967765 0.06798839 0.03048211
v 0.6296973 0.06798839 0.03048211
v 0.6296973 0.0679884 -0.030482888
v -0.62967765 0.0679884 -0.030482888
v -0.62967765 2.4679885 -0.030482005
v 0.6296973 2.4679885 -0.030482005
vt 0.2066212 0.993669
vt 0.117244124 0.993669
vt 0.117244124 0.8233425
vt 0.2066212 0.8233425
vt 0.2066212 0.8233425
vt 0.117244124 0.8233425
vt 0.117244124 0.993669
vt 0.2066212 0.993669
vn -0 0 -1
vn -0 0 -1
vn -0 0 -1
vn -0 0 -1
vn -0 0 1
vn -0 0 1
vn -0 0 1
vn -0 0 1
g fcbg_iceland_005_Barbedwire_02_0
f 3/3/3 2/2/2 1/1/1
f 4/4/4 3/3/3 1/1/1
f 7/7/7 6/6/6 5/5/5
f 8/8/8 7/7/7 5/5/5
