g fcbg_arkcity_001_terminalglass_05
v -0.7329074 -0.21388388 -0.45415682
v -0.590505 0.27787328 0.59138
v -0.7314521 0.20245463 0.42964447
v -0.59071326 -0.27787185 -0.59137857
v 0.59071314 -0.27787325 -0.59138
v 0.5905049 0.27787328 0.5913787
v 0.7312438 0.20245463 0.42964315
v 0.7329073 -0.21388525 -0.45415682
vt 0.7294711 0.7041012
vt 0.7109505 0.8460401
vt 0.72931206 0.8241147
vt 0.7109636 0.685501
vt 0.5570749 0.685501
vt 0.55708814 0.8460401
vt 0.5387529 0.8241147
vt 0.5385542 0.7041012
vn -0.004230004 0.7040187 -0.71016884
vn 0.0013238753 0.7047129 -0.7094914
vn 0.0034065796 0.7047129 -0.7094844
vn -0.00075882906 0.7047129 -0.70949215
vn 0.0013238753 0.7047129 -0.7094914
vn -0.00075882906 0.7061014 -0.7081103
vn -6.459467E-05 0.7054072 -0.7088023
vn 0.0041008145 0.7040187 -0.7101696
g fcbg_arkcity_001_terminalglass_05_0
f 3/3/3 2/2/2 1/1/1
f 2/2/2 4/4/4 1/1/1
f 5/5/5 4/4/4 2/2/2
f 6/6/6 5/5/5 2/2/2
f 5/5/5 6/6/6 7/7/7
f 8/8/8 5/5/5 7/7/7
