g fcbg_greathole_001_building_03
v -0.47853458 1.9003743 0.267021
v 1.3979077 1.9003743 0.267021
v 1.3979077 1.9003735 1.9627672
v -0.47853458 1.9003735 1.9627672
v -0.47853458 1.7020187 0.26702097
v -0.47853458 1.7020175 1.962767
v 1.3979073 1.7020175 1.962767
v 1.3979077 1.9003743 0.267021
v 1.3979073 1.7020175 1.962767
v 1.3979077 1.9003735 1.9627672
v 1.3979073 1.7020187 0.26702097
v -0.47853458 1.9003743 0.267021
v -0.47853458 1.7020187 0.26702097
v 2.2031353 3.0398369E-06 2.3994775
v -2.5345912 3.0398369E-06 2.3994775
v -2.5345912 0.88715196 2.399478
v 2.2031353 0.88715196 2.399478
v 1.6248384 0.8871521 2.1678448
v 1.6248384 0.88715255 0.061940562
v 2.2031353 0.8871518 -1.1081278E-07
v -2.46264 0.8871521 2.1678448
v -2.5345912 0.8871518 -2.9693092E-07
v -2.5345912 3.0398369E-06 2.3994775
v -2.5345912 3.5762787E-06 -4.0268725E-07
v -2.5345912 3.874302E-06 -2.3994777
v -2.5345912 0.8871523 -2.3994782
v -2.215543 1.10733 2.1678455
v -2.4223938 1.0647388 2.1678455
v -0.7054674 1.7492002 2.1678457
v 1.6248384 1.7492002 2.1678457
v -2.46264 0.88715255 0.061940562
v -2.46264 0.88715255 -0.061941035
v 1.6248384 0.88715255 -0.061940785
v -2.46264 0.88715255 -2.1678452
v 2.2031338 0.8871523 -2.3994782
v 1.6248393 0.88715255 -2.1678452
v 2.2031338 3.874302E-06 -2.3994777
v -2.5345912 3.874302E-06 -2.3994777
v -2.215543 1.1073304 -2.1678452
v -2.4223938 1.0647392 -2.1678452
v -0.7054674 1.7492005 -2.167845
v 1.6248393 1.7492005 -2.167845
v 1.6248384 0.8871521 2.1678448
v 1.6248384 1.7492002 2.1678457
v 1.6248384 1.7492007 0.06194104
v -0.7054674 1.7492007 0.06194104
v -0.7054674 1.7492002 2.1678457
v -2.215543 1.1073303 0.06194096
v -2.215543 1.10733 2.1678455
v -2.4223938 1.064739 0.061940957
v -2.4223938 1.0647388 2.1678455
v -2.46264 0.8871521 2.1678448
v 2.2031353 3.5762787E-06 -1.5452969E-07
v 2.2031353 3.0398369E-06 2.3994775
v 2.2031353 0.88715196 2.399478
v 2.2031353 0.8871518 -1.1081278E-07
v 2.2031338 0.8871523 -2.3994782
v 2.2031338 3.874302E-06 -2.3994777
v -2.215543 1.1073303 0.06194096
v -2.4223938 1.064739 0.061940957
v -2.46264 0.88715255 0.061940562
v -0.7054674 1.7492007 0.06194104
v 1.6248384 0.88715255 0.061940562
v 1.6248384 1.7492007 0.06194104
v -0.33002293 1.8460443 1.9478314
v -0.23317948 1.7492005 1.9478315
v -0.23317948 1.7492009 2.1678455
v -0.33002293 1.8460447 2.264689
v -0.4268679 1.7492005 1.9478315
v -0.23317948 0.7891407 2.1678452
v -0.4268679 1.7492009 2.1678455
v -0.33002293 0.78914064 2.2646887
v -0.4268679 0.7891407 2.1678452
v 0.88853914 0.8872499 2.2866147
v 1.1833918 1.2991581 2.2866154
v 1.1833918 0.8872499 2.2866147
v 0.88853914 1.2991581 2.2866154
v 1.2123015 1.3360513 2.1331432
v 0.8596328 1.3360513 2.1331432
v 0.8596328 0.8871637 2.1331432
v 1.2123015 0.8871637 2.1331432
v 1.1833918 0.8872499 2.2866147
v 1.1833918 1.2991581 2.2866154
v 1.2123015 1.3360513 2.1331432
v 2.2072282 1.3868054 1.772988
v 2.370909 0.6210005 1.936668
v 2.2072282 0.62100065 1.7729883
v 2.370909 1.5504854 1.9366682
v 1.4821091 1.3868054 1.772988
v 1.4821091 1.5504854 1.9366682
v 2.5345888 0.62100065 1.7729883
v 2.5345879 1.7141651 1.7729884
v 1.4821091 1.7141651 1.7729884
v 1.48211 1.5504856 1.609308
v 2.370909 1.5504856 1.609308
v 1.4821091 1.3868054 1.772988
v 2.370909 0.6210007 1.609308
v 2.2072282 1.3868054 1.772988
v 2.2072282 0.62100065 1.7729883
v 2.2072282 1.3868054 0.4567975
v 2.370909 0.62100023 0.62047726
v 2.2072282 0.62100023 0.45679754
v 2.370909 1.5504845 0.62047756
v 1.48211 1.3868054 0.4567975
v 1.48211 1.5504845 0.62047756
v 2.5345888 0.62100023 0.45679754
v 2.5345879 1.714165 0.45679766
v 1.48211 1.714165 0.45679766
v 1.48211 1.5504854 0.29311746
v 2.370909 1.5504854 0.29311746
v 1.48211 1.3868054 0.4567975
v 2.370909 0.6210001 0.29311758
v 2.2072282 1.3868054 0.4567975
v 2.2072282 0.62100023 0.45679754
v 1.6248384 0.88715255 -0.061940785
v 1.6248393 1.7492005 -2.167845
v 1.6248393 0.88715255 -2.1678452
v 1.6248384 1.7492005 -0.061940804
v -0.7054674 1.7492005 -0.06194099
v -0.7054674 1.7492005 -2.167845
v -2.215543 1.1073303 -0.061941445
v -2.215543 1.1073304 -2.1678452
v -2.4223938 1.064739 -0.06194151
v -2.4223938 1.0647392 -2.1678452
v -2.46264 0.88715255 -2.1678452
v -2.46264 0.88715255 -0.061941035
v -2.215543 1.1073303 -0.061941445
v -2.46264 0.88715255 -0.061941035
v -2.4223938 1.064739 -0.06194151
v -0.7054674 1.7492005 -0.06194099
v 1.6248384 0.88715255 -0.061940785
v 1.6248384 1.7492005 -0.061940804
v -0.47854 1.900374 -1.962766
v 1.397902 1.900374 -1.9627664
v 1.3979023 1.9003742 -0.26702064
v -0.47853988 1.9003742 -0.26702026
v -0.47854 1.7020186 -1.9627659
v -0.47853988 1.7020183 -0.26702052
v 1.397902 1.7020183 -0.2670209
v 1.397902 1.900374 -1.9627664
v 1.397902 1.7020183 -0.2670209
v 1.3979023 1.9003742 -0.26702064
v 1.3979018 1.7020186 -1.9627663
v -0.47854 1.900374 -1.962766
v -0.47854 1.7020186 -1.9627659
vt 0.022566687 0.1340841
vt 0.0521052 0.1340841
vt 0.0521052 0.10814606
vt 0.022566687 0.10814606
vt 0.019238053 0.13718736
vt 0.019238053 0.10504264
vt 0.055433467 0.10504264
vt 0.02256633 0.10814588
vt 0.019238062 0.13718736
vt 0.022566337 0.13408393
vt 0.019238053 0.10504264
vt 0.052104842 0.10814588
vt 0.055433467 0.10504264
vt 0.10754006 0.31168061
vt 0.018237466 0.31168061
vt 0.018237466 0.32840312
vt 0.10754006 0.32840312
vt 0.09663998 0.33276886
vt 0.095789365 0.37198126
vt 0.10754006 0.37363112
vt 0.01959377 0.33276886
vt 0.018237466 0.37363112
vt 0.0015153836 0.32840312
vt 0.0015153836 0.37363112
vt 0.0015153836 0.32840312
vt 0.018237466 0.32840312
vt 0.024894113 0.33682358
vt 0.020545358 0.33595175
vt 0.053413678 0.34121084
vt 0.09484541 0.34121084
vt 0.020283991 0.37198126
vt 0.01959377 0.37246388
vt 0.09663998 0.37246388
vt 0.01959377 0.33276886
vt 0.10754006 0.32840312
vt 0.09663998 0.33276886
vt 0.10754006 0.31168061
vt 0.018237466 0.31168061
vt 0.024894113 0.33682358
vt 0.020545358 0.33595175
vt 0.053413678 0.34121084
vt 0.09484541 0.34121084
vt 0.095789365 0.3418113
vt 0.08358192 0.3418113
vt 0.08358192 0.37198126
vt 0.050359 0.37198126
vt 0.050359 0.3418113
vt 0.026647622 0.37198126
vt 0.026647622 0.3418113
vt 0.023144597 0.37198126
vt 0.023144597 0.3418113
vt 0.020283991 0.3418113
vt 0.0015153091 0.37363112
vt 0.0015153091 0.32840312
vt 0.018237451 0.32840312
vt 0.018237451 0.37363112
vt 0.018237451 0.32840312
vt 0.0015153091 0.32840312
vt 0.024894113 0.33682358
vt 0.020545358 0.33595175
vt 0.01959377 0.33276886
vt 0.053413678 0.34121084
vt 0.09663998 0.33276886
vt 0.09484541 0.34121084
vt 0.19854261 0.24397747
vt 0.19854261 0.23954166
vt 0.19353475 0.23951693
vt 0.18905248 0.24397747
vt 0.19854261 0.23954166
vt 0.19353475 0.20816658
vt 0.19353475 0.23951693
vt 0.18905248 0.20813917
vt 0.19353475 0.20816658
vt 0.1690999 0.1326669
vt 0.17436323 0.14016996
vt 0.17436323 0.1326669
vt 0.1690999 0.14016996
vt 0.17723164 0.14382677
vt 0.16623136 0.14382677
vt 0.16623136 0.13265298
vt 0.16623148 0.13264601
vt 0.1690999 0.13265993
vt 0.1690999 0.14016299
vt 0.16623148 0.1438198
vt 0.17852819 0.14531997
vt 0.18229526 0.13285981
vt 0.17852932 0.13285942
vt 0.18229479 0.14911473
vt 0.16668051 0.14531997
vt 0.16668051 0.14910361
vt 0.18606138 0.13285981
vt 0.18606138 0.1529015
vt 0.16668051 0.15288693
vt 0.16668051 0.14910361
vt 0.18229479 0.14911473
vt 0.16668051 0.14531997
vt 0.18229526 0.13285981
vt 0.17852819 0.14531997
vt 0.17852932 0.13285942
vt 0.17852819 0.14531997
vt 0.18229526 0.13285981
vt 0.17852932 0.13285942
vt 0.18229479 0.14911473
vt 0.16668051 0.14531997
vt 0.16668051 0.14910361
vt 0.18606138 0.13285981
vt 0.18606138 0.1529015
vt 0.16668051 0.15288693
vt 0.16668051 0.14910361
vt 0.18229479 0.14911473
vt 0.16668051 0.14531997
vt 0.18229526 0.13285981
vt 0.17852819 0.14531997
vt 0.17852932 0.13285942
vt 0.095789365 0.3418113
vt 0.08358192 0.37198126
vt 0.095789365 0.37198126
vt 0.08358192 0.3418113
vt 0.050359 0.3418113
vt 0.050359 0.37198126
vt 0.026647622 0.3418113
vt 0.026647622 0.37198126
vt 0.023144597 0.3418113
vt 0.023144597 0.37198126
vt 0.020283991 0.37198126
vt 0.020283991 0.3418113
vt 0.024894113 0.33682358
vt 0.01959377 0.33276886
vt 0.020545358 0.33595175
vt 0.053413678 0.34121084
vt 0.09663998 0.33276886
vt 0.09484541 0.34121084
vt 0.022566687 0.1340841
vt 0.0521052 0.1340841
vt 0.0521052 0.10814606
vt 0.022566687 0.10814606
vt 0.019238053 0.13718736
vt 0.019238053 0.10504264
vt 0.055433467 0.10504264
vt 0.02256633 0.10814588
vt 0.019238062 0.13718736
vt 0.022566337 0.13408393
vt 0.019238053 0.10504264
vt 0.052104842 0.10814588
vt 0.055433467 0.10504264
vn -0.5773502 0.57735044 -0.5773501
vn 0.57735103 0.57734984 -0.57734996
vn 0.57735103 0.5773492 0.5773506
vn -0.5773502 0.5773498 0.57735074
vn -0.7071069 0 -0.70710665
vn -0.7071069 0 0.70710665
vn 0.7071063 0 0.7071072
vn 0.57735103 0.57734984 -0.57734996
vn 0.7071063 0 0.7071072
vn 0.57735103 0.5773492 0.5773506
vn 0.7071063 0 -0.7071072
vn -0.5773502 0.57735044 -0.5773501
vn -0.7071069 0 -0.70710665
vn 0.7071068 0 0.7071067
vn -0.7071068 0 0.7071067
vn -0.5773506 0.57734984 0.57735044
vn 0.5773504 0.57735 0.57735044
vn 0.30151182 0.90453374 0.30151168
vn 0.30151078 0.9045321 -0.30151784
vn 0.7071071 0.70710635 0
vn -0.28080878 0.92741585 0.24707526
vn -0.7071081 0.7071054 0
vn -0.7071068 0 0.7071067
vn -1 0 0
vn -0.7071069 0 -0.70710665
vn -0.5773505 0.5773498 -0.5773505
vn -0.20355265 0.65226597 0.73014754
vn -0.55841476 0.5695805 0.60311764
vn -0.14911006 0.7319726 0.6648176
vn 0.57735026 0.5773499 0.57735074
vn -0.28080687 0.92741513 -0.24708018
vn -0.2808073 0.927415 0.24708022
vn 0.3015109 0.9045319 0.30151817
vn -0.28080875 0.92741597 -0.24707529
vn 0.5773502 0.5773501 -0.57735056
vn 0.30151153 0.90453386 -0.30151162
vn 0.7071067 0 -0.7071068
vn -0.7071069 0 -0.70710665
vn -0.20355257 0.6522669 -0.7301467
vn -0.5584151 0.56958205 -0.60311604
vn -0.14910996 0.7319732 -0.6648169
vn 0.5773504 0.5773503 -0.57735
vn 0.30151182 0.90453374 0.30151168
vn 0.57735026 0.5773499 0.57735074
vn 0.57735026 0.5773505 -0.57735
vn -0.14911002 0.7319733 -0.6648167
vn -0.14911006 0.7319726 0.6648176
vn -0.20355271 0.6522672 -0.73014647
vn -0.20355265 0.65226597 0.73014754
vn -0.5584152 0.5695827 -0.6031154
vn -0.55841476 0.5695805 0.60311764
vn -0.28080878 0.92741585 0.24707526
vn 1 0 0
vn 0.7071068 0 0.7071067
vn 0.5773504 0.57735 0.57735044
vn 0.7071071 0.70710635 0
vn 0.5773502 0.5773501 -0.57735056
vn 0.7071067 0 -0.7071068
vn -0.20355271 0.6522672 -0.73014647
vn -0.5584152 0.5695827 -0.6031154
vn -0.28080687 0.92741513 -0.24708018
vn -0.14911002 0.7319733 -0.6648167
vn 0.30151078 0.9045321 -0.30151784
vn 0.57735026 0.5773505 -0.57735
vn -0 1 0
vn 0.7071077 0.7071058 0
vn 0.81649727 0.40824768 0.40824768
vn -0 0.70710725 0.7071063
vn -0.7071021 0.7071114 0
vn 0.70710677 0 0.7071067
vn -0.8164929 0.40825197 0.40825197
vn -0 0 1
vn -0.7071013 0 0.7071122
vn -0.6384325 0 0.7696778
vn 0.5248268 0.5046209 0.6855032
vn 0.63842446 0 0.7696845
vn -0.52483445 0.50462013 0.6854979
vn 0.66754156 0.6855453 0.29054424
vn -0.6675404 0.685552 0.2905311
vn -0.9827207 0 0.18509498
vn 0.9827168 0 0.18511558
vn 0.63842446 0 0.7696845
vn 0.5248268 0.5046209 0.6855032
vn 0.66754156 0.6855453 0.29054424
vn -0.70710546 -0.707108 0
vn -0 0 1
vn -1 0 0
vn 0.18880138 0.18880075 0.96369517
vn -0 -1 0
vn -0 0 1
vn 1 0 0
vn 0.7071059 0.70710766 0
vn -0 1 0
vn -0 0 -1
vn 0.18880221 0.18880212 -0.96369475
vn -0 -1 0
vn -0 0 -1
vn -0.70710546 -0.707108 0
vn -1 0 0
vn -0.7071044 -0.70710915 0
vn -0 0 1
vn -1 0 0
vn 0.18880144 0.18879981 0.9636953
vn -0 -1 0
vn -0 0 1
vn 1 0 0
vn 0.7071056 0.7071079 0
vn -0 1 0
vn -0 0 -1
vn 0.1888018 0.18880154 -0.96369493
vn -0 -1 0
vn -0 0 -1
vn -0.7071044 -0.70710915 0
vn -1 0 0
vn 0.3015109 0.9045319 0.30151817
vn 0.5773504 0.5773503 -0.57735
vn 0.30151153 0.90453386 -0.30151162
vn 0.5773501 0.57735026 0.5773504
vn -0.14911002 0.73197305 0.66481704
vn -0.14910996 0.7319732 -0.6648169
vn -0.20355274 0.65226704 0.7301465
vn -0.20355257 0.6522669 -0.7301467
vn -0.5584153 0.5695828 0.6031151
vn -0.5584151 0.56958205 -0.60311604
vn -0.28080875 0.92741597 -0.24707529
vn -0.2808073 0.927415 0.24708022
vn -0.20355274 0.65226704 0.7301465
vn -0.2808073 0.927415 0.24708022
vn -0.5584153 0.5695828 0.6031151
vn -0.14911002 0.73197305 0.66481704
vn 0.3015109 0.9045319 0.30151817
vn 0.5773501 0.57735026 0.5773504
vn -0.5773503 0.5773501 -0.5773504
vn 0.5773505 0.5773498 -0.57735056
vn 0.5773507 0.5773496 0.57735056
vn -0.5773501 0.57734984 0.57735074
vn -0.707107 0 -0.7071065
vn -0.7071069 0 0.70710665
vn 0.7071068 0 0.70710665
vn 0.5773505 0.5773498 -0.57735056
vn 0.7071068 0 0.70710665
vn 0.5773507 0.5773496 0.57735056
vn 0.70710653 0 -0.707107
vn -0.5773503 0.5773501 -0.5773504
vn -0.707107 0 -0.7071065
g fcbg_greathole_001_building_03_0
f 3/3/3 2/2/2 1/1/1
f 4/4/4 3/3/3 1/1/1
f 1/1/1 5/5/5 4/4/4
f 5/5/5 6/6/6 4/4/4
f 4/4/4 6/6/6 3/3/3
f 6/6/6 7/7/7 3/3/3
f 10/10/10 9/9/9 8/8/8
f 9/9/9 11/11/11 8/8/8
f 8/8/8 11/11/11 12/12/12
f 11/11/11 13/13/13 12/12/12
f 16/16/16 15/15/15 14/14/14
f 17/17/17 16/16/16 14/14/14
f 17/17/17 18/18/18 16/16/16
f 19/19/19 18/18/18 17/17/17
f 20/20/20 19/19/19 17/17/17
f 18/18/18 21/21/21 16/16/16
f 16/16/16 21/21/21 22/22/22
f 16/16/16 22/22/22 23/23/23
f 22/22/22 24/24/24 23/23/23
f 25/25/25 24/24/24 22/22/22
f 26/26/26 25/25/25 22/22/22
f 27/27/27 21/21/21 18/18/18
f 28/28/28 21/21/21 27/27/27
f 29/29/29 27/27/27 18/18/18
f 30/30/30 29/29/29 18/18/18
f 21/21/21 31/31/31 22/22/22
f 31/31/31 19/19/19 20/20/20
f 22/22/22 31/31/31 20/20/20
f 32/32/32 22/22/22 20/20/20
f 33/33/33 32/32/32 20/20/20
f 32/32/32 34/34/34 22/22/22
f 34/34/34 26/26/26 22/22/22
f 33/33/33 20/20/20 35/35/35
f 36/36/36 33/33/33 35/35/35
f 36/36/36 35/35/35 26/26/26
f 34/34/34 36/36/36 26/26/26
f 35/35/35 37/37/37 26/26/26
f 37/37/37 38/38/38 26/26/26
f 34/34/34 39/39/39 36/36/36
f 34/34/34 40/40/40 39/39/39
f 39/39/39 41/41/41 36/36/36
f 41/41/41 42/42/42 36/36/36
f 44/44/44 43/43/43 19/19/19
f 45/45/45 44/44/44 19/19/19
f 44/44/44 45/45/45 46/46/46
f 47/47/47 44/44/44 46/46/46
f 46/46/46 48/48/48 47/47/47
f 48/48/48 49/49/49 47/47/47
f 48/48/48 50/50/50 49/49/49
f 50/50/50 51/51/51 49/49/49
f 51/51/51 50/50/50 52/52/52
f 50/50/50 31/31/31 52/52/52
f 55/55/55 54/54/54 53/53/53
f 56/56/56 55/55/55 53/53/53
f 56/56/56 53/53/53 57/57/57
f 53/53/53 58/58/58 57/57/57
f 61/61/61 60/60/60 59/59/59
f 59/59/59 62/62/62 61/61/61
f 62/62/62 63/63/63 61/61/61
f 64/64/64 63/63/63 62/62/62
f 67/67/67 66/66/66 65/65/65
f 68/68/68 67/67/67 65/65/65
f 68/68/68 65/65/65 69/69/69
f 70/70/70 67/67/67 68/68/68
f 71/71/71 68/68/68 69/69/69
f 72/72/72 70/70/70 68/68/68
f 72/72/72 68/68/68 71/71/71
f 73/73/73 72/72/72 71/71/71
f 76/76/76 75/75/75 74/74/74
f 75/75/75 77/77/77 74/74/74
f 77/77/77 75/75/75 78/78/78
f 79/79/79 77/77/77 78/78/78
f 74/74/74 77/77/77 79/79/79
f 80/80/80 74/74/74 79/79/79
f 83/83/83 82/82/82 81/81/81
f 84/84/84 83/83/83 81/81/81
f 87/87/87 86/86/86 85/85/85
f 86/86/86 88/88/88 85/85/85
f 85/85/85 88/88/88 89/89/89
f 88/88/88 90/90/90 89/89/89
f 86/86/86 91/91/91 88/88/88
f 88/88/88 92/92/92 90/90/90
f 91/91/91 92/92/92 88/88/88
f 92/92/92 93/93/93 90/90/90
f 93/93/93 92/92/92 94/94/94
f 92/92/92 91/91/91 95/95/95
f 92/92/92 95/95/95 94/94/94
f 94/94/94 95/95/95 96/96/96
f 91/91/91 97/97/97 95/95/95
f 95/95/95 98/98/98 96/96/96
f 95/95/95 97/97/97 98/98/98
f 97/97/97 99/99/99 98/98/98
f 102/102/102 101/101/101 100/100/100
f 101/101/101 103/103/103 100/100/100
f 100/100/100 103/103/103 104/104/104
f 103/103/103 105/105/105 104/104/104
f 101/101/101 106/106/106 103/103/103
f 103/103/103 107/107/107 105/105/105
f 106/106/106 107/107/107 103/103/103
f 107/107/107 108/108/108 105/105/105
f 108/108/108 107/107/107 109/109/109
f 107/107/107 106/106/106 110/110/110
f 107/107/107 110/110/110 109/109/109
f 109/109/109 110/110/110 111/111/111
f 106/106/106 112/112/112 110/110/110
f 110/110/110 113/113/113 111/111/111
f 110/110/110 112/112/112 113/113/113
f 112/112/112 114/114/114 113/113/113
f 117/117/117 116/116/116 115/115/115
f 116/116/116 118/118/118 115/115/115
f 119/119/119 118/118/118 116/116/116
f 120/120/120 119/119/119 116/116/116
f 121/121/121 119/119/119 120/120/120
f 122/122/122 121/121/121 120/120/120
f 123/123/123 121/121/121 122/122/122
f 124/124/124 123/123/123 122/122/122
f 124/124/124 125/125/125 123/123/123
f 125/125/125 126/126/126 123/123/123
f 129/129/129 128/128/128 127/127/127
f 130/130/130 127/127/127 128/128/128
f 131/131/131 130/130/130 128/128/128
f 131/131/131 132/132/132 130/130/130
f 135/135/135 134/134/134 133/133/133
f 136/136/136 135/135/135 133/133/133
f 133/133/133 137/137/137 136/136/136
f 137/137/137 138/138/138 136/136/136
f 136/136/136 138/138/138 135/135/135
f 138/138/138 139/139/139 135/135/135
f 142/142/142 141/141/141 140/140/140
f 141/141/141 143/143/143 140/140/140
f 140/140/140 143/143/143 144/144/144
f 143/143/143 145/145/145 144/144/144
