g fcbg_iceland_snowtree_03
v -0.5113672 2.8773482 -0.17154098
v -0.0811888 4.3076916 -0.18767262
v -0.29090083 2.8773482 0.2317512
v -0.86626434 1.4362507 -0.101637006
v 0.101637006 4.3076916 -0.16078651
v -0.575894 1.4362507 0.46834934
v -1.1620121 0.33929586 -0.03711021
v -0.86626434 0.00053036213 0.6995703
v -0.00053036213 2.8773482 0.3285414
v -0.00053036213 1.4362507 0.6619296
v -0.00053036213 0.00053036213 0.98994064
v 0.28984004 2.8773482 0.2317512
v 0.4081391 2.8773482 0.00053036213
v 0.5748332 1.4362507 0.46834934
v 0.8652036 0.00053036213 0.6995703
v 0.8168086 1.4362507 0.00053036213
v 1.1932147 0.30703247 -0.117768645
vt 0.56481457 0.6190406
vt 0.6074207 0.5338284
vt 0.5996741 0.6306604
vt 0.5377016 0.69650626
vt 0.6190406 0.5338284
vt 0.5841811 0.7119993
vt 0.5183352 0.762352
vt 0.56481457 0.7933383
vt 0.6190406 0.63453364
vt 0.61516726 0.71587265
vt 0.61516726 0.7972115
vt 0.63453364 0.6306604
vt 0.6577734 0.62291384
vt 0.6500268 0.7119993
vt 0.6693932 0.7933383
vt 0.6887597 0.7003795
vt 0.71587265 0.7546054
vn -0.85700834 0.25572002 0.44737455
vn -0.28305125 0.3103826 0.9074936
vn -0.61102676 0.28305125 0.7392755
vn -0.85700834 0.25572002 0.44737455
vn -0.03706968 0.3103826 0.94988865
vn -0.638358 0.25572002 0.7260209
vn -0.85700834 0.25572002 0.44737455
vn -0.5836954 0.25572002 0.7706536
vn -0.009738386 0.28305125 0.95905536
vn -0.009738386 0.22838867 0.97352135
vn -0.009738386 0.22838867 0.97352135
vn 0.6188812 0.25572002 0.7426933
vn 0.8648628 0.22838867 0.4470469
vn 0.6188812 0.25572002 0.7426933
vn 0.59154993 0.25572002 0.76464105
vn 0.8648628 0.25572002 0.4319949
vn 0.8648628 0.25572002 0.4319949
g fcbg_iceland_snowtree_03_0
f 3/3/3 2/2/2 1/1/1
f 3/3/3 1/1/1 4/4/4
f 2/2/2 3/3/3 5/5/5
f 6/6/6 3/3/3 4/4/4
f 6/6/6 4/4/4 7/7/7
f 8/8/8 6/6/6 7/7/7
f 9/9/9 5/5/5 3/3/3
f 9/9/9 3/3/3 6/6/6
f 10/10/10 6/6/6 8/8/8
f 10/10/10 9/9/9 6/6/6
f 11/11/11 10/10/10 8/8/8
f 12/12/12 5/5/5 9/9/9
f 12/12/12 9/9/9 10/10/10
f 13/13/13 5/5/5 12/12/12
f 14/14/14 10/10/10 11/11/11
f 14/14/14 12/12/12 10/10/10
f 13/13/13 12/12/12 14/14/14
f 15/15/15 14/14/14 11/11/11
f 16/16/16 13/13/13 14/14/14
f 17/17/17 14/14/14 15/15/15
f 16/16/16 14/14/14 17/17/17
