g fcbg_arkcity_003_missilis_barricade_02
v -1.6687336 -9.3221664E-05 2.5608177
v -1.9379001 2.195725 2.5608177
v -1.8091402 2.195725 2.5608177
v -2.3116813 2.195725 2.5608177
v -2.5808477 -9.3221664E-05 2.5608177
v -2.4404411 2.195725 2.5608177
v -1.9564438 2.3509932 2.5608177
v -2.293138 2.3509932 2.5608177
v 2.580842 2.195725 -1.9178646
v 2.580842 -9.3221664E-05 -1.6486982
v 2.580842 2.195725 -1.7891048
v 2.580842 -9.3221664E-05 -2.560812
v 2.580842 2.195725 -2.2916455
v 2.580842 2.3509932 -2.2731023
v 2.580842 2.3509932 -1.936408
v 2.580842 2.195725 -2.4204054
v 0.04714799 -9.3221664E-05 -2.560812
v 0.04714799 2.195725 -2.4204054
v -1.0150945 -9.3221664E-05 -2.2468157
v 0.04714799 2.195725 -2.2916455
v 2.580842 2.195725 -2.2916455
v 2.580842 2.3509932 -2.2731023
v -0.9670749 2.195725 -2.114876
v -1.9657917 -9.3221664E-05 -1.439794
v 0.04714799 2.3509932 -2.2731023
v 2.580842 2.3509932 -1.936408
v 0.04714799 2.3509932 -1.936408
v -1.8582335 2.195725 -1.3495384
v -2.4622383 -9.3221664E-05 -0.3772068
v -0.9230375 2.195725 -1.993884
v -0.91669226 2.3509932 -1.9764581
v -0.80153847 2.3509932 -1.6600693
v -2.3266163 2.195725 -0.34086347
v -2.5808477 -9.3221664E-05 0.6810634
v -1.7595997 2.195725 -1.2667753
v -1.7453933 2.3509932 -1.2548577
v -1.4874749 2.3509932 -1.0384318
v -2.4404411 2.195725 0.6810634
v -2.5808477 -9.3221664E-05 2.5608177
v -2.4404411 2.195725 2.5608177
v -2.2022424 2.195725 -0.30753756
v -2.1843343 2.3509932 -0.30273795
v -1.8591094 2.3509932 -0.21559858
v -2.3116813 2.195725 0.6810634
v -2.3116813 2.195725 2.5608177
v -2.293138 2.3509932 0.6810634
v -1.9564438 2.3509932 0.6810634
v -2.293138 2.3509932 2.5608177
v -1.9564438 2.3509932 2.5608177
v 2.580842 2.195725 -1.9178646
v 0.04714799 2.3509932 -1.936408
v 2.580842 2.3509932 -1.936408
v 0.04714799 2.195725 -1.9178646
v 2.580842 2.195725 -1.7891048
v -0.80153847 2.3509932 -1.6600693
v 0.04714799 2.195725 -1.7891048
v 2.580842 -9.3221664E-05 -1.6486982
v 0.04714799 -9.3221664E-05 -1.6486982
v -0.7951982 2.195725 -1.6426435
v -1.4874749 2.3509932 -1.0384318
v -0.75115585 2.195725 -1.5216514
v -0.7031362 -9.3221664E-05 -1.3897116
v -1.473268 2.195725 -1.0265142
v -1.8591094 2.3509932 -0.21559858
v -1.3746345 2.195725 -0.94375086
v -1.2670712 -9.3221664E-05 -0.8534955
v -1.7168274 2.195725 -0.1774733
v -1.5812054 -9.3221664E-05 -0.14112997
v -1.8412013 2.195725 -0.21079898
v -1.9564438 2.3509932 0.6810634
v -1.9379001 2.195725 0.6810634
v -1.9564438 2.3509932 2.5608177
v -1.9379001 2.195725 2.5608177
v -1.8091402 2.195725 0.6810634
v -1.6687336 -9.3221664E-05 0.6810634
v -1.8091402 2.195725 2.5608177
v -1.6687336 -9.3221664E-05 2.5608177
vt 0.337241 0.9245872
vt 0.38734433 0.9151776
vt 0.38752675 0.91814184
vt 0.38679707 0.90657365
vt 0.33590326 0.90362465
vt 0.38659945 0.90362465
vt 0.39088622 0.91452396
vt 0.39039978 0.9067713
vt 0.38734433 0.9151776
vt 0.337241 0.9245872
vt 0.38752675 0.91814184
vt 0.33590326 0.90362465
vt 0.38679707 0.90657365
vt 0.39039978 0.9067713
vt 0.39088622 0.91452396
vt 0.38659945 0.90362465
vt 0.33590326 0.84614867
vt 0.38659945 0.84614867
vt 0.33590326 0.8269343
vt 0.3895789 0.84614867
vt 0.3895789 0.90362465
vt 0.39348564 0.90362465
vt 0.38659945 0.8269343
vt 0.33590326 0.79738307
vt 0.39348564 0.84614867
vt 0.40093425 0.90362465
vt 0.40093425 0.84614867
vt 0.38659945 0.79738307
vt 0.33590326 0.7678166
vt 0.3895789 0.8269343
vt 0.39348564 0.8269343
vt 0.40093425 0.8269343
vt 0.38659945 0.7678166
vt 0.33590326 0.73826534
vt 0.3895789 0.79738307
vt 0.39348564 0.79738307
vt 0.40093425 0.79738307
vt 0.38659945 0.73826534
vt 0.33590326 0.69836205
vt 0.38659945 0.69836205
vt 0.3895789 0.7678166
vt 0.39348564 0.7678166
vt 0.40093425 0.7678166
vt 0.3895789 0.73826534
vt 0.3895789 0.69836205
vt 0.39348564 0.73826534
vt 0.40093425 0.73826534
vt 0.39348564 0.69836205
vt 0.40093425 0.69836205
vt 0.3895789 0.90362465
vt 0.39348564 0.84614867
vt 0.39348564 0.90362465
vt 0.3895789 0.84614867
vt 0.38659945 0.90362465
vt 0.39348564 0.8269343
vt 0.38659945 0.84614867
vt 0.33590326 0.90362465
vt 0.33590326 0.84614867
vt 0.3895789 0.8269343
vt 0.39348564 0.79738307
vt 0.38659945 0.8269343
vt 0.33590326 0.8269343
vt 0.3895789 0.79738307
vt 0.39348564 0.7678166
vt 0.38659945 0.79738307
vt 0.33590326 0.79738307
vt 0.38659945 0.7678166
vt 0.33590326 0.7678166
vt 0.3895789 0.7678166
vt 0.39348564 0.73826534
vt 0.3895789 0.73826534
vt 0.39348564 0.69836205
vt 0.3895789 0.69836205
vt 0.38659945 0.73826534
vt 0.33590326 0.73826534
vt 0.38659945 0.69836205
vt 0.33590326 0.69836205
vn 0.7199094 0.04572487 0.6925602
vn 0.3029992 0.33989978 0.89031434
vn 0.5562624 0.593163 0.58200496
vn -0.30288446 0.33989978 0.8903534
vn -0.71979463 0.04572487 0.6926795
vn -0.5561477 0.593163 0.5821146
vn 0.53872883 0.6068003 0.58443534
vn -0.53861403 0.6068003 0.5845411
vn 0.88940096 0.33989978 0.3056699
vn 0.69263494 0.04572487 0.71983755
vn 0.58158875 0.593163 0.5566975
vn 0.69263494 0.04572487 -0.71983755
vn 0.88940096 0.33989978 -0.3056699
vn 0.58353686 0.6068003 -0.5397019
vn 0.58353686 0.6068003 0.5397019
vn 0.58158875 0.593163 -0.5566975
vn -0.14313376 0.06325841 -0.98767966
vn -0.1041702 0.69836473 -0.70812094
vn -0.47627234 0.06325841 -0.8770194
vn -0.09248114 0.7801882 -0.6186708
vn 0.88940096 0.33989978 -0.3056699
vn 0.58353686 0.6068003 -0.5397019
vn -0.3476925 0.68667567 -0.638425
vn -0.7938255 0.06325841 -0.6048466
vn -0.1041702 0.7178465 -0.68836397
vn 0.58353686 0.6068003 0.5397019
vn 0.09649223 0.78213644 0.61559063
vn -0.5795258 0.68472743 -0.44192553
vn -0.9613688 0.06325841 -0.26789623
vn -0.29509175 0.7938255 -0.5317536
vn -0.34574437 0.70615745 -0.61790174
vn 0.30494738 0.7938255 0.5261636
vn -0.69252014 0.6964165 -0.18820179
vn -0.996436 0.06325841 -0.05580034
vn -0.48601317 0.7938255 -0.36555743
vn -0.56783676 0.70615745 -0.42296934
vn 0.49392068 0.79187727 0.3591278
vn -0.69631225 0.71773905 -0
vn -0.71979463 0.04572487 0.6926795
vn -0.5561477 0.593163 0.5821146
vn -0.5990076 0.78213644 -0.17161714
vn -0.67303836 0.7158983 -0.185766
vn 0.6010705 0.78213644 0.16424605
vn -0.6496602 0.7587582 -0.047197506
vn -0.30288446 0.33989978 0.8903534
vn -0.6749866 0.73538005 -0.060076952
vn 0.649775 0.7587582 0.045589626
vn -0.53861403 0.6068003 0.5845411
vn 0.53872883 0.6068003 0.58443534
vn 0.88940096 0.33989978 0.3056699
vn 0.09649223 0.78213644 0.61559063
vn 0.58353686 0.6068003 0.5397019
vn 0.110129476 0.7158983 0.6894644
vn 0.58158875 0.593163 0.5566975
vn 0.30494738 0.7938255 0.5261636
vn 0.10428494 0.7665509 0.6336595
vn 0.69263494 0.04572487 0.71983755
vn 0.16467845 0.06325841 0.9843167
vn 0.35754818 0.70615745 0.6111473
vn 0.49392068 0.79187727 0.3591278
vn 0.32248098 0.7782401 0.5388398
vn 0.51535064 0.06325841 0.8546415
vn 0.5718478 0.70615745 0.41753054
vn 0.6010705 0.78213644 0.16424605
vn 0.51535064 0.7743436 0.367159
vn 0.81342196 0.06325841 0.57822406
vn 0.6225005 0.7646028 0.16696024
vn 0.9634318 0.06325841 0.2603797
vn 0.67315316 0.7158983 0.18534952
vn 0.649775 0.7587582 0.045589626
vn 0.6751013 0.7373283 0.024192106
vn 0.53872883 0.6068003 0.58443534
vn 0.3029992 0.33989978 0.89031434
vn 0.6712049 0.74122465 0.008365157
vn 0.9965508 0.06325841 0.053710856
vn 0.5562624 0.593163 0.58200496
vn 0.7199094 0.04572487 0.6925602
g fcbg_arkcity_003_missilis_barricade_02_0
f 3/3/3 2/2/2 1/1/1
f 2/2/2 4/4/4 1/1/1
f 4/4/4 5/5/5 1/1/1
f 6/6/6 5/5/5 4/4/4
f 2/2/2 7/7/7 4/4/4
f 7/7/7 8/8/8 4/4/4
f 11/11/11 10/10/10 9/9/9
f 9/9/9 10/10/10 12/12/12
f 13/13/13 9/9/9 12/12/12
f 13/13/13 14/14/14 9/9/9
f 14/14/14 15/15/15 9/9/9
f 16/16/16 13/13/13 12/12/12
f 16/16/16 12/12/12 17/17/17
f 18/18/18 16/16/16 17/17/17
f 17/17/17 19/19/19 18/18/18
f 18/18/18 20/20/20 16/16/16
f 20/20/20 21/21/21 16/16/16
f 22/22/22 21/21/21 20/20/20
f 19/19/19 23/23/23 18/18/18
f 18/18/18 23/23/23 20/20/20
f 19/19/19 24/24/24 23/23/23
f 25/25/25 22/22/22 20/20/20
f 22/22/22 25/25/25 26/26/26
f 25/25/25 27/27/27 26/26/26
f 24/24/24 28/28/28 23/23/23
f 28/28/28 24/24/24 29/29/29
f 23/23/23 30/30/30 20/20/20
f 20/20/20 30/30/30 25/25/25
f 23/23/23 28/28/28 30/30/30
f 25/25/25 31/31/31 27/27/27
f 30/30/30 31/31/31 25/25/25
f 31/31/31 32/32/32 27/27/27
f 33/33/33 28/28/28 29/29/29
f 33/33/33 29/29/29 34/34/34
f 28/28/28 35/35/35 30/30/30
f 30/30/30 35/35/35 31/31/31
f 35/35/35 28/28/28 33/33/33
f 31/31/31 36/36/36 32/32/32
f 35/35/35 36/36/36 31/31/31
f 36/36/36 37/37/37 32/32/32
f 38/38/38 33/33/33 34/34/34
f 38/38/38 34/34/34 39/39/39
f 40/40/40 38/38/38 39/39/39
f 41/41/41 35/35/35 33/33/33
f 36/36/36 35/35/35 41/41/41
f 41/41/41 33/33/33 38/38/38
f 36/36/36 42/42/42 37/37/37
f 42/42/42 36/36/36 41/41/41
f 42/42/42 43/43/43 37/37/37
f 44/44/44 38/38/38 40/40/40
f 44/44/44 41/41/41 38/38/38
f 42/42/42 41/41/41 44/44/44
f 45/45/45 44/44/44 40/40/40
f 43/43/43 42/42/42 46/46/46
f 46/46/46 42/42/42 44/44/44
f 46/46/46 44/44/44 45/45/45
f 47/47/47 43/43/43 46/46/46
f 48/48/48 46/46/46 45/45/45
f 47/47/47 46/46/46 48/48/48
f 49/49/49 47/47/47 48/48/48
f 52/52/52 51/51/51 50/50/50
f 51/51/51 53/53/53 50/50/50
f 50/50/50 53/53/53 54/54/54
f 51/51/51 55/55/55 53/53/53
f 53/53/53 56/56/56 54/54/54
f 54/54/54 56/56/56 57/57/57
f 56/56/56 58/58/58 57/57/57
f 55/55/55 59/59/59 53/53/53
f 53/53/53 59/59/59 56/56/56
f 55/55/55 60/60/60 59/59/59
f 56/56/56 61/61/61 58/58/58
f 59/59/59 61/61/61 56/56/56
f 61/61/61 62/62/62 58/58/58
f 60/60/60 63/63/63 59/59/59
f 59/59/59 63/63/63 61/61/61
f 60/60/60 64/64/64 63/63/63
f 61/61/61 65/65/65 62/62/62
f 63/63/63 65/65/65 61/61/61
f 65/65/65 66/66/66 62/62/62
f 65/65/65 67/67/67 66/66/66
f 65/65/65 63/63/63 67/67/67
f 67/67/67 68/68/68 66/66/66
f 64/64/64 69/69/69 63/63/63
f 63/63/63 69/69/69 67/67/67
f 69/69/69 64/64/64 70/70/70
f 71/71/71 69/69/69 70/70/70
f 67/67/67 69/69/69 71/71/71
f 71/71/71 70/70/70 72/72/72
f 73/73/73 71/71/71 72/72/72
f 68/68/68 67/67/67 74/74/74
f 74/74/74 67/67/67 71/71/71
f 74/74/74 71/71/71 73/73/73
f 75/75/75 68/68/68 74/74/74
f 76/76/76 74/74/74 73/73/73
f 75/75/75 74/74/74 76/76/76
f 77/77/77 75/75/75 76/76/76
