g fcbg_cityforest_006_ect_01
v -0 2.2232566 -0.46731105
v 0.2831192 2.165429 0.4673105
v -0 2.2232566 0.4673105
v 0.2831192 2.165429 -0.46731105
v 0.4557724 1.9027753 0.46731037
v 0.4557724 1.9027758 -0.46731117
v 0.4557724 0.7671083 0.46730995
v 0.4557724 0.76710856 -0.4673116
v -0.4557724 0.76710856 -0.4673116
v 0.4557724 0.76710856 -0.4673116
v 0.4557724 1.9027758 -0.46731117
v -0.4557724 1.9027758 -0.46731117
v -0.4557724 1.9027753 0.46731037
v -0.4557724 0.7671083 0.46730995
v -0.28312683 2.165429 0.4673105
v -0.28312683 2.1654294 -0.46731105
v 0.2831192 2.165429 -0.46731105
v -0 2.2232566 -0.46731105
v -0.28312683 2.1654294 -0.46731105
v -0 2.2232566 0.4673105
v -0 2.2232566 -0.46731105
v 0.4557724 0.7671083 0.46730995
v -0.4557724 0.7671083 0.46730995
v -0.4557724 1.9027753 0.46731037
v 0.4557724 1.9027753 0.46731037
v 0.2831192 2.165429 0.4673105
v -0.28312683 2.165429 0.4673105
v -0 2.2232566 0.4673105
v 0.4557724 0.7671083 0.46730995
v -0.31539917 0.6858071 0.32338718
v -0.4557724 0.7671083 0.46730995
v 0.31539917 0.6858071 0.32338718
v -0.11268616 0.50813675 0.115534015
v 0.11267853 0.50813675 0.115533054
v 0.4557724 0.76710856 -0.4673116
v 0.31539917 0.6858071 0.32338718
v 0.31539917 0.68580735 -0.32338783
v 0.11267853 0.50813675 0.115533054
v 0.11267853 0.50813675 -0.115534596
v -0.4557724 0.76710856 -0.4673116
v 0.31539917 0.68580735 -0.32338783
v 0.4557724 0.76710856 -0.4673116
v -0.31539917 0.68580735 -0.32338783
v 0.11267853 0.50813675 -0.115534596
v -0.11268616 0.50813675 -0.115534596
v -0.4557724 0.7671083 0.46730995
v -0.31539917 0.68580735 -0.32338783
v -0.31539917 0.6858071 0.32338718
v -0.11268616 0.50813675 -0.115534596
v -0.11268616 0.50813675 0.115534015
v 0.11267853 0.50813675 0.115533054
v -0.11268616 0.27003664 0.11553393
v -0.11268616 0.50813675 0.115534015
v 0.11267853 0.27003664 0.11553393
v -0.42229462 0.059614018 0.43298602
v 0.42229462 0.059614018 0.43298694
v -0.42229462 -0.00010649469 0.43298602
v 0.42229462 -0.00010649469 0.43298694
v -0.11268616 0.50813675 0.115534015
v -0.11268616 0.27003676 -0.11553468
v -0.11268616 0.50813675 -0.115534596
v -0.11268616 0.27003664 0.11553393
v -0.42229462 0.059614338 -0.43298817
v -0.42229462 0.059614018 0.43298602
v -0.42229462 -0.00010617468 -0.43298817
v -0.42229462 -0.00010649469 0.43298602
v -0.11268616 0.50813675 -0.115534596
v 0.11267853 0.27003676 -0.11553468
v 0.11267853 0.50813675 -0.115534596
v -0.11268616 0.27003676 -0.11553468
v 0.42229462 0.059614338 -0.43298817
v -0.42229462 0.059614338 -0.43298817
v 0.42229462 -0.00010617468 -0.43298817
v -0.42229462 -0.00010617468 -0.43298817
v 0.11267853 0.50813675 -0.115534596
v 0.11267853 0.27003664 0.11553393
v 0.11267853 0.50813675 0.115533054
v 0.11267853 0.27003676 -0.11553468
v 0.42229462 0.059614018 0.43298694
v 0.42229462 0.059614338 -0.43298817
v 0.42229462 -0.00010649469 0.43298694
v 0.42229462 -0.00010617468 -0.43298817
vt 0.5232189 0.9826043
vt 0.4929575 0.9732451
vt 0.4929575 0.9826043
vt 0.5232189 0.9732451
vt 0.4929575 0.9638372
vt 0.5232189 0.9638372
vt 0.4929575 0.9267768
vt 0.5232189 0.9267768
vt 0.4929575 0.9267768
vt 0.46297875 0.9267768
vt 0.46297875 0.9638372
vt 0.4929575 0.9638372
vt 0.5232189 0.9638372
vt 0.5232189 0.9267768
vt 0.5232189 0.9732451
vt 0.48727956 0.9732451
vt 0.46865684 0.9732451
vt 0.4779682 0.97511446
vt 0.4929575 0.9732451
vt 0.5232189 0.9826043
vt 0.4929575 0.9826043
vt 0.4929575 0.9267768
vt 0.46297875 0.9267768
vt 0.46297875 0.9638372
vt 0.4929575 0.9638372
vt 0.48727956 0.9732451
vt 0.46865684 0.9732451
vt 0.4779682 0.97511446
vt 0.4929575 0.9267768
vt 0.46759507 0.92143255
vt 0.46297875 0.9267768
vt 0.4883411 0.92143255
vt 0.47426227 0.91257226
vt 0.4816741 0.91257226
vt 0.5232189 0.9267768
vt 0.4976175 0.92143255
vt 0.5185592 0.92143255
vt 0.5043473 0.91257226
vt 0.5118291 0.91257226
vt 0.4929575 0.9267768
vt 0.46759507 0.92143255
vt 0.46297875 0.9267768
vt 0.4883411 0.92143255
vt 0.47426227 0.91257226
vt 0.4816741 0.91257226
vt 0.5232189 0.9267768
vt 0.4976175 0.92143255
vt 0.5185591 0.92143255
vt 0.5043473 0.91257226
vt 0.5118291 0.91257226
vt 0.4816741 0.91257226
vt 0.47426227 0.90480214
vt 0.47426227 0.91257226
vt 0.4816741 0.90480214
vt 0.46405149 0.89247894
vt 0.49188763 0.89247894
vt 0.46405149 0.88974524
vt 0.49188763 0.88974524
vt 0.5118291 0.91257226
vt 0.5043473 0.90480214
vt 0.5043473 0.91257226
vt 0.5118291 0.90480214
vt 0.49404117 0.89247894
vt 0.52209634 0.89247894
vt 0.49404117 0.88974524
vt 0.52209634 0.88974524
vt 0.4816741 0.91257226
vt 0.47426227 0.90480214
vt 0.47426227 0.91257226
vt 0.4816741 0.90480214
vt 0.46405149 0.89247894
vt 0.49188763 0.89247894
vt 0.46405149 0.88974524
vt 0.49188763 0.88974524
vt 0.5118291 0.91257226
vt 0.5043473 0.90480214
vt 0.5043473 0.91257226
vt 0.5118291 0.90480214
vt 0.49404117 0.89247894
vt 0.52209634 0.89247894
vt 0.49404117 0.88974524
vt 0.52209634 0.88974524
vn -0 0.74709606 -0.6647162
vn 0.43550253 0.64292777 0.63006467
vn -0 0.74709606 0.6647161
vn 0.4355024 0.642928 -0.6300644
vn 0.72974205 0.21836786 0.64791363
vn 0.7297421 0.21836844 -0.64791334
vn 0.62525254 -0.46586862 0.62611955
vn 0.6252523 -0.46586862 -0.6261198
vn -0.6252523 -0.4658686 -0.6261198
vn 0.6252523 -0.46586862 -0.6261198
vn 0.7297421 0.21836844 -0.64791334
vn -0.7297428 0.21836051 -0.6479152
vn -0.7297428 0.21835995 0.6479155
vn -0.62525254 -0.46586862 0.62611955
vn -0.4355083 0.642926 0.6300626
vn -0.43550822 0.6429264 -0.6300621
vn 0.4355024 0.642928 -0.6300644
vn -0 0.74709606 -0.6647162
vn -0.43550822 0.6429264 -0.6300621
vn -0 0.74709606 0.6647161
vn -0 0.74709606 -0.6647162
vn 0.62525254 -0.46586862 0.62611955
vn -0.62525254 -0.46586862 0.62611955
vn -0.7297428 0.21835995 0.6479155
vn 0.72974205 0.21836786 0.64791363
vn 0.43550253 0.64292777 0.63006467
vn -0.4355083 0.642926 0.6300626
vn -0 0.74709606 0.6647161
vn 0.62525254 -0.46586862 0.62611955
vn -0.29711393 -0.90899986 0.2923054
vn -0.62525254 -0.46586862 0.62611955
vn 0.2971129 -0.9090009 0.29230362
vn -0.55933017 -0.6173255 0.553226
vn 0.5593251 -0.61732984 0.55322635
vn 0.6252523 -0.46586862 -0.6261198
vn 0.2971129 -0.9090009 0.29230362
vn 0.29711318 -0.90900105 -0.29230264
vn 0.5593251 -0.61732984 0.55322635
vn 0.5593234 -0.6173302 -0.55322766
vn -0.6252523 -0.4658686 -0.6261198
vn 0.29711318 -0.90900105 -0.29230264
vn 0.6252523 -0.46586862 -0.6261198
vn -0.29711416 -0.90900004 -0.29230458
vn 0.5593234 -0.6173302 -0.55322766
vn -0.559331 -0.6173247 -0.55322605
vn -0.62525254 -0.46586862 0.62611955
vn -0.29711416 -0.90900004 -0.29230458
vn -0.29711393 -0.90899986 0.2923054
vn -0.559331 -0.6173247 -0.55322605
vn -0.55933017 -0.6173255 0.553226
vn 0.5593251 -0.61732984 0.55322635
vn -0.51864797 0.68429965 0.5125801
vn -0.55933017 -0.6173255 0.553226
vn 0.51864326 0.6843025 0.5125809
vn -0.631872 0.44750196 0.6328348
vn 0.6318713 0.4475034 0.63283443
vn -0.707107 0 0.7071065
vn 0.7071063 0 0.7071072
vn -0.55933017 -0.6173255 0.553226
vn -0.5186486 0.6842997 -0.512579
vn -0.559331 -0.6173247 -0.55322605
vn -0.51864797 0.68429965 0.5125801
vn -0.6318715 0.44750234 -0.632835
vn -0.631872 0.44750196 0.6328348
vn -0.7071068 0 -0.7071067
vn -0.707107 0 0.7071065
vn -0.559331 -0.6173247 -0.55322605
vn 0.51864374 0.68430275 -0.51258016
vn 0.5593234 -0.6173302 -0.55322766
vn -0.5186486 0.6842997 -0.512579
vn 0.6318715 0.44750378 -0.63283396
vn -0.6318715 0.44750234 -0.632835
vn 0.7071068 0 -0.70710665
vn -0.7071068 0 -0.7071067
vn 0.5593234 -0.6173302 -0.55322766
vn 0.51864326 0.6843025 0.5125809
vn 0.5593251 -0.61732984 0.55322635
vn 0.51864374 0.68430275 -0.51258016
vn 0.6318713 0.4475034 0.63283443
vn 0.6318715 0.44750378 -0.63283396
vn 0.7071063 0 0.7071072
vn 0.7071068 0 -0.70710665
g fcbg_cityforest_006_ect_01_0
f 3/3/3 2/2/2 1/1/1
f 2/2/2 4/4/4 1/1/1
f 4/4/4 2/2/2 5/5/5
f 6/6/6 4/4/4 5/5/5
f 6/6/6 5/5/5 7/7/7
f 8/8/8 6/6/6 7/7/7
f 11/11/11 10/10/10 9/9/9
f 12/12/12 11/11/11 9/9/9
f 13/13/13 12/12/12 9/9/9
f 14/14/14 13/13/13 9/9/9
f 13/13/13 15/15/15 12/12/12
f 11/11/11 12/12/12 16/16/16
f 17/17/17 11/11/11 16/16/16
f 18/18/18 17/17/17 16/16/16
f 15/15/15 19/19/19 12/12/12
f 15/15/15 20/20/20 19/19/19
f 20/20/20 21/21/21 19/19/19
f 24/24/24 23/23/23 22/22/22
f 25/25/25 24/24/24 22/22/22
f 24/24/24 25/25/25 26/26/26
f 27/27/27 24/24/24 26/26/26
f 28/28/28 27/27/27 26/26/26
f 31/31/31 30/30/30 29/29/29
f 30/30/30 32/32/32 29/29/29
f 30/30/30 33/33/33 32/32/32
f 33/33/33 34/34/34 32/32/32
f 29/29/29 36/36/36 35/35/35
f 36/36/36 37/37/37 35/35/35
f 36/36/36 38/38/38 37/37/37
f 38/38/38 39/39/39 37/37/37
f 42/42/42 41/41/41 40/40/40
f 41/41/41 43/43/43 40/40/40
f 41/41/41 44/44/44 43/43/43
f 44/44/44 45/45/45 43/43/43
f 40/40/40 47/47/47 46/46/46
f 47/47/47 48/48/48 46/46/46
f 47/47/47 49/49/49 48/48/48
f 49/49/49 50/50/50 48/48/48
f 53/53/53 52/52/52 51/51/51
f 52/52/52 54/54/54 51/51/51
f 52/52/52 55/55/55 54/54/54
f 55/55/55 56/56/56 54/54/54
f 55/55/55 57/57/57 56/56/56
f 57/57/57 58/58/58 56/56/56
f 61/61/61 60/60/60 59/59/59
f 60/60/60 62/62/62 59/59/59
f 60/60/60 63/63/63 62/62/62
f 63/63/63 64/64/64 62/62/62
f 63/63/63 65/65/65 64/64/64
f 65/65/65 66/66/66 64/64/64
f 69/69/69 68/68/68 67/67/67
f 68/68/68 70/70/70 67/67/67
f 68/68/68 71/71/71 70/70/70
f 71/71/71 72/72/72 70/70/70
f 71/71/71 73/73/73 72/72/72
f 73/73/73 74/74/74 72/72/72
f 77/77/77 76/76/76 75/75/75
f 76/76/76 78/78/78 75/75/75
f 76/76/76 79/79/79 78/78/78
f 79/79/79 80/80/80 78/78/78
f 79/79/79 81/81/81 80/80/80
f 81/81/81 82/82/82 80/80/80
