g fcbg_cityforest_006_prop_02
v 7.4464216 8.2225 3.7602956
v 7.4464216 1.6482669 3.7602973
v -0.18023941 1.6482669 3.760293
v 0.487448 8.2225 3.7602916
v 5.8426394 8.958864 3.7602935
v 1.6479903 8.958864 3.7602909
v -0.84792614 8.222501 3.7602909
v -7.806899 8.2225 3.7602859
v -7.806899 1.6482669 3.7602875
v -6.2031174 8.958864 3.760286
v -2.0084686 8.958864 3.7602882
v -0.1802347 1.6482657 -3.7602923
v 7.4464264 1.6482657 -3.7602875
v 7.4464264 8.222498 -3.760287
v 0.48745272 8.222498 -3.7602916
v 1.6479951 8.958862 -3.7602918
v 5.842644 8.958862 -3.7602892
v -0.8479214 8.222498 -3.7602923
v -7.8068943 8.222498 -3.7602968
v -7.8068943 1.6482657 -3.7602973
v -2.0084639 8.958863 -3.760294
v -6.2031126 8.958863 -3.7602966
v -7.806899 1.6482669 3.7602875
v -7.806899 8.2225 3.7602859
v 7.4464216 8.2225 3.7602956
v 7.4464264 8.222498 -3.760287
v 7.4464264 1.6482657 -3.7602875
v 7.4464216 1.6482669 3.7602973
v 7.4464264 8.222498 -3.760287
v 7.4464216 8.2225 3.7602956
v 5.8426394 8.958864 3.7602935
v 5.842644 8.958862 -3.7602892
v 1.6479951 8.958862 -3.7602918
v 1.6479903 8.958864 3.7602909
v 0.487448 8.2225 3.7602916
v 0.48745272 8.222498 -3.7602916
v 0.48745272 8.222498 -3.7602916
v 0.487448 8.2225 3.7602916
v -0.84792614 8.222501 3.7602909
v -0.8479214 8.222498 -3.7602923
v -2.0084639 8.958863 -3.760294
v -2.0084686 8.958864 3.7602882
v -6.2031126 8.958863 -3.7602966
v -6.2031174 8.958864 3.760286
v -7.8068943 8.222498 -3.7602968
v -7.806899 8.2225 3.7602859
v -7.750147 3.8972018 1.0114793
v -8.377568 4.7936754 1.0114793
v -8.377568 7.6289387 1.0114794
v -7.750147 8.02316 1.0114797
v -7.750146 3.897201 -1.011491
v -7.750146 8.023159 -1.0114902
v -8.377566 7.628938 -1.0114911
v -8.377566 4.793675 -1.0114912
v -8.377568 4.7936754 1.0114793
v -7.750147 3.8972018 1.0114793
v -7.750146 3.897201 -1.011491
v -8.377568 7.6289387 1.0114794
v -7.750146 8.023159 -1.0114902
v -7.750147 8.02316 1.0114797
v 4.414995 -0.00031072323 -3.9939568
v 8.377574 -0.00031072323 -3.9939544
v 8.377574 1.497104 -3.9939544
v 3.471869 1.497001 -3.9939575
v 7.9883213 1.7210761 -3.9939547
v -8.152709 1.7210754 -3.9939647
v -4.8314342 1.497001 -3.9939628
v -4.8314342 1.1282559E-06 -3.9939628
v -8.1528635 1.7458174E-07 -3.9939647
v -8.152715 1.7210766 3.993955
v 7.9883165 1.7210773 3.9939663
v 8.377574 1.497104 -3.9939544
v 8.377568 1.4971052 3.9939668
v 8.377574 -0.00031072323 -3.9939544
v 8.377568 -0.00031011875 3.993967
v -4.8314342 1.497001 -3.9939628
v -4.8314342 1.1282559E-06 -3.9939628
v -4.831439 2.6864416E-06 3.993957
v -4.831439 1.4970022 3.9939568
v 8.377568 1.4971052 3.9939668
v 8.377568 -0.00031011875 3.993967
v 4.4149904 -0.00031011875 3.9939644
v 3.471863 1.4970022 3.9939635
v 7.9883165 1.7210773 3.9939663
v -8.152715 1.7210766 3.993955
v -4.831439 1.4970022 3.9939568
v -4.831439 2.6864416E-06 3.993957
v -8.152869 2.6864416E-06 3.993955
v 3.471869 1.497001 -3.9939575
v 3.471863 1.4970022 3.9939635
v 4.4149904 -0.00031011875 3.9939644
v 4.414995 -0.00031072323 -3.9939568
v -8.152709 1.7210754 -3.9939647
v -8.152715 1.7210766 3.993955
v -8.152869 2.6864416E-06 3.993955
v -8.1528635 1.7458174E-07 -3.9939647
vt 0.81450915 0.6594917
vt 0.85297954 0.6594917
vt 0.85297954 0.7040114
vt 0.81450915 0.7001709
vt 0.8102616 0.6688963
vt 0.8102616 0.69339854
vt 0.81450915 0.7079712
vt 0.81450915 0.748591
vt 0.85297954 0.748591
vt 0.8102616 0.7392591
vt 0.8102616 0.7147569
vt 0.85297954 0.7040411
vt 0.85297954 0.6594917
vt 0.81450915 0.6594917
vt 0.81450915 0.7001415
vt 0.8102616 0.6933625
vt 0.8102616 0.66886026
vt 0.81450915 0.7079417
vt 0.81450915 0.748591
vt 0.85297954 0.748591
vt 0.8102616 0.71472085
vt 0.8102616 0.7392232
vt 0.85297954 0.7924979
vt 0.81450915 0.7924979
vt 0.81450915 0.7924979
vt 0.81450915 0.748591
vt 0.85297954 0.748591
vt 0.85297954 0.7924979
vt 0.9156072 0.90104604
vt 0.9156072 0.944944
vt 0.92611784 0.944944
vt 0.92611784 0.90104604
vt 0.9505402 0.90104604
vt 0.9505402 0.944944
vt 0.95892936 0.944944
vt 0.95892936 0.90104604
vt 0.9667307 0.90104604
vt 0.9667307 0.944944
vt 0.95892936 0.944944
vt 0.95892936 0.90104604
vt 0.9505402 0.90104604
vt 0.9505402 0.944944
vt 0.92611784 0.90104604
vt 0.92611784 0.944944
vt 0.91560733 0.90104604
vt 0.91560733 0.944944
vt 0.80502784 0.77205145
vt 0.7977295 0.78156424
vt 0.7977295 0.81165016
vt 0.80502784 0.81583333
vt 0.80502784 0.77205145
vt 0.80502784 0.81583333
vt 0.7977295 0.81165016
vt 0.7977295 0.78156424
vt 0.77689874 0.78156424
vt 0.77689874 0.7699497
vt 0.79772985 0.7699497
vt 0.77689874 0.81165016
vt 0.7977295 0.81951785
vt 0.77689874 0.81951785
vt 0.98016274 0.816019
vt 0.98016274 0.78988314
vt 0.97029775 0.78988314
vt 0.9702829 0.82224154
vt 0.96880686 0.7924488
vt 0.96880686 0.89819384
vt 0.9702829 0.87701523
vt 0.98014766 0.87701523
vt 0.98014766 0.89819384
vt 0.9161757 0.89819217
vt 0.9161757 0.7924488
vt 0.96880686 0.7887149
vt 0.9161757 0.7887145
vt 0.96880686 0.7793508
vt 0.9161757 0.7793501
vt 0.85948044 0.88032776
vt 0.85948336 0.89019525
vt 0.9121333 0.8901955
vt 0.9121364 0.880328
vt 0.9702992 0.78988314
vt 0.98016274 0.78988314
vt 0.98016274 0.81602556
vt 0.9702829 0.8222426
vt 0.96880686 0.7924488
vt 0.96880686 0.89819384
vt 0.9702829 0.87701523
vt 0.98014766 0.87701523
vt 0.98014766 0.89819384
vt 0.8594772 0.82555526
vt 0.9121151 0.82555526
vt 0.91211724 0.81389093
vt 0.8594751 0.81389093
vt 0.96880686 0.7887149
vt 0.9161757 0.78871655
vt 0.9161757 0.77935046
vt 0.96880686 0.7793508
vn 0.6712986 0.43039787 0.60342014
vn 0.70710677 0 0.70710677
vn -0 0 1
vn -0.1760825 0.6061604 0.77560586
vn 0.16007616 0.73214453 0.6620725
vn -0.21211755 0.73031193 0.6493463
vn 0.17607965 0.60616076 0.77560633
vn -0.67128074 0.4304818 0.6033802
vn -0.70710677 0 0.70710677
vn -0.16007003 0.73221195 0.6619995
vn 0.21211755 0.73031193 0.6493463
vn -0 0 -1
vn 0.70710677 0 -0.70710677
vn 0.67128074 0.4304818 -0.6033802
vn -0.1760825 0.6061604 -0.77560586
vn -0.21211755 0.73031193 -0.6493463
vn 0.16007003 0.73221195 -0.6619995
vn 0.17607965 0.60616076 -0.77560633
vn -0.67128074 0.4304818 -0.6033802
vn -0.70710677 0 -0.70710677
vn 0.21212576 0.7302448 -0.64941907
vn -0.16007616 0.73214453 -0.6620725
vn -0.70710677 0 0.70710677
vn -0.67128074 0.4304818 0.6033802
vn 0.6712986 0.43039787 0.60342014
vn 0.67128074 0.4304818 -0.6033802
vn 0.70710677 0 -0.70710677
vn 0.70710677 0 0.70710677
vn 0.67128074 0.4304818 -0.6033802
vn 0.6712986 0.43039787 0.60342014
vn 0.16007616 0.73214453 0.6620725
vn 0.16007003 0.73221195 -0.6619995
vn -0.21211755 0.73031193 -0.6493463
vn -0.21211755 0.73031193 0.6493463
vn -0.1760825 0.6061604 0.77560586
vn -0.1760825 0.6061604 -0.77560586
vn -0.1760825 0.6061604 -0.77560586
vn -0.1760825 0.6061604 0.77560586
vn 0.17607965 0.60616076 0.77560633
vn 0.17607965 0.60616076 -0.77560633
vn 0.21212576 0.7302448 -0.64941907
vn 0.21211755 0.73031193 0.6493463
vn -0.16007616 0.73214453 -0.6620725
vn -0.16007003 0.73221195 0.6619995
vn -0.67128074 0.4304818 -0.6033802
vn -0.67128074 0.4304818 0.6033802
vn -0.7636037 -0.53443676 0.36233506
vn -0.72860473 -0.22964402 0.64528966
vn -0.69169384 0.38227695 0.6127184
vn -0.447521 0.7122188 0.5408042
vn -0.7636134 -0.53441966 -0.36233965
vn -0.44750214 0.7122842 -0.54073375
vn -0.69169384 0.38227695 -0.6127184
vn -0.72860473 -0.22964402 -0.64528966
vn -0.72860473 -0.22964402 0.64528966
vn -0.7636037 -0.53443676 0.36233506
vn -0.7636134 -0.53441966 -0.36233965
vn -0.69169384 0.38227695 0.6127184
vn -0.44750214 0.7122842 -0.54073375
vn -0.447521 0.7122188 0.5408042
vn -0.38185802 -0.69187915 -0.6127705
vn 0.5773516 -0.57734746 -0.5773516
vn 0.68598706 0.39678147 -0.6099067
vn -0.26697809 -0.48365045 -0.83354956
vn 0.19540979 0.7314278 -0.6533211
vn -0.5773542 0.5773661 -0.57733035
vn 0.30150914 -0.301533 -0.9045275
vn 0.5773516 -0.57734746 -0.5773516
vn -0.57736224 -0.5773263 -0.57736224
vn -0.5773542 0.5773661 0.57733035
vn 0.19540921 0.73136586 0.6533905
vn 0.68598706 0.39678147 -0.6099067
vn 0.68599033 0.39677146 0.6099096
vn 0.5773516 -0.57734746 -0.5773516
vn 0.5773516 -0.57734746 0.5773516
vn 0.30150914 -0.301533 -0.9045275
vn 0.5773516 -0.57734746 -0.5773516
vn 0.5773516 -0.57734746 0.5773516
vn 0.30150595 -0.30149403 0.9045417
vn 0.68599033 0.39677146 0.6099096
vn 0.5773516 -0.57734746 0.5773516
vn -0.3818464 -0.6918176 0.6128472
vn -0.26693466 -0.48361045 0.8335867
vn 0.19540921 0.73136586 0.6533905
vn -0.5773542 0.5773661 0.57733035
vn 0.30150595 -0.30149403 0.9045417
vn 0.5773516 -0.57734746 0.5773516
vn -0.57736224 -0.5773263 0.57736224
vn -0.26697809 -0.48365045 -0.83354956
vn -0.26693466 -0.48361045 0.8335867
vn -0.3818464 -0.6918176 0.6128472
vn -0.38185802 -0.69187915 -0.6127705
vn -0.5773542 0.5773661 -0.57733035
vn -0.5773542 0.5773661 0.57733035
vn -0.57736224 -0.5773263 0.57736224
vn -0.57736224 -0.5773263 -0.57736224
g fcbg_cityforest_006_prop_02_0
f 3/3/3 2/2/2 1/1/1
f 4/4/4 3/3/3 1/1/1
f 1/1/1 5/5/5 4/4/4
f 5/5/5 6/6/6 4/4/4
f 3/3/3 4/4/4 7/7/7
f 7/7/7 8/8/8 3/3/3
f 8/8/8 9/9/9 3/3/3
f 10/10/10 8/8/8 7/7/7
f 11/11/11 10/10/10 7/7/7
f 14/14/14 13/13/13 12/12/12
f 15/15/15 14/14/14 12/12/12
f 15/15/15 16/16/16 14/14/14
f 16/16/16 17/17/17 14/14/14
f 18/18/18 15/15/15 12/12/12
f 18/18/18 12/12/12 19/19/19
f 12/12/12 20/20/20 19/19/19
f 21/21/21 18/18/18 19/19/19
f 22/22/22 21/21/21 19/19/19
f 20/20/20 23/23/23 19/19/19
f 23/23/23 24/24/24 19/19/19
f 27/27/27 26/26/26 25/25/25
f 28/28/28 27/27/27 25/25/25
f 31/31/31 30/30/30 29/29/29
f 32/32/32 31/31/31 29/29/29
f 32/32/32 33/33/33 31/31/31
f 33/33/33 34/34/34 31/31/31
f 34/34/34 33/33/33 35/35/35
f 33/33/33 36/36/36 35/35/35
f 39/39/39 38/38/38 37/37/37
f 40/40/40 39/39/39 37/37/37
f 39/39/39 40/40/40 41/41/41
f 42/42/42 39/39/39 41/41/41
f 41/41/41 43/43/43 42/42/42
f 43/43/43 44/44/44 42/42/42
f 43/43/43 45/45/45 44/44/44
f 45/45/45 46/46/46 44/44/44
f 49/49/49 48/48/48 47/47/47
f 50/50/50 49/49/49 47/47/47
f 53/53/53 52/52/52 51/51/51
f 54/54/54 53/53/53 51/51/51
f 53/53/53 54/54/54 55/55/55
f 55/55/55 54/54/54 56/56/56
f 54/54/54 57/57/57 56/56/56
f 58/58/58 53/53/53 55/55/55
f 59/59/59 53/53/53 58/58/58
f 60/60/60 59/59/59 58/58/58
f 63/63/63 62/62/62 61/61/61
f 64/64/64 63/63/63 61/61/61
f 65/65/65 63/63/63 64/64/64
f 66/66/66 65/65/65 64/64/64
f 67/67/67 66/66/66 64/64/64
f 66/66/66 67/67/67 68/68/68
f 69/69/69 66/66/66 68/68/68
f 66/66/66 70/70/70 65/65/65
f 70/70/70 71/71/71 65/65/65
f 65/65/65 71/71/71 72/72/72
f 71/71/71 73/73/73 72/72/72
f 72/72/72 73/73/73 74/74/74
f 73/73/73 75/75/75 74/74/74
f 78/78/78 77/77/77 76/76/76
f 79/79/79 78/78/78 76/76/76
f 82/82/82 81/81/81 80/80/80
f 83/83/83 82/82/82 80/80/80
f 80/80/80 84/84/84 83/83/83
f 84/84/84 85/85/85 83/83/83
f 85/85/85 86/86/86 83/83/83
f 87/87/87 86/86/86 85/85/85
f 88/88/88 87/87/87 85/85/85
f 91/91/91 90/90/90 89/89/89
f 92/92/92 91/91/91 89/89/89
f 95/95/95 94/94/94 93/93/93
f 96/96/96 95/95/95 93/93/93
