g fcbg_desert_001_factory_05
v -6.55118 2.9146373 1.6842146
v -6.829794 2.9146373 0.8234117
v -5.7211404 2.9146373 0.5415597
v 6.829794 2.9146373 1.6842146
v -6.55118 4.1712124E-08 1.6842146
v 6.829794 4.1712124E-08 1.6842146
v -6.829794 7.4210833E-09 0.8234117
v -6.829794 2.9146373 0.8234117
v 2.1065722 2.9146373 -1.483531
v 2.1065722 3.1268063 -1.483531
v -5.7211404 3.1268063 0.5415597
v 2.0477514 3.1268063 -1.7997234
v -5.8051534 3.1268063 0.17775106
v 7.0396843 3.1268063 -1.7997234
v 6.829794 3.1268063 -1.483531
v 8.433994 3.1268063 0.6794963
v 8.127451 3.1268063 0.9008718
v 6.829794 2.9146373 -1.483531
v 8.127451 2.9146373 0.9008718
v 7.6930084 2.9146373 1.2137709
v 7.1736655 2.9146373 2.1392846
v 7.963809 2.9146373 1.6640779
v -6.829794 7.4210833E-09 0.8234117
v -5.7211404 2.9146373 0.5415597
v -6.829794 2.9146373 0.8234117
v -5.7211404 -3.8068064E-09 0.5415597
v -5.8051534 -1.8299529E-08 0.17775106
v -5.8051534 3.1268063 0.17775106
v -5.7211404 3.1268063 0.5415597
v 2.0477514 -9.7074434E-08 -1.7997234
v 2.0477514 3.1268063 -1.7997234
v 7.0396843 -9.7074434E-08 -1.7997234
v 7.0396843 3.1268063 -1.7997234
v 8.433994 1.6880517E-09 0.6794963
v 8.433994 3.1268063 0.6794963
v 6.829794 2.9146373 1.6842146
v 7.1736655 5.9840346E-08 2.1392846
v 6.829794 4.1712124E-08 1.6842146
v 7.1736655 2.9146373 2.1392846
v 7.963809 4.090996E-08 1.664078
v 7.963809 2.9146373 1.6640779
v 7.6930084 2.2971475E-08 1.2137709
v 7.6930084 2.9146373 1.2137709
v 8.127451 2.9146373 0.9008718
v 8.433994 1.6880517E-09 0.6794963
v 8.433994 3.1268063 0.6794963
v 8.127451 3.1268063 0.9008718
v 4.765808 3.0768597 0.47191888
v 4.765808 3.0768595 -0.60278016
v 6.363285 3.0768595 -0.60278016
v 6.363285 3.0768597 0.47191888
v 4.765808 2.9000099 0.47191882
v 4.765808 3.0768597 0.47191888
v 6.363285 3.0768597 0.47191888
v 6.363285 2.9000099 0.47191882
v 6.363285 2.9000099 0.47191882
v 6.363285 3.0768597 0.47191888
v 6.363285 3.0768595 -0.60278016
v 6.363285 2.9000099 -0.6027802
v 6.363285 2.9000099 -0.6027802
v 6.363285 3.0768595 -0.60278016
v 4.765808 3.0768595 -0.60278016
v 4.765808 2.9000099 -0.6027802
v 4.765808 2.9000099 -0.6027802
v 4.765808 3.0768595 -0.60278016
v 4.765808 3.0768597 0.47191888
v 4.765808 2.9000099 0.47191882
vt 0.88415396 0.08787757
vt 0.858912 0.09009786
vt 0.85422593 0.11118214
vt 0.88415396 0.45753527
vt 0.9375586 0.08787757
vt 0.9375586 0.45753527
vt 0.9375586 0.05963547
vt 0.88415396 0.05963547
vt 0.8004758 0.3271944
vt 0.7909214 0.3271944
vt 0.84467167 0.11064792
vt 0.78252894 0.32557106
vt 0.8350153 0.10886398
vt 0.78252894 0.46332747
vt 0.7909213 0.45753527
vt 0.8483327 0.50180453
vt 0.85420847 0.49334532
vt 0.8004758 0.45753527
vt 0.863763 0.49334532
vt 0.8715024 0.48060465
vt 0.8966329 0.4665359
vt 0.88346857 0.4877864
vt 0.99603736 0.43174028
vt 0.94601434 0.4048521
vt 0.94601434 0.43174028
vt 0.9960375 0.4048521
vt 0.9960375 0.3937393
vt 0.94236284 0.3937393
vt 0.94236284 0.4048521
vt 0.9960375 0.23430422
vt 0.94236284 0.23430422
vt 0.9960375 0.12777396
vt 0.94236284 0.12777396
vt 0.9960375 0.061058864
vt 0.94236284 0.061058864
vt 0.942429 0.4362918
vt 0.9958743 0.45147538
vt 0.9958743 0.4362918
vt 0.942429 0.45147538
vt 0.9958743 0.4728297
vt 0.942429 0.4728297
vt 0.9958743 0.48087692
vt 0.942429 0.48087692
vt 0.942429 0.49300867
vt 0.9958743 0.5020859
vt 0.9373541 0.5020859
vt 0.9373541 0.49300867
vt 0.7384401 0.42028487
vt 0.7384401 0.44016513
vt 0.7672312 0.44016513
vt 0.7672312 0.42028487
vt 0.7346227 0.41753995
vt 0.7384401 0.42028487
vt 0.7672312 0.42028487
vt 0.7709595 0.41753995
vt 0.7709595 0.41753995
vt 0.7672312 0.42028487
vt 0.7672312 0.44016513
vt 0.7709595 0.4418176
vt 0.7709595 0.4418176
vt 0.7672312 0.44016513
vt 0.7384401 0.44016513
vt 0.7346227 0.4418176
vt 0.7346227 0.4418176
vt 0.7384401 0.44016513
vt 0.7384401 0.42028487
vt 0.7346227 0.41753995
vn -0.47251555 0.5956214 0.64958763
vn -0.7168417 0.5740556 -0.39572462
vn -0.687797 0.7083218 0.15879367
vn -0.2535204 0.82237923 0.5093328
vn -0.5882434 0 0.8086839
vn -0.4456014 0 0.8952315
vn -0.8754609 0 -0.48328876
vn -0.7168417 0.5740556 -0.39572462
vn 0.092588775 0.67976594 0.7275614
vn 0.08537264 0.73665625 0.6708571
vn -0.42402792 0.57598454 0.69888645
vn -0.0901576 0.6804354 -0.72724086
vn -0.6960567 0.5783952 -0.42539853
vn 0.40038502 0.60918057 -0.68453693
vn -0.2756578 0.841932 0.463857
vn 0.79312766 0.583534 0.17446077
vn -0.1819433 0.57096195 0.8005618
vn -0.40552744 0.6081846 0.6823922
vn 0.27183187 0.33476827 0.9022403
vn 0.43755284 0.89468944 0.08988041
vn -0.15431719 0.58310986 0.7976021
vn 0.7923191 0.5773522 0.19721797
vn -0.8754609 0 -0.48328876
vn -0.687797 0.7083218 0.15879367
vn -0.7168417 0.5740556 -0.39572462
vn -0.8538563 0 -0.52050877
vn -0.8532651 0 -0.5214774
vn -0.6960567 0.5783952 -0.42539853
vn -0.42402792 0.57598454 0.69888645
vn -0.123030305 0 -0.9924029
vn -0.0901576 0.6804354 -0.72724086
vn 0.504879 0 -0.86319005
vn 0.40038502 0.60918057 -0.68453693
vn 0.97657794 -5.958852E-05 0.2151643
vn 0.79312766 0.583534 0.17446077
vn -0.2535204 0.82237923 0.5093328
vn -0.18995377 0 0.981793
vn -0.4456014 0 0.8952315
vn -0.15431719 0.58310986 0.7976021
vn 0.9703903 0 0.24154213
vn 0.7923191 0.5773522 0.19721797
vn 0.9795941 -5.8185327E-05 0.20098636
vn 0.43755284 0.89468944 0.08988041
vn 0.27183187 0.33476827 0.9022403
vn 0.97657794 -5.958852E-05 0.2151643
vn 0.79312766 0.583534 0.17446077
vn -0.1819433 0.57096195 0.8005618
vn -0 1 0
vn -0 1 0
vn -0 1 0
vn -0 1 0
vn -0 0 1
vn -0 0 1
vn -0 0 1
vn -0 0 1
vn 1 0 0
vn 1 0 0
vn 1 0 0
vn 1 0 0
vn -0 0 -1
vn -0 0 -1
vn -0 0 -1
vn -0 0 -1
vn -1 0 0
vn -1 0 0
vn -1 0 0
vn -1 0 0
g fcbg_desert_001_factory_05_0
f 3/3/3 2/2/2 1/1/1
f 4/4/4 3/3/3 1/1/1
f 4/4/4 1/1/1 5/5/5
f 6/6/6 4/4/4 5/5/5
f 5/5/5 1/1/1 7/7/7
f 1/1/1 8/8/8 7/7/7
f 9/9/9 3/3/3 4/4/4
f 9/9/9 10/10/10 3/3/3
f 10/10/10 11/11/11 3/3/3
f 10/10/10 12/12/12 11/11/11
f 12/12/12 13/13/13 11/11/11
f 14/14/14 12/12/12 10/10/10
f 15/15/15 14/14/14 10/10/10
f 15/15/15 10/10/10 9/9/9
f 16/16/16 14/14/14 15/15/15
f 17/17/17 16/16/16 15/15/15
f 18/18/18 15/15/15 9/9/9
f 17/17/17 15/15/15 18/18/18
f 18/18/18 9/9/9 4/4/4
f 19/19/19 17/17/17 18/18/18
f 19/19/19 18/18/18 20/20/20
f 20/20/20 18/18/18 4/4/4
f 4/4/4 21/21/21 20/20/20
f 21/21/21 22/22/22 20/20/20
f 25/25/25 24/24/24 23/23/23
f 24/24/24 26/26/26 23/23/23
f 24/24/24 27/27/27 26/26/26
f 24/24/24 28/28/28 27/27/27
f 29/29/29 28/28/28 24/24/24
f 27/27/27 28/28/28 30/30/30
f 28/28/28 31/31/31 30/30/30
f 30/30/30 31/31/31 32/32/32
f 31/31/31 33/33/33 32/32/32
f 32/32/32 33/33/33 34/34/34
f 33/33/33 35/35/35 34/34/34
f 38/38/38 37/37/37 36/36/36
f 37/37/37 39/39/39 36/36/36
f 39/39/39 37/37/37 40/40/40
f 41/41/41 39/39/39 40/40/40
f 41/41/41 40/40/40 42/42/42
f 43/43/43 41/41/41 42/42/42
f 44/44/44 43/43/43 42/42/42
f 45/45/45 44/44/44 42/42/42
f 45/45/45 46/46/46 44/44/44
f 46/46/46 47/47/47 44/44/44
f 50/50/50 49/49/49 48/48/48
f 51/51/51 50/50/50 48/48/48
f 54/54/54 53/53/53 52/52/52
f 55/55/55 54/54/54 52/52/52
f 58/58/58 57/57/57 56/56/56
f 59/59/59 58/58/58 56/56/56
f 62/62/62 61/61/61 60/60/60
f 63/63/63 62/62/62 60/60/60
f 66/66/66 65/65/65 64/64/64
f 67/67/67 66/66/66 64/64/64
