g fcbg_cityforest_007_stone_06
v 0.96932554 0.6409539 0.30932283
v 1.1618197 0.00020551682 0.40313566
v 0.302047 0.00020551682 1.2456014
v 0.23707926 0.6409539 1.0268352
v -0.3454938 0.6409539 -0.7939333
v -1.2253833 0.00020551682 0.24005377
v 1.0576638 0.6409539 -0.54794425
v 1.2655363 0.00020551682 -0.6034257
v -1.0638051 0.6409539 0.17042744
v -1.2655249 0.00020551682 -0.12116814
v -0.07982743 0.6409539 -1.0948751
v -0.07005155 0.00020551682 -1.2456031
v -0.38198102 0.00020551682 -0.89225256
v -0.764734 0.6409539 -0.7675744
v -0.8742318 0.00020551682 -0.8613051
v -1.097992 0.6409539 -0.13721752
vt 0.86289966 0.0993817
vt 0.8773712 0.08777716
vt 0.84795785 0.07028692
vt 0.8475786 0.08748895
vt 0.83864385 0.12319755
vt 0.80921537 0.09514946
vt 0.86644924 0.11256385
vt 0.8815276 0.11917768
vt 0.82491565 0.103340894
vt 0.8057264 0.10711806
vt 0.8475331 0.12861301
vt 0.85006636 0.14843932
vt 0.8346392 0.13644038
vt 0.82843494 0.121240705
vt 0.8156472 0.135242
vt 0.8235959 0.109590665
vn 0.5925803 0.7529966 0.286085
vn 0.85426944 0.31625873 0.41255808
vn 0.11163825 0.3304041 0.93721396
vn 0.04621601 0.71232873 0.7003227
vn -0.23315483 0.84670967 -0.47824842
vn -0.8272597 0.2632137 0.49634653
vn 0.599653 0.71232873 -0.36469722
vn 0.8401241 0.31095427 -0.44440857
vn -0.5885568 0.7194014 0.36886644
vn -0.95456797 0.24553198 -0.16886108
vn -0.1659643 0.6751972 -0.7187243
vn -0.173037 0.2225458 -0.9594434
vn -0.4382624 0.16065985 -0.88437235
vn -0.3799129 0.68934256 -0.6168249
vn -0.5443526 0.21193677 -0.81164217
vn -0.66458815 0.7353149 -0.13279499
g fcbg_cityforest_007_stone_06_0
f 3/3/3 2/2/2 1/1/1
f 4/4/4 3/3/3 1/1/1
f 4/4/4 1/1/1 5/5/5
f 6/6/6 3/3/3 4/4/4
f 1/1/1 2/2/2 7/7/7
f 5/5/5 1/1/1 7/7/7
f 2/2/2 8/8/8 7/7/7
f 9/9/9 6/6/6 4/4/4
f 9/9/9 4/4/4 5/5/5
f 10/10/10 6/6/6 9/9/9
f 7/7/7 8/8/8 11/11/11
f 11/11/11 5/5/5 7/7/7
f 8/8/8 12/12/12 11/11/11
f 11/11/11 12/12/12 5/5/5
f 12/12/12 13/13/13 5/5/5
f 5/5/5 13/13/13 14/14/14
f 9/9/9 5/5/5 14/14/14
f 13/13/13 15/15/15 14/14/14
f 15/15/15 10/10/10 16/16/16
f 16/16/16 10/10/10 9/9/9
f 14/14/14 15/15/15 16/16/16
f 16/16/16 9/9/9 14/14/14
