g fcbg_iceland_005_gatefence_01
v -4.7336483 0.018254874 -0.093106955
v -4.7336483 3.6288445 0.09310475
v -4.7336483 0.018254837 0.093104206
v -4.7336483 3.6288435 -0.09310651
v -4.7336483 7.2333746 -0.09310496
v -4.7336483 7.2333746 0.09310616
v -4.7336483 0.018254874 -0.093106955
v -4.475233 3.627607 -0.09151682
v -4.7336483 3.6288435 -0.09310651
v -4.475233 0.019139295 -0.09151715
v -4.475233 3.627607 0.08447936
v -4.475233 0.01913926 0.08447877
v 4.7336483 0.018254874 -0.09310612
v 4.7336483 0.018254837 0.093105026
v 4.7336483 3.6288445 0.09310558
v 4.7336483 3.6288435 -0.09310566
v 4.7336483 7.2333746 -0.093104124
v 4.7336483 7.2333746 0.093106985
v 4.7336483 0.018254874 -0.09310612
v 4.7336483 3.6288435 -0.09310566
v 4.475232 3.627607 -0.09151605
v 4.475232 0.019139295 -0.091516376
v 4.475232 3.627607 0.084480144
v 4.475232 0.01913926 0.084479555
v -4.7336483 0.018254837 0.093104206
v -4.7336483 3.6288445 0.09310475
v -4.475233 3.627607 0.08447936
v -4.475233 0.01913926 0.08447877
v 4.7336483 0.018254837 0.093105026
v 4.475232 0.01913926 0.084479555
v 4.475232 3.627607 0.084480144
v 4.7336483 3.6288445 0.09310558
v -4.7336483 7.2333746 -0.09310496
v -4.7336483 3.6288435 -0.09310651
v -4.475233 3.627607 -0.09151682
v -4.475233 6.978836 -0.0915152
v -0 7.2333746 -0.09310454
v -4.475233 3.627607 0.08447936
v -4.7336483 7.2333746 0.09310616
v -4.475233 6.978836 0.08448075
v -0 7.232761 0.09310657
v 4.7336483 7.2333746 0.093106985
v -0 6.978836 0.084481135
v 4.7336483 7.2333746 -0.093104124
v -0 6.978836 -0.091514826
v 4.475232 6.978836 -0.09151444
v 4.475232 6.978836 0.08448153
v 4.475232 3.627607 0.084480144
v 4.475232 3.627607 -0.09151605
v 4.7336483 3.6288435 -0.09310566
v -4.7336483 7.2333746 0.09310616
v -4.475233 3.627607 0.08447936
v -4.7336483 3.6288445 0.09310475
v -4.475233 6.978836 0.08448075
v -0 7.232761 0.09310657
v -0 6.978836 0.084481135
v 4.475232 6.978836 0.08448153
v 4.7336483 7.2333746 0.093106985
v 4.475232 3.627607 0.084480144
v 4.7336483 3.6288445 0.09310558
vt 0.31086785 0.79269797
vt 0.29943442 0.74189657
vt 0.29943442 0.79269797
vt 0.31086785 0.74189657
vt 0.31086785 0.7838644
vt 0.29943442 0.7838644
vt 0.292662 0.792698
vt 0.29943442 0.7587775
vt 0.292662 0.7587775
vt 0.29943442 0.792698
vt 0.31086785 0.7587775
vt 0.31086785 0.792698
vt 0.31086785 0.79269797
vt 0.29943442 0.79269797
vt 0.29943442 0.74189657
vt 0.31086785 0.74189657
vt 0.31086785 0.7838644
vt 0.29943442 0.7838644
vt 0.292662 0.792698
vt 0.292662 0.7587775
vt 0.29943442 0.7587775
vt 0.29943442 0.792698
vt 0.31086785 0.7587775
vt 0.31086785 0.792698
vt 0.292662 0.792698
vt 0.292662 0.7587775
vt 0.29943442 0.7587775
vt 0.29943442 0.792698
vt 0.292662 0.792698
vt 0.29943442 0.792698
vt 0.29943442 0.7587775
vt 0.292662 0.7587775
vt 0.292662 0.7838644
vt 0.292662 0.7558164
vt 0.29943442 0.7558164
vt 0.29943442 0.7838644
vt 0.292662 0.74190116
vt 0.31086785 0.7558164
vt 0.2835191 0.7838644
vt 0.31086785 0.7838644
vt 0.2835191 0.74190116
vt 0.2835191 0.7838644
vt 0.31086785 0.74190116
vt 0.292662 0.7838644
vt 0.29943442 0.74190116
vt 0.29943442 0.7838644
vt 0.31086785 0.7838644
vt 0.31086785 0.7558164
vt 0.29943442 0.7558164
vt 0.292662 0.7558164
vt 0.292662 0.7838644
vt 0.29943442 0.7558164
vt 0.292662 0.7558164
vt 0.29943442 0.7838644
vt 0.292662 0.74190116
vt 0.29943442 0.74190116
vt 0.29943442 0.7838644
vt 0.292662 0.7838644
vt 0.29943442 0.7558164
vt 0.292662 0.7558164
vn -0.70572704 0 -0.7084838
vn -0.69573635 0 0.7182971
vn -0.6961086 0 0.71793646
vn -0.70531744 0 -0.70889163
vn -0.5770272 0.5770272 -0.5779959
vn -0.5748539 0.57246864 0.58465594
vn -0.70572704 0 -0.7084838
vn 0.7099301 0 -0.70427215
vn -0.70531744 0 -0.70889163
vn 0.7082982 0 -0.70591336
vn 0.7182216 0 0.69581443
vn 0.717849 0 0.69619876
vn 0.70572704 0 -0.7084838
vn 0.6961086 0 0.71793646
vn 0.6957178 0 0.71831524
vn 0.70531744 0 -0.70889163
vn 0.57705206 0.57705206 -0.57794625
vn 0.5748414 0.5724562 0.5846805
vn 0.70572704 0 -0.7084838
vn 0.70531744 0 -0.70889163
vn -0.7099301 0 -0.70427215
vn -0.7082982 0 -0.70591336
vn -0.7182216 0 0.69581443
vn -0.717849 0 0.69619876
vn -0.6961086 0 0.71793646
vn -0.69573635 0 0.7182971
vn 0.7182216 0 0.69581443
vn 0.717849 0 0.69619876
vn 0.6961086 0 0.71793646
vn -0.717849 0 0.69619876
vn -0.7182216 0 0.69581443
vn 0.6957178 0 0.71831524
vn -0.5770272 0.5770272 -0.5779959
vn -0.70531744 0 -0.70889163
vn 0.7099301 0 -0.70427215
vn 0.30275488 -0.30513874 -0.90290076
vn -0 0.7044153 -0.70978796
vn 0.7182216 0 0.69581443
vn -0.5748539 0.57246864 0.58465594
vn 0.3145685 -0.3145685 0.8955967
vn -0 0.69532716 0.71869326
vn 0.5748414 0.5724562 0.5846805
vn -0 -0.7194855 0.6945075
vn 0.57705206 0.57705206 -0.57794625
vn -0 -0.7087082 -0.70550174
vn -0.3027752 -0.3051593 -0.90288705
vn -0.3145685 -0.3145685 0.8955967
vn -0.7182216 0 0.69581443
vn -0.7099301 0 -0.70427215
vn 0.70531744 0 -0.70889163
vn -0.5748539 0.57246864 0.58465594
vn 0.7182216 0 0.69581443
vn -0.69573635 0 0.7182971
vn 0.3145685 -0.3145685 0.8955967
vn -0 0.69532716 0.71869326
vn -0 -0.7194855 0.6945075
vn -0.3145685 -0.3145685 0.8955967
vn 0.5748414 0.5724562 0.5846805
vn -0.7182216 0 0.69581443
vn 0.6957178 0 0.71831524
g fcbg_iceland_005_gatefence_01_0
f 3/3/3 2/2/2 1/1/1
f 2/2/2 4/4/4 1/1/1
f 4/4/4 2/2/2 5/5/5
f 2/2/2 6/6/6 5/5/5
f 9/9/9 8/8/8 7/7/7
f 8/8/8 10/10/10 7/7/7
f 8/8/8 11/11/11 10/10/10
f 11/11/11 12/12/12 10/10/10
f 15/15/15 14/14/14 13/13/13
f 16/16/16 15/15/15 13/13/13
f 15/15/15 16/16/16 17/17/17
f 18/18/18 15/15/15 17/17/17
f 21/21/21 20/20/20 19/19/19
f 22/22/22 21/21/21 19/19/19
f 23/23/23 21/21/21 22/22/22
f 24/24/24 23/23/23 22/22/22
f 27/27/27 26/26/26 25/25/25
f 28/28/28 27/27/27 25/25/25
f 31/31/31 30/30/30 29/29/29
f 32/32/32 31/31/31 29/29/29
f 35/35/35 34/34/34 33/33/33
f 36/36/36 35/35/35 33/33/33
f 36/36/36 33/33/33 37/37/37
f 38/38/38 35/35/35 36/36/36
f 33/33/33 39/39/39 37/37/37
f 40/40/40 38/38/38 36/36/36
f 39/39/39 41/41/41 37/37/37
f 37/37/37 41/41/41 42/42/42
f 40/40/40 36/36/36 43/43/43
f 44/44/44 37/37/37 42/42/42
f 36/36/36 45/45/45 43/43/43
f 45/45/45 36/36/36 37/37/37
f 43/43/43 45/45/45 46/46/46
f 46/46/46 45/45/45 37/37/37
f 44/44/44 46/46/46 37/37/37
f 47/47/47 43/43/43 46/46/46
f 48/48/48 47/47/47 46/46/46
f 49/49/49 48/48/48 46/46/46
f 49/49/49 46/46/46 44/44/44
f 50/50/50 49/49/49 44/44/44
f 53/53/53 52/52/52 51/51/51
f 52/52/52 54/54/54 51/51/51
f 51/51/51 54/54/54 55/55/55
f 54/54/54 56/56/56 55/55/55
f 56/56/56 57/57/57 55/55/55
f 57/57/57 58/58/58 55/55/55
f 57/57/57 59/59/59 58/58/58
f 59/59/59 60/60/60 58/58/58
