g fcbg_desert_006_junk_building_03
v 0.5927284 3.2126904E-05 0.34009004
v 0.3165293 0.7615197 -0.017847598
v 0.5927284 0.7615197 0.34009004
v 0.3165293 3.2126904E-05 -0.017847598
v -0.067144275 0.7615197 -0.13682821
v -0.067144275 3.2126904E-05 -0.13682821
v -0.45081794 0.7615197 -0.017846286
v -0.45081794 3.2126904E-05 -0.017846286
v -0.5889168 0.1904037 0.1611225
v -0.7270169 3.2126904E-05 0.34009135
v -0.7270169 0.1904037 0.34009135
v -0.5889168 0.38077527 0.1611225
v -0.65796626 0.57114816 0.2506063
v -0.65796626 0.7615197 0.2506063
v -0.7270169 0.38077527 0.34009135
v -0.7270169 0.57114816 0.34009135
v -0.7270169 0.57114816 0.34009135
v -0.7270169 0.38077527 0.34009135
v -0.7270169 0.38077527 0.20806128
v -0.7270169 0.57114816 0.20806128
v -0.65796626 0.57114816 0.2506063
v -0.65796626 0.57114816 0.11857623
v -0.65796626 0.7615197 0.2506063
v -0.5889168 0.38077527 0.029092431
v -0.65796626 0.7615197 0.11857623
v -0.45081794 0.7615197 -0.017846286
v -0.45081794 0.7615197 -0.14987636
v -0.067144275 0.7615197 -0.13682821
v -0.067144275 0.7615197 -0.26885828
v 0.3165293 0.7615197 -0.017847598
v -0.45081794 3.2126904E-05 -0.14987636
v 0.3165293 0.7615197 -0.14987636
v 0.5927284 0.7615197 0.34009004
v -0.067144275 3.2126904E-05 -0.26885828
v 0.3165293 3.2126904E-05 -0.14987636
v -0.5889168 0.1904037 0.029092431
v -0.5889168 0.38077527 0.1611225
v -0.5889168 0.1904037 0.1611225
v -0.7270169 3.2126904E-05 0.20806128
v 0.5927284 0.7615197 0.20805997
v 0.5927284 3.2126904E-05 0.34009004
v 0.5927284 3.2126904E-05 0.20806128
v -0.7270169 0.1904037 0.20806128
v -0.7270169 0.1904037 0.34009135
v -0.7270169 3.2126904E-05 0.34009135
vt 0.21738687 0.9135151
vt 0.18227229 0.931247
vt 0.18227229 0.9135151
vt 0.21738687 0.931247
vt 0.18227229 0.9491762
vt 0.21738687 0.9491762
vt 0.18227229 0.9681378
vt 0.21738687 0.9681378
vt 0.20836912 0.9793872
vt 0.21738687 0.99185115
vt 0.20836912 0.99185115
vt 0.19957909 0.9793872
vt 0.19019698 0.98347104
vt 0.18227229 0.98347104
vt 0.19957909 0.9891944
vt 0.19019698 0.9891944
vt 0.18389669 0.99482673
vt 0.19239828 0.99482673
vt 0.19957909 0.9891944
vt 0.19019698 0.9891944
vt 0.18389669 0.98849607
vt 0.19019698 0.98347104
vt 0.17782412 0.98849607
vt 0.19957909 0.9793872
vt 0.18227229 0.98347104
vt 0.17782412 0.9681378
vt 0.18227229 0.9681378
vt 0.17782412 0.9491762
vt 0.18227229 0.9491762
vt 0.17782412 0.931247
vt 0.21738687 0.9681378
vt 0.18227229 0.931247
vt 0.17782412 0.9075488
vt 0.21738687 0.9491762
vt 0.21738687 0.931247
vt 0.20836912 0.9793872
vt 0.20176521 0.9871753
vt 0.20597045 0.9871753
vt 0.21738687 0.99185115
vt 0.18227229 0.9135151
vt 0.21738687 0.9075488
vt 0.21738687 0.9135151
vt 0.20836912 0.99185115
vt 0.20597045 0.99790853
vt 0.21738687 0.99790853
vn 0.32289982 0.00092482567 0.9464327
vn -0.35620672 0.78180474 0.5117599
vn 0.27108788 0.5430998 0.79470366
vn -0.57085615 0.00092482567 0.82104963
vn -0.00092482567 0.7799544 0.6258357
vn -0.00092482567 0.00092482567 0.99999917
vn 0.3562075 0.78180474 0.51175934
vn 0.570857 0.00092482567 0.82104903
vn 0.4931391 0.5690058 0.6580625
vn -0.32289904 0.00092482567 0.946433
vn -0.2710871 0.5430998 0.79470396
vn 0.6004638 0.00092482567 0.79965144
vn 0.4931391 0.5690058 0.6580625
vn -0.2710871 0.5430998 0.79470396
vn -0.32289904 0.00092482567 0.946433
vn -0.2710871 0.5430998 0.79470396
vn -0.2710871 0.5430998 0.79470396
vn -0.32289904 0.00092482567 0.946433
vn -0.94649273 0.00092482567 -0.32272378
vn -0.72629195 0.64117235 -0.24778631
vn 0.4931391 0.5690058 0.6580625
vn -0.87432605 0.108249485 -0.47311312
vn -0.2710871 0.5430998 0.79470396
vn -0.8780269 0.00092482567 -0.4786104
vn -0.72629195 0.64117235 -0.24778631
vn 0.3562075 0.78180474 0.51175934
vn -0.43577498 0.6448732 -0.6278843
vn -0.00092482567 0.7799544 0.6258357
vn -0.00092482567 0.6467237 -0.76272386
vn -0.35620672 0.78180474 0.5117599
vn -0.57085615 0.00092482567 -0.82104963
vn 0.43577588 0.6448732 -0.6278837
vn 0.27108788 0.5430998 0.79470366
vn -0.00092482567 0.00092482567 -0.99999917
vn 0.570857 0.00092482567 -0.82104903
vn -0.87432605 0.108249485 -0.47311312
vn 0.6004638 0.00092482567 0.79965144
vn 0.4931391 0.5690058 0.6580625
vn -0.94649273 0.00092482567 -0.32272378
vn 0.72629285 0.64117235 -0.24778368
vn 0.32289982 0.00092482567 0.9464327
vn 0.94649357 0.00092482567 -0.32272136
vn -0.72629195 0.64117235 -0.24778631
vn -0.2710871 0.5430998 0.79470396
vn -0.32289904 0.00092482567 0.946433
g fcbg_desert_006_junk_building_03_0
f 3/3/3 2/2/2 1/1/1
f 2/2/2 4/4/4 1/1/1
f 2/2/2 5/5/5 4/4/4
f 5/5/5 6/6/6 4/4/4
f 5/5/5 7/7/7 6/6/6
f 7/7/7 8/8/8 6/6/6
f 8/8/8 7/7/7 9/9/9
f 8/8/8 9/9/9 10/10/10
f 10/10/10 9/9/9 11/11/11
f 7/7/7 12/12/12 9/9/9
f 12/12/12 7/7/7 13/13/13
f 14/14/14 13/13/13 7/7/7
f 12/12/12 13/13/13 15/15/15
f 13/13/13 16/16/16 15/15/15
f 19/19/19 18/18/18 17/17/17
f 20/20/20 19/19/19 17/17/17
f 20/20/20 17/17/17 21/21/21
f 22/22/22 19/19/19 20/20/20
f 22/22/22 20/20/20 21/21/21
f 21/21/21 23/23/23 22/22/22
f 22/22/22 24/24/24 19/19/19
f 23/23/23 25/25/25 22/22/22
f 25/25/25 23/23/23 26/26/26
f 25/25/25 27/27/27 22/22/22
f 27/27/27 25/25/25 26/26/26
f 22/22/22 27/27/27 24/24/24
f 27/27/27 26/26/26 28/28/28
f 29/29/29 27/27/27 28/28/28
f 29/29/29 28/28/28 30/30/30
f 27/27/27 31/31/31 24/24/24
f 27/27/27 29/29/29 31/31/31
f 32/32/32 29/29/29 30/30/30
f 32/32/32 30/30/30 33/33/33
f 29/29/29 34/34/34 31/31/31
f 29/29/29 32/32/32 34/34/34
f 32/32/32 35/35/35 34/34/34
f 31/31/31 36/36/36 24/24/24
f 37/37/37 24/24/24 36/36/36
f 38/38/38 37/37/37 36/36/36
f 31/31/31 39/39/39 36/36/36
f 40/40/40 32/32/32 33/33/33
f 35/35/35 32/32/32 40/40/40
f 40/40/40 33/33/33 41/41/41
f 42/42/42 35/35/35 40/40/40
f 42/42/42 40/40/40 41/41/41
f 38/38/38 36/36/36 43/43/43
f 39/39/39 43/43/43 36/36/36
f 44/44/44 38/38/38 43/43/43
f 44/44/44 43/43/43 39/39/39
f 45/45/45 44/44/44 39/39/39
