g fcbg_cityforest_004_stone_02
v -0.46403885 -0.0002326097 0.42824554
v -0.40076637 0.25416845 0.60519415
v -0.425704 -0.00023267386 0.6369381
v -0.43168926 0.27668446 0.40238577
v -0.310647 0.35210738 0.28114134
v -0.13747406 0.23629886 0.6655465
v -0.425704 -0.00023267386 0.6369381
v -0.14758968 -0.00023269109 0.70906067
v 0.22713375 -0.00023269001 0.69322395
v -0.54015446 0.2766843 0.32998282
v -0.57991314 -0.0002325837 0.34996033
v -0.58495045 -0.0002324966 0.016563416
v 0.22298622 0.23574781 0.6533261
v 0.58344364 -0.00023264546 0.5128498
v 0.15110397 0.34128588 0.39402586
v 0.5502558 0.22298183 0.48028758
v 0.6075201 0.0005868719 0.19202614
v 0.35189533 0.3399664 0.2905293
v 0.5708351 0.22362657 0.17354396
v 0.68532753 0.0005869431 0.021125793
v 0.36168003 0.33978415 0.14466673
v 0.32444572 0.51239413 0.12821966
v 0.26899853 0.30808455 -0.13813436
v 0.64514446 0.22220415 0.01672176
v 0.59484196 -0.00023234259 -0.5159521
v 0.5610771 0.20036528 -0.49837205
v 0.34962386 -0.00023231673 -0.6262411
v 0.33430424 0.20139892 -0.59496826
v 0.21878204 -0.0002323091 -0.57406795
v 0.31597424 0.5096908 0.2545281
v 0.20821932 0.20166552 -0.53926396
v 0.13615227 0.5209215 0.34938627
v -0.2774048 0.5964029 0.23780258
v 0.18624592 0.2020738 -0.6580352
v 0.18952274 -0.00023229983 -0.6982479
v -0.21693015 -0.0002323091 -0.7294654
v 0.13877106 0.26354316 -0.53550047
v -0.33337638 0.50250185 0.1626316
v -0.23617478 0.5799303 0.068577364
v -0.4569149 0.358351 0.059789717
v -0.5362072 0.27668446 -0.019393876
v -0.43252277 0.2769376 -0.42900175
v -0.6813668 0.22294065 -0.088426076
v -0.7271079 -0.00023246557 -0.09243156
v -0.5991399 0.20207375 -0.5496123
v -0.6348598 -0.0002323389 -0.5776055
v -0.21093152 0.20207381 -0.6900166
v -0.1729765 0.2635432 -0.533802
v -0.41779518 0.5057529 0.049255453
v -0.38864517 0.46098486 -0.3923625
v -0.28091842 0.4892638 0.06381726
v -0.16285992 0.424458 -0.4747972
v -0.1193213 0.54530287 -0.14773679
v -0.15765363 0.4452388 -0.18493502
v 0.22772262 0.5002231 -0.15021847
v 0.2099286 0.40192744 -0.20144244
v 0.118528366 0.39042622 -0.4645576
v -0.017736081 0.42533723 -0.24048163
v -0.0094783455 0.5267545 -0.19591753
vt 0.121188276 0.1596538
vt 0.12482205 0.13856702
vt 0.11115853 0.14938353
vt 0.13653189 0.14705694
vt 0.1483554 0.14242427
vt 0.13057016 0.12122771
vt 0.10772412 0.13224274
vt 0.1159616 0.11365193
vt 0.13177279 0.09099787
vt 0.13985412 0.15470998
vt 0.12759936 0.16770753
vt 0.14658506 0.18117774
vt 0.14356147 0.10335601
vt 0.15731454 0.076397315
vt 0.15520063 0.11544094
vt 0.16087537 0.09111021
vt 0.18260133 0.0778154
vt 0.16657004 0.1079145
vt 0.1798571 0.095294096
vt 0.19792871 0.081819646
vt 0.17532256 0.110394865
vt 0.17389491 0.11529557
vt 0.18841565 0.122259825
vt 0.19084336 0.09668946
vt 0.22798887 0.10808566
vt 0.21571615 0.11459068
vt 0.23024364 0.12885322
vt 0.21582758 0.12969448
vt 0.22960293 0.1365435
vt 0.16768202 0.11284135
vt 0.21469721 0.13538371
vt 0.15935265 0.11930288
vt 0.1572621 0.14084397
vt 0.21590033 0.13955563
vt 0.23171575 0.1424122
vt 0.2187999 0.1709178
vt 0.20681284 0.13893136
vt 0.15973412 0.14445673
vt 0.16601524 0.14143683
vt 0.15707564 0.15717421
vt 0.15863703 0.1656917
vt 0.185412 0.16975716
vt 0.16388534 0.17147686
vt 0.15616703 0.18764591
vt 0.1872486 0.18285634
vt 0.19076772 0.19585276
vt 0.20633222 0.16275822
vt 0.19944242 0.15770133
vt 0.16346252 0.14990564
vt 0.18232271 0.15888503
vt 0.16538635 0.14352319
vt 0.19127262 0.15187146
vt 0.17769422 0.14143746
vt 0.17800425 0.14386523
vt 0.18500072 0.12635949
vt 0.18704385 0.1283949
vt 0.19753847 0.13884994
vt 0.18454286 0.13940962
vt 0.18261956 0.13791937
vn -0.8318721 0.14312522 0.53619397
vn -0.57205683 0.5832577 0.57668144
vn -0.7127463 0.1715474 0.6801207
vn -0.50071615 0.72535753 0.47237676
vn -0.37190688 0.74312687 0.55628026
vn -0.08860052 0.62552893 0.77515393
vn -0.7127463 0.1715474 0.6801207
vn -0.09868389 0.16982628 0.98052055
vn 0.24406037 0.16896385 0.954927
vn -0.7263947 0.55223316 0.40913233
vn -0.86991376 0.1681991 0.46363685
vn -0.8755787 0.16967405 0.45229694
vn 0.20198162 0.6106118 0.76573926
vn 0.81422377 0.19570023 0.546572
vn 0.115829684 0.72896636 0.6746788
vn 0.69399315 0.5678813 0.4425884
vn 0.95506173 0.17150217 0.24175237
vn 0.58348966 0.73408234 0.34736574
vn 0.7689803 0.60606945 0.20334503
vn 0.9744914 0.18341655 0.12932457
vn 0.7551634 0.6517983 -0.06990727
vn 0.70409214 0.6992173 -0.12389262
vn 0.661247 0.6833067 -0.30958733
vn 0.7874008 0.6122138 0.072071195
vn 0.77984214 0.18880314 -0.5968246
vn 0.61101294 0.60924506 -0.5054539
vn 0.0254384 0.15469508 -0.9876346
vn -0.0039509763 0.6160515 -0.787696
vn 0.47496212 0.15287875 -0.86662513
vn 0.64056855 0.6729395 0.3698977
vn 0.45262316 0.7539353 -0.47614482
vn 0.13053949 0.6648195 0.7355097
vn -0.46911418 0.76805973 0.43590832
vn 0.57425773 0.5315419 -0.6226486
vn 0.61952764 0.16871178 -0.7666301
vn -0.13216074 0.19449401 -0.9719597
vn 0.4346411 0.7555286 -0.49016684
vn -0.80475163 0.55503464 0.21050268
vn -0.4100394 0.8647578 -0.2899339
vn -0.79628164 0.5934695 0.11717284
vn -0.7360129 0.6704071 0.09401772
vn -0.46883428 0.78141373 -0.4118093
vn -0.75931704 0.5710354 0.31201944
vn -0.92758876 0.18267809 0.3258956
vn -0.6097499 0.592161 -0.52683043
vn -0.7444055 0.22113855 -0.6300461
vn -0.10908831 0.602228 -0.7908358
vn -0.106572315 0.7131442 -0.6928692
vn -0.59911215 0.78899926 0.13617899
vn -0.5135485 0.73411 -0.44424152
vn -0.3940215 0.8540833 -0.33954197
vn -0.02101755 0.7747085 -0.63196915
vn -0.31753922 0.8032594 -0.5039277
vn -0.16367747 0.9021305 -0.3992122
vn 0.54881656 0.6614984 -0.51109695
vn 0.6750384 0.46347457 -0.57403344
vn 0.46313578 0.7323973 -0.49909863
vn 0.06398785 0.86119497 -0.504231
vn 0.025610125 0.7716974 -0.635474
g fcbg_cityforest_004_stone_02_0
f 3/3/3 2/2/2 1/1/1
f 2/2/2 4/4/4 1/1/1
f 5/5/5 4/4/4 2/2/2
f 6/6/6 5/5/5 2/2/2
f 6/6/6 2/2/2 7/7/7
f 8/8/8 6/6/6 7/7/7
f 6/6/6 8/8/8 9/9/9
f 4/4/4 10/10/10 1/1/1
f 4/4/4 5/5/5 10/10/10
f 10/10/10 11/11/11 1/1/1
f 11/11/11 10/10/10 12/12/12
f 13/13/13 6/6/6 9/9/9
f 14/14/14 13/13/13 9/9/9
f 15/15/15 5/5/5 6/6/6
f 13/13/13 15/15/15 6/6/6
f 16/16/16 13/13/13 14/14/14
f 16/16/16 14/14/14 17/17/17
f 18/18/18 15/15/15 13/13/13
f 16/16/16 18/18/18 13/13/13
f 19/19/19 16/16/16 17/17/17
f 19/19/19 17/17/17 20/20/20
f 19/19/19 21/21/21 16/16/16
f 21/21/21 18/18/18 16/16/16
f 21/21/21 22/22/22 18/18/18
f 21/21/21 23/23/23 22/22/22
f 21/21/21 24/24/24 23/23/23
f 24/24/24 21/21/21 19/19/19
f 24/24/24 19/19/19 20/20/20
f 24/24/24 20/20/20 25/25/25
f 26/26/26 24/24/24 25/25/25
f 24/24/24 26/26/26 23/23/23
f 26/26/26 25/25/25 27/27/27
f 28/28/28 26/26/26 27/27/27
f 28/28/28 23/23/23 26/26/26
f 28/28/28 27/27/27 29/29/29
f 18/18/18 30/30/30 15/15/15
f 22/22/22 30/30/30 18/18/18
f 31/31/31 28/28/28 29/29/29
f 28/28/28 31/31/31 23/23/23
f 30/30/30 32/32/32 15/15/15
f 15/15/15 32/32/32 5/5/5
f 30/30/30 33/33/33 32/32/32
f 30/30/30 22/22/22 33/33/33
f 32/32/32 33/33/33 5/5/5
f 34/34/34 31/31/31 29/29/29
f 35/35/35 34/34/34 29/29/29
f 34/34/34 35/35/35 36/36/36
f 37/37/37 23/23/23 31/31/31
f 34/34/34 37/37/37 31/31/31
f 33/33/33 38/38/38 5/5/5
f 22/22/22 39/39/39 33/33/33
f 38/38/38 33/33/33 39/39/39
f 5/5/5 38/38/38 40/40/40
f 5/5/5 40/40/40 10/10/10
f 40/40/40 41/41/41 10/10/10
f 40/40/40 42/42/42 41/41/41
f 10/10/10 41/41/41 12/12/12
f 41/41/41 43/43/43 12/12/12
f 41/41/41 42/42/42 43/43/43
f 43/43/43 44/44/44 12/12/12
f 43/43/43 45/45/45 44/44/44
f 43/43/43 42/42/42 45/45/45
f 45/45/45 46/46/46 44/44/44
f 46/46/46 45/45/45 36/36/36
f 45/45/45 47/47/47 36/36/36
f 45/45/45 42/42/42 47/47/47
f 47/47/47 34/34/34 36/36/36
f 47/47/47 48/48/48 34/34/34
f 42/42/42 48/48/48 47/47/47
f 48/48/48 37/37/37 34/34/34
f 38/38/38 49/49/49 40/40/40
f 40/40/40 49/49/49 42/42/42
f 42/42/42 50/50/50 48/48/48
f 49/49/49 50/50/50 42/42/42
f 49/49/49 38/38/38 51/51/51
f 49/49/49 51/51/51 50/50/50
f 51/51/51 38/38/38 39/39/39
f 50/50/50 52/52/52 48/48/48
f 48/48/48 52/52/52 37/37/37
f 51/51/51 39/39/39 53/53/53
f 53/53/53 39/39/39 22/22/22
f 51/51/51 54/54/54 50/50/50
f 50/50/50 54/54/54 52/52/52
f 54/54/54 51/51/51 53/53/53
f 53/53/53 22/22/22 55/55/55
f 23/23/23 55/55/55 22/22/22
f 56/56/56 23/23/23 37/37/37
f 56/56/56 55/55/55 23/23/23
f 52/52/52 57/57/57 37/37/37
f 57/57/57 56/56/56 37/37/37
f 57/57/57 52/52/52 58/58/58
f 56/56/56 57/57/57 58/58/58
f 54/54/54 58/58/58 52/52/52
f 56/56/56 58/58/58 55/55/55
f 55/55/55 59/59/59 53/53/53
f 54/54/54 53/53/53 59/59/59
f 58/58/58 54/54/54 59/59/59
f 58/58/58 59/59/59 55/55/55
