g fcbg_desert_003_Transmissiontower_02
v -0.411327 4.163433 -0.41132694
v -0.66811293 0.3601901 -0.66811293
v 0.66811305 0.3601901 -0.66811293
v 0.41132736 4.163433 -0.411327
v -0.40127558 6.9981456 -0.40127552
v 0.66811305 0.3601901 0.66811305
v 0.40127617 6.9981456 -0.40127558
v 0.41132742 4.163433 0.41132736
v 0.40127623 6.9981456 0.40127617
v -0.41132694 4.163433 0.41132742
v -0.66811293 0.3601901 0.66811305
v -0.66811293 0.3601901 -0.66811293
v -0.411327 4.163433 -0.41132694
v -0.40127552 6.9981456 0.40127623
v -0.40127558 6.9981456 -0.40127552
v 0.41132742 4.163433 0.41132736
v 0.66811305 0.3601901 0.66811305
v -0.66811293 0.3601901 0.66811305
v -0.41132694 4.163433 0.41132742
v 0.40127623 6.9981456 0.40127617
v -0.40127552 6.9981456 0.40127623
v 0.66811305 0.3601901 0.66811305
v -0.9331366 0.3601901 0.9331368
v -0.66811293 0.3601901 0.66811305
v 0.9331368 0.3601901 0.9331367
v 0.66811305 0.3601901 -0.66811293
v 0.9331367 0.3601901 -0.9331367
v 1.0053613 -0.00014442205 1.0053613
v -0.66811293 0.3601901 -0.66811293
v 1.0053613 -0.00014430285 -1.0053613
v -0.9331367 0.3601901 -0.9331366
v -1.0053613 -0.00014418364 -1.0053613
v -0.66811293 0.3601901 0.66811305
v -0.9331366 0.3601901 0.9331368
v 0.9331368 0.3601901 0.9331367
v 1.0053613 -0.00014442205 1.0053613
v -1.0053613 -0.00014430285 1.0053613
v -0.9331366 0.3601901 0.9331368
v -0.9331366 0.3601901 0.9331368
v -1.0053613 -0.00014430285 1.0053613
v -1.0053613 -0.00014418364 -1.0053613
v -0.9331367 0.3601901 -0.9331366
v 0.67792803 6.9981446 -0.6779273
v -0.6779273 7.2593336 -0.6779273
v -0.6779273 6.9981446 -0.6779273
v 0.67792803 7.2593336 -0.6779273
v 0.67792803 6.9981446 0.67792803
v 0.67792803 7.2593336 0.67792803
v -0.3993611 7.259332 -0.39936104
v -0.39936104 7.259332 0.39936182
v -0.6779273 7.2593336 0.67792803
v 0.39936176 7.259332 -0.3993611
v -0.3993611 7.656905 -0.39936104
v 0.39936176 7.656905 -0.3993611
v 0.39936182 7.259332 0.39936176
v 0.39936182 7.656905 0.39936176
v -0.6779273 7.2593336 0.67792803
v -0.39936104 7.259332 0.39936182
v -0.6779273 6.9981446 -0.6779273
v -0.6779273 7.2593336 -0.6779273
v -0.6779273 6.9981446 0.67792803
v -0.39936104 7.656905 0.39936182
v 0.39936182 7.656905 0.39936176
v 0.39936182 7.259332 0.39936176
v -0.6779273 6.9981446 0.67792803
v -0.6779273 7.2593336 0.67792803
v 0.67792803 7.2593336 0.67792803
v 0.67792803 6.9981446 0.67792803
v -0.3993611 7.259332 -0.39936104
v -0.3993611 7.656905 -0.39936104
v -0.39936104 7.656905 0.39936182
v -0.39936104 7.259332 0.39936182
v 0.6813191 7.6569033 0.6813191
v 0.6813191 7.926923 0.6813191
v 0.6813191 7.926923 -0.6813184
v 0.6813191 7.6569033 -0.6813184
v 0.6813191 7.6569033 -0.6813184
v -0.6813184 7.926923 -0.6813184
v -0.6813184 7.6569033 -0.6813184
v 0.6813191 7.926923 -0.6813184
v -0.40157852 7.926923 -0.40157846
v 0.40157923 7.926923 -0.40157852
v -0.40157846 7.926923 0.4015793
v 0.6813191 7.926923 0.6813191
v -0.6813184 7.926923 0.6813191
v 0.4015793 7.926923 0.40157923
v -0.6813184 7.6569033 -0.6813184
v -0.6813184 7.926923 -0.6813184
v -0.6813184 7.926923 0.6813191
v -0.6813184 7.6569033 0.6813191
v 0.6813191 7.926923 0.6813191
v 0.6813191 7.6569033 0.6813191
v 0.40157923 7.926923 -0.40157852
v -0.40157852 8.276712 -0.40157846
v -0.40157852 7.926923 -0.40157846
v 0.40157923 8.276712 -0.40157852
v 0.4015793 7.926923 0.40157923
v -0.085492566 8.98349 -0.08549255
v 0.4015793 8.276712 0.40157923
v 0.085493386 8.98349 -0.085492566
v 0.0854934 8.98349 0.085493386
v -0.08549249 10.399476 -0.08549248
v 0.085493445 10.399476 -0.08549249
v 0.08549346 10.399476 0.085493445
v -0.08549248 10.399476 0.08549346
v -0.40157846 7.926923 0.4015793
v 0.4015793 8.276712 0.40157923
v 0.4015793 7.926923 0.40157923
v -0.40157846 8.276712 0.4015793
v -0.40157852 7.926923 -0.40157846
v 0.0854934 8.98349 0.085493386
v -0.40157852 8.276712 -0.40157846
v -0.08549255 8.98349 0.0854934
v 0.08549346 10.399476 0.085493445
v -0.085492566 8.98349 -0.08549255
v -0.08549248 10.399476 0.08549346
v -0.08549249 10.399476 -0.08549248
v -0.6036852 6.214604 -0.7467521
v -0.7465222 8.9471855 -0.74675184
v -0.7465223 6.214604 -0.74675196
v -0.6036851 8.9471855 -0.74675196
v -0.6036851 6.214604 -0.6039151
v -0.74652207 8.9471855 -0.60391486
v -0.60368496 8.9471855 -0.603915
v -0.7465223 6.214604 -0.74675196
v -0.7465222 8.9471855 -0.74675184
v -0.74652207 8.9471855 -0.60391486
v -0.7465222 6.214604 -0.603915
v -0.60368496 8.9471855 -0.603915
v -0.6036851 6.214604 -0.6039151
v 0.7467528 8.9471855 -0.603685
v 0.6039158 8.9471855 -0.60368496
v 0.60391575 8.9471855 -0.74652207
v 0.74675274 8.9471855 -0.7465221
v 0.7467527 6.214604 -0.60368514
v 0.7467526 6.214604 -0.74652225
v 0.60391563 6.214604 -0.7465222
v 0.60391563 6.214604 -0.7465222
v 0.60391575 8.9471855 -0.74652207
v 0.6039158 8.9471855 -0.60368496
v 0.6039157 6.214604 -0.6036851
v 0.7467528 8.9471855 -0.603685
v 0.7467527 6.214604 -0.60368514
v 0.60368574 6.214604 0.7467527
v 0.74652296 8.9471855 0.74675274
v 0.74652284 6.214604 0.7467526
v 0.60368586 8.9471855 0.7467528
v 0.6036857 6.214604 0.6039157
v 0.6036858 8.9471855 0.6039158
v 0.7465228 6.214604 0.60391563
v 0.6036858 8.9471855 0.6039158
v 0.6036857 6.214604 0.6039157
v 0.7465229 8.9471855 0.60391575
v 0.74652284 6.214604 0.7467526
v 0.60368586 8.9471855 0.7467528
v 0.74652296 8.9471855 0.74675274
v -0.7467519 8.9471855 0.6036859
v -0.60391486 8.9471855 0.74652296
v -0.74675184 8.9471855 0.746523
v -0.6039149 8.9471855 0.60368586
v -0.603915 6.214604 0.74652284
v -0.60391504 6.214604 0.60368574
v -0.746752 6.214604 0.6036858
v -0.746752 6.214604 0.6036858
v -0.7467519 8.9471855 0.6036859
v -0.74675184 8.9471855 0.746523
v -0.74675196 6.214604 0.7465229
v -0.60391486 8.9471855 0.74652296
v -0.603915 6.214604 0.74652284
vt 0.728607 0.77241963
vt 0.73973686 0.6858623
vt 0.70981246 0.6839796
vt 0.70981246 0.77241963
vt 0.728607 0.83724624
vt 0.67902607 0.6858623
vt 0.70981246 0.83724624
vt 0.69154197 0.77241963
vt 0.69154197 0.83724624
vt 0.70981246 0.77241963
vt 0.70981246 0.6839796
vt 0.67902607 0.6858623
vt 0.69154197 0.77241963
vt 0.70981246 0.83724624
vt 0.69154197 0.83724624
vt 0.728607 0.77241963
vt 0.73973686 0.6858623
vt 0.70981246 0.6839796
vt 0.70981246 0.77241963
vt 0.728607 0.83724624
vt 0.70981246 0.83724624
vt 0.63704365 0.8279652
vt 0.6296057 0.7821254
vt 0.63704365 0.7897125
vt 0.6296057 0.8355523
vt 0.63704365 0.7897125
vt 0.6296057 0.7821254
vt 0.6207339 0.8393164
vt 0.6745451 0.7897125
vt 0.62073404 0.773076
vt 0.68198293 0.7821254
vt 0.6863963 0.773076
vt 0.63704365 0.7897125
vt 0.6296057 0.7821254
vt 0.6296057 0.7821254
vt 0.62073404 0.773076
vt 0.6863963 0.773076
vt 0.68198293 0.7821254
vt 0.6296057 0.8355523
vt 0.6207339 0.8393164
vt 0.62073404 0.773076
vt 0.6296057 0.7821254
vt 0.6491726 0.7380298
vt 0.68135065 0.74577844
vt 0.68135065 0.7380298
vt 0.6491726 0.74577844
vt 0.6169953 0.7380298
vt 0.6169953 0.74577844
vt 0.68135065 0.75398076
vt 0.6491726 0.75392944
vt 0.6491731 0.74577844
vt 0.6491726 0.75398076
vt 0.68135065 0.7661686
vt 0.6491726 0.7661686
vt 0.6169953 0.75398076
vt 0.6169953 0.7661686
vt 0.6491726 0.74577844
vt 0.6491726 0.75392944
vt 0.6169953 0.7380298
vt 0.6169953 0.74577844
vt 0.6491731 0.7380298
vt 0.6491731 0.7661686
vt 0.68135065 0.7661686
vt 0.68135065 0.75392944
vt 0.68135065 0.7380298
vt 0.68135065 0.74577844
vt 0.6491731 0.74577844
vt 0.6491731 0.7380298
vt 0.6491731 0.75392944
vt 0.6491731 0.7661686
vt 0.6169953 0.7661686
vt 0.6169953 0.75392944
vt 0.6394914 0.8379932
vt 0.6472371 0.8379932
vt 0.6472371 0.8020893
vt 0.6394914 0.79281265
vt 0.68268245 0.79286593
vt 0.6472371 0.8020893
vt 0.6394914 0.79281265
vt 0.68268245 0.8020893
vt 0.6545889 0.8094534
vt 0.6756961 0.8094534
vt 0.6545889 0.83059675
vt 0.6472371 0.8020893
vt 0.6472371 0.8379932
vt 0.6545889 0.8094534
vt 0.6394914 0.8379932
vt 0.6472371 0.8379932
vt 0.6472371 0.8020893
vt 0.6394914 0.79281265
vt 0.68268245 0.8020893
vt 0.68268245 0.79286593
vt 0.75316477 0.84125936
vt 0.77263534 0.8235175
vt 0.77263534 0.83382756
vt 0.75316477 0.8309492
vt 0.7336942 0.83382756
vt 0.7573098 0.80268526
vt 0.7336942 0.8235175
vt 0.75316477 0.80426735
vt 0.7490195 0.80268526
vt 0.7573098 0.76220113
vt 0.75316477 0.7652235
vt 0.7490195 0.76220113
vt 0.75316477 0.76031154
vt 0.75316465 0.84125936
vt 0.77263534 0.8235175
vt 0.77263534 0.83382756
vt 0.75316465 0.8309492
vt 0.73369396 0.83382756
vt 0.7573098 0.80268526
vt 0.73369396 0.8235175
vt 0.75316465 0.80426735
vt 0.7573098 0.76220113
vt 0.7490195 0.80268526
vt 0.75316465 0.7652235
vt 0.7490195 0.76220113
vt 0.5910661 0.74776685
vt 0.5953512 0.8364881
vt 0.5953512 0.7507678
vt 0.5910661 0.8340063
vt 0.58659935 0.7507678
vt 0.5911819 0.83946025
vt 0.58659935 0.83661854
vt 0.58659935 0.7507678
vt 0.58659935 0.83661854
vt 0.5910661 0.8340063
vt 0.5910661 0.74776685
vt 0.5953512 0.8364881
vt 0.5953512 0.7507678
vt 0.58659935 0.83661854
vt 0.5911819 0.83946025
vt 0.5953512 0.8364881
vt 0.5910661 0.8340063
vt 0.58659935 0.7507678
vt 0.5910661 0.74776685
vt 0.5953512 0.7507678
vt 0.6023687 0.7507678
vt 0.6023687 0.8368832
vt 0.6068802 0.8340578
vt 0.6068802 0.74776685
vt 0.611166 0.8368399
vt 0.611166 0.7507678
vt 0.5910661 0.74776685
vt 0.5953512 0.8364881
vt 0.5953512 0.7507678
vt 0.5910661 0.8340063
vt 0.58659935 0.7507678
vt 0.58659935 0.83661854
vt 0.5910661 0.74776685
vt 0.5953512 0.8364881
vt 0.5953512 0.7507678
vt 0.5910661 0.8340063
vt 0.58659935 0.7507678
vt 0.5911819 0.83946025
vt 0.58659935 0.83661854
vt 0.611166 0.8368399
vt 0.6023687 0.8368832
vt 0.60692203 0.83946
vt 0.6068802 0.8340578
vt 0.6023687 0.7507678
vt 0.6068802 0.74776685
vt 0.611166 0.7507678
vt 0.58659935 0.7507678
vt 0.58659935 0.83661854
vt 0.5910661 0.8340063
vt 0.5910661 0.74776685
vt 0.5953512 0.8364881
vt 0.5953512 0.7507678
vn -0.7061824 0.05111705 -0.7061824
vn -0.28022417 0.9181225 -0.28022417
vn 0.28022417 0.9181225 -0.28022417
vn 0.7061824 0.05111705 -0.7061824
vn -0.7070979 0.005006783 -0.7070979
vn 0.28022417 0.9181225 0.28022417
vn 0.7070979 0.005006783 -0.7070979
vn 0.7061824 0.05111705 0.7061824
vn 0.7070979 0.005006783 0.7070979
vn -0.7061824 0.05111705 0.7061824
vn -0.28022417 0.9181225 0.28022417
vn -0.28022417 0.9181225 -0.28022417
vn -0.7061824 0.05111705 -0.7061824
vn -0.7070979 0.005006783 0.7070979
vn -0.7070979 0.005006783 -0.7070979
vn 0.7061824 0.05111705 0.7061824
vn 0.28022417 0.9181225 0.28022417
vn -0.28022417 0.9181225 0.28022417
vn -0.7061824 0.05111705 0.7061824
vn 0.7070979 0.005006783 0.7070979
vn -0.7070979 0.005006783 0.7070979
vn 0.28022417 0.9181225 0.28022417
vn -0.5190019 0.6791716 0.5190019
vn -0.28022417 0.9181225 0.28022417
vn 0.5190019 0.6791716 0.5190019
vn 0.28022417 0.9181225 -0.28022417
vn 0.5190019 0.6791716 -0.5190019
vn 0.68030375 0.27271518 0.68030375
vn -0.28022417 0.9181225 -0.28022417
vn 0.68030375 0.27271518 -0.68030375
vn -0.5190019 0.6791716 -0.5190019
vn -0.68030375 0.27271518 -0.68030375
vn -0.28022417 0.9181225 0.28022417
vn -0.5190019 0.6791716 0.5190019
vn 0.5190019 0.6791716 0.5190019
vn 0.68030375 0.27271518 0.68030375
vn -0.68030375 0.27271518 0.68030375
vn -0.5190019 0.6791716 0.5190019
vn -0.5190019 0.6791716 0.5190019
vn -0.68030375 0.27271518 0.68030375
vn -0.68030375 0.27271518 -0.68030375
vn -0.5190019 0.6791716 -0.5190019
vn 0.70710677 0 -0.70710677
vn -0.5773483 0.57735425 -0.5773483
vn -0.70710677 0 -0.70710677
vn 0.5773483 0.57735425 -0.5773483
vn 0.70710677 0 0.70710677
vn 0.5773483 0.57735425 0.5773483
vn -0.3015162 0.9045308 -0.3015162
vn -0.3015162 0.9045308 0.3015162
vn -0.5773483 0.57735425 0.5773483
vn 0.3015162 0.9045308 -0.3015162
vn -0.70710677 0 -0.70710677
vn 0.70710677 0 -0.70710677
vn 0.3015162 0.9045308 0.3015162
vn 0.70710677 0 0.70710677
vn -0.5773483 0.57735425 0.5773483
vn -0.3015162 0.9045308 0.3015162
vn -0.70710677 0 -0.70710677
vn -0.5773483 0.57735425 -0.5773483
vn -0.70710677 0 0.70710677
vn -0.70710677 0 0.70710677
vn 0.70710677 0 0.70710677
vn 0.3015162 0.9045308 0.3015162
vn -0.70710677 0 0.70710677
vn -0.5773483 0.57735425 0.5773483
vn 0.5773483 0.57735425 0.5773483
vn 0.70710677 0 0.70710677
vn -0.3015162 0.9045308 -0.3015162
vn -0.70710677 0 -0.70710677
vn -0.70710677 0 0.70710677
vn -0.3015162 0.9045308 0.3015162
vn 0.70710677 0 0.70710677
vn 0.5773483 0.57735425 0.5773483
vn 0.5773483 0.57735425 -0.5773483
vn 0.70710677 0 -0.70710677
vn 0.70710677 0 -0.70710677
vn -0.5773483 0.57735425 -0.5773483
vn -0.70710677 0 -0.70710677
vn 0.5773483 0.57735425 -0.5773483
vn -0.30150324 0.9045395 -0.30150324
vn 0.30150324 0.9045395 -0.30150324
vn -0.30150324 0.9045395 0.30150324
vn 0.5773483 0.57735425 0.5773483
vn -0.5773483 0.57735425 0.5773483
vn 0.30150324 0.9045395 0.30150324
vn -0.70710677 0 -0.70710677
vn -0.5773483 0.57735425 -0.5773483
vn -0.5773483 0.57735425 0.5773483
vn -0.70710677 0 0.70710677
vn 0.5773483 0.57735425 0.5773483
vn 0.70710677 0 0.70710677
vn 0.30150324 0.9045395 -0.30150324
vn -0.6847307 0.24957493 -0.6847307
vn -0.30150324 0.9045395 -0.30150324
vn 0.6847307 0.24957493 -0.6847307
vn 0.30150324 0.9045395 0.30150324
vn -0.670141 0.31909588 -0.670141
vn 0.6847307 0.24957493 0.6847307
vn 0.670141 0.31909588 -0.670141
vn 0.670141 0.31909588 0.670141
vn -0.57734877 0.57735324 -0.57734877
vn 0.57734877 0.57735324 -0.57734877
vn 0.57734925 0.577353 0.57734853
vn -0.57734877 0.57735324 0.57734877
vn -0.30150324 0.9045395 0.30150324
vn 0.6847307 0.24957493 0.6847307
vn 0.30150324 0.9045395 0.30150324
vn -0.6847307 0.24957493 0.6847307
vn -0.30150324 0.9045395 -0.30150324
vn 0.670141 0.31909588 0.670141
vn -0.6847307 0.24957493 -0.6847307
vn -0.670141 0.31909588 0.670141
vn 0.57734925 0.577353 0.57734853
vn -0.670141 0.31909588 -0.670141
vn -0.57734877 0.57735324 0.57734877
vn -0.57734877 0.57735324 -0.57734877
vn 0.70710677 0 -0.70710677
vn -0.5773483 0.57735425 -0.5773483
vn -0.70710677 0 -0.70710677
vn 0.5773483 0.57735425 -0.5773483
vn 0.70710677 0 0.70710677
vn -0.5773483 0.57735425 0.5773483
vn 0.5773483 0.57735425 0.5773483
vn -0.70710677 0 -0.70710677
vn -0.5773483 0.57735425 -0.5773483
vn -0.5773483 0.57735425 0.5773483
vn -0.70710677 0 0.70710677
vn 0.5773483 0.57735425 0.5773483
vn 0.70710677 0 0.70710677
vn 0.5773483 0.57735425 0.5773483
vn -0.5773483 0.57735425 0.5773483
vn -0.5773483 0.57735425 -0.5773483
vn 0.5773483 0.57735425 -0.5773483
vn 0.70710677 0 0.70710677
vn 0.70710677 0 -0.70710677
vn -0.70710677 0 -0.70710677
vn -0.70710677 0 -0.70710677
vn -0.5773483 0.57735425 -0.5773483
vn -0.5773483 0.57735425 0.5773483
vn -0.70710677 0 0.70710677
vn 0.5773483 0.57735425 0.5773483
vn 0.70710677 0 0.70710677
vn -0.70710677 0 0.70710677
vn 0.5773483 0.57735425 0.5773483
vn 0.70710677 0 0.70710677
vn -0.5773483 0.57735425 0.5773483
vn -0.70710677 0 -0.70710677
vn -0.5773483 0.57735425 -0.5773483
vn 0.70710677 0 -0.70710677
vn -0.5773483 0.57735425 -0.5773483
vn -0.70710677 0 -0.70710677
vn 0.5773483 0.57735425 -0.5773483
vn 0.70710677 0 0.70710677
vn -0.5773483 0.57735425 0.5773483
vn 0.5773483 0.57735425 0.5773483
vn -0.5773483 0.57735425 -0.5773483
vn 0.5773483 0.57735425 0.5773483
vn -0.5773483 0.57735425 0.5773483
vn 0.5773483 0.57735425 -0.5773483
vn 0.70710677 0 0.70710677
vn 0.70710677 0 -0.70710677
vn -0.70710677 0 -0.70710677
vn -0.70710677 0 -0.70710677
vn -0.5773483 0.57735425 -0.5773483
vn -0.5773483 0.57735425 0.5773483
vn -0.70710677 0 0.70710677
vn 0.5773483 0.57735425 0.5773483
vn 0.70710677 0 0.70710677
g fcbg_desert_003_Transmissiontower_02_0
f 3/3/3 2/2/2 1/1/1
f 4/4/4 3/3/3 1/1/1
f 4/4/4 1/1/1 5/5/5
f 6/6/6 3/3/3 4/4/4
f 7/7/7 4/4/4 5/5/5
f 8/8/8 6/6/6 4/4/4
f 8/8/8 4/4/4 7/7/7
f 9/9/9 8/8/8 7/7/7
f 12/12/12 11/11/11 10/10/10
f 13/13/13 12/12/12 10/10/10
f 13/13/13 10/10/10 14/14/14
f 15/15/15 13/13/13 14/14/14
f 18/18/18 17/17/17 16/16/16
f 19/19/19 18/18/18 16/16/16
f 19/19/19 16/16/16 20/20/20
f 21/21/21 19/19/19 20/20/20
f 24/24/24 23/23/23 22/22/22
f 23/23/23 25/25/25 22/22/22
f 22/22/22 25/25/25 26/26/26
f 25/25/25 27/27/27 26/26/26
f 25/25/25 28/28/28 27/27/27
f 26/26/26 27/27/27 29/29/29
f 28/28/28 30/30/30 27/27/27
f 27/27/27 31/31/31 29/29/29
f 27/27/27 30/30/30 31/31/31
f 30/30/30 32/32/32 31/31/31
f 29/29/29 31/31/31 33/33/33
f 31/31/31 34/34/34 33/33/33
f 37/37/37 36/36/36 35/35/35
f 38/38/38 37/37/37 35/35/35
f 41/41/41 40/40/40 39/39/39
f 42/42/42 41/41/41 39/39/39
f 45/45/45 44/44/44 43/43/43
f 44/44/44 46/46/46 43/43/43
f 43/43/43 46/46/46 47/47/47
f 46/46/46 48/48/48 47/47/47
f 44/44/44 49/49/49 46/46/46
f 50/50/50 49/49/49 44/44/44
f 51/51/51 50/50/50 44/44/44
f 49/49/49 52/52/52 46/46/46
f 46/46/46 52/52/52 48/48/48
f 49/49/49 53/53/53 52/52/52
f 53/53/53 54/54/54 52/52/52
f 52/52/52 55/55/55 48/48/48
f 52/52/52 54/54/54 55/55/55
f 54/54/54 56/56/56 55/55/55
f 48/48/48 55/55/55 57/57/57
f 55/55/55 58/58/58 57/57/57
f 51/51/51 60/60/60 59/59/59
f 61/61/61 51/51/51 59/59/59
f 63/63/63 62/62/62 58/58/58
f 64/64/64 63/63/63 58/58/58
f 67/67/67 66/66/66 65/65/65
f 68/68/68 67/67/67 65/65/65
f 71/71/71 70/70/70 69/69/69
f 72/72/72 71/71/71 69/69/69
f 75/75/75 74/74/74 73/73/73
f 76/76/76 75/75/75 73/73/73
f 79/79/79 78/78/78 77/77/77
f 78/78/78 80/80/80 77/77/77
f 78/78/78 81/81/81 80/80/80
f 81/81/81 82/82/82 80/80/80
f 83/83/83 81/81/81 78/78/78
f 80/80/80 82/82/82 84/84/84
f 85/85/85 83/83/83 78/78/78
f 82/82/82 86/86/86 84/84/84
f 86/86/86 83/83/83 85/85/85
f 84/84/84 86/86/86 85/85/85
f 89/89/89 88/88/88 87/87/87
f 90/90/90 89/89/89 87/87/87
f 91/91/91 89/89/89 90/90/90
f 92/92/92 91/91/91 90/90/90
f 95/95/95 94/94/94 93/93/93
f 94/94/94 96/96/96 93/93/93
f 93/93/93 96/96/96 97/97/97
f 94/94/94 98/98/98 96/96/96
f 96/96/96 99/99/99 97/97/97
f 98/98/98 100/100/100 96/96/96
f 96/96/96 100/100/100 99/99/99
f 100/100/100 101/101/101 99/99/99
f 98/98/98 102/102/102 100/100/100
f 100/100/100 103/103/103 101/101/101
f 102/102/102 103/103/103 100/100/100
f 103/103/103 104/104/104 101/101/101
f 104/104/104 103/103/103 102/102/102
f 105/105/105 104/104/104 102/102/102
f 108/108/108 107/107/107 106/106/106
f 107/107/107 109/109/109 106/106/106
f 106/106/106 109/109/109 110/110/110
f 107/107/107 111/111/111 109/109/109
f 109/109/109 112/112/112 110/110/110
f 111/111/111 113/113/113 109/109/109
f 109/109/109 113/113/113 112/112/112
f 111/111/111 114/114/114 113/113/113
f 113/113/113 115/115/115 112/112/112
f 114/114/114 116/116/116 113/113/113
f 113/113/113 116/116/116 115/115/115
f 116/116/116 117/117/117 115/115/115
f 120/120/120 119/119/119 118/118/118
f 119/119/119 121/121/121 118/118/118
f 118/118/118 121/121/121 122/122/122
f 119/119/119 123/123/123 121/121/121
f 121/121/121 124/124/124 122/122/122
f 123/123/123 124/124/124 121/121/121
f 127/127/127 126/126/126 125/125/125
f 128/128/128 127/127/127 125/125/125
f 129/129/129 127/127/127 128/128/128
f 130/130/130 129/129/129 128/128/128
f 133/133/133 132/132/132 131/131/131
f 134/134/134 133/133/133 131/131/131
f 134/134/134 131/131/131 135/135/135
f 136/136/136 134/134/134 135/135/135
f 133/133/133 134/134/134 136/136/136
f 137/137/137 133/133/133 136/136/136
f 140/140/140 139/139/139 138/138/138
f 141/141/141 140/140/140 138/138/138
f 142/142/142 140/140/140 141/141/141
f 143/143/143 142/142/142 141/141/141
f 146/146/146 145/145/145 144/144/144
f 145/145/145 147/147/147 144/144/144
f 144/144/144 147/147/147 148/148/148
f 147/147/147 149/149/149 148/148/148
f 152/152/152 151/151/151 150/150/150
f 151/151/151 153/153/153 150/150/150
f 150/150/150 153/153/153 154/154/154
f 153/153/153 151/151/151 155/155/155
f 153/153/153 156/156/156 154/154/154
f 156/156/156 153/153/153 155/155/155
f 159/159/159 158/158/158 157/157/157
f 158/158/158 160/160/160 157/157/157
f 160/160/160 158/158/158 161/161/161
f 162/162/162 160/160/160 161/161/161
f 157/157/157 160/160/160 162/162/162
f 163/163/163 157/157/157 162/162/162
f 166/166/166 165/165/165 164/164/164
f 167/167/167 166/166/166 164/164/164
f 168/168/168 166/166/166 167/167/167
f 169/169/169 168/168/168 167/167/167
