g fcbg_cityforest_factory_0007
v -1.2073627 2.1975179 0.39229724
v -0.6461623 2.377924 0.8893735
v -0.7461891 2.1975179 1.0270483
v -1.045516 2.377924 0.33971012
v -1.2073627 2.1975179 -0.39229834
v 5.9604645E-06 2.7700133 -3.6726075E-07
v -1.045516 2.377924 -0.33971116
v 5.00679E-06 2.377924 1.0993259
v -0.7461889 2.1975179 -1.0270488
v 5.00679E-06 2.1975179 1.2695013
v -0.6461623 2.377924 -0.889374
v 5.4836273E-06 2.1975179 -1.2695022
v 0.646173 2.377924 0.8893734
v 0.7461996 2.1975179 1.0270482
v 5.4836273E-06 2.377924 -1.0993267
v 0.7462001 2.1975179 -1.0270488
v 1.0455266 2.377924 0.3397103
v 1.207373 2.1975179 0.39229745
v 0.646173 2.377924 -0.889374
v 1.2073734 2.1975179 -0.3922979
v 1.0455266 2.377924 -0.3397108
v -1.2073627 0.0157727 0.39229724
v -1.2073627 2.1975179 0.39229724
v -0.7461891 2.1975179 1.0270483
v -1.2073627 0.0157727 -0.39229834
v -0.7461891 0.0157727 1.0270483
v -1.2073627 2.1975179 -0.39229834
v 5.00679E-06 2.1975179 1.2695013
v -0.7461889 0.0157727 -1.0270488
v 5.00679E-06 0.0157727 1.2695013
v -0.7461889 2.1975179 -1.0270488
v 0.7461996 2.1975179 1.0270482
v 5.4836273E-06 0.0157727 -1.2695022
v 0.7461996 0.0157727 1.0270482
v 5.4836273E-06 2.1975179 -1.2695022
v 1.207373 2.1975179 0.39229745
v 0.7462001 0.0157727 -1.0270488
v 1.207373 0.0157727 0.39229745
v 0.7462001 2.1975179 -1.0270488
v 1.2073734 2.1975179 -0.3922979
v 1.2073734 0.0157727 -0.3922979
vt 0.7852528 0.20863503
vt 0.8018037 0.19755429
vt 0.7983272 0.1923536
vt 0.7913183 0.21060497
vt 0.7852528 0.23047727
vt 0.8180021 0.21924722
vt 0.7913183 0.22799942
vt 0.8180021 0.19293605
vt 0.79863894 0.24637692
vt 0.8180021 0.18665768
vt 0.80211186 0.24102007
vt 0.8180021 0.25198284
vt 0.8018037 0.19755429
vt 0.7983272 0.1923536
vt 0.8180021 0.24565522
vt 0.79863894 0.24637692
vt 0.7913183 0.21060497
vt 0.7852528 0.20863503
vt 0.80211186 0.24102007
vt 0.7852528 0.23047727
vt 0.7913183 0.22799942
vt 0.8766544 0.18631858
vt 0.8766544 0.23156571
vt 0.89292616 0.23156567
vt 0.8603827 0.18631858
vt 0.8929256 0.18631858
vt 0.8603827 0.23156571
vt 0.9091972 0.23156561
vt 0.8441106 0.18631858
vt 0.9091972 0.18631847
vt 0.8441106 0.23156567
vt 0.8929256 0.23156554
vt 0.82783896 0.18631847
vt 0.8929256 0.18631841
vt 0.82783896 0.23156561
vt 0.87665385 0.23156548
vt 0.8441106 0.18631841
vt 0.87665385 0.18631841
vt 0.8441106 0.23156561
vt 0.8603827 0.23156554
vt 0.8603818 0.18631841
vn -0.892191 0.3463507 0.28989038
vn -0.33964476 0.8161512 0.46748108
vn -0.55140436 0.34635052 0.758943
vn -0.5495568 0.8161513 0.1785618
vn -0.892191 0.34635064 -0.28989068
vn -0 1 0
vn -0.5495568 0.8161513 -0.17856197
vn -0 0.81615114 0.5778385
vn -0.5514042 0.34635046 -0.7589431
vn -0 0.34635043 0.9381052
vn -0.3396448 0.8161512 -0.46748114
vn -0 0.34635055 -0.9381052
vn 0.33964488 0.8161511 0.46748132
vn 0.5514043 0.34635043 0.7589432
vn -0 0.81615114 -0.5778384
vn 0.55140454 0.3463507 -0.75894284
vn 0.54955703 0.81615114 0.178562
vn 0.892191 0.34635052 0.28989068
vn 0.33964476 0.8161513 -0.467481
vn 0.89219105 0.3463507 -0.2898901
vn 0.54955685 0.8161513 -0.17856173
vn -0.95105654 0 0.30901697
vn -0.892191 0.3463507 0.28989038
vn -0.55140436 0.34635052 0.758943
vn -0.9510565 0 -0.3090173
vn -0.5877851 0 0.80901706
vn -0.892191 0.34635064 -0.28989068
vn -0 0.34635043 0.9381052
vn -0.58778507 0 -0.8090171
vn -0 0 1
vn -0.5514042 0.34635046 -0.7589431
vn 0.5514043 0.34635043 0.7589432
vn -0 0 -1
vn 0.5877851 0 0.8090171
vn -0 0.34635055 -0.9381052
vn 0.892191 0.34635052 0.28989068
vn 0.5877854 0 -0.8090169
vn 0.9510565 0 0.30901724
vn 0.55140454 0.3463507 -0.75894284
vn 0.89219105 0.3463507 -0.2898901
vn 0.95105654 0 -0.30901662
g fcbg_cityforest_factory_0007_0
f 3/3/3 2/2/2 1/1/1
f 2/2/2 4/4/4 1/1/1
f 1/1/1 4/4/4 5/5/5
f 2/2/2 6/6/6 4/4/4
f 4/4/4 6/6/6 7/7/7
f 4/4/4 7/7/7 5/5/5
f 8/8/8 6/6/6 2/2/2
f 8/8/8 2/2/2 3/3/3
f 5/5/5 7/7/7 9/9/9
f 10/10/10 8/8/8 3/3/3
f 7/7/7 11/11/11 9/9/9
f 7/7/7 6/6/6 11/11/11
f 9/9/9 11/11/11 12/12/12
f 13/13/13 8/8/8 10/10/10
f 13/13/13 6/6/6 8/8/8
f 14/14/14 13/13/13 10/10/10
f 11/11/11 15/15/15 12/12/12
f 11/11/11 6/6/6 15/15/15
f 12/12/12 15/15/15 16/16/16
f 17/17/17 13/13/13 14/14/14
f 17/17/17 6/6/6 13/13/13
f 18/18/18 17/17/17 14/14/14
f 15/15/15 19/19/19 16/16/16
f 15/15/15 6/6/6 19/19/19
f 16/16/16 19/19/19 20/20/20
f 21/21/21 17/17/17 18/18/18
f 21/21/21 6/6/6 17/17/17
f 20/20/20 21/21/21 18/18/18
f 19/19/19 21/21/21 20/20/20
f 19/19/19 6/6/6 21/21/21
f 24/24/24 23/23/23 22/22/22
f 22/22/22 23/23/23 25/25/25
f 26/26/26 24/24/24 22/22/22
f 23/23/23 27/27/27 25/25/25
f 28/28/28 24/24/24 26/26/26
f 25/25/25 27/27/27 29/29/29
f 30/30/30 28/28/28 26/26/26
f 27/27/27 31/31/31 29/29/29
f 32/32/32 28/28/28 30/30/30
f 29/29/29 31/31/31 33/33/33
f 34/34/34 32/32/32 30/30/30
f 31/31/31 35/35/35 33/33/33
f 36/36/36 32/32/32 34/34/34
f 33/33/33 35/35/35 37/37/37
f 38/38/38 36/36/36 34/34/34
f 35/35/35 39/39/39 37/37/37
f 40/40/40 36/36/36 38/38/38
f 37/37/37 39/39/39 41/41/41
f 41/41/41 40/40/40 38/38/38
f 39/39/39 40/40/40 41/41/41
