g febg_tropical_003_plant_02
v 0.3661692 2.9258826 0.26939613
v 0.26226106 2.5174575 0.11470115
v 0.4097079 2.9234347 0.28574187
v 0.036634922 2.5174575 0.033398688
v 0.105789185 2.1703126 0.03931415
v -0.03252381 2.1703126 0.03931415
v -0.041544378 1.4077666 0.03931415
v 0.11159131 1.4077666 0.03931415
v -0.04281813 0.8315463 0.03931415
v 0.11286506 0.8315463 0.03931415
v -0.04409188 1.1920929E-07 0.03931415
v 0.11413881 1.1920929E-07 0.03931415
v -0.20176494 2.5174575 0.11300129
v 0.0518021 2.9435384 0.15136796
v -0.34764796 2.9234347 0.24133736
v -0.53619933 3.3514333 0.47492325
v 0.086818874 3.4440274 0.40526593
v 0.6065273 3.3696601 0.5500066
v 0.43496534 2.9627717 0.32501507
v 0.5918724 3.8397331 1.0158322
v 0.078564465 3.894713 0.8259119
v 0.5579344 3.9372315 1.1833689
v -0.026087105 3.5590363 0.51991713
v -0.3345886 3.5470695 0.6048595
v -0.5607995 3.4633512 0.6378772
v -0.34678215 3.5843573 0.65808046
v -0.66382825 3.8237228 1.0106511
v -0.5732106 3.509274 0.7141346
v -0.450024 3.9357448 1.1771543
v 0.11897996 4.0355415 1.0510076
v -0.31959826 4.093495 1.5217922
v 0.2994401 4.056724 1.186823
v 0.48457363 3.9900856 1.307852
v 0.071066976 4.14658 1.4935386
v -0.229307 4.0104337 1.8789003
v 0.29216474 4.060926 1.259318
v 0.45035008 4.056506 1.5295482
v 0.4691164 4.021027 1.4857783
v 0.22650537 3.9896913 1.8740456
v 0.019387186 4.0149574 1.8971136
v -0.16475368 3.6449308 1.9630313
v -0.040565252 3.6409235 1.973602
v 0.06312531 3.634564 1.9585936
v -0.1910401 3.6029153 1.7211547
v -0.0460546 0.79785764 -0.0489282
v -0.042505324 1.1920929E-07 -0.15677094
v -0.0029374957 1.1920929E-07 -0.048053384
v -0.08498788 0.79785764 -0.15589607
v -0.08473402 1.2191836 -0.04980308
v -0.12302816 1.2191836 -0.15502122
v -0.14829463 1.797462 -0.05368322
v -0.18287176 1.7967639 -0.14871594
v -0.1859451 2.1239953 -0.10054004
v -0.2994902 2.111557 -0.24450108
v -0.18526965 2.1221912 0.07480693
v -0.27425998 2.3790221 -0.073800325
v -0.40982604 2.3428764 -0.28528377
v -0.2710008 2.3626173 0.17371976
v -0.39707494 2.6177075 -0.03475833
v -0.5676261 2.5518441 -0.34542656
v -0.39520288 2.5852292 0.27581477
v -0.791711 2.7415514 -0.39017555
v -0.62875247 2.8809116 0.036349654
v -1.0584733 3.066811 0.16085082
v -1.304067 2.910262 -0.313678
v -0.5921401 2.8078272 0.41546047
v -1.3933566 2.9424686 -0.1417579
v -0.93665564 2.9954085 0.4692254
v -0.8972148 2.9744484 0.5125148
v -0.9999126 3.0305388 0.5532658
v -0.9317374 3.0007937 0.5234482
v -1.1720593 3.0385303 0.595227
v -1.2000728 3.0836782 0.20466149
v -1.3664265 2.979983 -0.01431936
v -1.5305953 3.0252035 0.3099658
v -1.4404807 3.0148275 0.568238
v -1.4815762 2.9426951 0.5271244
v -1.2881067 3.0467439 0.14664012
v -1.4139812 3.0020492 0.01767397
v -1.6057737 2.9261456 0.02376622
v -1.4440527 2.9371424 -0.071130455
v -1.7043285 2.7321093 0.09898096
v -1.7230222 2.775793 0.27508044
v -1.5248566 2.9188612 0.51416934
v -1.6595116 2.774279 0.40457237
v -1.6708484 2.5122037 0.3487268
v -1.6362803 2.4903595 0.25683087
v -1.6390953 2.5114467 0.41347504
v -1.4434679 2.4679217 0.30494332
v -0.109025955 2.2463887 0.6683974
v -0.16884238 2.3073747 0.8715811
v -0.3234331 2.5418944 0.7617439
v -0.36081153 2.5157847 0.5179181
v -0.08965224 2.0914717 0.47303307
v -0.29391927 2.256801 0.31469363
v -0.09452516 1.9459558 0.33455688
v -0.25315922 2.0373077 0.20983809
v -0.10864067 1.7741263 0.22829163
v -0.21961564 1.8099003 0.13901573
v -0.16568744 1.5142903 0.14760113
v -0.376917 1.8134494 0.14875245
v -0.4621904 2.037684 0.2016154
v -0.24753839 1.5214024 0.1242792
v -0.5656588 2.260536 0.29005265
v -0.21458405 1.0066893 0.10390377
v -0.12099737 1.0037565 0.12976861
v -0.19299376 0.63081956 0.097444355
v -0.09576714 0.6298994 0.12378514
v -0.17100006 1.1920929E-07 0.09789765
v -0.0708769 1.1920929E-07 0.124727964
v -0.6797842 2.4937139 0.43016982
v -0.40793586 2.6426656 0.73339045
v -0.74700737 2.6197293 0.6317533
v -0.44942105 2.6982574 0.89662087
v -0.7831347 2.7071738 0.8333323
v -0.7629905 2.7302372 0.99686646
v -0.20253557 2.4025433 1.0747647
v -0.16158062 2.3341506 0.8855561
v -0.2622251 2.4076293 1.1921991
v -0.4875747 2.695846 1.0230622
v -0.7493328 2.6669304 1.2023346
v -0.5679797 2.5761814 1.2768197
v -0.3733995 2.3994973 1.3543825
v -0.7339752 2.4234674 1.4024224
v -0.50700283 2.2764556 1.4939103
v -0.6142427 2.3509996 1.4513733
v -0.67055964 2.0280426 1.5628877
vt 0.04269298 0.42458716
vt 0.04580423 0.4119449
vt 0.041205656 0.42467824
vt 0.05346852 0.4119449
vt 0.050827757 0.40206477
vt 0.05566916 0.40206477
vt 0.05566916 0.38778338
vt 0.050827757 0.38778338
vt 0.05566916 0.3703604
vt 0.050827757 0.3703604
vt 0.05566916 0.35166258
vt 0.050827757 0.35166258
vt 0.061527412 0.4119449
vt 0.0534837 0.42391938
vt 0.066733055 0.42402562
vt 0.0731832 0.43789724
vt 0.053362284 0.43902034
vt 0.037016854 0.43999162
vt 0.040689643 0.42695475
vt 0.03612142 0.4589323
vt 0.05319534 0.45589694
vt 0.03732039 0.4646995
vt 0.057687677 0.44216192
vt 0.06724907 0.44495445
vt 0.07451876 0.44410455
vt 0.0670973 0.44629002
vt 0.07758448 0.45832524
vt 0.07495889 0.44609272
vt 0.070709385 0.46439597
vt 0.051966015 0.46198285
vt 0.066110805 0.4726673
vt 0.046305064 0.4666573
vt 0.039961156 0.4701328
vt 0.0534837 0.4726673
vt 0.061891653 0.48238048
vt 0.046502363 0.4682205
vt 0.041205656 0.4726673
vt 0.0405227 0.47127107
vt 0.047063906 0.48238048
vt 0.05381759 0.48238048
vt 0.05811263 0.48922524
vt 0.054075595 0.48922524
vt 0.050691165 0.48922524
vt 0.054318424 0.49608514
vt 0.050827757 0.3703604
vt 0.05566916 0.35166258
vt 0.050827757 0.35166258
vt 0.05566916 0.3703604
vt 0.050827757 0.38778338
vt 0.05566916 0.38778338
vt 0.050827757 0.40206477
vt 0.05566916 0.40206477
vt 0.05346852 0.4119449
vt 0.061527412 0.4119449
vt 0.04580423 0.4119449
vt 0.053559583 0.42009482
vt 0.06477525 0.42009482
vt 0.042632274 0.42009482
vt 0.05342299 0.42774394
vt 0.06929794 0.4278502
vt 0.039779034 0.42926162
vt 0.074033104 0.4377151
vt 0.05314981 0.43895963
vt 0.05319534 0.45589694
vt 0.07758448 0.45832524
vt 0.036333896 0.44021928
vt 0.07145305 0.4641683
vt 0.038489006 0.45433372
vt 0.036000006 0.4535142
vt 0.03587859 0.45799133
vt 0.0359393 0.45560858
vt 0.036394604 0.46498784
vt 0.05324087 0.46110258
vt 0.06538232 0.4646995
vt 0.05222402 0.47269768
vt 0.04037093 0.47292534
vt 0.04264745 0.47635528
vt 0.05709578 0.46369782
vt 0.0643503 0.46676353
vt 0.066444695 0.4726066
vt 0.0699809 0.4666421
vt 0.061891653 0.48238048
vt 0.05381759 0.48238048
vt 0.044149958 0.47860146
vt 0.046745192 0.4825019
vt 0.054075595 0.48922524
vt 0.05811263 0.48922524
vt 0.050539397 0.48928595
vt 0.054318424 0.49608514
vt 0.037790872 0.43997645
vt 0.036956146 0.4494468
vt 0.049446665 0.44789875
vt 0.05314981 0.43895963
vt 0.039779034 0.42926162
vt 0.05342299 0.42774394
vt 0.042632274 0.42009482
vt 0.053559583 0.42009482
vt 0.04580423 0.4119449
vt 0.05346852 0.4119449
vt 0.050827757 0.40206477
vt 0.061527412 0.4119449
vt 0.06477525 0.42009482
vt 0.05566916 0.40206477
vt 0.068690866 0.4279716
vt 0.05566916 0.38778338
vt 0.050827757 0.38778338
vt 0.05566916 0.3703604
vt 0.050827757 0.3703604
vt 0.05566916 0.35166258
vt 0.050827757 0.35166258
vt 0.0731832 0.43789724
vt 0.053180162 0.4474283
vt 0.07538384 0.44811124
vt 0.05319534 0.45589694
vt 0.07650693 0.45791546
vt 0.070709385 0.46439597
vt 0.03612142 0.4589323
vt 0.03684991 0.45063058
vt 0.03732039 0.4646995
vt 0.05324087 0.46110258
vt 0.066110805 0.4726673
vt 0.0534837 0.4726673
vt 0.041205656 0.4726673
vt 0.061891653 0.48238048
vt 0.047063906 0.48238048
vt 0.05381759 0.48238048
vt 0.054318424 0.49608514
vn 0.33441424 0.31511164 -0.88818455
vn 0.33635312 0.18714535 -0.9229535
vn 0.33053648 0.25888407 -0.9075928
vn 0.02419287 0.14642882 -0.98892534
vn 0.0610317 0.0029514432 -0.99813145
vn -0.059179068 0.0029514432 -0.99824303
vn 0.0009263158 -0.0009263158 -0.99999917
vn 0.0009263158 -0.0009263158 -0.99999917
vn 0.0009263158 -0.0009263158 -0.99999917
vn 0.0009263158 -0.0009263158 -0.99999917
vn 0.0009263158 -0.0009263158 -0.99999917
vn 0.0009263158 -0.0009263158 -0.99999917
vn -0.27827287 0.16969538 -0.9453929
vn 0.06297058 0.34225607 -0.9374942
vn -0.21428978 0.35970604 -0.9081252
vn -0.24531186 0.5962497 -0.76440066
vn 0.08429825 0.5574721 -0.8259047
vn 0.3150254 0.5497166 -0.7736735
vn 0.32084203 0.3771559 -0.8688002
vn 0.3033921 0.7494215 -0.5884901
vn 0.028070688 0.7881992 -0.6147797
vn 0.3479864 0.8483046 -0.3991049
vn -0.15030658 0.6718662 -0.72526115
vn -0.23755634 0.66992736 -0.70339483
vn -0.3577671 0.7436049 -0.5648491
vn -0.26276183 0.6718662 -0.692497
vn -0.25306737 0.76493263 -0.59231323
vn -0.2724563 0.66411066 -0.69622165
vn -0.20847309 0.90065444 -0.38126183
vn 0.041642845 0.90647113 -0.4202094
vn -0.15418434 0.98596525 -0.06402864
vn 0.35961974 0.7940159 -0.49011472
vn 0.41390842 0.90065444 -0.13229291
vn 0.028070688 0.99953747 0.011698388
vn -0.09214008 0.74166596 0.6644109
vn 0.20838684 0.95882094 -0.1929698
vn 0.25863665 0.9659747 -0
vn 0.29369766 0.9433099 -0.15462257
vn 0.18512022 0.75329936 0.6310868
vn 0.043581724 0.6660496 0.74463314
vn -0.08826232 -0.5457525 0.83328503
vn -0.010707021 -0.537997 0.84287876
vn 0.109503746 -0.2568589 0.96022516
vn -0.041729093 -0.9839401 0.17355274
vn 0.9374069 0.066934586 -0.34174272
vn 0.93934584 0.04948461 -0.3393828
vn 0.93934584 0.04948461 -0.3393828
vn 0.9374069 0.068873525 -0.34135726
vn 0.935468 0.09214008 -0.34118876
vn 0.935468 0.09214008 -0.34118876
vn 0.9509791 0.0863235 -0.29696298
vn 0.9180181 0.08438456 -0.38745582
vn 0.92383474 0.2162286 -0.31587112
vn 0.77260184 0.22010636 -0.5955162
vn 0.968429 0.24918962 0.007054777
vn 0.87342376 0.40042257 -0.27711496
vn 0.7493352 0.38103366 -0.54158103
vn 0.9102626 0.41205585 0.04039771
vn 0.78617406 0.57298315 -0.23156136
vn 0.6659633 0.56716645 -0.4845773
vn 0.8152573 0.5768609 0.05086276
vn 0.421664 0.7940159 -0.43787926
vn 0.54769135 0.8153436 -0.18774715
vn 0.19287574 0.9704542 -0.1449743
vn 0.115320385 0.923921 -0.36478922
vn 0.61943007 0.78044367 0.08493603
vn -0.101834536 0.9491265 -0.29797432
vn 0.4565639 0.88902116 -0.034508567
vn 0.4775107 0.8786259 -0
vn 0.26267552 0.9646375 0.021817487
vn 0.34992528 0.92779875 -0.12938993
vn -0.008768141 0.9956597 0.092654504
vn -0.0746901 0.99372077 -0.08330885
vn -0.26470065 0.93361545 -0.24144508
vn -0.54002213 0.8386102 0.07147735
vn -0.43338358 0.8773879 0.20583777
vn -0.88902116 0.32286716 0.32465088
vn -0.23949528 0.9452487 -0.22169098
vn -0.30153954 0.9103489 -0.28344095
vn -0.61757743 0.7610549 -0.19847822
vn -0.33643937 0.81146574 -0.4778409
vn -0.97239316 0.21235085 -0.09674009
vn -0.9704542 0.21041203 0.118090555
vn -0.7823825 0.5264499 0.33275834
vn -0.8676934 0.2996006 0.39667064
vn -0.774627 -0.6019801 0.19383766
vn -0.6738051 -0.73770195 0.04221939
vn -0.67574394 -0.66208553 0.3240569
vn -0.16581762 -0.9781235 0.12561433
vn 0.7939296 0.56716645 -0.21908455
vn 0.81719613 0.5710443 0.07809543
vn 0.7822963 0.61757743 -0.081305794
vn 0.46044165 0.72809386 -0.5078118
vn 0.7454575 0.4799168 -0.46257216
vn 0.4507472 0.5380832 -0.71224535
vn 0.70474094 0.38103366 -0.59845936
vn 0.39451963 0.39266706 -0.8307628
vn 0.6659633 0.2220453 -0.7121719
vn 0.34023088 0.20265639 -0.9182447
vn 0.33053648 0.04948461 -0.94249505
vn -0.022340298 0.18908429 -0.9817067
vn 0.039703965 0.35970604 -0.9322205
vn 0.22583675 0.041729093 -0.973271
vn 0.10756487 0.53420544 -0.83848333
vn 0.26849222 0.04560685 -0.96220165
vn 0.26849222 0.04366803 -0.9622916
vn 0.26267552 0.020401359 -0.9646685
vn 0.26267552 0.020401359 -0.9646685
vn 0.26073664 0.008768141 -0.9653701
vn 0.26073664 0.008768141 -0.9653701
vn 0.109503746 0.7552382 -0.6462385
vn 0.46044165 0.84248793 -0.27965614
vn 0.076542735 0.8987155 -0.4318005
vn 0.42941952 0.90065444 -0.06648654
vn 0.074603856 0.9704542 -0.22946206
vn 0.12113708 0.98402643 0.13045222
vn 0.7357631 0.6660496 0.12259932
vn 0.7997462 0.59818864 -0.050757475
vn 0.5961635 0.7125827 0.36988506
vn 0.37706965 0.8928989 0.24606916
vn 0.12113708 0.84248793 0.5249189
vn 0.24134785 0.74166596 0.62584573
vn 0.36931413 0.6796217 0.63381493
vn -0.032034755 0.5574721 0.8295774
vn 0.026131809 0.4799168 0.8769247
vn -0.008768141 0.4915501 0.87080514
vn -0.14642882 0.34613383 0.92668766
g febg_tropical_003_plant_02_0
f 3/3/3 2/2/2 1/1/1
f 2/2/2 4/4/4 1/1/1
f 4/4/4 2/2/2 5/5/5
f 4/4/4 5/5/5 6/6/6
f 6/6/6 5/5/5 7/7/7
f 5/5/5 8/8/8 7/7/7
f 9/9/9 7/7/7 8/8/8
f 10/10/10 9/9/9 8/8/8
f 11/11/11 9/9/9 10/10/10
f 12/12/12 11/11/11 10/10/10
f 4/4/4 6/6/6 13/13/13
f 4/4/4 13/13/13 14/14/14
f 14/14/14 1/1/1 4/4/4
f 13/13/13 15/15/15 14/14/14
f 15/15/15 16/16/16 14/14/14
f 14/14/14 17/17/17 1/1/1
f 16/16/16 17/17/17 14/14/14
f 17/17/17 18/18/18 1/1/1
f 18/18/18 19/19/19 1/1/1
f 20/20/20 18/18/18 17/17/17
f 21/21/21 20/20/20 17/17/17
f 22/22/22 20/20/20 21/21/21
f 17/17/17 16/16/16 23/23/23
f 21/21/21 17/17/17 23/23/23
f 16/16/16 24/24/24 23/23/23
f 16/16/16 25/25/25 24/24/24
f 26/26/26 21/21/21 23/23/23
f 27/27/27 21/21/21 26/26/26
f 28/28/28 27/27/27 26/26/26
f 21/21/21 27/27/27 29/29/29
f 30/30/30 21/21/21 29/29/29
f 30/30/30 22/22/22 21/21/21
f 30/30/30 29/29/29 31/31/31
f 30/30/30 32/32/32 22/22/22
f 22/22/22 32/32/32 33/33/33
f 34/34/34 30/30/30 31/31/31
f 34/34/34 31/31/31 35/35/35
f 30/30/30 34/34/34 36/36/36
f 34/34/34 37/37/37 36/36/36
f 37/37/37 38/38/38 36/36/36
f 39/39/39 37/37/37 34/34/34
f 40/40/40 34/34/34 35/35/35
f 40/40/40 39/39/39 34/34/34
f 40/40/40 35/35/35 41/41/41
f 39/39/39 40/40/40 42/42/42
f 42/42/42 40/40/40 41/41/41
f 43/43/43 39/39/39 42/42/42
f 44/44/44 42/42/42 41/41/41
f 44/44/44 43/43/43 42/42/42
f 47/47/47 46/46/46 45/45/45
f 46/46/46 48/48/48 45/45/45
f 45/45/45 48/48/48 49/49/49
f 48/48/48 50/50/50 49/49/49
f 51/51/51 49/49/49 50/50/50
f 52/52/52 51/51/51 50/50/50
f 53/53/53 51/51/51 52/52/52
f 53/53/53 52/52/52 54/54/54
f 53/53/53 55/55/55 51/51/51
f 53/53/53 54/54/54 56/56/56
f 55/55/55 53/53/53 56/56/56
f 54/54/54 57/57/57 56/56/56
f 58/58/58 55/55/55 56/56/56
f 56/56/56 57/57/57 59/59/59
f 58/58/58 56/56/56 59/59/59
f 57/57/57 60/60/60 59/59/59
f 61/61/61 58/58/58 59/59/59
f 60/60/60 62/62/62 59/59/59
f 59/59/59 63/63/63 61/61/61
f 62/62/62 63/63/63 59/59/59
f 63/63/63 62/62/62 64/64/64
f 62/62/62 65/65/65 64/64/64
f 63/63/63 66/66/66 61/61/61
f 64/64/64 65/65/65 67/67/67
f 63/63/63 68/68/68 66/66/66
f 64/64/64 68/68/68 63/63/63
f 66/66/66 68/68/68 69/69/69
f 70/70/70 68/68/68 64/64/64
f 71/71/71 68/68/68 70/70/70
f 72/72/72 70/70/70 64/64/64
f 73/73/73 64/64/64 67/67/67
f 73/73/73 72/72/72 64/64/64
f 73/73/73 67/67/67 74/74/74
f 72/72/72 73/73/73 75/75/75
f 76/76/76 72/72/72 75/75/75
f 76/76/76 75/75/75 77/77/77
f 78/78/78 73/73/73 74/74/74
f 75/75/75 73/73/73 78/78/78
f 79/79/79 75/75/75 78/78/78
f 80/80/80 75/75/75 79/79/79
f 81/81/81 80/80/80 79/79/79
f 75/75/75 80/80/80 82/82/82
f 83/83/83 75/75/75 82/82/82
f 84/84/84 75/75/75 83/83/83
f 85/85/85 84/84/84 83/83/83
f 86/86/86 83/83/83 82/82/82
f 85/85/85 83/83/83 86/86/86
f 87/87/87 86/86/86 82/82/82
f 88/88/88 85/85/85 86/86/86
f 89/89/89 86/86/86 87/87/87
f 89/89/89 88/88/88 86/86/86
f 92/92/92 91/91/91 90/90/90
f 92/92/92 90/90/90 93/93/93
f 93/93/93 90/90/90 94/94/94
f 95/95/95 93/93/93 94/94/94
f 94/94/94 96/96/96 95/95/95
f 96/96/96 97/97/97 95/95/95
f 96/96/96 98/98/98 97/97/97
f 98/98/98 99/99/99 97/97/97
f 99/99/99 98/98/98 100/100/100
f 99/99/99 101/101/101 97/97/97
f 101/101/101 102/102/102 97/97/97
f 97/97/97 102/102/102 95/95/95
f 99/99/99 103/103/103 101/101/101
f 99/99/99 100/100/100 103/103/103
f 102/102/102 104/104/104 95/95/95
f 103/103/103 100/100/100 105/105/105
f 100/100/100 106/106/106 105/105/105
f 107/107/107 105/105/105 106/106/106
f 108/108/108 107/107/107 106/106/106
f 109/109/109 107/107/107 108/108/108
f 110/110/110 109/109/109 108/108/108
f 104/104/104 111/111/111 95/95/95
f 111/111/111 93/93/93 95/95/95
f 93/93/93 111/111/111 112/112/112
f 111/111/111 113/113/113 112/112/112
f 112/112/112 113/113/113 114/114/114
f 112/112/112 92/92/92 93/93/93
f 92/92/92 112/112/112 114/114/114
f 113/113/113 115/115/115 114/114/114
f 114/114/114 115/115/115 116/116/116
f 117/117/117 92/92/92 114/114/114
f 118/118/118 92/92/92 117/117/117
f 119/119/119 117/117/117 114/114/114
f 120/120/120 114/114/114 116/116/116
f 120/120/120 119/119/119 114/114/114
f 120/120/120 116/116/116 121/121/121
f 119/119/119 120/120/120 122/122/122
f 122/122/122 120/120/120 121/121/121
f 123/123/123 119/119/119 122/122/122
f 122/122/122 121/121/121 124/124/124
f 125/125/125 123/123/123 122/122/122
f 126/126/126 122/122/122 124/124/124
f 126/126/126 125/125/125 122/122/122
f 127/127/127 126/126/126 124/124/124
f 127/127/127 125/125/125 126/126/126
