g febg_christmas_001_ornament_11
v 0.18180054 0.7595066 -7.748604E-07
v -0.0067288876 0.5182036 0.1715821
v 0.015044868 1.141682 -7.748604E-07
v 0.5929642 0.69016206 -7.748604E-07
v -0.17796266 0.7720692 -7.748604E-07
v 0.28102148 0.4134723 -7.748604E-07
v -0.5929643 0.7315755 8.940697E-07
v 0.34213257 0.0010033846 -7.748604E-07
v -0.3010782 0.4338001 8.940697E-07
v -0.017417252 0.2121734 8.940697E-07
v -0.39081514 0.026596904 8.940697E-07
v -0.3010782 0.4338001 8.940697E-07
v -0.0067288876 0.5182036 -0.17158198
v -0.5929643 0.7315755 8.940697E-07
v -0.39081514 0.026596904 8.940697E-07
v -0.17796266 0.7720692 -7.748604E-07
v -0.017417252 0.2121734 8.940697E-07
v 0.015044868 1.141682 -7.748604E-07
v 0.34213257 0.0010033846 -7.748604E-07
v 0.18180054 0.7595066 -7.748604E-07
v 0.28102148 0.4134723 -7.748604E-07
v 0.5929642 0.69016206 -7.748604E-07
vt 0.7728862 0.7952488
vt 0.7880995 0.7750051
vt 0.7863465 0.82729125
vt 0.7397311 0.78942573
vt 0.80191034 0.79630065
vt 0.7648833 0.7662247
vt 0.8353857 0.7929013
vt 0.7599595 0.7316366
vt 0.8118493 0.767932
vt 0.7889684 0.7493499
vt 0.8190748 0.733786
vt 0.8118493 0.767932
vt 0.7880995 0.7750051
vt 0.8353857 0.7929013
vt 0.8190748 0.733786
vt 0.80191034 0.79630065
vt 0.7889684 0.7493499
vt 0.7863465 0.82729125
vt 0.7599595 0.7316366
vt 0.7728862 0.7952488
vt 0.7648833 0.7662247
vt 0.7397311 0.78942573
vn 0.6159663 0.78777254 -0
vn -0.0009766817 0.0009766817 0.99999905
vn 0.034192502 0.9993907 -0.0070039006
vn 0.96031433 0.27646863 -0.036898464
vn -0.5594225 0.8288827 -0
vn 0.93882203 -0.34289974 -0.032139517
vn -0.93882155 0.34289932 -0.03215794
vn 0.5594227 -0.82888263 -0
vn -0.9603139 -0.2764691 -0.03690533
vn -0.034192085 -0.9993912 -0.0069397804
vn -0.6159658 -0.7877729 -0
vn -0.9603139 -0.2764691 -0.03690533
vn -0.0009766817 0.0009766817 -0.99999905
vn -0.93882155 0.34289932 -0.03215794
vn -0.6159658 -0.7877729 -0
vn -0.5594225 0.8288827 -0
vn -0.034192085 -0.9993912 -0.0069397804
vn 0.034192502 0.9993907 -0.0070039006
vn 0.5594227 -0.82888263 -0
vn 0.6159663 0.78777254 -0
vn 0.93882203 -0.34289974 -0.032139517
vn 0.96031433 0.27646863 -0.036898464
g febg_christmas_001_ornament_11_0
f 3/3/3 2/2/2 1/1/1
f 1/1/1 2/2/2 4/4/4
f 5/5/5 2/2/2 3/3/3
f 4/4/4 2/2/2 6/6/6
f 7/7/7 2/2/2 5/5/5
f 6/6/6 2/2/2 8/8/8
f 9/9/9 2/2/2 7/7/7
f 8/8/8 2/2/2 10/10/10
f 11/11/11 2/2/2 9/9/9
f 10/10/10 2/2/2 11/11/11
f 14/14/14 13/13/13 12/12/12
f 12/12/12 13/13/13 15/15/15
f 16/16/16 13/13/13 14/14/14
f 15/15/15 13/13/13 17/17/17
f 18/18/18 13/13/13 16/16/16
f 17/17/17 13/13/13 19/19/19
f 20/20/20 13/13/13 18/18/18
f 19/19/19 13/13/13 21/21/21
f 22/22/22 13/13/13 20/20/20
f 21/21/21 13/13/13 22/22/22
