g febg_oldcastle_001_rope_01
v -0.08435762 1.3729014 -0.16283432
v -0.08486521 1.5200094 -0.20567046
v -0.10008091 1.5088376 -0.092041
v -0.0997442 1.409005 -0.044779018
v -0.08435762 1.2867215 -0.05265741
v -0.08435762 1.2867198 0.083533436
v -0.0997442 1.409005 0.07565504
v -0.08435762 1.3729014 0.19371036
v -0.08486521 1.5200094 0.23654819
v -0.10008091 1.5088376 0.12291703
v -0.08435762 1.3729014 0.19371036
v -0.011483744 1.2867198 0.083533436
v -0.08435762 1.2867198 0.083533436
v -0.011483744 1.3729014 0.19371036
v -0.08486521 1.5200094 0.23654819
v -0.010979518 1.5200094 0.23654819
v 0.0039028227 1.409005 0.07565504
v 0.0042361915 1.5088376 0.12291703
v -0.0997442 1.409005 0.07565504
v -0.10008091 1.5088376 0.12291703
v 0.0039028227 1.409005 -0.044779018
v -0.011483744 1.2867215 -0.05265741
v -0.011483744 1.3729014 -0.16283432
v -0.08435762 1.2867215 -0.05265741
v -0.08435762 1.3729014 -0.16283432
v -0.010979518 1.5200094 -0.20567046
v -0.08486521 1.5200094 -0.20567046
v 0.0042361915 1.5088376 -0.092041
v -0.10008091 1.5088376 -0.092041
v -0.0997442 1.409005 -0.044779018
v 0.14444916 1.4454738 -0.12865384
v 0.1269083 1.3259795 -0.23654747
v 0.20461845 1.357086 -0.15803826
v 0.06674236 1.4143639 -0.20716305
v -0.017140836 1.2850363 -0.048172936
v -0.11180052 1.2850363 -0.024542779
v -0.009458438 0.70578754 -0.025222912
v 0.14444916 1.4454738 -0.12865384
v -0.0908272 0.70578754 -0.03294885
v -0.006972477 -0.0010097921 -0.03547503
v -0.10585362 -0.0024588257 -0.036443293
v -0.0902057 1.2850363 0.07904896
v 0.20461845 1.357086 -0.15803826
v 0.004453972 1.2850363 0.05541715
v -0.09788811 0.70578754 0.056098938
v -0.100372404 0.00018462539 0.06635609
v -0.016519338 0.70578754 0.06382489
v -0.017140836 1.2850363 -0.048172936
v -0.0014912635 0.0016319752 0.06732434
v -0.009458438 0.70578754 -0.025222912
v -0.006972477 -0.0010097921 -0.03547503
v -0.076708734 1.3077853 -0.075840294
v -0.17711598 1.2649542 0.0011260808
v -0.065796584 1.2093716 -0.03222853
v -0.113815755 1.3263146 -0.06472376
v -0.20461243 1.3898442 0.009364635
v -0.122979015 1.3679445 -0.061976463
v -0.12757573 1.4899951 -0.01371941
v -0.09730178 1.4013276 -0.06967226
v -0.004022464 1.4899951 -0.050735965
v -0.056117356 1.4013276 -0.08201335
v 0.07301426 1.3898442 -0.07381834
v -0.030440122 1.3679445 -0.089705795
v 0.04551944 1.2649542 -0.06557979
v -0.039601713 1.3263146 -0.0869585
v -0.065796584 1.2093716 -0.03222853
v -0.076708734 1.3077853 -0.075840294
v -0.20461243 1.3898442 0.009364635
v -0.15357125 1.2649542 0.095244646
v -0.17711598 1.2649542 0.0011260808
v -0.18106437 1.3898442 0.10348323
v -0.12757573 1.4899951 -0.01371941
v -0.10402933 1.4899951 0.080399185
v -0.004022464 1.4899951 -0.050735965
v 0.019523934 1.4899951 0.043382615
v 0.07301426 1.3898442 -0.07381834
v 0.09656066 1.3898442 0.02029857
v 0.04551944 1.2649542 -0.06557979
v 0.06906584 1.2649542 0.028537124
v -0.077611655 1.3679445 0.119369
v -0.068448395 1.3263146 0.1166217
v -0.042250186 1.2093716 0.061890066
v -0.031339705 1.3077853 0.1055035
v -0.05193442 1.4013276 0.111673206
v -0.010748342 1.4013276 0.09933546
v 0.014928892 1.3679445 0.09163967
v 0.005765632 1.3263146 0.094386965
v -0.031339705 1.3077853 0.1055035
v -0.042250186 1.2093716 0.061890066
vt 0.20070049 0.76200974
vt 0.20070049 0.7668519
vt 0.19755602 0.7656561
vt 0.19755602 0.760061
vt 0.20070049 0.75780237
vt 0.20070049 0.75383115
vt 0.19755602 0.7515577
vt 0.20070049 0.749609
vt 0.20070049 0.7447816
vt 0.19755602 0.7459626
vt 0.20304775 0.749609
vt 0.20070049 0.75384593
vt 0.20304775 0.75383115
vt 0.20070049 0.7496533
vt 0.20304775 0.7447816
vt 0.20070049 0.7448111
vt 0.19757077 0.7515725
vt 0.19757077 0.7460217
vt 0.1942344 0.75170535
vt 0.1942344 0.74611026
vt 0.19757077 0.7600463
vt 0.20070049 0.7577876
vt 0.20070049 0.7619802
vt 0.20304775 0.75780237
vt 0.20304775 0.76200974
vt 0.20070049 0.7668224
vt 0.20304775 0.7668519
vt 0.19757077 0.7656118
vt 0.1942344 0.7655085
vt 0.1942344 0.75991344
vt 0.17743438 0.7667781
vt 0.17411277 0.76347125
vt 0.17411277 0.7667781
vt 0.17743438 0.76347125
vt 0.17411277 0.7569461
vt 0.17743438 0.75561744
vt 0.17411277 0.74996334
vt 0.18087411 0.7644603
vt 0.17743438 0.74968284
vt 0.17411277 0.7392751
vt 0.17743438 0.7386846
vt 0.18087411 0.75490886
vt 0.18419573 0.7650508
vt 0.18419573 0.7568132
vt 0.18087411 0.7495647
vt 0.18087411 0.7381531
vt 0.18419573 0.7501109
vt 0.18708923 0.7575809
vt 0.18419573 0.7381531
vt 0.18708923 0.7507605
vt 0.18708923 0.7399394
vt 0.21837148 0.7482951
vt 0.21378028 0.74643505
vt 0.21837148 0.7445159
vt 0.21702808 0.74910706
vt 0.21378028 0.7504505
vt 0.21702808 0.7513067
vt 0.21378028 0.754215
vt 0.21702808 0.75437737
vt 0.21378028 0.7578614
vt 0.21702808 0.757699
vt 0.21378028 0.7616259
vt 0.21702808 0.76076967
vt 0.21378028 0.7656414
vt 0.21702808 0.7629693
vt 0.21837148 0.76756054
vt 0.21837148 0.76378125
vt 0.21022245 0.7504505
vt 0.21378028 0.74643505
vt 0.21022245 0.74643505
vt 0.21378028 0.7504505
vt 0.21022245 0.754215
vt 0.21378028 0.754215
vt 0.21022245 0.7578614
vt 0.21378028 0.7578614
vt 0.21022245 0.7616259
vt 0.21378028 0.7616259
vt 0.21022245 0.7656414
vt 0.21378028 0.7656414
vt 0.21702808 0.7513067
vt 0.21702808 0.74910706
vt 0.21837148 0.7445159
vt 0.21837148 0.7482951
vt 0.21702808 0.75437737
vt 0.21702808 0.757699
vt 0.21702808 0.76076967
vt 0.21702808 0.7629693
vt 0.21837148 0.76378125
vt 0.21837148 0.76756054
vn -0.5984948 -0.4476946 -0.6643595
vn -0.5645644 -0.23657167 -0.7907597
vn -0.85108835 0.23091477 0.47151566
vn -0.96418995 0.059377372 0.25848037
vn -0.79642266 -0.4985903 -0.3422261
vn -0.79642266 -0.4985903 0.3422261
vn -0.96418995 0.059377372 -0.25848037
vn -0.5984948 -0.4476946 0.6643595
vn -0.5645644 -0.23657167 0.7907597
vn -0.85108835 0.23091477 -0.47151566
vn -0.5984948 -0.4476946 0.6643595
vn 0.7964244 -0.4985903 0.342222
vn -0.79642266 -0.4985903 0.3422261
vn 0.5984967 -0.4476946 0.6643578
vn -0.5645644 -0.23657167 0.7907597
vn 0.5645662 -0.23657167 0.79075843
vn 0.96419173 0.059377372 -0.25847366
vn 0.8510902 0.23091477 -0.47151232
vn -0.96418995 0.059377372 -0.25848037
vn -0.85108835 0.23091477 -0.47151566
vn 0.96419173 0.059377372 0.25847366
vn 0.7964244 -0.4985903 -0.342222
vn 0.5984967 -0.4476946 -0.6643578
vn -0.79642266 -0.4985903 -0.3422261
vn -0.5984948 -0.4476946 -0.6643595
vn 0.5645662 -0.23657167 -0.79075843
vn -0.5645644 -0.23657167 -0.7907597
vn 0.8510902 0.23091477 0.47151232
vn -0.85108835 0.23091477 0.47151566
vn -0.96418995 0.059377372 0.25848037
vn 0.30631763 0.9415696 0.1400578
vn 0.06503433 0.13854855 -0.988218
vn 0.694633 0.7115964 -0.10543031
vn -0.35532647 0.5381741 -0.76427203
vn 0.027333796 -0.35532832 -0.93434185
vn -0.8209279 0.3704067 -0.43459892
vn 0.69651806 -0.0028284192 -0.7175337
vn 0.30631763 0.9415696 0.1400578
vn -0.71913654 -0.0028284192 -0.694863
vn 0.7153683 0.014136791 -0.6986046
vn -0.68709105 0.016021848 -0.72639465
vn -0.5230939 0.39114195 0.75721914
vn 0.694633 0.7115964 -0.10543031
vn 0.6512774 0.22525972 0.72463495
vn -0.6965162 -0.0028284192 0.7175355
vn -0.7323317 0.014136791 0.68080133
vn 0.7191383 -0.0028284192 0.6948612
vn 0.027333796 -0.35532832 -0.93434185
vn 0.69274795 0.016021848 0.72100174
vn 0.69651806 -0.0028284192 -0.7175337
vn 0.7153683 0.014136791 -0.6986046
vn -0.2573052 -0.41564918 -0.8723702
vn -0.8529734 -0.28558236 -0.43689713
vn -0.26296026 -0.41564918 -0.8706823
vn -0.5645644 -0.25730693 -0.7842577
vn -0.9509948 0.1950993 -0.23988572
vn -0.64185053 0.091422856 -0.76136047
vn -0.49670345 0.78888255 -0.3618702
vn -0.42884248 0.37229174 -0.8230997
vn 0.23468667 0.79265255 -0.5626936
vn -0.085767806 0.37606186 -0.9226166
vn 0.69651806 0.19698435 -0.68997085
vn 0.13101023 0.09330791 -0.9869802
vn 0.5061304 -0.29877752 -0.8090513
vn 0.05372417 -0.261077 -0.9638218
vn -0.26296026 -0.41564918 -0.8706823
vn -0.2573052 -0.41564918 -0.8723702
vn -0.9509948 0.1950993 -0.23988572
vn -0.5061286 -0.29877752 0.8090524
vn -0.8529734 -0.28558236 -0.43689713
vn -0.6965162 0.19698435 0.6899727
vn -0.49670345 0.78888255 -0.3618702
vn -0.23468488 0.79265255 0.5626944
vn 0.23468667 0.79265255 -0.5626936
vn 0.49670526 0.78888255 0.36186764
vn 0.69651806 0.19698435 -0.68997085
vn 0.9509966 0.1950993 0.23987862
vn 0.5061304 -0.29877752 -0.8090513
vn 0.8529752 -0.28558236 0.43689364
vn -0.13100845 0.09330791 0.98698044
vn -0.053722322 -0.261077 0.96382195
vn 0.26296204 -0.41564918 0.87068176
vn 0.25730693 -0.41564918 0.8723697
vn 0.08576959 0.37606186 0.9226164
vn 0.42884433 0.37229174 0.82309866
vn 0.64185226 0.091422856 0.76135904
vn 0.5645662 -0.25730693 0.7842564
vn 0.25730693 -0.41564918 0.8723697
vn 0.26296204 -0.41564918 0.87068176
g febg_oldcastle_001_rope_01_0
f 3/3/3 2/2/2 1/1/1
f 4/4/4 3/3/3 1/1/1
f 4/4/4 1/1/1 5/5/5
f 4/4/4 5/5/5 6/6/6
f 7/7/7 4/4/4 6/6/6
f 7/7/7 6/6/6 8/8/8
f 7/7/7 8/8/8 9/9/9
f 10/10/10 7/7/7 9/9/9
f 13/13/13 12/12/12 11/11/11
f 12/12/12 14/14/14 11/11/11
f 11/11/11 14/14/14 15/15/15
f 14/14/14 16/16/16 15/15/15
f 14/14/14 17/17/17 16/16/16
f 12/12/12 17/17/17 14/14/14
f 17/17/17 18/18/18 16/16/16
f 18/18/18 17/17/17 19/19/19
f 20/20/20 18/18/18 19/19/19
f 21/21/21 17/17/17 12/12/12
f 22/22/22 21/21/21 12/12/12
f 23/23/23 21/21/21 22/22/22
f 23/23/23 22/22/22 24/24/24
f 25/25/25 23/23/23 24/24/24
f 26/26/26 23/23/23 25/25/25
f 27/27/27 26/26/26 25/25/25
f 26/26/26 28/28/28 23/23/23
f 28/28/28 21/21/21 23/23/23
f 21/21/21 28/28/28 29/29/29
f 30/30/30 21/21/21 29/29/29
f 33/33/33 32/32/32 31/31/31
f 32/32/32 34/34/34 31/31/31
f 34/34/34 32/32/32 35/35/35
f 36/36/36 34/34/34 35/35/35
f 35/35/35 37/37/37 36/36/36
f 38/38/38 34/34/34 36/36/36
f 37/37/37 39/39/39 36/36/36
f 37/37/37 40/40/40 39/39/39
f 40/40/40 41/41/41 39/39/39
f 42/42/42 38/38/38 36/36/36
f 42/42/42 36/36/36 39/39/39
f 43/43/43 38/38/38 42/42/42
f 44/44/44 43/43/43 42/42/42
f 45/45/45 39/39/39 41/41/41
f 45/45/45 42/42/42 39/39/39
f 44/44/44 42/42/42 45/45/45
f 46/46/46 45/45/45 41/41/41
f 47/47/47 44/44/44 45/45/45
f 47/47/47 45/45/45 46/46/46
f 48/48/48 44/44/44 47/47/47
f 49/49/49 47/47/47 46/46/46
f 50/50/50 48/48/48 47/47/47
f 50/50/50 47/47/47 49/49/49
f 51/51/51 50/50/50 49/49/49
f 54/54/54 53/53/53 52/52/52
f 53/53/53 55/55/55 52/52/52
f 53/53/53 56/56/56 55/55/55
f 56/56/56 57/57/57 55/55/55
f 56/56/56 58/58/58 57/57/57
f 58/58/58 59/59/59 57/57/57
f 58/58/58 60/60/60 59/59/59
f 60/60/60 61/61/61 59/59/59
f 60/60/60 62/62/62 61/61/61
f 62/62/62 63/63/63 61/61/61
f 62/62/62 64/64/64 63/63/63
f 64/64/64 65/65/65 63/63/63
f 64/64/64 66/66/66 65/65/65
f 66/66/66 67/67/67 65/65/65
f 70/70/70 69/69/69 68/68/68
f 69/69/69 71/71/71 68/68/68
f 68/68/68 71/71/71 72/72/72
f 71/71/71 73/73/73 72/72/72
f 72/72/72 73/73/73 74/74/74
f 73/73/73 75/75/75 74/74/74
f 74/74/74 75/75/75 76/76/76
f 75/75/75 77/77/77 76/76/76
f 76/76/76 77/77/77 78/78/78
f 77/77/77 79/79/79 78/78/78
f 80/80/80 71/71/71 69/69/69
f 81/81/81 80/80/80 69/69/69
f 81/81/81 69/69/69 82/82/82
f 83/83/83 81/81/81 82/82/82
f 80/80/80 84/84/84 71/71/71
f 84/84/84 73/73/73 71/71/71
f 84/84/84 85/85/85 73/73/73
f 85/85/85 75/75/75 73/73/73
f 85/85/85 86/86/86 75/75/75
f 86/86/86 77/77/77 75/75/75
f 86/86/86 87/87/87 77/77/77
f 87/87/87 79/79/79 77/77/77
f 87/87/87 88/88/88 79/79/79
f 88/88/88 89/89/89 79/79/79
