g febg_tropical_003_krakenrock_05
v 4.471577 1.2781153 -2.9727204
v 5.2237577 1.2865005 -3.1975381
v 5.5001636 -0.13901472 -2.8250868
v 4.47334 -0.13901472 -2.5232656
v 3.7796643 1.537118 -3.3550599
v 3.4377363 -0.13901472 -2.9846427
v 3.2328532 0.79148054 -3.9581037
v 3.0561428 -0.13901472 -3.9978032
v 3.5144234 1.5301676 -3.9019387
v 4.5758834 1.5327106 -4.5757256
v 3.7796643 1.537118 -3.3550599
v 5.4445186 1.5573688 -3.8409145
v 4.471577 1.2781153 -2.9727204
v 5.2237577 1.2865005 -3.1975381
v 4.5787992 0.71188927 -4.847193
v 3.2328532 0.79148054 -3.9581037
v 4.196844 0.71188927 -5.094951
v 3.1682012 0.79148054 -4.47212
v 3.0561428 -0.13901472 -3.9978032
v 2.9485593 -0.13901472 -4.6548758
v 4.0437183 -0.13901472 -5.299156
v 4.2780175 -0.13901472 -5.1682935
v 4.5635657 0.4197073 -4.928999
v 4.412361 0.288754 -5.043171
v 4.9979906 0.22714186 -5.405881
v 5.0120826 -0.13901472 -5.557018
v 5.5755057 -0.13901472 -5.0611844
v 5.5053506 0.18696785 -4.969185
v 5.4036775 -0.13901472 -4.4800754
v 5.302614 0.21077871 -4.403151
v 5.9248695 -0.13901472 -4.0214105
v 5.5001636 -0.13901472 -2.8250868
v 5.2237577 1.2865005 -3.1975381
v -4.4440184 0.46882057 4.5924997
v -3.5961208 -0.054913998 4.613756
v -4.4818306 -0.05492544 4.7043324
v -5.1827507 -0.054936886 4.356121
v -3.5886059 0.65241337 4.4411373
v -2.8256102 -0.05490303 4.9983444
v -5.374898 1.0007486 1.5013618
v -5.9248505 -0.05508375 1.4250817
v -4.326626 -0.054936886 -1.0341272
v -5.0105944 1.3945584 1.500277
v -3.673791 0.48403168 -1.0048242
v -3.6550322 -0.05492544 -1.1215386
v -2.8365498 -0.054913998 -1.0342627
v -2.8750963 0.6993904 -0.8911271
v -1.892663 -0.05490303 -1.1772966
v -2.3916044 3.2696524 -0.44705153
v -1.7945833 2.0494614 -0.8091626
v -4.786647 3.1153965 1.5259528
v -2.7822046 4.168438 0.2873187
v -1.1005235 0.7600646 -1.2652621
v -1.0543709 -0.054869175 -1.4880457
v -0.023773193 0.98869085 -0.6179757
v 0.050777912 -0.05490303 -0.6229596
v 0.4887061 -0.054959297 0.29557943
v -0.3927889 1.865191 -0.4913392
v 0.39733934 1.5168104 0.3866639
v 1.1018753 -0.054959297 0.552876
v -1.4854169 3.2918587 -0.2942648
v -0.89585495 2.305153 0.11744547
v 0.009123325 1.9478898 0.4029708
v 0.7179313 1.8548279 1.668591
v 0.97416544 1.308989 0.64742947
v 1.7303119 1.2523494 1.5247884
v 1.9648485 -0.05501604 1.541853
v 2.000932 -0.054982185 2.5742702
v -1.0082073 3.7989922 0.3882799
v -0.3538351 3.532158 0.65957785
v -0.7286482 4.2018433 0.6861687
v -0.36021996 4.2253036 2.2096052
v 0.388649 3.5098171 1.7044258
v 0.4537301 3.4949112 2.3353148
v 0.87258244 1.85354 2.4000006
v 0.5044708 1.8548279 3.0506773
v 1.7172709 1.2923994 2.5304565
v 1.4262981 1.2523494 3.493204
v 1.6550603 -0.05501604 3.547697
v 0.53392076 -0.05497074 4.230242
v 0.4406891 1.308989 4.1015596
v -0.18793964 1.516799 4.1761446
v -0.12830544 -0.054959297 4.290554
v 0.20134974 3.5098171 2.9171696
v -0.82176685 3.532158 3.6893291
v -0.8925209 0.98869085 5.006922
v -0.82294226 -0.054913998 5.0341682
v -2.1757927 -0.054869175 5.5570107
v -0.5531359 1.9478898 4.0434732
v -2.1143847 0.7600646 5.2991943
v -1.2061291 1.8651795 4.774849
v -2.6384926 2.0494614 4.6549587
v -1.5020967 2.3051414 4.042671
v -4.130331 3.3764791 3.3934069
v -2.188405 3.2918472 4.25733
v -1.5275006 3.7989922 3.750557
v -3.9820309 3.739087 1.6502275
v -3.2493 4.168438 3.3116121
v -1.1710854 4.2018433 3.5508947
v -3.6833172 4.181072 1.6963573
v -3.138258 5.067257 2.843997
v -2.8174171 5.067257 0.76665306
v -1.38797 5.178321 3.1189003
v -3.509591 5.134248 1.7231965
v -2.9614124 5.445178 1.8078618
v -1.0657506 5.178321 1.0326166
v -0.7697382 5.248397 2.1463547
v -1.0319953 5.4154005 2.1058407
vt 0.036402505 0.3011617
vt 0.040730502 0.28757662
vt 0.009623026 0.27508855
vt 0.003957557 0.29370794
vt 0.04026464 0.31606925
vt 0.0014028365 0.31417575
vt 0.02466582 0.33144265
vt 0.00095200347 0.3333061
vt 0.040835697 0.32673898
vt 0.05010783 0.34630513
vt 0.052737687 0.3214492
vt 0.069463596 0.35096374
vt 0.068276405 0.3252963
vt 0.07564001 0.33816007
vt 0.038401198 0.36022085
vt 0.02466582 0.33144265
vt 0.03058676 0.35903364
vt 0.020818712 0.34026396
vt 0.00095200347 0.3333061
vt 0.0010722256 0.34683108
vt 0.012748801 0.36874157
vt 0.016610937 0.37230316
vt 0.034028117 0.36639726
vt 0.02789679 0.36719373
vt 0.031067649 0.37808886
vt 0.025221847 0.38567787
vt 0.039347947 0.39033648
vt 0.041391723 0.38150015
vt 0.05018297 0.38740608
vt 0.050543632 0.37672132
vt 0.060882736 0.38950995
vt 0.08390528 0.39102775
vt 0.08147078 0.35754588
vt 0.59133285 0.45602286
vt 0.5878615 0.46580592
vt 0.5931813 0.46469387
vt 0.6044822 0.4623345
vt 0.5860882 0.45393398
vt 0.57499766 0.46851093
vt 0.6389258 0.4262829
vt 0.649325 0.44200194
vt 0.6044822 0.4623345
vt 0.6350486 0.4204371
vt 0.59221953 0.45546684
vt 0.59370726 0.46445343
vt 0.58784646 0.46561056
vt 0.5859379 0.4530774
vt 0.57187194 0.46875137
vt 0.5721875 0.41374975
vt 0.5647638 0.43402222
vt 0.6191192 0.3949049
vt 0.5763051 0.39534074
vt 0.5568141 0.4576158
vt 0.5565586 0.47133616
vt 0.5373982 0.45229596
vt 0.5340921 0.46896178
vt 0.5171107 0.46532506
vt 0.54279315 0.43890622
vt 0.5225959 0.43844038
vt 0.5056896 0.46317607
vt 0.5589931 0.41346422
vt 0.545393 0.42566678
vt 0.52920806 0.4306109
vt 0.50505847 0.42240575
vt 0.5115204 0.4410552
vt 0.49420843 0.43792942
vt 0.48416987 0.45624828
vt 0.46939757 0.4479379
vt 0.54916495 0.40216333
vt 0.53751844 0.40467298
vt 0.5442509 0.39491996
vt 0.5239634 0.37966678
vt 0.5187938 0.39768505
vt 0.51003265 0.39209473
vt 0.49372754 0.41609406
vt 0.50505847 0.42240575
vt 0.48123944 0.4286723
vt 0.49420843 0.43792942
vt 0.48416987 0.45624828
vt 0.5056896 0.46317607
vt 0.5115204 0.4410552
vt 0.5225959 0.43844038
vt 0.5171107 0.46532506
vt 0.5187938 0.39768505
vt 0.53751844 0.40467298
vt 0.5373982 0.45229596
vt 0.5340921 0.46896178
vt 0.5565586 0.47133616
vt 0.52920806 0.4306109
vt 0.5568141 0.4576158
vt 0.54279315 0.43890622
vt 0.5647638 0.43402222
vt 0.545393 0.42566678
vt 0.5897099 0.40659654
vt 0.5589931 0.41346422
vt 0.54916495 0.40216333
vt 0.604933 0.3837543
vt 0.5763051 0.39534074
vt 0.5442509 0.39491996
vt 0.5980052 0.37792355
vt 0.5735701 0.37990722
vt 0.5735701 0.37990722
vt 0.5495256 0.38013262
vt 0.58563733 0.36579615
vt 0.5747272 0.36233976
vt 0.5495256 0.38013262
vt 0.5381346 0.36716366
vt 0.54300356 0.3651199
vn -0.014788091 0.59023654 0.8070949
vn 0.5152303 0.58266485 0.6285216
vn 0.6401632 0.2949406 0.70936674
vn -0.05832529 0.30061936 0.95195913
vn -0.42365944 0.75492084 0.50060683
vn -0.6810969 0.262761 0.68342054
vn -0.8855325 0.4615178 0.053230494
vn -0.9536778 0.1775794 0.24282554
vn -0.66973937 0.71516955 -0.1999543
vn 0.04767841 0.7057049 -0.7068998
vn -0.42365944 0.75492084 0.50060683
vn 0.66855705 0.7359916 -0.106526196
vn -0.014788091 0.59023654 0.8070949
vn 0.5152303 0.58266485 0.6285216
vn 0.3581177 0.4369098 -0.8251434
vn -0.8855325 0.4615178 0.053230494
vn 0.06092882 0.6810969 -0.72965384
vn -0.62809503 0.7208483 -0.2930432
vn -0.9536778 0.1775794 0.24282554
vn -0.8552458 0.28358305 -0.43374556
vn -0.06400406 0.23815298 -0.9691164
vn 0.089322686 0.2476176 -0.9647316
vn 0.37893987 0.57320035 -0.7265301
vn 0.13096696 0.3744434 -0.9179541
vn 0.123395324 0.7019191 -0.7014864
vn 0.10257316 0.4047302 -0.90866506
vn 0.9032795 0.29872644 -0.30797517
vn 0.7613103 0.62998796 -0.15336822
vn 0.93545914 0.2873689 -0.20575547
vn 0.7253447 0.45773196 -0.5141561
vn 0.91652995 0.31576276 -0.24549282
vn 0.6401632 0.2949406 0.70936674
vn 0.5152303 0.58266485 0.6285216
vn -0.36308587 0.5713074 0.73605466
vn -0.18704402 0.21354496 0.9588603
vn -0.17379355 0.22868836 0.9578609
vn -0.7359916 0.5239843 0.42866868
vn -0.45773196 0.35362124 0.81574106
vn -0.51830554 0.20218742 0.83095104
vn -0.62809503 0.77195716 -0.09787116
vn -0.7852076 0.60727286 -0.12111405
vn -0.5637357 0.48233998 -0.670485
vn -0.76249254 0.6262021 -0.16271473
vn -0.28547597 0.52587724 -0.8012219
vn -0.012895167 0.20408034 -0.9788692
vn -0.029931426 0.18893695 -0.98153293
vn -0.26465392 0.310084 -0.9131299
vn -0.23247421 0.1927228 -0.95331717
vn -0.23058128 0.4690895 -0.8525182
vn 0.09500146 0.33658493 -0.9368486
vn -0.9006759 0.37633634 -0.21714947
vn -0.35362124 0.531556 -0.7696754
vn 0.12907404 0.24951053 -0.9597314
vn 0.12528819 0.20597327 -0.9705039
vn 0.7120943 0.23436713 -0.661811
vn 0.7613103 0.10754132 -0.63940716
vn 0.69884384 0.08482623 -0.7102266
vn 0.47737184 0.6356667 -0.60666627
vn 0.7026297 0.4690895 -0.5350388
vn 0.5985189 0.10754132 -0.79385763
vn 0.42815584 0.42555237 -0.7972376
vn 0.5076586 0.50316215 -0.6993644
vn 0.69127214 0.48991168 -0.5311585
vn 0.75752443 0.5864507 -0.2867618
vn 0.5758039 0.47098243 -0.6683004
vn 0.80295455 0.506948 -0.31347686
vn 0.9259946 0.16811478 -0.3380406
vn 0.9695318 0.19461572 0.14877106
vn 0.36947525 0.41419482 -0.8318237
vn 0.6496278 0.38390803 -0.65619993
vn 0.54741 0.51262677 -0.66148025
vn 0.7897041 0.6015941 0.12021651
vn 0.8389201 0.46530366 -0.2823217
vn 0.8616352 0.48991168 0.13255678
vn 0.76698905 0.6318809 0.111598976
vn 0.6344844 0.5864507 0.5034929
vn 0.816205 0.5637357 0.12653622
vn 0.6723429 0.506948 0.53940594
vn 0.7821324 0.16811478 0.6000053
vn 0.33161682 0.10754132 0.9372647
vn 0.34676015 0.47098243 0.81113064
vn 0.5095515 0.4690895 0.72132677
vn 0.45276386 0.08482623 0.8875863
vn 0.71398723 0.46530366 0.5231775
vn 0.42247707 0.38390803 0.82105285
vn 0.4811577 0.23815298 0.8436649
vn 0.53415954 0.113220096 0.8377677
vn -0.16622186 0.2002945 0.9655322
vn 0.5000869 0.48991168 0.7140726
vn -0.16054308 0.26086807 0.9519316
vn 0.27293617 0.6356667 0.72210366
vn -0.22679543 0.36876464 0.90143025
vn 0.27293617 0.50316215 0.8199596
vn -0.7094908 0.46719658 0.5275891
vn 0.062821746 0.39526558 0.91641617
vn 0.07417929 0.39526558 0.9155668
vn -0.73220575 0.64513135 -0.21835816
vn -0.4766612 0.5845578 0.6565716
vn 0.3221522 0.51262677 0.79588425
vn -0.8949971 0.42365944 -0.13961674
vn -0.5372348 0.6318809 0.5586639
vn -0.34415662 0.6318809 -0.6944658
vn 0.26536453 0.7132766 0.64870495
vn -0.81738734 0.5599499 -0.13540344
vn -0.25140345 0.96692824 -0.042965975
vn 0.448978 0.7132766 -0.53819627
vn 0.77456075 0.62241626 0.11248844
vn 0.29754418 0.9536778 0.04434094
g febg_tropical_003_krakenrock_05_0
f 3/3/3 2/2/2 1/1/1
f 4/4/4 3/3/3 1/1/1
f 4/4/4 1/1/1 5/5/5
f 6/6/6 4/4/4 5/5/5
f 7/7/7 6/6/6 5/5/5
f 8/8/8 6/6/6 7/7/7
f 9/9/9 7/7/7 5/5/5
f 9/9/9 11/11/11 10/10/10
f 11/11/11 12/12/12 10/10/10
f 11/11/11 13/13/13 12/12/12
f 13/13/13 14/14/14 12/12/12
f 9/9/9 10/10/10 15/15/15
f 15/15/15 10/10/10 12/12/12
f 16/16/16 9/9/9 15/15/15
f 15/15/15 17/17/17 16/16/16
f 17/17/17 18/18/18 16/16/16
f 16/16/16 18/18/18 19/19/19
f 18/18/18 20/20/20 19/19/19
f 21/21/21 20/20/20 18/18/18
f 17/17/17 21/21/21 18/18/18
f 21/21/21 17/17/17 22/22/22
f 17/17/17 15/15/15 23/23/23
f 17/17/17 24/24/24 22/22/22
f 24/24/24 17/17/17 23/23/23
f 22/22/22 24/24/24 25/25/25
f 25/25/25 24/24/24 23/23/23
f 26/26/26 22/22/22 25/25/25
f 26/26/26 25/25/25 27/27/27
f 25/25/25 28/28/28 27/27/27
f 25/25/25 23/23/23 28/28/28
f 27/27/27 28/28/28 29/29/29
f 23/23/23 15/15/15 30/30/30
f 23/23/23 30/30/30 28/28/28
f 28/28/28 30/30/30 29/29/29
f 31/31/31 29/29/29 30/30/30
f 30/30/30 15/15/15 12/12/12
f 31/31/31 30/30/30 12/12/12
f 32/32/32 31/31/31 12/12/12
f 33/33/33 32/32/32 12/12/12
f 36/36/36 35/35/35 34/34/34
f 36/36/36 34/34/34 37/37/37
f 35/35/35 38/38/38 34/34/34
f 35/35/35 39/39/39 38/38/38
f 34/34/34 40/40/40 37/37/37
f 40/40/40 41/41/41 37/37/37
f 41/41/41 40/40/40 42/42/42
f 43/43/43 40/40/40 34/34/34
f 38/38/38 43/43/43 34/34/34
f 40/40/40 44/44/44 42/42/42
f 40/40/40 43/43/43 44/44/44
f 45/45/45 42/42/42 44/44/44
f 46/46/46 45/45/45 44/44/44
f 47/47/47 46/46/46 44/44/44
f 43/43/43 47/47/47 44/44/44
f 48/48/48 46/46/46 47/47/47
f 49/49/49 47/47/47 43/43/43
f 50/50/50 48/48/48 47/47/47
f 50/50/50 47/47/47 49/49/49
f 51/51/51 43/43/43 38/38/38
f 51/51/51 49/49/49 43/43/43
f 52/52/52 49/49/49 51/51/51
f 53/53/53 48/48/48 50/50/50
f 54/54/54 48/48/48 53/53/53
f 54/54/54 53/53/53 55/55/55
f 56/56/56 54/54/54 55/55/55
f 57/57/57 56/56/56 55/55/55
f 58/58/58 55/55/55 53/53/53
f 50/50/50 58/58/58 53/53/53
f 59/59/59 57/57/57 55/55/55
f 55/55/55 58/58/58 59/59/59
f 60/60/60 57/57/57 59/59/59
f 50/50/50 49/49/49 61/61/61
f 61/61/61 49/49/49 52/52/52
f 58/58/58 50/50/50 62/62/62
f 62/62/62 50/50/50 61/61/61
f 58/58/58 63/63/63 59/59/59
f 58/58/58 62/62/62 63/63/63
f 63/63/63 64/64/64 59/59/59
f 65/65/65 60/60/60 59/59/59
f 59/59/59 64/64/64 65/65/65
f 60/60/60 65/65/65 66/66/66
f 64/64/64 66/66/66 65/65/65
f 67/67/67 60/60/60 66/66/66
f 68/68/68 67/67/67 66/66/66
f 62/62/62 61/61/61 69/69/69
f 69/69/69 61/61/61 52/52/52
f 63/63/63 62/62/62 70/70/70
f 62/62/62 69/69/69 70/70/70
f 63/63/63 70/70/70 64/64/64
f 71/71/71 69/69/69 52/52/52
f 69/69/69 71/71/71 70/70/70
f 70/70/70 71/71/71 72/72/72
f 73/73/73 70/70/70 72/72/72
f 70/70/70 73/73/73 64/64/64
f 72/72/72 74/74/74 73/73/73
f 73/73/73 74/74/74 64/64/64
f 64/64/64 75/75/75 66/66/66
f 74/74/74 75/75/75 64/64/64
f 75/75/75 74/74/74 76/76/76
f 77/77/77 68/68/68 66/66/66
f 75/75/75 77/77/77 66/66/66
f 77/77/77 78/78/78 68/68/68
f 77/77/77 75/75/75 78/78/78
f 75/75/75 76/76/76 78/78/78
f 78/78/78 79/79/79 68/68/68
f 80/80/80 79/79/79 78/78/78
f 81/81/81 80/80/80 78/78/78
f 78/78/78 76/76/76 81/81/81
f 81/81/81 82/82/82 80/80/80
f 76/76/76 82/82/82 81/81/81
f 82/82/82 83/83/83 80/80/80
f 74/74/74 72/72/72 84/84/84
f 74/74/74 84/84/84 76/76/76
f 84/84/84 85/85/85 76/76/76
f 85/85/85 84/84/84 72/72/72
f 82/82/82 86/86/86 83/83/83
f 86/86/86 87/87/87 83/83/83
f 87/87/87 86/86/86 88/88/88
f 76/76/76 89/89/89 82/82/82
f 85/85/85 89/89/89 76/76/76
f 86/86/86 90/90/90 88/88/88
f 88/88/88 90/90/90 39/39/39
f 91/91/91 86/86/86 82/82/82
f 89/89/89 91/91/91 82/82/82
f 86/86/86 91/91/91 90/90/90
f 90/90/90 92/92/92 39/39/39
f 91/91/91 92/92/92 90/90/90
f 39/39/39 92/92/92 38/38/38
f 93/93/93 91/91/91 89/89/89
f 93/93/93 89/89/89 85/85/85
f 92/92/92 91/91/91 93/93/93
f 92/92/92 94/94/94 38/38/38
f 94/94/94 51/51/51 38/38/38
f 92/92/92 93/93/93 95/95/95
f 95/95/95 94/94/94 92/92/92
f 96/96/96 93/93/93 85/85/85
f 95/95/95 93/93/93 96/96/96
f 51/51/51 94/94/94 97/97/97
f 97/97/97 52/52/52 51/51/51
f 98/98/98 94/94/94 95/95/95
f 96/96/96 98/98/98 95/95/95
f 94/94/94 98/98/98 97/97/97
f 99/99/99 96/96/96 85/85/85
f 96/96/96 99/99/99 98/98/98
f 99/99/99 85/85/85 72/72/72
f 100/100/100 52/52/52 97/97/97
f 100/100/100 97/97/97 98/98/98
f 98/98/98 99/99/99 101/101/101
f 98/98/98 101/101/101 100/100/100
f 52/52/52 100/100/100 102/102/102
f 71/71/71 52/52/52 102/102/102
f 99/99/99 72/72/72 103/103/103
f 99/99/99 103/103/103 101/101/101
f 101/101/101 104/104/104 100/100/100
f 100/100/100 104/104/104 102/102/102
f 104/104/104 101/101/101 105/105/105
f 102/102/102 104/104/104 105/105/105
f 105/105/105 101/101/101 103/103/103
f 106/106/106 71/71/71 102/102/102
f 72/72/72 71/71/71 106/106/106
f 102/102/102 105/105/105 106/106/106
f 72/72/72 107/107/107 103/103/103
f 107/107/107 72/72/72 106/106/106
f 105/105/105 108/108/108 106/106/106
f 108/108/108 105/105/105 103/103/103
f 107/107/107 108/108/108 103/103/103
f 108/108/108 107/107/107 106/106/106
