g febg_factory_001_floorrail_08
v 0.91298866 -0.6581321 -5.9604645E-07
v 1.0199792 -0.6581321 -0.10699117
v 1.0199792 0.33879066 -0.106989026
v 0.91298866 0.33879066 -5.9604645E-07
v 1.0199792 -0.6581321 -0.10699117
v 1.1269698 -0.6581321 -5.9604645E-07
v 1.1269698 0.33879066 -5.9604645E-07
v 1.0199792 0.33879066 -0.106989026
v 1.1269698 -0.6581321 -5.9604645E-07
v 1.0199792 -0.6581321 0.10698998
v 1.0199792 0.33879066 0.106992126
v 1.1269698 0.33879066 -5.9604645E-07
v 1.0199792 -0.6581321 0.10698998
v 0.91298866 -0.6581321 -5.9604645E-07
v 0.91298866 0.33879066 -5.9604645E-07
v 1.0199792 0.33879066 0.106992126
v 0.91298866 0.33879066 -5.9604645E-07
v 1.0199792 0.33879066 -0.106989026
v 0.9528882 0.4927721 -0.106989026
v 0.87722266 0.41711736 -5.9604645E-07
v 1.0199792 0.33879066 -0.106989026
v 1.1269698 0.33879066 -5.9604645E-07
v 1.0285408 0.56842685 1.5497208E-06
v 0.9528882 0.4927721 -0.106989026
v 1.1269698 0.33879066 -5.9604645E-07
v 1.0199792 0.33879066 0.106992126
v 0.9528882 0.4927721 0.106992126
v 1.0285408 0.56842685 1.5497208E-06
v 1.0199792 0.33879066 0.106992126
v 0.91298866 0.33879066 -5.9604645E-07
v 0.87722266 0.41711736 -5.9604645E-07
v 0.9528882 0.4927721 0.106992126
v 0.87722266 0.41711736 -5.9604645E-07
v 0.9528882 0.4927721 -0.106989026
v 0.796078 0.55115116 -0.10699117
v 0.7960802 0.44415843 -5.9604645E-07
v 0.9528882 0.4927721 -0.106989026
v 1.0285408 0.56842685 1.5497208E-06
v 0.7960802 0.65814173 1.5497208E-06
v 0.796078 0.55115116 -0.10699117
v 1.0285408 0.56842685 1.5497208E-06
v 0.9528882 0.4927721 0.106992126
v 0.7960802 0.55115116 0.10698998
v 0.7960802 0.65814173 1.5497208E-06
v 0.9528882 0.4927721 0.106992126
v 0.87722266 0.41711736 -5.9604645E-07
v 0.7960802 0.44415843 -5.9604645E-07
v 0.7960802 0.55115116 0.10698998
v -0.7942755 0.55114245 -0.10699117
v -0.7942755 0.44414973 -5.9604645E-07
v 0.0009012222 0.44415402 -5.9604645E-07
v 0.0009012222 0.55114675 -0.10699117
v -0.7942755 0.65813303 -5.9604645E-07
v -0.7942755 0.55114245 -0.10699117
v 0.0009012222 0.55114675 -0.10699117
v 0.0009012222 0.6581373 -5.9604645E-07
v -0.7942755 0.55114245 0.10698998
v -0.7942755 0.65813303 -5.9604645E-07
v 0.0009012222 0.6581373 -5.9604645E-07
v 0.0009012222 0.55114675 0.10698998
v -0.7942755 0.44414973 -5.9604645E-07
v -0.7942755 0.55114245 0.10698998
v 0.0009012222 0.55114675 0.10698998
v 0.0009012222 0.44415402 -5.9604645E-07
v -0.014594674 -0.13973063 -5.9604645E-07
v -1.0239031 -0.13973492 -5.9604645E-07
v -1.0239031 -0.20920765 -0.06948197
v -0.014594674 -0.20920336 -0.06948197
v -0.014594674 -0.20920336 -0.06948197
v -1.0239031 -0.20920765 -0.06948197
v -1.0239031 -0.27868038 -5.9604645E-07
v -0.014594674 -0.27867603 -5.9604645E-07
v -0.014594674 -0.27867603 -5.9604645E-07
v -1.0239031 -0.27868038 -5.9604645E-07
v -1.0239031 -0.20920765 0.06946564
v -0.014594674 -0.20920336 0.06946564
v -0.014594674 -0.20920336 0.06946564
v -1.0239031 -0.20920765 0.06946564
v -1.0239031 -0.13973492 -5.9604645E-07
v -0.014594674 -0.13973063 -5.9604645E-07
v -0.9129875 -0.65814286 -5.9604645E-07
v -0.9129896 0.33878207 -5.9604645E-07
v -1.0199802 0.33878207 -0.10699117
v -1.0199802 -0.65814286 -0.10699117
v -1.0199802 -0.65814286 -0.10699117
v -1.0199802 0.33878207 -0.10699117
v -1.1269708 0.33878207 -5.9604645E-07
v -1.1269708 -0.65814286 -5.9604645E-07
v -1.1269708 -0.65814286 -5.9604645E-07
v -1.1269708 0.33878207 -5.9604645E-07
v -1.0199802 0.33878207 0.10698998
v -1.0199802 -0.65814286 0.10698998
v -1.0199802 -0.65814286 0.10698998
v -1.0199802 0.33878207 0.10698998
v -0.9129896 0.33878207 -5.9604645E-07
v -0.9129875 -0.65814286 -5.9604645E-07
v -0.9129896 0.33878207 -5.9604645E-07
v -0.8772366 0.41710877 -5.9604645E-07
v -0.9528892 0.49276352 -0.10699117
v -1.0199802 0.33878207 -0.10699117
v -1.0199802 0.33878207 -0.10699117
v -0.9528892 0.49276352 -0.10699117
v -1.0285418 0.56841826 -5.9604645E-07
v -1.1269708 0.33878207 -5.9604645E-07
v -1.1269708 0.33878207 -5.9604645E-07
v -1.0285418 0.56841826 -5.9604645E-07
v -0.9528892 0.49276352 0.10698998
v -1.0199802 0.33878207 0.10698998
v -1.0199802 0.33878207 0.10698998
v -0.9528892 0.49276352 0.10698998
v -0.8772366 0.41710877 -5.9604645E-07
v -0.9129896 0.33878207 -5.9604645E-07
v -0.8772366 0.41710877 -5.9604645E-07
v -0.7942755 0.44414973 -5.9604645E-07
v -0.7942755 0.55114245 -0.10699117
v -0.9528892 0.49276352 -0.10699117
v -0.9528892 0.49276352 -0.10699117
v -0.7942755 0.55114245 -0.10699117
v -0.7942755 0.65813303 -5.9604645E-07
v -1.0285418 0.56841826 -5.9604645E-07
v -1.0285418 0.56841826 -5.9604645E-07
v -0.7942755 0.65813303 -5.9604645E-07
v -0.7942755 0.55114245 0.10698998
v -0.9528892 0.49276352 0.10698998
v -0.9528892 0.49276352 0.10698998
v -0.7942755 0.55114245 0.10698998
v -0.7942755 0.44414973 -5.9604645E-07
v -0.8772366 0.41710877 -5.9604645E-07
v 0.796078 0.55115116 -0.10699117
v 0.0009012222 0.44415402 -5.9604645E-07
v 0.7960802 0.44415843 -5.9604645E-07
v 0.0009012222 0.55114675 -0.10699117
v 0.7960802 0.65814173 1.5497208E-06
v 0.0009012222 0.6581373 -5.9604645E-07
v 0.7960802 0.55115116 0.10698998
v 0.0009012222 0.55114675 0.10698998
v 0.7960802 0.44415843 -5.9604645E-07
v 0.0009012222 0.44415402 -5.9604645E-07
v 0.99471366 -0.13972634 -5.9604645E-07
v -0.014594674 -0.13973063 -5.9604645E-07
v -0.014594674 -0.20920336 -0.06948197
v 0.99471366 -0.20919901 -0.06948197
v -0.014594674 -0.27867603 -5.9604645E-07
v 0.99471366 -0.27867174 -5.9604645E-07
v -0.014594674 -0.20920336 0.06946564
v 0.99471366 -0.20919901 0.06946564
v -0.014594674 -0.13973063 -5.9604645E-07
v 0.99471366 -0.13972634 -5.9604645E-07
vt 0.77311707 0.8485519
vt 0.767576 0.85113275
vt 0.7863398 0.88415164
vt 0.7918809 0.8815708
vt 0.767576 0.85113275
vt 0.7620349 0.8537135
vt 0.78079873 0.8867324
vt 0.7863398 0.88415164
vt 0.76208043 0.8536832
vt 0.7676215 0.85111755
vt 0.78635496 0.88415164
vt 0.7808139 0.8867172
vt 0.7676215 0.85111755
vt 0.7731626 0.8485368
vt 0.7918961 0.8815708
vt 0.78635496 0.88415164
vt 0.7918809 0.8815708
vt 0.7863398 0.88415164
vt 0.7911067 0.8886756
vt 0.79434025 0.88386315
vt 0.7863398 0.88415164
vt 0.78079873 0.8867324
vt 0.7878731 0.893488
vt 0.7911067 0.8886756
vt 0.7808139 0.8867172
vt 0.78635496 0.88415164
vt 0.79112184 0.8886756
vt 0.7878731 0.893488
vt 0.78635496 0.88415164
vt 0.7918961 0.8815708
vt 0.7943706 0.88386315
vt 0.79112184 0.8886756
vt 0.79434025 0.88386315
vt 0.7911067 0.8886756
vt 0.79777116 0.8902089
vt 0.79777116 0.8845767
vt 0.7911067 0.8886756
vt 0.7878731 0.893488
vt 0.79778636 0.89585626
vt 0.79777116 0.8902089
vt 0.7878731 0.893488
vt 0.79112184 0.8886756
vt 0.79778636 0.8902089
vt 0.79778636 0.89585626
vt 0.79112184 0.8886756
vt 0.7943706 0.88386315
vt 0.79778636 0.8845767
vt 0.79778636 0.8902089
vt 0.79778636 0.8902089
vt 0.79778636 0.8845767
vt 0.8305016 0.8845767
vt 0.8305016 0.8902089
vt 0.79778636 0.89584106
vt 0.79778636 0.8902089
vt 0.8305016 0.8902089
vt 0.8305016 0.89585626
vt 0.79778636 0.8902089
vt 0.79778636 0.89584106
vt 0.8304864 0.89584106
vt 0.8304864 0.8902089
vt 0.79778636 0.8845767
vt 0.79778636 0.8902089
vt 0.8304864 0.8902089
vt 0.8304864 0.8845767
vt 0.8305016 0.89584106
vt 0.79778636 0.89584106
vt 0.79778636 0.8902089
vt 0.8305016 0.8902089
vt 0.8305016 0.8902089
vt 0.79778636 0.8902089
vt 0.79778636 0.8845767
vt 0.8305016 0.8845767
vt 0.8305016 0.8845767
vt 0.79778636 0.8845767
vt 0.79778636 0.8902089
vt 0.8305016 0.8902089
vt 0.8305016 0.8902089
vt 0.79778636 0.8902089
vt 0.79778636 0.89584106
vt 0.8305016 0.89584106
vt 0.7730563 0.8485519
vt 0.791805 0.8815708
vt 0.7862791 0.88415164
vt 0.76751524 0.85113275
vt 0.76751524 0.85113275
vt 0.7862791 0.88415164
vt 0.780738 0.8867172
vt 0.76198936 0.8537135
vt 0.76198936 0.8536832
vt 0.780738 0.8867172
vt 0.7862791 0.88413644
vt 0.76753044 0.85111755
vt 0.76753044 0.85111755
vt 0.7862791 0.88413644
vt 0.79182017 0.8815708
vt 0.7730715 0.8485368
vt 0.791805 0.8815708
vt 0.7942795 0.88386315
vt 0.79104596 0.8886756
vt 0.7862791 0.88415164
vt 0.7862791 0.88415164
vt 0.79104596 0.8886756
vt 0.7877972 0.893488
vt 0.780738 0.8867172
vt 0.780738 0.8867172
vt 0.7877972 0.893488
vt 0.79104596 0.8886756
vt 0.7862791 0.88413644
vt 0.7862791 0.88413644
vt 0.79104596 0.8886756
vt 0.7942795 0.88386315
vt 0.79182017 0.8815708
vt 0.7942795 0.88386315
vt 0.79778636 0.8845767
vt 0.79778636 0.8902089
vt 0.79104596 0.8886756
vt 0.79104596 0.8886756
vt 0.79778636 0.8902089
vt 0.79778636 0.89584106
vt 0.7877972 0.893488
vt 0.7877972 0.893488
vt 0.79778636 0.89584106
vt 0.79778636 0.8902089
vt 0.79104596 0.8886756
vt 0.79104596 0.8886756
vt 0.79778636 0.8902089
vt 0.79778636 0.8845767
vt 0.7942795 0.88386315
vt 0.79777116 0.8902089
vt 0.8304864 0.8845767
vt 0.79777116 0.8845767
vt 0.8304864 0.8902089
vt 0.79777116 0.89585626
vt 0.8304864 0.89584106
vt 0.79778636 0.8902089
vt 0.8305016 0.8902089
vt 0.79778636 0.8845767
vt 0.8305016 0.8845767
vt 0.79778636 0.89584106
vt 0.8305016 0.89584106
vt 0.8305016 0.8902089
vt 0.79778636 0.8902089
vt 0.8305016 0.8845767
vt 0.79778636 0.8845767
vt 0.8305016 0.8902089
vt 0.79778636 0.8902089
vt 0.8305016 0.89584106
vt 0.79778636 0.89584106
vn -0.70674455 0.0009775162 -0.70746815
vn -0.70674455 0.0009775162 -0.70746815
vn -0.70674455 0.0009775162 -0.70746815
vn -0.70674455 0.0009775162 -0.70746815
vn 0.70674455 0.0009775162 -0.70746815
vn 0.70674455 0.0009775162 -0.70746815
vn 0.70674455 0.0009775162 -0.70746815
vn 0.70674455 0.0009775162 -0.70746815
vn 0.70674455 0.0009775162 0.70746815
vn 0.70674455 0.0009775162 0.70746815
vn 0.70674455 0.0009775162 0.70746815
vn 0.70674455 0.0009775162 0.70746815
vn -0.70674455 0.0009775162 0.70746815
vn -0.70674455 0.0009775162 0.70746815
vn -0.70674455 0.0009775162 0.70746815
vn -0.70674455 0.0009775162 0.70746815
vn -0.66373384 -0.30400765 -0.68340087
vn -0.67546403 -0.2942325 -0.67614764
vn -0.66373384 -0.30400765 -0.68340087
vn -0.66373384 -0.30400765 -0.68340087
vn 0.67155397 0.29227746 -0.6808738
vn 0.67741907 0.29032242 -0.67588186
vn 0.67155397 0.29227746 -0.6808738
vn 0.67155397 0.29227746 -0.6808738
vn 0.673509 0.2883674 0.68060994
vn 0.67546403 0.2942325 0.67614764
vn 0.673509 0.2883674 0.68060994
vn 0.673509 0.2883674 0.68060994
vn -0.67155397 -0.29227746 0.6808738
vn -0.673509 -0.3079177 0.6719913
vn -0.67155397 -0.29227746 0.6808738
vn -0.67155397 -0.29227746 0.6808738
vn -0.22971642 -0.68914926 -0.6872435
vn -0.2590419 -0.6930593 -0.67273027
vn -0.22971642 -0.68914926 -0.6872435
vn -0.22971642 -0.68914926 -0.6872435
vn 0.25513184 0.68328416 -0.6841275
vn 0.264907 0.68914926 -0.67446095
vn 0.25513184 0.68328416 -0.6841275
vn 0.25513184 0.68328416 -0.6841275
vn 0.26295197 0.68132913 0.6831156
vn 0.2590419 0.6930593 0.67273027
vn 0.26295197 0.68132913 0.6831156
vn 0.26295197 0.68132913 0.6831156
vn -0.25513184 -0.68328416 0.6841275
vn -0.23558152 -0.70674455 0.66709334
vn -0.25513184 -0.68328416 0.6841275
vn -0.25513184 -0.68328416 0.6841275
vn -0.0009775162 -0.70674455 -0.70746815
vn -0.0009775162 -0.70674455 -0.70746815
vn -0.0009775162 -0.70674455 -0.70746815
vn -0.0009775162 -0.70674455 -0.70746815
vn -0.0009775162 0.70674455 -0.70746815
vn -0.0009775162 0.70674455 -0.70746815
vn -0.0009775162 0.70674455 -0.70746815
vn -0.0009775162 0.70674455 -0.70746815
vn -0.0009775162 0.70674455 0.70746815
vn -0.0009775162 0.70674455 0.70746815
vn -0.0009775162 0.70674455 0.70746815
vn -0.0009775162 0.70674455 0.70746815
vn -0.0009775162 -0.70674455 0.70746815
vn -0.0009775162 -0.70674455 0.70746815
vn -0.0009775162 -0.70674455 0.70746815
vn -0.0009775162 -0.70674455 0.70746815
vn -0.0009775162 0.70674455 -0.70746815
vn -0.0009775162 0.70674455 -0.70746815
vn -0.0009775162 0.70674455 -0.70746815
vn -0.0009775162 0.70674455 -0.70746815
vn -0.0009775162 -0.70674455 -0.70746815
vn -0.0009775162 -0.70674455 -0.70746815
vn -0.0009775162 -0.70674455 -0.70746815
vn -0.0009775162 -0.70674455 -0.70746815
vn -0.0009775162 -0.70674455 0.70746815
vn -0.0009775162 -0.70674455 0.70746815
vn -0.0009775162 -0.70674455 0.70746815
vn -0.0009775162 -0.70674455 0.70746815
vn -0.0009775162 0.70674455 0.70746815
vn -0.0009775162 0.70674455 0.70746815
vn -0.0009775162 0.70674455 0.70746815
vn -0.0009775162 0.70674455 0.70746815
vn 0.70674455 0.0009775162 -0.70746815
vn 0.70674455 0.0009775162 -0.70746815
vn 0.70674455 0.0009775162 -0.70746815
vn 0.70674455 0.0009775162 -0.70746815
vn -0.70674455 0.0009775162 -0.70746815
vn -0.70674455 0.0009775162 -0.70746815
vn -0.70674455 0.0009775162 -0.70746815
vn -0.70674455 0.0009775162 -0.70746815
vn -0.70674455 0.0009775162 0.70746815
vn -0.70674455 0.0009775162 0.70746815
vn -0.70674455 0.0009775162 0.70746815
vn -0.70674455 0.0009775162 0.70746815
vn 0.70674455 0.0009775162 0.70746815
vn 0.70674455 0.0009775162 0.70746815
vn 0.70674455 0.0009775162 0.70746815
vn 0.70674455 0.0009775162 0.70746815
vn 0.67546403 -0.2942325 -0.67614764
vn 0.66373384 -0.30205262 -0.6842672
vn 0.67546403 -0.2942325 -0.67614764
vn 0.67546403 -0.2942325 -0.67614764
vn -0.67741907 0.29032242 -0.67588186
vn -0.67155397 0.29227746 -0.6808738
vn -0.67741907 0.29032242 -0.67588186
vn -0.67741907 0.29032242 -0.67588186
vn -0.67546403 0.2942325 0.67614764
vn -0.673509 0.2883674 0.68060994
vn -0.67546403 0.2942325 0.67614764
vn -0.67546403 0.2942325 0.67614764
vn 0.673509 -0.3079177 0.6719913
vn 0.67155397 -0.29227746 0.6808738
vn 0.673509 -0.3079177 0.6719913
vn 0.673509 -0.3079177 0.6719913
vn 0.25513184 -0.69501436 -0.6722074
vn 0.22385132 -0.68914926 -0.68917626
vn 0.25513184 -0.69501436 -0.6722074
vn 0.25513184 -0.69501436 -0.6722074
vn -0.264907 0.68914926 -0.67446095
vn -0.25122178 0.6852392 -0.68361896
vn -0.264907 0.68914926 -0.67446095
vn -0.264907 0.68914926 -0.67446095
vn -0.25513184 0.69501436 0.6722074
vn -0.26099694 0.68328416 0.6819115
vn -0.25513184 0.69501436 0.6722074
vn -0.25513184 0.69501436 0.6722074
vn 0.23167145 -0.7106546 0.66430295
vn 0.25122178 -0.6852392 0.68361896
vn 0.23167145 -0.7106546 0.66430295
vn 0.23167145 -0.7106546 0.66430295
vn -0.0009775162 0.0009775162 -0.99999905
vn -0.0009775162 -0.9999995 -0
vn -0.0009775162 -0.9999995 -0
vn -0.0009775162 0.0009775162 -0.99999905
vn -0.0009775162 0.9999995 -0
vn -0.0009775162 0.9999995 -0
vn -0.0009775162 0.0009775162 0.99999905
vn -0.0009775162 0.0009775162 0.99999905
vn -0.0009775162 -0.9999995 -0
vn -0.0009775162 -0.9999995 -0
vn -0.0009775162 0.9999995 -0
vn -0.0009775162 0.9999995 -0
vn -0.0009775162 0.0009775162 -0.99999905
vn -0.0009775162 0.0009775162 -0.99999905
vn -0.0009775162 -0.9999995 -0
vn -0.0009775162 -0.9999995 -0
vn -0.0009775162 0.0009775162 0.99999905
vn -0.0009775162 0.0009775162 0.99999905
vn -0.0009775162 0.9999995 -0
vn -0.0009775162 0.9999995 -0
g febg_factory_001_floorrail_08_0
f 3/3/3 2/2/2 1/1/1
f 4/4/4 3/3/3 1/1/1
f 7/7/7 6/6/6 5/5/5
f 8/8/8 7/7/7 5/5/5
f 11/11/11 10/10/10 9/9/9
f 12/12/12 11/11/11 9/9/9
f 15/15/15 14/14/14 13/13/13
f 16/16/16 15/15/15 13/13/13
f 19/19/19 18/18/18 17/17/17
f 20/20/20 19/19/19 17/17/17
f 23/23/23 22/22/22 21/21/21
f 24/24/24 23/23/23 21/21/21
f 27/27/27 26/26/26 25/25/25
f 28/28/28 27/27/27 25/25/25
f 31/31/31 30/30/30 29/29/29
f 32/32/32 31/31/31 29/29/29
f 35/35/35 34/34/34 33/33/33
f 36/36/36 35/35/35 33/33/33
f 39/39/39 38/38/38 37/37/37
f 40/40/40 39/39/39 37/37/37
f 43/43/43 42/42/42 41/41/41
f 44/44/44 43/43/43 41/41/41
f 47/47/47 46/46/46 45/45/45
f 48/48/48 47/47/47 45/45/45
f 51/51/51 50/50/50 49/49/49
f 52/52/52 51/51/51 49/49/49
f 55/55/55 54/54/54 53/53/53
f 56/56/56 55/55/55 53/53/53
f 59/59/59 58/58/58 57/57/57
f 60/60/60 59/59/59 57/57/57
f 63/63/63 62/62/62 61/61/61
f 64/64/64 63/63/63 61/61/61
f 67/67/67 66/66/66 65/65/65
f 68/68/68 67/67/67 65/65/65
f 71/71/71 70/70/70 69/69/69
f 72/72/72 71/71/71 69/69/69
f 75/75/75 74/74/74 73/73/73
f 76/76/76 75/75/75 73/73/73
f 79/79/79 78/78/78 77/77/77
f 80/80/80 79/79/79 77/77/77
f 83/83/83 82/82/82 81/81/81
f 84/84/84 83/83/83 81/81/81
f 87/87/87 86/86/86 85/85/85
f 88/88/88 87/87/87 85/85/85
f 91/91/91 90/90/90 89/89/89
f 92/92/92 91/91/91 89/89/89
f 95/95/95 94/94/94 93/93/93
f 96/96/96 95/95/95 93/93/93
f 99/99/99 98/98/98 97/97/97
f 100/100/100 99/99/99 97/97/97
f 103/103/103 102/102/102 101/101/101
f 104/104/104 103/103/103 101/101/101
f 107/107/107 106/106/106 105/105/105
f 108/108/108 107/107/107 105/105/105
f 111/111/111 110/110/110 109/109/109
f 112/112/112 111/111/111 109/109/109
f 115/115/115 114/114/114 113/113/113
f 116/116/116 115/115/115 113/113/113
f 119/119/119 118/118/118 117/117/117
f 120/120/120 119/119/119 117/117/117
f 123/123/123 122/122/122 121/121/121
f 124/124/124 123/123/123 121/121/121
f 127/127/127 126/126/126 125/125/125
f 128/128/128 127/127/127 125/125/125
f 131/131/131 130/130/130 129/129/129
f 130/130/130 132/132/132 129/129/129
f 129/129/129 132/132/132 133/133/133
f 132/132/132 134/134/134 133/133/133
f 133/133/133 134/134/134 135/135/135
f 134/134/134 136/136/136 135/135/135
f 135/135/135 136/136/136 137/137/137
f 136/136/136 138/138/138 137/137/137
f 141/141/141 140/140/140 139/139/139
f 142/142/142 141/141/141 139/139/139
f 143/143/143 141/141/141 142/142/142
f 144/144/144 143/143/143 142/142/142
f 145/145/145 143/143/143 144/144/144
f 146/146/146 145/145/145 144/144/144
f 147/147/147 145/145/145 146/146/146
f 148/148/148 147/147/147 146/146/146
