g febg_factory_001_building_02
v -1.8017964 9.364681 -1.4472132
v -0.69236565 9.272474 -1.4472132
v -1.8017964 9.271688 -1.4472132
v -0.7411814 9.364693 -1.4472132
v -1.9212315 9.364693 -1.5590184
v -0.73864174 9.364693 -1.5590184
v -0.69236565 9.272474 -1.4472132
v -0.69098806 9.273238 -1.5590184
v -0.59785485 9.136314 -1.4472024
v -0.29412246 8.725307 -1.4472024
v -1.9212315 5.890479 -1.5590184
v -0.29412246 8.725307 -1.5590184
v 0.55572116 7.423584 -1.5590184
v 0.0033894777 8.680043 -1.4472024
v 0.0033894777 8.680043 -1.5590184
v 0.5751786 8.308372 -1.4471917
v 0.5751786 8.308372 -1.5590184
v 0.6283423 7.96807 -1.447181
v 0.6283423 7.96807 -1.5590184
v 0.52916086 7.9571686 -1.5590184
v 0.52916086 7.9571686 -1.4471701
v 0.6283423 7.96807 -1.447181
v 0.55572116 7.423584 -1.447181
v 0.91125035 7.2767487 -1.4471917
v 0.91125035 7.2767487 -1.5590184
v 1.0086561 7.082282 -1.4471917
v 0.9921905 6.9296675 -1.5590184
v 1.0086561 7.082282 -1.5590184
v 0.9921905 6.9296675 -1.4471917
v 1.3017449 6.5499783 -1.4471378
v 1.3221495 6.550376 -1.5590184
v 1.792777 6.3692217 -1.4472024
v 1.9199393 6.2889166 -1.5591152
v 1.9199393 5.8654366 -1.5591044
v 1.9199286 6.4748926 -1.311097
v 1.792777 6.3692217 -1.4472024
v 1.7928092 6.499839 -1.2932646
v 1.7928092 6.2867966 -0.91949403
v 1.9199286 6.268017 -0.91949403
v 1.9199286 6.185958 0.68408966
v 1.9199286 6.617584 -0.23555541
v 1.7928092 6.633275 -0.23555541
v 1.9199286 6.645296 0.021954656
v 1.7928092 6.657898 0.021954656
v 1.7928092 6.186227 0.68408966
v 1.7928092 6.2405205 0.9510596
v 1.919907 6.2402515 0.9510596
v 1.7927985 6.506608 1.3167586
v 1.9198962 5.8667173 1.5606873
v 1.9198962 6.506339 1.3167586
v 1.7927985 6.463485 1.4501951
v 1.9198962 6.4454374 1.5606873
v 1.9198962 0.002411127 1.5607197
v 1.9199393 0.0024003983 -1.5590184
v -1.9212315 0.0024003983 -1.5590184
v -1.9212315 5.886304 1.5607088
v -1.9212315 0.002411127 1.5607412
v -1.9212315 8.877997 1.2984529
v -1.9212315 8.852642 1.5606873
v -1.8018179 8.907743 1.2984529
v -1.8016672 8.874263 1.450206
v -1.8016672 8.743431 1.450206
v -1.8018072 8.747951 -1.447224
v -1.8018072 9.270418 1.1065364
v -1.8018072 9.270418 -1.447224
v -1.9212315 9.364693 1.0714202
v -1.8018072 9.364693 1.06831
v -1.8017964 9.364681 -1.4472132
v -1.8017964 9.271688 -1.4472132
v -1.8018072 9.270418 1.1065364
v -0.5298829 9.273625 1.4503996
v -0.56036043 9.364693 1.4503889
v -1.4229677 9.364693 1.4503889
v -1.448936 9.273603 1.4503889
v -0.39930892 9.271699 1.3277466
v -1.4147887 9.271699 1.2938466
v -1.5470843 9.271699 1.1234539
v -0.4441321 9.271656 0.054498553
v -1.8018072 9.270418 1.1065364
v -0.3550024 9.127845 1.3379812
v -0.49566007 9.124014 1.450335
v -0.080779076 9.134442 0.6480806
v -0.13070345 9.271699 0.6567006
v -0.12788391 9.134453 0.24223948
v -0.17780805 9.271699 0.25085974
v -0.39420795 9.13441 0.04587829
v -0.511168 9.134539 -0.2680025
v -0.56109214 9.271785 -0.2593714
v -1.8017964 9.271688 -1.4472132
v -0.42063904 9.134453 -0.67779315
v -0.46862626 9.271699 -0.66639626
v -0.69236565 9.272474 -1.4472132
v -0.44021487 9.134453 -1.2538762
v -0.48821282 9.271699 -1.2424793
v -0.59785485 9.136314 -1.4472024
v -1.5351493 9.010702 1.5606873
v -1.9212315 8.852642 1.5606873
v -1.8016672 8.874263 1.450206
v -1.5351493 9.010702 1.4503782
v -1.448936 9.273603 1.4503889
v -1.4203632 9.364693 1.5606873
v -1.4229677 9.364693 1.4503889
v -0.56036043 9.364693 1.4503889
v -0.5830679 9.364693 1.5606766
v -0.5298829 9.273625 1.4503996
v -0.55257964 9.190555 1.5606766
v -0.49566007 9.124014 1.450335
v -0.5294955 9.273603 1.4503889
v -0.31775546 8.773844 1.5606873
v -0.29517722 8.783637 1.4503889
v -1.8016887 6.0924797 1.4503458
v 0.5484462 8.229659 1.4503675
v 0.5344126 8.222955 1.5606873
v 1.0896392 6.758877 1.4503243
v 1.0889182 6.731348 1.5606873
v 1.5790354 6.404338 1.4504104
v 1.7929815 6.0863247 1.4502382
v 1.5790354 6.376647 1.5606873
v 1.7927985 6.463485 1.4501951
v 1.9198962 6.4454374 1.5606873
v 0.061934114 8.3830805 1.4019604
v 0.29517627 8.242165 1.1682127
v 0.11536682 8.242165 1.4735377
v 0.24174356 8.3830805 1.1729693
v 0.27396452 8.242165 0.97737217
v 0.22054267 8.3830805 0.9821291
v 0.29829717 8.3830805 0.3813367
v 0.5107366 8.242165 0.75118995
v -1.8016241 8.383091 1.4516051
v 0.4573146 8.3830805 0.75594664
v 0.4648049 8.242165 0.46140504
v 0.41137218 8.3830805 0.46616173
v 0.35172987 8.242165 0.37659073
v 0.3163663 8.242165 0.06912398
v 0.2629336 8.3830805 0.07388067
v 0.39059103 8.242165 -0.06517351
v 0.33716905 8.3830805 -0.0604167
v -1.8016133 8.3830805 -1.4471594
v 0.7451732 8.242165 -0.14831972
v 0.6917405 8.3830805 -0.14356291
v 0.86357534 8.242165 -0.42557788
v 0.81014264 8.3830805 -0.42082107
v 0.75107074 8.242165 -0.7893506
v 0.69764876 8.3830805 -0.78459394
v 0.5425379 8.242165 -0.9413191
v 0.48910522 8.3830805 -0.93656236
v 0.42689073 8.242165 -1.2220749
v 0.37345803 8.3830805 -1.217318
v 0.053496838 8.3830805 -1.4471594
v 0.10692954 8.242165 -1.5246449
v 0.55536604 7.679329 1.5060384
v 0.86040056 7.497916 1.1826227
v 0.62347794 7.542406 1.4949322
v 0.79228866 7.642061 1.1652532
v 0.80498767 7.4390593 0.7695606
v 0.7368758 7.5819664 0.7435274
v -1.1069453 7.6858397 1.4789293
v 1.1614101 7.336273 0.047944546
v 1.0932982 7.4804497 0.030800939
v -1.1040394 7.261284 -1.5018728
v 0.8083669 7.344818 -0.9212805
v 1.1461928 7.249769 -0.55943406
v 0.4614041 7.261693 -1.5046494
v 1.0780917 7.3939457 -0.57657766
v 0.87646806 7.2006407 -0.9041368
v 0.7603905 7.147564 -1.2767022
v 0.6922786 7.2917404 -1.2938458
v 0.529516 7.117527 -1.487495
v 1.7929815 6.0863247 1.4502382
v -1.8016887 6.0924797 1.4503458
v -1.8018501 6.094137 -1.4472024
v 1.792777 6.0841503 -1.4472024
v -1.8016672 8.743431 1.450206
v -1.8018072 8.747951 -1.447224
v -1.8018072 5.3098116 -1.447224
v -1.8016672 5.305292 1.450206
vt 0.45626232 0.7997953
vt 0.47819385 0.80155814
vt 0.45626232 0.80155814
vt 0.4774002 0.7997953
vt 0.45626232 0.79775786
vt 0.47697288 0.79775786
vt 0.4789188 0.7968498
vt 0.47775126 0.79578906
vt 0.48059 0.794507
vt 0.48522964 0.7875247
vt 0.45626232 0.7369463
vt 0.48449707 0.78634185
vt 0.4999346 0.76421195
vt 0.4900219 0.7867692
vt 0.48938093 0.7854185
vt 0.50059855 0.7810383
vt 0.4995378 0.7801302
vt 0.5026284 0.7752006
vt 0.5010717 0.77471983
vt 0.49937755 0.7738041
vt 0.5007435 0.773186
vt 0.5019416 0.773827
vt 0.50106406 0.7648987
vt 0.50696284 0.76226604
vt 0.50594026 0.7613121
vt 0.50871795 0.7586108
vt 0.5073978 0.75550497
vt 0.507352 0.7581529
vt 0.50881714 0.75611544
vt 0.5139528 0.7501556
vt 0.5132126 0.7487515
vt 0.5233771 0.74667585
vt 0.5233771 0.74414235
vt 0.5233771 0.7369463
vt 0.52796334 0.7471261
vt 0.5233771 0.74667585
vt 0.5281007 0.7487515
vt 0.53477025 0.7455541
vt 0.53479314 0.7438295
vt 0.5623945 0.7424635
vt 0.54668224 0.74982744
vt 0.5463465 0.7515215
vt 0.55086404 0.75023955
vt 0.5511769 0.7518497
vt 0.56267685 0.74406606
vt 0.5667289 0.7448902
vt 0.5672249 0.7434098
vt 0.57340604 0.74899566
vt 0.5774963 0.7369463
vt 0.5736579 0.74767554
vt 0.57626003 0.74864465
vt 0.57773286 0.74681324
vt 0.5774734 0.63591933
vt 0.5233771 0.6359117
vt 0.45626232 0.63581246
vt 0.40248656 0.7369463
vt 0.40248656 0.6357896
vt 0.40817165 0.7886006
vt 0.40248656 0.787891
vt 0.40746197 0.78998184
vt 0.40487507 0.78968424
vt 0.40487507 0.78968424
vt 0.410026 0.79775786
vt 0.410026 0.79775786
vt 0.410026 0.79775786
vt 0.41205585 0.79775786
vt 0.41161326 0.7997953
vt 0.45626232 0.7997953
vt 0.45626232 0.80155814
vt 0.41102567 0.80155814
vt 0.41069752 0.8998914
vt 0.40966734 0.9028064
vt 0.38206598 0.90274537
vt 0.38119602 0.89982265
vt 0.41458935 0.8952059
vt 0.38219568 0.8941528
vt 0.37790707 0.8886738
vt 0.41323867 0.85452497
vt 0.36874986 0.8880557
vt 0.41899246 0.8969229
vt 0.41528377 0.9021349
vt 0.42742473 0.87393826
vt 0.42288426 0.8738925
vt 0.4254712 0.8599888
vt 0.42130464 0.86140054
vt 0.41761124 0.8526554
vt 0.41411623 0.8435058
vt 0.40946895 0.84410864
vt 0.36868116 0.8054041
vt 0.4167642 0.830617
vt 0.4121932 0.83095276
vt 0.4053024 0.80538124
vt 0.4156119 0.81160814
vt 0.41134617 0.8128444
vt 0.410667 0.8041145
vt 0.42389917 0.83990395
vt 0.4197937 0.83777493
vt 0.4217091 0.8370576
vt 0.42506674 0.8388661
vt 0.4262114 0.84198725
vt 0.42581457 0.84418494
vt 0.426509 0.84260535
vt 0.43604013 0.8423459
vt 0.4362767 0.8439331
vt 0.4364522 0.84165907
vt 0.43803945 0.8419185
vt 0.43735266 0.8402626
vt 0.43643695 0.8416743
vt 0.44124448 0.83759177
vt 0.43971065 0.83618003
vt 0.42201433 0.804435
vt 0.4496081 0.82973945
vt 0.45083666 0.8310214
vt 0.45612496 0.8125468
vt 0.45807087 0.81428665
vt 0.46215346 0.80840313
vt 0.4649159 0.8045876
vt 0.46286315 0.81064665
vt 0.46522877 0.80884576
vt 0.46545005 0.81107396
vt 0.46663287 0.90209675
vt 0.47315738 0.8983346
vt 0.46977684 0.90433264
vt 0.46969292 0.8976631
vt 0.47351605 0.8947786
vt 0.4697387 0.8939697
vt 0.47122675 0.88219506
vt 0.47730866 0.8897345
vt 0.43114102 0.9028827
vt 0.4738289 0.88941395
vt 0.4765379 0.8837365
vt 0.4729895 0.88418674
vt 0.4749583 0.8816151
vt 0.4741494 0.87636495
vt 0.4705781 0.87601393
vt 0.4753246 0.87469375
vt 0.47211194 0.87315995
vt 0.43124786 0.8461232
vt 0.48181096 0.8723129
vt 0.47865933 0.8710385
vt 0.48435208 0.86614704
vt 0.4807884 0.8660707
vt 0.48224592 0.8583634
vt 0.47881198 0.8592486
vt 0.47858304 0.8547997
vt 0.4750575 0.85619617
vt 0.4758435 0.849603
vt 0.47258505 0.85093075
vt 0.4667397 0.8460622
vt 0.46965474 0.84371185
vt 0.5166008 0.9042792
vt 0.52301085 0.9003187
vt 0.51925635 0.9058283
vt 0.5202255 0.899899
vt 0.5226445 0.89335155
vt 0.51963794 0.89292425
vt 0.48925883 0.9051033
vt 0.5282457 0.88121825
vt 0.52535355 0.88106567
vt 0.48929697 0.85570776
vt 0.5207368 0.86533815
vt 0.52778786 0.8707104
vt 0.51504403 0.8556696
vt 0.5249644 0.8711758
vt 0.5236671 0.8645445
vt 0.52138543 0.8583863
vt 0.51866114 0.8592562
vt 0.51779884 0.8545021
vt 0.5150669 0.8413157
vt 0.46859404 0.8413157
vt 0.46859404 0.8039924
vt 0.5150669 0.8039924
vt 0.48838127 0.83303607
vt 0.46896031 0.8330666
vt 0.46896031 0.81002855
vt 0.48838127 0.80999804
vn 0.30205262 0.90420294 0.30196238
vn 0.614858 0.78494585 0.07622115
vn 0.5777123 0.5777123 0.5766255
vn 0.4056694 0.6793741 0.6114599
vn -0.5777123 0.5777123 -0.5766255
vn 0.4173996 0.6793741 -0.6035134
vn 0.614858 0.78494585 0.07622115
vn 0.5933526 0.36461365 -0.7176277
vn 0.80840623 0.53861165 -0.23743808
vn 0.51879966 0.85489583 -0
vn -0.70674455 0.0009775162 -0.70746815
vn 0.30987275 0.5112412 -0.80163044
vn 0.4310848 0.30400765 -0.8495559
vn 0.35465422 0.9349975 -0
vn 0.26686203 0.70087945 -0.6614776
vn 0.8390457 0.544061 -0
vn 0.6539586 0.42326474 -0.62704474
vn 0.79469067 -0.60701466 -0
vn 0.65004855 -0.49755597 -0.5743474
vn 0.33528823 -0.28641236 -0.89752424
vn 0.76148546 -0.6480935 -0.010710236
vn 0.79469067 -0.60701466 -0
vn 0.81622636 0.57575727 -0.047729336
vn 0.681238 0.73206204 -0
vn 0.5249264 0.5659821 -0.6357016
vn 0.9842276 0.17690688 -0
vn 0.57380223 0.17497551 -0.8000841
vn 0.74975526 0.13587487 -0.6476149
vn 0.9550338 0.29227746 0.049843345
vn 0.6050828 0.794721 0.047888294
vn 0.3704788 0.53274655 -0.76087224
vn 0.20625603 0.906158 -0.36923724
vn 0.6656889 0.32160294 -0.673372
vn 0.70674455 0.0009775162 -0.70746815
vn 0.6402734 0.7595304 -0.114732325
vn 0.20625603 0.906158 -0.36923724
vn 0.124144614 0.9921794 -0.012967062
vn 0.16911036 0.98435926 0.04938163
vn 0.8664944 0.49918675 -0
vn 0.8123163 0.56989217 0.123956256
vn 0.7106546 0.673509 -0.20336086
vn 0.116324484 0.95307875 -0.2794808
vn 0.6656889 0.7204298 0.1945231
vn 0.0811339 0.96480894 0.25012192
vn 0.024437904 0.97849417 0.20482177
vn 0.0009775162 0.91593313 -0.4013297
vn 0.7595304 0.5953076 -0.26214957
vn -0.024437904 0.98435926 -0.17446953
vn 0.9999995 0.0009775162 -0
vn 0.61290294 0.7771257 -0.142918
vn -0.1378299 0.99022436 0.021416295
vn 0.7086996 0.67546403 0.20369896
vn 0.9999995 0.0009775162 -0
vn 0.70674455 0.0009775162 -0.70746815
vn -0.70674455 0.0009775162 -0.70746815
vn -0.9999995 0.0009775162 -0
vn -0.9999995 0.0009775162 -0
vn -0.86314714 0.4213097 0.27834353
vn -0.81427133 0.5796673 0.030789802
vn 0.79081094 0.47996068 0.3798102
vn 0.100684226 0.90420294 -0.4150659
vn 0.9999995 0.0009775162 -0
vn 0.9999995 0.0009775162 -0
vn 0.61876804 0.56793714 0.54274625
vn 0.9999995 -0.0009775162 -0
vn -0.60508275 0.6656889 0.43673015
vn 0.6050828 0.66373384 0.43969554
vn 0.30205262 0.90420294 0.30196238
vn 0.5777123 0.5777123 0.5766255
vn 0.61876804 0.56793714 0.54274625
vn 0.74389017 0.6539587 0.13771522
vn 0.5640271 0.6324533 -0.5309202
vn -0.49169087 0.6422285 -0.5880329
vn -0.60508275 0.46432042 -0.6467468
vn 0.5307915 0.7517103 0.39139748
vn 0.0009775162 0.9999995 -0
vn -0.0009775162 0.9999995 -0
vn 0.4115345 0.86314714 -0.29260272
vn 0.61876804 0.56793714 0.54274625
vn 0.794721 0.2590419 0.5489224
vn 0.8748774 0.36656868 -0.31657055
vn 0.93548346 0.33333313 0.11730192
vn 0.62658817 0.77321565 0.0975955
vn 0.82991165 0.32942307 -0.45025223
vn 0.5640271 0.7458452 -0.35438448
vn 0.74193513 0.3079177 -0.59558284
vn 0.9393935 0.34115326 -0.033974603
vn 0.4936459 0.86901224 -0.033637404
vn 0.5777123 0.5777123 0.5766255
vn 0.94134855 0.32746804 0.08141019
vn 0.60703784 0.792766 0.055020005
vn 0.614858 0.78494585 0.07622115
vn 0.8631472 0.37634385 -0.3366634
vn 0.58748746 0.7712606 -0.2449806
vn 0.80840623 0.53861165 -0.23743808
vn -0.74389017 0.6656889 -0.0590404
vn -0.81427133 0.5796673 0.030789802
vn 0.100684226 0.90420294 -0.4150659
vn -0.42521977 0.38025403 -0.82133734
vn -0.60508275 0.46432042 -0.6467468
vn -0.58915883 0.8080172 -0
vn -0.49169087 0.6422285 -0.5880329
vn 0.5640271 0.6324533 -0.5309202
vn 0.55620694 0.81427133 0.1661206
vn 0.74389017 0.6539587 0.13771522
vn 0.91397804 0.29814255 0.27523652
vn 0.8748774 0.36656868 -0.31657055
vn -0.0009775162 0.0009775162 -0.99999905
vn 0.7223848 0.66959894 0.17261942
vn 0.5112412 0.49560094 -0.7021482
vn 0.0009775162 0.70674455 -0.70746815
vn 0.6344083 0.499511 -0.5899278
vn 0.7712606 0.62267804 0.13201925
vn 0.56207204 0.39393926 -0.72724605
vn 0.7634405 0.62267804 0.17155366
vn 0.14564997 0.66373384 -0.7336508
vn 0.0009775162 0.70674455 -0.70746815
vn 0.18279558 0.94134855 0.28363478
vn -0.1378299 0.99022436 0.021416295
vn 0.7086996 0.67546403 0.20369896
vn 0.38611907 0.8846526 0.26134625
vn 0.89638275 0.4017594 0.18731625
vn 0.7575754 0.40762448 0.5098252
vn 0.6050828 0.77908075 0.16403653
vn 0.87292236 0.3196479 0.36855358
vn 0.42326468 0.8963828 0.13170001
vn 0.40762442 0.88660765 -0.21856163
vn 0.9042029 0.33333313 0.26703218
vn -0.0009775162 0.9999995 -0
vn 0.63049823 0.73607004 0.24631853
vn 0.8240465 0.32746804 -0.46229
vn 0.5542519 0.74780023 -0.36551285
vn 0.8005861 0.32160294 -0.50560206
vn 0.9178881 0.34115326 0.2027212
vn 0.47996068 0.8729223 0.08743235
vn 0.52688146 0.17106545 0.8325458
vn 0.33137816 0.8651022 0.37654582
vn -0.0009775162 0.9999995 -0
vn 0.68132913 0.23558152 0.693031
vn 0.41348952 0.6871942 0.5973194
vn 0.93548346 0.35288346 0.018546855
vn 0.6422284 0.7653955 0.041380215
vn 0.7888559 0.31769288 -0.5260966
vn 0.5190613 0.7536653 -0.40319216
vn 0.7282499 0.29618752 -0.6180008
vn 0.4115345 0.8592371 -0.30389312
vn 0.7595304 0.38807416 -0.5220268
vn 0.4819157 0.794721 -0.36902
vn 0.26295197 0.91202307 -0.3147542
vn 0.5796673 0.42326474 -0.6962993
vn 0.3274681 0.9374385 0.11821046
vn 0.89638275 0.41935468 0.14366499
vn 0.7693056 0.3841641 0.51047707
vn 0.6050828 0.792766 0.07346361
vn 0.8944277 0.438905 0.085798845
vn 0.45259023 0.8905177 -0.0462632
vn 0.0009775162 0.99022436 -0.13948038
vn 0.89051765 0.44086003 0.1123421
vn 0.5777123 0.81622636 0.0047966023
vn -0.0009775162 0.99022436 -0.13948038
vn 0.4506352 0.8240465 -0.3433297
vn 0.86510223 0.36852372 -0.34027693
vn 0.26686203 0.86901224 -0.41665623
vn 0.5718472 0.7517103 -0.3285155
vn 0.80840623 0.32355797 -0.49172106
vn 0.79667604 0.3137828 -0.51657295
vn 0.50928617 0.7282499 -0.45856264
vn 0.6422284 0.2160312 -0.7354408
vn 0.0009775162 0.70674455 -0.70746815
vn 0.0009775162 0.70674455 -0.70746815
vn 0.0029325373 0.9999957 -0
vn 0.0029325373 0.9999957 -0
vn 0.9999995 0.0009775162 -0
vn 0.9999995 0.0009775162 -0
vn 0.9999995 0.0009775162 -0
vn 0.9999995 0.0009775162 -0
g febg_factory_001_building_02_0
f 3/3/3 2/2/2 1/1/1
f 2/2/2 4/4/4 1/1/1
f 1/1/1 4/4/4 5/5/5
f 4/4/4 6/6/6 5/5/5
f 4/4/4 7/7/7 6/6/6
f 7/7/7 8/8/8 6/6/6
f 5/5/5 6/6/6 8/8/8
f 7/7/7 9/9/9 8/8/8
f 9/9/9 10/10/10 8/8/8
f 11/11/11 5/5/5 8/8/8
f 11/11/11 8/8/8 12/12/12
f 10/10/10 12/12/12 8/8/8
f 13/13/13 11/11/11 12/12/12
f 10/10/10 14/14/14 12/12/12
f 14/14/14 15/15/15 12/12/12
f 15/15/15 13/13/13 12/12/12
f 14/14/14 16/16/16 15/15/15
f 16/16/16 17/17/17 15/15/15
f 16/16/16 18/18/18 17/17/17
f 18/18/18 19/19/19 17/17/17
f 20/20/20 15/15/15 17/17/17
f 19/19/19 20/20/20 17/17/17
f 20/20/20 13/13/13 15/15/15
f 21/21/21 20/20/20 19/19/19
f 22/22/22 21/21/21 19/19/19
f 21/21/21 23/23/23 20/20/20
f 23/23/23 13/13/13 20/20/20
f 23/23/23 24/24/24 13/13/13
f 24/24/24 25/25/25 13/13/13
f 24/24/24 26/26/26 25/25/25
f 13/13/13 25/25/25 27/27/27
f 13/13/13 27/27/27 11/11/11
f 26/26/26 28/28/28 25/25/25
f 25/25/25 28/28/28 27/27/27
f 26/26/26 29/29/29 28/28/28
f 29/29/29 27/27/27 28/28/28
f 29/29/29 30/30/30 27/27/27
f 30/30/30 31/31/31 27/27/27
f 27/27/27 31/31/31 11/11/11
f 30/30/30 32/32/32 31/31/31
f 32/32/32 33/33/33 31/31/31
f 31/31/31 33/33/33 34/34/34
f 11/11/11 31/31/31 34/34/34
f 34/34/34 33/33/33 35/35/35
f 33/33/33 36/36/36 35/35/35
f 36/36/36 37/37/37 35/35/35
f 37/37/37 38/38/38 35/35/35
f 38/38/38 39/39/39 35/35/35
f 39/39/39 34/34/34 35/35/35
f 34/34/34 39/39/39 40/40/40
f 39/39/39 41/41/41 40/40/40
f 39/39/39 38/38/38 41/41/41
f 38/38/38 42/42/42 41/41/41
f 41/41/41 42/42/42 43/43/43
f 41/41/41 43/43/43 40/40/40
f 42/42/42 44/44/44 43/43/43
f 43/43/43 44/44/44 40/40/40
f 44/44/44 45/45/45 40/40/40
f 45/45/45 46/46/46 40/40/40
f 46/46/46 47/47/47 40/40/40
f 46/46/46 48/48/48 47/47/47
f 47/47/47 49/49/49 40/40/40
f 49/49/49 34/34/34 40/40/40
f 48/48/48 50/50/50 47/47/47
f 47/47/47 50/50/50 49/49/49
f 48/48/48 51/51/51 50/50/50
f 51/51/51 52/52/52 50/50/50
f 50/50/50 52/52/52 49/49/49
f 49/49/49 53/53/53 34/34/34
f 53/53/53 54/54/54 34/34/34
f 34/34/34 54/54/54 55/55/55
f 11/11/11 34/34/34 55/55/55
f 11/11/11 55/55/55 56/56/56
f 55/55/55 57/57/57 56/56/56
f 11/11/11 56/56/56 58/58/58
f 56/56/56 59/59/59 58/58/58
f 5/5/5 11/11/11 58/58/58
f 60/60/60 58/58/58 59/59/59
f 61/61/61 60/60/60 59/59/59
f 60/60/60 61/61/61 62/62/62
f 63/63/63 60/60/60 62/62/62
f 60/60/60 63/63/63 64/64/64
f 60/60/60 64/64/64 58/58/58
f 63/63/63 65/65/65 64/64/64
f 64/64/64 66/66/66 58/58/58
f 66/66/66 5/5/5 58/58/58
f 64/64/64 67/67/67 66/66/66
f 66/66/66 67/67/67 5/5/5
f 67/67/67 68/68/68 5/5/5
f 69/69/69 68/68/68 67/67/67
f 70/70/70 69/69/69 67/67/67
f 73/73/73 72/72/72 71/71/71
f 74/74/74 73/73/73 71/71/71
f 74/74/74 71/71/71 75/75/75
f 76/76/76 74/74/74 75/75/75
f 77/77/77 76/76/76 75/75/75
f 77/77/77 75/75/75 78/78/78
f 79/79/79 77/77/77 78/78/78
f 80/80/80 75/75/75 71/71/71
f 81/81/81 80/80/80 71/71/71
f 80/80/80 82/82/82 75/75/75
f 82/82/82 83/83/83 75/75/75
f 75/75/75 83/83/83 78/78/78
f 82/82/82 84/84/84 83/83/83
f 84/84/84 85/85/85 83/83/83
f 83/83/83 85/85/85 78/78/78
f 84/84/84 86/86/86 85/85/85
f 86/86/86 78/78/78 85/85/85
f 86/86/86 87/87/87 78/78/78
f 78/78/78 88/88/88 79/79/79
f 87/87/87 88/88/88 78/78/78
f 88/88/88 89/89/89 79/79/79
f 87/87/87 90/90/90 88/88/88
f 88/88/88 91/91/91 89/89/89
f 90/90/90 91/91/91 88/88/88
f 89/89/89 91/91/91 92/92/92
f 90/90/90 93/93/93 91/91/91
f 91/91/91 94/94/94 92/92/92
f 93/93/93 94/94/94 91/91/91
f 95/95/95 92/92/92 94/94/94
f 93/93/93 95/95/95 94/94/94
f 98/98/98 97/97/97 96/96/96
f 99/99/99 98/98/98 96/96/96
f 100/100/100 99/99/99 96/96/96
f 100/100/100 96/96/96 101/101/101
f 102/102/102 100/100/100 101/101/101
f 102/102/102 101/101/101 103/103/103
f 101/101/101 104/104/104 103/103/103
f 105/105/105 103/103/103 104/104/104
f 106/106/106 105/105/105 104/104/104
f 107/107/107 105/105/105 106/106/106
f 99/99/99 100/100/100 107/107/107
f 100/100/100 108/108/108 107/107/107
f 107/107/107 106/106/106 109/109/109
f 110/110/110 98/98/98 99/99/99
f 107/107/107 110/110/110 99/99/99
f 110/110/110 107/107/107 109/109/109
f 98/98/98 110/110/110 111/111/111
f 112/112/112 110/110/110 109/109/109
f 113/113/113 112/112/112 109/109/109
f 110/110/110 112/112/112 114/114/114
f 114/114/114 112/112/112 113/113/113
f 110/110/110 114/114/114 111/111/111
f 115/115/115 114/114/114 113/113/113
f 111/111/111 114/114/114 116/116/116
f 116/116/116 114/114/114 115/115/115
f 117/117/117 111/111/111 116/116/116
f 118/118/118 116/116/116 115/115/115
f 117/117/117 116/116/116 119/119/119
f 116/116/116 118/118/118 120/120/120
f 119/119/119 116/116/116 120/120/120
f 123/123/123 122/122/122 121/121/121
f 122/122/122 124/124/124 121/121/121
f 122/122/122 125/125/125 124/124/124
f 125/125/125 126/126/126 124/124/124
f 121/121/121 124/124/124 126/126/126
f 121/121/121 126/126/126 127/127/127
f 125/125/125 128/128/128 126/126/126
f 129/129/129 121/121/121 127/127/127
f 128/128/128 130/130/130 126/126/126
f 126/126/126 130/130/130 127/127/127
f 128/128/128 131/131/131 130/130/130
f 131/131/131 132/132/132 130/130/130
f 130/130/130 132/132/132 127/127/127
f 131/131/131 133/133/133 132/132/132
f 133/133/133 127/127/127 132/132/132
f 133/133/133 134/134/134 127/127/127
f 129/129/129 127/127/127 135/135/135
f 134/134/134 135/135/135 127/127/127
f 134/134/134 136/136/136 135/135/135
f 136/136/136 137/137/137 135/135/135
f 138/138/138 129/129/129 135/135/135
f 138/138/138 135/135/135 137/137/137
f 136/136/136 139/139/139 137/137/137
f 139/139/139 140/140/140 137/137/137
f 139/139/139 141/141/141 140/140/140
f 141/141/141 142/142/142 140/140/140
f 137/137/137 140/140/140 142/142/142
f 141/141/141 143/143/143 142/142/142
f 143/143/143 144/144/144 142/142/142
f 144/144/144 137/137/137 142/142/142
f 143/143/143 145/145/145 144/144/144
f 137/137/137 144/144/144 146/146/146
f 145/145/145 146/146/146 144/144/144
f 138/138/138 137/137/137 146/146/146
f 145/145/145 147/147/147 146/146/146
f 138/138/138 146/146/146 148/148/148
f 147/147/147 148/148/148 146/146/146
f 149/149/149 138/138/138 148/148/148
f 147/147/147 150/150/150 148/148/148
f 150/150/150 149/149/149 148/148/148
f 153/153/153 152/152/152 151/151/151
f 152/152/152 154/154/154 151/151/151
f 152/152/152 155/155/155 154/154/154
f 151/151/151 154/154/154 156/156/156
f 155/155/155 156/156/156 154/154/154
f 157/157/157 151/151/151 156/156/156
f 155/155/155 158/158/158 156/156/156
f 157/157/157 156/156/156 159/159/159
f 158/158/158 159/159/159 156/156/156
f 160/160/160 157/157/157 159/159/159
f 161/161/161 160/160/160 159/159/159
f 158/158/158 162/162/162 159/159/159
f 160/160/160 161/161/161 163/163/163
f 162/162/162 164/164/164 159/159/159
f 164/164/164 161/161/161 159/159/159
f 164/164/164 162/162/162 161/161/161
f 162/162/162 165/165/165 161/161/161
f 165/165/165 166/166/166 161/161/161
f 161/161/161 167/167/167 163/163/163
f 166/166/166 167/167/167 161/161/161
f 168/168/168 163/163/163 167/167/167
f 166/166/166 168/168/168 167/167/167
f 171/171/171 170/170/170 169/169/169
f 172/172/172 171/171/171 169/169/169
f 175/175/175 174/174/174 173/173/173
f 176/176/176 175/175/175 173/173/173
