g febg_factory_001_support_02
v -2.2107873 1.1920929E-06 0.1017499
v -2.2107768 3.128848 -0.10174775
v -2.2107873 3.128848 0.1017499
v -2.210782 1.1920929E-06 -0.10174775
v -1.9988618 3.1288428 -0.10174775
v -1.9988618 1.1920929E-06 -0.10174775
v -1.9988618 3.1288428 0.1017499
v -1.9988618 1.1920929E-06 0.1017499
v -1.9988618 1.1920929E-06 0.1017499
v -2.2107873 1.1920929E-06 0.1017499
v -2.2107873 3.128848 0.1017499
v -1.9988618 3.1288428 0.1017499
v -2.182953 2.5846567 0.049049854
v 2.044186 0.06473398 0.049044847
v 2.0441809 0.064728975 -0.04903245
v -2.182953 2.5846567 -0.04903245
v 2.1571326 0.27358866 -0.04903245
v -2.072527 2.7949781 -0.04903245
v 2.1571326 0.27358866 0.049044847
v -2.0725217 2.7949882 0.049049854
v 2.1571326 0.27358866 0.049044847
v 2.044186 0.06473398 0.049044847
v -2.182953 2.5846567 0.049049854
v -2.0725217 2.7949882 0.049049854
v 2.0264192 2.7342272 0.05338335
v -2.0523105 2.7342272 0.05338335
v -2.0523105 2.9223614 0.05338335
v 2.0264802 2.9223614 0.05338335
v -2.0523105 2.9223614 -0.053381205
v 2.0264802 2.9223614 -0.05338645
v -2.0523105 2.7342324 -0.053381205
v 2.0264192 2.7342324 -0.05338645
v -2.0145612 0.047771692 0.04905486
v 2.1253264 2.708613 0.04905486
v 2.1253264 2.708603 -0.049027443
v -2.0145612 0.047771692 -0.049027443
v 1.9887108 2.9028068 -0.049027443
v -2.1536112 0.24036169 -0.049027443
v 1.9887108 2.902812 0.04905486
v -2.1536212 0.2403717 0.04905486
v 1.9887108 2.902812 0.04905486
v 2.1253264 2.708613 0.04905486
v -2.0145612 0.047771692 0.04905486
v -2.1536212 0.2403717 0.04905486
v 1.9693296 1.1920929E-06 0.1017499
v 1.9693346 3.128848 -0.10174775
v 1.9693296 3.128848 0.1017499
v 1.9693346 1.1920929E-06 -0.10174775
v 2.210785 3.128848 -0.10174775
v 2.210785 1.1920929E-06 -0.10174775
v 2.210785 3.128848 0.1017499
v 2.210785 1.1920929E-06 0.1017499
v 2.210785 1.1920929E-06 0.1017499
v 1.9693296 1.1920929E-06 0.1017499
v 1.9693296 3.128848 0.1017499
v 2.210785 3.128848 0.1017499
vt 0.84336174 0.36561057
vt 0.74839175 0.35943258
vt 0.74839175 0.36561057
vt 0.84336174 0.35943258
vt 0.74839175 0.35254806
vt 0.84336174 0.35254806
vt 0.74839175 0.34637007
vt 0.84336174 0.34637007
vt 0.84336174 0.35943258
vt 0.84336174 0.35254806
vt 0.74839175 0.35254806
vt 0.74839175 0.35943258
vt 0.7628372 0.385272
vt 0.9122218 0.385272
vt 0.9122218 0.38229573
vt 0.7628372 0.38229573
vt 0.9122218 0.37509555
vt 0.7628372 0.37509555
vt 0.9122218 0.37211928
vt 0.7628372 0.37211928
vt 0.9122218 0.38229573
vt 0.9122218 0.37509555
vt 0.7628372 0.37509555
vt 0.7628372 0.38229573
vt 0.0103373695 0.4095932
vt 0.13403288 0.4095932
vt 0.13403288 0.4038812
vt 0.0103373695 0.4038812
vt 0.13403288 0.40064937
vt 0.0103373695 0.40064937
vt 0.13403288 0.39493734
vt 0.0103373695 0.39493734
vt 0.9122218 0.40215254
vt 0.7628372 0.40215254
vt 0.7628372 0.39917627
vt 0.9122218 0.39917627
vt 0.7628372 0.39197612
vt 0.9122218 0.39197612
vt 0.7628372 0.38899985
vt 0.9122218 0.38899985
vt 0.7628372 0.39917627
vt 0.7628372 0.39197612
vt 0.9122218 0.39197612
vt 0.9122218 0.39917627
vt 0.84336174 0.36561057
vt 0.74839175 0.35943258
vt 0.74839175 0.36561057
vt 0.84336174 0.35943258
vt 0.74839175 0.35254806
vt 0.84336174 0.35254806
vt 0.74839175 0.34637007
vt 0.84336174 0.34637007
vt 0.84336174 0.35943258
vt 0.84336174 0.35254806
vt 0.74839175 0.35254806
vt 0.74839175 0.35943258
vn -0.7071801 -0.0006546378 0.7070332
vn -0.7071801 -0.0006546378 -0.7070332
vn -0.7071801 -0.0006546378 0.7070332
vn -0.7071801 -0.0006546378 -0.7070332
vn 0.7071069 -0.0006546378 -0.70710635
vn 0.7071069 -0.0006546378 -0.70710635
vn 0.7071069 -0.0006546378 0.70710635
vn 0.7071069 -0.0006546378 0.70710635
vn 0.7071069 -0.0006546378 0.70710635
vn -0.7071801 -0.0006546378 0.7070332
vn -0.7071801 -0.0006546378 0.7070332
vn 0.7071069 -0.0006546378 0.70710635
vn -0.35602766 -0.5965077 0.7193211
vn -0.36708754 -0.61586255 0.6971084
vn -0.36708754 -0.61586255 -0.6971084
vn -0.35602766 -0.5965077 -0.7193211
vn 0.357337 0.59934586 -0.7163063
vn 0.3683969 0.6173182 -0.69512725
vn 0.357337 0.59934586 0.7163063
vn 0.3683969 0.6173182 0.69512725
vn 0.357337 0.59934586 0.7163063
vn -0.36708754 -0.61586255 0.6971084
vn -0.35602766 -0.5965077 0.7193211
vn 0.3683969 0.6173182 0.69512725
vn 0.0006546378 -0.0006546378 0.9999996
vn 0.0006546378 -0.0006546378 0.9999996
vn 0.0006546378 0.7071801 0.7070332
vn 0.0006546378 0.7071801 0.7070332
vn 0.0006546378 0.7071801 -0.7070332
vn 0.0006546378 0.7071801 -0.7070332
vn 0.0006546378 -0.0006546378 -0.9999996
vn 0.0006546378 -0.0006546378 -0.9999996
vn 0.37530938 -0.5840653 0.71972954
vn 0.38775176 -0.60342014 0.6968018
vn 0.38775176 -0.60342014 -0.6968018
vn 0.37530938 -0.5840653 -0.71972954
vn -0.37676507 0.5869035 -0.7166536
vn -0.38920742 0.60487586 -0.694725
vn -0.37676507 0.5869035 0.7166536
vn -0.38920742 0.60487586 0.694725
vn -0.37676507 0.5869035 0.7166536
vn 0.38775176 -0.60342014 0.6968018
vn 0.37530938 -0.5840653 0.71972954
vn -0.38920742 0.60487586 0.694725
vn -0.7071801 -0.0006546378 0.7070332
vn -0.7071801 -0.0006546378 -0.7070332
vn -0.7071801 -0.0006546378 0.7070332
vn -0.7071801 -0.0006546378 -0.7070332
vn 0.7071069 -0.0006546378 -0.70710635
vn 0.7071069 -0.0006546378 -0.70710635
vn 0.7071069 -0.0006546378 0.70710635
vn 0.7071069 -0.0006546378 0.70710635
vn 0.7071069 -0.0006546378 0.70710635
vn -0.7071801 -0.0006546378 0.7070332
vn -0.7071801 -0.0006546378 0.7070332
vn 0.7071069 -0.0006546378 0.70710635
g febg_factory_001_support_02_0
f 3/3/3 2/2/2 1/1/1
f 2/2/2 4/4/4 1/1/1
f 4/4/4 2/2/2 5/5/5
f 6/6/6 4/4/4 5/5/5
f 5/5/5 7/7/7 6/6/6
f 7/7/7 8/8/8 6/6/6
f 11/11/11 10/10/10 9/9/9
f 12/12/12 11/11/11 9/9/9
f 15/15/15 14/14/14 13/13/13
f 16/16/16 15/15/15 13/13/13
f 15/15/15 16/16/16 17/17/17
f 16/16/16 18/18/18 17/17/17
f 19/19/19 17/17/17 18/18/18
f 20/20/20 19/19/19 18/18/18
f 23/23/23 22/22/22 21/21/21
f 24/24/24 23/23/23 21/21/21
f 27/27/27 26/26/26 25/25/25
f 28/28/28 27/27/27 25/25/25
f 29/29/29 27/27/27 28/28/28
f 30/30/30 29/29/29 28/28/28
f 29/29/29 30/30/30 31/31/31
f 30/30/30 32/32/32 31/31/31
f 35/35/35 34/34/34 33/33/33
f 36/36/36 35/35/35 33/33/33
f 35/35/35 36/36/36 37/37/37
f 36/36/36 38/38/38 37/37/37
f 39/39/39 37/37/37 38/38/38
f 40/40/40 39/39/39 38/38/38
f 43/43/43 42/42/42 41/41/41
f 44/44/44 43/43/43 41/41/41
f 47/47/47 46/46/46 45/45/45
f 46/46/46 48/48/48 45/45/45
f 48/48/48 46/46/46 49/49/49
f 50/50/50 48/48/48 49/49/49
f 49/49/49 51/51/51 50/50/50
f 51/51/51 52/52/52 50/50/50
f 55/55/55 54/54/54 53/53/53
f 56/56/56 55/55/55 53/53/53
