g febg_coinrush_001_caseglass_01
v -1.843063 1.1808914 0.73229253
v -1.843063 2.0327945 0.73229253
v 1.8430623 2.0327945 0.73229253
v 1.8430623 1.1808914 0.73229253
v 1.8430623 1.1808914 0.73229253
v 1.8430623 2.0327945 0.73229253
v 1.8430623 2.0327945 -0.73228836
v 1.8430623 1.1808914 -0.73228836
v 1.8430623 1.1808914 -0.73228836
v 1.8430623 2.0327945 -0.73228836
v -1.843063 2.0327945 -0.73228836
v -1.843063 1.1808914 -0.73228836
v -1.843063 1.1808914 -0.73228836
v -1.843063 2.0327945 -0.73228836
v -1.843063 2.0327945 0.73229253
v -1.843063 1.1808914 0.73229253
v 1.8430623 2.0327945 -0.73228836
v 1.8430623 2.0327945 0.73229253
v -1.843063 2.0327945 0.73229253
v -1.843063 2.0327945 -0.73228836
vt 0.30139184 0.026575148
vt 0.25580087 0.026575148
vt 0.25580087 0.22384275
vt 0.30139184 0.22384275
vt 0.30139184 0.086021155
vt 0.25580087 0.086021155
vt 0.25580087 0.16440119
vt 0.30139184 0.16440119
vt 0.30139184 0.026575148
vt 0.25580087 0.026575148
vt 0.25580087 0.22384275
vt 0.30139184 0.22384275
vt 0.30139184 0.086021155
vt 0.25580087 0.086021155
vt 0.25580087 0.16440119
vt 0.30139184 0.16440119
vt 0.23940413 0.22384275
vt 0.31778416 0.22384275
vt 0.31778416 0.026575148
vt 0.23940413 0.026575148
vn -0.7071069 -0.00069117546 0.7071063
vn -0.5771596 0.5771596 0.57773143
vn 0.5771596 0.5771596 0.57773143
vn 0.7071069 -0.00069117546 0.7071063
vn 0.7071069 -0.00069117546 0.7071063
vn 0.5771596 0.5771596 0.57773143
vn 0.5771596 0.5771596 -0.57773143
vn 0.7071069 -0.00069117546 -0.7071063
vn 0.7071069 -0.00069117546 -0.7071063
vn 0.5771596 0.5771596 -0.57773143
vn -0.5771596 0.5771596 -0.57773143
vn -0.7071069 -0.00069117546 -0.7071063
vn -0.7071069 -0.00069117546 -0.7071063
vn -0.5771596 0.5771596 -0.57773143
vn -0.5771596 0.5771596 0.57773143
vn -0.7071069 -0.00069117546 0.7071063
vn 0.5771596 0.5771596 -0.57773143
vn 0.5771596 0.5771596 0.57773143
vn -0.5771596 0.5771596 0.57773143
vn -0.5771596 0.5771596 -0.57773143
g febg_coinrush_001_caseglass_01_0
f 3/3/3 2/2/2 1/1/1
f 4/4/4 3/3/3 1/1/1
f 7/7/7 6/6/6 5/5/5
f 8/8/8 7/7/7 5/5/5
f 11/11/11 10/10/10 9/9/9
f 12/12/12 11/11/11 9/9/9
f 15/15/15 14/14/14 13/13/13
f 16/16/16 15/15/15 13/13/13
f 19/19/19 18/18/18 17/17/17
f 20/20/20 19/19/19 17/17/17
