g febg_factory_001_electronicbox_05
v -0.66583097 0.0004338026 -0.7058692
v 0.6658234 0.0003966689 -0.7058692
v 0.6658234 2.0777574 -0.7058692
v -0.66583097 2.0777574 -0.7058692
v -0.66583097 0.0004338026 0.7058687
v -0.66583097 2.0777574 0.7058687
v -0.66583097 2.0777574 0.7058687
v 0.6658234 2.0777574 0.7058687
v 0.6658234 0.0003966689 -0.7058692
v 0.6658234 0.0004338026 0.7058687
v 0.6658234 2.0777574 0.7058687
v 0.6658234 2.0777574 -0.7058692
vt 0.48464307 0.035652973
vt 0.48464307 0.0023424588
vt 0.4328586 0.0023424588
vt 0.4328586 0.035652973
vt 0.48464307 0.07092559
vt 0.4328586 0.07092559
vt 0.3975407 0.035652973
vt 0.3975407 0.0023424588
vt 0.48464307 0.035652973
vt 0.48464307 0.07092559
vt 0.4328586 0.07092559
vt 0.4328586 0.035652973
vn -0.70674455 0.0009775162 -0.70746815
vn 0.70674455 0.0009775162 -0.70746815
vn 0.5777123 0.5777123 -0.5766255
vn -0.5777123 0.5777123 -0.5766255
vn -0.9999995 0.0009775162 -0
vn -0.70674455 0.70674455 -0.03200431
vn -0.70674455 0.70674455 -0.03200431
vn 0.70674455 0.70674455 -0.03200431
vn 0.70674455 0.0009775162 -0.70746815
vn 0.9999995 0.0009775162 -0
vn 0.70674455 0.70674455 -0.03200431
vn 0.5777123 0.5777123 -0.5766255
g febg_factory_001_electronicbox_05_0
f 3/3/3 2/2/2 1/1/1
f 4/4/4 3/3/3 1/1/1
f 1/1/1 5/5/5 4/4/4
f 5/5/5 6/6/6 4/4/4
f 4/4/4 7/7/7 3/3/3
f 7/7/7 8/8/8 3/3/3
f 11/11/11 10/10/10 9/9/9
f 12/12/12 11/11/11 9/9/9
