g febg_factory_001_floor_02
v -29.85908 6.200012 10.09173
v -32.72902 6.199955 12.957827
v -36.073685 6.199955 9.650557
v -33.201103 6.199955 6.7714977
v -26.986273 6.200012 7.2216797
v -29.85908 6.200012 10.09173
v -33.201103 6.199955 6.7714977
v -30.32836 6.199955 3.9014454
v -24.109163 6.2000694 4.361664
v -26.986273 6.200012 7.2216797
v -30.32836 6.199955 3.9014454
v -27.44861 6.200012 1.0285244
v -27.290827 3.8073826 -20.506508
v -21.930815 3.8073826 -20.50754
v -21.930758 3.8074398 -15.8182955
v -27.290655 3.8074398 -15.818124
v -21.930815 3.8073826 -20.50754
v -16.570917 3.8073826 -20.508514
v -16.570745 3.8074398 -15.81841
v -21.930758 3.8074398 -15.8182955
v 23.02377 8.69829 22.633589
v 18.997894 8.698229 22.633589
v 18.994625 8.698519 19.122477
v 23.025604 8.698404 19.124083
v 23.02744 8.698519 15.614576
v 23.025604 8.698404 19.124083
v 18.994625 8.698519 19.122477
v 18.991299 8.698748 15.611364
v 18.036793 11.528994 30.046629
v 18.037424 11.107492 27.576742
v 21.049833 11.11363 27.5768
v 21.050865 11.586523 30.046515
v 21.05184 12.059416 32.516174
v 21.050865 11.586523 30.046515
v 24.06488 11.644049 30.0464
v 24.067518 12.168333 32.515884
v 18.03622 11.950499 32.516457
v 18.036793 11.528994 30.046629
v 21.050865 11.586523 30.046515
v 21.05184 12.059416 32.516174
v 24.062243 11.119764 27.576914
v 24.06488 11.644049 30.0464
v 21.050865 11.586523 30.046515
v 21.049833 11.11363 27.5768
vt 0.77616644 0.8025392
vt 0.77616644 0.9900804
vt 0.9934462 0.9900804
vt 0.9934462 0.8025392
vt 0.77616644 0.8025392
vt 0.77616644 0.9900804
vt 0.9934462 0.9900804
vt 0.9934462 0.8025392
vt 0.77616644 0.8025392
vt 0.77616644 0.9900804
vt 0.9934462 0.9900804
vt 0.9934462 0.8025392
vt 0.77616644 0.9900804
vt 0.9934462 0.9900804
vt 0.9934462 0.8025392
vt 0.77616644 0.8025392
vt 0.77616644 0.9900804
vt 0.9934462 0.9900804
vt 0.9934462 0.8025392
vt 0.77616644 0.8025392
vt 0.9924888 0.80316746
vt 0.77669 0.80316746
vt 0.77669 0.99082834
vt 0.9924888 0.99082834
vt 0.9924888 0.99082834
vt 0.9924888 0.80316746
vt 0.77669 0.80316746
vt 0.77669 0.99082834
vt 0.7749847 0.8060247
vt 0.7749847 0.9879263
vt 0.99305725 0.9879263
vt 0.99305725 0.8060247
vt 0.7749847 0.8060247
vt 0.7749847 0.9879263
vt 0.99305725 0.9879263
vt 0.99305725 0.8060247
vt 0.7749847 0.8060247
vt 0.7749847 0.9879263
vt 0.99305725 0.9879263
vt 0.99305725 0.8060247
vt 0.99305725 0.9879263
vt 0.99305725 0.8060247
vt 0.7749847 0.8060247
vt 0.7749847 0.9879263
vn 5.0981038E-05 1 -0
vn 5.0981038E-05 1 -0
vn 5.0981038E-05 1 -0
vn 5.0981038E-05 1 -0
vn 5.0981038E-05 1 -0
vn 5.0981038E-05 1 -0
vn 5.0981038E-05 1 -0
vn 5.0981038E-05 1 -0
vn 5.0981038E-05 1 -0
vn 5.0981038E-05 1 -0
vn 5.0981038E-05 1 -0
vn 5.0981038E-05 1 -0
vn 5.0981038E-05 1 -0
vn 5.0981038E-05 1 -0
vn 5.0981038E-05 1 -0
vn 5.0981038E-05 1 -0
vn 5.0981038E-05 1 -0
vn 5.0981038E-05 1 -0
vn 5.0981038E-05 1 -0
vn 5.0981038E-05 1 -0
vn 5.0981038E-05 1 -0
vn 5.0981038E-05 1 -0
vn 5.0981038E-05 1 -0
vn 5.0981038E-05 1 -0
vn 5.0981038E-05 1 -0
vn 5.0981038E-05 1 -0
vn 5.0981038E-05 1 -0
vn 5.0981038E-05 1 -0
vn -0.018522792 0.9833814 -0.18060434
vn -0.010702256 0.98435897 -0.17584905
vn -0.010702256 0.9824039 -0.18646191
vn -0.018522792 0.9824039 -0.18584812
vn -0.027320895 0.9814263 -0.18988413
vn -0.018522792 0.9824039 -0.18584812
vn -0.018522792 0.9804487 -0.19590107
vn -0.027320895 0.97947115 -0.1997245
vn -0.027320895 0.9833814 -0.17948422
vn -0.018522792 0.9833814 -0.18060434
vn -0.018522792 0.9824039 -0.18584812
vn -0.027320895 0.9814263 -0.18988413
vn -0.010702256 0.9804487 -0.19648346
vn -0.018522792 0.9804487 -0.19590107
vn -0.018522792 0.9824039 -0.18584812
vn -0.010702256 0.9824039 -0.18646191
g febg_factory_001_floor_02_0
f 3/3/3 2/2/2 1/1/1
f 4/4/4 3/3/3 1/1/1
f 7/7/7 6/6/6 5/5/5
f 8/8/8 7/7/7 5/5/5
f 11/11/11 10/10/10 9/9/9
f 12/12/12 11/11/11 9/9/9
f 15/15/15 14/14/14 13/13/13
f 16/16/16 15/15/15 13/13/13
f 19/19/19 18/18/18 17/17/17
f 20/20/20 19/19/19 17/17/17
f 23/23/23 22/22/22 21/21/21
f 24/24/24 23/23/23 21/21/21
f 27/27/27 26/26/26 25/25/25
f 28/28/28 27/27/27 25/25/25
f 31/31/31 30/30/30 29/29/29
f 32/32/32 31/31/31 29/29/29
f 35/35/35 34/34/34 33/33/33
f 36/36/36 35/35/35 33/33/33
f 39/39/39 38/38/38 37/37/37
f 40/40/40 39/39/39 37/37/37
f 43/43/43 42/42/42 41/41/41
f 44/44/44 43/43/43 41/41/41
