g febg_lostcity_001_debris_07
v -0.83660555 0.18196249 0.24079037
v -1.5479889 0.18536472 0.2860098
v -1.5479889 0.42227483 0.2860098
v -0.8366096 0.42567682 0.24079037
v -1.5698223 0.42227483 -0.14744377
v -0.59641623 0.42567682 0.61230683
v -0.59641623 0.18196249 0.6123109
v -0.8588631 0.42567682 -0.20105386
v -1.5698223 0.18536472 -0.14744806
v -0.8588631 0.18196678 -0.20105386
v -0.65721655 0.18196249 -0.594828
v -0.65721655 0.42567682 -0.5948323
v -0.2856958 0.18196249 -0.83502567
v -0.20263791 0.42567682 0.81395745
v -0.20263791 0.18196249 0.81395745
v -0.2856958 0.42567682 -0.83502567
v 0.15614843 0.18196249 -0.85727906
v 0.2392062 0.42567682 0.7917042
v 0.23920202 0.18196249 0.7917042
v 0.15614843 0.42567682 -0.85727906
v 0.54992247 0.18196249 -0.6556325
v 0.54992247 0.42567682 -0.6556325
v 0.79011583 0.18196249 -0.28411174
v 0.61072266 0.42567682 0.5515065
v 0.61072695 0.18196249 0.5515065
v 0.8123735 0.42567682 0.15773249
v 0.8123735 0.18196249 0.15773249
v 0.7901201 0.42567682 -0.28411174
v 0.44666004 0.43970084 1.4442854
v 0.44666004 0.08982682 1.4442854
v 1.0979772 0.08982682 1.0231972
v 0.3810494 0.14694929 1.3777246
v 1.0979772 0.43970084 1.0231972
v 1.4514865 0.08982682 0.33286238
v 1.4514906 0.43969655 0.33286238
v 1.412473 0.08982682 -0.44173932
v 1.412473 0.43969655 -0.44173932
v 0.99138486 0.08982682 -1.0930566
v 0.99138486 0.43969655 -1.0930566
v 0.30104995 0.08982682 -1.44657
v 0.30104995 0.43969655 -1.44657
v -0.47354746 0.08982682 -1.4075524
v -0.47354746 0.43970084 -1.4075524
v -1.1248646 0.08982682 -0.98646414
v -1.1248646 0.43970084 -0.98646414
v -1.4783823 0.08982682 -0.29613352
v -1.478378 0.43970084 -0.29613352
v -1.4393647 0.08982682 0.47846818
v -1.4393647 0.43970084 0.47847247
v -2.164772 0.49618697 0.6985121
v -1.2960284 0.18503809 0.45593905
v -1.3155034 0.47133732 0.4706459
v -1.067492 0.19239783 0.8168547
v 1.5255047 0.49618697 -1.687319
v 0.47746527 0.49618697 -2.2240095
v -0.698508 0.49618697 -2.164779
v -1.6873167 0.49618697 -1.5255005
v -2.2240028 0.49618697 -0.47746098
v 2.1647873 0.49618697 -0.6985146
v 2.224018 0.49618697 0.47745848
v 1.6873276 0.49618697 1.5254979
v 0.6985189 0.49618697 2.1647806
v -0.698508 0.0029172897 -2.164779
v 0.47746527 0.0029172897 -2.2240095
v -1.6873124 0.0029172897 -1.5254962
v -2.2240028 0.0029172897 -0.47746098
v 1.5255047 0.0029172897 -1.6873233
v 2.1647873 0.0029172897 -0.6985146
v 2.224018 0.0029172897 0.47745848
v 1.6873319 0.0029172897 1.5254979
v 0.6985189 0.0029172897 2.1647806
v -2.164772 0.0029172897 0.6985121
v -1.5254896 0.0029172897 1.687321
v -0.47745442 0.49618697 2.2240114
v -0.47745442 0.0029172897 2.2240114
v -1.5254939 0.49618697 1.687321
v -2.0754786 0.5733824 0.7264879
v -1.4332604 0.5209601 0.5165696
v -1.0901737 0.47745442 0.81341887
v -1.1875229 0.52110434 0.8960185
v -1.1075997 0.44809127 0.8912802
v -1.0994382 0.1428175 0.9004557
v -0.9917259 0.44592786 1.0668387
v -0.9917259 0.1428175 1.0668387
v -0.30139542 0.1428175 1.4203479
v -1.4846606 0.57307696 1.6403918
v -0.46362972 0.57307696 2.1632538
v -0.30139542 0.44592786 1.4203522
v -1.0369244 0.5212486 1.1289284
v -0.32099342 0.5212486 1.495554
v 0.623245 0.5733824 2.108477
v 0.39999402 0.5209601 1.4606721
v 0.3808967 0.44359064 1.374649
vt 0.14190114 0.22906497
vt 0.12987381 0.2297357
vt 0.13065124 0.23302835
vt 0.14379136 0.23273872
vt 0.13069697 0.2422051
vt 0.14953826 0.22597049
vt 0.14723645 0.22238821
vt 0.14374563 0.24254046
vt 0.12982808 0.24528433
vt 0.14188589 0.24635139
vt 0.14732791 0.25235745
vt 0.14959924 0.24909528
vt 0.15526992 0.25677812
vt 0.15613881 0.22286075
vt 0.15516321 0.21859251
vt 0.15619978 0.25249463
vt 0.1648125 0.2567324
vt 0.16347106 0.22293697
vt 0.16472104 0.21876019
vt 0.16353203 0.2525556
vt 0.17313561 0.2513056
vt 0.16996491 0.24847028
vt 0.17758678 0.24263191
vt 0.16994967 0.22682413
vt 0.17307463 0.22395831
vt 0.1735472 0.23391248
vt 0.17757154 0.23292165
vt 0.1735472 0.24165632
vt 0.21122977 0.3623107
vt 0.2157724 0.36485642
vt 0.22299795 0.35782903
vt 0.21470535 0.3658015
vt 0.2205742 0.35343882
vt 0.23305884 0.35546625
vt 0.23319604 0.35042056
vt 0.24308923 0.35842353
vt 0.24569592 0.3541248
vt 0.25033003 0.3659692
vt 0.25473547 0.36354545
vt 0.2528605 0.3761063
vt 0.25787568 0.376213
vt 0.24996416 0.3861367
vt 0.25426292 0.38872814
vt 0.24247949 0.39336225
vt 0.24490324 0.39775243
vt 0.23249482 0.395847
vt 0.23231189 0.4008622
vt 0.22313514 0.39276773
vt 0.21993396 0.3971427
vt 0.21324195 0.40781334
vt 0.22126016 0.39235616
vt 0.21877544 0.39545065
vt 0.21732727 0.388469
vt 0.2664122 0.35717356
vt 0.27113774 0.37633497
vt 0.26565 0.39528295
vt 0.25139707 0.40894136
vt 0.23218994 0.41362122
vt 0.25275376 0.3429359
vt 0.23382102 0.33735666
vt 0.21462913 0.34199077
vt 0.20049816 0.35574064
vt 0.27318043 0.3998561
vt 0.27994865 0.3765179
vt 0.25560436 0.4166547
vt 0.23194604 0.42241687
vt 0.27414078 0.3529358
vt 0.2573269 0.33540547
vt 0.23401919 0.328561
vt 0.21037611 0.33426216
vt 0.19273908 0.35104555
vt 0.2085621 0.4155724
vt 0.19171776 0.3980116
vt 0.1950409 0.37465814
vt 0.1861233 0.374399
vt 0.19944634 0.3937281
vt 0.2129828 0.40551153
vt 0.21833336 0.39685306
vt 0.21432425 0.390908
vt 0.21321146 0.3913958
vt 0.21357732 0.3901458
vt 0.21688521 0.3872495
vt 0.21162611 0.3873562
vt 0.21543704 0.3851306
vt 0.21324195 0.3749935
vt 0.20109266 0.392722
vt 0.19711405 0.3747801
vt 0.20880601 0.37500876
vt 0.21045233 0.38792023
vt 0.20760176 0.37500876
vt 0.20147376 0.35798147
vt 0.21022367 0.36343873
vt 0.21110782 0.36406374
vn -0.4510038 -0.0004696846 0.8925219
vn 0.06413901 -0.0004696846 0.99794084
vn 0.040986538 0.7037517 0.7092628
vn -0.24456072 0.8407372 0.48306417
vn -0.05548215 0.7114692 -0.7005236
vn -0.5069556 0.65358794 0.56197757
vn -0.6709523 -0.0004696846 0.7415003
vn -0.30630076 0.83494914 -0.45720872
vn -0.074775815 -0.0004696846 -0.99720025
vn -0.55326056 -0.0004696846 -0.8330081
vn -0.74233913 -0.0004696846 -0.67002416
vn -0.56097806 0.65358794 -0.50806147
vn -0.30630076 -0.0004696846 -0.95193464
vn -0.15966833 0.65358794 0.7398167
vn -0.20983207 -0.0004696846 0.9777373
vn -0.23298454 0.65358794 -0.72009796
vn 0.21077144 -0.0004696846 -0.97753525
vn 0.23199457 0.65358794 0.72041744
vn 0.30724013 -0.0004696846 0.9516319
vn 0.15867835 0.65358794 -0.74002975
vn 0.6699624 -0.0004696846 -0.74239486
vn 0.507895 0.65358794 -0.56112874
vn 0.9516509 -0.0004696846 -0.30718124
vn 0.5619174 0.65358794 0.5070223
vn 0.7413492 -0.0004696846 0.6711193
vn 0.7394198 0.65358794 0.16149658
vn 0.97866213 -0.0004696846 0.20547552
vn 0.7201261 0.65358794 -0.23289749
vn 0.41528505 0.5899186 -0.6924842
vn -0.05741155 -0.002399087 -0.9983477
vn -0.74233913 -0.0004696846 -0.67002416
vn 0.42300254 -0.0043284297 -0.9061182
vn -0.49730873 0.74233913 -0.44901735
vn -0.97772276 -0.0004696846 -0.20989993
vn -0.65551734 0.74233913 -0.1386708
vn -0.9526409 -0.0004696846 0.30409724
vn -0.63815296 0.74233913 0.2041896
vn -0.6709523 -0.0004696846 0.7415003
vn -0.4490744 0.74233913 0.4972573
vn -0.20983207 -0.0004696846 0.9777373
vn -0.14037454 0.74233913 0.65515465
vn 0.30724013 -0.0004696846 0.9516319
vn 0.2049833 0.74233913 0.63789845
vn 0.7413492 -0.0004696846 0.6711193
vn 0.4982481 0.74233913 0.44797477
vn 0.97866213 -0.0004696846 0.20547552
vn 0.6564567 0.74233913 0.13415366
vn 0.8069479 0.011106491 -0.59051824
vn 0.17604274 0.5802717 -0.795169
vn -0.83109033 0.54168427 0.12596437
vn 0.3381101 0.04969406 -0.93979365
vn 0.37669754 0.5050262 -0.7765613
vn 0.9960265 0.06898773 -0.056319326
vn 0.49438936 0.6748111 -0.54791343
vn 0.15481961 0.6748111 -0.7215683
vn -0.22719634 0.6767404 -0.7002887
vn -0.54747236 0.6767404 -0.4922361
vn -0.71918666 0.6767404 -0.15745783
vn 0.70083237 0.6767404 -0.22551367
vn 0.7201261 0.6767404 0.153104
vn 0.54648244 0.6767404 0.49333492
vn 0.37862694 0.54940176 0.74484855
vn -0.30630076 -0.0004696846 -0.95193464
vn 0.21077144 -0.0004696846 -0.97753525
vn -0.74233913 -0.0004696846 -0.67002416
vn -0.97772276 -0.0004696846 -0.20989993
vn 0.6699624 -0.0004696846 -0.74239486
vn 0.9516509 -0.0004696846 -0.30718124
vn 0.97866213 -0.0004696846 0.20547552
vn 0.7413492 -0.0004696846 0.6711193
vn 0.30724013 -0.0004696846 0.9516319
vn -0.9526409 -0.0004696846 0.30409724
vn -0.6709523 -0.0004696846 0.7415003
vn -0.20018518 0.31787694 0.9267579
vn -0.20983207 -0.0004696846 0.9777373
vn -0.63622355 0.31787694 0.70297503
vn -0.4374981 0.8716072 -0.22112511
vn -0.011106491 0.8445959 -0.53528905
vn 0.828171 0.55133116 -0.10083008
vn 0.2937345 0.9507115 -0.09933644
vn 0.9034166 0.42592192 -0.049284972
vn 0.97287405 0.026541471 -0.22980784
vn 0.6159399 0.40855753 -0.67357165
vn 0.668033 0.0014596581 -0.7441302
vn 0.20305395 -0.002399087 -0.9791646
vn -0.30823004 0.88897157 0.33870903
vn -0.095999 0.88897157 0.44778758
vn 0.18376023 0.4239925 -0.88682723
vn 0.2416414 0.9314178 -0.27215853
vn 0.0757153 0.9352765 -0.3457239
vn 0.42107314 0.8812541 0.21468264
vn 0.35933322 0.82723165 -0.4319345
vn 0.31109887 0.3391 -0.88782245
g febg_lostcity_001_debris_07_0
f 3/3/3 2/2/2 1/1/1
f 4/4/4 3/3/3 1/1/1
f 5/5/5 3/3/3 4/4/4
f 6/6/6 4/4/4 1/1/1
f 7/7/7 6/6/6 1/1/1
f 8/8/8 5/5/5 4/4/4
f 4/4/4 6/6/6 8/8/8
f 9/9/9 5/5/5 8/8/8
f 10/10/10 9/9/9 8/8/8
f 10/10/10 8/8/8 11/11/11
f 8/8/8 12/12/12 11/11/11
f 6/6/6 12/12/12 8/8/8
f 11/11/11 12/12/12 13/13/13
f 14/14/14 6/6/6 7/7/7
f 6/6/6 14/14/14 12/12/12
f 15/15/15 14/14/14 7/7/7
f 12/12/12 16/16/16 13/13/13
f 14/14/14 16/16/16 12/12/12
f 13/13/13 16/16/16 17/17/17
f 18/18/18 14/14/14 15/15/15
f 14/14/14 18/18/18 16/16/16
f 19/19/19 18/18/18 15/15/15
f 16/16/16 20/20/20 17/17/17
f 18/18/18 20/20/20 16/16/16
f 17/17/17 20/20/20 21/21/21
f 20/20/20 22/22/22 21/21/21
f 20/20/20 18/18/18 22/22/22
f 21/21/21 22/22/22 23/23/23
f 24/24/24 18/18/18 19/19/19
f 18/18/18 24/24/24 22/22/22
f 25/25/25 24/24/24 19/19/19
f 26/26/26 24/24/24 25/25/25
f 22/22/22 24/24/24 26/26/26
f 27/27/27 26/26/26 25/25/25
f 23/23/23 28/28/28 27/27/27
f 22/22/22 28/28/28 23/23/23
f 28/28/28 26/26/26 27/27/27
f 28/28/28 22/22/22 26/26/26
f 31/31/31 30/30/30 29/29/29
f 30/30/30 32/32/32 29/29/29
f 33/33/33 31/31/31 29/29/29
f 34/34/34 31/31/31 33/33/33
f 35/35/35 34/34/34 33/33/33
f 36/36/36 34/34/34 35/35/35
f 37/37/37 36/36/36 35/35/35
f 38/38/38 36/36/36 37/37/37
f 39/39/39 38/38/38 37/37/37
f 40/40/40 38/38/38 39/39/39
f 41/41/41 40/40/40 39/39/39
f 42/42/42 40/40/40 41/41/41
f 43/43/43 42/42/42 41/41/41
f 44/44/44 42/42/42 43/43/43
f 45/45/45 44/44/44 43/43/43
f 46/46/46 44/44/44 45/45/45
f 47/47/47 46/46/46 45/45/45
f 48/48/48 46/46/46 47/47/47
f 49/49/49 48/48/48 47/47/47
f 50/50/50 49/49/49 47/47/47
f 51/51/51 48/48/48 49/49/49
f 52/52/52 51/51/51 49/49/49
f 53/53/53 51/51/51 52/52/52
f 41/41/41 39/39/39 54/54/54
f 43/43/43 41/41/41 55/55/55
f 55/55/55 41/41/41 54/54/54
f 45/45/45 43/43/43 56/56/56
f 56/56/56 43/43/43 55/55/55
f 47/47/47 45/45/45 57/57/57
f 57/57/57 45/45/45 56/56/56
f 58/58/58 50/50/50 47/47/47
f 58/58/58 47/47/47 57/57/57
f 54/54/54 39/39/39 59/59/59
f 39/39/39 37/37/37 59/59/59
f 59/59/59 37/37/37 60/60/60
f 37/37/37 35/35/35 60/60/60
f 60/60/60 35/35/35 61/61/61
f 35/35/35 33/33/33 61/61/61
f 61/61/61 33/33/33 62/62/62
f 33/33/33 29/29/29 62/62/62
f 57/57/57 56/56/56 63/63/63
f 63/63/63 56/56/56 64/64/64
f 65/65/65 57/57/57 63/63/63
f 58/58/58 57/57/57 65/65/65
f 56/56/56 55/55/55 64/64/64
f 66/66/66 58/58/58 65/65/65
f 64/64/64 55/55/55 67/67/67
f 55/55/55 54/54/54 67/67/67
f 67/67/67 54/54/54 68/68/68
f 54/54/54 59/59/59 68/68/68
f 68/68/68 59/59/59 69/69/69
f 59/59/59 60/60/60 69/69/69
f 69/69/69 60/60/60 70/70/70
f 60/60/60 61/61/61 70/70/70
f 50/50/50 58/58/58 66/66/66
f 70/70/70 61/61/61 71/71/71
f 72/72/72 50/50/50 66/66/66
f 61/61/61 62/62/62 71/71/71
f 50/50/50 72/72/72 73/73/73
f 62/62/62 74/74/74 71/71/71
f 74/74/74 75/75/75 71/71/71
f 75/75/75 74/74/74 73/73/73
f 76/76/76 50/50/50 73/73/73
f 74/74/74 76/76/76 73/73/73
f 77/77/77 50/50/50 76/76/76
f 50/50/50 77/77/77 49/49/49
f 77/77/77 78/78/78 49/49/49
f 78/78/78 52/52/52 49/49/49
f 79/79/79 52/52/52 78/78/78
f 79/79/79 53/53/53 52/52/52
f 80/80/80 78/78/78 77/77/77
f 80/80/80 79/79/79 78/78/78
f 53/53/53 79/79/79 81/81/81
f 81/81/81 79/79/79 80/80/80
f 82/82/82 53/53/53 81/81/81
f 82/82/82 81/81/81 83/83/83
f 81/81/81 80/80/80 83/83/83
f 84/84/84 82/82/82 83/83/83
f 85/85/85 84/84/84 83/83/83
f 86/86/86 77/77/77 76/76/76
f 86/86/86 80/80/80 77/77/77
f 74/74/74 87/87/87 76/76/76
f 87/87/87 86/86/86 76/76/76
f 88/88/88 85/85/85 83/83/83
f 85/85/85 88/88/88 32/32/32
f 80/80/80 89/89/89 83/83/83
f 89/89/89 80/80/80 86/86/86
f 83/83/83 89/89/89 88/88/88
f 90/90/90 89/89/89 86/86/86
f 87/87/87 90/90/90 86/86/86
f 89/89/89 90/90/90 88/88/88
f 91/91/91 87/87/87 74/74/74
f 90/90/90 87/87/87 91/91/91
f 62/62/62 91/91/91 74/74/74
f 92/92/92 90/90/90 91/91/91
f 92/92/92 91/91/91 62/62/62
f 90/90/90 92/92/92 88/88/88
f 29/29/29 92/92/92 62/62/62
f 88/88/88 93/93/93 32/32/32
f 92/92/92 93/93/93 88/88/88
f 32/32/32 93/93/93 29/29/29
f 29/29/29 93/93/93 92/92/92
