g febg_shop_001_kitchendesk_01
v -0.20134401 1.3561387 0.7564726
v 2.4287696 0.6866293 0.7564726
v 2.4287696 1.3561387 0.7564726
v -0.20134401 0.6866293 0.7564726
v 2.4287696 0.6866293 -0.7526269
v -0.20134401 0.6866293 -0.7526269
v -0.20134401 1.3561387 -0.7526269
v -0.20134401 1.3561387 0.7564726
v 2.4287696 1.3561387 0.7564726
v 2.4287696 0.6866293 0.7564726
v 2.4287696 0.6866293 -0.7526269
v 2.4287696 1.3561387 -0.7526269
v 2.4287696 1.3561387 -0.7526269
v -0.20134401 0.6866293 -0.7526269
v -0.20134401 1.3561387 -0.7526269
v -3.7429013 1.3561387 1.0182462
v -7.0759273 1.3561387 1.0182462
v -7.0759273 1.3561387 -1.0182471
v -3.7429013 1.3561387 -1.0182471
v -0.40987492 1.3561387 1.0182462
v -3.7429013 1.1803632 -1.0182471
v -7.0759273 1.1803632 -1.0182471
v -0.40987492 1.3561387 -1.0182471
v -0.40987492 1.1803632 -1.0182471
v 2.6978045 1.1803498 -1.0182471
v 2.6978045 1.3561387 -1.0182471
v 7.075928 1.1803498 -1.0182471
v 7.075928 1.3561387 -1.0182471
v -0.20134401 1.3561387 -0.7526269
v -0.20134401 1.3561387 0.7564726
v 2.4287696 1.3561387 0.7564726
v 2.6978045 1.3561387 1.0182462
v 2.4287696 1.3561387 -0.7526269
v 7.075928 1.3561387 1.0182595
v 7.075928 1.1803498 1.0182595
v 7.075928 1.1803498 -1.0182471
v -7.0451827 1.165194 -0.9039607
v -7.0451827 6.198883E-06 -0.9039607
v -3.5351796 6.198883E-06 -0.9039607
v -3.5351796 1.165194 -0.9039607
v -7.0451827 6.198883E-06 0.9122467
v -7.0451827 6.198883E-06 -0.9039607
v -7.0451827 1.165194 -0.9039607
v -7.0451827 1.165194 0.9122467
v 6.994816 6.198883E-06 -0.9039607
v 6.994816 6.198883E-06 0.9122467
v 6.994816 1.165194 0.9122467
v 6.994816 1.165194 -0.9039607
v 3.4848125 6.198883E-06 -0.9039607
v 3.4848125 1.165194 -0.9039607
v -7.0759273 1.3561387 1.0182462
v -7.0759273 1.1803498 1.0182462
v -7.0759273 1.1803632 -1.0182471
v -7.0759273 1.3561387 -1.0182471
v 3.4848125 1.165194 -0.9039607
v -0.025190353 1.165194 -0.9039607
v -0.025190353 6.198883E-06 -0.9039607
v 3.4848125 6.198883E-06 -0.9039607
v -0.025190353 1.165194 -0.9039607
v -3.5351796 1.165194 -0.9039607
v -3.5351796 6.198883E-06 -0.9039607
v -0.025190353 6.198883E-06 -0.9039607
v 2.4853325 1.8676476 0.9139738
v 2.4853325 1.3397813 0.9139738
v 2.4960485 1.3397813 0.86113596
v 2.4960485 1.8805099 0.86113596
v 2.5604124 1.3397813 0.83785486
v 2.4409432 1.9686265 0.83542585
v 2.4240322 1.9734311 0.88538885
v 2.3142672 1.9934602 0.8341975
v 2.5604124 1.8990264 0.83785486
v 2.58947 1.3397813 0.9091153
v 2.4866958 2.0283074 0.80348015
v 2.342245 2.0012612 0.78940344
v 2.58947 1.889255 0.9091153
v 2.5430694 1.3397813 0.94343615
v 2.5430694 1.889957 0.94343615
v 2.459352 2.0478368 0.9044051
v 2.498073 2.0690522 0.8664942
v 2.3546886 2.0724263 0.74193716
v 2.3344173 2.1304336 0.7901864
v 2.3094354 2.101727 0.8344946
v 2.166564 2.0252976 0.7678771
v 2.2481894 1.9577622 0.745554
v 2.2096577 1.9600434 0.78542185
v 2.161314 1.8577952 0.76286983
v 2.1784544 2.0433831 0.7174549
v 2.2289033 2.0098443 0.68326855
v 2.204718 1.8577952 0.72528267
v 2.1248064 1.7041812 0.74529743
v 2.1682105 1.7041812 0.7076969
v 2.1707616 1.8577952 0.656168
v 2.134254 1.7041812 0.6385827
v 2.1063704 1.8577952 0.68384886
v 2.1005402 1.8577952 0.7370782
v 2.0698633 1.7041812 0.6662636
v 2.0640192 1.7041812 0.7194929
v 2.5430694 1.889957 0.94343615
v 2.5430694 1.3397813 0.94343615
v 2.4853325 1.3397813 0.9139738
v 2.4853325 1.8676476 0.9139738
v 2.4240322 1.9734311 0.88538885
v 2.459352 2.0478368 0.9044051
v 2.3094354 2.101727 0.8344946
v 2.3142672 1.9934602 0.8341975
v 2.2096577 1.9600434 0.78542185
v 2.166564 2.0252976 0.7678771
v 2.1005402 1.8577952 0.7370782
v 2.161314 1.8577952 0.76286983
v 2.0640192 1.7041812 0.7194929
v 2.1248064 1.7041812 0.74529743
vt 0.68767905 0.23485753
vt 0.7003896 0.18494898
vt 0.68767905 0.18494898
vt 0.7003896 0.23485753
vt 0.73145825 0.18494898
vt 0.73145825 0.23485753
vt 0.73145825 0.2475681
vt 0.7003896 0.2475681
vt 0.73145825 0.2475681
vt 0.73145825 0.23485753
vt 0.7003896 0.23485753
vt 0.7003896 0.2475681
vt 0.68767905 0.23485753
vt 0.7003896 0.18494898
vt 0.68767905 0.18494898
vt 0.62975866 0.29365146
vt 0.62975866 0.19347289
vt 0.67480284 0.19347289
vt 0.67480284 0.29365146
vt 0.62975866 0.19347289
vt 0.6817003 0.29365146
vt 0.6817003 0.19347289
vt 0.6748179 0.19347289
vt 0.68171537 0.19347289
vt 0.68171537 0.12464908
vt 0.6748179 0.12464908
vt 0.68171537 0.008612432
vt 0.6748179 0.008612432
vt 0.66892946 0.1887742
vt 0.6355266 0.1887742
vt 0.6355266 0.13059774
vt 0.62975866 0.12464908
vt 0.66892946 0.13059774
vt 0.62975866 0.008612432
vt 0.62975866 0.0017149905
vt 0.6748179 0.0017149905
vt 0.6889592 0.17528051
vt 0.72653365 0.17528051
vt 0.72653365 0.061638393
vt 0.6889592 0.061638393
vt 0.6889592 0.0026035255
vt 0.6889592 0.061638393
vt 0.72653365 0.061638393
vt 0.72653365 0.0026035255
vt 0.72653365 0.061638393
vt 0.72653365 0.0026035255
vt 0.6889592 0.0026035255
vt 0.6889592 0.061638393
vt 0.72653365 0.17528051
vt 0.6889592 0.17528051
vt 0.62975866 0.008612432
vt 0.62975866 0.0017149905
vt 0.67480284 0.0017149905
vt 0.67480284 0.008612432
vt 0.6889592 0.061638393
vt 0.6889592 0.17528051
vt 0.72653365 0.17528051
vt 0.72653365 0.061638393
vt 0.6889592 0.061638393
vt 0.6889592 0.17528051
vt 0.72653365 0.17528051
vt 0.72653365 0.061638393
vt 0.65200216 0.16421147
vt 0.6519871 0.18214783
vt 0.65368885 0.18198217
vt 0.6535985 0.1634886
vt 0.65585744 0.18228337
vt 0.65304124 0.15915135
vt 0.6512341 0.15958808
vt 0.6500142 0.15505505
vt 0.6559177 0.1634886
vt 0.65838754 0.18264481
vt 0.65575206 0.15835316
vt 0.65183645 0.15460324
vt 0.6584026 0.16446748
vt 0.66033024 0.18276529
vt 0.66033024 0.1642416
vt 0.6602098 0.15788631
vt 0.65834236 0.15817244
vt 0.6545774 0.15341352
vt 0.6571225 0.15264545
vt 0.65879416 0.15181716
vt 0.655737 0.1463956
vt 0.6498636 0.15040153
vt 0.647951 0.15100393
vt 0.6458878 0.14740461
vt 0.6543515 0.1475552
vt 0.6523636 0.14889553
vt 0.64755946 0.1467269
vt 0.6427252 0.14302216
vt 0.6442463 0.14231436
vt 0.64899015 0.14455828
vt 0.6456318 0.1404168
vt 0.65034556 0.14254026
vt 0.65185153 0.14151618
vt 0.64695704 0.13854937
vt 0.64838773 0.13746506
vt 0.64996904 0.16448255
vt 0.6498636 0.1823436
vt 0.6519871 0.18214783
vt 0.65200216 0.16421147
vt 0.6512341 0.15958808
vt 0.648689 0.16002482
vt 0.6467613 0.1563502
vt 0.6500142 0.15505505
vt 0.647951 0.15100393
vt 0.64572215 0.15219367
vt 0.6437493 0.14760038
vt 0.6458878 0.14740461
vt 0.6406771 0.14363962
vt 0.6427252 0.14302216
vn 0.30205262 0.90420294 -0.30196238
vn -0.5777123 0.5777123 -0.5766255
vn -0.30205262 0.90420294 -0.30196238
vn 0.5777123 0.5777123 -0.5766255
vn -0.5777123 0.5777123 0.5766255
vn 0.5777123 0.5777123 0.5766255
vn 0.30205262 0.90420294 0.30196238
vn 0.30205262 0.90420294 -0.30196238
vn -0.30205262 0.90420294 -0.30196238
vn -0.5777123 0.5777123 -0.5766255
vn -0.5777123 0.5777123 0.5766255
vn -0.30205262 0.90420294 0.30196238
vn -0.30205262 0.90420294 0.30196238
vn 0.5777123 0.5777123 0.5766255
vn 0.30205262 0.90420294 0.30196238
vn -0.0009775162 0.9999995 -0
vn -0.70674455 0.70674455 -0.03200431
vn -0.5777123 0.5777123 -0.5766255
vn -0.0009775162 0.70674455 -0.70746815
vn -0.0009775162 0.9999995 -0
vn -0.0009775162 0.0009775162 -0.99999905
vn -0.70674455 0.0009775162 -0.70746815
vn -0.0009775162 0.70674455 -0.70746815
vn -0.0009775162 0.0009775162 -0.99999905
vn -0.0009775162 0.0009775162 -0.99999905
vn -0.0009775162 0.70674455 -0.70746815
vn 0.70674455 0.0009775162 -0.70746815
vn 0.5777123 0.5777123 -0.5766255
vn 0.30205262 0.90420294 0.30196238
vn 0.30205262 0.90420294 -0.30196238
vn -0.30205262 0.90420294 -0.30196238
vn -0.0009775162 0.9999995 -0
vn -0.30205262 0.90420294 0.30196238
vn 0.70674455 0.70674455 -0.03200431
vn 0.9999995 0.0009775162 -0
vn 0.70674455 0.0009775162 -0.70746815
vn -0.70674455 0.0009775162 -0.70746815
vn -0.70674455 0.0009775162 -0.70746815
vn -0.0009775162 0.0009775162 -0.99999905
vn -0.0009775162 0.0009775162 -0.99999905
vn -0.9999995 0.0009775162 -0
vn -0.70674455 0.0009775162 -0.70746815
vn -0.70674455 0.0009775162 -0.70746815
vn -0.9999995 0.0009775162 -0
vn 0.70674455 0.0009775162 -0.70746815
vn 0.9999995 0.0009775162 -0
vn 0.9999995 0.0009775162 -0
vn 0.70674455 0.0009775162 -0.70746815
vn -0.0009775162 0.0009775162 -0.99999905
vn -0.0009775162 0.0009775162 -0.99999905
vn -0.70674455 0.70674455 -0.03200431
vn -0.9999995 0.0009775162 -0
vn -0.70674455 0.0009775162 -0.70746815
vn -0.5777123 0.5777123 -0.5766255
vn -0.0009775162 0.0009775162 -0.99999905
vn -0.0009775162 0.0009775162 -0.99999905
vn -0.0009775162 0.0009775162 -0.99999905
vn -0.0009775162 0.0009775162 -0.99999905
vn -0.0009775162 0.0009775162 -0.99999905
vn -0.0009775162 0.0009775162 -0.99999905
vn -0.0009775162 0.0009775162 -0.99999905
vn -0.0009775162 0.0009775162 -0.99999905
vn -0.85141695 -0.13782984 0.5060555
vn -0.9002929 0.0009775162 0.43528357
vn -0.7575754 0.0009775162 -0.6527469
vn -0.65200365 -0.29032242 -0.70043135
vn 0.4056694 0.0009775162 -0.91401935
vn -0.2825023 -0.71260965 -0.64216816
vn -0.6480936 -0.47214055 0.5975433
vn -0.2707721 -0.6598238 0.7009387
vn 0.5347016 0.057673454 -0.84307057
vn 0.9628539 0.0009775162 0.27002108
vn 0.5405667 0.14760506 -0.8282514
vn 0.24731171 -0.85532707 -0.45525
vn 0.9335284 0.22580636 0.27845314
vn 0.083088934 0.0009775162 0.9965417
vn 0.13587481 0.15738022 0.97814596
vn -0.014662743 0.4447701 0.89552474
vn 0.6285432 0.76148546 0.15834567
vn 0.38611907 0.21994126 -0.8958448
vn 0.01270771 0.9882693 -0.15219148
vn -0.39393926 0.58748746 0.70687366
vn -0.7536653 0.41739964 0.50770676
vn 0.7223848 -0.6793741 -0.12888382
vn -0.0361681 -0.3704788 0.92813647
vn 0.11045939 -0.19061577 0.97543037
vn -0.57380223 0.68914926 -0.44252035
vn 0.23362648 0.15933526 -0.95918244
vn 0.92766327 -0.34310836 0.14736855
vn 0.07917887 -0.13196474 0.98808706
vn 0.9550338 -0.24535668 0.16646492
vn 0.31769294 0.049853325 -0.9468822
vn 0.24144661 0.05376339 -0.9689236
vn -0.7653955 0.3137828 -0.56188077
vn -0.8475069 0.19452584 0.49385402
vn -0.78494585 0.25122178 -0.5663459
vn -0.88660765 0.16129029 0.43348852
vn 0.13587481 0.15738022 0.97814596
vn 0.083088934 0.0009775162 0.9965417
vn -0.9002929 0.0009775162 0.43528357
vn -0.85141695 -0.13782984 0.5060555
vn -0.6480936 -0.47214055 0.5975433
vn -0.014662743 0.4447701 0.89552474
vn -0.39393926 0.58748746 0.70687366
vn -0.2707721 -0.6598238 0.7009387
vn -0.0361681 -0.3704788 0.92813647
vn -0.7536653 0.41739964 0.50770676
vn -0.8475069 0.19452584 0.49385402
vn 0.11045939 -0.19061577 0.97543037
vn -0.88660765 0.16129029 0.43348852
vn 0.07917887 -0.13196474 0.98808706
g febg_shop_001_kitchendesk_01_0
f 3/3/3 2/2/2 1/1/1
f 2/2/2 4/4/4 1/1/1
f 4/4/4 2/2/2 5/5/5
f 6/6/6 4/4/4 5/5/5
f 4/4/4 6/6/6 7/7/7
f 8/8/8 4/4/4 7/7/7
f 11/11/11 10/10/10 9/9/9
f 12/12/12 11/11/11 9/9/9
f 14/14/14 11/11/11 13/13/13
f 15/15/15 14/14/14 13/13/13
f 18/18/18 17/17/17 16/16/16
f 19/19/19 18/18/18 16/16/16
f 19/19/19 16/16/16 20/20/20
f 19/19/19 21/21/21 18/18/18
f 21/21/21 22/22/22 18/18/18
f 21/21/21 19/19/19 23/23/23
f 23/23/23 19/19/19 20/20/20
f 24/24/24 21/21/21 23/23/23
f 25/25/25 24/24/24 23/23/23
f 26/26/26 25/25/25 23/23/23
f 27/27/27 25/25/25 26/26/26
f 28/28/28 27/27/27 26/26/26
f 29/29/29 23/23/23 20/20/20
f 23/23/23 29/29/29 26/26/26
f 30/30/30 29/29/29 20/20/20
f 31/31/31 30/30/30 20/20/20
f 32/32/32 31/31/31 20/20/20
f 26/26/26 32/32/32 28/28/28
f 29/29/29 33/33/33 26/26/26
f 33/33/33 31/31/31 32/32/32
f 26/26/26 33/33/33 32/32/32
f 32/32/32 34/34/34 28/28/28
f 34/34/34 35/35/35 28/28/28
f 35/35/35 36/36/36 28/28/28
f 39/39/39 38/38/38 37/37/37
f 40/40/40 39/39/39 37/37/37
f 43/43/43 42/42/42 41/41/41
f 44/44/44 43/43/43 41/41/41
f 47/47/47 46/46/46 45/45/45
f 48/48/48 47/47/47 45/45/45
f 45/45/45 49/49/49 48/48/48
f 49/49/49 50/50/50 48/48/48
f 53/53/53 52/52/52 51/51/51
f 54/54/54 53/53/53 51/51/51
f 57/57/57 56/56/56 55/55/55
f 58/58/58 57/57/57 55/55/55
f 61/61/61 60/60/60 59/59/59
f 62/62/62 61/61/61 59/59/59
f 65/65/65 64/64/64 63/63/63
f 66/66/66 65/65/65 63/63/63
f 67/67/67 65/65/65 66/66/66
f 68/68/68 66/66/66 63/63/63
f 69/69/69 68/68/68 63/63/63
f 68/68/68 69/69/69 70/70/70
f 71/71/71 67/67/67 66/66/66
f 72/72/72 67/67/67 71/71/71
f 68/68/68 73/73/73 66/66/66
f 73/73/73 71/71/71 66/66/66
f 74/74/74 68/68/68 70/70/70
f 73/73/73 68/68/68 74/74/74
f 75/75/75 72/72/72 71/71/71
f 76/76/76 72/72/72 75/75/75
f 77/77/77 76/76/76 75/75/75
f 78/78/78 77/77/77 75/75/75
f 79/79/79 75/75/75 71/71/71
f 73/73/73 79/79/79 71/71/71
f 79/79/79 78/78/78 75/75/75
f 79/79/79 73/73/73 80/80/80
f 80/80/80 73/73/73 74/74/74
f 78/78/78 79/79/79 81/81/81
f 81/81/81 79/79/79 80/80/80
f 82/82/82 78/78/78 81/81/81
f 83/83/83 82/82/82 81/81/81
f 84/84/84 74/74/74 70/70/70
f 85/85/85 84/84/84 70/70/70
f 84/84/84 85/85/85 86/86/86
f 87/87/87 81/81/81 80/80/80
f 87/87/87 83/83/83 81/81/81
f 88/88/88 80/80/80 74/74/74
f 84/84/84 88/88/88 74/74/74
f 88/88/88 87/87/87 80/80/80
f 89/89/89 84/84/84 86/86/86
f 88/88/88 84/84/84 89/89/89
f 86/86/86 90/90/90 89/89/89
f 90/90/90 91/91/91 89/89/89
f 92/92/92 88/88/88 89/89/89
f 89/89/89 91/91/91 92/92/92
f 87/87/87 88/88/88 92/92/92
f 91/91/91 93/93/93 92/92/92
f 83/83/83 87/87/87 94/94/94
f 94/94/94 87/87/87 92/92/92
f 92/92/92 93/93/93 94/94/94
f 95/95/95 83/83/83 94/94/94
f 93/93/93 96/96/96 94/94/94
f 94/94/94 96/96/96 95/95/95
f 96/96/96 97/97/97 95/95/95
f 100/100/100 99/99/99 98/98/98
f 101/101/101 100/100/100 98/98/98
f 102/102/102 101/101/101 98/98/98
f 103/103/103 102/102/102 98/98/98
f 102/102/102 103/103/103 104/104/104
f 105/105/105 102/102/102 104/104/104
f 106/106/106 105/105/105 104/104/104
f 107/107/107 106/106/106 104/104/104
f 106/106/106 107/107/107 108/108/108
f 109/109/109 106/106/106 108/108/108
f 108/108/108 110/110/110 109/109/109
f 110/110/110 111/111/111 109/109/109
