g febg_shop_001_ornament_01
v -0.83492917 2.0837226 0.08390504
v 0.7838625 2.0204911 -0.08390343
v 0.83493036 2.0837226 0.08390504
v -0.7838612 2.0204911 -0.08390343
v 0.69340044 1.9337978 -0.08390343
v 0.69340044 0.08669126 -0.08390343
v 0.7838625 7.748604E-07 -0.08390343
v 0.83493036 2.0837226 0.08390504
v 0.83493036 -0.063233554 0.08390504
v -0.693402 0.08669126 -0.08390343
v -0.7838612 7.748604E-07 -0.08390343
v 0.83493036 -0.063233554 0.08390504
v -0.83492917 -0.063233554 0.08390504
v -0.83492917 -0.063233554 0.08390504
v -0.83492917 2.0837226 0.08390504
v -0.693402 1.9337978 -0.08390343
v 0.67163384 0.115683615 -0.051470697
v -0.67163545 0.115683615 -0.051470697
v -0.67163545 1.9048054 -0.051470697
v 0.67163384 1.9048054 -0.051470697
vt 0.44565552 0.64126706
vt 0.38571218 0.6329766
vt 0.38787365 0.64126706
vt 0.4482019 0.6329766
vt 0.3896946 0.6277358
vt 0.3896946 0.54487514
vt 0.38571218 0.539205
vt 0.37758452 0.62963074
vt 0.37758452 0.54154414
vt 0.4442047 0.54487514
vt 0.4482019 0.539205
vt 0.38787365 0.53140306
vt 0.44565552 0.53140306
vt 0.45594463 0.54154414
vt 0.45594463 0.62963074
vt 0.4442047 0.6277358
vt 0.3933809 0.5487983
vt 0.44053316 0.5487983
vt 0.44053316 0.6238126
vt 0.3933809 0.6238126
vn -0.626853 0.64709437 -0.43396333
vn 0.4889579 0.46112597 -0.74046135
vn 0.6268529 0.64709437 -0.43396348
vn -0.488958 0.46112597 -0.74046123
vn -0.12714171 -0.13599735 -0.982517
vn -0.12714171 0.13599735 -0.982517
vn 0.4889579 -0.4611259 -0.74046135
vn 0.6268529 0.64709437 -0.43396348
vn 0.6268529 -0.64709437 -0.43396348
vn 0.12714171 0.13599735 -0.982517
vn -0.488958 -0.4611259 -0.7404613
vn 0.6268529 -0.64709437 -0.43396348
vn -0.626853 -0.64709437 -0.43396333
vn -0.626853 -0.64709437 -0.43396333
vn -0.626853 0.64709437 -0.43396333
vn 0.12714171 -0.13599735 -0.982517
vn -0.3826903 0.3169055 -0.8678243
vn 0.38269022 0.3169055 -0.8678243
vn 0.38269022 -0.31690544 -0.8678244
vn -0.3826903 -0.31690544 -0.8678243
g febg_shop_001_ornament_01_0
f 3/3/3 2/2/2 1/1/1
f 2/2/2 4/4/4 1/1/1
f 2/2/2 5/5/5 4/4/4
f 6/6/6 5/5/5 2/2/2
f 7/7/7 6/6/6 2/2/2
f 7/7/7 2/2/2 8/8/8
f 9/9/9 7/7/7 8/8/8
f 10/10/10 6/6/6 7/7/7
f 11/11/11 10/10/10 7/7/7
f 11/11/11 7/7/7 12/12/12
f 13/13/13 11/11/11 12/12/12
f 4/4/4 11/11/11 14/14/14
f 15/15/15 4/4/4 14/14/14
f 4/4/4 16/16/16 11/11/11
f 5/5/5 16/16/16 4/4/4
f 16/16/16 10/10/10 11/11/11
f 6/6/6 17/17/17 5/5/5
f 10/10/10 18/18/18 6/6/6
f 18/18/18 17/17/17 6/6/6
f 19/19/19 18/18/18 10/10/10
f 16/16/16 19/19/19 10/10/10
f 18/18/18 19/19/19 17/17/17
f 5/5/5 20/20/20 16/16/16
f 17/17/17 20/20/20 5/5/5
f 20/20/20 19/19/19 16/16/16
f 19/19/19 20/20/20 17/17/17
