g febg_coinrush_001_coin_winedesk_05
v -0.030857861 0.19274914 0.0424695
v -0.05519885 0.19274914 -8.940697E-07
v -0.05519885 1.1037059 -3.4570694E-06
v -0.030857861 1.1037059 0.042472005
v 0.030854583 0.19274914 0.0424695
v -0.21824872 1.4953461 0.3003899
v -0.39041424 1.4953461 -3.4570694E-06
v -0.8857856 1.6510103 -3.4570694E-06
v -0.71661603 1.6510103 0.5206479
v -0.27372658 1.6510103 0.84242964
v 0.21824539 1.4953461 0.300395
v 0.2737208 1.6510103 0.84243214
v 0.7166127 1.6510103 0.5206505
v 0.030854583 1.1037059 0.042472005
v 0.05519557 0.19274914 -8.940697E-07
v 0.05519557 1.1037059 1.66893E-06
v 0.39041096 1.4953461 1.66893E-06
v 0.88578224 1.6510103 -8.940697E-07
v -0.030857861 0.19274914 -0.042473853
v -0.05519885 1.1037059 -3.4570694E-06
v -0.05519885 0.19274914 -8.940697E-07
v -0.030857861 1.1037059 -0.042468727
v 0.030854583 0.19274914 -0.042473853
v -0.21824872 1.4953461 -0.3003943
v -0.39041424 1.4953461 -3.4570694E-06
v -0.8857856 1.6510103 -3.4570694E-06
v -0.71661603 1.6510103 -0.5206523
v -0.27372408 1.6510103 -0.842434
v 0.21824539 1.4953461 -0.30038917
v 0.2737208 1.6510103 -0.8424314
v 0.7166127 1.6510103 -0.52064973
v 0.030854583 1.1037059 -0.042468727
v 0.05519557 0.19274914 -8.940697E-07
v 0.05519557 1.1037059 1.66893E-06
v 0.39041096 1.4953461 1.66893E-06
v 0.88578224 1.6510103 -8.940697E-07
v -0.27372408 1.7901812 -0.842434
v -1.66893E-06 1.7901812 -8.940697E-07
v -0.71661603 1.7901812 -0.5206523
v 0.2737208 1.7901812 -0.8424314
v -0.8857856 1.7901812 -6.020069E-06
v 0.7166127 1.7901812 -0.52064973
v -0.71661603 1.7901812 0.5206454
v 0.88578224 1.7901812 -8.940697E-07
v -0.27372658 1.7901812 0.842427
v 0.7166127 1.7901812 0.5206505
v 0.2737208 1.7901812 0.84243214
v -0.71661603 1.6510103 0.5206479
v -0.8857856 1.6510103 -3.4570694E-06
v -0.8857856 1.7901812 -6.020069E-06
v -0.71661603 1.6510103 -0.5206523
v -0.71661603 1.7901812 0.5206454
v -0.71661603 1.7901812 -0.5206523
v -0.27372658 1.6510103 0.84242964
v -0.27372408 1.6510103 -0.842434
v -0.27372658 1.7901812 0.842427
v -0.27372408 1.7901812 -0.842434
v 0.2737208 1.6510103 0.84243214
v 0.2737208 1.6510103 -0.8424314
v 0.2737208 1.7901812 0.84243214
v 0.2737208 1.7901812 -0.8424314
v 0.7166127 1.6510103 0.5206505
v 0.7166127 1.6510103 -0.52064973
v 0.7166127 1.7901812 0.5206505
v 0.7166127 1.7901812 -0.52064973
v 0.88578224 1.6510103 -8.940697E-07
v 0.88578224 1.7901812 -8.940697E-07
v 0.4989501 0.040884674 -8.940697E-07
v 0.030854583 0.19274914 0.0424695
v 0.05519557 0.19274914 -8.940697E-07
v 0.030854583 0.19274914 -0.042473853
v 0.27891922 0.040884674 0.3839016
v -0.030857861 0.19274914 0.0424695
v 0.27892172 0.040884674 -0.38390338
v -0.030857861 0.19274914 -0.042473853
v 0.4989501 1.1861324E-05 -8.940697E-07
v 0.27891922 1.1861324E-05 0.3839016
v 0.27892172 1.1861324E-05 -0.38390338
v -0.27892244 0.04088211 0.3839016
v -0.27892244 1.1861324E-05 0.3839016
v -0.05519885 0.19274914 -8.940697E-07
v -0.27892244 0.04088211 -0.38390338
v -0.27892244 1.1861324E-05 -0.38390338
v -0.49895084 0.04088211 -8.940697E-07
v -0.49895084 1.1861324E-05 -8.940697E-07
vt 0.49901417 0.48699558
vt 0.50299 0.48848274
vt 0.5029748 0.55018425
vt 0.498999 0.55126166
vt 0.4935967 0.48701075
vt 0.5084075 0.5842218
vt 0.5259346 0.5730378
vt 0.549729 0.5869533
vt 0.52944005 0.6037368
vt 0.50769424 0.6131605
vt 0.4817147 0.58359957
vt 0.48388472 0.6131605
vt 0.4603331 0.60461694
vt 0.4935967 0.55127686
vt 0.4896512 0.48827028
vt 0.48966637 0.5500325
vt 0.46534085 0.57123196
vt 0.43835974 0.58628553
vt 0.49901417 0.48699558
vt 0.5029748 0.55018425
vt 0.50299 0.48848274
vt 0.498999 0.55126166
vt 0.4935967 0.48701075
vt 0.5084075 0.5842218
vt 0.5259346 0.5730378
vt 0.549729 0.5869533
vt 0.52944005 0.6037368
vt 0.50769424 0.6131605
vt 0.4817147 0.58359957
vt 0.48388472 0.6131605
vt 0.4603331 0.60461694
vt 0.4935967 0.55127686
vt 0.4896512 0.48827028
vt 0.48966637 0.5500325
vt 0.46534085 0.57123196
vt 0.43835974 0.58628553
vt 0.47707114 0.6752414
vt 0.49450722 0.62161297
vt 0.448876 0.6547551
vt 0.5119281 0.6752414
vt 0.43810174 0.62161297
vt 0.54013836 0.6547551
vt 0.448876 0.6547551
vt 0.5508975 0.62161297
vt 0.47707114 0.6752414
vt 0.54013836 0.6547551
vt 0.5119281 0.6752414
vt 0.52944005 0.6037368
vt 0.549729 0.5869533
vt 0.55273366 0.59051937
vt 0.52944005 0.6037368
vt 0.5320198 0.60783404
vt 0.5320198 0.60783404
vt 0.50769424 0.6131605
vt 0.50769424 0.6131605
vt 0.5091207 0.61766744
vt 0.5091207 0.61766744
vt 0.48388472 0.6131605
vt 0.48388472 0.6131605
vt 0.48276177 0.61766744
vt 0.48276177 0.61766744
vt 0.4603331 0.60461694
vt 0.4603331 0.60461694
vt 0.45782924 0.6087142
vt 0.45782924 0.6087142
vt 0.43835974 0.58628553
vt 0.43567374 0.5891688
vt 0.46731362 0.47092527
vt 0.4935967 0.48701075
vt 0.4896512 0.48827028
vt 0.4935967 0.48701075
vt 0.48450688 0.46080354
vt 0.49901417 0.48699558
vt 0.48450688 0.46080354
vt 0.49901417 0.48699558
vt 0.46505255 0.46810272
vt 0.48361155 0.4581024
vt 0.48361155 0.4581024
vt 0.5081495 0.461016
vt 0.50906 0.45840588
vt 0.50299 0.48848274
vt 0.5081495 0.461016
vt 0.50906 0.45840588
vt 0.52689064 0.47616065
vt 0.52931863 0.4738692
vn -0.3548385 0.6793741 0.64229316
vn -0.72433984 0.68914926 -0.02012643
vn -0.92165375 -0.38801327 -0
vn -0.45259023 -0.37243384 0.81021917
vn 0.35483855 0.6793741 0.6422931
vn -0.24535668 -0.8866076 0.39208043
vn -0.46627012 -0.8846424 -0
vn -0.83519274 -0.54995733 -0
vn -0.6793741 -0.54447675 0.49193078
vn -0.2531768 -0.55034184 0.79562896
vn 0.24535668 -0.8866076 0.39208043
vn 0.2531768 -0.55034184 0.79562896
vn 0.6793741 -0.54447675 0.49193078
vn 0.45259023 -0.37243384 0.81021917
vn 0.72433984 0.68914926 -0.02012643
vn 0.9216538 -0.3880133 -0
vn 0.46627012 -0.8846424 -0
vn 0.8351928 -0.54995733 -0
vn -0.3548385 0.6793741 -0.64229316
vn -0.92165375 -0.38801327 -0
vn -0.72433984 0.68914926 -0.02012643
vn -0.45259023 -0.37243384 -0.81021917
vn 0.35483855 0.6793741 -0.6422931
vn -0.24535668 -0.8866076 -0.39208043
vn -0.46627012 -0.8846424 -0
vn -0.83519274 -0.54995733 -0
vn -0.6793741 -0.54447675 -0.49193078
vn -0.2531768 -0.55034184 -0.79562896
vn 0.24535668 -0.8866076 -0.39208043
vn 0.2531768 -0.55034184 -0.79562896
vn 0.6793741 -0.54447675 -0.49193078
vn 0.45259023 -0.37243384 -0.81021917
vn 0.72433984 0.68914926 -0.02012643
vn 0.9216538 -0.3880133 -0
vn 0.46627012 -0.8846424 -0
vn 0.8351928 -0.54995733 -0
vn -0.23558152 0.6441835 -0.7276874
vn -0.0009775162 0.9999995 -0
vn -0.618768 0.6441835 -0.4496152
vn 0.23558152 0.6441835 -0.7276874
vn -0.76508856 0.64392513 -0
vn 0.61876804 0.6441835 -0.44961506
vn -0.618768 0.6441835 0.4496152
vn 0.76508856 0.64392513 -0
vn -0.23558152 0.6441835 0.7276874
vn 0.61876804 0.6441835 0.44961506
vn 0.23558152 0.6441835 0.7276874
vn -0.6793741 -0.54447675 0.49193078
vn -0.83519274 -0.54995733 -0
vn -0.76508856 0.64392513 -0
vn -0.6793741 -0.54447675 -0.49193078
vn -0.618768 0.6441835 0.4496152
vn -0.618768 0.6441835 -0.4496152
vn -0.2531768 -0.55034184 0.79562896
vn -0.2531768 -0.55034184 -0.79562896
vn -0.23558152 0.6441835 0.7276874
vn -0.23558152 0.6441835 -0.7276874
vn 0.2531768 -0.55034184 0.79562896
vn 0.2531768 -0.55034184 -0.79562896
vn 0.23558152 0.6441835 0.7276874
vn 0.23558152 0.6441835 -0.7276874
vn 0.6793741 -0.54447675 0.49193078
vn 0.6793741 -0.54447675 -0.49193078
vn 0.61876804 0.6441835 0.44961506
vn 0.61876804 0.6441835 -0.44961506
vn 0.8351928 -0.54995733 -0
vn 0.76508856 0.64392513 -0
vn 0.86119217 0.50733113 -0.031035163
vn 0.35483855 0.6793741 0.6422931
vn 0.72433984 0.68914926 -0.02012643
vn 0.35483855 0.6793741 -0.6422931
vn 0.43694997 0.50146604 0.74673057
vn -0.3548385 0.6793741 0.64229316
vn 0.43694997 0.50146604 -0.74673057
vn -0.3548385 0.6793741 -0.64229316
vn 0.9999995 0.0009775162 -0
vn 0.50146604 0.0009775162 0.8651768
vn 0.50146604 0.0009775162 -0.8651768
vn -0.43694997 0.50146604 0.74673057
vn -0.50146604 0.0009775162 0.8651768
vn -0.72433984 0.68914926 -0.02012643
vn -0.43694997 0.50146604 -0.74673057
vn -0.50146604 0.0009775162 -0.8651768
vn -0.8611921 0.50733113 -0.031037083
vn -0.9999995 0.0009775162 -0
g febg_coinrush_001_coin_winedesk_05_0
f 3/3/3 2/2/2 1/1/1
f 4/4/4 3/3/3 1/1/1
f 4/4/4 1/1/1 5/5/5
f 3/3/3 4/4/4 6/6/6
f 7/7/7 3/3/3 6/6/6
f 8/8/8 7/7/7 6/6/6
f 9/9/9 8/8/8 6/6/6
f 10/10/10 9/9/9 6/6/6
f 10/10/10 6/6/6 11/11/11
f 6/6/6 4/4/4 11/11/11
f 12/12/12 10/10/10 11/11/11
f 13/13/13 12/12/12 11/11/11
f 14/14/14 4/4/4 5/5/5
f 4/4/4 14/14/14 11/11/11
f 14/14/14 5/5/5 15/15/15
f 16/16/16 14/14/14 15/15/15
f 14/14/14 16/16/16 17/17/17
f 11/11/11 14/14/14 17/17/17
f 13/13/13 11/11/11 17/17/17
f 18/18/18 13/13/13 17/17/17
f 21/21/21 20/20/20 19/19/19
f 20/20/20 22/22/22 19/19/19
f 19/19/19 22/22/22 23/23/23
f 24/24/24 22/22/22 20/20/20
f 25/25/25 24/24/24 20/20/20
f 24/24/24 25/25/25 26/26/26
f 27/27/27 24/24/24 26/26/26
f 28/28/28 24/24/24 27/27/27
f 29/29/29 24/24/24 28/28/28
f 24/24/24 29/29/29 22/22/22
f 30/30/30 29/29/29 28/28/28
f 31/31/31 29/29/29 30/30/30
f 22/22/22 32/32/32 23/23/23
f 29/29/29 32/32/32 22/22/22
f 23/23/23 32/32/32 33/33/33
f 32/32/32 34/34/34 33/33/33
f 35/35/35 34/34/34 32/32/32
f 29/29/29 35/35/35 32/32/32
f 35/35/35 29/29/29 31/31/31
f 36/36/36 35/35/35 31/31/31
f 39/39/39 38/38/38 37/37/37
f 37/37/37 38/38/38 40/40/40
f 41/41/41 38/38/38 39/39/39
f 40/40/40 38/38/38 42/42/42
f 38/38/38 41/41/41 43/43/43
f 42/42/42 38/38/38 44/44/44
f 38/38/38 43/43/43 45/45/45
f 38/38/38 46/46/46 44/44/44
f 38/38/38 45/45/45 47/47/47
f 38/38/38 47/47/47 46/46/46
f 50/50/50 49/49/49 48/48/48
f 49/49/49 50/50/50 51/51/51
f 52/52/52 50/50/50 48/48/48
f 50/50/50 53/53/53 51/51/51
f 52/52/52 48/48/48 54/54/54
f 51/51/51 53/53/53 55/55/55
f 56/56/56 52/52/52 54/54/54
f 53/53/53 57/57/57 55/55/55
f 56/56/56 54/54/54 58/58/58
f 55/55/55 57/57/57 59/59/59
f 60/60/60 56/56/56 58/58/58
f 57/57/57 61/61/61 59/59/59
f 60/60/60 58/58/58 62/62/62
f 59/59/59 61/61/61 63/63/63
f 64/64/64 60/60/60 62/62/62
f 61/61/61 65/65/65 63/63/63
f 64/64/64 62/62/62 66/66/66
f 63/63/63 65/65/65 66/66/66
f 67/67/67 64/64/64 66/66/66
f 65/65/65 67/67/67 66/66/66
f 70/70/70 69/69/69 68/68/68
f 71/71/71 70/70/70 68/68/68
f 69/69/69 72/72/72 68/68/68
f 69/69/69 73/73/73 72/72/72
f 74/74/74 71/71/71 68/68/68
f 75/75/75 71/71/71 74/74/74
f 68/68/68 72/72/72 76/76/76
f 74/74/74 68/68/68 76/76/76
f 72/72/72 77/77/77 76/76/76
f 78/78/78 74/74/74 76/76/76
f 73/73/73 79/79/79 72/72/72
f 72/72/72 79/79/79 77/77/77
f 79/79/79 80/80/80 77/77/77
f 73/73/73 81/81/81 79/79/79
f 82/82/82 75/75/75 74/74/74
f 82/82/82 74/74/74 78/78/78
f 81/81/81 75/75/75 82/82/82
f 83/83/83 82/82/82 78/78/78
f 79/79/79 84/84/84 80/80/80
f 81/81/81 84/84/84 79/79/79
f 84/84/84 81/81/81 82/82/82
f 84/84/84 82/82/82 83/83/83
f 84/84/84 85/85/85 80/80/80
f 85/85/85 84/84/84 83/83/83
