g febg_tropical_003_tube_01
v 0.3208984 -3.5762787E-07 0.20443559
v 0.374705 -3.5762787E-07 0.066070914
v 0.2468935 0.05232376 0.09601241
v 0.37146702 -3.5762787E-07 -0.08235213
v 0.10668996 0.05232376 0.24247104
v 0.21823746 -3.5762787E-07 0.31167585
v 0.08235213 -3.5762787E-07 0.37146723
v 0.2636926 0.05232376 -0.05845955
v 0.3116747 -3.5762787E-07 -0.21823835
v -0.09601241 0.05232376 0.24689466
v -0.066070914 -3.5762787E-07 0.3747034
v -0.20443559 -3.5762787E-07 0.3208977
v 0.22124818 0.05232376 -0.15492037
v 0.24247085 0.13785857 -0.10668996
v 0.20443535 -3.5762787E-07 -0.3208975
v 0.09601128 0.05232376 -0.24689257
v 0.06606978 -3.5762787E-07 -0.374705
v -0.082351446 -3.5762787E-07 -0.37146428
v 0.2468935 0.13785857 0.09601241
v 0.10668996 0.13785857 0.24247104
v -0.10669017 0.05232376 -0.24246994
v -0.21823764 -3.5762787E-07 -0.3116747
v -0.3208986 -3.5762787E-07 -0.20443442
v -0.09601241 0.13785857 0.2468937
v 0.09601128 0.13785857 -0.24689257
v -0.24689466 0.05232376 -0.09601128
v -0.37470615 -3.5762787E-07 -0.0660716
v -0.37146634 -3.5762787E-07 0.082351446
v -0.10669017 0.13785857 -0.24246994
v -0.24247104 0.05232376 0.106689274
v -0.31167585 -3.5762787E-07 0.21823764
v -0.24689466 0.13785857 -0.096012205
v -0.24247104 0.13785857 0.106689274
v 0.3116747 0.20043898 -0.21823835
v 0.06606978 0.20043898 -0.37470406
v 0.20443535 0.20043898 -0.3208975
v -0.21823764 0.20043898 -0.3116756
v -0.08235234 0.20043898 -0.3714652
v 0.078601986 0.18606144 -0.44577613
v -0.097972274 0.18606144 -0.44192338
v 0.24321024 0.18606144 -0.3817627
v -0.25963205 0.18606144 -0.37079176
v 0.37146702 0.20043898 -0.08235213
v 0.37079084 0.18606144 -0.25963187
v 0.374705 0.20043898 0.066070914
v 0.44192338 0.18606144 -0.09797111
v 0.2620837 0.10348153 -0.41138813
v 0.08470225 0.10348153 -0.48036844
v 0.3995651 0.103482485 -0.27977794
v -0.10557419 0.103482485 -0.47621608
v 0.476217 0.103482485 -0.10557401
v 0.24321117 -3.5762787E-07 -0.3817627
v 0.37079084 -3.5762787E-07 -0.25963187
v 0.078601986 -3.5762787E-07 -0.44577613
v -0.09797132 -3.5762787E-07 -0.44192064
v 0.44192338 -3.5762787E-07 -0.09797111
v -0.25963116 -3.5762787E-07 -0.37079176
v 0.48036844 0.103482485 0.08470249
v 0.44577613 -3.5762787E-07 0.07860315
v -0.27977908 0.103482485 -0.3995651
v -0.38176388 -3.5762787E-07 -0.24321117
v 0.44577613 0.18606144 0.07860315
v 0.41138905 0.103482485 0.262083
v 0.38176364 -3.5762787E-07 0.24321139
v -0.4113893 0.10348153 -0.2620837
v -0.44577634 -3.5762787E-07 -0.07860291
v -0.38176477 0.18606144 -0.24321024
v 0.3208984 0.20043898 0.20443463
v 0.27977794 0.103482485 0.3995644
v 0.25963092 -3.5762787E-07 0.37079108
v 0.38176364 0.18606144 0.24321139
v 0.21823746 0.20043898 0.31167585
v -0.3208986 0.20043898 -0.20443442
v 0.105574906 0.103482485 0.47621632
v 0.09797111 -3.5762787E-07 0.44192362
v 0.25963092 0.18606144 0.37079108
v 0.08235121 0.20043898 0.37146634
v -0.44577634 0.18606144 -0.07860291
v -0.37470615 0.20043898 -0.0660716
v -0.08470249 0.103482485 0.48036772
v -0.07860315 -3.5762787E-07 0.44577545
v 0.09797111 0.18606144 0.44192266
v -0.066070914 0.20043898 0.3747043
v -0.262083 0.103482485 0.41138744
v -0.24321043 -3.5762787E-07 0.38176203
v -0.07860315 0.18606144 0.44577545
v -0.20443559 0.20043898 0.3208977
v -0.39956534 0.103482485 0.27977818
v -0.37079108 -3.5762787E-07 0.25963116
v -0.24321043 0.18606144 0.38176203
v -0.31167585 0.20043898 0.21823764
v -0.4762172 0.10348153 0.10557419
v -0.44192362 -3.5762787E-07 0.097972274
v -0.37079108 0.18606144 0.25963116
v -0.37146634 0.20043898 0.082351446
v -0.44192362 0.18606144 0.097972274
v -0.48036867 0.10348153 -0.08470225
vt 0.45111164 0.738412
vt 0.44962057 0.7348185
vt 0.4431344 0.7396645
vt 0.44947144 0.7309716
vt 0.4526027 0.7491329
vt 0.45381048 0.7411705
vt 0.45732942 0.7426616
vt 0.44168803 0.7295103
vt 0.4509327 0.72746754
vt 0.46597767 0.7490881
vt 0.4611615 0.74258703
vt 0.46475497 0.74112576
vt 0.44432724 0.72306883
vt 0.43875062 0.7245301
vt 0.45369118 0.7247985
vt 0.4524685 0.71683615
vt 0.4572698 0.72333723
vt 0.46111676 0.72326267
vt 0.4388401 0.7414538
vt 0.45082834 0.75339735
vt 0.46584347 0.71679145
vt 0.4646357 0.7247538
vt 0.46733454 0.72751224
vt 0.46773714 0.7533675
vt 0.45069414 0.7125568
vt 0.4753118 0.72625977
vt 0.4688107 0.73110574
vt 0.4689598 0.73495275
vt 0.46761784 0.712527
vt 0.475446 0.7396347
vt 0.46749854 0.7384567
vt 0.4796061 0.72447044
vt 0.47969556 0.74139416
vt 0.43369588 0.71598625
vt 0.45316932 0.70293933
vt 0.44213536 0.70753187
vt 0.47617662 0.7074722
vt 0.46512774 0.7029095
vt 0.45239395 0.6990625
vt 0.4658882 0.6990327
vt 0.4399435 0.70423657
vt 0.4783685 0.7041769
vt 0.4291481 0.72705
vt 0.4304155 0.71379435
vt 0.42920774 0.7389935
vt 0.4252713 0.72627467
vt 0.43672276 0.6994353
vt 0.45126075 0.69339645
vt 0.42559934 0.7106035
vt 0.4670065 0.69336665
vt 0.41960523 0.72515637
vt 0.43280122 0.6935903
vt 0.41973943 0.70669687
vt 0.44987404 0.68647784
vt 0.46837828 0.68644804
vt 0.41270155 0.72379947
vt 0.48548093 0.6935008
vt 0.41964996 0.740917
vt 0.41274628 0.7423037
vt 0.4815743 0.6993607
vt 0.49858746 0.70654774
vt 0.42533094 0.7397689
vt 0.42571864 0.7554401
vt 0.4198587 0.7593765
vt 0.49272755 0.7104842
vt 0.5056999 0.72362053
vt 0.48792627 0.7137049
vt 0.43381515 0.7500126
vt 0.43687186 0.76656353
vt 0.43296525 0.77242345
vt 0.43051988 0.7522194
vt 0.44226956 0.75845206
vt 0.484631 0.7159117
vt 0.45143968 0.7725576
vt 0.45006788 0.7794762
vt 0.4400777 0.76174736
vt 0.45331842 0.76301473
vt 0.49313015 0.7261554
vt 0.48923844 0.72693074
vt 0.46718544 0.7725427
vt 0.46857214 0.7794464
vt 0.45255798 0.76689154
vt 0.46527684 0.76298493
vt 0.4817234 0.76648897
vt 0.48564494 0.772334
vt 0.4660522 0.76686174
vt 0.47631082 0.75839245
vt 0.49283192 0.7553208
vt 0.49870676 0.75922745
vt 0.4785027 0.7616877
vt 0.4847503 0.749938
vt 0.49884096 0.7407679
vt 0.50574464 0.7421248
vt 0.48803067 0.7521299
vt 0.48928317 0.73887426
vt 0.49317488 0.7396496
vt 0.49879622 0.72500724
vn -0.3219329 -0.92031866 -0.22219989
vn -0.4090066 -0.9106438 -0.058663897
vn -0.70892715 -0.63781285 -0.30102664
vn -0.4051367 -0.9106438 0.08119172
vn -0.31225812 -0.63200796 -0.7092678
vn -0.23679423 -0.92031866 -0.3113552
vn -0.07038665 -0.92031866 -0.38478476
vn -0.77471626 -0.62233305 0.11187623
vn -0.33160782 -0.9106438 0.2465037
vn 0.27984315 -0.63200796 -0.7226713
vn 0.05345148 -0.92031866 -0.38750032
vn 0.22372895 -0.92031866 -0.32087213
vn -0.6025038 -0.62233305 0.4996907
vn -0.75923645 0.5579995 0.3349576
vn -0.22518432 -0.9106438 0.34643883
vn -0.25807893 -0.63781285 0.7256652
vn -0.05297196 -0.92031866 0.38756624
vn 0.06893128 -0.92031866 0.38504815
vn -0.75730145 0.5734792 -0.31243587
vn -0.3219329 0.5986339 -0.73348254
vn 0.31273764 -0.63200796 0.7090565
vn 0.23727375 -0.92031866 0.31098992
vn 0.3224125 -0.92031866 0.2215035
vn 0.289518 0.5986339 -0.7468713
vn -0.28129852 0.5734792 0.76941067
vn 0.72101665 -0.63200796 0.28407916
vn 0.38820153 -0.92031866 0.048095085
vn 0.3862666 -0.92031866 -0.061739106
vn 0.3224125 0.5986339 0.7332719
vn 0.70940673 -0.63200796 -0.3119423
vn 0.31273764 -0.92031866 -0.23496541
vn 0.74617124 0.5986339 0.2913176
vn 0.73262644 0.5986339 -0.3238765
vn -0.07425666 0.9953029 0.06211352
vn -0.008467555 0.9953029 0.09643864
vn -0.058776855 0.9953029 0.07692444
vn 0.06119138 0.9953029 0.07501834
vn 0.012817085 0.9953029 0.09595752
vn 0.11537057 0.74762666 -0.6540214
vn -0.14391553 0.74762666 -0.6483384
vn 0.357242 0.74762666 -0.55985045
vn -0.3799821 0.74762666 -0.5446723
vn -0.09554124 0.9953029 0.015619277
vn 0.54299927 0.74762666 -0.3823691
vn -0.09554124 0.9953029 -0.015619277
vn 0.6474877 0.74762666 -0.1476956
vn 0.5371944 0.03555715 -0.84270865
vn 0.17341971 0.03555715 -0.9842059
vn 0.8177652 0.03555715 -0.57445264
vn -0.21550953 0.03555715 -0.97585416
vn 0.9764328 0.03555715 -0.21287248
vn 0.5081698 -0.32047755 -0.7994108
vn 0.77519584 -0.32047755 -0.5443947
vn 0.16374487 -0.32047755 -0.93299615
vn -0.20583463 -0.32047755 -0.92462224
vn 0.9241886 -0.32047755 -0.20777279
vn -0.5425197 -0.32047755 -0.7765092
vn 0.9841727 0.03555715 0.17360808
vn 0.93192846 -0.32047755 0.16971596
vn -0.5734792 0.03555715 -0.81844807
vn -0.79793584 -0.32047755 -0.51048267
vn 0.6532926 0.74762666 0.11942844
vn 0.8429198 0.03555715 0.53686297
vn 0.7984154 -0.32047755 0.5097322
vn -0.84244025 0.03555715 -0.5376152
vn -0.9333838 -0.32047755 -0.16152012
vn -0.5599344 0.74762666 -0.35711038
vn -0.076191545 0.9953029 -0.059724204
vn 0.57395875 0.03555715 0.81811184
vn 0.54299927 -0.32047755 0.77617395
vn 0.56041396 0.74762666 0.35635734
vn -0.06264675 0.9953029 -0.073807225
vn 0.07667118 0.9953029 0.059107248
vn 0.21598911 0.03555715 0.9757481
vn 0.20437926 -0.32047755 0.924945
vn 0.38046163 0.74762666 0.54433745
vn -0.012337506 0.9953029 -0.09602023
vn -0.6528131 0.74762666 -0.122022204
vn 0.09602088 0.9953029 0.012333331
vn -0.17294014 0.03555715 0.9842903
vn -0.16520023 -0.32047755 0.93273956
vn 0.14439517 0.74762666 0.64823174
vn 0.008947134 0.9953029 -0.096395366
vn -0.5367148 0.03555715 0.8430141
vn -0.5096252 -0.32047755 0.7984838
vn -0.11489105 0.74762666 0.65410584
vn 0.059256434 0.9953029 -0.0765559
vn -0.81922054 0.03555715 0.57237524
vn -0.77471626 -0.32047755 0.5450769
vn -0.3567624 0.74762666 0.56015617
vn 0.07473618 0.9953029 -0.061535545
vn -0.9759532 0.03555715 0.2150605
vn -0.92370903 -0.32047755 0.20989458
vn -0.5425197 0.74762666 0.38304925
vn 0.09602088 0.9953029 -0.012333331
vn -0.64700806 0.74762666 0.14978302
vn -0.9836931 0.03555715 -0.17630526
g febg_tropical_003_tube_01_0
f 3/3/3 2/2/2 1/1/1
f 4/4/4 2/2/2 3/3/3
f 3/3/3 1/1/1 5/5/5
f 1/1/1 6/6/6 5/5/5
f 5/5/5 6/6/6 7/7/7
f 8/8/8 4/4/4 3/3/3
f 9/9/9 4/4/4 8/8/8
f 5/5/5 7/7/7 10/10/10
f 7/7/7 11/11/11 10/10/10
f 10/10/10 11/11/11 12/12/12
f 13/13/13 9/9/9 8/8/8
f 13/13/13 8/8/8 14/14/14
f 15/15/15 9/9/9 13/13/13
f 16/16/16 15/15/15 13/13/13
f 16/16/16 13/13/13 14/14/14
f 16/16/16 17/17/17 15/15/15
f 18/18/18 17/17/17 16/16/16
f 8/8/8 3/3/3 19/19/19
f 14/14/14 8/8/8 19/19/19
f 3/3/3 5/5/5 20/20/20
f 19/19/19 3/3/3 20/20/20
f 21/21/21 18/18/18 16/16/16
f 21/21/21 22/22/22 18/18/18
f 23/23/23 22/22/22 21/21/21
f 5/5/5 10/10/10 24/24/24
f 20/20/20 5/5/5 24/24/24
f 25/25/25 16/16/16 14/14/14
f 21/21/21 16/16/16 25/25/25
f 26/26/26 23/23/23 21/21/21
f 26/26/26 27/27/27 23/23/23
f 28/28/28 27/27/27 26/26/26
f 29/29/29 21/21/21 25/25/25
f 26/26/26 21/21/21 29/29/29
f 30/30/30 28/28/28 26/26/26
f 30/30/30 31/31/31 28/28/28
f 12/12/12 31/31/31 30/30/30
f 10/10/10 12/12/12 30/30/30
f 30/30/30 26/26/26 32/32/32
f 32/32/32 26/26/26 29/29/29
f 10/10/10 30/30/30 33/33/33
f 33/33/33 30/30/30 32/32/32
f 24/24/24 10/10/10 33/33/33
f 14/14/14 34/34/34 25/25/25
f 25/25/25 35/35/35 29/29/29
f 34/34/34 36/36/36 25/25/25
f 25/25/25 36/36/36 35/35/35
f 29/29/29 37/37/37 32/32/32
f 35/35/35 38/38/38 29/29/29
f 29/29/29 38/38/38 37/37/37
f 35/35/35 36/36/36 39/39/39
f 38/38/38 35/35/35 40/40/40
f 35/35/35 39/39/39 40/40/40
f 36/36/36 34/34/34 41/41/41
f 36/36/36 41/41/41 39/39/39
f 37/37/37 38/38/38 42/42/42
f 38/38/38 40/40/40 42/42/42
f 14/14/14 43/43/43 34/34/34
f 34/34/34 44/44/44 41/41/41
f 34/34/34 43/43/43 44/44/44
f 45/45/45 43/43/43 14/14/14
f 19/19/19 45/45/45 14/14/14
f 43/43/43 46/46/46 44/44/44
f 43/43/43 45/45/45 46/46/46
f 41/41/41 47/47/47 39/39/39
f 39/39/39 48/48/48 40/40/40
f 47/47/47 48/48/48 39/39/39
f 44/44/44 49/49/49 41/41/41
f 49/49/49 47/47/47 41/41/41
f 40/40/40 50/50/50 42/42/42
f 48/48/48 50/50/50 40/40/40
f 46/46/46 51/51/51 44/44/44
f 51/51/51 49/49/49 44/44/44
f 47/47/47 49/49/49 52/52/52
f 49/49/49 53/53/53 52/52/52
f 49/49/49 51/51/51 53/53/53
f 47/47/47 52/52/52 54/54/54
f 48/48/48 47/47/47 54/54/54
f 48/48/48 54/54/54 55/55/55
f 50/50/50 48/48/48 55/55/55
f 51/51/51 56/56/56 53/53/53
f 50/50/50 55/55/55 57/57/57
f 51/51/51 58/58/58 56/56/56
f 58/58/58 51/51/51 46/46/46
f 58/58/58 59/59/59 56/56/56
f 60/60/60 50/50/50 57/57/57
f 60/60/60 57/57/57 61/61/61
f 50/50/50 60/60/60 42/42/42
f 62/62/62 58/58/58 46/46/46
f 45/45/45 62/62/62 46/46/46
f 58/58/58 63/63/63 59/59/59
f 63/63/63 58/58/58 62/62/62
f 63/63/63 64/64/64 59/59/59
f 65/65/65 60/60/60 61/61/61
f 65/65/65 61/61/61 66/66/66
f 42/42/42 60/60/60 67/67/67
f 60/60/60 65/65/65 67/67/67
f 37/37/37 42/42/42 67/67/67
f 45/45/45 68/68/68 62/62/62
f 19/19/19 68/68/68 45/45/45
f 63/63/63 69/69/69 64/64/64
f 69/69/69 70/70/70 64/64/64
f 71/71/71 63/63/63 62/62/62
f 68/68/68 71/71/71 62/62/62
f 69/69/69 63/63/63 71/71/71
f 72/72/72 68/68/68 19/19/19
f 68/68/68 72/72/72 71/71/71
f 20/20/20 72/72/72 19/19/19
f 73/73/73 37/37/37 67/67/67
f 37/37/37 73/73/73 32/32/32
f 69/69/69 74/74/74 70/70/70
f 74/74/74 75/75/75 70/70/70
f 76/76/76 69/69/69 71/71/71
f 72/72/72 76/76/76 71/71/71
f 74/74/74 69/69/69 76/76/76
f 20/20/20 77/77/77 72/72/72
f 72/72/72 77/77/77 76/76/76
f 73/73/73 67/67/67 78/78/78
f 67/67/67 65/65/65 78/78/78
f 32/32/32 73/73/73 79/79/79
f 79/79/79 73/73/73 78/78/78
f 32/32/32 79/79/79 33/33/33
f 74/74/74 80/80/80 75/75/75
f 80/80/80 81/81/81 75/75/75
f 82/82/82 74/74/74 76/76/76
f 77/77/77 82/82/82 76/76/76
f 80/80/80 74/74/74 82/82/82
f 83/83/83 77/77/77 20/20/20
f 77/77/77 83/83/83 82/82/82
f 24/24/24 83/83/83 20/20/20
f 80/80/80 84/84/84 81/81/81
f 84/84/84 85/85/85 81/81/81
f 86/86/86 80/80/80 82/82/82
f 83/83/83 86/86/86 82/82/82
f 84/84/84 80/80/80 86/86/86
f 24/24/24 87/87/87 83/83/83
f 83/83/83 87/87/87 86/86/86
f 84/84/84 88/88/88 85/85/85
f 88/88/88 89/89/89 85/85/85
f 90/90/90 84/84/84 86/86/86
f 87/87/87 90/90/90 86/86/86
f 88/88/88 84/84/84 90/90/90
f 91/91/91 87/87/87 24/24/24
f 87/87/87 91/91/91 90/90/90
f 33/33/33 91/91/91 24/24/24
f 88/88/88 92/92/92 89/89/89
f 92/92/92 93/93/93 89/89/89
f 94/94/94 88/88/88 90/90/90
f 91/91/91 94/94/94 90/90/90
f 92/92/92 88/88/88 94/94/94
f 33/33/33 95/95/95 91/91/91
f 91/91/91 95/95/95 94/94/94
f 79/79/79 95/95/95 33/33/33
f 95/95/95 96/96/96 94/94/94
f 95/95/95 79/79/79 96/96/96
f 96/96/96 92/92/92 94/94/94
f 79/79/79 78/78/78 96/96/96
f 92/92/92 97/97/97 93/93/93
f 97/97/97 92/92/92 96/96/96
f 78/78/78 97/97/97 96/96/96
f 97/97/97 66/66/66 93/93/93
f 65/65/65 97/97/97 78/78/78
f 97/97/97 65/65/65 66/66/66
