g febg_shop_001_minilight_01
v 0.11591506 -0.033426285 -0.058112502
v 0.11591506 -0.033426285 0.058116198
v 0.30885458 -0.033426285 0.058116198
v 0.30885458 -0.033426285 -0.058112502
v 0.11591506 0.06722641 -8.34465E-07
v 0.35076678 0.47136617 0.058116198
v 0.20819926 0.06722641 -8.34465E-07
v 0.11591506 -0.033426285 0.058116198
v 0.30885458 -0.033426285 0.058116198
v 0.35076678 0.47136617 -0.058112502
v 0.48589027 0.8466139 0.058116198
v 0.25011408 0.4772756 -8.34465E-07
v 0.35076678 0.47136617 0.058116198
v 0.48589027 0.8466139 -0.058112502
v 0.8186939 1.0565162 0.058116198
v 0.42300594 0.9259639 -8.34465E-07
v 0.48589027 0.8466139 0.058116198
v 0.8186939 1.0565162 -0.058112502
v 1.0941275 1.0565162 0.058116198
v 0.79579216 1.155199 -8.34465E-07
v 0.8186939 1.0565162 0.058116198
v 1.0941275 1.0565162 -0.058112502
v 1.3525636 0.9486613 0.058116198
v 1.1170293 1.155199 -8.34465E-07
v 1.0941275 1.0565162 0.058116198
v 1.3525636 0.9486613 -0.058112502
v 1.5382097 0.66483784 0.058116198
v 1.4154507 1.0280113 -8.34465E-07
v 1.3525636 0.9486613 0.058116198
v 1.5382097 0.66483784 -0.058112502
v 1.5620546 0.2931292 0.058116198
v 1.6288868 0.70997477 -8.34465E-07
v 1.5382097 0.66483784 0.058116198
v 1.5620546 0.2931292 -0.058112502
v 1.4734522 -0.14262211 0.058116198
v 1.6627073 0.28734326 -8.34465E-07
v 1.5620546 0.2931292 0.058116198
v 1.4734522 -0.14262211 -0.058112502
v 1.1965969 -0.67054737 0.058116198
v 1.1965969 -0.67054737 -0.058112502
v 1.5693482 -0.17513931 -8.34465E-07
v 1.4734522 -0.14262211 0.058116198
v 1.2806389 -0.7270735 -8.34465E-07
v 1.1965969 -0.67054737 0.058116198
v 0.88245976 -1.1030496 0.20772457
v 1.1004052 -1.2163383 0.20772457
v 1.209378 -1.2729826 -0.0049939156
v 0.773487 -1.0464026 -0.0049939156
v 0.88245976 -1.1030496 -0.21771789
v 1.1004052 -1.2163383 -0.21771789
v 0.88245976 -1.1030496 -0.21771789
v 0.92076546 -0.76307076 -0.0049939156
v 0.773487 -1.0464026 -0.0049939156
v 1.0297382 -0.8197151 -0.21771789
v 1.1004052 -1.2163383 -0.21771789
v 1.1386089 -0.60913837 -0.0049939156
v 1.2476838 -0.9330038 -0.21771789
v 1.209378 -1.2729826 -0.0049939156
v 1.1933264 -0.63758147 -0.11180878
v 1.3566566 -0.9896481 -0.0049939156
v 1.1004052 -1.2163383 0.20772457
v 1.3027613 -0.69446766 -0.11180878
v 1.273985 -0.6161175 -0.0049939156
v 1.2476838 -0.9330038 0.20772457
v 0.88245976 -1.1030496 0.20772457
v 1.3574789 -0.72291076 -0.0049939156
v 1.1933264 -0.63758147 0.10181546
v 0.92076546 -0.76307076 -0.0049939156
v 1.3027613 -0.69446766 0.10181546
v 1.0297382 -0.8197151 0.20772457
v 0.773487 -1.0464026 -0.0049939156
v 7.069111E-05 -0.27604187 -8.34465E-07
v 0.11591506 -0.19515479 -0.18401289
v 7.069111E-05 -0.19515479 -0.18401289
v 0.11591506 -0.27604187 -8.34465E-07
v 7.069111E-05 -0.19515479 0.1840167
v 0.11591506 0.00012278557 -0.2602321
v 7.069111E-05 0.00012278557 -0.2602321
v 0.11591506 0.19540298 -0.18401289
v 7.069111E-05 0.19540298 -0.18401289
v 0.11591506 0.27629006 -8.34465E-07
v 7.069111E-05 0.27629006 -8.34465E-07
v 0.11591506 0.19540298 0.1840167
v 7.069111E-05 0.19540298 0.1840167
v 0.11591506 -0.19515479 0.1840167
v 7.069111E-05 0.00012278557 0.2602358
v 0.11591506 0.00012278557 0.2602358
vt 0.9662099 0.62875056
vt 0.966225 0.62425333
vt 0.96171266 0.62425333
vt 0.9614401 0.62875056
vt 0.9662099 0.63359606
vt 0.9311708 0.62425333
vt 0.9614401 0.63359606
vt 0.966225 0.6375028
vt 0.96171266 0.6375028
vt 0.9308831 0.62875056
vt 0.91680086 0.62425333
vt 0.93089825 0.63359606
vt 0.9311708 0.6375028
vt 0.91680086 0.62875056
vt 0.9023855 0.62425333
vt 0.91680086 0.63359606
vt 0.91680086 0.6375028
vt 0.9023855 0.62875056
vt 0.89087737 0.62425333
vt 0.9023855 0.63359606
vt 0.9023855 0.6375028
vt 0.89087737 0.62875056
vt 0.87827903 0.62425333
vt 0.89087737 0.63359606
vt 0.89087737 0.6375028
vt 0.87827903 0.62875056
vt 0.8634397 0.62425333
vt 0.87827903 0.63359606
vt 0.87827903 0.6375028
vt 0.8634397 0.62875056
vt 0.8479038 0.62425333
vt 0.8634397 0.63359606
vt 0.8634397 0.6375028
vt 0.8479038 0.62875056
vt 0.8397421 0.62425333
vt 0.8479038 0.63359606
vt 0.8479038 0.6375028
vt 0.8397421 0.62875056
vt 0.83410925 0.62425333
vt 0.83410925 0.62875056
vt 0.8397421 0.63359606
vt 0.8397421 0.6375028
vt 0.83410925 0.63359606
vt 0.83410925 0.6375028
vt 0.05466392 0.3277537
vt 0.05466392 0.3158822
vt 0.04438236 0.3099313
vt 0.04438236 0.33368945
vt 0.034085657 0.3277537
vt 0.034085657 0.3158822
vt 0.002514147 0.29731786
vt 0.03246544 0.31271747
vt 0.0057848645 0.31701788
vt 0.027029386 0.29477397
vt 0.002514147 0.27596733
vt 0.050954077 0.29925606
vt 0.027029386 0.27755725
vt 0.0057848645 0.25413227
vt 0.044715486 0.29067042
vt 0.03246544 0.2595986
vt 0.002514147 0.27596733
vt 0.044715486 0.2821302
vt 0.055421032 0.2867486
vt 0.027029386 0.27755725
vt 0.002514147 0.29731786
vt 0.050954077 0.27384743
vt 0.044715486 0.29067042
vt 0.03246544 0.31271747
vt 0.044715486 0.2821302
vt 0.027029386 0.29477397
vt 0.0057848645 0.31701788
vt 0.017853206 0.31807783
vt 0.024576347 0.32645148
vt 0.028589033 0.32225707
vt 0.017853206 0.32389244
vt 0.0070719523 0.32225707
vt 0.02754422 0.33376515
vt 0.03329826 0.33376515
vt 0.024576347 0.34119996
vt 0.028589033 0.34539437
vt 0.017853206 0.3440467
vt 0.017853206 0.34996733
vt 0.011084639 0.34119996
vt 0.0070719523 0.34539437
vt 0.011084639 0.32645148
vt 0.0023627249 0.33376515
vt 0.008116765 0.33376515
vn -0.0009775162 -0.499511 -0.866307
vn -0.0009775162 -0.499511 0.866307
vn 0.49169087 -0.5405667 0.68266225
vn 0.49169087 -0.5405667 -0.68266225
vn -0.0009775162 0.9999995 -0
vn 0.4310848 -0.07917887 0.8988307
vn -0.6492624 0.7605645 -0
vn -0.0009775162 -0.499511 0.866307
vn 0.49169087 -0.5405667 0.68266225
vn 0.4310848 -0.07917887 -0.8988307
vn 0.25122178 -0.22580636 0.94122213
vn -0.97639364 0.215999 -0
vn 0.4310848 -0.07917887 0.8988307
vn 0.25122178 -0.22580636 -0.94122213
vn 0.100684226 -0.35679358 0.92874163
vn -0.74972373 0.661751 -0
vn 0.25122178 -0.22580636 0.94122213
vn 0.100684226 -0.35679358 -0.92874163
vn -0.08113384 -0.40175933 0.91214406
vn -0.26686203 0.9628539 -0.041194707
vn 0.100684226 -0.35679358 0.92874163
vn -0.08113384 -0.40175933 -0.91214406
vn -0.22971642 -0.27859223 0.9325324
vn 0.20234597 0.97849417 -0.040066592
vn -0.08113384 -0.40175933 0.91214406
vn -0.22971642 -0.27859223 -0.9325324
vn -0.35679352 -0.12609965 0.92563343
vn 0.6363633 0.7712606 -0.014098989
vn -0.22971642 -0.27859223 0.9325324
vn -0.35874856 -0.12609965 -0.92487746
vn -0.43694997 0.032258034 0.89890724
vn 0.9393935 0.34115326 -0.033974603
vn -0.35679352 -0.12609965 0.92563343
vn -0.43694997 0.032258034 -0.89890724
vn -0.41348958 0.14760506 0.89846486
vn 0.9980445 -0.06158358 -0.010708246
vn -0.43694997 0.032258034 0.89890724
vn -0.41348958 0.14760506 -0.89846486
vn -0.40371442 0.21212113 0.8899547
vn -0.40371442 0.21212113 -0.8899547
vn 0.942864 -0.33317786 -0
vn -0.41348958 0.14760506 0.89846486
vn 0.88586974 -0.463934 -0
vn -0.40371442 0.21212113 0.8899547
vn -0.6324533 -0.3587486 0.68651456
vn 0.06940371 -0.72433984 0.68594086
vn 0.42130965 -0.9061579 -0.037094917
vn -0.98435926 -0.17497545 -0.020504724
vn -0.6324533 -0.3587486 -0.68651456
vn 0.06940371 -0.72433984 -0.68594086
vn -0.6324533 -0.3587486 -0.68651456
vn -0.7633121 0.6460299 -0
vn -0.98435926 -0.17497545 -0.020504724
vn -0.3313781 0.4213097 -0.84420776
vn 0.06940371 -0.72433984 -0.68594086
vn -0.34307685 0.9393074 -0
vn 0.5347016 -0.030303001 -0.84449744
vn 0.42130965 -0.9061579 -0.037094917
vn -0.016617775 0.7693056 -0.63866484
vn 0.966764 -0.25513184 -0.01658742
vn 0.06940371 -0.72433984 0.68594086
vn 0.63831836 0.42912984 -0.63905966
vn 0.46041036 0.88660765 -0.04414897
vn 0.5347016 -0.030303001 0.84449744
vn -0.6324533 -0.3587486 0.68651456
vn 0.96641314 0.2569936 -0
vn -0.016617775 0.7693056 0.63866484
vn -0.7633121 0.6460299 -0
vn 0.63831836 0.42912984 0.63905966
vn -0.3313781 0.4213097 0.84420776
vn -0.98435926 -0.17497545 -0.020504724
vn -0.0009775162 -0.9999995 -0
vn 0.63049823 -0.5366566 -0.5607777
vn -0.0009775162 -0.6930593 -0.72087985
vn 0.62658817 -0.77908075 -0.02050636
vn -0.0009775162 -0.6930593 0.72087985
vn 0.6344083 0.0009775162 -0.7729975
vn -0.0009775162 0.0009775162 -0.99999905
vn 0.63049823 0.5366566 -0.5607777
vn -0.0009775162 0.6930593 -0.72087985
vn 0.62658817 0.77908075 -0.02050636
vn -0.0009775162 0.9999995 -0
vn 0.63049823 0.5366566 0.5607777
vn -0.0009775162 0.6930593 0.72087985
vn 0.63049823 -0.5366566 0.5607777
vn -0.0009775162 0.0009775162 0.99999905
vn 0.6344083 0.0009775162 0.7729975
g febg_shop_001_minilight_01_0
f 3/3/3 2/2/2 1/1/1
f 4/4/4 3/3/3 1/1/1
f 4/4/4 1/1/1 5/5/5
f 6/6/6 3/3/3 4/4/4
f 7/7/7 4/4/4 5/5/5
f 7/7/7 5/5/5 8/8/8
f 9/9/9 7/7/7 8/8/8
f 10/10/10 6/6/6 4/4/4
f 10/10/10 4/4/4 7/7/7
f 11/11/11 6/6/6 10/10/10
f 12/12/12 7/7/7 9/9/9
f 12/12/12 10/10/10 7/7/7
f 13/13/13 12/12/12 9/9/9
f 14/14/14 11/11/11 10/10/10
f 14/14/14 10/10/10 12/12/12
f 15/15/15 11/11/11 14/14/14
f 16/16/16 12/12/12 13/13/13
f 16/16/16 14/14/14 12/12/12
f 17/17/17 16/16/16 13/13/13
f 18/18/18 15/15/15 14/14/14
f 18/18/18 14/14/14 16/16/16
f 19/19/19 15/15/15 18/18/18
f 20/20/20 16/16/16 17/17/17
f 20/20/20 18/18/18 16/16/16
f 21/21/21 20/20/20 17/17/17
f 22/22/22 19/19/19 18/18/18
f 22/22/22 18/18/18 20/20/20
f 23/23/23 19/19/19 22/22/22
f 24/24/24 20/20/20 21/21/21
f 24/24/24 22/22/22 20/20/20
f 25/25/25 24/24/24 21/21/21
f 26/26/26 23/23/23 22/22/22
f 26/26/26 22/22/22 24/24/24
f 27/27/27 23/23/23 26/26/26
f 28/28/28 24/24/24 25/25/25
f 28/28/28 26/26/26 24/24/24
f 29/29/29 28/28/28 25/25/25
f 30/30/30 27/27/27 26/26/26
f 30/30/30 26/26/26 28/28/28
f 31/31/31 27/27/27 30/30/30
f 32/32/32 28/28/28 29/29/29
f 32/32/32 30/30/30 28/28/28
f 33/33/33 32/32/32 29/29/29
f 34/34/34 31/31/31 30/30/30
f 34/34/34 30/30/30 32/32/32
f 35/35/35 31/31/31 34/34/34
f 36/36/36 32/32/32 33/33/33
f 36/36/36 34/34/34 32/32/32
f 37/37/37 36/36/36 33/33/33
f 38/38/38 35/35/35 34/34/34
f 38/38/38 34/34/34 36/36/36
f 39/39/39 35/35/35 38/38/38
f 40/40/40 39/39/39 38/38/38
f 41/41/41 36/36/36 37/37/37
f 41/41/41 38/38/38 36/36/36
f 40/40/40 38/38/38 41/41/41
f 42/42/42 41/41/41 37/37/37
f 43/43/43 40/40/40 41/41/41
f 43/43/43 41/41/41 42/42/42
f 44/44/44 43/43/43 42/42/42
f 47/47/47 46/46/46 45/45/45
f 48/48/48 47/47/47 45/45/45
f 47/47/47 48/48/48 49/49/49
f 50/50/50 47/47/47 49/49/49
f 53/53/53 52/52/52 51/51/51
f 52/52/52 54/54/54 51/51/51
f 51/51/51 54/54/54 55/55/55
f 52/52/52 56/56/56 54/54/54
f 54/54/54 57/57/57 55/55/55
f 55/55/55 57/57/57 58/58/58
f 56/56/56 59/59/59 54/54/54
f 54/54/54 59/59/59 57/57/57
f 57/57/57 60/60/60 58/58/58
f 58/58/58 60/60/60 61/61/61
f 59/59/59 62/62/62 57/57/57
f 57/57/57 62/62/62 60/60/60
f 56/56/56 63/63/63 59/59/59
f 59/59/59 63/63/63 62/62/62
f 60/60/60 64/64/64 61/61/61
f 61/61/61 64/64/64 65/65/65
f 62/62/62 66/66/66 60/60/60
f 62/62/62 63/63/63 66/66/66
f 60/60/60 66/66/66 64/64/64
f 67/67/67 63/63/63 56/56/56
f 67/67/67 56/56/56 68/68/68
f 66/66/66 63/63/63 69/69/69
f 66/66/66 69/69/69 64/64/64
f 69/69/69 63/63/63 67/67/67
f 64/64/64 70/70/70 65/65/65
f 64/64/64 69/69/69 70/70/70
f 69/69/69 67/67/67 70/70/70
f 70/70/70 67/67/67 68/68/68
f 65/65/65 70/70/70 71/71/71
f 70/70/70 68/68/68 71/71/71
f 74/74/74 73/73/73 72/72/72
f 73/73/73 75/75/75 72/72/72
f 72/72/72 75/75/75 76/76/76
f 77/77/77 73/73/73 74/74/74
f 78/78/78 77/77/77 74/74/74
f 77/77/77 79/79/79 73/73/73
f 79/79/79 77/77/77 78/78/78
f 75/75/75 73/73/73 79/79/79
f 80/80/80 79/79/79 78/78/78
f 81/81/81 79/79/79 80/80/80
f 81/81/81 75/75/75 79/79/79
f 82/82/82 81/81/81 80/80/80
f 83/83/83 81/81/81 82/82/82
f 75/75/75 81/81/81 83/83/83
f 84/84/84 83/83/83 82/82/82
f 75/75/75 85/85/85 76/76/76
f 85/85/85 75/75/75 83/83/83
f 76/76/76 85/85/85 86/86/86
f 87/87/87 83/83/83 84/84/84
f 86/86/86 87/87/87 84/84/84
f 85/85/85 87/87/87 86/86/86
f 87/87/87 85/85/85 83/83/83
