g febg_hotspring_01_ornament_03
v -2.682209E-07 0.0019869506 2.682209E-07
v -0.1707921 0.10203025 0.17078525
v -2.682209E-07 0.10203025 0.2415269
v -0.24153179 0.34355688 0.2415269
v -2.682209E-07 0.34355783 0.34157115
v -0.1707921 0.58508444 0.17078525
v 0.1707837 0.10203025 0.17078525
v 0.2415234 0.10203025 2.682209E-07
v 0.1707837 0.10203025 -0.17078567
v 0.2415234 0.34355783 0.2415269
v -2.682209E-07 0.58508444 0.2415269
v -2.682209E-07 0.68512774 2.682209E-07
v 0.34156767 0.34355783 2.682209E-07
v 0.1707837 0.58508444 0.17078525
v 0.2415234 0.58508444 2.682209E-07
v 0.2415234 0.34355688 -0.24152732
v -0.24153179 0.5850835 2.682209E-07
v -0.24153179 0.34355688 0.2415269
v -0.34156823 0.34355688 2.682209E-07
v -0.1707921 0.10203025 0.17078525
v -2.682209E-07 0.10203025 -0.24152634
v -2.682209E-07 0.0019869506 2.682209E-07
v 0.1707837 0.58508444 -0.17078567
v -0.1707921 0.5850835 -0.17078567
v -0.24153179 0.10203025 2.682209E-07
v -0.1707921 0.10203025 -0.17078468
v -2.682209E-07 0.34355688 -0.34157062
v -2.682209E-07 0.58508444 -0.24152732
v -0.24153179 0.34355688 -0.24152732
vt 0.07168837 0.8264071
vt 0.080987066 0.83723015
vt 0.07168837 0.83723015
vt 0.08484374 0.85038555
vt 0.07168837 0.85038555
vt 0.080987066 0.86355615
vt 0.062374435 0.83723015
vt 0.053350125 0.8347454
vt 0.062374435 0.83723015
vt 0.058533005 0.85038555
vt 0.07168837 0.86355615
vt 0.07168837 0.8757664
vt 0.046810552 0.85038555
vt 0.062374435 0.86355615
vt 0.053350125 0.8649433
vt 0.058533005 0.85038555
vt 0.08902053 0.8649433
vt 0.08484374 0.85038555
vt 0.09597169 0.85038555
vt 0.080987066 0.83723015
vt 0.07168837 0.83723015
vt 0.07168837 0.8264071
vt 0.062374435 0.86355615
vt 0.080987066 0.86355615
vt 0.08902053 0.8347454
vt 0.080987066 0.83723015
vt 0.07168837 0.85038555
vt 0.07168837 0.86355615
vt 0.08484374 0.85038555
vn -0.0009775162 -0.9999995 -0
vn -0.5288365 -0.66373384 0.52895117
vn -0.0009775162 -0.66373384 0.7479682
vn -0.70674455 0.0009775162 0.70746815
vn -0.0009775162 0.0009775162 0.99999905
vn -0.5288365 0.66373384 0.52895117
vn 0.5288365 -0.66373384 0.52895117
vn 0.74780023 -0.66373384 -0.015881343
vn 0.5288365 -0.66373384 -0.52895117
vn 0.70674455 0.0009775162 0.70746815
vn -0.0009775162 0.66373384 0.7479682
vn -0.0009775162 0.9999995 -0
vn 0.9999995 0.0009775162 -0
vn 0.5288365 0.66373384 0.52895117
vn 0.74780023 0.66373384 -0.015881343
vn 0.70674455 0.0009775162 -0.70746815
vn -0.74780023 0.66373384 -0.015881343
vn -0.70674455 0.0009775162 0.70746815
vn -0.9999995 0.0009775162 -0
vn -0.5288365 -0.66373384 0.52895117
vn -0.0009775162 -0.66373384 -0.7479682
vn -0.0009775162 -0.9999995 -0
vn 0.5288365 0.66373384 -0.52895117
vn -0.5288365 0.66373384 -0.52895117
vn -0.74780023 -0.66373384 -0.015881343
vn -0.5288365 -0.66373384 -0.52895117
vn -0.0009775162 0.0009775162 -0.99999905
vn -0.0009775162 0.66373384 -0.7479682
vn -0.70674455 0.0009775162 -0.70746815
g febg_hotspring_01_ornament_03_0
f 3/3/3 2/2/2 1/1/1
f 4/4/4 2/2/2 3/3/3
f 5/5/5 4/4/4 3/3/3
f 6/6/6 4/4/4 5/5/5
f 7/7/7 3/3/3 1/1/1
f 5/5/5 3/3/3 7/7/7
f 8/8/8 7/7/7 1/1/1
f 9/9/9 8/8/8 1/1/1
f 10/10/10 5/5/5 7/7/7
f 10/10/10 7/7/7 8/8/8
f 11/11/11 6/6/6 5/5/5
f 11/11/11 5/5/5 10/10/10
f 6/6/6 11/11/11 12/12/12
f 13/13/13 10/10/10 8/8/8
f 13/13/13 8/8/8 9/9/9
f 14/14/14 11/11/11 10/10/10
f 11/11/11 14/14/14 12/12/12
f 14/14/14 10/10/10 13/13/13
f 15/15/15 14/14/14 13/13/13
f 14/14/14 15/15/15 12/12/12
f 16/16/16 13/13/13 9/9/9
f 15/15/15 13/13/13 16/16/16
f 17/17/17 6/6/6 12/12/12
f 6/6/6 17/17/17 18/18/18
f 17/17/17 19/19/19 18/18/18
f 18/18/18 19/19/19 20/20/20
f 16/16/16 9/9/9 21/21/21
f 21/21/21 9/9/9 22/22/22
f 23/23/23 15/15/15 16/16/16
f 15/15/15 23/23/23 12/12/12
f 24/24/24 17/17/17 12/12/12
f 17/17/17 24/24/24 19/19/19
f 20/20/20 25/25/25 22/22/22
f 19/19/19 25/25/25 20/20/20
f 26/26/26 21/21/21 22/22/22
f 25/25/25 26/26/26 22/22/22
f 27/27/27 16/16/16 21/21/21
f 23/23/23 16/16/16 27/27/27
f 27/27/27 21/21/21 26/26/26
f 23/23/23 28/28/28 12/12/12
f 28/28/28 24/24/24 12/12/12
f 28/28/28 23/23/23 27/27/27
f 19/19/19 29/29/29 25/25/25
f 29/29/29 26/26/26 25/25/25
f 24/24/24 29/29/29 19/19/19
f 29/29/29 27/27/27 26/26/26
f 28/28/28 27/27/27 29/29/29
f 24/24/24 28/28/28 29/29/29
