g febg_coinrush_001_coin_chair_02
v 0.46639538 1.094975 0.42846608
v 0.46639305 1.094975 -0.43466195
v -0.4663995 1.094975 -0.43466428
v -0.46640182 1.094975 0.42846608
v 0.46639538 1.094975 0.42846608
v 0.46639305 1.2347347 -0.43466195
v 0.46639305 1.094975 -0.43466195
v 0.46639305 1.2348953 0.3087964
v 0.46639538 1.9424481 0.34212697
v 0.46639538 1.9424388 0.42630547
v 0.46639538 1.911313 0.46394324
v 0.46639305 1.094975 -0.43466195
v -0.4663995 1.2347347 -0.43466428
v -0.4663995 1.094975 -0.43466428
v 0.46639305 1.2347347 -0.43466195
v 0.42623618 1.2656742 -0.39450744
v 0.42623618 1.2656742 0.27933997
v 0.46639305 1.2348953 0.3087964
v 0.42623618 1.8978164 0.3107428
v 0.46639538 1.9424481 0.34212697
v -0.42624032 1.2656742 -0.39450744
v -0.46640182 1.2348953 0.3087964
v -0.4663995 1.094975 -0.43466428
v -0.46640182 1.094975 0.42846608
v -0.42624265 1.2656742 0.27933997
v -0.4663995 1.9424481 0.34212697
v -0.4663995 1.9424412 0.42630547
v -0.4663995 1.911313 0.46394324
v -0.42624032 1.8978164 0.3107404
v -0.38895875 1.9350748 0.31205124
v -0.42911798 1.974901 0.3441199
v -0.4663995 1.9424412 0.42630547
v -0.42911798 1.9748917 0.42674553
v -0.4663995 1.911313 0.46394324
v 0.4291162 1.974901 0.34412223
v 0.38895467 1.9350748 0.31205356
v 0.42911386 1.9748917 0.42674553
v 0.46639538 1.9424388 0.42630547
v 0.42911386 1.9485598 0.46556133
v 0.46639538 1.911313 0.46394324
v 0.46639538 1.094975 0.42846608
v -0.46640182 1.094975 0.42846608
v -0.42911798 1.9485598 0.46556133
v 0.32403505 0.002311647 -0.46556187
v 0.32403505 0.002311647 -0.36328855
v 0.42694396 0.002311647 -0.36328855
v 0.42694396 0.002311647 -0.46556187
v 0.42694396 1.1159683 -0.39181602
v 0.32403505 1.1159683 -0.39181602
v 0.42694396 1.1159683 -0.28954732
v 0.42694396 0.002311647 -0.36328855
v 0.32403505 1.1159683 -0.28954732
v 0.32403505 0.002311647 -0.36328855
v 0.32403505 0.002311647 -0.36328855
v 0.32403505 0.002311647 -0.46556187
v 0.32403505 1.1159683 -0.39181602
v 0.32403505 1.1159683 -0.28954732
v 0.3240327 0.002311647 0.34001064
v 0.3240327 0.002311647 0.4422816
v 0.42694163 0.002311647 0.4422816
v 0.42694163 0.002311647 0.34001064
v 0.42694396 1.1159683 0.2793516
v 0.32403505 1.1159683 0.2793516
v 0.42694396 1.1159683 0.3816226
v 0.42694163 0.002311647 0.4422816
v 0.32403505 1.1159683 0.3816226
v 0.3240327 0.002311647 0.4422816
v 0.3240327 0.002311647 0.4422816
v 0.3240327 0.002311647 0.34001064
v 0.32403505 1.1159683 0.2793516
v 0.32403505 1.1159683 0.3816226
v 0.3388983 0.7786232 0.30419117
v 0.41207373 0.7784859 -0.3170993
v 0.3388983 0.7784859 -0.3170993
v 0.4120714 0.7786232 0.30419117
v 0.41207373 0.851212 -0.3126827
v 0.4120714 0.85134006 0.30018437
v 0.3388983 0.851212 -0.3126827
v 0.33889595 0.85134006 0.30018437
v 0.33889595 0.85134006 0.30018437
v 0.3388983 0.7786232 0.30419117
v 0.3388983 0.7784859 -0.3170993
v 0.3388983 0.851212 -0.3126827
v -0.330167 0.002311647 -0.46556187
v -0.4330759 0.002311647 -0.36328855
v -0.330167 0.002311647 -0.36328855
v -0.4330759 0.002311647 -0.46556187
v -0.43307358 1.1159683 -0.39181602
v -0.33016467 1.1159683 -0.39181602
v -0.43307358 1.1159683 -0.28954732
v -0.4330759 0.002311647 -0.36328855
v -0.33016467 1.1159683 -0.28954732
v -0.330167 0.002311647 -0.36328855
v -0.330167 0.002311647 -0.36328855
v -0.33016467 1.1159683 -0.28954732
v -0.33016467 1.1159683 -0.39181602
v -0.330167 0.002311647 -0.46556187
v -0.330167 0.002311647 0.34001064
v -0.43307358 0.002311647 0.4422816
v -0.330167 0.002311647 0.4422816
v -0.43307358 0.002311647 0.34001064
v -0.4330759 1.1159683 0.2793516
v -0.330167 1.1159683 0.2793516
v -0.4330759 1.1159683 0.3816226
v -0.43307358 0.002311647 0.4422816
v -0.330167 1.1159683 0.3816226
v -0.330167 0.002311647 0.4422816
v -0.330167 0.002311647 0.4422816
v -0.330167 1.1159683 0.3816226
v -0.330167 1.1159683 0.2793516
v -0.330167 0.002311647 0.34001064
v -0.34503025 0.7786232 0.30419117
v -0.34503025 0.7784859 -0.3170993
v -0.41820568 0.7784859 -0.3170993
v -0.41820335 0.7786232 0.30419117
v -0.41820568 0.851212 -0.3126827
v -0.41820335 0.85134006 0.30018437
v -0.34503025 0.851212 -0.3126827
v -0.34502792 0.85134006 0.30018437
v -0.34502792 0.85134006 0.30018437
v -0.34503025 0.851212 -0.3126827
v -0.34503025 0.7784859 -0.3170993
v -0.34503025 0.7786232 0.30419117
vt 0.7500505 0.38330922
vt 0.7500505 0.39483392
vt 0.7620156 0.39483392
vt 0.7620156 0.38330922
vt 0.83980364 0.35600823
vt 0.8321964 0.31369016
vt 0.83980364 0.31369016
vt 0.8321964 0.35600823
vt 0.8321964 0.39750633
vt 0.8370857 0.39750633
vt 0.83980364 0.3959272
vt 0.7759394 0.30577925
vt 0.8321964 0.31369016
vt 0.8321964 0.30577925
vt 0.7759394 0.31369016
vt 0.77852064 0.31672698
vt 0.77852064 0.35600823
vt 0.7759394 0.35600823
vt 0.77852064 0.39446953
vt 0.7759394 0.39738485
vt 0.8290685 0.31672698
vt 0.8321964 0.35600823
vt 0.83980364 0.31369016
vt 0.83980364 0.35600823
vt 0.8290685 0.35600823
vt 0.8321964 0.39750633
vt 0.8370857 0.39750633
vt 0.83980364 0.3959272
vt 0.8290685 0.39446953
vt 0.8277171 0.39671677
vt 0.82984287 0.39978394
vt 0.8321964 0.4057665
vt 0.82984287 0.4047036
vt 0.8321964 0.40919808
vt 0.77845997 0.39978394
vt 0.78055537 0.39671677
vt 0.77845997 0.4047036
vt 0.7759394 0.4057665
vt 0.77845997 0.40749747
vt 0.7759394 0.40919808
vt 0.7759394 0.4584401
vt 0.8321964 0.4584401
vt 0.82984287 0.40749747
vt 0.77165747 0.38203374
vt 0.77165747 0.39006615
vt 0.763944 0.39006615
vt 0.763944 0.38203374
vt 0.763944 0.30543002
vt 0.77165747 0.30543002
vt 0.7570048 0.30543002
vt 0.7570048 0.38203374
vt 0.7500505 0.30543002
vt 0.7500505 0.38203374
vt 0.7570048 0.38203374
vt 0.763944 0.38203374
vt 0.763944 0.30543002
vt 0.7570048 0.30543002
vt 0.77165747 0.38203374
vt 0.77165747 0.39006615
vt 0.763944 0.39006615
vt 0.763944 0.38203374
vt 0.763944 0.30543002
vt 0.77165747 0.30543002
vt 0.7570048 0.30543002
vt 0.7570048 0.38203374
vt 0.7500505 0.30543002
vt 0.7500505 0.38203374
vt 0.7570048 0.38203374
vt 0.763944 0.38203374
vt 0.763944 0.30543002
vt 0.7570048 0.30543002
vt 0.50698364 0.5343301
vt 0.54483753 0.5299875
vt 0.54483753 0.5343301
vt 0.50698364 0.5299875
vt 0.54457945 0.52555376
vt 0.5072266 0.52555376
vt 0.5446098 0.52098334
vt 0.5072569 0.52098334
vt 0.5072266 0.52555376
vt 0.50698364 0.5299875
vt 0.54483753 0.5299875
vt 0.54457945 0.52555376
vt 0.77165747 0.38203374
vt 0.763944 0.39006615
vt 0.77165747 0.39006615
vt 0.763944 0.38203374
vt 0.763944 0.30543002
vt 0.77165747 0.30543002
vt 0.7570048 0.30543002
vt 0.7570048 0.38203374
vt 0.7500505 0.30543002
vt 0.7500505 0.38203374
vt 0.7570048 0.38203374
vt 0.7570048 0.30543002
vt 0.763944 0.30543002
vt 0.763944 0.38203374
vt 0.77165747 0.38203374
vt 0.763944 0.39006615
vt 0.77165747 0.39006615
vt 0.763944 0.38203374
vt 0.763944 0.30543002
vt 0.77165747 0.30543002
vt 0.7570048 0.30543002
vt 0.7570048 0.38203374
vt 0.7500505 0.30543002
vt 0.7500505 0.38203374
vt 0.7570048 0.38203374
vt 0.7570048 0.30543002
vt 0.763944 0.30543002
vt 0.763944 0.38203374
vt 0.50698364 0.5343301
vt 0.54483753 0.5343301
vt 0.54483753 0.5299875
vt 0.50698364 0.5299875
vt 0.54457945 0.52555376
vt 0.5072266 0.52555376
vt 0.5446098 0.52098334
vt 0.5072569 0.52098334
vt 0.5072266 0.52555376
vt 0.54457945 0.52555376
vt 0.54483753 0.5299875
vt 0.50698364 0.5299875
vn 0.57953775 -0.58911693 0.5630961
vn 0.57762194 -0.57762194 -0.57680655
vn -0.57762295 -0.57762194 -0.57680553
vn -0.57953876 -0.58911693 0.5630951
vn 0.57953775 -0.58911693 0.5630961
vn 0.63892853 0.4301042 -0.6377936
vn 0.57762194 -0.57762194 -0.57680655
vn 0.9799461 0.14272982 -0.13904637
vn 0.79985815 0.3937034 -0.45301718
vn 0.8726596 0.4569258 0.17229043
vn 0.700235 0.14847726 0.69830185
vn 0.57762194 -0.57762194 -0.57680655
vn -0.63892955 0.4301042 -0.6377926
vn -0.57762295 -0.57762194 -0.57680553
vn 0.63892853 0.4301042 -0.6377936
vn 0.2500152 0.935883 -0.24822451
vn 0.47416717 0.63701373 -0.6077656
vn 0.9799461 0.14272982 -0.13904637
vn 0.31515336 0.1274032 -0.9404503
vn 0.79985815 0.3937034 -0.45301718
vn -0.25001615 0.935883 -0.24822354
vn -0.97994715 0.14272982 -0.13903888
vn -0.57762295 -0.57762194 -0.57680553
vn -0.57953876 -0.58911693 0.5630951
vn -0.47416824 0.63701373 -0.6077648
vn -0.7998591 0.3937034 -0.45301554
vn -0.8726607 0.4569258 0.1722849
vn -0.700236 0.14847726 0.69830084
vn -0.31515437 0.1274032 -0.94044995
vn -0.08142322 0.35155517 -0.9326196
vn -0.32664937 0.8324283 -0.44761965
vn -0.8726607 0.4569258 0.1722849
vn -0.330481 0.90331393 0.27350724
vn -0.700236 0.14847726 0.69830084
vn 0.32664835 0.8324283 -0.44762036
vn 0.08142221 0.35155517 -0.93261963
vn 0.33048004 0.90331393 0.27350843
vn 0.8726596 0.4569258 0.17229043
vn 0.2385202 0.48949486 0.8387508
vn 0.700235 0.14847726 0.69830185
vn 0.57953775 -0.58911693 0.5630961
vn -0.57953876 -0.58911693 0.5630951
vn -0.23852128 0.48949486 0.8387505
vn -0.5737913 -0.5603795 -0.59727573
vn -0.5814547 -0.5948644 0.55501956
vn 0.5814536 -0.5948644 0.55502075
vn 0.5737903 -0.5603795 -0.59727675
vn 0.7213092 0.045022547 -0.69114834
vn -0.7213102 0.045022547 -0.69114727
vn 0.6925717 -0.046937287 0.7198203
vn 0.5814536 -0.5948644 0.55502075
vn -0.6925728 -0.046937287 0.7198193
vn -0.5814547 -0.5948644 0.55501956
vn -0.5814547 -0.5948644 0.55501956
vn -0.5737913 -0.5603795 -0.59727573
vn -0.7213102 0.045022547 -0.69114727
vn -0.6925728 -0.046937287 0.7198193
vn -0.57953876 -0.59103274 -0.5610839
vn -0.5737913 -0.5622953 0.59547246
vn 0.5737903 -0.5622953 0.59547347
vn 0.57953775 -0.59103274 -0.5610849
vn 0.6944876 -0.039273977 -0.718432
vn -0.6944886 -0.039273977 -0.71843106
vn 0.7193933 0.037359178 0.69359756
vn 0.5737903 -0.5622953 0.59547347
vn -0.7193944 0.037359178 0.6935964
vn -0.5737913 -0.5622953 0.59547246
vn -0.5737913 -0.5622953 0.59547246
vn -0.57953876 -0.59103274 -0.5610839
vn -0.6944886 -0.039273977 -0.71843106
vn -0.7193944 0.037359178 0.6935964
vn -0.6944886 -0.7193933 0.012603427
vn 0.6925717 -0.7213092 0.007584094
vn -0.6925728 -0.7213092 0.00748521
vn 0.6944876 -0.7193933 0.012660051
vn 0.7203728 0.693587 -0
vn 0.7193933 0.6944886 -0.012603427
vn -0.7203733 0.6935865 -0
vn -0.7193944 0.6944886 -0.012541796
vn -0.7193944 0.6944886 -0.012541796
vn -0.6944886 -0.7193933 0.012603427
vn -0.6925728 -0.7213092 0.00748521
vn -0.7203733 0.6935865 -0
vn 0.5737903 -0.5603795 -0.59727675
vn -0.5814547 -0.5948644 0.55501956
vn 0.5814536 -0.5948644 0.55502075
vn -0.5737913 -0.5603795 -0.59727573
vn -0.7213102 0.045022547 -0.69114727
vn 0.7213092 0.045022547 -0.69114834
vn -0.6925728 -0.046937287 0.7198193
vn -0.5814547 -0.5948644 0.55501956
vn 0.6925717 -0.046937287 0.7198203
vn 0.5814536 -0.5948644 0.55502075
vn 0.5814536 -0.5948644 0.55502075
vn 0.6925717 -0.046937287 0.7198203
vn 0.7213092 0.045022547 -0.69114834
vn 0.5737903 -0.5603795 -0.59727675
vn 0.57953775 -0.59103274 -0.5610849
vn -0.5737913 -0.5622953 0.59547246
vn 0.5737903 -0.5622953 0.59547347
vn -0.57953876 -0.59103274 -0.5610839
vn -0.6944886 -0.039273977 -0.71843106
vn 0.6944876 -0.039273977 -0.718432
vn -0.7193944 0.037359178 0.6935964
vn -0.5737913 -0.5622953 0.59547246
vn 0.7193933 0.037359178 0.69359756
vn 0.5737903 -0.5622953 0.59547347
vn 0.5737903 -0.5622953 0.59547347
vn 0.7193933 0.037359178 0.69359756
vn 0.6944876 -0.039273977 -0.718432
vn 0.57953775 -0.59103274 -0.5610849
vn 0.6944876 -0.7193933 0.012660051
vn 0.6925717 -0.7213092 0.007584094
vn -0.6925728 -0.7213092 0.00748521
vn -0.6944886 -0.7193933 0.012603427
vn -0.7203733 0.6935865 -0
vn -0.7193944 0.6944886 -0.012541796
vn 0.7203728 0.693587 -0
vn 0.7193933 0.6944886 -0.012603427
vn 0.7193933 0.6944886 -0.012603427
vn 0.7203728 0.693587 -0
vn 0.6925717 -0.7213092 0.007584094
vn 0.6944876 -0.7193933 0.012660051
g febg_coinrush_001_coin_chair_02_0
f 3/3/3 2/2/2 1/1/1
f 4/4/4 3/3/3 1/1/1
f 7/7/7 6/6/6 5/5/5
f 6/6/6 8/8/8 5/5/5
f 9/9/9 5/5/5 8/8/8
f 10/10/10 5/5/5 9/9/9
f 10/10/10 11/11/11 5/5/5
f 14/14/14 13/13/13 12/12/12
f 13/13/13 15/15/15 12/12/12
f 15/15/15 13/13/13 16/16/16
f 15/15/15 16/16/16 17/17/17
f 18/18/18 15/15/15 17/17/17
f 17/17/17 19/19/19 18/18/18
f 19/19/19 20/20/20 18/18/18
f 13/13/13 21/21/21 16/16/16
f 16/16/16 21/21/21 17/17/17
f 13/13/13 22/22/22 21/21/21
f 22/22/22 13/13/13 23/23/23
f 24/24/24 22/22/22 23/23/23
f 21/21/21 25/25/25 17/17/17
f 22/22/22 25/25/25 21/21/21
f 19/19/19 17/17/17 25/25/25
f 24/24/24 26/26/26 22/22/22
f 22/22/22 26/26/26 25/25/25
f 27/27/27 26/26/26 24/24/24
f 28/28/28 27/27/27 24/24/24
f 29/29/29 19/19/19 25/25/25
f 26/26/26 29/29/29 25/25/25
f 29/29/29 26/26/26 30/30/30
f 19/19/19 29/29/29 30/30/30
f 26/26/26 31/31/31 30/30/30
f 26/26/26 32/32/32 31/31/31
f 32/32/32 33/33/33 31/31/31
f 32/32/32 34/34/34 33/33/33
f 30/30/30 31/31/31 35/35/35
f 35/35/35 31/31/31 33/33/33
f 36/36/36 19/19/19 30/30/30
f 36/36/36 30/30/30 35/35/35
f 19/19/19 36/36/36 35/35/35
f 20/20/20 19/19/19 35/35/35
f 20/20/20 35/35/35 37/37/37
f 37/37/37 35/35/35 33/33/33
f 38/38/38 20/20/20 37/37/37
f 38/38/38 37/37/37 39/39/39
f 39/39/39 37/37/37 33/33/33
f 40/40/40 38/38/38 39/39/39
f 34/34/34 40/40/40 39/39/39
f 40/40/40 34/34/34 41/41/41
f 34/34/34 42/42/42 41/41/41
f 43/43/43 39/39/39 33/33/33
f 34/34/34 43/43/43 33/33/33
f 43/43/43 34/34/34 39/39/39
f 46/46/46 45/45/45 44/44/44
f 47/47/47 46/46/46 44/44/44
f 48/48/48 47/47/47 44/44/44
f 49/49/49 48/48/48 44/44/44
f 48/48/48 50/50/50 47/47/47
f 50/50/50 51/51/51 47/47/47
f 50/50/50 52/52/52 51/51/51
f 52/52/52 53/53/53 51/51/51
f 56/56/56 55/55/55 54/54/54
f 57/57/57 56/56/56 54/54/54
f 60/60/60 59/59/59 58/58/58
f 61/61/61 60/60/60 58/58/58
f 62/62/62 61/61/61 58/58/58
f 63/63/63 62/62/62 58/58/58
f 62/62/62 64/64/64 61/61/61
f 64/64/64 65/65/65 61/61/61
f 64/64/64 66/66/66 65/65/65
f 66/66/66 67/67/67 65/65/65
f 70/70/70 69/69/69 68/68/68
f 71/71/71 70/70/70 68/68/68
f 74/74/74 73/73/73 72/72/72
f 73/73/73 75/75/75 72/72/72
f 73/73/73 76/76/76 75/75/75
f 76/76/76 77/77/77 75/75/75
f 76/76/76 78/78/78 77/77/77
f 78/78/78 79/79/79 77/77/77
f 82/82/82 81/81/81 80/80/80
f 83/83/83 82/82/82 80/80/80
f 86/86/86 85/85/85 84/84/84
f 85/85/85 87/87/87 84/84/84
f 87/87/87 88/88/88 84/84/84
f 88/88/88 89/89/89 84/84/84
f 90/90/90 88/88/88 87/87/87
f 91/91/91 90/90/90 87/87/87
f 92/92/92 90/90/90 91/91/91
f 93/93/93 92/92/92 91/91/91
f 96/96/96 95/95/95 94/94/94
f 97/97/97 96/96/96 94/94/94
f 100/100/100 99/99/99 98/98/98
f 99/99/99 101/101/101 98/98/98
f 101/101/101 102/102/102 98/98/98
f 102/102/102 103/103/103 98/98/98
f 104/104/104 102/102/102 101/101/101
f 105/105/105 104/104/104 101/101/101
f 106/106/106 104/104/104 105/105/105
f 107/107/107 106/106/106 105/105/105
f 110/110/110 109/109/109 108/108/108
f 111/111/111 110/110/110 108/108/108
f 114/114/114 113/113/113 112/112/112
f 115/115/115 114/114/114 112/112/112
f 116/116/116 114/114/114 115/115/115
f 117/117/117 116/116/116 115/115/115
f 118/118/118 116/116/116 117/117/117
f 119/119/119 118/118/118 117/117/117
f 122/122/122 121/121/121 120/120/120
f 123/123/123 122/122/122 120/120/120
