g febg_lostcity_001_building_05
v 1.1854936 -5.5909157E-05 0.9032887
v -1.185495 2.5237303 0.9032887
v 1.1854936 2.5237303 0.9032887
v -1.185495 -5.5909157E-05 0.9032887
v -1.185495 2.2389488 0.18438733
v -1.185495 -5.5909157E-05 0.18438733
v -1.185495 2.2389488 -0.9032873
v -1.185495 -5.5909157E-05 -0.9032873
v 0.41634363 2.2389488 -0.9032873
v 1.1854936 -5.5909157E-05 -0.9032873
v 1.1854936 2.5237303 -0.9032873
v 0.61769927 2.5237303 -0.9032873
v 1.1854936 -5.5909157E-05 -0.9032873
v 1.1854936 -5.5909157E-05 0.9032887
v 1.1854936 2.5237303 0.9032887
v 1.1854936 2.5237303 -0.9032873
v -1.076161 2.5237303 0.75356126
v -1.185495 2.5237303 0.9032887
v -1.185495 2.2389488 0.18438733
v 1.1854936 2.5237303 0.9032887
v -1.1271313 2.2389488 0.18427062
v -1.185495 2.2389488 -0.9032873
v -1.1271313 2.2389488 -0.8307176
v 0.41634363 2.2389488 -0.9032873
v 0.41588026 2.2389488 -0.8307176
v 0.61769927 2.5237303 -0.9032873
v 0.5592049 2.5070553 -0.07900703
v 0.4158767 2.102529 0.18426704
v 1.1854936 2.5237303 -0.9032873
v 0.69040334 2.3339067 0.44054425
v -0.06834316 2.3932285 0.45230615
v -0.7159941 2.353695 0.1454513
v -0.35467398 2.1496367 0.18427062
v -1.1271313 2.102529 0.18426704
v -1.1271313 2.102529 -0.8307176
v 0.41588026 2.102529 -0.8307141
vt 0.9474304 0.10088984
vt 0.88584495 0.17422089
vt 0.9474304 0.17422089
vt 0.88584495 0.10088984
vt 0.86836934 0.16578391
vt 0.86836934 0.10088984
vt 0.8411485 0.16578391
vt 0.8411485 0.10088984
vt 0.79439163 0.16578391
vt 0.7725247 0.10088984
vt 0.7725247 0.17355917
vt 0.78834593 0.17355917
vt 0.8411485 0.10088984
vt 0.86836934 0.10088984
vt 0.86836934 0.16578391
vt 0.8411485 0.16578391
vt 0.8478409 0.21757886
vt 0.8512999 0.22130857
vt 0.8513751 0.20414886
vt 0.7694868 0.22130857
vt 0.84952533 0.20414886
vt 0.8512999 0.17631134
vt 0.8494501 0.17811604
vt 0.80051255 0.17631134
vt 0.8005277 0.17811604
vt 0.7854433 0.17631134
vt 0.7872932 0.19683982
vt 0.8030542 0.20150197
vt 0.7694868 0.17631134
vt 0.79181993 0.20978856
vt 0.8158827 0.2100743
vt 0.8364111 0.20497602
vt 0.8249663 0.2033969
vt 0.8469235 0.20150197
vt 0.8469235 0.18002602
vt 0.8030542 0.18002602
vn 0.7071068 0.00043302774 0.7071066
vn -0.5744748 0.6295428 0.52312
vn 0.5452404 0.61786175 0.5665331
vn -0.7063042 0.00043302774 0.70790833
vn -0.80309033 0.5828184 -0.12397032
vn -0.9999999 0.0004330277 -0
vn -0.5778123 0.5778123 -0.5764251
vn -0.7063042 0.00043302774 -0.70790833
vn -0.2590856 0.49771345 -0.8277415
vn 0.7071068 0.00043302774 -0.7071066
vn 0.57527745 0.5811497 -0.5756048
vn -0.3475281 0.7029667 -0.6205337
vn 0.7071068 0.00043302774 -0.7071066
vn 0.7071068 0.00043302774 0.7071066
vn 0.5452404 0.61786175 0.5665331
vn 0.57527745 0.5811497 -0.5756048
vn -0.14894968 0.95995057 -0.23729502
vn -0.5744748 0.6295428 0.52312
vn -0.80309033 0.5828184 -0.12397032
vn 0.5452404 0.61786175 0.5665331
vn 0.11637777 0.8014215 -0.5866684
vn -0.5778123 0.5778123 -0.5764251
vn 0.3016064 0.90488255 0.3003684
vn -0.2590856 0.49771345 -0.8277415
vn -0.749691 0.6011745 0.27668145
vn -0.3475281 0.7029667 -0.6205337
vn -0.5811497 0.8064277 0.10926759
vn -0.3992586 0.8865266 -0.23380159
vn 0.57527745 0.5811497 -0.5756048
vn -0.38590872 0.91990113 -0.0696875
vn 0.06798476 0.85482085 -0.5144506
vn -0.010445416 0.5327567 -0.846204
vn 0.11804652 0.24573576 -0.96212214
vn 0.5769462 0.5778123 -0.57729197
vn 0.5769462 0.5778123 0.57729197
vn -0.5778123 0.5778123 0.5764251
g febg_lostcity_001_building_05_0
f 3/3/3 2/2/2 1/1/1
f 2/2/2 4/4/4 1/1/1
f 2/2/2 5/5/5 4/4/4
f 4/4/4 5/5/5 6/6/6
f 5/5/5 7/7/7 6/6/6
f 7/7/7 8/8/8 6/6/6
f 7/7/7 9/9/9 8/8/8
f 8/8/8 9/9/9 10/10/10
f 9/9/9 11/11/11 10/10/10
f 9/9/9 12/12/12 11/11/11
f 15/15/15 14/14/14 13/13/13
f 16/16/16 15/15/15 13/13/13
f 19/19/19 18/18/18 17/17/17
f 18/18/18 20/20/20 17/17/17
f 21/21/21 19/19/19 17/17/17
f 19/19/19 21/21/21 22/22/22
f 21/21/21 23/23/23 22/22/22
f 22/22/22 23/23/23 24/24/24
f 23/23/23 25/25/25 24/24/24
f 24/24/24 25/25/25 26/26/26
f 25/25/25 27/27/27 26/26/26
f 28/28/28 27/27/27 25/25/25
f 26/26/26 27/27/27 29/29/29
f 27/27/27 20/20/20 29/29/29
f 30/30/30 20/20/20 27/27/27
f 28/28/28 30/30/30 27/27/27
f 20/20/20 30/30/30 31/31/31
f 17/17/17 20/20/20 31/31/31
f 30/30/30 28/28/28 31/31/31
f 31/31/31 32/32/32 17/17/17
f 21/21/21 17/17/17 32/32/32
f 31/31/31 33/33/33 32/32/32
f 33/33/33 21/21/21 32/32/32
f 28/28/28 33/33/33 31/31/31
f 21/21/21 33/33/33 34/34/34
f 21/21/21 34/34/34 23/23/23
f 33/33/33 28/28/28 34/34/34
f 34/34/34 35/35/35 23/23/23
f 23/23/23 35/35/35 25/25/25
f 34/34/34 28/28/28 35/35/35
f 35/35/35 36/36/36 25/25/25
f 28/28/28 36/36/36 35/35/35
f 25/25/25 36/36/36 28/28/28
