g febg_shop_001_curry_02
v -0.0095719695 0.18163401 0.21889663
v -0.071260214 0.22885925 0.043464184
v -0.042430162 0.29901165 0.15135819
v -0.039345264 0.10850841 0.28139395
v -0.25056165 0.27737105 0.3582846
v -0.20845127 0.11675024 0.41538692
v -0.048988163 0.24426812 0.20799476
v 0.1685521 0.08148062 0.2628225
v -0.15880412 0.41576576 0.41538692
v 0.17359191 0.20731199 0.191957
v 0.2820516 0.09770781 0.19151366
v 0.004009664 0.36962855 0.28139395
v -0.02493614 0.3935398 0.5295929
v 0.24731082 0.19507223 0.15391558
v 0.31154597 0.10963321 0.095452964
v 0.20948642 0.3280207 0.2628225
v 0.06664908 0.3592279 0.4281937
v 0.017174304 0.23291767 0.5866965
v 0.28114122 0.18945485 0.10111374
v 0.29333365 0.18743157 -0.12641013
v 0.31165123 0.27598578 0.19151366
v 0.2403411 0.3228979 0.40455472
v 0.07629067 0.22346681 0.5015942
v -0.07458329 0.094524205 0.5295929
v 0.02329415 0.098107755 0.4281937
v 0.23530126 0.1970666 0.47542024
v 0.19940677 0.07635796 0.40455472
v 0.3357098 0.25516868 0.095452964
v 0.4107324 0.25953496 0.2667086
v 0.44547313 0.16217059 0.30430675
v 0.38113275 0.081256986 0.2667086
v 0.4206805 0.24106085 0.08413017
v 0.45108393 0.16123915 0.078469396
v 0.39651668 0.095525324 0.08413017
v 0.017174304 0.23291767 0.5866965
v -0.15880412 0.41576576 0.41538692
v -0.02493614 0.3935398 0.5295929
v -0.25056165 0.27737105 0.3582846
v -0.20845127 0.11675024 0.41538692
v -0.07458329 0.094524205 0.5295929
v -0.042430162 0.29901165 0.15135819
v -0.071260214 0.22885925 0.043464184
v 0.05244124 0.24022019 0.0030245185
v 0.08127129 0.3103714 0.11091846
v -0.0095719695 0.18163401 0.21889663
v 0.11412954 0.19299495 0.17845696
v 0.05244124 0.24022019 0.0030245185
v 0.22856307 0.059663713 -0.3155018
v 0.1221596 0.18663043 -0.33446005
v 0.113955915 0.059663713 -0.41307932
v 0.053967297 0.10737181 -0.43967426
v 0.18421227 0.18663043 -0.25395823
v 0.37029797 0.059663713 -0.120738804
v -5.9604645E-08 0.26364338 1.3709068E-06
v 0.29830506 0.18663043 -0.09717882
v 0.37048477 0.059663713 0.12013775
v 0.29845503 0.18663043 0.09671986
v 0.22905245 0.059663713 0.31511915
v 0.1846056 0.18663043 0.25367558
v 2.2292137E-05 0.059663713 0.40564013
v 0.00024330616 0.18663043 0.32654202
v -0.059891343 0.10737181 0.4441762
v -0.05987948 0.22926575 0.35986853
v -0.2592653 0.11019099 0.35703087
v 0.061975002 0.22926575 -0.35502982
v -0.20859861 0.24901724 0.28758097
v -0.41967034 0.11019099 0.1366136
v -0.12782055 0.3267603 0.0063791275
v -0.20904326 0.24901724 -0.28725323
v -0.25981915 0.11019099 -0.35665715
v -0.33779383 0.25731826 0.11004758
v -0.41988087 0.11019099 -0.13599116
v -0.33796477 0.25731826 -0.1095199
v -0.104076326 0.26014668 -0.10020983
v -0.2023406 0.24970263 -0.09270728
v -0.19952661 0.31132782 -0.115100384
v -0.12303722 0.31945777 -0.12094009
v -0.06101346 0.26106495 -0.1894626
v -0.24249607 0.30391335 -0.17873567
v -0.25754458 0.2401768 -0.17445886
v -0.089517295 0.32017207 -0.19041505
v -0.11621612 0.2515391 -0.27121416
v -0.17060846 0.35405517 -0.18636316
v -0.20897615 0.30462772 -0.24821064
v -0.21448171 0.24109507 -0.26371297
v -0.13248676 0.31275773 -0.254049
v -0.19302654 0.2953992 0.0076552033
v -0.26142538 0.28052706 0.019284546
v -0.26585746 0.322865 -0.00061035156
v -0.21261626 0.33444178 -0.009662569
v -0.16702098 0.2934667 -0.0583362
v -0.29885644 0.30978465 -0.042924643
v -0.30381864 0.263721 -0.035077453
v -0.19237405 0.33293676 -0.061029136
v -0.20941556 0.27666068 -0.11269826
v -0.25258893 0.3506124 -0.05558276
v -0.27861422 0.30827963 -0.09429252
v -0.27781308 0.2617885 -0.101068854
v -0.22537303 0.3198564 -0.10334474
v -0.25369662 0.12596035 -0.34861523
v -0.20763433 5.9604645E-08 -0.2853194
v -0.33568633 5.9604645E-08 -0.108783185
v -0.00033158064 0.12596035 -0.4311535
v -0.00027239323 5.9604645E-08 -0.35287365
v -0.41015506 0.12596035 -0.13291544
v -0.3355192 5.9604645E-08 0.10930562
v 0.2531597 0.12596035 -0.34900728
v 0.20719475 5.9604645E-08 -0.2856417
v -0.40994978 0.12596035 0.13355231
v -0.2071923 5.9604645E-08 0.28564316
v 0.40994963 0.12596035 -0.13355088
v 0.33552036 5.9604645E-08 -0.10930282
v -0.25315458 0.12596035 0.3490088
v 0.00027483702 5.9604645E-08 0.35287642
v 0.4101575 0.12596035 0.13291824
v 0.33569008 5.9604645E-08 0.108784676
v 0.00033670664 0.12596035 0.43115628
v 0.20763677 5.9604645E-08 0.2853222
v 0.25369775 0.12596035 0.3486154
v -0.65612805 0.21530259 -0.2126266
v -0.65579784 0.21530259 0.21364498
v -0.40497446 0.21530259 0.5583111
v 0.0005340576 0.21530259 0.6897216
v 0.4058412 0.21530259 0.5576823
v 0.6561292 0.21530259 0.21262807
v -0.40584004 0.21530259 -0.5576808
v 0.655799 0.21530259 -0.21364221
v -0.0005341768 0.2153039 -0.68972015
v 0.40497428 0.2153039 -0.5583096
v 0.0005340576 0.18663305 0.6897216
v -0.40497446 0.18663305 0.5583111
v 0.4058412 0.18663305 0.5576823
v 0.6561292 0.18663305 0.21262807
v -0.65579784 0.18663305 0.21364498
v 0.655799 0.18663305 -0.21364221
v 0.40497428 0.18663305 -0.5583096
v -0.65612805 0.18663305 -0.2126266
v -0.0005341768 0.18663305 -0.68972015
v -0.40584004 0.18663305 -0.5576808
vt 0.85325056 0.43972987
vt 0.8765847 0.415451
vt 0.85325056 0.415451
vt 0.9942767 0.49330813
vt 0.959737 0.54289854
vt 0.99309033 0.54556817
vt 0.9695036 0.49526364
vt 0.97101957 0.45355016
vt 0.929339 0.53136337
vt 0.95657307 0.45541775
vt 0.9700418 0.44575012
vt 0.94258803 0.49383545
vt 0.9005559 0.51498336
vt 0.9557052 0.4442011
vt 0.97295314 0.43851042
vt 0.9326678 0.45618677
vt 0.9126515 0.49228644
vt 0.87390417 0.49595577
vt 0.95986885 0.43592876
vt 0.9957599 0.4163738
vt 0.93852323 0.43411607
vt 0.9055545 0.46026254
vt 0.88709825 0.4858048
vt 0.8592599 0.48838645
vt 0.870894 0.47882873
vt 0.88114387 0.4569118
vt 0.85912806 0.45179242
vt 0.95388156 0.42343777
vt 0.91905624 0.42100984
vt 0.9056094 0.40758508
vt 0.8970185 0.3961048
vt 0.9512779 0.40783775
vt 0.95248634 0.39386368
vt 0.9549691 0.3817572
vt 0.87205845 0.5313963
vt 0.929339 0.53136337
vt 0.9005559 0.51498336
vt 0.9297895 0.56423324
vt 0.9013249 0.5807231
vt 0.87243205 0.5642771
vt 0.82949907 0.415451
vt 0.82949907 0.43968594
vt 0.85325056 0.43972987
vt 0.85325056 0.415451
vt 0.82949907 0.43968594
vt 0.85325056 0.43972987
vt 0.87657374 0.415451
vt 0.71998054 0.68169457
vt 0.7497633 0.67046696
vt 0.7299337 0.6514613
vt 0.74687403 0.6410027
vt 0.74650043 0.6897033
vt 0.7159267 0.7309335
vt 0.8004853 0.7168276
vt 0.74221593 0.72572607
vt 0.7386456 0.77589875
vt 0.7580907 0.75754136
vt 0.78214973 0.80106753
vt 0.78923565 0.7750638
vt 0.83245426 0.80280334
vt 0.8268295 0.77523965
vt 0.8510205 0.79484946
vt 0.8405289 0.7714935
vt 0.88398916 0.7599692
vt 0.7597825 0.6633261
vt 0.85791963 0.7466653
vt 0.89371175 0.7020295
vt 0.8209081 0.7074016
vt 0.8099002 0.65259296
vt 0.8132729 0.62377685
vt 0.86367625 0.7068084
vt 0.8666864 0.64937407
vt 0.8454177 0.6710822
vt 0.6535267 0.2515192
vt 0.6278526 0.2515192
vt 0.6334335 0.26118678
vt 0.6479568 0.26118678
vt 0.66636926 0.27375472
vt 0.62617177 0.27375472
vt 0.61502105 0.27375472
vt 0.6552076 0.27375472
vt 0.6535267 0.29599017
vt 0.64069515 0.27375472
vt 0.6334335 0.28633356
vt 0.6278526 0.29599017
vt 0.6479568 0.28633356
vt 0.6260949 0.30898649
vt 0.6260949 0.32509184
vt 0.63215905 0.32159835
vt 0.63215905 0.312491
vt 0.640047 0.30093384
vt 0.640047 0.32614648
vt 0.640047 0.3331555
vt 0.640047 0.30793184
vt 0.65399915 0.30898649
vt 0.640047 0.3170392
vt 0.64793485 0.32159835
vt 0.65399915 0.32509184
vt 0.64793485 0.312491
vt 0.6995687 0.55705935
vt 0.71649796 0.5447662
vt 0.7082036 0.5192349
vt 0.7317684 0.5804594
vt 0.7382501 0.5605529
vt 0.68727547 0.51921296
vt 0.71654195 0.49371463
vt 0.77158135 0.5804923
vt 0.7651326 0.56057495
vt 0.6996346 0.48138845
vt 0.73832697 0.4779718
vt 0.80382496 0.5571583
vt 0.7869176 0.5448321
vt 0.7318782 0.45805436
vt 0.7652095 0.4779938
vt 0.8161841 0.5193338
vt 0.79525596 0.5193118
vt 0.77169114 0.45808733
vt 0.7869616 0.49378055
vt 0.8038909 0.48148733
vt 0.6481655 0.51918
vt 0.6680171 0.45835096
vt 0.7198377 0.42083406
vt 0.78380865 0.42088902
vt 0.8355523 0.45851576
vt 0.8552939 0.51936674
vt 0.6679073 0.580031
vt 0.8354425 0.58018476
vt 0.7196509 0.6176577
vt 0.78362185 0.6177127
vt 0.78606075 0.41398984
vt 0.7175966 0.41392398
vt 0.84144074 0.45424223
vt 0.86256665 0.5193777
vt 0.6621397 0.45407748
vt 0.84131986 0.58446926
vt 0.785863 0.62462276
vt 0.6408929 0.519169
vt 0.7173988 0.62455684
vt 0.66201884 0.5842934
vn -0.21422899 0.44085896 0.871636
vn -0.6446353 0.70748234 -0.2896792
vn -0.55703056 0.7436669 0.36969784
vn -0.37801194 -0.4580428 -0.8045519
vn -0.9741057 0.16090441 -0.15883276
vn -0.96077454 -0.18380159 0.20767584
vn -0.3418274 0.056159496 -0.93808323
vn -0.277076 -0.4675651 -0.83941156
vn -0.5551261 0.82174945 0.12869684
vn -0.25231814 0.040923834 -0.9667786
vn -0.6465398 -0.42947602 -0.6305051
vn -0.027592659 0.8388896 -0.5436018
vn 0.048585474 0.71510017 0.6973315
vn -0.677011 0.11329305 -0.7272006
vn -0.899832 -0.3723424 -0.22729607
vn 0.12095463 0.8884053 -0.44283852
vn 0.39900476 0.8598385 0.31854823
vn 0.23331738 -0.039063215 0.97161573
vn -0.94934785 0.15709543 -0.2721391
vn -0.19708896 0.5646484 -0.80145377
vn -0.048541665 0.92839885 -0.368401
vn 0.40852702 0.7836604 0.46795517
vn 0.52279425 -0.08667451 0.8480411
vn -0.18947113 -0.25045747 0.949406
vn 0.3571068 -0.58945006 0.72458494
vn 0.39710033 -0.065725505 0.91541874
vn 0.26950198 -0.5704055 0.77589065
vn -0.25993586 0.9341122 -0.24467897
vn 0.6846727 0.701769 0.19683391
vn 0.87702245 -0.14571255 0.45782036
vn 0.6637237 -0.652297 0.36603203
vn 0.6427747 0.718909 -0.26459494
vn 0.94177383 -0.15713924 -0.2972697
vn 0.7360929 -0.6275391 -0.2536964
vn 0.23331738 -0.039063215 0.97161573
vn -0.5551261 0.82174945 0.12869684
vn 0.048585474 0.71510017 0.6973315
vn -0.9741057 0.16090441 -0.15883276
vn -0.96077454 -0.18380159 0.20767584
vn -0.18947113 -0.25045747 0.949406
vn -0.55703056 0.7436669 0.36969784
vn -0.6446353 0.70748234 -0.2896792
vn 0.22569954 0.7874694 -0.57354313
vn 0.53612536 0.84269845 0.04928376
vn -0.21422899 0.44085896 0.871636
vn 0.6084946 0.51703703 0.6020025
vn 0.22569954 0.7874694 -0.57354313
vn 0.66943705 0.46561682 -0.57883936
vn 0.58373666 0.6655843 -0.4650258
vn 0.6256347 0.41229212 -0.66226614
vn 0.26759756 0.50370586 -0.8213842
vn 0.47899178 0.7855649 -0.3917329
vn 0.81608 0.5132282 -0.26572597
vn 0.35139346 0.9341122 0.06290543
vn 0.6084946 0.76842475 -0.19813572
vn 0.81608 0.5132282 0.26572597
vn 0.6084946 0.76842475 0.19813572
vn 0.5246986 0.5132282 0.679182
vn 0.391387 0.7722337 0.50047106
vn 0.51708084 0.45228565 0.7266809
vn 0.50184524 0.6922467 0.5185999
vn 0.290451 0.52465487 0.8002347
vn 0.2352218 0.7646159 0.6000277
vn -0.5208459 0.52655935 0.6719039
vn 0.29235542 0.7988961 -0.5256362
vn -0.35515857 0.7836604 0.5096457
vn -0.8160361 0.5113237 0.26950532
vn 0.07334334 0.9969591 0.026330994
vn -0.32468724 0.7760426 -0.5406811
vn -0.4675213 0.53798604 -0.7014234
vn -0.6179731 0.75699806 0.2122808
vn -0.8160361 0.5113237 -0.26950532
vn -0.6160686 0.75890255 -0.21101265
vn 0.48851407 0.4237188 0.7627689
vn -0.4465723 0.32278287 0.8344965
vn -0.4141966 0.5855973 0.69679046
vn 0.38186473 0.6693933 0.6372534
vn 0.8979714 0.43133664 -0.08715555
vn -0.8598385 0.5075147 0.05573656
vn -0.97029686 0.2332735 0.06408965
vn 0.7303796 0.677011 -0.09056334
vn 0.3723424 0.3418274 -0.86285293
vn -0.10948408 0.99315023 -0.04081459
vn -0.5113237 0.51513255 -0.6878855
vn -0.5608394 0.24089134 -0.7921051
vn 0.2847376 0.60083294 -0.7469433
vn 0.4866096 0.5456039 0.68229574
vn -0.42181444 0.34944522 0.8366365
vn -0.43133664 0.59892845 0.67470986
vn 0.3418712 0.7665204 0.54366404
vn 0.8313156 0.5208459 -0.1939948
vn -0.9112588 0.40848327 0.052428596
vn -0.9855324 0.12662423 0.11265952
vn 0.63706136 0.7436669 -0.20276184
vn 0.26759756 0.298025 -0.916282
vn -0.22946465 0.9664879 -0.11509619
vn -0.6160686 0.38562977 -0.68683994
vn -0.64082646 0.09996188 -0.7611498
vn 0.15713924 0.5551261 -0.81678784
vn 0.3418712 0.8141316 0.46937603
vn 0.49994078 0.5284637 0.686138
vn 0.80846214 0.5284637 0.25906572
vn 0.0009741187 0.8141316 0.5806796
vn 0.0009741187 0.5284637 0.84895533
vn 0.55136096 0.8141316 0.18218338
vn 0.80846214 0.5284637 -0.25906572
vn -0.3399229 0.8141316 0.47078884
vn -0.49799252 0.5284637 0.6875533
vn 0.55136096 0.8141316 -0.18218338
vn 0.49803632 0.5284637 -0.6875216
vn -0.5513172 0.8141316 0.18231584
vn -0.8084183 0.5284637 0.25920257
vn 0.3399667 0.8141316 -0.47075725
vn -0.0009303093 0.5284637 -0.84895533
vn -0.5513172 0.8141316 -0.18231584
vn -0.8084183 0.5284637 -0.25920257
vn -0.0009303093 0.8141316 -0.58067966
vn -0.499897 0.5284637 -0.68616986
vn -0.3418274 0.8141316 -0.4694079
vn -0.6370176 0.7417625 -0.2097546
vn -0.6370176 0.7417625 0.2097546
vn -0.3932476 0.7417625 0.54327226
vn 0.0009741187 0.7417625 0.6706619
vn 0.3932914 0.7417625 0.54324055
vn 0.63706136 0.7417625 0.20962156
vn -0.3932476 0.7417625 -0.54327226
vn 0.63706136 0.7417625 -0.20962156
vn -0.0009303093 0.7417625 -0.670662
vn 0.3932914 0.7417625 -0.54324055
vn 0.0009741187 0.0009303093 0.99999905
vn -0.58750176 0.0009303093 0.80922234
vn 0.58754563 0.0009303093 0.8091905
vn 0.9512961 0.0009303093 0.30827725
vn -0.9512522 0.0009303093 0.30841267
vn 0.9512961 0.0009303093 -0.30827725
vn 0.58754563 0.0009303093 -0.8091905
vn -0.9512522 0.0009303093 -0.30841267
vn -0.0009303093 0.0009303093 -0.9999991
vn -0.58750176 0.0009303093 -0.80922234
g febg_shop_001_curry_02_0
f 3/3/3 2/2/2 1/1/1
f 6/6/6 5/5/5 4/4/4
f 5/5/5 7/7/7 4/4/4
f 4/4/4 7/7/7 8/8/8
f 5/5/5 9/9/9 7/7/7
f 7/7/7 10/10/10 8/8/8
f 8/8/8 10/10/10 11/11/11
f 9/9/9 12/12/12 7/7/7
f 7/7/7 12/12/12 10/10/10
f 9/9/9 13/13/13 12/12/12
f 10/10/10 14/14/14 11/11/11
f 11/11/11 14/14/14 15/15/15
f 12/12/12 16/16/16 10/10/10
f 10/10/10 16/16/16 14/14/14
f 13/13/13 17/17/17 12/12/12
f 12/12/12 17/17/17 16/16/16
f 13/13/13 18/18/18 17/17/17
f 14/14/14 19/19/19 15/15/15
f 19/19/19 20/20/20 15/15/15
f 16/16/16 21/21/21 14/14/14
f 14/14/14 21/21/21 19/19/19
f 17/17/17 22/22/22 16/16/16
f 16/16/16 22/22/22 21/21/21
f 18/18/18 23/23/23 17/17/17
f 17/17/17 23/23/23 22/22/22
f 18/18/18 24/24/24 23/23/23
f 24/24/24 25/25/25 23/23/23
f 23/23/23 25/25/25 26/26/26
f 23/23/23 26/26/26 22/22/22
f 25/25/25 27/27/27 26/26/26
f 21/21/21 28/28/28 19/19/19
f 28/28/28 20/20/20 19/19/19
f 22/22/22 29/29/29 21/21/21
f 22/22/22 26/26/26 29/29/29
f 21/21/21 29/29/29 28/28/28
f 26/26/26 27/27/27 30/30/30
f 26/26/26 30/30/30 29/29/29
f 27/27/27 31/31/31 30/30/30
f 29/29/29 32/32/32 28/28/28
f 32/32/32 20/20/20 28/28/28
f 29/29/29 30/30/30 32/32/32
f 30/30/30 31/31/31 33/33/33
f 30/30/30 33/33/33 32/32/32
f 33/33/33 20/20/20 32/32/32
f 31/31/31 34/34/34 33/33/33
f 34/34/34 20/20/20 33/33/33
f 37/37/37 36/36/36 35/35/35
f 36/36/36 38/38/38 35/35/35
f 35/35/35 38/38/38 39/39/39
f 40/40/40 35/35/35 39/39/39
f 43/43/43 42/42/42 41/41/41
f 44/44/44 43/43/43 41/41/41
f 44/44/44 41/41/41 45/45/45
f 46/46/46 44/44/44 45/45/45
f 47/47/47 44/44/44 46/46/46
f 50/50/50 49/49/49 48/48/48
f 50/50/50 51/51/51 49/49/49
f 49/49/49 52/52/52 48/48/48
f 48/48/48 52/52/52 53/53/53
f 49/49/49 54/54/54 52/52/52
f 52/52/52 54/54/54 55/55/55
f 52/52/52 55/55/55 53/53/53
f 53/53/53 55/55/55 56/56/56
f 55/55/55 57/57/57 56/56/56
f 55/55/55 54/54/54 57/57/57
f 56/56/56 57/57/57 58/58/58
f 57/57/57 59/59/59 58/58/58
f 57/57/57 54/54/54 59/59/59
f 58/58/58 59/59/59 60/60/60
f 59/59/59 61/61/61 60/60/60
f 59/59/59 54/54/54 61/61/61
f 61/61/61 62/62/62 60/60/60
f 63/63/63 62/62/62 61/61/61
f 54/54/54 63/63/63 61/61/61
f 62/62/62 63/63/63 64/64/64
f 49/49/49 65/65/65 54/54/54
f 51/51/51 65/65/65 49/49/49
f 63/63/63 66/66/66 64/64/64
f 64/64/64 66/66/66 67/67/67
f 68/68/68 63/63/63 54/54/54
f 65/65/65 68/68/68 54/54/54
f 63/63/63 68/68/68 66/66/66
f 69/69/69 65/65/65 51/51/51
f 69/69/69 68/68/68 65/65/65
f 70/70/70 69/69/69 51/51/51
f 66/66/66 71/71/71 67/67/67
f 66/66/66 68/68/68 71/71/71
f 67/67/67 71/71/71 72/72/72
f 73/73/73 69/69/69 70/70/70
f 73/73/73 68/68/68 69/69/69
f 72/72/72 73/73/73 70/70/70
f 71/71/71 73/73/73 72/72/72
f 71/71/71 68/68/68 73/73/73
f 76/76/76 75/75/75 74/74/74
f 77/77/77 76/76/76 74/74/74
f 77/77/77 74/74/74 78/78/78
f 76/76/76 79/79/79 75/75/75
f 79/79/79 80/80/80 75/75/75
f 81/81/81 77/77/77 78/78/78
f 81/81/81 78/78/78 82/82/82
f 83/83/83 76/76/76 77/77/77
f 83/83/83 79/79/79 76/76/76
f 83/83/83 77/77/77 81/81/81
f 79/79/79 84/84/84 80/80/80
f 83/83/83 84/84/84 79/79/79
f 84/84/84 85/85/85 80/80/80
f 86/86/86 81/81/81 82/82/82
f 83/83/83 81/81/81 86/86/86
f 86/86/86 82/82/82 85/85/85
f 83/83/83 86/86/86 84/84/84
f 84/84/84 86/86/86 85/85/85
f 89/89/89 88/88/88 87/87/87
f 90/90/90 89/89/89 87/87/87
f 90/90/90 87/87/87 91/91/91
f 89/89/89 92/92/92 88/88/88
f 92/92/92 93/93/93 88/88/88
f 94/94/94 90/90/90 91/91/91
f 94/94/94 91/91/91 95/95/95
f 96/96/96 89/89/89 90/90/90
f 96/96/96 92/92/92 89/89/89
f 96/96/96 90/90/90 94/94/94
f 92/92/92 97/97/97 93/93/93
f 96/96/96 97/97/97 92/92/92
f 97/97/97 98/98/98 93/93/93
f 99/99/99 94/94/94 95/95/95
f 96/96/96 94/94/94 99/99/99
f 99/99/99 95/95/95 98/98/98
f 96/96/96 99/99/99 97/97/97
f 97/97/97 99/99/99 98/98/98
f 102/102/102 101/101/101 100/100/100
f 100/100/100 101/101/101 103/103/103
f 101/101/101 104/104/104 103/103/103
f 105/105/105 102/102/102 100/100/100
f 106/106/106 102/102/102 105/105/105
f 103/103/103 104/104/104 107/107/107
f 104/104/104 108/108/108 107/107/107
f 109/109/109 106/106/106 105/105/105
f 110/110/110 106/106/106 109/109/109
f 107/107/107 108/108/108 111/111/111
f 108/108/108 112/112/112 111/111/111
f 113/113/113 110/110/110 109/109/109
f 114/114/114 110/110/110 113/113/113
f 111/111/111 112/112/112 115/115/115
f 112/112/112 116/116/116 115/115/115
f 117/117/117 114/114/114 113/113/113
f 118/118/118 114/114/114 117/117/117
f 116/116/116 118/118/118 119/119/119
f 115/115/115 116/116/116 119/119/119
f 119/119/119 118/118/118 117/117/117
f 109/109/109 105/105/105 120/120/120
f 113/113/113 109/109/109 121/121/121
f 121/121/121 109/109/109 120/120/120
f 117/117/117 113/113/113 122/122/122
f 122/122/122 113/113/113 121/121/121
f 119/119/119 117/117/117 123/123/123
f 123/123/123 117/117/117 122/122/122
f 115/115/115 119/119/119 124/124/124
f 124/124/124 119/119/119 123/123/123
f 111/111/111 115/115/115 125/125/125
f 125/125/125 115/115/115 124/124/124
f 120/120/120 105/105/105 126/126/126
f 105/105/105 100/100/100 126/126/126
f 127/127/127 111/111/111 125/125/125
f 107/107/107 111/111/111 127/127/127
f 126/126/126 100/100/100 128/128/128
f 100/100/100 103/103/103 128/128/128
f 103/103/103 107/107/107 129/129/129
f 129/129/129 107/107/107 127/127/127
f 128/128/128 103/103/103 129/129/129
f 124/124/124 123/123/123 130/130/130
f 130/130/130 123/123/123 131/131/131
f 132/132/132 124/124/124 130/130/130
f 125/125/125 124/124/124 132/132/132
f 123/123/123 122/122/122 131/131/131
f 133/133/133 125/125/125 132/132/132
f 127/127/127 125/125/125 133/133/133
f 131/131/131 122/122/122 134/134/134
f 135/135/135 127/127/127 133/133/133
f 129/129/129 127/127/127 135/135/135
f 122/122/122 121/121/121 134/134/134
f 136/136/136 129/129/129 135/135/135
f 128/128/128 129/129/129 136/136/136
f 134/134/134 121/121/121 137/137/137
f 138/138/138 128/128/128 136/136/136
f 121/121/121 120/120/120 137/137/137
f 126/126/126 128/128/128 138/138/138
f 137/137/137 120/120/120 139/139/139
f 139/139/139 126/126/126 138/138/138
f 120/120/120 126/126/126 139/139/139
