g febg_coinrush_001_toolbox_01
v -0.35896003 0.6047164 -0.55224746
v -0.39000666 0.6047164 -0.52061605
v -0.5459025 0.6047164 -0.52061605
v -0.56981003 0.6047164 -0.55224746
v -0.35896003 0.5020639 -0.55224746
v -0.6356734 0.6047164 -0.437159
v -0.56981003 0.5020639 -0.55224746
v -0.6683456 0.6047164 -0.45371193
v -0.6356734 0.6047164 0.4376706
v -0.6683456 0.5020639 -0.45371193
v -0.6683456 0.6047164 0.4537121
v -0.5544863 0.6047164 0.52062976
v -0.6683456 0.5020639 0.4537121
v -0.56981003 0.6047164 0.55224764
v -0.39093685 0.6047164 0.52062976
v -0.56981003 0.5020639 0.55224764
v -0.35896003 0.6047164 0.55224764
v -0.39093685 0.6047164 0.4668225
v -0.35896003 0.5020639 0.55224764
v -0.35896003 0.6047164 0.4978274
v -0.35896003 0.5020639 0.4978274
v 6.556511E-07 0.6047164 0.4668225
v 6.556511E-07 0.6047164 0.49782884
v 6.556511E-07 0.5020639 0.49782884
v 0.3589613 0.5020639 0.4978274
v 0.3589613 0.6047164 0.4978274
v 0.39093816 0.6047164 0.4668225
v -0.35896003 0.5020639 -0.49782717
v -0.35896003 0.6047164 -0.55224746
v -0.35896003 0.5020639 -0.55224746
v -0.35896003 0.6047164 -0.49782717
v -0.39000666 0.6047164 -0.52061605
v -0.39000666 0.6047164 -0.46693003
v 6.556511E-07 0.5020639 -0.49782866
v 6.556511E-07 0.6047164 -0.49782866
v 6.556511E-07 0.6047164 -0.46693003
v 0.390008 0.6047164 -0.46693003
v 0.3589613 0.6047164 -0.49782717
v 0.3589613 0.5020639 -0.49782717
v 0.390008 0.6047164 -0.52061605
v 0.3589613 0.6047164 -0.55224746
v 0.3589613 0.5020639 -0.55224746
v 0.5459024 0.6047164 -0.52061605
v 0.56981134 0.6047164 -0.55224746
v 0.56981134 0.5020639 -0.55224746
v 0.63567466 0.6047164 -0.437159
v 0.6683469 0.6047164 -0.45371193
v 0.6683469 0.5020639 -0.45371193
v 0.63567466 0.6047164 0.4376706
v 0.6683469 0.6047164 0.4537121
v 0.6683469 0.5020639 0.4537121
v 0.55448765 0.6047164 0.52062976
v 0.56981134 0.6047164 0.55224764
v 0.56981134 0.5020639 0.55224764
v 0.39093816 0.6047164 0.52062976
v 0.3589613 0.6047164 0.55224764
v 0.39093816 0.6047164 0.4668225
v 0.3589613 0.5020639 0.55224764
v 0.3589613 0.6047164 0.4978274
v 0.3589613 0.5020639 0.4978274
v -0.17727691 0.8351207 -0.03376156
v -0.17727691 0.7004405 0.04688412
v -0.17727691 0.8351207 0.04688412
v -0.17727691 0.7004405 -0.03376156
v -0.24225795 0.8351207 -0.03376156
v -0.24225795 0.7004405 -0.03376156
v -0.24225795 0.8351207 0.04688412
v -0.24225795 0.7004405 0.04688412
v -0.22463727 0.8843802 0.04688412
v -0.22463727 0.8843802 -0.03376156
v -0.17727691 0.8997264 -0.03376156
v -0.17727691 0.8997264 0.04688412
v 6.556511E-07 0.8997264 0.04688412
v 6.556511E-07 0.8997264 -0.03376156
v 6.556511E-07 0.8351207 -0.03376156
v 0.17727822 0.8351207 -0.03376156
v 0.17727822 0.8997264 -0.03376156
v 0.17727822 0.8997264 0.04688412
v 0.22463706 0.8843802 0.04688412
v 0.22463706 0.8843802 -0.03376156
v 0.24225923 0.8351207 -0.03376156
v 0.24225923 0.8351207 0.04688412
v 0.24225923 0.7004405 -0.03376156
v 0.24225923 0.7004405 0.04688412
v 0.17727822 0.7004405 -0.03376156
v 0.17727822 0.7004405 0.04688412
v 0.17727822 0.8351207 0.04688412
v -0.63948524 0.73782635 0.44175756
v -0.38782036 0.73782635 0.5233873
v -0.5578555 0.73782635 0.5233873
v -0.63948524 0.73782635 -0.44175744
v -0.38782036 0.73782635 -0.52338713
v -0.5578555 0.73782635 -0.5233886
v -0.38782036 0.7153739 -0.46896684
v -0.38782036 0.7153739 0.4689685
v 6.556511E-07 0.7153739 0.4689685
v 6.556511E-07 0.7153739 -0.46896684
v 0.38782167 0.7153739 -0.46896684
v 0.38782167 0.7153739 0.4689685
v 0.38782167 0.73782635 0.5233873
v 0.38782167 0.73782635 -0.52338713
v 0.63948655 0.73782635 -0.44175744
v 0.55785537 0.73782635 -0.5233886
v 0.63948655 0.73782635 0.44175756
v 0.55785537 0.73782635 0.5233873
v 0.63948655 -6.556511E-07 -0.44175744
v 0.63948655 -6.556511E-07 0.44175756
v 0.55785537 8.34465E-07 -0.5233886
v 0.55785537 0.73782635 -0.5233886
v 0.55785537 -6.556511E-07 0.5233873
v 0.55785537 0.73782635 0.5233873
v 0.38782167 -6.556511E-07 -0.5233886
v 0.38782167 0.73782635 -0.52338713
v 0.38782167 0.73782635 0.5233873
v 0.38782167 -6.556511E-07 0.5233873
v 0.38782167 0.7153739 -0.46896684
v 0.38782167 -6.556511E-07 -0.46896684
v 0.38782167 -6.556511E-07 0.4689685
v 0.38782167 0.7153739 0.4689685
v 6.556511E-07 -6.556511E-07 -0.46896684
v 6.556511E-07 0.7153739 -0.46896684
v 6.556511E-07 0.7153739 0.4689685
v 6.556511E-07 -6.556511E-07 0.4689685
v -0.38782036 0.7153739 -0.46896684
v -0.38782036 -6.556511E-07 -0.46896684
v -0.38782036 -6.556511E-07 0.4689685
v -0.38782036 0.7153739 0.4689685
v -0.38782036 -6.556511E-07 -0.5233886
v -0.38782036 0.73782635 -0.52338713
v -0.5578555 0.73782635 -0.5233886
v -0.5578555 8.34465E-07 -0.5233886
v -0.63948524 -6.556511E-07 -0.44175744
v -0.38782036 0.73782635 0.5233873
v -0.38782036 -6.556511E-07 0.5233873
v -0.63948524 -6.556511E-07 0.44175756
v -0.5578555 -6.556511E-07 0.5233873
v -0.5578555 0.73782635 0.5233873
v -0.05946523 0.32557446 -0.46536434
v -0.05946523 0.5062362 -0.4911695
v -0.05946523 0.5062362 -0.46536434
v -0.05946523 0.32557446 -0.4911695
v 0.05946654 0.32557446 -0.4911695
v 0.05946654 0.5062362 -0.4911695
v 0.05946654 0.5062362 -0.46536434
v 0.05946654 0.32557446 -0.46536434
v -0.24225795 0.8351207 0.04688412
v -0.17727691 0.7004405 0.04688412
v -0.24225795 0.7004405 0.04688412
v -0.17727691 0.8351207 0.04688412
v -0.22463727 0.8843802 0.04688412
v -0.17727691 0.8997264 0.04688412
v 6.556511E-07 0.8997264 0.04688412
v 6.556511E-07 0.8351207 0.04688567
v 0.17727822 0.8351207 0.04688412
v 0.17727822 0.8997264 0.04688412
v 0.22463706 0.8843802 0.04688412
v 0.24225923 0.8351207 0.04688412
v 0.17727822 0.7004405 0.04688412
v 0.24225923 0.7004405 0.04688412
vt 0.17311908 0.4512952
vt 0.17311908 0.45512518
vt 0.18325725 0.45512518
vt 0.18325725 0.4512952
vt 0.17311908 0.44600835
vt 0.19033143 0.45512518
vt 0.18325725 0.44600835
vt 0.19033143 0.4512952
vt 0.23696698 0.45512518
vt 0.19033143 0.44600835
vt 0.23696698 0.4512952
vt 0.24392101 0.45512518
vt 0.23696698 0.44600835
vt 0.24392101 0.4512952
vt 0.25419435 0.45512518
vt 0.24392101 0.44600835
vt 0.25419435 0.4512952
vt 0.25649232 0.45512518
vt 0.25419435 0.44600835
vt 0.25649232 0.4512952
vt 0.25649232 0.44600835
vt 0.27556708 0.45512518
vt 0.27556708 0.4512952
vt 0.27556708 0.44600835
vt 0.25649232 0.44600835
vt 0.25649232 0.4512952
vt 0.25649232 0.45512518
vt 0.17079106 0.44600835
vt 0.17311908 0.4512952
vt 0.17311908 0.44600835
vt 0.17079106 0.4512952
vt 0.17311908 0.45512518
vt 0.17079106 0.45512518
vt 0.15174633 0.44600835
vt 0.15174633 0.4512952
vt 0.15174633 0.45512518
vt 0.17079106 0.45512518
vt 0.17079106 0.4512952
vt 0.17079106 0.44600835
vt 0.17311908 0.45512518
vt 0.17311908 0.4512952
vt 0.17311908 0.44600835
vt 0.18325725 0.45512518
vt 0.18325725 0.4512952
vt 0.18325725 0.44600835
vt 0.19033143 0.45512518
vt 0.19033143 0.4512952
vt 0.19033143 0.44600835
vt 0.23696698 0.45512518
vt 0.23696698 0.4512952
vt 0.23696698 0.44600835
vt 0.24392101 0.45512518
vt 0.24392101 0.4512952
vt 0.24392101 0.44600835
vt 0.25419435 0.45512518
vt 0.25419435 0.4512952
vt 0.25649232 0.45512518
vt 0.25419435 0.44600835
vt 0.25649232 0.4512952
vt 0.25649232 0.44600835
vt 0.31789201 0.32938194
vt 0.31176406 0.31793708
vt 0.31176406 0.3268737
vt 0.31789201 0.31793708
vt 0.3234042 0.32938194
vt 0.3234042 0.31793708
vt 0.32953215 0.33047837
vt 0.32953215 0.31793708
vt 0.3259575 0.33771777
vt 0.32190222 0.33355737
vt 0.31789201 0.33486405
vt 0.3188833 0.340992
vt 0.3028425 0.340992
vt 0.3028425 0.33486405
vt 0.3028425 0.32938194
vt 0.31789201 0.32938194
vt 0.31789201 0.33486405
vt 0.3188833 0.340992
vt 0.3259575 0.33771777
vt 0.32190222 0.33355737
vt 0.3234042 0.32938194
vt 0.32953215 0.33047837
vt 0.3234042 0.31793708
vt 0.32953215 0.31793708
vt 0.31789201 0.31793708
vt 0.31176406 0.31793708
vt 0.31176406 0.3268737
vt 0.31416717 0.38908446
vt 0.3183426 0.40203124
vt 0.3183426 0.39316976
vt 0.26952922 0.38908446
vt 0.26535383 0.40203124
vt 0.26535383 0.39316976
vt 0.26808736 0.40384862
vt 0.31560907 0.40384862
vt 0.31560907 0.4227882
vt 0.26808736 0.4227882
vt 0.26808736 0.40384862
vt 0.31560907 0.40384862
vt 0.3183426 0.40203124
vt 0.26535383 0.40203124
vt 0.26952922 0.38908446
vt 0.26535383 0.39316976
vt 0.31416717 0.38908446
vt 0.3183426 0.39316976
vt 0.26952922 0.3517009
vt 0.31416717 0.3517009
vt 0.26377678 0.3517009
vt 0.26377678 0.38908446
vt 0.3198896 0.3517009
vt 0.3198896 0.38908446
vt 0.25475004 0.3517009
vt 0.25475004 0.38908446
vt 0.32839066 0.38908446
vt 0.32839066 0.3517009
vt 0.25123549 0.38794297
vt 0.25123549 0.3517009
vt 0.33106413 0.3517009
vt 0.33106413 0.38794297
vt 0.23286666 0.3517009
vt 0.23286666 0.38794297
vt 0.3506946 0.38794297
vt 0.3506946 0.3517009
vt 0.25123549 0.38794297
vt 0.25123549 0.3517009
vt 0.33106413 0.3517009
vt 0.33106413 0.38794297
vt 0.25475004 0.3517009
vt 0.25475004 0.38908446
vt 0.26377678 0.38908446
vt 0.26377678 0.3517009
vt 0.26952922 0.3517009
vt 0.32839066 0.38908446
vt 0.32839066 0.3517009
vt 0.31416717 0.3517009
vt 0.3198896 0.3517009
vt 0.3198896 0.38908446
vt 0.25799426 0.39554283
vt 0.2552607 0.4146927
vt 0.25799426 0.4146927
vt 0.2552607 0.39554283
vt 0.24267438 0.39554283
vt 0.24267438 0.4146927
vt 0.23994084 0.4146927
vt 0.23994084 0.39554283
vt 0.3234042 0.32938194
vt 0.31789201 0.31793708
vt 0.3234042 0.31793708
vt 0.31789201 0.32938194
vt 0.32190222 0.33355737
vt 0.31789201 0.33486405
vt 0.3028425 0.33486405
vt 0.3028425 0.32938194
vt 0.31789201 0.32938194
vt 0.31789201 0.33486405
vt 0.32190222 0.33355737
vt 0.3234042 0.32938194
vt 0.31789201 0.31793708
vt 0.3234042 0.31793708
vn 0.5777123 0.5777123 -0.5766255
vn -0.0009775162 0.9999995 -0
vn -0.0009775162 0.9999995 -0
vn -0.29618752 0.6304983 -0.71745723
vn 0.70674455 0.0009775162 -0.70746815
vn -0.0009775162 0.9999995 -0
vn -0.38220906 0.0009775162 -0.92407537
vn -0.7165197 0.6304983 -0.29844835
vn -0.0009775162 0.9999995 -0
vn -0.92375326 0.0009775162 -0.38298693
vn -0.7165197 0.6304983 0.29844835
vn -0.0009775162 0.9999995 -0
vn -0.92375326 0.0009775162 0.38298693
vn -0.29618752 0.6304983 0.71745723
vn -0.0009775162 0.9999995 -0
vn -0.38220906 0.0009775162 0.92407537
vn 0.5777123 0.5777123 0.5766255
vn -0.0009775162 0.9999995 -0
vn 0.70674455 0.0009775162 0.70746815
vn 0.30205262 0.90420294 0.30196238
vn 0.70674455 0.0009775162 0.70746815
vn -0.0009775162 0.9999995 -0
vn -0.0009775162 0.70674455 0.70746815
vn -0.0009775162 0.0009775162 0.99999905
vn -0.70674455 0.0009775162 0.70746815
vn -0.30205262 0.90420294 0.30196238
vn -0.0009775162 0.9999995 -0
vn 0.70674455 0.0009775162 -0.70746815
vn 0.5777123 0.5777123 -0.5766255
vn 0.70674455 0.0009775162 -0.70746815
vn 0.30205262 0.90420294 -0.30196238
vn -0.0009775162 0.9999995 -0
vn -0.0009775162 0.9999995 -0
vn -0.0009775162 0.0009775162 -0.99999905
vn -0.0009775162 0.70674455 -0.70746815
vn -0.0009775162 0.9999995 -0
vn -0.0009775162 0.9999995 -0
vn -0.30205262 0.90420294 -0.30196238
vn -0.70674455 0.0009775162 -0.70746815
vn -0.0009775162 0.9999995 -0
vn -0.5777123 0.5777123 -0.5766255
vn -0.70674455 0.0009775162 -0.70746815
vn -0.0009775162 0.9999995 -0
vn 0.29618752 0.6304983 -0.71745723
vn 0.382209 0.0009775162 -0.92407537
vn -0.0009775162 0.9999995 -0
vn 0.7165197 0.6304983 -0.29844835
vn 0.9237532 0.0009775162 -0.382987
vn -0.0009775162 0.9999995 -0
vn 0.7165197 0.6304983 0.29844835
vn 0.9237532 0.0009775162 0.382987
vn -0.0009775162 0.9999995 -0
vn 0.29618752 0.6304983 0.71745723
vn 0.382209 0.0009775162 0.92407537
vn -0.0009775162 0.9999995 -0
vn -0.5777123 0.5777123 0.5766255
vn -0.0009775162 0.9999995 -0
vn -0.70674455 0.0009775162 0.70746815
vn -0.30205262 0.90420294 0.30196238
vn -0.70674455 0.0009775162 0.70746815
vn 0.3157379 0.0009775162 -0.9488459
vn 0.70674455 0.0009775162 0.70746815
vn 0.3157379 0.0009775162 0.9488459
vn 0.70674455 0.0009775162 -0.70746815
vn -0.73020494 0.12609959 -0.6714906
vn -0.70674455 0.0009775162 -0.70746815
vn -0.73020494 0.12609959 0.6714906
vn -0.70674455 0.0009775162 0.70746815
vn -0.5464318 0.5640271 0.6191008
vn -0.5464318 0.5640271 -0.6191008
vn -0.11436939 0.73020494 -0.6735877
vn -0.11436939 0.73020494 0.6735877
vn -0.0009775162 0.70674455 0.70746815
vn -0.0009775162 0.70674455 -0.70746815
vn -0.0009775162 0.0009775162 -0.99999905
vn -0.31573784 0.0009775162 -0.948846
vn 0.11436945 0.73020494 -0.6735877
vn 0.11436945 0.73020494 0.6735877
vn 0.5464318 0.5640271 0.6191008
vn 0.5464318 0.5640271 -0.6191008
vn 0.73020494 0.12609959 -0.6714906
vn 0.73020494 0.12609959 0.6714906
vn 0.70674455 0.0009775162 -0.70746815
vn 0.70674455 0.0009775162 0.70746815
vn -0.70674455 0.0009775162 -0.70746815
vn -0.70674455 0.0009775162 0.70746815
vn -0.31573784 0.0009775162 0.948846
vn -0.7165197 0.6304983 0.29844835
vn 0.5777123 0.5777123 0.5766255
vn -0.29618752 0.6304983 0.71745723
vn -0.7165197 0.6304983 -0.29844835
vn 0.5777123 0.5777123 -0.5766255
vn -0.29618752 0.6304983 -0.71745723
vn 0.9042029 0.30205262 -0.30196252
vn 0.9042029 0.30205262 0.30196252
vn -0.0009775162 0.70674455 0.70746815
vn -0.0009775162 0.70674455 -0.70746815
vn -0.90420294 0.30205262 -0.30196232
vn -0.90420294 0.30205262 0.30196232
vn -0.5777123 0.5777123 0.5766255
vn -0.5777123 0.5777123 -0.5766255
vn 0.7165197 0.6304983 -0.29844835
vn 0.29618752 0.6304983 -0.71745723
vn 0.7165197 0.6304983 0.29844835
vn 0.29618752 0.6304983 0.71745723
vn 0.9237532 0.0009775162 -0.382987
vn 0.9237532 0.0009775162 0.382987
vn 0.382209 0.0009775162 -0.92407537
vn 0.29618752 0.6304983 -0.71745723
vn 0.382209 0.0009775162 0.92407537
vn 0.29618752 0.6304983 0.71745723
vn -0.70674455 0.0009775162 -0.70746815
vn -0.5777123 0.5777123 -0.5766255
vn -0.5777123 0.5777123 0.5766255
vn -0.70674455 0.0009775162 0.70746815
vn -0.90420294 0.30205262 -0.30196232
vn -0.70674455 0.0009775162 -0.70746815
vn -0.70674455 0.0009775162 0.70746815
vn -0.90420294 0.30205262 0.30196232
vn -0.0009775162 0.0009775162 -0.99999905
vn -0.0009775162 0.70674455 -0.70746815
vn -0.0009775162 0.70674455 0.70746815
vn -0.0009775162 0.0009775162 0.99999905
vn 0.9042029 0.30205262 -0.30196252
vn 0.70674455 0.0009775162 -0.70746815
vn 0.70674455 0.0009775162 0.70746815
vn 0.9042029 0.30205262 0.30196252
vn 0.70674455 0.0009775162 -0.70746815
vn 0.5777123 0.5777123 -0.5766255
vn -0.29618752 0.6304983 -0.71745723
vn -0.38220906 0.0009775162 -0.92407537
vn -0.92375326 0.0009775162 -0.38298693
vn 0.5777123 0.5777123 0.5766255
vn 0.70674455 0.0009775162 0.70746815
vn -0.92375326 0.0009775162 0.38298693
vn -0.38220906 0.0009775162 0.92407537
vn -0.29618752 0.6304983 0.71745723
vn -0.9999995 0.0009775162 -0
vn -0.70674455 0.0009775162 -0.70746815
vn -0.9999995 0.0009775162 -0
vn -0.70674455 0.0009775162 -0.70746815
vn 0.70674455 0.0009775162 -0.70746815
vn 0.70674455 0.0009775162 -0.70746815
vn 0.9999995 0.0009775162 -0
vn 0.9999995 0.0009775162 -0
vn -0.73020494 0.12609959 0.6714906
vn 0.70674455 0.0009775162 0.70746815
vn -0.70674455 0.0009775162 0.70746815
vn 0.3157379 0.0009775162 0.9488459
vn -0.5464318 0.5640271 0.6191008
vn -0.11436939 0.73020494 0.6735877
vn -0.0009775162 0.70674455 0.70746815
vn -0.0009775162 0.0009775162 0.99999905
vn -0.31573784 0.0009775162 0.948846
vn 0.11436945 0.73020494 0.6735877
vn 0.5464318 0.5640271 0.6191008
vn 0.73020494 0.12609959 0.6714906
vn -0.70674455 0.0009775162 0.70746815
vn 0.70674455 0.0009775162 0.70746815
g febg_coinrush_001_toolbox_01_0
f 3/3/3 2/2/2 1/1/1
f 4/4/4 3/3/3 1/1/1
f 4/4/4 1/1/1 5/5/5
f 6/6/6 3/3/3 4/4/4
f 7/7/7 4/4/4 5/5/5
f 8/8/8 6/6/6 4/4/4
f 8/8/8 4/4/4 7/7/7
f 9/9/9 6/6/6 8/8/8
f 10/10/10 8/8/8 7/7/7
f 11/11/11 9/9/9 8/8/8
f 11/11/11 8/8/8 10/10/10
f 12/12/12 9/9/9 11/11/11
f 13/13/13 11/11/11 10/10/10
f 14/14/14 12/12/12 11/11/11
f 14/14/14 11/11/11 13/13/13
f 15/15/15 12/12/12 14/14/14
f 16/16/16 14/14/14 13/13/13
f 17/17/17 15/15/15 14/14/14
f 17/17/17 14/14/14 16/16/16
f 18/18/18 15/15/15 17/17/17
f 19/19/19 17/17/17 16/16/16
f 20/20/20 18/18/18 17/17/17
f 20/20/20 17/17/17 19/19/19
f 21/21/21 20/20/20 19/19/19
f 22/22/22 18/18/18 20/20/20
f 23/23/23 20/20/20 21/21/21
f 23/23/23 22/22/22 20/20/20
f 24/24/24 23/23/23 21/21/21
f 23/23/23 24/24/24 25/25/25
f 26/26/26 23/23/23 25/25/25
f 22/22/22 23/23/23 26/26/26
f 27/27/27 22/22/22 26/26/26
f 30/30/30 29/29/29 28/28/28
f 29/29/29 31/31/31 28/28/28
f 29/29/29 32/32/32 31/31/31
f 32/32/32 33/33/33 31/31/31
f 28/28/28 31/31/31 34/34/34
f 31/31/31 33/33/33 35/35/35
f 31/31/31 35/35/35 34/34/34
f 33/33/33 36/36/36 35/35/35
f 36/36/36 37/37/37 35/35/35
f 35/35/35 38/38/38 34/34/34
f 37/37/37 38/38/38 35/35/35
f 38/38/38 39/39/39 34/34/34
f 37/37/37 40/40/40 38/38/38
f 38/38/38 41/41/41 39/39/39
f 40/40/40 41/41/41 38/38/38
f 41/41/41 42/42/42 39/39/39
f 40/40/40 43/43/43 41/41/41
f 41/41/41 44/44/44 42/42/42
f 43/43/43 44/44/44 41/41/41
f 44/44/44 45/45/45 42/42/42
f 43/43/43 46/46/46 44/44/44
f 44/44/44 47/47/47 45/45/45
f 46/46/46 47/47/47 44/44/44
f 47/47/47 48/48/48 45/45/45
f 46/46/46 49/49/49 47/47/47
f 47/47/47 50/50/50 48/48/48
f 49/49/49 50/50/50 47/47/47
f 50/50/50 51/51/51 48/48/48
f 49/49/49 52/52/52 50/50/50
f 50/50/50 53/53/53 51/51/51
f 52/52/52 53/53/53 50/50/50
f 53/53/53 54/54/54 51/51/51
f 52/52/52 55/55/55 53/53/53
f 53/53/53 56/56/56 54/54/54
f 55/55/55 56/56/56 53/53/53
f 55/55/55 57/57/57 56/56/56
f 56/56/56 58/58/58 54/54/54
f 57/57/57 59/59/59 56/56/56
f 56/56/56 59/59/59 58/58/58
f 59/59/59 60/60/60 58/58/58
f 63/63/63 62/62/62 61/61/61
f 62/62/62 64/64/64 61/61/61
f 61/61/61 64/64/64 65/65/65
f 64/64/64 66/66/66 65/65/65
f 67/67/67 65/65/65 66/66/66
f 68/68/68 67/67/67 66/66/66
f 67/67/67 69/69/69 65/65/65
f 69/69/69 70/70/70 65/65/65
f 61/61/61 65/65/65 70/70/70
f 70/70/70 69/69/69 71/71/71
f 71/71/71 61/61/61 70/70/70
f 69/69/69 72/72/72 71/71/71
f 72/72/72 73/73/73 71/71/71
f 71/71/71 74/74/74 61/61/61
f 73/73/73 74/74/74 71/71/71
f 74/74/74 75/75/75 61/61/61
f 75/75/75 74/74/74 76/76/76
f 74/74/74 73/73/73 77/77/77
f 74/74/74 77/77/77 76/76/76
f 73/73/73 78/78/78 77/77/77
f 78/78/78 79/79/79 77/77/77
f 79/79/79 80/80/80 77/77/77
f 76/76/76 77/77/77 80/80/80
f 80/80/80 79/79/79 81/81/81
f 81/81/81 76/76/76 80/80/80
f 79/79/79 82/82/82 81/81/81
f 81/81/81 82/82/82 83/83/83
f 82/82/82 84/84/84 83/83/83
f 83/83/83 85/85/85 81/81/81
f 85/85/85 76/76/76 81/81/81
f 85/85/85 86/86/86 76/76/76
f 86/86/86 87/87/87 76/76/76
f 90/90/90 89/89/89 88/88/88
f 88/88/88 89/89/89 91/91/91
f 89/89/89 92/92/92 91/91/91
f 93/93/93 91/91/91 92/92/92
f 92/92/92 89/89/89 94/94/94
f 89/89/89 95/95/95 94/94/94
f 94/94/94 95/95/95 96/96/96
f 97/97/97 94/94/94 96/96/96
f 98/98/98 97/97/97 96/96/96
f 99/99/99 98/98/98 96/96/96
f 99/99/99 100/100/100 98/98/98
f 100/100/100 101/101/101 98/98/98
f 102/102/102 101/101/101 100/100/100
f 102/102/102 103/103/103 101/101/101
f 104/104/104 102/102/102 100/100/100
f 100/100/100 105/105/105 104/104/104
f 102/102/102 104/104/104 106/106/106
f 104/104/104 107/107/107 106/106/106
f 102/102/102 106/106/106 108/108/108
f 109/109/109 102/102/102 108/108/108
f 110/110/110 107/107/107 104/104/104
f 111/111/111 110/110/110 104/104/104
f 109/109/109 108/108/108 112/112/112
f 113/113/113 109/109/109 112/112/112
f 111/111/111 114/114/114 110/110/110
f 114/114/114 115/115/115 110/110/110
f 113/113/113 112/112/112 116/116/116
f 112/112/112 117/117/117 116/116/116
f 115/115/115 114/114/114 118/118/118
f 114/114/114 119/119/119 118/118/118
f 116/116/116 117/117/117 120/120/120
f 121/121/121 116/116/116 120/120/120
f 119/119/119 122/122/122 118/118/118
f 122/122/122 123/123/123 118/118/118
f 124/124/124 121/121/121 120/120/120
f 125/125/125 124/124/124 120/120/120
f 123/123/123 122/122/122 126/126/126
f 122/122/122 127/127/127 126/126/126
f 125/125/125 128/128/128 124/124/124
f 128/128/128 129/129/129 124/124/124
f 130/130/130 129/129/129 128/128/128
f 131/131/131 130/130/130 128/128/128
f 91/91/91 130/130/130 131/131/131
f 132/132/132 91/91/91 131/131/131
f 127/127/127 133/133/133 126/126/126
f 133/133/133 134/134/134 126/126/126
f 88/88/88 91/91/91 132/132/132
f 135/135/135 88/88/88 132/132/132
f 134/134/134 133/133/133 136/136/136
f 135/135/135 136/136/136 88/88/88
f 133/133/133 137/137/137 136/136/136
f 136/136/136 137/137/137 88/88/88
f 140/140/140 139/139/139 138/138/138
f 139/139/139 141/141/141 138/138/138
f 141/141/141 139/139/139 142/142/142
f 139/139/139 143/143/143 142/142/142
f 142/142/142 143/143/143 144/144/144
f 145/145/145 142/142/142 144/144/144
f 148/148/148 147/147/147 146/146/146
f 147/147/147 149/149/149 146/146/146
f 146/146/146 149/149/149 150/150/150
f 149/149/149 151/151/151 150/150/150
f 152/152/152 151/151/151 149/149/149
f 153/153/153 152/152/152 149/149/149
f 152/152/152 153/153/153 154/154/154
f 155/155/155 152/152/152 154/154/154
f 155/155/155 154/154/154 156/156/156
f 154/154/154 157/157/157 156/156/156
f 154/154/154 158/158/158 157/157/157
f 158/158/158 159/159/159 157/157/157
