g febg_coinrush_001_drink_01
v -0.16565138 0.47328356 -0.060852483
v -0.15729761 0.39129117 -0.057433352
v -0.15680972 0.39129117 0.058610708
v -0.1651339 0.47328356 0.062100053
v -0.19837698 0.47328356 -0.07424712
v -0.07440981 0.39129117 0.14032122
v -0.19774675 0.47328356 0.07576913
v -0.19239074 0.37985376 -0.07179645
v -0.077828944 0.47328356 0.14867404
v 0.041633323 0.39129117 0.1398333
v -0.19178087 0.37985376 0.07326856
v -0.17126611 0.05016455 -0.063149765
v -0.09122357 0.47328356 0.1814006
v 0.04512267 0.47328356 0.14815748
v 0.123343855 0.39129117 0.057433397
v -0.17073014 0.05016455 0.06444538
v -0.16803366 -0.00028043985 -0.06182739
v -0.16750878 -0.00028043985 0.0630953
v -0.08877382 0.37985376 0.17541435
v -0.080128044 0.05016455 0.1542888
v -0.07880476 -0.00028043985 0.15105727
v 0.058792695 0.47328356 0.18077037
v 0.1316976 0.47328356 0.060852528
v 0.12285593 0.39129117 -0.058610648
v 0.056292117 0.37985376 0.17480445
v 0.047467083 0.05016455 0.15375283
v 0.046116993 -0.00028043985 0.1505324
v 0.16442414 0.47328356 0.07424718
v 0.13118103 0.47328356 -0.06209907
v 0.040456966 0.39129117 -0.14032026
v 0.15843698 0.37985376 0.07179648
v 0.13731143 0.05016455 0.06315073
v 0.13407896 -0.00028043985 0.06182745
v 0.1637939 0.47328356 -0.0757691
v 0.04387608 0.47328356 -0.148674
v -0.075587094 0.39129117 -0.13983326
v 0.157828 0.37985376 -0.0732685
v 0.13677545 0.05016455 -0.06444441
v 0.13355409 -0.00028043985 -0.06309432
v 0.05727072 0.47328356 -0.18140054
v -0.07907644 0.47328356 -0.14815743
v -0.15729761 0.39129117 -0.057433352
v -0.16565138 0.47328356 -0.060852483
v -0.09274554 0.47328356 -0.18077031
v -0.19837698 0.47328356 -0.07424712
v 0.054820046 0.37985376 -0.17541337
v 0.046173364 0.05016455 -0.15428875
v 0.044850066 -0.00028043985 -0.15105629
v -0.09024495 0.37985376 -0.17480439
v -0.19239074 0.37985376 -0.07179645
v -0.08142179 0.05016455 -0.15375277
v -0.08007169 -0.00028043985 -0.15053141
v -0.17126611 0.05016455 -0.063149765
v -0.16803366 -0.00028043985 -0.06182739
v 0.075701624 0.39129117 0.021333039
v 0.087678716 0.5046526 -8.9138746E-05
v 0.089238584 0.39129117 -8.9138746E-05
v 0.07504922 0.5095253 0.021333039
v 0.05641964 0.39129117 0.021407872
v 0.09738903 0.531976 -8.9138746E-05
v 0.057060033 0.5164652 0.021407872
v 0.0426877 0.39129117 9.012222E-05
v 0.08642751 0.5399176 0.021333039
v 0.10770461 0.55009556 -8.9138746E-05
v 0.04424849 0.5214082 9.012222E-05
v 0.05622466 0.39129117 -0.02133298
v 0.070812285 0.5512303 0.021407872
v 0.101241544 0.5619894 0.021333039
v 0.28281537 0.64525795 -8.9138746E-05
v 0.27635232 0.65715194 0.021333039
v 0.09203486 0.5789317 0.021407872
v 0.2671447 0.67409325 0.021407872
v 0.05687706 0.51653636 -0.02133298
v 0.07550664 0.39129117 -0.021406919
v 0.05969183 0.5592865 9.012222E-05
v 0.085477546 0.5909965 9.012222E-05
v 0.26058832 0.686159 9.012222E-05
v 0.074867174 0.5095955 -0.021406919
v 0.089238584 0.39129117 -8.9138746E-05
v 0.087678716 0.5046526 -8.9138746E-05
v 0.07065427 0.5513449 -0.02133298
v 0.08626856 0.54003227 -0.021406919
v 0.09738903 0.531976 -8.9138746E-05
v 0.091941535 0.5791036 -0.02133298
v 0.1011482 0.5621613 -0.021406919
v 0.10770461 0.55009556 -8.9138746E-05
v 0.27625805 0.65732384 -0.021406919
v 0.28281537 0.64525795 -8.9138746E-05
v 0.26705137 0.674265 -0.02133298
v 0.27625805 0.65732384 -0.021406919
v 0.28281537 0.64525795 -8.9138746E-05
v 0.2671447 0.67409325 0.021407872
v 0.27635232 0.65715194 0.021333039
v -0.30386242 0.48510543 0.017565519
v -0.26347706 0.40198383 0.01686138
v -0.26347706 0.40198383 -0.005235374
v -0.30386242 0.48510543 -0.005235374
v -0.1822147 0.48962238 -0.005235374
v -0.26347706 0.40198383 0.01686138
v -0.27364293 0.5724381 0.017565519
v -0.1822147 0.48962238 0.017565519
v -0.27364293 0.5724381 -0.005235374
v -0.19052133 0.6128235 0.017565519
v -0.19052133 0.6128235 -0.005235374
v -0.103188634 0.58260393 0.01686138
v -0.103188634 0.58260393 -0.005235374
v -0.06280327 0.4994814 0.01686138
v -0.06280327 0.4994814 -0.005235374
v -0.093022764 0.41214874 0.01686138
v -0.093022764 0.41214874 -0.005235374
v -0.093022764 0.41214874 0.01686138
v -0.1822147 0.48962238 0.017565519
v -0.26347706 0.40198383 0.01686138
v -0.30386242 0.48510543 0.017565519
v -0.27364293 0.5724381 0.017565519
v -0.19052133 0.6128235 0.017565519
v -0.103188634 0.58260393 0.01686138
v -0.06280327 0.4994814 0.01686138
v -0.093022764 0.41214874 0.01686138
v 0.023857594 0.39042625 -0.08214621
v -0.037677348 0.41631362 -0.08214621
v -0.037677348 0.39042625 -0.08214621
v 0.023857594 0.41631362 -0.08214621
v -0.037677348 0.41631362 -0.02061218
v -0.037677348 0.39042625 -0.08214621
v -0.037677348 0.39033756 -0.02061218
v 0.023857594 0.41631362 -0.02061218
v 0.023857594 0.39033756 -0.02061218
v 0.023857594 0.39042625 -0.08214621
v 0.023857594 0.41631362 -0.02061218
v 0.023857594 0.39033756 -0.02061218
v -0.037677348 0.39033756 -0.02061218
v -0.037677348 0.41631362 -0.02061218
v -0.055964112 0.38823155 0.032509863
v -0.107663065 0.41868946 0.07589111
v -0.107663065 0.38823155 0.07589111
v -0.055964112 0.41868946 0.032509863
v -0.064282745 0.41868946 0.12759009
v -0.107663065 0.38823155 0.07589111
v -0.064282745 0.38812712 0.12759009
v -0.012583792 0.41868946 0.08420882
v -0.012583792 0.38812712 0.08420882
v -0.055964112 0.38823155 0.032509863
v -0.012583792 0.41868946 0.08420882
v -0.012583792 0.38812712 0.08420882
v -0.064282745 0.38812712 0.12759009
v -0.064282745 0.41868946 0.12759009
v 0.041633323 0.39129117 0.1398333
v 0.089238584 0.39129117 -8.9138746E-05
v 0.123343855 0.39129117 0.057433397
v 0.12285593 0.39129117 -0.058610648
v 0.075701624 0.39129117 0.021333039
v 0.07550664 0.39129117 -0.021406919
v -0.07440981 0.39129117 0.14032122
v 0.040456966 0.39129117 -0.14032026
v 0.05641964 0.39129117 0.021407872
v 0.05622466 0.39129117 -0.02133298
v -0.15680972 0.39129117 0.058610708
v -0.075587094 0.39129117 -0.13983326
v 0.0426877 0.39129117 9.012222E-05
v -0.15729761 0.39129117 -0.057433352
vt 0.9652581 0.060673248
vt 0.963327 0.069565505
vt 0.9506323 0.06808346
vt 0.9516353 0.059266057
vt 0.9678928 0.056646284
vt 0.93720406 0.06808346
vt 0.9524287 0.0558379
vt 0.96820724 0.04567318
vt 0.93720406 0.059266057
vt 0.92295253 0.06808346
vt 0.9528329 0.04567318
vt 0.96427006 0.009490387
vt 0.93720406 0.0558379
vt 0.92295253 0.059266057
vt 0.90862614 0.06808346
vt 0.9505125 0.010493385
vt 0.9636862 0.0040412606
vt 0.9501982 0.005059229
vt 0.93720406 0.04567318
vt 0.93720406 0.010493385
vt 0.93720406 0.005059229
vt 0.92295253 0.0558379
vt 0.90862614 0.059266057
vt 0.92295253 0.06808346
vt 0.92295253 0.04567318
vt 0.92295253 0.010493385
vt 0.92295253 0.005059229
vt 0.90862614 0.0558379
vt 0.92295253 0.059266057
vt 0.93720406 0.06808346
vt 0.90862614 0.04567318
vt 0.90862614 0.010493385
vt 0.90862614 0.005059229
vt 0.92295253 0.0558379
vt 0.93720406 0.059266057
vt 0.9506323 0.06808346
vt 0.92295253 0.04567318
vt 0.92295253 0.010493385
vt 0.92295253 0.005059229
vt 0.93720406 0.0558379
vt 0.9516353 0.059266057
vt 0.963327 0.069565505
vt 0.9652581 0.060673248
vt 0.9524287 0.0558379
vt 0.9678928 0.056646284
vt 0.93720406 0.04567318
vt 0.93720406 0.010493385
vt 0.93720406 0.005059229
vt 0.9528329 0.04567318
vt 0.96820724 0.04567318
vt 0.9505125 0.010493385
vt 0.9501982 0.005059229
vt 0.96427006 0.009490387
vt 0.9636862 0.0040412606
vt 0.98177016 0.005373602
vt 0.9850037 0.020403609
vt 0.9850037 0.005613124
vt 0.98177016 0.02059822
vt 0.9791953 0.004909528
vt 0.9850037 0.024789855
vt 0.9791953 0.020792833
vt 0.9757821 0.004729886
vt 0.98177016 0.025014408
vt 0.9850037 0.028158134
vt 0.9757821 0.021002414
vt 0.9791953 0.004909528
vt 0.9791953 0.02531381
vt 0.98177016 0.028712029
vt 0.9850037 0.05393669
vt 0.98177016 0.054281004
vt 0.9791953 0.029520415
vt 0.9791953 0.0548349
vt 0.9791953 0.020792833
vt 0.98177016 0.005373602
vt 0.9757821 0.025553333
vt 0.9757821 0.03004437
vt 0.9757821 0.055119332
vt 0.98177016 0.02059822
vt 0.9850037 0.005613124
vt 0.9850037 0.020403609
vt 0.9791953 0.02531381
vt 0.98177016 0.025014408
vt 0.9850037 0.024789855
vt 0.9791953 0.029520415
vt 0.98177016 0.028712029
vt 0.9850037 0.028158134
vt 0.98177016 0.054281004
vt 0.9850037 0.05393669
vt 0.97918034 0.0548349
vt 0.98072225 0.056885805
vt 0.97956955 0.060059473
vt 0.97464436 0.058293
vt 0.9762013 0.060328934
vt 0.8779673 0.023966499
vt 0.88162 0.0063766
vt 0.8858116 0.007199957
vt 0.88175476 0.023397634
vt 0.904165 0.020777863
vt 0.8880871 0.0039364696
vt 0.8863356 0.04073304
vt 0.904165 0.017379643
vt 0.88892543 0.037903685
vt 0.904165 0.047769
vt 0.904165 0.043891735
vt 0.8863356 0.04073304
vt 0.88892543 0.037903685
vt 0.8779673 0.023966499
vt 0.88175476 0.023397634
vt 0.88162 0.0063766
vt 0.8858116 0.007199957
vt 0.8880871 0.0039364696
vt 0.904165 0.020777863
vt 0.8858116 0.007199957
vt 0.88175476 0.023397634
vt 0.88892543 0.037903685
vt 0.904165 0.043891735
vt 0.88892543 0.037903685
vt 0.88175476 0.023397634
vt 0.8858116 0.007199957
vt 0.8313952 0.055373825
vt 0.848536 0.0626044
vt 0.848536 0.055373825
vt 0.8313952 0.0626044
vt 0.848536 0.07987992
vt 0.8557367 0.0626044
vt 0.8557367 0.07987992
vt 0.8313952 0.07987992
vt 0.8241048 0.07987992
vt 0.8241048 0.0626044
vt 0.8313952 0.0626044
vt 0.8313952 0.055373825
vt 0.848536 0.055373825
vt 0.848536 0.0626044
vt 0.8313952 0.055373825
vt 0.848536 0.0626044
vt 0.848536 0.055373825
vt 0.8313952 0.0626044
vt 0.848536 0.07987992
vt 0.8557367 0.0626044
vt 0.8557367 0.07987992
vt 0.8313952 0.07987992
vt 0.8241048 0.07987992
vt 0.8241048 0.0626044
vt 0.8313952 0.0626044
vt 0.8313952 0.055373825
vt 0.848536 0.055373825
vt 0.848536 0.0626044
vt 0.8411408 0.004580185
vt 0.83377546 0.026226988
vt 0.828506 0.017334733
vt 0.82858086 0.035283916
vt 0.8358713 0.02291859
vt 0.83590126 0.029520415
vt 0.85909 0.0045053344
vt 0.84132046 0.0479187
vt 0.8388504 0.02290362
vt 0.8388803 0.029505445
vt 0.87182957 0.017155092
vt 0.8592696 0.04784385
vt 0.8409761 0.026197048
vt 0.8719044 0.035089303
vn 0.51120067 0.8326394 0.21303868
vn 0.68648416 0.670989 0.28020224
vn 0.6845366 0.670989 -0.28492713
vn 0.5092531 0.8326394 -0.21765311
vn -0.73720723 0.60477084 -0.30129343
vn 0.28138453 0.670989 -0.6860004
vn -0.7352596 0.60477084 0.30601558
vn -0.9241763 -0.0690968 -0.37566456
vn 0.20932359 0.8326394 -0.5127331
vn -0.28731292 0.670989 -0.6835386
vn -0.9202811 -0.0690968 0.38510817
vn -0.9241763 -0.0690968 -0.37566456
vn -0.30094618 0.60477084 0.7373491
vn -0.21330434 0.8326394 -0.5110899
vn -0.68656975 0.670989 -0.27999243
vn -0.9202811 -0.0690968 0.38510817
vn -0.9241763 -0.0690968 -0.37566456
vn -0.9202811 -0.0690968 0.38510817
vn -0.37884992 -0.0690968 0.92287505
vn -0.37884992 -0.0690968 0.92287505
vn -0.37884992 -0.0690968 0.92287505
vn 0.30865085 0.60477084 0.73415726
vn -0.5112863 0.8326394 -0.21283308
vn -0.6846222 0.670989 0.28472131
vn 0.38655466 -0.0690968 0.91967446
vn 0.38655466 -0.0690968 0.91967446
vn 0.38655466 -0.0690968 0.91967446
vn 0.7371216 0.60477084 0.30150285
vn -0.5093387 0.8326394 0.21745284
vn -0.28147012 0.670989 0.6859653
vn 0.9240906 -0.0690968 0.3758752
vn 0.9240906 -0.0690968 0.3758752
vn 0.9240906 -0.0690968 0.3758752
vn 0.735174 0.60477084 -0.30622122
vn -0.20940918 0.8326394 0.5126982
vn 0.28722733 0.670989 0.6835746
vn 0.92019546 -0.0690968 -0.3853128
vn 0.92019546 -0.0690968 -0.3853128
vn 0.92019546 -0.0690968 -0.3853128
vn 0.3028081 0.60477084 -0.7365864
vn 0.21321875 0.8326394 0.51112556
vn 0.68648416 0.670989 0.28020224
vn 0.51120067 0.8326394 0.21303868
vn -0.3087365 0.60477084 -0.73412126
vn -0.73720723 0.60477084 -0.30129343
vn 0.37876427 -0.0690968 -0.9229102
vn 0.37876427 -0.0690968 -0.9229102
vn 0.37876427 -0.0690968 -0.9229102
vn -0.38469273 -0.0690968 -0.92045486
vn -0.9241763 -0.0690968 -0.37566456
vn -0.38469273 -0.0690968 -0.92045486
vn -0.38469273 -0.0690968 -0.92045486
vn -0.9241763 -0.0690968 -0.37566456
vn -0.9241763 -0.0690968 -0.37566456
vn 0.27164656 0.8345869 0.47924188
vn 0.9876579 -0.15662698 -0
vn 0.5267067 0.8500471 -0
vn 0.4352445 -0.080782354 0.8966808
vn -0.267837 0.8345869 0.48138136
vn 0.9007195 -0.43329692 -0.03095295
vn -0.5112863 0.09450108 0.85419893
vn -0.52676857 0.8500087 -0
vn 0.41576856 -0.20542836 0.885966
vn 0.7020649 -0.71180284 -0.021014538
vn -0.97865653 0.20550302 -0
vn -0.27173215 0.8345869 -0.4791934
vn -0.44312054 0.25420386 0.8596654
vn 0.28333217 -0.31449366 0.9059893
vn 0.9104575 -0.41187334 -0.037782684
vn 0.7215408 -0.043778062 0.6909865
vn -0.3437932 0.39637822 0.8512876
vn 0.35928833 0.6242468 0.69370586
vn -0.5171291 0.09644872 -0.8504558
vn 0.2677514 0.8345869 -0.48142898
vn -0.86175126 0.5073311 -0
vn -0.63356036 0.77369326 -0
vn 0.14894813 0.9884469 0.02805706
vn 0.4274541 -0.07883477 -0.90059316
vn 0.5267067 0.8500471 -0
vn 0.9876579 -0.15662698 -0
vn -0.45091087 0.25809902 -0.854438
vn 0.40797818 -0.20348078 -0.89002776
vn 0.9007195 -0.43329692 -0.03095295
vn -0.34768838 0.40027338 -0.8478762
vn 0.27943695 -0.30865085 -0.90920275
vn 0.7020649 -0.71180284 -0.021014538
vn 0.7195933 -0.037935257 -0.6933588
vn 0.9104575 -0.41187334 -0.037782684
vn 0.3553931 0.62814194 -0.69219464
vn 0.7195933 -0.037935257 -0.6933588
vn 0.9104575 -0.41187334 -0.037782684
vn 0.35928833 0.6242468 0.69370586
vn 0.7215408 -0.043778062 0.6909865
vn -0.77421147 -0.047673225 0.6311291
vn -0.12176746 -0.82086813 0.55798584
vn -0.12176746 -0.81892055 -0.56084025
vn -0.77421147 -0.045725644 -0.63127315
vn 0.024302125 -0.43329692 -0.9009235
vn -0.12176746 -0.82086813 0.55798584
vn -0.58139974 0.5151815 0.62973195
vn 0.026249707 -0.43329692 0.9008689
vn -0.58139974 0.5151815 -0.62973195
vn -0.043863714 0.77421147 0.63140523
vn -0.045811236 0.77421147 -0.63126695
vn 0.51899105 0.58139974 0.62659603
vn 0.51509583 0.58139974 -0.62980205
vn 0.77607346 0.045811236 0.6289764
vn 0.7741259 0.045811236 -0.63137186
vn 0.21516633 -0.8013922 0.55809855
vn 0.21321875 -0.8013922 -0.5588455
vn 0.21516633 -0.8013922 0.55809855
vn 0.026249707 -0.43329692 0.9008689
vn -0.12176746 -0.82086813 0.55798584
vn -0.77421147 -0.047673225 0.6311291
vn -0.58139974 0.5151815 0.62973195
vn -0.043863714 0.77421147 0.63140523
vn 0.51899105 0.58139974 0.62659603
vn 0.77607346 0.045811236 0.6289764
vn 0.21516633 -0.8013922 0.55809855
vn 0.7079077 -0.00093096495 -0.7063044
vn -0.57750446 0.57750446 -0.5770418
vn -0.7079933 -0.00093096495 -0.7062185
vn 0.57741886 0.57750446 -0.57712746
vn -0.57750446 0.57750446 0.5770418
vn -0.7079933 -0.00093096495 -0.7062185
vn -0.7060457 -0.00093096495 0.70816565
vn 0.57741886 0.57750446 0.57712746
vn 0.7059601 -0.00093096495 0.708251
vn 0.7079077 -0.00093096495 -0.7063044
vn 0.57741886 0.57750446 0.57712746
vn 0.7059601 -0.00093096495 0.708251
vn -0.7060457 -0.00093096495 0.70816565
vn -0.57750446 0.57750446 0.5770418
vn 0.08857274 -0.00093096495 -0.99606925
vn -0.81316334 0.57750446 -0.072484486
vn -0.9962372 -0.00093096495 -0.0866632
vn 0.071044385 0.57750446 -0.8132904
vn -0.07112998 0.57750446 0.81328297
vn -0.9962372 -0.00093096495 -0.0866632
vn -0.08671075 -0.00093096495 0.99623305
vn 0.81307775 0.57750446 0.07343826
vn 0.9961516 -0.00093096495 0.08764188
vn 0.08857274 -0.00093096495 -0.99606925
vn 0.81307775 0.57750446 0.07343826
vn 0.9961516 -0.00093096495 0.08764188
vn -0.08671075 -0.00093096495 0.99623305
vn -0.07112998 0.57750446 0.81328297
vn -0.28731292 0.670989 -0.6835386
vn 0.5267067 0.8500471 -0
vn -0.68656975 0.670989 -0.27999243
vn -0.6846222 0.670989 0.28472131
vn 0.27164656 0.8345869 0.47924188
vn 0.2677514 0.8345869 -0.48142898
vn 0.28138453 0.670989 -0.6860004
vn -0.28147012 0.670989 0.6859653
vn -0.267837 0.8345869 0.48138136
vn -0.27173215 0.8345869 -0.4791934
vn 0.6845366 0.670989 -0.28492713
vn 0.28722733 0.670989 0.6835746
vn -0.52676857 0.8500087 -0
vn 0.68648416 0.670989 0.28020224
g febg_coinrush_001_drink_01_0
f 3/3/3 2/2/2 1/1/1
f 4/4/4 3/3/3 1/1/1
f 4/4/4 1/1/1 5/5/5
f 6/6/6 3/3/3 4/4/4
f 7/7/7 4/4/4 5/5/5
f 7/7/7 5/5/5 8/8/8
f 9/9/9 6/6/6 4/4/4
f 9/9/9 4/4/4 7/7/7
f 10/10/10 6/6/6 9/9/9
f 11/11/11 7/7/7 8/8/8
f 11/11/11 8/8/8 12/12/12
f 13/13/13 9/9/9 7/7/7
f 13/13/13 7/7/7 11/11/11
f 14/14/14 10/10/10 9/9/9
f 14/14/14 9/9/9 13/13/13
f 15/15/15 10/10/10 14/14/14
f 16/16/16 11/11/11 12/12/12
f 16/16/16 12/12/12 17/17/17
f 18/18/18 16/16/16 17/17/17
f 19/19/19 13/13/13 11/11/11
f 19/19/19 11/11/11 16/16/16
f 20/20/20 16/16/16 18/18/18
f 20/20/20 19/19/19 16/16/16
f 21/21/21 20/20/20 18/18/18
f 22/22/22 14/14/14 13/13/13
f 22/22/22 13/13/13 19/19/19
f 23/23/23 15/15/15 14/14/14
f 23/23/23 14/14/14 22/22/22
f 24/24/24 15/15/15 23/23/23
f 25/25/25 19/19/19 20/20/20
f 25/25/25 22/22/22 19/19/19
f 26/26/26 20/20/20 21/21/21
f 26/26/26 25/25/25 20/20/20
f 27/27/27 26/26/26 21/21/21
f 28/28/28 23/23/23 22/22/22
f 28/28/28 22/22/22 25/25/25
f 29/29/29 24/24/24 23/23/23
f 29/29/29 23/23/23 28/28/28
f 30/30/30 24/24/24 29/29/29
f 31/31/31 25/25/25 26/26/26
f 31/31/31 28/28/28 25/25/25
f 32/32/32 26/26/26 27/27/27
f 32/32/32 31/31/31 26/26/26
f 33/33/33 32/32/32 27/27/27
f 34/34/34 29/29/29 28/28/28
f 34/34/34 28/28/28 31/31/31
f 35/35/35 30/30/30 29/29/29
f 35/35/35 29/29/29 34/34/34
f 36/36/36 30/30/30 35/35/35
f 37/37/37 31/31/31 32/32/32
f 37/37/37 34/34/34 31/31/31
f 38/38/38 32/32/32 33/33/33
f 38/38/38 37/37/37 32/32/32
f 39/39/39 38/38/38 33/33/33
f 40/40/40 35/35/35 34/34/34
f 40/40/40 34/34/34 37/37/37
f 41/41/41 36/36/36 35/35/35
f 41/41/41 35/35/35 40/40/40
f 42/42/42 36/36/36 41/41/41
f 43/43/43 42/42/42 41/41/41
f 43/43/43 41/41/41 44/44/44
f 44/44/44 41/41/41 40/40/40
f 45/45/45 43/43/43 44/44/44
f 46/46/46 40/40/40 37/37/37
f 46/46/46 37/37/37 38/38/38
f 44/44/44 40/40/40 46/46/46
f 47/47/47 38/38/38 39/39/39
f 47/47/47 46/46/46 38/38/38
f 48/48/48 47/47/47 39/39/39
f 45/45/45 44/44/44 49/49/49
f 49/49/49 44/44/44 46/46/46
f 49/49/49 46/46/46 47/47/47
f 50/50/50 45/45/45 49/49/49
f 51/51/51 47/47/47 48/48/48
f 51/51/51 49/49/49 47/47/47
f 50/50/50 49/49/49 51/51/51
f 52/52/52 51/51/51 48/48/48
f 53/53/53 50/50/50 51/51/51
f 53/53/53 51/51/51 52/52/52
f 54/54/54 53/53/53 52/52/52
f 57/57/57 56/56/56 55/55/55
f 56/56/56 58/58/58 55/55/55
f 55/55/55 58/58/58 59/59/59
f 56/56/56 60/60/60 58/58/58
f 58/58/58 61/61/61 59/59/59
f 59/59/59 61/61/61 62/62/62
f 60/60/60 63/63/63 58/58/58
f 58/58/58 63/63/63 61/61/61
f 60/60/60 64/64/64 63/63/63
f 61/61/61 65/65/65 62/62/62
f 62/62/62 65/65/65 66/66/66
f 63/63/63 67/67/67 61/61/61
f 61/61/61 67/67/67 65/65/65
f 64/64/64 68/68/68 63/63/63
f 63/63/63 68/68/68 67/67/67
f 64/64/64 69/69/69 68/68/68
f 69/69/69 70/70/70 68/68/68
f 68/68/68 70/70/70 71/71/71
f 68/68/68 71/71/71 67/67/67
f 70/70/70 72/72/72 71/71/71
f 65/65/65 73/73/73 66/66/66
f 66/66/66 73/73/73 74/74/74
f 67/67/67 75/75/75 65/65/65
f 67/67/67 71/71/71 75/75/75
f 65/65/65 75/75/75 73/73/73
f 71/71/71 72/72/72 76/76/76
f 71/71/71 76/76/76 75/75/75
f 72/72/72 77/77/77 76/76/76
f 73/73/73 78/78/78 74/74/74
f 74/74/74 78/78/78 79/79/79
f 78/78/78 80/80/80 79/79/79
f 75/75/75 81/81/81 73/73/73
f 75/75/75 76/76/76 81/81/81
f 73/73/73 81/81/81 78/78/78
f 78/78/78 82/82/82 80/80/80
f 81/81/81 82/82/82 78/78/78
f 82/82/82 83/83/83 80/80/80
f 76/76/76 84/84/84 81/81/81
f 81/81/81 84/84/84 82/82/82
f 76/76/76 77/77/77 84/84/84
f 82/82/82 85/85/85 83/83/83
f 84/84/84 85/85/85 82/82/82
f 85/85/85 86/86/86 83/83/83
f 85/85/85 87/87/87 86/86/86
f 87/87/87 88/88/88 86/86/86
f 89/89/89 87/87/87 85/85/85
f 84/84/84 89/89/89 85/85/85
f 77/77/77 89/89/89 84/84/84
f 89/89/89 77/77/77 90/90/90
f 77/77/77 91/91/91 90/90/90
f 91/91/91 77/77/77 92/92/92
f 93/93/93 91/91/91 92/92/92
f 96/96/96 95/95/95 94/94/94
f 97/97/97 96/96/96 94/94/94
f 98/98/98 96/96/96 97/97/97
f 96/96/96 98/98/98 99/99/99
f 97/97/97 94/94/94 100/100/100
f 98/98/98 101/101/101 99/99/99
f 102/102/102 97/97/97 100/100/100
f 98/98/98 97/97/97 102/102/102
f 102/102/102 100/100/100 103/103/103
f 104/104/104 102/102/102 103/103/103
f 104/104/104 98/98/98 102/102/102
f 104/104/104 103/103/103 105/105/105
f 106/106/106 104/104/104 105/105/105
f 104/104/104 106/106/106 98/98/98
f 106/106/106 105/105/105 107/107/107
f 108/108/108 106/106/106 107/107/107
f 106/106/106 108/108/108 98/98/98
f 108/108/108 107/107/107 109/109/109
f 110/110/110 108/108/108 109/109/109
f 108/108/108 110/110/110 98/98/98
f 98/98/98 110/110/110 101/101/101
f 110/110/110 111/111/111 101/101/101
f 114/114/114 113/113/113 112/112/112
f 114/114/114 112/112/112 115/115/115
f 112/112/112 116/116/116 115/115/115
f 112/112/112 117/117/117 116/116/116
f 112/112/112 118/118/118 117/117/117
f 112/112/112 119/119/119 118/118/118
f 122/122/122 121/121/121 120/120/120
f 121/121/121 123/123/123 120/120/120
f 121/121/121 124/124/124 123/123/123
f 124/124/124 121/121/121 125/125/125
f 126/126/126 124/124/124 125/125/125
f 124/124/124 127/127/127 123/123/123
f 123/123/123 127/127/127 128/128/128
f 129/129/129 123/123/123 128/128/128
f 132/132/132 131/131/131 130/130/130
f 133/133/133 132/132/132 130/130/130
f 136/136/136 135/135/135 134/134/134
f 135/135/135 137/137/137 134/134/134
f 135/135/135 138/138/138 137/137/137
f 138/138/138 135/135/135 139/139/139
f 140/140/140 138/138/138 139/139/139
f 138/138/138 141/141/141 137/137/137
f 137/137/137 141/141/141 142/142/142
f 143/143/143 137/137/137 142/142/142
f 146/146/146 145/145/145 144/144/144
f 147/147/147 146/146/146 144/144/144
f 150/150/150 149/149/149 148/148/148
f 151/151/151 149/149/149 150/150/150
f 149/149/149 152/152/152 148/148/148
f 153/153/153 149/149/149 151/151/151
f 148/148/148 152/152/152 154/154/154
f 155/155/155 153/153/153 151/151/151
f 152/152/152 156/156/156 154/154/154
f 157/157/157 153/153/153 155/155/155
f 154/154/154 156/156/156 158/158/158
f 159/159/159 157/157/157 155/155/155
f 156/156/156 160/160/160 158/158/158
f 160/160/160 157/157/157 159/159/159
f 158/158/158 160/160/160 161/161/161
f 161/161/161 160/160/160 159/159/159
