g febg_laboratory_001_vendingmachineglass_01
v -0.0033186674 3.6560297 -0.14815462
v 1.0403379 3.451057 -0.36906296
v 1.0403379 3.6560297 -0.14815462
v -0.0033186674 3.451057 -0.36906296
v 1.0403379 3.0521383 -0.5094736
v -1.0469753 3.451057 -0.36906296
v -1.0469753 3.6560297 -0.14815462
v -1.0469753 3.0521383 -0.5094736
v -0.0033186674 3.0521383 -0.5094736
v 1.0403379 2.0186577 -0.5094736
v -1.0469753 2.0186577 -0.5094736
v -0.0033186674 2.0186577 -0.5094736
v 1.0403379 1.273106 -0.5094736
v -1.0469753 1.273106 -0.5094736
v -0.0033186674 1.273106 -0.5094736
v 1.0403379 0.82905436 -0.5094736
v -1.0469753 0.82905436 -0.5094736
v -0.0033186674 0.82905436 -0.5094736
vt 0.92624193 0.17845006
vt 0.8700437 0.16793309
vt 0.8700437 0.17845006
vt 0.92624193 0.16793309
vt 0.8700437 0.13954021
vt 0.9824401 0.16793309
vt 0.9824401 0.17845006
vt 0.9824401 0.13954021
vt 0.92624193 0.13954021
vt 0.8700437 0.08388547
vt 0.9824401 0.08388547
vt 0.92624193 0.08388547
vt 0.8700437 0.043741778
vt 0.9824401 0.043741778
vt 0.92624193 0.043741778
vt 0.8700437 0.019828891
vt 0.9824401 0.019828891
vt 0.92624193 0.019828891
vn -0 0.73305756 -0.6801666
vn -0 0.54889745 -0.8358897
vn -0 0.73305756 -0.6801666
vn -0 0.54889745 -0.8358897
vn -0 0.16839543 -0.9857195
vn -0 0.54889745 -0.8358897
vn -0 0.73305756 -0.6801666
vn -0 0.16839543 -0.9857195
vn -0 0.16839543 -0.9857195
vn -0 0 -1
vn -0 0 -1
vn -0 0 -1
vn -0 0 -1
vn -0 0 -1
vn -0 0 -1
vn -0 0 -1
vn -0 0 -1
vn -0 0 -1
g febg_laboratory_001_vendingmachineglass_01_0
f 3/3/3 2/2/2 1/1/1
f 2/2/2 4/4/4 1/1/1
f 2/2/2 5/5/5 4/4/4
f 1/1/1 4/4/4 6/6/6
f 7/7/7 1/1/1 6/6/6
f 6/6/6 4/4/4 8/8/8
f 5/5/5 9/9/9 4/4/4
f 4/4/4 9/9/9 8/8/8
f 9/9/9 5/5/5 10/10/10
f 11/11/11 8/8/8 9/9/9
f 12/12/12 9/9/9 10/10/10
f 12/12/12 11/11/11 9/9/9
f 12/12/12 10/10/10 13/13/13
f 14/14/14 11/11/11 12/12/12
f 15/15/15 12/12/12 13/13/13
f 15/15/15 14/14/14 12/12/12
f 15/15/15 13/13/13 16/16/16
f 17/17/17 14/14/14 15/15/15
f 18/18/18 15/15/15 16/16/16
f 18/18/18 17/17/17 15/15/15
