g febg_coinrush_001_clothes_04
v -0.04363665 0.2850106 0.0050573945
v -0.17815414 0.45041147 0.019578606
v -0.113452286 0.28682396 0.045268297
v -0.04227236 0.48544678 -0.069461
v -0.19947407 0.5982305 -0.030138701
v -0.10521412 0.62704647 -0.08541693
v -0.19108081 0.7331847 -0.08052674
v -0.18099979 0.7354157 -0.087604195
v -0.04363665 0.2850106 0.0050573945
v -0.050545722 0.29397848 0.046030372
v -0.042155325 0.49605867 0.009332031
v -0.04227236 0.48544678 -0.069461
v -0.10610178 0.63336563 -0.039224565
v -0.10521412 0.62704647 -0.08541693
v -0.18171427 0.7362025 -0.08246569
v -0.18099979 0.7354157 -0.087604195
v 0.038812608 0.2850106 0.0050573945
v 0.10862823 0.28682396 0.045268297
v 0.17333008 0.45041147 0.019578606
v 0.037448302 0.48544678 -0.069461
v 0.19465 0.5982305 -0.030138701
v 0.10039006 0.62704647 -0.08541693
v 0.18625675 0.7331847 -0.08052674
v 0.17617571 0.7354157 -0.087604195
v 0.038812608 0.2850106 0.0050573945
v 0.037331283 0.49605867 0.009332031
v 0.04572168 0.29397848 0.04602942
v 0.037448302 0.48544678 -0.069461
v 0.101277724 0.63336563 -0.039224565
v 0.10039006 0.62704647 -0.08541693
v 0.17689022 0.7362025 -0.08246569
v 0.17617571 0.7354157 -0.087604195
v 0.24421223 0.12773564 0.01019305
v 0.23096779 0.00259611 0.048018813
v 0.23096779 0.00259611 0.015014738
v 0.24421223 0.12773564 0.0528405
v 0.19778392 0.21066824 -0.0010648668
v 0.19778392 0.21066824 0.06409842
v 0.12910616 0.26078513 -0.011602566
v 0.12910616 0.26078513 0.07463518
v -0.0024105906 0.2819471 0.08520427
v -0.0024105906 0.2819471 -0.022171676
v -0.13392642 0.26078513 -0.011602566
v -0.13392642 0.26078513 0.07463518
v -0.20260417 0.21066824 0.06409842
v -0.20260417 0.21066824 -0.0010648668
v -0.25161645 0.13191229 0.0528405
v -0.25161645 0.13191229 0.01019305
v -0.23578805 0.00259611 0.048018813
v -0.23578805 0.00259611 0.015014738
v -0.26742968 0.13635153 0.011552602
v -0.2573144 -2.3841858E-07 0.01693371
v -0.23578805 0.00259611 0.015014738
v -0.2573144 -2.3841858E-07 0.04609984
v -0.25161645 0.13191229 0.01019305
v -0.26742968 0.13635153 0.05148095
v -0.20894143 0.2322298 -0.0010134876
v -0.20260417 0.21066824 -0.0010648668
v -0.20894143 0.2322298 0.064046085
v -0.13229 0.28816453 -0.012773737
v -0.13229 0.28816453 0.07580635
v -0.13392642 0.26078513 -0.011602566
v -0.0024105906 0.31178394 0.087602735
v -0.0024105906 0.31178394 -0.024570152
v -0.0024105906 0.2819471 -0.022171676
v 0.12910616 0.26078513 -0.011602566
v 0.12746976 0.28816453 -0.012773737
v 0.12746976 0.28816453 0.07580635
v 0.19778392 0.21066824 -0.0010648668
v 0.20412119 0.2322298 0.064046085
v 0.20412119 0.2322298 -0.0010134876
v 0.24421223 0.12773564 0.01019305
v 0.26141164 0.12787265 0.05148095
v 0.26141164 0.12787265 0.011552602
v 0.23096779 0.00259611 0.015014738
v 0.2524932 -2.3841858E-07 0.04609984
v 0.2524932 -2.3841858E-07 0.01693371
vt 0.15515651 0.7481096
vt 0.16852152 0.7740341
vt 0.16668682 0.75064534
vt 0.14419302 0.77455616
vt 0.16321132 0.79619974
vt 0.14668405 0.79702014
vt 0.15453002 0.81535226
vt 0.15271023 0.81535226
vt 0.19632551 0.75112265
vt 0.18976234 0.75161487
vt 0.1938345 0.77801675
vt 0.2047234 0.77962774
vt 0.1904485 0.800078
vt 0.19684759 0.80259883
vt 0.18475047 0.8187084
vt 0.18563053 0.81894714
vt 0.15515651 0.7481096
vt 0.16668682 0.75064534
vt 0.16852152 0.7740341
vt 0.14419302 0.77455616
vt 0.16321132 0.79619974
vt 0.14668405 0.79702014
vt 0.15453002 0.81535226
vt 0.15271023 0.81535226
vt 0.19632551 0.75112265
vt 0.1938345 0.77801675
vt 0.18976234 0.75161487
vt 0.2047234 0.77962774
vt 0.1904485 0.800078
vt 0.19684759 0.80259883
vt 0.18475047 0.8187084
vt 0.18563053 0.81894714
vt 0.1752786 0.83957636
vt 0.15781161 0.8443645
vt 0.1577967 0.84029233
vt 0.1752786 0.84506553
vt 0.19168654 0.83780134
vt 0.19168654 0.8468406
vt 0.20430574 0.83619034
vt 0.20433557 0.8483919
vt 0.22190699 0.84988356
vt 0.22187716 0.8346092
vt 0.20433557 0.8361158
vt 0.20430574 0.8483173
vt 0.19168654 0.84670633
vt 0.19168654 0.83766705
vt 0.1752786 0.8449313
vt 0.1752786 0.83944213
vt 0.1577967 0.84423023
vt 0.15781161 0.8401432
vt 0.1752786 0.83944213
vt 0.15781161 0.8401432
vt 0.1581696 0.8383234
vt 0.1577967 0.84423023
vt 0.17424938 0.83747315
vt 0.1752786 0.8449313
vt 0.19168654 0.83766705
vt 0.189822 0.8352656
vt 0.19168654 0.84670633
vt 0.20433557 0.8361158
vt 0.20430574 0.8483173
vt 0.20236662 0.83304304
vt 0.22190699 0.84988356
vt 0.22187716 0.8346092
vt 0.22186224 0.83074594
vt 0.20232187 0.8331325
vt 0.20430574 0.83619034
vt 0.20433557 0.8483919
vt 0.18980709 0.8353998
vt 0.19168654 0.8468406
vt 0.19168654 0.83780134
vt 0.17423446 0.8376074
vt 0.1752786 0.84506553
vt 0.1752786 0.83957636
vt 0.1581696 0.83845764
vt 0.15781161 0.8443645
vt 0.1577967 0.84029233
vn 0.5288365 -0.32355803 -0.7846287
vn -0.45454526 -0.31378287 -0.83362395
vn -0.47018552 -0.30987275 -0.8263804
vn 0.57380223 -0.0811339 -0.8149652
vn -0.4330399 -0.31182784 -0.84571856
vn 0.45845532 0.18866074 -0.8684618
vn -0.4213097 -0.30205262 -0.8551388
vn 0.34310836 0.23558152 -0.9092733
vn 0.5288365 -0.32355803 -0.7846287
vn 0.9980445 -0.008797646 0.06188542
vn 0.98240423 0.18670571 0.0047884407
vn 0.57380223 -0.0811339 -0.8149652
vn 0.8748774 0.47996068 -0.065017425
vn 0.45845532 0.18866074 -0.8684618
vn 0.81622636 0.57380223 -0.067271926
vn 0.34310836 0.23558152 -0.9092733
vn -0.5288365 -0.32355803 -0.7846287
vn 0.47018552 -0.30987275 -0.8263804
vn 0.45454526 -0.31378287 -0.83362395
vn -0.57380223 -0.0811339 -0.8149652
vn 0.43303984 -0.31182784 -0.84571856
vn -0.45845532 0.18866074 -0.8684618
vn 0.42130965 -0.30205262 -0.85513884
vn -0.3431083 0.23558152 -0.9092734
vn -0.5288365 -0.32355803 -0.7846287
vn -0.98240423 0.18670571 0.0047884407
vn -0.9980445 -0.008797646 0.06188542
vn -0.57380223 -0.0811339 -0.8149652
vn -0.87487733 0.47996068 -0.06501834
vn -0.45845532 0.18866074 -0.8684618
vn -0.81622636 0.57380223 -0.067271926
vn -0.3431083 0.23558152 -0.9092734
vn -0.5640271 -0.18670571 -0.8043721
vn -0.9941344 0.10459423 -0.027510053
vn -0.68132913 0.043988228 -0.7306543
vn -0.97639364 -0.215999 -0
vn -0.4017594 -0.4936459 -0.77129966
vn -0.73607004 -0.67546403 -0.044149984
vn -0.15542519 -0.6285432 -0.7620869
vn -0.3702114 -0.9289475 -0
vn -0.0009775162 -0.9999995 -0
vn -0.0009775162 -0.673509 -0.7391784
vn 0.15542513 -0.6285432 -0.7620869
vn 0.37021145 -0.9289475 -0
vn 0.7223848 -0.6911043 -0.0231316
vn 0.39198416 -0.50733113 -0.7674396
vn 0.9726291 -0.23167145 -0.017917223
vn 0.5464318 -0.19452584 -0.8145993
vn 0.9921794 0.12218952 -0.025490765
vn 0.6793741 0.057673454 -0.7315221
vn -0.7829908 0.15347016 -0.6028037
vn -0.7517103 -0.083088934 -0.6542384
vn 0.6793741 0.057673454 -0.7315221
vn -0.99731284 -0.07326003 -0
vn 0.5464318 -0.19452584 -0.8145993
vn -0.9684524 0.24919815 -0
vn -0.6070378 0.47214055 -0.6392092
vn 0.39198416 -0.50733113 -0.7674396
vn -0.7262949 0.6871942 -0.016118828
vn -0.34701836 0.6617788 -0.66455024
vn -0.37996364 0.9250014 -0
vn 0.15542513 -0.6285432 -0.7620869
vn -0.0009775162 0.9999995 -0
vn -0.0009775162 0.70674455 -0.70746815
vn -0.0009775162 -0.673509 -0.7391784
vn -0.15542519 -0.6285432 -0.7620869
vn 0.34701842 0.6617788 -0.66455024
vn 0.37996358 0.9250014 -0
vn -0.4017594 -0.4936459 -0.77129966
vn 0.7399801 0.67155397 -0.038009565
vn 0.61876804 0.4623654 -0.6350939
vn -0.5640271 -0.18670571 -0.8043721
vn 0.9737619 0.22756924 -0
vn 0.77908075 0.13587487 -0.6120222
vn -0.68132913 0.043988228 -0.7306543
vn 0.9975908 -0.069372155 -0
vn 0.7517103 -0.07917887 -0.6547231
g febg_coinrush_001_clothes_04_0
f 3/3/3 2/2/2 1/1/1
f 2/2/2 4/4/4 1/1/1
f 2/2/2 5/5/5 4/4/4
f 5/5/5 6/6/6 4/4/4
f 6/6/6 5/5/5 7/7/7
f 8/8/8 6/6/6 7/7/7
f 11/11/11 10/10/10 9/9/9
f 12/12/12 11/11/11 9/9/9
f 13/13/13 11/11/11 12/12/12
f 14/14/14 13/13/13 12/12/12
f 15/15/15 13/13/13 14/14/14
f 16/16/16 15/15/15 14/14/14
f 19/19/19 18/18/18 17/17/17
f 20/20/20 19/19/19 17/17/17
f 21/21/21 19/19/19 20/20/20
f 22/22/22 21/21/21 20/20/20
f 23/23/23 21/21/21 22/22/22
f 24/24/24 23/23/23 22/22/22
f 27/27/27 26/26/26 25/25/25
f 26/26/26 28/28/28 25/25/25
f 26/26/26 29/29/29 28/28/28
f 29/29/29 30/30/30 28/28/28
f 29/29/29 31/31/31 30/30/30
f 31/31/31 32/32/32 30/30/30
f 35/35/35 34/34/34 33/33/33
f 34/34/34 36/36/36 33/33/33
f 33/33/33 36/36/36 37/37/37
f 36/36/36 38/38/38 37/37/37
f 37/37/37 38/38/38 39/39/39
f 38/38/38 40/40/40 39/39/39
f 39/39/39 40/40/40 41/41/41
f 42/42/42 39/39/39 41/41/41
f 43/43/43 42/42/42 41/41/41
f 44/44/44 43/43/43 41/41/41
f 44/44/44 45/45/45 43/43/43
f 45/45/45 46/46/46 43/43/43
f 45/45/45 47/47/47 46/46/46
f 47/47/47 48/48/48 46/46/46
f 47/47/47 49/49/49 48/48/48
f 49/49/49 50/50/50 48/48/48
f 53/53/53 52/52/52 51/51/51
f 52/52/52 54/54/54 51/51/51
f 55/55/55 53/53/53 51/51/51
f 54/54/54 56/56/56 51/51/51
f 55/55/55 51/51/51 57/57/57
f 51/51/51 56/56/56 57/57/57
f 58/58/58 55/55/55 57/57/57
f 56/56/56 59/59/59 57/57/57
f 58/58/58 57/57/57 60/60/60
f 57/57/57 59/59/59 60/60/60
f 59/59/59 61/61/61 60/60/60
f 62/62/62 58/58/58 60/60/60
f 60/60/60 61/61/61 63/63/63
f 62/62/62 60/60/60 64/64/64
f 64/64/64 60/60/60 63/63/63
f 65/65/65 62/62/62 64/64/64
f 66/66/66 65/65/65 64/64/64
f 67/67/67 64/64/64 63/63/63
f 67/67/67 66/66/66 64/64/64
f 68/68/68 67/67/67 63/63/63
f 69/69/69 66/66/66 67/67/67
f 68/68/68 70/70/70 67/67/67
f 71/71/71 69/69/69 67/67/67
f 70/70/70 71/71/71 67/67/67
f 72/72/72 69/69/69 71/71/71
f 70/70/70 73/73/73 71/71/71
f 74/74/74 72/72/72 71/71/71
f 73/73/73 74/74/74 71/71/71
f 75/75/75 72/72/72 74/74/74
f 73/73/73 76/76/76 74/74/74
f 77/77/77 75/75/75 74/74/74
f 76/76/76 77/77/77 74/74/74
