g febg_lostcity_001_tree_leaf_03
v 2.131967 0.74700975 -0.3573897
v 0.86171997 0.72454906 0.28356528
v 0.82068825 2.128885 -0.3237493
v 2.6327198 -0.65598285 -0.33154297
v -0.88695025 0.6777513 0.31924343
v -0.92648745 2.0969856 -0.23401785
v -2.6431625 0.6486039 -0.25388217
v -2.612571 -0.7585746 -0.2654798
v -0.8505173 -0.72967887 0.30372643
v -1.0592432 -2.1373556 -0.2958045
v 0.8979919 -0.6824987 0.27541924
v 2.5597582 -1.4685816 -0.3372085
v 0.9227568 -2.0861754 -0.32678318
vt 0.81396925 0.17705366
vt 0.7354324 0.17687185
vt 0.7354324 0.2631958
vt 0.84273887 0.09056305
vt 0.6281259 0.17687185
vt 0.6281259 0.2631958
vt 0.5208193 0.17687185
vt 0.5208193 0.09056305
vt 0.6281259 0.09056305
vt 0.613688 0.004239098
vt 0.7354324 0.09056305
vt 0.83740616 0.040810883
vt 0.7354324 0.004239098
vn 0.43390822 0.2405315 0.86825585
vn 0.20989503 0.20772958 0.9554018
vn 0.1618922 0.38453996 0.9088013
vn 0.3571037 0.021318585 0.93382144
vn -0.14212573 0.17572767 0.97412527
vn -0.09812313 0.37013912 0.92377967
vn -0.30933553 0.09892315 0.94579375
vn -0.3037352 -0.12669012 0.94429576
vn -0.13092506 -0.19469413 0.97208685
vn -0.10692364 -0.3755048 0.9206321
vn 0.14829141 -0.17309287 0.9736778
vn 0.26269814 -0.18269342 0.9474243
vn 0.08188748 -0.39230576 0.91618264
g febg_lostcity_001_tree_leaf_03_0
f 3/3/3 2/2/2 1/1/1
f 1/1/1 2/2/2 4/4/4
f 5/5/5 2/2/2 3/3/3
f 6/6/6 5/5/5 3/3/3
f 6/6/6 7/7/7 5/5/5
f 5/5/5 7/7/7 8/8/8
f 9/9/9 5/5/5 8/8/8
f 5/5/5 9/9/9 2/2/2
f 10/10/10 9/9/9 8/8/8
f 2/2/2 11/11/11 4/4/4
f 9/9/9 11/11/11 2/2/2
f 11/11/11 9/9/9 10/10/10
f 12/12/12 4/4/4 11/11/11
f 13/13/13 11/11/11 10/10/10
f 13/13/13 12/12/12 11/11/11
