g febg_mothership_001_object_02
v -0.053566694 -4.4703484E-08 0.49465322
v 0.053570062 -4.4703484E-08 0.49465322
v 1.3560057E-06 -0.053568095 0.49465322
v 1.3560057E-06 0.05356866 0.49465322
v 1.3560057E-06 0.12353514 0.41694528
v -0.12353252 -4.4703484E-08 0.41694528
v 0.12353588 -4.4703484E-08 0.41694528
v 0.053570062 -4.4703484E-08 0.49465322
v 0.19350366 -4.4703484E-08 0.19049256
v 1.3560057E-06 0.19350226 0.19049256
v -0.1935003 -4.4703484E-08 0.19049256
v 1.3560057E-06 -0.19350235 -4.4703484E-08
v -0.1935003 -4.4703484E-08 -4.4703484E-08
v -0.1935003 -4.4703484E-08 0.07971741
v 1.3560057E-06 -0.19350235 0.07971741
v 0.19350366 -4.4703484E-08 -4.4703484E-08
v 1.3560057E-06 -0.19350235 -4.4703484E-08
v 0.19350366 -4.4703484E-08 0.07971741
v 1.3560057E-06 0.19350226 -4.4703484E-08
v 0.19350366 -4.4703484E-08 -4.4703484E-08
v 0.19350366 -4.4703484E-08 0.07971741
v 1.3560057E-06 0.19350226 0.07971741
v -0.1935003 -4.4703484E-08 -4.4703484E-08
v 1.3560057E-06 0.19350226 -4.4703484E-08
v -0.1935003 -4.4703484E-08 0.07971741
v 0.19350366 -4.4703484E-08 0.07971741
v 1.3560057E-06 -0.19350235 0.07971741
v 1.3560057E-06 -0.06192252 0.19049256
v -0.06192045 -4.4703484E-08 0.07971741
v -0.06192045 -4.4703484E-08 0.19049256
v 1.3560057E-06 -0.06192252 0.07971741
v 0.06192383 -4.4703484E-08 0.19049256
v 0.06192383 -4.4703484E-08 0.07971741
v 1.3560057E-06 0.061922416 0.19049256
v 0.06192383 -4.4703484E-08 0.07971741
v 0.06192383 -4.4703484E-08 0.19049256
v 1.3560057E-06 0.061922416 0.07971741
v -0.06192045 -4.4703484E-08 0.19049256
v -0.06192045 -4.4703484E-08 0.07971741
v 0.12353588 -4.4703484E-08 0.41694528
v 0.19350366 -4.4703484E-08 0.19049256
v 1.3560057E-06 -0.19350235 0.19049256
v 1.3560057E-06 -0.12353522 0.41694528
v 0.053570062 -4.4703484E-08 0.49465322
v -0.1935003 -4.4703484E-08 0.19049256
v 1.3560057E-06 -0.053568095 0.49465322
v -0.12353252 -4.4703484E-08 0.41694528
v -0.053566694 -4.4703484E-08 0.49465322
vt 0.1817026 0.5944885
vt 0.16647407 0.60642433
vt 0.17984286 0.607842
vt 0.1675259 0.5930251
vt 0.1629985 0.57608926
vt 0.19283055 0.5784673
vt 0.13822739 0.5928879
vt 0.15568149 0.6014244
vt 0.10953864 0.5608455
vt 0.15249555 0.53640974
vt 0.20193107 0.53640974
vt 0.12908113 0.4509532
vt 0.0865358 0.4509532
vt 0.0865358 0.46334636
vt 0.12908113 0.46334636
vt 0.17161123 0.4509532
vt 0.12908113 0.4509532
vt 0.17161123 0.46334636
vt 0.12906589 0.4509532
vt 0.0865358 0.4509532
vt 0.0865358 0.46334636
vt 0.12906589 0.46334636
vt 0.17162648 0.4509532
vt 0.12906589 0.4509532
vt 0.17162648 0.46334636
vt 0.12906589 0.50554115
vt 0.17162648 0.50554115
vt 0.1527242 0.53069335
vt 0.13633716 0.50996184
vt 0.13633716 0.53069335
vt 0.1527242 0.50996184
vt 0.1691265 0.53069335
vt 0.1691265 0.50996184
vt 0.1527242 0.53069335
vt 0.13633716 0.50996184
vt 0.13633716 0.53069335
vt 0.1527242 0.50996184
vt 0.1691265 0.53069335
vt 0.1691265 0.50996184
vt 0.19283055 0.5784673
vt 0.20193107 0.53640974
vt 0.15249555 0.53640974
vt 0.1629985 0.57608926
vt 0.1817026 0.5944885
vt 0.10953864 0.5608455
vt 0.1675259 0.5930251
vt 0.13822739 0.5928879
vt 0.15568149 0.6014244
vn -0.54447675 0.0009775162 0.8387754
vn 0.54447675 0.0009775162 0.8387754
vn -0.0009775162 -0.54447675 0.8387754
vn -0.0009775162 0.54447675 0.8387754
vn -0.0009775162 0.8905177 0.45494753
vn -0.8905177 0.0009775162 0.45494753
vn 0.89051765 0.0009775162 0.45494765
vn 0.54447675 0.0009775162 0.8387754
vn 0.9550338 0.0009775162 0.2964954
vn -0.0009775162 0.9550338 0.2964954
vn -0.9550338 0.0009775162 0.2964954
vn -0.0009775162 -0.9999995 -0
vn -0.9999995 0.0009775162 -0
vn -0.81622636 0.0009775162 0.5777314
vn -0.0009775162 -0.81622636 0.5777314
vn 0.9999995 0.0009775162 -0
vn -0.0009775162 -0.9999995 -0
vn 0.81622636 0.0009775162 0.5777314
vn -0.0009775162 0.9999995 -0
vn 0.9999995 0.0009775162 -0
vn 0.81622636 0.0009775162 0.5777314
vn -0.0009775162 0.81622636 0.5777314
vn -0.9999995 0.0009775162 -0
vn -0.0009775162 0.9999995 -0
vn -0.81622636 0.0009775162 0.5777314
vn 0.81622636 0.0009775162 0.5777314
vn -0.0009775162 -0.81622636 0.5777314
vn -0.0009775162 -0.9999995 -0
vn -0.9999995 0.0009775162 -0
vn -0.9999995 0.0009775162 -0
vn -0.0009775162 -0.9999995 -0
vn 0.9999995 0.0009775162 -0
vn 0.9999995 0.0009775162 -0
vn -0.0009775162 0.9999995 -0
vn 0.9999995 0.0009775162 -0
vn 0.9999995 0.0009775162 -0
vn -0.0009775162 0.9999995 -0
vn -0.9999995 0.0009775162 -0
vn -0.9999995 0.0009775162 -0
vn 0.89051765 0.0009775162 0.45494765
vn 0.9550338 0.0009775162 0.2964954
vn -0.0009775162 -0.9550338 0.2964954
vn -0.0009775162 -0.89051765 0.45494765
vn 0.54447675 0.0009775162 0.8387754
vn -0.9550338 0.0009775162 0.2964954
vn -0.0009775162 -0.54447675 0.8387754
vn -0.8905177 0.0009775162 0.45494753
vn -0.54447675 0.0009775162 0.8387754
g febg_mothership_001_object_02_0
f 3/3/3 2/2/2 1/1/1
f 2/2/2 4/4/4 1/1/1
f 4/4/4 5/5/5 1/1/1
f 5/5/5 6/6/6 1/1/1
f 7/7/7 5/5/5 4/4/4
f 8/8/8 7/7/7 4/4/4
f 7/7/7 9/9/9 5/5/5
f 9/9/9 10/10/10 5/5/5
f 5/5/5 10/10/10 6/6/6
f 10/10/10 11/11/11 6/6/6
f 14/14/14 13/13/13 12/12/12
f 15/15/15 14/14/14 12/12/12
f 15/15/15 17/17/17 16/16/16
f 18/18/18 15/15/15 16/16/16
f 21/21/21 20/20/20 19/19/19
f 22/22/22 21/21/21 19/19/19
f 22/22/22 24/24/24 23/23/23
f 25/25/25 22/22/22 23/23/23
f 22/22/22 25/25/25 26/26/26
f 25/25/25 27/27/27 26/26/26
f 30/30/30 29/29/29 28/28/28
f 29/29/29 31/31/31 28/28/28
f 28/28/28 31/31/31 32/32/32
f 31/31/31 33/33/33 32/32/32
f 36/36/36 35/35/35 34/34/34
f 35/35/35 37/37/37 34/34/34
f 34/34/34 37/37/37 38/38/38
f 37/37/37 39/39/39 38/38/38
f 42/42/42 41/41/41 40/40/40
f 43/43/43 42/42/42 40/40/40
f 43/43/43 40/40/40 44/44/44
f 45/45/45 42/42/42 43/43/43
f 46/46/46 43/43/43 44/44/44
f 47/47/47 45/45/45 43/43/43
f 47/47/47 43/43/43 46/46/46
f 48/48/48 47/47/47 46/46/46
