g febg_coinrush_001_coin_drink_08
v 4.440546E-06 0.57069737 0.05009851
v -0.026824415 0.6916181 0.026825309
v 6.2286854E-06 0.6916181 0.03794095
v -0.035422742 0.57069737 0.035427183
v -0.037938267 0.6916181 -8.016825E-06
v -0.16278395 0.46534085 0.16278037
v 2.6673079E-06 0.46534085 0.23020932
v -2.6971102E-06 0.41839665 0.24374416
v -0.050099373 0.57069737 -3.5613775E-06
v -0.026824415 0.6916181 -0.026835978
v -0.230212 0.46534085 -8.016825E-06
v -0.17235637 0.41839665 0.17235193
v -0.035422742 0.57069737 -0.03543073
v 6.2286854E-06 0.6916181 -0.03794895
v -0.16278574 0.46534085 -0.16278839
v 4.440546E-06 0.57069737 -0.050110057
v 0.026837751 0.6916181 -0.026835978
v -0.112258196 0.027698606 0.11226264
v 6.2286854E-06 0.027698606 0.15876356
v -0.24375042 0.41839755 -3.5613775E-06
v 8.791685E-07 0.46534085 -0.23021287
v 0.03543341 0.57069737 -0.03543073
v 0.03795162 0.6916181 -8.016825E-06
v -0.112258196 0.0007983893 0.11226264
v 6.2286854E-06 0.0007983893 0.15876356
v -0.15875909 0.0007983893 1.4901161E-08
v -0.15875909 0.027698606 1.4901161E-08
v -0.112258196 0.0007983893 -0.11226262
v -0.112258196 0.027698606 -0.11226262
v 4.440546E-06 0.0007983893 -0.15876353
v -0.17235816 0.41839755 -0.17235546
v 4.440546E-06 0.027698606 -0.15876353
v 0.11226708 0.0007992834 -0.11226262
v -4.4703484E-06 0.41839665 -0.24374771
v 0.11226708 0.027698606 -0.11226262
v 0.15877065 0.0007992834 1.4901161E-08
v 0.16278571 0.46534085 -0.16278839
v 0.17235279 0.41839755 -0.17235546
v 0.15877065 0.027698606 1.4901161E-08
v 0.11226708 0.0007992834 0.11226264
v 0.23021375 0.46534085 -8.016825E-06
v 0.24374682 0.41839755 -3.5613775E-06
v 0.11226708 0.027698606 0.11226264
v 6.2286854E-06 0.0007983893 0.15876356
v 6.2286854E-06 0.027698606 0.15876356
v 0.17235279 0.41839755 0.17235193
v -2.6971102E-06 0.41839665 0.24374416
v 2.6673079E-06 0.46534085 0.23020932
v 0.1627875 0.46534085 0.16278037
v 0.050109178 0.57069737 -3.5613775E-06
v 0.026837751 0.6916181 0.026825309
v 0.03543341 0.57069737 0.035427183
v 4.440546E-06 0.57069737 0.05009851
v 6.2286854E-06 0.6916181 0.03794095
v 0.026837751 0.6916181 -0.026835978
v -0.026824415 0.6916181 -0.026835978
v 6.2286854E-06 0.6916181 -0.03794895
v 0.03795162 0.6916181 -8.016825E-06
v -0.037938267 0.6916181 -8.016825E-06
v -0.026824415 0.6916181 0.026825309
v 0.026837751 0.6916181 0.026825309
v 6.2286854E-06 0.6916181 0.03794095
vt 0.45456594 0.35616747
vt 0.46002322 0.36595395
vt 0.45744702 0.366518
vt 0.45819396 0.35468882
vt 0.4626299 0.36584726
vt 0.44749284 0.3385152
vt 0.43177652 0.3385152
vt 0.43177652 0.3330579
vt 0.46264514 0.35429248
vt 0.46522135 0.3662741
vt 0.46246222 0.3385152
vt 0.44749284 0.3330579
vt 0.467264 0.35491747
vt 0.46781278 0.36706674
vt 0.4775078 0.3385152
vt 0.47090727 0.356701
vt 0.46522135 0.3662741
vt 0.45014527 0.29464364
vt 0.4383161 0.29464364
vt 0.46246222 0.3330579
vt 0.49349853 0.3385152
vt 0.467264 0.35491747
vt 0.4626299 0.36584726
vt 0.45014527 0.29214367
vt 0.4383161 0.29214367
vt 0.46246222 0.29214367
vt 0.46246222 0.29464364
vt 0.4745353 0.29214367
vt 0.4745353 0.29464364
vt 0.48590714 0.29214367
vt 0.4775078 0.3330579
vt 0.48590714 0.29464364
vt 0.4745353 0.29214367
vt 0.49349853 0.3330579
vt 0.4745353 0.29464364
vt 0.46246222 0.29214367
vt 0.4775078 0.3385152
vt 0.4775078 0.3330579
vt 0.46246222 0.29464364
vt 0.45014527 0.29214367
vt 0.46246222 0.3385152
vt 0.46246222 0.3330579
vt 0.45014527 0.29464364
vt 0.4383161 0.29214367
vt 0.4383161 0.29464364
vt 0.44749284 0.3330579
vt 0.43177652 0.3330579
vt 0.43177652 0.3385152
vt 0.44749284 0.3385152
vt 0.46264514 0.35429248
vt 0.46002322 0.36595395
vt 0.45819396 0.35468882
vt 0.45456594 0.35616747
vt 0.45744702 0.366518
vt 0.49455035 0.29394242
vt 0.49455035 0.2989424
vt 0.49558693 0.2964424
vt 0.49205035 0.29290584
vt 0.49205035 0.29997894
vt 0.49455035 0.2989424
vt 0.49455035 0.29394242
vt 0.49558693 0.2964424
vn -0.0009775162 0.5972626 0.8020451
vn -0.52688146 0.6676439 0.5259729
vn -0.0009775162 0.6676439 0.74448013
vn -0.5659821 0.5972626 0.5682795
vn -0.74389017 0.6676439 -0.029648766
vn -0.5796673 0.57380223 0.5785644
vn 0.0009775162 0.57380223 0.8189933
vn -0.0009775162 0.032258034 0.9994791
vn -0.80222243 0.5970254 -0
vn -0.52688146 0.6676439 -0.5259729
vn -0.8193696 0.57326573 -0
vn -0.70674455 0.032258034 0.706733
vn -0.56793714 0.5972626 -0.56632566
vn -0.0009775162 0.6676439 -0.74448013
vn -0.5796673 0.57380223 -0.5785644
vn -0.0009775162 0.5972626 -0.8020451
vn 0.52688146 0.6676439 -0.5259729
vn -0.7028345 -0.11045939 0.70272493
vn -0.0009775162 -0.11045939 0.99388015
vn -0.9994802 0.03224128 -0
vn 0.0009775162 0.57380223 -0.8189933
vn 0.56793714 0.5972626 -0.56632566
vn 0.74389017 0.6676439 -0.029648766
vn -0.70674455 0.0009775162 0.70746815
vn -0.0009775162 0.0009775162 0.99999905
vn -0.9999995 0.0009775162 -0
vn -0.9938837 -0.11043153 -0
vn -0.70674455 0.0009775162 -0.70746815
vn -0.7028345 -0.11045939 -0.70272493
vn -0.0009775162 0.0009775162 -0.99999905
vn -0.70674455 0.032258034 -0.706733
vn -0.0009775162 -0.11045939 -0.99388015
vn 0.70674455 0.0009775162 -0.70746815
vn -0.0009775162 0.032258034 -0.9994791
vn 0.7028345 -0.11045939 -0.70272493
vn 0.9999995 0.0009775162 -0
vn 0.5796673 0.57380223 -0.5785644
vn 0.70674455 0.032258034 -0.706733
vn 0.9938837 -0.11043153 -0
vn 0.70674455 0.0009775162 0.70746815
vn 0.8193696 0.57326573 -0
vn 0.9994802 0.03224128 -0
vn 0.7028345 -0.11045939 0.70272493
vn -0.0009775162 0.0009775162 0.99999905
vn -0.0009775162 -0.11045939 0.99388015
vn 0.70674455 0.032258034 0.706733
vn -0.0009775162 0.032258034 0.9994791
vn 0.0009775162 0.57380223 0.8189933
vn 0.5796673 0.57380223 0.5785644
vn 0.80222243 0.5970254 -0
vn 0.52688146 0.6676439 0.5259729
vn 0.5659821 0.5972626 0.5682795
vn -0.0009775162 0.5972626 0.8020451
vn -0.0009775162 0.6676439 0.74448013
vn 0.52688146 0.6676439 -0.5259729
vn -0.52688146 0.6676439 -0.5259729
vn -0.0009775162 0.6676439 -0.74448013
vn 0.74389017 0.6676439 -0.029648766
vn -0.74389017 0.6676439 -0.029648766
vn -0.52688146 0.6676439 0.5259729
vn 0.52688146 0.6676439 0.5259729
vn -0.0009775162 0.6676439 0.74448013
g febg_coinrush_001_coin_drink_08_0
f 3/3/3 2/2/2 1/1/1
f 2/2/2 4/4/4 1/1/1
f 2/2/2 5/5/5 4/4/4
f 4/4/4 6/6/6 1/1/1
f 6/6/6 7/7/7 1/1/1
f 7/7/7 6/6/6 8/8/8
f 5/5/5 9/9/9 4/4/4
f 5/5/5 10/10/10 9/9/9
f 11/11/11 6/6/6 4/4/4
f 9/9/9 11/11/11 4/4/4
f 6/6/6 12/12/12 8/8/8
f 6/6/6 11/11/11 12/12/12
f 10/10/10 13/13/13 9/9/9
f 10/10/10 14/14/14 13/13/13
f 15/15/15 11/11/11 9/9/9
f 13/13/13 15/15/15 9/9/9
f 14/14/14 16/16/16 13/13/13
f 14/14/14 17/17/17 16/16/16
f 8/8/8 12/12/12 18/18/18
f 19/19/19 8/8/8 18/18/18
f 11/11/11 20/20/20 12/12/12
f 11/11/11 15/15/15 20/20/20
f 21/21/21 15/15/15 13/13/13
f 16/16/16 21/21/21 13/13/13
f 17/17/17 22/22/22 16/16/16
f 17/17/17 23/23/23 22/22/22
f 18/18/18 24/24/24 19/19/19
f 24/24/24 25/25/25 19/19/19
f 26/26/26 24/24/24 18/18/18
f 18/18/18 12/12/12 27/27/27
f 27/27/27 26/26/26 18/18/18
f 12/12/12 20/20/20 27/27/27
f 28/28/28 26/26/26 27/27/27
f 29/29/29 28/28/28 27/27/27
f 27/27/27 20/20/20 29/29/29
f 30/30/30 28/28/28 29/29/29
f 20/20/20 31/31/31 29/29/29
f 15/15/15 31/31/31 20/20/20
f 15/15/15 21/21/21 31/31/31
f 32/32/32 30/30/30 29/29/29
f 29/29/29 31/31/31 32/32/32
f 33/33/33 30/30/30 32/32/32
f 21/21/21 34/34/34 31/31/31
f 31/31/31 34/34/34 32/32/32
f 35/35/35 33/33/33 32/32/32
f 32/32/32 34/34/34 35/35/35
f 36/36/36 33/33/33 35/35/35
f 21/21/21 37/37/37 34/34/34
f 37/37/37 21/21/21 16/16/16
f 22/22/22 37/37/37 16/16/16
f 34/34/34 38/38/38 35/35/35
f 37/37/37 38/38/38 34/34/34
f 39/39/39 36/36/36 35/35/35
f 35/35/35 38/38/38 39/39/39
f 40/40/40 36/36/36 39/39/39
f 41/41/41 37/37/37 22/22/22
f 37/37/37 41/41/41 38/38/38
f 38/38/38 42/42/42 39/39/39
f 41/41/41 42/42/42 38/38/38
f 43/43/43 40/40/40 39/39/39
f 39/39/39 42/42/42 43/43/43
f 44/44/44 40/40/40 43/43/43
f 45/45/45 44/44/44 43/43/43
f 43/43/43 46/46/46 45/45/45
f 42/42/42 46/46/46 43/43/43
f 46/46/46 47/47/47 45/45/45
f 48/48/48 47/47/47 46/46/46
f 49/49/49 46/46/46 42/42/42
f 41/41/41 49/49/49 42/42/42
f 49/49/49 48/48/48 46/46/46
f 50/50/50 41/41/41 22/22/22
f 49/49/49 41/41/41 50/50/50
f 23/23/23 50/50/50 22/22/22
f 23/23/23 51/51/51 50/50/50
f 48/48/48 49/49/49 52/52/52
f 52/52/52 49/49/49 50/50/50
f 51/51/51 52/52/52 50/50/50
f 53/53/53 48/48/48 52/52/52
f 51/51/51 54/54/54 52/52/52
f 54/54/54 53/53/53 52/52/52
f 57/57/57 56/56/56 55/55/55
f 58/58/58 55/55/55 56/56/56
f 59/59/59 58/58/58 56/56/56
f 58/58/58 59/59/59 60/60/60
f 61/61/61 58/58/58 60/60/60
f 62/62/62 61/61/61 60/60/60
