g febg_hotspring_001_tree_01
v -0.012523532 5.065396 -0.1536777
v 0.09710342 5.097079 -0.19129914
v 0.06381142 5.9813957 -0.13451803
v -0.03501755 4.7047806 0.025886834
v 0.002358377 5.0435414 -0.034131765
v 0.11175907 5.073428 -0.070939004
v 0.06381142 5.9813957 -0.13451803
v 0.09915185 4.7427964 -0.034241617
v -0.04770881 4.6151986 -0.1351772
v 0.09710342 5.097079 -0.19129914
v 0.11175907 5.073428 -0.070939004
v 0.09915185 4.7427964 -0.034241617
v -0.04485905 4.2218537 0.054694176
v 0.15557104 4.2108874 -0.007262945
v -0.098137796 3.6429603 0.08347565
v 0.17424607 3.612518 0.01627791
v 0.14532244 2.293687 0.07272947
v 0.086247325 4.6536407 -0.20205832
v 0.15557104 4.2108874 -0.007262945
v -0.12496132 4.1573567 -0.13663113
v 0.10468972 4.152853 -0.20101792
v 0.083242536 3.6044343 -0.2126494
v 0.17424607 3.612518 0.01627791
v -0.1530062 3.6060307 -0.15424639
v 0.095914364 2.1968935 -0.31406966
v 0.14532244 2.293687 0.07272947
v 0.18765461 1.4105911 0.1441921
v -0.20833331 2.2621787 0.17369735
v 0.18765461 1.4105911 0.1441921
v -0.24350578 2.131699 -0.24222577
v 0.16438514 1.233243 -0.3755486
v -0.2536574 1.385997 0.27153116
v 0.50119466 -0.00032281876 0.28512067
v -0.14485121 -0.00025177002 0.6102275
v -0.648282 -0.0002065301 0.24718255
v -0.3293591 1.2387488 -0.24503022
v -0.6255682 -0.0002065301 -0.45630997
v 0.063733935 -0.00034868717 -0.7944377
v 0.46582842 -0.00034868717 -0.33662185
v 0.50119466 -0.00032281876 0.28512067
v -0.012523532 5.065396 -0.1536777
v 0.06381142 5.9813957 -0.13451803
v 0.002358377 5.0435414 -0.034131765
vt 0.81040114 0.18558976
vt 0.81162065 0.18824217
vt 0.83300763 0.18374527
vt 0.80116343 0.18249528
vt 0.8096389 0.18266296
vt 0.8108127 0.17993432
vt 0.83300763 0.18374527
vt 0.8025811 0.17906544
vt 0.79925793 0.18659584
vt 0.81162065 0.18824217
vt 0.81172734 0.19127569
vt 0.8038311 0.19372992
vt 0.78931904 0.18203796
vt 0.7894562 0.17687033
vt 0.7749441 0.18261723
vt 0.77483743 0.17566606
vt 0.7428255 0.17388254
vt 0.8008433 0.19008666
vt 0.7910721 0.19729696
vt 0.7878251 0.1870684
vt 0.78873974 0.19276957
vt 0.77523375 0.19456834
vt 0.7767277 0.20042194
vt 0.7742582 0.18865375
vt 0.7407066 0.20062011
vt 0.745859 0.20891272
vt 0.72717017 0.21743397
vt 0.74064565 0.18263248
vt 0.7225818 0.16967528
vt 0.7376579 0.19278482
vt 0.71733797 0.20752554
vt 0.7188166 0.18046786
vt 0.6906004 0.15830342
vt 0.68630165 0.16583385
vt 0.68354255 0.18025444
vt 0.7149447 0.19412626
vt 0.68285656 0.19635186
vt 0.6855852 0.21379071
vt 0.69149977 0.22644304
vt 0.69651496 0.23415639
vt 0.81040114 0.18558976
vt 0.83300763 0.18374527
vt 0.8096389 0.18266296
vn -0.8746648 0.14241362 -0.46333557
vn -0.65311193 0.57425404 -0.49363664
vn -0.6362138 0.1987406 0.74547577
vn -0.24943495 0.044780135 0.96735567
vn -0.6362138 0.1987406 0.74547577
vn 0.85269696 0.04290259 0.5206412
vn -0.65311193 0.57425404 -0.49363664
vn 0.7663289 -0.0265674 0.64189893
vn -0.8446237 0.14429116 -0.5155491
vn 0.44902003 0.11612773 -0.8859432
vn 0.85269696 0.04290259 0.5206412
vn 0.7663289 -0.0265674 0.64189893
vn -0.21188366 0.048535287 0.97608894
vn 0.80012506 -0.0453431 0.59811693
vn -0.5348252 0.050412834 0.84345746
vn 0.9015137 0.018494189 0.43235523
vn 0.8151456 -0.002159059 0.57925206
vn 0.4846938 0.08045387 -0.870976
vn 0.80012506 -0.0453431 0.59811693
vn -0.88405263 0.23816955 -0.402152
vn 0.44150975 0.114250064 -0.88995284
vn 0.44338733 0.084209085 -0.8923657
vn 0.9015137 0.018494189 0.43235523
vn -0.8896854 0.099229574 -0.44566065
vn 0.59547025 0.05792308 -0.8012865
vn 0.8151456 -0.002159059 0.57925206
vn 0.7400429 0.06355578 0.66954994
vn -0.5160495 0.024126887 0.8562189
vn 0.7400429 0.06355578 0.66954994
vn -0.79392946 0.093596935 -0.60076255
vn 0.24436522 0.13490331 -0.9602535
vn -0.29449654 0.12176037 0.947864
vn 0.67245054 0.118005276 0.7306743
vn 0.11481309 0.10673988 0.98763585
vn -0.8971956 0.07857633 0.434587
vn -0.70380616 0.14241362 -0.6959707
vn -0.62307084 0.14241362 -0.76909107
vn -0.048535287 0.12927067 -0.9904208
vn 0.93343234 0.05792308 -0.35404658
vn 0.67245054 0.118005276 0.7306743
vn -0.9873189 0.07857633 0.13793913
vn -0.9873189 0.07857633 0.13793913
vn -0.9873189 0.07857633 0.13793913
g febg_hotspring_001_tree_01_0
f 3/3/3 2/2/2 1/1/1
f 5/5/5 1/1/1 4/4/4
f 6/6/6 5/5/5 4/4/4
f 6/6/6 7/7/7 5/5/5
f 8/8/8 6/6/6 4/4/4
f 1/1/1 9/9/9 4/4/4
f 1/1/1 10/10/10 9/9/9
f 10/10/10 7/7/7 11/11/11
f 11/11/11 12/12/12 10/10/10
f 4/4/4 13/13/13 8/8/8
f 13/13/13 4/4/4 9/9/9
f 13/13/13 14/14/14 8/8/8
f 14/14/14 13/13/13 15/15/15
f 16/16/16 14/14/14 15/15/15
f 17/17/17 16/16/16 15/15/15
f 12/12/12 18/18/18 10/10/10
f 10/10/10 18/18/18 9/9/9
f 18/18/18 12/12/12 19/19/19
f 20/20/20 13/13/13 9/9/9
f 13/13/13 20/20/20 15/15/15
f 9/9/9 18/18/18 21/21/21
f 21/21/21 18/18/18 19/19/19
f 20/20/20 9/9/9 21/21/21
f 22/22/22 21/21/21 19/19/19
f 20/20/20 21/21/21 22/22/22
f 23/23/23 22/22/22 19/19/19
f 24/24/24 20/20/20 22/22/22
f 20/20/20 24/24/24 15/15/15
f 22/22/22 23/23/23 25/25/25
f 22/22/22 25/25/25 24/24/24
f 23/23/23 26/26/26 25/25/25
f 26/26/26 27/27/27 25/25/25
f 28/28/28 17/17/17 15/15/15
f 29/29/29 17/17/17 28/28/28
f 15/15/15 24/24/24 30/30/30
f 25/25/25 30/30/30 24/24/24
f 28/28/28 15/15/15 30/30/30
f 27/27/27 31/31/31 25/25/25
f 30/30/30 25/25/25 31/31/31
f 32/32/32 29/29/29 28/28/28
f 29/29/29 32/32/32 33/33/33
f 32/32/32 34/34/34 33/33/33
f 32/32/32 35/35/35 34/34/34
f 30/30/30 36/36/36 28/28/28
f 36/36/36 32/32/32 28/28/28
f 36/36/36 35/35/35 32/32/32
f 36/36/36 30/30/30 31/31/31
f 36/36/36 37/37/37 35/35/35
f 37/37/37 36/36/36 31/31/31
f 38/38/38 37/37/37 31/31/31
f 39/39/39 38/38/38 31/31/31
f 39/39/39 31/31/31 27/27/27
f 40/40/40 39/39/39 27/27/27
f 43/43/43 42/42/42 41/41/41
