g febg_shop_001_menu_02
v -0.2325049 0.669026 0.2066431
v -0.2325049 0.6645449 0.23205781
v -0.2325049 0.06985065 0.02000907
v -0.2325049 0.07433176 -0.0054056346
v 0.2325046 0.07433176 -0.0054056346
v 0.2325046 0.669026 0.2066431
v -0.2325049 0.6645449 0.23205781
v 0.2325046 0.6645449 0.23205781
v 0.2325046 0.6645449 0.23205781
v 0.2325046 0.06985065 0.02000907
v -0.2325049 0.6645449 0.23205781
v -0.2325049 0.06985065 0.02000907
v -0.14553943 -2.8312206E-07 0.08410904
v 0.14554 0.08162516 0.08410904
v 0.14554 -2.8312206E-07 0.08410904
v -0.14553943 0.08162516 0.08410904
v -0.14553943 0.09397659 0.072577834
v 0.14554 0.09397659 0.072577834
v -0.14553943 0.09397659 0.024307936
v 0.14554 0.09397659 0.024307936
v 0.14554 0.054036945 0.024307936
v -0.14553943 0.054036945 0.024307936
v 0.14554 0.054036945 -0.0063651353
v -0.14553943 0.054036945 -0.0063651353
v -0.14553943 -2.8312206E-07 -0.12596825
v 0.14554 -2.8312206E-07 -0.12596825
v 0.14554 0.08162516 -0.12596825
v -0.14553943 0.08162516 -0.12596825
v 0.14554 0.09397659 -0.11443619
v -0.14553943 0.09397659 -0.11443619
v -0.14553943 0.09397659 -0.0063651353
v 0.14554 0.09397659 -0.0063651353
v -0.14553943 0.054036945 -0.0063651353
v 0.14554 0.054036945 -0.0063651353
v 0.14554 0.054036945 -0.0063651353
v 0.14554 0.08162516 -0.12596825
v 0.14554 -2.8312206E-07 -0.12596825
v 0.14554 0.054036945 0.024307936
v 0.14554 -2.8312206E-07 0.08410904
v 0.14554 0.08162516 0.08410904
v 0.14554 0.09397659 0.072577834
v 0.14554 0.09397659 0.024307936
v -0.14553943 0.054036945 -0.0063651353
v -0.14553943 0.09397659 -0.11443619
v -0.14553943 0.09397659 -0.0063651353
v -0.14553943 0.08162516 -0.12596825
v -0.14553943 -2.8312206E-07 -0.12596825
v -0.14553943 0.054036945 0.024307936
v -0.14553943 -2.8312206E-07 0.08410904
v -0.14553943 0.08162516 0.08410904
v -0.14553943 0.09397659 0.072577834
v -0.14553943 0.09397659 0.024307936
vt 0.90016365 0.7342387
vt 0.90016365 0.7342387
vt 0.90016365 0.682549
vt 0.90016365 0.682549
vt 0.8620852 0.682549
vt 0.8620852 0.7342387
vt 0.90016365 0.7342387
vt 0.8620852 0.7342387
vt 0.8620852 0.7342387
vt 0.8620852 0.682549
vt 0.90016365 0.7342387
vt 0.90016365 0.682549
vt 0.883014 0.67283744
vt 0.8402831 0.66083723
vt 0.8402831 0.67282236
vt 0.883014 0.6608523
vt 0.883014 0.65836793
vt 0.8402831 0.65836793
vt 0.883014 0.65127623
vt 0.8402831 0.65127623
vt 0.8402831 0.6454192
vt 0.883014 0.6454192
vt 0.8402831 0.64093226
vt 0.883014 0.64093226
vt 0.883014 0.604751
vt 0.8402831 0.604736
vt 0.8402831 0.6167211
vt 0.883014 0.6167211
vt 0.8402831 0.6192055
vt 0.883014 0.6192055
vt 0.883014 0.6350752
vt 0.8402831 0.6350752
vt 0.883014 0.64093226
vt 0.8402831 0.64093226
vt 0.83444107 0.6350752
vt 0.8384913 0.6175191
vt 0.8265062 0.6175191
vt 0.83444107 0.63957715
vt 0.8265062 0.64835525
vt 0.8384763 0.64835525
vt 0.8402831 0.6466689
vt 0.8402831 0.63957715
vt 0.83444107 0.6350752
vt 0.8402831 0.6192055
vt 0.8402831 0.6350752
vt 0.8384913 0.6175191
vt 0.8265062 0.6175191
vt 0.83444107 0.63957715
vt 0.8265062 0.64835525
vt 0.8384763 0.64837027
vt 0.8402831 0.64668393
vt 0.8402831 0.63959223
vn -0.58622307 0.69940025 -0.40887868
vn -0.5685391 0.4129203 0.7115196
vn -0.74184173 -0.2254703 0.631533
vn -0.66580075 0.250228 -0.7029191
vn 0.6658007 0.250228 -0.7029192
vn 0.5862229 0.69940025 -0.40887898
vn -0.5685391 0.4129203 0.7115196
vn 0.56853896 0.4129203 0.7115197
vn 0.56853896 0.4129203 0.7115197
vn 0.7418417 -0.2254703 0.6315331
vn -0.5685391 0.4129203 0.7115196
vn -0.74184173 -0.2254703 0.631533
vn -0.7064739 0.0008842349 0.7077386
vn 0.6339696 0.28382748 0.71939176
vn 0.7064738 0.0008842349 0.70773864
vn -0.6339697 0.28382748 0.71939164
vn -0.6268961 0.7135474 0.3128121
vn 0.626896 0.7135474 0.31281218
vn -0.5773811 0.5773811 -0.5772887
vn 0.57738096 0.5773811 -0.57728875
vn 0.90453404 0.30151135 -0.30151135
vn -0.90453416 0.30151135 -0.30151096
vn 0.90453404 0.30151135 0.30151135
vn -0.90453416 0.30151135 0.30151096
vn -0.7064739 0.0008842349 -0.7077386
vn 0.7064738 0.0008842349 -0.70773864
vn 0.6339696 0.28382748 -0.71939176
vn -0.6339697 0.28382748 -0.71939164
vn 0.626896 0.7135474 -0.31281218
vn -0.6268961 0.7135474 -0.3128121
vn -0.5773811 0.5773811 0.5772887
vn 0.57738096 0.5773811 0.57728875
vn -0.90453416 0.30151135 0.30151096
vn 0.90453404 0.30151135 0.30151135
vn 0.90453404 0.30151135 0.30151135
vn 0.6339696 0.28382748 -0.71939176
vn 0.7064738 0.0008842349 -0.70773864
vn 0.90453404 0.30151135 -0.30151135
vn 0.7064738 0.0008842349 0.70773864
vn 0.6339696 0.28382748 0.71939176
vn 0.626896 0.7135474 0.31281218
vn 0.57738096 0.5773811 -0.57728875
vn -0.90453416 0.30151135 0.30151096
vn -0.6268961 0.7135474 -0.3128121
vn -0.5773811 0.5773811 0.5772887
vn -0.6339697 0.28382748 -0.71939164
vn -0.7064739 0.0008842349 -0.7077386
vn -0.90453416 0.30151135 -0.30151096
vn -0.7064739 0.0008842349 0.7077386
vn -0.6339697 0.28382748 0.71939164
vn -0.6268961 0.7135474 0.3128121
vn -0.5773811 0.5773811 -0.5772887
g febg_shop_001_menu_02_0
f 3/3/3 2/2/2 1/1/1
f 4/4/4 3/3/3 1/1/1
f 4/4/4 1/1/1 5/5/5
f 1/1/1 6/6/6 5/5/5
f 1/1/1 7/7/7 6/6/6
f 7/7/7 8/8/8 6/6/6
f 6/6/6 9/9/9 5/5/5
f 9/9/9 10/10/10 5/5/5
f 9/9/9 11/11/11 10/10/10
f 11/11/11 12/12/12 10/10/10
f 15/15/15 14/14/14 13/13/13
f 14/14/14 16/16/16 13/13/13
f 16/16/16 14/14/14 17/17/17
f 14/14/14 18/18/18 17/17/17
f 19/19/19 17/17/17 18/18/18
f 20/20/20 19/19/19 18/18/18
f 19/19/19 20/20/20 21/21/21
f 22/22/22 19/19/19 21/21/21
f 22/22/22 21/21/21 23/23/23
f 24/24/24 22/22/22 23/23/23
f 27/27/27 26/26/26 25/25/25
f 28/28/28 27/27/27 25/25/25
f 27/27/27 28/28/28 29/29/29
f 28/28/28 30/30/30 29/29/29
f 30/30/30 31/31/31 29/29/29
f 31/31/31 32/32/32 29/29/29
f 32/32/32 31/31/31 33/33/33
f 34/34/34 32/32/32 33/33/33
f 32/32/32 35/35/35 29/29/29
f 29/29/29 35/35/35 36/36/36
f 36/36/36 35/35/35 37/37/37
f 35/35/35 38/38/38 37/37/37
f 38/38/38 39/39/39 37/37/37
f 38/38/38 40/40/40 39/39/39
f 41/41/41 40/40/40 38/38/38
f 42/42/42 41/41/41 38/38/38
f 45/45/45 44/44/44 43/43/43
f 44/44/44 46/46/46 43/43/43
f 43/43/43 46/46/46 47/47/47
f 48/48/48 43/43/43 47/47/47
f 49/49/49 48/48/48 47/47/47
f 50/50/50 48/48/48 49/49/49
f 51/51/51 48/48/48 50/50/50
f 52/52/52 48/48/48 51/51/51
