g febg_tropical_001_house_03_water
v 2.3024747 0.027591467 -1.7019867
v -0.80387473 0.027591467 -0.29104257
v -0.80387473 0.027591467 -1.7019867
v 2.859768 0.027591467 -1.1446934
v 2.8586824 0.027591467 1.7019858
v -1.1116652 0.027591467 0.01900053
v -2.859756 0.027591467 1.699542
v -2.859756 0.027591467 0.019758701
vt 0.9022448 0.59525067
vt 0.35971925 0.34869802
vt 0.3597345 0.5952964
vt 0.99950004 0.49773628
vt 0.99919516 0.0005
vt 0.3058173 0.29438448
vt 0.00054573134 0.0007896315
vt 0.0005 0.29411012
vn -0 1 -0
vn -0 1 -0
vn -0 1 -0
vn -0 1 -0
vn -0 1 -0
vn -0 1 -0
vn -0 1 -0
vn -0 1 -0
g febg_tropical_001_house_03_water_0
f 3/3/3 2/2/2 1/1/1
f 2/2/2 4/4/4 1/1/1
f 4/4/4 2/2/2 5/5/5
f 2/2/2 6/6/6 5/5/5
f 7/7/7 5/5/5 6/6/6
f 8/8/8 7/7/7 6/6/6
