g febg_factory_001_tree_leaf_02
v 2.0351646 0.47956395 -0.2058096
v 2.0351646 -0.68641186 -0.2058096
v 0.67838824 -0.47956383 0.2058096
v 0.67838824 -1.4386954 -0.2058096
v -0.6783881 -1.4386954 -0.2058096
v 0.67838824 0.47956395 0.2058096
v 0.67838824 1.4386954 -0.2058096
v -0.6783881 -0.47956383 0.2058096
v -2.0351646 -0.47956383 -0.2058096
v -0.6783881 0.47956395 0.2058096
v -0.6783881 1.4386954 -0.2058096
v -2.0351646 0.47956395 -0.2058096
vt 0.35764086 0.80871737
vt 0.35764086 0.7595844
vt 0.29970345 0.7677707
vt 0.29970345 0.7268241
vt 0.24178112 0.7268241
vt 0.29970345 0.80871737
vt 0.29970345 0.8496791
vt 0.24178112 0.7677707
vt 0.1838437 0.7677707
vt 0.24178112 0.80871737
vt 0.24178112 0.8496791
vt 0.1838437 0.80871737
vn 0.2884621 0.11591533 0.95044893
vn 0.26927912 -0.13039425 0.95419395
vn 0.13039425 -0.18794324 0.9734858
vn 0.08895901 -0.3928176 0.9153036
vn -0.10594019 -0.39205027 0.9138234
vn 0.14190406 0.19571659 0.97033924
vn 0.10584003 0.39215043 0.9137921
vn -0.14123693 -0.19561642 0.9704568
vn -0.28856227 -0.11581519 0.9504308
vn -0.14123693 0.19571659 0.9704366
vn -0.10594019 0.39215043 0.91378045
vn -0.28856227 0.11591533 0.9504186
g febg_factory_001_tree_leaf_02_0
f 3/3/3 2/2/2 1/1/1
f 4/4/4 2/2/2 3/3/3
f 4/4/4 3/3/3 5/5/5
f 6/6/6 3/3/3 1/1/1
f 7/7/7 6/6/6 1/1/1
f 3/3/3 8/8/8 5/5/5
f 8/8/8 3/3/3 6/6/6
f 5/5/5 8/8/8 9/9/9
f 10/10/10 6/6/6 7/7/7
f 10/10/10 8/8/8 6/6/6
f 8/8/8 10/10/10 9/9/9
f 11/11/11 10/10/10 7/7/7
f 10/10/10 12/12/12 9/9/9
f 11/11/11 12/12/12 10/10/10
