g febg_coinrush_001_gamechair_01
v 0.4608408 0.8524259 -0.47212273
v 0.4608408 0.6837798 -0.47212273
v 0.4608408 0.6837798 0.36956286
v 0.4608408 0.8524259 0.36956286
v 0.42084154 0.8924251 0.36956286
v 0.42084154 0.8924251 -0.47212273
v 0.42084154 0.8524259 -0.512122
v 0.4608408 0.6837798 -0.47212273
v 0.42084154 0.6837798 -0.512122
v -1.7881393E-07 0.6837798 -0.512122
v -1.7881393E-07 0.8524259 -0.512122
v -0.42084187 0.8524259 -0.512122
v -0.42084187 0.6837798 -0.512122
v -0.46084112 0.6837798 -0.47212273
v -0.46084112 0.8524259 -0.47212273
v -0.42084187 0.8924251 -0.47212273
v -1.7881393E-07 0.8924251 -0.47212273
v -1.7881393E-07 0.8924251 0.36956286
v -0.42084187 0.8924251 0.36956286
v -0.46084112 0.8524259 0.36956286
v -1.7881393E-07 0.8524259 0.40956432
v -0.42084187 0.8524259 0.40956432
v -0.42084187 0.6837798 0.40956432
v -0.46084112 0.6837798 0.36956286
v -1.7881393E-07 0.6837798 0.40956432
v 0.42084154 0.8524259 0.40956432
v 0.42084154 0.6837798 0.40956432
v 0.4608408 0.6837798 0.36956286
v 0.43323973 0.70171124 -0.36767387
v 0.32648876 1.7881393E-07 -0.36767387
v 0.32648876 0.70171124 -0.36767387
v 0.43323973 1.7881393E-07 -0.36767387
v 0.43323973 0.70171124 -0.47442263
v 0.43323973 1.7881393E-07 -0.47442263
v 0.32648876 0.70171124 -0.47442263
v 0.32648876 1.7881393E-07 -0.47442263
v 0.32648876 0.70171124 -0.36767387
v 0.32648876 1.7881393E-07 -0.36767387
v 0.32648876 1.7881393E-07 -0.47442263
v 0.32648876 0.70171124 -0.47442263
v 0.32648876 1.7881393E-07 0.23958218
v 0.43323973 0.70171124 0.23958439
v 0.32648876 0.70171124 0.23958439
v 0.43323973 1.7881393E-07 0.23958218
v 0.43323973 0.70171124 0.34633315
v 0.43323973 1.7881393E-07 0.34633315
v 0.32648876 0.70171124 0.34633315
v 0.32648876 1.7881393E-07 0.34633315
v 0.32648876 1.7881393E-07 0.34633315
v 0.32648876 1.7881393E-07 0.23958218
v 0.32648876 0.70171124 0.23958439
v 0.32648876 0.70171124 0.34633315
v 0.3590008 1.0624878 0.43191713
v 0.3590008 1.6512249 0.43191713
v -1.7881393E-07 1.6512249 0.43191713
v -1.7881393E-07 1.0624878 0.43191713
v -0.35900116 1.0624878 0.43191713
v -0.35900116 1.6512249 0.43191713
v 0.34524924 0.65647036 0.40090865
v 0.43969774 1.6301081 0.40090865
v 0.34524924 1.6301081 0.40090865
v 0.43969774 0.65647036 0.40090865
v 0.43969774 1.6301081 0.4953571
v 0.43969774 0.65647036 0.4953571
v 0.34524924 1.6301081 0.4953571
v 0.34524924 0.65647036 0.4953571
v 0.34524924 0.65647036 0.4953571
v 0.34524924 0.65647036 0.40090865
v 0.34524924 1.6301081 0.40090865
v 0.34524924 1.6301081 0.4953571
v -1.7881393E-07 1.6512249 0.46661592
v 0.3590008 1.6512249 0.46661592
v 0.3590008 1.0624878 0.46661592
v -1.7881393E-07 1.0624878 0.46661592
v -0.35900116 1.0624878 0.46661592
v -0.35900116 1.6512249 0.46661592
v 0.4564651 1.6145766 0.51212233
v 0.32848406 1.6145766 0.51212233
v 0.32848406 1.7694538 0.51212233
v 0.4564651 1.7694538 0.51212233
v 0.4564651 1.6145766 0.38414347
v 0.4564651 1.7694538 0.38414347
v 0.32848406 1.6145766 0.38414347
v 0.32848406 1.7694538 0.38414347
v 0.32848406 1.7694538 0.51212233
v 0.4564651 1.7694538 0.51212233
v 0.32848406 1.6145766 0.51212233
v 0.32848406 1.6145766 0.38414347
v 0.32848406 1.7694538 0.38414347
v 0.32848406 1.7694538 0.51212233
v 0.33856708 1.7372224 0.49325305
v 0.33856708 1.6469841 0.49325305
v -1.7881393E-07 1.6469841 0.49325305
v -1.7881393E-07 1.7372224 0.49325305
v 0.33856708 1.7372224 0.4030127
v -0.33856523 1.7372224 0.49325305
v -0.33856523 1.6469841 0.49325305
v -0.33856523 1.7372224 0.4030127
v -1.7881393E-07 1.7372224 0.4030127
v 0.33856708 1.6469841 0.4030127
v -0.33856523 1.6469841 0.4030127
v -1.7881393E-07 1.6469841 0.4030127
v -0.46084112 0.6837798 0.36956286
v -0.46084112 0.6837798 -0.47212273
v -0.46084112 0.8524259 -0.47212273
v -0.46084112 0.8524259 0.36956286
v -0.3264891 1.7881393E-07 -0.36767387
v -0.43324006 1.7881393E-07 -0.36767387
v -0.43324006 0.70171124 -0.36767387
v -0.3264891 0.70171124 -0.36767387
v -0.3264891 1.7881393E-07 -0.47442263
v -0.3264891 0.70171124 -0.47442263
v -0.43324006 1.7881393E-07 -0.47442263
v -0.43324006 0.70171124 -0.47442263
v -0.43324006 1.7881393E-07 -0.36767387
v -0.43324006 1.7881393E-07 -0.47442263
v -0.43324006 0.70171124 -0.47442263
v -0.43324006 0.70171124 -0.36767387
v -0.43324006 0.70171124 0.23958439
v -0.43324006 1.7881393E-07 0.23958218
v -0.3264891 1.7881393E-07 0.23958218
v -0.3264891 0.70171124 0.23958439
v -0.3264891 1.7881393E-07 0.34633315
v -0.3264891 0.70171124 0.34633315
v -0.43324006 1.7881393E-07 0.34633315
v -0.43324006 0.70171124 0.34633315
v -0.43324006 0.70171124 0.34633315
v -0.43324006 1.7881393E-07 0.34633315
v -0.43324006 1.7881393E-07 0.23958218
v -0.43324006 0.70171124 0.23958439
v -0.4396981 1.6301081 0.40090865
v -0.4396981 0.65647036 0.40090865
v -0.34524953 0.65647036 0.40090865
v -0.34524953 1.6301081 0.40090865
v -0.34524953 0.65647036 0.4953571
v -0.34524953 1.6301081 0.4953571
v -0.4396981 0.65647036 0.4953571
v -0.4396981 1.6301081 0.4953571
v -0.4396981 1.6301081 0.4953571
v -0.4396981 0.65647036 0.4953571
v -0.4396981 0.65647036 0.40090865
v -0.4396981 1.6301081 0.40090865
v -0.32848442 1.7694538 0.51212233
v -0.32848442 1.6145766 0.51212233
v -0.45646328 1.6145766 0.51212233
v -0.45646328 1.7694538 0.51212233
v -0.45646328 1.6145766 0.38414347
v -0.45646328 1.7694538 0.38414347
v -0.32848442 1.6145766 0.38414347
v -0.32848442 1.7694538 0.38414347
v -0.32848442 1.7694538 0.51212233
v -0.45646328 1.7694538 0.51212233
v -0.32848442 1.7694538 0.38414347
v -0.32848442 1.6145766 0.38414347
v -0.32848442 1.6145766 0.51212233
v -0.32848442 1.7694538 0.51212233
v -0.35244954 0.43306166 -0.39166513
v 0.34926155 0.37429762 -0.39166513
v -0.35244954 0.37429762 -0.39166513
v 0.34926155 0.43306166 -0.39166513
v -0.35244954 0.43306166 -0.4504292
v 0.34926155 0.43306166 -0.4504292
v -0.35244954 0.37429762 -0.4504292
v 0.34926155 0.37429762 -0.4504292
v 0.34926155 0.43306166 -0.4504292
v -0.35244954 0.43306166 -0.4504292
v -0.35244954 0.43306166 0.32539463
v 0.34926155 0.37429762 0.32539463
v -0.35244954 0.37429762 0.32539463
v 0.34926155 0.43306166 0.32539463
v -0.35244954 0.43306166 0.2666306
v 0.34926155 0.43306166 0.2666306
v -0.35244954 0.37429762 0.2666306
v 0.34926155 0.37429762 0.2666306
v 0.34926155 0.43306166 0.2666306
v -0.35244954 0.43306166 0.2666306
vt 0.29261166 0.75608015
vt 0.28255984 0.75608015
vt 0.28255984 0.806716
vt 0.29261166 0.806716
vt 0.2957764 0.8062639
vt 0.2957764 0.75654733
vt 0.2957764 0.7536237
vt 0.29261166 0.7440994
vt 0.2957764 0.7440994
vt 0.32067236 0.7440994
vt 0.32067236 0.7536237
vt 0.3455683 0.7536237
vt 0.3455683 0.7440994
vt 0.34871796 0.7440994
vt 0.34871796 0.7558541
vt 0.3455683 0.75654733
vt 0.32067236 0.75654733
vt 0.32067236 0.8062639
vt 0.3455683 0.8062639
vt 0.34871796 0.80694205
vt 0.32067236 0.80918753
vt 0.3455683 0.80918753
vt 0.3455683 0.8186968
vt 0.34871796 0.8186968
vt 0.32067236 0.8186968
vt 0.2957764 0.80918753
vt 0.2957764 0.8186968
vt 0.29261166 0.8186968
vt 0.41040024 0.39100492
vt 0.40396526 0.35854372
vt 0.40396526 0.39100492
vt 0.41040024 0.35854372
vt 0.4170914 0.39100492
vt 0.4170914 0.35854372
vt 0.42429495 0.39100492
vt 0.42429495 0.35854372
vt 0.41040024 0.39100492
vt 0.41040024 0.35854372
vt 0.4170914 0.35854372
vt 0.4170914 0.39100492
vt 0.42429495 0.35854372
vt 0.4170914 0.39100492
vt 0.42429495 0.39100492
vt 0.4170914 0.35854372
vt 0.41040024 0.39100492
vt 0.41040024 0.35854372
vt 0.40396526 0.39100492
vt 0.40396526 0.35854372
vt 0.41040024 0.35854372
vt 0.4170914 0.35854372
vt 0.4170914 0.39100492
vt 0.41040024 0.39100492
vt 0.35819712 0.3526965
vt 0.35819712 0.39567667
vt 0.37768286 0.39567667
vt 0.37768286 0.3526965
vt 0.3971686 0.3526965
vt 0.3971686 0.39567667
vt 0.28277084 0.45478195
vt 0.3613317 0.4489347
vt 0.3613317 0.45478195
vt 0.28277084 0.4489347
vt 0.3613317 0.4430875
vt 0.28277084 0.4430875
vt 0.3613317 0.43724024
vt 0.28277084 0.43724024
vt 0.28277084 0.4430875
vt 0.28277084 0.4489347
vt 0.3613317 0.4489347
vt 0.3613317 0.4430875
vt 0.33491367 0.4322068
vt 0.3474822 0.4322068
vt 0.3474822 0.40447766
vt 0.33491367 0.40447766
vt 0.32234514 0.40447766
vt 0.32234514 0.4322068
vt 0.4236168 0.42798716
vt 0.41336906 0.42798716
vt 0.41336906 0.44037485
vt 0.4236168 0.44037485
vt 0.43386453 0.42798716
vt 0.43386453 0.44037485
vt 0.4440972 0.42798716
vt 0.4440972 0.44037485
vt 0.44411224 0.45062256
vt 0.43386453 0.45062256
vt 0.4236168 0.42798716
vt 0.43386453 0.42798716
vt 0.43386453 0.44037485
vt 0.4236168 0.44037485
vt 0.36761597 0.44911554
vt 0.36761597 0.4544956
vt 0.38784018 0.4544956
vt 0.38784018 0.44911554
vt 0.36761597 0.44372043
vt 0.4080493 0.44911554
vt 0.4080493 0.4544956
vt 0.4080493 0.44372043
vt 0.38784018 0.44372043
vt 0.36761597 0.43834037
vt 0.4080493 0.43834037
vt 0.38784018 0.43834037
vt 0.28255984 0.806716
vt 0.28255984 0.75608015
vt 0.29261166 0.75608015
vt 0.29261166 0.806716
vt 0.41040024 0.35854372
vt 0.40396526 0.35854372
vt 0.40396526 0.39100492
vt 0.41040024 0.39100492
vt 0.4170914 0.35854372
vt 0.4170914 0.39100492
vt 0.42429495 0.35854372
vt 0.42429495 0.39100492
vt 0.41040024 0.35854372
vt 0.4170914 0.35854372
vt 0.4170914 0.39100492
vt 0.41040024 0.39100492
vt 0.42429495 0.39100492
vt 0.42429495 0.35854372
vt 0.4170914 0.35854372
vt 0.4170914 0.39100492
vt 0.41040024 0.35854372
vt 0.41040024 0.39100492
vt 0.40396526 0.35854372
vt 0.40396526 0.39100492
vt 0.41040024 0.39100492
vt 0.41040024 0.35854372
vt 0.4170914 0.35854372
vt 0.4170914 0.39100492
vt 0.3613317 0.45478195
vt 0.28277084 0.45478195
vt 0.28277084 0.4489347
vt 0.3613317 0.4489347
vt 0.28277084 0.4430875
vt 0.3613317 0.4430875
vt 0.28277084 0.43724024
vt 0.3613317 0.43724024
vt 0.3613317 0.4430875
vt 0.28277084 0.4430875
vt 0.28277084 0.4489347
vt 0.3613317 0.4489347
vt 0.41336906 0.44037485
vt 0.41336906 0.42798716
vt 0.4236168 0.42798716
vt 0.4236168 0.44037485
vt 0.43386453 0.42798716
vt 0.43386453 0.44037485
vt 0.4440972 0.42798716
vt 0.4440972 0.44037485
vt 0.4440972 0.45062256
vt 0.43386453 0.45062256
vt 0.43386453 0.44037485
vt 0.43386453 0.42798716
vt 0.4236168 0.42798716
vt 0.4236168 0.44037485
vt 0.468752 0.5609062
vt 0.46554205 0.5224772
vt 0.46554205 0.5609062
vt 0.468752 0.5224772
vt 0.47197703 0.5609062
vt 0.47197703 0.5224772
vt 0.47520205 0.5609062
vt 0.47520205 0.5224772
vt 0.47197703 0.5224772
vt 0.47197703 0.5609062
vt 0.468752 0.5609062
vt 0.46554205 0.5224772
vt 0.46554205 0.5609062
vt 0.468752 0.5224772
vt 0.47197703 0.5609062
vt 0.47197703 0.5224772
vt 0.47520205 0.5609062
vt 0.47520205 0.5224772
vt 0.47197703 0.5224772
vt 0.47197703 0.5609062
vn 0.8751119 0.342278 -0.34208912
vn 0.92387974 0.00090307 -0.38268188
vn 0.92387974 0.00090307 0.38268188
vn 0.8751119 0.342278 0.34208912
vn 0.34227806 0.8751118 0.3420893
vn 0.34227806 0.8751118 -0.3420893
vn 0.34227806 0.342278 -0.875038
vn 0.92387974 0.00090307 -0.38268188
vn 0.3820148 0.00090307 -0.9241558
vn -0.00090307 0.00090307 -0.99999917
vn -0.00090307 0.38201475 -0.9241558
vn -0.342278 0.342278 -0.875038
vn -0.38201475 0.00090307 -0.9241558
vn -0.92387974 0.00090307 -0.38268188
vn -0.8751118 0.342278 -0.3420893
vn -0.342278 0.8751118 -0.3420893
vn -0.00090307 0.92387974 -0.38268185
vn -0.00090307 0.92387974 0.38268185
vn -0.342278 0.8751118 0.3420893
vn -0.8751118 0.342278 0.3420893
vn -0.00090307 0.38201475 0.9241558
vn -0.342278 0.342278 0.875038
vn -0.38201475 0.00090307 0.9241558
vn -0.92387974 0.00090307 0.38268188
vn -0.00090307 0.00090307 0.99999917
vn 0.34227806 0.342278 0.875038
vn 0.3820148 0.00090307 0.9241558
vn 0.92387974 0.00090307 0.38268188
vn 0.70713377 0.00090307 0.70707923
vn -0.70713377 0.00090307 0.70707923
vn -0.70713377 0.00090307 0.70707923
vn 0.70713377 0.00090307 0.70707923
vn 0.70713377 0.00090307 -0.70707923
vn 0.70713377 0.00090307 -0.70707923
vn -0.70713377 0.00090307 -0.70707923
vn -0.70713377 0.00090307 -0.70707923
vn -0.70713377 0.00090307 0.70707923
vn -0.70713377 0.00090307 0.70707923
vn -0.70713377 0.00090307 -0.70707923
vn -0.70713377 0.00090307 -0.70707923
vn -0.70713377 0.00090307 -0.70707923
vn 0.70713377 0.00090307 -0.70707923
vn -0.70713377 0.00090307 -0.70707923
vn 0.70713377 0.00090307 -0.70707923
vn 0.70713377 0.00090307 0.70707923
vn 0.70713377 0.00090307 0.70707923
vn -0.70713377 0.00090307 0.70707923
vn -0.70713377 0.00090307 0.70707923
vn -0.70713377 0.00090307 0.70707923
vn -0.70713377 0.00090307 -0.70707923
vn -0.70713377 0.00090307 -0.70707923
vn -0.70713377 0.00090307 0.70707923
vn -0.00090307 0.00090307 -0.99999917
vn -0.00090307 0.00090307 -0.99999917
vn -0.00090307 0.00090307 -0.99999917
vn -0.00090307 0.00090307 -0.99999917
vn -0.00090307 0.00090307 -0.99999917
vn -0.00090307 0.00090307 -0.99999917
vn -0.70713377 0.00090307 -0.70707923
vn 0.70713377 0.00090307 -0.70707923
vn -0.70713377 0.00090307 -0.70707923
vn 0.70713377 0.00090307 -0.70707923
vn 0.70713377 0.00090307 0.70707923
vn 0.70713377 0.00090307 0.70707923
vn -0.70713377 0.00090307 0.70707923
vn -0.70713377 0.00090307 0.70707923
vn -0.70713377 0.00090307 0.70707923
vn -0.70713377 0.00090307 -0.70707923
vn -0.70713377 0.00090307 -0.70707923
vn -0.70713377 0.00090307 0.70707923
vn -0.00090307 0.00090307 0.99999917
vn -0.00090307 0.00090307 0.99999917
vn -0.00090307 0.00090307 0.99999917
vn -0.00090307 0.00090307 0.99999917
vn -0.00090307 0.00090307 0.99999917
vn -0.00090307 0.00090307 0.99999917
vn 0.70713377 0.00090307 0.70707923
vn -0.70713377 0.00090307 0.70707923
vn -0.5770861 0.5770861 0.5778783
vn 0.5770862 0.5770861 0.5778782
vn 0.70713377 0.00090307 -0.70707923
vn 0.5770862 0.5770861 -0.5778782
vn -0.70713377 0.00090307 -0.70707923
vn -0.5770861 0.5770861 -0.5778783
vn -0.5770861 0.5770861 0.5778783
vn 0.5770862 0.5770861 0.5778782
vn -0.70713377 0.00090307 0.70707923
vn -0.70713377 0.00090307 -0.70707923
vn -0.5770861 0.5770861 -0.5778783
vn -0.5770861 0.5770861 0.5778783
vn -0.00090307 0.70713377 0.70707923
vn -0.00090307 0.00090307 0.99999917
vn -0.00090307 0.00090307 0.99999917
vn -0.00090307 0.70713377 0.70707923
vn -0.00090307 0.70713377 -0.70707923
vn -0.00090307 0.70713377 0.70707923
vn -0.00090307 0.00090307 0.99999917
vn -0.00090307 0.70713377 -0.70707923
vn -0.00090307 0.70713377 -0.70707923
vn -0.00090307 0.00090307 -0.99999917
vn -0.00090307 0.00090307 -0.99999917
vn -0.00090307 0.00090307 -0.99999917
vn -0.92387974 0.00090307 0.38268188
vn -0.92387974 0.00090307 -0.38268188
vn -0.8751118 0.342278 -0.3420893
vn -0.8751118 0.342278 0.3420893
vn 0.70713377 0.00090307 0.70707923
vn -0.70713377 0.00090307 0.70707923
vn -0.70713377 0.00090307 0.70707923
vn 0.70713377 0.00090307 0.70707923
vn 0.70713377 0.00090307 -0.70707923
vn 0.70713377 0.00090307 -0.70707923
vn -0.70713377 0.00090307 -0.70707923
vn -0.70713377 0.00090307 -0.70707923
vn -0.70713377 0.00090307 0.70707923
vn -0.70713377 0.00090307 -0.70707923
vn -0.70713377 0.00090307 -0.70707923
vn -0.70713377 0.00090307 0.70707923
vn -0.70713377 0.00090307 -0.70707923
vn -0.70713377 0.00090307 -0.70707923
vn 0.70713377 0.00090307 -0.70707923
vn 0.70713377 0.00090307 -0.70707923
vn 0.70713377 0.00090307 0.70707923
vn 0.70713377 0.00090307 0.70707923
vn -0.70713377 0.00090307 0.70707923
vn -0.70713377 0.00090307 0.70707923
vn -0.70713377 0.00090307 0.70707923
vn -0.70713377 0.00090307 0.70707923
vn -0.70713377 0.00090307 -0.70707923
vn -0.70713377 0.00090307 -0.70707923
vn -0.70713377 0.00090307 -0.70707923
vn -0.70713377 0.00090307 -0.70707923
vn 0.70713377 0.00090307 -0.70707923
vn 0.70713377 0.00090307 -0.70707923
vn 0.70713377 0.00090307 0.70707923
vn 0.70713377 0.00090307 0.70707923
vn -0.70713377 0.00090307 0.70707923
vn -0.70713377 0.00090307 0.70707923
vn -0.70713377 0.00090307 0.70707923
vn -0.70713377 0.00090307 0.70707923
vn -0.70713377 0.00090307 -0.70707923
vn -0.70713377 0.00090307 -0.70707923
vn 0.5770862 0.5770861 0.5778782
vn 0.70713377 0.00090307 0.70707923
vn -0.70713377 0.00090307 0.70707923
vn -0.5770861 0.5770861 0.5778783
vn -0.70713377 0.00090307 -0.70707923
vn -0.5770861 0.5770861 -0.5778783
vn 0.70713377 0.00090307 -0.70707923
vn 0.5770862 0.5770861 -0.5778782
vn 0.5770862 0.5770861 0.5778782
vn -0.5770861 0.5770861 0.5778783
vn 0.5770862 0.5770861 -0.5778782
vn 0.70713377 0.00090307 -0.70707923
vn 0.70713377 0.00090307 0.70707923
vn 0.5770862 0.5770861 0.5778782
vn -0.00090307 0.70713377 0.70707923
vn -0.00090307 0.00090307 0.99999917
vn -0.00090307 0.00090307 0.99999917
vn -0.00090307 0.70713377 0.70707923
vn -0.00090307 0.70713377 -0.70707923
vn -0.00090307 0.70713377 -0.70707923
vn -0.00090307 0.00090307 -0.99999917
vn -0.00090307 0.00090307 -0.99999917
vn -0.00090307 0.70713377 -0.70707923
vn -0.00090307 0.70713377 -0.70707923
vn -0.00090307 0.70713377 0.70707923
vn -0.00090307 0.00090307 0.99999917
vn -0.00090307 0.00090307 0.99999917
vn -0.00090307 0.70713377 0.70707923
vn -0.00090307 0.70713377 -0.70707923
vn -0.00090307 0.70713377 -0.70707923
vn -0.00090307 0.00090307 -0.99999917
vn -0.00090307 0.00090307 -0.99999917
vn -0.00090307 0.70713377 -0.70707923
vn -0.00090307 0.70713377 -0.70707923
g febg_coinrush_001_gamechair_01_0
f 3/3/3 2/2/2 1/1/1
f 4/4/4 3/3/3 1/1/1
f 5/5/5 4/4/4 1/1/1
f 6/6/6 5/5/5 1/1/1
f 7/7/7 6/6/6 1/1/1
f 7/7/7 1/1/1 8/8/8
f 9/9/9 7/7/7 8/8/8
f 9/9/9 10/10/10 7/7/7
f 10/10/10 11/11/11 7/7/7
f 7/7/7 11/11/11 6/6/6
f 12/12/12 11/11/11 10/10/10
f 13/13/13 12/12/12 10/10/10
f 12/12/12 13/13/13 14/14/14
f 15/15/15 12/12/12 14/14/14
f 12/12/12 16/16/16 11/11/11
f 16/16/16 12/12/12 15/15/15
f 11/11/11 17/17/17 6/6/6
f 16/16/16 17/17/17 11/11/11
f 17/17/17 18/18/18 6/6/6
f 17/17/17 16/16/16 18/18/18
f 18/18/18 5/5/5 6/6/6
f 19/19/19 16/16/16 15/15/15
f 16/16/16 19/19/19 18/18/18
f 20/20/20 19/19/19 15/15/15
f 18/18/18 21/21/21 5/5/5
f 18/18/18 19/19/19 21/21/21
f 22/22/22 19/19/19 20/20/20
f 19/19/19 22/22/22 21/21/21
f 22/22/22 20/20/20 23/23/23
f 20/20/20 24/24/24 23/23/23
f 22/22/22 23/23/23 25/25/25
f 21/21/21 22/22/22 25/25/25
f 21/21/21 26/26/26 5/5/5
f 21/21/21 25/25/25 26/26/26
f 5/5/5 26/26/26 4/4/4
f 25/25/25 27/27/27 26/26/26
f 4/4/4 26/26/26 27/27/27
f 28/28/28 4/4/4 27/27/27
f 31/31/31 30/30/30 29/29/29
f 30/30/30 32/32/32 29/29/29
f 29/29/29 32/32/32 33/33/33
f 32/32/32 34/34/34 33/33/33
f 33/33/33 34/34/34 35/35/35
f 34/34/34 36/36/36 35/35/35
f 39/39/39 38/38/38 37/37/37
f 40/40/40 39/39/39 37/37/37
f 43/43/43 42/42/42 41/41/41
f 42/42/42 44/44/44 41/41/41
f 42/42/42 45/45/45 44/44/44
f 45/45/45 46/46/46 44/44/44
f 45/45/45 47/47/47 46/46/46
f 47/47/47 48/48/48 46/46/46
f 51/51/51 50/50/50 49/49/49
f 52/52/52 51/51/51 49/49/49
f 55/55/55 54/54/54 53/53/53
f 56/56/56 55/55/55 53/53/53
f 56/56/56 57/57/57 55/55/55
f 57/57/57 58/58/58 55/55/55
f 61/61/61 60/60/60 59/59/59
f 60/60/60 62/62/62 59/59/59
f 60/60/60 63/63/63 62/62/62
f 63/63/63 64/64/64 62/62/62
f 63/63/63 65/65/65 64/64/64
f 65/65/65 66/66/66 64/64/64
f 69/69/69 68/68/68 67/67/67
f 70/70/70 69/69/69 67/67/67
f 73/73/73 72/72/72 71/71/71
f 74/74/74 73/73/73 71/71/71
f 74/74/74 71/71/71 75/75/75
f 71/71/71 76/76/76 75/75/75
f 79/79/79 78/78/78 77/77/77
f 80/80/80 79/79/79 77/77/77
f 80/80/80 77/77/77 81/81/81
f 82/82/82 80/80/80 81/81/81
f 82/82/82 81/81/81 83/83/83
f 84/84/84 82/82/82 83/83/83
f 82/82/82 84/84/84 85/85/85
f 86/86/86 82/82/82 85/85/85
f 89/89/89 88/88/88 87/87/87
f 90/90/90 89/89/89 87/87/87
f 93/93/93 92/92/92 91/91/91
f 94/94/94 93/93/93 91/91/91
f 94/94/94 91/91/91 95/95/95
f 94/94/94 96/96/96 93/93/93
f 96/96/96 97/97/97 93/93/93
f 98/98/98 96/96/96 94/94/94
f 99/99/99 94/94/94 95/95/95
f 99/99/99 98/98/98 94/94/94
f 99/99/99 95/95/95 100/100/100
f 101/101/101 98/98/98 99/99/99
f 102/102/102 99/99/99 100/100/100
f 102/102/102 101/101/101 99/99/99
f 105/105/105 104/104/104 103/103/103
f 106/106/106 105/105/105 103/103/103
f 109/109/109 108/108/108 107/107/107
f 110/110/110 109/109/109 107/107/107
f 110/110/110 107/107/107 111/111/111
f 112/112/112 110/110/110 111/111/111
f 112/112/112 111/111/111 113/113/113
f 114/114/114 112/112/112 113/113/113
f 117/117/117 116/116/116 115/115/115
f 118/118/118 117/117/117 115/115/115
f 121/121/121 120/120/120 119/119/119
f 122/122/122 121/121/121 119/119/119
f 123/123/123 121/121/121 122/122/122
f 124/124/124 123/123/123 122/122/122
f 125/125/125 123/123/123 124/124/124
f 126/126/126 125/125/125 124/124/124
f 129/129/129 128/128/128 127/127/127
f 130/130/130 129/129/129 127/127/127
f 133/133/133 132/132/132 131/131/131
f 134/134/134 133/133/133 131/131/131
f 135/135/135 133/133/133 134/134/134
f 136/136/136 135/135/135 134/134/134
f 137/137/137 135/135/135 136/136/136
f 138/138/138 137/137/137 136/136/136
f 141/141/141 140/140/140 139/139/139
f 142/142/142 141/141/141 139/139/139
f 145/145/145 144/144/144 143/143/143
f 146/146/146 145/145/145 143/143/143
f 147/147/147 145/145/145 146/146/146
f 148/148/148 147/147/147 146/146/146
f 149/149/149 147/147/147 148/148/148
f 150/150/150 149/149/149 148/148/148
f 151/151/151 150/150/150 148/148/148
f 152/152/152 151/151/151 148/148/148
f 155/155/155 154/154/154 153/153/153
f 156/156/156 155/155/155 153/153/153
f 159/159/159 158/158/158 157/157/157
f 158/158/158 160/160/160 157/157/157
f 157/157/157 160/160/160 161/161/161
f 160/160/160 162/162/162 161/161/161
f 165/165/165 164/164/164 163/163/163
f 166/166/166 165/165/165 163/163/163
f 169/169/169 168/168/168 167/167/167
f 168/168/168 170/170/170 167/167/167
f 167/167/167 170/170/170 171/171/171
f 170/170/170 172/172/172 171/171/171
f 175/175/175 174/174/174 173/173/173
f 176/176/176 175/175/175 173/173/173
