g febg_oldcastle_001_woodbox_01
v 0.80630815 1.5599916 0.69396806
v -0.78090954 5.9604645E-08 0.69396806
v -0.78090954 1.5599916 0.69396806
v 0.80630815 5.9604645E-08 0.69396806
v 0.8063055 1.5599942 -0.693968
v 0.8063055 5.9604645E-08 -0.693968
v -0.78090954 1.5599916 0.69396806
v -0.78090954 5.9604645E-08 0.69396806
v -0.78090954 5.9604645E-08 -0.693968
v -0.78090954 1.5599942 -0.693968
v 0.8063055 5.9604645E-08 -0.693968
v 0.8063055 1.5599942 -0.693968
v 0.84604883 1.8088639 -0.76165575
v -0.9059702 1.5691392 -0.76165575
v 0.84604883 1.5691366 -0.76165575
v -0.9059702 1.8088639 -0.76165575
v 0.82212365 1.8088639 -0.38082784
v 0.84604883 1.8088639 -0.38082784
v 0.84604883 1.5691366 -0.76165575
v 0.84604883 1.5691366 -0.38082784
v -0.9040477 1.8088639 -0.38082784
v -0.9040477 1.5691366 -0.38082784
v -0.9059702 1.5691392 -0.76165575
v 0.82487 1.8088639 5.9604645E-08
v -0.9396583 1.8088639 5.9604645E-08
v -0.9396926 1.8088639 -0.38082784
v -0.9396926 1.5691366 -0.38082784
v -0.9396583 1.5691366 5.9604645E-08
v -0.9396926 1.5691366 0.3808279
v -0.9396926 1.8088639 0.3808279
v -0.9040477 1.8088639 0.3808279
v 0.82487 1.5691366 5.9604645E-08
v 0.82212365 1.5691366 -0.38082784
v 0.82212365 1.8088639 0.3808279
v 0.82212365 1.5691366 0.3808279
v -0.9059702 1.8088639 0.7616558
v -0.9040477 1.5691392 0.3808279
v -0.9059702 1.5691392 0.7616558
v 0.84604883 1.8088639 0.7616558
v -0.9059702 1.5691392 0.7616558
v 0.84604883 1.5691366 0.7616558
v 0.84604883 1.8088639 0.3808279
v 0.84604883 1.5691366 0.7616558
v 0.84604883 1.5691366 0.3808279
v 0.84604883 1.8088639 -0.38082784
v 0.84604883 1.5691366 -0.38082784
v 0.82212365 1.5691366 -0.38082784
v 0.82212365 1.8088639 -0.38082784
v -0.9396926 1.8088639 -0.38082784
v -0.9396926 1.5691366 -0.38082784
v -0.9040477 1.5691366 -0.38082784
v -0.9040477 1.8088639 -0.38082784
v 0.84604883 1.8088639 0.3808279
v 0.82212365 1.8088639 0.3808279
v 0.82212365 1.5691366 0.3808279
v 0.84604883 1.5691366 0.3808279
v -0.9396926 1.8088639 0.3808279
v -0.9040477 1.8088639 0.3808279
v -0.9040477 1.5691392 0.3808279
v -0.9396926 1.5691366 0.3808279
v 0.50474507 1.8007302 0.71770847
v 0.3322143 1.8007302 0.71770847
v 0.34245247 1.922976 0.7085662
v 0.49450687 1.922976 0.7085662
v 0.34245247 1.922976 -0.7040979
v 0.3322143 1.8007302 -0.7132402
v 0.3322143 1.8007302 0.71770847
v 0.49450687 1.922976 -0.7040979
v 0.50474507 1.8007302 -0.7132402
v 0.50474507 1.8007302 0.71770847
v 0.50474507 1.8007302 -0.7132402
v 0.3322143 1.8007302 -0.7132402
v -0.56590223 1.8007302 -0.7132402
v -0.39336884 1.8007302 -0.7132402
v -0.403607 1.922976 -0.7040953
v -0.55566144 1.922976 -0.7040953
v -0.403607 1.922976 0.7085662
v -0.39336884 1.8007302 0.71770847
v -0.39336884 1.8007302 -0.7132402
v -0.55566144 1.922976 0.7085662
v -0.56590223 1.8007302 0.71770847
v -0.56590223 1.8007302 -0.7132402
v -0.56590223 1.8007302 0.71770847
v -0.39336884 1.8007302 0.71770847
vt 0.8827465 0.8147562
vt 0.8471467 0.77964675
vt 0.8471467 0.8147562
vt 0.8827465 0.77964675
vt 0.9138889 0.8147562
vt 0.9138889 0.77964675
vt 0.9138889 0.8147562
vt 0.9138889 0.77964675
vt 0.8827465 0.77964675
vt 0.8827465 0.8147562
vt 0.8471467 0.77964675
vt 0.8471467 0.8147562
vt 0.92165965 0.84826106
vt 0.8310109 0.8561952
vt 0.92165965 0.8561952
vt 0.8310109 0.84826106
vt 0.92048585 0.834978
vt 0.92165965 0.834978
vt 0.92956406 0.84826106
vt 0.92956406 0.834978
vt 0.8310109 0.834978
vt 0.8231064 0.834978
vt 0.8231064 0.84826106
vt 0.92048585 0.82168007
vt 0.8292131 0.82168007
vt 0.8292131 0.834978
vt 0.8213086 0.834978
vt 0.8213086 0.82168007
vt 0.8213086 0.834978
vt 0.8292131 0.834978
vt 0.8310109 0.834978
vt 0.9283903 0.82168007
vt 0.9283903 0.834978
vt 0.92048585 0.834978
vt 0.9283903 0.834978
vt 0.8310109 0.84826106
vt 0.8231064 0.834978
vt 0.8231064 0.84826106
vt 0.92165965 0.84826106
vt 0.8310109 0.8561952
vt 0.92165965 0.8561952
vt 0.92165965 0.834978
vt 0.92956406 0.84826106
vt 0.92956406 0.834978
vt 0.93795884 0.8352157
vt 0.950811 0.8352157
vt 0.950811 0.838217
vt 0.93795884 0.838217
vt 0.950811 0.8352157
vt 0.93795884 0.8352157
vt 0.93795884 0.838217
vt 0.950811 0.838217
vt 0.93795884 0.8352157
vt 0.93795884 0.838217
vt 0.950811 0.838217
vt 0.950811 0.8352157
vt 0.950811 0.8352157
vt 0.950811 0.838217
vt 0.93795884 0.838217
vt 0.93795884 0.8352157
vt 0.9489984 0.7860357
vt 0.9600379 0.7860357
vt 0.95938414 0.78096914
vt 0.94965214 0.78096914
vt 0.95938414 0.7198135
vt 0.9644804 0.7194272
vt 0.9644804 0.78135544
vt 0.94965214 0.7198135
vt 0.9445558 0.7194272
vt 0.9445558 0.78135544
vt 0.9489984 0.71474695
vt 0.9600379 0.71474695
vt 0.9489984 0.7860357
vt 0.9600379 0.7860357
vt 0.95938414 0.78096914
vt 0.94965214 0.78096914
vt 0.95938414 0.7198135
vt 0.9644804 0.7194272
vt 0.9644804 0.78135544
vt 0.94965214 0.7198135
vt 0.9445558 0.7194272
vt 0.9445558 0.78135544
vt 0.9489984 0.71474695
vt 0.9600379 0.71474695
vn 0.70674455 0.0009775162 0.70746815
vn -0.70674455 0.0009775162 0.70746815
vn -0.70674455 0.0009775162 0.70746815
vn 0.70674455 0.0009775162 0.70746815
vn 0.70674455 0.0009775162 -0.70746815
vn 0.70674455 0.0009775162 -0.70746815
vn -0.70674455 0.0009775162 0.70746815
vn -0.70674455 0.0009775162 0.70746815
vn -0.70674455 0.0009775162 -0.70746815
vn -0.70674455 0.0009775162 -0.70746815
vn 0.70674455 0.0009775162 -0.70746815
vn 0.70674455 0.0009775162 -0.70746815
vn 0.5777123 0.5777123 -0.5766255
vn -0.7086996 0.0009775162 -0.7055097
vn 0.70674455 0.0009775162 -0.70746815
vn -0.5796673 0.5777123 -0.5746601
vn 0.30205262 0.906158 0.29604384
vn 0.5777123 0.5777123 0.5766255
vn 0.70674455 0.0009775162 -0.70746815
vn 0.70674455 0.0009775162 0.70746815
vn -0.30205262 0.90420294 -0.30196238
vn -0.7086996 0.0009775162 -0.7055097
vn -0.7086996 0.0009775162 -0.7055097
vn 0.7086996 0.7047895 -0.031884898
vn -0.70674455 0.70674455 -0.03200431
vn -0.5777123 0.5777123 -0.5766255
vn -0.70674455 0.0009775162 -0.70746815
vn -0.9999995 0.0009775162 -0
vn -0.70674455 0.0009775162 0.70746815
vn -0.5777123 0.5777123 0.5766255
vn -0.30205262 0.90420294 0.30196238
vn 0.9999995 0.0009775162 -0
vn 0.7086996 0.0009775162 0.7055097
vn 0.30205262 0.906158 -0.29604384
vn 0.7086996 0.0009775162 -0.7055097
vn -0.5796673 0.5777123 0.5746601
vn -0.7086996 0.0009775162 0.7055097
vn -0.7086996 0.0009775162 0.7055097
vn 0.5777123 0.5777123 0.5766255
vn -0.7086996 0.0009775162 0.7055097
vn 0.70674455 0.0009775162 0.70746815
vn 0.5777123 0.5777123 -0.5766255
vn 0.70674455 0.0009775162 0.70746815
vn 0.70674455 0.0009775162 -0.70746815
vn 0.5777123 0.5777123 0.5766255
vn 0.70674455 0.0009775162 0.70746815
vn 0.7086996 0.0009775162 0.7055097
vn 0.30205262 0.906158 0.29604384
vn -0.5777123 0.5777123 -0.5766255
vn -0.70674455 0.0009775162 -0.70746815
vn -0.7086996 0.0009775162 -0.7055097
vn -0.30205262 0.90420294 -0.30196238
vn 0.5777123 0.5777123 -0.5766255
vn 0.30205262 0.906158 -0.29604384
vn 0.7086996 0.0009775162 -0.7055097
vn 0.70674455 0.0009775162 -0.70746815
vn -0.5777123 0.5777123 0.5766255
vn -0.30205262 0.90420294 0.30196238
vn -0.7086996 0.0009775162 0.7055097
vn -0.70674455 0.0009775162 0.70746815
vn 0.7047895 0.11045933 0.7007642
vn -0.7047895 0.11045933 0.7007642
vn -0.5542519 0.618768 0.5567145
vn 0.5542519 0.618768 0.5567145
vn -0.5542519 0.618768 -0.5567145
vn -0.7047895 0.11045933 -0.7007642
vn -0.7047895 0.11045933 0.7007642
vn 0.5542519 0.618768 -0.5567145
vn 0.7047895 0.11045933 -0.7007642
vn 0.7047895 0.11045933 0.7007642
vn 0.7047895 0.11045933 -0.7007642
vn -0.7047895 0.11045933 -0.7007642
vn -0.7047895 0.11045933 -0.7007642
vn 0.7047895 0.11045933 -0.7007642
vn 0.5542519 0.618768 -0.5567145
vn -0.5542519 0.618768 -0.5567145
vn 0.5542519 0.618768 0.5567145
vn 0.7047895 0.11045933 0.7007642
vn 0.7047895 0.11045933 -0.7007642
vn -0.5542519 0.618768 0.5567145
vn -0.7047895 0.11045933 0.7007642
vn -0.7047895 0.11045933 -0.7007642
vn -0.7047895 0.11045933 0.7007642
vn 0.7047895 0.11045933 0.7007642
g febg_oldcastle_001_woodbox_01_0
f 3/3/3 2/2/2 1/1/1
f 2/2/2 4/4/4 1/1/1
f 1/1/1 4/4/4 5/5/5
f 4/4/4 6/6/6 5/5/5
f 9/9/9 8/8/8 7/7/7
f 10/10/10 9/9/9 7/7/7
f 11/11/11 9/9/9 10/10/10
f 12/12/12 11/11/11 10/10/10
f 15/15/15 14/14/14 13/13/13
f 14/14/14 16/16/16 13/13/13
f 13/13/13 16/16/16 17/17/17
f 18/18/18 13/13/13 17/17/17
f 19/19/19 13/13/13 18/18/18
f 20/20/20 19/19/19 18/18/18
f 16/16/16 21/21/21 17/17/17
f 22/22/22 21/21/21 16/16/16
f 23/23/23 22/22/22 16/16/16
f 21/21/21 24/24/24 17/17/17
f 25/25/25 24/24/24 21/21/21
f 26/26/26 25/25/25 21/21/21
f 25/25/25 26/26/26 27/27/27
f 28/28/28 25/25/25 27/27/27
f 28/28/28 29/29/29 25/25/25
f 29/29/29 30/30/30 25/25/25
f 30/30/30 31/31/31 25/25/25
f 31/31/31 24/24/24 25/25/25
f 17/17/17 24/24/24 32/32/32
f 33/33/33 17/17/17 32/32/32
f 32/32/32 24/24/24 34/34/34
f 24/24/24 31/31/31 34/34/34
f 35/35/35 32/32/32 34/34/34
f 31/31/31 36/36/36 34/34/34
f 31/31/31 37/37/37 36/36/36
f 37/37/37 38/38/38 36/36/36
f 36/36/36 39/39/39 34/34/34
f 36/36/36 40/40/40 39/39/39
f 40/40/40 41/41/41 39/39/39
f 39/39/39 42/42/42 34/34/34
f 39/39/39 43/43/43 42/42/42
f 43/43/43 44/44/44 42/42/42
f 47/47/47 46/46/46 45/45/45
f 48/48/48 47/47/47 45/45/45
f 51/51/51 50/50/50 49/49/49
f 52/52/52 51/51/51 49/49/49
f 55/55/55 54/54/54 53/53/53
f 56/56/56 55/55/55 53/53/53
f 59/59/59 58/58/58 57/57/57
f 60/60/60 59/59/59 57/57/57
f 63/63/63 62/62/62 61/61/61
f 64/64/64 63/63/63 61/61/61
f 65/65/65 63/63/63 64/64/64
f 65/65/65 66/66/66 63/63/63
f 66/66/66 67/67/67 63/63/63
f 68/68/68 65/65/65 64/64/64
f 69/69/69 68/68/68 64/64/64
f 70/70/70 69/69/69 64/64/64
f 65/65/65 68/68/68 71/71/71
f 72/72/72 65/65/65 71/71/71
f 75/75/75 74/74/74 73/73/73
f 76/76/76 75/75/75 73/73/73
f 77/77/77 75/75/75 76/76/76
f 77/77/77 78/78/78 75/75/75
f 78/78/78 79/79/79 75/75/75
f 80/80/80 77/77/77 76/76/76
f 81/81/81 80/80/80 76/76/76
f 82/82/82 81/81/81 76/76/76
f 77/77/77 80/80/80 83/83/83
f 84/84/84 77/77/77 83/83/83
