g febg_lostcity_001_roadsign_01
v -0.7059171 6.3816237 -0.12430966
v -0.7034297 6.3791366 -0.053223073
v -0.7034297 4.9697943 -0.053223073
v -0.7059171 4.972282 -0.12430966
v -0.7034297 6.3791366 -0.053223073
v 0.7059125 6.37913 -0.053223073
v 0.7059125 4.9697943 -0.053223073
v -0.7034297 4.9697943 -0.053223073
v 0.7059125 6.37913 -0.053223073
v 0.7034251 6.3816237 -0.12430966
v 0.7034251 4.972282 -0.12430966
v 0.7059125 4.9697943 -0.053223073
v 0.7034251 6.3816237 -0.12430966
v -0.7059171 6.3816237 -0.12430966
v -0.7059171 4.972282 -0.12430966
v 0.7034251 4.972282 -0.12430966
v 0.7034251 6.3816237 -0.12430966
v 0.7059125 6.37913 -0.053223073
v -0.7034297 6.3791366 -0.053223073
v -0.7059171 6.3816237 -0.12430966
v 0.053919256 2.9642901 -0.0042931437
v 0.097914934 1.9631299 0.090058625
v 0.097914934 2.9642901 0.090058625
v 0.053919256 1.9631299 -0.0042931437
v 0.097914934 -1.0728836E-06 0.090058625
v -0.049787283 2.9642901 -0.013364017
v 0.053919256 -1.0728836E-06 -0.0042931437
v -0.049787283 1.9631299 -0.013370752
v -0.10949808 2.9642901 0.07191014
v -0.049787283 -1.0728836E-06 -0.013370752
v -0.10949808 1.9631299 0.07191014
v -0.065502405 2.9642901 0.16626191
v -0.10949808 -1.0728836E-06 0.07191014
v -0.065502405 1.9631299 0.16626191
v -0.065502405 -1.0728836E-06 0.16626191
v 0.053919256 6.0376477 -0.0042931437
v 0.097914934 5.389136 0.090058625
v 0.097914934 6.0376544 0.090058625
v 0.053919256 5.389136 -0.0042931437
v -0.049787283 6.0376477 -0.013364017
v 0.097914934 4.9947968 0.090058625
v -0.049787283 5.389136 -0.013364017
v -0.10949808 6.0376544 0.07191014
v 0.053919256 4.9947968 -0.0042931437
v 0.097914934 2.9642901 0.090058625
v 0.053919256 2.9642901 -0.0042931437
v -0.049787283 4.9947968 -0.013364017
v -0.049787283 2.9642901 -0.013364017
v -0.10949808 5.389136 0.07191014
v -0.065502405 6.0376544 0.16626191
v -0.065502405 5.389136 0.16626191
v -0.10949808 4.9947968 0.07191014
v -0.10949808 2.9642901 0.07191014
v -0.065502405 4.9947968 0.16626191
v -0.065502405 2.9642901 0.16626191
v 0.097914934 4.9947968 0.090058625
v 0.097914934 2.9642901 0.090058625
v 0.036176324 2.9642901 0.17097312
v 0.036176324 4.9947968 0.17097312
v 0.097914934 5.389136 0.090058625
v -0.065502405 4.9947968 0.16626191
v -0.065502405 2.9642901 0.16626191
v -0.065502405 5.389136 0.16626191
v 0.036176324 5.389136 0.17097312
v 0.097914934 6.0376544 0.090058625
v -0.065502405 6.0376544 0.16626191
v 0.036176324 6.0376544 0.17097312
v -0.16694462 6.20802 0.06809795
v 0.058130264 6.20802 0.2198016
v -0.09868336 6.20802 0.21448213
v 0.15485454 6.20802 0.09625006
v 0.08659327 6.20802 -0.050127327
v -0.07430291 6.20802 -0.06420678
v 0.15485454 6.20802 0.09625006
v 0.15485454 6.043731 0.09625006
v 0.058130264 6.043731 0.2198016
v 0.058130264 6.20802 0.2198016
v -0.09868336 6.20802 0.21448213
v -0.09868336 6.043731 0.21448213
v -0.09868336 6.20802 0.21448213
v -0.09868336 6.043731 0.21448213
v -0.16694462 6.043731 0.06809795
v -0.16694462 6.20802 0.06809795
v -0.07430291 6.043731 -0.06420678
v -0.07430291 6.20802 -0.06420678
v 0.08659327 6.043731 -0.050127327
v 0.08659327 6.20802 -0.050127327
v 0.15485454 6.043731 0.09625006
v 0.15485454 6.20802 0.09625006
v 0.097914934 -1.0728836E-06 0.090058625
v 0.036176324 -1.0728836E-06 0.17097312
v 0.036176324 1.9631299 0.17097312
v 0.097914934 1.9631299 0.090058625
v -0.065502405 -1.0728836E-06 0.16626191
v 0.097914934 2.9642901 0.090058625
v -0.065502405 1.9631299 0.16626191
v 0.036176324 2.9642901 0.17097312
v -0.065502405 2.9642901 0.16626191
vt 0.06292321 0.39429212
vt 0.06572806 0.39709696
vt 0.06572806 0.33497864
vt 0.06292321 0.337753
vt 0.04713067 0.4176608
vt 0.034219205 0.4305875
vt 0.02129249 0.4176608
vt 0.034219205 0.40474933
vt 0.0034420462 0.39709696
vt 0.006338361 0.39429212
vt 0.006338361 0.337753
vt 0.0034420462 0.33497864
vt 0.006338361 0.39429212
vt 0.06292321 0.39429212
vt 0.06292321 0.337753
vt 0.006338361 0.337753
vt 0.006338361 0.39429212
vt 0.0034420462 0.39709696
vt 0.06572806 0.39709696
vt 0.06292321 0.39429212
vt 0.012496841 0.7612095
vt 0.008579195 0.67927426
vt 0.008579195 0.7612095
vt 0.012496841 0.67927426
vt 0.008579195 0.61520475
vt 0.016414488 0.7612095
vt 0.012496841 0.61520475
vt 0.016414488 0.67927426
vt 0.020332135 0.7612095
vt 0.016414488 0.61520475
vt 0.020332135 0.67927426
vt 0.02424978 0.7612095
vt 0.020332135 0.61520475
vt 0.02424978 0.67927426
vt 0.02424978 0.61520475
vt 0.012496841 0.85742813
vt 0.008579195 0.82341933
vt 0.008579195 0.85742813
vt 0.012496841 0.82341933
vt 0.016414488 0.85742813
vt 0.008579195 0.7483743
vt 0.016414488 0.82341933
vt 0.020332135 0.85742813
vt 0.012496841 0.7483743
vt 0.008579195 0.66453356
vt 0.012496841 0.66453356
vt 0.016414488 0.7483743
vt 0.016414488 0.66453356
vt 0.020332135 0.82341933
vt 0.02424978 0.85742813
vt 0.02424978 0.82341933
vt 0.020332135 0.7483743
vt 0.020332135 0.66453356
vt 0.02424978 0.7483743
vt 0.02424978 0.66453356
vt 0.008579195 0.7483743
vt 0.008579195 0.66453356
vt 0.005637148 0.66453356
vt 0.005637148 0.7483743
vt 0.008579195 0.82341933
vt 0.002695102 0.7483743
vt 0.002695102 0.66453356
vt 0.002695102 0.82341933
vt 0.005637148 0.82341933
vt 0.008579195 0.85742813
vt 0.002695102 0.85742813
vt 0.005637148 0.85742813
vt 0.054798283 0.5385439
vt 0.048487365 0.5420347
vt 0.052648913 0.5422633
vt 0.0462008 0.5385286
vt 0.04835017 0.5348092
vt 0.052648913 0.5348092
vt 0.044066675 0.5348092
vt 0.044066675 0.53044945
vt 0.039889883 0.53044945
vt 0.039889883 0.5348092
vt 0.03571309 0.5348092
vt 0.03571309 0.5304342
vt 0.061246395 0.5348092
vt 0.061246395 0.53044945
vt 0.056947652 0.53044945
vt 0.056947652 0.5348092
vt 0.052648913 0.53044945
vt 0.052648913 0.5348092
vt 0.04835017 0.53044945
vt 0.04835017 0.5348092
vt 0.044066675 0.53044945
vt 0.044066675 0.5348092
vt 0.008579195 0.61520475
vt 0.005637148 0.61520475
vt 0.005637148 0.67927426
vt 0.008579195 0.67927426
vt 0.002695102 0.61520475
vt 0.008579195 0.7612095
vt 0.002695102 0.67927426
vt 0.005637148 0.7612095
vt 0.002695102 0.7612095
vn -0.704348 -0.7062464 -0.071483605
vn -0.704348 -0.7062464 -0.071483605
vn -0.704348 -0.7062464 -0.071483605
vn -0.704348 -0.7062464 -0.071483605
vn -0.08757776 2.3663044E-05 0.9961577
vn -0.08757776 2.3663044E-05 0.9961577
vn -0.08757776 2.3663044E-05 0.9961577
vn -0.08757776 2.3663044E-05 0.9961577
vn 0.70430076 0.70629376 0.07148111
vn 0.70430076 0.70629376 0.07148111
vn 0.70430076 0.70629376 0.07148111
vn 0.70430076 0.70629376 0.07148111
vn 0.087530434 2.3663044E-05 -0.9961618
vn 0.087530434 2.3663044E-05 -0.9961618
vn 0.087530434 2.3663044E-05 -0.9961618
vn 0.087530434 2.3663044E-05 -0.9961618
vn -0.704348 0.70629376 -0.071013875
vn -0.704348 0.70629376 -0.071013875
vn -0.704348 0.70629376 -0.071013875
vn -0.704348 0.70629376 -0.071013875
vn 0.5739423 2.3663044E-05 -0.81889576
vn 0.9942022 2.3663044E-05 0.10752669
vn 0.9942022 2.3663044E-05 0.10752669
vn 0.5739423 2.3663044E-05 -0.81889576
vn 0.9942022 2.3663044E-05 0.10752669
vn -0.42222923 2.3663044E-05 -0.90648913
vn 0.5739423 2.3663044E-05 -0.81889576
vn -0.42222923 2.3663044E-05 -0.90648913
vn -0.99619526 2.3663044E-05 -0.08714931
vn -0.42222923 2.3663044E-05 -0.90648913
vn -0.99619526 2.3663044E-05 -0.08714931
vn -0.5564789 2.3663044E-05 0.83086175
vn -0.99619526 2.3663044E-05 -0.08714931
vn -0.5564789 2.3663044E-05 0.83086175
vn -0.5564789 2.3663044E-05 0.83086175
vn 0.5739423 2.3663044E-05 -0.81889576
vn 0.9942022 2.3663044E-05 0.10752669
vn 0.9942022 2.3663044E-05 0.10752669
vn 0.5739423 2.3663044E-05 -0.81889576
vn -0.42222923 2.3663044E-05 -0.90648913
vn 0.9942022 2.3663044E-05 0.10752669
vn -0.42222923 2.3663044E-05 -0.90648913
vn -0.99619526 2.3663044E-05 -0.08714931
vn 0.5739423 2.3663044E-05 -0.81889576
vn 0.9942022 2.3663044E-05 0.10752669
vn 0.5739423 2.3663044E-05 -0.81889576
vn -0.42222923 2.3663044E-05 -0.90648913
vn -0.42222923 2.3663044E-05 -0.90648913
vn -0.99619526 2.3663044E-05 -0.08714931
vn -0.5564789 2.3663044E-05 0.83086175
vn -0.5564789 2.3663044E-05 0.83086175
vn -0.99619526 2.3663044E-05 -0.08714931
vn -0.99619526 2.3663044E-05 -0.08714931
vn -0.5564789 2.3663044E-05 0.83086175
vn -0.5564789 2.3663044E-05 0.83086175
vn 0.9942022 2.3663044E-05 0.10752669
vn 0.9942022 2.3663044E-05 0.10752669
vn 0.42218184 2.3663044E-05 0.9065112
vn 0.42218184 2.3663044E-05 0.9065112
vn 0.9942022 2.3663044E-05 0.10752669
vn -0.5564789 2.3663044E-05 0.83086175
vn -0.5564789 2.3663044E-05 0.83086175
vn -0.5564789 2.3663044E-05 0.83086175
vn 0.42218184 2.3663044E-05 0.9065112
vn 0.9942022 2.3663044E-05 0.10752669
vn -0.5564789 2.3663044E-05 0.83086175
vn 0.42218184 2.3663044E-05 0.9065112
vn -0.7899566 0.61095697 -0.051962394
vn 0.332682 0.61873955 0.7116769
vn -0.4377944 0.60706574 0.66317964
vn 0.78990924 0.60706574 0.086686596
vn 0.45525783 0.61095697 -0.64766645
vn -0.334675 0.61095697 -0.7174428
vn 0.78990924 0.60706574 0.086686596
vn 0.9942022 2.3663044E-05 0.10752669
vn 0.42218184 2.3663044E-05 0.9065112
vn 0.332682 0.61873955 0.7116769
vn -0.4377944 0.60706574 0.66317964
vn -0.55064195 2.3663044E-05 0.83474153
vn -0.4377944 0.60706574 0.66317964
vn -0.55064195 2.3663044E-05 0.83474153
vn -0.99619526 2.3663044E-05 -0.08714931
vn -0.7899566 0.61095697 -0.051962394
vn -0.42222923 2.3663044E-05 -0.90648913
vn -0.334675 0.61095697 -0.7174428
vn 0.5739423 2.3663044E-05 -0.81889576
vn 0.45525783 0.61095697 -0.64766645
vn 0.9942022 2.3663044E-05 0.10752669
vn 0.78990924 0.60706574 0.086686596
vn 0.9942022 2.3663044E-05 0.10752669
vn 0.42218184 2.3663044E-05 0.9065112
vn 0.42218184 2.3663044E-05 0.9065112
vn 0.9942022 2.3663044E-05 0.10752669
vn -0.5564789 2.3663044E-05 0.83086175
vn 0.9942022 2.3663044E-05 0.10752669
vn -0.5564789 2.3663044E-05 0.83086175
vn 0.42218184 2.3663044E-05 0.9065112
vn -0.5564789 2.3663044E-05 0.83086175
g febg_lostcity_001_roadsign_01_0
f 3/3/3 2/2/2 1/1/1
f 4/4/4 3/3/3 1/1/1
f 7/7/7 6/6/6 5/5/5
f 8/8/8 7/7/7 5/5/5
f 11/11/11 10/10/10 9/9/9
f 12/12/12 11/11/11 9/9/9
f 15/15/15 14/14/14 13/13/13
f 16/16/16 15/15/15 13/13/13
f 19/19/19 18/18/18 17/17/17
f 20/20/20 19/19/19 17/17/17
f 23/23/23 22/22/22 21/21/21
f 22/22/22 24/24/24 21/21/21
f 24/24/24 22/22/22 25/25/25
f 21/21/21 24/24/24 26/26/26
f 27/27/27 24/24/24 25/25/25
f 24/24/24 28/28/28 26/26/26
f 28/28/28 24/24/24 27/27/27
f 26/26/26 28/28/28 29/29/29
f 30/30/30 28/28/28 27/27/27
f 28/28/28 31/31/31 29/29/29
f 31/31/31 28/28/28 30/30/30
f 29/29/29 31/31/31 32/32/32
f 33/33/33 31/31/31 30/30/30
f 31/31/31 34/34/34 32/32/32
f 34/34/34 31/31/31 33/33/33
f 35/35/35 34/34/34 33/33/33
f 38/38/38 37/37/37 36/36/36
f 37/37/37 39/39/39 36/36/36
f 36/36/36 39/39/39 40/40/40
f 37/37/37 41/41/41 39/39/39
f 39/39/39 42/42/42 40/40/40
f 40/40/40 42/42/42 43/43/43
f 41/41/41 44/44/44 39/39/39
f 39/39/39 44/44/44 42/42/42
f 41/41/41 45/45/45 44/44/44
f 45/45/45 46/46/46 44/44/44
f 44/44/44 46/46/46 47/47/47
f 44/44/44 47/47/47 42/42/42
f 46/46/46 48/48/48 47/47/47
f 42/42/42 49/49/49 43/43/43
f 42/42/42 47/47/47 49/49/49
f 50/50/50 43/43/43 49/49/49
f 51/51/51 50/50/50 49/49/49
f 47/47/47 48/48/48 52/52/52
f 47/47/47 52/52/52 49/49/49
f 49/49/49 52/52/52 51/51/51
f 48/48/48 53/53/53 52/52/52
f 52/52/52 54/54/54 51/51/51
f 52/52/52 53/53/53 54/54/54
f 53/53/53 55/55/55 54/54/54
f 58/58/58 57/57/57 56/56/56
f 59/59/59 58/58/58 56/56/56
f 59/59/59 56/56/56 60/60/60
f 58/58/58 59/59/59 61/61/61
f 62/62/62 58/58/58 61/61/61
f 61/61/61 59/59/59 63/63/63
f 64/64/64 59/59/59 60/60/60
f 59/59/59 64/64/64 63/63/63
f 64/64/64 60/60/60 65/65/65
f 63/63/63 64/64/64 66/66/66
f 67/67/67 64/64/64 65/65/65
f 64/64/64 67/67/67 66/66/66
f 70/70/70 69/69/69 68/68/68
f 69/69/69 71/71/71 68/68/68
f 68/68/68 71/71/71 72/72/72
f 73/73/73 68/68/68 72/72/72
f 76/76/76 75/75/75 74/74/74
f 77/77/77 76/76/76 74/74/74
f 76/76/76 77/77/77 78/78/78
f 79/79/79 76/76/76 78/78/78
f 82/82/82 81/81/81 80/80/80
f 83/83/83 82/82/82 80/80/80
f 84/84/84 82/82/82 83/83/83
f 85/85/85 84/84/84 83/83/83
f 86/86/86 84/84/84 85/85/85
f 87/87/87 86/86/86 85/85/85
f 88/88/88 86/86/86 87/87/87
f 89/89/89 88/88/88 87/87/87
f 92/92/92 91/91/91 90/90/90
f 93/93/93 92/92/92 90/90/90
f 91/91/91 92/92/92 94/94/94
f 92/92/92 93/93/93 95/95/95
f 92/92/92 96/96/96 94/94/94
f 97/97/97 92/92/92 95/95/95
f 96/96/96 92/92/92 98/98/98
f 92/92/92 97/97/97 98/98/98
