g febg_factory_001_building_piece_03
v 1.1885941 -0.00012612343 -0.5236496
v 1.0120596 1.7193036 -0.5236496
v 1.44858 0.7061887 -0.5236496
v 0.28461206 1.720515 -0.5236496
v -1.1112599 -0.00012612343 -0.5236496
v -0.42970872 2.4964697 -0.5236496
v -1.103822 2.4964697 -0.5236496
v -1.103822 1.7079301 0.7061322
v -1.1112599 -0.00012612343 0.7061322
v 1.1885941 -0.00012612343 -0.5236496
v 1.44858 0.7061887 -0.5236496
v 1.44858 0.7061887 -0.7061285
v 1.0120596 1.7193036 -0.5236496
v 1.1885978 -0.00012612343 -0.7061285
v 1.0120634 1.7193036 -0.7061285
v 0.28461206 1.720515 -0.5236496
v 0.28461206 1.720515 -0.7061285
v -1.4485874 -0.00012612343 -0.7061285
v -0.42970872 2.4964697 -0.5236496
v -0.42970872 2.4964697 -0.7061285
v -1.4485874 2.4964697 -0.7061285
v -1.103822 2.4964697 -0.5236496
v -1.4485874 1.7079301 0.7061322
v -1.4485874 -0.00012612343 0.7061322
v -1.103822 1.7079301 0.7061322
v -1.1112599 -0.00012612343 0.7061322
vt 0.015799098 0.42016986
vt 0.01853387 0.45109382
vt 0.009127454 0.43286702
vt 0.033770464 0.45110887
vt 0.058488604 0.42016986
vt 0.04723396 0.46506822
vt 0.058368392 0.46506822
vt 0.09722621 0.45088348
vt 0.0973314 0.42016986
vt 0.10107293 0.42090616
vt 0.09934491 0.44167238
vt 0.10890159 0.43390384
vt 0.110238925 0.4625288
vt 0.114265956 0.42090616
vt 0.1179023 0.45256642
vt 0.13288344 0.46376094
vt 0.13288344 0.45258144
vt 0.1686158 0.42090616
vt 0.1474138 0.47521093
vt 0.14760914 0.46687138
vt 0.1686158 0.46687138
vt 0.1718164 0.47512078
vt 0.21636915 0.45235604
vt 0.21636915 0.42090616
vt 0.22739841 0.45922303
vt 0.22739841 0.42090616
vn 0.5932673 -0.21839625 0.7748141
vn 0.43918896 0.666363 0.60255575
vn 0.7743491 0.021457672 0.6323947
vn 0.23586905 0.5376996 0.809472
vn 0.70763475 -0.0023688674 0.7065745
vn 0.31370246 0.7140161 0.6259168
vn 0.14373976 0.8506216 0.5057488
vn 0.58055985 0.39950562 0.7094685
vn 0.70604634 -0.0023688674 0.7081617
vn 0.5932673 -0.21839625 0.7748141
vn 0.7743491 0.021457672 0.6323947
vn 0.7743491 0.021457672 -0.6323947
vn 0.43918896 0.666363 0.60255575
vn 0.5932673 -0.21839625 -0.7748141
vn 0.43918896 0.666363 -0.60255575
vn 0.23586905 0.5376996 0.809472
vn 0.23586905 0.5376996 -0.809472
vn -0.70766234 -0.0007804036 -0.70655036
vn 0.31370246 0.7140161 0.6259168
vn 0.31370246 0.7140161 -0.6259168
vn -0.56629145 0.68383574 -0.46008986
vn 0.14373976 0.8506216 0.5057488
vn -0.64412487 0.37567902 0.66630954
vn -0.70766234 -0.0007804036 0.70655036
vn 0.58055985 0.39950562 0.7094685
vn 0.70604634 -0.0023688674 0.7081617
g febg_factory_001_building_piece_03_0
f 3/3/3 2/2/2 1/1/1
f 2/2/2 4/4/4 1/1/1
f 1/1/1 4/4/4 5/5/5
f 4/4/4 6/6/6 5/5/5
f 6/6/6 7/7/7 5/5/5
f 7/7/7 8/8/8 5/5/5
f 8/8/8 9/9/9 5/5/5
f 12/12/12 11/11/11 10/10/10
f 13/13/13 11/11/11 12/12/12
f 14/14/14 12/12/12 10/10/10
f 15/15/15 13/13/13 12/12/12
f 15/15/15 12/12/12 14/14/14
f 16/16/16 13/13/13 15/15/15
f 17/17/17 15/15/15 14/14/14
f 17/17/17 16/16/16 15/15/15
f 18/18/18 17/17/17 14/14/14
f 19/19/19 16/16/16 17/17/17
f 20/20/20 19/19/19 17/17/17
f 20/20/20 17/17/17 18/18/18
f 19/19/19 20/20/20 21/21/21
f 21/21/21 20/20/20 18/18/18
f 22/22/22 19/19/19 21/21/21
f 18/18/18 23/23/23 21/21/21
f 21/21/21 23/23/23 22/22/22
f 24/24/24 23/23/23 18/18/18
f 23/23/23 25/25/25 22/22/22
f 23/23/23 24/24/24 26/26/26
f 25/25/25 23/23/23 26/26/26
