g febg_hotspring_001_snowtree_01
v 0.7561019 4.23975 0.25216722
v 0.11759508 6.3498597 0.2790985
v 0.42487133 4.23975 -0.3447156
v 1.278083 2.1198788 0.14865708
v -0.14915717 6.3481517 0.233536
v 0.84975016 2.1198788 -0.68942344
v 1.7162852 0.5006113 0.05303955
v 1.2746214 -1.1920929E-07 -1.0341389
v 1.1920929E-07 4.23975 -0.48749578
v 1.1920929E-07 2.1198788 -0.97499144
v 1.1920929E-07 -1.1920929E-07 -1.4624872
v -0.4248712 4.23975 -0.3447156
v -0.60085964 4.23975 -1.1920929E-07
v -0.84975004 2.1198788 -0.68942344
v -1.2746212 -1.1920929E-07 -1.0341389
v -1.2017272 2.1198788 -1.1920929E-07
v -1.7588861 0.4515717 0.17461932
vt 0.068235636 0.23043124
vt 0.116779774 0.3192304
vt 0.10387888 0.21722893
vt 0.03663145 0.13614619
vt 0.12746522 0.31978804
vt 0.0854318 0.119598076
vt 0.009714389 0.06347315
vt 0.06362386 0.02042997
vt 0.12782693 0.21406399
vt 0.12738985 0.114926025
vt 0.12698294 0.013391748
vt 0.1482031 0.2167768
vt 0.17216621 0.22557834
vt 0.16957398 0.11934187
vt 0.19052286 0.019842196
vt 0.20979886 0.13260448
vt 0.25006896 0.065552965
vn 0.85195893 0.25051004 -0.4597942
vn 0.27968496 0.30942065 -0.90886474
vn 0.60621774 0.2774406 -0.74533665
vn 0.8570084 0.24546057 -0.45308468
vn 0.033943772 0.31615323 -0.9481007
vn 0.62641567 0.24546057 -0.73983276
vn 0.8553252 0.25051004 -0.45350137
vn 0.587703 0.24546057 -0.7709438
vn 0.0053300858 0.27239114 -0.96217185
vn 0.00028061867 0.22357947 -0.97468567
vn 0.00028061867 0.22357947 -0.97468567
vn -0.61912185 0.2622922 -0.7401965
vn -0.864863 0.2404111 -0.44069776
vn -0.632587 0.24546057 -0.734563
vn -0.6022902 0.24377745 -0.7601441
vn -0.86317986 0.24377745 -0.44214603
vn -0.864863 0.24377745 -0.4388446
g febg_hotspring_001_snowtree_01_0
f 3/3/3 2/2/2 1/1/1
f 3/3/3 1/1/1 4/4/4
f 2/2/2 3/3/3 5/5/5
f 6/6/6 3/3/3 4/4/4
f 6/6/6 4/4/4 7/7/7
f 8/8/8 6/6/6 7/7/7
f 9/9/9 5/5/5 3/3/3
f 9/9/9 3/3/3 6/6/6
f 10/10/10 6/6/6 8/8/8
f 10/10/10 9/9/9 6/6/6
f 11/11/11 10/10/10 8/8/8
f 12/12/12 5/5/5 9/9/9
f 12/12/12 9/9/9 10/10/10
f 13/13/13 5/5/5 12/12/12
f 14/14/14 10/10/10 11/11/11
f 14/14/14 12/12/12 10/10/10
f 13/13/13 12/12/12 14/14/14
f 15/15/15 14/14/14 11/11/11
f 16/16/16 13/13/13 14/14/14
f 17/17/17 14/14/14 15/15/15
f 16/16/16 14/14/14 17/17/17
