g febg_tropical_002_basecamp_04
v -1.2144587 2.8163543 1.130516
v -1.2144587 2.8163543 1.1674671
v -1.2464604 2.8163543 1.1859429
v -1.2464604 2.8163543 1.1120405
v -1.2784581 2.8163543 1.130516
v -1.2784581 2.8163543 1.1674671
v -1.2464604 2.8163543 1.1859429
v -1.2464604 2.550276 1.1859429
v -1.2784581 2.550276 1.1674671
v -1.2784581 2.8163543 1.1674671
v -1.2784581 2.550276 1.130516
v -1.2784581 2.8163543 1.130516
v -1.2464604 2.550276 1.1120405
v -1.2464604 2.8163543 1.1120405
v -1.2144587 2.550276 1.130516
v -1.2144587 2.8163543 1.130516
v -1.2144587 2.550276 1.1674671
v -1.2144587 2.8163543 1.1674671
v -1.2464604 2.550276 1.1859429
v -1.2464604 2.8163543 1.1859429
v 1.2766699 2.8163543 1.130516
v 1.2766699 2.8163543 1.1674671
v 1.2446723 2.8163543 1.185947
v 1.2446723 2.8163543 1.1120405
v 1.2126706 2.8163543 1.130516
v 1.2126706 2.8163543 1.1674671
v 1.2126706 2.550276 1.130516
v 1.2446723 2.550276 1.1120405
v 1.2446723 2.8163543 1.1120405
v 1.2126706 2.550276 1.1674671
v 1.2446723 2.8163543 1.185947
v 1.2446723 2.550276 1.1859429
v 1.2766699 2.8163543 1.1674671
v 1.2766699 2.550276 1.1674671
v 1.2766699 2.8163543 1.130516
v 1.2766699 2.550276 1.130516
v 1.2446723 2.8163543 1.1120405
v 1.2446723 2.550276 1.1120405
v -1.2144587 2.8163543 -1.1550441
v -1.2144587 2.8163543 -1.118093
v -1.2464564 2.8163543 -1.0996174
v -1.2464564 2.8163543 -1.1735196
v -1.2784581 2.8163543 -1.1550441
v -1.2784581 2.8163543 -1.118093
v -1.2144587 2.8163543 -1.1550441
v -1.2144587 2.550276 -1.118093
v -1.2144587 2.8163543 -1.118093
v -1.2144587 2.550276 -1.1550441
v -1.2464564 2.8163543 -1.1735196
v -1.2464564 2.550276 -1.1735196
v -1.2784581 2.8163543 -1.1550441
v -1.2784581 2.550276 -1.1550441
v -1.2784581 2.8163543 -1.118093
v -1.2784581 2.550276 -1.118093
v -1.2464564 2.8163543 -1.0996174
v -1.2464564 2.550276 -1.0996174
v -1.2144587 2.8163543 -1.118093
v -1.2144587 2.550276 -1.118093
v 1.2766739 2.8163543 -1.1550441
v 1.2766739 2.8163543 -1.118093
v 1.2446723 2.8163543 -1.0996174
v 1.2446723 2.8163543 -1.1735196
v 1.2126706 2.8163543 -1.1550441
v 1.2126706 2.8163543 -1.118093
v 1.2446723 2.8163543 -1.0996174
v 1.2446723 2.550276 -1.0996174
v 1.2126706 2.550276 -1.118093
v 1.2126706 2.8163543 -1.118093
v 1.2126706 2.550276 -1.1550441
v 1.2126706 2.8163543 -1.1550441
v 1.2446723 2.550276 -1.1735196
v 1.2446723 2.8163543 -1.1735196
v 1.2766739 2.550276 -1.1550441
v 1.2766739 2.8163543 -1.1550441
v 1.2766739 2.550276 -1.118093
v 1.2766739 2.8163543 -1.118093
v 1.2446723 2.550276 -1.0996174
v 1.2446723 2.8163543 -1.0996174
v -1.356663 4.7683716E-07 1.2608681
v -1.356663 2.104618 -1.2608632
v -1.356663 2.104618 1.2608681
v -1.356663 4.7683716E-07 -1.2608632
v 1.3566619 4.7683716E-07 -1.2608632
v 1.3566619 2.104618 -1.2608632
v 1.3566619 4.7683716E-07 1.2608681
v -1.356663 4.7683716E-07 1.2608681
v -1.356663 2.104618 1.2608681
v 1.3566619 2.104618 1.2608681
v 1.3566619 4.7683716E-07 -1.2608632
v 1.3566619 2.104618 -1.2608632
v 1.4237425 2.4896693 -1.3175797
v -1.4237475 2.0069027 -1.3175797
v 1.4237466 2.0069027 -1.3175797
v -1.4237475 2.4896653 -1.3175797
v -1.4237475 2.4896653 1.3175807
v -1.4237475 2.0069027 0.78816605
v -1.4237475 1.9074242 1.3175807
v -1.4237475 2.0831423 -0.26470685
v -1.4237475 2.0069027 -1.3175797
v 1.4237425 2.4896653 1.3175807
v -1.4237475 1.9074242 1.3175807
v 1.4237466 2.0069027 1.3175848
v 1.4237466 2.0771413 0.06258857
v 1.4237466 2.0069027 -1.3175797
v 1.4237466 2.0069027 1.3175848
v 1.1535115 2.4867175 1.1496184
v 1.180212 2.5581248 1.2140746
v 1.180212 2.4867175 1.2140746
v 1.1535115 2.5581248 1.1496184
v 1.180212 2.4867175 1.0851581
v 1.180212 2.5581248 1.0851581
v 1.2446723 2.4867175 1.0584576
v 1.2446723 2.5581248 1.240771
v 1.2446723 2.4867175 1.240771
v 1.2446723 2.5581248 1.0584576
v 1.3091285 2.4867175 1.0851622
v 1.3091285 2.5581248 1.2140746
v 1.3091285 2.4867175 1.2140746
v 1.3091285 2.5581248 1.0851622
v 1.3358289 2.4867175 1.1496184
v 1.3358289 2.5581248 1.1496184
v 1.1535156 2.4867175 -1.1359417
v 1.180212 2.5581248 -1.0714815
v 1.180212 2.4867175 -1.0714815
v 1.1535156 2.5581248 -1.1359417
v 1.180212 2.4867175 -1.200402
v 1.180212 2.5581248 -1.200402
v 1.2446723 2.4867175 -1.2270985
v 1.2446723 2.5581248 -1.0447851
v 1.2446723 2.4867175 -1.0447851
v 1.2446723 2.5581248 -1.2270985
v 1.3091285 2.4867175 -1.200402
v 1.3091285 2.5581248 -1.0714815
v 1.3091285 2.4867175 -1.0714815
v 1.3091285 2.5581248 -1.200402
v 1.335833 2.4867175 -1.1359417
v 1.335833 2.5581248 -1.1359417
v -1.3376212 2.4867175 -1.1359417
v -1.3109207 2.5581248 -1.0714815
v -1.3109207 2.4867175 -1.0714815
v -1.3376212 2.5581248 -1.1359417
v -1.3109207 2.4867175 -1.200402
v -1.3109207 2.5581248 -1.200402
v -1.2464604 2.4867175 -1.2270985
v -1.2464604 2.5581248 -1.0447851
v -1.2464604 2.4867175 -1.0447851
v -1.2464604 2.5581248 -1.2270985
v -1.1820042 2.4867175 -1.200402
v -1.1820042 2.5581248 -1.0714815
v -1.1820042 2.4867175 -1.0714815
v -1.1820042 2.5581248 -1.200402
v -1.1553037 2.4867175 -1.1359417
v -1.1553037 2.5581248 -1.1359417
v -1.3376212 2.4867175 1.1496184
v -1.3109207 2.5581248 1.2140746
v -1.3109207 2.4867175 1.2140746
v -1.3376212 2.5581248 1.1496184
v -1.3109207 2.4867175 1.0851581
v -1.3109207 2.5581248 1.0851581
v -1.2464604 2.4867175 1.0584576
v -1.2464604 2.5581248 1.240771
v -1.2464604 2.4867175 1.240771
v -1.2464604 2.5581248 1.0584576
v -1.1820042 2.4867175 1.0851581
v -1.1820042 2.5581248 1.2140746
v -1.1820042 2.4867175 1.2140746
v -1.1820042 2.5581248 1.0851581
v -1.1553037 2.4867175 1.1496184
v -1.1553037 2.5581248 1.1496184
vt 0.01934129 0.49063268
vt 0.015103525 0.49063268
vt 0.012984642 0.48695895
vt 0.021460174 0.48695895
vt 0.019326046 0.48331568
vt 0.015118768 0.48331568
vt 0.01091149 0.48331568
vt 0.01091149 0.4506788
vt 0.015118768 0.4506788
vt 0.015118768 0.48331568
vt 0.019326046 0.4506788
vt 0.019326046 0.48331568
vt 0.023533324 0.4506788
vt 0.023533324 0.48331568
vt 0.019326046 0.4506788
vt 0.019326046 0.48331568
vt 0.015118768 0.4506788
vt 0.015118768 0.48331568
vt 0.01091149 0.4506788
vt 0.01091149 0.48331568
vt 0.01934129 0.49063268
vt 0.015103525 0.49063268
vt 0.012984642 0.48695895
vt 0.021460174 0.48695895
vt 0.019326046 0.48331568
vt 0.015118768 0.48331568
vt 0.019326046 0.4506788
vt 0.023533324 0.4506788
vt 0.023533324 0.48331568
vt 0.015118768 0.4506788
vt 0.01091149 0.48331568
vt 0.01091149 0.4506788
vt 0.015118768 0.48331568
vt 0.015118768 0.4506788
vt 0.019326046 0.48331568
vt 0.019326046 0.4506788
vt 0.023533324 0.48331568
vt 0.023533324 0.4506788
vt 0.01934129 0.49063268
vt 0.015103525 0.49063268
vt 0.012984642 0.48695895
vt 0.021460174 0.48695895
vt 0.019326046 0.48331568
vt 0.015118768 0.48331568
vt 0.019326046 0.48331568
vt 0.015118768 0.4506788
vt 0.015118768 0.48331568
vt 0.019326046 0.4506788
vt 0.023533324 0.48331568
vt 0.023533324 0.4506788
vt 0.019326046 0.48331568
vt 0.019326046 0.4506788
vt 0.015118768 0.48331568
vt 0.015118768 0.4506788
vt 0.01091149 0.48331568
vt 0.01091149 0.4506788
vt 0.015118768 0.48331568
vt 0.015118768 0.4506788
vt 0.01934129 0.49063268
vt 0.015103525 0.49063268
vt 0.012984642 0.48695895
vt 0.021460174 0.48695895
vt 0.019326046 0.48331568
vt 0.015118768 0.48331568
vt 0.01091149 0.48331568
vt 0.01091149 0.4506788
vt 0.015118768 0.4506788
vt 0.015118768 0.48331568
vt 0.019326046 0.4506788
vt 0.019326046 0.48331568
vt 0.023533324 0.4506788
vt 0.023533324 0.48331568
vt 0.019326046 0.4506788
vt 0.019326046 0.48331568
vt 0.015118768 0.4506788
vt 0.015118768 0.48331568
vt 0.01091149 0.4506788
vt 0.01091149 0.48331568
vt 0.5500224 0.93183297
vt 0.49720275 0.8697756
vt 0.49720275 0.93183297
vt 0.5500224 0.8697756
vt 0.5500224 0.80041647
vt 0.49720275 0.80041647
vt 0.5500224 0.8697756
vt 0.5500224 0.80041647
vt 0.49720275 0.80041647
vt 0.49720275 0.8697756
vt 0.5500224 0.93183297
vt 0.49720275 0.93183297
vt 0.41221878 0.8164529
vt 0.40131947 0.75209373
vt 0.40130424 0.8164529
vt 0.41221878 0.75209373
vt 0.47177616 0.752109
vt 0.4598098 0.7411944
vt 0.47177616 0.7389536
vt 0.4360143 0.742917
vt 0.41221878 0.7411944
vt 0.47177616 0.8164529
vt 0.48493153 0.752109
vt 0.48267546 0.8164529
vt 0.4434075 0.82576686
vt 0.41221878 0.8273522
vt 0.47176093 0.8273674
vt 0.35380468 0.5111813
vt 0.3626918 0.517416
vt 0.35817963 0.52180624
vt 0.36017656 0.5111813
vt 0.35817963 0.5005564
vt 0.3626918 0.5049466
vt 0.3687588 0.49616617
vt 0.3687588 0.52000743
vt 0.3687588 0.5261964
vt 0.3687588 0.5023704
vt 0.37932274 0.5005564
vt 0.37481058 0.517416
vt 0.37932274 0.52180624
vt 0.37481058 0.5049466
vt 0.38371295 0.5111813
vt 0.3773258 0.5111813
vt 0.35380468 0.5111813
vt 0.3626918 0.517416
vt 0.35817963 0.52180624
vt 0.36017656 0.5111813
vt 0.35817963 0.5005564
vt 0.3626918 0.5049466
vt 0.3687588 0.49616617
vt 0.3687588 0.52000743
vt 0.3687588 0.5261964
vt 0.3687588 0.5023704
vt 0.37932274 0.5005564
vt 0.37481058 0.517416
vt 0.37932274 0.52180624
vt 0.37481058 0.5049466
vt 0.38371295 0.5111813
vt 0.3773258 0.5111813
vt 0.35380468 0.5111813
vt 0.3626918 0.517416
vt 0.35817963 0.52180624
vt 0.36017656 0.5111813
vt 0.35817963 0.5005564
vt 0.3626918 0.5049466
vt 0.3687588 0.49616617
vt 0.3687588 0.52000743
vt 0.3687588 0.5261964
vt 0.3687588 0.5023704
vt 0.37932274 0.5005564
vt 0.37481058 0.517416
vt 0.37932274 0.52180624
vt 0.37481058 0.5049466
vt 0.38371295 0.5111813
vt 0.3773258 0.5111813
vt 0.35380468 0.5111813
vt 0.3626918 0.517416
vt 0.35817963 0.52180624
vt 0.36017656 0.5111813
vt 0.35817963 0.5005564
vt 0.3626918 0.5049466
vt 0.3687588 0.49616617
vt 0.3687588 0.52000743
vt 0.3687588 0.5261964
vt 0.3687588 0.5023704
vt 0.37932274 0.5005564
vt 0.37481058 0.517416
vt 0.37932274 0.52180624
vt 0.37481058 0.5049466
vt 0.38371295 0.5111813
vt 0.3773258 0.5111813
vn 0.6871942 0.61094785 -0.39307353
vn 0.6871942 0.61094785 0.39307353
vn -0.0009775162 0.61094785 0.79167026
vn -0.0009775162 0.61094785 -0.79167026
vn -0.6871942 0.61094785 -0.39307353
vn -0.6871942 0.61094785 0.39307353
vn -0.0009775162 0.61094785 0.79167026
vn -0.0009775162 0.0009775162 0.99999905
vn -0.8651022 0.0009775162 0.5015947
vn -0.6871942 0.61094785 0.39307353
vn -0.8651022 0.0009775162 -0.5015947
vn -0.6871942 0.61094785 -0.39307353
vn -0.0009775162 0.0009775162 -0.99999905
vn -0.0009775162 0.61094785 -0.79167026
vn 0.86510223 0.0009775162 -0.5015946
vn 0.6871942 0.61094785 -0.39307353
vn 0.86510223 0.0009775162 0.5015946
vn 0.6871942 0.61094785 0.39307353
vn -0.0009775162 0.0009775162 0.99999905
vn -0.0009775162 0.61094785 0.79167026
vn 0.6871942 0.61094785 -0.39307353
vn 0.6871942 0.61094785 0.39307353
vn -0.0009775162 0.61094785 0.79167026
vn -0.0009775162 0.61094785 -0.79167026
vn -0.6871942 0.61094785 -0.39307353
vn -0.6871942 0.61094785 0.39307353
vn -0.8651022 0.0009775162 -0.5015947
vn -0.0009775162 0.0009775162 -0.99999905
vn -0.0009775162 0.61094785 -0.79167026
vn -0.8651022 0.0009775162 0.5015947
vn -0.0009775162 0.61094785 0.79167026
vn -0.0009775162 0.0009775162 0.99999905
vn 0.6871942 0.61094785 0.39307353
vn 0.86510223 0.0009775162 0.5015946
vn 0.6871942 0.61094785 -0.39307353
vn 0.86510223 0.0009775162 -0.5015946
vn -0.0009775162 0.61094785 -0.79167026
vn -0.0009775162 0.0009775162 -0.99999905
vn 0.6871942 0.61094785 -0.39307353
vn 0.6871942 0.61094785 0.39307353
vn -0.0009775162 0.61094785 0.79167026
vn -0.0009775162 0.61094785 -0.79167026
vn -0.6871942 0.61094785 -0.39307353
vn -0.6871942 0.61094785 0.39307353
vn 0.6871942 0.61094785 -0.39307353
vn 0.86510223 0.0009775162 0.5015946
vn 0.6871942 0.61094785 0.39307353
vn 0.86510223 0.0009775162 -0.5015946
vn -0.0009775162 0.61094785 -0.79167026
vn -0.0009775162 0.0009775162 -0.99999905
vn -0.6871942 0.61094785 -0.39307353
vn -0.8651022 0.0009775162 -0.5015947
vn -0.6871942 0.61094785 0.39307353
vn -0.8651022 0.0009775162 0.5015947
vn -0.0009775162 0.61094785 0.79167026
vn -0.0009775162 0.0009775162 0.99999905
vn 0.6871942 0.61094785 0.39307353
vn 0.86510223 0.0009775162 0.5015946
vn 0.6871942 0.61094785 -0.39307353
vn 0.6871942 0.61094785 0.39307353
vn -0.0009775162 0.61094785 0.79167026
vn -0.0009775162 0.61094785 -0.79167026
vn -0.6871942 0.61094785 -0.39307353
vn -0.6871942 0.61094785 0.39307353
vn -0.0009775162 0.61094785 0.79167026
vn -0.0009775162 0.0009775162 0.99999905
vn -0.8651022 0.0009775162 0.5015947
vn -0.6871942 0.61094785 0.39307353
vn -0.8651022 0.0009775162 -0.5015947
vn -0.6871942 0.61094785 -0.39307353
vn -0.0009775162 0.0009775162 -0.99999905
vn -0.0009775162 0.61094785 -0.79167026
vn 0.86510223 0.0009775162 -0.5015946
vn 0.6871942 0.61094785 -0.39307353
vn 0.86510223 0.0009775162 0.5015946
vn 0.6871942 0.61094785 0.39307353
vn -0.0009775162 0.0009775162 0.99999905
vn -0.0009775162 0.61094785 0.79167026
vn -0.70674455 0.0009775162 0.70746815
vn -0.70674455 0.0009775162 -0.70746815
vn -0.70674455 0.0009775162 0.70746815
vn -0.70674455 0.0009775162 -0.70746815
vn 0.70674455 0.0009775162 -0.70746815
vn 0.70674455 0.0009775162 -0.70746815
vn 0.70674455 0.0009775162 0.70746815
vn -0.70674455 0.0009775162 0.70746815
vn -0.70674455 0.0009775162 0.70746815
vn 0.70674455 0.0009775162 0.70746815
vn 0.70674455 0.0009775162 -0.70746815
vn 0.70674455 0.0009775162 -0.70746815
vn 0.5777123 0.5777123 -0.5766255
vn -0.6911043 0.0009775162 -0.7227544
vn 0.69501436 0.0009775162 -0.71899515
vn -0.5777123 0.5777123 -0.5766255
vn -0.5777123 0.5777123 0.5766255
vn -0.9999995 0.0009775162 -0
vn -0.66959894 0.0009775162 0.7427223
vn -0.9999995 0.0009775162 -0
vn -0.6911043 0.0009775162 -0.7227544
vn 0.5777123 0.5777123 0.5766255
vn -0.66959894 0.0009775162 0.7427223
vn 0.6871942 0.0009775162 0.7264731
vn 0.9999995 0.0009775162 -0
vn 0.69501436 0.0009775162 -0.71899515
vn 0.6871942 0.0009775162 0.7264731
vn -0.9999995 0.0009775162 -0
vn -0.5483868 0.6304983 0.5493122
vn -0.70674455 0.0009775162 0.70746815
vn -0.776562 0.6300409 -0
vn -0.70674455 0.0009775162 -0.70746815
vn -0.5483868 0.6304983 -0.5493122
vn -0.0009775162 0.0009775162 -0.99999905
vn -0.0009775162 0.6304983 0.77619004
vn -0.0009775162 0.0009775162 0.99999905
vn -0.0009775162 0.6304983 -0.77619004
vn 0.70674455 0.0009775162 -0.70746815
vn 0.5483868 0.6304983 0.5493122
vn 0.70674455 0.0009775162 0.70746815
vn 0.5483868 0.6304983 -0.5493122
vn 0.9999995 0.0009775162 -0
vn 0.776562 0.6300409 -0
vn -0.9999995 0.0009775162 -0
vn -0.5483868 0.6304983 0.5493122
vn -0.70674455 0.0009775162 0.70746815
vn -0.776562 0.6300409 -0
vn -0.70674455 0.0009775162 -0.70746815
vn -0.5483868 0.6304983 -0.5493122
vn -0.0009775162 0.0009775162 -0.99999905
vn -0.0009775162 0.6304983 0.77619004
vn -0.0009775162 0.0009775162 0.99999905
vn -0.0009775162 0.6304983 -0.77619004
vn 0.70674455 0.0009775162 -0.70746815
vn 0.5483868 0.6304983 0.5493122
vn 0.70674455 0.0009775162 0.70746815
vn 0.5483868 0.6304983 -0.5493122
vn 0.9999995 0.0009775162 -0
vn 0.776562 0.6300409 -0
vn -0.9999995 0.0009775162 -0
vn -0.5483868 0.6304983 0.5493122
vn -0.70674455 0.0009775162 0.70746815
vn -0.776562 0.6300409 -0
vn -0.70674455 0.0009775162 -0.70746815
vn -0.5483868 0.6304983 -0.5493122
vn -0.0009775162 0.0009775162 -0.99999905
vn -0.0009775162 0.6304983 0.77619004
vn -0.0009775162 0.0009775162 0.99999905
vn -0.0009775162 0.6304983 -0.77619004
vn 0.70674455 0.0009775162 -0.70746815
vn 0.5483868 0.6304983 0.5493122
vn 0.70674455 0.0009775162 0.70746815
vn 0.5483868 0.6304983 -0.5493122
vn 0.9999995 0.0009775162 -0
vn 0.776562 0.6300409 -0
vn -0.9999995 0.0009775162 -0
vn -0.5483868 0.6304983 0.5493122
vn -0.70674455 0.0009775162 0.70746815
vn -0.776562 0.6300409 -0
vn -0.70674455 0.0009775162 -0.70746815
vn -0.5483868 0.6304983 -0.5493122
vn -0.0009775162 0.0009775162 -0.99999905
vn -0.0009775162 0.6304983 0.77619004
vn -0.0009775162 0.0009775162 0.99999905
vn -0.0009775162 0.6304983 -0.77619004
vn 0.70674455 0.0009775162 -0.70746815
vn 0.5483868 0.6304983 0.5493122
vn 0.70674455 0.0009775162 0.70746815
vn 0.5483868 0.6304983 -0.5493122
vn 0.9999995 0.0009775162 -0
vn 0.776562 0.6300409 -0
g febg_tropical_002_basecamp_04_0
f 3/3/3 2/2/2 1/1/1
f 4/4/4 3/3/3 1/1/1
f 3/3/3 4/4/4 5/5/5
f 6/6/6 3/3/3 5/5/5
f 9/9/9 8/8/8 7/7/7
f 10/10/10 9/9/9 7/7/7
f 11/11/11 9/9/9 10/10/10
f 12/12/12 11/11/11 10/10/10
f 13/13/13 11/11/11 12/12/12
f 14/14/14 13/13/13 12/12/12
f 15/15/15 13/13/13 14/14/14
f 16/16/16 15/15/15 14/14/14
f 17/17/17 15/15/15 16/16/16
f 18/18/18 17/17/17 16/16/16
f 19/19/19 17/17/17 18/18/18
f 20/20/20 19/19/19 18/18/18
f 23/23/23 22/22/22 21/21/21
f 24/24/24 23/23/23 21/21/21
f 23/23/23 24/24/24 25/25/25
f 26/26/26 23/23/23 25/25/25
f 25/25/25 27/27/27 26/26/26
f 28/28/28 27/27/27 25/25/25
f 29/29/29 28/28/28 25/25/25
f 27/27/27 30/30/30 26/26/26
f 26/26/26 30/30/30 31/31/31
f 30/30/30 32/32/32 31/31/31
f 31/31/31 32/32/32 33/33/33
f 32/32/32 34/34/34 33/33/33
f 33/33/33 34/34/34 35/35/35
f 34/34/34 36/36/36 35/35/35
f 35/35/35 36/36/36 37/37/37
f 36/36/36 38/38/38 37/37/37
f 41/41/41 40/40/40 39/39/39
f 42/42/42 41/41/41 39/39/39
f 41/41/41 42/42/42 43/43/43
f 44/44/44 41/41/41 43/43/43
f 47/47/47 46/46/46 45/45/45
f 46/46/46 48/48/48 45/45/45
f 45/45/45 48/48/48 49/49/49
f 48/48/48 50/50/50 49/49/49
f 49/49/49 50/50/50 51/51/51
f 50/50/50 52/52/52 51/51/51
f 51/51/51 52/52/52 53/53/53
f 52/52/52 54/54/54 53/53/53
f 53/53/53 54/54/54 55/55/55
f 54/54/54 56/56/56 55/55/55
f 55/55/55 56/56/56 57/57/57
f 56/56/56 58/58/58 57/57/57
f 61/61/61 60/60/60 59/59/59
f 62/62/62 61/61/61 59/59/59
f 61/61/61 62/62/62 63/63/63
f 64/64/64 61/61/61 63/63/63
f 67/67/67 66/66/66 65/65/65
f 68/68/68 67/67/67 65/65/65
f 69/69/69 67/67/67 68/68/68
f 70/70/70 69/69/69 68/68/68
f 71/71/71 69/69/69 70/70/70
f 72/72/72 71/71/71 70/70/70
f 73/73/73 71/71/71 72/72/72
f 74/74/74 73/73/73 72/72/72
f 75/75/75 73/73/73 74/74/74
f 76/76/76 75/75/75 74/74/74
f 77/77/77 75/75/75 76/76/76
f 78/78/78 77/77/77 76/76/76
f 81/81/81 80/80/80 79/79/79
f 80/80/80 82/82/82 79/79/79
f 82/82/82 80/80/80 83/83/83
f 80/80/80 84/84/84 83/83/83
f 87/87/87 86/86/86 85/85/85
f 88/88/88 87/87/87 85/85/85
f 88/88/88 85/85/85 89/89/89
f 90/90/90 88/88/88 89/89/89
f 93/93/93 92/92/92 91/91/91
f 92/92/92 94/94/94 91/91/91
f 91/91/91 94/94/94 95/95/95
f 94/94/94 96/96/96 95/95/95
f 95/95/95 96/96/96 97/97/97
f 96/96/96 94/94/94 98/98/98
f 99/99/99 98/98/98 94/94/94
f 100/100/100 91/91/91 95/95/95
f 95/95/95 101/101/101 100/100/100
f 101/101/101 102/102/102 100/100/100
f 100/100/100 103/103/103 91/91/91
f 91/91/91 103/103/103 104/104/104
f 105/105/105 103/103/103 100/100/100
f 108/108/108 107/107/107 106/106/106
f 107/107/107 109/109/109 106/106/106
f 106/106/106 109/109/109 110/110/110
f 109/109/109 111/111/111 110/110/110
f 111/111/111 109/109/109 107/107/107
f 110/110/110 111/111/111 112/112/112
f 113/113/113 107/107/107 108/108/108
f 111/111/111 107/107/107 113/113/113
f 114/114/114 113/113/113 108/108/108
f 111/111/111 115/115/115 112/112/112
f 115/115/115 111/111/111 113/113/113
f 112/112/112 115/115/115 116/116/116
f 117/117/117 113/113/113 114/114/114
f 115/115/115 113/113/113 117/117/117
f 118/118/118 117/117/117 114/114/114
f 115/115/115 119/119/119 116/116/116
f 119/119/119 115/115/115 117/117/117
f 116/116/116 119/119/119 120/120/120
f 121/121/121 117/117/117 118/118/118
f 120/120/120 121/121/121 118/118/118
f 119/119/119 121/121/121 120/120/120
f 121/121/121 119/119/119 117/117/117
f 124/124/124 123/123/123 122/122/122
f 123/123/123 125/125/125 122/122/122
f 122/122/122 125/125/125 126/126/126
f 125/125/125 127/127/127 126/126/126
f 127/127/127 125/125/125 123/123/123
f 126/126/126 127/127/127 128/128/128
f 129/129/129 123/123/123 124/124/124
f 127/127/127 123/123/123 129/129/129
f 130/130/130 129/129/129 124/124/124
f 127/127/127 131/131/131 128/128/128
f 131/131/131 127/127/127 129/129/129
f 128/128/128 131/131/131 132/132/132
f 133/133/133 129/129/129 130/130/130
f 131/131/131 129/129/129 133/133/133
f 134/134/134 133/133/133 130/130/130
f 131/131/131 135/135/135 132/132/132
f 135/135/135 131/131/131 133/133/133
f 132/132/132 135/135/135 136/136/136
f 137/137/137 133/133/133 134/134/134
f 136/136/136 137/137/137 134/134/134
f 135/135/135 137/137/137 136/136/136
f 137/137/137 135/135/135 133/133/133
f 140/140/140 139/139/139 138/138/138
f 139/139/139 141/141/141 138/138/138
f 138/138/138 141/141/141 142/142/142
f 141/141/141 143/143/143 142/142/142
f 143/143/143 141/141/141 139/139/139
f 142/142/142 143/143/143 144/144/144
f 145/145/145 139/139/139 140/140/140
f 143/143/143 139/139/139 145/145/145
f 146/146/146 145/145/145 140/140/140
f 143/143/143 147/147/147 144/144/144
f 147/147/147 143/143/143 145/145/145
f 144/144/144 147/147/147 148/148/148
f 149/149/149 145/145/145 146/146/146
f 147/147/147 145/145/145 149/149/149
f 150/150/150 149/149/149 146/146/146
f 147/147/147 151/151/151 148/148/148
f 151/151/151 147/147/147 149/149/149
f 148/148/148 151/151/151 152/152/152
f 153/153/153 149/149/149 150/150/150
f 152/152/152 153/153/153 150/150/150
f 151/151/151 153/153/153 152/152/152
f 153/153/153 151/151/151 149/149/149
f 156/156/156 155/155/155 154/154/154
f 155/155/155 157/157/157 154/154/154
f 154/154/154 157/157/157 158/158/158
f 157/157/157 159/159/159 158/158/158
f 159/159/159 157/157/157 155/155/155
f 158/158/158 159/159/159 160/160/160
f 161/161/161 155/155/155 156/156/156
f 159/159/159 155/155/155 161/161/161
f 162/162/162 161/161/161 156/156/156
f 159/159/159 163/163/163 160/160/160
f 163/163/163 159/159/159 161/161/161
f 160/160/160 163/163/163 164/164/164
f 165/165/165 161/161/161 162/162/162
f 163/163/163 161/161/161 165/165/165
f 166/166/166 165/165/165 162/162/162
f 163/163/163 167/167/167 164/164/164
f 167/167/167 163/163/163 165/165/165
f 164/164/164 167/167/167 168/168/168
f 169/169/169 165/165/165 166/166/166
f 168/168/168 169/169/169 166/166/166
f 167/167/167 169/169/169 168/168/168
f 169/169/169 167/167/167 165/165/165
