g febg_factory_001_pipe_03
v -0.33242893 0.012300968 4.8496346
v -0.42456102 0.59154224 4.72236
v -0.42456102 0.012300968 4.72236
v -0.33242893 0.59154224 4.8496346
v -0.42500734 0.012300968 4.9765925
v -0.33228827 0.7890892 4.7767215
v -0.4248662 0.833982 4.885082
v -0.42442036 0.74409103 4.66808
v -0.424397 0.9102621 4.516271
v -0.42500734 0.59154224 4.9765925
v -0.57435274 0.012300968 4.927768
v -0.33220625 1.018857 4.5612693
v -0.42450237 0.96127987 4.3519416
v -0.57435274 0.59154224 4.927768
v -0.57407093 0.012300968 4.7706437
v -0.57407093 0.59154224 4.7706437
v -0.42456102 0.012300968 4.72236
v -0.42456102 0.59154224 4.72236
v -0.5742116 0.8167219 4.8434157
v -0.5739417 0.76116323 4.7093005
v -0.42442036 0.74409103 4.66808
v -0.424397 0.9102621 4.516271
v -0.573895 0.95155287 4.533343
v -0.42450237 0.96127987 4.3519416
v -0.5740943 1.0856681 4.5888906
v -0.573977 1.0097046 4.3519416
v -0.42462015 0.96042347 -1.209919
v -0.42472553 1.1272635 4.60615
v -0.57411766 1.1668296 4.3519416
v -0.57404757 1.0089774 -1.209919
v -0.3322649 1.0884724 4.3519416
v -0.573977 1.0097046 -6.1517873
v -0.42450237 0.96127987 -6.1517873
v -0.57411766 1.1668296 -6.1517873
v -0.57404757 1.1661019 -1.209919
v -0.42472553 1.2155123 -6.1517873
v -0.42472553 1.2155123 4.3519416
v -0.42462015 1.2146559 -1.209919
v -0.3322649 1.0884724 -6.1517873
v -0.3322649 1.0875454 -1.209919
v -0.42462015 0.96042347 -1.209919
v -0.42450237 0.96127987 -6.1517873
v -0.041728973 3.8146973E-06 5.535711
v 0.21345377 3.8146973E-06 5.4300027
v 0.21345377 1.1243067 5.4300027
v -0.041728973 1.1243067 5.535711
v -0.14743662 3.8146973E-06 5.790893
v 0.21345377 1.3375068 5.372871
v -0.14743662 1.1243067 5.790893
v -0.041728973 3.8146973E-06 6.0460753
v -0.041728973 1.3903666 5.464417
v 0.21345377 1.493587 5.216802
v -0.041728973 1.1243067 6.0460753
v 0.21345377 3.8146973E-06 6.1517835
v -0.041728973 1.5851212 5.269651
v 0.21345377 1.5507064 5.0036025
v -0.14743662 1.5179577 5.6854196
v 0.21345377 1.1243067 6.1517835
v 0.46864796 3.8146973E-06 6.0460753
v -0.041728973 1.6455493 5.906422
v -0.14743662 1.8061237 5.3972535
v -0.041728973 1.6564145 5.0036025
v 0.46864796 1.1243067 6.0460753
v 0.57434464 3.8146973E-06 5.790893
v 0.21345377 1.6983972 5.997956
v -0.041728973 2.0271258 5.5248446
v 0.57434464 1.1243067 5.790893
v 0.46864796 3.8146973E-06 5.535711
v 0.46864796 1.6455493 5.906422
v 0.46864796 1.1243067 5.535711
v 0.21345377 3.8146973E-06 5.4300027
v 0.21345377 1.1243067 5.4300027
v 0.57434464 1.5179577 5.6854196
v 0.46864796 1.3903546 5.464417
v 0.21345377 1.3375068 5.372871
v 0.21345377 2.1186604 5.5776935
v -0.14743662 1.9115968 5.0036025
v 0.46864796 2.0271258 5.5248446
v 0.57434464 1.8061237 5.3972535
v 0.46864796 1.5851212 5.269651
v 0.21345377 1.493587 5.216802
v -0.041728973 2.1667914 5.0036025
v 0.21345377 2.2724872 5.0036025
v 0.46864796 2.1667914 5.0036025
v 0.57434464 1.9115968 5.0036025
v 0.46864796 1.6564145 5.0036025
v 0.21345377 1.5507064 5.0036025
v 0.21346569 1.5507064 -0.9392128
v 0.46864796 1.6564145 -0.9392128
v 0.57434464 1.9115968 -0.9392128
v 0.46864796 2.1667914 -0.9392128
v 0.46864796 1.6564145 -6.1505437
v 0.21345377 1.5507064 -6.1505437
v 0.57434464 1.9115968 -6.1505437
v 0.57434464 1.9115968 -0.9392128
v 0.46864796 2.1667914 -6.1505437
v 0.21345377 2.2724872 -6.1505437
v 0.21346569 2.2724872 -0.9392128
v -0.041728973 2.1667914 -6.1505437
v -0.041728973 2.1667914 -0.9392128
v -0.14743662 1.9115968 -6.1505437
v -0.14742517 1.9528527 -0.9392128
v -0.041728973 1.6564145 -6.1505437
v -0.041728973 1.6564145 -0.9392128
v 0.21345377 1.5507064 -6.1505437
v 0.21346569 1.5507064 -0.9392128
vt 0.9335463 0.48182657
vt 0.91239285 0.4734017
vt 0.9335463 0.4734017
vt 0.91239285 0.48182657
vt 0.9335463 0.48996252
vt 0.9057168 0.48182657
vt 0.9057168 0.48996252
vt 0.9057168 0.4734017
vt 0.89572555 0.4734017
vt 0.91239285 0.48996252
vt 0.9335463 0.48441184
vt 0.89572555 0.48182657
vt 0.88873017 0.4734017
vt 0.91239285 0.48441184
vt 0.9335463 0.47902843
vt 0.91239285 0.47902843
vt 0.9335463 0.47346252
vt 0.91239285 0.47346252
vt 0.9057168 0.48441184
vt 0.9057168 0.47902843
vt 0.9057168 0.47346252
vt 0.89572555 0.47346252
vt 0.89572555 0.47902843
vt 0.88873017 0.47346252
vt 0.89572555 0.48441184
vt 0.88873017 0.47902843
vt 0.76565695 0.47346252
vt 0.89572555 0.48996252
vt 0.88873017 0.48441184
vt 0.76565695 0.47902843
vt 0.88873017 0.48182657
vt 0.88873017 0.47902843
vt 0.88873017 0.47346252
vt 0.88873017 0.48441184
vt 0.76565695 0.48441184
vt 0.88873017 0.48996252
vt 0.88873017 0.48996252
vt 0.76565695 0.48996252
vt 0.88873017 0.48182657
vt 0.76565695 0.48182657
vt 0.76565695 0.4734017
vt 0.88873017 0.4734017
vt 0.9730094 0.45598927
vt 0.96570987 0.45218742
vt 0.95205367 0.4857805
vt 0.9591859 0.49003857
vt 0.98036975 0.45963904
vt 0.94855595 0.4911791
vt 0.96669835 0.49350584
vt 0.9878366 0.4633344
vt 0.9540914 0.49788556
vt 0.9436592 0.49473763
vt 0.974226 0.49698833
vt 0.9952426 0.4671667
vt 0.9467615 0.50320816
vt 0.93784994 0.4960911
vt 0.9597942 0.504516
vt 0.9814343 0.50120074
vt 0.9878366 0.4633344
vt 0.9654361 0.51108557
vt 0.94972694 0.5118003
vt 0.9383214 0.50515467
vt 0.974226 0.49698833
vt 0.98036975 0.45963904
vt 0.9709412 0.51767033
vt 0.95269233 0.5203164
vt 0.96669835 0.49350584
vt 0.9730094 0.45598927
vt 0.9654361 0.51108557
vt 0.9591859 0.49003857
vt 0.96570987 0.45218742
vt 0.95205367 0.4857805
vt 0.9597942 0.504516
vt 0.9540914 0.49788556
vt 0.94855595 0.4911791
vt 0.95570344 0.5287261
vt 0.93798685 0.5142791
vt 0.95269233 0.5203164
vt 0.94974214 0.5118003
vt 0.9467615 0.50320816
vt 0.9436592 0.49473763
vt 0.9376675 0.5234796
vt 0.93806285 0.5326344
vt 0.9376675 0.5234796
vt 0.93798685 0.5142791
vt 0.9383214 0.50515467
vt 0.93784994 0.4960911
vt 0.7650486 0.49590862
vt 0.7650486 0.5050634
vt 0.7650486 0.5148874
vt 0.7650486 0.5234644
vt 0.93784994 0.5052307
vt 0.93784994 0.4960911
vt 0.93784994 0.5138989
vt 0.7650486 0.51371646
vt 0.93784994 0.5237077
vt 0.93784994 0.53287774
vt 0.7650486 0.53269523
vt 0.93784994 0.52358603
vt 0.7650486 0.5234644
vt 0.93784994 0.5150699
vt 0.7650486 0.5148874
vt 0.93784994 0.5052611
vt 0.7650486 0.5050634
vt 0.93784994 0.4960911
vt 0.7650486 0.49590862
vn 0.9999995 0.0009775162 -0
vn 0.32551306 -0.083088934 -0.94187975
vn 0.30987275 0.0009775162 -0.95077753
vn 0.9980445 0.018572807 0.059684627
vn 0.3079177 0.0009775162 0.9514125
vn 0.9882693 0.100684166 0.11483211
vn 0.22580636 0.5405667 0.8104315
vn 0.30596268 -0.5229714 -0.7955424
vn 0.34115332 -0.7595304 -0.55383027
vn 0.2942325 0.0967741 0.95082176
vn -0.81036127 0.0009775162 0.58592975
vn 0.98240423 0.1378299 0.12603518
vn 0.31182784 -0.9491687 -0.042920865
vn -0.7869009 0.07135868 0.6129396
vn -0.80840623 0.0009775162 -0.5886242
vn -0.8318666 -0.042033195 -0.55338156
vn 0.30987275 0.0009775162 -0.95077753
vn 0.32551306 -0.083088934 -0.94187975
vn -0.6852392 0.4154446 0.5982082
vn -0.83382165 -0.29814255 -0.46459925
vn 0.30596268 -0.5229714 -0.7955424
vn 0.34115332 -0.7595304 -0.55383027
vn -0.8670572 -0.40957946 -0.2836485
vn 0.31182784 -0.9491687 -0.042920865
vn -0.69501436 0.5796673 0.42537138
vn -0.81214565 -0.5834548 -0
vn 0.30977094 -0.9508112 -0
vn 0.24144661 0.792766 0.5596657
vn -0.80640507 0.59136367 -0
vn -0.80840623 -0.58748746 -0.036576714
vn 0.99997663 0.0068424568 -0
vn -0.80840623 -0.58748746 -0.036576714
vn 0.30977094 -0.9508112 -0
vn -0.80962205 0.58695155 -0
vn -0.80840623 0.58748746 -0.036576714
vn 0.3079177 0.9511237 0.023459107
vn 0.30596268 0.9511237 0.04183932
vn 0.30977094 0.9508112 -0
vn 0.9999995 0.0009775162 -0
vn 0.9999995 -0.0009775162 -0
vn 0.30977094 -0.9508112 -0
vn 0.30977094 -0.9508112 -0
vn -0.70674455 0.0009775162 -0.70746815
vn -0.0009775162 0.0009775162 -0.99999905
vn 0.004887581 -0.047898293 -0.9988403
vn -0.7145647 -0.034213066 -0.69873226
vn -0.9999995 0.0009775162 -0
vn -0.0009775162 -0.499511 -0.866307
vn -0.99997663 0.0068424568 -0
vn -0.70674455 0.0009775162 0.70746815
vn -0.76148546 -0.31182784 -0.5682458
vn -0.0009775162 -0.86510223 -0.5015946
vn -0.68914926 0.059628487 0.7221619
vn -0.0009775162 0.0009775162 0.99999905
vn -0.76148546 -0.5542519 -0.3360725
vn -0.0009775162 -0.9999995 -0
vn -0.9941344 0.047898293 0.09696654
vn 0.004887581 0.08504391 0.9963652
vn 0.70674455 0.0009775162 0.70746815
vn -0.6559137 0.36852372 0.6587621
vn -0.9941344 0.08699894 0.06424905
vn -0.7119731 -0.7022067 -0
vn 0.6911043 0.06353855 0.71995676
vn 0.9999995 0.0009775162 -0
vn -0.0009775162 0.499511 0.866307
vn -0.6559137 0.6500486 0.38368475
vn 0.9999614 0.00879731 -0
vn 0.70674455 0.0009775162 -0.70746815
vn 0.6559137 0.38611913 0.6486056
vn 0.7223848 -0.03812313 -0.6904396
vn -0.0009775162 0.0009775162 -0.99999905
vn 0.004887581 -0.047898293 -0.9988403
vn 0.9941344 0.05376339 0.09384164
vn 0.76148546 -0.33528823 -0.5547267
vn -0.0009775162 -0.499511 -0.866307
vn -0.0009775162 0.8651022 0.5015947
vn -0.9999881 0.004887525 -0
vn 0.6559137 0.65786874 0.37011606
vn 0.9941344 0.08895397 0.061513793
vn 0.76148546 -0.56793714 -0.3123897
vn -0.0009775162 -0.86510223 -0.5015946
vn -0.7028345 0.7106546 0.031522516
vn -0.0009775162 0.9999995 -0
vn 0.7028345 0.7106546 0.031522516
vn 0.9999881 0.004887525 -0
vn 0.7086996 -0.7047895 -0.031884898
vn -0.0009775162 -0.9999995 -0
vn -0.0009775162 -0.9999995 -0
vn 0.70674455 -0.70674455 -0.03200431
vn 0.9999995 0.0009775162 -0
vn 0.70674455 0.70674455 -0.03200431
vn 0.70674455 -0.70674455 -0.03200431
vn -0.0009775162 -0.9999995 -0
vn 0.9999995 0.0009775162 -0
vn 0.9999995 0.0009775162 -0
vn 0.70674455 0.70674455 -0.03200431
vn -0.0009775162 0.9999995 -0
vn -0.0009775162 0.9999995 -0
vn -0.70674455 0.70674455 -0.03200431
vn -0.66373384 0.74780023 -0.015882282
vn -0.9999995 -0.0009775162 -0
vn -0.9999995 0.0009775162 -0
vn -0.7086996 -0.7047895 0.031884898
vn -0.74389017 -0.6676439 -0.029648766
vn -0.0009775162 -0.9999995 -0
vn -0.0009775162 -0.9999995 -0
g febg_factory_001_pipe_03_0
f 3/3/3 2/2/2 1/1/1
f 2/2/2 4/4/4 1/1/1
f 1/1/1 4/4/4 5/5/5
f 4/4/4 2/2/2 6/6/6
f 4/4/4 6/6/6 7/7/7
f 2/2/2 8/8/8 6/6/6
f 8/8/8 9/9/9 6/6/6
f 4/4/4 10/10/10 5/5/5
f 10/10/10 4/4/4 7/7/7
f 5/5/5 10/10/10 11/11/11
f 9/9/9 12/12/12 6/6/6
f 6/6/6 12/12/12 7/7/7
f 9/9/9 13/13/13 12/12/12
f 10/10/10 14/14/14 11/11/11
f 10/10/10 7/7/7 14/14/14
f 11/11/11 14/14/14 15/15/15
f 14/14/14 16/16/16 15/15/15
f 15/15/15 16/16/16 17/17/17
f 16/16/16 18/18/18 17/17/17
f 14/14/14 19/19/19 16/16/16
f 7/7/7 19/19/19 14/14/14
f 16/16/16 20/20/20 18/18/18
f 19/19/19 20/20/20 16/16/16
f 20/20/20 21/21/21 18/18/18
f 22/22/22 21/21/21 20/20/20
f 23/23/23 22/22/22 20/20/20
f 23/23/23 20/20/20 19/19/19
f 24/24/24 22/22/22 23/23/23
f 25/25/25 19/19/19 7/7/7
f 25/25/25 23/23/23 19/19/19
f 26/26/26 24/24/24 23/23/23
f 26/26/26 23/23/23 25/25/25
f 24/24/24 26/26/26 27/27/27
f 28/28/28 25/25/25 7/7/7
f 12/12/12 28/28/28 7/7/7
f 29/29/29 26/26/26 25/25/25
f 29/29/29 25/25/25 28/28/28
f 26/26/26 30/30/30 27/27/27
f 26/26/26 29/29/29 30/30/30
f 12/12/12 31/31/31 28/28/28
f 13/13/13 31/31/31 12/12/12
f 30/30/30 32/32/32 27/27/27
f 32/32/32 33/33/33 27/27/27
f 34/34/34 32/32/32 30/30/30
f 35/35/35 34/34/34 30/30/30
f 29/29/29 35/35/35 30/30/30
f 36/36/36 34/34/34 35/35/35
f 37/37/37 29/29/29 28/28/28
f 29/29/29 37/37/37 35/35/35
f 31/31/31 37/37/37 28/28/28
f 38/38/38 36/36/36 35/35/35
f 37/37/37 38/38/38 35/35/35
f 37/37/37 31/31/31 38/38/38
f 39/39/39 36/36/36 38/38/38
f 31/31/31 13/13/13 40/40/40
f 31/31/31 40/40/40 38/38/38
f 40/40/40 39/39/39 38/38/38
f 13/13/13 41/41/41 40/40/40
f 42/42/42 39/39/39 40/40/40
f 41/41/41 42/42/42 40/40/40
f 45/45/45 44/44/44 43/43/43
f 46/46/46 45/45/45 43/43/43
f 46/46/46 43/43/43 47/47/47
f 45/45/45 46/46/46 48/48/48
f 49/49/49 46/46/46 47/47/47
f 49/49/49 47/47/47 50/50/50
f 46/46/46 51/51/51 48/48/48
f 46/46/46 49/49/49 51/51/51
f 48/48/48 51/51/51 52/52/52
f 53/53/53 49/49/49 50/50/50
f 53/53/53 50/50/50 54/54/54
f 51/51/51 55/55/55 52/52/52
f 52/52/52 55/55/55 56/56/56
f 49/49/49 57/57/57 51/51/51
f 49/49/49 53/53/53 57/57/57
f 51/51/51 57/57/57 55/55/55
f 58/58/58 53/53/53 54/54/54
f 58/58/58 54/54/54 59/59/59
f 53/53/53 60/60/60 57/57/57
f 53/53/53 58/58/58 60/60/60
f 57/57/57 61/61/61 55/55/55
f 57/57/57 60/60/60 61/61/61
f 55/55/55 62/62/62 56/56/56
f 55/55/55 61/61/61 62/62/62
f 63/63/63 58/58/58 59/59/59
f 63/63/63 59/59/59 64/64/64
f 58/58/58 65/65/65 60/60/60
f 58/58/58 63/63/63 65/65/65
f 60/60/60 66/66/66 61/61/61
f 60/60/60 65/65/65 66/66/66
f 67/67/67 63/63/63 64/64/64
f 67/67/67 64/64/64 68/68/68
f 63/63/63 69/69/69 65/65/65
f 63/63/63 67/67/67 69/69/69
f 70/70/70 67/67/67 68/68/68
f 70/70/70 68/68/68 71/71/71
f 72/72/72 70/70/70 71/71/71
f 67/67/67 70/70/70 73/73/73
f 67/67/67 73/73/73 69/69/69
f 70/70/70 72/72/72 74/74/74
f 70/70/70 74/74/74 73/73/73
f 72/72/72 75/75/75 74/74/74
f 65/65/65 69/69/69 76/76/76
f 65/65/65 76/76/76 66/66/66
f 61/61/61 66/66/66 77/77/77
f 61/61/61 77/77/77 62/62/62
f 69/69/69 73/73/73 78/78/78
f 69/69/69 78/78/78 76/76/76
f 73/73/73 74/74/74 79/79/79
f 73/73/73 79/79/79 78/78/78
f 74/74/74 75/75/75 80/80/80
f 74/74/74 80/80/80 79/79/79
f 75/75/75 81/81/81 80/80/80
f 66/66/66 76/76/76 82/82/82
f 66/66/66 82/82/82 77/77/77
f 76/76/76 78/78/78 83/83/83
f 76/76/76 83/83/83 82/82/82
f 78/78/78 79/79/79 84/84/84
f 78/78/78 84/84/84 83/83/83
f 79/79/79 80/80/80 85/85/85
f 79/79/79 85/85/85 84/84/84
f 80/80/80 81/81/81 86/86/86
f 80/80/80 86/86/86 85/85/85
f 81/81/81 87/87/87 86/86/86
f 86/86/86 87/87/87 88/88/88
f 85/85/85 86/86/86 89/89/89
f 89/89/89 86/86/86 88/88/88
f 84/84/84 85/85/85 90/90/90
f 90/90/90 85/85/85 89/89/89
f 91/91/91 84/84/84 90/90/90
f 83/83/83 84/84/84 91/91/91
f 92/92/92 89/89/89 88/88/88
f 93/93/93 92/92/92 88/88/88
f 92/92/92 94/94/94 89/89/89
f 94/94/94 95/95/95 89/89/89
f 94/94/94 96/96/96 95/95/95
f 96/96/96 91/91/91 95/95/95
f 96/96/96 97/97/97 91/91/91
f 98/98/98 83/83/83 91/91/91
f 97/97/97 98/98/98 91/91/91
f 82/82/82 83/83/83 98/98/98
f 97/97/97 99/99/99 98/98/98
f 100/100/100 82/82/82 98/98/98
f 99/99/99 100/100/100 98/98/98
f 77/77/77 82/82/82 100/100/100
f 99/99/99 101/101/101 100/100/100
f 102/102/102 77/77/77 100/100/100
f 101/101/101 102/102/102 100/100/100
f 62/62/62 77/77/77 102/102/102
f 101/101/101 103/103/103 102/102/102
f 104/104/104 62/62/62 102/102/102
f 103/103/103 104/104/104 102/102/102
f 56/56/56 62/62/62 104/104/104
f 103/103/103 105/105/105 104/104/104
f 106/106/106 56/56/56 104/104/104
f 105/105/105 106/106/106 104/104/104
