g febg_shop_001_book_04
v 0.7434071 0.07800543 -0.5129471
v 0.7434071 0.13421148 -0.5129471
v 0.59645504 0.27578545 -0.5129456
v 0.36093497 0.12071353 -0.5129471
v 0.37586638 0.33351386 -0.5129456
v 0.17166674 0.12071353 -0.5129471
v 0.17166674 0.2952931 -0.5129471
v 0.0018547773 0.07800394 -0.5129471
v 0.04646057 0.22958338 -0.5129471
v 0.0018547773 0.12608558 -0.5129471
v -0.09033972 0.16798574 -0.5129456
v -0.2870767 0.10568565 -0.5129441
v -0.28707373 0.21869922 -0.5129441
v -0.4772539 0.10568565 -0.5129456
v -0.47725236 0.21869922 -0.5129471
v -0.739702 0.07800543 -0.5129471
v -0.64290416 0.15957648 -0.5129471
v -0.739702 0.09279364 -0.5129471
v 0.7434071 0.13420999 0.5139569
v 0.7434071 0.07800543 -0.5129471
v 0.7434071 0.07800394 0.5139569
v 0.7434071 0.13421148 -0.5129471
v 0.59645504 0.27578545 -0.5129456
v 0.59645504 0.27578247 0.5139599
v 0.37586638 0.33351386 -0.5129456
v 0.37586638 0.33351386 0.51396143
v 0.17166674 0.2952931 -0.5129471
v 0.17166674 0.29529154 0.51396143
v 0.04646057 0.22958338 -0.5129471
v 0.04646057 0.22958195 0.51396143
v 0.0018547773 0.12608558 -0.5129471
v 0.0018532872 0.12608409 0.5139599
v -0.09033972 0.16798574 -0.5129456
v -0.09033823 0.16798574 0.51395833
v -0.28707373 0.21869922 -0.5129441
v -0.28707373 0.21869922 0.5139599
v -0.47725236 0.21869922 -0.5129471
v -0.47725093 0.21869922 0.51396143
v -0.64290416 0.15957648 -0.5129471
v -0.6429026 0.15957648 0.51396143
v -0.739702 0.09279364 -0.5129471
v -0.739699 0.09279215 0.5139569
v -0.739702 0.07800394 0.51395833
v -0.739702 0.07800543 -0.5129471
v 0.7434071 0.07800394 0.5139569
v 0.59645504 0.27578247 0.5139599
v 0.7434071 0.13420999 0.5139569
v 0.36093798 0.12071204 0.5139599
v 0.37586638 0.33351386 0.51396143
v 0.17166674 0.29529154 0.51396143
v 0.17166674 0.12071204 0.51396143
v 0.04646057 0.22958195 0.51396143
v 0.0018532872 0.07800394 0.5139599
v 0.0018532872 0.12608409 0.5139599
v -0.09033823 0.16798574 0.51395833
v -0.28707373 0.21869922 0.5139599
v -0.28707516 0.10568416 0.51396143
v -0.47725093 0.21869922 0.51396143
v -0.47725236 0.10568416 0.5139599
v -0.6429026 0.15957648 0.51396143
v -0.739702 0.07800394 0.51395833
v -0.739699 0.09279215 0.5139569
v 0.7902633 0.07429749 -0.54604304
v 0.7902633 0.008535087 -0.54604304
v 0.7902633 0.008535087 0.54604447
v 0.7902633 0.07429749 0.54604447
v 0.06825781 0.09192693 -0.54604304
v 0.073005795 0.028371274 -0.54604304
v 0.7902633 0.008535087 -0.54604304
v 0.042897344 0.06111753 -0.54604304
v 0.031461358 0.004105091 -0.54604304
v 0.06825781 0.09192693 0.54604447
v 0.073005795 0.028371274 0.54604447
v 0.7902633 0.008535087 0.54604447
v 0.042897344 0.06111753 0.54604447
v -7.1525574E-07 0.057756245 0.54604447
v 0.031459868 0.004103601 0.54604447
v -7.1525574E-07 -8.34465E-07 0.54604447
v -0.03146124 0.004103601 0.54604447
v -7.1525574E-07 0.057756245 -0.54604304
v -7.1525574E-07 7.1525574E-07 -0.54604304
v -0.03146124 0.004105091 -0.54604304
v -0.042898715 0.06111753 -0.54604304
v -0.073005676 0.028371274 -0.54604304
v -0.042898715 0.06111753 0.54604447
v -0.073005676 0.028371274 0.54604447
v -0.06825769 0.09192693 0.54604447
v -0.06825769 0.09192693 -0.54604304
v -0.7902632 0.07429749 0.54604447
v -0.7902632 0.008535087 0.54604447
v -0.7902632 0.07429749 -0.54604304
v -0.7902632 0.008535087 -0.54604304
v -0.7902632 0.008535087 0.54604447
v -0.7902632 0.008535087 -0.54604304
vt 0.88332415 0.4994085
vt 0.88332415 0.5034245
vt 0.89384353 0.51356936
vt 0.91071665 0.5024655
vt 0.9096527 0.5177052
vt 0.92427814 0.5024655
vt 0.92427814 0.51497793
vt 0.93644595 0.4994085
vt 0.9332541 0.51025766
vt 0.93644595 0.50284004
vt 0.9430543 0.5058521
vt 0.9571551 0.5013865
vt 0.9571551 0.50947845
vt 0.97077656 0.5013865
vt 0.97077656 0.50947845
vt 0.98958266 0.4994085
vt 0.9826447 0.50525266
vt 0.98958266 0.50045747
vt 0.8729545 0.59466815
vt 0.86841404 0.52112174
vt 0.86841404 0.59466815
vt 0.8729545 0.52112174
vt 0.8875649 0.52112174
vt 0.8875649 0.59466815
vt 0.9038985 0.52112174
vt 0.9038985 0.59466815
vt 0.91877854 0.52112174
vt 0.91877854 0.59466815
vt 0.92890847 0.52112174
vt 0.92890847 0.59466815
vt 0.93697035 0.52112174
vt 0.93697035 0.59466815
vt 0.94422317 0.52112174
vt 0.94422317 0.59466815
vt 0.9587735 0.52112174
vt 0.9587735 0.59466815
vt 0.97239494 0.52112174
vt 0.97239494 0.59466815
vt 0.9849973 0.52112174
vt 0.9849973 0.59466815
vt 0.9934188 0.52112174
vt 0.9934188 0.59466815
vt 0.9960263 0.59466815
vt 0.9960263 0.52112174
vt 0.88332415 0.4994085
vt 0.89384353 0.51356936
vt 0.88332415 0.5034245
vt 0.91071665 0.5024655
vt 0.9096527 0.5177052
vt 0.92427814 0.51497793
vt 0.92427814 0.5024655
vt 0.9332541 0.51025766
vt 0.93644595 0.4994085
vt 0.93644595 0.50284004
vt 0.9430543 0.5058521
vt 0.9571551 0.50947845
vt 0.9571551 0.5013865
vt 0.97077656 0.50947845
vt 0.97077656 0.5013865
vt 0.9826447 0.50525266
vt 0.98958266 0.4994085
vt 0.98958266 0.50045747
vt 0.9396976 0.40443364
vt 0.93196535 0.40443364
vt 0.93196535 0.48078218
vt 0.9396976 0.48078218
vt 0.989238 0.40443364
vt 0.989238 0.39670137
vt 0.9396976 0.39670137
vt 0.9923849 0.40443364
vt 0.9923849 0.39670137
vt 0.989238 0.48078218
vt 0.989238 0.48851442
vt 0.9396976 0.48851442
vt 0.9923849 0.48078218
vt 0.995262 0.48078218
vt 0.9923849 0.48851442
vt 0.995262 0.48851442
vt 0.9923849 0.48851442
vt 0.995262 0.40443364
vt 0.995262 0.39670137
vt 0.9923849 0.39670137
vt 0.9923849 0.40443364
vt 0.989238 0.39670137
vt 0.9923849 0.48078218
vt 0.989238 0.48851442
vt 0.989238 0.48078218
vt 0.989238 0.40443364
vt 0.9396976 0.48078218
vt 0.9396976 0.48851442
vt 0.9396976 0.40443364
vt 0.9396976 0.39670137
vt 0.93196535 0.48078218
vt 0.93196535 0.40443364
vn 0.73256516 0.00069087744 -0.68069655
vn 0.7151757 0.30355752 -0.62958443
vn 0.37028453 0.6600416 -0.65363175
vn -0.00069087744 0.00069087744 -0.9999995
vn 0.026842475 0.7498872 -0.66102093
vn -0.00069087744 0.00069087744 -0.9999995
vn -0.24124521 0.69626963 -0.6760247
vn -0.00069087744 0.00069087744 -0.9999995
vn -0.5643995 0.522375 -0.63920075
vn -0.15139961 0.39340305 -0.9068143
vn 0.24131262 0.68467665 -0.68773985
vn -0.00069087744 0.00069087744 -0.9999995
vn 0.092052996 0.72815037 -0.6792078
vn -0.00069087744 0.00069087744 -0.9999995
vn -0.12676454 0.7310486 -0.67044663
vn -0.7310486 0.00069087744 -0.68232507
vn -0.33398902 0.65279603 -0.67993283
vn -0.69771886 0.36586976 -0.61589587
vn 0.7151757 0.30355752 0.62958443
vn 0.73256516 0.00069087744 -0.68069655
vn 0.73256516 0.00069087744 0.68069655
vn 0.7151757 0.30355752 -0.62958443
vn 0.37028453 0.6600416 -0.65363175
vn 0.37028453 0.6600416 0.65363175
vn 0.026842475 0.7498872 -0.66102093
vn 0.026842475 0.7498872 0.66102093
vn -0.24124521 0.69626963 -0.6760247
vn -0.24124521 0.69626963 0.6760247
vn -0.5643995 0.522375 -0.63920075
vn -0.5643995 0.522375 0.63920075
vn -0.15139961 0.39340305 -0.9068143
vn -0.15139961 0.39340305 0.9068143
vn 0.24131262 0.68467665 -0.68773985
vn 0.24131262 0.68467665 0.68773985
vn 0.092052996 0.72815037 -0.6792078
vn 0.092052996 0.72815037 0.6792078
vn -0.12676454 0.7310486 -0.67044663
vn -0.12676454 0.7310486 0.67044663
vn -0.33398902 0.65279603 -0.67993283
vn -0.33543813 0.65279603 0.6792191
vn -0.69771886 0.36586976 -0.61589587
vn -0.69771886 0.36586976 0.61589587
vn -0.7310486 0.00069087744 0.68232507
vn -0.7310486 0.00069087744 -0.68232507
vn 0.73256516 0.00069087744 0.68069655
vn 0.37028453 0.6600416 0.65363175
vn 0.7151757 0.30355752 0.62958443
vn -0.00069087744 0.00069087744 0.9999995
vn 0.026842475 0.7498872 0.66102093
vn -0.24124521 0.69626963 0.6760247
vn -0.00069087744 0.00069087744 0.9999995
vn -0.5643995 0.522375 0.63920075
vn -0.00069087744 0.00069087744 0.9999995
vn -0.15139961 0.39340305 0.9068143
vn 0.24131262 0.68467665 0.68773985
vn 0.092052996 0.72815037 0.6792078
vn -0.00069087744 0.00069087744 0.9999995
vn -0.12676454 0.7310486 0.67044663
vn -0.00069087744 0.00069087744 0.9999995
vn -0.33543813 0.65279603 0.6792191
vn -0.7310486 0.00069087744 0.68232507
vn -0.69771886 0.36586976 0.61589587
vn 0.58330554 0.57019603 -0.5784731
vn 0.7137266 0.00069087744 -0.7004241
vn 0.7137266 0.00069087744 0.7004241
vn 0.58330554 0.57019603 0.5784731
vn -0.32674348 0.71365917 -0.61962026
vn -0.00069087744 0.00069087744 -0.9999995
vn 0.7137266 0.00069087744 -0.7004241
vn -0.2731259 0.5238241 -0.8068522
vn -0.00069087744 0.00069087744 -0.9999995
vn -0.32674348 0.71365917 0.61962026
vn -0.00069087744 0.00069087744 0.9999995
vn 0.7137266 0.00069087744 0.7004241
vn -0.2731259 0.5238241 0.8068522
vn -0.00069087744 0.6890241 0.7247381
vn -0.00069087744 0.00069087744 0.9999995
vn -0.00069087744 0.00069087744 0.9999995
vn -0.00069087744 0.00069087744 0.9999995
vn -0.00069087744 0.6890241 -0.7247381
vn -0.00069087744 0.00069087744 -0.9999995
vn -0.00069087744 0.00069087744 -0.9999995
vn 0.2731933 0.5238241 -0.80682945
vn -0.00069087744 0.00069087744 -0.9999995
vn 0.2731933 0.5238241 0.80682945
vn -0.00069087744 0.00069087744 0.9999995
vn 0.32536173 0.71365917 0.62034696
vn 0.32536173 0.71365917 -0.62034696
vn -0.5832381 0.57019603 0.5785411
vn -0.71365917 0.00069087744 0.70049274
vn -0.5832381 0.57019603 -0.5785411
vn -0.71365917 0.00069087744 -0.70049274
vn -0.71365917 0.00069087744 0.70049274
vn -0.71365917 0.00069087744 -0.70049274
g febg_shop_001_book_04_0
f 3/3/3 2/2/2 1/1/1
f 1/1/1 4/4/4 3/3/3
f 4/4/4 5/5/5 3/3/3
f 4/4/4 6/6/6 5/5/5
f 6/6/6 7/7/7 5/5/5
f 6/6/6 8/8/8 7/7/7
f 8/8/8 9/9/9 7/7/7
f 10/10/10 9/9/9 8/8/8
f 10/10/10 8/8/8 11/11/11
f 11/11/11 8/8/8 12/12/12
f 13/13/13 11/11/11 12/12/12
f 12/12/12 14/14/14 13/13/13
f 14/14/14 15/15/15 13/13/13
f 14/14/14 16/16/16 15/15/15
f 16/16/16 17/17/17 15/15/15
f 18/18/18 17/17/17 16/16/16
f 21/21/21 20/20/20 19/19/19
f 20/20/20 22/22/22 19/19/19
f 22/22/22 23/23/23 19/19/19
f 23/23/23 24/24/24 19/19/19
f 23/23/23 25/25/25 24/24/24
f 25/25/25 26/26/26 24/24/24
f 25/25/25 27/27/27 26/26/26
f 27/27/27 28/28/28 26/26/26
f 27/27/27 29/29/29 28/28/28
f 29/29/29 30/30/30 28/28/28
f 29/29/29 31/31/31 30/30/30
f 31/31/31 32/32/32 30/30/30
f 32/32/32 31/31/31 33/33/33
f 34/34/34 32/32/32 33/33/33
f 34/34/34 33/33/33 35/35/35
f 36/36/36 34/34/34 35/35/35
f 35/35/35 37/37/37 36/36/36
f 37/37/37 38/38/38 36/36/36
f 37/37/37 39/39/39 38/38/38
f 39/39/39 40/40/40 38/38/38
f 39/39/39 41/41/41 40/40/40
f 41/41/41 42/42/42 40/40/40
f 42/42/42 41/41/41 43/43/43
f 41/41/41 44/44/44 43/43/43
f 47/47/47 46/46/46 45/45/45
f 45/45/45 46/46/46 48/48/48
f 46/46/46 49/49/49 48/48/48
f 49/49/49 50/50/50 48/48/48
f 50/50/50 51/51/51 48/48/48
f 50/50/50 52/52/52 51/51/51
f 52/52/52 53/53/53 51/51/51
f 54/54/54 53/53/53 52/52/52
f 54/54/54 55/55/55 53/53/53
f 53/53/53 55/55/55 56/56/56
f 57/57/57 53/53/53 56/56/56
f 56/56/56 58/58/58 57/57/57
f 58/58/58 59/59/59 57/57/57
f 58/58/58 60/60/60 59/59/59
f 60/60/60 61/61/61 59/59/59
f 62/62/62 61/61/61 60/60/60
f 65/65/65 64/64/64 63/63/63
f 66/66/66 65/65/65 63/63/63
f 63/63/63 67/67/67 66/66/66
f 68/68/68 67/67/67 63/63/63
f 69/69/69 68/68/68 63/63/63
f 67/67/67 68/68/68 70/70/70
f 68/68/68 71/71/71 70/70/70
f 67/67/67 72/72/72 66/66/66
f 67/67/67 70/70/70 72/72/72
f 72/72/72 73/73/73 66/66/66
f 73/73/73 74/74/74 66/66/66
f 73/73/73 72/72/72 75/75/75
f 70/70/70 75/75/75 72/72/72
f 75/75/75 70/70/70 76/76/76
f 77/77/77 73/73/73 75/75/75
f 77/77/77 75/75/75 76/76/76
f 78/78/78 77/77/77 76/76/76
f 78/78/78 76/76/76 79/79/79
f 70/70/70 71/71/71 80/80/80
f 70/70/70 80/80/80 76/76/76
f 71/71/71 81/81/81 80/80/80
f 81/81/81 82/82/82 80/80/80
f 82/82/82 83/83/83 80/80/80
f 76/76/76 80/80/80 83/83/83
f 82/82/82 84/84/84 83/83/83
f 76/76/76 85/85/85 79/79/79
f 85/85/85 76/76/76 83/83/83
f 79/79/79 85/85/85 86/86/86
f 87/87/87 85/85/85 83/83/83
f 85/85/85 87/87/87 86/86/86
f 84/84/84 88/88/88 83/83/83
f 88/88/88 87/87/87 83/83/83
f 86/86/86 87/87/87 89/89/89
f 89/89/89 87/87/87 88/88/88
f 90/90/90 86/86/86 89/89/89
f 91/91/91 88/88/88 84/84/84
f 91/91/91 89/89/89 88/88/88
f 92/92/92 91/91/91 84/84/84
f 93/93/93 89/89/89 91/91/91
f 94/94/94 93/93/93 91/91/91
