g febg_lostcity_001_poil_01
v -0.13272285 -0.010150593 4.012744
v -0.13272184 -0.010150588 -4.436963E-10
v -0.09384835 0.0836781 3.6576862E-09
v -0.09384942 0.08367811 4.012744
v -0.19360644 -0.010150596 4.0855145
v 1.3113022E-06 0.1225507 5.3568616E-09
v -0.1369006 0.12672952 4.0855145
v -0.19360697 -0.010150584 4.6137285
v 3.5762787E-07 0.12255072 4.012744
v 0.09385109 0.0836781 3.6576862E-09
v -0.13690108 0.1267295 4.6137285
v -0.13272327 -0.010150596 4.665106
v 5.9604645E-07 0.18343405 4.0855145
v 0.093850136 0.083678104 4.012744
v 0.13272452 -0.010150588 -4.436963E-10
v 0.13272357 -0.010150593 4.012744
v 0.13690162 0.12672952 4.0855145
v 0.19360757 -0.010150596 4.0855145
v -0.09384978 0.0836781 4.665106
v -0.13272327 -0.010150588 4.8980865
v -0.09384978 0.083678104 4.8980865
v -1.9073486E-06 0.18343405 4.6137285
v 0.13689923 0.12672952 4.6137285
v 0.19360507 -0.010150584 4.6137276
v -1.4305115E-06 0.1225507 4.665106
v -1.4305115E-06 0.12255072 4.8980865
v 0.09384835 0.083678104 4.665106
v 0.13272178 -0.010150596 4.665105
v 0.09384823 0.0836781 4.8980865
v 0.13272178 -0.010150588 4.8980856
v 0.09384823 0.0836781 4.8980865
v 0.13272178 -0.010150588 4.8980856
v -0.13272327 -0.010150588 4.8980865
v -0.09384978 0.083678104 4.8980865
v -1.4305115E-06 0.12255072 4.8980865
v -0.13272285 -0.010150593 4.012744
v -0.09384835 -0.1039793 -4.5450794E-09
v -0.13272184 -0.010150588 -4.436963E-10
v -0.09384942 -0.1039793 4.012744
v -0.19360644 -0.010150596 4.0855145
v 1.3113022E-06 -0.1428519 -6.2442553E-09
v -0.1369006 -0.1470307 4.0855145
v -0.19360697 -0.010150584 4.6137285
v 3.5762787E-07 -0.1428519 4.012744
v 0.09385109 -0.10397929 -4.545079E-09
v -0.13690108 -0.14703071 4.6137285
v -0.13272327 -0.010150596 4.665106
v 5.9604645E-07 -0.20373525 4.0855145
v 0.093850136 -0.1039793 4.012744
v 0.13272452 -0.010150588 -4.436963E-10
v 0.13272357 -0.010150593 4.012744
v 0.13690162 -0.1470307 4.0855145
v 0.19360757 -0.010150596 4.0855145
v -0.09384978 -0.1039793 4.665106
v -0.13272327 -0.010150588 4.8980865
v -0.09384978 -0.103979304 4.8980865
v -1.9073486E-06 -0.20373526 4.6137285
v 0.13689923 -0.14703071 4.6137285
v 0.19360507 -0.010150584 4.6137276
v -1.4305115E-06 -0.1428519 4.665106
v 0.09384835 -0.1039793 4.665106
v 0.13272178 -0.010150596 4.665105
v 0.09384823 -0.103979304 4.8980865
v 0.13272178 -0.010150588 4.8980856
v -1.4305115E-06 -0.1428519 4.8980865
v 0.09384823 -0.103979304 4.8980865
v -0.13272327 -0.010150588 4.8980865
v 0.13272178 -0.010150588 4.8980856
v -0.042869925 -0.061584804 5.044017
v 0.04205835 -0.061584804 5.044017
v 0.04205835 -0.061584756 4.8835816
v -0.042869925 -0.061584756 4.8835816
v -0.042869925 -0.57686883 5.9933043
v 0.04205835 -0.57686883 5.9933043
v 0.04205835 -0.63687104 5.9396176
v -0.042869925 -0.63687104 5.9396176
v 0.04205835 -1.0803342E-07 5.097704
v 0.04205835 -0.57686883 5.9933043
v -0.042869925 -0.57686883 5.9933043
v -0.042869925 -1.0803342E-07 5.097704
v -0.042869925 -0.061584804 5.044017
v -0.042869925 -0.57686883 5.9933043
v -0.042869925 -0.63687104 5.9396176
v -0.042869925 -1.0803342E-07 5.097704
v -0.042869925 -8.195639E-08 4.8835816
v -0.042869925 -0.061584756 4.8835816
v 0.04205835 -0.061584804 5.044017
v -0.042869925 -0.061584804 5.044017
v -0.042869925 -0.63687104 5.9396176
v 0.04205835 -0.63687104 5.9396176
v 0.04205835 -1.0803342E-07 5.097704
v 0.04205835 -0.63687104 5.9396176
v 0.04205835 -0.57686883 5.9933043
v 0.04205835 -0.061584804 5.044017
v 0.04205835 -8.195639E-08 4.8835816
v 0.04205835 -0.061584756 4.8835816
v -0.042869925 0.061584603 5.044017
v -0.042869925 0.06158461 4.8835816
v 0.04205835 0.06158461 4.8835816
v 0.04205835 0.061584603 5.044017
v -0.042869925 0.57686824 5.9933043
v -0.042869925 0.6368705 5.9396176
v 0.04205835 0.6368705 5.9396176
v 0.04205835 0.57686824 5.9933043
v 0.04205835 -1.0803342E-07 5.097704
v -0.042869925 -1.0803342E-07 5.097704
v -0.042869925 0.57686824 5.9933043
v 0.04205835 0.57686824 5.9933043
v -0.042869925 0.061584603 5.044017
v -0.042869925 0.6368705 5.9396176
v -0.042869925 0.57686824 5.9933043
v -0.042869925 -1.0803342E-07 5.097704
v -0.042869925 -8.195639E-08 4.8835816
v -0.042869925 0.06158461 4.8835816
v 0.04205835 0.061584603 5.044017
v 0.04205835 0.6368705 5.9396176
v -0.042869925 0.6368705 5.9396176
v -0.042869925 0.061584603 5.044017
v 0.04205835 -1.0803342E-07 5.097704
v 0.04205835 0.57686824 5.9933043
v 0.04205835 0.6368705 5.9396176
v 0.04205835 0.061584603 5.044017
v 0.04205835 -8.195639E-08 4.8835816
v 0.04205835 0.06158461 4.8835816
vt 0.03507346 0.9255973
vt 0.03507346 0.6814184
vt 0.028705416 0.6814184
vt 0.028705416 0.9260577
vt 0.03877026 0.93109155
vt 0.022052584 0.6814184
vt 0.030226288 0.9316746
vt 0.038700998 0.9642235
vt 0.022052584 0.9260577
vt 0.015396772 0.6814184
vt 0.030214844 0.96355283
vt 0.03507346 0.9689342
vt 0.022237955 0.9316746
vt 0.015396772 0.9260577
vt 0.008988677 0.6814184
vt 0.008988677 0.9255973
vt 0.014283596 0.9316746
vt 0.0057794433 0.93109155
vt 0.028705416 0.96814966
vt 0.03507346 0.98269606
vt 0.028705416 0.98269606
vt 0.022240696 0.96355283
vt 0.014248548 0.96355283
vt 0.0057284217 0.9642235
vt 0.022052584 0.96814966
vt 0.022052584 0.98269606
vt 0.015396772 0.96814966
vt 0.008988677 0.9689342
vt 0.015396772 0.98269606
vt 0.008988677 0.98269606
vt 0.017215787 0.98639476
vt 0.016941486 0.9925808
vt 0.03215128 0.9870585
vt 0.028705416 0.98269606
vt 0.022052584 0.98269606
vt 0.03507346 0.9255973
vt 0.028705416 0.6814184
vt 0.03507346 0.6814184
vt 0.028705416 0.9260577
vt 0.03877026 0.93109155
vt 0.022052584 0.6814184
vt 0.030226288 0.9316746
vt 0.038700998 0.9642235
vt 0.022052584 0.9260577
vt 0.015396772 0.6814184
vt 0.030214844 0.96355283
vt 0.03507346 0.9689342
vt 0.022237955 0.9316746
vt 0.015396772 0.9260577
vt 0.008988677 0.6814184
vt 0.008988677 0.9255973
vt 0.014283596 0.9316746
vt 0.0057794433 0.93109155
vt 0.028705416 0.96814966
vt 0.03507346 0.98269606
vt 0.028705416 0.98269606
vt 0.022240696 0.96355283
vt 0.014248548 0.96355283
vt 0.0057284217 0.9642235
vt 0.022052584 0.96814966
vt 0.015396772 0.96814966
vt 0.008988677 0.9689342
vt 0.015396772 0.98269606
vt 0.008988677 0.98269606
vt 0.022052584 0.98269606
vt 0.017215787 0.98639476
vt 0.03215128 0.9870585
vt 0.016941486 0.9925808
vt 0.1221063 0.73598385
vt 0.1174656 0.73598385
vt 0.1194718 0.72878563
vt 0.12350422 0.7299202
vt 0.10865284 0.79453725
vt 0.113250114 0.79453725
vt 0.113250114 0.79889816
vt 0.10865284 0.79889816
vt 0.113250114 0.7369052
vt 0.113250114 0.79453725
vt 0.10865284 0.79453725
vt 0.10865284 0.7369052
vt 0.104211956 0.73598385
vt 0.10865284 0.79453725
vt 0.104302615 0.79376215
vt 0.10865284 0.7369052
vt 0.10472374 0.7282759
vt 0.10131069 0.7299202
vt 0.1174656 0.73598385
vt 0.1221063 0.73598385
vt 0.122095235 0.79376215
vt 0.117511906 0.79376215
vt 0.113250114 0.7369052
vt 0.117511906 0.79376215
vt 0.113250114 0.79453725
vt 0.1174656 0.73598385
vt 0.11573695 0.7282759
vt 0.1194718 0.72878563
vt 0.1221063 0.73598385
vt 0.12350422 0.7299202
vt 0.1194718 0.72878563
vt 0.1174656 0.73598385
vt 0.10865284 0.79453725
vt 0.10865284 0.79889816
vt 0.113250114 0.79889816
vt 0.113250114 0.79453725
vt 0.113250114 0.7369052
vt 0.10865284 0.7369052
vt 0.10865284 0.79453725
vt 0.113250114 0.79453725
vt 0.104211956 0.73598385
vt 0.104302615 0.79376215
vt 0.10865284 0.79453725
vt 0.10865284 0.7369052
vt 0.10472374 0.7282759
vt 0.10131069 0.7299202
vt 0.1174656 0.73598385
vt 0.117511906 0.79376215
vt 0.122095235 0.79376215
vt 0.1221063 0.73598385
vt 0.113250114 0.7369052
vt 0.113250114 0.79453725
vt 0.117511906 0.79376215
vt 0.1174656 0.73598385
vt 0.11573695 0.7282759
vt 0.1194718 0.72878563
vn -0.9284643 0 -0.3714218
vn -1 0 0
vn -0.70707595 0.7071375 0
vn -0.6565007 0.6565569 -0.37140256
vn -0.9483417 0 -0.31725067
vn -0 1 0
vn -0.6705593 0.6706002 -0.31724694
vn -0.92231035 0 0.38645
vn -0 0.92847055 -0.37140602
vn 0.7070761 0.70713747 0
vn -0.6521535 0.65219134 0.3864483
vn -0.88453126 0 0.4664809
vn -0 0.9483429 -0.31724724
vn 0.65650016 0.65655684 -0.37140355
vn 1 0 0
vn 0.9284637 0 -0.37142318
vn 0.6705595 0.6706004 -0.3172458
vn 0.94834214 0 -0.3172492
vn -0.6254417 0.62549263 0.46645662
vn -0.77639186 0 0.6302506
vn -0.5489593 0.5490027 0.6302696
vn -0 0.9223108 0.38644883
vn 0.6521522 0.6521917 0.38645008
vn 0.92231065 0 0.38644928
vn -0 0.8845415 0.4664615
vn -0 0.776381 0.63026386
vn 0.6254422 0.6254931 0.46645522
vn 0.88453156 0 0.4664805
vn 0.5489581 0.5490037 0.6302697
vn 0.7763947 0 0.63024694
vn 0.5489581 0.5490037 0.6302697
vn 0.7763947 0 0.63024694
vn -0.77639186 0 0.6302506
vn -0.5489593 0.5490027 0.6302696
vn -0 0.776381 0.63026386
vn -0.9284643 0 -0.3714218
vn -0.7070759 -0.7071376 0
vn -1 0 0
vn -0.65650076 -0.65655684 -0.3714026
vn -0.9483417 0 -0.31725067
vn -0 -1 0
vn -0.67055935 -0.6706001 -0.31724694
vn -0.92231035 0 0.38645
vn -0 -0.92847055 -0.37140602
vn 0.7070761 -0.7071374 0
vn -0.65215355 -0.65219134 0.3864483
vn -0.88453126 0 0.4664809
vn -0 -0.9483428 -0.3172472
vn 0.6565002 -0.6565569 -0.37140355
vn 1 0 0
vn 0.9284637 0 -0.37142318
vn 0.6705595 -0.6706004 -0.31724584
vn 0.94834214 0 -0.3172492
vn -0.6254416 -0.6254926 0.46645665
vn -0.77639186 0 0.6302506
vn -0.5489594 -0.54900277 0.6302695
vn -0 -0.9223108 0.38644877
vn 0.65215224 -0.6521915 0.38645005
vn 0.92231065 0 0.38644928
vn -0 -0.8845415 0.46646154
vn 0.62544227 -0.62549305 0.4664551
vn 0.88453156 0 0.4664805
vn 0.5489581 -0.5490037 0.63026965
vn 0.7763947 0 0.63024694
vn -0 -0.776381 0.6302638
vn 0.5489581 -0.5490037 0.63026965
vn -0.77639186 0 0.6302506
vn 0.7763947 0 0.63024694
vn -0 -1 0
vn -0 -1 0
vn -0 -1 0
vn -0 -1 0
vn -0 -0.66679525 0.74524087
vn -0 -0.66679525 0.74524087
vn -0 -0.66679525 0.74524087
vn -0 -0.66679525 0.74524087
vn -0 0.74524176 0.6667944
vn -0 0.74524117 0.666795
vn -0 0.74524117 0.666795
vn -0 0.74524176 0.6667944
vn -1 0 0
vn -1 0 0
vn -1 0 0
vn -1 0 0
vn -1 0 0
vn -1 0 0
vn -0 -0.74522126 -0.6668172
vn -0 -0.74522126 -0.6668172
vn -0 -0.74522054 -0.66681796
vn -0 -0.74522054 -0.66681796
vn 1 0 0
vn 1 0 0
vn 1 0 0
vn 1 0 0
vn 1 0 0
vn 1 0 0
vn -0 -1 0
vn -0 -1 0
vn -0 -1 0
vn -0 -1 0
vn -0 -0.66679525 0.74524087
vn -0 -0.66679525 0.74524087
vn -0 -0.66679525 0.74524087
vn -0 -0.66679525 0.74524087
vn -0 0.74524176 0.6667944
vn -0 0.74524176 0.6667944
vn -0 0.74524117 0.666795
vn -0 0.74524117 0.666795
vn -1 0 0
vn -1 0 0
vn -1 0 0
vn -1 0 0
vn -1 0 0
vn -1 0 0
vn -0 -0.74522114 -0.6668174
vn -0 -0.74522054 -0.66681796
vn -0 -0.74522054 -0.66681796
vn -0 -0.74522114 -0.6668174
vn 1 0 0
vn 1 0 0
vn 1 0 0
vn 1 0 0
vn 1 0 0
vn 1 0 0
g febg_lostcity_001_poil_01_0
f 3/3/3 2/2/2 1/1/1
f 4/4/4 3/3/3 1/1/1
f 4/4/4 1/1/1 5/5/5
f 6/6/6 3/3/3 4/4/4
f 7/7/7 4/4/4 5/5/5
f 5/5/5 8/8/8 7/7/7
f 9/9/9 6/6/6 4/4/4
f 9/9/9 4/4/4 7/7/7
f 10/10/10 6/6/6 9/9/9
f 8/8/8 11/11/11 7/7/7
f 8/8/8 12/12/12 11/11/11
f 13/13/13 9/9/9 7/7/7
f 7/7/7 11/11/11 13/13/13
f 14/14/14 10/10/10 9/9/9
f 14/14/14 9/9/9 13/13/13
f 15/15/15 10/10/10 14/14/14
f 16/16/16 15/15/15 14/14/14
f 16/16/16 14/14/14 17/17/17
f 17/17/17 14/14/14 13/13/13
f 18/18/18 16/16/16 17/17/17
f 12/12/12 19/19/19 11/11/11
f 12/12/12 20/20/20 19/19/19
f 20/20/20 21/21/21 19/19/19
f 11/11/11 22/22/22 13/13/13
f 13/13/13 22/22/22 17/17/17
f 11/11/11 19/19/19 22/22/22
f 17/17/17 23/23/23 18/18/18
f 22/22/22 23/23/23 17/17/17
f 23/23/23 24/24/24 18/18/18
f 19/19/19 21/21/21 25/25/25
f 19/19/19 25/25/25 22/22/22
f 22/22/22 25/25/25 23/23/23
f 21/21/21 26/26/26 25/25/25
f 23/23/23 27/27/27 24/24/24
f 25/25/25 27/27/27 23/23/23
f 25/25/25 26/26/26 27/27/27
f 27/27/27 28/28/28 24/24/24
f 26/26/26 29/29/29 27/27/27
f 27/27/27 29/29/29 28/28/28
f 29/29/29 30/30/30 28/28/28
f 33/33/33 32/32/32 31/31/31
f 34/34/34 33/33/33 31/31/31
f 35/35/35 34/34/34 31/31/31
f 38/38/38 37/37/37 36/36/36
f 37/37/37 39/39/39 36/36/36
f 36/36/36 39/39/39 40/40/40
f 37/37/37 41/41/41 39/39/39
f 39/39/39 42/42/42 40/40/40
f 43/43/43 40/40/40 42/42/42
f 41/41/41 44/44/44 39/39/39
f 39/39/39 44/44/44 42/42/42
f 41/41/41 45/45/45 44/44/44
f 46/46/46 43/43/43 42/42/42
f 47/47/47 43/43/43 46/46/46
f 44/44/44 48/48/48 42/42/42
f 46/46/46 42/42/42 48/48/48
f 45/45/45 49/49/49 44/44/44
f 44/44/44 49/49/49 48/48/48
f 45/45/45 50/50/50 49/49/49
f 50/50/50 51/51/51 49/49/49
f 49/49/49 51/51/51 52/52/52
f 49/49/49 52/52/52 48/48/48
f 51/51/51 53/53/53 52/52/52
f 54/54/54 47/47/47 46/46/46
f 55/55/55 47/47/47 54/54/54
f 56/56/56 55/55/55 54/54/54
f 57/57/57 46/46/46 48/48/48
f 57/57/57 48/48/48 52/52/52
f 54/54/54 46/46/46 57/57/57
f 58/58/58 52/52/52 53/53/53
f 58/58/58 57/57/57 52/52/52
f 59/59/59 58/58/58 53/53/53
f 60/60/60 54/54/54 57/57/57
f 60/60/60 57/57/57 58/58/58
f 56/56/56 54/54/54 60/60/60
f 61/61/61 58/58/58 59/59/59
f 61/61/61 60/60/60 58/58/58
f 62/62/62 61/61/61 59/59/59
f 63/63/63 61/61/61 62/62/62
f 64/64/64 63/63/63 62/62/62
f 63/63/63 65/65/65 61/61/61
f 65/65/65 60/60/60 61/61/61
f 65/65/65 56/56/56 60/60/60
f 56/56/56 65/65/65 66/66/66
f 56/56/56 66/66/66 67/67/67
f 66/66/66 68/68/68 67/67/67
f 71/71/71 70/70/70 69/69/69
f 72/72/72 71/71/71 69/69/69
f 75/75/75 74/74/74 73/73/73
f 76/76/76 75/75/75 73/73/73
f 79/79/79 78/78/78 77/77/77
f 80/80/80 79/79/79 77/77/77
f 83/83/83 82/82/82 81/81/81
f 82/82/82 84/84/84 81/81/81
f 81/81/81 84/84/84 85/85/85
f 86/86/86 81/81/81 85/85/85
f 89/89/89 88/88/88 87/87/87
f 90/90/90 89/89/89 87/87/87
f 93/93/93 92/92/92 91/91/91
f 92/92/92 94/94/94 91/91/91
f 95/95/95 91/91/91 94/94/94
f 96/96/96 95/95/95 94/94/94
f 99/99/99 98/98/98 97/97/97
f 100/100/100 99/99/99 97/97/97
f 103/103/103 102/102/102 101/101/101
f 104/104/104 103/103/103 101/101/101
f 107/107/107 106/106/106 105/105/105
f 108/108/108 107/107/107 105/105/105
f 111/111/111 110/110/110 109/109/109
f 112/112/112 111/111/111 109/109/109
f 112/112/112 109/109/109 113/113/113
f 109/109/109 114/114/114 113/113/113
f 117/117/117 116/116/116 115/115/115
f 118/118/118 117/117/117 115/115/115
f 121/121/121 120/120/120 119/119/119
f 122/122/122 121/121/121 119/119/119
f 122/122/122 119/119/119 123/123/123
f 124/124/124 122/122/122 123/123/123
