g febg_shop_001_plate_03
v -3.5762787E-07 0.002064079 0.37067035
v 0.26210368 0.048064917 0.2621037
v 0.26210368 0.002064079 0.2621037
v -3.5762787E-07 0.048064917 0.37067035
v -3.5762787E-07 -0.0021552742 3.5762787E-07
v -0.2621037 0.002064079 0.2621037
v 0.37067035 0.048064917 3.5762787E-07
v 0.37067035 0.002064079 3.5762787E-07
v -0.2621037 0.048064917 0.2621037
v -0.37067035 0.002064079 3.5762787E-07
v 0.26210368 0.048064917 -0.26210368
v 0.26210368 0.002064079 -0.26210368
v -0.37067035 0.048064917 3.5762787E-07
v -0.2621037 0.002064079 -0.26210368
v -3.5762787E-07 0.048064917 -0.37067035
v -3.5762787E-07 0.002064079 -0.37067035
v -0.2621037 0.048064917 -0.26210368
vt 0.04052753 0.0036155777
vt 0.08970369 0.009613397
vt 0.09213564 0.0036155777
vt 0.04298932 0.009568637
vt 0.066339046 0.065891445
vt 0.004048256 0.040124692
vt 0.12260217 0.042556643
vt 0.12859999 0.040079933
vt 0.010001316 0.042646162
vt 0.004063176 0.09168804
vt 0.12266185 0.0891218
vt 0.12862982 0.091643274
vt 0.010060996 0.08921132
vt 0.04052753 0.12815239
vt 0.08967385 0.122199334
vt 0.092150554 0.12815239
vt 0.04295948 0.12215457
vn -0.0009775162 0.0009775162 0.99999905
vn 0.5249264 0.67155397 0.52294123
vn 0.70674455 0.0009775162 0.70746815
vn -0.0009775162 0.67155397 0.740955
vn -0.0009775162 0.9999995 -0
vn -0.70674455 0.0009775162 0.70746815
vn 0.7413969 0.6710668 -0
vn 0.9999995 0.0009775162 -0
vn -0.5249264 0.67155397 0.52294123
vn -0.9999995 0.0009775162 -0
vn 0.5249264 0.67155397 -0.52294123
vn 0.70674455 0.0009775162 -0.70746815
vn -0.7413969 0.6710668 -0
vn -0.70674455 0.0009775162 -0.70746815
vn -0.0009775162 0.67155397 -0.740955
vn -0.0009775162 0.0009775162 -0.99999905
vn -0.5249264 0.67155397 -0.52294123
g febg_shop_001_plate_03_0
f 3/3/3 2/2/2 1/1/1
f 2/2/2 4/4/4 1/1/1
f 2/2/2 5/5/5 4/4/4
f 1/1/1 4/4/4 6/6/6
f 7/7/7 2/2/2 3/3/3
f 7/7/7 5/5/5 2/2/2
f 8/8/8 7/7/7 3/3/3
f 4/4/4 9/9/9 6/6/6
f 4/4/4 5/5/5 9/9/9
f 6/6/6 9/9/9 10/10/10
f 11/11/11 7/7/7 8/8/8
f 11/11/11 5/5/5 7/7/7
f 12/12/12 11/11/11 8/8/8
f 9/9/9 13/13/13 10/10/10
f 9/9/9 5/5/5 13/13/13
f 10/10/10 13/13/13 14/14/14
f 15/15/15 11/11/11 12/12/12
f 15/15/15 5/5/5 11/11/11
f 16/16/16 15/15/15 12/12/12
f 14/14/14 17/17/17 16/16/16
f 13/13/13 17/17/17 14/14/14
f 13/13/13 5/5/5 17/17/17
f 17/17/17 15/15/15 16/16/16
f 17/17/17 5/5/5 15/15/15
