g febg_hotspring_001_cliff_03
v -2.5078664 3.0250897 2.636488
v -2.6311703 3.6914082 1.7916837
v -3.306861 4.4849524 3.1210852
v -2.5932708 5.9345446 1.9756093
v -2.7380004 6.089423 2.863432
v -3.306861 4.4849524 3.1210852
v -2.586391 4.3793406 1.47086
v -3.306861 4.4849524 3.1210852
v -2.6311703 3.6914082 1.7916837
v -2.5078664 3.0250897 2.636488
v -2.3248048 1.8327961 2.6757393
v -2.4122806 1.9685745 0.061881304
v -2.4237027 4.261343 0.22212124
v -2.586391 4.3793406 1.47086
v -2.5089188 5.102126 1.1032524
v -3.0077405 4.9682417 -0.20025873
v -2.5932708 5.9345446 1.9756093
v -3.3634944 6.7566166 1.0759549
v -3.0401678 7.14935 0.025577068
v -3.0950284 7.104371 1.7664909
v -2.7442932 7.337076 3.1518283
v -2.7380004 6.089423 2.863432
v -3.0199714 7.337076 1.4980135
v -3.1036143 7.772108 0.99620056
v -3.152637 7.772108 0.018586397
v -1.7753868 4.3831406 3.7367082
v -3.306861 4.4849524 3.1210852
v -1.5186863 6.27285 3.095848
v -2.6083708 7.8372936 1.0735178
v -3.1036143 7.772108 0.99620056
v -1.4696636 7.9701586 2.007327
v -3.0199714 7.337076 1.4980135
v -2.6073956 7.3957586 1.3681068
v -1.6901264 7.5025454 2.1310964
v -2.7442932 7.337076 3.1518283
v -1.230556 7.538373 3.2980313
v -0.97227097 8.007749 3.3229804
v -1.6901264 7.5025454 2.1310964
v -0.21480942 8.108475 3.396143
v 0.74088 7.9866104 2.7668047
v 0.45269418 8.023779 3.3010669
v 0.38264465 8.108475 -1.3493907
v -1.4696636 7.9701586 2.007327
v -0.21480942 8.108475 3.396143
v -3.152637 7.772108 0.018586397
v -1.0237527 7.9688625 -1.5042796
v 0.38264465 8.108475 -1.3493907
v -1.0093398 7.250353 -1.5078359
v -3.0401678 7.14935 0.025577068
v 0.39705777 7.151123 -1.352958
v -1.930985 6.814745 -1.7745959
v -2.3562675 5.979003 -2.0101254
v -3.0077405 4.9682417 -0.20025873
v 0.5820694 6.884141 -2.5883915
v 0.46092558 4.627921 -2.426756
v -2.2087016 4.401498 -1.7682035
v -2.4237027 4.261343 0.22212124
v -2.4122806 1.9685745 0.061881304
v 3.192105 6.8147345 -0.645638
v 1.9838139 7.0886507 0.28886938
v 2.5591552 4.570013 -1.506573
v 2.45063 7.327648 3.014986
v 1.9693897 7.8902054 0.29243684
v 2.4362168 7.7720966 3.0185423
v 2.4362168 7.7720966 3.0185423
v 2.7912395 4.555113 0.19571018
v 3.5081978 4.1867514 0.19707274
v 2.5929449 4.3200483 2.5766973
v 3.0457466 1.8770437 0.18939543
v 2.041256 1.7876396 2.6537042
v 1.9460361 -0.0008895397 1.7702684
v 2.0834098 -0.0008895397 0.119102
v 2.9091926 3.8368692 -1.9208767
v 1.9957565 0.9713402 -1.199631
v 1.7561058 -0.0008895397 -0.42231703
v 1.248277 -0.0008895397 -1.2623134
v 2.600877 1.9936228 -1.923026
v 1.3004789 3.0296874 -2.6496449
v 1.2069206 1.9945312 -2.5007715
v 0.27763128 3.596055 -3.229484
v 0.03374839 2.3775163 -3.3961384
v -1.45401 3.409659 -3.02647
v 0.2509985 1.1761932 -2.5582025
v -0.96554613 1.2473731 -2.8209631
v -1.5416851 -0.00087857246 -1.2949064
v -2.4166126 2.0063744 -1.6473589
v -1.9876847 -0.00087857246 0.09050846
v -2.3248048 1.8327961 2.6757393
v -1.77244 -0.0008895397 1.7715869
v 0.12964416 4.256513 3.0205474
v -1.7753868 4.3831406 3.7367082
v -1.5186863 6.27285 3.095848
v 2.7912395 4.555113 0.19571018
v 2.5929449 4.3200483 2.5766973
v 3.192105 6.8147345 -0.645638
v 2.5929449 4.3200483 2.5766973
v 2.45063 7.327648 3.014986
v 2.4362168 7.7720966 3.0185423
v 1.0393026 7.949342 3.2175126
v 0.74088 7.9866104 2.7668047
v 0.82797956 7.357051 3.1945248
v 0.45269418 8.023779 3.3010669
v 0.74088 7.9866104 2.7668047
v 1.0393026 7.949342 3.2175126
vt 0.8989992 0.054088473
vt 0.88991094 0.062719345
vt 0.8987591 0.07503128
vt 0.8903341 0.09710562
vt 0.9001994 0.09940338
vt 0.8987591 0.07503128
vt 0.88643575 0.07275629
vt 0.8987591 0.07503128
vt 0.88991094 0.062719345
vt 0.8989992 0.054088473
vt 0.8991935 0.036975384
vt 0.87070584 0.03598082
vt 0.87266064 0.07021856
vt 0.88643575 0.07275629
vt 0.88154316 0.0837307
vt 0.8672192 0.08131862
vt 0.8903341 0.09710562
vt 0.8783994 0.10857153
vt 0.8623495 0.11796832
vt 0.88586426 0.118471384
vt 0.90170836 0.124964476
vt 0.9001994 0.09940338
vt 0.8789253 0.1257304
vt 0.8720205 0.12597048
vt 0.8585541 0.12642777
vt 0.9134259 0.07226479
vt 0.8987591 0.07503128
vt 0.91448903 0.10101533
vt 0.8527355 0.14112878
vt 0.8585999 0.13869393
vt 0.8408122 0.1558299
vt 0.85861135 0.14499271
vt 0.8533299 0.14468408
vt 0.84375024 0.15665293
vt 0.8586912 0.16575253
vt 0.84058356 0.17209709
vt 0.837497 0.17318308
vt 0.84375024 0.15665293
vt 0.82843184 0.17636108
vt 0.81313634 0.173949
vt 0.8184178 0.17636108
vt 0.8101642 0.12658787
vt 0.8408122 0.1558299
vt 0.82843184 0.17636108
vt 0.8585541 0.12642777
vt 0.8259282 0.12248385
vt 0.8101642 0.12658787
vt 0.82720876 0.114035845
vt 0.8623495 0.11796832
vt 0.8083465 0.11592209
vt 0.84253836 0.10563362
vt 0.8466425 0.092293024
vt 0.8672192 0.08131862
vt 0.81163883 0.102535725
vt 0.8176861 0.07199037
vt 0.8498776 0.07003558
vt 0.87266064 0.07021856
vt 0.87070584 0.03598082
vt 0.77936745 0.10337019
vt 0.7789328 0.12043762
vt 0.7875409 0.07161319
vt 0.742306 0.11827707
vt 0.7841573 0.13718498
vt 0.74604416 0.12730801
vt 0.78866124 0.17637253
vt 0.76739836 0.06897247
vt 0.7669182 0.061073184
vt 0.7397568 0.06451416
vt 0.7720511 0.026904106
vt 0.7416887 0.022137165
vt 0.75684714 0.0034464598
vt 0.78019047 0.0040409565
vt 0.7903302 0.059015512
vt 0.7957146 0.015152454
vt 0.7897816 0.0047267675
vt 0.8063917 0.005492687
vt 0.7953601 0.031339645
vt 0.8043568 0.0461092
vt 0.8071232 0.032071233
vt 0.81430244 0.055346012
vt 0.8202925 0.03272283
vt 0.8374057 0.054397106
vt 0.8152969 0.019004941
vt 0.8328445 0.022903085
vt 0.8469281 0.008819342
vt 0.8509865 0.03398025
vt 0.87208915 0.010625482
vt 0.8991935 0.036975384
vt 0.8972502 0.014980912
vt 0.93167067 0.068823814
vt 0.9134259 0.07226479
vt 0.91448903 0.10101533
vt 0.76739836 0.06897247
vt 0.7397568 0.06451416
vt 0.77936745 0.10337019
vt 0.7397568 0.06451416
vt 0.742306 0.11827707
vt 0.78866124 0.17637253
vt 0.8096154 0.17636108
vt 0.81313634 0.173949
vt 0.94454265 0.11265266
vt 0.94104457 0.12287259
vt 0.9451258 0.12155795
vt 0.9478922 0.120963454
vn -0.6991316 -0.17934549 0.6921345
vn -0.9893774 -0.09420675 -0.110713586
vn -0.8171649 -0.0477674 0.5744213
vn -0.99131227 -0.12323129 -0.045978893
vn -0.6391475 0.39727604 0.6585303
vn -0.9390681 0.24441326 -0.24168842
vn -0.9893774 -0.09420675 -0.110713586
vn -0.99131227 -0.12323129 -0.045978893
vn -0.9835725 -0.08646685 -0.15845703
vn -0.9874424 -0.15032089 0.048591863
vn -0.9874424 -0.15032089 0.048591863
vn -0.9951823 -0.08066195 -0.055730708
vn -0.9874424 -0.15612578 0.024130432
vn -0.9758326 0.05285108 -0.21203192
vn -0.9797025 -0.19482523 0.047182582
vn -0.9061736 -0.35736287 0.2261443
vn -0.9758326 -0.19869518 0.090945005
vn -0.9932473 0.04124129 0.108439006
vn -0.9951823 0.021891594 -0.09556684
vn -0.9622878 0.13024998 0.23882452
vn -0.6855868 0.7223513 0.09043985
vn -0.8326447 0.23086846 0.503391
vn -0.670107 0.7126764 0.20748234
vn -0.7223513 0.6178628 0.3105707
vn -0.97002757 0.23860836 0.045962553
vn -0.29665756 0.29665756 0.90773815
vn -0.34503186 0.26569796 0.90019864
vn -0.22506356 0.34116185 0.9126637
vn -0.22119367 0.9119785 0.34549764
vn -0.7223513 0.6178628 0.3105707
vn -0.6817169 0.5907732 0.43156582
vn -0.670107 0.7126764 0.20748234
vn -0.28698266 0.809425 0.5123203
vn -0.36825144 0.8732791 0.31902108
vn -0.6855868 0.7223513 0.09043985
vn -0.6372125 0.737831 0.2226335
vn -0.46113014 0.875214 0.1461489
vn 0.0051980615 0.6101229 0.79228973
vn 0.0400275 0.99905217 0.017105531
vn 0.16193074 0.9390681 0.30319887
vn 0.4212169 0.8906938 0.17099956
vn -0.060537234 0.9981659 -0
vn 0.0051980615 0.6101229 0.79228973
vn 0.34188306 0.59270823 -0.729255
vn -0.8152299 0.54433393 -0.19773921
vn -0.25795805 0.5385289 -0.8021497
vn 0.34188306 0.59270823 -0.729255
vn -0.22119367 0.42823565 -0.8761778
vn -0.9390681 0.18829918 -0.2875666
vn 0.39799726 0.6256027 -0.6709839
vn -0.36438155 0.45919514 -0.8101641
vn -0.5849683 0.025761485 -0.8106469
vn -0.96997935 -0.24318744 -0
vn 0.17547554 0.47273993 -0.8635539
vn 0.13290614 0.16894937 -0.9766228
vn -0.7862053 -0.02261275 -0.6175515
vn -0.99131227 -0.12323129 -0.045978893
vn -0.9893774 -0.09420675 -0.110713586
vn 0.8430407 0.44952023 -0.29532006
vn 0.60503924 0.6875218 -0.4015486
vn 0.7385522 0.24828327 -0.6268142
vn 0.754032 0.033501387 0.65598273
vn 0.7753167 0.52885413 -0.34524962
vn 0.7288774 0.43984544 0.52466536
vn 0.7288774 0.43984544 0.52466536
vn 0.8488456 0.52111423 0.088888146
vn 0.92237455 0.38179624 0.05879457
vn 0.7211375 -0.014872909 0.6926323
vn 0.9746188 -0.21804488 0.050740924
vn 0.58375454 -0.15806079 0.7963965
vn 0.7327473 -0.30898857 0.6063064
vn 0.92817944 -0.3244683 -0.18221757
vn 0.7404872 0.14959967 -0.6552088
vn 0.7482271 -0.37864757 -0.5447772
vn 0.8372358 -0.3380131 -0.42986432
vn 0.52764034 -0.4502415 -0.720332
vn 0.72307247 -0.28770387 -0.6280069
vn 0.4637863 0.03543639 -0.8852381
vn 0.46765625 -0.25480938 -0.8463863
vn 0.22965473 0.26763296 -0.93575174
vn 0.13677609 -0.13290614 -0.9816457
vn -0.55013883 0.14959967 -0.8215639
vn 0.26641917 -0.45217645 -0.8512093
vn -0.38373125 -0.37090766 -0.84568185
vn -0.6894567 -0.3863874 -0.61266166
vn -0.9100435 -0.12903619 -0.39391693
vn -0.97776747 -0.17741048 -0.11178678
vn -0.6991316 -0.17934549 0.6921345
vn -0.7184813 -0.34188306 0.6057232
vn 0.01874286 -0.045832455 0.9987733
vn -0.8171649 -0.0477674 0.5744213
vn -0.6391475 0.39727604 0.6585303
vn 0.7211375 -0.014872909 0.6926323
vn 0.754032 0.033501387 0.65598273
vn 0.9804237 0.018021643 0.1960729
vn 0.9804237 0.018021643 0.1960729
vn 0.9804237 0.018021643 0.1960729
vn 0.12323129 0.99131227 0.04597888
vn -0.33148706 0.8926288 0.3054999
vn 0.0051980615 0.6101229 0.79228973
vn 0.055507302 0.5656185 0.8227968
vn 0.4212169 0.8906938 0.17099956
vn 0.16193074 0.9390681 0.30319887
vn -0.33148706 0.8926288 0.3054999
g febg_hotspring_001_cliff_03_0
f 3/3/3 2/2/2 1/1/1
f 5/5/5 4/4/4 3/3/3
f 4/4/4 6/6/6 3/3/3
f 8/8/8 7/7/7 3/3/3
f 7/7/7 9/9/9 3/3/3
f 11/11/11 10/10/10 9/9/9
f 12/12/12 11/11/11 9/9/9
f 12/12/12 9/9/9 13/13/13
f 9/9/9 14/14/14 13/13/13
f 14/14/14 6/6/6 15/15/15
f 13/13/13 14/14/14 15/15/15
f 16/16/16 13/13/13 15/15/15
f 6/6/6 17/17/17 15/15/15
f 15/15/15 18/18/18 16/16/16
f 15/15/15 17/17/17 18/18/18
f 16/16/16 18/18/18 19/19/19
f 17/17/17 20/20/20 18/18/18
f 21/21/21 20/20/20 17/17/17
f 21/21/21 17/17/17 22/22/22
f 21/21/21 23/23/23 20/20/20
f 20/20/20 23/23/23 18/18/18
f 23/23/23 19/19/19 18/18/18
f 23/23/23 24/24/24 19/19/19
f 24/24/24 25/25/25 19/19/19
f 27/27/27 26/26/26 22/22/22
f 22/22/22 26/26/26 28/28/28
f 30/30/30 29/29/29 25/25/25
f 25/25/25 29/29/29 31/31/31
f 30/30/30 32/32/32 29/29/29
f 32/32/32 33/33/33 29/29/29
f 29/29/29 33/33/33 31/31/31
f 34/34/34 33/33/33 32/32/32
f 33/33/33 34/34/34 31/31/31
f 32/32/32 35/35/35 34/34/34
f 35/35/35 36/36/36 34/34/34
f 38/38/38 36/36/36 37/37/37
f 31/31/31 38/38/38 37/37/37
f 39/39/39 31/31/31 37/37/37
f 41/41/41 40/40/40 39/39/39
f 40/40/40 42/42/42 39/39/39
f 44/44/44 42/42/42 43/43/43
f 42/42/42 45/45/45 43/43/43
f 45/45/45 47/47/47 46/46/46
f 45/45/45 46/46/46 48/48/48
f 49/49/49 45/45/45 48/48/48
f 46/46/46 47/47/47 50/50/50
f 48/48/48 46/46/46 50/50/50
f 49/49/49 48/48/48 51/51/51
f 52/52/52 49/49/49 51/51/51
f 53/53/53 49/49/49 52/52/52
f 51/51/51 48/48/48 54/54/54
f 48/48/48 50/50/50 54/54/54
f 51/51/51 54/54/54 52/52/52
f 54/54/54 55/55/55 52/52/52
f 56/56/56 53/53/53 52/52/52
f 56/56/56 52/52/52 55/55/55
f 57/57/57 53/53/53 56/56/56
f 57/57/57 56/56/56 58/58/58
f 54/54/54 50/50/50 59/59/59
f 50/50/50 47/47/47 60/60/60
f 50/50/50 60/60/60 59/59/59
f 55/55/55 54/54/54 61/61/61
f 54/54/54 59/59/59 61/61/61
f 60/60/60 62/62/62 59/59/59
f 60/60/60 63/63/63 62/62/62
f 47/47/47 63/63/63 60/60/60
f 63/63/63 64/64/64 62/62/62
f 65/65/65 63/63/63 47/47/47
f 61/61/61 59/59/59 66/66/66
f 67/67/67 61/61/61 66/66/66
f 67/67/67 66/66/66 68/68/68
f 68/68/68 69/69/69 67/67/67
f 70/70/70 69/69/69 68/68/68
f 70/70/70 71/71/71 69/69/69
f 69/69/69 71/71/71 72/72/72
f 73/73/73 61/61/61 67/67/67
f 67/67/67 69/69/69 73/73/73
f 73/73/73 55/55/55 61/61/61
f 74/74/74 69/69/69 72/72/72
f 75/75/75 74/74/74 72/72/72
f 76/76/76 74/74/74 75/75/75
f 69/69/69 77/77/77 73/73/73
f 69/69/69 74/74/74 77/77/77
f 77/77/77 78/78/78 73/73/73
f 78/78/78 55/55/55 73/73/73
f 77/77/77 74/74/74 79/79/79
f 76/76/76 79/79/79 74/74/74
f 77/77/77 79/79/79 78/78/78
f 78/78/78 80/80/80 55/55/55
f 81/81/81 78/78/78 79/79/79
f 80/80/80 78/78/78 81/81/81
f 80/80/80 82/82/82 55/55/55
f 82/82/82 80/80/80 81/81/81
f 82/82/82 56/56/56 55/55/55
f 83/83/83 79/79/79 76/76/76
f 81/81/81 79/79/79 83/83/83
f 84/84/84 83/83/83 76/76/76
f 81/81/81 83/83/83 84/84/84
f 84/84/84 82/82/82 81/81/81
f 85/85/85 84/84/84 76/76/76
f 56/56/56 82/82/82 86/86/86
f 86/86/86 82/82/82 84/84/84
f 86/86/86 84/84/84 85/85/85
f 58/58/58 56/56/56 86/86/86
f 86/86/86 85/85/85 87/87/87
f 58/58/58 86/86/86 87/87/87
f 87/87/87 88/88/88 58/58/58
f 89/89/89 88/88/88 87/87/87
f 92/92/92 91/91/91 90/90/90
f 94/94/94 93/93/93 59/59/59
f 97/97/97 96/96/96 95/95/95
f 100/100/100 99/99/99 98/98/98
f 47/47/47 100/100/100 98/98/98
f 103/103/103 102/102/102 101/101/101
f 104/104/104 103/103/103 101/101/101
