g febg_lostcity_001_woodcap_01
v 0.6295705 0.10918492 -0.36308676
v -0.60579336 5.9604645E-08 -0.36308694
v 0.6295705 -2.9802322E-08 -0.36308676
v -0.6057933 0.10918492 -0.3630869
v 0.6127012 0.10918504 -0.18154338
v 0.62957025 0.10918504 -0.18154338
v 0.6295705 -2.9802322E-08 -0.36308676
v 0.6295703 -2.9802322E-08 -0.18154341
v -0.60443777 0.10918504 -0.18154344
v -0.60443777 1.1116331E-17 -0.18154347
v -0.60579336 5.9604645E-08 -0.36308694
v 0.61463666 0.10918498 4.7726196E-09
v 0.6146368 4.0200483E-27 -6.565237E-11
v 0.6127012 -2.9802322E-08 -0.18154344
v -0.6295471 0.10918486 4.7726143E-09
v -0.62957007 0.10918504 -0.18154344
v -0.62957007 -1.1920929E-07 -0.18154348
v -0.62954724 -5.9604645E-08 -6.5675465E-11
v 0.62957025 0.10918504 -0.18154338
v 0.6295703 -2.9802322E-08 -0.18154341
v 0.6127012 -2.9802322E-08 -0.18154344
v 0.6127012 0.10918504 -0.18154338
v -0.62957007 0.10918504 -0.18154344
v -0.62957007 -1.1920929E-07 -0.18154348
v -0.60443777 1.1116331E-17 -0.18154347
v -0.60443777 0.10918504 -0.18154344
v 0.6295705 0.10918486 0.3630867
v 0.6295704 -1.1920929E-07 0.3630867
v -0.60579336 2.9802322E-08 0.3630869
v -0.6057933 0.10918492 0.36308688
v 0.6127012 0.10918492 0.18154341
v 0.6295703 0.10918492 0.18154342
v 0.6295704 -1.1920929E-07 0.3630867
v 0.6295705 -8.940697E-08 0.18154342
v -0.60443765 0.10918504 0.18154347
v -0.60443765 5.9604645E-08 0.18154342
v -0.60579336 2.9802322E-08 0.3630869
v 0.61463666 0.10918498 4.7726196E-09
v 0.6146368 4.0200483E-27 -6.565237E-11
v 0.6127013 -8.940697E-08 0.18154342
v -0.6295471 0.10918486 4.7726143E-09
v -0.62957 0.10918504 0.18154345
v -0.6295699 -5.9604645E-08 0.18154342
v -0.62954724 -5.9604645E-08 -6.5675465E-11
v 0.6295703 0.10918492 0.18154342
v 0.6127012 0.10918492 0.18154341
v 0.6127013 -8.940697E-08 0.18154342
v 0.6295705 -8.940697E-08 0.18154342
v -0.62957 0.10918504 0.18154345
v -0.60443765 0.10918504 0.18154347
v -0.60443765 5.9604645E-08 0.18154342
v -0.6295699 -5.9604645E-08 0.18154342
v 0.38891515 0.105479956 0.34213704
v 0.2672615 0.105479956 0.34213698
v 0.27448082 0.16115755 0.3377785
v 0.3816958 0.16115755 0.3377785
v 0.2744807 0.16115767 -0.33564836
v 0.26726136 0.105480075 -0.34000692
v 0.2672615 0.105479956 0.34213698
v 0.38169587 0.16115767 -0.33564836
v 0.3889151 0.105480075 -0.34000683
v 0.38891515 0.105479956 0.34213704
v 0.3889151 0.105480075 -0.34000683
v 0.26726136 0.105480075 -0.34000692
v -0.3660073 0.105479926 -0.34000662
v -0.24435362 0.105479926 -0.34000665
v -0.25157297 0.16115752 -0.33564806
v -0.35878798 0.16115752 -0.335648
v -0.25157285 0.1611577 0.33777875
v -0.24435353 0.105480105 0.3421373
v -0.24435362 0.105479926 -0.34000665
v -0.35878783 0.1611577 0.33777884
v -0.36600712 0.105480105 0.34213728
v -0.3660073 0.105479926 -0.34000662
v -0.36600712 0.105480105 0.34213728
v -0.24435353 0.105480105 0.3421373
vt 0.8194604 0.2369919
vt 0.7288127 0.24492736
vt 0.8194604 0.24492736
vt 0.7288127 0.2369919
vt 0.8182931 0.2237057
vt 0.8194604 0.2237057
vt 0.82736635 0.2369919
vt 0.8273661 0.2237057
vt 0.7288127 0.2237057
vt 0.72090715 0.2237057
vt 0.72090715 0.2369919
vt 0.8182931 0.21040633
vt 0.8261985 0.21040633
vt 0.8261985 0.2237057
vt 0.7270192 0.21040633
vt 0.72701764 0.2237057
vt 0.71911263 0.2237057
vt 0.71911263 0.21040633
vt 0.7008315 0.21121958
vt 0.71369356 0.21121958
vt 0.71369356 0.21422108
vt 0.7008315 0.21422108
vt 0.71369356 0.21121958
vt 0.7008315 0.21121958
vt 0.7008315 0.21422108
vt 0.71369356 0.21422108
vt 0.8194604 0.2369919
vt 0.8194604 0.24492736
vt 0.7288127 0.24492736
vt 0.7288127 0.2369919
vt 0.8182931 0.2237057
vt 0.8194604 0.2237057
vt 0.82736635 0.2369919
vt 0.8273661 0.2237057
vt 0.7288127 0.2237057
vt 0.72090715 0.2237057
vt 0.72090715 0.2369919
vt 0.8182931 0.21040633
vt 0.8261985 0.21040633
vt 0.8261985 0.2237057
vt 0.7270192 0.21040633
vt 0.72701764 0.2237057
vt 0.71911263 0.2237057
vt 0.71911263 0.21040633
vt 0.7008315 0.21121958
vt 0.7008315 0.21422108
vt 0.71369356 0.21422108
vt 0.71369356 0.21121958
vt 0.71369356 0.21121958
vt 0.71369356 0.21422108
vt 0.7008315 0.21422108
vt 0.7008315 0.21121958
vt 0.60749686 0.42831963
vt 0.6185435 0.42831963
vt 0.617888 0.42324847
vt 0.6081524 0.42324847
vt 0.617888 0.36209884
vt 0.62298596 0.36170307
vt 0.62298584 0.42364424
vt 0.6081524 0.36209884
vt 0.60305446 0.3617032
vt 0.60305446 0.42364424
vt 0.60749686 0.35702732
vt 0.6185435 0.35702744
vt 0.60749686 0.42831963
vt 0.6185435 0.42831963
vt 0.617888 0.42324847
vt 0.6081524 0.42324847
vt 0.617888 0.36209884
vt 0.6229861 0.36170307
vt 0.6229861 0.42364424
vt 0.6081524 0.36209884
vt 0.60305446 0.3617032
vt 0.60305446 0.42364424
vt 0.60749686 0.35702732
vt 0.6185435 0.35702744
vn 0.5773506 0.57735014 -0.57735
vn -0.7097418 0 -0.704462
vn 0.70710725 0 -0.7071063
vn -0.57969797 0.57695866 -0.575386
vn 0.30122787 0.9057803 0.2980334
vn 0.5773494 0.57735074 0.57735074
vn 0.70710725 0 -0.7071063
vn 0.70710623 0 0.7071073
vn -0.30131638 0.90540755 -0.29907483
vn -0.7097405 0 -0.7044632
vn -0.7097418 0 -0.704462
vn 0.7094901 0.70471543 0
vn 1 0 0
vn 0.71086556 0 0.7033279
vn -0.7070785 0.70713496 0
vn -0.57738984 0.57734424 -0.5773168
vn -0.7071521 0 -0.7070614
vn -1 0 0
vn 0.5773494 0.57735074 0.57735074
vn 0.70710623 0 0.7071073
vn 0.71086556 0 0.7033279
vn 0.30122787 0.9057803 0.2980334
vn -0.57738984 0.57734424 -0.5773168
vn -0.7071521 0 -0.7070614
vn -0.7097405 0 -0.7044632
vn -0.30131638 0.90540755 -0.29907483
vn 0.57735044 0.57735026 0.57735
vn 0.70710677 0 0.7071067
vn -0.7097419 0 0.7044618
vn -0.57969815 0.5769586 0.57538575
vn 0.3012283 0.9057802 -0.29803318
vn 0.5773499 0.5773506 -0.5773503
vn 0.70710677 0 0.7071067
vn 0.7071072 0 -0.7071063
vn -0.3013167 0.9054074 0.29907465
vn -0.70974094 0 0.7044627
vn -0.7097419 0 0.7044618
vn 0.7094901 0.70471543 0
vn 1 0 0
vn 0.7108657 0 -0.7033278
vn -0.7070785 0.70713496 0
vn -0.57738996 0.57734394 0.5773168
vn -0.70715207 0 0.7070614
vn -1 0 0
vn 0.5773499 0.5773506 -0.5773503
vn 0.3012283 0.9057802 -0.29803318
vn 0.7108657 0 -0.7033278
vn 0.7071072 0 -0.7071063
vn -0.57738996 0.57734394 0.5773168
vn -0.3013167 0.9054074 0.29907465
vn -0.70974094 0 0.7044627
vn -0.70715207 0 0.7070614
vn 0.7097797 0.14597768 0.6891322
vn -0.7097798 0.1459782 0.68913203
vn -0.53859466 0.6311096 0.55822617
vn 0.5385949 0.63110936 0.55822635
vn -0.5385948 0.6311098 -0.55822605
vn -0.70977956 0.14597845 -0.6891323
vn -0.7097798 0.1459782 0.68913203
vn 0.5385951 0.6311096 -0.55822575
vn 0.70977974 0.1459778 -0.6891322
vn 0.7097797 0.14597768 0.6891322
vn 0.70977974 0.1459778 -0.6891322
vn -0.70977956 0.14597845 -0.6891323
vn -0.70977926 0.14597908 -0.68913233
vn 0.70977914 0.14597951 -0.68913245
vn 0.5385946 0.63111 -0.5582258
vn -0.53859514 0.6311099 -0.5582253
vn 0.538595 0.6311098 0.5582257
vn 0.7097797 0.14597821 0.68913215
vn 0.70977914 0.14597951 -0.68913245
vn -0.5385946 0.6311096 0.55822635
vn -0.70977974 0.14597787 0.68913215
vn -0.70977926 0.14597908 -0.68913233
vn -0.70977974 0.14597787 0.68913215
vn 0.7097797 0.14597821 0.68913215
g febg_lostcity_001_woodcap_01_0
f 3/3/3 2/2/2 1/1/1
f 2/2/2 4/4/4 1/1/1
f 1/1/1 4/4/4 5/5/5
f 6/6/6 1/1/1 5/5/5
f 7/7/7 1/1/1 6/6/6
f 8/8/8 7/7/7 6/6/6
f 4/4/4 9/9/9 5/5/5
f 10/10/10 9/9/9 4/4/4
f 11/11/11 10/10/10 4/4/4
f 9/9/9 12/12/12 5/5/5
f 5/5/5 12/12/12 13/13/13
f 14/14/14 5/5/5 13/13/13
f 15/15/15 12/12/12 9/9/9
f 16/16/16 15/15/15 9/9/9
f 15/15/15 16/16/16 17/17/17
f 18/18/18 15/15/15 17/17/17
f 21/21/21 20/20/20 19/19/19
f 22/22/22 21/21/21 19/19/19
f 25/25/25 24/24/24 23/23/23
f 26/26/26 25/25/25 23/23/23
f 29/29/29 28/28/28 27/27/27
f 30/30/30 29/29/29 27/27/27
f 30/30/30 27/27/27 31/31/31
f 27/27/27 32/32/32 31/31/31
f 27/27/27 33/33/33 32/32/32
f 33/33/33 34/34/34 32/32/32
f 35/35/35 30/30/30 31/31/31
f 35/35/35 36/36/36 30/30/30
f 36/36/36 37/37/37 30/30/30
f 38/38/38 35/35/35 31/31/31
f 39/39/39 38/38/38 31/31/31
f 40/40/40 39/39/39 31/31/31
f 35/35/35 38/38/38 41/41/41
f 42/42/42 35/35/35 41/41/41
f 43/43/43 42/42/42 41/41/41
f 44/44/44 43/43/43 41/41/41
f 47/47/47 46/46/46 45/45/45
f 48/48/48 47/47/47 45/45/45
f 51/51/51 50/50/50 49/49/49
f 52/52/52 51/51/51 49/49/49
f 55/55/55 54/54/54 53/53/53
f 56/56/56 55/55/55 53/53/53
f 57/57/57 55/55/55 56/56/56
f 57/57/57 58/58/58 55/55/55
f 58/58/58 59/59/59 55/55/55
f 60/60/60 57/57/57 56/56/56
f 61/61/61 60/60/60 56/56/56
f 62/62/62 61/61/61 56/56/56
f 57/57/57 60/60/60 63/63/63
f 64/64/64 57/57/57 63/63/63
f 67/67/67 66/66/66 65/65/65
f 68/68/68 67/67/67 65/65/65
f 69/69/69 67/67/67 68/68/68
f 69/69/69 70/70/70 67/67/67
f 70/70/70 71/71/71 67/67/67
f 72/72/72 69/69/69 68/68/68
f 73/73/73 72/72/72 68/68/68
f 74/74/74 73/73/73 68/68/68
f 69/69/69 72/72/72 75/75/75
f 76/76/76 69/69/69 75/75/75
