g febg_tropical_003_parasol_01
v -0.11304724 4.591385 0.11304724
v -0.042306066 4.7434096 -0.011335611
v -0.030971408 4.7434096 0.030971408
v -0.15442574 4.591385 -0.04137957
v -0.041377783 4.591385 -0.15442765
v -0.011333704 4.7434096 -0.042307973
v 0.030966759 4.7434096 -0.030966759
v 0.11304903 4.591385 -0.11304903
v 0.042307973 4.7434096 0.011333704
v 0.15442765 4.591385 0.041377783
v 0.011335611 4.7434096 0.042306066
v 0.04137957 4.591385 0.15442574
v -0.030971408 4.7434096 0.030971408
v -0.11304724 4.591385 0.11304724
v -0.042306066 4.7434096 -0.011335611
v -0.0676111 4.8774524 0.0676111
v -0.030971408 4.7434096 0.030971408
v -0.092357755 4.8774524 -0.02474761
v -0.011333704 4.7434096 -0.042307973
v -0.024745822 4.8774524 -0.09235966
v 0.030966759 4.7434096 -0.030966759
v 0.067613006 4.8774524 -0.067613006
v 0.042307973 4.7434096 0.011333704
v 0.09235966 4.8774524 0.024745822
v 0.011335611 4.7434096 0.042306066
v 0.02474761 4.8774524 0.092357755
v -0.030971408 4.7434096 0.030971408
v -0.0676111 4.8774524 0.0676111
v 1.0951145 1.4272069 -0.31958544
v 1.0951145 1.4272069 0.31958354
v 1.0951145 1.6272968 0.31958354
v 1.0951145 1.6272968 -0.31958544
v 9.536743E-07 1.6272968 -9.536743E-07
v 0.7267182 1.6272968 -0.8901427
v 0.72671175 1.6272968 0.8901409
v 1.0951145 1.4272069 -0.31958544
v 0.7267182 1.4272069 -0.8901427
v 0.72671175 1.4272069 0.8901409
v 1.0951145 1.4272069 0.31958354
v 9.536743E-07 1.6272968 -1.1546898
v 0.7267182 1.4272069 -0.8901427
v 9.536743E-07 1.4272069 -1.1546898
v -0.7267164 1.6272968 -0.8901427
v -0.7267164 1.4272069 -0.8901427
v -1.0951127 1.6272968 -0.31958544
v -0.7267164 1.4272069 -0.8901427
v -1.0951127 1.4272069 -0.31958544
v 9.536743E-07 1.6272968 1.1546944
v 9.536743E-07 1.4272069 1.1546944
v 0.72671175 1.4272069 0.8901409
v -0.7267164 1.4272069 0.8901409
v -0.7267164 1.6272968 0.8901409
v -1.0951127 1.6272968 0.31958354
v -1.0951127 1.4272069 0.31958354
v -1.0951127 1.4272069 -0.31958544
v -1.0951127 1.4272069 0.31958354
v -0.7267164 1.4272069 0.8901409
v 9.536743E-07 0.13867676 0.15521133
v -0.13441813 1.4376782 0.077608466
v 9.536743E-07 1.4376782 0.15521133
v -0.13441813 0.13867676 0.077608466
v -0.13441813 1.4376782 -0.077610254
v -0.22675097 0.13867676 0.1309191
v 9.536743E-07 0.13867676 0.2618326
v -0.13441813 0.13867676 -0.077610254
v 9.536743E-07 1.4376782 -0.15521324
v -0.22675097 -9.536743E-07 0.1309191
v 9.536743E-07 -9.536743E-07 0.2618326
v -0.22675097 -9.536743E-07 -0.13092089
v -0.22675097 0.13867676 -0.13092089
v 9.536743E-07 -9.536743E-07 -0.26183438
v 9.536743E-07 0.13867676 -0.26183438
v 0.22675276 -9.536743E-07 -0.13091445
v 9.536743E-07 0.13867676 -0.15521324
v 0.13442004 1.4376782 -0.07760382
v 0.22675276 0.13867676 -0.13091445
v 0.22675276 -9.536743E-07 0.13091266
v 0.13442004 0.13867676 -0.07760382
v 0.13442004 1.4376782 0.07760203
v 0.22675276 0.13867676 0.13091266
v 9.536743E-07 -9.536743E-07 0.2618326
v 9.536743E-07 0.13867676 0.2618326
v 0.13442004 0.13867676 0.07760203
v 9.536743E-07 1.4376782 0.15521133
v 9.536743E-07 0.13867676 0.15521133
v 9.536743E-07 2.4059486 0.050648093
v 9.536743E-07 2.155385 0.050648093
v -0.04386413 2.155385 0.02532351
v -0.04386413 2.4059486 0.02532351
v 9.536743E-07 2.4267874 0.067981124
v -0.04386413 2.155385 -0.025325418
v -0.058873177 2.4267874 0.033990145
v 9.536743E-07 2.447626 0.050648093
v -0.04386413 2.4059486 -0.025325418
v 9.536743E-07 2.155385 -0.05064988
v -0.04386413 2.447626 0.02532351
v 9.536743E-07 3.8293848 0.050648093
v -0.04386413 3.8293848 0.02532351
v 9.536743E-07 2.4059486 -0.05064988
v 0.04386592 2.155385 -0.025325418
v -0.058873177 2.4267874 -0.033991933
v -0.04386413 2.447626 -0.025325418
v -0.04386413 3.8293848 -0.025325418
v 0.04386592 2.4059486 -0.025325418
v 0.04386592 2.155385 0.02532351
v 9.536743E-07 2.4267874 -0.06798303
v 9.536743E-07 2.447626 -0.05064988
v 9.536743E-07 3.8293848 -0.05064988
v 0.04386592 2.4059486 0.02532351
v 9.536743E-07 2.155385 0.050648093
v 9.536743E-07 2.4059486 0.050648093
v 0.058874965 2.4267874 -0.033991933
v 0.04386592 2.447626 -0.025325418
v 0.04386592 3.8293848 -0.025325418
v 0.058874965 2.4267874 0.033990145
v 9.536743E-07 2.4267874 0.067981124
v 0.04386592 2.447626 0.02532351
v 0.04386592 3.8293848 0.02532351
v 9.536743E-07 2.447626 0.050648093
v 9.536743E-07 3.8293848 0.050648093
v 0.04386592 2.155385 0.02532351
v 9.536743E-07 2.155385 0.109476686
v 9.536743E-07 2.155385 0.050648093
v 0.09480703 2.155385 0.054737926
v 9.536743E-07 1.6144432 0.109476686
v 0.04386592 2.155385 -0.025325418
v 0.09480703 1.6144432 0.054737926
v 0.09480703 2.155385 -0.054733276
v 9.536743E-07 2.155385 -0.05064988
v 0.09480703 1.6144432 -0.054733276
v 9.536743E-07 2.155385 -0.10947847
v -0.04386413 2.155385 -0.025325418
v 9.536743E-07 1.6144432 -0.10947847
v -0.09480512 2.155385 -0.054739714
v -0.04386413 2.155385 0.02532351
v -0.09480512 1.6144432 -0.054739714
v -0.09480512 2.155385 0.054737926
v 9.536743E-07 2.155385 0.050648093
v -0.09480512 1.6144432 0.054737926
v 9.536743E-07 2.155385 0.109476686
v 9.536743E-07 1.6144432 0.109476686
v 0.067613006 4.8774524 -0.067613006
v -0.092357755 4.8774524 -0.02474761
v -0.024745822 4.8774524 -0.09235966
v -0.0676111 4.8774524 0.0676111
v 0.02474761 4.8774524 0.092357755
v 0.09235966 4.8774524 0.024745822
v 9.536743E-07 3.6328912 -1.92968
v 0.9648437 3.6328912 -1.6711508
v 0.57297957 4.2110243 -0.99242085
v 1.3179972 3.6328912 -1.3179972
v 9.536743E-07 4.2110243 -1.1459517
v -0.9648353 3.6328912 -1.6711508
v -0.57297766 4.2110243 -0.99242085
v -1.6711489 3.6328912 -0.9648372
v -0.99242556 4.2110243 -0.57297313
v -1.9296781 3.6328912 -9.536743E-07
v -1.14595 4.2110243 -9.536743E-07
v -1.6711556 3.6328912 0.96484196
v -0.15442574 4.591385 -0.04137957
v -0.99242556 4.2110243 0.57297766
v -1.3179954 3.6328912 1.3179954
v -0.041377783 4.591385 -0.15442765
v 0.11304903 4.591385 -0.11304903
v -0.11304724 4.591385 0.11304724
v -0.7827016 4.2110243 0.7827016
v -0.57297766 4.2110243 0.99242556
v -0.96484196 3.6328912 1.6711556
v 9.536743E-07 3.6328912 1.9296781
v 9.536743E-07 4.2110243 1.14595
v 0.9648372 3.6328912 1.6711556
v 0.04137957 4.591385 0.15442574
v 0.57297313 4.2110243 0.99242556
v 1.6711508 3.6328912 0.96484196
v 0.99242085 4.2110243 0.57297766
v 1.92968 3.6328912 -9.536743E-07
v 0.15442765 4.591385 0.041377783
v 1.1459517 4.2110243 -9.536743E-07
v 1.6711508 3.6328912 -0.9648372
v 0.99242085 4.2110243 -0.57297313
v 0.78269696 4.2110243 -0.78269696
vt 0.8221381 0.42689753
vt 0.81632614 0.41200638
vt 0.815754 0.41477683
vt 0.8315636 0.4175322
vt 0.8315636 0.40337884
vt 0.81632614 0.40891972
vt 0.8158293 0.4061794
vt 0.8221381 0.39402857
vt 0.81632614 0.40891972
vt 0.8315636 0.40337884
vt 0.81632614 0.41200638
vt 0.8315636 0.4175322
vt 0.815754 0.41477683
vt 0.8221381 0.42689753
vt 0.81632614 0.41200638
vt 0.8069307 0.42104045
vt 0.815754 0.41477683
vt 0.8045668 0.41403905
vt 0.81632614 0.40891972
vt 0.8045668 0.4065558
vt 0.8158293 0.4061794
vt 0.80721676 0.39962968
vt 0.81632614 0.40891972
vt 0.8045668 0.4065558
vt 0.81632614 0.41200638
vt 0.8045668 0.41403905
vt 0.815754 0.41477683
vt 0.8069307 0.42104045
vt 0.1056611 0.2794013
vt 0.1056611 0.32797447
vt 0.09045375 0.32797447
vt 0.09045375 0.2794013
vt 0.007249982 0.3036879
vt 0.062463198 0.23605283
vt 0.062463198 0.37132296
vt 0.10323696 0.27115017
vt 0.07523135 0.22780171
vt 0.07523135 0.379559
vt 0.10323696 0.33621055
vt 0.007249982 0.21595202
vt 0.06767285 0.22176394
vt 0.012444572 0.20166314
vt 0.062463198 0.23605283
vt 0.06767285 0.22176394
vt 0.09045375 0.2794013
vt 0.0752464 0.22780171
vt 0.1032219 0.27115017
vt 0.007249982 0.39142376
vt 0.012459628 0.40569758
vt 0.06767285 0.38559678
vt 0.06767285 0.38559678
vt 0.062463198 0.37132296
vt 0.09045375 0.32795942
vt 0.1056611 0.32795942
vt 0.1056611 0.2794013
vt 0.1032219 0.33621055
vt 0.0752464 0.379559
vt 0.8171241 0.27997345
vt 0.80577135 0.36150593
vt 0.8171241 0.36150593
vt 0.80577135 0.27997345
vt 0.7938012 0.36150593
vt 0.80863214 0.27411637
vt 0.82606786 0.27411637
vt 0.7938012 0.27997345
vt 0.7824484 0.36150593
vt 0.80863214 0.26454026
vt 0.82606786 0.26454026
vt 0.7909404 0.26454026
vt 0.7909404 0.27411637
vt 0.7735047 0.26454026
vt 0.7735047 0.27411637
vt 0.7909404 0.26454026
vt 0.7824484 0.27997345
vt 0.7938012 0.36150593
vt 0.7909404 0.27411637
vt 0.80861706 0.26454026
vt 0.7938012 0.27997345
vt 0.80577135 0.36150593
vt 0.80861706 0.27411637
vt 0.82606786 0.26454026
vt 0.82606786 0.27411637
vt 0.80577135 0.27997345
vt 0.8171241 0.36150593
vt 0.8171241 0.27997345
vt 0.99261093 0.18344444
vt 0.99261093 0.16341892
vt 0.98755187 0.16341892
vt 0.98755187 0.18344444
vt 0.9934692 0.18511574
vt 0.9824928 0.16341892
vt 0.98755187 0.18511574
vt 0.99261093 0.18678704
vt 0.9824928 0.18344444
vt 0.9774337 0.16341892
vt 0.98755187 0.18678704
vt 0.99261093 0.2972436
vt 0.98755187 0.2972436
vt 0.9774337 0.18344444
vt 0.9824928 0.16341892
vt 0.9824928 0.18511574
vt 0.9824928 0.18678704
vt 0.9824928 0.2972436
vt 0.9824928 0.18344444
vt 0.98755187 0.16341892
vt 0.9765604 0.18511574
vt 0.9774337 0.18678704
vt 0.9774337 0.2972436
vt 0.98755187 0.18344444
vt 0.99261093 0.16341892
vt 0.99261093 0.18344444
vt 0.9824928 0.18511574
vt 0.9824928 0.18678704
vt 0.9824928 0.2972436
vt 0.98755187 0.18511574
vt 0.9934692 0.18511574
vt 0.98755187 0.18678704
vt 0.98755187 0.2972436
vt 0.99261093 0.18678704
vt 0.99261093 0.2972436
vt 0.98445016 0.5787
vt 0.9930777 0.5755532
vt 0.9912558 0.5787
vt 0.98445016 0.5755532
vt 0.9930777 0.5269499
vt 0.9758377 0.5787
vt 0.98445016 0.5269499
vt 0.9758377 0.5755532
vt 0.969032 0.5787
vt 0.9758377 0.5269499
vt 0.9672102 0.5755532
vt 0.9758377 0.5787
vt 0.9672102 0.5269499
vt 0.9758377 0.5755532
vt 0.98445016 0.5787
vt 0.9758377 0.5269499
vt 0.98445016 0.5755532
vt 0.9912558 0.5787
vt 0.98445016 0.5269499
vt 0.9930777 0.5755532
vt 0.9930777 0.5269499
vt 0.8094904 0.378234
vt 0.816823 0.3908516
vt 0.816823 0.38261554
vt 0.8094904 0.39505243
vt 0.8021577 0.3908516
vt 0.8021577 0.38261554
vt 0.95549595 0.29736403
vt 0.89230263 0.24757126
vt 0.85791296 0.31740463
vt 0.85326046 0.23819089
vt 0.8948172 0.3459071
vt 0.9909396 0.3699829
vt 0.91512877 0.38740358
vt 0.9909396 0.45089805
vt 0.91512877 0.4334924
vt 0.95549595 0.523532
vt 0.8948172 0.47498888
vt 0.89230263 0.57332474
vt 0.8315636 0.4175322
vt 0.85792804 0.5035064
vt 0.8532755 0.58270514
vt 0.8315636 0.40337884
vt 0.8221381 0.39402857
vt 0.8221381 0.42689753
vt 0.8349514 0.50820416
vt 0.85792804 0.5035064
vt 0.89230263 0.57332474
vt 0.95549595 0.523532
vt 0.8948172 0.47498888
vt 0.9909396 0.45089805
vt 0.8315636 0.4175322
vt 0.91512877 0.4334924
vt 0.9909396 0.3699829
vt 0.91512877 0.38740358
vt 0.95549595 0.29736403
vt 0.8315636 0.40337884
vt 0.8948172 0.3459071
vt 0.89230263 0.24757126
vt 0.85791296 0.31740463
vt 0.8349514 0.3127069
vn -0.36608756 0.85636425 0.3641705
vn -0.9521214 0.16882777 -0.25487664
vn -0.69740736 0.16882777 0.69650567
vn -0.5001476 0.85636425 -0.12842377
vn -0.13435519 0.85636425 -0.49858692
vn -0.25500917 0.16882777 -0.95208585
vn 0.69681704 0.16882777 -0.6970963
vn 0.36549723 0.85636425 -0.36476302
vn 0.9515311 0.16882777 0.2570714
vn 0.49955726 0.85636425 0.13070123
vn 0.2544189 0.16882777 0.95224375
vn 0.13376486 0.85636425 0.49874565
vn -0.69740736 0.16882777 0.69650567
vn -0.36608756 0.85636425 0.3641705
vn -0.9521214 0.16882777 -0.25487664
vn -0.6246319 0.4695053 0.6240191
vn -0.69740736 0.16882777 0.69650567
vn -0.85253394 0.4695053 -0.22967516
vn -0.25500917 0.16882777 -0.95208585
vn -0.22819722 0.4695053 -0.8529307
vn 0.69681704 0.16882777 -0.6970963
vn 0.62404156 0.4695053 -0.62460935
vn 0.9515311 0.16882777 0.2570714
vn 0.85385877 0.4695053 0.22469978
vn 0.2544189 0.16882777 0.95224375
vn 0.22952205 0.4695053 0.8525751
vn -0.69740736 0.16882777 0.69650567
vn -0.6246319 0.4695053 0.6240191
vn 0.9591917 0.0002951622 -0.28275654
vn 0.9591917 0.0002951622 0.28275654
vn 0.72937447 0.64952874 0.21476799
vn 0.72937447 0.64952874 -0.21476799
vn -0.0002951622 1 -0
vn 0.47849068 0.64186823 -0.5992093
vn 0.47849068 0.64186823 0.5992093
vn 0.9591917 0.0002951622 -0.28275654
vn 0.62404156 0.0002951622 -0.7813911
vn 0.62404156 0.0002951622 0.7813911
vn 0.9591917 0.0002951622 0.28275654
vn -0.0002951622 0.6380379 -0.7700049
vn 0.62404156 0.0002951622 -0.7813911
vn -0.0002951622 0.0002951622 -0.99999994
vn -0.47716582 0.64186823 -0.6002649
vn -0.6227168 0.0002951622 -0.7824473
vn -0.72996473 0.64952874 -0.21275312
vn -0.6227168 0.0002951622 -0.7824473
vn -0.959782 0.0002951622 -0.28074616
vn -0.0002951622 0.6380379 0.7700049
vn -0.0002951622 0.0002951622 0.99999994
vn 0.62404156 0.0002951622 0.7813911
vn -0.6227168 0.0002951622 0.7824473
vn -0.47716582 0.64186823 0.6002649
vn -0.72996473 0.64952874 0.21275312
vn -0.959782 0.0002951622 0.28074616
vn -0.959782 0.0002951622 -0.28074616
vn -0.959782 0.0002951622 0.28074616
vn -0.6227168 0.0002951622 0.7824473
vn -0.0002951622 0.839128 0.5439339
vn -0.86594 0.0002951622 0.5001478
vn -0.0002951622 0.0002951622 0.99999994
vn -0.4714204 0.839128 0.27134284
vn -0.86594 0.0002951622 -0.5001478
vn -0.68591654 0.60931075 0.39781764
vn -0.0002951622 0.60931075 0.79293144
vn -0.4714204 0.839128 -0.27134284
vn -0.0002951622 0.0002951622 -0.99999994
vn -0.86594 0.0002951622 0.5001478
vn -0.0002951622 0.0002951622 0.99999994
vn -0.86594 0.0002951622 -0.5001478
vn -0.68591654 0.60931075 -0.39781764
vn -0.0002951622 0.0002951622 -0.99999994
vn -0.0002951622 0.60931075 -0.79293144
vn 0.86534965 0.0002951622 -0.50116855
vn -0.0002951622 0.839128 -0.5439339
vn 0.86534965 0.0002951622 -0.50116855
vn 0.6853262 0.60931075 -0.39883378
vn 0.86534965 0.0002951622 0.50116855
vn 0.4708301 0.839128 -0.27236587
vn 0.86534965 0.0002951622 0.50116855
vn 0.6853262 0.60931075 0.39883378
vn -0.0002951622 0.0002951622 0.99999994
vn -0.0002951622 0.60931075 0.79293144
vn 0.4708301 0.839128 0.27236587
vn -0.0002951622 0.0002951622 0.99999994
vn -0.0002951622 0.839128 0.5439339
vn -0.0002951622 -0.38081837 0.92464983
vn -0.0002951622 0.839128 0.5439339
vn -0.4714204 0.839128 0.27134284
vn -0.8008251 -0.38081837 0.4622299
vn -0.0002951622 0.0002951622 0.99999994
vn -0.4714204 0.839128 -0.27134284
vn -0.86594 0.0002951622 0.5001478
vn -0.0002951622 0.3814087 0.92440647
vn -0.8008251 -0.38081837 -0.4622299
vn -0.0002951622 0.839128 -0.5439339
vn -0.8008251 0.3814087 0.46174294
vn -0.0002951622 0.0002951622 0.99999994
vn -0.86594 0.0002951622 0.5001478
vn -0.0002951622 -0.38081837 -0.92464983
vn 0.4708301 0.839128 -0.27236587
vn -0.86594 0.0002951622 -0.5001478
vn -0.8008251 0.3814087 -0.46174294
vn -0.86594 0.0002951622 -0.5001478
vn 0.8002348 -0.38081837 -0.46325114
vn 0.4708301 0.839128 0.27236587
vn -0.0002951622 0.0002951622 -0.99999994
vn -0.0002951622 0.3814087 -0.92440647
vn -0.0002951622 0.0002951622 -0.99999994
vn 0.8002348 -0.38081837 0.46325114
vn -0.0002951622 0.839128 0.5439339
vn -0.0002951622 -0.38081837 0.92464983
vn 0.86534965 0.0002951622 -0.50116855
vn 0.8002348 0.3814087 -0.46276525
vn 0.86534965 0.0002951622 -0.50116855
vn 0.86534965 0.0002951622 0.50116855
vn -0.0002951622 0.0002951622 0.99999994
vn 0.8002348 0.3814087 0.46276525
vn 0.86534965 0.0002951622 0.50116855
vn -0.0002951622 0.3814087 0.92440647
vn -0.0002951622 0.0002951622 0.99999994
vn 0.4708301 0.839128 0.27236587
vn -0.0002951622 0.60931075 0.79293144
vn -0.0002951622 0.839128 0.5439339
vn 0.6853262 0.60931075 0.39883378
vn -0.0002951622 0.0002951622 0.99999994
vn 0.4708301 0.839128 -0.27236587
vn 0.86534965 0.0002951622 0.50116855
vn 0.6853262 0.60931075 -0.39883378
vn -0.0002951622 0.839128 -0.5439339
vn 0.86534965 0.0002951622 -0.50116855
vn -0.0002951622 0.60931075 -0.79293144
vn -0.4714204 0.839128 -0.27134284
vn -0.0002951622 0.0002951622 -0.99999994
vn -0.68591654 0.60931075 -0.39781764
vn -0.4714204 0.839128 0.27134284
vn -0.86594 0.0002951622 -0.5001478
vn -0.68591654 0.60931075 0.39781764
vn -0.0002951622 0.839128 0.5439339
vn -0.86594 0.0002951622 0.5001478
vn -0.0002951622 0.60931075 0.79293144
vn -0.0002951622 0.0002951622 0.99999994
vn 0.62404156 0.4695053 -0.62460935
vn -0.85253394 0.4695053 -0.22967516
vn -0.22819722 0.4695053 -0.8529307
vn -0.6246319 0.4695053 0.6240191
vn 0.22952205 0.4695053 0.8525751
vn 0.85385877 0.4695053 0.22469978
vn -0.0002951622 0.80465543 -0.593742
vn 0.29655206 0.80465543 -0.51437974
vn 0.2486735 0.8678551 -0.4301036
vn 0.428697 0.7950797 -0.42903054
vn 0.0016199946 0.8678551 -0.49681485
vn -0.2971424 0.80465543 -0.5140389
vn -0.24926376 0.8678551 -0.42976177
vn -0.5135536 0.80465543 -0.2979804
vn -0.4292873 0.8678551 -0.25008
vn -0.5939023 0.8045372 -0
vn -0.49631727 0.8678551 0.022287779
vn -0.5135536 0.80465543 0.2979804
vn -0.5001476 0.85636425 -0.12842377
vn -0.4312024 0.8678551 0.24676326
vn -0.4292873 0.7950797 0.4284398
vn -0.13435519 0.85636425 -0.49858692
vn 0.36549723 0.85636425 -0.36476302
vn -0.36608756 0.85636425 0.3641705
vn -0.3488512 0.8697703 0.34900206
vn -0.24734867 0.8678551 0.43086684
vn -0.2971424 0.80465543 0.5140389
vn -0.0002951622 0.80465543 0.593742
vn -0.0002951622 0.8678551 0.4968174
vn 0.29655206 0.80465543 0.51437974
vn 0.13376486 0.85636425 0.49874565
vn 0.2486735 0.8678551 0.4301036
vn 0.5148784 0.80465543 0.29568544
vn 0.4306121 0.8678551 0.24779192
vn 0.5933993 0.80465543 -0.020172281
vn 0.49955726 0.85636425 0.13070123
vn 0.4974382 0.8674994 -0
vn 0.5148784 0.80465543 -0.29568544
vn 0.4306121 0.8678551 -0.24779192
vn 0.3501761 0.8697703 -0.3476727
g febg_tropical_003_parasol_01_0
f 3/3/3 2/2/2 1/1/1
f 2/2/2 4/4/4 1/1/1
f 5/5/5 4/4/4 2/2/2
f 6/6/6 5/5/5 2/2/2
f 6/6/6 7/7/7 5/5/5
f 7/7/7 8/8/8 5/5/5
f 7/7/7 9/9/9 8/8/8
f 9/9/9 10/10/10 8/8/8
f 9/9/9 11/11/11 10/10/10
f 11/11/11 12/12/12 10/10/10
f 11/11/11 13/13/13 12/12/12
f 13/13/13 14/14/14 12/12/12
f 17/17/17 16/16/16 15/15/15
f 16/16/16 18/18/18 15/15/15
f 15/15/15 18/18/18 19/19/19
f 18/18/18 20/20/20 19/19/19
f 19/19/19 20/20/20 21/21/21
f 20/20/20 22/22/22 21/21/21
f 21/21/21 22/22/22 23/23/23
f 22/22/22 24/24/24 23/23/23
f 23/23/23 24/24/24 25/25/25
f 24/24/24 26/26/26 25/25/25
f 25/25/25 26/26/26 27/27/27
f 26/26/26 28/28/28 27/27/27
f 31/31/31 30/30/30 29/29/29
f 32/32/32 31/31/31 29/29/29
f 32/32/32 33/33/33 31/31/31
f 34/34/34 33/33/33 32/32/32
f 31/31/31 33/33/33 35/35/35
f 34/34/34 32/32/32 36/36/36
f 37/37/37 34/34/34 36/36/36
f 31/31/31 35/35/35 38/38/38
f 39/39/39 31/31/31 38/38/38
f 40/40/40 33/33/33 34/34/34
f 40/40/40 34/34/34 41/41/41
f 42/42/42 40/40/40 41/41/41
f 43/43/43 40/40/40 42/42/42
f 43/43/43 33/33/33 40/40/40
f 44/44/44 43/43/43 42/42/42
f 45/45/45 33/33/33 43/43/43
f 45/45/45 43/43/43 46/46/46
f 47/47/47 45/45/45 46/46/46
f 35/35/35 33/33/33 48/48/48
f 35/35/35 48/48/48 49/49/49
f 50/50/50 35/35/35 49/49/49
f 49/49/49 48/48/48 51/51/51
f 48/48/48 52/52/52 51/51/51
f 48/48/48 33/33/33 52/52/52
f 53/53/53 33/33/33 45/45/45
f 52/52/52 33/33/33 53/53/53
f 53/53/53 45/45/45 54/54/54
f 45/45/45 55/55/55 54/54/54
f 52/52/52 53/53/53 56/56/56
f 57/57/57 52/52/52 56/56/56
f 60/60/60 59/59/59 58/58/58
f 59/59/59 61/61/61 58/58/58
f 59/59/59 62/62/62 61/61/61
f 61/61/61 63/63/63 58/58/58
f 63/63/63 64/64/64 58/58/58
f 62/62/62 65/65/65 61/61/61
f 62/62/62 66/66/66 65/65/65
f 63/63/63 67/67/67 64/64/64
f 67/67/67 68/68/68 64/64/64
f 69/69/69 67/67/67 63/63/63
f 70/70/70 63/63/63 61/61/61
f 70/70/70 69/69/69 63/63/63
f 65/65/65 70/70/70 61/61/61
f 71/71/71 69/69/69 70/70/70
f 72/72/72 71/71/71 70/70/70
f 72/72/72 70/70/70 65/65/65
f 73/73/73 71/71/71 72/72/72
f 66/66/66 74/74/74 65/65/65
f 74/74/74 72/72/72 65/65/65
f 66/66/66 75/75/75 74/74/74
f 76/76/76 73/73/73 72/72/72
f 76/76/76 72/72/72 74/74/74
f 77/77/77 73/73/73 76/76/76
f 75/75/75 78/78/78 74/74/74
f 78/78/78 76/76/76 74/74/74
f 75/75/75 79/79/79 78/78/78
f 80/80/80 77/77/77 76/76/76
f 80/80/80 76/76/76 78/78/78
f 81/81/81 77/77/77 80/80/80
f 82/82/82 81/81/81 80/80/80
f 79/79/79 83/83/83 78/78/78
f 83/83/83 80/80/80 78/78/78
f 82/82/82 80/80/80 83/83/83
f 79/79/79 84/84/84 83/83/83
f 85/85/85 82/82/82 83/83/83
f 84/84/84 85/85/85 83/83/83
f 88/88/88 87/87/87 86/86/86
f 89/89/89 88/88/88 86/86/86
f 86/86/86 90/90/90 89/89/89
f 91/91/91 88/88/88 89/89/89
f 90/90/90 92/92/92 89/89/89
f 92/92/92 90/90/90 93/93/93
f 94/94/94 91/91/91 89/89/89
f 89/89/89 92/92/92 94/94/94
f 95/95/95 91/91/91 94/94/94
f 96/96/96 92/92/92 93/93/93
f 96/96/96 93/93/93 97/97/97
f 98/98/98 96/96/96 97/97/97
f 99/99/99 95/95/95 94/94/94
f 100/100/100 95/95/95 99/99/99
f 92/92/92 101/101/101 94/94/94
f 101/101/101 92/92/92 96/96/96
f 94/94/94 101/101/101 99/99/99
f 102/102/102 96/96/96 98/98/98
f 102/102/102 101/101/101 96/96/96
f 103/103/103 102/102/102 98/98/98
f 104/104/104 100/100/100 99/99/99
f 105/105/105 100/100/100 104/104/104
f 101/101/101 106/106/106 99/99/99
f 106/106/106 101/101/101 102/102/102
f 99/99/99 106/106/106 104/104/104
f 107/107/107 102/102/102 103/103/103
f 107/107/107 106/106/106 102/102/102
f 108/108/108 107/107/107 103/103/103
f 109/109/109 105/105/105 104/104/104
f 110/110/110 105/105/105 109/109/109
f 111/111/111 110/110/110 109/109/109
f 106/106/106 112/112/112 104/104/104
f 112/112/112 106/106/106 107/107/107
f 104/104/104 112/112/112 109/109/109
f 113/113/113 107/107/107 108/108/108
f 113/113/113 112/112/112 107/107/107
f 114/114/114 113/113/113 108/108/108
f 109/109/109 115/115/115 111/111/111
f 112/112/112 115/115/115 109/109/109
f 115/115/115 112/112/112 113/113/113
f 115/115/115 116/116/116 111/111/111
f 117/117/117 113/113/113 114/114/114
f 117/117/117 115/115/115 113/113/113
f 116/116/116 115/115/115 117/117/117
f 118/118/118 117/117/117 114/114/114
f 119/119/119 116/116/116 117/117/117
f 119/119/119 117/117/117 118/118/118
f 120/120/120 119/119/119 118/118/118
f 123/123/123 122/122/122 121/121/121
f 122/122/122 124/124/124 121/121/121
f 122/122/122 125/125/125 124/124/124
f 121/121/121 124/124/124 126/126/126
f 125/125/125 127/127/127 124/124/124
f 124/124/124 128/128/128 126/126/126
f 124/124/124 127/127/127 128/128/128
f 126/126/126 128/128/128 129/129/129
f 127/127/127 130/130/130 128/128/128
f 128/128/128 131/131/131 129/129/129
f 128/128/128 130/130/130 131/131/131
f 129/129/129 131/131/131 132/132/132
f 130/130/130 133/133/133 131/131/131
f 131/131/131 134/134/134 132/132/132
f 131/131/131 133/133/133 134/134/134
f 132/132/132 134/134/134 135/135/135
f 133/133/133 136/136/136 134/134/134
f 134/134/134 137/137/137 135/135/135
f 134/134/134 136/136/136 137/137/137
f 135/135/135 137/137/137 138/138/138
f 136/136/136 139/139/139 137/137/137
f 137/137/137 140/140/140 138/138/138
f 137/137/137 139/139/139 140/140/140
f 139/139/139 141/141/141 140/140/140
f 144/144/144 143/143/143 142/142/142
f 143/143/143 145/145/145 142/142/142
f 142/142/142 145/145/145 146/146/146
f 147/147/147 142/142/142 146/146/146
f 150/150/150 149/149/149 148/148/148
f 149/149/149 150/150/150 151/151/151
f 152/152/152 150/150/150 148/148/148
f 152/152/152 148/148/148 153/153/153
f 154/154/154 152/152/152 153/153/153
f 154/154/154 153/153/153 155/155/155
f 156/156/156 154/154/154 155/155/155
f 156/156/156 155/155/155 157/157/157
f 158/158/158 156/156/156 157/157/157
f 158/158/158 157/157/157 159/159/159
f 154/154/154 156/156/156 160/160/160
f 160/160/160 156/156/156 158/158/158
f 161/161/161 158/158/158 159/159/159
f 160/160/160 158/158/158 161/161/161
f 161/161/161 159/159/159 162/162/162
f 163/163/163 154/154/154 160/160/160
f 163/163/163 152/152/152 154/154/154
f 163/163/163 164/164/164 152/152/152
f 164/164/164 150/150/150 152/152/152
f 165/165/165 160/160/160 161/161/161
f 166/166/166 161/161/161 162/162/162
f 161/161/161 166/166/166 165/165/165
f 167/167/167 166/166/166 162/162/162
f 165/165/165 166/166/166 167/167/167
f 168/168/168 167/167/167 162/162/162
f 167/167/167 168/168/168 169/169/169
f 165/165/165 167/167/167 170/170/170
f 170/170/170 167/167/167 169/169/169
f 170/170/170 169/169/169 171/171/171
f 172/172/172 165/165/165 170/170/170
f 173/173/173 170/170/170 171/171/171
f 172/172/172 170/170/170 173/173/173
f 173/173/173 171/171/171 174/174/174
f 172/172/172 173/173/173 175/175/175
f 175/175/175 173/173/173 174/174/174
f 175/175/175 174/174/174 176/176/176
f 177/177/177 172/172/172 175/175/175
f 178/178/178 175/175/175 176/176/176
f 177/177/177 175/175/175 178/178/178
f 178/178/178 176/176/176 179/179/179
f 177/177/177 178/178/178 180/180/180
f 180/180/180 178/178/178 179/179/179
f 164/164/164 177/177/177 180/180/180
f 180/180/180 179/179/179 151/151/151
f 180/180/180 181/181/181 164/164/164
f 181/181/181 180/180/180 151/151/151
f 164/164/164 181/181/181 150/150/150
f 150/150/150 181/181/181 151/151/151
