g febg_shop_001_cooker_06
v -4.172325E-07 0.16397506 0.41209418
v 0.24724235 0.2433815 0.24724239
v 0.29139477 0.16397506 0.29139483
v -4.172325E-07 0.2433815 0.34965295
v -0.29139483 0.16397506 0.29139483
v 0.34965292 0.2433815 4.172325E-07
v 0.41209418 0.16397506 4.172325E-07
v -0.24724239 0.2433815 0.24724239
v -0.41209418 0.16397506 4.172325E-07
v 0.24724235 0.2433815 -0.24724157
v 0.29139477 0.16397506 -0.29139477
v -0.34965295 0.2433815 4.172325E-07
v -0.29139483 0.16397506 -0.29139477
v -4.172325E-07 0.2433815 -0.34965292
v -4.172325E-07 0.16397506 -0.41209418
v -0.24724239 0.2433815 -0.24724157
v 0.17991605 0.29421896 0.17991608
v 0.25443906 0.29421896 4.172325E-07
v -4.172325E-07 0.32711732 4.172325E-07
v -4.172325E-07 0.29421896 0.25443906
v 0.17991605 0.29421896 -0.17991605
v -0.17991608 0.29421896 0.17991608
v -4.172325E-07 0.29421896 -0.25443906
v -0.25443906 0.29421896 4.172325E-07
v -0.17991608 0.29421896 -0.17991605
vt 0.57958764 0.81556994
vt 0.55028266 0.79209334
vt 0.5422594 0.8001166
vt 0.57958764 0.80422467
vt 0.61691594 0.8001166
vt 0.5381513 0.76278836
vt 0.52680606 0.76278836
vt 0.60890746 0.79209334
vt 0.63238406 0.7628032
vt 0.55028266 0.73349816
vt 0.5422742 0.7254749
vt 0.6210388 0.7628032
vt 0.61691594 0.7254749
vt 0.5796025 0.7213669
vt 0.5796025 0.71002156
vt 0.60890746 0.73349816
vt 0.5586915 0.7836548
vt 0.5500602 0.76278836
vt 0.57958764 0.7628032
vt 0.57958764 0.79234546
vt 0.5586915 0.74193674
vt 0.6004986 0.7836548
vt 0.57958764 0.7332461
vt 0.6091299 0.7628032
vt 0.6004986 0.74193674
vn 0.00041252375 0.61764336 0.7864582
vn 0.473557 0.74160373 0.47515017
vn 0.55561525 0.61764336 0.5566043
vn 0.00041252375 0.74160373 0.67083806
vn -0.5565362 0.61764336 0.5556835
vn 0.6708425 0.74159986 -0
vn 0.7860768 0.61764336 -0.024494497
vn -0.4744779 0.74160373 0.4742306
vn -0.78525174 0.61764336 -0.043547463
vn 0.473557 0.74160373 -0.47515017
vn 0.55561525 0.61764336 -0.5566043
vn -0.67002094 0.74160373 -0.033103343
vn -0.5565362 0.61764336 -0.5556835
vn 0.00041252375 0.74160373 -0.67083806
vn 0.00041252375 0.61764336 -0.7864582
vn -0.4744779 0.74160373 -0.4742306
vn 0.24309546 0.9388927 0.2436905
vn 0.34434122 0.9388446 -0
vn 0.00041252375 1 -0
vn 0.00041252375 0.9388927 0.3442096
vn 0.24309546 0.9388927 -0.2436905
vn -0.24401641 0.9388927 0.24276824
vn 0.00041252375 0.9388927 -0.3442096
vn -0.34353387 0.9388927 -0.021561917
vn -0.24401641 0.9388927 -0.24276824
g febg_shop_001_cooker_06_0
f 3/3/3 2/2/2 1/1/1
f 2/2/2 4/4/4 1/1/1
f 1/1/1 4/4/4 5/5/5
f 6/6/6 2/2/2 3/3/3
f 7/7/7 6/6/6 3/3/3
f 4/4/4 8/8/8 5/5/5
f 5/5/5 8/8/8 9/9/9
f 10/10/10 6/6/6 7/7/7
f 11/11/11 10/10/10 7/7/7
f 8/8/8 12/12/12 9/9/9
f 9/9/9 12/12/12 13/13/13
f 14/14/14 10/10/10 11/11/11
f 15/15/15 14/14/14 11/11/11
f 13/13/13 16/16/16 15/15/15
f 12/12/12 16/16/16 13/13/13
f 16/16/16 14/14/14 15/15/15
f 2/2/2 17/17/17 4/4/4
f 6/6/6 18/18/18 2/2/2
f 18/18/18 17/17/17 2/2/2
f 18/18/18 19/19/19 17/17/17
f 17/17/17 20/20/20 4/4/4
f 4/4/4 20/20/20 8/8/8
f 17/17/17 19/19/19 20/20/20
f 21/21/21 18/18/18 6/6/6
f 10/10/10 21/21/21 6/6/6
f 21/21/21 19/19/19 18/18/18
f 20/20/20 22/22/22 8/8/8
f 8/8/8 22/22/22 12/12/12
f 20/20/20 19/19/19 22/22/22
f 23/23/23 21/21/21 10/10/10
f 14/14/14 23/23/23 10/10/10
f 23/23/23 19/19/19 21/21/21
f 22/22/22 24/24/24 12/12/12
f 12/12/12 24/24/24 16/16/16
f 22/22/22 19/19/19 24/24/24
f 25/25/25 23/23/23 14/14/14
f 16/16/16 25/25/25 14/14/14
f 24/24/24 25/25/25 16/16/16
f 25/25/25 19/19/19 23/23/23
f 24/24/24 19/19/19 25/25/25
