g febg_hotspring_001_wall_02
v -0.6003418 0.7045566 -0.120260626
v 0.60012674 0.7045566 0.12025994
v -0.6003418 0.7045566 0.12025994
v 0.60012674 0.7045566 -0.120260626
v 0.60012907 0.0014314651 -0.120260626
v -0.6003418 0.0014314651 -0.120260626
v -0.6003418 1.8589113 -0.06257957
v 0.6003402 1.8589113 0.050486386
v -0.6003418 1.8589113 0.050486386
v 0.6003402 1.8589113 -0.06257957
v -0.6003418 1.6850262 -0.06257957
v 0.6003425 1.6850286 -0.06257957
v 0.01639539 1.5486827 -0.021433115
v 0.39046836 1.5486827 -0.021433115
v 0.39046836 1.5486827 0.041238785
v 0.01639539 1.5486827 0.04056096
v -0.36536092 1.5486827 0.041238785
v -0.36536092 1.5486827 -0.021433115
v 0.39046836 1.5486827 -0.021433115
v 0.320472 1.4786842 -0.021433115
v 0.32049313 0.92839 -0.021433115
v 0.3904965 0.858389 -0.021433115
v 0.01639539 0.858389 -0.0214355
v 0.01639539 0.92839 -0.0214355
v -0.29538566 0.92839 -0.021433115
v -0.36538905 0.858389 -0.021433115
v -0.36536092 1.5486827 -0.021433115
v -0.29536456 1.4786842 -0.021433115
v 0.320472 1.4786842 -0.021433115
v 0.320472 1.4786818 0.039859712
v 0.32049313 0.92838776 0.039859712
v 0.32049313 0.92839 -0.021433115
v 0.01639539 0.92839 -0.0214355
v 0.32049313 0.92839 -0.021433115
v 0.32049313 0.92838776 0.039859712
v 0.01639539 0.92838776 0.039859712
v -0.29538566 0.92838776 0.039859712
v -0.29538566 0.92839 -0.021433115
v 0.36870605 1.2496228 -0.0112473965
v 0.5597167 1.2499722 -0.0112473965
v 0.559651 1.2533308 0.028269112
v 0.36868966 1.2513185 0.028269112
v 0.3904965 0.858389 -0.021433115
v 0.3904965 0.858389 0.042589664
v 0.39046836 1.5486827 0.041238785
v 0.39046836 1.5486827 -0.021433115
v 0.01639539 1.5486827 -0.021433115
v 0.320472 1.4786842 -0.021433115
v 0.39046836 1.5486827 -0.021433115
v 0.01639539 1.4786842 -0.021433115
v -0.29536456 1.4786842 -0.021433115
v -0.36536092 1.5486827 -0.021433115
v 0.36870605 1.2496228 -0.0112473965
v 0.3258569 1.1688919 -0.0112473965
v 0.56008494 1.1688684 -0.0112473965
v 0.5597167 1.2499722 -0.0112473965
v -0.29536456 1.4786842 -0.021433115
v -0.29538566 0.92839 -0.021433115
v -0.29538566 0.92838776 0.039859712
v -0.29536456 1.4786818 0.039859712
v -0.53454363 1.2533308 0.028269112
v -0.5346093 1.2499722 -0.0112473965
v -0.3435986 1.2496228 -0.0112473965
v -0.3435822 1.2513185 0.028269112
v -0.36538905 0.858389 -0.021433115
v -0.36536092 1.5486827 -0.021433115
v -0.36536092 1.5486827 0.041238785
v -0.36538905 0.858389 0.042589664
v -0.3435986 1.2496228 -0.0112473965
v -0.5346093 1.2499722 -0.0112473965
v -0.53497756 1.1688684 -0.0112473965
v -0.30074948 1.1688919 -0.0112473965
vt 0.30921447 0.8007955
vt 0.1951335 0.8233107
vt 0.30921447 0.8233107
vt 0.1951335 0.8007955
vt 0.1951335 0.73498195
vt 0.30921447 0.73498195
vt 0.28639 0.6144887
vt 0.17230907 0.62539583
vt 0.28639 0.62539583
vt 0.17230907 0.6144887
vt 0.28639 0.59772605
vt 0.17230907 0.59772605
vt 0.07682583 0.69357014
vt 0.040279925 0.69357014
vt 0.040279925 0.68894136
vt 0.07682583 0.68894136
vt 0.040279925 0.68894136
vt 0.040279925 0.69357014
vt 0.0043525696 0.69357014
vt 0.0043525696 0.69870406
vt 0.04540357 0.69870406
vt 0.040279925 0.69357014
vt 0.07682583 0.69357014
vt 0.07938248 0.69870406
vt 0.04540357 0.69870406
vt 0.040279925 0.69357014
vt 0.0043525696 0.69357014
vt 0.0043525696 0.69870406
vt 0.0043525696 0.69870406
vt 0.0043525696 0.70319885
vt 0.04540357 0.70319885
vt 0.04540357 0.69870406
vt 0.07938248 0.69870406
vt 0.04540357 0.69870406
vt 0.04540357 0.70319885
vt 0.07938248 0.70319885
vt 0.04540357 0.70319885
vt 0.04540357 0.69870406
vt 0.07644439 0.67486936
vt 0.06368166 0.67486936
vt 0.06368166 0.6723333
vt 0.07512483 0.6723333
vt 0.040279925 0.69357014
vt 0.040279925 0.69357014
vt 0.0043525696 0.69357014
vt 0.0043525696 0.69357014
vt 0.07682583 0.69357014
vt 0.04540357 0.69870406
vt 0.040279925 0.69357014
vt 0.07938248 0.69870406
vt 0.04540357 0.69870406
vt 0.040279925 0.69357014
vt 0.07644439 0.67486936
vt 0.07931033 0.6802817
vt 0.06368166 0.6802817
vt 0.06368166 0.67486936
vt 0.0043525696 0.69870406
vt 0.04540357 0.69870406
vt 0.04540357 0.70319885
vt 0.0043525696 0.70319885
vt 0.06368166 0.6723333
vt 0.06368166 0.67486936
vt 0.07644439 0.67486936
vt 0.07512483 0.6723333
vt 0.040279925 0.69357014
vt 0.0043525696 0.69357014
vt 0.0043525696 0.69357014
vt 0.040279925 0.69357014
vt 0.07644439 0.67486936
vt 0.06368166 0.67486936
vt 0.06368166 0.6802817
vt 0.07931033 0.6802817
vn -0.0009775162 0.70674455 -0.70746815
vn -0.0009775162 0.9999995 -0
vn -0.0009775162 0.9999995 -0
vn -0.0009775162 0.70674455 -0.70746815
vn -0.0009775162 0.0009775162 -0.99999905
vn -0.0009775162 0.0009775162 -0.99999905
vn -0.0009775162 0.70674455 -0.70746815
vn -0.0009775162 0.9999995 -0
vn -0.0009775162 0.9999995 -0
vn -0.0009775162 0.70674455 -0.70746815
vn -0.0009775162 0.0009775162 -0.99999905
vn -0.0009775162 0.0009775162 -0.99999905
vn -0.0009775162 0.9999995 -0
vn -0.0009775162 0.9999995 -0
vn -0.0009775162 0.9999995 -0
vn -0.0009775162 0.9999995 -0
vn -0.0009775162 0.9999995 -0
vn -0.0009775162 0.9999995 -0
vn -0.0009775162 0.0009775162 -0.99999905
vn -0.0009775162 0.0009775162 -0.99999905
vn -0.0009775162 0.0009775162 -0.99999905
vn -0.0009775162 0.0009775162 -0.99999905
vn -0.0009775162 0.0009775162 -0.99999905
vn -0.0009775162 0.0009775162 -0.99999905
vn -0.0009775162 0.0009775162 -0.99999905
vn -0.0009775162 0.0009775162 -0.99999905
vn -0.0009775162 0.0009775162 -0.99999905
vn -0.0009775162 0.0009775162 -0.99999905
vn -0.9999995 -0.0009775162 -0
vn -0.9999995 -0.0009775162 -0
vn -0.9999995 -0.0009775162 -0
vn -0.9999995 -0.0009775162 -0
vn -0.0009775162 0.9999995 -0
vn -0.0009775162 0.9999995 -0
vn -0.0009775162 0.9999995 -0
vn -0.0009775162 0.9999995 -0
vn -0.0009775162 0.9999995 -0
vn -0.0009775162 0.9999995 -0
vn -0.006842613 0.9980445 -0.06213175
vn -0.006842613 0.9980445 -0.06213175
vn -0.006842613 0.9980445 -0.06213175
vn -0.006842613 0.9980445 -0.06213175
vn 0.9999995 0.0009775162 -0
vn 0.9999995 0.0009775162 -0
vn 0.9999995 0.0009775162 -0
vn 0.9999995 0.0009775162 -0
vn -0.0009775162 0.0009775162 -0.99999905
vn -0.0009775162 0.0009775162 -0.99999905
vn -0.0009775162 0.0009775162 -0.99999905
vn -0.0009775162 0.0009775162 -0.99999905
vn -0.0009775162 0.0009775162 -0.99999905
vn -0.0009775162 0.0009775162 -0.99999905
vn -0.0009775162 0.0009775162 -0.99999905
vn -0.0009775162 0.0009775162 -0.99999905
vn -0.0009775162 0.0009775162 -0.99999905
vn -0.0009775162 0.0009775162 -0.99999905
vn 0.9999995 -0.0009775162 -0
vn 0.9999995 -0.0009775162 -0
vn 0.9999995 -0.0009775162 -0
vn 0.9999995 -0.0009775162 -0
vn 0.006842613 0.9980445 -0.06213175
vn 0.006842613 0.9980445 -0.06213175
vn 0.006842613 0.9980445 -0.06213175
vn 0.006842613 0.9980445 -0.06213175
vn -0.9999995 0.0009775162 -0
vn -0.9999995 0.0009775162 -0
vn -0.9999995 0.0009775162 -0
vn -0.9999995 0.0009775162 -0
vn -0.0009775162 0.0009775162 -0.99999905
vn -0.0009775162 0.0009775162 -0.99999905
vn -0.0009775162 0.0009775162 -0.99999905
vn -0.0009775162 0.0009775162 -0.99999905
g febg_hotspring_001_wall_02_0
f 3/3/3 2/2/2 1/1/1
f 2/2/2 4/4/4 1/1/1
f 1/1/1 4/4/4 5/5/5
f 6/6/6 1/1/1 5/5/5
f 9/9/9 8/8/8 7/7/7
f 8/8/8 10/10/10 7/7/7
f 11/11/11 7/7/7 10/10/10
f 12/12/12 11/11/11 10/10/10
f 15/15/15 14/14/14 13/13/13
f 16/16/16 15/15/15 13/13/13
f 16/16/16 13/13/13 17/17/17
f 13/13/13 18/18/18 17/17/17
f 21/21/21 20/20/20 19/19/19
f 22/22/22 21/21/21 19/19/19
f 21/21/21 22/22/22 23/23/23
f 24/24/24 21/21/21 23/23/23
f 24/24/24 23/23/23 25/25/25
f 23/23/23 26/26/26 25/25/25
f 25/25/25 26/26/26 27/27/27
f 28/28/28 25/25/25 27/27/27
f 31/31/31 30/30/30 29/29/29
f 32/32/32 31/31/31 29/29/29
f 35/35/35 34/34/34 33/33/33
f 36/36/36 35/35/35 33/33/33
f 36/36/36 33/33/33 37/37/37
f 33/33/33 38/38/38 37/37/37
f 41/41/41 40/40/40 39/39/39
f 42/42/42 41/41/41 39/39/39
f 45/45/45 44/44/44 43/43/43
f 46/46/46 45/45/45 43/43/43
f 49/49/49 48/48/48 47/47/47
f 48/48/48 50/50/50 47/47/47
f 50/50/50 51/51/51 47/47/47
f 51/51/51 52/52/52 47/47/47
f 55/55/55 54/54/54 53/53/53
f 56/56/56 55/55/55 53/53/53
f 59/59/59 58/58/58 57/57/57
f 60/60/60 59/59/59 57/57/57
f 63/63/63 62/62/62 61/61/61
f 64/64/64 63/63/63 61/61/61
f 67/67/67 66/66/66 65/65/65
f 68/68/68 67/67/67 65/65/65
f 71/71/71 70/70/70 69/69/69
f 72/72/72 71/71/71 69/69/69
