g febg_oldcastle_001_hatchet_01
v 0.46905363 0.5054781 0.07021958
v 0.30045778 0.33619273 0.07021958
v 0.300113 0.50513333 0.07021958
v 0.46939838 0.33653748 0.07021958
v 0.16144723 -7.736683E-05 4.172325E-07
v 0.608597 7.7068806E-05 4.172325E-07
v 0.30045778 0.33619273 0.07021958
v 0.16144723 -7.736683E-05 4.172325E-07
v 0.30045778 0.33619273 -0.07021874
v 0.300113 0.50513333 0.07021958
v 0.300113 0.50513333 -0.07021874
v 0.30000854 0.5563095 4.172325E-07
v 0.30045778 0.33619273 -0.07021874
v 0.16144723 -7.736683E-05 4.172325E-07
v 0.608597 7.7068806E-05 4.172325E-07
v 0.46939838 0.33653748 -0.07021874
v 0.300113 0.50513333 -0.07021874
v 0.46905363 0.5054781 -0.07021874
v 0.30000854 0.5563095 4.172325E-07
v 0.46894917 0.55665547 4.172325E-07
v 0.46939838 0.33653748 -0.07021874
v 0.608597 7.7068806E-05 4.172325E-07
v 0.46939838 0.33653748 0.07021958
v 0.46905363 0.5054781 -0.07021874
v 0.46905363 0.5054781 0.07021958
v 0.46894917 0.55665547 4.172325E-07
v 0.300113 0.50513333 0.07021958
v 0.30000854 0.5563095 4.172325E-07
v 0.46894917 0.55665547 4.172325E-07
v 0.46905363 0.5054781 0.07021958
v 0.52361125 0.49518186 -0.042185366
v 0.52361125 0.49518186 0.043975055
v -0.04638374 0.4758336 0.032358944
v -0.04638374 0.4758336 -0.030569255
v 0.5239131 0.34705663 -0.042185366
v -0.6085897 0.497876 0.042553067
v -0.04616201 0.36764926 -0.030569255
v -0.6085897 0.497876 -0.040762246
v -0.60829717 0.35464364 -0.040762246
v 0.52361125 0.49518186 0.043975055
v 0.5239131 0.34705663 0.043975055
v -0.04616201 0.36764926 0.032358944
v -0.04638374 0.4758336 0.032358944
v -0.6085897 0.497876 0.042553067
v -0.60829717 0.35464364 0.042553067
v -0.60829717 0.35464364 -0.040762246
v -0.6085897 0.497876 -0.040762246
v -0.6085897 0.497876 0.042553067
v -0.60829717 0.35464364 0.042553067
v 0.5239131 0.34705663 0.043975055
v 0.52361125 0.49518186 0.043975055
v 0.52361125 0.49518186 -0.042185366
v 0.5239131 0.34705663 -0.042185366
vt 0.115707375 0.20773095
vt 0.10218775 0.1943916
vt 0.10218775 0.20773095
vt 0.115707375 0.1943916
vt 0.093099564 0.16693173
vt 0.12850595 0.16693173
vt 0.10218775 0.1943916
vt 0.093099564 0.16693173
vt 0.09099651 0.1943916
vt 0.10218775 0.20773095
vt 0.09099651 0.20773095
vt 0.0969151 0.21181688
vt 0.115707375 0.1943916
vt 0.12850595 0.16693173
vt 0.093099564 0.16693173
vt 0.10218775 0.1943916
vt 0.115707375 0.20773095
vt 0.10218775 0.20773095
vt 0.115707375 0.21446072
vt 0.10218775 0.21446072
vt 0.10218775 0.1943916
vt 0.093099564 0.16693173
vt 0.09099651 0.1943916
vt 0.10218775 0.20773095
vt 0.09099651 0.20773095
vt 0.0969151 0.21181688
vt 0.115707375 0.20773095
vt 0.115707375 0.21446072
vt 0.10218775 0.21446072
vt 0.10218775 0.20773095
vt 0.013994739 0.17747703
vt 0.013994739 0.18229903
vt 0.046021227 0.18168314
vt 0.046021227 0.1780779
vt 0.014355263 0.16923007
vt 0.07762711 0.18219389
vt 0.046006206 0.17199408
vt 0.07762711 0.17755215
vt 0.07722151 0.16957557
vt 0.013994739 0.17747703
vt 0.014355263 0.16923007
vt 0.046006206 0.17199408
vt 0.046021227 0.1780779
vt 0.07762711 0.17755215
vt 0.07722151 0.16957557
vt 0.0057027033 0.17747703
vt 0.013994739 0.17747703
vt 0.013994739 0.18229903
vt 0.0057027033 0.18231405
vt 0.0057027033 0.18231405
vt 0.013994739 0.18229903
vt 0.013994739 0.17747703
vt 0.0057027033 0.17747703
vn 0.00879246 0.26279837 0.96481067
vn -0.0048847795 -0.14165705 0.98990375
vn 0.00879246 0.26279837 0.96481067
vn -0.0048847795 -0.14165705 0.98990375
vn -0.0048847795 -0.16705763 0.98593503
vn -0.0048847795 -0.16705763 0.98593503
vn -0.96996987 0.2432251 -0
vn -0.8996398 0.436633 -0
vn -0.96996987 0.2432251 -0
vn -0.9994152 0.034193214 -0
vn -0.9994152 0.034193214 -0
vn -0.9994152 0.034193214 -0
vn -0.0048847795 -0.14165705 -0.98990375
vn -0.0048847795 -0.16705763 -0.98593503
vn -0.0048847795 -0.16705763 -0.98593503
vn -0.0048847795 -0.14165705 -0.98990375
vn 0.00879246 0.26279837 -0.96481067
vn 0.00879246 0.26279837 -0.96481067
vn 0.034193035 0.9994152 -0
vn 0.034193035 0.9994152 -0
vn 0.9837841 0.17878109 -0.0143592255
vn 0.92664737 0.37593183 -0
vn 0.9837841 0.17878109 -0.0143592255
vn 0.9994152 -0.03419304 -0.00020185481
vn 0.9994152 -0.03419304 -0.00020185481
vn 0.9994152 -0.03419304 -0.00020185481
vn 0.00879246 0.26279837 0.96481067
vn 0.034193035 0.9994152 -0
vn 0.034193035 0.9994152 -0
vn 0.00879246 0.26279837 0.96481067
vn -0.014654219 0.45818752 -0.88873476
vn -0.014654219 0.45818752 0.88873476
vn 0.0127002 0.45037192 0.89275074
vn 0.0127002 0.45037192 -0.89275074
vn -0.043962657 -0.4562335 -0.88877344
vn 0.03614694 0.45623368 0.8891256
vn -0.016608179 -0.4503718 -0.8926866
vn 0.03614694 0.45623368 -0.8891256
vn 0.00683856 -0.4581874 -0.8888293
vn -0.014654219 0.45818752 0.88873476
vn -0.043962657 -0.4562335 0.88877344
vn -0.016608179 -0.4503718 0.8926866
vn 0.0127002 0.45037192 0.89275074
vn 0.03614694 0.45623368 0.8891256
vn 0.00683856 -0.4581874 0.8888293
vn -0.9994152 0.034193214 -0
vn -0.9994152 0.034193214 -0
vn -0.9994152 0.034193214 -0
vn -0.9994152 0.034193214 -0
vn 0.9994152 -0.03419304 -0.00020185481
vn 0.9994152 -0.03419304 -0.00020185481
vn 0.9994152 -0.03419304 -0.00020185481
vn 0.9994152 -0.03419304 -0.00020185481
g febg_oldcastle_001_hatchet_01_0
f 3/3/3 2/2/2 1/1/1
f 2/2/2 4/4/4 1/1/1
f 2/2/2 5/5/5 4/4/4
f 5/5/5 6/6/6 4/4/4
f 9/9/9 8/8/8 7/7/7
f 7/7/7 10/10/10 9/9/9
f 10/10/10 11/11/11 9/9/9
f 10/10/10 12/12/12 11/11/11
f 15/15/15 14/14/14 13/13/13
f 16/16/16 15/15/15 13/13/13
f 13/13/13 17/17/17 16/16/16
f 17/17/17 18/18/18 16/16/16
f 17/17/17 19/19/19 18/18/18
f 19/19/19 20/20/20 18/18/18
f 23/23/23 22/22/22 21/21/21
f 21/21/21 24/24/24 23/23/23
f 24/24/24 25/25/25 23/23/23
f 24/24/24 26/26/26 25/25/25
f 29/29/29 28/28/28 27/27/27
f 30/30/30 29/29/29 27/27/27
f 33/33/33 32/32/32 31/31/31
f 34/34/34 33/33/33 31/31/31
f 34/34/34 31/31/31 35/35/35
f 36/36/36 33/33/33 34/34/34
f 37/37/37 34/34/34 35/35/35
f 38/38/38 36/36/36 34/34/34
f 37/37/37 39/39/39 34/34/34
f 39/39/39 38/38/38 34/34/34
f 42/42/42 41/41/41 40/40/40
f 43/43/43 42/42/42 40/40/40
f 43/43/43 44/44/44 42/42/42
f 44/44/44 45/45/45 42/42/42
f 48/48/48 47/47/47 46/46/46
f 49/49/49 48/48/48 46/46/46
f 52/52/52 51/51/51 50/50/50
f 53/53/53 52/52/52 50/50/50
