g febg_coinrush_001_cup_02
v -0.08470404 1.0430813E-07 -0.08470422
v -0.14074822 0.2518922 1.0430813E-07
v -0.11978905 1.0430813E-07 -1.0281801E-06
v -0.09952296 0.25189257 -0.099523515
v -0.117486164 0.2518922 1.0430813E-07
v 1.4007092E-06 1.0430813E-07 -0.11978845
v -0.08307518 0.25189257 -0.0830746
v 6.4074993E-07 0.2518922 -0.14074801
v 0.0847016 4.7683716E-07 -0.084701225
v -1.0430813E-07 0.2518922 -0.11748707
v 0.09952239 0.2518922 -0.099523515
v 0.11978771 4.7683716E-07 1.0430813E-07
v 0.0830746 0.2518922 -0.0830746
v 0.14074726 0.2518922 1.0430813E-07
v 0.117485955 0.2518922 1.0430813E-07
v 0.117485955 0.2518922 1.0430813E-07
v 0.104359925 0.038744986 1.0430813E-07
v 0.07379195 0.038744986 -0.07379157
v 0.0830746 0.2518922 -0.0830746
v 6.4074993E-07 0.038744226 -0.10436068
v -1.0430813E-07 0.2518922 -0.11748707
v -0.073795155 0.038744986 -0.07379532
v -0.08307518 0.25189257 -0.0830746
v -0.104360506 0.038744614 1.0430813E-07
v -0.117486164 0.2518922 1.0430813E-07
v 0.07379195 0.038744986 -0.07379157
v 0.104359925 0.038744986 1.0430813E-07
v -0.104360506 0.038744614 1.0430813E-07
v -0.073795155 0.038744986 -0.07379532
v 6.4074993E-07 0.038744226 -0.10436068
v -0.08470367 1.0430813E-07 0.08470105
v -0.11978905 1.0430813E-07 -1.0281801E-06
v -0.14074822 0.2518922 1.0430813E-07
v -0.09952296 0.2518922 0.09952259
v -0.117486164 0.2518922 1.0430813E-07
v -8.493662E-07 4.7683716E-07 0.11978717
v -0.0830763 0.2518922 0.083074436
v -8.493662E-07 0.25189257 0.14074709
v 0.08470309 1.0430813E-07 0.0847033
v -8.493662E-07 0.25189257 0.11748503
v 0.09952239 0.2518922 0.09952371
v 0.11978771 4.7683716E-07 1.0430813E-07
v 0.0830746 0.2518922 0.083074436
v 0.14074726 0.2518922 1.0430813E-07
v 0.117485955 0.2518922 1.0430813E-07
v 0.117485955 0.2518922 1.0430813E-07
v 0.07379345 0.038744226 0.07379328
v 0.104359925 0.038744986 1.0430813E-07
v 0.0830746 0.2518922 0.083074436
v -8.493662E-07 0.038744986 0.10435863
v -8.493662E-07 0.25189257 0.11748503
v -0.073795155 0.038744986 0.0737914
v -0.0830763 0.2518922 0.083074436
v -0.104360506 0.038744614 1.0430813E-07
v -0.117486164 0.2518922 1.0430813E-07
v -0.104360506 0.038744614 1.0430813E-07
v 0.104359925 0.038744986 1.0430813E-07
v 0.07379345 0.038744226 0.07379328
v -0.073795155 0.038744986 0.0737914
v -8.493662E-07 0.038744986 0.10435863
v 0.0847016 4.7683716E-07 -0.084701225
v -0.11978905 1.0430813E-07 -1.0281801E-06
v 0.11978771 4.7683716E-07 1.0430813E-07
v -0.08470404 1.0430813E-07 -0.08470422
v 1.4007092E-06 1.0430813E-07 -0.11978845
v -0.11978905 1.0430813E-07 -1.0281801E-06
v 0.08470309 1.0430813E-07 0.0847033
v 0.11978771 4.7683716E-07 1.0430813E-07
v -0.08470367 1.0430813E-07 0.08470105
v -8.493662E-07 4.7683716E-07 0.11978717
vt 0.77849257 0.005944466
vt 0.82531965 0.1093435
vt 0.816644 0.005944466
vt 0.78361356 0.1093435
vt 0.82531965 0.11642253
vt 0.74025077 0.005944466
vt 0.78361356 0.11642253
vt 0.7403411 0.1093435
vt 0.7019939 0.005944466
vt 0.7403411 0.11642253
vt 0.6970235 0.1093435
vt 0.66384244 0.005944466
vt 0.6970235 0.11642253
vt 0.6552572 0.1093435
vt 0.6552572 0.11642253
vt 0.9364002 0.07504785
vt 0.9364002 0.009047191
vt 0.91061443 0.009047191
vt 0.91061443 0.07504785
vt 0.88478345 0.009047191
vt 0.88478345 0.07504785
vt 0.8589676 0.009047191
vt 0.8589676 0.07504785
vt 0.8331668 0.009047191
vt 0.8331668 0.07504785
vt 0.9855919 0.021186974
vt 0.99233955 0.005266687
vt 0.9467024 0.005266687
vt 0.95337474 0.021186974
vt 0.96958125 0.027874399
vt 0.77849257 0.005944466
vt 0.816644 0.005944466
vt 0.82531965 0.1093435
vt 0.78361356 0.1093435
vt 0.82531965 0.11642253
vt 0.74025077 0.005944466
vt 0.78361356 0.11642253
vt 0.7403411 0.1093435
vt 0.7019939 0.005944466
vt 0.7403411 0.11642253
vt 0.6970235 0.1093435
vt 0.66384244 0.005944466
vt 0.6970235 0.11642253
vt 0.6552572 0.1093435
vt 0.6552572 0.11642253
vt 0.9364002 0.07504785
vt 0.91061443 0.009047191
vt 0.9364002 0.009047191
vt 0.91061443 0.07504785
vt 0.88478345 0.009047191
vt 0.88478345 0.07504785
vt 0.8589676 0.009047191
vt 0.8589676 0.07504785
vt 0.8331668 0.009047191
vt 0.8331668 0.07504785
vt 0.9467024 0.005266687
vt 0.99233955 0.005266687
vt 0.9855919 0.021186974
vt 0.95337474 0.021186974
vt 0.96958125 0.027874399
vt 0.9855919 0.057094224
vt 0.9467024 0.041173942
vt 0.99233955 0.041173942
vt 0.95337474 0.057094224
vt 0.96958125 0.063796714
vt 0.9467024 0.041173942
vt 0.9855919 0.057094224
vt 0.99233955 0.041173942
vt 0.95337474 0.057094224
vt 0.96958125 0.063796714
vn -0.53078467 -0.6613138 -0.53002995
vn -0.800275 0.59894985 -0.028617613
vn -0.7495474 -0.6613138 -0.029030157
vn -0.56565994 0.59894985 -0.5668226
vn 0.5709553 0.8208831 -0.012688268
vn 0.00026983023 -0.6613138 -0.7501094
vn 0.40450537 0.8208831 0.40314558
vn 0.00026983023 0.59894985 -0.8007865
vn 0.52973914 -0.6613138 -0.5310749
vn 0.00026983023 0.8208831 0.57109624
vn 0.56619954 0.59894985 -0.56628364
vn 0.7500871 -0.6613138 -0.0057825777
vn -0.40396565 0.8208831 0.40368643
vn 0.8007966 0.5989364 -0
vn -0.57041556 0.8208831 -0.027875898
vn -0.57041556 0.8208831 -0.027875898
vn -0.75747365 0.65284795 -0.0048182993
vn -0.5355404 0.65284795 0.5357108
vn -0.40396565 0.8208831 0.40368643
vn 0.00026983023 0.65284795 0.7574889
vn 0.00026983023 0.8208831 0.57109624
vn 0.53608006 0.65284795 0.53517073
vn 0.40450537 0.8208831 0.40314558
vn 0.75642806 0.65284795 -0.040076632
vn 0.5709553 0.8208831 -0.012688268
vn -0.5355404 0.65284795 0.5357108
vn -0.75747365 0.65284795 -0.0048182993
vn 0.75642806 0.65284795 -0.040076632
vn 0.53608006 0.65284795 0.53517073
vn 0.00026983023 0.65284795 0.7574889
vn -0.53078467 -0.6613138 0.53002995
vn -0.7495474 -0.6613138 -0.029030157
vn -0.800275 0.59894985 -0.028617613
vn -0.56565994 0.59894985 0.5668226
vn 0.5709553 0.8208831 -0.012688268
vn 0.00026983023 -0.6613138 0.7501094
vn 0.40450537 0.8208831 -0.40314558
vn 0.00026983023 0.59894985 0.8007865
vn 0.52973914 -0.6613138 0.5310749
vn 0.00026983023 0.8208831 -0.57109624
vn 0.56619954 0.59894985 0.56628364
vn 0.7500871 -0.6613138 -0.0057825777
vn -0.40396565 0.8208831 -0.40368643
vn 0.8007966 0.5989364 -0
vn -0.57041556 0.8208831 -0.027875898
vn -0.57041556 0.8208831 -0.027875898
vn -0.5355404 0.65284795 -0.5357108
vn -0.75747365 0.65284795 -0.0048182993
vn -0.40396565 0.8208831 -0.40368643
vn 0.00026983023 0.65284795 -0.7574889
vn 0.00026983023 0.8208831 -0.57109624
vn 0.53608006 0.65284795 -0.53517073
vn 0.40450537 0.8208831 -0.40314558
vn 0.75642806 0.65284795 -0.040076632
vn 0.5709553 0.8208831 -0.012688268
vn 0.75642806 0.65284795 -0.040076632
vn -0.75747365 0.65284795 -0.0048182993
vn -0.5355404 0.65284795 -0.5357108
vn 0.53608006 0.65284795 -0.53517073
vn 0.00026983023 0.65284795 -0.7574889
vn 0.52973914 -0.6613138 -0.5310749
vn -0.7495474 -0.6613138 -0.029030157
vn 0.7500871 -0.6613138 -0.0057825777
vn -0.53078467 -0.6613138 -0.53002995
vn 0.00026983023 -0.6613138 -0.7501094
vn -0.7495474 -0.6613138 -0.029030157
vn 0.52973914 -0.6613138 0.5310749
vn 0.7500871 -0.6613138 -0.0057825777
vn -0.53078467 -0.6613138 0.53002995
vn 0.00026983023 -0.6613138 0.7501094
g febg_coinrush_001_cup_02_0
f 3/3/3 2/2/2 1/1/1
f 2/2/2 4/4/4 1/1/1
f 2/2/2 5/5/5 4/4/4
f 1/1/1 4/4/4 6/6/6
f 5/5/5 7/7/7 4/4/4
f 4/4/4 8/8/8 6/6/6
f 4/4/4 7/7/7 8/8/8
f 6/6/6 8/8/8 9/9/9
f 7/7/7 10/10/10 8/8/8
f 8/8/8 11/11/11 9/9/9
f 8/8/8 10/10/10 11/11/11
f 9/9/9 11/11/11 12/12/12
f 10/10/10 13/13/13 11/11/11
f 11/11/11 14/14/14 12/12/12
f 11/11/11 13/13/13 14/14/14
f 13/13/13 15/15/15 14/14/14
f 18/18/18 17/17/17 16/16/16
f 19/19/19 18/18/18 16/16/16
f 20/20/20 18/18/18 19/19/19
f 21/21/21 20/20/20 19/19/19
f 22/22/22 20/20/20 21/21/21
f 23/23/23 22/22/22 21/21/21
f 24/24/24 22/22/22 23/23/23
f 25/25/25 24/24/24 23/23/23
f 28/28/28 27/27/27 26/26/26
f 29/29/29 28/28/28 26/26/26
f 30/30/30 29/29/29 26/26/26
f 33/33/33 32/32/32 31/31/31
f 34/34/34 33/33/33 31/31/31
f 35/35/35 33/33/33 34/34/34
f 34/34/34 31/31/31 36/36/36
f 37/37/37 35/35/35 34/34/34
f 38/38/38 34/34/34 36/36/36
f 37/37/37 34/34/34 38/38/38
f 38/38/38 36/36/36 39/39/39
f 40/40/40 37/37/37 38/38/38
f 41/41/41 38/38/38 39/39/39
f 40/40/40 38/38/38 41/41/41
f 41/41/41 39/39/39 42/42/42
f 43/43/43 40/40/40 41/41/41
f 44/44/44 41/41/41 42/42/42
f 43/43/43 41/41/41 44/44/44
f 45/45/45 43/43/43 44/44/44
f 48/48/48 47/47/47 46/46/46
f 47/47/47 49/49/49 46/46/46
f 47/47/47 50/50/50 49/49/49
f 50/50/50 51/51/51 49/49/49
f 50/50/50 52/52/52 51/51/51
f 52/52/52 53/53/53 51/51/51
f 52/52/52 54/54/54 53/53/53
f 54/54/54 55/55/55 53/53/53
f 58/58/58 57/57/57 56/56/56
f 59/59/59 58/58/58 56/56/56
f 59/59/59 60/60/60 58/58/58
f 63/63/63 62/62/62 61/61/61
f 62/62/62 64/64/64 61/61/61
f 64/64/64 65/65/65 61/61/61
f 68/68/68 67/67/67 66/66/66
f 67/67/67 69/69/69 66/66/66
f 70/70/70 69/69/69 67/67/67
