g febg_tropical_002_watermellon_01
v 0.41722655 0.058645785 -0.24757369
v 0.4570648 -0.03909141 -0.13812059
v 0.3796486 0.42636234 0.30572766
v 0.33973768 0.5242791 0.19607365
v -0.19039041 0.058644712 -0.026420057
v 0.25292885 0.5577073 0.25751954
v 0.29283977 0.45979065 0.36717355
v 0.15531245 0.5242791 0.26319957
v -0.15055221 -0.03909141 0.083033025
v 0.19522336 0.42636234 0.37285358
v 0.15459749 0.096797645 -0.30630618
v 0.13647589 0.00060364604 -0.21155384
v -0.1224342 0.389059 0.13333255
v -0.104278386 0.48542935 0.038406014
v -0.41595024 0.10556507 -0.40652695
v -0.1991632 0.5145006 0.049771428
v -0.21731901 0.41812927 0.14469796
v -0.27745253 0.4880914 0.007987142
v -0.43407184 0.009371072 -0.3117746
v -0.29560834 0.39172006 0.10291368
v 0.16457683 0.10712856 0.100108385
v 0.16457683 0.00939244 0.21658593
v -0.05997628 0.47484624 0.6071893
v -0.059975207 0.57276297 0.49049813
v -0.48203522 0.10712856 0.10010731
v -0.16256416 0.60619116 0.5185478
v -0.16256416 0.5082745 0.635239
v -0.25623608 0.57276297 0.49049813
v -0.48203522 0.00939244 0.21658593
v -0.25623715 0.47484624 0.6071893
v 0.008471608 -1.7881393E-07 -0.48535168
v -0.27842826 0.057243645 -0.39763767
v -0.27842826 -1.7881393E-07 -0.39763767
v -0.45897847 -1.7881393E-07 -0.15803865
v 0.008471608 0.057243645 -0.48535168
v 0.29213655 -1.7881393E-07 -0.38767758
v -0.45897847 0.057243645 -0.15803865
v -0.46421498 -1.7881393E-07 0.14192474
v 0.29213655 0.057243645 -0.38767758
v 0.46421534 -1.7881393E-07 -0.14192402
v -0.13230664 0.019407034 -0.18895447
v -0.46421498 0.057243645 0.14192474
v -0.2921362 -1.7881393E-07 0.38767833
v 0.46421534 0.057243645 -0.14192402
v 0.4589788 -1.7881393E-07 0.15803939
v 0.0040258765 0.019407034 -0.2306351
v -0.21810341 0.019407034 -0.075098425
v -0.2921362 0.057243645 0.38767833
v -0.008472323 -1.7881393E-07 0.48535132
v 0.4589788 0.057243645 0.15803939
v 0.2784286 -1.7881393E-07 0.3976373
v 0.13882059 0.019407034 -0.1842213
v 0.22059166 0.019407034 -0.067441344
v 0.13230696 0.019407034 0.18895411
v 0.21810272 0.019407034 0.07509917
v 0.2784286 0.057243645 0.3976373
v -0.008472323 0.057243645 0.48535132
v -0.0040255487 0.019407034 0.23063582
v -0.1388213 0.019407034 0.18422204
v -0.2205913 0.019407034 0.06744206
vt 0.19617628 0.90258837
vt 0.18486081 0.9086481
vt 0.2091295 0.9584063
vt 0.21550189 0.95017284
vt 0.24880804 0.9024841
vt 0.22279738 0.95187014
vt 0.22294626 0.9630069
vt 0.22931865 0.9499197
vt 0.2601384 0.9084843
vt 0.23591438 0.95821273
vt 0.19617628 0.90258837
vt 0.18486081 0.9086481
vt 0.2091295 0.9584063
vt 0.21550189 0.95017284
vt 0.24880804 0.9024841
vt 0.22279738 0.95187014
vt 0.22294626 0.9630069
vt 0.22931865 0.9499197
vt 0.2601384 0.9084843
vt 0.23591438 0.95821273
vt 0.19617628 0.90258837
vt 0.18486081 0.9086481
vt 0.2091295 0.9584063
vt 0.21550189 0.95017284
vt 0.24880804 0.9024841
vt 0.22279738 0.95187014
vt 0.22294626 0.9630069
vt 0.22931865 0.9499197
vt 0.2601384 0.9084843
vt 0.23591438 0.95821273
vt 0.6078654 0.031491715
vt 0.6036221 0.0063594882
vt 0.599483 0.0063594882
vt 0.6078654 0.031491715
vt 0.61121535 0.029020179
vt 0.629469 0.046782468
vt 0.61121535 0.029020179
vt 0.629469 0.046782468
vt 0.6307345 0.04279228
vt 0.6559114 0.046782468
vt 0.624109 0.0063594882
vt 0.6307345 0.04279228
vt 0.6559114 0.046782468
vt 0.65463096 0.04279228
vt 0.677515 0.031491715
vt 0.6276674 0.016781619
vt 0.6276674 0.016781619
vt 0.65463096 0.04279228
vt 0.677515 0.031491715
vt 0.674165 0.029020179
vt 0.68589735 0.0063594882
vt 0.6369729 0.023198674
vt 0.64839256 0.023198674
vt 0.6612565 0.0063594882
vt 0.65771294 0.016781619
vt 0.6817583 0.0063594882
vt 0.674165 0.029020179
vt 0.65771294 0.016781619
vt 0.64839256 0.023198674
vt 0.6369729 0.023198674
vn 0.59602237 0.603623 -0.5295249
vn 0.95763797 0.26496702 -0.11279198
vn 0.8313595 0.5290038 0.17028305
vn 0.4831371 0.814087 -0.3222436
vn -0.7968672 0.603623 -0.025337752
vn -0.0047569275 0.9996781 0.024921484
vn 0.20379388 0.76625425 0.60936236
vn -0.5864032 0.80834705 0.05202258
vn -0.8045204 0.26688033 0.5305863
vn -0.54239696 0.51943725 0.6602957
vn 0.78161347 0.6151028 -0.10358053
vn 0.88493216 0.23052746 0.404663
vn 0.63620186 0.47734445 0.60612667
vn 0.5788026 0.814087 0.047433704
vn -0.68015534 0.63806254 -0.36092225
vn -0.016236782 0.99393815 0.108735256
vn -0.12912208 0.708855 0.693435
vn -0.53665704 0.82748014 -0.16515405
vn -0.9614119 0.2611404 0.08656128
vn -0.7987805 0.49073762 0.348032
vn 0.741434 0.603623 -0.29311255
vn 0.9385049 0.26496702 0.22136182
vn 0.72421414 0.5290038 0.44234473
vn 0.5634961 0.814087 -0.14047955
vn -0.7413812 0.603623 -0.2932459
vn -0.012410164 0.9996781 0.022129431
vn -0.016236782 0.76625425 0.6423323
vn -0.5710966 0.80834705 -0.14291176
vn -0.9365389 0.26688033 0.22730999
vn -0.7356413 0.51943725 0.4347607
vn 0.018202782 0.0009303093 -0.9998339
vn -0.41611856 0.6897219 -0.5925615
vn -0.57301 0.0009303093 -0.8195478
vn -0.9461054 0.0009303093 -0.32385743
vn 0.012462854 0.6897219 -0.72396713
vn 0.6017623 0.0009303093 -0.79867464
vn -0.68589526 0.6897219 -0.23201601
vn -0.95567197 0.0009303093 0.294432
vn 0.43530434 0.6897219 -0.57861376
vn 0.95572466 0.0009303093 -0.294261
vn 0.050729036 0.99585146 0.075540915
vn -0.6935485 0.6897219 0.20802465
vn -0.60170966 0.0009303093 0.79871434
vn 0.6936012 0.6897219 -0.20784879
vn 0.9461581 0.0009303093 0.32370353
vn -0.0009303093 0.99585146 0.09098882
vn 0.08325535 0.99585146 0.036721054
vn -0.43525165 0.6897219 0.5786534
vn -0.018150091 0.0009303093 0.99983484
vn 0.68594795 0.6897219 0.23186015
vn 0.57306266 0.0009303093 0.819511
vn -0.052589715 0.99585146 0.07425769
vn -0.08511597 0.99585146 0.03217381
vn -0.050676405 0.99585146 -0.075576015
vn -0.08320266 0.99585146 -0.036840167
vn 0.41617125 0.6897219 0.59252447
vn -0.012410164 0.6897219 0.723968
vn 0.0009829998 0.99585146 -0.090988494
vn 0.052642345 0.99585146 -0.07422036
vn 0.08516866 0.99585146 -0.032033633
g febg_tropical_002_watermellon_01_0
f 3/3/3 2/2/2 1/1/1
f 4/4/4 3/3/3 1/1/1
f 4/4/4 1/1/1 5/5/5
f 3/3/3 4/4/4 6/6/6
f 7/7/7 3/3/3 6/6/6
f 8/8/8 4/4/4 5/5/5
f 6/6/6 4/4/4 8/8/8
f 7/7/7 6/6/6 8/8/8
f 5/5/5 9/9/9 8/8/8
f 10/10/10 7/7/7 8/8/8
f 9/9/9 10/10/10 8/8/8
f 13/13/13 12/12/12 11/11/11
f 14/14/14 13/13/13 11/11/11
f 14/14/14 11/11/11 15/15/15
f 13/13/13 14/14/14 16/16/16
f 17/17/17 13/13/13 16/16/16
f 18/18/18 14/14/14 15/15/15
f 16/16/16 14/14/14 18/18/18
f 17/17/17 16/16/16 18/18/18
f 15/15/15 19/19/19 18/18/18
f 20/20/20 17/17/17 18/18/18
f 19/19/19 20/20/20 18/18/18
f 23/23/23 22/22/22 21/21/21
f 24/24/24 23/23/23 21/21/21
f 24/24/24 21/21/21 25/25/25
f 23/23/23 24/24/24 26/26/26
f 27/27/27 23/23/23 26/26/26
f 28/28/28 24/24/24 25/25/25
f 26/26/26 24/24/24 28/28/28
f 27/27/27 26/26/26 28/28/28
f 25/25/25 29/29/29 28/28/28
f 30/30/30 27/27/27 28/28/28
f 29/29/29 30/30/30 28/28/28
f 33/33/33 32/32/32 31/31/31
f 32/32/32 33/33/33 34/34/34
f 32/32/32 35/35/35 31/31/31
f 31/31/31 35/35/35 36/36/36
f 37/37/37 32/32/32 34/34/34
f 37/37/37 34/34/34 38/38/38
f 35/35/35 39/39/39 36/36/36
f 36/36/36 39/39/39 40/40/40
f 32/32/32 41/41/41 35/35/35
f 41/41/41 32/32/32 37/37/37
f 42/42/42 37/37/37 38/38/38
f 42/42/42 38/38/38 43/43/43
f 39/39/39 44/44/44 40/40/40
f 40/40/40 44/44/44 45/45/45
f 35/35/35 46/46/46 39/39/39
f 41/41/41 46/46/46 35/35/35
f 47/47/47 41/41/41 37/37/37
f 47/47/47 37/37/37 42/42/42
f 48/48/48 42/42/42 43/43/43
f 48/48/48 43/43/43 49/49/49
f 44/44/44 50/50/50 45/45/45
f 45/45/45 50/50/50 51/51/51
f 39/39/39 52/52/52 44/44/44
f 46/46/46 52/52/52 39/39/39
f 52/52/52 53/53/53 44/44/44
f 44/44/44 53/53/53 50/50/50
f 52/52/52 46/46/46 53/53/53
f 41/41/41 54/54/54 46/46/46
f 54/54/54 41/41/41 47/47/47
f 46/46/46 55/55/55 53/53/53
f 53/53/53 55/55/55 50/50/50
f 54/54/54 55/55/55 46/46/46
f 50/50/50 55/55/55 56/56/56
f 50/50/50 56/56/56 51/51/51
f 55/55/55 54/54/54 56/56/56
f 57/57/57 49/49/49 51/51/51
f 56/56/56 57/57/57 51/51/51
f 57/57/57 48/48/48 49/49/49
f 54/54/54 58/58/58 56/56/56
f 58/58/58 54/54/54 47/47/47
f 58/58/58 57/57/57 56/56/56
f 59/59/59 48/48/48 57/57/57
f 58/58/58 59/59/59 57/57/57
f 58/58/58 47/47/47 60/60/60
f 59/59/59 58/58/58 60/60/60
f 59/59/59 60/60/60 48/48/48
f 60/60/60 47/47/47 42/42/42
f 60/60/60 42/42/42 48/48/48
