g febg_lostcity_001_sandbagsbox_01
v -0.7971907 0.6212267 0.070919976
v -0.75069225 0.62122685 0.7532239
v -0.7670616 0.12492132 0.7695936
v -0.8144294 0.1249212 0.07246648
v -0.7498224 -0.0020692963 0.75235415
v -0.7947686 -0.0033908698 0.070702344
v -0.7738349 0.124921106 -0.76707274
v -0.75659734 -0.0020695082 -0.74983335
v -0.75746256 0.6212266 -0.7507032
v -0.7854488 1.965359 0.06986606
v -0.74556625 2.0551226 -0.7388041
v -0.76525694 2.3681452 -0.7585257
v -0.80593437 2.306782 0.07169131
v -0.7339791 2.9755454 -0.72420317
v -0.7798335 2.975546 0.068442896
v -0.7560158 2.3931453 0.758927
v -0.72632873 2.975546 0.7304188
v 0.7812187 -0.0033908866 -0.07067521
v 0.7498225 -0.0020692963 0.75235415
v 0.76706165 0.12492132 0.7695935
v 0.80081093 0.12492119 -0.0724324
v 0.74304754 -0.0020695082 -0.74983335
v 0.76028836 0.124921106 -0.76707274
v 0.78329206 0.6212267 -0.070860885
v 0.75069225 0.62122685 0.7532238
v 0.7706413 2.0359697 -0.06972662
v 0.74392194 0.6212266 -0.7507032
v 0.7392452 2.0631678 0.74177617
v 0.7315842 2.1076272 -0.7383684
v 0.7588092 2.3934214 0.76134044
v 0.7514454 2.4040377 -0.7582278
v 0.7912687 2.355052 -0.071589485
v 0.72632873 2.975546 0.7304188
v 0.71867836 2.975546 -0.72420317
v 0.7666514 2.975546 -0.0683793
v -0.7278359 3.0012214 -0.7508786
v -0.06890782 2.9827478 -0.7624862
v -0.72567344 2.975546 -0.7188886
v -0.06999623 3.0011652 -0.7919588
v 0.72783685 3.0012221 -0.74656045
v 0.7256737 2.975546 -0.7188887
v -0.7278359 3.0012214 -0.7508786
v -0.72892743 2.9001534 -0.774452
v -0.07294996 2.8846145 -0.8205671
v -0.06999623 3.0011652 -0.7919588
v 0.72892827 2.9001544 -0.7744521
v 0.72783685 3.0012221 -0.74656045
v -0.06999623 3.0011652 -0.7919588
v -0.07294996 2.8846145 -0.8205671
v -0.7278359 3.0012214 -0.7508786
v -0.72567344 2.975546 -0.7188886
v -0.72892743 2.90039 -0.7406385
v -0.72892743 2.9001534 -0.774452
v 0.72892827 2.9001544 -0.7744521
v 0.72892827 2.9003909 -0.7456435
v 0.7256737 2.975546 -0.7188887
v 0.72783685 3.0012221 -0.74656045
v -0.7278359 3.0012214 0.7508786
v -0.72567344 2.975546 0.7188886
v -0.06890782 2.9827478 0.7624862
v -0.06999623 3.0011652 0.7919588
v 0.72783685 3.0012221 0.74656045
v 0.7256737 2.975546 0.7188887
v -0.7278359 3.0012214 0.7508786
v -0.06999623 3.0011652 0.7919588
v -0.07294996 2.8846145 0.8205671
v -0.72892743 2.9001534 0.774452
v 0.72892827 2.9001544 0.7744521
v -0.07294996 2.8846145 0.8205671
v -0.06999623 3.0011652 0.7919588
v 0.72783685 3.0012221 0.74656045
v -0.7278359 3.0012214 0.7508786
v -0.72892743 2.9001534 0.774452
v -0.72892743 2.90039 0.7406385
v -0.72567344 2.975546 0.7188886
v 0.72892827 2.9001544 0.7744521
v 0.72783685 3.0012221 0.74656045
v 0.7256737 2.975546 0.7188887
v 0.72892827 2.9003909 0.7456435
v 0.75087774 3.0012217 -0.7278367
v 0.7624857 2.982748 -0.06890868
v 0.71888775 2.975546 -0.7256743
v 0.7919583 3.0011654 -0.06999711
v 0.74656034 3.0012224 0.727836
v 0.7188886 2.975546 0.72567284
v 0.75087774 3.0012217 -0.7278367
v 0.77445114 2.9001536 -0.72892827
v 0.8205666 2.8846147 -0.07295083
v 0.7919583 3.0011654 -0.06999711
v 0.774452 2.9001546 0.72892743
v 0.7919583 3.0011654 -0.06999711
v 0.74656034 3.0012224 0.727836
v 0.75087774 3.0012217 -0.7278367
v 0.71888775 2.975546 -0.7256743
v 0.74063766 2.9003901 -0.72892827
v 0.77445114 2.9001536 -0.72892827
v 0.774452 2.9001546 0.72892743
v 0.7456434 2.900391 0.72892743
v 0.7188886 2.975546 0.72567284
v 0.74656034 3.0012224 0.727836
v -0.7508794 3.0012212 -0.727836
v -0.7188894 2.975546 -0.72567356
v -0.76248676 2.9827476 -0.06890793
v -0.79195935 3.001165 -0.069996335
v -0.7465606 3.001222 0.7278367
v -0.7188888 2.975546 0.72567356
v -0.7508794 3.0012212 -0.727836
v -0.79195935 3.001165 -0.069996335
v -0.82056755 2.8846142 -0.07295003
v -0.7744528 2.9001532 -0.72892755
v -0.7744522 2.900154 0.72892815
v -0.79195935 3.001165 -0.069996335
v -0.7465606 3.001222 0.7278367
v -0.7508794 3.0012212 -0.727836
v -0.7744528 2.9001532 -0.72892755
v -0.7406393 2.9003897 -0.72892755
v -0.7188894 2.975546 -0.72567356
v -0.7744522 2.900154 0.72892815
v -0.7465606 3.001222 0.7278367
v -0.7188888 2.975546 0.72567356
v -0.7456436 2.9003906 0.72892815
v -0.06890782 2.9827478 -0.7624862
v -0.72567344 2.9283044 -0.7188886
v -0.72567344 2.975546 -0.7188886
v -0.06890782 2.9355066 -0.7624862
v 0.7256737 2.975546 -0.7188887
v 0.7256737 2.9283044 -0.7188887
v -0.72567344 2.975546 0.7188886
v -0.72567344 2.928305 0.7188886
v -0.06890782 2.9355066 0.7624862
v -0.06890782 2.9827478 0.7624862
v 0.7256737 2.928305 0.7188887
v 0.7256737 2.975546 0.7188887
v 0.7624857 2.982748 -0.06890868
v 0.71888775 2.9283047 -0.7256743
v 0.71888775 2.975546 -0.7256743
v 0.7624857 2.9355068 -0.06890867
v 0.7188886 2.975546 0.72567284
v 0.7188886 2.928305 0.72567284
v -0.7188894 2.975546 -0.72567356
v -0.7188894 2.9283047 -0.7256736
v -0.76248676 2.9355063 -0.068907924
v -0.76248676 2.9827476 -0.06890793
v -0.7188888 2.928305 0.7256735
v -0.7188888 2.975546 0.72567356
v 0.11907744 2.97225 0.7739715
v 0.72632873 2.975546 0.7304188
v 0.7588092 2.3934214 0.76134044
v 0.13237819 2.3861976 0.80570656
v 0.12911855 2.0815299 0.7848128
v -0.72632873 2.975546 0.7304188
v 0.7392452 2.0631678 0.74177617
v -0.7560158 2.3931453 0.758927
v 0.75069225 0.62122685 0.7532238
v -0.74688995 2.0977108 0.7531872
v -0.80593437 2.306782 0.07169131
v -0.7854488 1.965359 0.06986606
v -0.75069225 0.62122685 0.7532239
v -0.7971907 0.6212267 0.070919976
v 0.13112308 0.62122685 0.7976074
v 0.76706165 0.12492132 0.7695935
v -0.7670616 0.12492132 0.7695936
v 0.13383767 0.12492136 0.81489
v 0.7498225 -0.0020692963 0.75235415
v 0.1307474 -0.003390714 0.7951742
v -0.7498224 -0.0020692963 0.75235415
v -0.12678769 2.975546 -0.7731781
v -0.7339791 2.9755454 -0.72420317
v -0.76525694 2.3681452 -0.7585257
v -0.13237812 2.3861973 -0.80066574
v -0.12911847 2.0815296 -0.7797719
v 0.71867836 2.975546 -0.72420317
v 0.7514454 2.4040377 -0.7582278
v -0.74556625 2.0551226 -0.7388041
v 0.7315842 2.1076272 -0.7383684
v -0.75746256 0.6212266 -0.7507032
v 0.74392194 0.6212266 -0.7507032
v -0.131123 0.6212266 -0.79256606
v -0.7738349 0.124921106 -0.76707274
v 0.76028836 0.124921106 -0.76707274
v -0.1338376 0.1249211 -0.8098485
v -0.75659734 -0.0020695082 -0.74983335
v -0.13074732 -0.0033909725 -0.7901326
v 0.74304754 -0.0020695082 -0.74983335
v 0.559802 3.0164723 -0.5665769
v -0.12678769 2.975546 -0.7731781
v 0.71867836 2.975546 -0.72420317
v 0.7666514 2.975546 -0.0683793
v -0.098358646 3.0164723 -0.5831068
v -0.006976723 3.0696661 -9.727477E-06
v -0.5733518 3.0164723 -0.5666787
v -0.7339791 2.9755454 -0.72420317
v -0.7798335 2.975546 0.068442896
v 0.5747533 3.0164723 -0.052154124
v 0.559802 3.0164723 0.5666787
v 0.72632873 2.975546 0.7304188
v 0.11907744 2.97225 0.7739715
v -0.5883031 3.0164723 0.05218053
v -0.5733518 3.0164723 0.5665769
v -0.72632873 2.975546 0.7304188
v 0.084032595 3.0164723 0.5831057
vt 0.8179409 0.14134477
vt 0.8593202 0.14054854
vt 0.85885984 0.11070157
vt 0.8174124 0.111535035
vt 0.858774 0.10370339
vt 0.81720835 0.10370339
vt 0.76988196 0.11242656
vt 0.76988196 0.10370339
vt 0.76988196 0.14218271
vt 0.81889147 0.22202301
vt 0.76988196 0.22830217
vt 0.76988196 0.24740994
vt 0.81933427 0.24267936
vt 0.76988196 0.28274164
vt 0.8204081 0.28274164
vt 0.86026233 0.24678314
vt 0.8609948 0.28274164
vt 0.819366 0.10370339
vt 0.76988196 0.10370339
vt 0.76988196 0.110670626
vt 0.819467 0.11071938
vt 0.8604244 0.10370339
vt 0.86036277 0.110481046
vt 0.8194371 0.14056036
vt 0.76988196 0.14043793
vt 0.8194475 0.22538622
vt 0.86033535 0.14027372
vt 0.76988196 0.22697945
vt 0.8603351 0.22951421
vt 0.76988196 0.2466519
vt 0.8601692 0.2472374
vt 0.81956506 0.24476117
vt 0.76988196 0.28274164
vt 0.86044216 0.28274164
vt 0.8195295 0.28274164
vt 0.3944399 0.015816385
vt 0.3319275 0.019925602
vt 0.3944399 0.019925602
vt 0.33202162 0.015816385
vt 0.25636148 0.015816385
vt 0.25636148 0.019925602
vt 0.3944399 0.015816385
vt 0.3944399 0.005955809
vt 0.33228913 0.0044262093
vt 0.33202162 0.015816385
vt 0.25636148 0.0059081446
vt 0.25636148 0.015816385
vt 0.33202162 0.015816385
vt 0.33228913 0.0044262093
vt 0.3944399 0.015816385
vt 0.39778683 0.014118335
vt 0.39778683 0.006710353
vt 0.3944399 0.005955809
vt 0.25636148 0.0059081446
vt 0.25340348 0.0066588987
vt 0.25340348 0.014202483
vt 0.25636148 0.015816385
vt 0.3944399 0.015816385
vt 0.3944399 0.019925602
vt 0.3319275 0.019925602
vt 0.33202162 0.015816385
vt 0.25636148 0.015816385
vt 0.25636148 0.019925602
vt 0.3944399 0.015816385
vt 0.33202162 0.015816385
vt 0.33228913 0.0044262093
vt 0.3944399 0.005955809
vt 0.25636148 0.0059081446
vt 0.33228913 0.0044262093
vt 0.33202162 0.015816385
vt 0.25636148 0.015816385
vt 0.3944399 0.015816385
vt 0.3944399 0.005955809
vt 0.39778683 0.006710353
vt 0.39778683 0.014118335
vt 0.25636148 0.0059081446
vt 0.25636148 0.015816385
vt 0.25340348 0.014202483
vt 0.25340348 0.0066588987
vt 0.3944399 0.015816385
vt 0.3319275 0.019925602
vt 0.3944399 0.019925602
vt 0.33202162 0.015816385
vt 0.25636148 0.015816385
vt 0.25636148 0.019925602
vt 0.3944399 0.015816385
vt 0.3944399 0.005955809
vt 0.33228913 0.0044262093
vt 0.33202162 0.015816385
vt 0.25636148 0.0059081446
vt 0.33202162 0.015816385
vt 0.25636148 0.015816385
vt 0.3944399 0.015816385
vt 0.39778683 0.014118335
vt 0.39778683 0.006710353
vt 0.3944399 0.005955809
vt 0.25636148 0.0059081446
vt 0.25340348 0.0066588987
vt 0.25340348 0.014202483
vt 0.25636148 0.015816385
vt 0.3944399 0.015816385
vt 0.3944399 0.019925602
vt 0.3319275 0.019925602
vt 0.33202162 0.015816385
vt 0.25636148 0.015816385
vt 0.25636148 0.019925602
vt 0.3944399 0.015816385
vt 0.33202162 0.015816385
vt 0.33228913 0.0044262093
vt 0.3944399 0.005955809
vt 0.25636148 0.0059081446
vt 0.33202162 0.015816385
vt 0.25636148 0.015816385
vt 0.3944399 0.015816385
vt 0.3944399 0.005955809
vt 0.39778683 0.006710353
vt 0.39778683 0.014118335
vt 0.25636148 0.0059081446
vt 0.25636148 0.015816385
vt 0.25340348 0.014202483
vt 0.25340348 0.0066588987
vt 0.3319275 0.019925602
vt 0.3944399 0.019925602
vt 0.3944399 0.019925602
vt 0.3319275 0.019925602
vt 0.25636148 0.019925602
vt 0.25636148 0.019925602
vt 0.3944399 0.019925602
vt 0.3944399 0.019925602
vt 0.3319275 0.019925602
vt 0.3319275 0.019925602
vt 0.25636148 0.019925602
vt 0.25636148 0.019925602
vt 0.3319275 0.019925602
vt 0.3944399 0.019925602
vt 0.3944399 0.019925602
vt 0.3319275 0.019925602
vt 0.25636148 0.019925602
vt 0.25636148 0.019925602
vt 0.3944399 0.019925602
vt 0.3944399 0.019925602
vt 0.3319275 0.019925602
vt 0.3319275 0.019925602
vt 0.25636148 0.019925602
vt 0.25636148 0.019925602
vt 0.9126432 0.28274164
vt 0.9501792 0.28274164
vt 0.9501792 0.2466519
vt 0.913131 0.24644932
vt 0.91279644 0.2281088
vt 0.8609948 0.28274164
vt 0.9501792 0.22697945
vt 0.86026233 0.24678314
vt 0.9501792 0.14043793
vt 0.8600979 0.22918539
vt 0.81933427 0.24267936
vt 0.81889147 0.22202301
vt 0.8593202 0.14054854
vt 0.8179409 0.14134477
vt 0.9125895 0.1404927
vt 0.9501792 0.110670626
vt 0.85885984 0.11070157
vt 0.9124563 0.11070006
vt 0.9501792 0.10370339
vt 0.9121906 0.10370339
vt 0.858774 0.10370339
vt 0.912279 0.28274164
vt 0.9501792 0.28274164
vt 0.9501792 0.24510427
vt 0.9126725 0.24618992
vt 0.9126153 0.2278962
vt 0.86044216 0.28274164
vt 0.8601692 0.2472374
vt 0.9501792 0.22630472
vt 0.8603351 0.22951421
vt 0.9501792 0.14027081
vt 0.86033535 0.14027372
vt 0.912972 0.14027493
vt 0.9501792 0.110478595
vt 0.86036277 0.110481046
vt 0.91337335 0.110484235
vt 0.9501792 0.10370339
vt 0.9132564 0.10370339
vt 0.8604244 0.10370339
vt 0.6931007 0.16477107
vt 0.64221513 0.18044062
vt 0.70501775 0.17661823
vt 0.7088254 0.12787236
vt 0.64433545 0.1660588
vt 0.6511252 0.12277486
vt 0.6091432 0.16474666
vt 0.59707546 0.17656495
vt 0.59348065 0.117675945
vt 0.69431 0.1266577
vt 0.69313836 0.08080324
vt 0.7050777 0.06844415
vt 0.6599282 0.06524244
vt 0.60797006 0.11889157
vt 0.60917884 0.080777705
vt 0.5971348 0.06839014
vt 0.657888 0.079488695
vn -0.99978465 0.020571517 0.002739866
vn -0.9983638 0.019482825 0.053760454
vn -0.9967415 -0.056290366 0.057774805
vn -0.9984113 -0.056125145 0.004976842
vn -0.9875142 -0.14694864 0.056762297
vn -0.9891973 -0.14650843 0.0048857653
vn -0.99729544 -0.055803344 -0.047831148
vn -0.98821545 -0.14567354 -0.047003925
vn -0.9985998 0.02160655 -0.048285563
vn -0.99974054 -0.02267183 -0.0021826734
vn -0.99830437 -0.02701084 -0.051562693
vn -0.9985909 -0.0065748803 -0.052659743
vn -0.999998 -0.0017495407 0.0010368701
vn -0.9975 0.04954526 -0.050389163
vn -0.9988109 0.04826368 0.0068897083
vn -0.9984981 0.0030781073 0.054699555
vn -0.99684143 0.0468236 0.064145945
vn 0.98923457 -0.14625719 -0.004879403
vn 0.98825383 -0.14542602 0.046964414
vn 0.997317 -0.055542983 0.047683056
vn 0.9984262 -0.055862308 -0.00495853
vn 0.98755485 -0.14669503 -0.0567101
vn 0.9967669 -0.05602676 -0.0575902
vn 0.99974734 0.021922393 -0.004976554
vn 0.99861646 0.02179517 0.047856454
vn 0.99957854 -0.027836643 -0.008244213
vn 0.9980862 0.021988396 -0.057795748
vn 0.9986739 -0.026130425 0.04435785
vn 0.9977132 -0.029465938 -0.06083
vn 0.9988858 -0.006066353 0.04680013
vn 0.99804246 -0.007377072 -0.06210375
vn 0.999948 -0.006731602 -0.0076550124
vn 0.9974232 0.0489078 0.05248838
vn 0.996789 0.053027175 -0.060000177
vn 0.9986891 0.0510484 -0.003761864
vn -0.763166 0.645016 0.0391409
vn -0.7645342 0.6445745 0.0033515925
vn -0.763166 0.645016 0.0391409
vn -0.7645342 0.6445745 0.0033515925
vn -0.7649215 0.643306 -0.032442015
vn -0.7649215 0.643306 -0.032442015
vn 0.22312324 0.97474027 -0.009866222
vn 0.96556896 0.25518018 -0.05059406
vn 0.9669483 0.25493324 -0.0044881185
vn 0.22307579 0.9748005 -0.0009797841
vn 0.96694046 0.25150737 0.042071678
vn 0.96694046 0.25150737 0.042071678
vn 0.96763825 0.25230044 -0.0045371167
vn 0.96763825 0.25230044 -0.0045371167
vn -0.99914896 0.014728983 0.038528476
vn -0.74648625 0.011625636 0.66529924
vn -0.99914896 0.014728983 0.038528472
vn -0.99914896 0.014728982 0.03852848
vn 0.9989988 0.011207244 0.04330915
vn 0.9989988 0.011207244 0.043309145
vn 0.74981236 0.008798062 0.6615921
vn 0.9989988 0.011207244 0.04330915
vn -0.763166 0.645016 0.0391409
vn -0.763166 0.645016 0.0391409
vn -0.7645342 0.6445745 0.0033515925
vn -0.7645342 0.6445745 0.0033515925
vn -0.7649215 0.643306 -0.032442015
vn -0.7649215 0.643306 -0.032442015
vn 0.22312324 0.97474027 -0.009866222
vn 0.22307579 0.9748005 -0.0009797841
vn 0.9669483 0.25493324 -0.0044881185
vn 0.96556896 0.25518018 -0.05059406
vn 0.96694046 0.25150737 0.042071678
vn 0.96763825 0.25230044 -0.0045371167
vn 0.96763825 0.25230044 -0.0045371167
vn 0.96694046 0.25150737 0.042071678
vn -0.99914896 0.014728981 -0.038528472
vn -0.99914896 0.014728984 -0.038528476
vn -0.99914896 0.014728982 -0.03852848
vn -0.74648625 0.011625636 -0.6652993
vn 0.9989988 0.011207243 -0.04330914
vn 0.9989988 0.011207243 -0.04330914
vn 0.74981236 0.008798061 -0.6615921
vn 0.9989988 0.011207243 -0.043309137
vn -0.763166 0.645016 0.0391409
vn -0.7645342 0.6445745 0.0033515925
vn -0.763166 0.645016 0.0391409
vn -0.7645342 0.6445745 0.0033515925
vn -0.7649215 0.643306 -0.032442015
vn -0.7649215 0.643306 -0.032442015
vn 0.22312324 0.97474027 -0.009866222
vn 0.96556896 0.25518018 -0.05059406
vn 0.9669483 0.25493324 -0.0044881185
vn 0.22307579 0.9748005 -0.0009797841
vn 0.96694046 0.25150737 0.042071678
vn 0.96763825 0.25230044 -0.0045371167
vn 0.96694046 0.25150737 0.042071678
vn -0.038528528 0.014728988 -0.99914896
vn -0.6652988 0.01162566 -0.74648666
vn -0.038528528 0.014728988 -0.99914896
vn -0.038528528 0.014728988 -0.99914896
vn -0.04330919 0.011207244 0.9989988
vn -0.04330919 0.011207244 0.9989988
vn -0.66159135 0.008798048 0.74981296
vn -0.043309193 0.011207246 0.9989988
vn -0.763166 0.645016 0.0391409
vn -0.763166 0.645016 0.0391409
vn -0.7645342 0.6445745 0.0033515925
vn -0.7645342 0.6445745 0.0033515925
vn -0.7649215 0.643306 -0.032442015
vn -0.7649215 0.643306 -0.032442015
vn 0.22312324 0.97474027 -0.009866222
vn 0.22307579 0.9748005 -0.0009797841
vn 0.9669483 0.25493324 -0.0044881185
vn 0.96556896 0.25518018 -0.05059406
vn 0.96694046 0.25150737 0.042071678
vn 0.96763825 0.25230044 -0.0045371167
vn 0.96694046 0.25150737 0.042071678
vn 0.038528413 0.014728977 -0.99914896
vn 0.038528416 0.014728976 -0.99914896
vn 0.038528413 0.014728976 -0.99914896
vn 0.66529995 0.01162559 -0.7464856
vn 0.04330909 0.0112072425 0.9989988
vn 0.043309093 0.0112072425 0.9989988
vn 0.66159254 0.008798075 0.74981195
vn 0.04330909 0.0112072425 0.9989988
vn 0.005698994 0 0.9999838
vn 0.06623656 0 0.997804
vn -0.74648625 0.011625636 0.66529924
vn 0.0057719913 0 0.99998343
vn 0.74981236 0.008798062 0.6615921
vn -0.05478613 0 0.9984981
vn -0.74648625 0.011625636 -0.6652993
vn 0.06623656 0 -0.997804
vn 0.005771992 0 -0.99998343
vn 0.0056989985 0 -0.9999838
vn -0.054786123 0 -0.9984981
vn 0.74981236 0.008798061 -0.6615921
vn -0.9999838 0 0.005699495
vn -0.99780387 0 0.06623702
vn -0.6652988 0.01162566 -0.74648666
vn -0.9999833 0 0.0057724863
vn -0.66159135 0.008798048 0.74981296
vn -0.9984981 0 -0.054785598
vn 0.66529995 0.01162559 -0.7464856
vn 0.997804 0 0.0662361
vn 0.99998343 0 0.0057715056
vn 0.9999838 0 0.0056985198
vn 0.9984981 0 -0.054786645
vn 0.66159254 0.008798075 0.74981195
vn 0.00861363 0.054236166 0.9984909
vn 0.070496164 0.056180716 0.9959287
vn 0.07026332 -0.0043635364 0.9975189
vn 0.011577441 -0.0009371689 0.9999325
vn 0.013006848 -0.02466813 0.9996111
vn -0.05165214 0.05214343 0.9973029
vn 0.070451595 -0.028510638 0.9971077
vn -0.4453862 -0.015926423 0.89519686
vn 0.07120584 0.022074524 0.9972173
vn -0.69689006 -0.03006777 0.7165473
vn -0.99629945 -0.047177505 0.071845576
vn -0.99765503 -0.017615497 0.066137515
vn -0.4654232 0.019225057 0.88487947
vn -0.99808383 0.0055242074 0.061629802
vn 0.012201951 0.020738069 0.9997105
vn 0.07079063 -0.053947065 0.99603134
vn -0.049820185 -0.052936487 0.9973544
vn 0.011017445 -0.05623243 0.9983569
vn 0.06956955 -0.1483342 0.9864872
vn 0.009464139 -0.14727986 0.98904955
vn -0.048982754 -0.14574432 0.98810893
vn -0.010561211 0.05399365 -0.9984855
vn -0.073949985 0.05371043 -0.9958145
vn -0.06893604 -0.007998437 -0.997589
vn -0.009451139 -0.007093256 -0.99993014
vn -0.008075965 -0.030073456 -0.99951506
vn 0.052154444 0.05405998 -0.99717474
vn 0.051005498 -0.006439507 -0.99867755
vn -0.06531591 -0.02911014 -0.99744
vn 0.048773102 -0.031545725 -0.9983115
vn -0.06667217 0.022121577 -0.9975297
vn 0.047774814 0.02175465 -0.9986212
vn -0.009394131 0.021824101 -0.99971765
vn -0.06608885 -0.053817034 -0.9963613
vn 0.04736453 -0.05288694 -0.99747664
vn -0.009863771 -0.056150604 -0.9983736
vn -0.06491959 -0.14801674 -0.9868519
vn -0.008398305 -0.14703439 -0.98909575
vn 0.046546638 -0.1456291 -0.9882437
vn 0.08880233 0.99205184 -0.08914695
vn -0.0007388242 0.96722156 -0.25393316
vn 0.13122168 0.9825869 -0.13154411
vn 0.25462377 0.9670401 -0.00035843134
vn -0.00058006693 0.98493 -0.1729527
vn -1.6701735E-05 1 0
vn -0.08967633 0.9920483 -0.08830678
vn -0.13230139 0.9825813 -0.13050078
vn -0.25462365 0.9670401 0.0003585943
vn 0.17343156 0.9848459 -0.00028896547
vn 0.08965703 0.9920501 0.08830732
vn 0.13229735 0.9825815 0.13050255
vn 0.00073287514 0.9672211 0.25393444
vn -0.17346247 0.98484045 0.0002892073
vn -0.08881953 0.99205047 0.089146405
vn -0.1312234 0.9825867 0.13154387
vn 0.0005751347 0.98493 0.17295241
g febg_lostcity_001_sandbagsbox_01_0
f 3/3/3 2/2/2 1/1/1
f 4/4/4 3/3/3 1/1/1
f 5/5/5 3/3/3 4/4/4
f 6/6/6 5/5/5 4/4/4
f 4/4/4 7/7/7 6/6/6
f 4/4/4 1/1/1 7/7/7
f 7/7/7 8/8/8 6/6/6
f 1/1/1 9/9/9 7/7/7
f 1/1/1 10/10/10 9/9/9
f 10/10/10 11/11/11 9/9/9
f 12/12/12 11/11/11 10/10/10
f 13/13/13 12/12/12 10/10/10
f 14/14/14 12/12/12 13/13/13
f 15/15/15 14/14/14 13/13/13
f 13/13/13 16/16/16 15/15/15
f 16/16/16 17/17/17 15/15/15
f 20/20/20 19/19/19 18/18/18
f 21/21/21 20/20/20 18/18/18
f 18/18/18 22/22/22 21/21/21
f 22/22/22 23/23/23 21/21/21
f 21/21/21 24/24/24 20/20/20
f 21/21/21 23/23/23 24/24/24
f 24/24/24 25/25/25 20/20/20
f 24/24/24 26/26/26 25/25/25
f 23/23/23 27/27/27 24/24/24
f 26/26/26 24/24/24 27/27/27
f 26/26/26 28/28/28 25/25/25
f 29/29/29 26/26/26 27/27/27
f 30/30/30 28/28/28 26/26/26
f 26/26/26 29/29/29 31/31/31
f 32/32/32 30/30/30 26/26/26
f 32/32/32 26/26/26 31/31/31
f 33/33/33 30/30/30 32/32/32
f 32/32/32 31/31/31 34/34/34
f 35/35/35 33/33/33 32/32/32
f 35/35/35 32/32/32 34/34/34
f 38/38/38 37/37/37 36/36/36
f 37/37/37 39/39/39 36/36/36
f 39/39/39 37/37/37 40/40/40
f 37/37/37 41/41/41 40/40/40
f 44/44/44 43/43/43 42/42/42
f 45/45/45 44/44/44 42/42/42
f 48/48/48 47/47/47 46/46/46
f 49/49/49 48/48/48 46/46/46
f 52/52/52 51/51/51 50/50/50
f 53/53/53 52/52/52 50/50/50
f 56/56/56 55/55/55 54/54/54
f 57/57/57 56/56/56 54/54/54
f 60/60/60 59/59/59 58/58/58
f 61/61/61 60/60/60 58/58/58
f 60/60/60 61/61/61 62/62/62
f 63/63/63 60/60/60 62/62/62
f 66/66/66 65/65/65 64/64/64
f 67/67/67 66/66/66 64/64/64
f 70/70/70 69/69/69 68/68/68
f 71/71/71 70/70/70 68/68/68
f 74/74/74 73/73/73 72/72/72
f 75/75/75 74/74/74 72/72/72
f 78/78/78 77/77/77 76/76/76
f 79/79/79 78/78/78 76/76/76
f 82/82/82 81/81/81 80/80/80
f 81/81/81 83/83/83 80/80/80
f 83/83/83 81/81/81 84/84/84
f 81/81/81 85/85/85 84/84/84
f 88/88/88 87/87/87 86/86/86
f 89/89/89 88/88/88 86/86/86
f 88/88/88 91/91/91 90/90/90
f 91/91/91 92/92/92 90/90/90
f 95/95/95 94/94/94 93/93/93
f 96/96/96 95/95/95 93/93/93
f 99/99/99 98/98/98 97/97/97
f 100/100/100 99/99/99 97/97/97
f 103/103/103 102/102/102 101/101/101
f 104/104/104 103/103/103 101/101/101
f 103/103/103 104/104/104 105/105/105
f 106/106/106 103/103/103 105/105/105
f 109/109/109 108/108/108 107/107/107
f 110/110/110 109/109/109 107/107/107
f 112/112/112 109/109/109 111/111/111
f 113/113/113 112/112/112 111/111/111
f 116/116/116 115/115/115 114/114/114
f 117/117/117 116/116/116 114/114/114
f 120/120/120 119/119/119 118/118/118
f 121/121/121 120/120/120 118/118/118
f 124/124/124 123/123/123 122/122/122
f 123/123/123 125/125/125 122/122/122
f 122/122/122 125/125/125 126/126/126
f 125/125/125 127/127/127 126/126/126
f 130/130/130 129/129/129 128/128/128
f 131/131/131 130/130/130 128/128/128
f 132/132/132 130/130/130 131/131/131
f 133/133/133 132/132/132 131/131/131
f 136/136/136 135/135/135 134/134/134
f 135/135/135 137/137/137 134/134/134
f 134/134/134 137/137/137 138/138/138
f 137/137/137 139/139/139 138/138/138
f 142/142/142 141/141/141 140/140/140
f 143/143/143 142/142/142 140/140/140
f 144/144/144 142/142/142 143/143/143
f 145/145/145 144/144/144 143/143/143
f 148/148/148 147/147/147 146/146/146
f 149/149/149 148/148/148 146/146/146
f 149/149/149 150/150/150 148/148/148
f 146/146/146 151/151/151 149/149/149
f 150/150/150 152/152/152 148/148/148
f 151/151/151 153/153/153 149/149/149
f 149/149/149 153/153/153 150/150/150
f 152/152/152 150/150/150 154/154/154
f 153/153/153 155/155/155 150/150/150
f 155/155/155 153/153/153 156/156/156
f 157/157/157 155/155/155 156/156/156
f 158/158/158 155/155/155 157/157/157
f 150/150/150 155/155/155 158/158/158
f 159/159/159 158/158/158 157/157/157
f 150/150/150 160/160/160 154/154/154
f 160/160/160 150/150/150 158/158/158
f 161/161/161 154/154/154 160/160/160
f 160/160/160 158/158/158 162/162/162
f 163/163/163 161/161/161 160/160/160
f 163/163/163 160/160/160 162/162/162
f 164/164/164 161/161/161 163/163/163
f 165/165/165 164/164/164 163/163/163
f 163/163/163 162/162/162 165/165/165
f 162/162/162 166/166/166 165/165/165
f 169/169/169 168/168/168 167/167/167
f 170/170/170 169/169/169 167/167/167
f 170/170/170 171/171/171 169/169/169
f 167/167/167 172/172/172 170/170/170
f 172/172/172 173/173/173 170/170/170
f 170/170/170 173/173/173 171/171/171
f 171/171/171 174/174/174 169/169/169
f 173/173/173 175/175/175 171/171/171
f 174/174/174 171/171/171 176/176/176
f 171/171/171 175/175/175 177/177/177
f 171/171/171 178/178/178 176/176/176
f 178/178/178 171/171/171 177/177/177
f 179/179/179 176/176/176 178/178/178
f 178/178/178 177/177/177 180/180/180
f 181/181/181 179/179/179 178/178/178
f 181/181/181 178/178/178 180/180/180
f 182/182/182 179/179/179 181/181/181
f 183/183/183 182/182/182 181/181/181
f 181/181/181 180/180/180 183/183/183
f 180/180/180 184/184/184 183/183/183
f 187/187/187 186/186/186 185/185/185
f 188/188/188 187/187/187 185/185/185
f 186/186/186 189/189/189 185/185/185
f 189/189/189 190/190/190 185/185/185
f 189/189/189 186/186/186 191/191/191
f 189/189/189 191/191/191 190/190/190
f 186/186/186 192/192/192 191/191/191
f 192/192/192 193/193/193 191/191/191
f 194/194/194 188/188/188 185/185/185
f 194/194/194 185/185/185 190/190/190
f 188/188/188 194/194/194 195/195/195
f 194/194/194 190/190/190 195/195/195
f 196/196/196 188/188/188 195/195/195
f 197/197/197 196/196/196 195/195/195
f 193/193/193 198/198/198 191/191/191
f 198/198/198 190/190/190 191/191/191
f 198/198/198 193/193/193 199/199/199
f 198/198/198 199/199/199 190/190/190
f 193/193/193 200/200/200 199/199/199
f 200/200/200 197/197/197 199/199/199
f 201/201/201 197/197/197 195/195/195
f 201/201/201 195/195/195 190/190/190
f 197/197/197 201/201/201 199/199/199
f 201/201/201 190/190/190 199/199/199
