g febg_shop_001_spoon_01
v -0.020161808 -0.005545944 0.051593155
v -0.07417074 -0.0043670535 0.10080117
v -0.07417074 -0.022299409 0.10080117
v -0.05574003 -0.005545944 0.23348626
v -0.05574003 0.012386411 0.23348626
v 1.7881393E-07 0.004366696 0.28338888
v 1.7881393E-07 0.022299588 0.28338888
v 0.055739865 -0.005545944 0.23348626
v 0.055739865 0.012386411 0.23348626
v 0.074170575 -0.022299409 0.10080117
v 0.074170575 -0.0043670535 0.10080117
v -0.020161808 0.012386411 0.051593155
v 0.020161659 0.012386411 0.051593155
v 0.020161659 -0.005545944 0.051593155
v 0.014454275 -0.005545944 0.025967568
v 0.014454275 0.012386411 0.025967568
v 0.030152649 -0.005545944 -0.1108239
v -0.014454454 0.012386411 0.025967568
v -0.014454454 -0.005545944 0.025967568
v 0.030152649 0.012386411 -0.1108239
v 0.023172349 -0.005545944 -0.15720661
v -0.030152291 0.012386411 -0.110824436
v -0.030152291 -0.005545944 -0.110824436
v 0.023172349 0.012386411 -0.15720661
v 0.038332373 -0.005545944 -0.24572515
v -0.023171991 0.012386411 -0.15720661
v -0.023171991 -0.005545944 -0.15720661
v -0.038331985 0.012386411 -0.24572515
v -0.038331985 -0.005545944 -0.24572515
v 0.038332373 0.012386411 -0.24572515
v 1.7881393E-07 -0.005545944 -0.2833887
v 1.7881393E-07 0.012386411 -0.2833887
vt 0.22727858 0.4396652
vt 0.2187393 0.44891483
vt 0.22088522 0.4519635
vt 0.19164155 0.45662534
vt 0.19193754 0.4529847
vt 0.17620574 0.44663572
vt 0.180246 0.44522977
vt 0.18357585 0.4295424
vt 0.18584017 0.43238387
vt 0.21033323 0.41754004
vt 0.21043682 0.42086992
vt 0.22502907 0.4364685
vt 0.22267595 0.42853603
vt 0.22323833 0.42504334
vt 0.22713058 0.42465857
vt 0.22794455 0.42810684
vt 0.2522008 0.4139734
vt 0.22958729 0.43364182
vt 0.23083045 0.4370161
vt 0.25314796 0.41740686
vt 0.26136166 0.41270062
vt 0.25655183 0.4288912
vt 0.2576026 0.43228027
vt 0.2624124 0.41608968
vt 0.278455 0.40506414
vt 0.2650319 0.42493975
vt 0.26600868 0.42835844
vt 0.28273204 0.42283824
vt 0.28449318 0.42547253
vt 0.2783958 0.4082312
vt 0.2915081 0.41228625
vt 0.28777865 0.4133962
vn -0.8533287 0.0009775162 -0.52137244
vn -0.7712215 0.57377315 -0.27568412
vn -0.9471655 0.0009775162 -0.32074383
vn -0.8963373 0.0009775162 0.4433718
vn -0.6949791 0.6539254 0.2989744
vn -0.0009775162 0.0009775162 0.99999905
vn -0.0009775162 0.66760993 0.7445106
vn 0.8963372 0.0009775162 0.4433719
vn 0.6949791 0.6539254 0.2989744
vn 0.94716555 0.0009775162 -0.32074365
vn 0.77122146 0.57377315 -0.27568433
vn -0.5561787 0.8200948 -0.13457243
vn 0.5561787 0.8200948 -0.13457243
vn 0.8533287 0.0009775162 -0.52137244
vn 0.9979938 0.0009775162 -0.06330354
vn 0.6637001 0.7458073 -0.05721596
vn 0.99994874 0.0009775162 -0.010077919
vn -0.6637001 0.7458073 -0.05721596
vn -0.9979938 0.0009775162 -0.06330354
vn 0.73394114 0.67921317 -0
vn 0.99994874 0.0009775162 0.010077919
vn -0.73394114 0.67921317 -0
vn -0.99994874 0.0009775162 -0.010077919
vn 0.66760993 0.7438524 0.031314783
vn 0.9510754 0.0009775162 -0.30895743
vn -0.66760993 0.7438524 0.031314783
vn -0.99994874 0.0009775162 0.010077919
vn -0.74971724 0.6167817 -0.23980078
vn -0.95107543 0.0009775162 -0.30895725
vn 0.7497172 0.6167817 -0.2398009
vn -0.0009775162 0.0009775162 -0.99999905
vn -0.0009775162 0.577683 -0.81626064
g febg_shop_001_spoon_01_0
f 3/3/3 2/2/2 1/1/1
f 2/2/2 3/3/3 4/4/4
f 5/5/5 2/2/2 4/4/4
f 5/5/5 4/4/4 6/6/6
f 7/7/7 5/5/5 6/6/6
f 6/6/6 8/8/8 7/7/7
f 7/7/7 9/9/9 5/5/5
f 8/8/8 9/9/9 7/7/7
f 5/5/5 9/9/9 2/2/2
f 8/8/8 10/10/10 9/9/9
f 9/9/9 11/11/11 2/2/2
f 10/10/10 11/11/11 9/9/9
f 2/2/2 12/12/12 1/1/1
f 2/2/2 11/11/11 12/12/12
f 11/11/11 10/10/10 13/13/13
f 11/11/11 13/13/13 12/12/12
f 10/10/10 14/14/14 13/13/13
f 13/13/13 14/14/14 15/15/15
f 16/16/16 13/13/13 15/15/15
f 13/13/13 16/16/16 12/12/12
f 16/16/16 15/15/15 17/17/17
f 12/12/12 18/18/18 1/1/1
f 16/16/16 18/18/18 12/12/12
f 18/18/18 19/19/19 1/1/1
f 20/20/20 16/16/16 17/17/17
f 16/16/16 20/20/20 18/18/18
f 20/20/20 17/17/17 21/21/21
f 18/18/18 22/22/22 19/19/19
f 20/20/20 22/22/22 18/18/18
f 22/22/22 23/23/23 19/19/19
f 24/24/24 20/20/20 21/21/21
f 20/20/20 24/24/24 22/22/22
f 24/24/24 21/21/21 25/25/25
f 22/22/22 26/26/26 23/23/23
f 24/24/24 26/26/26 22/22/22
f 26/26/26 27/27/27 23/23/23
f 26/26/26 28/28/28 27/27/27
f 26/26/26 24/24/24 28/28/28
f 28/28/28 29/29/29 27/27/27
f 30/30/30 24/24/24 25/25/25
f 24/24/24 30/30/30 28/28/28
f 25/25/25 31/31/31 30/30/30
f 32/32/32 31/31/31 29/29/29
f 28/28/28 32/32/32 29/29/29
f 30/30/30 32/32/32 28/28/28
f 31/31/31 32/32/32 30/30/30
