g febg_lostcity_001_substation_12
v 1.7781247E-08 -6.517826E-08 -1.4911048
v 1.7781229E-08 2.562589 -1.491105
v -0.87644947 2.562589 -1.2063292
v -0.87644947 -5.2730325E-08 -1.2063291
v -1.418125 2.562589 -0.46077687
v -1.418125 -2.01412E-08 -0.46077675
v -1.4181249 2.562589 0.46077666
v -1.4181249 2.0141185E-08 0.46077678
v -0.87644935 2.562589 1.2063291
v -0.87644935 5.273032E-08 1.2063292
v 1.1257527E-07 2.562589 1.4911047
v 1.12575286E-07 6.517826E-08 1.4911048
v 1.12575286E-07 6.517826E-08 1.4911048
v 1.1257527E-07 2.562589 1.4911047
v 0.87644964 2.562589 1.2063289
v 0.87644964 5.273032E-08 1.206329
v 1.4181249 2.562589 0.46077684
v 1.4181249 2.014121E-08 0.46077695
v 1.4181249 2.562589 -0.46077704
v 1.4181249 -2.014119E-08 -0.46077693
v 0.876449 2.562589 -1.2063297
v 0.876449 -5.2730336E-08 -1.2063296
v 1.7781229E-08 2.562589 -1.491105
v 1.7781247E-08 -6.517826E-08 -1.4911048
v -0.87644935 2.562589 1.2063291
v 9.7484644E-08 2.7744863 1.2912236
v 1.1257527E-07 2.562589 1.4911047
v -0.75896215 2.7744863 1.044622
v -1.4181249 2.562589 0.46077666
v -9.02174E-09 2.7744865 -1.1676581E-07
v -1.2280266 2.7744863 0.39901
v -1.418125 2.562589 -0.46077687
v -1.2280266 2.7744863 -0.39901018
v -0.87644947 2.562589 -1.2063292
v -0.7589622 2.7744863 -1.0446221
v 1.5397656E-08 2.7744863 -1.2912239
v 1.7781229E-08 2.562589 -1.491105
v 0.876449 2.562589 -1.2063297
v 1.5397656E-08 2.7744863 -1.2912239
v 1.7781229E-08 2.562589 -1.491105
v 0.75896186 2.7744863 -1.0446223
v 1.4181249 2.562589 -0.46077704
v -9.02174E-09 2.7744865 -1.1676581E-07
v 1.2280266 2.7744863 -0.39901036
v 1.4181249 2.562589 0.46077684
v 1.2280266 2.7744863 0.3990101
v 0.87644964 2.562589 1.2063289
v 0.75896245 2.7744863 1.0446217
v 9.7484644E-08 2.7744863 1.2912236
v 1.1257527E-07 2.562589 1.4911047
vt 0.94599676 0.060714852
vt 0.94599676 0.114606716
vt 0.9270131 0.114606716
vt 0.9270131 0.060714807
vt 0.9075572 0.1146066
vt 0.9075572 0.06071463
vt 0.8881008 0.114606716
vt 0.8881008 0.060714763
vt 0.8686448 0.114606716
vt 0.8686448 0.060714807
vt 0.84918875 0.114606716
vt 0.84918875 0.060714807
vt 0.84918875 0.060714852
vt 0.84918875 0.114606775
vt 0.86864513 0.114606775
vt 0.86864513 0.060714852
vt 0.8881008 0.114606775
vt 0.8881008 0.060714897
vt 0.9075572 0.114606775
vt 0.9075572 0.060714897
vt 0.9270131 0.114606775
vt 0.9270131 0.060714897
vt 0.9459971 0.114606716
vt 0.94599676 0.060714852
vt 0.8156645 0.13276678
vt 0.83821917 0.13190714
vt 0.83821917 0.13944367
vt 0.81980073 0.12638631
vt 0.7997211 0.11414298
vt 0.83821917 0.10045371
vt 0.80694485 0.11119171
vt 0.7997211 0.088127576
vt 0.80694485 0.09047378
vt 0.81529284 0.06842183
vt 0.8194339 0.07461605
vt 0.83821917 0.06911563
vt 0.83821917 0.061637618
vt 0.81529284 0.06842183
vt 0.83821917 0.06911563
vt 0.83821917 0.061637618
vt 0.8194339 0.07461605
vt 0.7997211 0.088127576
vt 0.83821917 0.10045371
vt 0.80694485 0.09047378
vt 0.7997211 0.11414298
vt 0.80694485 0.11119171
vt 0.8156645 0.13276678
vt 0.81980073 0.12638631
vt 0.83821917 0.13190714
vt 0.83821917 0.13944367
vn -0 0 -1
vn -0 0.34635228 -0.93810445
vn -0.5514022 0.34635106 -0.75894433
vn -0.58778316 0 -0.80901855
vn -0.89218974 0.3463511 -0.2898938
vn -0.951056 0 -0.3090186
vn -0.8921867 0.3463557 0.28989765
vn -0.951056 0 0.3090186
vn -0.5514022 0.34635106 0.75894433
vn -0.5877881 0 0.80901504
vn -0 0.34635228 0.93810445
vn -0 0 1
vn -0 0 1
vn -0 0.34635228 0.93810445
vn 0.5514022 0.34635106 0.75894433
vn 0.58778316 0 0.80901855
vn 0.8921907 0.3463515 0.28989038
vn 0.9510571 0 0.3090152
vn 0.8921867 0.3463557 -0.28989765
vn 0.951056 0 -0.3090186
vn 0.5514022 0.34635106 -0.75894433
vn 0.5877903 0 -0.80901337
vn -0 0.34635228 -0.93810445
vn -0 0 -1
vn -0.5514022 0.34635106 0.75894433
vn -0 0.8886749 0.45853764
vn -0 0.34635228 0.93810445
vn -0.2695271 0.88867354 0.3709643
vn -0.8921867 0.3463557 0.28989765
vn -0 1 0
vn -0.43610215 0.88867164 0.14169553
vn -0.89218974 0.3463511 -0.2898938
vn -0.43610215 0.88867164 -0.14169553
vn -0.5514022 0.34635106 -0.75894433
vn -0.2695271 0.88867354 -0.3709643
vn -0 0.8886749 -0.45853764
vn -0 0.34635228 -0.93810445
vn 0.5514022 0.34635106 -0.75894433
vn -0 0.8886749 -0.45853764
vn -0 0.34635228 -0.93810445
vn 0.26952562 0.88866866 -0.37097716
vn 0.8921867 0.3463557 -0.28989765
vn -0 1 0
vn 0.4361019 0.88867116 -0.14169918
vn 0.8921907 0.3463515 0.28989038
vn 0.4361019 0.88867116 0.14169918
vn 0.5514022 0.34635106 0.75894433
vn 0.2695271 0.88867354 0.3709643
vn -0 0.8886749 0.45853764
vn -0 0.34635228 0.93810445
g febg_lostcity_001_substation_12_0
f 3/3/3 2/2/2 1/1/1
f 4/4/4 3/3/3 1/1/1
f 5/5/5 3/3/3 4/4/4
f 6/6/6 5/5/5 4/4/4
f 7/7/7 5/5/5 6/6/6
f 8/8/8 7/7/7 6/6/6
f 9/9/9 7/7/7 8/8/8
f 10/10/10 9/9/9 8/8/8
f 11/11/11 9/9/9 10/10/10
f 12/12/12 11/11/11 10/10/10
f 15/15/15 14/14/14 13/13/13
f 16/16/16 15/15/15 13/13/13
f 17/17/17 15/15/15 16/16/16
f 18/18/18 17/17/17 16/16/16
f 19/19/19 17/17/17 18/18/18
f 20/20/20 19/19/19 18/18/18
f 21/21/21 19/19/19 20/20/20
f 22/22/22 21/21/21 20/20/20
f 23/23/23 21/21/21 22/22/22
f 24/24/24 23/23/23 22/22/22
f 27/27/27 26/26/26 25/25/25
f 26/26/26 28/28/28 25/25/25
f 25/25/25 28/28/28 29/29/29
f 26/26/26 30/30/30 28/28/28
f 28/28/28 31/31/31 29/29/29
f 28/28/28 30/30/30 31/31/31
f 29/29/29 31/31/31 32/32/32
f 31/31/31 33/33/33 32/32/32
f 31/31/31 30/30/30 33/33/33
f 32/32/32 33/33/33 34/34/34
f 33/33/33 30/30/30 35/35/35
f 33/33/33 35/35/35 34/34/34
f 35/35/35 30/30/30 36/36/36
f 34/34/34 35/35/35 37/37/37
f 35/35/35 36/36/36 37/37/37
f 40/40/40 39/39/39 38/38/38
f 39/39/39 41/41/41 38/38/38
f 38/38/38 41/41/41 42/42/42
f 39/39/39 43/43/43 41/41/41
f 41/41/41 44/44/44 42/42/42
f 41/41/41 43/43/43 44/44/44
f 42/42/42 44/44/44 45/45/45
f 44/44/44 46/46/46 45/45/45
f 44/44/44 43/43/43 46/46/46
f 45/45/45 46/46/46 47/47/47
f 46/46/46 43/43/43 48/48/48
f 46/46/46 48/48/48 47/47/47
f 48/48/48 43/43/43 49/49/49
f 47/47/47 48/48/48 50/50/50
f 48/48/48 49/49/49 50/50/50
