g febg_factory_001_powerpolewire_01
v 5.5999994 1.6342869 -0.05208683
v 3.7333384 0.7206416 5.2452087E-06
v 5.5999994 1.6042833 5.2452087E-06
v 3.7333279 0.75064516 -0.05208683
v 5.5999994 1.694283 -0.05208683
v 1.8666666 0.19046068 5.2452087E-06
v 3.7333384 0.8106413 -0.05208683
v 5.5999994 1.7242861 5.2452087E-06
v 1.8666666 0.22046423 -0.05208683
v 5.722046E-06 -5.722046E-06 5.2452087E-06
v 5.722046E-06 0.029997826 -0.05208683
v 1.8666666 0.28046036 -0.05208683
v -5.2452087E-06 0.090004444 -0.05208683
v 3.7333384 0.84064436 5.2452087E-06
v 1.8666666 0.3104639 5.2452087E-06
v -5.2452087E-06 0.1199975 5.2452087E-06
v -5.2452087E-06 0.090004444 0.052086353
v 1.8666666 0.28046036 0.052086353
v 5.722046E-06 0.029997826 0.052086353
v 3.7333384 0.8106413 0.052086353
v 5.5999994 1.694283 0.052086353
v 1.8666666 0.22046423 0.052086353
v 5.722046E-06 -5.722046E-06 5.2452087E-06
v 1.8666666 0.19046068 5.2452087E-06
v 3.7333384 0.75064516 0.052086353
v 5.5999994 1.6342869 0.052086353
v 3.7333384 0.7206416 5.2452087E-06
v 5.5999994 1.6042833 5.2452087E-06
v 5.722046E-06 0.029997826 -0.05208683
v -1.8666663 0.19046068 5.2452087E-06
v 5.722046E-06 -5.722046E-06 5.2452087E-06
v -1.8666663 0.22046423 -0.05208683
v -5.2452087E-06 0.090004444 -0.05208683
v -1.8666663 0.28046036 -0.05208683
v -5.2452087E-06 0.1199975 5.2452087E-06
v -1.8666663 0.3104639 5.2452087E-06
v -1.8666663 0.28046036 0.052086353
v -5.2452087E-06 0.090004444 0.052086353
v -1.8666663 0.22046423 0.052086353
v 5.722046E-06 0.029997826 0.052086353
v -1.8666663 0.19046068 5.2452087E-06
v 5.722046E-06 -5.722046E-06 5.2452087E-06
v -1.8666663 0.22046423 -0.05208683
v -3.7333384 0.7206416 5.2452087E-06
v -1.8666663 0.19046068 5.2452087E-06
v -3.733327 0.75064516 -0.05208683
v -5.5999994 1.6042833 5.2452087E-06
v -1.8666663 0.28046036 -0.05208683
v -5.5999994 1.6342759 -0.05208683
v -3.7333384 0.8106413 -0.05208683
v -5.5999994 1.694283 -0.05208683
v -1.8666663 0.3104639 5.2452087E-06
v -3.7333384 0.84064436 5.2452087E-06
v -5.5999994 1.7242756 5.2452087E-06
v -5.5999994 1.694283 0.052086353
v -3.7333384 0.8106413 0.052086353
v -1.8666663 0.28046036 0.052086353
v -5.5999994 1.6342759 0.052086353
v -3.733327 0.75064516 0.052086353
v -5.5999994 1.6042833 5.2452087E-06
v -1.8666663 0.22046423 0.052086353
v -3.7333384 0.7206416 5.2452087E-06
v -1.8666663 0.19046068 5.2452087E-06
vt 0.24487275 0.7230696
vt 0.24737273 0.81471515
vt 0.24737273 0.7230696
vt 0.24487275 0.81471515
vt 0.24237278 0.7230696
vt 0.24737273 0.90625393
vt 0.24237278 0.81471515
vt 0.2398728 0.7230696
vt 0.24487275 0.90625393
vt 0.24737273 0.81471515
vt 0.24487275 0.81471515
vt 0.24237278 0.90625393
vt 0.24237278 0.81471515
vt 0.2398728 0.81471515
vt 0.2398728 0.90625393
vt 0.2398728 0.81471515
vt 0.24237278 0.81471515
vt 0.24237278 0.90625393
vt 0.24487275 0.81471515
vt 0.24237278 0.81471515
vt 0.24237278 0.7230696
vt 0.24487275 0.90625393
vt 0.24737273 0.81471515
vt 0.24737273 0.90625393
vt 0.24487275 0.81471515
vt 0.24487275 0.7230696
vt 0.24737273 0.81471515
vt 0.24737273 0.7230696
vt 0.24487275 0.90625393
vt 0.24737273 0.81471515
vt 0.24737273 0.90625393
vt 0.24487275 0.81471515
vt 0.24237278 0.90625393
vt 0.24237278 0.81471515
vt 0.2398728 0.90625393
vt 0.2398728 0.81471515
vt 0.24237278 0.81471515
vt 0.24237278 0.90625393
vt 0.24487275 0.81471515
vt 0.24487275 0.90625393
vt 0.24737273 0.81471515
vt 0.24737273 0.90625393
vt 0.24487275 0.90625393
vt 0.24737273 0.81471515
vt 0.24737273 0.90625393
vt 0.24487275 0.81471515
vt 0.24737273 0.7231001
vt 0.24237278 0.90625393
vt 0.24487275 0.7231001
vt 0.24237278 0.81471515
vt 0.24237278 0.7231001
vt 0.2398728 0.90625393
vt 0.2398728 0.81471515
vt 0.2398728 0.7231001
vt 0.24237278 0.7231001
vt 0.24237278 0.81471515
vt 0.24237278 0.90625393
vt 0.24487275 0.7231001
vt 0.24487275 0.81471515
vt 0.24737273 0.7231001
vt 0.24487275 0.90625393
vt 0.24737273 0.81471515
vt 0.24737273 0.90625393
vn 0.17693049 -0.37438887 -0.9102354
vn 0.34307685 -0.9393073 -0
vn 0.42716172 -0.9041753 -0
vn 0.1925708 -0.49755597 -0.84578633
vn -0.26881707 0.56989217 -0.7765051
vn 0.18279558 -0.98240423 -0.038310636
vn -0.16911042 0.4623654 -0.87041366
vn -0.42716172 0.9041752 -0
vn 0.100684226 -0.51515126 -0.851165
vn -0.0009775162 -0.9999995 -0
vn -0.0009775162 -0.5229714 -0.8523497
vn -0.08895397 0.47409558 -0.87596834
vn -0.0009775162 0.47605062 -0.87941736
vn -0.36041856 0.9327907 -0
vn -0.1925708 0.9804492 -0.040445637
vn -0.0009775162 0.9999995 -0
vn -0.0009775162 0.47605062 0.87941736
vn -0.08895397 0.47409558 0.87596834
vn -0.0009775162 -0.5229714 0.8523497
vn -0.16911042 0.4623654 0.87041366
vn -0.26881707 0.56989217 0.7765051
vn 0.100684226 -0.51515126 0.851165
vn -0.0009775162 -0.9999995 -0
vn 0.18279558 -0.98240423 -0.038310636
vn 0.1925708 -0.49755597 0.84578633
vn 0.17693049 -0.37438887 0.9102354
vn 0.34307685 -0.9393073 -0
vn 0.42716172 -0.9041753 -0
vn -0.0009775162 -0.5229714 -0.8523497
vn -0.18279564 -0.98240423 -0.038310636
vn -0.0009775162 -0.9999995 -0
vn -0.100684166 -0.51515126 -0.851165
vn -0.0009775162 0.47605062 -0.87941736
vn 0.08895403 0.47409558 -0.87596834
vn -0.0009775162 0.9999995 -0
vn 0.1925708 0.9804492 -0.040445637
vn 0.08895403 0.47409558 0.87596834
vn -0.0009775162 0.47605062 0.87941736
vn -0.100684166 -0.51515126 0.851165
vn -0.0009775162 -0.5229714 0.8523497
vn -0.18279564 -0.98240423 -0.038310636
vn -0.0009775162 -0.9999995 -0
vn -0.100684166 -0.51515126 -0.851165
vn -0.34307685 -0.9393074 -0
vn -0.18279564 -0.98240423 -0.038310636
vn -0.1925708 -0.49755597 -0.84578633
vn -0.42716178 -0.9041753 -0
vn 0.08895403 0.47409558 -0.87596834
vn -0.17693055 -0.37438887 -0.9102354
vn 0.16911036 0.4623654 -0.87041366
vn 0.26881707 0.56989217 -0.7765051
vn 0.1925708 0.9804492 -0.040445637
vn 0.36041856 0.9327906 -0
vn 0.42716166 0.9041752 -0
vn 0.26881707 0.56989217 0.7765051
vn 0.16911036 0.4623654 0.87041366
vn 0.08895403 0.47409558 0.87596834
vn -0.17693055 -0.37438887 0.9102354
vn -0.1925708 -0.49755597 0.84578633
vn -0.42716178 -0.9041753 -0
vn -0.100684166 -0.51515126 0.851165
vn -0.34307685 -0.9393074 -0
vn -0.18279564 -0.98240423 -0.038310636
g febg_factory_001_powerpolewire_01_0
f 3/3/3 2/2/2 1/1/1
f 2/2/2 4/4/4 1/1/1
f 1/1/1 4/4/4 5/5/5
f 2/2/2 6/6/6 4/4/4
f 4/4/4 7/7/7 5/5/5
f 5/5/5 7/7/7 8/8/8
f 6/6/6 9/9/9 4/4/4
f 4/4/4 9/9/9 7/7/7
f 6/6/6 10/10/10 9/9/9
f 10/10/10 11/11/11 9/9/9
f 9/9/9 11/11/11 12/12/12
f 9/9/9 12/12/12 7/7/7
f 11/11/11 13/13/13 12/12/12
f 7/7/7 14/14/14 8/8/8
f 7/7/7 12/12/12 14/14/14
f 12/12/12 13/13/13 15/15/15
f 12/12/12 15/15/15 14/14/14
f 13/13/13 16/16/16 15/15/15
f 16/16/16 17/17/17 15/15/15
f 17/17/17 18/18/18 15/15/15
f 15/15/15 18/18/18 14/14/14
f 17/17/17 19/19/19 18/18/18
f 14/14/14 20/20/20 8/8/8
f 18/18/18 20/20/20 14/14/14
f 20/20/20 21/21/21 8/8/8
f 19/19/19 22/22/22 18/18/18
f 18/18/18 22/22/22 20/20/20
f 19/19/19 23/23/23 22/22/22
f 23/23/23 24/24/24 22/22/22
f 20/20/20 25/25/25 21/21/21
f 22/22/22 25/25/25 20/20/20
f 22/22/22 24/24/24 25/25/25
f 25/25/25 26/26/26 21/21/21
f 24/24/24 27/27/27 25/25/25
f 25/25/25 27/27/27 26/26/26
f 27/27/27 28/28/28 26/26/26
f 31/31/31 30/30/30 29/29/29
f 30/30/30 32/32/32 29/29/29
f 29/29/29 32/32/32 33/33/33
f 32/32/32 34/34/34 33/33/33
f 33/33/33 34/34/34 35/35/35
f 34/34/34 36/36/36 35/35/35
f 36/36/36 37/37/37 35/35/35
f 37/37/37 38/38/38 35/35/35
f 37/37/37 39/39/39 38/38/38
f 39/39/39 40/40/40 38/38/38
f 39/39/39 41/41/41 40/40/40
f 41/41/41 42/42/42 40/40/40
f 45/45/45 44/44/44 43/43/43
f 44/44/44 46/46/46 43/43/43
f 44/44/44 47/47/47 46/46/46
f 43/43/43 46/46/46 48/48/48
f 47/47/47 49/49/49 46/46/46
f 46/46/46 50/50/50 48/48/48
f 46/46/46 49/49/49 50/50/50
f 49/49/49 51/51/51 50/50/50
f 48/48/48 50/50/50 52/52/52
f 50/50/50 51/51/51 53/53/53
f 50/50/50 53/53/53 52/52/52
f 51/51/51 54/54/54 53/53/53
f 54/54/54 55/55/55 53/53/53
f 53/53/53 56/56/56 52/52/52
f 55/55/55 56/56/56 53/53/53
f 56/56/56 57/57/57 52/52/52
f 55/55/55 58/58/58 56/56/56
f 56/56/56 59/59/59 57/57/57
f 58/58/58 59/59/59 56/56/56
f 58/58/58 60/60/60 59/59/59
f 59/59/59 61/61/61 57/57/57
f 60/60/60 62/62/62 59/59/59
f 59/59/59 62/62/62 61/61/61
f 62/62/62 63/63/63 61/61/61
