g febg_lostcity_001_garbage_02
v 0.38419208 0.09303585 0.081000626
v 0.01922924 0.079976976 -0.19762167
v 0.37679967 0.07757679 0.09255552
v 0.024720803 0.095378436 -0.21045475
v 0.3743335 0.106733836 0.09335908
v 0.015649796 0.10910027 -0.19756675
v 0.36694118 0.09127489 0.10491413
v 0.010158218 0.0936989 -0.18473367
v 0.37679967 0.07757679 0.09255552
v 0.01922924 0.079976976 -0.19762167
v 0.36694118 0.09127489 0.10491413
v 0.3743335 0.106733836 0.09335908
v 0.38419208 0.09303585 0.081000626
v 0.37679967 0.07757679 0.09255552
v -0.5280202 0.08920707 -0.52621424
v -0.51894945 0.07548521 -0.53910244
v -0.5134578 0.09088646 -0.55193543
v -0.5225287 0.10460856 -0.53904736
v 0.01922924 0.079976976 -0.19762167
v -0.51894945 0.07548521 -0.53910244
v -0.5280202 0.08920707 -0.52621424
v 0.010158218 0.0936989 -0.18473367
v -0.5225287 0.10460856 -0.53904736
v 0.015649796 0.10910027 -0.19756675
v -0.5134578 0.09088646 -0.55193543
v 0.024720803 0.095378436 -0.21045475
v -0.51894945 0.07548521 -0.53910244
v 0.01922924 0.079976976 -0.19762167
v -0.19426139 0.18065996 -0.30836654
v -0.19374402 0.16101393 -0.30850524
v -0.15938644 0.16192278 -0.30907983
v -0.15990385 0.1815688 -0.3089412
v -0.14429155 0.1190875 0.40941018
v -0.14377415 0.09944143 0.40927154
v -0.1781317 0.09852929 0.41032225
v -0.17864913 0.1181753 0.41046083
v -0.20206334 0.09121008 0.04903894
v -0.1781317 0.09852929 0.41032225
v -0.20154594 0.07156406 0.048900373
v -0.1970596 0.10316644 -0.12980245
v -0.19757698 0.122812465 -0.1296638
v -0.19374402 0.16101393 -0.30850524
v -0.19426139 0.18065996 -0.30836654
v -0.15990385 0.1815688 -0.3089412
v -0.16321944 0.123722136 -0.13035741
v -0.15938644 0.16192278 -0.30907983
v -0.16270204 0.1040761 -0.13049604
v -0.16770579 0.092120595 0.048226353
v -0.1671884 0.07247455 0.048087746
v -0.14377415 0.09944143 0.40927154
v -0.41191113 0.18016034 0.41722262
v -0.41244674 0.16051432 0.41722262
v -0.4463818 0.16143952 0.41182345
v -0.44584617 0.18108559 0.41182345
v -0.26911417 0.0821614 -0.25863177
v -0.26964983 0.06251537 -0.25863183
v -0.23563206 0.06158795 -0.25370133
v -0.23509641 0.08123398 -0.2537014
v -0.29545704 0.0856884 0.10449305
v -0.23563206 0.06158795 -0.25370133
v -0.29599267 0.066042386 0.10449296
v -0.36498064 0.12981315 0.2607968
v -0.364445 0.14945917 0.2607968
v -0.41244674 0.16051432 0.41722262
v -0.41191113 0.18016034 0.41722262
v -0.32943344 0.08661471 0.099328205
v -0.39840072 0.15038493 0.2555148
v -0.44584617 0.18108559 0.41182345
v -0.4463818 0.16143952 0.41182345
v -0.39893636 0.13073888 0.2555148
v -0.32996908 0.06696867 0.099328145
v -0.26964983 0.06251537 -0.25863183
v -0.12572299 0.07659255 -0.14422956
v -0.8424483 0.0018000528 -0.19698358
v -0.12476672 0.05696252 -0.14422958
v -0.84340453 0.021430105 -0.19698358
v -0.12861387 0.07645247 -0.10998197
v -0.84534776 0.021336176 -0.162653
v -0.8424483 0.0018000528 -0.19698358
v -0.84439135 0.0017061308 -0.16265297
v -0.12765758 0.056822434 -0.10998197
v -0.84439135 0.0017061308 -0.16265297
v 0.5945525 0.09876302 -0.12171012
v 0.59550875 0.07913297 -0.12171014
v 0.5935653 0.079039045 -0.08737953
v 0.59260887 0.098669074 -0.08737952
v -0.12861387 0.07645247 -0.10998197
v 0.5935653 0.079039045 -0.08737953
v -0.12765758 0.056822434 -0.10998197
v -0.12572299 0.07659255 -0.14422956
v -0.12476672 0.05696252 -0.14422958
v 0.59550875 0.07913297 -0.12171014
v -0.082475305 0.0897083 -0.06786541
v -0.80571073 0.08976732 -0.04243585
v -0.08301096 0.070062265 -0.06786541
v -0.80517524 0.109413356 -0.042435866
v -0.08237369 0.08970626 -0.033495873
v -0.8041215 0.1093854 -0.008066338
v -0.80571073 0.08976732 -0.04243585
v -0.804657 0.08973939 -0.008066341
v -0.08290933 0.07006025 -0.03349586
v -0.804657 0.08973939 -0.008066341
v 0.6392703 0.070029214 -0.09329496
v 0.6387347 0.050383203 -0.09329498
v 0.6397881 0.05035523 -0.05892539
v 0.64032364 0.070001245 -0.058925398
v -0.08237369 0.08970626 -0.033495873
v 0.6397881 0.05035523 -0.05892539
v -0.08290933 0.07006025 -0.03349586
v -0.082475305 0.0897083 -0.06786541
v -0.08301096 0.070062265 -0.06786541
v 0.6387347 0.050383203 -0.09329498
v 0.12255171 0.053711675 0.098951384
v -0.60068387 0.053770732 0.0992268
v 0.12201604 0.034065656 0.098951384
v -0.60014814 0.07341674 0.09922685
v 0.12265332 0.05370966 0.13332097
v -0.5990944 0.073388785 0.1335963
v -0.60068387 0.053770732 0.0992268
v -0.5996302 0.05374277 0.13359632
v 0.12211765 0.034063645 0.13332091
v -0.5996302 0.05374277 0.13359632
v 0.8442976 0.0340326 0.06240581
v 0.84376186 0.014386579 0.062405795
v 0.84481525 0.014358625 0.09677535
v 0.8453511 0.034004636 0.0967754
v 0.12265332 0.05370966 0.13332097
v 0.84481525 0.014358625 0.09677535
v 0.12211765 0.034063645 0.13332091
v 0.12255171 0.053711675 0.098951384
v 0.12201604 0.034065656 0.098951384
v 0.84376186 0.014386579 0.062405795
v 0.09499967 0.12728329 0.05818113
v -0.61953616 0.06943314 -0.016777351
v 0.09600577 0.10765587 0.058224298
v -0.62054163 0.08906064 -0.016820475
v 0.09037463 0.12712193 0.09223789
v -0.6242248 0.088947766 0.017367192
v -0.61953616 0.06943314 -0.016777351
v -0.623219 0.06932029 0.017410398
v 0.091380745 0.107494414 0.09228104
v -0.623219 0.06932029 0.017410398
v 0.7113033 0.14658478 0.16800174
v 0.71230924 0.12695728 0.16804492
v 0.7086262 0.12684444 0.20223257
v 0.70762014 0.14647192 0.20218942
v 0.09037463 0.12712193 0.09223789
v 0.7086262 0.12684444 0.20223257
v 0.091380745 0.107494414 0.09228104
v 0.09499967 0.12728329 0.05818113
v 0.09600577 0.10765587 0.058224298
v 0.71230924 0.12695728 0.16804492
v -0.81159306 0.02219135 0.1309798
v -0.80845404 0.0049888194 0.12200926
v -0.80148286 0.021548502 0.09269112
v -0.8046219 0.038751036 0.1016617
v -0.46543178 0.091841914 0.27129012
v -0.4622926 0.07463939 0.26231962
v -0.80845404 0.0049888194 0.12200926
v -0.11810753 0.04391502 0.30807754
v -0.12124683 0.061117515 0.31704807
v -0.45800373 0.10841535 0.24210554
v -0.80148286 0.021548502 0.09269112
v -0.113361955 0.07770476 0.28799704
v -0.4548645 0.09121287 0.23313503
v -0.11022265 0.06050228 0.27902648
v 0.5886106 0.11111525 0.4663972
v 0.5917499 0.09391279 0.45742664
v 0.58477885 0.077352986 0.4867446
v 0.5816394 0.09455553 0.49571535
v -0.12124683 0.061117515 0.31704807
v 0.58477885 0.077352986 0.4867446
v -0.11810753 0.04391502 0.30807754
v -0.113361955 0.07770476 0.28799704
v -0.11022265 0.06050228 0.27902648
v 0.5917499 0.09391279 0.45742664
vt 0.016237065 0.6702134
vt 0.020301834 0.563013
vt 0.020301834 0.6702134
vt 0.016237065 0.563013
vt 0.012157336 0.6702134
vt 0.012157336 0.563013
vt 0.0081811845 0.6702134
vt 0.0081811845 0.563013
vt 0.004103095 0.6702134
vt 0.004103095 0.563013
vt 0.012157336 0.6743136
vt 0.012157336 0.6702134
vt 0.016237065 0.6702134
vt 0.016237065 0.6743136
vt 0.012157336 0.6743136
vt 0.016237065 0.6743136
vt 0.016237065 0.6702134
vt 0.012157336 0.6702134
vt 0.004103095 0.563013
vt 0.004103095 0.6702134
vt 0.0081811845 0.6702134
vt 0.0081811845 0.563013
vt 0.012157336 0.6702134
vt 0.012157336 0.563013
vt 0.016237065 0.6702134
vt 0.016237065 0.563013
vt 0.020301834 0.6702134
vt 0.020301834 0.563013
vt 0.11060685 0.98991054
vt 0.11060685 0.99485505
vt 0.11925766 0.99485505
vt 0.11925766 0.98991054
vt 0.11925766 0.98991054
vt 0.11925766 0.99485505
vt 0.11060685 0.99485505
vt 0.11060685 0.98991054
vt 0.11060685 0.8989456
vt 0.105662346 0.98991054
vt 0.105662346 0.8989489
vt 0.105662346 0.8534681
vt 0.11060685 0.8534632
vt 0.105662346 0.80798733
vt 0.11060685 0.80798066
vt 0.11925766 0.8080095
vt 0.11925766 0.85348475
vt 0.124202155 0.8080041
vt 0.124202155 0.8534807
vt 0.11925766 0.89896005
vt 0.124202155 0.8989573
vt 0.124202155 0.98991054
vt 0.11060685 0.98991054
vt 0.11060685 0.99485505
vt 0.11925766 0.99485505
vt 0.11925766 0.98991054
vt 0.093515314 0.98991054
vt 0.093515314 0.99485505
vt 0.084864505 0.99485505
vt 0.084864505 0.98991054
vt 0.084864505 0.8989456
vt 0.07992 0.98991054
vt 0.07992 0.8989489
vt 0.07992 0.8534681
vt 0.084864505 0.8534631
vt 0.07992 0.80798733
vt 0.084864505 0.80798066
vt 0.093515314 0.89896005
vt 0.093515314 0.8534848
vt 0.093515314 0.8080095
vt 0.09845981 0.8080041
vt 0.09845981 0.85348076
vt 0.09845981 0.8989573
vt 0.09845981 0.98991054
vt 0.11925766 0.8080475
vt 0.124202155 0.98991054
vt 0.124202155 0.80805284
vt 0.11925766 0.98991054
vt 0.11060685 0.8080764
vt 0.11060685 0.98991054
vt 0.11925766 0.99485505
vt 0.11060685 0.99485505
vt 0.105662346 0.8080697
vt 0.105662346 0.98991054
vt 0.11925766 0.98991054
vt 0.11925766 0.99485505
vt 0.11060685 0.99485505
vt 0.11060685 0.98991054
vt 0.11060685 0.80798066
vt 0.105662346 0.98991054
vt 0.105662346 0.80798733
vt 0.11925766 0.8080095
vt 0.124202155 0.8080041
vt 0.124202155 0.98991054
vt 0.09350243 0.8080475
vt 0.09844693 0.98991054
vt 0.09844693 0.80805284
vt 0.09350243 0.98991054
vt 0.08485162 0.8080764
vt 0.08485162 0.98991054
vt 0.09350243 0.99485505
vt 0.08485162 0.99485505
vt 0.07990712 0.8080697
vt 0.07990712 0.98991054
vt 0.09350243 0.98991054
vt 0.09350243 0.99485505
vt 0.08485162 0.99485505
vt 0.08485162 0.98991054
vt 0.08485162 0.80798066
vt 0.07990712 0.98991054
vt 0.07990712 0.80798733
vt 0.09350243 0.8080095
vt 0.09844693 0.8080041
vt 0.09844693 0.98991054
vt 0.09351412 0.8080475
vt 0.098458566 0.98991054
vt 0.098458566 0.80805284
vt 0.09351412 0.98991054
vt 0.08486316 0.8080764
vt 0.08486316 0.98991054
vt 0.09351412 0.99485505
vt 0.08486316 0.99485505
vt 0.07991881 0.8080697
vt 0.07991881 0.98991054
vt 0.09351412 0.98991054
vt 0.09351412 0.99485505
vt 0.08486316 0.99485505
vt 0.08486316 0.98991054
vt 0.08486316 0.80798066
vt 0.07991881 0.98991054
vt 0.07991881 0.80798733
vt 0.09351412 0.8080095
vt 0.098458566 0.8080041
vt 0.098458566 0.98991054
vt 0.11925766 0.8080475
vt 0.124202155 0.98991054
vt 0.124202155 0.80805284
vt 0.11925766 0.98991054
vt 0.11060685 0.8080764
vt 0.11060685 0.98991054
vt 0.11925766 0.99485505
vt 0.11060685 0.99485505
vt 0.105662346 0.8080697
vt 0.105662346 0.98991054
vt 0.11925766 0.98991054
vt 0.11925766 0.99485505
vt 0.11060685 0.99485505
vt 0.11060685 0.98991054
vt 0.11060685 0.80798066
vt 0.105662346 0.98991054
vt 0.105662346 0.80798733
vt 0.11925766 0.8080095
vt 0.124202155 0.8080041
vt 0.124202155 0.98991054
vt 0.08486316 0.98991054
vt 0.08486316 0.99485505
vt 0.09351412 0.99485505
vt 0.09351412 0.98991054
vt 0.08486316 0.8989935
vt 0.07991881 0.8989901
vt 0.07991881 0.98991054
vt 0.07991881 0.8080697
vt 0.08486316 0.8080764
vt 0.09351412 0.898979
vt 0.098458566 0.98991054
vt 0.09351412 0.8080475
vt 0.098458566 0.89898175
vt 0.098458566 0.80805284
vt 0.09351412 0.98991054
vt 0.09351412 0.99485505
vt 0.08486316 0.99485505
vt 0.08486316 0.98991054
vt 0.08486316 0.80798066
vt 0.07991881 0.98991054
vt 0.07991881 0.80798733
vt 0.09351412 0.8080095
vt 0.098458566 0.8080041
vt 0.098458566 0.98991054
vn 0.23031533 -0.8160851 -0.5300566
vn -0.44243297 -0.5913022 0.67425126
vn -0.45662555 -0.5552467 0.69512177
vn 0.17417255 -0.8019755 -0.57140124
vn 0.44516882 0.59439266 -0.66971797
vn 0.45362964 0.55990183 -0.69334704
vn -0.25155538 0.7883979 0.561381
vn -0.18436122 0.7955296 0.5771859
vn -0.45662555 -0.5552467 0.69512177
vn -0.44243297 -0.5913022 0.67425126
vn 0.896736 -0.096432015 0.43193206
vn 0.8967366 -0.09643208 0.43193084
vn 0.89673555 -0.096434526 0.4319325
vn 0.89673644 -0.096431315 0.4319315
vn -0.9293112 0.15642951 -0.3345301
vn -0.92930853 0.15643053 -0.33453724
vn -0.9293112 0.15642989 -0.3345301
vn -0.9293112 0.15642951 -0.3345301
vn -0.44243297 -0.5913022 0.67425126
vn -0.44331703 -0.59262204 0.6725096
vn -0.11552562 0.81736004 0.5644257
vn -0.18436122 0.7955296 0.5771859
vn 0.44912767 0.55676544 -0.69878215
vn 0.45362964 0.55990183 -0.69334704
vn 0.15395908 -0.7668718 -0.6230604
vn 0.17417255 -0.8019755 -0.57140124
vn -0.44331703 -0.59262204 0.6725096
vn -0.44243297 -0.5913022 0.67425126
vn -0.5765413 0.6588246 -0.4832703
vn -0.76085514 -0.015457954 -0.64873767
vn 0.7721911 0.024818216 -0.6349054
vn 0.54911673 0.680964 -0.4845193
vn 0.5848445 0.61159015 0.5328362
vn 0.75748783 0.015344139 0.65266895
vn -0.6889989 -0.023256803 0.72438914
vn -0.5601762 0.5856484 0.5858486
vn -0.76247424 0.6453455 0.04649972
vn -0.6889989 -0.023256803 0.72438914
vn -0.999451 -0.026462376 0.019934937
vn -0.9992508 -0.026114032 -0.028562613
vn -0.74061465 0.6559105 0.14584753
vn -0.76085514 -0.015457954 -0.64873767
vn -0.5765413 0.6588246 -0.4832703
vn 0.54911673 0.680964 -0.4845193
vn 0.7045231 0.68453115 0.18725461
vn 0.7721911 0.024818216 -0.6349054
vn 0.99925023 0.026114522 0.028581874
vn 0.7073809 0.7064648 0.022797557
vn 0.99945074 0.026461925 -0.019948982
vn 0.75748783 0.015344139 0.65266895
vn 0.44917342 0.62999636 0.6335202
vn 0.56710154 -0.015461245 0.8235028
vn -0.87958515 0.023981243 0.4751368
vn -0.66140205 0.6396107 0.39172122
vn -0.46461794 0.58901125 -0.6612079
vn -0.5868576 0.01600109 -0.8095319
vn 0.8063268 -0.021984495 -0.5910616
vn 0.67662716 0.55547655 -0.48334408
vn 0.7766572 0.61599463 0.13173546
vn 0.8063268 -0.021984495 -0.5910616
vn 0.9607938 -0.02619617 0.2760237
vn 0.9312464 -0.025390115 0.3635043
vn 0.70370543 0.70978034 0.031788863
vn 0.56710154 -0.015461245 0.8235028
vn 0.44917342 0.62999636 0.6335202
vn -0.63626146 0.6883597 -0.3483278
vn -0.59674954 0.6895936 -0.4103055
vn -0.66140205 0.6396107 0.39172122
vn -0.87958515 0.023981243 0.4751368
vn -0.9311942 0.025388787 -0.36363816
vn -0.96077704 0.026195997 -0.27608204
vn -0.5868576 0.01600109 -0.8095319
vn -0.0018544197 0.7176231 -0.6964292
vn -0.6658002 -0.032435995 -0.74542475
vn 0.05219694 0.00254332 -0.99863356
vn -0.57306874 0.5403531 -0.6161256
vn -0.0751283 0.704762 0.7054547
vn -0.64755595 0.5385083 0.5391476
vn -0.6658002 -0.032435995 -0.74542475
vn -0.75638014 -0.036848534 0.65309364
vn -0.05222479 -0.0025440487 0.99863213
vn -0.75638014 -0.036848534 0.65309364
vn 0.5790346 0.59935004 -0.5527192
vn 0.7405514 0.036078252 -0.6710305
vn 0.6786486 0.033061907 0.73371863
vn 0.5268723 0.5992873 0.6027109
vn -0.0751283 0.704762 0.7054547
vn 0.6786486 0.033061907 0.73371863
vn -0.05222479 -0.0025440487 0.99863213
vn -0.0018544197 0.7176231 -0.6964292
vn 0.05219694 0.00254332 -0.99863356
vn 0.7405514 0.036078252 -0.6710305
vn -0.0055908314 0.70751953 -0.7066716
vn -0.7297128 0.019889511 -0.68346447
vn -0.035162218 0.0009586227 -0.9993812
vn -0.57995296 0.59360534 -0.55793124
vn 0.044136077 0.7061793 0.70665604
vn -0.5422066 0.5921147 0.59616464
vn -0.7297128 0.019889511 -0.68346447
vn -0.6831899 0.018621689 0.73000324
vn 0.0351622 -0.0009581322 0.9993812
vn -0.6831899 0.018621689 0.73000324
vn 0.57366776 0.56167835 -0.59617347
vn 0.6831862 -0.018624265 -0.7300068
vn 0.7297215 -0.01989281 0.68345505
vn 0.61142737 0.56113964 0.5579237
vn 0.044136077 0.7061793 0.70665604
vn 0.7297215 -0.01989281 0.68345505
vn 0.0351622 -0.0009581322 0.9993812
vn -0.0055908314 0.70751953 -0.7066716
vn -0.035162218 0.0009586227 -0.9993812
vn 0.6831862 -0.018624265 -0.7300068
vn 0.0015672873 0.71301323 -0.7011488
vn -0.71772397 0.019573484 -0.6960525
vn -0.025464756 0.0006951079 -0.9996755
vn -0.5711287 0.5915555 -0.56909937
vn 0.037244402 0.7007619 0.7124224
vn -0.5515332 0.5942202 0.58541733
vn -0.71772397 0.019573484 -0.6960525
vn -0.6957948 0.018973857 0.7179899
vn 0.025431687 -0.000695427 0.99967635
vn -0.6957948 0.018973857 0.7179899
vn 0.5694352 0.56098956 -0.6008613
vn 0.67755604 -0.018478181 -0.73523885
vn 0.7349407 -0.02004507 0.67783505
vn 0.6152928 0.5618446 0.5529425
vn 0.037244402 0.7007619 0.7124224
vn 0.7349407 -0.02004507 0.67783505
vn 0.025431687 -0.000695427 0.99967635
vn 0.0015672873 0.71301323 -0.7011488
vn -0.025464756 0.0006951079 -0.9996755
vn 0.67755604 -0.018478181 -0.73523885
vn 0.06977573 0.7044247 -0.70634073
vn -0.62803024 -0.033885814 -0.77745074
vn 0.13994281 0.0049948352 -0.99014693
vn -0.5423316 0.54846096 -0.63644874
vn -0.12741923 0.7136726 0.68879306
vn -0.664426 0.54443 0.5119902
vn -0.62803024 -0.033885814 -0.77745074
vn -0.7772649 -0.038442966 0.627998
vn -0.13989164 -0.0049927104 0.9901542
vn -0.7772649 -0.038442966 0.627998
vn 0.62637293 0.60639435 -0.4898396
vn 0.8025195 0.039823625 -0.59529525
vn 0.6046896 0.032742538 0.795788
vn 0.46642092 0.59371495 0.6557088
vn -0.12741923 0.7136726 0.68879306
vn 0.6046896 0.032742538 0.795788
vn -0.13989164 -0.0049927104 0.9901542
vn 0.06977573 0.7044247 -0.70634073
vn 0.13994281 0.0049948352 -0.99014693
vn 0.8025195 0.039823625 -0.59529525
vn -0.8123226 0.15019184 0.56353736
vn -0.86748916 -0.34511885 0.35826758
vn -0.5753431 0.29318658 -0.76355875
vn -0.5490958 0.71474427 -0.43316793
vn -0.25786945 0.31489265 0.91342545
vn -0.20093879 -0.48152342 0.85308784
vn -0.86748916 -0.34511885 0.35826758
vn -0.17711005 -0.4802861 0.8590444
vn -0.17495038 0.2563798 0.95061123
vn 0.009974618 0.97590274 -0.21797812
vn -0.5753431 0.29318658 -0.76355875
vn 0.0759201 0.95000833 -0.3028533
vn 0.20098265 0.4815271 -0.85307544
vn 0.17713097 0.48028696 -0.85903966
vn 0.5816638 0.80895245 -0.085223794
vn 0.82449645 0.37256542 -0.42591143
vn 0.5438889 -0.3078332 0.7806558
vn 0.35176173 0.253728 0.9010471
vn -0.17495038 0.2563798 0.95061123
vn 0.5438889 -0.3078332 0.7806558
vn -0.17711005 -0.4802861 0.8590444
vn 0.0759201 0.95000833 -0.3028533
vn 0.17713097 0.48028696 -0.85903966
vn 0.82449645 0.37256542 -0.42591143
g febg_lostcity_001_garbage_02_0
f 3/3/3 2/2/2 1/1/1
f 2/2/2 4/4/4 1/1/1
f 1/1/1 4/4/4 5/5/5
f 4/4/4 6/6/6 5/5/5
f 5/5/5 6/6/6 7/7/7
f 6/6/6 8/8/8 7/7/7
f 7/7/7 8/8/8 9/9/9
f 8/8/8 10/10/10 9/9/9
f 13/13/13 12/12/12 11/11/11
f 14/14/14 13/13/13 11/11/11
f 17/17/17 16/16/16 15/15/15
f 18/18/18 17/17/17 15/15/15
f 21/21/21 20/20/20 19/19/19
f 22/22/22 21/21/21 19/19/19
f 23/23/23 21/21/21 22/22/22
f 24/24/24 23/23/23 22/22/22
f 25/25/25 23/23/23 24/24/24
f 26/26/26 25/25/25 24/24/24
f 27/27/27 25/25/25 26/26/26
f 28/28/28 27/27/27 26/26/26
f 31/31/31 30/30/30 29/29/29
f 32/32/32 31/31/31 29/29/29
f 35/35/35 34/34/34 33/33/33
f 36/36/36 35/35/35 33/33/33
f 37/37/37 36/36/36 33/33/33
f 38/38/38 36/36/36 37/37/37
f 39/39/39 38/38/38 37/37/37
f 40/40/40 39/39/39 37/37/37
f 41/41/41 40/40/40 37/37/37
f 42/42/42 40/40/40 41/41/41
f 43/43/43 42/42/42 41/41/41
f 43/43/43 41/41/41 44/44/44
f 41/41/41 45/45/45 44/44/44
f 41/41/41 37/37/37 45/45/45
f 46/46/46 44/44/44 45/45/45
f 47/47/47 46/46/46 45/45/45
f 37/37/37 48/48/48 45/45/45
f 47/47/47 45/45/45 48/48/48
f 48/48/48 37/37/37 33/33/33
f 49/49/49 47/47/47 48/48/48
f 49/49/49 48/48/48 33/33/33
f 50/50/50 49/49/49 33/33/33
f 53/53/53 52/52/52 51/51/51
f 54/54/54 53/53/53 51/51/51
f 57/57/57 56/56/56 55/55/55
f 58/58/58 57/57/57 55/55/55
f 59/59/59 58/58/58 55/55/55
f 60/60/60 58/58/58 59/59/59
f 61/61/61 60/60/60 59/59/59
f 62/62/62 61/61/61 59/59/59
f 63/63/63 62/62/62 59/59/59
f 64/64/64 62/62/62 63/63/63
f 65/65/65 64/64/64 63/63/63
f 66/66/66 59/59/59 55/55/55
f 63/63/63 59/59/59 66/66/66
f 65/65/65 63/63/63 67/67/67
f 67/67/67 63/63/63 66/66/66
f 68/68/68 65/65/65 67/67/67
f 69/69/69 68/68/68 67/67/67
f 70/70/70 69/69/69 67/67/67
f 70/70/70 67/67/67 66/66/66
f 71/71/71 70/70/70 66/66/66
f 71/71/71 66/66/66 55/55/55
f 72/72/72 71/71/71 55/55/55
f 75/75/75 74/74/74 73/73/73
f 74/74/74 76/76/76 73/73/73
f 77/77/77 73/73/73 76/76/76
f 78/78/78 77/77/77 76/76/76
f 76/76/76 79/79/79 78/78/78
f 79/79/79 80/80/80 78/78/78
f 81/81/81 77/77/77 78/78/78
f 82/82/82 81/81/81 78/78/78
f 85/85/85 84/84/84 83/83/83
f 86/86/86 85/85/85 83/83/83
f 87/87/87 86/86/86 83/83/83
f 88/88/88 86/86/86 87/87/87
f 89/89/89 88/88/88 87/87/87
f 90/90/90 87/87/87 83/83/83
f 91/91/91 90/90/90 83/83/83
f 92/92/92 91/91/91 83/83/83
f 95/95/95 94/94/94 93/93/93
f 94/94/94 96/96/96 93/93/93
f 97/97/97 93/93/93 96/96/96
f 98/98/98 97/97/97 96/96/96
f 96/96/96 99/99/99 98/98/98
f 99/99/99 100/100/100 98/98/98
f 101/101/101 97/97/97 98/98/98
f 102/102/102 101/101/101 98/98/98
f 105/105/105 104/104/104 103/103/103
f 106/106/106 105/105/105 103/103/103
f 107/107/107 106/106/106 103/103/103
f 108/108/108 106/106/106 107/107/107
f 109/109/109 108/108/108 107/107/107
f 110/110/110 107/107/107 103/103/103
f 111/111/111 110/110/110 103/103/103
f 112/112/112 111/111/111 103/103/103
f 115/115/115 114/114/114 113/113/113
f 114/114/114 116/116/116 113/113/113
f 117/117/117 113/113/113 116/116/116
f 118/118/118 117/117/117 116/116/116
f 116/116/116 119/119/119 118/118/118
f 119/119/119 120/120/120 118/118/118
f 121/121/121 117/117/117 118/118/118
f 122/122/122 121/121/121 118/118/118
f 125/125/125 124/124/124 123/123/123
f 126/126/126 125/125/125 123/123/123
f 127/127/127 126/126/126 123/123/123
f 128/128/128 126/126/126 127/127/127
f 129/129/129 128/128/128 127/127/127
f 130/130/130 127/127/127 123/123/123
f 131/131/131 130/130/130 123/123/123
f 132/132/132 131/131/131 123/123/123
f 135/135/135 134/134/134 133/133/133
f 134/134/134 136/136/136 133/133/133
f 137/137/137 133/133/133 136/136/136
f 138/138/138 137/137/137 136/136/136
f 136/136/136 139/139/139 138/138/138
f 139/139/139 140/140/140 138/138/138
f 141/141/141 137/137/137 138/138/138
f 142/142/142 141/141/141 138/138/138
f 145/145/145 144/144/144 143/143/143
f 146/146/146 145/145/145 143/143/143
f 147/147/147 146/146/146 143/143/143
f 148/148/148 146/146/146 147/147/147
f 149/149/149 148/148/148 147/147/147
f 150/150/150 147/147/147 143/143/143
f 151/151/151 150/150/150 143/143/143
f 152/152/152 151/151/151 143/143/143
f 155/155/155 154/154/154 153/153/153
f 156/156/156 155/155/155 153/153/153
f 153/153/153 157/157/157 156/156/156
f 158/158/158 157/157/157 153/153/153
f 159/159/159 158/158/158 153/153/153
f 158/158/158 160/160/160 157/157/157
f 160/160/160 161/161/161 157/157/157
f 157/157/157 162/162/162 156/156/156
f 157/157/157 161/161/161 162/162/162
f 163/163/163 156/156/156 162/162/162
f 161/161/161 164/164/164 162/162/162
f 165/165/165 163/163/163 162/162/162
f 165/165/165 162/162/162 164/164/164
f 166/166/166 165/165/165 164/164/164
f 169/169/169 168/168/168 167/167/167
f 170/170/170 169/169/169 167/167/167
f 171/171/171 170/170/170 167/167/167
f 172/172/172 170/170/170 171/171/171
f 173/173/173 172/172/172 171/171/171
f 174/174/174 171/171/171 167/167/167
f 175/175/175 174/174/174 167/167/167
f 176/176/176 175/175/175 167/167/167
