g febg_christmas_001_ornament_03
v 0.4715269 5.066395E-07 -0.47581264
v -0.48421475 5.066395E-07 -0.47581264
v -0.48421475 5.066395E-07 0.47993603
v 0.4715269 5.066395E-07 0.47993603
v 0.4715269 1.0009981 -0.47581264
v 0.4715269 1.0009981 0.47993603
v -0.48421475 1.0009981 0.47993603
v -0.48421475 1.0009981 -0.47581264
v 0.4715269 5.066395E-07 -0.47581264
v 0.4715269 1.0009981 -0.47581264
v -0.48421475 1.0009981 -0.47581264
v -0.48421475 5.066395E-07 -0.47581264
v -0.48421475 5.066395E-07 -0.47581264
v -0.48421475 1.0009981 -0.47581264
v -0.48421475 1.0009981 0.47993603
v -0.48421475 5.066395E-07 0.47993603
v -0.48421475 5.066395E-07 0.47993603
v -0.48421475 1.0009981 0.47993603
v 0.4715269 1.0009981 0.47993603
v 0.4715269 5.066395E-07 0.47993603
v 0.4715269 5.066395E-07 0.47993603
v 0.4715269 1.0009981 0.47993603
v 0.4715269 1.0009981 -0.47581264
v 0.4715269 5.066395E-07 -0.47581264
vt 0.81291634 0.7008747
vt 0.83462346 0.7008747
vt 0.83462346 0.67916757
vt 0.81291634 0.67916757
vt 0.75899917 0.67662185
vt 0.75899917 0.72663665
vt 0.8090292 0.72663665
vt 0.8090292 0.67662185
vt 0.7590906 0.6266376
vt 0.7590906 0.67666763
vt 0.80912066 0.67666763
vt 0.80912066 0.6266376
vt 0.8091512 0.6266376
vt 0.8091512 0.67666763
vt 0.85918117 0.67666763
vt 0.85918117 0.6266376
vt 0.80912066 0.6266376
vt 0.80912066 0.67666763
vt 0.7590906 0.67666763
vt 0.7590906 0.6266376
vt 0.8091512 0.6266376
vt 0.8091512 0.67666763
vt 0.85918117 0.67666763
vt 0.85918117 0.6266376
vn 0.5773503 -0.5773503 -0.5773502
vn -0.5773503 -0.5773503 -0.5773502
vn -0.5773503 -0.5773503 0.5773502
vn 0.5773503 -0.5773503 0.5773502
vn 0.5773503 0.5773503 -0.5773502
vn 0.5773503 0.5773503 0.5773502
vn -0.5773503 0.5773503 0.5773502
vn -0.5773503 0.5773503 -0.5773502
vn 0.5773503 -0.5773503 -0.5773502
vn 0.5773503 0.5773503 -0.5773502
vn -0.5773503 0.5773503 -0.5773502
vn -0.5773503 -0.5773503 -0.5773502
vn -0.5773503 -0.5773503 -0.5773502
vn -0.5773503 0.5773503 -0.5773502
vn -0.5773503 0.5773503 0.5773502
vn -0.5773503 -0.5773503 0.5773502
vn -0.5773503 -0.5773503 0.5773502
vn -0.5773503 0.5773503 0.5773502
vn 0.5773503 0.5773503 0.5773502
vn 0.5773503 -0.5773503 0.5773502
vn 0.5773503 -0.5773503 0.5773502
vn 0.5773503 0.5773503 0.5773502
vn 0.5773503 0.5773503 -0.5773502
vn 0.5773503 -0.5773503 -0.5773502
g febg_christmas_001_ornament_03_0
f 3/3/3 2/2/2 1/1/1
f 4/4/4 3/3/3 1/1/1
f 7/7/7 6/6/6 5/5/5
f 8/8/8 7/7/7 5/5/5
f 11/11/11 10/10/10 9/9/9
f 12/12/12 11/11/11 9/9/9
f 15/15/15 14/14/14 13/13/13
f 16/16/16 15/15/15 13/13/13
f 19/19/19 18/18/18 17/17/17
f 20/20/20 19/19/19 17/17/17
f 23/23/23 22/22/22 21/21/21
f 24/24/24 23/23/23 21/21/21
