g febg_lostcity_001_stone_06
v 0.03874229 0.18099955 -0.20817941
v 0.07555175 2.6345253E-05 -0.2440452
v 0.19366817 2.6345253E-05 -0.1965886
v -0.16605487 2.6345253E-05 -0.19387811
v 0.17119116 0.088796854 -0.18200704
v 0.26285648 2.6345253E-05 0.011884838
v 0.22231852 0.10363704 0.00040653348
v 0.1581886 2.6345253E-05 0.20527652
v 0.10295758 0.18099904 0.15034083
v -0.11495969 2.6345253E-05 0.24618512
v -0.14899334 0.15362588 -0.16018845
v -0.26376247 2.6345253E-05 -0.03592682
v -0.10117063 0.15362537 0.18913457
v -0.25472343 2.6345253E-05 0.12264621
v -0.23137859 0.10048661 -0.03805524
vt 0.66212887 0.85797495
vt 0.67301005 0.8522456
vt 0.6633902 0.84191155
vt 0.67301005 0.87235147
vt 0.66117144 0.84943414
vt 0.644029 0.84191155
vt 0.64954555 0.8486439
vt 0.6322664 0.85542184
vt 0.6439834 0.8590084
vt 0.6322664 0.8742207
vt 0.6624024 0.86937284
vt 0.66104984 0.8850107
vt 0.6435123 0.8701327
vt 0.64451534 0.8850107
vt 0.65842074 0.87754893
vn 0.09692711 0.7678808 -0.63321733
vn 0.10048604 0.22871041 -0.96829444
vn 0.7037163 0.30166745 -0.64325744
vn -0.5703629 0.22159266 -0.79093796
vn 0.66100967 0.48494983 -0.57261676
vn 0.92436683 0.36750674 0.102395095
vn 0.8051443 0.5917162 0.04018209
vn 0.5382283 0.39063942 0.74680066
vn 0.34604877 0.7999108 0.49029887
vn -0.26251984 0.35505068 0.8972304
vn -0.493847 0.6931443 -0.52503914
vn -0.8960005 0.42622828 -0.12454929
vn -0.31590295 0.73585093 0.59893966
vn -0.78567517 0.49206758 0.37494534
vn -0.79457235 0.6006135 -0.08898448
g febg_lostcity_001_stone_06_0
f 3/3/3 2/2/2 1/1/1
f 2/2/2 4/4/4 1/1/1
f 5/5/5 3/3/3 1/1/1
f 6/6/6 3/3/3 5/5/5
f 7/7/7 6/6/6 5/5/5
f 5/5/5 1/1/1 7/7/7
f 6/6/6 7/7/7 8/8/8
f 7/7/7 9/9/9 8/8/8
f 7/7/7 1/1/1 9/9/9
f 10/10/10 8/8/8 9/9/9
f 4/4/4 11/11/11 1/1/1
f 1/1/1 11/11/11 9/9/9
f 4/4/4 12/12/12 11/11/11
f 13/13/13 10/10/10 9/9/9
f 11/11/11 13/13/13 9/9/9
f 10/10/10 13/13/13 14/14/14
f 12/12/12 15/15/15 11/11/11
f 12/12/12 14/14/14 15/15/15
f 14/14/14 13/13/13 15/15/15
f 11/11/11 15/15/15 13/13/13
