g febg_oldcastle_001_brickdebris_12
v -0.93159556 1.565268 0.3351755
v -0.4527011 1.5661609 -0.57392776
v -0.18380952 1.565268 0.0028158426
v -1.1992683 1.5661609 -0.23891544
v -0.4527011 0.79235196 -0.57392776
v -0.18380952 0.7914591 0.0028158426
v -0.18380952 1.565268 0.0028158426
v -1.1992683 0.79235196 -0.23891544
v -0.93159556 1.565268 0.3351755
v -0.93159556 0.7914591 0.3351755
v -1.6395135 0.78916955 0.20887291
v -0.32538724 0.78916955 -0.33589768
v -0.3824606 0.78916955 0.31885183
v -1.5824401 0.78916955 -0.4458729
v -0.32538724 -0.00021481514 -0.33589768
v -0.3824606 -0.00021481514 0.31884813
v -0.3824606 0.78916955 0.31885183
v -1.5824401 -0.00021481514 -0.4458766
v -1.6395135 0.78916955 0.20887291
v -1.6395135 -0.00021481514 0.20887291
v -0.20451236 0.82444715 0.5938194
v -0.20451605 2.2453108 -0.027349234
v -0.20451605 2.2453108 0.5938232
v -0.20451605 0.82444715 -0.027349234
v 0.6674015 0.82444715 -0.027349234
v 0.6674015 2.2453108 -0.027349234
v -0.20451605 2.2453108 0.5938232
v 0.6674015 2.2453108 0.5938194
v 0.6674015 2.2453108 0.5938194
v 0.6674015 0.82444715 0.5938194
v -0.48007274 0.023837209 -0.3349011
v -0.011659384 1.4245758 -0.41514468
v 0.2672503 1.1043496 -0.0019522905
v -0.7589822 0.3440671 -0.7480971
v -0.18616211 0.120434165 -1.3080652
v 0.5611571 1.200943 -0.9751164
v 0.2672503 1.1043496 -0.0019522905
v 0.8400667 0.8807168 -0.5619203
v 0.8400667 0.8807168 -0.5619203
v 0.09274745 -0.19979203 -0.894869
v 0.217368 0.7951083 0.11584747
v 1.6395171 0.79510474 0.15045834
v 1.3219657 0.79510474 0.725883
v 0.53491926 0.7951083 -0.4595772
v 1.6395171 0.005720377 0.15045834
v 1.3219657 0.005720377 0.725883
v 1.3219657 0.79510474 0.725883
v 0.53491926 0.005720377 -0.4595772
v 0.217368 0.7951083 0.11584747
v 0.217368 0.005720377 0.11584747
v -0.6680391 0.88939714 0.970871
v 0.8102944 0.84832144 0.5684633
v 0.6605364 0.8898232 1.2592983
v -0.518281 0.8478954 0.28003597
v 0.79998004 -0.00070011616 0.6172304
v 0.6502183 0.040801764 1.308069
v 0.6605364 0.8898232 1.2592983
v -0.5285952 -0.0011261702 0.32880306
v -0.6680391 0.88939714 0.970871
v -0.6783571 0.04037571 1.0196381
vt 0.6884281 0.3435538
vt 0.67246354 0.3601786
vt 0.67246354 0.3435538
vt 0.6884281 0.3601786
vt 0.67246354 0.3716569
vt 0.6563039 0.3716569
vt 0.6563039 0.3601786
vt 0.6884281 0.3716569
vt 0.7056231 0.3601786
vt 0.7056231 0.3716569
vt 0.66305584 0.35279647
vt 0.64063936 0.33701193
vt 0.64063936 0.35279647
vt 0.66305584 0.33701193
vt 0.64063936 0.32593873
vt 0.6250799 0.32593873
vt 0.6250799 0.33701193
vt 0.66305584 0.32593873
vt 0.67953056 0.33701193
vt 0.67953056 0.32593873
vt 0.30203685 0.74748516
vt 0.28541207 0.7761734
vt 0.30203685 0.7761734
vt 0.28541207 0.74748516
vt 0.26659665 0.74748516
vt 0.26659665 0.7761734
vt 0.28541207 0.79419357
vt 0.26659665 0.79419357
vt 0.24863647 0.7761734
vt 0.24863647 0.74748516
vt 0.30203685 0.74748516
vt 0.28541207 0.7761734
vt 0.30203685 0.7761734
vt 0.28541207 0.74748516
vt 0.26659665 0.74748516
vt 0.26659665 0.7761734
vt 0.28541207 0.79419357
vt 0.26659665 0.79419357
vt 0.24863647 0.7761734
vt 0.24863647 0.74748516
vt 0.66305584 0.35279647
vt 0.64063936 0.33701193
vt 0.64063936 0.35279647
vt 0.66305584 0.33701193
vt 0.64063936 0.32593873
vt 0.6250799 0.32593873
vt 0.6250799 0.33701193
vt 0.66305584 0.32593873
vt 0.67953056 0.33701193
vt 0.67953056 0.32593873
vt 0.66305584 0.35279647
vt 0.64063936 0.33701193
vt 0.64063936 0.35279647
vt 0.66305584 0.33701193
vt 0.64063936 0.32593873
vt 0.6250799 0.32593873
vt 0.6250799 0.33701193
vt 0.66305584 0.32593873
vt 0.67953056 0.33701193
vt 0.67953056 0.32593873
vn -0.6363634 0.7106546 0.3000194
vn 0.28445733 0.5777123 -0.76507026
vn 0.6461385 0.7028345 -0.29753777
vn -0.7653955 0.5777123 -0.283581
vn 0.34897345 0.0009775162 -0.9371321
vn 0.9061579 0.0009775162 -0.42293838
vn 0.6461385 0.7028345 -0.29753777
vn -0.9374385 0.0009775162 -0.34814957
vn -0.6363634 0.7106546 0.3000194
vn -0.906158 0.0009775162 0.42293826
vn -0.7047895 0.70674455 -0.06151302
vn 0.62463313 0.5777123 -0.52543503
vn 0.7047895 0.70674455 0.06151302
vn -0.5249264 0.5777123 -0.6250606
vn 0.7653955 0.0009775162 -0.6435594
vn 0.99608946 0.0009775162 0.08834483
vn 0.7047895 0.70674455 0.06151302
vn -0.6422285 0.0009775162 -0.76651263
vn -0.7047895 0.70674455 -0.06151302
vn -0.99608946 0.0009775162 -0.08834483
vn -0.9999995 0.0009775162 -0
vn -0.5777123 0.5777123 -0.5766255
vn -0.70674455 0.70674455 -0.03200431
vn -0.70674455 0.0009775162 -0.70746815
vn 0.70674455 0.0009775162 -0.70746815
vn 0.5777123 0.5777123 -0.5766255
vn -0.70674455 0.70674455 -0.03200431
vn 0.70674455 0.70674455 -0.03200431
vn 0.70674455 0.70674455 -0.03200431
vn 0.9999995 0.0009775162 -0
vn -0.68914926 0.26881707 0.67291206
vn -0.35092843 0.9276633 0.12763232
vn -0.0967741 0.7536653 0.6500949
vn -0.8201364 0.5718472 -0.019157652
vn 0.1534701 0.1925708 -0.96920764
vn 0.4447701 0.61681294 -0.6494008
vn -0.0967741 0.7536653 0.6500949
vn 0.8768324 0.3743888 -0.30165857
vn 0.8768324 0.3743888 -0.30165857
vn 0.68914926 -0.26881707 -0.67291206
vn -0.618768 0.70674455 -0.34298453
vn 0.78494585 0.5777123 -0.22384927
vn 0.61876804 0.70674455 0.34298435
vn -0.22580636 0.5777123 -0.7843851
vn 0.9608989 0.0009775162 -0.27689776
vn 0.8748774 0.0009775162 0.48434344
vn 0.61876804 0.70674455 0.34298435
vn -0.2766372 0.0009775162 -0.9609739
vn -0.618768 0.70674455 -0.34298453
vn -0.87487733 0.0009775162 -0.48434356
vn -0.68328416 0.7047895 -0.19077344
vn 0.6930593 0.5425217 -0.47469878
vn 0.6989244 0.70674455 0.10962118
vn -0.43499494 0.5425217 -0.71864426
vn 0.84164184 -0.042033195 -0.53839785
vn 0.97653913 0.0009775162 0.21533784
vn 0.6989244 0.70674455 0.10962118
vn -0.5405667 -0.042033195 -0.84025043
vn -0.68328416 0.7047895 -0.19077344
vn -0.97653913 -0.0009775162 -0.21533784
g febg_oldcastle_001_brickdebris_12_0
f 3/3/3 2/2/2 1/1/1
f 2/2/2 4/4/4 1/1/1
f 4/4/4 2/2/2 5/5/5
f 5/5/5 2/2/2 6/6/6
f 2/2/2 7/7/7 6/6/6
f 8/8/8 4/4/4 5/5/5
f 9/9/9 4/4/4 8/8/8
f 10/10/10 9/9/9 8/8/8
f 13/13/13 12/12/12 11/11/11
f 12/12/12 14/14/14 11/11/11
f 14/14/14 12/12/12 15/15/15
f 15/15/15 12/12/12 16/16/16
f 12/12/12 17/17/17 16/16/16
f 18/18/18 14/14/14 15/15/15
f 19/19/19 14/14/14 18/18/18
f 20/20/20 19/19/19 18/18/18
f 23/23/23 22/22/22 21/21/21
f 22/22/22 24/24/24 21/21/21
f 24/24/24 22/22/22 25/25/25
f 22/22/22 26/26/26 25/25/25
f 26/26/26 22/22/22 27/27/27
f 28/28/28 26/26/26 27/27/27
f 25/25/25 26/26/26 29/29/29
f 30/30/30 25/25/25 29/29/29
f 33/33/33 32/32/32 31/31/31
f 32/32/32 34/34/34 31/31/31
f 34/34/34 32/32/32 35/35/35
f 32/32/32 36/36/36 35/35/35
f 36/36/36 32/32/32 37/37/37
f 38/38/38 36/36/36 37/37/37
f 35/35/35 36/36/36 39/39/39
f 40/40/40 35/35/35 39/39/39
f 43/43/43 42/42/42 41/41/41
f 42/42/42 44/44/44 41/41/41
f 44/44/44 42/42/42 45/45/45
f 45/45/45 42/42/42 46/46/46
f 42/42/42 47/47/47 46/46/46
f 48/48/48 44/44/44 45/45/45
f 49/49/49 44/44/44 48/48/48
f 50/50/50 49/49/49 48/48/48
f 53/53/53 52/52/52 51/51/51
f 52/52/52 54/54/54 51/51/51
f 54/54/54 52/52/52 55/55/55
f 55/55/55 52/52/52 56/56/56
f 52/52/52 57/57/57 56/56/56
f 58/58/58 54/54/54 55/55/55
f 59/59/59 54/54/54 58/58/58
f 60/60/60 59/59/59 58/58/58
