g febg_shop_001_rack_01
v -2.1959815 4.3361745 -0.40864384
v -2.1959815 -0.009025097 -0.40864384
v -2.1959815 -0.009025097 -0.6498183
v -2.1959815 4.3361745 -0.6498183
v -2.0522223 4.3361745 -0.6498183
v -2.052229 -0.009025097 -0.6498183
v -2.0522223 4.3361745 -0.4248953
v -2.052229 -0.009025097 -0.4248953
v 2.0321393 4.3361745 -0.6498183
v 2.0321393 -0.009025097 -0.40864384
v 2.0321393 4.3361745 -0.40864384
v 2.0321393 -0.009025097 -0.6498183
v 1.8883866 -0.009025097 -0.6498183
v 1.8883866 4.3361745 -0.6498183
v 1.8883866 -0.009025097 -0.4248953
v 1.8883866 4.3361745 -0.4248953
v 1.9897362 2.364481 -0.7737709
v -2.1435475 2.177909 -0.7737646
v 1.9897362 2.177909 -0.7737709
v -2.1435475 2.364481 -0.7737646
v 1.9897362 2.364481 0.7737682
v -2.1435475 2.3644748 0.7737682
v -2.1435537 2.1674867 0.7737682
v -2.1435475 2.177909 -0.7737646
v -2.1435537 1.3702691 -0.7737709
v -2.1435537 1.1836972 -0.7737709
v 1.9897362 1.1836972 -0.7737646
v 1.9897362 1.3702691 -0.7737646
v -2.1435537 1.3702691 0.7737682
v 1.9897362 1.3702691 0.7737682
v 1.9897362 1.1732812 0.7737682
v 1.9897362 1.1836972 -0.7737646
v -2.136724 4.0487375 0.60085607
v -2.136724 0.2880447 0.60085607
v 1.9829248 0.2880447 0.60085607
v 1.9829186 4.0487313 0.60085607
v -2.1435475 3.3536897 -0.7737709
v -2.1435475 3.167118 -0.7737709
v 1.9897362 3.167118 -0.7737646
v 1.9897362 3.3536897 -0.7737646
v -2.1435475 3.3536897 0.7737682
v 1.9897362 3.3536897 0.7737682
v 1.9897362 3.156702 0.7737682
v 1.9897362 3.167118 -0.7737646
v -2.1959815 4.3361745 0.6338687
v -2.1959815 -0.009025097 0.6338687
v -2.1959815 -0.009025097 0.39269423
v -2.1959815 4.3361745 0.39270043
v -2.0522223 4.3361745 0.39269423
v -2.052229 -0.009025097 0.39269423
v -2.0522223 4.3361745 0.6176233
v -2.052229 -0.009025097 0.6176233
v 2.0321393 4.3361745 0.39270043
v 2.0321393 -0.009025097 0.6338687
v 2.0321393 4.3361745 0.6338687
v 2.0321393 -0.009025097 0.39269423
v 1.8883866 -0.009025097 0.39269423
v 1.8883866 4.3361745 0.39270043
v 1.8883866 -0.009025097 0.6176233
v 1.8883866 4.3361745 0.6176233
v 1.9897362 0.4450035 -0.7737709
v -2.1435475 0.25843143 -0.7737709
v 1.9897362 0.25843143 -0.7737709
v -2.1435475 0.4450035 -0.7737709
v 1.9897362 0.4450035 0.7737682
v -2.1435475 0.4450035 0.7737682
v -2.1435537 0.24800944 0.7737682
v -2.1435475 0.25843143 -0.7737709
v 1.9897362 2.364481 0.7737682
v 1.9897362 2.364481 -0.7737709
v 1.9897362 2.177909 -0.7737709
v 1.9897362 2.1674867 0.7737682
v -2.1435537 1.3702691 0.7737682
v -2.1435537 1.1732812 0.7737682
v -2.1435537 1.1836972 -0.7737709
v -2.1435537 1.3702691 -0.7737709
v -2.1435475 3.3536897 0.7737682
v -2.1435475 3.156702 0.7737682
v -2.1435475 3.167118 -0.7737709
v -2.1435475 3.3536897 -0.7737709
v 1.9897362 0.4450035 0.7737682
v 1.9897362 0.4450035 -0.7737709
v 1.9897362 0.25843143 -0.7737709
v 1.9897362 0.24801564 0.7737682
v -2.2513108 4.4190974 -0.7737709
v -2.2513108 4.2325253 -0.7737709
v 2.0974994 4.2325253 -0.7737646
v 2.0974994 4.4190974 -0.7737646
v -2.2513108 4.4190974 0.7737682
v 2.0974994 4.4190974 0.7737682
v 2.0974994 4.2221093 0.7737682
v 2.0974994 4.2325253 -0.7737646
v -2.2513108 4.4190974 0.7737682
v -2.2513108 4.2221093 0.7737682
v -2.2513108 4.2325253 -0.7737709
v -2.2513108 4.4190974 -0.7737709
vt 0.66457164 0.9010155
vt 0.66457164 0.7895883
vt 0.65734 0.7895883
vt 0.65734 0.9010155
vt 0.6533174 0.9010155
vt 0.6533174 0.7895883
vt 0.6456338 0.9010155
vt 0.6456338 0.7895883
vt 0.65734 0.9010155
vt 0.66457164 0.7895883
vt 0.66457164 0.9010155
vt 0.65734 0.7895883
vt 0.6533174 0.7895883
vt 0.6533174 0.9010155
vt 0.6456338 0.7895883
vt 0.6456338 0.9010155
vt 0.6395924 0.8616785
vt 0.52932525 0.8545825
vt 0.6395924 0.8545825
vt 0.52932525 0.8616785
vt 0.6395924 0.90136206
vt 0.52932525 0.90136206
vt 0.52269626 0.9013771
vt 0.52269626 0.8616785
vt 0.6395924 0.8616785
vt 0.6395924 0.8545825
vt 0.52932525 0.8545825
vt 0.52932525 0.8616785
vt 0.6395924 0.9013771
vt 0.52932525 0.9013771
vt 0.52269626 0.9013771
vt 0.52269626 0.8616785
vt 0.50082064 0.86832255
vt 0.50082064 0.8395166
vt 0.46927264 0.8395166
vt 0.46927264 0.86832255
vt 0.6395924 0.8616785
vt 0.6395924 0.8545825
vt 0.52932525 0.8545825
vt 0.52932525 0.8616785
vt 0.6395924 0.90136206
vt 0.52932525 0.90136206
vt 0.52269626 0.9013771
vt 0.52269626 0.8616785
vt 0.68977684 0.9010155
vt 0.68977684 0.7895883
vt 0.68254524 0.7895883
vt 0.68254524 0.9010155
vt 0.6785377 0.9010155
vt 0.6785377 0.7895883
vt 0.6708541 0.9010155
vt 0.6708541 0.7895883
vt 0.68254524 0.9010155
vt 0.68977684 0.7895883
vt 0.68977684 0.9010155
vt 0.68254524 0.7895883
vt 0.6785377 0.7895883
vt 0.6785377 0.9010155
vt 0.6708541 0.7895883
vt 0.6708541 0.9010155
vt 0.6395924 0.8616785
vt 0.52932525 0.8545825
vt 0.6395924 0.8545825
vt 0.52932525 0.8616785
vt 0.6395924 0.90136206
vt 0.52932525 0.90136206
vt 0.52269626 0.9013771
vt 0.52269626 0.8616785
vt 0.52932525 0.90136206
vt 0.52932525 0.8616785
vt 0.52269626 0.8616785
vt 0.52269626 0.9013771
vt 0.52932525 0.9013771
vt 0.52269626 0.9013771
vt 0.52269626 0.8616785
vt 0.52932525 0.8616785
vt 0.52932525 0.90136206
vt 0.52269626 0.9013771
vt 0.52269626 0.8616785
vt 0.52932525 0.8616785
vt 0.52932525 0.90136206
vt 0.52932525 0.8616785
vt 0.52269626 0.8616785
vt 0.52269626 0.9013771
vt 0.6395924 0.8616785
vt 0.6395924 0.8545825
vt 0.52932525 0.8545825
vt 0.52932525 0.8616785
vt 0.6395924 0.90136206
vt 0.52932525 0.90136206
vt 0.52269626 0.9013771
vt 0.52269626 0.8616785
vt 0.52932525 0.90136206
vt 0.52269626 0.90136206
vt 0.52269626 0.8616785
vt 0.52932525 0.8616785
vn -0.9999995 0.0009775162 -0
vn -0.9999995 0.0009775162 -0
vn -0.70674455 0.0009775162 -0.70746815
vn -0.70674455 0.0009775162 -0.70746815
vn 0.70674455 0.0009775162 -0.70746815
vn 0.70674455 0.0009775162 -0.70746815
vn 0.9999995 0.0009775162 -0
vn 0.9999995 0.0009775162 -0
vn 0.70674455 0.0009775162 -0.70746815
vn 0.9999995 0.0009775162 -0
vn 0.9999995 0.0009775162 -0
vn 0.70674455 0.0009775162 -0.70746815
vn -0.70674455 0.0009775162 -0.70746815
vn -0.70674455 0.0009775162 -0.70746815
vn -0.9999995 0.0009775162 -0
vn -0.9999995 0.0009775162 -0
vn 0.5777123 0.5777123 -0.5766255
vn -0.7086996 0.0009775162 -0.7055097
vn 0.7086996 0.0009775162 -0.7055097
vn -0.5777123 0.5777123 -0.5766255
vn 0.70674455 0.70674455 -0.03200431
vn -0.70674455 0.70674455 -0.03200431
vn -0.9999995 0.0009775162 -0
vn -0.7086996 0.0009775162 -0.7055097
vn -0.5777123 0.5777123 -0.5766255
vn -0.7086996 0.0009775162 -0.7055097
vn 0.7086996 0.0009775162 -0.7055097
vn 0.5777123 0.5777123 -0.5766255
vn -0.70674455 0.70674455 -0.03200431
vn 0.70674455 0.70674455 -0.03200431
vn 0.9999995 0.0009775162 -0
vn 0.7086996 0.0009775162 -0.7055097
vn -0.0009775162 0.0009775162 -0.99999905
vn -0.0009775162 0.0009775162 -0.99999905
vn -0.0009775162 0.0009775162 -0.99999905
vn -0.0009775162 0.0009775162 -0.99999905
vn -0.5777123 0.5777123 -0.5766255
vn -0.7086996 0.0009775162 -0.7055097
vn 0.7086996 0.0009775162 -0.7055097
vn 0.5777123 0.5777123 -0.5766255
vn -0.70674455 0.70674455 -0.03200431
vn 0.70674455 0.70674455 -0.03200431
vn 0.9999995 0.0009775162 -0
vn 0.7086996 0.0009775162 -0.7055097
vn -0.9999995 0.0009775162 -0
vn -0.9999995 0.0009775162 -0
vn -0.70674455 0.0009775162 -0.70746815
vn -0.70674455 0.0009775162 -0.70746815
vn 0.70674455 0.0009775162 -0.70746815
vn 0.70674455 0.0009775162 -0.70746815
vn 0.9999995 0.0009775162 -0
vn 0.9999995 0.0009775162 -0
vn 0.70674455 0.0009775162 -0.70746815
vn 0.9999995 0.0009775162 -0
vn 0.9999995 0.0009775162 -0
vn 0.70674455 0.0009775162 -0.70746815
vn -0.70674455 0.0009775162 -0.70746815
vn -0.70674455 0.0009775162 -0.70746815
vn -0.9999995 0.0009775162 -0
vn -0.9999995 0.0009775162 -0
vn 0.5777123 0.5777123 -0.5766255
vn -0.7086996 0.0009775162 -0.7055097
vn 0.7086996 0.0009775162 -0.7055097
vn -0.5777123 0.5777123 -0.5766255
vn 0.70674455 0.70674455 -0.03200431
vn -0.70674455 0.70674455 -0.03200431
vn -0.9999995 0.0009775162 -0
vn -0.7086996 0.0009775162 -0.7055097
vn 0.70674455 0.70674455 -0.03200431
vn 0.5777123 0.5777123 -0.5766255
vn 0.7086996 0.0009775162 -0.7055097
vn 0.9999995 0.0009775162 -0
vn -0.70674455 0.70674455 -0.03200431
vn -0.9999995 0.0009775162 -0
vn -0.7086996 0.0009775162 -0.7055097
vn -0.5777123 0.5777123 -0.5766255
vn -0.70674455 0.70674455 -0.03200431
vn -0.9999995 0.0009775162 -0
vn -0.7086996 0.0009775162 -0.7055097
vn -0.5777123 0.5777123 -0.5766255
vn 0.70674455 0.70674455 -0.03200431
vn 0.5777123 0.5777123 -0.5766255
vn 0.7086996 0.0009775162 -0.7055097
vn 0.9999995 0.0009775162 -0
vn -0.5777123 0.5777123 -0.5766255
vn -0.7086996 0.0009775162 -0.7055097
vn 0.7086996 0.0009775162 -0.7055097
vn 0.5777123 0.5777123 -0.5766255
vn -0.70674455 0.70674455 -0.03200431
vn 0.70674455 0.70674455 -0.03200431
vn 0.9999995 0.0009775162 -0
vn 0.7086996 0.0009775162 -0.7055097
vn -0.70674455 0.70674455 -0.03200431
vn -0.9999995 0.0009775162 -0
vn -0.7086996 0.0009775162 -0.7055097
vn -0.5777123 0.5777123 -0.5766255
g febg_shop_001_rack_01_0
f 3/3/3 2/2/2 1/1/1
f 4/4/4 3/3/3 1/1/1
f 4/4/4 5/5/5 3/3/3
f 5/5/5 6/6/6 3/3/3
f 5/5/5 7/7/7 6/6/6
f 7/7/7 8/8/8 6/6/6
f 11/11/11 10/10/10 9/9/9
f 10/10/10 12/12/12 9/9/9
f 12/12/12 13/13/13 9/9/9
f 13/13/13 14/14/14 9/9/9
f 13/13/13 15/15/15 14/14/14
f 15/15/15 16/16/16 14/14/14
f 19/19/19 18/18/18 17/17/17
f 18/18/18 20/20/20 17/17/17
f 17/17/17 20/20/20 21/21/21
f 20/20/20 22/22/22 21/21/21
f 23/23/23 22/22/22 20/20/20
f 24/24/24 23/23/23 20/20/20
f 27/27/27 26/26/26 25/25/25
f 28/28/28 27/27/27 25/25/25
f 28/28/28 25/25/25 29/29/29
f 30/30/30 28/28/28 29/29/29
f 30/30/30 31/31/31 28/28/28
f 31/31/31 32/32/32 28/28/28
f 35/35/35 34/34/34 33/33/33
f 36/36/36 35/35/35 33/33/33
f 39/39/39 38/38/38 37/37/37
f 40/40/40 39/39/39 37/37/37
f 40/40/40 37/37/37 41/41/41
f 42/42/42 40/40/40 41/41/41
f 42/42/42 43/43/43 40/40/40
f 43/43/43 44/44/44 40/40/40
f 47/47/47 46/46/46 45/45/45
f 48/48/48 47/47/47 45/45/45
f 48/48/48 49/49/49 47/47/47
f 49/49/49 50/50/50 47/47/47
f 49/49/49 51/51/51 50/50/50
f 51/51/51 52/52/52 50/50/50
f 55/55/55 54/54/54 53/53/53
f 54/54/54 56/56/56 53/53/53
f 56/56/56 57/57/57 53/53/53
f 57/57/57 58/58/58 53/53/53
f 57/57/57 59/59/59 58/58/58
f 59/59/59 60/60/60 58/58/58
f 63/63/63 62/62/62 61/61/61
f 62/62/62 64/64/64 61/61/61
f 61/61/61 64/64/64 65/65/65
f 64/64/64 66/66/66 65/65/65
f 67/67/67 66/66/66 64/64/64
f 68/68/68 67/67/67 64/64/64
f 71/71/71 70/70/70 69/69/69
f 72/72/72 71/71/71 69/69/69
f 75/75/75 74/74/74 73/73/73
f 76/76/76 75/75/75 73/73/73
f 79/79/79 78/78/78 77/77/77
f 80/80/80 79/79/79 77/77/77
f 83/83/83 82/82/82 81/81/81
f 84/84/84 83/83/83 81/81/81
f 87/87/87 86/86/86 85/85/85
f 88/88/88 87/87/87 85/85/85
f 88/88/88 85/85/85 89/89/89
f 90/90/90 88/88/88 89/89/89
f 90/90/90 91/91/91 88/88/88
f 91/91/91 92/92/92 88/88/88
f 95/95/95 94/94/94 93/93/93
f 96/96/96 95/95/95 93/93/93
