g febg_factory_001_car_04
v -0.5922308 0.4480176 -0.61868376
v -0.5383458 0.4480176 -0.7548366
v -0.5332109 0.53312826 -0.74690014
v -0.58525753 0.53312826 -0.6187388
v -0.49535024 0.53312826 -0.6187388
v -0.47130692 0.53312826 -0.73364973
v -0.5383458 0.4480176 -0.7548366
v -0.458084 0.4480176 -0.7377005
v -0.458084 0.4480176 -0.7377005
v -0.48196495 0.4480176 -0.61868376
v -0.48196495 0.4480176 -0.61868376
v -0.458084 0.4480176 -0.7377005
v -0.5383458 0.4480176 -0.7548366
v -0.5922308 0.4480176 -0.61868376
v -0.5671692 0.46794128 -0.6186975
v -0.5085263 0.46794128 -0.6186975
v -0.563457 0.5132017 -0.61872506
v -0.49535024 0.53312826 -0.6187388
v -0.58525753 0.53312826 -0.6187388
v -0.5156455 0.5132017 -0.61872506
v -0.5085263 0.46794128 -0.6186975
v -0.5938654 0.45765197 -0.56555015
v -0.50855935 0.45765197 -0.56555015
v -0.5671692 0.46794128 -0.6186975
v -0.58847165 0.5234939 -0.56559414
v -0.563457 0.5132017 -0.61872506
v -0.563457 0.5132017 -0.61872506
v -0.51891196 0.5234939 -0.56559414
v -0.58847165 0.5234939 -0.56559414
v -0.5156455 0.5132017 -0.61872506
v -0.50855935 0.45765197 -0.56555015
v -0.5085263 0.46794128 -0.6186975
v -0.5922308 0.44802582 0.61868477
v -0.5332109 0.53313375 0.7468984
v -0.5383458 0.44802582 0.7548349
v -0.58525753 0.53313375 0.61873984
v -0.49535024 0.53313375 0.61873984
v -0.47130692 0.53313375 0.73364806
v -0.5383458 0.44802582 0.7548349
v -0.458084 0.44802582 0.7377014
v -0.458084 0.44802582 0.7377014
v -0.48196495 0.44802582 0.61868477
v -0.48196495 0.44802582 0.61868477
v -0.5383458 0.44802582 0.7548349
v -0.458084 0.44802582 0.7377014
v -0.5922308 0.44802582 0.61868477
v -0.5671692 0.46794963 0.6186986
v -0.5085263 0.46794963 0.6186986
v -0.563457 0.51321006 0.618726
v -0.49535024 0.53313375 0.61873984
v -0.58525753 0.53313375 0.61873984
v -0.5156455 0.51321006 0.618726
v -0.5085263 0.46794963 0.6186986
v -0.50855935 0.45765746 0.5655484
v -0.5938654 0.45765746 0.5655484
v -0.5671692 0.46794963 0.6186986
v -0.58847165 0.52349937 0.5655923
v -0.563457 0.51321006 0.618726
v -0.563457 0.51321006 0.618726
v -0.58847165 0.52349937 0.5655923
v -0.51891196 0.52349937 0.5655923
v -0.5156455 0.51321006 0.618726
v -0.50855935 0.45765746 0.5655484
v -0.5085263 0.46794963 0.6186986
v -1.264709 0.031127214 0.0010682344
v -1.264709 0.031124473 -0.56923217
v -1.3699498 0.06898785 -0.40551078
v -1.1008997 0.008726716 0.0010682344
v -1.4192197 0.06898785 0.0010682344
v -1.3699498 0.06898785 0.40764177
v -1.264709 0.031127214 0.57136583
v -1.1008997 0.008723974 -0.56923217
v -1.1008997 0.008726716 0.5713687
v -0.67928696 0.008723974 -0.56923217
v -0.67928696 0.008726716 0.57136583
v -0.67928696 0.008726716 0.0010682344
v 1.1441337 0.008723974 -0.56923217
v 1.1441337 0.008726716 0.57136583
v 1.144131 0.008726716 0.0010682344
v 1.3477933 0.030334711 -0.56923217
v 1.3477933 0.030337453 0.57136583
v 1.3477906 0.030337453 0.0010682344
v 1.4427834 0.18416023 -0.4055053
v 1.4427834 0.18416023 0.40764177
v 1.4427806 0.18416023 0.0010682344
v -1.264709 0.031124473 -0.56923217
v -1.393517 0.3675934 -0.40551078
v -1.3699498 0.06898785 -0.40551078
v -1.4192197 0.06898785 0.0010682344
v -1.283843 0.33354962 -0.56923217
v -1.1006658 0.47779858 -0.56923217
v -1.1008997 0.008723974 -0.56923217
v -0.6793833 0.5397768 -0.56923217
v -0.67928696 0.008723974 -0.56923217
v 1.1441337 0.008723974 -0.56923217
v -1.2559829 0.38613844 -0.56923217
v 1.0537862 0.5270438 -0.56923217
v 1.3477933 0.030334711 -0.56923217
v 1.2756386 0.48771095 -0.56923217
v 1.4427834 0.18416023 -0.4055053
v 1.3959763 0.53007364 -0.4055053
v 1.4427806 0.18416023 0.0010682344
v -1.3648424 0.41762292 -0.40551078
v -1.1006382 0.5456246 -0.40551078
v -1.4427872 0.3675934 0.0010682344
v -0.70246625 0.60185695 -0.40551078
v -0.70246625 0.60185957 0.0010682344
v -1.4141123 0.41762567 0.0010682344
v -1.393517 0.3675934 0.40764177
v -1.3699498 0.06898785 0.40764177
v -1.264709 0.031127214 0.57136583
v -0.107079506 0.8767934 -0.3406155
v -1.1006355 0.5456219 0.0010682344
v -1.3648424 0.41762292 0.40764177
v -1.1006355 0.5456219 0.40764177
v -1.2559829 0.38614118 0.5713687
v -1.2838485 0.33355248 0.5713687
v -1.1006658 0.47780132 0.5713687
v -1.1008997 0.008726716 0.5713687
v -0.6793833 0.53977954 0.5713687
v -0.67928696 0.008726716 0.57136583
v 1.1441337 0.008726716 0.57136583
v -0.70246625 0.60185957 0.40764177
v -0.107079506 0.8767934 0.3427465
v 1.0537862 0.5270438 0.57136583
v 1.3477933 0.030337453 0.57136583
v -0.107079506 0.87679625 0.0010682344
v 1.2756386 0.48771095 0.57136583
v 1.4427834 0.18416023 0.40764177
v 1.3959818 0.53007364 0.40764177
v 1.3959763 0.53007364 0.0010682344
v 1.1466517 0.5879736 0.40764177
v 0.68979555 0.81689286 0.46873116
v 1.1466517 0.5879736 -0.4055053
v -0.09357321 0.81689286 0.46873116
v 0.70310646 0.8767934 0.3427465
v 1.1466517 0.5879736 0.0010682344
v 0.70310646 0.87679625 0.0010682344
v 0.70310646 0.8767934 -0.3406155
v 0.68979555 0.81689024 -0.46660018
v -0.09357321 0.81689024 -0.46660018
vt 0.38384706 0.14736135
vt 0.3776313 0.14736135
vt 0.37781233 0.14310688
vt 0.3836962 0.14312197
vt 0.3817349 0.13910888
vt 0.37695238 0.1401046
vt 0.37382942 0.1445703
vt 0.372713 0.1406779
vt 0.37576053 0.13600099
vt 0.3806939 0.13496001
vt 0.37461394 0.15422586
vt 0.37367857 0.15033346
vt 0.37683168 0.14977525
vt 0.37895894 0.15422586
vt 0.37796322 0.15499528
vt 0.37567002 0.15499528
vt 0.37782744 0.15677553
vt 0.37514198 0.15756004
vt 0.37868738 0.15756004
vt 0.37594157 0.15677553
vt 0.38101074 0.15630783
vt 0.38500875 0.1536073
vt 0.3840432 0.15881224
vt 0.38167456 0.15273227
vt 0.38511434 0.14853813
vt 0.3817349 0.14924721
vt 0.38101074 0.15630783
vt 0.38500875 0.1536073
vt 0.3840432 0.15881224
vt 0.38167456 0.15273227
vt 0.38511434 0.14853813
vt 0.3817349 0.14924721
vt 0.38384706 0.14736135
vt 0.37781233 0.14310688
vt 0.3776313 0.14736135
vt 0.3836962 0.14312197
vt 0.3817349 0.13910888
vt 0.37695238 0.1401046
vt 0.37382942 0.1445703
vt 0.372713 0.1406779
vt 0.37576053 0.13600099
vt 0.3806939 0.13496001
vt 0.37461394 0.15422586
vt 0.37683168 0.14977525
vt 0.37367857 0.15033346
vt 0.37895894 0.15422586
vt 0.37796322 0.15499528
vt 0.37567002 0.15499528
vt 0.37782744 0.15677553
vt 0.37514198 0.15756004
vt 0.37868738 0.15756004
vt 0.37594157 0.15677553
vt 0.38101074 0.15630783
vt 0.3840432 0.15881224
vt 0.38500875 0.1536073
vt 0.38167456 0.15273227
vt 0.38511434 0.14853813
vt 0.3817349 0.14924721
vt 0.38101074 0.15630783
vt 0.3840432 0.15881224
vt 0.38500875 0.1536073
vt 0.38167456 0.15273227
vt 0.38511434 0.14853813
vt 0.3817349 0.14924721
vt 0.46699044 0.0988271
vt 0.46699044 0.110926725
vt 0.4695703 0.10745676
vt 0.4631584 0.0988271
vt 0.4702643 0.0988271
vt 0.4695703 0.10745676
vt 0.46699044 0.110926725
vt 0.4631584 0.110926725
vt 0.4631584 0.110926725
vt 0.4534274 0.110926725
vt 0.4534274 0.110926725
vt 0.4534274 0.0988271
vt 0.411818 0.110926725
vt 0.411818 0.110926725
vt 0.411818 0.0988271
vt 0.4072316 0.110926725
vt 0.4072316 0.110926725
vt 0.4072316 0.0988271
vt 0.40367112 0.10745676
vt 0.40367112 0.10745676
vt 0.40367112 0.0988271
vt 0.46502918 0.058349203
vt 0.4666133 0.06798967
vt 0.46975133 0.06114026
vt 0.4776568 0.067069374
vt 0.46338472 0.06557578
vt 0.45891902 0.06774828
vt 0.46103117 0.056855608
vt 0.44872034 0.06996604
vt 0.449535 0.055422362
vt 0.39992958 0.055467624
vt 0.46257 0.06654134
vt 0.4032185 0.06996604
vt 0.39400047 0.0573233
vt 0.39882827 0.0682914
vt 0.39045507 0.0634938
vt 0.3954488 0.07096177
vt 0.38247415 0.07139929
vt 0.4656779 0.06887979
vt 0.45967335 0.07156524
vt 0.47285923 0.07393387
vt 0.44983676 0.07399422
vt 0.45243168 0.084177814
vt 0.4717277 0.07495978
vt 0.4666133 0.06798967
vt 0.46975133 0.06114026
vt 0.46502918 0.058349203
vt 0.4360776 0.08013455
vt 0.46388257 0.08016472
vt 0.4656779 0.06887979
vt 0.45967335 0.07156524
vt 0.46257 0.06654134
vt 0.46338472 0.06557578
vt 0.45891902 0.06774828
vt 0.46103117 0.056855608
vt 0.44872034 0.06996604
vt 0.449535 0.055422362
vt 0.39992958 0.055467624
vt 0.44983676 0.07399422
vt 0.4360776 0.08013455
vt 0.4032185 0.06996604
vt 0.39400047 0.0573233
vt 0.43751082 0.088462465
vt 0.39882827 0.0682914
vt 0.39045507 0.0634938
vt 0.3954488 0.07096177
vt 0.38890114 0.078173265
vt 0.40124214 0.0733304
vt 0.41237622 0.07669476
vt 0.40124214 0.0733304
vt 0.43313566 0.076770194
vt 0.41097313 0.07992333
vt 0.39475483 0.082955785
vt 0.40753335 0.08816073
vt 0.41097313 0.07992333
vt 0.41237622 0.07669476
vt 0.43313566 0.076770194
vn -0.712026 -0.53238094 0.45780948
vn -0.39705968 -0.5478394 -0.7363529
vn -0.36421037 0.6270044 -0.6886337
vn -0.6598536 0.5864259 0.46978498
vn 0.4628178 0.62313974 0.63047326
vn 0.63672554 0.63666594 -0.43501386
vn -0.39705968 -0.5478394 -0.7363529
vn 0.7236795 -0.51885474 -0.45505798
vn 0.7236795 -0.51885474 -0.45505798
vn 0.55750096 -0.54977167 0.622048
vn 0.55750096 -0.54977167 0.622048
vn 0.7236795 -0.51885474 -0.45505798
vn -0.39705968 -0.5478394 -0.7363529
vn -0.712026 -0.53238094 0.45780948
vn -0.36421037 -0.42417163 0.82911354
vn 0.34108233 -0.24833149 0.90663904
vn -0.35068417 0.4801489 0.80403835
vn 0.4628178 0.62313974 0.63047326
vn -0.6598536 0.5864259 0.46978498
vn 0.3507439 0.35261655 0.86754847
vn 0.34108233 -0.24833149 0.90663904
vn -0.6907705 -0.56136554 -0.45574644
vn 0.71015334 -0.69083023 -0.13577862
vn -0.36421037 -0.42417163 0.82911354
vn -0.65405667 0.62313974 -0.42884344
vn -0.35068417 0.4801489 0.80403835
vn -0.35068417 0.4801489 0.80403835
vn 0.5942148 0.79511523 -0.12124575
vn -0.65405667 0.62313974 -0.42884344
vn 0.3507439 0.35261655 0.86754847
vn 0.71015334 -0.69083023 -0.13577862
vn 0.34108233 -0.24833149 0.90663904
vn -0.712026 -0.53238094 -0.45780948
vn -0.36421037 0.6270044 0.6886337
vn -0.39705968 -0.5478394 0.7363529
vn -0.6598536 0.5864259 -0.46978498
vn 0.4628178 0.62313974 -0.63047326
vn 0.63672554 0.63666594 0.43501386
vn -0.39705968 -0.5478394 0.7363529
vn 0.7236795 -0.51885474 0.45505798
vn 0.7236795 -0.51885474 0.45505798
vn 0.55750096 -0.54977167 -0.622048
vn 0.55750096 -0.54977167 -0.622048
vn -0.39705968 -0.5478394 0.7363529
vn 0.7236795 -0.51885474 0.45505798
vn -0.712026 -0.53238094 -0.45780948
vn -0.36421037 -0.42417163 -0.82911354
vn 0.34108233 -0.24833149 -0.90663904
vn -0.35068417 0.4801489 -0.80403835
vn 0.4628178 0.62313974 -0.63047326
vn -0.6598536 0.5864259 -0.46978498
vn 0.3507439 0.35261655 -0.86754847
vn 0.34108233 -0.24833149 -0.90663904
vn 0.71015334 -0.69083023 0.13577862
vn -0.6907705 -0.56136554 0.45574644
vn -0.36421037 -0.42417163 -0.82911354
vn -0.65405667 0.62313974 0.42884344
vn -0.35068417 0.4801489 -0.80403835
vn -0.35068417 0.4801489 -0.80403835
vn -0.65405667 0.62313974 0.42884344
vn 0.5942148 0.79511523 0.12124575
vn 0.3507439 0.35261655 -0.86754847
vn 0.71015334 -0.69083023 0.13577862
vn 0.34108233 -0.24833149 -0.90663904
vn -0.21349025 -0.97681195 -0.01613546
vn -0.41251814 -0.601944 -0.683734
vn -0.7854537 -0.5690948 -0.24329749
vn -0.06853838 -0.9976485 -0
vn -0.79449683 -0.60726833 -0
vn -0.7854537 -0.5690948 0.24329749
vn -0.41251814 -0.601944 0.683734
vn -0.049244046 -0.7198149 -0.6924172
vn -0.049244046 -0.7198149 0.6924172
vn -0.00093626976 -0.7062887 -0.7079233
vn -0.00093626976 -0.7062887 0.7079233
vn -0.00093626976 -0.99999964 -0
vn 0.037709832 -0.7178825 -0.6951422
vn 0.037709832 -0.7178825 0.6951422
vn 0.053168356 -0.9980673 -0.032167323
vn 0.5053286 -0.576824 -0.6418076
vn 0.5053286 -0.576824 0.6418076
vn 0.53238094 -0.84541494 -0.04294308
vn 0.9613535 -0.13625759 -0.2392349
vn 0.9613535 -0.13625759 0.2392349
vn 0.9782056 -0.20763867 -0
vn -0.41251814 -0.601944 -0.683734
vn -0.9168507 0.20962572 -0.33976743
vn -0.7854537 -0.5690948 -0.24329749
vn -0.79449683 -0.60726833 -0
vn -0.5129981 0.10721326 -0.85166794
vn -0.19030261 0.5671028 -0.80136096
vn -0.049244046 -0.7198149 -0.6924172
vn -0.12653637 0.5091336 -0.8513351
vn -0.00093626976 -0.7062887 -0.7079233
vn 0.037709832 -0.7178825 -0.6951422
vn -0.37193966 0.42990887 -0.8227024
vn 0.16524225 0.44536734 -0.8799676
vn 0.5053286 -0.576824 -0.6418076
vn 0.37199926 0.4550289 -0.8090521
vn 0.9613535 -0.13625759 -0.2392349
vn 0.7236795 0.62893665 -0.28412446
vn 0.9782056 -0.20763867 -0
vn -0.66178596 0.69463515 -0.28199536
vn -0.27918875 0.94003844 -0.19591156
vn -0.9767523 0.21349025 -0.019414362
vn -0.2637303 0.9419707 -0.20769566
vn -0.28298357 0.95912474 -0
vn -0.682558 0.73083144 -0
vn -0.9168507 0.20962572 0.33976743
vn -0.7854537 -0.5690948 0.24329749
vn -0.41251814 -0.601944 0.683734
vn -0.19996417 0.9574292 -0.20819156
vn -0.27532423 0.9612938 -0.010526397
vn -0.66178596 0.69463515 0.28199536
vn -0.27918875 0.94003844 0.19591156
vn -0.37193966 0.42990887 0.8227024
vn -0.5129981 0.10721326 0.85166794
vn -0.19030261 0.5671028 0.80136096
vn -0.049244046 -0.7198149 0.6924172
vn -0.12653637 0.5091336 0.8513351
vn -0.00093626976 -0.7062887 0.7079233
vn 0.037709832 -0.7178825 0.6951422
vn -0.2637303 0.9419707 0.20769566
vn -0.19996417 0.9574292 0.20819156
vn 0.16524225 0.44536734 0.8799676
vn 0.5053286 -0.576824 0.6418076
vn -0.21537398 0.9765317 -0
vn 0.37199926 0.4550289 0.8090521
vn 0.9613535 -0.13625759 0.2392349
vn 0.7236795 0.62893665 0.28412446
vn 0.73913795 0.6733798 -0.015321648
vn 0.34881157 0.90525687 0.24257052
vn 0.15751302 0.686906 0.70947146
vn 0.34881157 0.90525687 -0.24257052
vn -0.10914564 0.70236444 0.7033999
vn 0.26572227 0.93810606 0.2221457
vn 0.3911562 0.9203243 -0
vn 0.28481403 0.95858276 -0
vn 0.26572227 0.93810606 -0.2221457
vn 0.15751302 0.686906 -0.70947146
vn -0.10914564 0.70236444 -0.7033999
g febg_factory_001_car_04_0
f 3/3/3 2/2/2 1/1/1
f 4/4/4 3/3/3 1/1/1
f 4/4/4 5/5/5 3/3/3
f 5/5/5 6/6/6 3/3/3
f 3/3/3 6/6/6 7/7/7
f 6/6/6 8/8/8 7/7/7
f 6/6/6 5/5/5 9/9/9
f 5/5/5 10/10/10 9/9/9
f 13/13/13 12/12/12 11/11/11
f 14/14/14 13/13/13 11/11/11
f 15/15/15 14/14/14 11/11/11
f 16/16/16 15/15/15 11/11/11
f 15/15/15 17/17/17 14/14/14
f 16/16/16 11/11/11 18/18/18
f 17/17/17 19/19/19 14/14/14
f 20/20/20 16/16/16 18/18/18
f 20/20/20 18/18/18 19/19/19
f 17/17/17 20/20/20 19/19/19
f 23/23/23 22/22/22 21/21/21
f 22/22/22 24/24/24 21/21/21
f 22/22/22 25/25/25 24/24/24
f 25/25/25 26/26/26 24/24/24
f 29/29/29 28/28/28 27/27/27
f 28/28/28 30/30/30 27/27/27
f 28/28/28 31/31/31 30/30/30
f 31/31/31 32/32/32 30/30/30
f 35/35/35 34/34/34 33/33/33
f 34/34/34 36/36/36 33/33/33
f 37/37/37 36/36/36 34/34/34
f 38/38/38 37/37/37 34/34/34
f 38/38/38 34/34/34 39/39/39
f 40/40/40 38/38/38 39/39/39
f 37/37/37 38/38/38 41/41/41
f 42/42/42 37/37/37 41/41/41
f 45/45/45 44/44/44 43/43/43
f 44/44/44 46/46/46 43/43/43
f 46/46/46 47/47/47 43/43/43
f 47/47/47 48/48/48 43/43/43
f 49/49/49 47/47/47 46/46/46
f 43/43/43 48/48/48 50/50/50
f 51/51/51 49/49/49 46/46/46
f 48/48/48 52/52/52 50/50/50
f 52/52/52 49/49/49 51/51/51
f 50/50/50 52/52/52 51/51/51
f 55/55/55 54/54/54 53/53/53
f 56/56/56 55/55/55 53/53/53
f 57/57/57 55/55/55 56/56/56
f 58/58/58 57/57/57 56/56/56
f 61/61/61 60/60/60 59/59/59
f 62/62/62 61/61/61 59/59/59
f 63/63/63 61/61/61 62/62/62
f 64/64/64 63/63/63 62/62/62
f 67/67/67 66/66/66 65/65/65
f 65/65/65 66/66/66 68/68/68
f 69/69/69 67/67/67 65/65/65
f 69/69/69 65/65/65 70/70/70
f 65/65/65 71/71/71 70/70/70
f 65/65/65 68/68/68 71/71/71
f 66/66/66 72/72/72 68/68/68
f 68/68/68 73/73/73 71/71/71
f 72/72/72 74/74/74 68/68/68
f 73/73/73 68/68/68 75/75/75
f 74/74/74 76/76/76 68/68/68
f 68/68/68 76/76/76 75/75/75
f 74/74/74 77/77/77 76/76/76
f 75/75/75 76/76/76 78/78/78
f 77/77/77 79/79/79 76/76/76
f 76/76/76 79/79/79 78/78/78
f 77/77/77 80/80/80 79/79/79
f 78/78/78 79/79/79 81/81/81
f 80/80/80 82/82/82 79/79/79
f 79/79/79 82/82/82 81/81/81
f 80/80/80 83/83/83 82/82/82
f 81/81/81 82/82/82 84/84/84
f 83/83/83 85/85/85 82/82/82
f 82/82/82 85/85/85 84/84/84
f 88/88/88 87/87/87 86/86/86
f 87/87/87 88/88/88 89/89/89
f 87/87/87 90/90/90 86/86/86
f 86/86/86 90/90/90 91/91/91
f 86/86/86 91/91/91 92/92/92
f 92/92/92 91/91/91 93/93/93
f 94/94/94 92/92/92 93/93/93
f 95/95/95 94/94/94 93/93/93
f 96/96/96 90/90/90 87/87/87
f 90/90/90 96/96/96 91/91/91
f 97/97/97 95/95/95 93/93/93
f 98/98/98 95/95/95 97/97/97
f 99/99/99 98/98/98 97/97/97
f 98/98/98 99/99/99 100/100/100
f 99/99/99 101/101/101 100/100/100
f 99/99/99 97/97/97 101/101/101
f 100/100/100 101/101/101 102/102/102
f 103/103/103 96/96/96 87/87/87
f 104/104/104 91/91/91 96/96/96
f 103/103/103 104/104/104 96/96/96
f 103/103/103 87/87/87 105/105/105
f 105/105/105 87/87/87 89/89/89
f 106/106/106 93/93/93 91/91/91
f 104/104/104 106/106/106 91/91/91
f 106/106/106 104/104/104 107/107/107
f 104/104/104 103/103/103 108/108/108
f 108/108/108 103/103/103 105/105/105
f 105/105/105 89/89/89 109/109/109
f 89/89/89 110/110/110 109/109/109
f 109/109/109 110/110/110 111/111/111
f 106/106/106 112/112/112 93/93/93
f 112/112/112 106/106/106 107/107/107
f 104/104/104 113/113/113 107/107/107
f 113/113/113 104/104/104 108/108/108
f 114/114/114 108/108/108 105/105/105
f 109/109/109 114/114/114 105/105/105
f 113/113/113 108/108/108 115/115/115
f 108/108/108 114/114/114 115/115/115
f 107/107/107 113/113/113 115/115/115
f 116/116/116 114/114/114 109/109/109
f 115/115/115 114/114/114 116/116/116
f 117/117/117 109/109/109 111/111/111
f 117/117/117 116/116/116 109/109/109
f 111/111/111 118/118/118 117/117/117
f 118/118/118 116/116/116 117/117/117
f 118/118/118 115/115/115 116/116/116
f 118/118/118 111/111/111 119/119/119
f 120/120/120 118/118/118 119/119/119
f 121/121/121 120/120/120 119/119/119
f 121/121/121 122/122/122 120/120/120
f 123/123/123 115/115/115 118/118/118
f 123/123/123 107/107/107 115/115/115
f 120/120/120 123/123/123 118/118/118
f 107/107/107 123/123/123 124/124/124
f 124/124/124 123/123/123 120/120/120
f 122/122/122 125/125/125 120/120/120
f 122/122/122 126/126/126 125/125/125
f 127/127/127 107/107/107 124/124/124
f 127/127/127 112/112/112 107/107/107
f 126/126/126 128/128/128 125/125/125
f 128/128/128 126/126/126 129/129/129
f 130/130/130 128/128/128 129/129/129
f 125/125/125 128/128/128 130/130/130
f 129/129/129 102/102/102 130/130/130
f 102/102/102 131/131/131 130/130/130
f 101/101/101 131/131/131 102/102/102
f 132/132/132 125/125/125 130/130/130
f 130/130/130 131/131/131 132/132/132
f 125/125/125 133/133/133 120/120/120
f 133/133/133 125/125/125 132/132/132
f 101/101/101 134/134/134 131/131/131
f 97/97/97 134/134/134 101/101/101
f 133/133/133 135/135/135 120/120/120
f 135/135/135 124/124/124 120/120/120
f 135/135/135 133/133/133 136/136/136
f 136/136/136 133/133/133 132/132/132
f 124/124/124 135/135/135 136/136/136
f 131/131/131 137/137/137 132/132/132
f 132/132/132 137/137/137 136/136/136
f 134/134/134 137/137/137 131/131/131
f 136/136/136 138/138/138 124/124/124
f 137/137/137 138/138/138 136/136/136
f 138/138/138 127/127/127 124/124/124
f 112/112/112 127/127/127 138/138/138
f 139/139/139 138/138/138 137/137/137
f 134/134/134 139/139/139 137/137/137
f 139/139/139 112/112/112 138/138/138
f 97/97/97 140/140/140 134/134/134
f 140/140/140 139/139/139 134/134/134
f 140/140/140 97/97/97 93/93/93
f 141/141/141 112/112/112 139/139/139
f 112/112/112 141/141/141 93/93/93
f 141/141/141 140/140/140 93/93/93
f 140/140/140 141/141/141 139/139/139
