g febg_mothership_001_pizza_01
v 0.5461331 0.003081739 -0.5876377
v 0.5461331 0.003081739 0.50462955
v 0.5461331 0.101127505 0.50462955
v 0.5461331 0.101127505 -0.5876377
v 0.5461331 0.101127505 0.50462955
v 0.5204456 0.10070264 0.47894043
v 0.5204456 0.10070264 -0.5619486
v 0.5461331 0.101127505 -0.5876377
v 2.9802322E-07 0.101127505 -0.5876377
v 2.9802322E-07 0.10070264 -0.5619486
v -0.52044505 0.10070264 -0.5619486
v -0.5461342 0.101127505 -0.5876377
v -0.5461342 0.101127505 0.50462955
v -0.52044505 0.10070264 0.47894043
v 2.9802322E-07 0.10070264 -0.5619486
v 0.5204456 0.10070264 -0.5619486
v 0.5204456 0.02317822 -0.5619486
v 2.9802322E-07 0.02317822 -0.5619486
v -0.52044505 0.02317822 -0.5619486
v -0.52044505 0.10070264 -0.5619486
v 0.5204456 0.10070264 0.47894043
v 0.5204456 0.02317822 0.47894043
v 0.5204456 0.02317822 -0.5619486
v 0.5204456 0.10070264 -0.5619486
v 0.5461331 0.124972284 0.5876388
v 0.5461347 1.099931 0.095190465
v 0.5461331 1.0557272 0.0076749325
v 0.5461331 0.080768704 0.5001232
v 0.5461331 1.0557272 0.0076749325
v 0.5461347 1.099931 0.095190465
v 2.9802322E-07 1.099931 0.095190465
v 2.9802322E-07 1.0557272 0.0076749325
v -0.5461342 1.0557272 0.0076749325
v -0.5461342 1.099931 0.095190465
v 0.5461347 1.099931 0.095190465
v 0.5461331 0.124972284 0.5876388
v 2.9802322E-07 0.124972284 0.5876388
v 2.9802322E-07 1.099931 0.095190465
v -0.5461342 1.099931 0.095190465
v -0.5461325 0.124972284 0.5876388
v 2.9802322E-07 0.080768704 0.5001232
v 0.5461331 0.080768704 0.5001232
v 0.520172 0.10414511 0.48881882
v 2.9802322E-07 0.10414672 0.48881882
v -0.52017146 0.10414511 0.48881882
v -0.5461325 0.080768704 0.5001232
v 0.5461331 1.0557272 0.0076749325
v 0.520172 1.0327566 0.019782364
v 0.5461331 0.080768704 0.5001232
v -0.5461342 1.0557272 0.0076749325
v -0.5461325 0.080768704 0.5001232
v -0.52017146 1.0327566 0.019782364
v 2.9802322E-07 1.0557272 0.0076749325
v 0.520172 1.0327566 0.019782364
v -0.52017146 1.0327566 0.019782364
v 2.9802322E-07 1.0327566 0.019782364
v 2.9802322E-07 1.0676899 0.088944435
v 0.520172 1.0676899 0.088942826
v -0.52017146 1.0676899 0.088944435
v 0.520172 1.0327566 0.019782364
v 0.520172 1.0676899 0.088942826
v 0.520172 0.13907862 0.55798095
v 0.520172 0.10414511 0.48881882
v 0.520172 0.13907862 0.55798095
v 0.520172 1.0676899 0.088942826
v 2.9802322E-07 1.0676899 0.088944435
v 2.9802322E-07 0.13907862 0.55798095
v -0.52017146 0.13907862 0.55798095
v -0.52017146 1.0676899 0.088944435
v 2.9802322E-07 0.10414672 0.48881882
v 0.520172 0.10414511 0.48881882
v 0.520172 0.13907862 0.55798095
v 2.9802322E-07 0.13907862 0.55798095
v -0.52017146 0.13907862 0.55798095
v -0.52017146 0.10414511 0.48881882
v 0.5461331 0.101127505 -0.5876377
v 2.9802322E-07 0.003081739 -0.5876377
v 0.5461331 0.003081739 -0.5876377
v 2.9802322E-07 0.101127505 -0.5876377
v -0.5461342 0.101127505 -0.5876377
v -0.5461342 0.003081739 -0.5876377
v 2.9802322E-07 0.101127505 0.50462955
v 0.5204456 0.10070264 0.47894043
v 0.5461331 0.101127505 0.50462955
v 2.9802322E-07 0.10070264 0.47894043
v -0.52044505 0.10070264 0.47894043
v -0.5461342 0.101127505 0.50462955
v 2.9802322E-07 0.02317822 0.47894043
v 0.5204456 0.02317822 0.47894043
v -0.52044505 0.02317822 0.47894043
v 2.9802322E-07 0.02317822 -0.5619486
v 0.5204456 0.02317822 -0.5619486
v -0.52044505 0.02317822 -0.5619486
v -0.5461342 0.003081739 -0.5876377
v -0.5461342 0.101127505 -0.5876377
v -0.5461342 0.101127505 0.50462955
v -0.5461342 0.003081739 0.50462955
v -0.52044505 0.10070264 0.47894043
v -0.52044505 0.10070264 -0.5619486
v -0.52044505 0.02317822 -0.5619486
v -0.52044505 0.02317822 0.47894043
v -0.5461325 0.124972284 0.5876388
v -0.5461325 0.080768704 0.5001232
v -0.5461342 1.0557272 0.0076749325
v -0.5461342 1.099931 0.095190465
v -0.52017146 1.0327566 0.019782364
v -0.52017146 0.10414511 0.48881882
v -0.52017146 0.13907862 0.55798095
v -0.52017146 1.0676899 0.088944435
v -0.23639214 0.019969046 0.37035954
v -0.23639214 0.0805949 0.37035954
v -0.0016027093 0.0805949 0.4332804
v -0.0016027093 0.019969046 0.4332804
v -0.40827203 0.019969046 0.19847482
v 0.23321733 0.0805949 0.3703676
v 0.23321733 0.019969046 0.3703676
v -0.40827203 0.0805949 0.19847482
v -0.47116226 0.019969046 -0.036301732
v -0.0015463829 0.06692147 -0.036293685
v 0.40511653 0.0805949 0.1985392
v -0.47116226 0.0805949 -0.036301732
v 0.40511653 0.019969046 0.1985392
v -0.40823662 0.019969046 -0.27111852
v 0.468047 0.0805949 -0.036229312
v 0.468047 0.019969046 -0.036229312
v -0.40823662 0.0805949 -0.27111852
v -0.2363503 0.019969046 -0.44299197
v 0.40514228 0.0805949 -0.27102357
v 0.40514228 0.019969046 -0.27102357
v -0.2363503 0.0805949 -0.44299197
v -0.001536727 0.019969046 -0.5058774
v 0.2332463 0.0805949 -0.4429276
v 0.2332463 0.019969046 -0.4429276
v -0.001536727 0.0805949 -0.5058774
vt 0.9942938 0.28500253
vt 0.9942938 0.36482662
vt 0.98702335 0.36482662
vt 0.98702335 0.28500253
vt 0.98702335 0.36482662
vt 0.9845345 0.36414787
vt 0.98448926 0.28756678
vt 0.98702335 0.28500253
vt 0.9469152 0.28500253
vt 0.9469152 0.28756678
vt 0.98448926 0.28756678
vt 0.98702335 0.28500253
vt 0.98702335 0.36482662
vt 0.9845345 0.36414787
vt 0.9469152 0.28756678
vt 0.98448926 0.28756678
vt 0.9809445 0.2910059
vt 0.9469152 0.2910059
vt 0.9809445 0.2910059
vt 0.98448926 0.28756678
vt 0.9845345 0.36414787
vt 0.9809445 0.36078414
vt 0.9809445 0.2910059
vt 0.98448926 0.28756678
vt 0.42495114 0.66389555
vt 0.42495114 0.75206107
vt 0.4326138 0.75206107
vt 0.4326138 0.66389555
vt 0.4326138 0.75206107
vt 0.4326138 0.7595578
vt 0.47759402 0.7595578
vt 0.47759402 0.75206107
vt 0.4326138 0.75206107
vt 0.4326138 0.7595578
vt 0.4326138 0.7595578
vt 0.4326138 0.84816074
vt 0.47759402 0.84816074
vt 0.47759402 0.7595578
vt 0.4326138 0.7595578
vt 0.4326138 0.84816074
vt 0.47759402 0.6616481
vt 0.4326138 0.6616481
vt 0.43581158 0.6647704
vt 0.47759402 0.6647704
vt 0.43581158 0.6647704
vt 0.4326138 0.6616481
vt 0.4326138 0.75206107
vt 0.43581158 0.7481845
vt 0.4326138 0.66389555
vt 0.4326138 0.75206107
vt 0.4326138 0.66389555
vt 0.43581158 0.7481845
vt 0.47759402 0.75206107
vt 0.43581158 0.7481845
vt 0.43581158 0.7481845
vt 0.47759402 0.7481845
vt 0.47759402 0.7450169
vt 0.43851158 0.7450169
vt 0.43851158 0.7450169
vt 0.43581158 0.7481845
vt 0.43851158 0.7450169
vt 0.43873784 0.66793805
vt 0.43581158 0.6647704
vt 0.43873784 0.66793805
vt 0.43851158 0.7450169
vt 0.47759402 0.7450169
vt 0.47759402 0.66793805
vt 0.43873784 0.66793805
vt 0.43851158 0.7450169
vt 0.47759402 0.6647704
vt 0.43581158 0.6647704
vt 0.43873784 0.66793805
vt 0.47759402 0.66793805
vt 0.43873784 0.66793805
vt 0.43581158 0.6647704
vt 0.98702335 0.28500253
vt 0.9469152 0.27782258
vt 0.98702335 0.27782258
vt 0.9469152 0.28500253
vt 0.98702335 0.28500253
vt 0.98702335 0.27782258
vt 0.9469152 0.36772275
vt 0.9845345 0.36414787
vt 0.98702335 0.36772275
vt 0.9469152 0.36414787
vt 0.9845345 0.36414787
vt 0.98702335 0.36772275
vt 0.9469152 0.36078414
vt 0.9809445 0.36078414
vt 0.9809445 0.36078414
vt 0.9469152 0.2910059
vt 0.9809445 0.2910059
vt 0.9809445 0.2910059
vt 0.9942938 0.28500253
vt 0.98702335 0.28500253
vt 0.98702335 0.36482662
vt 0.9942938 0.36482662
vt 0.9845345 0.36414787
vt 0.98448926 0.28756678
vt 0.9809445 0.2910059
vt 0.9809445 0.36078414
vt 0.42495114 0.66389555
vt 0.4326138 0.66389555
vt 0.4326138 0.75206107
vt 0.42495114 0.75206107
vt 0.43581158 0.7481845
vt 0.43581158 0.6647704
vt 0.43873784 0.66793805
vt 0.43851158 0.7450169
vt 0.02794234 0.91448474
vt 0.03025018 0.918482
vt 0.049693357 0.9134138
vt 0.049693357 0.9088585
vt 0.0118176285 0.9300514
vt 0.06912144 0.918482
vt 0.07142928 0.91448474
vt 0.01593554 0.93241954
vt 0.005829312 0.9516063
vt 0.049693357 0.9516063
vt 0.083451174 0.93241954
vt 0.010656167 0.9516063
vt 0.08756908 0.9300363
vt 0.0118176285 0.9731763
vt 0.088730544 0.9516063
vt 0.0935574 0.9516063
vt 0.01593554 0.970793
vt 0.027957425 0.9887429
vt 0.083451174 0.9707779
vt 0.08756908 0.9731612
vt 0.030265264 0.9847306
vt 0.049693357 0.9943541
vt 0.06912144 0.9847306
vt 0.07142928 0.9887278
vt 0.049693357 0.9897988
vn 0.9999995 0.0009775162 -0
vn 0.9999995 0.0009775162 -0
vn 0.9999995 0.0009775162 -0
vn 0.9999995 0.0009775162 -0
vn -0.0009775162 0.9999995 -0
vn -0.0009775162 0.9999995 -0
vn -0.0009775162 0.9999995 -0
vn -0.0009775162 0.9999995 -0
vn -0.0009775162 0.9999995 -0
vn -0.0009775162 0.9999995 -0
vn -0.0009775162 0.9999995 -0
vn -0.0009775162 0.9999995 -0
vn -0.0009775162 0.9999995 -0
vn -0.0009775162 0.9999995 -0
vn -0.0009775162 0.0009775162 0.99999905
vn -0.0009775162 0.0009775162 0.99999905
vn -0.0009775162 0.0009775162 0.99999905
vn -0.0009775162 0.0009775162 0.99999905
vn -0.0009775162 0.0009775162 0.99999905
vn -0.0009775162 0.0009775162 0.99999905
vn -0.9999995 0.0009775162 -0
vn -0.9999995 0.0009775162 -0
vn -0.9999995 0.0009775162 -0
vn -0.9999995 0.0009775162 -0
vn 0.9999995 0.0009775162 -0
vn 0.9999995 0.0009775162 -0
vn 0.9999995 0.0009775162 -0
vn 0.9999995 0.0009775162 -0
vn -0.0009775162 0.89247274 -0.45110026
vn -0.0009775162 0.89247274 -0.45110026
vn -0.0009775162 0.89247274 -0.45110026
vn -0.0009775162 0.89247274 -0.45110026
vn -0.0009775162 0.89247274 -0.45110026
vn -0.0009775162 0.89247274 -0.45110026
vn -0.0009775162 0.4506352 0.89270765
vn -0.0009775162 0.4506352 0.89270765
vn -0.0009775162 0.4506352 0.89270765
vn -0.0009775162 0.4506352 0.89270765
vn -0.0009775162 0.4506352 0.89270765
vn -0.0009775162 0.4506352 0.89270765
vn -0.0009775162 -0.4506352 -0.89270765
vn -0.0009775162 -0.4506352 -0.89270765
vn -0.0009775162 -0.4506352 -0.89270765
vn -0.0009775162 -0.4506352 -0.89270765
vn -0.0009775162 -0.4506352 -0.89270765
vn -0.0009775162 -0.4506352 -0.89270765
vn -0.0009775162 -0.4506352 -0.89270765
vn -0.0009775162 -0.4506352 -0.89270765
vn -0.0009775162 -0.4506352 -0.89270765
vn -0.0009775162 -0.4506352 -0.89270765
vn -0.0009775162 -0.4506352 -0.89270765
vn -0.0009775162 -0.4506352 -0.89270765
vn -0.0009775162 -0.46627545 -0.884639
vn -0.0009775162 -0.8768324 -0.4807951
vn -0.0009775162 -0.8768324 -0.4807951
vn -0.0009775162 -0.95307875 -0.30272087
vn -0.0009775162 -0.8924727 0.4511004
vn -0.0009775162 -0.8924727 0.4511004
vn -0.0009775162 -0.8924727 0.4511004
vn -0.9999995 0.0009775162 -0
vn -0.9999995 0.0009775162 -0
vn -0.9999995 0.0009775162 -0
vn -0.9999995 0.0009775162 -0
vn -0.0009775162 -0.4506352 -0.89270765
vn -0.0009775162 -0.4506352 -0.89270765
vn -0.0009775162 -0.4506352 -0.89270765
vn -0.0009775162 -0.4506352 -0.89270765
vn -0.0009775162 -0.4506352 -0.89270765
vn -0.0009775162 -0.4506352 -0.89270765
vn -0.0009775162 0.89247274 -0.45110026
vn -0.0009775162 0.89247274 -0.45110026
vn -0.0009775162 0.89247274 -0.45110026
vn -0.0009775162 0.89247274 -0.45110026
vn -0.0009775162 0.89247274 -0.45110026
vn -0.0009775162 0.89247274 -0.45110026
vn -0.0009775162 0.0009775162 -0.99999905
vn -0.0009775162 0.0009775162 -0.99999905
vn -0.0009775162 0.0009775162 -0.99999905
vn -0.0009775162 0.0009775162 -0.99999905
vn -0.0009775162 0.0009775162 -0.99999905
vn -0.0009775162 0.0009775162 -0.99999905
vn -0.0009775162 0.9999995 -0
vn -0.0009775162 0.8260015 -0.56366706
vn -0.0009775162 0.9999995 -0
vn -0.0009775162 0.70087945 -0.71327907
vn -0.0009775162 0.8260015 -0.56366706
vn -0.0009775162 0.9999995 -0
vn -0.0009775162 0.70674455 -0.70746815
vn -0.0009775162 0.70674455 -0.70746815
vn -0.0009775162 0.70674455 -0.70746815
vn -0.0009775162 0.9999995 -0
vn -0.0009775162 0.9999995 -0
vn -0.0009775162 0.9999995 -0
vn 0.9999995 0.0009775162 -0
vn 0.9999995 0.0009775162 -0
vn 0.9999995 0.0009775162 -0
vn 0.9999995 0.0009775162 -0
vn -0.9999995 0.0009775162 -0
vn -0.9999995 0.0009775162 -0
vn -0.9999995 0.0009775162 -0
vn -0.9999995 0.0009775162 -0
vn 0.9999995 0.0009775162 -0
vn 0.9999995 0.0009775162 -0
vn 0.9999995 0.0009775162 -0
vn 0.9999995 0.0009775162 -0
vn -0.9999995 0.0009775162 -0
vn -0.9999995 0.0009775162 -0
vn -0.9999995 0.0009775162 -0
vn -0.9999995 0.0009775162 -0
vn -0.499511 0.0009775162 0.866307
vn -0.3743888 0.6617788 0.64952433
vn -0.0009775162 0.6617788 0.7496985
vn -0.0009775162 0.0009775162 0.99999905
vn -0.8651022 0.0009775162 0.5015947
vn 0.37438887 0.6617788 0.64952433
vn 0.499511 0.0009775162 0.866307
vn -0.6480936 0.6617788 0.3768601
vn -0.9999995 0.0009775162 -0
vn -0.0009775162 0.9999995 -0
vn 0.6480935 0.6617788 0.37686017
vn -0.74972373 0.661751 -0
vn 0.86510223 0.0009775162 0.5015946
vn -0.8651022 0.0009775162 -0.5015947
vn 0.74972373 0.661751 -0
vn 0.9999995 0.0009775162 -0
vn -0.6480936 0.6617788 -0.3768601
vn -0.499511 0.0009775162 -0.866307
vn 0.6480935 0.6617788 -0.37686017
vn 0.86510223 0.0009775162 -0.5015946
vn -0.3743888 0.6617788 -0.64952433
vn 0.0009775162 0.0009775162 -0.99999905
vn 0.37438887 0.6617788 -0.64952433
vn 0.499511 0.0009775162 -0.866307
vn 0.0009775162 0.6617788 -0.7496985
g febg_mothership_001_pizza_01_0
f 3/3/3 2/2/2 1/1/1
f 4/4/4 3/3/3 1/1/1
f 7/7/7 6/6/6 5/5/5
f 8/8/8 7/7/7 5/5/5
f 7/7/7 8/8/8 9/9/9
f 10/10/10 7/7/7 9/9/9
f 10/10/10 9/9/9 11/11/11
f 9/9/9 12/12/12 11/11/11
f 11/11/11 12/12/12 13/13/13
f 14/14/14 11/11/11 13/13/13
f 17/17/17 16/16/16 15/15/15
f 18/18/18 17/17/17 15/15/15
f 18/18/18 15/15/15 19/19/19
f 15/15/15 20/20/20 19/19/19
f 23/23/23 22/22/22 21/21/21
f 24/24/24 23/23/23 21/21/21
f 27/27/27 26/26/26 25/25/25
f 28/28/28 27/27/27 25/25/25
f 31/31/31 30/30/30 29/29/29
f 32/32/32 31/31/31 29/29/29
f 32/32/32 33/33/33 31/31/31
f 33/33/33 34/34/34 31/31/31
f 37/37/37 36/36/36 35/35/35
f 38/38/38 37/37/37 35/35/35
f 38/38/38 39/39/39 37/37/37
f 39/39/39 40/40/40 37/37/37
f 43/43/43 42/42/42 41/41/41
f 44/44/44 43/43/43 41/41/41
f 44/44/44 41/41/41 45/45/45
f 41/41/41 46/46/46 45/45/45
f 43/43/43 48/48/48 47/47/47
f 49/49/49 43/43/43 47/47/47
f 45/45/45 51/51/51 50/50/50
f 52/52/52 45/45/45 50/50/50
f 47/47/47 54/54/54 53/53/53
f 55/55/55 50/50/50 53/53/53
f 54/54/54 56/56/56 53/53/53
f 56/56/56 55/55/55 53/53/53
f 57/57/57 56/56/56 54/54/54
f 55/55/55 56/56/56 57/57/57
f 58/58/58 57/57/57 54/54/54
f 59/59/59 55/55/55 57/57/57
f 62/62/62 61/61/61 60/60/60
f 63/63/63 62/62/62 60/60/60
f 66/66/66 65/65/65 64/64/64
f 67/67/67 66/66/66 64/64/64
f 67/67/67 68/68/68 66/66/66
f 68/68/68 69/69/69 66/66/66
f 72/72/72 71/71/71 70/70/70
f 73/73/73 72/72/72 70/70/70
f 73/73/73 70/70/70 74/74/74
f 70/70/70 75/75/75 74/74/74
f 78/78/78 77/77/77 76/76/76
f 77/77/77 79/79/79 76/76/76
f 80/80/80 79/79/79 77/77/77
f 81/81/81 80/80/80 77/77/77
f 84/84/84 83/83/83 82/82/82
f 83/83/83 85/85/85 82/82/82
f 85/85/85 86/86/86 82/82/82
f 86/86/86 87/87/87 82/82/82
f 88/88/88 85/85/85 83/83/83
f 86/86/86 85/85/85 88/88/88
f 89/89/89 88/88/88 83/83/83
f 90/90/90 86/86/86 88/88/88
f 91/91/91 88/88/88 89/89/89
f 90/90/90 88/88/88 91/91/91
f 92/92/92 91/91/91 89/89/89
f 93/93/93 90/90/90 91/91/91
f 96/96/96 95/95/95 94/94/94
f 97/97/97 96/96/96 94/94/94
f 100/100/100 99/99/99 98/98/98
f 101/101/101 100/100/100 98/98/98
f 104/104/104 103/103/103 102/102/102
f 105/105/105 104/104/104 102/102/102
f 108/108/108 107/107/107 106/106/106
f 109/109/109 108/108/108 106/106/106
f 112/112/112 111/111/111 110/110/110
f 113/113/113 112/112/112 110/110/110
f 110/110/110 111/111/111 114/114/114
f 115/115/115 112/112/112 113/113/113
f 116/116/116 115/115/115 113/113/113
f 111/111/111 117/117/117 114/114/114
f 114/114/114 117/117/117 118/118/118
f 112/112/112 119/119/119 111/111/111
f 115/115/115 119/119/119 112/112/112
f 111/111/111 119/119/119 117/117/117
f 120/120/120 119/119/119 115/115/115
f 120/120/120 115/115/115 116/116/116
f 117/117/117 119/119/119 121/121/121
f 117/117/117 121/121/121 118/118/118
f 122/122/122 120/120/120 116/116/116
f 118/118/118 121/121/121 123/123/123
f 124/124/124 120/120/120 122/122/122
f 124/124/124 119/119/119 120/120/120
f 125/125/125 124/124/124 122/122/122
f 121/121/121 126/126/126 123/123/123
f 121/121/121 119/119/119 126/126/126
f 123/123/123 126/126/126 127/127/127
f 128/128/128 124/124/124 125/125/125
f 128/128/128 119/119/119 124/124/124
f 129/129/129 128/128/128 125/125/125
f 126/126/126 130/130/130 127/127/127
f 126/126/126 119/119/119 130/130/130
f 127/127/127 130/130/130 131/131/131
f 132/132/132 128/128/128 129/129/129
f 132/132/132 119/119/119 128/128/128
f 133/133/133 132/132/132 129/129/129
f 131/131/131 134/134/134 133/133/133
f 130/130/130 134/134/134 131/131/131
f 130/130/130 119/119/119 134/134/134
f 134/134/134 132/132/132 133/133/133
f 134/134/134 119/119/119 132/132/132
