g febg_mothership_001_box_01
v 0.9598955 0.016351938 -0.5445814
v 0.9598955 0.016351938 0.6622913
v 1.0434781 0.89676046 0.7326547
v 1.0434781 0.89676046 -0.6149448
v -0.95989645 0.016351938 -0.5445814
v 0.9598955 0.016351938 -0.5445814
v 1.0434781 0.89676046 -0.6149448
v -1.0434791 0.89676046 -0.6149448
v -0.95989645 0.016351938 0.6622913
v -0.95989645 0.016351938 -0.5445814
v -1.0434791 0.89676046 -0.6149448
v -1.0434791 0.89676046 0.7326547
v 0.22098458 0.628276 -0.71290606
v 0.22098458 0.894261 -0.73265386
v -0.22098541 0.894261 -0.73265386
v -0.22098541 0.628276 -0.71290606
v 0.22098458 0.628276 -0.71290606
v 0.22098458 0.64520955 -0.59519476
v 0.22098458 0.8905859 -0.6149448
v 0.22098458 0.894261 -0.73265386
v -0.22098541 0.894261 -0.73265386
v -0.22098541 0.8905859 -0.6149448
v -0.22098541 0.64520955 -0.59519476
v -0.22098541 0.628276 -0.71290606
v 0.9598955 1.3832203 0.6622913
v -0.95989645 1.3832203 0.6622913
v -0.95989645 1.3832203 -0.5445814
v 0.9598955 1.3832203 -0.5445814
v 0.9598955 1.3832203 -0.5445814
v 1.0434781 0.89676046 -0.6149448
v 1.0434781 0.89676046 0.7326547
v 0.9598955 1.3832203 0.6622913
v -0.95989645 1.3832203 -0.5445814
v -1.0434791 0.89676046 -0.6149448
v 1.0434781 0.89676046 -0.6149448
v 0.9598955 1.3832203 -0.5445814
v -0.95989645 1.3832203 0.6622913
v -1.0434791 0.89676046 0.7326547
v -1.0434791 0.89676046 -0.6149448
v -0.95989645 1.3832203 -0.5445814
v -0.22098541 1.1612643 -0.6974721
v -0.22098541 0.894261 -0.73265386
v 0.22098458 0.894261 -0.73265386
v 0.22098458 1.1612643 -0.6974721
v -0.22098541 1.1612643 -0.6974721
v -0.22098541 1.1369044 -0.5797631
v -0.22098541 0.8905859 -0.6149448
v -0.22098541 0.894261 -0.73265386
v 0.22098458 1.1612643 -0.6974721
v 0.22098458 1.1369044 -0.5797631
v -0.22098541 1.1369044 -0.5797631
v -0.22098541 1.1612643 -0.6974721
v 0.22098458 0.894261 -0.73265386
v 0.22098458 0.8905859 -0.6149448
v 0.22098458 1.1369044 -0.5797631
v 0.22098458 1.1612643 -0.6974721
vt 0.1694196 0.17081933
vt 0.115857266 0.1708789
vt 0.112774864 0.21010135
vt 0.17257646 0.21005668
vt 0.26454222 0.1708789
vt 0.17935178 0.1708789
vt 0.17564397 0.21007156
vt 0.26825005 0.21007156
vt 0.11587215 0.17084911
vt 0.1694196 0.17081933
vt 0.17257646 0.21005668
vt 0.112774864 0.21010135
vt 0.028894808 0.2749658
vt 0.047225423 0.2749658
vt 0.047225423 0.24458851
vt 0.028894808 0.24458851
vt 0.028894808 0.2749658
vt 0.025097646 0.27904588
vt 0.050858784 0.27898633
vt 0.047225423 0.2749658
vt 0.047225423 0.24458851
vt 0.050858784 0.2405531
vt 0.025097646 0.24050842
vt 0.028894808 0.24458851
vt 0.17824987 0.28786126
vt 0.26138535 0.28786126
vt 0.26138535 0.23559445
vt 0.17824987 0.23559445
vt 0.17824987 0.23559445
vt 0.15688151 0.23254183
vt 0.15688151 0.29089898
vt 0.17824987 0.28786126
vt 0.26138535 0.23559445
vt 0.26500383 0.21431546
vt 0.17463139 0.21431546
vt 0.17824987 0.23559445
vt 0.17826475 0.28786126
vt 0.15688151 0.29089898
vt 0.15688151 0.23254183
vt 0.17826475 0.23559445
vt 0.07460966 0.24423113
vt 0.05614503 0.24423113
vt 0.05614503 0.2745191
vt 0.07460966 0.2745191
vt 0.07460966 0.24423113
vt 0.07842171 0.24016593
vt 0.05251167 0.24016593
vt 0.05614503 0.24423113
vt 0.07460966 0.2745191
vt 0.07842171 0.27858427
vt 0.07842171 0.24016593
vt 0.07460966 0.24423113
vt 0.05614503 0.2745191
vt 0.05251167 0.27858427
vt 0.07842171 0.27858427
vt 0.07460966 0.2745191
vn 0.9954998 -0.094762996 -0
vn 0.9954998 -0.094762996 -0
vn 0.9954998 -0.094762996 -0
vn 0.9954998 -0.094762996 -0
vn -0.0009775162 -0.07917887 -0.99685997
vn -0.0009775162 -0.07917887 -0.99685997
vn -0.0009775162 -0.07917887 -0.99685997
vn -0.0009775162 -0.07917887 -0.99685997
vn -0.9954998 -0.094762996 -0
vn -0.9954998 -0.094762996 -0
vn -0.9954998 -0.094762996 -0
vn -0.9954998 -0.094762996 -0
vn -0.0009775162 -0.07331377 -0.99730843
vn -0.0009775162 -0.07331377 -0.99730843
vn -0.0009775162 -0.07331377 -0.99730843
vn -0.0009775162 -0.07331377 -0.99730843
vn 0.9999995 0.0009775162 -0
vn 0.9999995 0.0009775162 -0
vn 0.9999995 0.0009775162 -0
vn 0.9999995 0.0009775162 -0
vn -0.9999995 0.0009775162 -0
vn -0.9999995 0.0009775162 -0
vn -0.9999995 0.0009775162 -0
vn -0.9999995 0.0009775162 -0
vn -0.0009775162 0.9999995 -0
vn -0.0009775162 0.9999995 -0
vn -0.0009775162 0.9999995 -0
vn -0.0009775162 0.9999995 -0
vn 0.98561764 0.16899097 -0
vn 0.98561764 0.16899097 -0
vn 0.98561764 0.16899097 -0
vn 0.98561764 0.16899097 -0
vn -0.0009775162 0.143695 -0.9896215
vn -0.0009775162 0.143695 -0.9896215
vn -0.0009775162 0.143695 -0.9896215
vn -0.0009775162 0.143695 -0.9896215
vn -0.98561764 0.16899097 -0
vn -0.98561764 0.16899097 -0
vn -0.98561764 0.16899097 -0
vn -0.98561764 0.16899097 -0
vn -0.0009775162 0.13000977 -0.99151224
vn -0.0009775162 0.13000977 -0.99151224
vn -0.0009775162 0.13000977 -0.99151224
vn -0.0009775162 0.13000977 -0.99151224
vn -0.9999995 0.0009775162 -0
vn -0.9999995 0.0009775162 -0
vn -0.9999995 0.0009775162 -0
vn -0.9999995 0.0009775162 -0
vn -0.0009775162 0.97849417 0.20627224
vn -0.0009775162 0.97849417 0.20627224
vn -0.0009775162 0.97849417 0.20627224
vn -0.0009775162 0.97849417 0.20627224
vn 0.9999995 0.0009775162 -0
vn 0.9999995 0.0009775162 -0
vn 0.9999995 0.0009775162 -0
vn 0.9999995 0.0009775162 -0
g febg_mothership_001_box_01_0
f 3/3/3 2/2/2 1/1/1
f 4/4/4 3/3/3 1/1/1
f 7/7/7 6/6/6 5/5/5
f 8/8/8 7/7/7 5/5/5
f 11/11/11 10/10/10 9/9/9
f 12/12/12 11/11/11 9/9/9
f 15/15/15 14/14/14 13/13/13
f 16/16/16 15/15/15 13/13/13
f 19/19/19 18/18/18 17/17/17
f 20/20/20 19/19/19 17/17/17
f 23/23/23 22/22/22 21/21/21
f 24/24/24 23/23/23 21/21/21
f 27/27/27 26/26/26 25/25/25
f 28/28/28 27/27/27 25/25/25
f 31/31/31 30/30/30 29/29/29
f 32/32/32 31/31/31 29/29/29
f 35/35/35 34/34/34 33/33/33
f 36/36/36 35/35/35 33/33/33
f 39/39/39 38/38/38 37/37/37
f 40/40/40 39/39/39 37/37/37
f 43/43/43 42/42/42 41/41/41
f 44/44/44 43/43/43 41/41/41
f 47/47/47 46/46/46 45/45/45
f 48/48/48 47/47/47 45/45/45
f 51/51/51 50/50/50 49/49/49
f 52/52/52 51/51/51 49/49/49
f 55/55/55 54/54/54 53/53/53
f 56/56/56 55/55/55 53/53/53
