g febg_hotspring_001_cliff_07
v 2.0595827 -3.2424927E-05 -1.3758698
v 1.9773568 1.2163713 -1.447115
v 1.8285613 -3.2424927E-05 -1.4478233
v 2.2279 1.2327034 -1.3809805
v 1.9065282 1.5790505 -1.2892135
v 2.276068 1.511092 -1.2337359
v 2.3186393 -0.00012493134 1.0635252
v 2.4270902 1.7400441 -0.18561721
v 2.2364688 1.9314108 1.0590994
v 1.4463001 -3.2424927E-05 -1.9436785
v 1.8285613 -3.2424927E-05 -1.4478233
v 1.9773568 1.2163713 -1.447115
v 1.8506246 1.5587554 -1.8768451
v 1.9065282 1.5790505 -1.2892135
v 1.3674166 1.52704 -2.1426234
v 0.0643661 -3.2424927E-05 -1.8844233
v 1.5458443 1.6359448 -1.571463
v 1.6247973 2.0789886 -1.2055063
v 0.83209646 1.6030674 -1.781782
v 0.059093237 1.3695045 -2.016618
v -0.16789603 1.2853758 -1.8034658
v -0.1613965 -3.2424927E-05 -1.6622901
v -1.0956526 -3.2424927E-05 -1.5700927
v -0.16737747 1.581666 -1.7315216
v -1.0123942 1.4047472 -1.7624223
v -1.8299685 0.00011110306 -1.3151007
v -2.077035 1.4796774 -1.4261765
v -2.0445604 2.0415096 -1.3941324
v 0.80093646 1.9643531 -1.6963434
v -1.0125518 2.0231915 -1.6322088
v -0.19097781 2.130175 0.532089
v 0.82411087 2.0447454 0.67098236
v 1.9742135 2.0139885 0.13162994
v 2.276068 1.511092 -1.2337359
v 2.4270902 1.7400441 -0.18561721
v 2.2364688 1.9314108 1.0590994
v 1.3615235 1.7879205 1.786087
v 1.3971508 1.5086987 2.027821
v 2.3186393 -0.00012493134 1.0635252
v 1.1395663 1.9950824 1.6777244
v -0.42857265 2.00448 1.6937137
v -1.8826084 1.9641213 1.049901
v -0.47067642 1.7833467 1.8336811
v 1.3615235 1.7879205 1.786087
v -0.53760695 1.5419416 2.1426187
v 1.3971508 1.5086987 2.027821
v -2.1202588 1.4680161 1.6639194
v -1.8418474 1.7532701 1.3777444
v -1.7447381 1.9854069 1.2998562
v -1.994101 1.7547836 1.0636685
v -2.3624463 1.474937 1.2450128
v -2.1600108 0.00013875961 1.2449851
v -1.917819 0.00012493134 1.6638918
v -1.994101 1.7547836 1.0636685
v -2.2357001 1.5165267 -0.7215252
v -2.077035 1.4796774 -1.4261765
v -1.8299685 0.00011110306 -1.3151007
v -1.9269619 -3.2424927E-05 -0.6397021
v -2.2143497 -1.859665E-05 -0.30773854
v -2.427095 1.3846514 -0.3303666
v -2.3624463 1.474937 1.2450128
v -2.2143497 -1.859665E-05 -0.30773854
v -2.1600108 0.00013875961 1.2449851
vt 0.15747452 0.8909168
vt 0.1860199 0.89611435
vt 0.1574955 0.89707947
vt 0.18598747 0.8895855
vt 0.19624329 0.8956928
vt 0.1926899 0.8852749
vt 0.15720367 0.8210583
vt 0.1977253 0.8585377
vt 0.20146179 0.82050705
vt 0.52230644 0.22800446
vt 0.5159378 0.21109009
vt 0.4795208 0.21942711
vt 0.4792061 0.23466492
vt 0.46103477 0.23149109
vt 0.48625565 0.24559021
vt 0.53778076 0.27584648
vt 0.47064018 0.24418259
vt 0.45479774 0.2495327
vt 0.48527145 0.2660694
vt 0.50117874 0.2861023
vt 0.5051956 0.29318428
vt 0.5398712 0.28408813
vt 0.54807854 0.3181572
vt 0.49667358 0.29580498
vt 0.5088997 0.32037544
vt 0.5463028 0.33527756
vt 0.5149307 0.36160278
vt 0.49747467 0.35926437
vt 0.47677994 0.27055168
vt 0.4930992 0.3250103
vt 0.42041588 0.31892586
vt 0.4058075 0.28980637
vt 0.41079903 0.24689102
vt 0.4547863 0.2182579
vt 0.42058945 0.22784233
vt 0.37869072 0.24751854
vt 0.36588097 0.28239822
vt 0.34939766 0.288702
vt 0.34852028 0.27030182
vt 0.37044907 0.29278374
vt 0.38588142 0.33908844
vt 0.41915894 0.37461853
vt 0.3786373 0.3434639
vt 0.36588097 0.28239822
vt 0.367342 0.34973335
vt 0.34939766 0.288702
vt 0.39895248 0.39693832
vt 0.40523338 0.3833046
vt 0.41034508 0.3749771
vt 0.4215641 0.38248062
vt 0.42404366 0.3958435
vt 0.42126083 0.43433
vt 0.38410568 0.42933846
vt 0.4215641 0.38248062
vt 0.47980118 0.38208008
vt 0.50190353 0.37940598
vt 0.51296043 0.40960884
vt 0.48890877 0.4243679
vt 0.4781456 0.4272709
vt 0.47198296 0.3897152
vt 0.42404366 0.3958435
vt 0.4781456 0.4272709
vt 0.42126083 0.43433
vn 0.74298733 -0.099640846 -0.66184705
vn 0.6637765 0.097420216 -0.7415592
vn 0.6174092 -0.10736877 -0.7792803
vn 0.71787167 0.08582842 -0.6908645
vn 0.6000215 0.6673517 -0.44115293
vn 0.73332745 0.4722227 -0.4891182
vn 0.97675586 -0.037817776 0.21099238
vn 0.8511777 0.50506616 -0.14284511
vn 0.6753683 0.64416814 0.3590614
vn 0.43387192 -0.14794016 -0.88874567
vn 0.6174092 -0.10736877 -0.7792803
vn 0.6637765 0.097420216 -0.7415592
vn 0.6405928 0.5456376 -0.5402966
vn 0.6000215 0.6673517 -0.44115293
vn 0.15373605 0.520522 -0.83989406
vn -0.4026717 -0.10157281 -0.90969145
vn 0.28704208 0.82384145 -0.48876587
vn 0.4493277 0.8180455 -0.35903507
vn 0.03588581 0.6905354 -0.72240776
vn -0.36016834 0.3447125 -0.86686337
vn -0.4161955 0.03752911 -0.9085003
vn -0.39687574 -0.1054368 -0.91179645
vn -0.20561063 -0.11896056 -0.97137666
vn -0.13799167 0.3195969 -0.93745196
vn -0.16310728 0.03366518 -0.9860338
vn -0.7330388 -0.1769197 -0.6567751
vn -0.74269867 -0.026225924 -0.669112
vn -0.58427703 0.65575993 -0.47812057
vn 0.10157281 0.7369027 -0.6683243
vn -0.11480796 0.7349708 -0.6683091
vn -0.006617546 0.99965084 0.025581231
vn 0.06872934 0.9938549 0.08676821
vn 0.27545023 0.9610114 -0.024171155
vn 0.73332745 0.4722227 -0.4891182
vn 0.8511777 0.50506616 -0.14284511
vn 0.6753683 0.64416814 0.3590614
vn 0.2657904 0.7948619 0.5454814
vn 0.41068822 0.5243859 0.7458918
vn 0.97675586 -0.037817776 0.21099238
vn 0.35852504 0.8566849 0.3708783
vn -0.08003247 0.8277054 0.55542654
vn -0.57654905 0.79872584 0.17212848
vn -0.11094403 0.649964 0.75182325
vn 0.2657904 0.7948619 0.5454814
vn -0.09548819 0.76588225 0.6358509
vn 0.41068822 0.5243859 0.7458918
vn -0.66928375 0.51665795 0.5339699
vn -0.46449482 0.70405924 0.537164
vn -0.38142002 0.7967938 0.46865594
vn -0.7330388 0.65769196 0.17348026
vn -0.8914604 0.38142002 0.24457529
vn -0.9494196 -0.13441634 0.2837863
vn -0.86054885 -0.11896056 0.49528182
vn -0.7330388 0.65769196 0.17348026
vn -0.96680737 0.18629086 -0.17486925
vn -0.74269867 -0.026225924 -0.669112
vn -0.7330388 -0.1769197 -0.6567751
vn -0.90884817 -0.18271565 -0.37498
vn -0.9455557 -0.16339594 -0.2814715
vn -0.93009984 0.30220914 -0.20876761
vn -0.8914604 0.38142002 0.24457529
vn -0.9455557 -0.16339594 -0.2814715
vn -0.9494196 -0.13441634 0.2837863
g febg_hotspring_001_cliff_07_0
f 3/3/3 2/2/2 1/1/1
f 2/2/2 4/4/4 1/1/1
f 4/4/4 2/2/2 5/5/5
f 6/6/6 4/4/4 5/5/5
f 4/4/4 6/6/6 1/1/1
f 6/6/6 7/7/7 1/1/1
f 8/8/8 7/7/7 6/6/6
f 9/9/9 7/7/7 8/8/8
f 12/12/12 11/11/11 10/10/10
f 13/13/13 12/12/12 10/10/10
f 14/14/14 12/12/12 13/13/13
f 13/13/13 10/10/10 15/15/15
f 15/15/15 10/10/10 16/16/16
f 14/14/14 13/13/13 17/17/17
f 17/17/17 13/13/13 15/15/15
f 18/18/18 14/14/14 17/17/17
f 19/19/19 17/17/17 15/15/15
f 18/18/18 17/17/17 19/19/19
f 20/20/20 15/15/15 16/16/16
f 19/19/19 15/15/15 20/20/20
f 20/20/20 16/16/16 21/21/21
f 16/16/16 22/22/22 21/21/21
f 22/22/22 23/23/23 21/21/21
f 24/24/24 19/19/19 20/20/20
f 24/24/24 20/20/20 21/21/21
f 23/23/23 25/25/25 21/21/21
f 24/24/24 21/21/21 25/25/25
f 23/23/23 26/26/26 25/25/25
f 26/26/26 27/27/27 25/25/25
f 25/25/25 27/27/27 28/28/28
f 19/19/19 24/24/24 29/29/29
f 29/29/29 18/18/18 19/19/19
f 25/25/25 30/30/30 24/24/24
f 24/24/24 30/30/30 29/29/29
f 30/30/30 25/25/25 28/28/28
f 29/29/29 30/30/30 18/18/18
f 31/31/31 30/30/30 28/28/28
f 30/30/30 31/31/31 18/18/18
f 18/18/18 31/31/31 32/32/32
f 33/33/33 18/18/18 32/32/32
f 33/33/33 14/14/14 18/18/18
f 14/14/14 33/33/33 34/34/34
f 33/33/33 35/35/35 34/34/34
f 33/33/33 36/36/36 35/35/35
f 33/33/33 32/32/32 36/36/36
f 32/32/32 37/37/37 36/36/36
f 37/37/37 38/38/38 36/36/36
f 38/38/38 39/39/39 36/36/36
f 32/32/32 40/40/40 37/37/37
f 32/32/32 31/31/31 41/41/41
f 40/40/40 32/32/32 41/41/41
f 42/42/42 31/31/31 28/28/28
f 41/41/41 31/31/31 42/42/42
f 41/41/41 43/43/43 40/40/40
f 43/43/43 44/44/44 40/40/40
f 43/43/43 45/45/45 44/44/44
f 45/45/45 46/46/46 44/44/44
f 47/47/47 45/45/45 43/43/43
f 48/48/48 43/43/43 41/41/41
f 48/48/48 47/47/47 43/43/43
f 49/49/49 41/41/41 42/42/42
f 49/49/49 48/48/48 41/41/41
f 42/42/42 50/50/50 49/49/49
f 50/50/50 48/48/48 49/49/49
f 50/50/50 51/51/51 48/48/48
f 51/51/51 47/47/47 48/48/48
f 51/51/51 52/52/52 47/47/47
f 52/52/52 53/53/53 47/47/47
f 54/54/54 42/42/42 28/28/28
f 55/55/55 54/54/54 28/28/28
f 56/56/56 55/55/55 28/28/28
f 56/56/56 57/57/57 55/55/55
f 57/57/57 58/58/58 55/55/55
f 58/58/58 59/59/59 55/55/55
f 59/59/59 60/60/60 55/55/55
f 61/61/61 54/54/54 55/55/55
f 60/60/60 61/61/61 55/55/55
f 60/60/60 62/62/62 61/61/61
f 62/62/62 63/63/63 61/61/61
