g febg_christmas_001_sign_03
v -0.14991483 0.04334259 0.19839609
v -0.14991483 0.00030443072 0.19839609
v -0.16808078 0.00030443072 0.18334705
v -0.16808078 0.046459466 0.18334705
v -0.16808078 0.00030443072 -0.16922086
v -0.1530317 0.061508507 0.18334705
v 0.17389809 0.04334259 0.19839418
v -0.16808078 0.046459466 -0.16922086
v -0.14991483 0.00030443072 -0.18426992
v -0.1530317 0.061508507 -0.16922086
v -0.14991483 0.04334259 -0.18426992
v 0.17389809 0.00030443072 -0.18426992
v 0.17389809 0.04334259 -0.18426992
v 0.19206212 0.00030443072 -0.16922086
v 0.17701498 0.061508507 -0.16922086
v 0.19206212 0.046459466 -0.16922086
v 0.19206212 0.00030443072 0.18334705
v 0.19206212 0.046459466 0.18334705
v 0.17389809 0.00030443072 0.19839418
v 0.17701498 0.061508507 0.18334705
v -0.098781556 0.061508507 -0.09650375
v -0.098781556 0.061508507 0.110629916
v 0.122764826 0.061508507 0.110629916
v 0.122764826 0.061508507 -0.09650375
v -0.04004088 0.08519378 0.06056735
v -0.04004088 0.08519378 -0.046443105
v 0.06402224 0.08519378 -0.046443105
v 0.06402224 0.08519378 0.06056735
v 0.02850768 1.4983385 0.007062137
v 0.0037345588 1.4983385 -0.007240087
v 0.020248711 1.4983385 -0.007240087
v -0.0045244396 1.4983385 0.007062137
v 0.0037345588 1.4983385 0.021366268
v 0.020248711 1.4983385 0.021366268
v -0.023067594 0.08362964 0.007062137
v 0.0037345588 0.11637214 0.021364361
v -0.0055379868 0.08362964 0.037423164
v -0.0045244396 0.11637214 0.007062137
v 0.0037345588 1.4983385 0.021366268
v -0.0055379868 0.08362964 -0.023300797
v -0.0045244396 1.4983385 0.007062137
v 0.0037345588 0.11637214 -0.007240087
v 0.029521227 0.08362964 -0.023300797
v 0.0037345588 1.4983385 -0.007240087
v 0.020250618 0.11637214 -0.007240087
v 0.047050834 0.08362964 0.007062137
v 0.020248711 1.4983385 -0.007240087
v 0.02850768 0.11637214 0.007062137
v 0.029521227 0.08362964 0.037423164
v 0.02850768 1.4983385 0.007062137
v 0.020250618 0.11637214 0.021364361
v 0.020248711 1.4983385 0.021366268
v 0.3198715 0.30056548 -0.14804472
v 0.3198715 1.6778584 -0.14804281
v 0.3193628 1.6778584 -0.17551178
v 0.3193628 0.30056548 -0.17551368
v -0.30919784 1.6778584 -0.17550987
v 0.3198715 1.6778584 -0.14804281
v -0.30924547 1.6778584 -0.14804281
v -0.30919594 0.30056357 -0.17551368
v -0.30924547 1.6778584 -0.14804281
v -0.30924356 0.30056357 -0.14804472
vt 0.046146102 0.07783676
vt 0.043057285 0.079138905
vt 0.046191525 0.082333714
vt 0.04755424 0.07907834
vt 0.07935088 0.082333714
vt 0.047645085 0.07779133
vt 0.046146102 0.048810963
vt 0.07798817 0.07907834
vt 0.082485124 0.079138905
vt 0.077897325 0.07779133
vt 0.07939631 0.07783676
vt 0.082485124 0.047508813
vt 0.07939631 0.048810963
vt 0.07935088 0.04429887
vt 0.077897325 0.048795823
vt 0.07798817 0.04755424
vt 0.046191525 0.04429887
vt 0.04755424 0.04755424
vt 0.043057285 0.047508813
vt 0.047645085 0.048795823
vt 0.0725676 0.07340037
vt 0.0533382 0.07340037
vt 0.0533382 0.05285368
vt 0.0725676 0.05285368
vt 0.0576686 0.067858666
vt 0.06782839 0.067858666
vt 0.06782839 0.05791086
vt 0.0576686 0.05791086
vt 0.46917778 0.009685943
vt 0.47125214 0.0060823224
vt 0.47125214 0.008489783
vt 0.46917778 0.0048861634
vt 0.4675274 0.0057643563
vt 0.4675274 0.0087774675
vt 0.2824709 0.0019184758
vt 0.28960243 0.0057643563
vt 0.2824709 0.0057643563
vt 0.28960243 0.0038111336
vt 0.4675274 0.0057643563
vt 0.2824709 0.0057643563
vt 0.4675274 0.0038111336
vt 0.28960243 0.0057643563
vt 0.2824709 0.0087774675
vt 0.4675274 0.0057643563
vt 0.28960243 0.0087774675
vt 0.2824709 0.012623348
vt 0.4675274 0.0087774675
vt 0.28960243 0.01073069
vt 0.2824709 0.0087774675
vt 0.4675274 0.01073069
vt 0.28960243 0.0087774675
vt 0.4675274 0.0087774675
vt 0.19896686 0.017226292
vt 0.08652784 0.017226292
vt 0.08652784 0.018876689
vt 0.19896686 0.018876689
vt 0.08652784 0.07948715
vt 0.08528626 0.018876689
vt 0.08528626 0.07948715
vt 0.19896686 0.07948715
vt 0.08652784 0.08136467
vt 0.19896686 0.08136467
vn -0.39399028 0.39399028 0.8303874
vn -0.63834846 -0.00089257956 0.769747
vn -0.9042101 -0.00089257956 0.427087
vn -0.85533845 0.34316373 0.388117
vn -0.9042101 -0.00089257956 -0.427087
vn -0.34316373 0.85533845 0.38811696
vn 0.39382052 0.39399028 0.83046794
vn -0.85533845 0.34316373 -0.388117
vn -0.33925402 -0.00089257956 -0.9406944
vn -0.34316373 0.85533845 -0.38811696
vn -0.2903824 0.2903824 -0.91178733
vn 0.33908427 -0.00089257956 -0.9407556
vn 0.29216754 0.2903824 -0.91121686
vn 0.9040404 -0.00089257956 -0.4274461
vn 0.34299403 0.85533845 -0.38826695
vn 0.85516876 0.34316373 -0.38849077
vn 0.9040404 -0.00089257956 0.4274461
vn 0.85516876 0.34316373 0.38849077
vn 0.6381787 -0.00089257956 0.76988775
vn 0.34299403 0.85533845 0.38826695
vn -0.053843617 0.99804366 -0.031776756
vn -0.053843617 0.99804366 0.031776756
vn 0.053673923 0.99804366 0.03206246
vn 0.053673923 0.99804366 -0.03206246
vn -0.13985777 0.9745853 0.17499502
vn -0.13985777 0.9745853 -0.17499502
vn 0.14164287 0.9745853 -0.17355342
vn 0.14164287 0.9745853 0.17355342
vn 0.7926131 0.6090255 -0.029196505
vn -0.39594507 0.6090255 -0.6872521
vn 0.39577538 0.6090255 -0.68734986
vn -0.7927828 0.6090255 -0.024154505
vn -0.5191016 0.8006023 0.29928145
vn 0.5189319 0.8006023 0.29957566
vn -0.8690226 0.49368834 -0.03273465
vn -0.8396996 0.24346566 0.48541632
vn -0.77714384 0.440907 0.44905287
vn -0.96090126 0.27669835 -0.010332443
vn -0.5191016 0.8006023 0.29928145
vn -0.43504238 0.49368834 -0.7530007
vn -0.7927828 0.6090255 -0.024154505
vn -0.4800043 0.27669835 -0.83248657
vn 0.4348727 0.49368834 -0.75309867
vn -0.39594507 0.6090255 -0.6872521
vn 0.47983462 0.27669835 -0.8325844
vn 0.8699233 0.49318695 -0
vn 0.39577538 0.6090255 -0.68734986
vn 0.9607315 0.27669835 -0.020808065
vn 0.77697414 0.440907 0.4493464
vn 0.7926131 0.6090255 -0.029196505
vn 0.8395299 0.24346566 0.48570988
vn 0.5189319 0.8006023 0.29957566
vn 0.9998288 -0.00089257956 -0.018481677
vn 0.7105087 0.70285904 -0.03415483
vn 0.57171327 0.5777476 -0.582539
vn 0.7007344 -0.00089257956 -0.7134217
vn -0.5777476 0.5777476 -0.57655483
vn 0.7105087 0.70285904 -0.03415483
vn -0.70676875 0.70676875 -0.030916821
vn -0.70676875 -0.00089257956 -0.7074441
vn -0.70676875 0.70676875 -0.030916821
vn -0.99999857 -0.00089257956 -0.0014367758
g febg_christmas_001_sign_03_0
f 3/3/3 2/2/2 1/1/1
f 4/4/4 3/3/3 1/1/1
f 5/5/5 3/3/3 4/4/4
f 1/1/1 6/6/6 4/4/4
f 6/6/6 1/1/1 7/7/7
f 8/8/8 5/5/5 4/4/4
f 9/9/9 5/5/5 8/8/8
f 10/10/10 8/8/8 4/4/4
f 6/6/6 10/10/10 4/4/4
f 11/11/11 9/9/9 8/8/8
f 11/11/11 8/8/8 10/10/10
f 12/12/12 9/9/9 11/11/11
f 13/13/13 12/12/12 11/11/11
f 12/12/12 13/13/13 14/14/14
f 15/15/15 13/13/13 11/11/11
f 10/10/10 15/15/15 11/11/11
f 13/13/13 16/16/16 14/14/14
f 13/13/13 15/15/15 16/16/16
f 17/17/17 14/14/14 16/16/16
f 18/18/18 17/17/17 16/16/16
f 19/19/19 17/17/17 18/18/18
f 7/7/7 19/19/19 18/18/18
f 20/20/20 18/18/18 16/16/16
f 7/7/7 18/18/18 20/20/20
f 20/20/20 6/6/6 7/7/7
f 15/15/15 20/20/20 16/16/16
f 15/15/15 10/10/10 21/21/21
f 10/10/10 6/6/6 22/22/22
f 21/21/21 10/10/10 22/22/22
f 6/6/6 20/20/20 23/23/23
f 22/22/22 6/6/6 23/23/23
f 20/20/20 15/15/15 24/24/24
f 24/24/24 15/15/15 21/21/21
f 23/23/23 20/20/20 24/24/24
f 21/21/21 22/22/22 25/25/25
f 24/24/24 21/21/21 26/26/26
f 26/26/26 21/21/21 25/25/25
f 27/27/27 24/24/24 26/26/26
f 23/23/23 24/24/24 27/27/27
f 27/27/27 26/26/26 25/25/25
f 22/22/22 23/23/23 28/28/28
f 25/25/25 22/22/22 28/28/28
f 28/28/28 27/27/27 25/25/25
f 28/28/28 23/23/23 27/27/27
f 31/31/31 30/30/30 29/29/29
f 30/30/30 32/32/32 29/29/29
f 32/32/32 33/33/33 29/29/29
f 33/33/33 34/34/34 29/29/29
f 37/37/37 36/36/36 35/35/35
f 36/36/36 38/38/38 35/35/35
f 38/38/38 36/36/36 39/39/39
f 35/35/35 38/38/38 40/40/40
f 41/41/41 38/38/38 39/39/39
f 38/38/38 42/42/42 40/40/40
f 42/42/42 38/38/38 41/41/41
f 40/40/40 42/42/42 43/43/43
f 44/44/44 42/42/42 41/41/41
f 42/42/42 45/45/45 43/43/43
f 45/45/45 42/42/42 44/44/44
f 43/43/43 45/45/45 46/46/46
f 47/47/47 45/45/45 44/44/44
f 45/45/45 48/48/48 46/46/46
f 48/48/48 45/45/45 47/47/47
f 46/46/46 48/48/48 49/49/49
f 50/50/50 48/48/48 47/47/47
f 48/48/48 51/51/51 49/49/49
f 51/51/51 48/48/48 50/50/50
f 52/52/52 51/51/51 50/50/50
f 55/55/55 54/54/54 53/53/53
f 56/56/56 55/55/55 53/53/53
f 55/55/55 56/56/56 57/57/57
f 55/55/55 57/57/57 58/58/58
f 57/57/57 59/59/59 58/58/58
f 56/56/56 60/60/60 57/57/57
f 57/57/57 60/60/60 61/61/61
f 60/60/60 62/62/62 61/61/61
