g febg_factory_001_stone_01
v -3.4057307 0.0061786175 -0.8800154
v -3.1467185 0.75893307 -0.24172544
v -3.3433504 0.006191492 0.036650896
v -2.985139 0.006191492 0.2817812
v -3.114707 0.77420473 -0.85375214
v -2.4545064 0.006185055 -1.7218679
v -2.304905 0.79353046 -1.5257103
v -1.7326984 0.0061786175 -1.8805374
v -2.7048788 0.7572508 0.2065258
v -2.875936 0.006191492 0.6188159
v -2.3619328 0.8943534 -0.34401035
v -2.5258837 1.1392045 0.43967128
v -2.6231017 0.0061979294 1.0743947
v -2.40693 1.2532663 0.85663176
v -1.71171 0.0061979294 1.906198
v -2.5516658 0.8981862 0.037131548
v -2.2115912 1.1303506 -0.2735815
v -1.6350775 0.8844733 -0.74439335
v -1.6183376 0.79512167 -1.5492841
v -0.97635794 0.7960248 -1.8148766
v -0.90644264 0.0061719418 -2.0743303
v -0.60688305 0.0061719418 -1.7170933
v -1.3135033 0.8694415 -1.2712779
v -0.77013206 0.852942 -1.6136912
v -1.2189617 1.2407036 -1.1089447
v -1.4982147 1.2669339 -0.6631422
v -0.5561302 0.96331453 -1.6774877
v -0.30362058 0.0061719418 -1.8943282
v 0.16831517 1.0687561 -1.6097223
v 0.2540288 0.0061719418 -1.7769599
v 0.77232575 0.0061719418 -1.2408445
v -0.5588324 1.2003899 -1.4976155
v -1.7470546 1.3520503 -0.21525455
v -1.1192751 1.3398051 -0.39126825
v 0.7859607 0.6380372 -1.098772
v 1.2822366 0.57028484 -1.5139008
v 1.1856682 0.0061655045 -1.6077994
v 2.413106 0.37229538 -1.7401539
v 2.486315 0.006159067 -1.9525902
v 1.6585456 0.66956854 -1.2749286
v 2.7847378 0.6432991 -0.6493125
v 3.2325282 0.38229275 -1.3154178
v 3.4057355 0.006159067 -1.3857362
v 3.1664062 0.3952067 -0.79947233
v 3.3218212 0.0061655045 -0.77804875
v 3.0950873 0.0061655045 -0.45416832
v 2.3380976 0.0061719418 0.6397133
v 0.6975641 1.1178331 -0.9414928
v 1.5324466 1.4366727 -1.1347141
v 2.515001 1.3854065 -0.4890449
v -0.18319893 1.4141579 -0.29517412
v 1.3714776 2.0089183 -0.8131788
v 0.6951802 2.2313256 -0.50421953
v 1.9613662 1.4282603 0.62184286
v 0.80058956 0.006185055 1.7762666
v 2.0073638 2.0873566 -0.19146657
v 1.5988415 2.3100758 0.4852922
v 0.82458544 1.4598436 1.4961038
v -0.31484556 0.006191492 2.0743256
v 0.6175928 2.2170544 1.1441221
v -0.3533013 1.468113 1.7892389
v -0.58910346 1.4519186 -0.22549224
v 0.062067747 2.117322 -0.01196456
v -0.49623132 1.8253627 -0.05671501
v -1.0632734 1.8387771 -0.27415967
v -0.8714881 1.9138827 0.78814507
v -1.6506872 1.8164177 -0.07354593
v -0.5403061 2.194695 0.806139
v -0.18043828 2.1311975 1.3945918
v -1.9452128 1.8668456 0.4514222
v -0.87999773 0.8799262 1.297257
v -0.93937683 0.006191492 1.5796285
v -1.9619331 1.9053993 0.859334
v -1.694067 1.2539744 1.604001
v -1.1822596 1.9504027 1.220644
v -1.5292783 1.8499761 1.3368497
vt 0.35738966 0.22589529
vt 0.33022913 0.22301805
vt 0.33563712 0.24306834
vt 0.32140157 0.245343
vt 0.34146693 0.21361807
vt 0.3667595 0.19046456
vt 0.34654352 0.18847612
vt 0.36340022 0.1688928
vt 0.3140051 0.22530779
vt 0.3097721 0.24922955
vt 0.32070863 0.20491102
vt 0.30336985 0.2189658
vt 0.2908968 0.25320646
vt 0.29271957 0.22163215
vt 0.2503744 0.24757251
vt 0.31478843 0.21626934
vt 0.31481856 0.20155174
vt 0.32227528 0.18251073
vt 0.34093967 0.17201108
vt 0.33890602 0.15399441
vt 0.35809767 0.1455284
vt 0.34979737 0.13397425
vt 0.33040988 0.16795883
vt 0.3325942 0.14955053
vt 0.32031697 0.16697967
vt 0.31349292 0.17945272
vt 0.32790926 0.14384124
vt 0.34440443 0.123233564
vt 0.31474325 0.12948516
vt 0.33212718 0.10919384
vt 0.3124987 0.09690155
vt 0.3219288 0.14751688
vt 0.30677435 0.19133827
vt 0.30333975 0.17392421
vt 0.29964903 0.10955538
vt 0.29033944 0.09482271
vt 0.3014718 0.08515157
vt 0.26935518 0.07282915
vt 0.27337727 0.06264583
vt 0.27803206 0.09559098
vt 0.2406129 0.08635669
vt 0.24696994 0.06605031
vt 0.24469525 0.05615321
vt 0.2372536 0.07453139
vt 0.23029399 0.06642692
vt 0.22356036 0.07596248
vt 0.19861424 0.10578936
vt 0.2942561 0.12267619
vt 0.27242824 0.11155891
vt 0.24373117 0.10176725
vt 0.29086667 0.1542505
vt 0.2670805 0.12425792
vt 0.27268434 0.1396986
vt 0.22577477 0.12654766
vt 0.18734631 0.1681396
vt 0.24690968 0.12064254
vt 0.24282733 0.13664061
vt 0.22205395 0.16208383
vt 0.20245558 0.20808953
vt 0.24047732 0.16113481
vt 0.233352 0.1898168
vt 0.29326186 0.16399696
vt 0.2722776 0.1562239
vt 0.28282246 0.16723576
vt 0.29154456 0.17749438
vt 0.26509205 0.18684918
vt 0.29503942 0.18993732
vt 0.26177794 0.17829278
vt 0.24556896 0.1779463
vt 0.28961635 0.20087385
vt 0.24195358 0.20994243
vt 0.22586516 0.22820008
vt 0.28455484 0.20561904
vt 0.2643539 0.21974915
vt 0.26679426 0.1975447
vt 0.27018368 0.20581487
vn -0.8752593 0.32386613 -0.3592101
vn -0.6713679 0.6997354 0.24420385
vn -0.8238431 0.3646444 0.433955
vn -0.7635622 0.3717363 0.52800083
vn -0.6270437 0.71214616 -0.31569612
vn -0.3983308 0.31854725 -0.86015123
vn -0.2724501 0.7298758 -0.6269388
vn -0.19975841 0.3398229 -0.9190305
vn -0.78661084 0.54548717 0.28928733
vn -0.9000808 0.31145537 0.3047132
vn -0.3664174 0.88235116 -0.29528746
vn -0.74919933 0.66234463 -0
vn -0.8061135 0.24585557 0.53827137
vn -0.82207024 0.4692495 0.3224987
vn -0.15543413 0.2635852 0.952031
vn -0.5898113 0.7972486 -0.12851958
vn -0.5330764 0.7015084 -0.47298574
vn -0.4320172 0.7688812 -0.47136277
vn -0.14834237 0.8025676 -0.57782334
vn 0.15483522 0.6749139 -0.72146887
vn 0.23993772 0.34336877 -0.90803516
vn 0.115829945 0.18202865 -0.97644717
vn -0.3664174 0.832708 -0.41513333
vn -0.18380165 0.5313034 -0.82700276
vn -0.4391091 0.7671082 -0.46768385
vn -0.38592005 0.81675124 -0.4289325
vn -0.24408257 0.38769305 -0.88888574
vn -0.09515327 0.14479637 -0.98487556
vn 0.35518062 0.61463296 -0.70432454
vn 0.47574246 0.17493689 -0.86201286
vn 0.059094965 0.24230957 -0.96839756
vn -0.13593149 0.82029724 -0.5555493
vn -0.4674766 0.71746504 -0.5164393
vn -0.07210469 0.80965936 -0.58245397
vn 0.17256492 0.36109853 -0.91642195
vn -0.28308785 0.6589571 -0.69687647
vn -0.4337902 0.2635852 -0.8615967
vn 0.13355958 0.6749139 -0.72570866
vn 0.15483522 0.4054227 -0.9009209
vn 0.115829945 0.6961894 -0.7084516
vn 0.72573096 0.68732464 0.02999007
vn 0.62467176 0.7050543 -0.33568385
vn 0.79133075 0.48166037 -0.37656197
vn 0.7363688 0.5951303 0.32183996
vn 0.8693414 0.3717363 0.32566503
vn 0.7026824 0.45151985 0.5498794
vn 0.7470066 0.24940145 0.616263
vn -0.024234533 0.5578979 -0.8295557
vn 0.119375885 0.38060117 -0.9170017
vn 0.85870355 0.4674766 -0.20998529
vn -0.16607201 0.74583256 -0.64509994
vn 0.096327305 0.7086003 -0.69900405
vn -0.25472045 0.8061135 -0.53413343
vn 0.7310499 0.3079095 0.6088988
vn 0.4172345 0.17493689 0.8918029
vn 0.64062846 0.7582433 -0.12108784
vn 0.4331912 0.84334576 0.3179832
vn 0.41546154 0.3025905 0.8578058
vn -0.23344481 0.20685029 0.95011395
vn 0.19915944 0.832708 0.5166555
vn -0.3043635 0.3699633 0.8777756
vn 0.078597605 0.7050543 -0.7047843
vn -0.3008176 0.8415729 -0.4486244
vn -0.11642891 0.7263299 -0.6774136
vn 0.012997806 0.7263299 -0.6872233
vn -0.25294745 0.94440496 0.21004012
vn -0.42847133 0.71923804 -0.54690856
vn -0.45683873 0.88767004 0.05779536
vn -0.18734765 0.7653352 0.61576205
vn -0.55080605 0.78483784 -0.28397584
vn -0.18025577 0.27599597 0.9441049
vn -0.16429901 0.24408257 0.955735
vn -0.5242115 0.8273891 0.20156762
vn -0.19798541 0.32741213 0.92390645
vn 0.34986174 0.7724271 0.5300501
vn -0.20685029 0.667822 0.7150012
g febg_factory_001_stone_01_0
f 3/3/3 2/2/2 1/1/1
f 3/3/3 4/4/4 2/2/2
f 2/2/2 5/5/5 1/1/1
f 6/6/6 1/1/1 5/5/5
f 7/7/7 6/6/6 5/5/5
f 8/8/8 6/6/6 7/7/7
f 4/4/4 9/9/9 2/2/2
f 4/4/4 10/10/10 9/9/9
f 5/5/5 2/2/2 11/11/11
f 5/5/5 11/11/11 7/7/7
f 10/10/10 12/12/12 9/9/9
f 10/10/10 13/13/13 12/12/12
f 13/13/13 14/14/14 12/12/12
f 13/13/13 15/15/15 14/14/14
f 9/9/9 16/16/16 2/2/2
f 9/9/9 12/12/12 16/16/16
f 2/2/2 16/16/16 11/11/11
f 16/16/16 12/12/12 17/17/17
f 11/11/11 16/16/16 17/17/17
f 17/17/17 12/12/12 14/14/14
f 11/11/11 18/18/18 7/7/7
f 18/18/18 11/11/11 17/17/17
f 19/19/19 8/8/8 7/7/7
f 7/7/7 18/18/18 19/19/19
f 8/8/8 19/19/19 20/20/20
f 21/21/21 8/8/8 20/20/20
f 21/21/21 20/20/20 22/22/22
f 23/23/23 20/20/20 19/19/19
f 18/18/18 23/23/23 19/19/19
f 20/20/20 24/24/24 22/22/22
f 24/24/24 20/20/20 23/23/23
f 23/23/23 18/18/18 25/25/25
f 23/23/23 25/25/25 24/24/24
f 26/26/26 18/18/18 17/17/17
f 18/18/18 26/26/26 25/25/25
f 24/24/24 27/27/27 22/22/22
f 27/27/27 28/28/28 22/22/22
f 29/29/29 28/28/28 27/27/27
f 30/30/30 28/28/28 29/29/29
f 30/30/30 29/29/29 31/31/31
f 24/24/24 32/32/32 27/27/27
f 25/25/25 32/32/32 24/24/24
f 29/29/29 27/27/27 32/32/32
f 26/26/26 17/17/17 33/33/33
f 33/33/33 17/17/17 14/14/14
f 26/26/26 34/34/34 25/25/25
f 25/25/25 34/34/34 32/32/32
f 34/34/34 26/26/26 33/33/33
f 29/29/29 35/35/35 31/31/31
f 31/31/31 35/35/35 36/36/36
f 37/37/37 31/31/31 36/36/36
f 37/37/37 36/36/36 38/38/38
f 39/39/39 37/37/37 38/38/38
f 40/40/40 36/36/36 35/35/35
f 38/38/38 36/36/36 40/40/40
f 41/41/41 38/38/38 40/40/40
f 39/39/39 38/38/38 42/42/42
f 42/42/42 38/38/38 41/41/41
f 43/43/43 39/39/39 42/42/42
f 43/43/43 42/42/42 44/44/44
f 44/44/44 42/42/42 41/41/41
f 45/45/45 43/43/43 44/44/44
f 45/45/45 44/44/44 46/46/46
f 46/46/46 44/44/44 41/41/41
f 46/46/46 41/41/41 47/47/47
f 48/48/48 35/35/35 29/29/29
f 48/48/48 40/40/40 35/35/35
f 49/49/49 41/41/41 40/40/40
f 49/49/49 40/40/40 48/48/48
f 41/41/41 50/50/50 47/47/47
f 50/50/50 41/41/41 49/49/49
f 51/51/51 48/48/48 29/29/29
f 32/32/32 51/51/51 29/29/29
f 52/52/52 49/49/49 48/48/48
f 50/50/50 49/49/49 52/52/52
f 53/53/53 52/52/52 48/48/48
f 53/53/53 48/48/48 51/51/51
f 47/47/47 50/50/50 54/54/54
f 55/55/55 47/47/47 54/54/54
f 56/56/56 50/50/50 52/52/52
f 52/52/52 53/53/53 56/56/56
f 56/56/56 57/57/57 50/50/50
f 57/57/57 54/54/54 50/50/50
f 53/53/53 57/57/57 56/56/56
f 58/58/58 55/55/55 54/54/54
f 58/58/58 54/54/54 57/57/57
f 55/55/55 58/58/58 59/59/59
f 57/57/57 53/53/53 60/60/60
f 60/60/60 58/58/58 57/57/57
f 58/58/58 61/61/61 59/59/59
f 61/61/61 58/58/58 60/60/60
f 62/62/62 51/51/51 32/32/32
f 34/34/34 62/62/62 32/32/32
f 63/63/63 53/53/53 51/51/51
f 53/53/53 63/63/63 60/60/60
f 62/62/62 64/64/64 51/51/51
f 64/64/64 63/63/63 51/51/51
f 62/62/62 34/34/34 65/65/65
f 64/64/64 62/62/62 65/65/65
f 64/64/64 65/65/65 66/66/66
f 66/66/66 65/65/65 67/67/67
f 65/65/65 34/34/34 67/67/67
f 68/68/68 64/64/64 66/66/66
f 68/68/68 63/63/63 64/64/64
f 68/68/68 60/60/60 63/63/63
f 34/34/34 33/33/33 67/67/67
f 69/69/69 60/60/60 68/68/68
f 69/69/69 61/61/61 60/60/60
f 68/68/68 66/66/66 69/69/69
f 66/66/66 61/61/61 69/69/69
f 67/67/67 33/33/33 70/70/70
f 67/67/67 70/70/70 66/66/66
f 33/33/33 14/14/14 70/70/70
f 71/71/71 61/61/61 66/66/66
f 61/61/61 71/71/71 59/59/59
f 71/71/71 72/72/72 59/59/59
f 70/70/70 73/73/73 66/66/66
f 73/73/73 70/70/70 14/14/14
f 72/72/72 71/71/71 74/74/74
f 15/15/15 72/72/72 74/74/74
f 15/15/15 74/74/74 14/14/14
f 66/66/66 75/75/75 71/71/71
f 73/73/73 75/75/75 66/66/66
f 71/71/71 75/75/75 74/74/74
f 14/14/14 74/74/74 76/76/76
f 73/73/73 14/14/14 76/76/76
f 75/75/75 73/73/73 76/76/76
f 75/75/75 76/76/76 74/74/74
