g febg_hotspring_001_lantern_01
v -0.14780551 0.11150542 0.14780807
v -5.9604645E-08 0.27373648 0.35255826
v -5.9604645E-08 0.11150542 0.2090258
v -0.24929464 0.27373648 0.24929464
v -0.20902842 0.11150542 -3.8444996E-06
v -5.9604645E-08 0.76042974 0.35255826
v -0.35255563 0.27373648 -3.8444996E-06
v -0.14780551 0.11150542 -0.14780797
v -0.24929464 0.76042974 0.24929464
v -5.9604645E-08 0.9226608 0.2090258
v -0.14780551 0.9226608 0.14780807
v -0.35255563 0.76042974 -3.8444996E-06
v -0.20902842 0.9226608 -3.8444996E-06
v -0.24929464 0.27373648 -0.24929452
v -5.9604645E-08 0.11150542 -0.20902568
v -0.24929464 0.76042974 -0.24929452
v -0.14780551 0.9226608 -0.14780797
v -5.9604645E-08 0.27373648 -0.35255814
v 0.14780536 0.11150542 -0.14780797
v -5.9604645E-08 0.76042974 -0.35255814
v -5.9604645E-08 0.9226608 -0.20902568
v 0.24929452 0.27373648 -0.24929452
v 0.20902827 0.11150542 -3.8444996E-06
v 0.24929452 0.76042974 -0.24929452
v 0.14780536 0.9226608 -0.14780797
v 0.35255554 0.27373648 -3.8444996E-06
v 0.14780536 0.11150542 0.14780807
v 0.35255554 0.76042974 -3.8444996E-06
v 0.20902827 0.9226608 -3.8444996E-06
v 0.24929452 0.76042974 0.24929464
v 0.14780536 0.9226608 0.14780807
v 0.24929452 0.27373648 0.24929464
v -5.9604645E-08 0.11150542 0.2090258
v -5.9604645E-08 0.27373648 0.35255826
v -5.9604645E-08 0.76042974 0.35255826
v -5.9604645E-08 0.9226608 0.2090258
v -5.9604645E-08 0.11150542 0.2090258
v -5.9604645E-08 5.9604645E-08 0.2090258
v -0.14780551 5.9604645E-08 0.14780807
v -0.14780551 0.11150542 0.14780807
v -0.20902842 5.9604645E-08 -3.8444996E-06
v -0.20902842 0.11150542 -3.8444996E-06
v -0.14780551 5.9604645E-08 -0.14780797
v -0.14780551 0.11150542 -0.14780797
v -5.9604645E-08 5.9604645E-08 -0.20902568
v -5.9604645E-08 0.11150542 -0.20902568
v 0.14780536 5.9604645E-08 -0.14780797
v 0.14780536 0.11150542 -0.14780797
v 0.20902827 5.9604645E-08 -3.8444996E-06
v 0.20902827 0.11150542 -3.8444996E-06
v 0.14780536 5.9604645E-08 0.14780807
v 0.14780536 0.11150542 0.14780807
v -5.9604645E-08 5.9604645E-08 0.2090258
v -5.9604645E-08 0.11150542 0.2090258
v -5.9604645E-08 0.9226608 0.2090258
v 0.14780536 1.0105472 0.14780807
v 0.14780536 0.9226608 0.14780807
v -5.9604645E-08 1.0105472 0.2090258
v -0.14780551 0.9226608 0.14780807
v 0.20902827 1.0105472 -3.8444996E-06
v 0.20902827 0.9226608 -3.8444996E-06
v -0.14780551 1.0105472 0.14780807
v -0.20902842 0.9226608 -3.8444996E-06
v -5.9604645E-08 1.0105472 -3.8444996E-06
v -0.20902842 1.0105472 -3.8444996E-06
v -0.14780551 0.9226608 -0.14780797
v -0.14780551 1.0105472 -0.14780797
v -5.9604645E-08 0.9226608 -0.20902568
v -5.9604645E-08 1.0105472 -0.20902568
v 0.14780536 0.9226608 -0.14780797
v 0.14780536 1.0105472 -0.14780797
vt 0.8545673 0.73046356
vt 0.84369385 0.74097854
vt 0.84369385 0.73046356
vt 0.8545673 0.74097854
vt 0.86605316 0.73046356
vt 0.84369385 0.7661757
vt 0.86605316 0.74097854
vt 0.8777182 0.73046356
vt 0.8545673 0.7661757
vt 0.84369385 0.77669066
vt 0.8545673 0.77669066
vt 0.86605316 0.7661757
vt 0.86605316 0.77669066
vt 0.8777182 0.74097854
vt 0.88944304 0.73046356
vt 0.8777182 0.7661757
vt 0.8777182 0.77669066
vt 0.88944304 0.74097854
vt 0.8777182 0.73046356
vt 0.88944304 0.7661757
vt 0.88944304 0.77669066
vt 0.8777182 0.74097854
vt 0.86605316 0.73046356
vt 0.8777182 0.7661757
vt 0.8777182 0.77669066
vt 0.86605316 0.74097854
vt 0.8545673 0.73046356
vt 0.86605316 0.7661757
vt 0.86605316 0.77669066
vt 0.8545673 0.7661757
vt 0.8545673 0.77669066
vt 0.8545673 0.74097854
vt 0.84369385 0.73046356
vt 0.84369385 0.74097854
vt 0.84369385 0.7661757
vt 0.84369385 0.77669066
vt 0.7245937 0.15324455
vt 0.7245937 0.1490774
vt 0.71512425 0.1490774
vt 0.71512425 0.15324455
vt 0.7056548 0.1490774
vt 0.7056548 0.15324455
vt 0.6961853 0.1490774
vt 0.6961853 0.15324455
vt 0.68671584 0.1490774
vt 0.68671584 0.15324455
vt 0.6961853 0.1490774
vt 0.6961853 0.15324455
vt 0.7056548 0.1490774
vt 0.7056548 0.15324455
vt 0.71512425 0.1490774
vt 0.71512425 0.15324455
vt 0.7245937 0.1490774
vt 0.7245937 0.15324455
vt 0.67354226 0.15339392
vt 0.6668658 0.14656813
vt 0.66413254 0.14928651
vt 0.67354226 0.14968978
vt 0.682937 0.14928651
vt 0.6637442 0.13989171
vt 0.66004 0.13989171
vt 0.68021864 0.14656813
vt 0.6870295 0.13989171
vt 0.67354226 0.13989171
vt 0.6833403 0.13989171
vt 0.682937 0.130482
vt 0.68021864 0.13321531
vt 0.67354226 0.12638952
vt 0.67354226 0.13009366
vt 0.66413254 0.130482
vt 0.6668658 0.13320036
vn -0.65200365 -0.38611907 0.65253603
vn -0.0009775162 -0.32942313 0.94418186
vn -0.0009775162 -0.38611907 0.92244846
vn -0.6676439 -0.32942313 0.6676316
vn -0.9217982 -0.38611907 -0.0346426
vn -0.0009775162 0.32942307 0.9441819
vn -0.9442989 -0.3290887 -0
vn -0.65200365 -0.38611907 -0.65253603
vn -0.6676439 0.32942307 0.6676317
vn -0.0009775162 0.38611913 0.9224484
vn -0.65200365 0.38611913 0.65253603
vn -0.9442989 0.32908863 -0
vn -0.9217982 0.38611913 -0.034641955
vn -0.6676439 -0.32942313 -0.6676316
vn -0.0009775162 -0.38611907 -0.92244846
vn -0.6676439 0.32942307 -0.6676317
vn -0.65200365 0.38611913 -0.65253603
vn -0.0009775162 -0.32942313 -0.94418186
vn 0.6520036 -0.38611907 -0.65253615
vn -0.0009775162 0.32942307 -0.9441819
vn -0.0009775162 0.38611913 -0.9224484
vn 0.6676439 -0.32942313 -0.6676316
vn 0.92179817 -0.38611907 -0.03464346
vn 0.6676439 0.32942307 -0.6676317
vn 0.6520036 0.38611913 -0.6525361
vn 0.9442989 -0.3290887 -0
vn 0.6520036 -0.38611907 0.65253615
vn 0.9442989 0.32908863 -0
vn 0.92179817 0.38611913 -0.034642816
vn 0.6676439 0.32942307 0.6676317
vn 0.6520036 0.38611913 0.6525361
vn 0.6676439 -0.32942313 0.6676316
vn -0.0009775162 -0.38611907 0.92244846
vn -0.0009775162 -0.32942313 0.94418186
vn -0.0009775162 0.32942307 0.9441819
vn -0.0009775162 0.38611913 0.9224484
vn -0.0009775162 -0.38611907 0.92244846
vn -0.0009775162 0.0009775162 0.99999905
vn -0.70674455 0.0009775162 0.70746815
vn -0.65200365 -0.38611907 0.65253603
vn -0.9999995 0.0009775162 -0
vn -0.9217982 -0.38611907 -0.0346426
vn -0.70674455 0.0009775162 -0.70746815
vn -0.65200365 -0.38611907 -0.65253603
vn -0.0009775162 0.0009775162 -0.99999905
vn -0.0009775162 -0.38611907 -0.92244846
vn 0.70674455 0.0009775162 -0.70746815
vn 0.6520036 -0.38611907 -0.65253615
vn 0.9999995 0.0009775162 -0
vn 0.92179817 -0.38611907 -0.03464346
vn 0.70674455 0.0009775162 0.70746815
vn 0.6520036 -0.38611907 0.65253615
vn -0.0009775162 0.0009775162 0.99999905
vn -0.0009775162 -0.38611907 0.92244846
vn -0.0009775162 0.38611913 0.9224484
vn 0.5483868 0.6304983 0.5493122
vn 0.6520036 0.38611913 0.6525361
vn -0.0009775162 0.6304983 0.77619004
vn -0.65200365 0.38611913 0.65253603
vn 0.776562 0.6300409 -0
vn 0.92179817 0.38611913 -0.034642816
vn -0.5483868 0.6304983 0.5493122
vn -0.9217982 0.38611913 -0.034641955
vn -0.0009775162 0.9999995 -0
vn -0.776562 0.6300409 -0
vn -0.65200365 0.38611913 -0.65253603
vn -0.5483868 0.6304983 -0.5493122
vn -0.0009775162 0.38611913 -0.9224484
vn -0.0009775162 0.6304983 -0.77619004
vn 0.6520036 0.38611913 -0.6525361
vn 0.5483868 0.6304983 -0.5493122
g febg_hotspring_001_lantern_01_0
f 3/3/3 2/2/2 1/1/1
f 2/2/2 4/4/4 1/1/1
f 1/1/1 4/4/4 5/5/5
f 2/2/2 6/6/6 4/4/4
f 4/4/4 7/7/7 5/5/5
f 5/5/5 7/7/7 8/8/8
f 6/6/6 9/9/9 4/4/4
f 4/4/4 9/9/9 7/7/7
f 6/6/6 10/10/10 9/9/9
f 10/10/10 11/11/11 9/9/9
f 9/9/9 11/11/11 12/12/12
f 9/9/9 12/12/12 7/7/7
f 11/11/11 13/13/13 12/12/12
f 7/7/7 14/14/14 8/8/8
f 7/7/7 12/12/12 14/14/14
f 8/8/8 14/14/14 15/15/15
f 12/12/12 13/13/13 16/16/16
f 12/12/12 16/16/16 14/14/14
f 13/13/13 17/17/17 16/16/16
f 14/14/14 18/18/18 15/15/15
f 14/14/14 16/16/16 18/18/18
f 15/15/15 18/18/18 19/19/19
f 16/16/16 17/17/17 20/20/20
f 16/16/16 20/20/20 18/18/18
f 17/17/17 21/21/21 20/20/20
f 18/18/18 22/22/22 19/19/19
f 18/18/18 20/20/20 22/22/22
f 19/19/19 22/22/22 23/23/23
f 20/20/20 21/21/21 24/24/24
f 20/20/20 24/24/24 22/22/22
f 21/21/21 25/25/25 24/24/24
f 22/22/22 26/26/26 23/23/23
f 22/22/22 24/24/24 26/26/26
f 23/23/23 26/26/26 27/27/27
f 24/24/24 25/25/25 28/28/28
f 24/24/24 28/28/28 26/26/26
f 25/25/25 29/29/29 28/28/28
f 28/28/28 29/29/29 30/30/30
f 28/28/28 30/30/30 26/26/26
f 29/29/29 31/31/31 30/30/30
f 26/26/26 32/32/32 27/27/27
f 30/30/30 32/32/32 26/26/26
f 27/27/27 32/32/32 33/33/33
f 32/32/32 34/34/34 33/33/33
f 32/32/32 30/30/30 34/34/34
f 30/30/30 35/35/35 34/34/34
f 30/30/30 31/31/31 35/35/35
f 31/31/31 36/36/36 35/35/35
f 39/39/39 38/38/38 37/37/37
f 40/40/40 39/39/39 37/37/37
f 41/41/41 39/39/39 40/40/40
f 42/42/42 41/41/41 40/40/40
f 43/43/43 41/41/41 42/42/42
f 44/44/44 43/43/43 42/42/42
f 45/45/45 43/43/43 44/44/44
f 46/46/46 45/45/45 44/44/44
f 47/47/47 45/45/45 46/46/46
f 48/48/48 47/47/47 46/46/46
f 49/49/49 47/47/47 48/48/48
f 50/50/50 49/49/49 48/48/48
f 51/51/51 49/49/49 50/50/50
f 52/52/52 51/51/51 50/50/50
f 53/53/53 51/51/51 52/52/52
f 54/54/54 53/53/53 52/52/52
f 57/57/57 56/56/56 55/55/55
f 56/56/56 58/58/58 55/55/55
f 55/55/55 58/58/58 59/59/59
f 60/60/60 56/56/56 57/57/57
f 56/56/56 60/60/60 58/58/58
f 61/61/61 60/60/60 57/57/57
f 58/58/58 62/62/62 59/59/59
f 59/59/59 62/62/62 63/63/63
f 58/58/58 64/64/64 62/62/62
f 60/60/60 64/64/64 58/58/58
f 62/62/62 65/65/65 63/63/63
f 64/64/64 65/65/65 62/62/62
f 63/63/63 65/65/65 66/66/66
f 65/65/65 67/67/67 66/66/66
f 67/67/67 65/65/65 64/64/64
f 66/66/66 67/67/67 68/68/68
f 69/69/69 67/67/67 64/64/64
f 67/67/67 69/69/69 68/68/68
f 69/69/69 64/64/64 60/60/60
f 68/68/68 69/69/69 70/70/70
f 71/71/71 60/60/60 61/61/61
f 70/70/70 71/71/71 61/61/61
f 69/69/69 71/71/71 70/70/70
f 71/71/71 69/69/69 60/60/60
