g febg_mothership_001_doughnut_01
v 0.20273712 0.119277 -0.14207964
v 0.27771002 0.05963862 0.005217701
v 0.25059676 0.119277 0.005217701
v 0.22467212 0.05963862 -0.15801643
v 0.25059676 2.682209E-07 0.005217701
v 0.077438876 0.119277 -0.23311433
v 0.20273712 2.682209E-07 -0.14207964
v 0.08581698 0.05963862 -0.2589007
v -0.07743886 0.119277 -0.23311433
v 0.077438876 -2.682209E-07 -0.23311433
v -0.08581698 0.05963862 -0.2589007
v -0.20273712 0.119277 -0.14207964
v -0.07743886 -2.682209E-07 -0.23311433
v -0.22467214 0.05963862 -0.15801643
v -0.25059676 0.119277 0.0052171946
v -0.20273712 -2.682209E-07 -0.14207964
v -0.27771002 0.05963862 0.0052171946
v -0.25059676 -2.682209E-07 0.0052171946
v -0.20273712 0.119277 0.15251455
v -0.27771002 0.05963862 0.0052171946
v -0.25059676 0.119277 0.0052171946
v -0.22467214 0.05963862 0.16845134
v -0.25059676 -2.682209E-07 0.0052171946
v -0.07743886 0.119277 0.24354923
v -0.20273712 -2.682209E-07 0.15251455
v -0.08581698 0.05963862 0.26933563
v 0.077438876 0.119277 0.24354923
v -0.07743886 -2.682209E-07 0.24354923
v 0.08581698 0.05963862 0.26933563
v 0.20273712 0.119277 0.15251455
v 0.077438876 -2.682209E-07 0.24354923
v 0.22467212 0.05963862 0.16845134
v 0.25059676 0.119277 0.005217701
v 0.20273712 2.682209E-07 0.15251455
v 0.27771002 0.05963862 0.005217701
v 0.25059676 2.682209E-07 0.005217701
v 0.053650483 0.10667461 0.2618013
v 0.028264016 0.08667138 0.2710449
v -0.028264552 0.08667138 0.2710449
v -0.0530726 0.10621908 0.2620116
v -0.07554045 0.13115954 0.23770672
v -0.1071561 0.10470414 0.24564469
v 0.07554047 0.13115954 0.23770672
v 0.107411936 0.10667461 0.24433315
v 0.19422023 0.10667461 0.18126348
v 0.13338317 0.08667138 0.23688942
v 0.17911558 0.08667138 0.20366302
v 0.19776703 0.13115954 0.14890364
v 0.22744665 0.10667461 0.13553053
v 0.26058832 0.107021034 0.03301373
v 0.24408263 0.08667138 0.114243865
v 0.26155075 0.08667138 0.060481906
v 0.24445342 0.13115954 0.005217701
v 0.25966242 0.10831717 -0.023490429
v 0.2286374 0.10396895 -0.12547702
v 0.2597196 0.08543402 -0.057533115
v 0.24108829 0.08814603 -0.11081995
v 0.19776703 0.13115954 -0.13846873
v 0.1959539 0.10313469 -0.1715908
v 0.10757984 0.10911065 -0.23238441
v 0.19187105 0.07910368 -0.18553331
v 0.14744857 0.07493132 -0.22019094
v 0.07554047 0.13115954 -0.22727185
v 0.054289818 0.10717833 -0.25113332
v -0.07554045 0.13115954 -0.22727185
v -0.05365047 0.10667461 -0.2513664
v 0.028264537 0.07064825 -0.27104494
v -0.028264016 0.07064825 -0.27104494
v -0.10741192 0.10667461 -0.23389828
v -0.19446918 0.10700461 -0.17045885
v -0.13338318 0.08667138 -0.22645453
v -0.1791156 0.08667138 -0.19322813
v -0.19776705 0.13115954 -0.13846873
v -0.22697097 0.10823506 -0.12422642
v -0.2616461 0.10496795 -0.022393465
v -0.2468487 0.0854944 -0.09705648
v -0.26316315 0.08806127 -0.043006882
v -0.24445343 0.13115954 0.0052171946
v -0.2604776 0.10652363 0.034098566
v -0.22721624 0.10679218 0.13606393
v -0.26129812 0.08648175 0.06154391
v -0.24366152 0.08686629 0.11524922
v -0.19776705 0.13115954 0.14890364
v -0.1931121 0.10834208 0.18111622
v -0.18034604 0.09380153 0.19869664
v -0.11942583 0.09426609 0.24269217
v -0.18514028 0.15589184 0.0052171946
v -0.14978135 0.15589184 0.11403996
v -0.057211578 0.15589184 0.18129632
v -0.14978135 0.15589184 -0.10360505
v 0.057211593 0.15589184 0.18129632
v -0.057211578 0.15589184 -0.17086089
v 0.14978133 0.15589184 0.11403996
v 0.057211593 0.15589184 -0.17086089
v 0.18513975 0.15589184 0.005217701
v 0.14978133 0.15589184 -0.10360505
v 0.0341976 0.12761378 0.110467196
v 0.08953065 0.12761378 0.07026526
v 0.11066635 0.12761432 0.005217701
v 0.08953065 0.12761378 -0.059830382
v 0.0341976 0.12761378 -0.100032285
v -0.0341976 0.12761378 -0.100032285
v -0.0341976 0.12761378 0.110467196
v -0.08953065 0.12761378 -0.059830382
v -0.08953065 0.12761378 0.07026526
v -0.110666335 0.12761378 0.005217701
v 0.064682335 0.06440055 -0.04177694
v 0.07995172 0.06440055 0.005217701
v 0.024706602 0.06440055 -0.07082093
v 0.064682335 0.06440055 0.05221185
v -0.024706602 0.06440055 -0.07082093
v 0.024706066 0.06440055 0.08125582
v -0.064682335 0.06440055 -0.04177694
v -0.024706602 0.06440055 0.08125582
v -0.07995173 0.06440055 0.005217701
v -0.064682335 0.06440055 0.05221185
v -0.0073269308 0.17026126 0.17283133
v -0.006518632 0.14804554 0.1620087
v 0.022558182 0.1345326 0.1975933
v 0.021749884 0.15674835 0.20841593
v -0.015966207 0.12280843 0.22370863
v -0.04585132 0.15853712 0.19894665
v -0.04504302 0.13632137 0.18812403
v -0.016773969 0.14502418 0.23453128
v 0.1561784 0.15961769 0.09850943
v 0.15100545 0.13594422 0.09344083
v 0.13730395 0.13160554 0.13916951
v 0.14247742 0.15527898 0.14423758
v 0.091960326 0.14151022 0.12729439
v 0.110834256 0.16952237 0.086634815
v 0.1056613 0.1458489 0.081566215
v 0.097133294 0.16518366 0.13236299
v 0.2276421 0.15811178 0.0137865245
v 0.22189337 0.13436577 0.0137865245
v 0.18381764 0.1420182 0.04227221
v 0.18956691 0.16576475 0.04227221
v 0.15600096 0.14760908 0.0032816827
v 0.1998254 0.16370267 -0.02520451
v 0.19407615 0.13995662 -0.02520451
v 0.16175021 0.1713551 0.0032816827
v 0.1391335 0.1721046 -0.08493294
v 0.14827542 0.14925852 -0.08493294
v 0.10290903 0.1341883 -0.08493294
v 0.09376711 0.15703437 -0.08493294
v 0.10290903 0.1341883 -0.13322109
v 0.1391335 0.1721046 -0.13322109
v 0.14827542 0.14925852 -0.13322109
v 0.09376711 0.15703437 -0.13322109
v 0.013941199 0.15389544 -0.21159302
v 0.014049768 0.13117278 -0.20208825
v 0.031900868 0.14579275 -0.16018867
v 0.031792283 0.16851541 -0.16969398
v -0.012966037 0.15143025 -0.14344358
v -0.030925184 0.1595324 -0.19484791
v -0.030817121 0.13681027 -0.18534261
v -0.01307407 0.17415291 -0.15294835
v -0.15863246 0.16304001 -0.08493294
v -0.14949054 0.14019448 -0.08493294
v -0.19485691 0.12512425 -0.08493294
v -0.20399883 0.14797032 -0.08493294
v -0.19485691 0.12512425 -0.13322109
v -0.15863246 0.16304001 -0.13322109
v -0.14949054 0.14019448 -0.13322109
v -0.20399883 0.14797032 -0.13322109
v -0.12313843 0.15376619 0.0137865245
v -0.12888768 0.13002017 0.0137865245
v -0.16696289 0.1376726 0.04227221
v -0.16121364 0.16141862 0.04227221
v -0.19477957 0.14326349 0.003281176
v -0.15095511 0.15935707 -0.02520451
v -0.1567044 0.13561106 -0.02520451
v -0.18903086 0.1670095 0.003281176
v -0.097974956 0.17104417 0.13819116
v -0.09390059 0.14883584 0.12811276
v -0.10745376 0.13095453 0.1700992
v -0.11152816 0.1531634 0.1801776
v -0.15321055 0.12977812 0.15472546
v -0.14373174 0.16986772 0.12281746
v -0.13965788 0.14765939 0.11273903
v -0.15728441 0.15198642 0.1648044
vt 0.97194695 0.1381203
vt 0.99002016 0.13005777
vt 0.99002016 0.1381203
vt 0.97194695 0.13005777
vt 0.99002016 0.12199524
vt 0.9537538 0.1381203
vt 0.97194695 0.12199524
vt 0.9537538 0.13005777
vt 0.9354408 0.1381203
vt 0.9537538 0.12199524
vt 0.9354408 0.13005777
vt 0.91676813 0.1381203
vt 0.9354408 0.12199524
vt 0.91676813 0.13005777
vt 0.8975409 0.1381203
vt 0.91676813 0.12199524
vt 0.8975409 0.13005777
vt 0.8975409 0.12199524
vt 0.91676813 0.1381203
vt 0.89752597 0.13005777
vt 0.89752597 0.1381203
vt 0.91676813 0.13005777
vt 0.89752597 0.12199524
vt 0.9354408 0.1381203
vt 0.91676813 0.12199524
vt 0.9354408 0.13005777
vt 0.9537538 0.1381203
vt 0.9354408 0.12199524
vt 0.9537538 0.13005777
vt 0.97194695 0.1381203
vt 0.9537538 0.12199524
vt 0.97194695 0.13005777
vt 0.99002016 0.1381203
vt 0.97194695 0.12199524
vt 0.99002016 0.13005777
vt 0.99002016 0.12199524
vt 0.47398877 0.6372923
vt 0.47599688 0.63520926
vt 0.4765214 0.63036877
vt 0.47506776 0.627956
vt 0.47240022 0.625738
vt 0.4741686 0.62272584
vt 0.4709316 0.6388209
vt 0.4717858 0.64210284
vt 0.4654167 0.64908636
vt 0.47154602 0.6449802
vt 0.46827906 0.64860684
vt 0.46205983 0.6485319
vt 0.46080098 0.65169394
vt 0.4515246 0.6535972
vt 0.45892772 0.6538819
vt 0.45416215 0.654886
vt 0.4491568 0.65118444
vt 0.44627947 0.6528479
vt 0.43758753 0.6493112
vt 0.4428027 0.6534773
vt 0.4384717 0.65125936
vt 0.4371829 0.6457445
vt 0.43358624 0.6458194
vt 0.42931518 0.63738227
vt 0.4312334 0.6458344
vt 0.42850596 0.64190805
vt 0.43058902 0.63431007
vt 0.42781657 0.6324818
vt 0.43213257 0.6211673
vt 0.42907542 0.6226809
vt 0.42504415 0.62942463
vt 0.42550874 0.62471896
vt 0.43130833 0.61787033
vt 0.4377074 0.6109018
vt 0.43154812 0.61499304
vt 0.43481508 0.61138135
vt 0.44103432 0.6114713
vt 0.44238308 0.6084141
vt 0.45159954 0.6062561
vt 0.44479585 0.60588145
vt 0.44960636 0.60511714
vt 0.45392236 0.60883373
vt 0.45684466 0.6070204
vt 0.4654317 0.61093175
vt 0.45969203 0.606376
vt 0.4641279 0.6083991
vt 0.46591124 0.61427367
vt 0.46922317 0.6146333
vt 0.4712613 0.6156224
vt 0.47445333 0.6213471
vt 0.4533379 0.613974
vt 0.46241948 0.6180951
vt 0.46733493 0.6267721
vt 0.44356698 0.6159671
vt 0.46622595 0.6366779
vt 0.43682322 0.6233253
vt 0.4594972 0.64403605
vt 0.4356693 0.6332611
vt 0.44972625 0.6460442
vt 0.44064468 0.641923
vt 0.4605912 0.63414526
vt 0.45642504 0.63867104
vt 0.45040065 0.6398999
vt 0.44479585 0.6373523
vt 0.44173867 0.6319873
vt 0.442458 0.6258729
vt 0.46129555 0.6280309
vt 0.44662413 0.6213321
vt 0.45826834 0.6226659
vt 0.45266354 0.62011826
vt 0.44845244 0.6337556
vt 0.45125484 0.6348346
vt 0.44681895 0.63125294
vt 0.45414716 0.63407034
vt 0.4469988 0.6282557
vt 0.4560504 0.63176244
vt 0.448902 0.6259329
vt 0.45621523 0.6287652
vt 0.45179436 0.62516856
vt 0.45458177 0.6262476
vt 0.50691324 0.29148802
vt 0.5024174 0.29599884
vt 0.52396744 0.29599884
vt 0.5185125 0.29148802
vt 0.52396744 0.2745987
vt 0.50691324 0.27994874
vt 0.5024174 0.2745987
vt 0.5185125 0.27994874
vt 0.50766253 0.3488548
vt 0.50247735 0.35365036
vt 0.52386254 0.35365036
vt 0.51863235 0.3488548
vt 0.52386254 0.33183062
vt 0.50766253 0.336821
vt 0.50247735 0.33183062
vt 0.51863235 0.336821
vt 0.50691324 0.29148802
vt 0.5024174 0.29599884
vt 0.52396744 0.29599884
vt 0.5185125 0.29148802
vt 0.52396744 0.2745987
vt 0.50691324 0.27994874
vt 0.5024174 0.2745987
vt 0.5185125 0.27994874
vt 0.50797725 0.31627503
vt 0.5024024 0.32080084
vt 0.52441704 0.32080084
vt 0.51942664 0.31627503
vt 0.52441704 0.30028486
vt 0.50797725 0.3049006
vt 0.5024024 0.30028486
vt 0.51942664 0.3049006
vt 0.5070931 0.37425625
vt 0.502837 0.37911177
vt 0.5226187 0.37911177
vt 0.5180929 0.37425625
vt 0.5226187 0.35726202
vt 0.5070931 0.36220744
vt 0.502837 0.35726202
vt 0.5180929 0.36220744
vt 0.50766253 0.3488548
vt 0.50247735 0.35365036
vt 0.52386254 0.35365036
vt 0.51863235 0.3488548
vt 0.52386254 0.33183062
vt 0.50766253 0.336821
vt 0.50247735 0.33183062
vt 0.51863235 0.336821
vt 0.50691324 0.29148802
vt 0.5024174 0.29599884
vt 0.52396744 0.29599884
vt 0.5185125 0.29148802
vt 0.52396744 0.2745987
vt 0.50691324 0.27994874
vt 0.5024174 0.2745987
vt 0.5185125 0.27994874
vt 0.50797725 0.31627503
vt 0.5024024 0.32080084
vt 0.52441704 0.32080084
vt 0.51942664 0.31627503
vt 0.52441704 0.30028486
vt 0.50797725 0.3049006
vt 0.5024024 0.30028486
vt 0.51942664 0.3049006
vn 0.73607004 0.41348958 -0.5359359
vn 0.9999995 0.0009775162 -0
vn 0.910068 0.41348958 -0.02833136
vn 0.80840623 0.0009775162 -0.5886242
vn 0.910068 -0.41348952 -0.02833215
vn 0.28054726 0.41348958 -0.8662099
vn 0.73607004 -0.41348952 -0.5359359
vn 0.30987275 0.0009775162 -0.95077753
vn -0.28054726 0.41348958 -0.8662099
vn 0.28054726 -0.41348952 -0.8662099
vn -0.30987275 0.0009775162 -0.95077753
vn -0.73607004 0.41348958 -0.5359359
vn -0.28054726 -0.41348952 -0.8662099
vn -0.80840623 0.0009775162 -0.5886242
vn -0.91006804 0.41348958 -0.028329255
vn -0.73607004 -0.41348952 -0.5359359
vn -0.9999995 0.0009775162 -0
vn -0.91006804 -0.41348952 -0.028330045
vn -0.73607004 0.41348958 0.5359359
vn -0.9999995 0.0009775162 -0
vn -0.91006804 0.41348958 -0.028329255
vn -0.80840623 0.0009775162 0.5886242
vn -0.91006804 -0.41348952 -0.028330045
vn -0.28054726 0.41348958 0.8662099
vn -0.73607004 -0.41348952 0.5359359
vn -0.30987275 0.0009775162 0.95077753
vn 0.28054726 0.41348958 0.8662099
vn -0.28054726 -0.41348952 0.8662099
vn 0.30987275 0.0009775162 0.95077753
vn 0.73607004 0.41348958 0.5359359
vn 0.28054726 -0.41348952 0.8662099
vn 0.80840623 0.0009775162 0.5886242
vn 0.910068 0.41348958 -0.02833136
vn 0.73607004 -0.41348952 0.5359359
vn 0.9999995 0.0009775162 -0
vn 0.910068 -0.41348952 -0.02833215
vn 0.057673454 0.62267804 0.78034985
vn -0.0009775162 0.41935468 0.90782195
vn -0.0009775162 0.41935468 0.90782195
vn -0.059628487 0.618768 0.78330755
vn -0.1925708 0.78494585 0.5888773
vn -0.41348958 0.6129029 0.67333233
vn 0.19061577 0.78494585 0.589513
vn 0.4115345 0.62267804 0.6655159
vn 0.5053761 0.62267804 0.5973835
vn 0.53274655 0.41935468 0.73506653
vn 0.53274655 0.41935468 0.73506653
vn 0.499511 0.7869009 0.36231998
vn 0.72433984 0.62267804 0.29597944
vn 0.7575754 0.6246331 0.1895073
vn 0.8631472 0.41935468 0.28128025
vn 0.8631472 0.41935468 0.28128025
vn 0.61876804 0.78494585 0.031402215
vn 0.75562036 0.62854326 -0.18431291
vn 0.73216 0.6089928 -0.30507293
vn 0.8631472 0.41935468 -0.28128025
vn 0.8631472 0.41935468 -0.28128025
vn 0.50146604 0.78494585 -0.36385685
vn 0.5288365 0.57575727 -0.6235668
vn 0.42130965 0.61681294 -0.6648609
vn 0.5483868 0.35874856 -0.7553618
vn 0.5483868 0.35874856 -0.7553618
vn 0.19061577 0.78494585 -0.589513
vn 0.049853325 0.6246331 -0.7793255
vn -0.19061577 0.7869009 -0.5869009
vn -0.05376339 0.62267804 -0.7806289
vn -0.0009775162 0.47800565 -0.8783562
vn -0.0009775162 0.47800565 -0.8783562
vn -0.41153455 0.62267804 -0.66551584
vn -0.50342107 0.6246331 -0.5969931
vn -0.53274655 0.41935468 -0.73506653
vn -0.53274655 0.41935468 -0.73506653
vn -0.499511 0.7869009 -0.36231998
vn -0.7204298 0.62854326 -0.29311144
vn -0.76735055 0.6148579 -0.18199688
vn -0.86314714 0.41935468 -0.28128037
vn -0.86314714 0.41935468 -0.28128037
vn -0.618768 0.78494585 -0.031404115
vn -0.76148546 0.620723 0.18666239
vn -0.72433984 0.62267804 0.29597944
vn -0.86314714 0.41935468 0.28128037
vn -0.86314714 0.41935468 0.28128037
vn -0.50146604 0.78494585 0.36385685
vn -0.499511 0.62854326 0.5961729
vn -0.53274655 0.41935468 0.73506653
vn -0.53274655 0.41935468 0.73506653
vn -0.08894921 0.9960362 -0
vn -0.07331371 0.99608946 0.049303714
vn -0.028347969 0.99608946 0.083679
vn -0.07331371 0.99608946 -0.049303714
vn 0.028347969 0.99608946 0.083679
vn -0.028347969 0.99608946 -0.083679
vn 0.07331377 0.99608946 0.049303714
vn 0.028347969 0.99608946 -0.083679
vn 0.08894927 0.9960362 -0
vn 0.07331377 0.99608946 -0.049303714
vn -0.19452584 0.7751707 -0.6010575
vn -0.5112412 0.7751707 -0.37113726
vn -0.6304983 0.7751707 -0.039779194
vn -0.5112412 0.7751707 0.37113726
vn -0.19452584 0.7751707 0.6010575
vn 0.19452584 0.7751707 0.6010575
vn 0.19452584 0.7751707 -0.6010575
vn 0.5112412 0.7751707 0.37113726
vn 0.5112412 0.7751707 -0.37113726
vn 0.63049823 0.7751707 -0.039779194
vn -0.7282499 0.43694997 0.5279458
vn -0.8996398 0.436633 -0
vn -0.27859223 0.43694997 0.85525495
vn -0.7282499 0.43694997 -0.5279458
vn 0.27859223 0.43694997 0.85525495
vn -0.27859223 0.43694997 -0.85525495
vn 0.7282499 0.43694997 0.5279458
vn 0.27859223 0.43694997 -0.85525495
vn 0.8996397 0.436633 -0
vn 0.7282499 0.43694997 -0.5279458
vn 0.09677416 0.85728204 -0.50567013
vn 0.13587481 0.43694997 -0.8891641
vn 0.9941344 -0.016617775 0.10686723
vn 0.79081094 0.50146604 0.35092717
vn -0.13978493 -0.43694997 0.8885578
vn -0.82795656 0.5464318 0.1260962
vn -0.98435926 0.043988228 -0.17059276
vn -0.13000977 0.20039093 0.97105145
vn 0.8201364 0.4877808 -0.29907545
vn 0.849462 -0.07331377 -0.5225318
vn 0.4565003 -0.28054726 0.8443345
vn 0.48973584 0.3607036 0.793758
vn -0.8787875 0.090909004 0.46847415
vn -0.26881707 0.7575754 -0.5948251
vn -0.45845532 0.28054726 -0.84327453
vn -0.59335256 0.62267804 0.51010275
vn 0.912023 0.39198422 0.12067476
vn 0.9608989 -0.23167145 0.151663
vn -0.16715539 0.040078163 0.98511565
vn 0.004887581 0.5894425 0.8077955
vn -0.9608989 0.23167145 -0.151663
vn 0.25122178 0.5366566 -0.8055354
vn 0.13196474 -0.032258034 -0.9907294
vn -0.66373384 0.73802507 -0.12155825
vn 0.34310836 0.73802507 0.58102983
vn 0.66959894 0.26686203 0.6931248
vn -0.6441835 -0.25708687 0.72037065
vn -0.74193513 0.34506333 0.5748596
vn -0.6441835 -0.25708687 -0.72037065
vn 0.34310836 0.73802507 -0.58102983
vn 0.66959894 0.26686203 -0.6931248
vn -0.74193513 0.34506333 -0.5748596
vn 0.31769294 0.27468216 -0.9075356
vn 0.4056694 -0.3509285 -0.84396774
vn 0.90811294 0.16520035 0.3847593
vn 0.74975526 0.6539587 0.10102025
vn -0.3841641 0.3548385 0.85235417
vn -0.74975526 0.41935468 -0.5118678
vn -0.9276633 -0.147605 -0.3430066
vn -0.32746804 0.80449617 0.4955306
vn 0.34310836 0.73802507 0.58102983
vn 0.66959894 0.26686203 0.6931248
vn -0.6441835 -0.25708687 0.72037065
vn -0.74193513 0.34506333 0.5748596
vn -0.6441835 -0.25708687 -0.72037065
vn 0.34310836 0.73802507 -0.58102983
vn 0.66959894 0.26686203 -0.6931248
vn -0.74193513 0.34506333 -0.5748596
vn 0.912023 0.39198422 0.12067476
vn 0.9608989 -0.23167145 0.151663
vn -0.16715539 0.040078163 0.98511565
vn 0.004887581 0.5894425 0.8077955
vn -0.9608989 0.23167145 -0.151663
vn 0.25122178 0.5366566 -0.8055354
vn 0.13196474 -0.032258034 -0.9907294
vn -0.66373384 0.73802507 -0.12155825
vn 0.62463313 0.7751707 -0.094572276
vn 0.85337204 0.3372432 -0.39752132
vn 0.49560094 -0.2825023 0.82132345
vn 0.29227746 0.3079177 0.9054063
vn -0.8729223 -0.32551306 0.36338395
vn -0.47800565 0.74389017 -0.4670525
vn -0.45454526 0.29814255 -0.83934474
vn -0.794721 0.27859223 0.5392633
g febg_mothership_001_doughnut_01_0
f 3/3/3 2/2/2 1/1/1
f 2/2/2 4/4/4 1/1/1
f 2/2/2 5/5/5 4/4/4
f 1/1/1 4/4/4 6/6/6
f 5/5/5 7/7/7 4/4/4
f 4/4/4 8/8/8 6/6/6
f 4/4/4 7/7/7 8/8/8
f 6/6/6 8/8/8 9/9/9
f 7/7/7 10/10/10 8/8/8
f 8/8/8 11/11/11 9/9/9
f 8/8/8 10/10/10 11/11/11
f 9/9/9 11/11/11 12/12/12
f 10/10/10 13/13/13 11/11/11
f 11/11/11 14/14/14 12/12/12
f 11/11/11 13/13/13 14/14/14
f 12/12/12 14/14/14 15/15/15
f 13/13/13 16/16/16 14/14/14
f 14/14/14 17/17/17 15/15/15
f 14/14/14 16/16/16 17/17/17
f 16/16/16 18/18/18 17/17/17
f 21/21/21 20/20/20 19/19/19
f 20/20/20 22/22/22 19/19/19
f 20/20/20 23/23/23 22/22/22
f 19/19/19 22/22/22 24/24/24
f 23/23/23 25/25/25 22/22/22
f 22/22/22 26/26/26 24/24/24
f 22/22/22 25/25/25 26/26/26
f 24/24/24 26/26/26 27/27/27
f 25/25/25 28/28/28 26/26/26
f 26/26/26 29/29/29 27/27/27
f 26/26/26 28/28/28 29/29/29
f 27/27/27 29/29/29 30/30/30
f 28/28/28 31/31/31 29/29/29
f 29/29/29 32/32/32 30/30/30
f 29/29/29 31/31/31 32/32/32
f 30/30/30 32/32/32 33/33/33
f 31/31/31 34/34/34 32/32/32
f 32/32/32 35/35/35 33/33/33
f 32/32/32 34/34/34 35/35/35
f 34/34/34 36/36/36 35/35/35
f 39/39/39 38/38/38 37/37/37
f 40/40/40 39/39/39 37/37/37
f 41/41/41 40/40/40 37/37/37
f 41/41/41 42/42/42 40/40/40
f 43/43/43 41/41/41 37/37/37
f 43/43/43 37/37/37 44/44/44
f 43/43/43 44/44/44 45/45/45
f 44/44/44 46/46/46 45/45/45
f 46/46/46 47/47/47 45/45/45
f 48/48/48 43/43/43 45/45/45
f 48/48/48 45/45/45 49/49/49
f 48/48/48 49/49/49 50/50/50
f 49/49/49 51/51/51 50/50/50
f 51/51/51 52/52/52 50/50/50
f 53/53/53 48/48/48 50/50/50
f 53/53/53 50/50/50 54/54/54
f 53/53/53 54/54/54 55/55/55
f 54/54/54 56/56/56 55/55/55
f 56/56/56 57/57/57 55/55/55
f 58/58/58 53/53/53 55/55/55
f 58/58/58 55/55/55 59/59/59
f 58/58/58 59/59/59 60/60/60
f 59/59/59 61/61/61 60/60/60
f 61/61/61 62/62/62 60/60/60
f 63/63/63 58/58/58 60/60/60
f 63/63/63 60/60/60 64/64/64
f 65/65/65 63/63/63 64/64/64
f 66/66/66 65/65/65 64/64/64
f 66/66/66 64/64/64 67/67/67
f 68/68/68 66/66/66 67/67/67
f 65/65/65 66/66/66 69/69/69
f 65/65/65 69/69/69 70/70/70
f 69/69/69 71/71/71 70/70/70
f 71/71/71 72/72/72 70/70/70
f 73/73/73 65/65/65 70/70/70
f 73/73/73 70/70/70 74/74/74
f 73/73/73 74/74/74 75/75/75
f 74/74/74 76/76/76 75/75/75
f 76/76/76 77/77/77 75/75/75
f 78/78/78 73/73/73 75/75/75
f 78/78/78 75/75/75 79/79/79
f 78/78/78 79/79/79 80/80/80
f 79/79/79 81/81/81 80/80/80
f 81/81/81 82/82/82 80/80/80
f 83/83/83 78/78/78 80/80/80
f 83/83/83 80/80/80 84/84/84
f 83/83/83 84/84/84 42/42/42
f 84/84/84 85/85/85 42/42/42
f 85/85/85 86/86/86 42/42/42
f 41/41/41 83/83/83 42/42/42
f 73/73/73 78/78/78 87/87/87
f 78/78/78 83/83/83 88/88/88
f 87/87/87 78/78/78 88/88/88
f 83/83/83 41/41/41 89/89/89
f 88/88/88 83/83/83 89/89/89
f 90/90/90 73/73/73 87/87/87
f 65/65/65 73/73/73 90/90/90
f 89/89/89 41/41/41 91/91/91
f 41/41/41 43/43/43 91/91/91
f 92/92/92 65/65/65 90/90/90
f 63/63/63 65/65/65 92/92/92
f 91/91/91 43/43/43 93/93/93
f 43/43/43 48/48/48 93/93/93
f 94/94/94 63/63/63 92/92/92
f 58/58/58 63/63/63 94/94/94
f 93/93/93 48/48/48 95/95/95
f 48/48/48 53/53/53 95/95/95
f 53/53/53 58/58/58 96/96/96
f 96/96/96 58/58/58 94/94/94
f 95/95/95 53/53/53 96/96/96
f 89/89/89 91/91/91 97/97/97
f 91/91/91 93/93/93 98/98/98
f 97/97/97 91/91/91 98/98/98
f 93/93/93 95/95/95 99/99/99
f 98/98/98 93/93/93 99/99/99
f 95/95/95 96/96/96 100/100/100
f 99/99/99 95/95/95 100/100/100
f 96/96/96 94/94/94 101/101/101
f 100/100/100 96/96/96 101/101/101
f 94/94/94 92/92/92 102/102/102
f 101/101/101 94/94/94 102/102/102
f 103/103/103 89/89/89 97/97/97
f 88/88/88 89/89/89 103/103/103
f 102/102/102 92/92/92 104/104/104
f 92/92/92 90/90/90 104/104/104
f 105/105/105 88/88/88 103/103/103
f 87/87/87 88/88/88 105/105/105
f 90/90/90 87/87/87 106/106/106
f 104/104/104 90/90/90 106/106/106
f 106/106/106 87/87/87 105/105/105
f 99/99/99 100/100/100 107/107/107
f 108/108/108 99/99/99 107/107/107
f 107/107/107 100/100/100 109/109/109
f 98/98/98 99/99/99 108/108/108
f 100/100/100 101/101/101 109/109/109
f 110/110/110 98/98/98 108/108/108
f 109/109/109 101/101/101 111/111/111
f 97/97/97 98/98/98 110/110/110
f 101/101/101 102/102/102 111/111/111
f 112/112/112 97/97/97 110/110/110
f 111/111/111 102/102/102 113/113/113
f 103/103/103 97/97/97 112/112/112
f 102/102/102 104/104/104 113/113/113
f 114/114/114 103/103/103 112/112/112
f 113/113/113 104/104/104 115/115/115
f 105/105/105 103/103/103 114/114/114
f 104/104/104 106/106/106 115/115/115
f 116/116/116 105/105/105 114/114/114
f 115/115/115 106/106/106 116/116/116
f 106/106/106 105/105/105 116/116/116
f 119/119/119 118/118/118 117/117/117
f 120/120/120 119/119/119 117/117/117
f 119/119/119 120/120/120 121/121/121
f 122/122/122 117/117/117 118/118/118
f 120/120/120 117/117/117 122/122/122
f 123/123/123 122/122/122 118/118/118
f 121/121/121 124/124/124 123/123/123
f 120/120/120 124/124/124 121/121/121
f 124/124/124 122/122/122 123/123/123
f 124/124/124 120/120/120 122/122/122
f 127/127/127 126/126/126 125/125/125
f 128/128/128 127/127/127 125/125/125
f 127/127/127 128/128/128 129/129/129
f 130/130/130 125/125/125 126/126/126
f 128/128/128 125/125/125 130/130/130
f 131/131/131 130/130/130 126/126/126
f 129/129/129 132/132/132 131/131/131
f 128/128/128 132/132/132 129/129/129
f 132/132/132 130/130/130 131/131/131
f 132/132/132 128/128/128 130/130/130
f 135/135/135 134/134/134 133/133/133
f 136/136/136 135/135/135 133/133/133
f 135/135/135 136/136/136 137/137/137
f 138/138/138 133/133/133 134/134/134
f 136/136/136 133/133/133 138/138/138
f 139/139/139 138/138/138 134/134/134
f 137/137/137 140/140/140 139/139/139
f 136/136/136 140/140/140 137/137/137
f 140/140/140 138/138/138 139/139/139
f 140/140/140 136/136/136 138/138/138
f 143/143/143 142/142/142 141/141/141
f 144/144/144 143/143/143 141/141/141
f 143/143/143 144/144/144 145/145/145
f 146/146/146 141/141/141 142/142/142
f 144/144/144 141/141/141 146/146/146
f 147/147/147 146/146/146 142/142/142
f 145/145/145 148/148/148 147/147/147
f 144/144/144 148/148/148 145/145/145
f 148/148/148 146/146/146 147/147/147
f 148/148/148 144/144/144 146/146/146
f 151/151/151 150/150/150 149/149/149
f 152/152/152 151/151/151 149/149/149
f 151/151/151 152/152/152 153/153/153
f 154/154/154 149/149/149 150/150/150
f 152/152/152 149/149/149 154/154/154
f 155/155/155 154/154/154 150/150/150
f 153/153/153 156/156/156 155/155/155
f 152/152/152 156/156/156 153/153/153
f 156/156/156 154/154/154 155/155/155
f 156/156/156 152/152/152 154/154/154
f 159/159/159 158/158/158 157/157/157
f 160/160/160 159/159/159 157/157/157
f 159/159/159 160/160/160 161/161/161
f 162/162/162 157/157/157 158/158/158
f 160/160/160 157/157/157 162/162/162
f 163/163/163 162/162/162 158/158/158
f 161/161/161 164/164/164 163/163/163
f 160/160/160 164/164/164 161/161/161
f 164/164/164 162/162/162 163/163/163
f 164/164/164 160/160/160 162/162/162
f 167/167/167 166/166/166 165/165/165
f 168/168/168 167/167/167 165/165/165
f 167/167/167 168/168/168 169/169/169
f 170/170/170 165/165/165 166/166/166
f 168/168/168 165/165/165 170/170/170
f 171/171/171 170/170/170 166/166/166
f 169/169/169 172/172/172 171/171/171
f 168/168/168 172/172/172 169/169/169
f 172/172/172 170/170/170 171/171/171
f 172/172/172 168/168/168 170/170/170
f 175/175/175 174/174/174 173/173/173
f 176/176/176 175/175/175 173/173/173
f 175/175/175 176/176/176 177/177/177
f 178/178/178 173/173/173 174/174/174
f 176/176/176 173/173/173 178/178/178
f 179/179/179 178/178/178 174/174/174
f 177/177/177 180/180/180 179/179/179
f 176/176/176 180/180/180 177/177/177
f 180/180/180 178/178/178 179/179/179
f 180/180/180 176/176/176 178/178/178
