g febg_shop_001_chair_02
v -0.44214165 0.0003246069 -0.4195531
v -0.21837246 0.37957555 -0.28189006
v -0.3714714 0.0003246069 -0.4195531
v -0.33966345 0.37957555 -0.28189006
v -0.44214165 0.0003246069 -0.49021754
v -0.33966345 0.37957555 -0.40319642
v -0.3714714 0.0003246069 -0.49021754
v -0.21837246 0.37957555 -0.40319642
v -0.3714714 0.0003246069 -0.4195531
v -0.21837246 0.37957555 -0.28189006
v -0.21837246 0.37957555 -0.40319642
v -0.3714714 0.0003246069 -0.49021754
v -0.44214165 0.0003246069 0.2957695
v -0.21837246 0.37957555 0.2087465
v -0.3714714 0.0003246069 0.2957695
v -0.33966345 0.37957555 0.2087465
v -0.44214165 0.0003246069 0.22510314
v -0.33966345 0.37957555 0.08744204
v -0.3714714 0.0003246069 0.22510314
v -0.21837246 0.37957555 0.08744204
v -0.3714714 0.0003246069 0.2957695
v -0.21837246 0.37957555 0.2087465
v -0.21837246 0.37957555 0.08744204
v -0.3714714 0.0003246069 0.22510314
v 0.37148863 0.0003246069 0.2957695
v 0.33968067 0.37957555 0.2087465
v 0.4421473 0.0003246069 0.2957695
v 0.21837819 0.37957555 0.2087465
v 0.37148863 0.0003246069 0.22510314
v 0.21837819 0.37957555 0.08744204
v 0.4421473 0.0003246069 0.2957695
v 0.33968067 0.37957555 0.2087465
v 0.33968067 0.37957555 0.08744204
v 0.4421473 0.0003246069 0.22510314
v 0.4421473 0.0003246069 0.22510314
v 0.33968067 0.37957555 0.08744204
v 0.21837819 0.37957555 0.08744204
v 0.37148863 0.0003246069 0.22510314
v 0.37148863 0.0003246069 -0.4195531
v 0.21837819 0.37957555 -0.28189006
v 0.33968067 0.37957555 -0.28189006
v 0.4421473 0.0003246069 -0.4195531
v 0.4421473 0.0003246069 -0.4195531
v 0.33968067 0.37957555 -0.28189006
v 0.33968067 0.37957555 -0.40319642
v 0.4421473 0.0003246069 -0.49021754
v 0.4421473 0.0003246069 -0.49021754
v 0.33968067 0.37957555 -0.40319642
v 0.21837819 0.37957555 -0.40319642
v 0.37148863 0.0003246069 -0.49021754
v 0.21837819 0.37957555 -0.28189006
v 0.37148863 0.0003246069 -0.4195531
v -0.48774803 0.334732 0.18423945
v -0.29568863 0.5995132 0.2509972
v -0.35024685 0.334732 0.12860441
v -0.41907352 0.6377821 0.3185082
v -0.2360506 0.7436719 0.27221793
v -0.3209104 0.7413448 0.3805079
v -0.1672278 0.81439984 0.2958119
v -0.42166257 1.3096116 0.31379253
v -0.22737241 0.8105973 0.43862987
v 8.940697E-07 0.84339726 0.3190341
v -0.23577517 1.4069387 0.43650508
v 8.940697E-07 0.8392787 0.48006964
v 8.940697E-07 1.443649 0.48006964
v 0.22737232 0.8105973 0.43862987
v 0.16722772 0.81439984 0.2958119
v 0.32091027 0.7413448 0.3805079
v 0.23605248 0.7436719 0.27221793
v 0.23577508 1.4069387 0.43650508
v 0.41907346 0.6377821 0.3185082
v 0.29568854 0.5995132 0.2509972
v 0.42166245 1.3096116 0.31379253
v 0.48774797 0.334732 0.18423945
v 0.35024673 0.334732 0.12860441
v -0.22538054 1.4238886 0.41943955
v 8.940697E-07 1.459372 0.46053064
v 0.22538048 1.4238886 0.41943955
v -0.40906417 1.3291718 0.2975225
v 8.940697E-07 1.4447567 0.39376122
v 0.550522 1.0448612 0.13684338
v 0.4090641 1.3291718 0.2975225
v 0.5029893 0.334732 -0.059371173
v 0.35024673 0.334732 0.12860441
v 0.3615679 0.334732 -0.1380319
v 0.37445715 0.334732 -0.32177523
v 0.5032609 0.334732 -0.32001263
v 0.5605545 0.7635075 -0.06571272
v 0.5322833 1.0661454 0.12679362
v 0.3513178 1.3281604 0.23704654
v 0.1921008 1.4132898 0.3552881
v 0.54480463 0.6477684 -0.28041062
v 0.54106367 0.78851926 -0.0711354
v 0.42427266 0.6944015 -0.28967062
v 0.37445715 0.334732 -0.32177523
v 0.3615679 0.334732 -0.1380319
v 0.45353207 1.0715296 0.08588749
v 0.5284653 0.6841186 -0.26206788
v 0.42962217 0.7954676 -0.0970121
v 0.35024673 0.334732 0.12860441
v 0.453455 0.81014836 -0.09310353
v 0.4482442 0.7161057 -0.27155134
v 0.43222272 1.0529442 0.07638866
v 0.29568854 0.5995132 0.2509972
v 0.33467603 1.3080492 0.22185725
v 0.23605248 0.7436719 0.27221793
v 0.183359 1.3905704 0.33459908
v 0.16722772 0.81439984 0.2958119
v 8.940697E-07 0.84339726 0.3190341
v 8.940697E-07 1.4206909 0.3713327
v -0.18335909 1.3905704 0.33459908
v -0.1672278 0.81439984 0.2958119
v -0.2360506 0.7436719 0.27221793
v -0.19210088 1.4132898 0.3552881
v -0.3346761 1.3080492 0.22185725
v -0.29568863 0.5995132 0.2509972
v -0.35131788 1.3281604 0.23704654
v -0.43222278 1.0529442 0.07638866
v -0.35024685 0.334732 0.12860441
v -0.5322834 1.0661454 0.12679362
v -0.42962223 0.7954676 -0.0970121
v -0.36156797 0.334732 -0.1380319
v -0.4535321 1.0715296 0.08588749
v -0.5505221 1.0448612 0.13684338
v -0.42427278 0.6944015 -0.28967062
v -0.37445724 0.334732 -0.32177523
v -0.50326097 0.334732 -0.32001263
v -0.5410638 0.78851926 -0.0711354
v -0.4534551 0.81014836 -0.09310353
v -0.5029893 0.334732 -0.059371173
v -0.35024685 0.334732 0.12860441
v -0.36156797 0.334732 -0.1380319
v -0.37445724 0.334732 -0.32177523
v -0.5605546 0.7635075 -0.06571272
v -0.5448047 0.6477684 -0.28041062
v -0.5284654 0.6841186 -0.26206788
v -0.44824433 0.7161057 -0.27155134
v 0.35224244 0.36080903 -0.46327555
v -0.3560105 0.6128975 -0.47202313
v -0.35224253 0.36080903 -0.46327555
v 0.35601038 0.6128975 -0.47202122
v 0.4098366 0.36080903 -0.4056795
v -0.41360462 0.6128975 -0.41442707
v -0.40983665 0.36080903 -0.4056795
v 0.41360453 0.6128975 -0.41442707
v 0.3658213 0.36080712 0.20317549
v -0.369179 0.6128975 0.2119211
v -0.36582142 0.36080712 0.20317549
v 0.36917895 0.6128975 0.2119211
v 0.31440693 0.36080712 0.2607696
v -0.31777233 0.6128975 0.26951718
v -0.314407 0.36080712 0.2607696
v 0.31777227 0.6128975 0.26951718
v -0.31089717 0.6343821 -0.42503357
v -0.36119044 0.6343821 -0.3747384
v -0.32239562 0.6343821 0.17223245
v -0.27750385 0.6343802 0.22252762
v 0.31088942 0.6343821 -0.42503357
v 0.27749607 0.6343802 0.22252762
v 0.3223878 0.6343821 0.17223245
v 0.36118263 0.6343821 -0.3747384
vt 0.35349315 0.051536508
vt 0.35891497 0.108359724
vt 0.35891497 0.051536508
vt 0.35349315 0.108359724
vt 0.3476321 0.051536508
vt 0.3476321 0.108359724
vt 0.34172565 0.051536508
vt 0.34172565 0.108359724
vt 0.35349315 0.051536508
vt 0.35349315 0.108359724
vt 0.3476321 0.108359724
vt 0.3476321 0.051536508
vt 0.35349315 0.051536508
vt 0.35891497 0.108359724
vt 0.35891497 0.051536508
vt 0.35349315 0.108359724
vt 0.3476321 0.051536508
vt 0.3476321 0.108359724
vt 0.34172565 0.051536508
vt 0.34172565 0.108359724
vt 0.35349315 0.051536508
vt 0.35349315 0.108359724
vt 0.3476321 0.108359724
vt 0.3476321 0.051536508
vt 0.35349315 0.051536508
vt 0.35891497 0.108359724
vt 0.35891497 0.051536508
vt 0.35349315 0.108359724
vt 0.3476321 0.051536508
vt 0.3476321 0.108359724
vt 0.35349315 0.051536508
vt 0.35349315 0.108359724
vt 0.3476321 0.108359724
vt 0.3476321 0.051536508
vt 0.34172565 0.051536508
vt 0.34172565 0.108359724
vt 0.3476321 0.108359724
vt 0.3476321 0.051536508
vt 0.35349315 0.051536508
vt 0.35349315 0.108359724
vt 0.35891497 0.108359724
vt 0.35891497 0.051536508
vt 0.35349315 0.051536508
vt 0.35349315 0.108359724
vt 0.3476321 0.108359724
vt 0.3476321 0.051536508
vt 0.34172565 0.051536508
vt 0.34172565 0.108359724
vt 0.3476321 0.108359724
vt 0.3476321 0.051536508
vt 0.35349315 0.108359724
vt 0.35349315 0.051536508
vt 0.07167907 0.32467264
vt 0.0606991 0.33939335
vt 0.0746323 0.33207843
vt 0.055898204 0.33388066
vt 0.054535177 0.34548154
vt 0.049855437 0.34034747
vt 0.051430494 0.350131
vt 0.023170337 0.3330174
vt 0.044691067 0.34572387
vt 0.048568133 0.35856664
vt 0.014658971 0.3407564
vt 0.04035966 0.35718846
vt 0.008404177 0.35070652
vt 0.044691067 0.34572387
vt 0.051430494 0.350131
vt 0.049855437 0.34034747
vt 0.054535177 0.34548154
vt 0.014658971 0.3407564
vt 0.055898204 0.33388066
vt 0.0606991 0.33939335
vt 0.023170337 0.3330174
vt 0.07167907 0.32467264
vt 0.0746323 0.33207843
vt 0.013735139 0.34034747
vt 0.0052994965 0.34788957
vt 0.013735139 0.34034747
vt 0.021777015 0.33247218
vt 0.0030126346 0.3422557
vt 0.03540732 0.32268867
vt 0.021777015 0.33247218
vt 0.06934677 0.3151617
vt 0.078812264 0.32100758
vt 0.07720692 0.31346548
vt 0.07919088 0.30357593
vt 0.07373876 0.2995777
vt 0.049370807 0.31235993
vt 0.03427146 0.3222646
vt 0.020217106 0.3302762
vt 0.011842041 0.33736396
vt 0.057034064 0.30333364
vt 0.047068797 0.31189042
vt 0.050945863 0.30000177
vt 0.062758796 0.28637147
vt 0.04831067 0.28013182
vt 0.031530254 0.3189176
vt 0.054247424 0.30404544
vt 0.042071022 0.3057265
vt 0.03240865 0.28013182
vt 0.043100867 0.30784678
vt 0.05090043 0.301804
vt 0.031363662 0.31747887
vt 0.02121666 0.29339865
vt 0.019823339 0.32892832
vt 0.015779685 0.30141026
vt 0.011826896 0.33545572
vt 0.011417988 0.3058931
vt 0.0025280016 0.30781648
vt 0.0025280016 0.33854523
vt 0.011826896 0.33545572
vt 0.011417988 0.3058931
vt 0.015779685 0.30141026
vt 0.011842041 0.33736396
vt 0.019823339 0.32892832
vt 0.02121666 0.29339865
vt 0.020217106 0.3302762
vt 0.031363662 0.31747887
vt 0.03240865 0.28013182
vt 0.03427146 0.3222646
vt 0.042071022 0.3057265
vt 0.04831067 0.28013182
vt 0.031530254 0.3189176
vt 0.03540732 0.32268867
vt 0.050945863 0.30000177
vt 0.062758796 0.28637147
vt 0.07373876 0.2995777
vt 0.047068797 0.31189042
vt 0.043100867 0.30784678
vt 0.06934677 0.3151617
vt 0.078812264 0.32100758
vt 0.07720692 0.31346548
vt 0.07919088 0.30357593
vt 0.049370807 0.31235993
vt 0.057034064 0.30333364
vt 0.054247424 0.30409086
vt 0.05090043 0.30184945
vt 0.018490601 0.197199
vt 0.07442027 0.21125336
vt 0.08049333 0.197199
vt 0.024563655 0.21125336
vt 0.007904398 0.20905736
vt 0.075904466 0.21410057
vt 0.09107953 0.20905736
vt 0.02307947 0.21410057
vt 0.010766762 0.26397234
vt 0.073087536 0.25753582
vt 0.08821717 0.26397234
vt 0.025896396 0.25753582
vt 0.021474123 0.274816
vt 0.071724504 0.2603679
vt 0.07750981 0.274816
vt 0.027259428 0.2603679
vt 0.07139132 0.21238922
vt 0.07305724 0.21597853
vt 0.07031604 0.25561243
vt 0.06895301 0.25915632
vt 0.02759261 0.21238922
vt 0.030030921 0.25915632
vt 0.028667893 0.25561243
vt 0.02594183 0.21597853
vn -0.827913 0.02058649 0.5604787
vn 0.6264199 -0.4775512 0.61607057
vn 0.61115134 -0.47564262 0.6326596
vn -0.5664385 -0.14164227 0.8118405
vn -0.67331856 0.33359247 -0.6598168
vn -0.65614146 0.33359247 -0.6769006
vn 0.55389416 -0.032853603 -0.8319386
vn 0.8020087 -0.19317377 -0.5652132
vn 0.61115134 -0.47564262 0.6326596
vn 0.6264199 -0.4775512 0.61607057
vn 0.8020087 -0.19317377 -0.5652132
vn 0.55389416 -0.032853603 -0.8319386
vn -0.67331856 0.33359247 0.6598168
vn 0.8020087 -0.19317377 0.5652132
vn 0.55389416 -0.032853603 0.8319386
vn -0.65614146 0.33359247 0.6769006
vn -0.827913 0.02058649 -0.5604787
vn -0.5664385 -0.14164227 -0.8118405
vn 0.61115134 -0.47564262 -0.6326596
vn 0.6264199 -0.4775512 -0.61607057
vn 0.55389416 -0.032853603 0.8319386
vn 0.8020087 -0.19317377 0.5652132
vn 0.6264199 -0.4775512 -0.61607057
vn 0.61115134 -0.47564262 -0.6326596
vn -0.5530785 -0.032853603 0.83248115
vn 0.65695715 0.33359247 0.676109
vn 0.67413425 0.33359247 0.65898335
vn -0.80119306 -0.19317377 0.56636876
vn -0.61033565 -0.47564262 -0.6334465
vn -0.6275129 -0.4775512 -0.61495733
vn 0.67413425 0.33359247 0.65898335
vn 0.65695715 0.33359247 0.676109
vn 0.5653456 -0.14164227 -0.8126019
vn 0.82872874 0.02058649 -0.55927175
vn 0.82872874 0.02058649 -0.55927175
vn 0.5653456 -0.14164227 -0.8126019
vn -0.6275129 -0.4775512 -0.61495733
vn -0.61033565 -0.47564262 -0.6334465
vn -0.61033565 -0.47564262 0.6334465
vn -0.6275129 -0.4775512 0.61495733
vn 0.5653456 -0.14164227 0.8126019
vn 0.82872874 0.02058649 0.55927175
vn 0.82872874 0.02058649 0.55927175
vn 0.5653456 -0.14164227 0.8126019
vn 0.65695715 0.33359247 -0.676109
vn 0.67413425 0.33359247 -0.65898335
vn 0.67413425 0.33359247 -0.65898335
vn 0.65695715 0.33359247 -0.676109
vn -0.80119306 -0.19317377 -0.56636876
vn -0.5530785 -0.032853603 -0.83248115
vn -0.6275129 -0.4775512 0.61495733
vn -0.61033565 -0.47564262 0.6334465
vn -0.4671927 -0.67604285 0.56982195
vn 0.9050717 -0.38593966 0.17859408
vn 0.69512856 -0.67604285 0.24446341
vn -0.32786685 -0.29241955 0.89832854
vn 0.72566575 -0.53671694 -0.43051615
vn -0.035855114 -0.42601973 0.9040031
vn 0.4107511 -0.59015703 -0.69498074
vn -0.8202787 0.38130683 0.42631906
vn -0.09120363 -0.5596199 0.8237156
vn 0.00040781498 -0.6684085 -0.74379426
vn -0.45192403 0.4252041 0.78419775
vn 0.00040781498 -0.6359628 0.7717196
vn 0.00040781498 0.44428974 0.8958831
vn 0.09011078 -0.5596199 0.8238359
vn -0.4099354 -0.59015703 -0.69546217
vn 0.036670744 -0.42601973 0.90397036
vn -0.72675866 -0.53671694 -0.4286686
vn 0.45083117 0.4252041 0.7848266
vn 0.32868248 -0.29241955 0.8980304
vn -0.9042559 -0.38593966 0.18267943
vn 0.81918585 0.38130683 0.4284153
vn 0.46800834 -0.67604285 0.56915224
vn -0.69622153 -0.67604285 0.2413331
vn -0.33550113 0.92525023 0.17706221
vn 0.00040781498 0.9653303 0.2610311
vn 0.33440816 0.92525023 0.17911787
vn -0.6084271 0.7782901 -0.15518032
vn 0.00040781498 0.88898736 -0.45793155
vn 0.97170115 0.23621376 -0
vn 0.6073342 0.7782901 -0.1594042
vn 0.6703171 -0.7409344 0.04112447
vn -0.69622153 -0.67604285 0.2413331
vn -0.7534787 -0.6550485 -0.056402825
vn -0.57216424 -0.5252656 -0.6298604
vn 0.55007696 -0.57488847 -0.60573804
vn 0.9756889 0.16372949 -0.14568412
vn 0.6665 0.5492613 -0.50407326
vn 0.18935663 0.7496615 -0.6341543
vn 0.078659356 0.87562734 -0.47653905
vn 0.73330003 0.16945523 -0.6584497
vn 0.5977913 0.5797985 -0.5536057
vn -0.5454442 0.42902118 -0.72002184
vn -0.57216424 -0.5252656 -0.6298604
vn -0.7534787 -0.6550485 -0.056402825
vn 0.23516238 0.5664385 -0.78983927
vn 0.51953983 0.6256042 -0.5819774
vn -0.8145531 0.4671927 -0.34385207
vn -0.69622153 -0.67604285 0.2413331
vn 0.05766505 0.7191244 -0.69248456
vn 0.01758498 0.78019875 -0.6252845
vn -0.53971845 0.36603826 -0.7581029
vn -0.9042559 -0.38593966 0.18267943
vn -0.3183239 0.39084977 -0.8636587
vn -0.72675866 -0.53671694 -0.4286686
vn -0.21144384 0.4423812 -0.87154484
vn -0.4099354 -0.59015703 -0.69546217
vn 0.00040781498 -0.6684085 -0.74379426
vn 0.00040781498 0.4461984 -0.89493394
vn 0.21225947 0.4423812 -0.87134653
vn 0.4107511 -0.59015703 -0.69498074
vn 0.72566575 -0.53671694 -0.43051615
vn -0.07975227 0.87562734 -0.4763574
vn 0.3191396 0.39084977 -0.8633576
vn 0.9050717 -0.38593966 0.17859408
vn -0.19044954 0.7496615 -0.633827
vn 0.53862554 0.36603826 -0.7588797
vn 0.69512856 -0.67604285 0.24446341
vn -0.6656843 0.5492613 -0.50514996
vn 0.8134601 0.4671927 -0.34642982
vn 0.75429434 -0.6550485 -0.044175964
vn -0.23434669 0.5664385 -0.7900817
vn -0.97105604 0.23625523 0.035123173
vn 0.5443513 0.42902118 -0.7208485
vn 0.57107127 -0.5252656 -0.63085157
vn -0.55116993 -0.57488847 -0.6047437
vn -0.5988843 0.5797985 -0.5524231
vn -0.05684942 0.7191244 -0.692552
vn -0.67141 -0.7409344 0.01499429
vn 0.69512856 -0.67604285 0.24446341
vn 0.75429434 -0.6550485 -0.044175964
vn 0.57107127 -0.5252656 -0.63085157
vn -0.97487324 0.16372949 -0.1510458
vn -0.7324844 0.16945523 -0.6593569
vn -0.5206327 0.6256042 -0.581
vn -0.01867789 0.78019875 -0.6252528
vn 0.38212252 -0.038579285 -0.923306
vn -0.34122676 0.5053641 -0.7925727
vn -0.3832155 -0.038579285 -0.92285293
vn 0.3420425 0.5053641 -0.79222095
vn 0.939426 -0.027127862 -0.34167656
vn -0.80119306 0.5091813 -0.31436294
vn -0.93861026 -0.027127862 -0.34391114
vn 0.8020087 0.5091813 -0.31227624
vn 0.92224884 -0.025219321 0.38577336
vn -0.7859244 0.51490694 0.34233564
vn -0.9233417 -0.025219321 0.38315025
vn 0.7848315 0.51490694 0.34483373
vn 0.40884256 -0.036670744 0.91186786
vn -0.36222106 0.49963838 0.78686553
vn -0.40802687 -0.036670744 0.9122332
vn 0.3630368 0.49963838 0.78648955
vn -0.05684942 0.97487324 -0.21538407
vn -0.20762664 0.9767818 -0.052806664
vn -0.2057181 0.9767818 0.05981146
vn -0.06830078 0.97487324 0.21203104
vn 0.05766505 0.97487324 -0.21516714
vn 0.06911647 0.97487324 0.21176663
vn 0.20462519 0.9767818 0.06344979
vn 0.20844233 0.9767818 -0.049488936
g febg_shop_001_chair_02_0
f 3/3/3 2/2/2 1/1/1
f 2/2/2 4/4/4 1/1/1
f 1/1/1 4/4/4 5/5/5
f 4/4/4 6/6/6 5/5/5
f 5/5/5 6/6/6 7/7/7
f 6/6/6 8/8/8 7/7/7
f 11/11/11 10/10/10 9/9/9
f 12/12/12 11/11/11 9/9/9
f 15/15/15 14/14/14 13/13/13
f 14/14/14 16/16/16 13/13/13
f 13/13/13 16/16/16 17/17/17
f 16/16/16 18/18/18 17/17/17
f 17/17/17 18/18/18 19/19/19
f 18/18/18 20/20/20 19/19/19
f 23/23/23 22/22/22 21/21/21
f 24/24/24 23/23/23 21/21/21
f 27/27/27 26/26/26 25/25/25
f 26/26/26 28/28/28 25/25/25
f 25/25/25 28/28/28 29/29/29
f 28/28/28 30/30/30 29/29/29
f 33/33/33 32/32/32 31/31/31
f 34/34/34 33/33/33 31/31/31
f 37/37/37 36/36/36 35/35/35
f 38/38/38 37/37/37 35/35/35
f 41/41/41 40/40/40 39/39/39
f 42/42/42 41/41/41 39/39/39
f 45/45/45 44/44/44 43/43/43
f 46/46/46 45/45/45 43/43/43
f 49/49/49 48/48/48 47/47/47
f 50/50/50 49/49/49 47/47/47
f 51/51/51 49/49/49 50/50/50
f 52/52/52 51/51/51 50/50/50
f 55/55/55 54/54/54 53/53/53
f 54/54/54 56/56/56 53/53/53
f 54/54/54 57/57/57 56/56/56
f 57/57/57 58/58/58 56/56/56
f 57/57/57 59/59/59 58/58/58
f 56/56/56 60/60/60 53/53/53
f 58/58/58 60/60/60 56/56/56
f 59/59/59 61/61/61 58/58/58
f 59/59/59 62/62/62 61/61/61
f 58/58/58 63/63/63 60/60/60
f 58/58/58 61/61/61 63/63/63
f 62/62/62 64/64/64 61/61/61
f 64/64/64 65/65/65 61/61/61
f 65/65/65 63/63/63 61/61/61
f 64/64/64 62/62/62 66/66/66
f 65/65/65 64/64/64 66/66/66
f 62/62/62 67/67/67 66/66/66
f 66/66/66 67/67/67 68/68/68
f 67/67/67 69/69/69 68/68/68
f 70/70/70 65/65/65 66/66/66
f 66/66/66 68/68/68 70/70/70
f 68/68/68 69/69/69 71/71/71
f 69/69/69 72/72/72 71/71/71
f 73/73/73 68/68/68 71/71/71
f 70/70/70 68/68/68 73/73/73
f 71/71/71 72/72/72 74/74/74
f 73/73/73 71/71/71 74/74/74
f 72/72/72 75/75/75 74/74/74
f 76/76/76 63/63/63 65/65/65
f 77/77/77 65/65/65 70/70/70
f 77/77/77 76/76/76 65/65/65
f 78/78/78 77/77/77 70/70/70
f 78/78/78 70/70/70 73/73/73
f 76/76/76 79/79/79 63/63/63
f 79/79/79 60/60/60 63/63/63
f 80/80/80 77/77/77 78/78/78
f 77/77/77 80/80/80 76/76/76
f 81/81/81 73/73/73 74/74/74
f 82/82/82 78/78/78 73/73/73
f 82/82/82 73/73/73 81/81/81
f 81/81/81 74/74/74 83/83/83
f 74/74/74 84/84/84 83/83/83
f 84/84/84 85/85/85 83/83/83
f 85/85/85 86/86/86 83/83/83
f 86/86/86 87/87/87 83/83/83
f 88/88/88 81/81/81 83/83/83
f 88/88/88 83/83/83 87/87/87
f 89/89/89 82/82/82 81/81/81
f 89/89/89 81/81/81 88/88/88
f 78/78/78 82/82/82 90/90/90
f 90/90/90 82/82/82 89/89/89
f 91/91/91 80/80/80 78/78/78
f 91/91/91 78/78/78 90/90/90
f 92/92/92 88/88/88 87/87/87
f 93/93/93 89/89/89 88/88/88
f 93/93/93 88/88/88 92/92/92
f 94/94/94 92/92/92 87/87/87
f 95/95/95 94/94/94 87/87/87
f 96/96/96 94/94/94 95/95/95
f 97/97/97 90/90/90 89/89/89
f 97/97/97 89/89/89 93/93/93
f 98/98/98 93/93/93 92/92/92
f 98/98/98 92/92/92 94/94/94
f 96/96/96 99/99/99 94/94/94
f 96/96/96 100/100/100 99/99/99
f 101/101/101 93/93/93 98/98/98
f 101/101/101 97/97/97 93/93/93
f 102/102/102 98/98/98 94/94/94
f 94/94/94 99/99/99 102/102/102
f 102/102/102 101/101/101 98/98/98
f 99/99/99 101/101/101 102/102/102
f 100/100/100 103/103/103 99/99/99
f 99/99/99 103/103/103 101/101/101
f 103/103/103 97/97/97 101/101/101
f 100/100/100 104/104/104 103/103/103
f 103/103/103 105/105/105 97/97/97
f 104/104/104 105/105/105 103/103/103
f 105/105/105 90/90/90 97/97/97
f 104/104/104 106/106/106 105/105/105
f 105/105/105 107/107/107 90/90/90
f 106/106/106 107/107/107 105/105/105
f 108/108/108 107/107/107 106/106/106
f 107/107/107 91/91/91 90/90/90
f 108/108/108 109/109/109 107/107/107
f 107/107/107 110/110/110 91/91/91
f 109/109/109 110/110/110 107/107/107
f 110/110/110 80/80/80 91/91/91
f 110/110/110 109/109/109 111/111/111
f 110/110/110 111/111/111 80/80/80
f 109/109/109 112/112/112 111/111/111
f 111/111/111 112/112/112 113/113/113
f 111/111/111 114/114/114 80/80/80
f 80/80/80 114/114/114 76/76/76
f 111/111/111 113/113/113 115/115/115
f 111/111/111 115/115/115 114/114/114
f 113/113/113 116/116/116 115/115/115
f 114/114/114 117/117/117 76/76/76
f 115/115/115 117/117/117 114/114/114
f 117/117/117 79/79/79 76/76/76
f 115/115/115 116/116/116 118/118/118
f 115/115/115 118/118/118 117/117/117
f 116/116/116 119/119/119 118/118/118
f 79/79/79 117/117/117 120/120/120
f 79/79/79 120/120/120 60/60/60
f 118/118/118 119/119/119 121/121/121
f 119/119/119 122/122/122 121/121/121
f 118/118/118 123/123/123 117/117/117
f 117/117/117 123/123/123 120/120/120
f 118/118/118 121/121/121 123/123/123
f 120/120/120 124/124/124 60/60/60
f 60/60/60 124/124/124 53/53/53
f 121/121/121 122/122/122 125/125/125
f 125/125/125 122/122/122 126/126/126
f 125/125/125 126/126/126 127/127/127
f 120/120/120 123/123/123 128/128/128
f 120/120/120 128/128/128 124/124/124
f 121/121/121 129/129/129 123/123/123
f 121/121/121 125/125/125 129/129/129
f 123/123/123 129/129/129 128/128/128
f 53/53/53 124/124/124 130/130/130
f 131/131/131 53/53/53 130/130/130
f 132/132/132 131/131/131 130/130/130
f 133/133/133 132/132/132 130/130/130
f 127/127/127 133/133/133 130/130/130
f 124/124/124 134/134/134 130/130/130
f 128/128/128 134/134/134 124/124/124
f 130/130/130 134/134/134 127/127/127
f 135/135/135 125/125/125 127/127/127
f 134/134/134 135/135/135 127/127/127
f 128/128/128 136/136/136 134/134/134
f 128/128/128 129/129/129 136/136/136
f 136/136/136 135/135/135 134/134/134
f 137/137/137 125/125/125 135/135/135
f 125/125/125 137/137/137 129/129/129
f 129/129/129 137/137/137 136/136/136
f 136/136/136 137/137/137 135/135/135
f 140/140/140 139/139/139 138/138/138
f 139/139/139 141/141/141 138/138/138
f 138/138/138 141/141/141 142/142/142
f 143/143/143 139/139/139 140/140/140
f 144/144/144 143/143/143 140/140/140
f 141/141/141 145/145/145 142/142/142
f 142/142/142 145/145/145 146/146/146
f 147/147/147 143/143/143 144/144/144
f 148/148/148 147/147/147 144/144/144
f 145/145/145 149/149/149 146/146/146
f 146/146/146 149/149/149 150/150/150
f 147/147/147 148/148/148 151/151/151
f 148/148/148 152/152/152 151/151/151
f 150/150/150 153/153/153 152/152/152
f 149/149/149 153/153/153 150/150/150
f 153/153/153 151/151/151 152/152/152
f 139/139/139 154/154/154 141/141/141
f 143/143/143 155/155/155 139/139/139
f 155/155/155 154/154/154 139/139/139
f 156/156/156 155/155/155 143/143/143
f 147/147/147 156/156/156 143/143/143
f 155/155/155 156/156/156 154/154/154
f 157/157/157 156/156/156 147/147/147
f 151/151/151 157/157/157 147/147/147
f 156/156/156 157/157/157 154/154/154
f 154/154/154 158/158/158 141/141/141
f 158/158/158 154/154/154 157/157/157
f 141/141/141 158/158/158 145/145/145
f 159/159/159 157/157/157 151/151/151
f 153/153/153 159/159/159 151/151/151
f 159/159/159 158/158/158 157/157/157
f 160/160/160 159/159/159 153/153/153
f 149/149/149 160/160/160 153/153/153
f 158/158/158 159/159/159 160/160/160
f 145/145/145 161/161/161 149/149/149
f 161/161/161 160/160/160 149/149/149
f 158/158/158 161/161/161 145/145/145
f 161/161/161 158/158/158 160/160/160
