g febg_coinrush_001_jewel_03
v 0.019721031 0.032714963 0.15641585
v 0.037789285 1.1920929E-07 0.12830123
v 0.021605626 1.1920929E-07 0.16557083
v 0.02964893 0.032714963 0.12525511
v 0.11115473 0.032714963 -0.044135958
v 0.13839152 1.1920929E-07 -0.05063434
v 0.13767415 1.1920929E-07 -0.11763955
v 0.11043735 0.032714963 -0.115883045
v 0.09175664 1.1920929E-07 -0.18257307
v 0.07818414 0.032714963 -0.04374689
v 0.0716932 0.032714963 -0.16539007
v 0.07617365 0.032714963 -0.102043
v -1.1920929E-07 0.032714963 -0.20477116
v -1.1920929E-07 1.1920929E-07 -0.22919527
v -0.09175688 1.1920929E-07 -0.18257307
v -1.1920929E-07 0.032714963 -0.17322004
v -0.07169342 0.032714963 -0.16539007
v -0.11043757 0.032714963 -0.115883045
v -0.13767436 1.1920929E-07 -0.11763955
v -0.07617387 0.032714963 -0.102043
v -1.1920929E-07 0.053466916 -0.1063722
v -0.11115453 0.032714963 -0.044135958
v -0.13839176 1.1920929E-07 -0.05063434
v -0.037789494 1.1920929E-07 0.12830123
v -0.078184366 0.032714963 -0.04374689
v -0.029648721 0.032714963 0.12525511
v 0.03848262 0.053466916 -0.06133251
v -0.038482845 0.053466916 -0.06133251
v -1.1920929E-07 0.053466916 -0.0061240494
v -1.1920929E-07 0.032714963 0.093418956
v -1.1920929E-07 0.032714963 0.12562406
v -0.019721255 0.032714963 0.15641585
v -0.021605432 1.1920929E-07 0.16557083
v -1.1920929E-07 0.032714963 0.15652469
v -1.1920929E-07 1.1920929E-07 0.16557083
v 0.021605626 1.1920929E-07 0.16557083
v -0.021605432 1.1920929E-07 0.16557083
v 0.010774568 0.019775465 0.16176623
v 0.010774568 0.0083009 0.16176623
v 0.022190988 0.0083009 0.22919944
v 0.022190988 0.026367396 0.22919944
v -1.1920929E-07 0.026367396 0.2290119
v -1.1920929E-07 0.019775465 0.16176623
v 0.022190988 0.0083009 0.22919944
v -1.1920929E-07 0.0083009 0.2290119
v -0.02219078 0.0083009 0.22919944
v -0.02219078 0.026367396 0.22919944
v -0.010774791 0.019775465 0.16176623
v -0.02219078 0.0083009 0.22919944
v -0.010774791 0.0083009 0.16176623
vt 0.9653252 0.45399782
vt 0.96002334 0.4516165
vt 0.9618056 0.45633423
vt 0.9639772 0.45008886
vt 0.95388275 0.42883658
vt 0.94859594 0.4282375
vt 0.9490303 0.41905665
vt 0.95416737 0.4200152
vt 0.9552906 0.41029516
vt 0.9578966 0.42907622
vt 0.95893 0.41393453
vt 0.958286 0.42176747
vt 0.9677963 0.40924677
vt 0.9677963 0.40439424
vt 0.9803021 0.41029516
vt 0.9677963 0.41287118
vt 0.9766627 0.41394952
vt 0.98142534 0.4200152
vt 0.98656243 0.41905665
vt 0.9773067 0.42176747
vt 0.9677963 0.42139304
vt 0.9817099 0.42883658
vt 0.9869818 0.4282375
vt 0.97556937 0.4516165
vt 0.9776811 0.42907622
vt 0.9716005 0.45008886
vt 0.96330327 0.4269495
vt 0.97228944 0.4269495
vt 0.9677963 0.4338239
vt 0.9677963 0.44632962
vt 0.9677963 0.4501787
vt 0.97026753 0.45399782
vt 0.9737871 0.4563492
vt 0.9677963 0.4540128
vt 0.96778136 0.45826626
vt 0.96507055 0.45826626
vt 0.9704922 0.45826626
vt 0.96688277 0.46084228
vt 0.9655648 0.46048284
vt 0.96345305 0.46831578
vt 0.9655348 0.46886992
vt 0.96817076 0.46885493
vt 0.96817076 0.46084228
vt 0.9655348 0.4710116
vt 0.96817076 0.4710116
vt 0.97079176 0.4710116
vt 0.9708067 0.46886992
vt 0.9694438 0.46084228
vt 0.9728735 0.46831578
vt 0.9707618 0.46048284
vn 0.43075258 0.6990954 0.5707169
vn 0.86560816 0.31277293 0.39101872
vn 0.5161706 0.2855944 0.80746746
vn 0.51811194 0.8233399 0.23167093
vn 0.5142293 0.8427531 0.15917107
vn 0.8073686 0.5670858 0.16300204
vn 0.7335984 0.6427972 -0.22055642
vn 0.45987236 0.86993164 -0.17814706
vn 0.52781856 0.6000882 -0.6010838
vn 0.17061573 0.9844695 0.04135356
vn 0.31427336 0.86993164 -0.38006738
vn 0.13178933 0.9883521 -0.07610299
vn -0.00022041798 0.84663576 -0.53217274
vn -0.00022041798 0.62338406 -0.7819158
vn -0.52825934 0.6000882 -0.6006965
vn -0.00022041798 0.99805874 -0.06227931
vn -0.31471413 0.86993164 -0.37970248
vn -0.46031314 0.86993164 -0.17700498
vn -0.73403925 0.6427972 -0.21908489
vn -0.1322301 0.9883521 -0.07533469
vn -0.00022041798 0.9767042 -0.21459003
vn -0.5146701 0.8427531 0.15773997
vn -0.8058681 0.5670858 0.17026547
vn -0.866049 0.31277293 0.39004138
vn -0.17105657 0.9844695 0.039490454
vn -0.5185527 0.8233399 0.23068266
vn 0.25409245 0.96699756 -0.01878138
vn -0.25453323 0.96699756 -0.011338749
vn -0.00022041798 0.9844695 0.17555562
vn -0.00022041798 1 -0
vn -0.00022041798 1 -0
vn -0.4311934 0.6990954 0.5703839
vn -0.5166114 0.2855944 0.80718553
vn -0.00022041798 0.7961615 0.6050842
vn -0.00022041798 0.2681225 0.9633848
vn 0.5161706 0.2855944 0.80746746
vn -0.5166114 0.2855944 0.80718553
vn 0.6773001 0.7126847 -0.18260641
vn 0.98596996 0.00022041798 -0.16692278
vn 0.7607769 0.00022041798 0.64901346
vn 0.6190605 0.59620553 0.5111781
vn -0.00022041798 0.74180454 0.67061615
vn -0.00022041798 0.9961174 -0.08803428
vn 0.7607769 0.00022041798 0.64901346
vn -0.00022041798 0.00022041798 0.99999994
vn -0.76121765 0.00022041798 0.6484964
vn -0.6195014 0.59620553 0.51064366
vn -0.677741 0.7126847 -0.18096322
vn -0.76121765 0.00022041798 0.6484964
vn -0.9864108 0.00022041798 -0.16429761
g febg_coinrush_001_jewel_03_0
f 3/3/3 2/2/2 1/1/1
f 2/2/2 4/4/4 1/1/1
f 5/5/5 4/4/4 2/2/2
f 6/6/6 5/5/5 2/2/2
f 6/6/6 7/7/7 5/5/5
f 7/7/7 8/8/8 5/5/5
f 7/7/7 9/9/9 8/8/8
f 4/4/4 5/5/5 10/10/10
f 5/5/5 8/8/8 10/10/10
f 9/9/9 11/11/11 8/8/8
f 8/8/8 12/12/12 10/10/10
f 8/8/8 11/11/11 12/12/12
f 13/13/13 11/11/11 9/9/9
f 14/14/14 13/13/13 9/9/9
f 14/14/14 15/15/15 13/13/13
f 13/13/13 16/16/16 11/11/11
f 11/11/11 16/16/16 12/12/12
f 15/15/15 17/17/17 13/13/13
f 16/16/16 13/13/13 17/17/17
f 18/18/18 17/17/17 15/15/15
f 19/19/19 18/18/18 15/15/15
f 16/16/16 17/17/17 20/20/20
f 17/17/17 18/18/18 20/20/20
f 16/16/16 21/21/21 12/12/12
f 21/21/21 16/16/16 20/20/20
f 22/22/22 18/18/18 19/19/19
f 23/23/23 22/22/22 19/19/19
f 22/22/22 23/23/23 24/24/24
f 25/25/25 20/20/20 18/18/18
f 22/22/22 25/25/25 18/18/18
f 26/26/26 22/22/22 24/24/24
f 25/25/25 22/22/22 26/26/26
f 21/21/21 27/27/27 12/12/12
f 12/12/12 27/27/27 10/10/10
f 28/28/28 21/21/21 20/20/20
f 28/28/28 20/20/20 25/25/25
f 21/21/21 29/29/29 27/27/27
f 29/29/29 21/21/21 28/28/28
f 27/27/27 29/29/29 10/10/10
f 29/29/29 28/28/28 25/25/25
f 29/29/29 30/30/30 10/10/10
f 30/30/30 29/29/29 25/25/25
f 26/26/26 30/30/30 25/25/25
f 10/10/10 30/30/30 4/4/4
f 30/30/30 31/31/31 4/4/4
f 26/26/26 31/31/31 30/30/30
f 4/4/4 31/31/31 1/1/1
f 32/32/32 26/26/26 24/24/24
f 26/26/26 32/32/32 31/31/31
f 33/33/33 32/32/32 24/24/24
f 31/31/31 34/34/34 1/1/1
f 32/32/32 34/34/34 31/31/31
f 1/1/1 34/34/34 35/35/35
f 34/34/34 32/32/32 35/35/35
f 36/36/36 1/1/1 35/35/35
f 32/32/32 37/37/37 35/35/35
f 40/40/40 39/39/39 38/38/38
f 41/41/41 40/40/40 38/38/38
f 42/42/42 41/41/41 38/38/38
f 43/43/43 42/42/42 38/38/38
f 44/44/44 41/41/41 42/42/42
f 45/45/45 44/44/44 42/42/42
f 45/45/45 42/42/42 46/46/46
f 42/42/42 47/47/47 46/46/46
f 42/42/42 43/43/43 48/48/48
f 47/47/47 42/42/42 48/48/48
f 49/49/49 47/47/47 48/48/48
f 50/50/50 49/49/49 48/48/48
