g febg_coinrush_001_jewelbox_01
v 0.26259965 0.110268205 0.28094712
v 0.276733 2.9802322E-08 0.29181984
v -0.2767308 2.9802322E-08 0.29181984
v -0.262598 0.110268205 0.28094712
v -0.262598 0.110268205 0.28094712
v -0.2767308 2.9802322E-08 0.29181984
v -0.2767314 2.9802322E-08 -0.29182371
v -0.262598 0.11026877 -0.28095096
v -0.22560039 0.11180833 0.2413635
v 0.22560146 0.11180833 0.24136403
v 0.26259965 0.110268205 0.28094712
v 0.22560146 0.11180833 -0.24136734
v 0.26259965 0.11026877 -0.28095096
v 0.276733 2.9802322E-08 -0.29182371
v -0.2767314 2.9802322E-08 -0.29182371
v -0.22560039 0.11180833 -0.24136734
v 0.21631171 0.079790115 0.23142472
v 0.21631171 0.079790115 -0.23142803
v -0.21631005 0.079790115 -0.23142803
v -0.21631005 0.079790115 0.23142472
v 0.26259965 0.11026877 -0.28095096
v 0.276733 2.9802322E-08 -0.29182371
v 0.276733 2.9802322E-08 0.29181984
v 0.26259965 0.110268205 0.28094712
vt 0.75433797 0.5016567
vt 0.75433797 0.4843925
vt 0.7992912 0.4843925
vt 0.7992912 0.5016567
vt 0.7992912 0.54983383
vt 0.8164801 0.54983383
vt 0.8164801 0.5016567
vt 0.7992912 0.5016567
vt 0.79544973 0.5456006
vt 0.7582548 0.5456006
vt 0.75433797 0.54983383
vt 0.7582548 0.5058899
vt 0.75433797 0.5016567
vt 0.75433797 0.4843925
vt 0.7992912 0.4843925
vt 0.79544973 0.5058899
vt 0.75962573 0.54422975
vt 0.75962573 0.5072608
vt 0.7940788 0.5072608
vt 0.7940788 0.54422975
vt 0.7992912 0.5016567
vt 0.8164801 0.5016567
vt 0.8164801 0.54983383
vt 0.7992912 0.54983383
vn 0.5447236 0.6288632 0.55480385
vn 0.7040193 0.1591034 0.69212925
vn -0.7036346 0.1591034 0.6925203
vn -0.54433894 0.6288632 0.5551812
vn -0.54433894 0.6288632 0.5551812
vn -0.7036346 0.1591034 0.6925203
vn -0.7036346 0.1591034 -0.6925203
vn -0.54433894 0.6288632 -0.5551812
vn 0.1984992 0.95883286 -0.20307042
vn -0.19974005 0.95883286 -0.20185012
vn 0.5447236 0.6288632 0.55480385
vn -0.19974005 0.95883286 0.20185012
vn 0.5447236 0.6288632 -0.55480385
vn 0.7040193 0.1591034 -0.69212925
vn -0.7036346 0.1591034 -0.6925203
vn 0.1984992 0.95883286 0.20307042
vn -0.49069858 0.7247658 -0.48366255
vn -0.49069858 0.7247658 0.48366255
vn 0.4910832 0.7247658 0.48327205
vn 0.4910832 0.7247658 -0.48327205
vn 0.5447236 0.6288632 -0.55480385
vn 0.7040193 0.1591034 -0.69212925
vn 0.7040193 0.1591034 0.69212925
vn 0.5447236 0.6288632 0.55480385
g febg_coinrush_001_jewelbox_01_0
f 3/3/3 2/2/2 1/1/1
f 4/4/4 3/3/3 1/1/1
f 7/7/7 6/6/6 5/5/5
f 8/8/8 7/7/7 5/5/5
f 5/5/5 9/9/9 8/8/8
f 10/10/10 9/9/9 5/5/5
f 11/11/11 10/10/10 5/5/5
f 12/12/12 10/10/10 11/11/11
f 13/13/13 12/12/12 11/11/11
f 13/13/13 14/14/14 8/8/8
f 14/14/14 15/15/15 8/8/8
f 8/8/8 16/16/16 13/13/13
f 9/9/9 16/16/16 8/8/8
f 16/16/16 12/12/12 13/13/13
f 10/10/10 17/17/17 9/9/9
f 12/12/12 18/18/18 10/10/10
f 18/18/18 17/17/17 10/10/10
f 19/19/19 18/18/18 12/12/12
f 16/16/16 19/19/19 12/12/12
f 18/18/18 19/19/19 17/17/17
f 17/17/17 20/20/20 9/9/9
f 9/9/9 20/20/20 16/16/16
f 19/19/19 20/20/20 17/17/17
f 20/20/20 19/19/19 16/16/16
f 23/23/23 22/22/22 21/21/21
f 24/24/24 23/23/23 21/21/21
