g febg_factory_001_powerpolewire_02
v 4.702078 2.4650865 -0.052081585
v 3.4077978 1.4231548 4.7683716E-06
v 4.7034416 2.4357781 4.7683716E-06
v 3.4070892 1.4528942 -0.052081585
v 4.699467 2.5237308 -0.052081585
v 1.9987054 0.5694189 4.7683716E-06
v 3.405851 1.512166 -0.052081585
v 4.6982117 2.5530663 4.7683716E-06
v 1.9987054 0.5999923 -0.052081585
v 0.13627577 0.0012335777 4.7683716E-06
v 0.13632965 0.03062296 -0.052081585
v 1.9987054 0.66112185 -0.052081585
v 0.13643694 0.0893836 -0.052081585
v 3.4053216 1.541708 4.7683716E-06
v 1.9987054 0.6916685 4.7683716E-06
v 0.13649082 0.11874628 4.7683716E-06
v 0.13643694 0.0893836 0.05208206
v 1.9987054 0.66112185 0.05208206
v 0.13632965 0.03062296 0.05208206
v 3.405851 1.512166 0.05208206
v 4.699467 2.5237308 0.05208206
v 1.9987054 0.5999923 0.05208206
v 0.13627577 0.0012335777 4.7683716E-06
v 1.9987054 0.5694189 4.7683716E-06
v 3.4070892 1.4528942 0.05208206
v 4.702078 2.4650865 0.05208206
v 3.4077978 1.4231548 4.7683716E-06
v 4.7034416 2.4357781 4.7683716E-06
v 0.13632965 0.03062296 -0.052081585
v -1.7833896 0.1675582 4.7683716E-06
v 0.13627577 0.0012335777 4.7683716E-06
v -1.7832642 0.19807768 -0.052081585
v 0.13643694 0.0893836 -0.052081585
v -1.78304 0.25920677 -0.052081585
v 0.13649082 0.11874628 4.7683716E-06
v -1.7829232 0.28980732 4.7683716E-06
v -1.78304 0.25920677 0.05208206
v 0.13643694 0.0893836 0.05208206
v -1.7832642 0.19807768 0.05208206
v 0.13632965 0.03062296 0.05208206
v -1.7833896 0.1675582 4.7683716E-06
v 0.13627577 0.0012335777 4.7683716E-06
v -1.7832642 0.19807768 -0.052081585
v -3.3361816 1.0746183 4.7683716E-06
v -1.7833896 0.1675582 4.7683716E-06
v -3.3361816 1.1066003 -0.052081585
v -4.7034416 2.5610504 4.7683716E-06
v -1.78304 0.25920677 -0.052081585
v -4.70337 2.5931134 -0.052081585
v -3.3362446 1.1706719 -0.052081585
v -4.703244 2.6571045 -0.052081585
v -1.7829232 0.28980732 4.7683716E-06
v -3.336316 1.2028065 4.7683716E-06
v -4.7031727 2.6890235 4.7683716E-06
v -4.703244 2.6571045 0.05208206
v -3.3362446 1.1706719 0.05208206
v -1.78304 0.25920677 0.05208206
v -4.70337 2.5931134 0.05208206
v -3.3361816 1.1066003 0.05208206
v -4.7034416 2.5610504 4.7683716E-06
v -1.7832642 0.19807768 0.05208206
v -3.3361816 1.0746183 4.7683716E-06
v -1.7833896 0.1675582 4.7683716E-06
vt 0.24487275 0.7230696
vt 0.24737273 0.81471515
vt 0.24737273 0.7230696
vt 0.24487275 0.81471515
vt 0.24237278 0.7230696
vt 0.24737273 0.90625393
vt 0.24237278 0.81471515
vt 0.2398728 0.7230696
vt 0.24487275 0.90625393
vt 0.24737273 0.81471515
vt 0.24487275 0.81471515
vt 0.24237278 0.90625393
vt 0.24237278 0.81471515
vt 0.2398728 0.81471515
vt 0.2398728 0.90625393
vt 0.2398728 0.81471515
vt 0.24237278 0.81471515
vt 0.24237278 0.90625393
vt 0.24487275 0.81471515
vt 0.24237278 0.81471515
vt 0.24237278 0.7230696
vt 0.24487275 0.90625393
vt 0.24737273 0.81471515
vt 0.24737273 0.90625393
vt 0.24487275 0.81471515
vt 0.24487275 0.7230696
vt 0.24737273 0.81471515
vt 0.24737273 0.7230696
vt 0.24487275 0.90625393
vt 0.24737273 0.81471515
vt 0.24737273 0.90625393
vt 0.24487275 0.81471515
vt 0.24237278 0.90625393
vt 0.24237278 0.81471515
vt 0.2398728 0.90625393
vt 0.2398728 0.81471515
vt 0.24237278 0.81471515
vt 0.24237278 0.90625393
vt 0.24487275 0.81471515
vt 0.24487275 0.90625393
vt 0.24737273 0.81471515
vt 0.24737273 0.90625393
vt 0.24487275 0.90625393
vt 0.24737273 0.81471515
vt 0.24737273 0.90625393
vt 0.24487275 0.81471515
vt 0.24737273 0.7231001
vt 0.24237278 0.90625393
vt 0.24487275 0.7231001
vt 0.24237278 0.81471515
vt 0.24237278 0.7231001
vt 0.2398728 0.90625393
vt 0.2398728 0.81471515
vt 0.2398728 0.7231001
vt 0.24237278 0.7231001
vt 0.24237278 0.81471515
vt 0.24237278 0.90625393
vt 0.24487275 0.7231001
vt 0.24487275 0.81471515
vt 0.24737273 0.7231001
vt 0.24487275 0.90625393
vt 0.24737273 0.81471515
vt 0.24737273 0.90625393
vn 0.24272102 -0.3107658 -0.91897285
vn 0.55961525 -0.8279061 -0.037447542
vn 0.61599517 -0.7870792 -0.03250006
vn 0.31659818 -0.4468553 -0.8367114
vn -0.4318943 0.55243075 -0.7129429
vn 0.39424554 -0.9190052 -0
vn -0.28997242 0.42995024 -0.85501975
vn -0.61640054 0.78743273 -0
vn 0.23105615 -0.49545875 -0.83733726
vn 0.0988549 -0.9951018 -0.00024414062
vn 0.059972167 -0.542118 -0.83815956
vn -0.19082141 0.44550335 -0.87470794
vn -0.045011163 0.45133567 -0.8912183
vn -0.5757605 0.8168334 -0.035819683
vn -0.42386577 0.90572506 -0
vn -0.11111188 0.99374974 -0.010753279
vn -0.045011163 0.45133567 0.8912183
vn -0.19082141 0.44550335 0.87470794
vn 0.059972167 -0.542118 0.83815956
vn -0.28997242 0.42995024 0.85501975
vn -0.4318943 0.55243075 0.7129429
vn 0.23105615 -0.49545875 0.83733726
vn 0.0988549 -0.9951018 -0.00024414062
vn 0.39424554 -0.9190052 -0
vn 0.31659818 -0.4468553 0.8367114
vn 0.24272102 -0.3107658 0.91897285
vn 0.55961525 -0.8279061 -0.037447542
vn 0.61599517 -0.7870792 -0.03250006
vn 0.059972167 -0.542118 -0.83815956
vn -0.28414 -0.9581632 -0.03446363
vn 0.0988549 -0.9951018 -0.00024414062
vn -0.18110073 -0.52656496 -0.83062136
vn -0.045011163 0.45133567 -0.8912183
vn 0.12801695 0.42995024 -0.89373064
vn -0.11111188 0.99374974 -0.010753279
vn 0.32631886 0.9451463 -0.014644368
vn 0.12801695 0.42995024 0.89373064
vn -0.045011163 0.45133567 0.8912183
vn -0.18110073 -0.52656496 0.83062136
vn 0.059972167 -0.542118 0.83815956
vn -0.28414 -0.9581632 -0.03446363
vn 0.0988549 -0.9951018 -0.00024414062
vn -0.18110073 -0.52656496 -0.83062136
vn -0.60297835 -0.7967999 -0.039077755
vn -0.28414 -0.9581632 -0.03446363
vn -0.3735702 -0.4351905 -0.8191792
vn -0.73517966 -0.67626345 -0.046675574
vn 0.12801695 0.42995024 -0.89373064
vn -0.26275444 -0.24077684 -0.93433756
vn 0.29910094 0.39301157 -0.8695289
vn 0.56739175 0.52132463 -0.63740665
vn 0.32631886 0.9451463 -0.014644368
vn 0.65293384 0.7565651 -0.0358704
vn 0.7363063 0.67664844 -0
vn 0.56739175 0.52132463 0.63740665
vn 0.29910094 0.39301157 0.8695289
vn 0.12801695 0.42995024 0.89373064
vn -0.26275444 -0.24077684 0.93433756
vn -0.3735702 -0.4351905 0.8191792
vn -0.73517966 -0.67626345 -0.046675574
vn -0.18110073 -0.52656496 0.83062136
vn -0.60297835 -0.7967999 -0.039077755
vn -0.28414 -0.9581632 -0.03446363
g febg_factory_001_powerpolewire_02_0
f 3/3/3 2/2/2 1/1/1
f 2/2/2 4/4/4 1/1/1
f 1/1/1 4/4/4 5/5/5
f 2/2/2 6/6/6 4/4/4
f 4/4/4 7/7/7 5/5/5
f 5/5/5 7/7/7 8/8/8
f 6/6/6 9/9/9 4/4/4
f 4/4/4 9/9/9 7/7/7
f 6/6/6 10/10/10 9/9/9
f 10/10/10 11/11/11 9/9/9
f 9/9/9 11/11/11 12/12/12
f 9/9/9 12/12/12 7/7/7
f 11/11/11 13/13/13 12/12/12
f 7/7/7 14/14/14 8/8/8
f 7/7/7 12/12/12 14/14/14
f 12/12/12 13/13/13 15/15/15
f 12/12/12 15/15/15 14/14/14
f 13/13/13 16/16/16 15/15/15
f 16/16/16 17/17/17 15/15/15
f 17/17/17 18/18/18 15/15/15
f 15/15/15 18/18/18 14/14/14
f 17/17/17 19/19/19 18/18/18
f 14/14/14 20/20/20 8/8/8
f 18/18/18 20/20/20 14/14/14
f 20/20/20 21/21/21 8/8/8
f 19/19/19 22/22/22 18/18/18
f 18/18/18 22/22/22 20/20/20
f 19/19/19 23/23/23 22/22/22
f 23/23/23 24/24/24 22/22/22
f 20/20/20 25/25/25 21/21/21
f 22/22/22 25/25/25 20/20/20
f 22/22/22 24/24/24 25/25/25
f 25/25/25 26/26/26 21/21/21
f 24/24/24 27/27/27 25/25/25
f 25/25/25 27/27/27 26/26/26
f 27/27/27 28/28/28 26/26/26
f 31/31/31 30/30/30 29/29/29
f 30/30/30 32/32/32 29/29/29
f 29/29/29 32/32/32 33/33/33
f 32/32/32 34/34/34 33/33/33
f 33/33/33 34/34/34 35/35/35
f 34/34/34 36/36/36 35/35/35
f 36/36/36 37/37/37 35/35/35
f 37/37/37 38/38/38 35/35/35
f 37/37/37 39/39/39 38/38/38
f 39/39/39 40/40/40 38/38/38
f 39/39/39 41/41/41 40/40/40
f 41/41/41 42/42/42 40/40/40
f 45/45/45 44/44/44 43/43/43
f 44/44/44 46/46/46 43/43/43
f 44/44/44 47/47/47 46/46/46
f 43/43/43 46/46/46 48/48/48
f 47/47/47 49/49/49 46/46/46
f 46/46/46 50/50/50 48/48/48
f 46/46/46 49/49/49 50/50/50
f 49/49/49 51/51/51 50/50/50
f 48/48/48 50/50/50 52/52/52
f 50/50/50 51/51/51 53/53/53
f 50/50/50 53/53/53 52/52/52
f 51/51/51 54/54/54 53/53/53
f 54/54/54 55/55/55 53/53/53
f 53/53/53 56/56/56 52/52/52
f 55/55/55 56/56/56 53/53/53
f 56/56/56 57/57/57 52/52/52
f 55/55/55 58/58/58 56/56/56
f 56/56/56 59/59/59 57/57/57
f 58/58/58 59/59/59 56/56/56
f 58/58/58 60/60/60 59/59/59
f 59/59/59 61/61/61 57/57/57
f 60/60/60 62/62/62 59/59/59
f 59/59/59 62/62/62 61/61/61
f 62/62/62 63/63/63 61/61/61
