g febg_tropical_002_poil_02
v -0.13195068 -0.008376896 4.012745
v -0.13195068 -0.008376896 -1.1324883E-06
v -0.09307438 0.08545083 -1.1324883E-06
v -0.09307438 0.08545083 4.012745
v -0.19283152 -0.008376896 4.085516
v 0.0007722974 0.124320805 -1.1324883E-06
v -0.13612908 0.12849921 4.085516
v -0.19283152 -0.008376896 4.6137276
v 0.0007722974 0.124320805 4.012745
v 0.094625354 0.08545083 -1.1324883E-06
v -0.13612908 0.12849921 4.6137276
v -0.13195068 -0.008376896 4.6651077
v 0.0007722974 0.18520164 4.085516
v 0.094625354 0.08545083 4.012745
v 0.13349527 -0.008376896 -1.1324883E-06
v -0.09307438 0.08545083 4.6651077
v -0.13195068 -0.008376896 4.898087
v -0.09307438 0.08545083 4.898087
v 0.0007722974 0.18520164 4.6137276
v 0.0007722974 0.124320805 4.6651077
v 0.0007722974 0.124320805 4.898087
v 0.1376737 0.12849921 4.085516
v 0.13349527 -0.008376896 4.012745
v 0.1376737 0.12849921 4.6137276
v 0.094625354 0.08545083 4.6651077
v 0.094625354 0.08545083 4.898087
v 0.19438249 -0.008376896 4.085516
v 0.094625354 -0.10221094 4.012745
v 0.094625354 -0.10221094 -1.1324883E-06
v 0.19438249 -0.008376896 4.6137276
v 0.13349527 -0.008376896 4.6651077
v 0.13349527 -0.008376896 4.898087
v 0.094625354 -0.10221094 4.898087
v 0.094625354 -0.10221094 4.6651077
v 0.0007722974 -0.14108089 4.898087
v 0.1376737 -0.14525932 4.085516
v 0.1376737 -0.14525932 4.6137276
v 0.0007722974 -0.14108089 4.012745
v 0.0007722974 -0.14108089 -1.1324883E-06
v 0.0007722974 -0.14108089 4.6651077
v 0.0007722974 -0.20196179 4.6137276
v 0.0007722974 -0.20196179 4.085516
v -0.09307438 -0.10221094 4.012745
v -0.09307438 -0.10221094 -1.1324883E-06
v -0.09307438 -0.10221094 4.898087
v 0.094625354 -0.10221094 4.898087
v -0.13612908 -0.14525932 4.085516
v -0.13195068 -0.008376896 4.012745
v -0.13195068 -0.008376896 -1.1324883E-06
v -0.19283152 -0.008376896 4.085516
v -0.19283152 -0.008376896 4.6137276
v -0.13612908 -0.14525932 4.6137276
v -0.13195068 -0.008376896 4.6651077
v -0.09307438 -0.10221094 4.6651077
v -0.13195068 -0.008376896 4.898087
v -0.13195068 -0.008376896 4.898087
v 0.13349527 -0.008376896 4.898087
v 0.094625354 0.08545083 4.898087
v -0.09307438 0.08545083 4.898087
v 0.0007722974 0.124320805 4.898087
v -0.04209274 -0.05981368 5.0440154
v 0.04283458 -0.05981368 4.8866706
v -0.04209274 -0.05981368 4.8866706
v 0.04283458 -0.05981368 5.0440154
v -0.04209274 -0.63510036 5.939617
v 0.04283458 0.001768887 4.8866706
v 0.04283458 -0.63510036 5.939617
v 0.04283458 0.001768887 5.0977025
v 0.04283458 -0.57509816 5.9933043
v -0.04209274 -0.57509816 5.9933043
v 0.04283458 -0.63510036 5.939617
v -0.04209274 -0.63510036 5.939617
v -0.04209274 0.001768887 5.0977025
v -0.04209274 -0.05981368 5.0440154
v -0.04209274 -0.63510036 5.939617
v -0.04209274 0.001768887 4.8866706
v -0.04209274 -0.05981368 4.8866706
v -0.04209274 0.06335771 5.0440154
v -0.04209274 0.06335771 4.8866706
v 0.04283458 0.06335771 4.8866706
v 0.04283458 0.06335771 5.0440154
v -0.04209274 0.63863814 5.939617
v 0.04283458 0.001768887 4.8866706
v 0.04283458 0.63863814 5.939617
v 0.04283458 0.001768887 5.0977025
v 0.04283458 0.57863593 5.9933043
v -0.04209274 0.57863593 5.9933043
v 0.04283458 0.63863814 5.939617
v -0.04209274 0.63863814 5.939617
v -0.04209274 0.001768887 5.0977025
v -0.04209274 0.06335771 5.0440154
v -0.04209274 0.63863814 5.939617
v -0.04209274 0.001768887 4.8866706
v -0.04209274 0.06335771 4.8866706
vt 0.7082326 0.31971404
vt 0.95241416 0.31971404
vt 0.95241416 0.3133451
vt 0.7077669 0.3133451
vt 0.7027349 0.3234092
vt 0.95241416 0.3066908
vt 0.70214903 0.31487727
vt 0.6695985 0.32334912
vt 0.7077669 0.3066908
vt 0.95241416 0.3000365
vt 0.67027444 0.31486225
vt 0.6648969 0.31971404
vt 0.70214903 0.30688608
vt 0.7077669 0.3000365
vt 0.95241416 0.29363754
vt 0.665678 0.3133451
vt 0.6511227 0.31971404
vt 0.6511227 0.3133451
vt 0.67027444 0.30688608
vt 0.665678 0.3066908
vt 0.6511227 0.3066908
vt 0.70214903 0.29892495
vt 0.7082326 0.29363754
vt 0.67027444 0.2988949
vt 0.665678 0.3000365
vt 0.6511227 0.3000365
vt 0.7027349 0.29042304
vt 0.7077669 0.3000365
vt 0.95241416 0.3000365
vt 0.6695985 0.29037797
vt 0.6648969 0.29363754
vt 0.6511227 0.29363754
vt 0.6511227 0.3000365
vt 0.665678 0.3000365
vt 0.6511227 0.3066908
vt 0.70214903 0.29892495
vt 0.67027444 0.2988949
vt 0.7077669 0.3066908
vt 0.95241416 0.3066908
vt 0.665678 0.3066908
vt 0.67027444 0.30688608
vt 0.70214903 0.30688608
vt 0.7077669 0.3133451
vt 0.95241416 0.3133451
vt 0.6511227 0.3133451
vt 0.6474275 0.30185404
vt 0.70214903 0.31487727
vt 0.7082326 0.31971404
vt 0.95241416 0.31971404
vt 0.7027349 0.3234092
vt 0.6695985 0.32334912
vt 0.67027444 0.31486225
vt 0.6648969 0.31971404
vt 0.665678 0.3133451
vt 0.6511227 0.31971404
vt 0.64676654 0.31679994
vt 0.6412388 0.30158365
vt 0.6474275 0.30185404
vt 0.6511227 0.3133451
vt 0.6511227 0.3066908
vt 0.94334143 0.53775907
vt 0.9406977 0.530564
vt 0.9447384 0.5316906
vt 0.93869996 0.53775907
vt 0.9433264 0.59554493
vt 0.93697256 0.5300533
vt 0.938745 0.59554493
vt 0.93447906 0.5386904
vt 0.93447906 0.596311
vt 0.92988265 0.596311
vt 0.93447906 0.6006821
vt 0.92988265 0.6006821
vt 0.92988265 0.5386904
vt 0.9254364 0.53775907
vt 0.9255265 0.59554493
vt 0.9259471 0.5300533
vt 0.9225373 0.5316906
vt 0.94334143 0.53775907
vt 0.9447384 0.5316906
vt 0.9406977 0.530564
vt 0.93869996 0.53775907
vt 0.9433264 0.59554493
vt 0.93697256 0.5300533
vt 0.938745 0.59554493
vt 0.93447906 0.5386904
vt 0.93447906 0.596311
vt 0.92988265 0.596311
vt 0.93447906 0.6006821
vt 0.92988265 0.6006821
vt 0.92988265 0.5386904
vt 0.9254364 0.53775907
vt 0.9255265 0.59554493
vt 0.9259471 0.5300533
vt 0.9225373 0.5316906
vn -0.9276633 0.0009775162 -0.37341642
vn -0.9999995 0.0009775162 -0
vn -0.70674455 0.70674455 -0.03200431
vn -0.6559137 0.6559137 -0.3735698
vn -0.9491687 0.0009775162 -0.31476638
vn -0.0009775162 0.9999995 -0
vn -0.66959894 0.67155397 -0.31725785
vn -0.9217982 0.0009775162 0.3876688
vn -0.0009775162 0.9276633 -0.37341642
vn 0.70674455 0.70674455 -0.03200431
vn -0.65200365 0.65200365 0.38701737
vn -0.8846526 0.0009775162 0.46624973
vn -0.0009775162 0.9491687 -0.31476638
vn 0.6559137 0.6559137 -0.3735698
vn 0.9999995 0.0009775162 -0
vn -0.6246331 0.6246331 0.46868646
vn -0.7771257 0.0009775162 0.62934464
vn -0.5483868 0.5483868 0.6313033
vn -0.0009775162 0.9217982 0.3876688
vn -0.0009775162 0.8846526 0.46624973
vn -0.0009775162 0.7771257 0.62934464
vn 0.66959894 0.67155397 -0.31725785
vn 0.92766327 0.0009775162 -0.37341648
vn 0.6520036 0.65200365 0.38701752
vn 0.62463313 0.6246331 0.46868646
vn 0.5483868 0.5483868 0.6313033
vn 0.9491687 0.0009775162 -0.31476638
vn 0.6559137 -0.6559137 -0.3735698
vn 0.70674455 -0.70674455 -0.03200431
vn 0.92179817 0.0009775162 0.38766888
vn 0.88465255 0.0009775162 0.46624985
vn 0.7771257 0.0009775162 0.62934464
vn 0.5483868 -0.5483868 0.6313033
vn 0.62463313 -0.62463313 0.46868637
vn -0.0009775162 -0.7771257 0.62934464
vn 0.66959894 -0.67155397 -0.31725785
vn 0.6520036 -0.6520036 0.38701764
vn -0.0009775162 -0.92766327 -0.37341648
vn -0.0009775162 -0.9999995 -0
vn -0.0009775162 -0.88465255 0.46624985
vn -0.0009775162 -0.92179817 0.38766888
vn -0.0009775162 -0.9491687 -0.31476638
vn -0.6559137 -0.6559137 -0.3735698
vn -0.70674455 -0.70674455 -0.03200431
vn -0.5483868 -0.5483868 0.6313033
vn 0.5483868 -0.5483868 0.6313033
vn -0.66959894 -0.67155397 -0.31725785
vn -0.9276633 0.0009775162 -0.37341642
vn -0.9999995 0.0009775162 -0
vn -0.9491687 0.0009775162 -0.31476638
vn -0.9217982 0.0009775162 0.3876688
vn -0.65200365 -0.6520036 0.3870175
vn -0.8846526 0.0009775162 0.46624973
vn -0.6246331 -0.62463313 0.46868637
vn -0.7771257 0.0009775162 0.62934464
vn -0.7771257 0.0009775162 0.62934464
vn 0.7771257 0.0009775162 0.62934464
vn 0.5483868 0.5483868 0.6313033
vn -0.5483868 0.5483868 0.6313033
vn -0.0009775162 0.7771257 0.62934464
vn -0.7771257 -0.6050828 -0.17306186
vn 0.70674455 -0.70674455 -0.03200431
vn -0.70674455 -0.70674455 -0.03200431
vn 0.7771257 -0.6050828 -0.17306186
vn -0.5855324 -0.80254114 0.11436575
vn 0.9999995 0.0009775162 -0
vn 0.5855324 -0.80254114 0.11436575
vn 0.9491687 0.0009775162 0.31476638
vn 0.56989217 0.11045933 0.8142614
vn -0.56989217 0.11045933 0.8142614
vn 0.5855324 -0.80254114 0.11436575
vn -0.5855324 -0.80254114 0.11436575
vn -0.9491687 0.0009775162 0.31476638
vn -0.7771257 -0.6050828 -0.17306186
vn -0.5855324 -0.80254114 0.11436575
vn -0.9999995 0.0009775162 -0
vn -0.70674455 -0.70674455 -0.03200431
vn -0.7771257 0.60508275 -0.17306204
vn -0.70674455 0.70674455 -0.03200431
vn 0.70674455 0.70674455 -0.03200431
vn 0.7771257 0.60508275 -0.17306204
vn -0.5855324 0.80254114 0.11436575
vn 0.9999995 0.0009775162 -0
vn 0.5855324 0.80254114 0.11436575
vn 0.9491687 0.0009775162 0.31476638
vn 0.56989217 -0.11045939 0.8142614
vn -0.56989217 -0.11045939 0.8142614
vn 0.5855324 0.80254114 0.11436575
vn -0.5855324 0.80254114 0.11436575
vn -0.9491687 0.0009775162 0.31476638
vn -0.7771257 0.60508275 -0.17306204
vn -0.5855324 0.80254114 0.11436575
vn -0.9999995 0.0009775162 -0
vn -0.70674455 0.70674455 -0.03200431
g febg_tropical_002_poil_02_0
f 3/3/3 2/2/2 1/1/1
f 4/4/4 3/3/3 1/1/1
f 4/4/4 1/1/1 5/5/5
f 6/6/6 3/3/3 4/4/4
f 7/7/7 4/4/4 5/5/5
f 5/5/5 8/8/8 7/7/7
f 9/9/9 6/6/6 4/4/4
f 9/9/9 4/4/4 7/7/7
f 10/10/10 6/6/6 9/9/9
f 8/8/8 11/11/11 7/7/7
f 8/8/8 12/12/12 11/11/11
f 13/13/13 9/9/9 7/7/7
f 7/7/7 11/11/11 13/13/13
f 14/14/14 10/10/10 9/9/9
f 14/14/14 9/9/9 13/13/13
f 15/15/15 10/10/10 14/14/14
f 12/12/12 16/16/16 11/11/11
f 12/12/12 17/17/17 16/16/16
f 17/17/17 18/18/18 16/16/16
f 11/11/11 19/19/19 13/13/13
f 11/11/11 16/16/16 19/19/19
f 16/16/16 18/18/18 20/20/20
f 16/16/16 20/20/20 19/19/19
f 18/18/18 21/21/21 20/20/20
f 22/22/22 14/14/14 13/13/13
f 13/13/13 19/19/19 22/22/22
f 23/23/23 15/15/15 14/14/14
f 23/23/23 14/14/14 22/22/22
f 19/19/19 20/20/20 24/24/24
f 19/19/19 24/24/24 22/22/22
f 20/20/20 21/21/21 25/25/25
f 20/20/20 25/25/25 24/24/24
f 21/21/21 26/26/26 25/25/25
f 22/22/22 24/24/24 27/27/27
f 27/27/27 23/23/23 22/22/22
f 15/15/15 23/23/23 28/28/28
f 29/29/29 15/15/15 28/28/28
f 24/24/24 25/25/25 30/30/30
f 24/24/24 30/30/30 27/27/27
f 25/25/25 26/26/26 31/31/31
f 25/25/25 31/31/31 30/30/30
f 26/26/26 32/32/32 31/31/31
f 32/32/32 33/33/33 31/31/31
f 33/33/33 34/34/34 31/31/31
f 31/31/31 34/34/34 30/30/30
f 33/33/33 35/35/35 34/34/34
f 23/23/23 27/27/27 36/36/36
f 28/28/28 23/23/23 36/36/36
f 30/30/30 37/37/37 27/27/27
f 34/34/34 37/37/37 30/30/30
f 37/37/37 36/36/36 27/27/27
f 29/29/29 28/28/28 38/38/38
f 39/39/39 29/29/29 38/38/38
f 35/35/35 40/40/40 34/34/34
f 34/34/34 40/40/40 37/37/37
f 37/37/37 41/41/41 36/36/36
f 40/40/40 41/41/41 37/37/37
f 28/28/28 36/36/36 42/42/42
f 38/38/38 28/28/28 42/42/42
f 41/41/41 42/42/42 36/36/36
f 39/39/39 38/38/38 43/43/43
f 44/44/44 39/39/39 43/43/43
f 35/35/35 45/45/45 40/40/40
f 45/45/45 35/35/35 46/46/46
f 38/38/38 42/42/42 47/47/47
f 43/43/43 38/38/38 47/47/47
f 44/44/44 43/43/43 48/48/48
f 49/49/49 44/44/44 48/48/48
f 48/48/48 43/43/43 50/50/50
f 43/43/43 47/47/47 50/50/50
f 51/51/51 50/50/50 47/47/47
f 52/52/52 47/47/47 42/42/42
f 52/52/52 51/51/51 47/47/47
f 41/41/41 52/52/52 42/42/42
f 53/53/53 51/51/51 52/52/52
f 40/40/40 54/54/54 41/41/41
f 54/54/54 52/52/52 41/41/41
f 54/54/54 53/53/53 52/52/52
f 45/45/45 54/54/54 40/40/40
f 55/55/55 53/53/53 54/54/54
f 45/45/45 55/55/55 54/54/54
f 45/45/45 46/46/46 56/56/56
f 46/46/46 57/57/57 56/56/56
f 56/56/56 57/57/57 58/58/58
f 59/59/59 56/56/56 58/58/58
f 60/60/60 59/59/59 58/58/58
f 63/63/63 62/62/62 61/61/61
f 62/62/62 64/64/64 61/61/61
f 65/65/65 61/61/61 64/64/64
f 62/62/62 66/66/66 64/64/64
f 67/67/67 65/65/65 64/64/64
f 66/66/66 68/68/68 64/64/64
f 67/67/67 64/64/64 68/68/68
f 69/69/69 67/67/67 68/68/68
f 70/70/70 69/69/69 68/68/68
f 71/71/71 69/69/69 70/70/70
f 72/72/72 71/71/71 70/70/70
f 73/73/73 70/70/70 68/68/68
f 70/70/70 73/73/73 74/74/74
f 75/75/75 70/70/70 74/74/74
f 74/74/74 73/73/73 76/76/76
f 77/77/77 74/74/74 76/76/76
f 80/80/80 79/79/79 78/78/78
f 81/81/81 80/80/80 78/78/78
f 78/78/78 82/82/82 81/81/81
f 80/80/80 81/81/81 83/83/83
f 82/82/82 84/84/84 81/81/81
f 81/81/81 85/85/85 83/83/83
f 81/81/81 84/84/84 85/85/85
f 84/84/84 86/86/86 85/85/85
f 86/86/86 87/87/87 85/85/85
f 86/86/86 88/88/88 87/87/87
f 88/88/88 89/89/89 87/87/87
f 87/87/87 90/90/90 85/85/85
f 90/90/90 87/87/87 91/91/91
f 87/87/87 92/92/92 91/91/91
f 90/90/90 91/91/91 93/93/93
f 91/91/91 94/94/94 93/93/93
