g febg_oldcastle_001_tree_02
v -0.16928798 2.8014183E-06 0.048719883
v 0.002901733 0.96421796 0.09578061
v 0.002901733 2.8014183E-06 0.12703925
v -0.13492066 0.96421796 0.03309053
v -0.16928798 2.8014183E-06 -0.107926846
v -0.13492066 0.96421796 -0.09228963
v 0.002901733 2.8014183E-06 -0.18624628
v 0.002901733 0.96421796 -0.15498757
v 0.17509139 2.8014183E-06 -0.107926846
v 0.14072412 0.96421796 -0.09228963
v 0.17509139 2.8014183E-06 0.048719883
v 0.14072412 0.96421796 0.03309053
v 0.002901733 2.8014183E-06 0.12703925
v 0.002901733 0.96421796 0.09578061
v 0.00043684244 0.8351169 -0.4878667
v -0.49466246 1.4411287 -0.52637094
v -0.3834595 0.8051142 -0.14500237
v -0.78199595 1.4639094 -0.087359846
v -0.7577159 2.1363168 -0.36552447
v -0.8750027 2.1084807 -0.047293425
v -0.60537106 4.200913 0.13257354
v -0.37748557 4.448989 -0.20244867
v -0.33142966 6.101405 0.29884428
v -0.4372869 2.1567032 -0.59848887
v 0.00043684244 1.5158608 -0.68122
v -0.048641384 6.1252537 0.026315987
v -0.0034567714 7.3554344 0.40855592
v 0.23413908 6.1014132 0.29884428
v -0.0034567714 4.362144 -0.3417861
v 0.37057203 4.448989 -0.20244867
v 0.59845746 4.200913 0.13257354
v 0.00043684244 2.1641607 -0.6837634
v 0.43815267 2.1567032 -0.59848887
v 0.4955283 1.4411287 -0.52637094
v 0.38433307 0.8051142 -0.14500237
v 0.7828696 1.4639094 -0.087359846
v 0.75858957 2.1363168 -0.36552447
v 0.87587637 2.1084807 -0.047293425
vt 0.72134805 0.846119
vt 0.7247565 0.8888206
vt 0.72655743 0.8465804
vt 0.72082716 0.8884783
vt 0.7170318 0.846119
vt 0.71756756 0.8884783
vt 0.71182245 0.8465804
vt 0.7136234 0.8888206
vt 0.7170318 0.846119
vt 0.71756756 0.8884783
vt 0.72134805 0.846119
vt 0.72082716 0.8884783
vt 0.72655743 0.8465804
vt 0.7247565 0.8888206
vt 0.8249691 0.020990735
vt 0.8885378 0.104340024
vt 0.89797413 0.0049459958
vt 0.9580601 0.09679394
vt 0.9336655 0.19742334
vt 0.98032624 0.19532472
vt 0.9619894 0.5012315
vt 0.87694335 0.5110697
vt 0.8809471 0.7362765
vt 0.88155735 0.1989266
vt 0.8249691 0.11492241
vt 0.82950866 0.72963834
vt 0.8249691 0.89914995
vt 0.7534524 0.75727755
vt 0.8255049 0.49661753
vt 0.77400696 0.51068276
vt 0.7154541 0.48901188
vt 0.824984 0.19958147
vt 0.7684255 0.19894147
vt 0.7613855 0.10435491
vt 0.7519492 0.0049162284
vt 0.6918186 0.09679394
vt 0.7162429 0.19745308
vt 0.66956735 0.195414
vn -0.8413919 0.03944552 0.53898394
vn -0.00090801716 0.03210503 0.99948406
vn -0.00090801716 0.03210503 0.99948406
vn -0.8395568 0.03944552 0.541838
vn -0.8413919 0.03944552 -0.53898394
vn -0.8395568 0.03944552 -0.541838
vn -0.00090801716 0.03210503 -0.99948406
vn -0.00090801716 0.03210503 -0.99948406
vn 0.84141093 0.03944552 -0.53895426
vn 0.8395758 0.03944552 -0.54180855
vn 0.84141093 0.03944552 0.53895426
vn 0.8395758 0.03944552 0.54180855
vn -0.00090801716 0.03210503 0.99948406
vn -0.00090801716 0.03210503 0.99948406
vn -0.00090801716 -0.4707172 -0.8822837
vn -0.56979454 -0.25784355 -0.780289
vn -0.6376939 -0.47438744 -0.6068798
vn -0.8303813 -0.27435958 -0.4849678
vn -0.8046895 0.028434813 -0.59301454
vn -0.9386531 0.017424107 -0.34442234
vn -0.8725889 0.171574 -0.4573303
vn -0.6175076 0.18625498 -0.76419467
vn -0.701923 0.2302978 -0.67399335
vn -0.41747975 0.059631824 -0.9067275
vn -0.00090801716 -0.14590138 -0.9892987
vn -0.013753891 0.3073727 -0.9514898
vn 0.008267522 0.29636204 -0.95503986
vn 0.701942 0.22662747 -0.67521656
vn 0.00092709064 0.18074954 -0.98352873
vn 0.623032 0.20644116 -0.7544622
vn 0.87444305 0.18625498 -0.44794914
vn 0.00092709064 0.061466932 -0.9981087
vn 0.41749877 0.061466932 -0.9065962
vn 0.56981355 -0.25784355 -0.7802751
vn 0.6377129 -0.47438744 -0.6068598
vn 0.8304002 -0.27435958 -0.48493534
vn 0.8047086 0.03026992 -0.5928978
vn 0.9386722 0.019259214 -0.34427255
g febg_oldcastle_001_tree_02_0
f 3/3/3 2/2/2 1/1/1
f 2/2/2 4/4/4 1/1/1
f 1/1/1 4/4/4 5/5/5
f 4/4/4 6/6/6 5/5/5
f 5/5/5 6/6/6 7/7/7
f 6/6/6 8/8/8 7/7/7
f 7/7/7 8/8/8 9/9/9
f 8/8/8 10/10/10 9/9/9
f 9/9/9 10/10/10 11/11/11
f 10/10/10 12/12/12 11/11/11
f 11/11/11 12/12/12 13/13/13
f 12/12/12 14/14/14 13/13/13
g febg_oldcastle_001_tree_02_1
f 17/17/17 16/16/16 15/15/15
f 17/17/17 18/18/18 16/16/16
f 18/18/18 19/19/19 16/16/16
f 18/18/18 20/20/20 19/19/19
f 20/20/20 21/21/21 19/19/19
f 21/21/21 22/22/22 19/19/19
f 21/21/21 23/23/23 22/22/22
f 16/16/16 19/19/19 24/24/24
f 19/19/19 22/22/22 24/24/24
f 15/15/15 16/16/16 25/25/25
f 16/16/16 24/24/24 25/25/25
f 23/23/23 26/26/26 22/22/22
f 23/23/23 27/27/27 26/26/26
f 27/27/27 28/28/28 26/26/26
f 22/22/22 29/29/29 24/24/24
f 22/22/22 26/26/26 29/29/29
f 28/28/28 30/30/30 26/26/26
f 26/26/26 30/30/30 29/29/29
f 28/28/28 31/31/31 30/30/30
f 29/29/29 32/32/32 24/24/24
f 24/24/24 32/32/32 25/25/25
f 33/33/33 32/32/32 29/29/29
f 30/30/30 33/33/33 29/29/29
f 25/25/25 32/32/32 33/33/33
f 34/34/34 15/15/15 25/25/25
f 34/34/34 25/25/25 33/33/33
f 35/35/35 15/15/15 34/34/34
f 36/36/36 35/35/35 34/34/34
f 31/31/31 37/37/37 30/30/30
f 30/30/30 37/37/37 33/33/33
f 37/37/37 34/34/34 33/33/33
f 36/36/36 34/34/34 37/37/37
f 31/31/31 38/38/38 37/37/37
f 38/38/38 36/36/36 37/37/37
