g febg_coinrush_001_coin_wineglass_01
v -0.09561199 -0.42411077 -0.16560718
v -0.1539802 -0.25604215 -1.758337E-06
v -0.19122487 -0.42411077 -1.758337E-06
v -0.076988816 -0.25604215 -0.13335359
v 0.09561223 -0.42411077 -0.16560718
v -0.18675637 -0.08286595 -1.1920929E-07
v 0.07698989 -0.25604215 -0.13335359
v 0.19122595 -0.42411077 -1.758337E-06
v -0.093376875 -0.08286595 -0.16173646
v -0.059671283 0.030881524 -0.103354484
v -0.11934185 0.030881524 -1.758337E-06
v -0.02825573 0.060195476 -1.1920929E-07
v -0.014126986 0.060195476 -0.02447021
v -0.020921975 0.36391973 -1.1920929E-07
v -0.0104601085 0.36391973 -0.018116087
v 0.059669107 0.030881524 -0.103354484
v 0.014128059 0.060195476 -0.02447021
v 0.11934295 0.030881524 -9.536743E-07
v 0.010457963 0.36391973 -0.018116087
v 0.09337798 -0.08286595 -0.16173726
v 0.028253585 0.060195476 -1.1920929E-07
v 0.020916581 0.36391896 -1.1920929E-07
v 0.010457963 0.36391896 0.018115014
v 0.014128059 0.060195476 0.024469137
v -0.010462552 0.36391973 0.018115014
v 0.15398127 -0.25604215 -1.758337E-06
v -0.014126986 0.060195476 0.024469137
v -0.020921975 0.36391973 -1.1920929E-07
v -0.02825573 0.060195476 -1.1920929E-07
v 0.059669107 0.030881524 0.10335177
v -0.059671283 0.030881524 0.10335177
v -0.11934185 0.030881524 -1.758337E-06
v -0.18675637 -0.08286595 -1.1920929E-07
v 0.1867542 -0.08286595 -1.758337E-06
v 0.09337798 -0.08286595 0.16173458
v 0.07698989 -0.25604215 0.13335007
v 0.09561223 -0.42411077 0.16560447
v -0.093376875 -0.08286595 0.16173458
v -0.076992035 -0.25604215 0.13335007
v -0.09561199 -0.42411077 0.16560447
v -0.1539802 -0.25604215 -1.758337E-06
v -0.19122487 -0.42411077 -1.758337E-06
v -0.0104601085 0.36391973 -0.018116087
v -0.22378182 0.3971125 -1.1920929E-07
v -0.020921975 0.36391973 -1.1920929E-07
v -0.010462552 0.36391973 0.018115014
v -0.11188924 0.3971125 -0.19379753
v -0.11189085 0.3971125 0.19379729
v 0.010457963 0.36391973 -0.018116087
v 0.010457963 0.36391896 0.018115014
v 0.11189273 0.3971125 -0.19379835
v 0.11188707 0.39711332 0.19379729
v 0.020916581 0.36391896 -1.1920929E-07
v 0.22377804 0.3971125 -1.1920929E-07
v -0.11188924 0.3971125 -0.19379753
v -0.2237786 0.42411053 -1.1920929E-07
v -0.22378182 0.3971125 -1.1920929E-07
v -0.11189085 0.3971125 0.19379729
v -0.111885965 0.42411053 -0.19379753
v 0.11189273 0.3971125 -0.19379835
v -0.11189085 0.4241113 0.19379729
v 0.11188707 0.39711332 0.19379729
v 0.111891925 0.4241113 -0.19379835
v 0.22377804 0.3971125 -1.1920929E-07
v 9.536743E-07 0.4241113 6.854534E-07
v 0.11188948 0.4241113 0.19379729
v 0.22377804 0.4241113 -1.1920929E-07
vt 0.19227976 0.32737666
vt 0.21076275 0.3126143
vt 0.19469514 0.3090437
vt 0.20878243 0.3281268
vt 0.19227976 0.34531957
vt 0.22935078 0.31249425
vt 0.20878243 0.34456947
vt 0.19469514 0.36365256
vt 0.22471502 0.32850185
vt 0.23587683 0.33085725
vt 0.24174277 0.32161573
vt 0.24534336 0.33135232
vt 0.24415816 0.3343378
vt 0.25528997 0.33400774
vt 0.25488493 0.33559802
vt 0.23587683 0.34183902
vt 0.24415816 0.33835846
vt 0.24174277 0.3510805
vt 0.25488493 0.33711326
vt 0.22471502 0.3442094
vt 0.24534336 0.34135893
vt 0.25528997 0.3387035
vt 0.25488493 0.33711326
vt 0.24415816 0.33835846
vt 0.25488493 0.33559802
vt 0.21076275 0.36008197
vt 0.24415816 0.3343378
vt 0.25528997 0.33400774
vt 0.24534336 0.33135232
vt 0.23587683 0.34183902
vt 0.23587683 0.33085725
vt 0.24174277 0.32161573
vt 0.22935078 0.31249425
vt 0.22935078 0.36020198
vt 0.22471502 0.3442094
vt 0.20878243 0.34456947
vt 0.19227976 0.34531957
vt 0.22471502 0.32850185
vt 0.20878243 0.3281268
vt 0.19227976 0.32737666
vt 0.21076275 0.3126143
vt 0.19469514 0.3090437
vt 0.4028989 0.18422346
vt 0.41421074 0.1832033
vt 0.40348402 0.1832033
vt 0.4028989 0.18422346
vt 0.40814978 0.19346495
vt 0.40814978 0.19346495
vt 0.40174374 0.18422346
vt 0.40174374 0.18422346
vt 0.39649287 0.19346495
vt 0.39649287 0.19346495
vt 0.40117365 0.1832033
vt 0.3904469 0.1832033
vt 0.3460697 0.22189456
vt 0.3368132 0.24258292
vt 0.33412775 0.24258292
vt 0.3460697 0.22189456
vt 0.3472099 0.22451998
vt 0.3699686 0.22189456
vt 0.3472099 0.22451998
vt 0.3699686 0.22189456
vt 0.3688284 0.22451998
vt 0.38276565 0.24258292
vt 0.35802665 0.24258292
vt 0.3688284 0.22451998
vt 0.37964514 0.24258292
vn -0.48781645 0.21608555 -0.845779
vn -0.99986076 0.016683646 -0
vn -0.97638214 0.21605045 -0
vn -0.4995458 0.016685963 -0.8661267
vn 0.48767763 0.21608555 -0.8458591
vn -0.9875471 0.15732343 -0
vn 0.49940705 0.016685963 -0.86620677
vn 0.9763757 0.21607971 -0
vn -0.49368107 0.15743864 -0.85527307
vn -0.34315395 0.72826886 -0.59318614
vn -0.68526113 0.72826886 -0.0064547383
vn -0.70676494 0.70676494 -0.031091288
vn -0.3529284 0.70676494 -0.6131271
vn -0.6461045 -0.763249 -0
vn -0.32360494 -0.76331824 -0.5591289
vn 0.3430152 0.72826886 -0.59326637
vn 0.3547446 0.70676494 -0.6120781
vn 0.6851224 0.72826886 -0.01522506
vn 0.32346624 -0.76331824 -0.55920917
vn 0.4935423 0.15743864 -0.8553532
vn 0.7080136 0.7061989 -0
vn 0.64602363 -0.7633174 -0
vn 0.32346624 -0.76331824 0.55920917
vn 0.3547446 0.70676494 0.6120781
vn -0.32360494 -0.76331824 0.5591289
vn 0.99986076 0.01668596 -0
vn -0.3529284 0.70676494 0.6131271
vn -0.6461045 -0.763249 -0
vn -0.70676494 0.70676494 -0.031091288
vn 0.3430152 0.72826886 0.59326637
vn -0.34315395 0.72826886 0.59318614
vn -0.68526113 0.72826886 -0.0064547383
vn -0.9875471 0.15732343 -0
vn 0.9875437 0.15734498 -0
vn 0.4935423 0.15743864 0.8553532
vn 0.49940705 0.016685963 0.86620677
vn 0.48767763 0.21608555 0.8458591
vn -0.49368107 0.15743864 0.85527307
vn -0.4995458 0.016685963 0.8661267
vn -0.48781645 0.21608555 0.845779
vn -0.99986076 0.016683646 -0
vn -0.97638214 0.21605045 -0
vn -0.32360494 -0.76331824 -0.5591289
vn -0.8279686 -0.5600089 -0.029292805
vn -0.6461045 -0.763249 -0
vn -0.32360494 -0.76331824 0.5591289
vn -0.41353023 -0.5600089 -0.71790165
vn -0.41353023 -0.5600089 0.71790165
vn 0.32346624 -0.76331824 -0.55920917
vn 0.32346624 -0.76331824 0.55920917
vn 0.41339153 -0.5600089 -0.7179816
vn 0.41339153 -0.5600089 0.7179816
vn 0.64602363 -0.7633174 -0
vn 0.82782984 -0.5600089 -0.032981582
vn -0.41353023 -0.5600089 -0.71790165
vn -0.7920714 0.6104284 -0
vn -0.8279686 -0.5600089 -0.029292805
vn -0.41353023 -0.5600089 0.71790165
vn -0.39593625 0.6109749 -0.6855247
vn 0.41339153 -0.5600089 -0.7179816
vn -0.39593625 0.6109749 0.6855247
vn 0.41339153 -0.5600089 0.7179816
vn 0.39579743 0.6090201 -0.6873419
vn 0.82782984 -0.5600089 -0.032981582
vn 0.00090807676 0.99999964 -0
vn 0.39579743 0.6090201 0.6873419
vn 0.7926417 0.6090201 -0.028524257
g febg_coinrush_001_coin_wineglass_01_0
f 3/3/3 2/2/2 1/1/1
f 2/2/2 4/4/4 1/1/1
f 1/1/1 4/4/4 5/5/5
f 2/2/2 6/6/6 4/4/4
f 4/4/4 7/7/7 5/5/5
f 5/5/5 7/7/7 8/8/8
f 6/6/6 9/9/9 4/4/4
f 4/4/4 9/9/9 7/7/7
f 9/9/9 6/6/6 10/10/10
f 6/6/6 11/11/11 10/10/10
f 11/11/11 12/12/12 10/10/10
f 12/12/12 13/13/13 10/10/10
f 12/12/12 14/14/14 13/13/13
f 14/14/14 15/15/15 13/13/13
f 9/9/9 10/10/10 16/16/16
f 10/10/10 13/13/13 16/16/16
f 13/13/13 15/15/15 17/17/17
f 13/13/13 17/17/17 16/16/16
f 16/16/16 17/17/17 18/18/18
f 15/15/15 19/19/19 17/17/17
f 20/20/20 9/9/9 16/16/16
f 9/9/9 20/20/20 7/7/7
f 20/20/20 16/16/16 18/18/18
f 17/17/17 19/19/19 21/21/21
f 17/17/17 21/21/21 18/18/18
f 19/19/19 22/22/22 21/21/21
f 22/22/22 23/23/23 21/21/21
f 23/23/23 24/24/24 21/21/21
f 21/21/21 24/24/24 18/18/18
f 23/23/23 25/25/25 24/24/24
f 7/7/7 20/20/20 26/26/26
f 7/7/7 26/26/26 8/8/8
f 25/25/25 27/27/27 24/24/24
f 25/25/25 28/28/28 27/27/27
f 28/28/28 29/29/29 27/27/27
f 24/24/24 27/27/27 30/30/30
f 24/24/24 30/30/30 18/18/18
f 27/27/27 29/29/29 31/31/31
f 27/27/27 31/31/31 30/30/30
f 29/29/29 32/32/32 31/31/31
f 31/31/31 32/32/32 33/33/33
f 34/34/34 20/20/20 18/18/18
f 20/20/20 34/34/34 26/26/26
f 34/34/34 18/18/18 35/35/35
f 18/18/18 30/30/30 35/35/35
f 26/26/26 34/34/34 35/35/35
f 8/8/8 26/26/26 36/36/36
f 36/36/36 26/26/26 35/35/35
f 37/37/37 8/8/8 36/36/36
f 30/30/30 31/31/31 38/38/38
f 35/35/35 30/30/30 38/38/38
f 38/38/38 31/31/31 33/33/33
f 36/36/36 35/35/35 38/38/38
f 37/37/37 36/36/36 39/39/39
f 39/39/39 36/36/36 38/38/38
f 39/39/39 38/38/38 33/33/33
f 40/40/40 37/37/37 39/39/39
f 41/41/41 39/39/39 33/33/33
f 40/40/40 39/39/39 41/41/41
f 42/42/42 40/40/40 41/41/41
f 45/45/45 44/44/44 43/43/43
f 44/44/44 45/45/45 46/46/46
f 44/44/44 47/47/47 43/43/43
f 48/48/48 44/44/44 46/46/46
f 43/43/43 47/47/47 49/49/49
f 48/48/48 46/46/46 50/50/50
f 47/47/47 51/51/51 49/49/49
f 52/52/52 48/48/48 50/50/50
f 49/49/49 51/51/51 53/53/53
f 52/52/52 50/50/50 53/53/53
f 51/51/51 54/54/54 53/53/53
f 54/54/54 52/52/52 53/53/53
f 57/57/57 56/56/56 55/55/55
f 56/56/56 57/57/57 58/58/58
f 56/56/56 59/59/59 55/55/55
f 55/55/55 59/59/59 60/60/60
f 61/61/61 56/56/56 58/58/58
f 61/61/61 58/58/58 62/62/62
f 59/59/59 63/63/63 60/60/60
f 60/60/60 63/63/63 64/64/64
f 56/56/56 65/65/65 59/59/59
f 61/61/61 65/65/65 56/56/56
f 59/59/59 65/65/65 63/63/63
f 66/66/66 61/61/61 62/62/62
f 66/66/66 62/62/62 64/64/64
f 66/66/66 65/65/65 61/61/61
f 63/63/63 67/67/67 64/64/64
f 63/63/63 65/65/65 67/67/67
f 67/67/67 66/66/66 64/64/64
f 67/67/67 65/65/65 66/66/66
