g febg_coinrush_001_coin_drink_03
v 0.07643084 -0.00086571276 -0.07643084
v -3.993511E-06 0.5472267 -0.13241197
v -3.993511E-06 -0.00086668134 -0.10808911
v 0.0936275 0.5472267 -0.09363137
v 0.10808911 -0.00086571276 1.1920929E-07
v 0.040573172 0.63660747 -0.040573172
v 3.7550926E-06 0.63660747 -0.057376616
v 0.1324081 0.5472267 1.1920929E-07
v 0.07643084 -0.00086668134 0.07643108
v 0.027789965 0.8325085 -0.027786091
v 3.7550926E-06 0.8325085 -0.039294757
v 0.039302506 0.8325085 1.1920929E-07
v 0.057376616 0.63660747 1.1920929E-07
v 0.027789965 0.8325085 0.02778633
v 0.040573172 0.63660747 0.040573403
v 3.7550926E-06 0.8325085 0.039294988
v 0.09362459 0.5472267 0.093627736
v -7.867813E-06 -0.00086668134 0.10808934
v 3.7550926E-06 0.6366085 0.057376847
v -0.02778633 0.8325085 0.02778633
v -7.867813E-06 0.5472277 0.13241221
v -0.07643108 -0.00086668134 0.07643108
v -0.04056953 0.6366085 0.040573403
v -0.039294988 0.8325085 1.1920929E-07
v -0.09363161 0.5472277 0.093627736
v -0.10808934 -0.00086668134 1.1920929E-07
v -0.05738072 0.6366085 1.1920929E-07
v -0.02778633 0.8325085 -0.027789965
v -0.13241221 0.5472277 1.1920929E-07
v -0.07643108 -0.00086668134 -0.07643084
v -0.04056953 0.6366085 -0.040573172
v 3.7550926E-06 0.8325085 -0.039294757
v 3.7550926E-06 0.63660747 -0.057376616
v -0.09363161 0.5472277 -0.0936275
v -3.993511E-06 -0.00086668134 -0.10808911
v -3.993511E-06 0.5472267 -0.13241197
v 0.03163103 0.8831309 -0.031634904
v 0.044734806 0.8831309 -3.7550926E-06
v 0.03163103 0.8831309 0.031635135
v -1.1920929E-07 0.8831309 -0.044734806
v -1.1920929E-07 0.8831309 0.04473117
v -0.031635135 0.8831309 -0.03163878
v -0.031635135 0.8831309 0.031627387
v -0.04473892 0.8831309 -3.7550926E-06
v -1.1920929E-07 0.832679 -0.044734806
v -0.031635135 0.832679 -0.03163878
v 0.03163103 0.832679 -0.031634904
v -0.04473892 0.8831309 -3.7550926E-06
v 0.03163103 0.8831309 -0.031634904
v -0.04473892 0.832679 -3.7550926E-06
v 0.044734806 0.832679 -3.7550926E-06
v -0.031635135 0.8831309 0.031627387
v 0.044734806 0.8831309 -3.7550926E-06
v -0.031635135 0.832679 0.031627387
v -1.1920929E-07 0.8831309 0.04473117
v -1.1920929E-07 0.832679 0.04473117
v 0.03163103 0.832679 0.031635135
v 0.03163103 0.8831309 0.031635135
v -1.1920929E-07 0.832679 0.04473117
v -1.1920929E-07 0.8831309 0.04473117
vt 0.32738876 0.40664285
vt 0.38002837 0.41539344
vt 0.32738876 0.41539344
vt 0.38002837 0.40668818
vt 0.32738876 0.39866304
vt 0.39267817 0.4031819
vt 0.39267817 0.40679398
vt 0.38002837 0.39866304
vt 0.32738876 0.39069834
vt 0.40457234 0.40139854
vt 0.40457234 0.40425494
vt 0.40457234 0.39866304
vt 0.39267817 0.39866304
vt 0.40457234 0.39592752
vt 0.39267817 0.39414415
vt 0.40457234 0.39308622
vt 0.38002837 0.39063787
vt 0.32738876 0.3825825
vt 0.39267817 0.3905472
vt 0.40457234 0.39592752
vt 0.38002837 0.3825825
vt 0.32738876 0.39069834
vt 0.39267817 0.39414415
vt 0.40457234 0.39866304
vt 0.38002837 0.39063787
vt 0.32738876 0.39866304
vt 0.39267817 0.39866304
vt 0.40457234 0.40139854
vt 0.38002837 0.39866304
vt 0.32738876 0.40664285
vt 0.39267817 0.4031819
vt 0.40457234 0.40425494
vt 0.39267817 0.40679398
vt 0.38002837 0.40668818
vt 0.32738876 0.41539344
vt 0.38002837 0.41539344
vt 0.58476806 0.40071845
vt 0.5847076 0.40516174
vt 0.58782095 0.40836576
vt 0.58795696 0.39763534
vt 0.59226424 0.40836576
vt 0.59240025 0.39763534
vt 0.595438 0.40528265
vt 0.5954985 0.40083936
vt 0.58795696 0.38942882
vt 0.59240025 0.38942882
vt 0.59240025 0.38942882
vt 0.59684354 0.39763534
vt 0.59240025 0.39763534
vt 0.59684354 0.38942882
vt 0.59684354 0.38942882
vt 0.6012869 0.39763534
vt 0.59684354 0.39763534
vt 0.6012869 0.38942882
vt 0.6057302 0.39763534
vt 0.6057302 0.38942882
vt 0.6012869 0.38942882
vt 0.6012869 0.39763534
vt 0.6057302 0.38942882
vt 0.6057302 0.39763534
vn 0.70674455 -0.043988228 -0.7060999
vn -0.0009775162 0.29618752 -0.9551293
vn -0.0009775162 -0.043988228 -0.9990316
vn 0.67546403 0.29618752 -0.6752935
vn 0.9980445 -0.043988228 0.044409905
vn 0.64418346 0.41348958 -0.64347035
vn 0.0009775162 0.41348958 -0.91050833
vn 0.9550338 0.29618752 0.01354348
vn 0.70674455 -0.043988228 0.7060999
vn 0.7047895 0.09286404 -0.70331216
vn 0.0009775162 0.09286404 -0.9956783
vn 0.99586105 0.09088816 -0
vn 0.910068 0.41348958 -0.02833136
vn 0.7047895 0.09286404 0.70331216
vn 0.64418346 0.41348958 0.64347035
vn 0.0009775162 0.09286404 0.9956783
vn 0.67546403 0.29618752 0.6752935
vn -0.0009775162 -0.043988228 0.9990316
vn 0.0009775162 0.41348958 0.91050833
vn -0.7047895 0.09286404 0.70331216
vn -0.0009775162 0.29618752 0.9551293
vn -0.70674455 -0.043988228 0.7060999
vn -0.6441835 0.41348958 0.6434702
vn -0.99568236 0.09282608 -0
vn -0.67546403 0.29618752 0.6752935
vn -0.9980445 -0.043988228 -0.044409905
vn -0.91006804 0.41348958 -0.028329255
vn -0.7047895 0.09286404 -0.70331216
vn -0.9550338 0.29618752 -0.01354348
vn -0.70674455 -0.043988228 -0.7060999
vn -0.6441835 0.41348958 -0.6434702
vn 0.0009775162 0.09286404 -0.9956783
vn 0.0009775162 0.41348958 -0.91050833
vn -0.67546403 0.29618752 -0.6752935
vn -0.0009775162 -0.043988228 -0.9990316
vn -0.0009775162 0.29618752 -0.9551293
vn 0.5483868 0.6304983 -0.5493122
vn 0.776562 0.6300409 -0
vn 0.5483868 0.6304983 0.5493122
vn 0.0009775162 0.6304983 -0.77619004
vn -0.0009775162 0.6304983 0.77619004
vn -0.5483868 0.6304983 -0.5493122
vn -0.5483868 0.6304983 0.5493122
vn -0.776562 0.6300409 -0
vn 0.0009775162 0.0009775162 -0.99999905
vn -0.70674455 0.0009775162 -0.70746815
vn 0.70674455 0.0009775162 -0.70746815
vn -0.776562 0.6300409 -0
vn 0.5483868 0.6304983 -0.5493122
vn -0.9999995 0.0009775162 -0
vn 0.9999995 0.0009775162 -0
vn -0.5483868 0.6304983 0.5493122
vn 0.776562 0.6300409 -0
vn -0.70674455 0.0009775162 0.70746815
vn -0.0009775162 0.6304983 0.77619004
vn -0.0009775162 0.0009775162 0.99999905
vn 0.70674455 0.0009775162 0.70746815
vn 0.5483868 0.6304983 0.5493122
vn -0.0009775162 0.0009775162 0.99999905
vn -0.0009775162 0.6304983 0.77619004
g febg_coinrush_001_coin_drink_03_0
f 3/3/3 2/2/2 1/1/1
f 2/2/2 4/4/4 1/1/1
f 1/1/1 4/4/4 5/5/5
f 6/6/6 4/4/4 2/2/2
f 7/7/7 6/6/6 2/2/2
f 4/4/4 8/8/8 5/5/5
f 5/5/5 8/8/8 9/9/9
f 10/10/10 6/6/6 7/7/7
f 11/11/11 10/10/10 7/7/7
f 10/10/10 12/12/12 6/6/6
f 6/6/6 13/13/13 4/4/4
f 12/12/12 13/13/13 6/6/6
f 13/13/13 8/8/8 4/4/4
f 12/12/12 14/14/14 13/13/13
f 14/14/14 15/15/15 13/13/13
f 13/13/13 15/15/15 8/8/8
f 14/14/14 16/16/16 15/15/15
f 8/8/8 17/17/17 9/9/9
f 15/15/15 17/17/17 8/8/8
f 9/9/9 17/17/17 18/18/18
f 16/16/16 19/19/19 15/15/15
f 15/15/15 19/19/19 17/17/17
f 16/16/16 20/20/20 19/19/19
f 17/17/17 21/21/21 18/18/18
f 19/19/19 21/21/21 17/17/17
f 18/18/18 21/21/21 22/22/22
f 20/20/20 23/23/23 19/19/19
f 19/19/19 23/23/23 21/21/21
f 20/20/20 24/24/24 23/23/23
f 21/21/21 25/25/25 22/22/22
f 23/23/23 25/25/25 21/21/21
f 22/22/22 25/25/25 26/26/26
f 24/24/24 27/27/27 23/23/23
f 23/23/23 27/27/27 25/25/25
f 24/24/24 28/28/28 27/27/27
f 25/25/25 29/29/29 26/26/26
f 27/27/27 29/29/29 25/25/25
f 26/26/26 29/29/29 30/30/30
f 28/28/28 31/31/31 27/27/27
f 27/27/27 31/31/31 29/29/29
f 28/28/28 32/32/32 31/31/31
f 32/32/32 33/33/33 31/31/31
f 29/29/29 34/34/34 30/30/30
f 31/31/31 34/34/34 29/29/29
f 31/31/31 33/33/33 34/34/34
f 30/30/30 34/34/34 35/35/35
f 33/33/33 36/36/36 34/34/34
f 34/34/34 36/36/36 35/35/35
f 39/39/39 38/38/38 37/37/37
f 39/39/39 37/37/37 40/40/40
f 41/41/41 39/39/39 40/40/40
f 41/41/41 40/40/40 42/42/42
f 43/43/43 41/41/41 42/42/42
f 44/44/44 43/43/43 42/42/42
f 40/40/40 45/45/45 42/42/42
f 45/45/45 46/46/46 42/42/42
f 47/47/47 45/45/45 40/40/40
f 42/42/42 46/46/46 48/48/48
f 49/49/49 47/47/47 40/40/40
f 46/46/46 50/50/50 48/48/48
f 51/51/51 47/47/47 49/49/49
f 48/48/48 50/50/50 52/52/52
f 53/53/53 51/51/51 49/49/49
f 50/50/50 54/54/54 52/52/52
f 52/52/52 54/54/54 55/55/55
f 54/54/54 56/56/56 55/55/55
f 57/57/57 51/51/51 53/53/53
f 58/58/58 57/57/57 53/53/53
f 59/59/59 57/57/57 58/58/58
f 60/60/60 59/59/59 58/58/58
