g febg_mothership_001_simulator_01
v 0.5064209 0.11866784 -0.44280165
v 0.5064209 0.0024846792 -0.44280165
v 0.5064209 0.0024846792 0.19649887
v 0.5064209 0.11866784 0.19649887
v 0.4567644 0.11867392 -0.38253832
v 0.4567644 0.11867392 0.13621616
v -0.50642174 0.11866784 0.19629335
v -0.4567665 0.11867392 0.13604933
v 0.40573335 0.11952376 0.09248322
v -0.40573424 0.11952376 0.09234542
v -0.40573424 0.11952376 -0.33881986
v 0.40573335 0.11952376 -0.33881986
v -0.4567665 0.11867392 -0.38253832
v -0.50642174 0.11866784 -0.44280165
v 0.5064209 0.0024846792 -0.44280165
v -0.50642174 0.0024846792 -0.44280165
v -0.50642174 0.11866784 -0.44280165
v -0.50642174 0.0024846792 0.19629335
v -0.50642174 0.0024846792 -0.44280165
v -0.50642174 0.11866784 0.19629335
v -0.4567665 0.11867392 0.13604933
v -0.4567665 0.11867392 -0.38253832
v -0.40573424 0.11952376 0.09234542
v -0.40573424 0.11952376 -0.33881986
v 0.5064209 0.18432045 0.16316724
v 0.5064209 0.16651225 0.20679742
v 0.5064209 0.6880278 0.4202059
v 0.5064209 0.7058361 0.3765757
v 0.44661573 0.7433867 0.4428013
v -0.50642174 0.7056462 0.37649834
v -0.50642174 0.18432045 0.16316843
v 0.44661573 0.7611949 0.3991711
v -0.4466166 0.7432187 0.4427324
v -0.4466166 0.7610269 0.3991022
v -0.50642174 0.6878368 0.42012852
v -0.50642174 0.16651225 0.20679867
v 0.37047112 0.18367976 0.1714083
v 0.37047112 0.11685693 0.1426245
v 0.37047112 0.11685693 0.17540127
v 0.37047112 0.17221463 0.19808131
v 0.34614575 0.18367976 0.1714083
v 0.37047112 0.11685693 0.1426245
v 0.37047112 0.18367976 0.1714083
v 0.34614575 0.11685693 0.1426245
v 0.34614575 0.11685693 0.17534685
v 0.34614575 0.17221463 0.1980269
v -0.32539237 0.18367976 0.1714083
v -0.32539237 0.11685693 0.1426245
v -0.32539237 0.11685693 0.17540127
v -0.32539237 0.17221463 0.19808131
v -0.34971768 0.18367976 0.1714083
v -0.32539237 0.11685693 0.1426245
v -0.32539237 0.18367976 0.1714083
v -0.34971768 0.11685693 0.1426245
v -0.34971768 0.11685693 0.17534685
v -0.34971768 0.17221463 0.1980269
vt 0.91799223 0.5555744
vt 0.91100556 0.5555744
vt 0.91100556 0.5956385
vt 0.91799223 0.5956385
vt 0.9209499 0.5586075
vt 0.9209499 0.59207726
vt 0.9805405 0.5956385
vt 0.9775678 0.59207726
vt 0.9242999 0.5885311
vt 0.9745045 0.5885311
vt 0.9745045 0.56236494
vt 0.9242999 0.56236494
vt 0.9775678 0.5586075
vt 0.9805405 0.5555744
vt 0.91799223 0.54842174
vt 0.9805405 0.54842174
vt 0.91799223 0.5555744
vt 0.91100556 0.5956385
vt 0.91100556 0.5555744
vt 0.91799223 0.5956385
vt 0.9209499 0.59207726
vt 0.9209499 0.5586075
vt 0.9242999 0.5885311
vt 0.9242999 0.56236494
vt 0.11162501 0.7461165
vt 0.109120056 0.7461165
vt 0.109120056 0.7767041
vt 0.11162501 0.775693
vt 0.11414505 0.78201574
vt 0.16472691 0.775693
vt 0.16472691 0.7461165
vt 0.115337156 0.77880156
vt 0.16247849 0.78201574
vt 0.16134673 0.77880156
vt 0.16715641 0.77656823
vt 0.16715641 0.7461165
vt 0.98761773 0.52100307
vt 0.98761773 0.5405296
vt 0.9798011 0.53699857
vt 0.9798011 0.52100307
vt 0.98761773 0.52100307
vt 0.99484587 0.5405296
vt 0.99484587 0.52100307
vt 0.98761773 0.5405296
vt 0.9798011 0.53699857
vt 0.9798011 0.52100307
vt 0.98761773 0.52100307
vt 0.98761773 0.5405296
vt 0.9798011 0.53699857
vt 0.9798011 0.52100307
vt 0.98761773 0.52100307
vt 0.99484587 0.5405296
vt 0.99484587 0.52100307
vt 0.98761773 0.5405296
vt 0.9798011 0.53699857
vt 0.9798011 0.52100307
vn 0.5777123 0.5777123 -0.5766255
vn 0.70674455 0.0009775162 -0.70746815
vn 0.9999995 0.0009775162 -0
vn 0.70674455 0.70674455 0.03200431
vn 0.0029325373 0.9999957 -0
vn 0.0029325373 0.9999957 -0
vn -0.70674455 0.70674455 0.03200431
vn -0.0029325373 0.9999957 -0
vn 0.0068424568 0.99997663 -0
vn -0.0068424568 0.99997663 -0
vn -0.0068424568 0.99997663 -0
vn 0.0068424568 0.99997663 -0
vn -0.0029325373 0.9999957 -0
vn -0.5777123 0.5777123 -0.5766255
vn 0.70674455 0.0009775162 -0.70746815
vn -0.70674455 0.0009775162 -0.70746815
vn -0.5777123 0.5777123 -0.5766255
vn -0.9999995 0.0009775162 -0
vn -0.70674455 0.0009775162 -0.70746815
vn -0.70674455 0.70674455 0.03200431
vn -0.0029325373 0.9999957 -0
vn -0.0029325373 0.9999957 -0
vn -0.0068424568 0.99997663 -0
vn -0.0068424568 0.99997663 -0
vn 0.70674455 0.26881707 -0.65440774
vn 0.9999995 0.0009775162 -0
vn 0.9237532 0.3548385 0.14411676
vn 0.7165197 0.51319623 -0.4724713
vn 0.382209 0.855327 0.34975988
vn -0.7165197 0.51319623 -0.4724713
vn -0.70674455 0.26881707 -0.65440774
vn 0.29618752 0.9022479 -0.31340334
vn -0.38220906 0.855327 0.3497598
vn -0.29814255 0.9022479 -0.3115441
vn -0.92375326 0.3548385 0.14411655
vn -0.9999995 0.0009775162 -0
vn 0.70674455 0.28054726 -0.64946544
vn 0.59530765 0.31769288 -0.7380244
vn 0.9999995 0.0009775162 -0
vn 0.9999995 0.0009775162 -0
vn -0.70674455 0.28054726 -0.64946544
vn 0.59530765 0.31769288 -0.7380244
vn 0.70674455 0.28054726 -0.64946544
vn -0.5953076 0.31769288 -0.7380245
vn -0.9999995 0.0009775162 -0
vn -0.9999995 0.0009775162 -0
vn 0.70674455 0.28054726 -0.64946544
vn 0.59530765 0.31769288 -0.7380244
vn 0.9999995 0.0009775162 -0
vn 0.9999995 0.0009775162 -0
vn -0.70674455 0.28054726 -0.64946544
vn 0.59530765 0.31769288 -0.7380244
vn 0.70674455 0.28054726 -0.64946544
vn -0.5953076 0.31769288 -0.7380245
vn -0.9999995 0.0009775162 -0
vn -0.9999995 0.0009775162 -0
g febg_mothership_001_simulator_01_0
f 3/3/3 2/2/2 1/1/1
f 4/4/4 3/3/3 1/1/1
f 1/1/1 5/5/5 4/4/4
f 5/5/5 6/6/6 4/4/4
f 4/4/4 6/6/6 7/7/7
f 6/6/6 8/8/8 7/7/7
f 6/6/6 9/9/9 8/8/8
f 9/9/9 10/10/10 8/8/8
f 10/10/10 9/9/9 11/11/11
f 12/12/12 9/9/9 6/6/6
f 9/9/9 12/12/12 11/11/11
f 5/5/5 12/12/12 6/6/6
f 11/11/11 12/12/12 5/5/5
f 13/13/13 11/11/11 5/5/5
f 13/13/13 5/5/5 1/1/1
f 14/14/14 13/13/13 1/1/1
f 1/1/1 15/15/15 14/14/14
f 15/15/15 16/16/16 14/14/14
f 19/19/19 18/18/18 17/17/17
f 18/18/18 20/20/20 17/17/17
f 20/20/20 21/21/21 17/17/17
f 21/21/21 22/22/22 17/17/17
f 21/21/21 23/23/23 22/22/22
f 23/23/23 24/24/24 22/22/22
f 27/27/27 26/26/26 25/25/25
f 28/28/28 27/27/27 25/25/25
f 27/27/27 28/28/28 29/29/29
f 30/30/30 28/28/28 25/25/25
f 31/31/31 30/30/30 25/25/25
f 28/28/28 32/32/32 29/29/29
f 33/33/33 29/29/29 32/32/32
f 34/34/34 32/32/32 28/28/28
f 34/34/34 33/33/33 32/32/32
f 30/30/30 34/34/34 28/28/28
f 35/35/35 33/33/33 34/34/34
f 30/30/30 35/35/35 34/34/34
f 35/35/35 30/30/30 31/31/31
f 36/36/36 35/35/35 31/31/31
f 39/39/39 38/38/38 37/37/37
f 40/40/40 39/39/39 37/37/37
f 43/43/43 42/42/42 41/41/41
f 42/42/42 44/44/44 41/41/41
f 44/44/44 45/45/45 41/41/41
f 45/45/45 46/46/46 41/41/41
f 49/49/49 48/48/48 47/47/47
f 50/50/50 49/49/49 47/47/47
f 53/53/53 52/52/52 51/51/51
f 52/52/52 54/54/54 51/51/51
f 54/54/54 55/55/55 51/51/51
f 55/55/55 56/56/56 51/51/51
