g febg_tropical_001_drink_01
v -0.07643919 1.4901161E-08 0.076434344
v -6.7949295E-06 0.54811704 0.13241608
v -4.8577785E-06 1.4901161E-08 0.10809474
v -0.093638614 0.54811704 0.093631834
v -0.10809958 1.4901161E-08 1.4901161E-08
v -0.06958772 0.5954511 0.06958288
v -4.8577785E-06 0.5954511 0.098404974
v -2.9206276E-06 0.6375021 0.05737956
v -0.13242285 0.54811704 1.4901161E-08
v -0.07643919 1.4901161E-08 -0.07643433
v -0.09840982 0.5954511 1.4901161E-08
v -0.040576607 0.6375021 0.0405737
v -0.093638614 0.54811704 -0.093631804
v -4.8577785E-06 1.4901161E-08 -0.108094715
v -0.027790695 0.8334105 0.027788758
v -1.9520521E-06 0.8334105 0.03929898
v -0.039300933 0.8334105 1.4901161E-08
v -0.057382464 0.6375021 1.4901161E-08
v -0.027790695 0.8334105 -0.027788743
v -0.06958772 0.5954511 -0.069582865
v -0.040576607 0.6375021 -0.04057368
v -1.9520521E-06 0.8334105 -0.039298967
v -6.7949295E-06 0.54811704 -0.13241605
v 0.07642948 1.4901161E-08 -0.07643433
v -4.8577785E-06 0.5954511 -0.09840496
v -2.9206276E-06 0.6375021 -0.057379544
v 0.027786806 0.8334105 -0.027788743
v 0.09362599 0.54811704 -0.093631804
v 0.10808987 1.4901161E-08 1.4901161E-08
v 0.069578014 0.5954511 -0.069582865
v 0.040570773 0.6375021 -0.04057368
v 0.03929703 0.8334105 1.4901161E-08
v 0.13240927 0.54811704 1.4901161E-08
v 0.07642948 1.4901161E-08 0.076434344
v 0.09840011 0.5954511 1.4901161E-08
v 0.05737663 0.6375021 1.4901161E-08
v 0.027786806 0.8334105 0.027788758
v 0.09362599 0.54811704 0.093631834
v -4.8577785E-06 1.4901161E-08 0.10809474
v -6.7949295E-06 0.54811704 0.13241608
v -4.8577785E-06 0.5954511 0.098404974
v 0.069578014 0.5954511 0.06958288
v 0.040570773 0.6375021 0.0405737
v -1.9520521E-06 0.8334105 0.03929898
v -2.9206276E-06 0.6375021 0.05737956
v 0.031632267 0.8840346 -0.03163421
v 0.044736132 0.8840346 1.4901161E-08
v 0.031632267 0.8840346 0.031634226
v -1.9520521E-06 0.8840346 -0.04473807
v -1.9520521E-06 0.8840346 0.044738084
v -0.031636164 0.8840346 -0.03163421
v -0.031636164 0.8840346 0.031634226
v -0.04474002 0.8840346 1.4901161E-08
v -1.9520521E-06 0.83358115 -0.04473807
v -0.031636164 0.83358115 -0.03163421
v 0.031632267 0.83358115 -0.03163421
v -0.04474002 0.8840346 1.4901161E-08
v 0.031632267 0.8840346 -0.03163421
v -0.04474002 0.83358115 1.4901161E-08
v 0.044736132 0.83358115 1.4901161E-08
v -0.031636164 0.8840346 0.031634226
v 0.044736132 0.8840346 1.4901161E-08
v -0.031636164 0.83358115 0.031634226
v -1.9520521E-06 0.8840346 0.044738084
v -1.9520521E-06 0.83358115 0.044738084
v 0.031632267 0.83358115 0.031634226
v 0.031632267 0.8840346 0.031634226
v -1.9520521E-06 0.83358115 0.044738084
v -1.9520521E-06 0.8840346 0.044738084
vt 0.39996278 0.40314874
vt 0.40964258 0.464825
vt 0.40964258 0.40314874
vt 0.40002376 0.464825
vt 0.3904507 0.40314874
vt 0.3983012 0.4730414
vt 0.40534383 0.4730414
vt 0.4001457 0.47964194
vt 0.3904507 0.464825
vt 0.38095382 0.40314874
vt 0.3904507 0.4730414
vt 0.395847 0.47964194
vt 0.3808776 0.464825
vt 0.3704966 0.40314874
vt 0.39371285 0.49359
vt 0.39711222 0.49359
vt 0.3904507 0.49359
vt 0.3904507 0.47964194
vt 0.38718852 0.49359
vt 0.38260016 0.4730414
vt 0.38505438 0.47964194
vt 0.38378915 0.49359
vt 0.3704966 0.464825
vt 0.38095382 0.40314874
vt 0.37557277 0.4730414
vt 0.3807709 0.47964194
vt 0.38718852 0.49359
vt 0.3808776 0.464825
vt 0.3904507 0.40314874
vt 0.38260016 0.4730414
vt 0.38505438 0.47964194
vt 0.3904507 0.49359
vt 0.3904507 0.464825
vt 0.39996278 0.40314874
vt 0.3904507 0.4730414
vt 0.3904507 0.47964194
vt 0.39371285 0.49359
vt 0.40002376 0.464825
vt 0.40964258 0.40314874
vt 0.40964258 0.464825
vt 0.40534383 0.4730414
vt 0.3983012 0.4730414
vt 0.395847 0.47964194
vt 0.39711222 0.49359
vt 0.4001457 0.47964194
vt 0.40378898 0.4884833
vt 0.40374324 0.4929345
vt 0.40683773 0.49613568
vt 0.4069749 0.48540407
vt 0.41128892 0.49613568
vt 0.4114261 0.48540407
vt 0.41447484 0.49305645
vt 0.4145206 0.48860526
vt 0.4069749 0.4771877
vt 0.4114261 0.4771877
vt 0.4114261 0.4771877
vt 0.41586202 0.48540407
vt 0.4114261 0.48540407
vt 0.41586202 0.4771877
vt 0.41586202 0.4771877
vt 0.4203132 0.48540407
vt 0.41586202 0.48540407
vt 0.4203132 0.4771877
vt 0.42474917 0.48540407
vt 0.42474917 0.4771877
vt 0.4203132 0.4771877
vt 0.4203132 0.48540407
vt 0.42474917 0.4771877
vt 0.42474917 0.48540407
vn -0.70674455 -0.043988228 0.7060999
vn -0.0009775162 0.264907 0.96427345
vn -0.0009775162 -0.043988228 0.9990316
vn -0.68132913 0.264907 0.6823598
vn -0.9980445 -0.043988228 -0.044409905
vn -0.5464318 0.63440835 0.5467526
vn -0.0009775162 0.63440835 0.7729975
vn -0.0009775162 0.45454526 0.8907231
vn -0.9643115 0.26477042 -0
vn -0.70674455 -0.043988228 -0.7060999
vn -0.7730856 0.63430166 -0
vn -0.6304983 0.45454526 0.62917453
vn -0.68132913 0.264907 -0.6823598
vn -0.0009775162 -0.043988228 -0.9990316
vn -0.7047895 0.09286404 0.70331216
vn -0.0009775162 0.09286404 0.9956783
vn -0.99568236 0.09282608 -0
vn -0.8905177 0.45454526 -0.019152205
vn -0.7047895 0.09286404 -0.70331216
vn -0.5464318 0.63440835 -0.5467526
vn -0.6304983 0.45454526 -0.62917453
vn -0.0009775162 0.09286404 -0.9956783
vn -0.0009775162 0.264907 -0.96427345
vn 0.70674455 -0.043988228 -0.7060999
vn -0.0009775162 0.63440835 -0.7729975
vn -0.0009775162 0.45454526 -0.8907231
vn 0.7047895 0.09286404 -0.70331216
vn 0.68132913 0.264907 -0.6823598
vn 0.9980445 -0.043988228 -0.044409905
vn 0.5464318 0.63440835 -0.5467526
vn 0.63049823 0.45454526 -0.62917453
vn 0.99568236 0.09282608 -0
vn 0.9643115 0.26477042 -0
vn 0.70674455 -0.043988228 0.7060999
vn 0.7730856 0.63430166 -0
vn 0.89051765 0.45454526 -0.019155318
vn 0.7047895 0.09286404 0.70331216
vn 0.68132913 0.264907 0.6823598
vn -0.0009775162 -0.043988228 0.9990316
vn -0.0009775162 0.264907 0.96427345
vn -0.0009775162 0.63440835 0.7729975
vn 0.5464318 0.63440835 0.5467526
vn 0.63049823 0.45454526 0.62917453
vn -0.0009775162 0.09286404 0.9956783
vn -0.0009775162 0.45454526 0.8907231
vn 0.5483868 0.6304983 -0.5493122
vn 0.776562 0.6300409 -0
vn 0.5483868 0.6304983 0.5493122
vn -0.0009775162 0.6304983 -0.77619004
vn -0.0009775162 0.6304983 0.77619004
vn -0.5483868 0.6304983 -0.5493122
vn -0.5483868 0.6304983 0.5493122
vn -0.776562 0.6300409 -0
vn -0.0009775162 0.0009775162 -0.99999905
vn -0.70674455 0.0009775162 -0.70746815
vn 0.70674455 0.0009775162 -0.70746815
vn -0.776562 0.6300409 -0
vn 0.5483868 0.6304983 -0.5493122
vn -0.9999995 0.0009775162 -0
vn 0.9999995 0.0009775162 -0
vn -0.5483868 0.6304983 0.5493122
vn 0.776562 0.6300409 -0
vn -0.70674455 0.0009775162 0.70746815
vn -0.0009775162 0.6304983 0.77619004
vn -0.0009775162 0.0009775162 0.99999905
vn 0.70674455 0.0009775162 0.70746815
vn 0.5483868 0.6304983 0.5493122
vn -0.0009775162 0.0009775162 0.99999905
vn -0.0009775162 0.6304983 0.77619004
g febg_tropical_001_drink_01_0
f 3/3/3 2/2/2 1/1/1
f 2/2/2 4/4/4 1/1/1
f 1/1/1 4/4/4 5/5/5
f 6/6/6 4/4/4 2/2/2
f 7/7/7 6/6/6 2/2/2
f 6/6/6 7/7/7 8/8/8
f 4/4/4 9/9/9 5/5/5
f 5/5/5 9/9/9 10/10/10
f 6/6/6 11/11/11 4/4/4
f 11/11/11 9/9/9 4/4/4
f 12/12/12 6/6/6 8/8/8
f 11/11/11 6/6/6 12/12/12
f 9/9/9 13/13/13 10/10/10
f 10/10/10 13/13/13 14/14/14
f 15/15/15 12/12/12 8/8/8
f 16/16/16 15/15/15 8/8/8
f 15/15/15 17/17/17 12/12/12
f 17/17/17 18/18/18 12/12/12
f 18/18/18 11/11/11 12/12/12
f 17/17/17 19/19/19 18/18/18
f 11/11/11 20/20/20 9/9/9
f 20/20/20 11/11/11 18/18/18
f 20/20/20 13/13/13 9/9/9
f 19/19/19 21/21/21 18/18/18
f 21/21/21 20/20/20 18/18/18
f 19/19/19 22/22/22 21/21/21
f 13/13/13 23/23/23 14/14/14
f 14/14/14 23/23/23 24/24/24
f 20/20/20 25/25/25 13/13/13
f 25/25/25 20/20/20 21/21/21
f 25/25/25 23/23/23 13/13/13
f 22/22/22 26/26/26 21/21/21
f 26/26/26 25/25/25 21/21/21
f 22/22/22 27/27/27 26/26/26
f 23/23/23 28/28/28 24/24/24
f 24/24/24 28/28/28 29/29/29
f 25/25/25 30/30/30 23/23/23
f 30/30/30 25/25/25 26/26/26
f 30/30/30 28/28/28 23/23/23
f 27/27/27 31/31/31 26/26/26
f 31/31/31 30/30/30 26/26/26
f 27/27/27 32/32/32 31/31/31
f 28/28/28 33/33/33 29/29/29
f 29/29/29 33/33/33 34/34/34
f 30/30/30 35/35/35 28/28/28
f 35/35/35 30/30/30 31/31/31
f 35/35/35 33/33/33 28/28/28
f 32/32/32 36/36/36 31/31/31
f 36/36/36 35/35/35 31/31/31
f 32/32/32 37/37/37 36/36/36
f 33/33/33 38/38/38 34/34/34
f 34/34/34 38/38/38 39/39/39
f 38/38/38 40/40/40 39/39/39
f 41/41/41 40/40/40 38/38/38
f 35/35/35 42/42/42 33/33/33
f 42/42/42 38/38/38 33/33/33
f 42/42/42 35/35/35 36/36/36
f 42/42/42 41/41/41 38/38/38
f 37/37/37 43/43/43 36/36/36
f 43/43/43 42/42/42 36/36/36
f 41/41/41 42/42/42 43/43/43
f 37/37/37 44/44/44 43/43/43
f 45/45/45 41/41/41 43/43/43
f 44/44/44 45/45/45 43/43/43
f 48/48/48 47/47/47 46/46/46
f 48/48/48 46/46/46 49/49/49
f 50/50/50 48/48/48 49/49/49
f 50/50/50 49/49/49 51/51/51
f 52/52/52 50/50/50 51/51/51
f 53/53/53 52/52/52 51/51/51
f 49/49/49 54/54/54 51/51/51
f 54/54/54 55/55/55 51/51/51
f 56/56/56 54/54/54 49/49/49
f 51/51/51 55/55/55 57/57/57
f 58/58/58 56/56/56 49/49/49
f 55/55/55 59/59/59 57/57/57
f 60/60/60 56/56/56 58/58/58
f 57/57/57 59/59/59 61/61/61
f 62/62/62 60/60/60 58/58/58
f 59/59/59 63/63/63 61/61/61
f 61/61/61 63/63/63 64/64/64
f 63/63/63 65/65/65 64/64/64
f 66/66/66 60/60/60 62/62/62
f 67/67/67 66/66/66 62/62/62
f 68/68/68 66/66/66 67/67/67
f 69/69/69 68/68/68 67/67/67
