g febg_coinrush_001_flowerpot_03
v 0.14143756 1.4901161E-07 -6.4074993E-07
v 0.1000118 1.4901161E-07 0.10001053
v 0.14780389 0.49670434 0.1478026
v 0.20902531 0.49670434 1.4901161E-07
v 0.1000118 1.4901161E-07 -0.10001102
v 0.1273352 0.5418375 1.4901161E-07
v 0.090039805 0.5418375 0.09003852
v 0.090039805 0.5418375 -0.090039015
v 0.14780389 0.49670434 -0.14780231
v 1.4305115E-06 1.4901161E-07 -0.14143756
v 1.4305115E-06 0.5418375 -0.12733442
v 1.4305115E-06 0.49670434 -0.20902452
v -0.100009724 1.4901161E-07 -0.10001102
v -0.09003772 0.5418375 -0.090039015
v -0.14780103 0.49670434 -0.14780231
v -0.14143549 1.4901161E-07 -6.4074993E-07
v -0.12733234 0.5418375 1.4901161E-07
v -0.20902322 0.49670434 1.4901161E-07
v -0.100009724 1.4901161E-07 0.10001053
v -0.09003772 0.5418375 0.09003852
v -0.14780103 0.49670434 0.1478026
v 1.4305115E-06 1.4901161E-07 0.14143626
v 1.4305115E-06 0.5418375 0.12733392
v 1.4305115E-06 0.49670434 0.20902403
v 0.1000118 1.4901161E-07 0.10001053
v 0.090039805 0.5418375 0.09003852
v 0.14780389 0.49670434 0.1478026
v 0.13528898 0.6182864 0.13528769
v 1.4305115E-06 0.56541485 1.4901161E-07
v 0.19132754 0.6182864 1.4901161E-07
v 1.4305115E-06 0.6182864 0.19132628
v 0.13528898 0.6182864 -0.1352882
v -0.13528691 0.6182864 0.13528769
v -0.19132547 0.6182864 1.4901161E-07
v 1.4305115E-06 0.6182864 -0.19132677
v -0.13528691 0.6182864 -0.1352882
v 1.4305115E-06 0.5418375 -0.12733442
v -0.09003772 0.5418375 -0.090039015
v 0.090039805 0.5418375 -0.090039015
v -0.19132547 0.6182864 1.4901161E-07
v 0.13528898 0.6182864 -0.1352882
v -0.12733234 0.5418375 1.4901161E-07
v 0.1273352 0.5418375 1.4901161E-07
v -0.13528691 0.6182864 0.13528769
v 0.19132754 0.6182864 1.4901161E-07
v -0.09003772 0.5418375 0.09003852
v 0.090039805 0.5418375 0.09003852
v 1.4305115E-06 0.6182864 0.19132628
v 0.13528898 0.6182864 0.13528769
v 1.4305115E-06 0.5418375 0.12733392
vt 0.8815972 0.39895266
vt 0.8815972 0.38835317
vt 0.9348046 0.38835317
vt 0.9348046 0.39895266
vt 0.8815972 0.4094922
vt 0.9425256 0.39895266
vt 0.9425256 0.38835317
vt 0.9425256 0.4094922
vt 0.9348046 0.4094922
vt 0.8815972 0.42067638
vt 0.9425256 0.42067638
vt 0.9348046 0.42067638
vt 0.8815972 0.4094922
vt 0.9425256 0.4094922
vt 0.9348046 0.4094922
vt 0.8815972 0.3988777
vt 0.9425256 0.3988777
vt 0.9348046 0.3988777
vt 0.8815972 0.38835317
vt 0.9425256 0.38835317
vt 0.9348046 0.38835317
vt 0.8815972 0.37716895
vt 0.9425256 0.37716895
vt 0.9348046 0.37716895
vt 0.8815972 0.38835317
vt 0.9425256 0.38835317
vt 0.9348046 0.38835317
vt 0.9789267 0.42341998
vt 0.96556866 0.41632864
vt 0.97000635 0.43078116
vt 0.9800212 0.41190594
vt 0.95849234 0.42967173
vt 0.97266 0.40298557
vt 0.96114594 0.40189114
vt 0.95168585 0.42067638
vt 0.95168585 0.4094922
vt 0.9425256 0.42067638
vt 0.9425256 0.4094922
vt 0.9425256 0.4094922
vt 0.95168585 0.3988777
vt 0.95168585 0.4094922
vt 0.9425256 0.3988777
vt 0.9425256 0.39895266
vt 0.95168585 0.38835317
vt 0.95168585 0.39895266
vt 0.9425256 0.38835317
vt 0.9425256 0.38835317
vt 0.95168585 0.37716895
vt 0.95168585 0.38835317
vt 0.9425256 0.37716895
vn 0.9908688 -0.13458115 -0.008180077
vn 0.70089865 -0.13458115 0.7004491
vn 0.6483537 0.40059865 0.64742434
vn 0.91635996 0.40035543 -0
vn 0.70089865 -0.13458115 -0.7004491
vn 0.9733465 0.22933942 -0
vn 0.6872759 0.22934115 0.68924195
vn 0.6872759 0.22934115 -0.68924195
vn 0.6483537 0.40059865 -0.64742434
vn 0.00029969215 -0.13458115 -0.99090254
vn 0.00029969215 0.22934115 -0.97334605
vn 0.00029969215 0.40059865 -0.91625357
vn -0.7002994 -0.13458115 -0.70104825
vn -0.6886227 0.22934115 -0.6878964
vn -0.64775443 0.40059865 -0.64802384
vn -0.9902694 -0.13458115 -0.03541691
vn -0.9727545 0.22934115 -0.03393176
vn -0.91626394 0.40057528 -0
vn -0.7002994 -0.13458115 0.70104825
vn -0.6886227 0.22934115 0.6878964
vn -0.64775443 0.40059865 0.64802384
vn 0.00029969215 -0.13458115 0.99090254
vn 0.00029969215 0.22934115 0.97334605
vn 0.00029969215 0.40059865 0.91625357
vn 0.70089865 -0.13458115 0.7004491
vn 0.6872759 0.22934115 0.68924195
vn 0.6483537 0.40059865 0.64742434
vn 0.62889266 0.45703578 0.6289772
vn 0.00029969215 1 -0
vn 0.8894949 0.4569452 -0
vn 0.00029969215 0.45703578 0.8894482
vn 0.62889266 0.45703578 -0.6289772
vn -0.6282933 0.45703578 0.6295759
vn -0.8890718 0.45703578 -0.025876027
vn 0.00029969215 0.45703578 -0.8894482
vn -0.6282933 0.45703578 -0.6295759
vn 0.00029969215 0.22934115 -0.97334605
vn -0.6886227 0.22934115 -0.6878964
vn 0.6872759 0.22934115 -0.68924195
vn -0.8890718 0.45703578 -0.025876027
vn 0.62889266 0.45703578 -0.6289772
vn -0.9727545 0.22934115 -0.03393176
vn 0.9733465 0.22933942 -0
vn -0.6282933 0.45703578 0.6295759
vn 0.8894949 0.4569452 -0
vn -0.6886227 0.22934115 0.6878964
vn 0.6872759 0.22934115 0.68924195
vn 0.00029969215 0.45703578 0.8894482
vn 0.62889266 0.45703578 0.6289772
vn 0.00029969215 0.22934115 0.97334605
g febg_coinrush_001_flowerpot_03_0
f 3/3/3 2/2/2 1/1/1
f 4/4/4 3/3/3 1/1/1
f 4/4/4 1/1/1 5/5/5
f 3/3/3 4/4/4 6/6/6
f 7/7/7 3/3/3 6/6/6
f 6/6/6 4/4/4 8/8/8
f 9/9/9 4/4/4 5/5/5
f 4/4/4 9/9/9 8/8/8
f 9/9/9 5/5/5 10/10/10
f 8/8/8 9/9/9 11/11/11
f 12/12/12 9/9/9 10/10/10
f 9/9/9 12/12/12 11/11/11
f 12/12/12 10/10/10 13/13/13
f 11/11/11 12/12/12 14/14/14
f 15/15/15 12/12/12 13/13/13
f 12/12/12 15/15/15 14/14/14
f 15/15/15 13/13/13 16/16/16
f 14/14/14 15/15/15 17/17/17
f 18/18/18 15/15/15 16/16/16
f 15/15/15 18/18/18 17/17/17
f 18/18/18 16/16/16 19/19/19
f 17/17/17 18/18/18 20/20/20
f 21/21/21 18/18/18 19/19/19
f 18/18/18 21/21/21 20/20/20
f 21/21/21 19/19/19 22/22/22
f 20/20/20 21/21/21 23/23/23
f 24/24/24 21/21/21 22/22/22
f 21/21/21 24/24/24 23/23/23
f 24/24/24 22/22/22 25/25/25
f 23/23/23 24/24/24 26/26/26
f 27/27/27 24/24/24 25/25/25
f 24/24/24 27/27/27 26/26/26
f 30/30/30 29/29/29 28/28/28
f 28/28/28 29/29/29 31/31/31
f 32/32/32 29/29/29 30/30/30
f 31/31/31 29/29/29 33/33/33
f 33/33/33 29/29/29 34/34/34
f 35/35/35 29/29/29 32/32/32
f 34/34/34 29/29/29 36/36/36
f 36/36/36 29/29/29 35/35/35
f 35/35/35 37/37/37 36/36/36
f 37/37/37 38/38/38 36/36/36
f 39/39/39 37/37/37 35/35/35
f 36/36/36 38/38/38 40/40/40
f 41/41/41 39/39/39 35/35/35
f 38/38/38 42/42/42 40/40/40
f 43/43/43 39/39/39 41/41/41
f 40/40/40 42/42/42 44/44/44
f 45/45/45 43/43/43 41/41/41
f 42/42/42 46/46/46 44/44/44
f 47/47/47 43/43/43 45/45/45
f 44/44/44 46/46/46 48/48/48
f 49/49/49 47/47/47 45/45/45
f 46/46/46 50/50/50 48/48/48
f 50/50/50 47/47/47 49/49/49
f 48/48/48 50/50/50 49/49/49
