g febg_laboratory_001_signal_01
v 0.10612181 2.4887013 0.049506187
v 4.0382147E-05 2.4887013 0.15558761
v -0.106041014 2.4887013 0.049506187
v 4.0382147E-05 2.4887013 -0.05657521
v 4.0382147E-05 1.9539565 -0.05657521
v 0.10612181 2.4887013 0.049506187
v 4.0382147E-05 2.4887013 -0.05657521
v 0.10612181 1.9539565 0.049506187
v 4.0382147E-05 1.8117915 -0.105839595
v 4.0382147E-05 1.9539565 0.15558761
v 4.0382147E-05 2.4887013 0.15558761
v 0.1553862 1.8117915 0.049506187
v 4.0382147E-05 1.7105428 -0.08628328
v 4.0382147E-05 1.8117915 0.20485201
v -0.106041014 1.9539565 0.049506187
v -0.106041014 2.4887013 0.049506187
v 4.0382147E-05 2.4887013 -0.05657521
v 4.0382147E-05 1.9539565 -0.05657521
v -0.15530539 1.8117915 0.049506187
v -0.1357491 1.7105428 0.049506187
v 4.0382147E-05 1.8117915 -0.105839595
v 4.0382147E-05 1.7105428 -0.08628328
v 4.0382147E-05 1.637693 -0.017295957
v 4.0382147E-05 1.7105428 0.18529567
v 0.13582988 1.7105428 0.049506187
v 0.066842556 1.637693 0.049506187
v 4.0382147E-05 1.637693 -0.017295957
v 4.0382147E-05 1.4598424 -0.017295957
v 4.0382147E-05 1.637693 0.11630836
v -0.06676176 1.637693 0.049506187
v -0.06676176 1.4598424 0.049506187
v 4.0382147E-05 1.4598424 -0.017295957
v -0.033419818 1.4417268 0.049506187
v 4.0382147E-05 1.4417268 0.016045988
v 4.0382147E-05 0.23691723 0.016045988
v 4.0382147E-05 1.4598424 0.11630836
v 0.066842556 1.4598424 0.049506187
v 4.0382147E-05 1.4417268 0.016045988
v 4.0382147E-05 1.4417268 0.082963735
v 0.03349793 1.4417268 0.049506187
v 0.03349793 0.23691723 0.049506187
v 4.0382147E-05 0.23691723 0.016045988
v 4.0382147E-05 0.18031254 -0.024585217
v 0.07413182 0.18031254 0.049506187
v 4.0382147E-05 0.18031254 0.12359494
v 4.0382147E-05 0.23691723 0.082963735
v -0.07405102 0.18031254 0.049506187
v -0.033419818 0.23691723 0.049506187
v 4.0382147E-05 0.18031254 -0.024585217
v 0.25991946 0.095252275 0.32964036
v 0.066219 0.12682566 0.18774965
v 0.14716426 0.12691972 0.09016967
v 0.32108802 0.095252275 0.25674233
v 0.25991946 9.1314316E-05 0.32964036
v 0.32108802 9.1314316E-05 0.25674233
v 0.14716426 9.1314316E-05 0.09016967
v 0.066219 9.1314316E-05 0.18774965
v 0.066219 0.12682566 0.18774965
v 0.25991946 0.095252275 0.32964036
v 0.25991946 9.1314316E-05 0.32964036
v -0.33781126 0.095252275 0.22802606
v -0.15062329 0.12682566 0.0776473
v -0.0773167 0.12691972 0.181092
v -0.28322777 0.095252275 0.30597714
v -0.33781126 9.1314316E-05 0.22802606
v -0.28322777 9.1314316E-05 0.30597714
v -0.0773167 9.1314316E-05 0.181092
v -0.15062329 9.1314316E-05 0.0776473
v -0.15062329 0.12682566 0.0776473
v -0.33781126 0.095252275 0.22802606
v -0.33781126 9.1314316E-05 0.22802606
v 0.047589958 0.095252275 -0.32964054
v 0.06340489 0.12682566 -0.09005156
v -0.06337786 0.12691972 -0.089336604
v -0.047573686 0.095252275 -0.32964054
v 0.047589958 9.1314316E-05 -0.32964054
v -0.047573686 9.1314316E-05 -0.32964054
v -0.06337786 9.1314316E-05 -0.089336604
v 0.06340489 9.1314316E-05 -0.09005156
v 0.06340489 0.12682566 -0.09005156
v 0.047589958 0.095252275 -0.32964054
v 0.047589958 9.1314316E-05 -0.32964054
v 0.123490274 9.1314316E-05 0.1729534
v 0.17462265 0.17104772 0.049506187
v 0.17462265 9.1314316E-05 0.049506187
v 0.123490274 9.1314316E-05 -0.073943675
v 0.123490274 0.17104772 0.1729534
v 4.0382147E-05 0.20028815 0.049506187
v 4.0382147E-05 9.1314316E-05 0.22408846
v 0.123490274 0.17104772 -0.073943675
v 4.0382147E-05 9.1314316E-05 -0.12507606
v 4.0382147E-05 0.17104772 0.22408846
v -0.12340948 9.1314316E-05 0.1729534
v 4.0382147E-05 0.17104772 -0.12507606
v -0.12340948 9.1314316E-05 -0.073943675
v -0.12340948 0.17104772 0.1729534
v -0.17454186 9.1314316E-05 0.049506187
v -0.12340948 0.17104772 -0.073943675
v -0.17454186 0.17104772 0.049506187
vt 0.984637 0.4915756
vt 0.984637 0.48572978
vt 0.97879887 0.48572978
vt 0.984637 0.48572978
vt 0.984637 0.46506345
vt 0.9905591 0.48572978
vt 0.984637 0.48572978
vt 0.9907194 0.46506345
vt 0.984637 0.4594161
vt 0.984637 0.46506345
vt 0.984637 0.48572978
vt 0.99276465 0.4594161
vt 0.984637 0.45549345
vt 0.984637 0.4594161
vt 0.97863096 0.46506345
vt 0.97879887 0.48572978
vt 0.984637 0.48572978
vt 0.984637 0.46506345
vt 0.9765704 0.4594161
vt 0.97764647 0.45549345
vt 0.984637 0.4594161
vt 0.984637 0.45549345
vt 0.984637 0.45221952
vt 0.984637 0.45549345
vt 0.9916657 0.45549345
vt 0.98863596 0.45221952
vt 0.984637 0.45221952
vt 0.984637 0.4453816
vt 0.984637 0.45221952
vt 0.9806457 0.45221952
vt 0.98127913 0.4453816
vt 0.984637 0.4453816
vt 0.9826528 0.44428265
vt 0.984637 0.44428265
vt 0.984637 0.39866105
vt 0.984637 0.4453816
vt 0.9879186 0.4453816
vt 0.984637 0.44428265
vt 0.984637 0.44428265
vt 0.98652965 0.44428265
vt 0.98652965 0.39866105
vt 0.984637 0.39866105
vt 0.984637 0.39634106
vt 0.9882926 0.39634106
vt 0.984637 0.39634106
vt 0.984637 0.39866105
vt 0.9808899 0.39634106
vt 0.9826528 0.39866105
vt 0.984637 0.39634106
vt 0.96979356 0.48137215
vt 0.9707094 0.46601743
vt 0.9626733 0.46601743
vt 0.963757 0.48137215
vt 0.96979356 0.48740113
vt 0.958827 0.48740113
vt 0.9547899 0.46762767
vt 0.9547899 0.46762767
vt 0.9626733 0.46601743
vt 0.963757 0.48137215
vt 0.958827 0.48740113
vt 0.96979356 0.48137215
vt 0.9707094 0.46601743
vt 0.9626733 0.46601743
vt 0.963757 0.48137215
vt 0.96979356 0.48740113
vt 0.958827 0.48740113
vt 0.9547899 0.46762767
vt 0.9547899 0.46762767
vt 0.9626733 0.46601743
vt 0.963757 0.48137215
vt 0.958827 0.48740113
vt 0.96979356 0.48137215
vt 0.9707094 0.46601743
vt 0.9626733 0.46601743
vt 0.963757 0.48137215
vt 0.96979356 0.48740113
vt 0.958827 0.48740113
vt 0.9547899 0.46762767
vt 0.9547899 0.46762767
vt 0.9626733 0.46601743
vt 0.963757 0.48137215
vt 0.958827 0.48740113
vt 0.9906278 0.37514815
vt 0.9977862 0.38426787
vt 0.9977862 0.37514815
vt 0.9906278 0.37514815
vt 0.9906278 0.38426787
vt 0.98353046 0.39324263
vt 0.9834999 0.37514815
vt 0.9906278 0.38426787
vt 0.9834999 0.37514815
vt 0.9834999 0.38426787
vt 0.97637963 0.37514815
vt 0.9834999 0.38426787
vt 0.97637963 0.37514815
vt 0.976372 0.38426787
vt 0.96922123 0.37514815
vt 0.976372 0.38426787
vt 0.96922123 0.38426787
vn 0.81622636 0.5777123 -0.0047966023
vn -0.0009775162 0.5777123 0.8162399
vn -0.81622636 0.5777123 -0.0047966023
vn -0.0009775162 0.5777123 -0.8162399
vn -0.0009775162 0.17888558 -0.9838694
vn 0.81622636 0.5777123 -0.0047966023
vn -0.0009775162 0.5777123 -0.8162399
vn 0.9838855 0.1787995 -0
vn -0.0009775162 0.06353855 -0.9979789
vn -0.0009775162 0.17888558 0.9838694
vn -0.0009775162 0.5777123 0.8162399
vn 0.99797964 0.06353442 -0
vn -0.0009775162 -0.4115345 -0.91139364
vn -0.0009775162 0.06353855 0.9979789
vn -0.9838855 0.1787995 -0
vn -0.81622636 0.5777123 -0.0047966023
vn -0.0009775162 0.5777123 -0.8162399
vn -0.0009775162 0.17888558 -0.9838694
vn -0.99797964 0.06353442 -0
vn -0.9115006 -0.41129872 -0
vn -0.0009775162 0.06353855 -0.9979789
vn -0.0009775162 -0.4115345 -0.91139364
vn -0.0009775162 -0.4447701 -0.89564425
vn -0.0009775162 -0.4115345 0.91139364
vn 0.9115006 -0.41129875 -0
vn 0.8957906 -0.44447628 -0
vn -0.0009775162 -0.4447701 -0.89564425
vn -0.0009775162 -0.42912978 -0.9032423
vn -0.0009775162 -0.4447701 0.89564425
vn -0.8957906 -0.44447622 -0
vn -0.9022479 -0.42912978 -0.042383544
vn -0.0009775162 -0.42912978 -0.9032423
vn -0.7595304 -0.65004855 -0.023460377
vn -0.0009775162 -0.65004855 -0.75989205
vn -0.0009775162 0.35679352 -0.93418276
vn -0.0009775162 -0.42912978 0.9032423
vn 0.90224785 -0.42912978 -0.04238495
vn -0.0009775162 -0.65004855 -0.75989205
vn -0.0009775162 -0.65004855 0.75989205
vn 0.7595304 -0.65004855 -0.023460377
vn 0.9335284 0.35679352 -0.034972027
vn -0.0009775162 0.35679352 -0.93418276
vn -0.0009775162 0.5835774 -0.81205696
vn 0.81214565 0.5834548 -0
vn -0.0009775162 0.5835774 0.81205696
vn -0.0009775162 0.35679352 0.93418276
vn -0.81214565 0.5834548 -0
vn -0.9335284 0.35679352 -0.034972027
vn -0.0009775162 0.5835774 -0.81205696
vn 0.12023455 0.5366566 0.83519065
vn -0.33333313 0.7145647 0.61504984
vn 0.5483868 0.71260965 -0.43756077
vn 0.8435969 0.5366566 -0.018547459
vn 0.12023455 0.0009775162 0.99274504
vn 0.9980445 0.0009775162 -0.062499985
vn 0.6911043 0.0009775162 -0.7227544
vn -0.5913975 0.0009775162 0.8063796
vn -0.33333313 0.7145647 0.61504984
vn 0.12023455 0.5366566 0.83519065
vn 0.12023455 0.0009775162 0.99274504
vn -0.8377317 0.5366566 -0.101020984
vn -0.50733113 0.7145647 -0.48167664
vn 0.28054726 0.71260965 0.6430247
vn -0.1925708 0.5366566 0.8215328
vn -0.99022436 0.0009775162 -0.13948038
vn -0.20625603 0.0009775162 0.97849756
vn 0.5190613 0.0009775162 0.85473645
vn -0.6265881 0.0009775162 -0.77935
vn -0.50733113 0.7145647 -0.48167664
vn -0.8377317 0.5366566 -0.101020984
vn -0.99022436 0.0009775162 -0.13948038
vn 0.56207204 0.5366566 -0.62934464
vn 0.6852392 0.7145647 -0.14087062
vn -0.6871942 0.71260965 -0.14125007
vn -0.56207204 0.5366566 -0.62934464
vn 0.68328416 0.0009775162 -0.7301519
vn -0.68328416 0.0009775162 -0.7301519
vn -0.9980445 0.0009775162 -0.062499985
vn 0.9980445 0.0009775162 -0.062499985
vn 0.6852392 0.7145647 -0.14087062
vn 0.56207204 0.5366566 -0.62934464
vn 0.68328416 0.0009775162 -0.7301519
vn 0.70674455 0.0009775162 0.70746815
vn 0.81622636 0.5777123 -0.0047966023
vn 0.9999995 0.0009775162 -0
vn 0.70674455 0.0009775162 -0.70746815
vn 0.5777123 0.5777123 0.5766255
vn -0.0009775162 0.9999995 -0
vn -0.0009775162 0.0009775162 0.99999905
vn 0.5777123 0.5777123 -0.5766255
vn -0.0009775162 0.0009775162 -0.99999905
vn -0.0009775162 0.5777123 0.8162399
vn -0.70674455 0.0009775162 0.70746815
vn -0.0009775162 0.5777123 -0.8162399
vn -0.70674455 0.0009775162 -0.70746815
vn -0.5777123 0.5777123 0.5766255
vn -0.9999995 0.0009775162 -0
vn -0.5777123 0.5777123 -0.5766255
vn -0.81622636 0.5777123 -0.0047966023
g febg_laboratory_001_signal_01_0
f 3/3/3 2/2/2 1/1/1
f 4/4/4 3/3/3 1/1/1
f 7/7/7 6/6/6 5/5/5
f 6/6/6 8/8/8 5/5/5
f 5/5/5 8/8/8 9/9/9
f 8/8/8 6/6/6 10/10/10
f 6/6/6 11/11/11 10/10/10
f 8/8/8 12/12/12 9/9/9
f 9/9/9 12/12/12 13/13/13
f 8/8/8 10/10/10 14/14/14
f 12/12/12 8/8/8 14/14/14
f 10/10/10 11/11/11 15/15/15
f 11/11/11 16/16/16 15/15/15
f 16/16/16 17/17/17 15/15/15
f 17/17/17 18/18/18 15/15/15
f 10/10/10 15/15/15 19/19/19
f 15/15/15 18/18/18 19/19/19
f 14/14/14 10/10/10 19/19/19
f 19/19/19 20/20/20 14/14/14
f 18/18/18 21/21/21 19/19/19
f 19/19/19 21/21/21 20/20/20
f 21/21/21 22/22/22 20/20/20
f 22/22/22 23/23/23 20/20/20
f 14/14/14 24/24/24 12/12/12
f 20/20/20 24/24/24 14/14/14
f 24/24/24 25/25/25 12/12/12
f 25/25/25 24/24/24 26/26/26
f 12/12/12 25/25/25 13/13/13
f 25/25/25 26/26/26 13/13/13
f 26/26/26 27/27/27 13/13/13
f 27/27/27 26/26/26 28/28/28
f 24/24/24 20/20/20 29/29/29
f 24/24/24 29/29/29 26/26/26
f 23/23/23 30/30/30 20/20/20
f 20/20/20 30/30/30 29/29/29
f 30/30/30 23/23/23 31/31/31
f 29/29/29 30/30/30 31/31/31
f 23/23/23 32/32/32 31/31/31
f 31/31/31 32/32/32 33/33/33
f 32/32/32 34/34/34 33/33/33
f 33/33/33 34/34/34 35/35/35
f 36/36/36 29/29/29 31/31/31
f 26/26/26 29/29/29 36/36/36
f 36/36/36 31/31/31 33/33/33
f 26/26/26 37/37/37 28/28/28
f 37/37/37 26/26/26 36/36/36
f 28/28/28 37/37/37 38/38/38
f 37/37/37 36/36/36 39/39/39
f 39/39/39 36/36/36 33/33/33
f 37/37/37 40/40/40 38/38/38
f 40/40/40 37/37/37 39/39/39
f 38/38/38 40/40/40 41/41/41
f 40/40/40 39/39/39 41/41/41
f 42/42/42 38/38/38 41/41/41
f 43/43/43 42/42/42 41/41/41
f 44/44/44 43/43/43 41/41/41
f 45/45/45 44/44/44 41/41/41
f 39/39/39 46/46/46 41/41/41
f 46/46/46 45/45/45 41/41/41
f 39/39/39 33/33/33 46/46/46
f 47/47/47 45/45/45 46/46/46
f 33/33/33 48/48/48 46/46/46
f 48/48/48 47/47/47 46/46/46
f 48/48/48 33/33/33 35/35/35
f 47/47/47 48/48/48 35/35/35
f 49/49/49 47/47/47 35/35/35
f 52/52/52 51/51/51 50/50/50
f 53/53/53 52/52/52 50/50/50
f 53/53/53 50/50/50 54/54/54
f 55/55/55 53/53/53 54/54/54
f 52/52/52 53/53/53 55/55/55
f 56/56/56 52/52/52 55/55/55
f 59/59/59 58/58/58 57/57/57
f 60/60/60 59/59/59 57/57/57
f 63/63/63 62/62/62 61/61/61
f 64/64/64 63/63/63 61/61/61
f 64/64/64 61/61/61 65/65/65
f 66/66/66 64/64/64 65/65/65
f 63/63/63 64/64/64 66/66/66
f 67/67/67 63/63/63 66/66/66
f 70/70/70 69/69/69 68/68/68
f 71/71/71 70/70/70 68/68/68
f 74/74/74 73/73/73 72/72/72
f 75/75/75 74/74/74 72/72/72
f 75/75/75 72/72/72 76/76/76
f 77/77/77 75/75/75 76/76/76
f 74/74/74 75/75/75 77/77/77
f 78/78/78 74/74/74 77/77/77
f 81/81/81 80/80/80 79/79/79
f 82/82/82 81/81/81 79/79/79
f 85/85/85 84/84/84 83/83/83
f 84/84/84 85/85/85 86/86/86
f 84/84/84 87/87/87 83/83/83
f 84/84/84 88/88/88 87/87/87
f 83/83/83 87/87/87 89/89/89
f 90/90/90 84/84/84 86/86/86
f 88/88/88 84/84/84 90/90/90
f 90/90/90 86/86/86 91/91/91
f 87/87/87 92/92/92 89/89/89
f 87/87/87 88/88/88 92/92/92
f 89/89/89 92/92/92 93/93/93
f 94/94/94 90/90/90 91/91/91
f 88/88/88 90/90/90 94/94/94
f 94/94/94 91/91/91 95/95/95
f 92/92/92 96/96/96 93/93/93
f 92/92/92 88/88/88 96/96/96
f 93/93/93 96/96/96 97/97/97
f 98/98/98 94/94/94 95/95/95
f 88/88/88 94/94/94 98/98/98
f 98/98/98 95/95/95 97/97/97
f 96/96/96 99/99/99 97/97/97
f 96/96/96 88/88/88 99/99/99
f 99/99/99 98/98/98 97/97/97
f 88/88/88 98/98/98 99/99/99
