g febg_factory_001_terminalglass_01
v -0.23631096 4.1447997 0.47558427
v -0.25013924 4.1337085 0.47558427
v -0.25013924 3.8274622 0.47558427
v -0.23632991 3.8160162 0.47558427
v 0.19725579 3.8160162 0.47558427
v 0.19725579 4.1447997 0.47558427
v 0.63082725 4.1447997 0.47558427
v 0.63084614 3.8160162 0.47558427
v 0.6446556 3.8274622 0.47558427
v 0.6446556 4.1337085 0.47558427
v 0.19732684 3.3533106 0.03621161
v 0.19718951 3.2367778 -0.02422595
v 0.81234825 3.2404718 -0.0223127
v -0.38893437 3.2332592 -0.026049197
v 0.8205932 3.3539495 0.03654784
v 0.19732684 3.5309196 0.18561482
v -0.39213574 3.353547 0.03633946
v 0.8209815 3.5307965 0.18541586
v -0.39240098 3.53083 0.18546796
v 0.81841946 3.5913906 0.27866745
v -0.39052093 3.5913668 0.27862954
v 0.19732684 3.5913763 0.2786485
vt 0.9884759 0.3037128
vt 0.9913505 0.30141908
vt 0.9913505 0.23789512
vt 0.98849076 0.23552693
vt 0.89855933 0.23552693
vt 0.89855933 0.3037128
vt 0.80864275 0.3037128
vt 0.80864275 0.23552693
vt 0.80576813 0.23789512
vt 0.80576813 0.30141908
vt 0.8798075 0.35451707
vt 0.8798075 0.328333
vt 0.76738566 0.3291075
vt 0.98726946 0.32761806
vt 0.7657026 0.35456175
vt 0.8798075 0.39730826
vt 0.9879248 0.35451707
vt 0.76562816 0.39733803
vt 0.98796946 0.39729336
vt 0.76614946 0.42091563
vt 0.98758227 0.42085606
vt 0.8798075 0.42087096
vn 4.8540714E-05 -4.8540714E-05 -1
vn 4.8540714E-05 -4.8540714E-05 -1
vn 4.8540714E-05 -4.8540714E-05 -1
vn 4.8540714E-05 -4.8540714E-05 -1
vn 4.8540714E-05 -4.8540714E-05 -1
vn 4.8540714E-05 -4.8540714E-05 -1
vn 4.8540714E-05 -4.8540714E-05 -1
vn 4.8540714E-05 -4.8540714E-05 -1
vn 4.8540714E-05 -4.8540714E-05 -1
vn 4.8540714E-05 -4.8540714E-05 -1
vn 4.8540714E-05 0.55571425 -0.83137333
vn 4.8540714E-05 0.46062797 -0.8875933
vn 4.8540714E-05 0.46062797 -0.8875933
vn 4.8540714E-05 0.46062797 -0.8875933
vn 4.8540714E-05 0.5573537 -0.83027524
vn 4.8540714E-05 0.7491656 -0.6623828
vn 4.8540714E-05 0.556534 -0.83082485
vn 4.8540714E-05 0.7483459 -0.6633087
vn 4.8540714E-05 0.7483459 -0.6633087
vn 4.8540714E-05 0.8385139 -0.5448802
vn 4.8540714E-05 0.8385139 -0.5448802
vn 4.8540714E-05 0.8385139 -0.5448802
g febg_factory_001_terminalglass_01_0
f 3/3/3 2/2/2 1/1/1
f 4/4/4 3/3/3 1/1/1
f 5/5/5 4/4/4 1/1/1
f 6/6/6 5/5/5 1/1/1
f 6/6/6 7/7/7 5/5/5
f 7/7/7 8/8/8 5/5/5
f 8/8/8 7/7/7 9/9/9
f 7/7/7 10/10/10 9/9/9
f 13/13/13 12/12/12 11/11/11
f 12/12/12 14/14/14 11/11/11
f 15/15/15 13/13/13 11/11/11
f 15/15/15 11/11/11 16/16/16
f 14/14/14 17/17/17 11/11/11
f 16/16/16 11/11/11 17/17/17
f 18/18/18 15/15/15 16/16/16
f 19/19/19 16/16/16 17/17/17
f 18/18/18 16/16/16 20/20/20
f 19/19/19 21/21/21 16/16/16
f 16/16/16 22/22/22 20/20/20
f 21/21/21 22/22/22 16/16/16
