g febg_lostcity_001_stone_03
v 0.6022127 0.6421249 0.008996367
v 0.6520046 -1.9669533E-05 -0.34029746
v 0.9658667 -1.9669533E-05 -0.06741321
v 0.87646437 0.64310145 0.15203059
v 1.0603294 0.31686354 0.7044344
v 1.0711594 -1.9669533E-05 0.70978093
v 0.71106976 -1.9669533E-05 1.0362341
v 0.76518464 0.80032253 0.48672807
v 0.4551416 0.87511253 0.62899065
v 0.25719202 0.79924107 0.09354806
v 0.075870275 0.620859 0.7509978
v 0.058510065 -1.9669533E-05 0.90780425
v 0.13319528 0.7650771 0.43216968
v -0.41952872 0.2882824 0.5626339
v -0.5146451 -1.9669533E-05 0.5833459
v -0.3962444 -1.9669533E-05 0.11205268
v -0.24551964 0.5461004 0.021206856
v 0.39632577 0.590459 -0.42222178
v 0.6520046 -1.9669533E-05 -0.34029746
v 0.12375915 0.63714576 -0.37455857
v 0.38162446 0.3379246 -0.6456605
v 0.433587 -1.9669533E-05 -0.83962315
v -0.31382668 0.4187125 -0.35899627
v -0.21428227 0.3103279 -0.73515993
v -0.21716166 -1.9669533E-05 -0.94991857
v -0.5176846 -1.9669533E-05 -0.7528771
v -0.5756999 -1.9669533E-05 -0.31838322
v -0.3962444 -1.9669533E-05 0.11205268
v -0.7777548 0.24511015 0.036357045
v -0.8021598 -3.9339066E-06 -0.12183523
v -0.54797447 -3.9339066E-06 0.1650573
v -1.2609618 -3.9339066E-06 -0.060452342
v -0.66825724 0.25316298 0.4073708
v -0.62978864 -3.9339066E-06 0.56329525
v -0.9648981 0.3514186 0.42636096
v -1.042964 -3.9339066E-06 0.5489142
v -1.2833011 0.17753029 0.34852612
v -1.3761339 -3.9339066E-06 0.38654065
v 1.2574524 -2.4914742E-05 -0.40773565
v 1.1883816 0.30162406 -0.5910942
v 1.3761339 -2.4914742E-05 -0.5804901
v 1.2856083 -2.4914742E-05 -0.918319
v 1.0038471 0.2228154 -0.34392488
v 0.981862 -2.4914742E-05 -0.2645414
v 0.73034084 -2.4914742E-05 -0.34006643
v 0.87770855 0.22357392 -0.9016412
v 0.96308184 -2.4914742E-05 -1.0362341
v 0.69472796 -2.4914742E-05 -0.84893316
v 0.7793033 0.3529042 -0.48600626
v 0.6526372 -2.4914742E-05 -0.4571653
v 0.73034084 -2.4914742E-05 -0.34006643
vt 0.9580942 0.8720281
vt 0.93908983 0.87064976
vt 0.93849695 0.8803444
vt 0.94946986 0.8828855
vt 0.95254993 0.902398
vt 0.9500012 0.90577847
vt 0.96814305 0.91046023
vt 0.9594417 0.8883296
vt 0.9689978 0.89228755
vt 0.96805835 0.87259793
vt 0.979601 0.89427423
vt 0.98496044 0.90324503
vt 0.97447264 0.8837556
vt 0.99065864 0.8893306
vt 0.99783534 0.8873132
vt 0.99273 0.87346035
vt 0.9806714 0.8662683
vt 0.9597497 0.8580367
vt 0.9404066 0.8672077
vt 0.9667955 0.8587297
vt 0.9537666 0.84798014
vt 0.95163363 0.837269
vt 0.9798552 0.8525079
vt 0.97098446 0.8417198
vt 0.96611017 0.8321868
vt 0.979062 0.83555955
vt 0.9888722 0.8482111
vt 0.99349236 0.8675388
vt 0.9099828 0.90547043
vt 0.90386105 0.8993641
vt 0.90604025 0.91661274
vt 0.9175753 0.88986194
vt 0.91916156 0.91747516
vt 0.9265538 0.92228013
vt 0.9283249 0.90875846
vt 0.93584037 0.9098211
vt 0.93088907 0.8982168
vt 0.9324137 0.8941202
vt 0.93613297 0.86705375
vt 0.9279091 0.86759275
vt 0.93408465 0.8773644
vt 0.918892 0.8841792
vt 0.93008053 0.8579212
vt 0.93279874 0.85343194
vt 0.9232966 0.84810334
vt 0.91363275 0.8643509
vt 0.90819633 0.880791
vt 0.90628666 0.8620331
vt 0.9181297 0.85599613
vt 0.91611224 0.8497666
vt 0.9231888 0.8495818
vn 0.47136912 0.7147304 -0.516693
vn 0.7664931 0.367306 -0.52685356
vn 0.7889076 0.31500554 -0.5276327
vn 0.6618922 0.6082616 -0.4380828
vn 0.84867954 0.32994854 0.4133727
vn 0.93833745 0.03856027 0.34356356
vn 0.222942 0.33742 0.9145735
vn 0.5255375 0.8380101 0.14679715
vn 0.036154628 0.8921784 0.4502339
vn -0.088992834 0.97249687 -0.21524426
vn -0.397192 0.5933186 0.70015115
vn -0.32994854 0.23842275 0.913394
vn -0.514868 0.8510852 0.1027861
vn -0.81185985 0.52420735 0.25708026
vn -0.8791033 0.31500554 0.35769942
vn -0.90151775 0.41773856 0.112961285
vn -0.73340917 0.65869415 0.16802685
vn 0.44895464 0.6941838 -0.5626265
vn 0.7664931 0.367306 -0.52685356
vn -0.21600819 0.8174634 -0.53394204
vn 0.458294 0.5746399 -0.6780528
vn 0.49004787 0.50552857 -0.71013653
vn -0.6325439 0.7165983 -0.29389644
vn -0.2925911 0.76703084 -0.57101154
vn -0.15997207 0.5466218 -0.8219571
vn -0.65869415 0.6642978 -0.35331354
vn -0.85668874 0.514868 0.03154945
vn -0.90151775 0.41773856 0.112961285
vn 0.28084606 0.78197384 -0.5564552
vn 0.24722433 0.50739646 -0.82548714
vn 0.8580189 0.45136023 -0.24510722
vn -0.43268156 0.74835217 -0.50274813
vn 0.6245347 0.7147304 0.3148283
vn 0.5423483 0.43081367 0.72128904
vn -0.15810418 0.9089892 0.38567048
vn -0.24029064 0.36917388 0.8977589
vn -0.6661657 0.7147304 0.21303463
vn -0.79318106 0.49245346 0.35826442
vn 0.6301384 0.440153 0.6396803
vn 0.54048043 0.83987796 0.04985911
vn 0.83934015 0.52794313 0.12955359
vn 0.54421616 0.6530906 -0.5265942
vn 0.17064154 0.5765078 0.7990746
vn 0.064172745 0.32994854 0.9418152
vn -0.4102671 0.35423088 0.8403579
vn -0.2458942 0.71846616 -0.6506477
vn -0.03108877 0.50739646 -0.86115175
vn -0.79318106 0.41400278 -0.4466156
vn -0.47937834 0.83987796 0.2545613
vn -0.912725 0.34489155 0.21905008
vn -0.53915036 0.3654381 0.7587963
g febg_lostcity_001_stone_03_0
f 3/3/3 2/2/2 1/1/1
f 1/1/1 4/4/4 3/3/3
f 4/4/4 5/5/5 3/3/3
f 5/5/5 6/6/6 3/3/3
f 6/6/6 5/5/5 7/7/7
f 8/8/8 5/5/5 4/4/4
f 4/4/4 1/1/1 8/8/8
f 5/5/5 9/9/9 7/7/7
f 8/8/8 9/9/9 5/5/5
f 1/1/1 10/10/10 8/8/8
f 8/8/8 10/10/10 9/9/9
f 9/9/9 11/11/11 7/7/7
f 7/7/7 11/11/11 12/12/12
f 9/9/9 13/13/13 11/11/11
f 9/9/9 10/10/10 13/13/13
f 12/12/12 11/11/11 14/14/14
f 14/14/14 11/11/11 13/13/13
f 15/15/15 12/12/12 14/14/14
f 15/15/15 14/14/14 16/16/16
f 14/14/14 13/13/13 16/16/16
f 16/16/16 13/13/13 17/17/17
f 10/10/10 17/17/17 13/13/13
f 1/1/1 18/18/18 10/10/10
f 1/1/1 19/19/19 18/18/18
f 10/10/10 18/18/18 20/20/20
f 10/10/10 20/20/20 17/17/17
f 18/18/18 19/19/19 21/21/21
f 20/20/20 18/18/18 21/21/21
f 21/21/21 19/19/19 22/22/22
f 20/20/20 23/23/23 17/17/17
f 23/23/23 20/20/20 21/21/21
f 24/24/24 21/21/21 22/22/22
f 24/24/24 23/23/23 21/21/21
f 25/25/25 24/24/24 22/22/22
f 26/26/26 24/24/24 25/25/25
f 27/27/27 24/24/24 26/26/26
f 27/27/27 23/23/23 24/24/24
f 17/17/17 23/23/23 27/27/27
f 28/28/28 17/17/17 27/27/27
f 31/31/31 30/30/30 29/29/29
f 32/32/32 29/29/29 30/30/30
f 33/33/33 31/31/31 29/29/29
f 33/33/33 34/34/34 31/31/31
f 33/33/33 35/35/35 34/34/34
f 33/33/33 29/29/29 35/35/35
f 34/34/34 35/35/35 36/36/36
f 37/37/37 29/29/29 32/32/32
f 35/35/35 29/29/29 37/37/37
f 35/35/35 37/37/37 36/36/36
f 38/38/38 37/37/37 32/32/32
f 37/37/37 38/38/38 36/36/36
f 41/41/41 40/40/40 39/39/39
f 41/41/41 42/42/42 40/40/40
f 40/40/40 43/43/43 39/39/39
f 44/44/44 39/39/39 43/43/43
f 44/44/44 43/43/43 45/45/45
f 42/42/42 46/46/46 40/40/40
f 47/47/47 46/46/46 42/42/42
f 47/47/47 48/48/48 46/46/46
f 46/46/46 49/49/49 40/40/40
f 49/49/49 46/46/46 48/48/48
f 49/49/49 43/43/43 40/40/40
f 50/50/50 49/49/49 48/48/48
f 43/43/43 51/51/51 45/45/45
f 51/51/51 43/43/43 49/49/49
f 51/51/51 49/49/49 50/50/50
f 45/45/45 51/51/51 50/50/50
