g febg_shop_001_cooker_02
v -0.036065012 0.04265797 -0.1499992
v -0.036065012 0.009679645 -0.1499992
v -0.036065012 0.009679645 -0.121029794
v -0.036065012 0.04265797 -0.121029794
v -0.08626521 0.04265797 -0.1499992
v 0.029864639 0.009679645 -0.11039922
v -0.08626521 0.04265797 0.33271223
v -0.08626521 0.009679645 -0.1499992
v -0.08626521 0.009679645 0.33271223
v 0.029864639 0.04265797 -0.11039922
v 0.06107977 0.02616924 -0.10828087
v -0.037650198 0.04265797 0.39558625
v -0.037650198 0.009679645 0.39558625
v 0.022198588 0.02616924 0.42374998
v 0.012619168 0.04265797 0.34295052
v 0.049846858 0.02616924 0.32967174
v 0.029864639 0.009679645 -0.11039922
v 0.012619168 0.009679645 0.34295052
v -0.037650198 0.009679645 0.39558625
v -0.08626521 0.009679645 0.33271223
v -0.036065012 0.009679645 -0.121029794
v -0.08626521 0.009679645 -0.1499992
v -0.036065012 0.009679645 -0.1499992
v -0.10051495 -1.4901161E-07 -0.460859
v -0.014722019 -1.4901161E-07 -0.460859
v -0.014722019 0.052337766 -0.460859
v -0.10051495 0.052337766 -0.460859
v -0.014722019 0.052337766 -0.14790276
v -0.10051495 0.052337766 -0.14790276
v -0.10051495 -1.4901161E-07 -0.460859
v -0.10051495 -1.4901161E-07 -0.14790276
v -0.10051495 -1.4901161E-07 -0.14790276
v -0.014722019 -1.4901161E-07 -0.14790276
v -0.014722019 0.052337766 -0.460859
v -0.014722019 -1.4901161E-07 -0.14790276
v -0.014722019 0.052337766 -0.14790276
v -0.014722019 -1.4901161E-07 -0.460859
v -0.10051495 -1.4901161E-07 -0.14790276
v -0.10051495 -1.4901161E-07 -0.460859
vt 0.9022557 0.5677707
vt 0.9083947 0.56257504
vt 0.9030493 0.5579034
vt 0.8942301 0.56320393
vt 0.900399 0.5790605
vt 0.89731455 0.5405795
vt 0.7607745 0.5790605
vt 0.900399 0.5890625
vt 0.75950176 0.5890625
vt 0.888705 0.54439765
vt 0.88819593 0.5342608
vt 0.7423725 0.56574935
vt 0.7386292 0.5760359
vt 0.73380786 0.5477816
vt 0.7574804 0.550881
vt 0.76096916 0.53917205
vt 0.888705 0.54439765
vt 0.7574654 0.550881
vt 0.7423725 0.56574935
vt 0.7607745 0.5790605
vt 0.8942301 0.56320393
vt 0.900399 0.5790605
vt 0.9022557 0.5677707
vt 0.9926785 0.5342758
vt 0.9926785 0.5134332
vt 0.9799663 0.5134332
vt 0.9799663 0.5342758
vt 0.9129615 0.5134332
vt 0.9129615 0.5342758
vt 0.9799663 0.546988
vt 0.9129615 0.546988
vt 0.90023434 0.5342758
vt 0.90023434 0.5134332
vt 0.9799663 0.546988
vt 0.9129615 0.5342758
vt 0.9129615 0.546988
vt 0.9799663 0.5342758
vt 0.9129615 0.5134332
vt 0.9799663 0.5134332
vn 0.7068562 0.7065166 -0.0344753
vn 0.7068562 -0.7068562 -0.026619727
vn 0.3539924 -0.8852058 -0.30182794
vn 0.3539924 0.88486624 -0.30282196
vn -0.7065166 0.7065166 -0.04084707
vn 0.23892814 -0.74137545 -0.62711704
vn -0.72569406 0.64131355 0.24916868
vn -0.7065166 -0.7068562 -0.0344753
vn -0.72569406 -0.64165306 0.24829312
vn 0.23892814 0.74103594 -0.6275182
vn 0.84685105 0.0007891059 -0.53182954
vn -0.40543175 0.6777506 0.6134161
vn -0.40543175 -0.6780901 0.61304075
vn 0.51891786 0.0007891059 0.8548237
vn 0.23701042 0.96924675 0.06623324
vn 0.9925991 0.0007891059 0.12143451
vn 0.23892814 -0.74137545 -0.62711704
vn 0.23701042 -0.96958625 0.061062004
vn -0.40543175 -0.6780901 0.61304075
vn -0.72569406 -0.64165306 0.24829312
vn 0.3539924 -0.8852058 -0.30182794
vn -0.7065166 -0.7068562 -0.0344753
vn 0.7068562 -0.7068562 -0.026619727
vn -0.5780282 -0.57645 -0.5775715
vn 0.57645 -0.57645 -0.5791466
vn 0.57645 0.5780282 -0.57757145
vn -0.5780282 0.5780282 -0.57599205
vn 0.57645 0.5780282 0.57757145
vn -0.5780282 0.5780282 0.57599205
vn -0.5780282 -0.57645 -0.5775715
vn -0.5780282 -0.57645 0.5775715
vn -0.5780282 -0.57645 0.5775715
vn 0.57645 -0.57645 0.5791466
vn 0.57645 0.5780282 -0.57757145
vn 0.57645 -0.57645 0.5791466
vn 0.57645 0.5780282 0.57757145
vn 0.57645 -0.57645 -0.5791466
vn -0.5780282 -0.57645 0.5775715
vn -0.5780282 -0.57645 -0.5775715
g febg_shop_001_cooker_02_0
f 3/3/3 2/2/2 1/1/1
f 4/4/4 3/3/3 1/1/1
f 4/4/4 1/1/1 5/5/5
f 6/6/6 3/3/3 4/4/4
f 4/4/4 5/5/5 7/7/7
f 5/5/5 8/8/8 7/7/7
f 8/8/8 9/9/9 7/7/7
f 10/10/10 6/6/6 4/4/4
f 10/10/10 11/11/11 6/6/6
f 7/7/7 9/9/9 12/12/12
f 9/9/9 13/13/13 12/12/12
f 14/14/14 12/12/12 13/13/13
f 15/15/15 4/4/4 7/7/7
f 15/15/15 7/7/7 12/12/12
f 15/15/15 10/10/10 4/4/4
f 15/15/15 12/12/12 14/14/14
f 16/16/16 11/11/11 10/10/10
f 15/15/15 16/16/16 10/10/10
f 16/16/16 15/15/15 14/14/14
f 17/17/17 11/11/11 16/16/16
f 18/18/18 16/16/16 14/14/14
f 18/18/18 17/17/17 16/16/16
f 19/19/19 18/18/18 14/14/14
f 19/19/19 20/20/20 18/18/18
f 18/18/18 21/21/21 17/17/17
f 18/18/18 20/20/20 21/21/21
f 20/20/20 22/22/22 21/21/21
f 22/22/22 23/23/23 21/21/21
f 26/26/26 25/25/25 24/24/24
f 27/27/27 26/26/26 24/24/24
f 26/26/26 27/27/27 28/28/28
f 27/27/27 29/29/29 28/28/28
f 27/27/27 30/30/30 29/29/29
f 30/30/30 31/31/31 29/29/29
f 29/29/29 32/32/32 28/28/28
f 32/32/32 33/33/33 28/28/28
f 36/36/36 35/35/35 34/34/34
f 35/35/35 37/37/37 34/34/34
f 37/37/37 35/35/35 38/38/38
f 39/39/39 37/37/37 38/38/38
