g febg_mothership_001_wall_01
v 3.014686 2.7988577 0.10938048
v -3.014686 2.7988577 0.10938048
v -3.014686 2.7988806 -0.10938048
v 3.014686 2.7988806 -0.10938048
v 3.014686 -2.861023E-06 -0.10938048
v 3.014686 2.7988577 0.10938048
v 3.014686 -2.861023E-06 0.10938048
v -3.014686 2.861023E-06 -0.10938048
v -3.014686 2.861023E-06 0.10938048
v -3.014686 2.7988577 0.10938048
v -3.014686 2.7988577 0.10938048
v 3.014686 2.7988577 0.10938048
v 3.014686 -2.861023E-06 0.10938048
v -3.014686 2.861023E-06 0.10938048
vt 0.0134876855 0.44651726
vt 0.46058723 0.44651726
vt 0.46058723 0.43639538
vt 0.0134876855 0.43639538
vt 0.0134876855 0.23083325
vt 0.0033658275 0.43639538
vt 0.0033658275 0.23083325
vt 0.46058723 0.23083325
vt 0.4707091 0.23083325
vt 0.4707091 0.43639538
vt 0.46058723 0.43639538
vt 0.0134876855 0.43639538
vt 0.0134876855 0.23083325
vt 0.46058723 0.23083325
vn 0.5771595 0.5771595 0.5777316
vn -0.5771595 0.5771595 0.5777316
vn -0.5771595 0.5771595 -0.5777316
vn 0.5771595 0.5771595 -0.5777316
vn 0.7071068 -0.00069117546 -0.7071064
vn 0.5771595 0.5771595 0.5777316
vn 0.7071068 -0.00069117546 0.7071064
vn -0.7071068 -0.00069117546 -0.7071064
vn -0.7071068 -0.00069117546 0.7071064
vn -0.5771595 0.5771595 0.5777316
vn -0.5771595 0.5771595 0.5777316
vn 0.5771595 0.5771595 0.5777316
vn 0.7071068 -0.00069117546 0.7071064
vn -0.7071068 -0.00069117546 0.7071064
g febg_mothership_001_wall_01_0
f 3/3/3 2/2/2 1/1/1
f 4/4/4 3/3/3 1/1/1
f 3/3/3 4/4/4 5/5/5
f 4/4/4 6/6/6 5/5/5
f 6/6/6 7/7/7 5/5/5
f 8/8/8 3/3/3 5/5/5
f 8/8/8 9/9/9 3/3/3
f 9/9/9 10/10/10 3/3/3
f 13/13/13 12/12/12 11/11/11
f 14/14/14 13/13/13 11/11/11
