g febg_christmas_001_giftbox_01
v 0.3513047 0.8476779 -0.3513047
v -0.35130376 0.8476779 -0.3513047
v -0.35130376 8.940697E-08 -0.35130358
v 0.3513047 8.940697E-08 -0.3513047
v -0.35130376 0.8476779 -0.3513047
v -0.35130376 0.8476779 0.35130376
v -0.35130376 8.940697E-08 0.35130376
v -0.35130376 8.940697E-08 -0.35130358
v -0.35130376 0.8476779 0.35130376
v 0.35130358 0.8476779 0.35130376
v 0.35130358 8.940697E-08 0.35130376
v -0.35130376 8.940697E-08 0.35130376
v 0.35130358 0.8476779 0.35130376
v 0.3513047 0.8476779 -0.3513047
v 0.3513047 8.940697E-08 -0.3513047
v 0.35130358 8.940697E-08 0.35130376
v -0.35130376 0.8476779 -0.3513047
v 0.3513047 0.8476779 -0.3513047
v 0.35130358 0.8476779 0.35130376
v -0.35130376 0.8476779 0.35130376
vt 0.003838384 0.72416717
vt 0.04469167 0.72416717
vt 0.04469167 0.6748688
vt 0.003838384 0.6748688
vt 0.04469167 0.72416717
vt 0.04469167 0.76502043
vt 0.09399 0.76502043
vt 0.09399 0.72416717
vt 0.04469167 0.72416717
vt 0.04469167 0.76502043
vt 0.09399 0.76502043
vt 0.09399 0.72416717
vt 0.04469167 0.72416717
vt 0.04469167 0.76502043
vt 0.09399 0.76502043
vt 0.09399 0.72416717
vt 0.04469167 0.72416717
vt 0.003838384 0.72416717
vt 0.003838384 0.76502043
vt 0.04469167 0.76502043
vn -0.0009775162 0.0009775162 -0.99999905
vn -0.0009775162 0.0009775162 -0.99999905
vn -0.0009775162 0.0009775162 -0.99999905
vn -0.0009775162 0.0009775162 -0.99999905
vn -0.9999995 0.0009775162 -0
vn -0.9999995 0.0009775162 -0
vn -0.9999995 0.0009775162 -0
vn -0.9999995 0.0009775162 -0
vn -0.0009775162 0.0009775162 0.99999905
vn -0.0009775162 0.0009775162 0.99999905
vn -0.0009775162 0.0009775162 0.99999905
vn -0.0009775162 0.0009775162 0.99999905
vn 0.9999995 0.0009775162 -0
vn 0.9999995 0.0009775162 -0
vn 0.9999995 0.0009775162 -0
vn 0.9999995 0.0009775162 -0
vn -0.0009775162 0.9999995 -0
vn -0.0009775162 0.9999995 -0
vn -0.0009775162 0.9999995 -0
vn -0.0009775162 0.9999995 -0
g febg_christmas_001_giftbox_01_0
f 3/3/3 2/2/2 1/1/1
f 4/4/4 3/3/3 1/1/1
f 7/7/7 6/6/6 5/5/5
f 8/8/8 7/7/7 5/5/5
f 11/11/11 10/10/10 9/9/9
f 12/12/12 11/11/11 9/9/9
f 15/15/15 14/14/14 13/13/13
f 16/16/16 15/15/15 13/13/13
f 19/19/19 18/18/18 17/17/17
f 20/20/20 19/19/19 17/17/17
