g febg_tropical_003_coral_15
v -2.1753426 3.42343 0.5608804
v 1.5154009 3.8249693 0.5746887
v -2.1820664 3.5003285 0.5744901
v -1.852593 -0.2677989 -0.09247589
v 1.5221249 3.7480483 0.561079
v 1.8449922 0.055708647 -0.0924685
v -0.22411633 0.41943455 0.06572819
v 2.5434887 1.3264766 0.6105082
v 0.6298771 2.2384696 0.56399226
v 1.6897676 -0.4919846 0.112398624
v 0.89949715 0.34328628 -0.449934
v -2.54349 1.8749051 -0.17986512
v -1.6410165 -0.56733847 -0.610507
v -0.003270626 2.786295 -0.019167185
v -0.75499225 0.00396204 1.2317896
v 2.687502 5.0264673 1.6712079
v -0.75474215 5.025062 1.671083
v 2.6872737 0.003969431 1.2317896
vt 0.98983 0.9844341
vt 0.8383789 0.9876671
vt 0.98983 0.98762894
vt 0.9898586 0.8309021
vt 0.8383789 0.98446465
vt 0.838398 0.83089066
vt 0.83631516 0.83089066
vt 0.9935684 0.9844341
vt 0.8362961 0.98446465
vt 0.99359703 0.8309021
vt 0.83631516 0.83089066
vt 0.9935684 0.9844341
vt 0.99359703 0.8309021
vt 0.8362961 0.98446465
vt 0.49656105 0.71534157
vt 0.4060936 0.84781456
vt 0.4965515 0.84778595
vt 0.40611267 0.71533203
vn -0.015023164 0.17289144 -0.9848263
vn -0.015023164 0.17289144 -0.9848263
vn -0.015023164 0.17289144 -0.9848263
vn -0.015023164 0.17289144 -0.9848263
vn -0.015023164 0.17289144 -0.9848263
vn -0.015023164 0.17289144 -0.9848263
vn 0.122788094 0.20815301 -0.9703584
vn 0.122788094 0.20815301 -0.9703584
vn 0.122788094 0.20815301 -0.9703584
vn 0.122788094 0.20815301 -0.9703584
vn -0.00014213473 0.17353845 -0.9848271
vn -0.00014213473 0.17353845 -0.9848271
vn -0.00014213473 0.17353845 -0.9848271
vn -0.00014213473 0.17353845 -0.9848271
vn -0.00014213473 0.0871638 -0.996194
vn -0.00014213473 0.0871638 -0.996194
vn -0.00014213473 0.0871638 -0.996194
vn -0.00014213473 0.0871638 -0.996194
g febg_tropical_003_coral_15_0
f 3/3/3 2/2/2 1/1/1
f 1/1/1 2/2/2 4/4/4
f 2/2/2 5/5/5 4/4/4
f 5/5/5 6/6/6 4/4/4
f 9/9/9 8/8/8 7/7/7
f 10/10/10 7/7/7 8/8/8
f 13/13/13 12/12/12 11/11/11
f 14/14/14 11/11/11 12/12/12
f 17/17/17 16/16/16 15/15/15
f 18/18/18 15/15/15 16/16/16
