g febg_factory_001_floorrail_07
v -1.1054876 0.14695942 6.914139E-06
v -1.1054876 1.6953795 6.914139E-06
v -1.2313595 1.6953795 -0.1258651
v -1.2313561 0.14695942 -0.1258651
v -1.2313561 0.14695942 -0.1258651
v -1.2313595 1.6953795 -0.1258651
v -1.357228 1.6953795 6.914139E-06
v -1.357228 0.14695942 6.914139E-06
v -1.357228 0.14695942 6.914139E-06
v -1.357228 1.6953795 6.914139E-06
v -1.2313595 1.6953795 0.12587881
v -1.2313561 0.14695942 0.12587881
v -1.2313561 0.14695942 0.12587881
v -1.2313595 1.6953795 0.12587881
v -1.1054876 1.6953795 6.914139E-06
v -1.1054876 0.14695942 6.914139E-06
v -1.1054876 1.6953795 6.914139E-06
v -1.0634232 1.7875285 6.914139E-06
v -1.1524274 1.8765328 -0.1258651
v -1.2313595 1.6953795 -0.1258651
v -1.2313595 1.6953795 -0.1258651
v -1.1524274 1.8765328 -0.1258651
v -1.2414317 1.9655404 6.914139E-06
v -1.357228 1.6953795 6.914139E-06
v -1.357228 1.6953795 6.914139E-06
v -1.2414317 1.9655404 6.914139E-06
v -1.1524274 1.8765328 0.12587881
v -1.2313595 1.6953795 0.12587881
v -1.2313595 1.6953795 0.12587881
v -1.1524274 1.8765328 0.12587881
v -1.0634232 1.7875285 6.914139E-06
v -1.1054876 1.6953795 6.914139E-06
v -1.0634232 1.7875285 6.914139E-06
v -0.9658203 1.8193431 6.914139E-06
v -0.9658203 1.945215 -0.1258651
v -1.1524274 1.8765328 -0.1258651
v -1.1524274 1.8765328 -0.1258651
v -0.9658203 1.945215 -0.1258651
v -0.9658203 2.071087 6.914139E-06
v -1.2414317 1.9655404 6.914139E-06
v -1.2414317 1.9655404 6.914139E-06
v -0.9658203 2.071087 6.914139E-06
v -0.9658203 1.945215 0.12587881
v -1.1524274 1.8765328 0.12587881
v -1.1524274 1.8765328 0.12587881
v -0.9658203 1.945215 0.12587881
v -0.9658203 1.8193431 6.914139E-06
v -1.0634232 1.7875285 6.914139E-06
v -0.9658203 1.945215 -0.1258651
v -0.9658203 1.8193431 6.914139E-06
v -0.006145954 1.8193464 1.0251999E-05
v -0.006145954 1.9452183 -0.12586176
v -0.006145954 2.0710936 1.0251999E-05
v -0.9658203 2.071087 6.914139E-06
v -0.9658203 1.945215 -0.1258651
v -0.006145954 1.9452183 -0.12586176
v -0.006145954 1.9452183 0.12587881
v -0.9658203 1.945215 0.12587881
v -0.9658203 2.071087 6.914139E-06
v -0.006145954 2.0710936 1.0251999E-05
v -0.006145954 1.8193464 1.0251999E-05
v -0.9658203 1.8193431 6.914139E-06
v -0.9658203 1.945215 0.12587881
v -0.006145954 1.9452183 0.12587881
v 1.0931957 0.1469661 1.0251999E-05
v 1.2190676 0.1469661 -0.12586176
v 1.2190676 1.6953895 -0.12586176
v 1.0931957 1.6953895 1.0251999E-05
v 1.2190676 0.1469661 -0.12586176
v 1.3449395 0.1469661 1.0251999E-05
v 1.3449395 1.6953895 1.0251999E-05
v 1.2190676 1.6953895 -0.12586176
v 1.3449395 0.1469661 1.0251999E-05
v 1.2190676 0.1469661 0.12588215
v 1.2190676 1.6953895 0.12588215
v 1.3449395 1.6953895 1.0251999E-05
v 1.2190676 0.1469661 0.12588215
v 1.0931957 0.1469661 1.0251999E-05
v 1.0931957 1.6953895 1.0251999E-05
v 1.2190676 1.6953895 0.12588215
v 1.0931957 1.6953895 1.0251999E-05
v 1.2190676 1.6953895 -0.12586176
v 1.1401391 1.8765428 -0.12586176
v 1.051118 1.7875385 1.0251999E-05
v 1.2190676 1.6953895 -0.12586176
v 1.3449395 1.6953895 1.0251999E-05
v 1.22914 1.9655504 1.0251999E-05
v 1.1401391 1.8765428 -0.12586176
v 1.3449395 1.6953895 1.0251999E-05
v 1.2190676 1.6953895 0.12588215
v 1.1401391 1.8765428 0.12588215
v 1.22914 1.9655504 1.0251999E-05
v 1.2190676 1.6953895 0.12588215
v 1.0931957 1.6953895 1.0251999E-05
v 1.051118 1.7875385 1.0251999E-05
v 1.1401391 1.8765428 0.12588215
v 1.051118 1.7875385 1.0251999E-05
v 1.1401391 1.8765428 -0.12586176
v 0.9535318 1.945225 -0.12586176
v 0.9535318 1.8193531 1.0251999E-05
v 1.1401391 1.8765428 -0.12586176
v 1.22914 1.9655504 1.0251999E-05
v 0.9535318 2.0710971 1.0251999E-05
v 0.9535318 1.945225 -0.12586176
v 1.22914 1.9655504 1.0251999E-05
v 1.1401391 1.8765428 0.12588215
v 0.9535318 1.945225 0.12588215
v 0.9535318 2.0710971 1.0251999E-05
v 1.1401391 1.8765428 0.12588215
v 1.051118 1.7875385 1.0251999E-05
v 0.9535318 1.8193531 1.0251999E-05
v 0.9535318 1.945225 0.12588215
v 1.2221621 0.8828614 -0.081732154
v 1.2221621 0.9645939 1.0251999E-05
v -0.0012333393 0.96459055 1.0251999E-05
v -0.0012333393 0.8828547 -0.081732154
v 1.2221621 0.8011291 1.0251999E-05
v 1.2221621 0.8828614 -0.081732154
v -0.0012333393 0.8828547 -0.081732154
v -0.0012333393 0.8011224 1.0251999E-05
v 1.2221621 0.8828614 0.08173585
v 1.2221621 0.8011291 1.0251999E-05
v -0.0012333393 0.8011224 1.0251999E-05
v -0.0012333393 0.8828547 0.08173251
v -0.0012333393 0.8828547 0.08173251
v -1.2246256 0.88285136 0.08173251
v -1.2246256 0.9645839 6.914139E-06
v -0.0012333393 0.96459055 1.0251999E-05
v -1.0174088 -0.023874164 -0.17457628
v -1.0174088 0.14837301 -0.17457628
v -1.4331155 0.14837301 -0.17457628
v -1.4331155 -0.023874164 -0.17457628
v -1.0174088 0.14837301 -0.17457628
v -1.0174088 0.14837301 0.17456996
v -1.4331155 0.14837301 0.17456996
v -1.4331155 0.14837301 -0.17457628
v -1.0174088 0.14837301 0.17456996
v -1.0174088 -0.023874164 0.17456996
v -1.4331155 -0.023874164 0.17456996
v -1.4331155 0.14837301 0.17456996
v -1.4331155 0.14837301 0.17456996
v -1.4331155 -0.023874164 0.17456996
v -1.4331155 -0.023874164 -0.17457628
v -1.4331155 0.14837301 -0.17457628
v -1.0174088 0.14837301 -0.17457628
v -1.0174088 -0.023874164 -0.17457628
v -1.0174088 -0.023874164 0.17456996
v -1.0174088 0.14837301 0.17456996
v 1.433115 -0.02386415 -0.17457294
v 1.433115 0.14838302 -0.17457294
v 1.0174085 0.14838302 -0.17457294
v 1.0174085 -0.02386415 -0.17457294
v 1.433115 0.14838302 -0.17457294
v 1.433115 0.14838302 0.17457664
v 1.0174085 0.14838302 0.17457664
v 1.0174085 0.14838302 -0.17457294
v 1.433115 0.14838302 0.17457664
v 1.433115 -0.02386415 0.17457664
v 1.0174085 -0.02386415 0.17457664
v 1.0174085 0.14838302 0.17457664
v 1.0174085 0.14838302 0.17457664
v 1.0174085 -0.02386415 0.17457664
v 1.0174085 -0.02386415 -0.17457294
v 1.0174085 0.14838302 -0.17457294
v 1.433115 0.14838302 -0.17457294
v 1.433115 -0.02386415 -0.17457294
v 1.433115 -0.02386415 0.17457664
v 1.433115 0.14838302 0.17457664
v 0.9535318 1.945225 -0.12586176
v -0.006145954 1.8193464 1.0251999E-05
v 0.9535318 1.8193531 1.0251999E-05
v -0.006145954 1.9452183 -0.12586176
v 0.9535318 2.0710971 1.0251999E-05
v -0.006145954 2.0710936 1.0251999E-05
v 0.9535318 1.945225 0.12588215
v -0.006145954 1.9452183 0.12587881
v 0.9535318 1.8193531 1.0251999E-05
v -0.006145954 1.8193464 1.0251999E-05
v -1.2246256 0.88285136 -0.08173549
v -0.0012333393 0.96459055 1.0251999E-05
v -1.2246256 0.9645839 6.914139E-06
v -0.0012333393 0.8828547 -0.081732154
v -1.2246256 0.8011191 6.914139E-06
v -0.0012333393 0.8011224 1.0251999E-05
v -1.2246256 0.88285136 0.08173251
v -0.0012333393 0.8828547 0.08173251
v 1.2221621 0.8828614 0.08173585
v -0.0012333393 0.96459055 1.0251999E-05
v 1.2221621 0.9645939 1.0251999E-05
vt 0.76819086 0.84018445
vt 0.7919556 0.8815561
vt 0.7864515 0.88411045
vt 0.7626868 0.8427388
vt 0.7626868 0.8427388
vt 0.7864515 0.88411045
vt 0.78094745 0.8866648
vt 0.7571827 0.8452932
vt 0.7572131 0.8452932
vt 0.78094745 0.8866648
vt 0.7864515 0.88411045
vt 0.7627172 0.8427388
vt 0.7627172 0.8427388
vt 0.7864515 0.88411045
vt 0.7919556 0.8815561
vt 0.76822126 0.84018445
vt 0.7919556 0.8815561
vt 0.7944035 0.8838368
vt 0.79118013 0.8886262
vt 0.7864515 0.88411045
vt 0.7864515 0.88411045
vt 0.79118013 0.8886262
vt 0.7879568 0.89340043
vt 0.78094745 0.8866648
vt 0.78094745 0.8866648
vt 0.7879568 0.89340043
vt 0.79118013 0.8886262
vt 0.7864515 0.88411045
vt 0.7864515 0.88411045
vt 0.79118013 0.8886262
vt 0.7944035 0.883852
vt 0.7919556 0.8815561
vt 0.7944035 0.8838368
vt 0.79788536 0.8846122
vt 0.79787016 0.89020747
vt 0.79118013 0.8886262
vt 0.79118013 0.8886262
vt 0.79787016 0.89020747
vt 0.79787016 0.8958028
vt 0.7879568 0.89340043
vt 0.7879568 0.89340043
vt 0.79787016 0.8958028
vt 0.79787016 0.89020747
vt 0.79118013 0.8886262
vt 0.79118013 0.8886262
vt 0.79787016 0.89020747
vt 0.79788536 0.8846122
vt 0.7944035 0.883852
vt 0.79787016 0.89020747
vt 0.79788536 0.8846122
vt 0.8312138 0.8846122
vt 0.8312138 0.89020747
vt 0.8312138 0.8958028
vt 0.79787016 0.8958028
vt 0.79787016 0.89020747
vt 0.8312138 0.89020747
vt 0.8312138 0.89020747
vt 0.79787016 0.89020747
vt 0.79787016 0.8958028
vt 0.8312138 0.8958028
vt 0.8312138 0.8846122
vt 0.79788536 0.8846122
vt 0.79787016 0.89020747
vt 0.8312138 0.89020747
vt 0.7680388 0.8403517
vt 0.76254994 0.84290606
vt 0.7864059 0.8842321
vt 0.79191 0.88166255
vt 0.76254994 0.84290606
vt 0.75704587 0.8454757
vt 0.78091705 0.88680166
vt 0.7864059 0.8842321
vt 0.75704587 0.8454757
vt 0.76254994 0.84290606
vt 0.7864211 0.8842473
vt 0.78091705 0.88681686
vt 0.76254994 0.84290606
vt 0.768054 0.8403517
vt 0.79191 0.88167775
vt 0.7864211 0.8842473
vt 0.79191 0.88166255
vt 0.7864059 0.8842321
vt 0.79114974 0.8887175
vt 0.7943731 0.8839432
vt 0.7864059 0.8842321
vt 0.78091705 0.88680166
vt 0.7879416 0.8935069
vt 0.79114974 0.8887175
vt 0.78091705 0.88681686
vt 0.7864211 0.8842473
vt 0.79116493 0.8887479
vt 0.7879416 0.8935221
vt 0.7864211 0.8842473
vt 0.79191 0.88167775
vt 0.7943731 0.8839584
vt 0.79116493 0.8887479
vt 0.7943731 0.8839432
vt 0.79114974 0.8887175
vt 0.79785496 0.89020747
vt 0.79785496 0.8846122
vt 0.79114974 0.8887175
vt 0.7879416 0.8935069
vt 0.79787016 0.8958028
vt 0.79785496 0.89020747
vt 0.7879416 0.8935221
vt 0.79116493 0.8887479
vt 0.79785496 0.89020747
vt 0.79787016 0.8958028
vt 0.79116493 0.8887479
vt 0.7943731 0.8839584
vt 0.79785496 0.8846122
vt 0.79785496 0.89020747
vt 0.79785496 0.89020747
vt 0.79787016 0.8958028
vt 0.8312138 0.8958028
vt 0.8312138 0.89020747
vt 0.79785496 0.8846122
vt 0.79785496 0.89020747
vt 0.8312138 0.89020747
vt 0.8312138 0.8846122
vt 0.79785496 0.89020747
vt 0.79785496 0.8846122
vt 0.8312138 0.8846122
vt 0.8312138 0.89020747
vt 0.8312138 0.89020747
vt 0.79785496 0.89020747
vt 0.79787016 0.8958028
vt 0.8312138 0.8958028
vt 0.7558143 0.57855946
vt 0.7534728 0.57855946
vt 0.7534728 0.598964
vt 0.7558143 0.598964
vt 0.7534728 0.57855946
vt 0.73325074 0.57855946
vt 0.73325074 0.598964
vt 0.7534728 0.598964
vt 0.7534576 0.57855946
vt 0.7558143 0.57855946
vt 0.7558143 0.598964
vt 0.7534576 0.598964
vt 0.73325074 0.598964
vt 0.73325074 0.60233945
vt 0.7534728 0.60233945
vt 0.7534728 0.598964
vt 0.7534576 0.598964
vt 0.7534576 0.60235465
vt 0.73325074 0.60235465
vt 0.73325074 0.598964
vt 0.7558143 0.57855946
vt 0.7534728 0.57855946
vt 0.7534728 0.598964
vt 0.7558143 0.598964
vt 0.7534728 0.57855946
vt 0.73325074 0.57855946
vt 0.73325074 0.598964
vt 0.7534728 0.598964
vt 0.7534576 0.57855946
vt 0.7558143 0.57855946
vt 0.7558143 0.598964
vt 0.7534576 0.598964
vt 0.73325074 0.598964
vt 0.73325074 0.60233945
vt 0.7534728 0.60233945
vt 0.7534728 0.598964
vt 0.7534576 0.598964
vt 0.7534576 0.60235465
vt 0.73325074 0.60235465
vt 0.73325074 0.598964
vt 0.79785496 0.89020747
vt 0.8312138 0.8846122
vt 0.79785496 0.8846122
vt 0.8312138 0.89020747
vt 0.79787016 0.8958028
vt 0.8312138 0.8958028
vt 0.79785496 0.89020747
vt 0.8312138 0.89020747
vt 0.79785496 0.8846122
vt 0.8312138 0.8846122
vt 0.79785496 0.89020747
vt 0.8312138 0.8958028
vt 0.79787016 0.8958028
vt 0.8312138 0.89020747
vt 0.79785496 0.8846122
vt 0.8312138 0.8846122
vt 0.79785496 0.89020747
vt 0.8312138 0.89020747
vt 0.79785496 0.89020747
vt 0.8312138 0.8958028
vt 0.79787016 0.8958028
vn 0.70674455 0.0009775162 -0.70746815
vn 0.70674455 0.0009775162 -0.70746815
vn 0.70674455 0.0009775162 -0.70746815
vn 0.70674455 0.0009775162 -0.70746815
vn -0.70674455 0.0009775162 -0.70746815
vn -0.70674455 0.0009775162 -0.70746815
vn -0.70674455 0.0009775162 -0.70746815
vn -0.70674455 0.0009775162 -0.70746815
vn -0.70674455 0.0009775162 0.70746815
vn -0.70674455 0.0009775162 0.70746815
vn -0.70674455 0.0009775162 0.70746815
vn -0.70674455 0.0009775162 0.70746815
vn 0.70674455 0.0009775162 0.70746815
vn 0.70674455 0.0009775162 0.70746815
vn 0.70674455 0.0009775162 0.70746815
vn 0.70674455 0.0009775162 0.70746815
vn 0.67546403 -0.2942325 -0.67614764
vn 0.66373384 -0.30205262 -0.6842672
vn 0.67546403 -0.2942325 -0.67614764
vn 0.67546403 -0.2942325 -0.67614764
vn -0.67741907 0.29032242 -0.67588186
vn -0.67155397 0.29227746 -0.6808738
vn -0.67741907 0.29032242 -0.67588186
vn -0.67741907 0.29032242 -0.67588186
vn -0.67546403 0.2942325 0.67614764
vn -0.673509 0.2883674 0.68060994
vn -0.67546403 0.2942325 0.67614764
vn -0.67546403 0.2942325 0.67614764
vn 0.673509 -0.3079177 0.6719913
vn 0.67155397 -0.29227746 0.6808738
vn 0.673509 -0.3079177 0.6719913
vn 0.673509 -0.3079177 0.6719913
vn 0.25513184 -0.69501436 -0.6722074
vn 0.22385132 -0.68914926 -0.68917626
vn 0.25513184 -0.69501436 -0.6722074
vn 0.25513184 -0.69501436 -0.6722074
vn -0.264907 0.68914926 -0.67446095
vn -0.25122178 0.6852392 -0.68361896
vn -0.264907 0.68914926 -0.67446095
vn -0.264907 0.68914926 -0.67446095
vn -0.25513184 0.69501436 0.6722074
vn -0.26099694 0.68328416 0.6819115
vn -0.25513184 0.69501436 0.6722074
vn -0.25513184 0.69501436 0.6722074
vn 0.23167145 -0.7106546 0.66430295
vn 0.25122178 -0.6852392 0.68361896
vn 0.23167145 -0.7106546 0.66430295
vn 0.23167145 -0.7106546 0.66430295
vn -0.0009775162 -0.70674455 -0.70746815
vn -0.0009775162 -0.70674455 -0.70746815
vn -0.0009775162 -0.70674455 -0.70746815
vn -0.0009775162 -0.70674455 -0.70746815
vn -0.0009775162 0.70674455 -0.70746815
vn -0.0009775162 0.70674455 -0.70746815
vn -0.0009775162 0.70674455 -0.70746815
vn -0.0009775162 0.70674455 -0.70746815
vn -0.0009775162 0.70674455 0.70746815
vn -0.0009775162 0.70674455 0.70746815
vn -0.0009775162 0.70674455 0.70746815
vn -0.0009775162 0.70674455 0.70746815
vn -0.0009775162 -0.70674455 0.70746815
vn -0.0009775162 -0.70674455 0.70746815
vn -0.0009775162 -0.70674455 0.70746815
vn -0.0009775162 -0.70674455 0.70746815
vn -0.70674455 0.0009775162 -0.70746815
vn -0.70674455 0.0009775162 -0.70746815
vn -0.70674455 0.0009775162 -0.70746815
vn -0.70674455 0.0009775162 -0.70746815
vn 0.70674455 0.0009775162 -0.70746815
vn 0.70674455 0.0009775162 -0.70746815
vn 0.70674455 0.0009775162 -0.70746815
vn 0.70674455 0.0009775162 -0.70746815
vn 0.70674455 0.0009775162 0.70746815
vn 0.70674455 0.0009775162 0.70746815
vn 0.70674455 0.0009775162 0.70746815
vn 0.70674455 0.0009775162 0.70746815
vn -0.70674455 0.0009775162 0.70746815
vn -0.70674455 0.0009775162 0.70746815
vn -0.70674455 0.0009775162 0.70746815
vn -0.70674455 0.0009775162 0.70746815
vn -0.66373384 -0.30400765 -0.68340087
vn -0.67546403 -0.2942325 -0.67614764
vn -0.66373384 -0.30400765 -0.68340087
vn -0.66373384 -0.30400765 -0.68340087
vn 0.67155397 0.29227746 -0.6808738
vn 0.67741907 0.29032242 -0.67588186
vn 0.67155397 0.29227746 -0.6808738
vn 0.67155397 0.29227746 -0.6808738
vn 0.673509 0.2883674 0.68060994
vn 0.67546403 0.2942325 0.67614764
vn 0.673509 0.2883674 0.68060994
vn 0.673509 0.2883674 0.68060994
vn -0.67155397 -0.29227746 0.6808738
vn -0.673509 -0.3079177 0.6719913
vn -0.67155397 -0.29227746 0.6808738
vn -0.67155397 -0.29227746 0.6808738
vn -0.22385132 -0.68914926 -0.68917626
vn -0.25513184 -0.69501436 -0.6722074
vn -0.22385132 -0.68914926 -0.68917626
vn -0.22385132 -0.68914926 -0.68917626
vn 0.25122178 0.6852392 -0.68361896
vn 0.264907 0.68914926 -0.67446095
vn 0.25122178 0.6852392 -0.68361896
vn 0.25122178 0.6852392 -0.68361896
vn 0.26099694 0.68328416 0.6819115
vn 0.25513184 0.69501436 0.6722074
vn 0.26099694 0.68328416 0.6819115
vn 0.26099694 0.68328416 0.6819115
vn -0.25122178 -0.6852392 0.68361896
vn -0.23167145 -0.7106546 0.66430295
vn -0.25122178 -0.6852392 0.68361896
vn -0.25122178 -0.6852392 0.68361896
vn -0.0009775162 0.70674455 -0.70746815
vn -0.0009775162 0.70674455 -0.70746815
vn -0.0009775162 0.70674455 -0.70746815
vn -0.0009775162 0.70674455 -0.70746815
vn -0.0009775162 -0.70674455 -0.70746815
vn -0.0009775162 -0.70674455 -0.70746815
vn -0.0009775162 -0.70674455 -0.70746815
vn -0.0009775162 -0.70674455 -0.70746815
vn -0.0009775162 -0.70674455 0.70746815
vn -0.0009775162 -0.70674455 0.70746815
vn -0.0009775162 -0.70674455 0.70746815
vn -0.0009775162 -0.70674455 0.70746815
vn -0.0009775162 0.70674455 0.70746815
vn -0.0009775162 0.70674455 0.70746815
vn -0.0009775162 0.70674455 0.70746815
vn -0.0009775162 0.70674455 0.70746815
vn -0.0009775162 0.0009775162 -0.99999905
vn -0.0009775162 0.0009775162 -0.99999905
vn -0.0009775162 0.0009775162 -0.99999905
vn -0.0009775162 0.0009775162 -0.99999905
vn -0.0009775162 0.9999995 -0
vn -0.0009775162 0.9999995 -0
vn -0.0009775162 0.9999995 -0
vn -0.0009775162 0.9999995 -0
vn -0.0009775162 0.0009775162 0.99999905
vn -0.0009775162 0.0009775162 0.99999905
vn -0.0009775162 0.0009775162 0.99999905
vn -0.0009775162 0.0009775162 0.99999905
vn -0.9999995 0.0009775162 -0
vn -0.9999995 0.0009775162 -0
vn -0.9999995 0.0009775162 -0
vn -0.9999995 0.0009775162 -0
vn 0.9999995 0.0009775162 -0
vn 0.9999995 0.0009775162 -0
vn 0.9999995 0.0009775162 -0
vn 0.9999995 0.0009775162 -0
vn -0.0009775162 0.0009775162 -0.99999905
vn -0.0009775162 0.0009775162 -0.99999905
vn -0.0009775162 0.0009775162 -0.99999905
vn -0.0009775162 0.0009775162 -0.99999905
vn -0.0009775162 0.9999995 -0
vn -0.0009775162 0.9999995 -0
vn -0.0009775162 0.9999995 -0
vn -0.0009775162 0.9999995 -0
vn -0.0009775162 0.0009775162 0.99999905
vn -0.0009775162 0.0009775162 0.99999905
vn -0.0009775162 0.0009775162 0.99999905
vn -0.0009775162 0.0009775162 0.99999905
vn -0.9999995 0.0009775162 -0
vn -0.9999995 0.0009775162 -0
vn -0.9999995 0.0009775162 -0
vn -0.9999995 0.0009775162 -0
vn 0.9999995 0.0009775162 -0
vn 0.9999995 0.0009775162 -0
vn 0.9999995 0.0009775162 -0
vn 0.9999995 0.0009775162 -0
vn -0.0009775162 0.0009775162 -0.99999905
vn -0.0009775162 -0.9999995 -0
vn -0.0009775162 -0.9999995 -0
vn -0.0009775162 0.0009775162 -0.99999905
vn -0.0009775162 0.9999995 -0
vn -0.0009775162 0.9999995 -0
vn -0.0009775162 0.0009775162 0.99999905
vn -0.0009775162 0.0009775162 0.99999905
vn -0.0009775162 -0.9999995 -0
vn -0.0009775162 -0.9999995 -0
vn -0.0009775162 0.0009775162 -0.99999905
vn -0.0009775162 0.9999995 -0
vn -0.0009775162 0.70674455 -0.70746815
vn -0.0009775162 0.0009775162 -0.99999905
vn -0.0009775162 -0.9999995 -0
vn -0.0009775162 -0.9999995 -0
vn -0.0009775162 -0.70674455 0.70746815
vn -0.0009775162 0.0009775162 0.99999905
vn -0.0009775162 0.70674455 0.70746815
vn -0.0009775162 0.9999995 -0
vn -0.0009775162 0.70674455 0.70746815
g febg_factory_001_floorrail_07_0
f 3/3/3 2/2/2 1/1/1
f 4/4/4 3/3/3 1/1/1
f 7/7/7 6/6/6 5/5/5
f 8/8/8 7/7/7 5/5/5
f 11/11/11 10/10/10 9/9/9
f 12/12/12 11/11/11 9/9/9
f 15/15/15 14/14/14 13/13/13
f 16/16/16 15/15/15 13/13/13
f 19/19/19 18/18/18 17/17/17
f 20/20/20 19/19/19 17/17/17
f 23/23/23 22/22/22 21/21/21
f 24/24/24 23/23/23 21/21/21
f 27/27/27 26/26/26 25/25/25
f 28/28/28 27/27/27 25/25/25
f 31/31/31 30/30/30 29/29/29
f 32/32/32 31/31/31 29/29/29
f 35/35/35 34/34/34 33/33/33
f 36/36/36 35/35/35 33/33/33
f 39/39/39 38/38/38 37/37/37
f 40/40/40 39/39/39 37/37/37
f 43/43/43 42/42/42 41/41/41
f 44/44/44 43/43/43 41/41/41
f 47/47/47 46/46/46 45/45/45
f 48/48/48 47/47/47 45/45/45
f 51/51/51 50/50/50 49/49/49
f 52/52/52 51/51/51 49/49/49
f 55/55/55 54/54/54 53/53/53
f 56/56/56 55/55/55 53/53/53
f 59/59/59 58/58/58 57/57/57
f 60/60/60 59/59/59 57/57/57
f 63/63/63 62/62/62 61/61/61
f 64/64/64 63/63/63 61/61/61
f 67/67/67 66/66/66 65/65/65
f 68/68/68 67/67/67 65/65/65
f 71/71/71 70/70/70 69/69/69
f 72/72/72 71/71/71 69/69/69
f 75/75/75 74/74/74 73/73/73
f 76/76/76 75/75/75 73/73/73
f 79/79/79 78/78/78 77/77/77
f 80/80/80 79/79/79 77/77/77
f 83/83/83 82/82/82 81/81/81
f 84/84/84 83/83/83 81/81/81
f 87/87/87 86/86/86 85/85/85
f 88/88/88 87/87/87 85/85/85
f 91/91/91 90/90/90 89/89/89
f 92/92/92 91/91/91 89/89/89
f 95/95/95 94/94/94 93/93/93
f 96/96/96 95/95/95 93/93/93
f 99/99/99 98/98/98 97/97/97
f 100/100/100 99/99/99 97/97/97
f 103/103/103 102/102/102 101/101/101
f 104/104/104 103/103/103 101/101/101
f 107/107/107 106/106/106 105/105/105
f 108/108/108 107/107/107 105/105/105
f 111/111/111 110/110/110 109/109/109
f 112/112/112 111/111/111 109/109/109
f 115/115/115 114/114/114 113/113/113
f 116/116/116 115/115/115 113/113/113
f 119/119/119 118/118/118 117/117/117
f 120/120/120 119/119/119 117/117/117
f 123/123/123 122/122/122 121/121/121
f 124/124/124 123/123/123 121/121/121
f 127/127/127 126/126/126 125/125/125
f 128/128/128 127/127/127 125/125/125
f 131/131/131 130/130/130 129/129/129
f 132/132/132 131/131/131 129/129/129
f 135/135/135 134/134/134 133/133/133
f 136/136/136 135/135/135 133/133/133
f 139/139/139 138/138/138 137/137/137
f 140/140/140 139/139/139 137/137/137
f 143/143/143 142/142/142 141/141/141
f 144/144/144 143/143/143 141/141/141
f 147/147/147 146/146/146 145/145/145
f 148/148/148 147/147/147 145/145/145
f 151/151/151 150/150/150 149/149/149
f 152/152/152 151/151/151 149/149/149
f 155/155/155 154/154/154 153/153/153
f 156/156/156 155/155/155 153/153/153
f 159/159/159 158/158/158 157/157/157
f 160/160/160 159/159/159 157/157/157
f 163/163/163 162/162/162 161/161/161
f 164/164/164 163/163/163 161/161/161
f 167/167/167 166/166/166 165/165/165
f 168/168/168 167/167/167 165/165/165
f 171/171/171 170/170/170 169/169/169
f 170/170/170 172/172/172 169/169/169
f 169/169/169 172/172/172 173/173/173
f 172/172/172 174/174/174 173/173/173
f 173/173/173 174/174/174 175/175/175
f 174/174/174 176/176/176 175/175/175
f 175/175/175 176/176/176 177/177/177
f 176/176/176 178/178/178 177/177/177
f 181/181/181 180/180/180 179/179/179
f 180/180/180 182/182/182 179/179/179
f 179/179/179 182/182/182 183/183/183
f 182/182/182 184/184/184 183/183/183
f 183/183/183 184/184/184 185/185/185
f 184/184/184 186/186/186 185/185/185
f 188/188/188 186/186/186 187/187/187
f 189/189/189 188/188/188 187/187/187
