g febg_factory_001_deskglass_01
v -1.4454851 3.1292703 0.21627522
v -1.2861927 4.250718 0.85880923
v -1.4438608 4.077838 0.75899243
v -1.2864277 2.9825933 0.13159037
v 1.192996 2.9825933 0.13159037
v 1.192761 4.250718 0.85880923
v 1.3501992 4.077838 0.75899243
v 1.3520586 3.1292703 0.21627522
v -1.4454851 3.1292703 0.26262772
v -1.4438608 4.077838 0.8053448
v -1.2861927 4.250718 0.9051564
v -1.2864225 2.9825933 0.17794287
v 1.192996 2.9825933 0.17794287
v 1.192761 4.250718 0.9051616
v 1.3501992 4.077838 0.8053448
v 1.3520586 3.1292703 0.26262772
vt 0.32400298 0.036892414
vt 0.3057605 0.1992333
vt 0.32380426 0.17636728
vt 0.30578697 0.017497301
vt 0.022001624 0.017497301
vt 0.022028089 0.1992333
vt 0.003984332 0.17640698
vt 0.0037856102 0.036892414
vt 0.32394993 0.036706924
vt 0.32373798 0.1761818
vt 0.30570745 0.1990478
vt 0.30573392 0.017311811
vt 0.021935463 0.017311811
vt 0.02197516 0.1990478
vt 0.003931403 0.17622161
vt 0.0037326813 0.036706924
vn -0.0040932554 -0.0038897388 -0.999984
vn 0.0011057197 -0.0029590582 -0.999995
vn 0.0033040517 -0.0029590582 -0.99999017
vn -0.0009963354 -0.0032478902 -0.9999942
vn 0.0011057197 -0.0035286988 -0.99999315
vn -0.0009000581 -0.0014025748 -0.99999857
vn -0.00040262518 -0.0021246546 -0.9999976
vn 0.004106363 -0.0038897388 -0.99998397
vn 0.00409834 0.0038926783 0.999984
vn -0.003306991 0.0029700203 0.9999901
vn -0.0011006356 0.002961997 0.999995
vn 0.0010014193 0.0032588523 0.99999416
vn -0.0011006356 0.003539661 0.99999315
vn 0.0008971188 0.0014215601 0.99999857
vn 0.00039968593 0.0021356167 0.9999976
vn -0.0041012787 0.0038926783 0.999984
g febg_factory_001_deskglass_01_0
f 3/3/3 2/2/2 1/1/1
f 2/2/2 4/4/4 1/1/1
f 5/5/5 4/4/4 2/2/2
f 6/6/6 5/5/5 2/2/2
f 5/5/5 6/6/6 7/7/7
f 8/8/8 5/5/5 7/7/7
f 11/11/11 10/10/10 9/9/9
f 12/12/12 11/11/11 9/9/9
f 11/11/11 12/12/12 13/13/13
f 14/14/14 11/11/11 13/13/13
f 15/15/15 14/14/14 13/13/13
f 16/16/16 15/15/15 13/13/13
