g febg_mothership_001_4fwindow_01
v 16.90061 35.39982 44.74832
v 16.90061 31.921194 44.74832
v 16.904308 31.917494 37.765038
v 16.904308 35.399757 37.14868
v 17.300484 35.399757 36.7498
v 17.300484 31.917364 37.36609
v 21.667513 35.399757 36.716568
v 21.667513 31.918486 37.332863
v 14.409544 27.562357 40.33036
v 14.430089 27.562555 44.013718
v 14.39752 27.457449 44.15033
v 14.058028 26.485018 44.148285
v 14.023609 26.37998 44.011208
v 13.978886 26.379717 39.617683
v 14.453342 26.379717 39.3023
v 14.884332 27.562357 40.01558
v 17.002544 27.562292 40.020134
v 17.002478 26.379648 39.304283
v 24.091988 27.562357 40.33043
v 24.104012 27.457449 44.15033
v 24.071508 27.562555 44.013718
v 24.443504 26.485018 44.148285
v 24.477922 26.37998 44.011208
v 24.522646 26.379717 39.617683
v 24.04819 26.379717 39.3023
v 23.617266 27.562357 40.01558
v 21.498987 27.562292 40.020134
v 21.499054 26.379648 39.30435
vt 0.926445 0.6128769
vt 0.73152924 0.6128769
vt 0.73152924 0.8124008
vt 0.926445 0.8124008
vt 0.926445 0.8306732
vt 0.73152924 0.8306732
vt 0.926445 0.94683075
vt 0.73152924 0.94683075
vt 0.8317108 0.76062775
vt 0.829689 0.9543991
vt 0.8354111 0.9616318
vt 0.91212463 0.96199036
vt 0.91799164 0.95482635
vt 0.92077637 0.72369385
vt 0.9068756 0.6971359
vt 0.81781006 0.73407745
vt 0.73457336 0.65724945
vt 0.8097992 0.6046219
vt 0.8317108 0.76062775
vt 0.8354111 0.9616318
vt 0.829689 0.9543991
vt 0.91212463 0.96199036
vt 0.91799164 0.95482635
vt 0.92077637 0.72369385
vt 0.9068756 0.6971359
vt 0.81781006 0.73407745
vt 0.73457336 0.65724945
vt 0.8097992 0.6046219
vn -0.99999994 -9.512901E-05 -0.00033190323
vn -0.99999994 -9.512901E-05 -0.00033190323
vn -0.9372563 -0.060937405 -0.34327438
vn -0.90683514 -0.074246645 -0.41489452
vn -0.36876124 -0.16170746 -0.91535014
vn -0.39918238 -0.15980613 -0.9028374
vn -0.0075101852 -0.1750167 -0.9845368
vn -0.0075101852 -0.1750167 -0.9845368
vn -0.8155717 0.48474187 -0.3160191
vn -0.9448616 0.32693213 0.018760147
vn -0.9448616 0.32693213 0.018760147
vn -0.9429603 0.3307348 0.037951797
vn -0.9424471 0.33435538 -0
vn -0.716703 0.5322749 -0.45057768
vn -0.25658327 0.5664987 -0.7830991
vn -0.2128529 0.56079465 -0.80012685
vn 0.0019964576 0.5170643 -0.8559442
vn 0.0019964576 0.5170643 -0.8559442
vn 0.815762 0.48474187 -0.31552765
vn 0.9450483 0.32693088 -0
vn 0.9450483 0.32693088 -0
vn 0.9431505 0.3307348 0.03288736
vn 0.94246835 0.33429548 -0
vn 0.7168933 0.5322749 -0.45027477
vn 0.2548722 0.5664987 -0.7836577
vn 0.2130431 0.56079465 -0.8000762
vn -0.0018061996 0.5170643 -0.85594463
vn -0.0018061996 0.5170643 -0.85594463
g febg_mothership_001_4fwindow_01_0
f 3/3/3 2/2/2 1/1/1
f 4/4/4 3/3/3 1/1/1
f 4/4/4 5/5/5 3/3/3
f 5/5/5 6/6/6 3/3/3
f 6/6/6 5/5/5 7/7/7
f 8/8/8 6/6/6 7/7/7
f 11/11/11 10/10/10 9/9/9
f 12/12/12 11/11/11 9/9/9
f 13/13/13 12/12/12 9/9/9
f 14/14/14 13/13/13 9/9/9
f 15/15/15 14/14/14 9/9/9
f 16/16/16 15/15/15 9/9/9
f 16/16/16 17/17/17 15/15/15
f 17/17/17 18/18/18 15/15/15
f 21/21/21 20/20/20 19/19/19
f 20/20/20 22/22/22 19/19/19
f 22/22/22 23/23/23 19/19/19
f 23/23/23 24/24/24 19/19/19
f 24/24/24 25/25/25 19/19/19
f 25/25/25 26/26/26 19/19/19
f 27/27/27 26/26/26 25/25/25
f 28/28/28 27/27/27 25/25/25
