g febg_hotspring_001_garden_03
v 3.55707 0.9330969 -2.2459612
v 3.563425 0.00039958954 -2.2708457
v 4.152618 0.00039958954 -0.830657
v 4.130651 0.9330969 -0.8439443
v 3.3738358 0.99649906 -0.69724154
v 4.152618 0.00039958954 -0.830657
v 3.360021 -0.00044107437 -0.6744342
v 2.919839 0.99649906 -1.8069658
v 3.360021 -0.00044107437 -0.6744342
v 2.8939981 -0.00044107437 -1.8135519
v 2.8939981 -0.00044107437 -1.8135519
v 3.563425 0.00039958954 -2.2708457
v 0.040821552 0.97732687 -4.3009114
v 0.023116589 0.00038337708 -4.321518
v 1.6289 0.00038337708 -3.9581654
v 1.6040485 0.94816446 -3.9471946
v 1.242394 1.0136027 -3.183752
v 1.6289 0.00038337708 -3.9581654
v 1.2537854 -0.0004658699 -3.1579442
v 0.0050816536 1.0467215 -3.46373
v 1.2537854 -0.0004658699 -3.1579442
v -0.010966778 0.00038337708 -3.0392008
v -0.010966778 0.00038337708 -3.0392008
v 0.023116589 0.00038337708 -4.321518
v -1.5891538 0.76735353 -3.9144547
v -1.6125464 0.00039958954 -3.92503
v -0.0919261 0.00039958954 -4.2551894
v -0.10883188 0.76735353 -4.2358685
v -0.10373783 0.80831146 -3.4672003
v -0.0919261 0.00039958954 -4.2551894
v -0.070289135 0.00039958954 -3.0430007
v -1.2754302 0.80831146 -3.2128074
v -0.070289135 0.00039958954 -3.0430007
v -1.2864099 -0.00044107437 -3.1885
v -1.2864099 -0.00044107437 -3.1885
v -1.6125464 0.00039958954 -3.92503
v -0.09722614 0.9900451 3.5087104
v -1.2774253 -0.00044107437 3.2196898
v -0.0770154 -0.00044107437 3.4913182
v -1.2666602 0.97814274 3.2440882
v -0.11337328 0.9274092 4.2624426
v -0.0770154 -0.00044107437 3.4913182
v -0.09664106 0.00039958954 4.2819204
v -1.5908356 0.91693306 3.9281292
v -1.6143188 0.00039958954 3.9384985
v -1.2774253 -0.00044107437 3.2196898
v 3.8789537 0.77751684 1.6822133
v 3.9029727 0.00039958954 1.6731462
v 3.061192 0.00039958954 2.9818482
v 3.0594778 0.77751684 2.9562302
v 2.5079536 0.8198509 2.4336214
v 3.061192 0.00039958954 2.9818482
v 2.4813466 -0.00044107437 2.4353938
v 3.1565762 0.8198509 1.4252243
v 2.4813466 -0.00044107437 2.4353938
v 3.1471548 -0.00044107437 1.4002738
v 3.1471548 -0.00044107437 1.4002738
v 3.9029727 0.00039958954 1.6731462
v -3.9448786 0.99225426 1.5326505
v -3.9562864 0.00039958954 1.555656
v -4.2318954 0.00039958954 0.024212837
v -4.213193 1.0044618 0.0417943
v -3.4508553 1.0775328 0.0770731
v -4.2318954 0.00039958954 0.024212837
v -3.4325895 -0.00044107437 0.057644844
v -3.2384834 1.0636687 1.2571068
v -3.4325895 -0.00044107437 0.057644844
v -3.2145877 -0.00044107437 1.2689433
v -3.2145877 -0.00044107437 1.2689433
v -3.9562864 0.00039958954 1.555656
v -3.2688656 -0.00044107437 -0.9435978
v -2.9548535 0.91923237 -1.8307047
v -2.9287162 -0.00044107437 -1.8371506
v -3.3254929 1.0066047 -0.96098995
v -3.4889278 -0.00044107437 -0.013159275
v -3.506938 0.91923237 -0.0331645
v -3.5853338 0.86504555 -2.2808359
v -3.591549 0.00039958954 -2.3060007
v -2.9287162 -0.00044107437 -1.8371506
v -4.089858 0.9420152 -1.2088711
v -3.591549 0.00039958954 -2.3060007
v -4.1397343 0.00039958954 -1.224186
v -4.2740316 0.86504555 -0.03851366
v -4.2933035 0.00039958954 -0.021179676
v -3.4889278 -0.00044107437 -0.013159275
v -4.2933035 0.00039958954 -0.021179676
v -2.1658096 -0.00044107437 -2.5810742
v -1.416017 0.91923237 -3.1497347
v -1.3906379 -0.00044107437 -3.1407585
v -2.2035694 1.0066047 -2.626722
v -2.8609204 -0.00044107437 -1.9245884
v -2.864976 0.91923237 -1.9511957
v -1.7031827 0.86504555 -3.8753269
v -1.6945524 0.00039958954 -3.8997746
v -1.3906379 -0.00044107437 -3.1407585
v -2.7137313 0.9420152 -3.2568974
v -1.6945524 0.00039958954 -3.8997746
v -2.746982 0.00039958954 -3.297105
v -3.510672 0.86504555 -2.3802423
v -3.5362902 0.00039958954 -2.3763433
v -2.8609204 -0.00044107437 -1.9245884
v -3.5362902 0.00039958954 -2.3763433
v 2.1397712 -0.00044107437 -2.596958
v 2.816204 0.91923237 -1.9427388
v 2.8112092 -0.00044107437 -1.9162881
v 2.1791215 0.94666433 -2.6412458
v 1.384893 -0.00044107437 -3.1837356
v 1.4105768 0.91923237 -3.1918051
v 3.497146 0.86504555 -2.337298
v 3.5226157 0.00039958954 -2.332501
v 2.8112092 -0.00044107437 -1.9162881
v 2.7317333 0.8892293 -3.2416239
v 3.5226157 0.00039958954 -2.332501
v 2.7663937 0.00039958954 -3.2806196
v 1.74372 0.86504555 -3.8954306
v 1.7359555 0.00039958954 -3.920167
v 1.384893 -0.00044107437 -3.1837356
v 1.7359555 0.00039958954 -3.920167
v 3.3793502 -0.00044107437 0.3719287
v 3.2314358 0.91923237 1.3012795
v 3.2068975 -0.00044107437 1.3123574
v 3.4382026 0.94666433 0.37876225
v 3.427034 -0.00044107437 -0.58299017
v 3.448374 0.91923237 -0.5665791
v 3.9397185 0.86504555 1.6149368
v 3.9504008 0.00039958954 1.6385522
v 3.2068975 -0.00044107437 1.3123574
v 4.2414737 0.8892293 0.46924973
v 3.9504008 0.00039958954 1.6385522
v 4.2933035 0.00039958954 0.47526693
v 4.210341 0.86504555 -0.7150953
v 4.2261505 0.00039958954 -0.7356441
v 3.427034 -0.00044107437 -0.58299017
v 4.2261505 0.00039958954 -0.7356441
v 0.0626564 1.0047665 3.540708
v 0.042717457 -0.00044107437 3.522624
v 1.2954023 -0.00044107437 3.2082658
v 1.3181851 1.0217628 3.2632608
v 2.4021678 1.0047665 2.571653
v 2.4034781 -0.00044107437 2.5447655
v 2.9594202 0.94037485 3.100872
v 2.4034781 -0.00044107437 2.5447655
v 2.9853103 0.00039958954 3.10215
v 1.6327658 0.95535994 3.99998
v 0.05890608 0.94037485 4.302313
v 0.041497707 0.00039958954 4.321518
v 0.042717457 -0.00044107437 3.522624
v -3.8837423 0.94037485 1.6126456
v -3.1000152 0.0004081726 3.0235972
v -3.907753 0.00039958954 1.6028533
v -3.0613651 0.95535994 2.9881787
v -1.7627358 0.94037485 3.9273214
v -1.7550783 0.00039958954 3.9520826
v -2.4551759 1.0217628 2.459495
v -3.1453166 1.0047665 1.3745732
v -3.907753 0.00039958954 1.6028533
v -3.135137 -0.00044107437 1.349647
v -2.411292 -0.00044107437 2.419279
v -3.135137 -0.00044107437 1.349647
v -1.4345384 1.0047665 3.2415576
v -1.4088211 -0.00044107437 3.2335954
v -1.4088211 -0.00044107437 3.2335954
v -1.7550783 0.00039958954 3.9520826
vt 0.20334765 0.24739277
vt 0.20348392 0.25953585
vt 0.17957632 0.2593996
vt 0.18028794 0.24754418
vt 0.18393692 0.2304803
vt 0.16991638 0.24565156
vt 0.17309597 0.22851196
vt 0.20024376 0.2300412
vt 0.18354325 0.218958
vt 0.19965325 0.21830694
vt 0.21170548 0.2273461
vt 0.2151122 0.2448188
vt 0.20334765 0.24739277
vt 0.20348392 0.25953585
vt 0.17957632 0.2593996
vt 0.18028794 0.24754418
vt 0.18393692 0.2304803
vt 0.16991638 0.24565156
vt 0.17309597 0.22851196
vt 0.20024376 0.2300412
vt 0.18354325 0.218958
vt 0.19965325 0.21830694
vt 0.21170548 0.2273461
vt 0.2151122 0.2448188
vt 0.20334765 0.24739277
vt 0.20348392 0.25953585
vt 0.17957632 0.2593996
vt 0.18028794 0.24754418
vt 0.18393692 0.2304803
vt 0.16991638 0.24565156
vt 0.17309597 0.22851196
vt 0.20024376 0.2300412
vt 0.18354325 0.218958
vt 0.19965325 0.21830694
vt 0.21170548 0.2273461
vt 0.2151122 0.2448188
vt 0.20024376 0.2300412
vt 0.18354325 0.218958
vt 0.19965325 0.21830694
vt 0.18393692 0.2304803
vt 0.20334765 0.24739277
vt 0.21170548 0.2273461
vt 0.2151122 0.2448188
vt 0.18028794 0.24754418
vt 0.16991638 0.24565156
vt 0.17309597 0.22851196
vt 0.20334765 0.24739277
vt 0.20348392 0.25953585
vt 0.17957632 0.2593996
vt 0.18028794 0.24754418
vt 0.18393692 0.2304803
vt 0.16991638 0.24565156
vt 0.17309597 0.22851196
vt 0.20024376 0.2300412
vt 0.18354325 0.218958
vt 0.19965325 0.21830694
vt 0.21170548 0.2273461
vt 0.2151122 0.2448188
vt 0.20334765 0.24739277
vt 0.20348392 0.25953585
vt 0.17957632 0.2593996
vt 0.18028794 0.24754418
vt 0.18393692 0.2304803
vt 0.16991638 0.24565156
vt 0.17309597 0.22851196
vt 0.20024376 0.2300412
vt 0.18354325 0.218958
vt 0.19965325 0.21830694
vt 0.21170548 0.2273461
vt 0.2151122 0.2448188
vt 0.11459124 0.28839457
vt 0.12793043 0.30061334
vt 0.12738536 0.28775865
vt 0.114894055 0.30132496
vt 0.101751685 0.28833398
vt 0.10132774 0.30096158
vt 0.13368401 0.31913075
vt 0.14475207 0.3157846
vt 0.13942243 0.29737315
vt 0.11534829 0.32175013
vt 0.13547064 0.33181888
vt 0.11565111 0.3339689
vt 0.09649777 0.31984237
vt 0.09572557 0.33277276
vt 0.0889727 0.2979485
vt 0.08415787 0.31632966
vt 0.11459124 0.28839457
vt 0.12793043 0.30061334
vt 0.12738536 0.28775865
vt 0.114894055 0.30132496
vt 0.101751685 0.28833398
vt 0.10132774 0.30096158
vt 0.13368401 0.31913075
vt 0.14475207 0.3157846
vt 0.13942243 0.29737315
vt 0.11534829 0.32175013
vt 0.13547064 0.33181888
vt 0.11565111 0.3339689
vt 0.09649777 0.31984237
vt 0.09572557 0.33277276
vt 0.0889727 0.2979485
vt 0.08415787 0.31632966
vt 0.11459124 0.28839457
vt 0.12793043 0.30061334
vt 0.12738536 0.28775865
vt 0.114894055 0.30132496
vt 0.101751685 0.28833398
vt 0.10132774 0.30096158
vt 0.13368401 0.31913075
vt 0.14475207 0.3157846
vt 0.13942243 0.29737315
vt 0.11534829 0.32175013
vt 0.13547064 0.33181888
vt 0.11565111 0.3339689
vt 0.09649777 0.31984237
vt 0.09572557 0.33277276
vt 0.0889727 0.2979485
vt 0.08415787 0.31632966
vt 0.11459124 0.28839457
vt 0.12793043 0.30061334
vt 0.12738536 0.28775865
vt 0.114894055 0.30132496
vt 0.101751685 0.28833398
vt 0.10132774 0.30096158
vt 0.13368401 0.31913075
vt 0.14475207 0.3157846
vt 0.13942243 0.29737315
vt 0.11534829 0.32175013
vt 0.13547064 0.33181888
vt 0.11565111 0.3339689
vt 0.09649777 0.31984237
vt 0.09572557 0.33277276
vt 0.0889727 0.2979485
vt 0.08415787 0.31632966
vt 0.057782277 0.29470834
vt 0.057161495 0.28241387
vt 0.04024902 0.283504
vt 0.040309586 0.29640412
vt 0.022821754 0.2948749
vt 0.023336548 0.28256527
vt 0.01690163 0.31192365
vt 0.0110723525 0.2905597
vt 0.004985679 0.3080627
vt 0.04040043 0.31480044
vt 0.063868955 0.31169653
vt 0.07572434 0.3077296
vt 0.06948626 0.29028717
vt 0.063868955 0.31169653
vt 0.040445853 0.32715547
vt 0.0656253 0.32438466
vt 0.04040043 0.31480044
vt 0.01690163 0.31192365
vt 0.015251264 0.32462692
vt 0.040309586 0.29640412
vt 0.057782277 0.29470834
vt 0.07572434 0.3077296
vt 0.06948626 0.29028717
vt 0.04024902 0.283504
vt 0.057161495 0.28241387
vt 0.022821754 0.2948749
vt 0.023336548 0.28256527
vt 0.0110723525 0.2905597
vt 0.004985679 0.3080627
vn 0.2490421 0.554212 -0.79424626
vn 0.28617555 0.028481245 -0.95775384
vn 0.88030994 0.028481245 0.47354326
vn 0.7376395 0.554212 0.38566446
vn -0.35681868 0.62457 0.694689
vn 0.88030994 0.028481245 0.47354326
vn -0.474082 0.026526809 0.880081
vn -0.7418333 0.6265243 -0.23906186
vn -0.474082 0.026526809 0.880081
vn -0.95877063 0.026526809 -0.28294027
vn -0.95877063 0.026526809 -0.28294027
vn 0.28617555 0.028481245 -0.95775384
vn -0.49753463 0.56007516 -0.662401
vn -0.6108893 0.020663619 -0.79144627
vn 0.89789945 0.028481245 -0.4392783
vn 0.7474115 0.5483488 -0.37508625
vn 0.40734768 0.6577946 0.633541
vn 0.89789945 0.028481245 -0.4392783
vn 0.5089759 0.14183581 0.8490148
vn -0.6167524 0.67538416 0.40431762
vn 0.5089759 0.14183581 0.8490148
vn -0.6519314 0.17115164 0.73871005
vn -0.6519314 0.17115164 0.73871005
vn -0.6108893 0.020663619 -0.79144627
vn -0.7320614 0.5639839 -0.38211027
vn -0.89232135 0.034344316 -0.4500923
vn 0.62233055 0.038253188 -0.7818193
vn 0.50702155 0.56593835 -0.65010995
vn 0.61842173 0.67538416 0.4017596
vn 0.62233055 0.038253188 -0.7818193
vn 0.61646736 0.22782886 0.7536989
vn -0.4076327 0.6714753 0.6188348
vn 0.61646736 0.22782886 0.7536989
vn -0.52489614 0.17701483 0.8325562
vn -0.52489614 0.17701483 0.8325562
vn -0.89232135 0.034344316 -0.4500923
vn 0.6203761 0.62847877 -0.46919927
vn -0.43890297 0.026526809 -0.8981428
vn 0.78845364 0.026526809 -0.6145219
vn -0.35681868 0.62457 -0.694689
vn 0.75913775 0.64802265 0.061453402
vn 0.78845364 0.026526809 -0.6145219
vn 0.9995277 0.018709183 0.02437914
vn -0.71642625 0.6382507 -0.28172585
vn -0.9040477 0.018709183 -0.4270219
vn -0.43890297 0.026526809 -0.8981428
vn 0.7845448 0.5620295 -0.26193947
vn 0.94675916 0.034344316 -0.32010558
vn 0.1200524 0.034344316 0.9921733
vn 0.10832608 0.5639839 0.8186499
vn -0.7789668 0.6187068 0.10204231
vn 0.1200524 0.034344316 0.9921733
vn -0.9919952 0.03239 0.12205074
vn -0.24150968 0.62066126 -0.74595755
vn -0.9919952 0.03239 0.12205074
vn -0.32163966 0.03239 -0.946308
vn -0.32163966 0.03239 -0.946308
vn 0.94675916 0.034344316 -0.32010558
vn -0.4193591 0.54639435 0.72497666
vn -0.4877627 0.026526809 0.87257314
vn -0.7516053 0.026526809 -0.65907955
vn -0.6362963 0.5503032 -0.54064167
vn 0.4972496 0.63434196 -0.59190637
vn -0.7516053 0.026526809 -0.65907955
vn 0.65750957 0.024572372 -0.75304544
vn 0.67119026 0.6265243 0.39619553
vn 0.65750957 0.024572372 -0.75304544
vn 0.8724924 0.024572372 0.4880095
vn 0.8724924 0.024572372 0.4880095
vn -0.4877627 0.026526809 0.87257314
vn 0.95457673 0.04216194 0.29496717
vn 0.7571834 0.6011174 -0.2555998
vn 0.9584855 0.040207505 -0.28229228
vn 0.5930147 0.78483 0.1799318
vn 0.62428486 0.040207505 0.7801614
vn 0.47575128 0.59916294 0.6439445
vn -0.21023941 0.5405313 -0.81463206
vn -0.24541843 0.046070695 -0.9683219
vn 0.9584855 0.040207505 -0.28229228
vn -0.69688237 0.6832017 -0.21815231
vn -0.24541843 0.046070695 -0.9683219
vn -0.95486176 0.038253188 -0.29457715
vn -0.64020514 0.5405313 0.5458601
vn -0.75746846 0.04411626 0.6513795
vn 0.62428486 0.040207505 0.7801614
vn -0.75746846 0.04411626 0.6513795
vn 0.63601124 0.04216194 0.7705271
vn 0.7728185 0.6011174 0.20349315
vn 0.9565311 0.040207505 0.28884533
vn 0.39562136 0.78483 0.47699648
vn 0.092690945 0.040207505 0.99488276
vn 0.045785606 0.59916294 0.7993169
vn 0.26858604 0.5405313 -0.7973001
vn 0.32330894 0.04411626 -0.9452645
vn 0.9565311 0.040207505 0.28884533
vn -0.46431005 0.6832017 -0.56360596
vn 0.32330894 0.04411626 -0.9452645
vn -0.6362963 0.038253188 -0.7704958
vn -0.8336897 0.5405313 0.11308152
vn -0.9900408 0.04411626 0.13369
vn 0.092690945 0.040207505 0.99488276
vn -0.9900408 0.04411626 0.13369
vn -0.6636578 0.04411626 0.74673426
vn -0.09297609 0.6187068 0.7801008
vn -0.14183581 0.040207505 0.9890733
vn -0.42131352 0.77505803 0.47093526
vn -0.9704969 0.04216194 0.23739877
vn -0.76919484 0.6167524 0.16719997
vn 0.81776947 0.5581207 0.14055017
vn 0.98389256 0.046070695 0.17272207
vn -0.14183581 0.040207505 0.9890733
vn 0.4913864 0.6734297 -0.5522968
vn 0.98389256 0.046070695 0.17272207
vn 0.6633727 0.040207505 -0.7472081
vn -0.22196579 0.5581207 -0.7995201
vn -0.27473426 0.046070695 -0.96041584
vn -0.9704969 0.04216194 0.23739877
vn -0.27473426 0.046070695 -0.96041584
vn -0.9919952 0.04411626 -0.11831842
vn -0.68906486 0.6167524 0.38053402
vn -0.8884126 0.04216194 0.45710546
vn -0.62847877 0.77505803 -0.065570734
vn -0.7613772 0.040207505 -0.6470611
vn -0.58743656 0.6187068 -0.5216514
vn 0.36044234 0.5581207 0.7473838
vn 0.42689157 0.046070695 0.9031285
vn -0.8884126 0.04216194 0.45710546
vn 0.73373073 0.6734297 0.09017552
vn 0.42689157 0.046070695 0.9031285
vn 0.9917101 0.040207505 0.12204253
vn 0.52070224 0.5581207 -0.6460421
vn 0.6203761 0.046070695 -0.78295016
vn -0.7613772 0.040207505 -0.6470611
vn 0.6203761 0.046070695 -0.78295016
vn -0.62066126 0.62847877 -0.46882197
vn -0.78287554 0.038253188 -0.6210013
vn -0.38222563 0.040207505 -0.9231939
vn -0.23369205 0.7926475 -0.5631145
vn 0.098554134 0.62847877 -0.77155787
vn 0.104417324 0.038253188 -0.9937976
vn 0.56956196 0.6382507 -0.5179143
vn 0.104417324 0.038253188 -0.9937976
vn 0.69073415 0.018709183 -0.7228667
vn 0.03210491 0.99590397 0.08452556
vn -0.76333165 0.6441139 0.049417224
vn -0.9998127 0.018709183 -0.004945955
vn -0.78287554 0.038253188 -0.6210013
vn -0.7809211 0.5561664 -0.28432578
vn -0.73597014 0.03629875 0.67604023
vn -0.93336356 0.04411626 -0.35621092
vn -0.5581207 0.65388584 0.5108175
vn 0.198228 0.5561664 0.807084
vn 0.25099653 0.04216194 0.9670693
vn 0.45034426 0.7926475 -0.41097447
vn 0.23927015 0.62847877 -0.740111
vn -0.93336356 0.04411626 -0.35621092
vn 0.3311265 0.03629875 -0.9428879
vn 0.7376395 0.040207505 -0.6739965
vn 0.3311265 0.03629875 -0.9428879
vn 0.76304656 0.6265243 -0.15883079
vn 0.9741206 0.038253188 -0.22276837
vn 0.9741206 0.038253188 -0.22276837
vn 0.25099653 0.04216194 0.9670693
g febg_hotspring_001_garden_03_0
f 3/3/3 2/2/2 1/1/1
f 4/4/4 3/3/3 1/1/1
f 5/5/5 4/4/4 1/1/1
f 4/4/4 5/5/5 6/6/6
f 5/5/5 7/7/7 6/6/6
f 8/8/8 5/5/5 1/1/1
f 9/9/9 5/5/5 8/8/8
f 10/10/10 9/9/9 8/8/8
f 8/8/8 1/1/1 11/11/11
f 1/1/1 12/12/12 11/11/11
f 15/15/15 14/14/14 13/13/13
f 16/16/16 15/15/15 13/13/13
f 17/17/17 16/16/16 13/13/13
f 16/16/16 17/17/17 18/18/18
f 17/17/17 19/19/19 18/18/18
f 20/20/20 17/17/17 13/13/13
f 21/21/21 17/17/17 20/20/20
f 22/22/22 21/21/21 20/20/20
f 20/20/20 13/13/13 23/23/23
f 13/13/13 24/24/24 23/23/23
f 27/27/27 26/26/26 25/25/25
f 28/28/28 27/27/27 25/25/25
f 29/29/29 28/28/28 25/25/25
f 28/28/28 29/29/29 30/30/30
f 29/29/29 31/31/31 30/30/30
f 32/32/32 29/29/29 25/25/25
f 33/33/33 29/29/29 32/32/32
f 34/34/34 33/33/33 32/32/32
f 32/32/32 25/25/25 35/35/35
f 25/25/25 36/36/36 35/35/35
f 39/39/39 38/38/38 37/37/37
f 38/38/38 40/40/40 37/37/37
f 37/37/37 40/40/40 41/41/41
f 37/37/37 41/41/41 42/42/42
f 41/41/41 43/43/43 42/42/42
f 40/40/40 44/44/44 41/41/41
f 44/44/44 40/40/40 45/45/45
f 40/40/40 46/46/46 45/45/45
f 49/49/49 48/48/48 47/47/47
f 50/50/50 49/49/49 47/47/47
f 51/51/51 50/50/50 47/47/47
f 50/50/50 51/51/51 52/52/52
f 51/51/51 53/53/53 52/52/52
f 54/54/54 51/51/51 47/47/47
f 55/55/55 51/51/51 54/54/54
f 56/56/56 55/55/55 54/54/54
f 54/54/54 47/47/47 57/57/57
f 47/47/47 58/58/58 57/57/57
f 61/61/61 60/60/60 59/59/59
f 62/62/62 61/61/61 59/59/59
f 63/63/63 62/62/62 59/59/59
f 62/62/62 63/63/63 64/64/64
f 63/63/63 65/65/65 64/64/64
f 66/66/66 63/63/63 59/59/59
f 67/67/67 63/63/63 66/66/66
f 68/68/68 67/67/67 66/66/66
f 66/66/66 59/59/59 69/69/69
f 59/59/59 70/70/70 69/69/69
f 73/73/73 72/72/72 71/71/71
f 72/72/72 74/74/74 71/71/71
f 75/75/75 71/71/71 74/74/74
f 76/76/76 75/75/75 74/74/74
f 72/72/72 77/77/77 74/74/74
f 77/77/77 72/72/72 78/78/78
f 72/72/72 79/79/79 78/78/78
f 77/77/77 80/80/80 74/74/74
f 76/76/76 74/74/74 80/80/80
f 77/77/77 81/81/81 80/80/80
f 81/81/81 82/82/82 80/80/80
f 83/83/83 76/76/76 80/80/80
f 83/83/83 80/80/80 82/82/82
f 84/84/84 83/83/83 82/82/82
f 76/76/76 83/83/83 85/85/85
f 83/83/83 86/86/86 85/85/85
f 89/89/89 88/88/88 87/87/87
f 88/88/88 90/90/90 87/87/87
f 91/91/91 87/87/87 90/90/90
f 92/92/92 91/91/91 90/90/90
f 88/88/88 93/93/93 90/90/90
f 93/93/93 88/88/88 94/94/94
f 88/88/88 95/95/95 94/94/94
f 93/93/93 96/96/96 90/90/90
f 92/92/92 90/90/90 96/96/96
f 93/93/93 97/97/97 96/96/96
f 97/97/97 98/98/98 96/96/96
f 99/99/99 92/92/92 96/96/96
f 99/99/99 96/96/96 98/98/98
f 100/100/100 99/99/99 98/98/98
f 92/92/92 99/99/99 101/101/101
f 99/99/99 102/102/102 101/101/101
f 105/105/105 104/104/104 103/103/103
f 104/104/104 106/106/106 103/103/103
f 107/107/107 103/103/103 106/106/106
f 108/108/108 107/107/107 106/106/106
f 104/104/104 109/109/109 106/106/106
f 109/109/109 104/104/104 110/110/110
f 104/104/104 111/111/111 110/110/110
f 109/109/109 112/112/112 106/106/106
f 108/108/108 106/106/106 112/112/112
f 109/109/109 113/113/113 112/112/112
f 113/113/113 114/114/114 112/112/112
f 115/115/115 108/108/108 112/112/112
f 115/115/115 112/112/112 114/114/114
f 116/116/116 115/115/115 114/114/114
f 108/108/108 115/115/115 117/117/117
f 115/115/115 118/118/118 117/117/117
f 121/121/121 120/120/120 119/119/119
f 120/120/120 122/122/122 119/119/119
f 123/123/123 119/119/119 122/122/122
f 124/124/124 123/123/123 122/122/122
f 120/120/120 125/125/125 122/122/122
f 125/125/125 120/120/120 126/126/126
f 120/120/120 127/127/127 126/126/126
f 125/125/125 128/128/128 122/122/122
f 124/124/124 122/122/122 128/128/128
f 125/125/125 129/129/129 128/128/128
f 129/129/129 130/130/130 128/128/128
f 131/131/131 124/124/124 128/128/128
f 131/131/131 128/128/128 130/130/130
f 132/132/132 131/131/131 130/130/130
f 124/124/124 131/131/131 133/133/133
f 131/131/131 134/134/134 133/133/133
f 137/137/137 136/136/136 135/135/135
f 138/138/138 137/137/137 135/135/135
f 137/137/137 138/138/138 139/139/139
f 140/140/140 137/137/137 139/139/139
f 139/139/139 138/138/138 141/141/141
f 139/139/139 141/141/141 142/142/142
f 141/141/141 143/143/143 142/142/142
f 138/138/138 144/144/144 141/141/141
f 144/144/144 138/138/138 145/145/145
f 138/138/138 135/135/135 145/145/145
f 145/145/145 135/135/135 146/146/146
f 135/135/135 147/147/147 146/146/146
f 150/150/150 149/149/149 148/148/148
f 149/149/149 151/151/151 148/148/148
f 151/151/151 149/149/149 152/152/152
f 149/149/149 153/153/153 152/152/152
f 151/151/151 154/154/154 148/148/148
f 154/154/154 151/151/151 152/152/152
f 154/154/154 155/155/155 148/148/148
f 148/148/148 155/155/155 156/156/156
f 155/155/155 157/157/157 156/156/156
f 154/154/154 158/158/158 155/155/155
f 158/158/158 159/159/159 155/155/155
f 158/158/158 154/154/154 160/160/160
f 160/160/160 154/154/154 152/152/152
f 161/161/161 158/158/158 160/160/160
f 160/160/160 152/152/152 162/162/162
f 152/152/152 163/163/163 162/162/162
