g febg_shop_001_goods_05
v -0.076036334 -0.3664116 -0.03460449
v 0.022509784 -0.3664116 -0.06550798
v 0.020524263 -4.4703484E-07 -0.056616902
v -0.06932852 -4.4703484E-07 -0.028439015
v -0.09854564 -0.3664116 0.066191286
v -0.07603702 0.36641 -0.03460449
v 0.022509784 0.36641 -0.06550869
v -0.098546356 0.36641 0.066191286
v -0.08985236 -4.4703484E-07 0.06346497
v -0.02250889 -0.3664116 0.13608286
v -0.022509575 0.36641 0.13608286
v -0.02052337 -4.4703484E-07 0.1271911
v 0.07603723 -0.3664116 0.105178654
v 0.06932944 -4.4703484E-07 0.09901321
v 0.098546535 -0.3664116 0.0043828785
v 0.07603651 0.36641 0.105178654
v 0.098546535 0.36641 0.0043828785
v -0.098546356 0.36641 0.066191286
v -0.07603702 0.36641 -0.03460449
v 0.022509784 0.36641 -0.06550869
v 0.098546535 0.36641 0.0043828785
v 0.08985326 -4.4703484E-07 0.007109195
v 0.022509784 -0.3664116 -0.06550798
v 0.022509784 0.36641 -0.06550869
v 0.020524263 -4.4703484E-07 -0.056616902
vt 0.12367377 0.5560403
vt 0.11403651 0.55631685
vt 0.11571065 0.5904695
vt 0.12459091 0.5904549
vt 0.13322368 0.5559966
vt 0.123790234 0.6248695
vt 0.114152975 0.6246366
vt 0.13334015 0.62488407
vt 0.13354395 0.59044033
vt 0.14252612 0.5560257
vt 0.1428755 0.624855
vt 0.14265713 0.59044033
vt 0.15191588 0.5559675
vt 0.15185764 0.5903821
vt 0.16105819 0.5558801
vt 0.15249822 0.62478215
vt 0.1574333 0.6331529
vt 0.13805687 0.6332839
vt 0.14296284 0.6416401
vt 0.15265834 0.6415673
vt 0.16210634 0.62465113
vt 0.1610145 0.59026563
vt 0.17047706 0.5558219
vt 0.17175817 0.62431633
vt 0.16999668 0.59009093
vn -0.7359224 0.025183618 -0.6765974
vn 0.21732563 0.025183618 -0.9757742
vn 0.21732563 0.0009326935 -0.9760987
vn -0.7359224 0.0009326935 -0.67706525
vn -0.9541808 0.025183618 0.29816914
vn -0.58855134 0.59974414 -0.54213864
vn 0.17442018 0.59974414 -0.7809511
vn -0.76203877 0.59974414 0.2441391
vn -0.9541808 0.0009326935 0.2992293
vn -0.21732563 0.025183618 0.9757742
vn -0.17442018 0.59974414 0.7809511
vn -0.21732563 0.0009326935 0.9760987
vn 0.73592246 0.025183618 0.6765973
vn 0.73592246 0.0009326935 0.6770652
vn 0.9541808 0.025183618 -0.29816914
vn 0.5885514 0.59974414 0.5421386
vn 0.7620388 0.59974414 -0.24413885
vn -0.76203877 0.59974414 0.2441391
vn -0.58855134 0.59974414 -0.54213864
vn 0.17442018 0.59974414 -0.7809511
vn 0.7620388 0.59974414 -0.24413885
vn 0.9541808 0.0009326935 -0.2992293
vn 0.21732563 0.025183618 -0.9757742
vn 0.17442018 0.59974414 -0.7809511
vn 0.21732563 0.0009326935 -0.9760987
g febg_shop_001_goods_05_0
f 3/3/3 2/2/2 1/1/1
f 4/4/4 3/3/3 1/1/1
f 4/4/4 1/1/1 5/5/5
f 3/3/3 4/4/4 6/6/6
f 7/7/7 3/3/3 6/6/6
f 6/6/6 4/4/4 8/8/8
f 9/9/9 4/4/4 5/5/5
f 4/4/4 9/9/9 8/8/8
f 9/9/9 5/5/5 10/10/10
f 8/8/8 9/9/9 11/11/11
f 12/12/12 9/9/9 10/10/10
f 9/9/9 12/12/12 11/11/11
f 12/12/12 10/10/10 13/13/13
f 14/14/14 12/12/12 13/13/13
f 14/14/14 13/13/13 15/15/15
f 11/11/11 12/12/12 16/16/16
f 12/12/12 14/14/14 16/16/16
f 16/16/16 17/17/17 11/11/11
f 17/17/17 18/18/18 11/11/11
f 18/18/18 17/17/17 19/19/19
f 17/17/17 20/20/20 19/19/19
f 16/16/16 14/14/14 21/21/21
f 22/22/22 14/14/14 15/15/15
f 14/14/14 22/22/22 21/21/21
f 22/22/22 15/15/15 23/23/23
f 21/21/21 22/22/22 24/24/24
f 25/25/25 22/22/22 23/23/23
f 22/22/22 25/25/25 24/24/24
