g febg_tropical_002_plate_01
v 0.008471817 -4.172325E-07 -0.48535168
v -0.27842855 0.057243407 -0.39763728
v -0.27842855 -4.172325E-07 -0.39763728
v -0.45897847 -4.172325E-07 -0.15803927
v 0.008471817 0.057243407 -0.48535168
v 0.29213673 -4.172325E-07 -0.3876782
v -0.45897847 0.057243407 -0.15803927
v -0.46421444 -4.172325E-07 0.1419251
v 0.29213673 0.0572443 -0.3876782
v 0.46421528 5.066395E-07 -0.14192405
v -0.1323067 0.019406736 -0.1889542
v -0.46421444 0.057243407 0.1419251
v -0.29213685 -4.172325E-07 0.38767833
v 0.46421528 0.0572443 -0.14192405
v 0.4589793 5.066395E-07 0.15803939
v 0.004025519 0.01940763 -0.23063546
v -0.21810293 0.019406736 -0.07509887
v -0.29213685 0.0572443 0.38767833
v -0.008471936 5.066395E-07 0.4853518
v 0.4589793 0.0572443 0.15803939
v 0.27842844 5.066395E-07 0.39763737
v 0.13882098 0.01940763 -0.18422183
v 0.22059122 0.01940763 -0.067441195
v 0.1323075 0.01940763 0.1889543
v 0.21810284 0.01940763 0.07509899
v 0.27842844 0.0572443 0.39763737
v -0.008471936 0.0572443 0.4853518
v -0.0040256083 0.01940763 0.23063558
v -0.13882107 0.01940763 0.18422192
v -0.2205913 0.01940763 0.067441285
vt 0.6078725 0.031505812
vt 0.6036195 0.006353605
vt 0.5994732 0.006353605
vt 0.6078725 0.031490568
vt 0.6112109 0.029021079
vt 0.6294729 0.046780065
vt 0.6112109 0.029021079
vt 0.6294729 0.046780065
vt 0.63073814 0.042801443
vt 0.6559056 0.046780065
vt 0.6241071 0.006353605
vt 0.63073814 0.042801443
vt 0.6559056 0.046780065
vt 0.6546251 0.042801443
vt 0.677506 0.031505812
vt 0.62767416 0.016780337
vt 0.62767416 0.016780337
vt 0.6546251 0.042801443
vt 0.677506 0.031490568
vt 0.67416763 0.029021079
vt 0.6858901 0.006353605
vt 0.63697284 0.023197962
vt 0.6484057 0.023197962
vt 0.6612714 0.006353605
vt 0.65770435 0.016780337
vt 0.681759 0.006353605
vt 0.67416763 0.029021079
vt 0.65770435 0.016780337
vt 0.6484057 0.023197962
vt 0.63697284 0.023197962
vn 0.017320037 -0.00014346838 -0.99985
vn -0.41591084 0.68882716 -0.59374684
vn -0.57431686 -0.00014346838 -0.81863314
vn -0.94456697 -0.00014346838 -0.32831883
vn 0.013503015 0.68882716 -0.7247999
vn 0.6013228 -0.00014346838 -0.79900616
vn -0.6850102 0.68882716 -0.23723014
vn -0.956018 -0.00014346838 0.29330808
vn 0.43528283 0.68882716 -0.57969475
vn 0.9563049 -0.00014346838 -0.29237118
vn 0.049764633 0.9960966 0.07290409
vn -0.6926441 0.68882716 0.2139188
vn -0.60103583 -0.00014346838 0.79922205
vn 0.69293106 0.68882716 -0.21298754
vn 0.9448539 -0.00014346838 0.32749212
vn -0.0017650127 0.9960966 0.08825202
vn 0.08411771 0.9960966 0.026753178
vn -0.43690443 0.68882716 0.57847357
vn -0.0170331 -0.00014346838 0.9998549
vn 0.6852971 0.68882716 0.23640019
vn 0.57269526 -0.00014346838 0.81976837
vn -0.05329466 0.9960966 0.07036462
vn -0.08383083 0.9960966 0.027638616
vn -0.051386237 0.9960966 -0.07177029
vn -0.08383083 0.9960966 -0.027638616
vn 0.41619772 0.68882716 0.5935458
vn -0.013216078 0.68882716 0.7248051
vn 0.0020519495 0.9960966 -0.08824561
vn 0.053581655 0.9960966 -0.070146576
vn 0.08411771 0.9960966 -0.026753178
g febg_tropical_002_plate_01_0
f 3/3/3 2/2/2 1/1/1
f 2/2/2 3/3/3 4/4/4
f 2/2/2 5/5/5 1/1/1
f 1/1/1 5/5/5 6/6/6
f 7/7/7 2/2/2 4/4/4
f 7/7/7 4/4/4 8/8/8
f 5/5/5 9/9/9 6/6/6
f 6/6/6 9/9/9 10/10/10
f 2/2/2 11/11/11 5/5/5
f 11/11/11 2/2/2 7/7/7
f 12/12/12 7/7/7 8/8/8
f 12/12/12 8/8/8 13/13/13
f 9/9/9 14/14/14 10/10/10
f 10/10/10 14/14/14 15/15/15
f 5/5/5 16/16/16 9/9/9
f 11/11/11 16/16/16 5/5/5
f 17/17/17 11/11/11 7/7/7
f 17/17/17 7/7/7 12/12/12
f 18/18/18 12/12/12 13/13/13
f 18/18/18 13/13/13 19/19/19
f 14/14/14 20/20/20 15/15/15
f 15/15/15 20/20/20 21/21/21
f 9/9/9 22/22/22 14/14/14
f 16/16/16 22/22/22 9/9/9
f 22/22/22 23/23/23 14/14/14
f 14/14/14 23/23/23 20/20/20
f 22/22/22 16/16/16 23/23/23
f 11/11/11 24/24/24 16/16/16
f 24/24/24 11/11/11 17/17/17
f 16/16/16 25/25/25 23/23/23
f 23/23/23 25/25/25 20/20/20
f 24/24/24 25/25/25 16/16/16
f 20/20/20 25/25/25 26/26/26
f 20/20/20 26/26/26 21/21/21
f 25/25/25 24/24/24 26/26/26
f 27/27/27 19/19/19 21/21/21
f 26/26/26 27/27/27 21/21/21
f 27/27/27 18/18/18 19/19/19
f 24/24/24 28/28/28 26/26/26
f 28/28/28 24/24/24 17/17/17
f 28/28/28 27/27/27 26/26/26
f 29/29/29 18/18/18 27/27/27
f 28/28/28 29/29/29 27/27/27
f 28/28/28 17/17/17 30/30/30
f 29/29/29 28/28/28 30/30/30
f 29/29/29 30/30/30 18/18/18
f 30/30/30 17/17/17 12/12/12
f 30/30/30 12/12/12 18/18/18
