g febg_lostcity_001_debris_02
v -1.5333626 2.2278533 -0.9128839
v -0.92609954 2.7066994 -0.9128839
v -1.3031316 2.5315542 -0.9128839
v -1.9032989 0.858902 -0.9128839
v -2.0539875 8.773804E-05 -0.42479014
v -2.1088066 9.3221664E-05 -0.9128839
v -1.8704176 0.85643864 -0.42479014
v -1.6269298 1.1309729 -0.9128839
v -1.6210909 9.3221664E-05 0.24268603
v -1.4336896 1.1367784 -0.46433353
v -1.5333626 2.2278533 -0.9128839
v -1.4939139 0.8541696 -0.003638029
v -0.8195646 0.8683388 0.14225674
v -0.8631506 9.870529E-05 0.39407492
v -0.7832241 9.870529E-05 0.7048271
v -1.3202147 2.4209156 -0.6102673
v -1.3031316 2.5315542 -0.9128839
v -0.8223505 1.1363502 -0.16809511
v -0.7355287 2.6490054 -0.3435626
v -0.92609954 2.7066994 -0.9128839
v -0.7973099 3.3917255 -0.9128839
v -0.56977034 3.3758774 -0.522122
v -0.0727849 3.7221746 -0.9128839
v -0.6934941 1.1973917 0.48165846
v 0.037887573 0.00012111664 0.91288686
v -0.6279316 2.1080613 0.105104685
v -0.7355287 2.6490054 -0.3435626
v -0.5289204 2.290669 -0.07497287
v -0.6443584 1.4226012 0.23448372
v 0.040823698 1.1965799 0.70176315
v 0.041351795 1.4218895 0.45041203
v 0.7258165 1.1948729 0.6368735
v 0.8171036 0.00012111664 0.831815
v 0.043081284 2.0983129 0.32602668
v 0.7092395 1.4222455 0.35202932
v 0.9553801 0.9785385 0.31042838
v 1.0893246 2.0329227 -0.011945963
v 0.6616329 2.0498948 0.23451138
v 1.2270226 5.4359436E-05 0.14485931
v 0.48672712 2.241572 -0.10229349
v 0.030953169 2.2724571 0.040943384
v -0.48874307 2.9282274 -0.20255017
v -0.047049284 3.4170666 -0.34863412
v -0.06745744 3.638667 -0.66245043
v 0.454602 3.2978415 -0.66113245
v 0.4755497 3.30898 -0.9128839
v 0.74426186 2.305861 -0.9128839
v 0.7119143 2.2659287 -0.4775517
v 1.1991239 2.0441613 -0.9128839
v 1.4691317 1.2065339 -0.9128839
v 1.4044254 1.0945547 -0.4056052
v 1.8322005 1.0630858 -0.9128839
v 1.7711644 0.9359312 -0.5619322
v 1.8808247 -0.0001680851 -0.27525294
v 2.0177276 -0.0001180172 -0.48026538
v 2.108809 -0.000101327896 -0.9128839
v 1.8322005 1.0630858 -0.9128839
v -2.1088066 9.3221664E-05 -0.9128839
v 2.108809 -0.000101327896 -0.9128839
v -1.9032989 0.858902 -0.9128839
v 1.4691317 1.2065339 -0.9128839
v -1.6269298 1.1309729 -0.9128839
v 1.1991239 2.0441613 -0.9128839
v -1.5333626 2.2278533 -0.9128839
v 0.74426186 2.305861 -0.9128839
v -0.92609954 2.7066994 -0.9128839
v 0.4755497 3.30898 -0.9128839
v -0.7973099 3.3917255 -0.9128839
v -0.0727849 3.7221746 -0.9128839
vt 0.3275661 0.06723153
vt 0.35422036 0.04637562
vt 0.3376753 0.054010645
vt 0.50881827 0.079784535
vt 0.50295913 0.035795875
vt 0.4914231 0.048060488
vt 0.5183658 0.06665473
vt 0.5215686 0.09356704
vt 0.5278223 0.021846399
vt 0.5358065 0.08315427
vt 0.5384324 0.13427705
vt 0.53574574 0.058670588
vt 0.564692 0.057501808
vt 0.56003207 0.018765068
vt 0.5683502 0.013164027
vt 0.55156225 0.13453509
vt 0.5495586 0.14654166
vt 0.56227857 0.07489691
vt 0.57804954 0.13678157
vt 0.5648894 0.15536064
vt 0.5785049 0.17837197
vt 0.589282 0.1666538
vt 0.6114888 0.18945262
vt 0.578004 0.062996596
vt 0.6038386 0.005362035
vt 0.58308893 0.106408454
vt 0.57861114 0.13600746
vt 0.5873087 0.11721589
vt 0.5785049 0.0769916
vt 0.6077396 0.05674286
vt 0.6083771 0.070828944
vt 0.635168 0.055224963
vt 0.63852257 0.004937023
vt 0.611079 0.09997257
vt 0.6371868 0.0694173
vt 0.6485862 0.051566828
vt 0.6538837 0.09733143
vt 0.63613945 0.096329615
vt 0.6654197 0.014772998
vt 0.63240546 0.1155462
vt 0.61168617 0.11363365
vt 0.5912249 0.14385498
vt 0.610487 0.16392158
vt 0.61080575 0.17882733
vt 0.63246614 0.16641094
vt 0.6366707 0.17468348
vt 0.6567525 0.14006025
vt 0.6472353 0.12605006
vt 0.6738744 0.120691866
vt 0.6898427 0.085932024
vt 0.67751735 0.06800565
vt 0.7015912 0.071527176
vt 0.693349 0.060659032
vt 0.6953223 0.019235617
vt 0.7034582 0.021740146
vt 0.7157228 0.02907159
vt 0.47531822 0.117959656
vt 0.3023083 0.16424035
vt 0.4874614 0.16425551
vt 0.3113246 0.12683935
vt 0.4593803 0.111705914
vt 0.3234526 0.114999756
vt 0.44752553 0.075230844
vt 0.3275661 0.06723153
vt 0.42755 0.06383144
vt 0.35422036 0.04637562
vt 0.41575593 0.020146355
vt 0.35988212 0.016548937
vt 0.3916821 0.0021592712
vn -0.00015825033 0.00015825033 -1
vn -0.00015825033 0.00015825033 -1
vn -0.00015825033 0.00015825033 -1
vn -0.87727785 0.47998285 -0
vn -0.92585033 0.20757467 0.31577513
vn -0.97194284 0.2325415 -0.035377495
vn -0.7914137 0.5148584 0.32952255
vn -0.84902936 0.528302 -0.006790007
vn -0.5167789 0.2728725 0.8114679
vn -0.5916793 0.5705535 0.56954753
vn -0.9565787 0.29015714 -0.02767808
vn -0.42459375 0.55903035 0.7121834
vn -0.7318775 0.3746602 0.5691968
vn -0.7107517 0.22870046 0.66522783
vn -0.6781028 0.18452841 0.7114253
vn -0.6646592 0.48412997 0.569075
vn -0.6122342 0.7906765 -0
vn -0.6857849 0.4207527 0.5938571
vn -0.6857849 0.33240873 0.64745927
vn -0.7641018 0.64509565 -0
vn -0.80293685 0.5955203 -0.025455685
vn -0.5475072 0.6243282 0.5571805
vn 0.078583024 0.99690765 -0
vn -0.6627386 0.4341964 0.6101238
vn -0.07889968 0.18068737 0.9803708
vn -0.60128194 0.37850124 0.7037023
vn -0.7395596 0.33624977 0.58308464
vn -0.1115486 0.564792 0.81765944
vn -0.6243282 0.3400908 0.70324427
vn -0.08082014 0.47452742 0.8765226
vn -0.07313806 0.5090968 0.8575962
vn 0.48765457 0.4687658 0.73651314
vn 0.526065 0.17684633 0.831854
vn -0.027045548 0.5475072 0.8363638
vn 0.4146747 0.39770645 0.8184586
vn 0.7891767 0.17300528 0.58929557
vn 0.6758658 0.5705535 0.46655557
vn 0.29752278 0.5782357 0.7596865
vn 0.73732257 0.20373362 0.644087
vn 0.3954695 0.7241954 0.56492907
vn 0.08818579 0.6416128 0.76194245
vn -0.40730911 0.3343292 0.8498961
vn 0.1381194 0.62624866 0.7672911
vn 0.09010631 0.90280396 0.42050663
vn 0.7565278 0.5436662 0.36344573
vn 0.82950765 0.5571099 -0.0393146
vn 0.7968588 0.6032024 -0.03410156
vn 0.69123 0.6800234 0.24447756
vn 0.77957404 0.6243282 -0.049785536
vn 0.75598615 0.65458757 -0
vn 0.79877925 0.35545498 0.48539
vn 0.74308413 0.66850024 -0.030551251
vn 0.7027531 0.48605055 0.5195122
vn 0.6605016 0.29015714 0.6924929
vn 0.88904387 0.2594288 0.37722364
vn 0.9677853 0.2517467 -0.0039014786
vn -0.00015825033 0.00015825033 -1
vn -0.00015825033 0.00015825033 -1
vn -0.00015825033 0.00015825033 -1
vn -0.00015825033 0.00015825033 -1
vn -0.00015825033 0.00015825033 -1
vn -0.00015825033 0.00015825033 -1
vn -0.00015825033 0.00015825033 -1
vn -0.00015825033 0.00015825033 -1
vn -0.00015825033 0.00015825033 -1
vn -0.00015825033 0.00015825033 -1
vn -0.00015825033 0.00015825033 -1
vn -0.00015825033 0.00015825033 -1
vn -0.00015825033 0.00015825033 -1
g febg_lostcity_001_debris_02_0
f 3/3/3 2/2/2 1/1/1
f 6/6/6 5/5/5 4/4/4
f 5/5/5 7/7/7 4/4/4
f 8/8/8 4/4/4 7/7/7
f 5/5/5 9/9/9 7/7/7
f 8/8/8 7/7/7 10/10/10
f 10/10/10 11/11/11 8/8/8
f 9/9/9 12/12/12 7/7/7
f 12/12/12 10/10/10 7/7/7
f 13/13/13 12/12/12 9/9/9
f 14/14/14 13/13/13 9/9/9
f 14/14/14 15/15/15 13/13/13
f 10/10/10 16/16/16 11/11/11
f 11/11/11 16/16/16 17/17/17
f 12/12/12 18/18/18 10/10/10
f 10/10/10 18/18/18 16/16/16
f 13/13/13 18/18/18 12/12/12
f 16/16/16 19/19/19 17/17/17
f 18/18/18 19/19/19 16/16/16
f 19/19/19 20/20/20 17/17/17
f 19/19/19 21/21/21 20/20/20
f 19/19/19 22/22/22 21/21/21
f 21/21/21 22/22/22 23/23/23
f 15/15/15 24/24/24 13/13/13
f 24/24/24 15/15/15 25/25/25
f 13/13/13 26/26/26 18/18/18
f 26/26/26 27/27/27 18/18/18
f 27/27/27 26/26/26 28/28/28
f 24/24/24 29/29/29 13/13/13
f 29/29/29 26/26/26 13/13/13
f 30/30/30 24/24/24 25/25/25
f 24/24/24 30/30/30 29/29/29
f 29/29/29 31/31/31 26/26/26
f 30/30/30 31/31/31 29/29/29
f 32/32/32 30/30/30 25/25/25
f 33/33/33 32/32/32 25/25/25
f 31/31/31 34/34/34 26/26/26
f 28/28/28 26/26/26 34/34/34
f 35/35/35 31/31/31 30/30/30
f 32/32/32 35/35/35 30/30/30
f 31/31/31 35/35/35 34/34/34
f 36/36/36 32/32/32 33/33/33
f 36/36/36 35/35/35 32/32/32
f 36/36/36 37/37/37 35/35/35
f 37/37/37 38/38/38 35/35/35
f 35/35/35 38/38/38 34/34/34
f 36/36/36 33/33/33 39/39/39
f 39/39/39 37/37/37 36/36/36
f 38/38/38 40/40/40 34/34/34
f 38/38/38 37/37/37 40/40/40
f 28/28/28 34/34/34 41/41/41
f 41/41/41 34/34/34 40/40/40
f 28/28/28 41/41/41 42/42/42
f 28/28/28 42/42/42 19/19/19
f 22/22/22 19/19/19 42/42/42
f 42/42/42 41/41/41 43/43/43
f 42/42/42 43/43/43 22/22/22
f 40/40/40 43/43/43 41/41/41
f 22/22/22 43/43/43 44/44/44
f 22/22/22 44/44/44 23/23/23
f 44/44/44 43/43/43 45/45/45
f 44/44/44 45/45/45 23/23/23
f 40/40/40 45/45/45 43/43/43
f 23/23/23 45/45/45 46/46/46
f 47/47/47 46/46/46 45/45/45
f 40/40/40 48/48/48 45/45/45
f 48/48/48 47/47/47 45/45/45
f 37/37/37 48/48/48 40/40/40
f 49/49/49 47/47/47 48/48/48
f 37/37/37 49/49/49 48/48/48
f 50/50/50 49/49/49 37/37/37
f 50/50/50 37/37/37 51/51/51
f 51/51/51 37/37/37 39/39/39
f 52/52/52 50/50/50 51/51/51
f 53/53/53 51/51/51 39/39/39
f 53/53/53 52/52/52 51/51/51
f 54/54/54 53/53/53 39/39/39
f 55/55/55 53/53/53 54/54/54
f 55/55/55 52/52/52 53/53/53
f 55/55/55 56/56/56 52/52/52
f 59/59/59 58/58/58 57/57/57
f 58/58/58 60/60/60 57/57/57
f 57/57/57 60/60/60 61/61/61
f 60/60/60 62/62/62 61/61/61
f 61/61/61 62/62/62 63/63/63
f 62/62/62 64/64/64 63/63/63
f 63/63/63 64/64/64 65/65/65
f 64/64/64 66/66/66 65/65/65
f 65/65/65 66/66/66 67/67/67
f 66/66/66 68/68/68 67/67/67
f 68/68/68 69/69/69 67/67/67
