g febg_tropical_003_pail_01
v -0.43761665 -0.0077875257 0.33948976
v 0.0013182163 0.8857493 0.75002486
v 0.001316607 -0.0077875257 0.59290975
v -0.5736812 0.8857493 0.41804808
v -0.4376151 -0.0077875257 -0.16734713
v 0.0013182163 0.8857493 0.65154535
v -0.5736812 0.8857493 -0.24590546
v 0.0013182163 -0.0077875257 -0.42076716
v -0.48839933 0.8857493 0.36880833
v 0.0013182163 0.030916035 0.5177366
v -0.3725149 0.030916035 0.30190474
v -0.48839778 0.8857493 -0.1966657
v -0.37251335 0.030916035 -0.12975901
v 0.0013182163 0.8857493 -0.57788074
v 0.4402515 -0.0077875257 -0.16734868
v 0.001316607 0.8857493 -0.47940433
v 0.001316607 0.030916035 -0.34559244
v 0.5763176 0.8857493 -0.24590391
v 0.4402515 -0.0077875257 0.33948976
v 0.49103254 0.8857493 -0.1966657
v 0.37515128 0.030916035 -0.12975901
v 0.576316 0.8857493 0.41804653
v 0.001316607 -0.0077875257 0.59290975
v 0.0013182163 0.8857493 0.75002486
v 0.4910341 0.8857493 0.36880988
v 0.3751497 0.030916035 0.3019032
v 0.0013182163 0.8857493 0.65154535
v 0.0013182163 0.030916035 0.5177366
v -0.53014165 0.19270182 -0.6262297
v -0.55754143 0.69226915 0.12111664
v -0.529488 0.7204177 0.10798925
v -0.5624991 0.13606298 -0.6474644
v -0.5857852 0.7204177 0.10798925
v -0.37797648 0.121867 -0.66924196
v -0.37797648 0.17896605 -0.6479277
v -0.36528426 0.099428 -0.67368793
v -0.36528426 0.19016993 -0.6271267
v -0 0.099428 -0.67368793
v -0 0.19016993 -0.6271267
v 0.3652843 0.19016993 -0.6271267
v 0.3652843 0.099428 -0.67368793
v 0.37797642 0.17896605 -0.6479277
v -0 0.15723991 -0.75002486
v -0.36528426 0.15723991 -0.75002486
v 0.37797642 0.121867 -0.66924196
v 0.5301401 0.19270182 -0.6262297
v 0.3652843 0.15723991 -0.75002486
v -0.37797648 0.15810728 -0.72577155
v -0 0.23587471 -0.71024805
v -0.36528426 0.23587471 -0.71024805
v 0.5624976 0.13606298 -0.64746594
v 0.37797642 0.15810728 -0.72577155
v 0.3652843 0.23587471 -0.71024805
v 0.55753833 0.69226915 0.12111664
v 0.5294849 0.7204177 0.10798925
v 0.5857852 0.7204177 0.10798925
v -0 0.19016993 -0.6271267
v -0.36528426 0.19016993 -0.6271267
v 0.3652843 0.19016993 -0.6271267
v -0.37797648 0.20914882 -0.7030877
v -0.37797648 0.17896605 -0.6479277
v -0.53014165 0.19270182 -0.6262297
v -0.5703382 0.21975839 -0.6894486
v -0.529488 0.7204177 0.10798925
v -0.55754143 0.7485679 0.094863415
v 0.37797642 0.20914882 -0.7030877
v 0.37797642 0.17896605 -0.6479277
v 0.5301401 0.19270182 -0.6262297
v 0.5703366 0.21975839 -0.6894486
v 0.5294849 0.7204177 0.10798925
v 0.55753833 0.7485679 0.094863415
v -0.6335711 0.18262422 -0.6887404
v -0.5902936 0.15836936 -0.72479504
v 0.59029204 0.15836936 -0.72479504
v 0.6335695 0.18262422 -0.6887404
v 0.37515128 0.030916035 -0.12975901
v 0.0013182163 0.030916035 0.08607286
v 0.001316607 0.030916035 -0.34559244
v 0.3751497 0.030916035 0.3019032
v -0.37251335 0.030916035 -0.12975901
v 0.0013182163 0.030916035 0.5177366
v -0.3725149 0.030916035 0.30190474
vt 0.84443855 0.80429775
vt 0.8325472 0.82046163
vt 0.8351017 0.80429775
vt 0.8438858 0.82046163
vt 0.8540741 0.80429775
vt 0.833817 0.822314
vt 0.85477626 0.82046163
vt 0.863381 0.80429775
vt 0.84408 0.822314
vt 0.83741724 0.8376264
vt 0.84526014 0.8376264
vt 0.854597 0.822314
vt 0.85340184 0.8376264
vt 0.86611485 0.82046163
vt 0.8540741 0.80429775
vt 0.86486 0.822314
vt 0.8612597 0.8376264
vt 0.85477626 0.82046163
vt 0.84443855 0.80429775
vt 0.854597 0.822314
vt 0.85340184 0.8376264
vt 0.8438858 0.82046163
vt 0.8351017 0.80429775
vt 0.8325472 0.82046163
vt 0.84408 0.822314
vt 0.84526014 0.8376264
vt 0.833817 0.822314
vt 0.83741724 0.8376264
vt 0.7319935 0.79803836
vt 0.74941224 0.7992036
vt 0.74941224 0.79803836
vt 0.7319935 0.7992036
vt 0.74941224 0.80081695
vt 0.7282588 0.7992036
vt 0.7282588 0.79803836
vt 0.7276463 0.7992036
vt 0.7276463 0.7972914
vt 0.7204607 0.7992036
vt 0.7204607 0.7972914
vt 0.7276463 0.7972914
vt 0.7276463 0.7992036
vt 0.7282588 0.79803836
vt 0.7204607 0.80081695
vt 0.7276463 0.80081695
vt 0.7282588 0.7992036
vt 0.7319935 0.79803836
vt 0.7276463 0.80081695
vt 0.7282588 0.80081695
vt 0.7204607 0.8020569
vt 0.7276463 0.8020569
vt 0.7319935 0.7992036
vt 0.7282588 0.80081695
vt 0.7276463 0.8020569
vt 0.74941224 0.7992036
vt 0.74941224 0.79803836
vt 0.74941224 0.80081695
vt 0.7204607 0.8042828
vt 0.7276463 0.8042828
vt 0.7276463 0.8042828
vt 0.7282588 0.8020569
vt 0.7282588 0.80358064
vt 0.7319935 0.80358064
vt 0.7319935 0.8020569
vt 0.74941224 0.80358064
vt 0.74941224 0.8020569
vt 0.7282588 0.8020569
vt 0.7282588 0.80358064
vt 0.7319935 0.80358064
vt 0.7319935 0.8020569
vt 0.74941224 0.80358064
vt 0.74941224 0.8020569
vt 0.732606 0.80081695
vt 0.731381 0.80081695
vt 0.731381 0.80081695
vt 0.732606 0.80081695
vt 0.85128057 0.83813435
vt 0.8495626 0.8411221
vt 0.85301346 0.8411221
vt 0.84782964 0.83813435
vt 0.85128057 0.8441099
vt 0.8461117 0.84113705
vt 0.8478446 0.8441099
vn -0.8533929 -0.17285496 0.49177408
vn 0.00083631277 0.5445412 0.8387337
vn 0.00083631277 -0.17285496 0.9849469
vn -0.72633356 0.5445412 0.4194216
vn -0.8533929 -0.17285496 -0.49177408
vn 0.00083631277 0.8729405 -0.48782602
vn -0.72633356 0.5445412 -0.4194216
vn 0.00083631277 -0.17285496 -0.9849469
vn 0.423064 0.8729405 -0.24288225
vn 0.00083631277 0.66769093 -0.7444381
vn 0.64395165 0.66769093 -0.37351716
vn 0.423064 0.8729405 0.24288225
vn 0.64395165 0.66769093 0.37351716
vn 0.00083631277 0.5445412 -0.8387337
vn 0.8531107 -0.17285496 -0.4922635
vn 0.00083631277 0.8729405 0.48782602
vn 0.00083631277 0.66769093 0.7444381
vn 0.72605145 0.5445412 -0.41990978
vn 0.8531107 -0.17285496 0.4922635
vn -0.42139143 0.8729405 0.24577275
vn -0.64423376 0.66769093 0.37303036
vn 0.72605145 0.5445412 0.41990978
vn 0.00083631277 -0.17285496 0.9849469
vn 0.00083631277 0.5445412 0.8387337
vn -0.42139143 0.8729405 -0.24577275
vn -0.64423376 0.66769093 -0.37303036
vn 0.00083631277 0.8729405 -0.48782602
vn 0.00083631277 0.66769093 -0.7444381
vn 0.7866489 0.1633634 0.59539557
vn 0.036021948 -0.80815125 0.58787245
vn 0.99971753 0.020666063 -0.011738274
vn -0.21223229 -0.92543674 0.31388587
vn -0.9863164 0.15749913 -0.0487241
vn -0.5875458 -0.7201872 0.36894488
vn -0.5269483 0.20245856 0.8254308
vn -0.42921036 -0.8902511 0.15241866
vn -0.40184385 0.26892024 0.8753305
vn 0.00083631277 -0.9743057 0.22522816
vn 0.00083631277 0.2923774 0.95630264
vn 0.40156162 0.26892024 0.87545997
vn 0.42892826 -0.8902511 0.15321064
vn 0.52666616 0.20245856 0.8256109
vn 0.00083631277 -0.22563344 -0.9742119
vn -0.44484848 -0.18262875 -0.87678766
vn 0.58726364 -0.7201872 0.3693939
vn -0.7869311 0.1633634 0.59502256
vn 0.4445663 -0.18262875 -0.8769307
vn -0.67941946 -0.25300008 -0.6887526
vn 0.00083631277 0.9550403 -0.2964749
vn -0.456577 0.8514381 -0.25805146
vn 0.21195012 -0.92543674 0.31407645
vn 0.67913723 -0.25300008 -0.6890309
vn 0.45629483 0.8514381 -0.2585501
vn -0.036304057 -0.80815125 0.5878551
vn -0.9997865 0.020661656 -0
vn 0.9860342 0.15749913 -0.054134708
vn 0.00083631277 0.2923774 0.95630264
vn -0.40184385 0.26892024 0.8753305
vn 0.40156162 0.26892024 0.87545997
vn -0.68137413 0.6852837 -0.25712934
vn -0.5269483 0.20245856 0.8254308
vn 0.7866489 0.1633634 0.59539557
vn -0.07930881 0.8045239 -0.58860123
vn 0.99971753 0.020666063 -0.011738274
vn 0.16503596 0.8182072 -0.5507269
vn 0.681092 0.6852837 -0.25787562
vn 0.52666616 0.20245856 0.8256109
vn -0.7869311 0.1633634 0.59502256
vn 0.07902658 0.8045239 -0.5886392
vn -0.9997865 0.020661656 -0
vn -0.16531807 0.8182072 -0.55064225
vn -0.94526654 -0.09857416 -0.31105354
vn -0.39011532 -0.35464746 -0.84972656
vn 0.3898331 -0.35464746 -0.8498561
vn 0.9449843 -0.09857416 -0.31190988
vn -0.64423376 0.66769093 0.37303036
vn 0.00083631277 0.9999997 -0
vn 0.00083631277 0.66769093 0.7444381
vn -0.64423376 0.66769093 -0.37303036
vn 0.64395165 0.66769093 0.37351716
vn 0.00083631277 0.66769093 -0.7444381
vn 0.64395165 0.66769093 -0.37351716
g febg_tropical_003_pail_01_0
f 3/3/3 2/2/2 1/1/1
f 2/2/2 4/4/4 1/1/1
f 1/1/1 4/4/4 5/5/5
f 2/2/2 6/6/6 4/4/4
f 4/4/4 7/7/7 5/5/5
f 5/5/5 7/7/7 8/8/8
f 6/6/6 9/9/9 4/4/4
f 4/4/4 9/9/9 7/7/7
f 6/6/6 10/10/10 9/9/9
f 10/10/10 11/11/11 9/9/9
f 9/9/9 11/11/11 12/12/12
f 9/9/9 12/12/12 7/7/7
f 11/11/11 13/13/13 12/12/12
f 7/7/7 14/14/14 8/8/8
f 7/7/7 12/12/12 14/14/14
f 8/8/8 14/14/14 15/15/15
f 12/12/12 13/13/13 16/16/16
f 12/12/12 16/16/16 14/14/14
f 13/13/13 17/17/17 16/16/16
f 14/14/14 18/18/18 15/15/15
f 14/14/14 16/16/16 18/18/18
f 15/15/15 18/18/18 19/19/19
f 16/16/16 17/17/17 20/20/20
f 16/16/16 20/20/20 18/18/18
f 17/17/17 21/21/21 20/20/20
f 18/18/18 22/22/22 19/19/19
f 18/18/18 20/20/20 22/22/22
f 19/19/19 22/22/22 23/23/23
f 22/22/22 24/24/24 23/23/23
f 20/20/20 21/21/21 25/25/25
f 20/20/20 25/25/25 22/22/22
f 22/22/22 25/25/25 24/24/24
f 21/21/21 26/26/26 25/25/25
f 25/25/25 27/27/27 24/24/24
f 25/25/25 26/26/26 27/27/27
f 26/26/26 28/28/28 27/27/27
f 31/31/31 30/30/30 29/29/29
f 30/30/30 32/32/32 29/29/29
f 30/30/30 33/33/33 32/32/32
f 32/32/32 34/34/34 29/29/29
f 34/34/34 35/35/35 29/29/29
f 34/34/34 36/36/36 35/35/35
f 36/36/36 37/37/37 35/35/35
f 36/36/36 38/38/38 37/37/37
f 38/38/38 39/39/39 37/37/37
f 40/40/40 39/39/39 38/38/38
f 41/41/41 40/40/40 38/38/38
f 40/40/40 41/41/41 42/42/42
f 43/43/43 38/38/38 36/36/36
f 41/41/41 38/38/38 43/43/43
f 44/44/44 36/36/36 34/34/34
f 44/44/44 43/43/43 36/36/36
f 41/41/41 45/45/45 42/42/42
f 46/46/46 42/42/42 45/45/45
f 47/47/47 41/41/41 43/43/43
f 41/41/41 47/47/47 45/45/45
f 48/48/48 34/34/34 32/32/32
f 48/48/48 44/44/44 34/34/34
f 43/43/43 44/44/44 49/49/49
f 43/43/43 49/49/49 47/47/47
f 50/50/50 44/44/44 48/48/48
f 44/44/44 50/50/50 49/49/49
f 51/51/51 46/46/46 45/45/45
f 47/47/47 52/52/52 45/45/45
f 51/51/51 45/45/45 52/52/52
f 49/49/49 53/53/53 47/47/47
f 47/47/47 53/53/53 52/52/52
f 46/46/46 51/51/51 54/54/54
f 55/55/55 46/46/46 54/54/54
f 54/54/54 51/51/51 56/56/56
f 49/49/49 50/50/50 57/57/57
f 49/49/49 57/57/57 53/53/53
f 50/50/50 58/58/58 57/57/57
f 57/57/57 59/59/59 53/53/53
f 58/58/58 50/50/50 60/60/60
f 61/61/61 58/58/58 60/60/60
f 61/61/61 60/60/60 62/62/62
f 60/60/60 63/63/63 62/62/62
f 60/60/60 50/50/50 48/48/48
f 60/60/60 48/48/48 63/63/63
f 62/62/62 63/63/63 64/64/64
f 63/63/63 65/65/65 64/64/64
f 65/65/65 63/63/63 33/33/33
f 53/53/53 59/59/59 66/66/66
f 59/59/59 67/67/67 66/66/66
f 67/67/67 68/68/68 66/66/66
f 68/68/68 69/69/69 66/66/66
f 53/53/53 66/66/66 52/52/52
f 66/66/66 69/69/69 52/52/52
f 68/68/68 70/70/70 69/69/69
f 70/70/70 71/71/71 69/69/69
f 71/71/71 56/56/56 69/69/69
f 63/63/63 72/72/72 33/33/33
f 33/33/33 72/72/72 32/32/32
f 72/72/72 63/63/63 73/73/73
f 73/73/73 32/32/32 72/72/72
f 48/48/48 73/73/73 63/63/63
f 73/73/73 48/48/48 32/32/32
f 69/69/69 74/74/74 52/52/52
f 74/74/74 51/51/51 52/52/52
f 56/56/56 75/75/75 69/69/69
f 51/51/51 75/75/75 56/56/56
f 51/51/51 74/74/74 75/75/75
f 69/69/69 75/75/75 74/74/74
f 78/78/78 77/77/77 76/76/76
f 76/76/76 77/77/77 79/79/79
f 80/80/80 77/77/77 78/78/78
f 79/79/79 77/77/77 81/81/81
f 82/82/82 77/77/77 80/80/80
f 81/81/81 77/77/77 82/82/82
