g febg_oldcastle_001_sack_03
v -0.50510323 0.059455514 0.1497736
v -0.36522913 -0.0064641833 -0.006204784
v -0.4853369 0.059455514 -0.16139975
v -0.3504429 0.043730795 0.36918747
v -0.36522913 -0.0064641833 -0.006204784
v -0.50510323 0.059455514 0.1497736
v -0.45676827 0.075160146 0.30779338
v -0.49526644 0.1937443 0.3798973
v -0.3504429 0.043730795 0.36918747
v -0.55282354 0.19430739 0.15172744
v -0.35586584 0.19430739 0.4291739
v -0.4853369 0.059455514 -0.16139975
v -0.53305614 0.1943084 -0.16346961
v -0.12041515 0.021736503 0.3840317
v -0.5091902 0.1948188 -0.3857262
v -0.113281965 0.19430739 0.44636947
v 0.3911913 0.059455514 0.34579074
v -0.3504429 0.344885 0.36918747
v -0.49526644 0.1937443 0.3798973
v -0.4721893 0.09492749 -0.34375468
v -0.3504429 0.043730795 -0.3723086
v -0.36522913 -0.0064641833 -0.006204784
v -0.3504429 0.043730795 -0.3723086
v -0.35586584 0.1943084 -0.42920977
v -0.21148926 0.1943084 -0.44636846
v -0.20524704 0.021736503 -0.38713914
v 0.39688414 0.1943084 -0.40201604
v 0.3911913 0.059455514 -0.34871894
v 0.507635 0.19588059 -0.3742013
v 0.4654726 0.094417155 -0.3112572
v 0.5105315 0.059455514 -0.16139975
v 0.55282354 0.1943084 -0.16346961
v 0.3911913 0.059455514 -0.34871894
v 0.4067146 0.014503121 -0.0058135986
v 0.55282354 0.19430739 0.15172744
v 0.5105315 0.059455514 0.1497736
v 0.5318394 0.19089949 0.39780462
v 0.4067146 0.014503121 -0.0058135986
v 0.3911913 0.059455514 0.34579074
v 0.49885052 0.09100926 0.35362303
v 0.39688414 0.19430739 0.401977
v -0.12041515 0.31860548 0.3840317
v 0.3911913 0.3646176 0.34579182
v 0.49885052 0.33259773 0.35362303
v 0.5105315 0.3709684 0.1497736
v 0.55282354 0.19430739 0.15172744
v 0.55282354 0.1943084 -0.16346961
v 0.5105315 0.3709684 -0.16139975
v 0.507635 0.19588059 -0.3742013
v 0.4067146 0.41591972 0.1497736
v -0.14362419 0.37612772 0.16623533
v -0.36522913 0.39507997 0.1599077
v 0.47464612 0.33744597 -0.3322298
v 0.3911913 0.3646176 -0.34871894
v 0.39688414 0.1943084 -0.40201604
v -0.21148926 0.1943084 -0.44636846
v 0.4067146 0.41591972 -0.16139975
v -0.20524704 0.31860548 -0.38713914
v -0.35586584 0.1943084 -0.42920977
v -0.18163526 0.37612772 -0.17928496
v -0.3504429 0.2966112 -0.3723086
v -0.5091902 0.1948188 -0.3857262
v -0.36522913 0.39507997 -0.17231733
v -0.50510323 0.32916033 0.1497736
v -0.4853369 0.32916033 -0.16139975
v -0.4721893 0.29471213 -0.34375468
v -0.53305614 0.1943084 -0.16346961
v -0.55282354 0.19430739 0.15172744
v -0.45826447 0.29363555 0.3357157
vt 0.87181824 0.7643345
vt 0.8652025 0.7572309
vt 0.85819036 0.7630235
vt 0.88158953 0.7577492
vt 0.8652025 0.7572309
vt 0.87181824 0.7643345
vt 0.8789676 0.7625662
vt 0.8840285 0.7668954
vt 0.88158953 0.7577492
vt 0.87254995 0.77055395
vt 0.8887846 0.76003575
vt 0.85819036 0.7630235
vt 0.8569251 0.76936495
vt 0.88152856 0.7475816
vt 0.84636116 0.76584363
vt 0.8887846 0.747734
vt 0.8826413 0.72540194
vt 0.89597964 0.75773394
vt 0.8934644 0.7669564
vt 0.8500197 0.7620327
vt 0.84924227 0.75599617
vt 0.8652025 0.7572309
vt 0.84924227 0.75599617
vt 0.84253496 0.7578559
vt 0.84081244 0.7498072
vt 0.8491813 0.7495633
vt 0.84684896 0.7203715
vt 0.8529312 0.72270375
vt 0.8502026 0.7150666
vt 0.8542422 0.71887755
vt 0.8613153 0.7181154
vt 0.86070555 0.7117435
vt 0.8529312 0.72270375
vt 0.8676567 0.72354215
vt 0.8765438 0.7127953
vt 0.874989 0.7188471
vt 0.88870835 0.7173532
vt 0.8676567 0.72354215
vt 0.8826413 0.72540194
vt 0.88395226 0.72050864
vt 0.8887998 0.724594
vt 0.89602536 0.74759686
vt 0.89495826 0.7254781
vt 0.89347965 0.72050864
vt 0.90256494 0.7189538
vt 0.90093386 0.7128106
vt 0.9168331 0.7118654
vt 0.91617763 0.71802396
vt 0.927397 0.71499044
vt 0.9033576 0.7241062
vt 0.9050039 0.7479779
vt 0.90532404 0.75762725
vt 0.92393667 0.71887755
vt 0.92475986 0.72281045
vt 0.9307354 0.7204477
vt 0.93625367 0.74992913
vt 0.91646725 0.7231001
vt 0.9283726 0.74966997
vt 0.93451583 0.7579626
vt 0.91918063 0.7488621
vt 0.9282964 0.75610286
vt 0.9311317 0.76593506
vt 0.91933304 0.7569717
vt 0.9056899 0.76436496
vt 0.91933304 0.763115
vt 0.92748845 0.7621241
vt 0.92055255 0.7694564
vt 0.90492773 0.7705844
vt 0.8970924 0.76303875
vn -0.25120896 -0.9625731 0.10172054
vn -0.7105307 -0.6967529 -0.09839488
vn -0.7320308 -0.68111646 0.014534059
vn -0.19061762 -0.7788445 0.59755015
vn -0.25120896 -0.9625731 0.10172054
vn -0.7320308 -0.68111646 0.014534059
vn -0.55612034 -0.763208 0.3290043
vn -0.7691675 -0.024384081 0.6385819
vn -0.19061762 -0.7788445 0.59755015
vn -0.9998056 0.0010252595 0.01968834
vn -0.13979906 0.0010252595 0.99017936
vn -0.7105307 -0.6967529 -0.09839488
vn -0.9978511 -0.0009293556 -0.065516405
vn 0.036111474 -0.79839003 0.6010569
vn -0.7906677 0.0010252595 -0.61224467
vn 0.03806603 -0.0009293556 0.9992748
vn 0.1260212 -0.81402653 0.56699157
vn -0.20429951 0.7867585 0.5824713
vn -0.7691675 -0.024384081 0.6385819
vn -0.593257 -0.7338896 -0.33083567
vn -0.2629363 -0.7944809 -0.54741627
vn -0.27857274 -0.95670944 -0.084286876
vn -0.2629363 -0.7944809 -0.54741627
vn -0.18084472 -0.0009293556 -0.9835112
vn 0.03415686 -0.0009293556 -0.99941605
vn 0.032202303 -0.76907164 -0.63835084
vn 0.104521036 -0.014611304 -0.99441534
vn 0.12406665 -0.77298075 -0.6221802
vn 0.8003446 -0.16902155 -0.57522196
vn 0.6772073 -0.602934 -0.42173555
vn 0.77298075 -0.6283433 -0.08766671
vn 0.9958007 -0.03806603 -0.083258554
vn 0.12406665 -0.77298075 -0.6221802
vn 0.13579404 -0.98602784 -0.096483745
vn 0.9997098 0.0010252595 0.024069052
vn 0.73584414 -0.67525274 0.050666973
vn 0.8101174 -0.006793022 0.5862283
vn 0.13579404 -0.9879824 0.073829435
vn 0.1260212 -0.81402653 0.56699157
vn 0.5482063 -0.7651625 0.33763307
vn 0.08888459 0.0010252595 0.9960414
vn 0.036111474 0.79848593 0.60092944
vn 0.12993038 0.8141224 0.5659707
vn 0.55993366 0.7515765 0.34872213
vn 0.73584414 0.673394 0.07123135
vn 0.9997098 0.0010252595 0.024069052
vn 0.9958007 -0.03806603 -0.083258554
vn 0.75343513 0.65384847 -0.0694094
vn 0.8003446 -0.16902155 -0.57522196
vn 0.1377486 0.98612374 0.092657074
vn 0.028293192 0.9958965 0.08596281
vn -0.26098174 0.9607144 0.09442657
vn 0.56970644 0.73398536 -0.36972976
vn 0.11624843 0.7828494 -0.6112554
vn 0.104521036 -0.014611304 -0.99441534
vn 0.03415686 -0.0009293556 -0.99941605
vn 0.13383949 0.98612374 -0.0982192
vn 0.032202303 0.7691675 -0.6382354
vn -0.18084472 -0.0009293556 -0.9835112
vn 0.024384081 0.99394196 -0.10716717
vn -0.2629363 0.7945768 -0.5472771
vn -0.7906677 0.0010252595 -0.61224467
vn -0.27857274 0.9568053 -0.08319179
vn -0.72616714 0.68512136 0.0573585
vn -0.7105307 0.69880337 -0.08258343
vn -0.59130245 0.7359399 -0.3297785
vn -0.9978511 -0.0009293556 -0.065516405
vn -0.9998056 0.0010252595 0.01968834
vn -0.56980234 0.7418036 0.3536279
g febg_oldcastle_001_sack_03_0
f 3/3/3 2/2/2 1/1/1
f 6/6/6 5/5/5 4/4/4
f 7/7/7 6/6/6 4/4/4
f 7/7/7 8/8/8 6/6/6
f 7/7/7 9/9/9 8/8/8
f 8/8/8 10/10/10 6/6/6
f 9/9/9 11/11/11 8/8/8
f 6/6/6 10/10/10 12/12/12
f 10/10/10 13/13/13 12/12/12
f 9/9/9 14/14/14 11/11/11
f 12/12/12 13/13/13 15/15/15
f 14/14/14 16/16/16 11/11/11
f 14/14/14 17/17/17 16/16/16
f 11/11/11 16/16/16 18/18/18
f 19/19/19 11/11/11 18/18/18
f 20/20/20 12/12/12 15/15/15
f 20/20/20 21/21/21 12/12/12
f 21/21/21 22/22/22 12/12/12
f 20/20/20 15/15/15 23/23/23
f 15/15/15 24/24/24 23/23/23
f 24/24/24 25/25/25 23/23/23
f 25/25/25 26/26/26 23/23/23
f 25/25/25 27/27/27 26/26/26
f 27/27/27 28/28/28 26/26/26
f 28/28/28 27/27/27 29/29/29
f 30/30/30 28/28/28 29/29/29
f 30/30/30 29/29/29 31/31/31
f 29/29/29 32/32/32 31/31/31
f 30/30/30 31/31/31 33/33/33
f 31/31/31 34/34/34 33/33/33
f 31/31/31 32/32/32 35/35/35
f 36/36/36 31/31/31 35/35/35
f 36/36/36 35/35/35 37/37/37
f 36/36/36 38/38/38 31/31/31
f 39/39/39 38/38/38 36/36/36
f 40/40/40 39/39/39 36/36/36
f 40/40/40 36/36/36 37/37/37
f 40/40/40 37/37/37 17/17/17
f 37/37/37 41/41/41 17/17/17
f 17/17/17 41/41/41 16/16/16
f 16/16/16 41/41/41 42/42/42
f 16/16/16 42/42/42 18/18/18
f 43/43/43 41/41/41 37/37/37
f 41/41/41 43/43/43 42/42/42
f 44/44/44 43/43/43 37/37/37
f 44/44/44 37/37/37 45/45/45
f 44/44/44 45/45/45 43/43/43
f 37/37/37 46/46/46 45/45/45
f 46/46/46 47/47/47 45/45/45
f 47/47/47 48/48/48 45/45/45
f 48/48/48 47/47/47 49/49/49
f 45/45/45 50/50/50 43/43/43
f 45/45/45 48/48/48 50/50/50
f 42/42/42 43/43/43 51/51/51
f 43/43/43 50/50/50 51/51/51
f 18/18/18 42/42/42 52/52/52
f 42/42/42 51/51/51 52/52/52
f 53/53/53 48/48/48 49/49/49
f 53/53/53 49/49/49 54/54/54
f 53/53/53 54/54/54 48/48/48
f 49/49/49 55/55/55 54/54/54
f 54/54/54 55/55/55 56/56/56
f 48/48/48 57/57/57 50/50/50
f 54/54/54 57/57/57 48/48/48
f 58/58/58 54/54/54 56/56/56
f 57/57/57 54/54/54 58/58/58
f 58/58/58 56/56/56 59/59/59
f 50/50/50 57/57/57 60/60/60
f 51/51/51 50/50/50 60/60/60
f 60/60/60 57/57/57 58/58/58
f 61/61/61 58/58/58 59/59/59
f 60/60/60 58/58/58 61/61/61
f 61/61/61 59/59/59 62/62/62
f 51/51/51 60/60/60 63/63/63
f 63/63/63 60/60/60 61/61/61
f 52/52/52 51/51/51 63/63/63
f 52/52/52 63/63/63 64/64/64
f 18/18/18 52/52/52 64/64/64
f 65/65/65 63/63/63 61/61/61
f 63/63/63 65/65/65 64/64/64
f 66/66/66 61/61/61 62/62/62
f 66/66/66 65/65/65 61/61/61
f 66/66/66 62/62/62 65/65/65
f 62/62/62 67/67/67 65/65/65
f 65/65/65 67/67/67 68/68/68
f 64/64/64 65/65/65 68/68/68
f 64/64/64 68/68/68 19/19/19
f 69/69/69 19/19/19 18/18/18
f 69/69/69 18/18/18 64/64/64
f 69/69/69 64/64/64 19/19/19
