g febg_coinrush_001_gamechair_03
v 0.28072697 0.87956834 -0.18533576
v 0.1950269 -8.940697E-08 -0.19173935
v 0.18839115 0.87956834 -0.18533576
v 0.30993354 -8.940697E-08 -0.19173935
v 0.28072697 0.87956834 -0.27767158
v 0.30993354 -8.940697E-08 -0.3066445
v 0.18839115 0.87956834 -0.27767158
v 0.1950269 -8.940697E-08 -0.3066445
v 0.18839115 0.87956834 -0.18533576
v 0.1950269 -8.940697E-08 -0.19173935
v 0.1950269 -8.940697E-08 -0.3066445
v 0.18839115 0.87956834 -0.27767158
v -0.19502825 -8.940697E-08 -0.19173935
v -0.30993336 -8.940697E-08 -0.19173935
v -0.2807268 0.87956834 -0.18533576
v -0.18839097 0.87956834 -0.18533576
v -0.19502825 -8.940697E-08 -0.3066445
v -0.18839097 0.87956834 -0.27767158
v -0.30993336 -8.940697E-08 -0.3066445
v -0.2807268 0.87956834 -0.27767158
v -0.30993336 -8.940697E-08 -0.19173935
v -0.30993336 -8.940697E-08 -0.3066445
v -0.2807268 0.87956834 -0.27767158
v -0.2807268 0.87956834 -0.18533576
v 0.1950269 -8.940697E-08 0.19173771
v 0.28072697 0.87956834 0.18533558
v 0.18839115 0.87956834 0.18533558
v 0.30993354 -8.940697E-08 0.19173771
v 0.28072697 0.87956834 0.27767146
v 0.30993354 -8.940697E-08 0.30664432
v 0.18839115 0.87956834 0.27767146
v 0.1950269 -8.940697E-08 0.30664432
v 0.1950269 -8.940697E-08 0.30664432
v 0.1950269 -8.940697E-08 0.19173771
v 0.18839115 0.87956834 0.18533558
v 0.18839115 0.87956834 0.27767146
v -0.2807268 0.87956834 0.18533558
v -0.30993336 -8.940697E-08 0.19173771
v -0.19502825 -8.940697E-08 0.19173771
v -0.18839097 0.87956834 0.18533558
v -0.19502825 -8.940697E-08 0.30664432
v -0.18839097 0.87956834 0.27767146
v -0.30993336 -8.940697E-08 0.30664432
v -0.2807268 0.87956834 0.27767146
v -0.2807268 0.87956834 0.27767146
v -0.30993336 -8.940697E-08 0.30664432
v -0.30993336 -8.940697E-08 0.19173771
v -0.2807268 0.87956834 0.18533558
v -0.21295089 0.5570984 -0.19955823
v 0.19513193 0.50776124 -0.19955823
v -0.21295089 0.50776124 -0.19955823
v 0.19513193 0.5570984 -0.19955823
v -0.21295089 0.5570984 -0.25374025
v 0.19513193 0.5570984 -0.25374025
v -0.21295089 0.50776124 -0.25374025
v 0.19513193 0.50776124 -0.25374025
v -0.21295089 0.5570984 0.25559902
v 0.19513193 0.50776124 0.25559902
v -0.21295089 0.50776124 0.25559902
v 0.19513193 0.5570984 0.25559902
v -0.21295089 0.5570984 0.20141554
v 0.19513193 0.5570984 0.20141554
v -0.21295089 0.50776124 0.20141554
v 0.19513193 0.50776124 0.20141554
v -0.2109825 0.5570984 0.20269477
v -0.2109825 0.50776124 -0.20538801
v -0.2109825 0.50776124 0.20269477
v -0.2109825 0.5570984 -0.20538801
v -0.26516598 0.5570984 0.20269477
v -0.26516598 0.5570984 -0.20538801
v -0.26516598 0.50776124 0.20269477
v -0.26516598 0.50776124 -0.20538801
v 0.20471215 0.5570984 -0.20538801
v 0.20471215 0.50776124 0.20269477
v 0.20471215 0.50776124 -0.20538801
v 0.20471215 0.5570984 0.20269477
v 0.25889564 0.5570984 -0.20538801
v 0.25889564 0.5570984 0.20269477
v 0.25889564 0.50776124 -0.20538801
v 0.25889564 0.50776124 0.20269477
v -0.34196013 0.8825587 0.33788288
v 8.940697E-08 0.8825587 0.4731434
v 8.940697E-08 0.8425592 0.4555151
v -0.32921952 0.8425592 0.32529455
v 0.3292182 0.8425592 0.32529455
v -0.47936803 0.8825587 -8.940697E-08
v -0.4615075 0.8425592 -8.940697E-08
v -0.34196013 1.0313569 0.33788288
v 0.3419603 0.8825587 0.33788288
v 0.46150768 0.8425592 -8.940697E-08
v -0.34196013 0.8825587 -0.33788303
v -0.32921952 0.8425592 -0.32529473
v -0.47936803 1.0313569 -8.940697E-08
v 8.940697E-08 1.0313569 0.4731434
v 0.4793682 0.8825587 -8.940697E-08
v 0.3292197 0.8425592 -0.32529473
v 8.940697E-08 0.8825587 -0.47314358
v 8.940697E-08 0.8425592 -0.45551375
v 0.3419603 0.8825587 -0.33788303
v 0.3419603 1.0313555 -0.33788303
v 0.4793682 1.0313569 -8.940697E-08
v 8.940697E-08 1.0313555 -0.4731421
v 0.3419603 1.0313569 0.33788288
v -0.34196013 1.0313555 -0.33788303
v 0.43936872 1.0713564 -8.940697E-08
v 0.3135065 1.0713564 0.3097692
v 8.940697E-08 1.0713564 -8.940697E-08
v 0.3135065 1.0713564 -0.3097694
v 8.940697E-08 1.0713564 0.43518627
v 8.940697E-08 1.0713564 -0.43518496
v -0.31350785 1.0713564 0.3097692
v -0.31350785 1.0713564 -0.3097694
v -0.4393686 1.0713564 -8.940697E-08
vt 0.43701893 0.3911429
vt 0.43118674 0.3584044
vt 0.43118674 0.3911429
vt 0.43701893 0.3584044
vt 0.4444144 0.3911429
vt 0.4444144 0.3584044
vt 0.45159945 0.3911429
vt 0.45159945 0.3584044
vt 0.43701893 0.3911429
vt 0.43701893 0.3584044
vt 0.4444144 0.3584044
vt 0.4444144 0.3911429
vt 0.43701893 0.3584044
vt 0.43118674 0.3584044
vt 0.43118674 0.3911429
vt 0.43701893 0.3911429
vt 0.4444144 0.3584044
vt 0.4444144 0.3911429
vt 0.45159945 0.3584044
vt 0.45159945 0.3911429
vt 0.43701893 0.3584044
vt 0.4444144 0.3584044
vt 0.4444144 0.3911429
vt 0.43701893 0.3911429
vt 0.45159945 0.3584044
vt 0.4444144 0.3911429
vt 0.45159945 0.3911429
vt 0.4444144 0.3584044
vt 0.43701893 0.3911429
vt 0.43701893 0.3584044
vt 0.43118674 0.3911429
vt 0.43118674 0.3584044
vt 0.43701893 0.3584044
vt 0.4444144 0.3584044
vt 0.4444144 0.3911429
vt 0.43701893 0.3911429
vt 0.45159945 0.3911429
vt 0.45159945 0.3584044
vt 0.4444144 0.3584044
vt 0.4444144 0.3911429
vt 0.43701893 0.3584044
vt 0.43701893 0.3911429
vt 0.43118674 0.3584044
vt 0.43118674 0.3911429
vt 0.43701893 0.3911429
vt 0.43701893 0.3584044
vt 0.4444144 0.3584044
vt 0.4444144 0.3911429
vt 0.49069628 0.4300894
vt 0.4866979 0.39702022
vt 0.4866979 0.4300894
vt 0.49069628 0.39702022
vt 0.49508545 0.4300894
vt 0.49508545 0.39702022
vt 0.49908382 0.4300894
vt 0.49908382 0.39702022
vt 0.49069628 0.4300894
vt 0.4866979 0.39702022
vt 0.4866979 0.4300894
vt 0.49069628 0.39702022
vt 0.49508545 0.4300894
vt 0.49508545 0.39702022
vt 0.49908382 0.4300894
vt 0.49908382 0.39702022
vt 0.49069628 0.4300894
vt 0.4866979 0.39702022
vt 0.4866979 0.4300894
vt 0.49069628 0.39702022
vt 0.49508545 0.4300894
vt 0.49508545 0.39702022
vt 0.49908382 0.4300894
vt 0.49908382 0.39702022
vt 0.49069628 0.4300894
vt 0.4866979 0.39702022
vt 0.4866979 0.4300894
vt 0.49069628 0.39702022
vt 0.49508545 0.4300894
vt 0.49508545 0.39702022
vt 0.49908382 0.4300894
vt 0.49908382 0.39702022
vt 0.70868254 0.5035031
vt 0.7490721 0.51985735
vt 0.7490721 0.5224728
vt 0.70692384 0.5052918
vt 0.70692384 0.5052768
vt 0.6922381 0.46348932
vt 0.6896677 0.46348932
vt 0.71580744 0.49634808
vt 0.70868254 0.5035031
vt 0.6896677 0.46348932
vt 0.70868254 0.4234756
vt 0.70692384 0.42170188
vt 0.70248955 0.46348932
vt 0.7490721 0.5095007
vt 0.6922381 0.46348932
vt 0.70692384 0.42170188
vt 0.7490721 0.40712136
vt 0.7490721 0.4045209
vt 0.70868254 0.4234756
vt 0.71580744 0.43064559
vt 0.70248955 0.46348932
vt 0.7490721 0.41747802
vt 0.71580744 0.49633306
vt 0.71580744 0.43064559
vt 0.70495474 0.46348932
vt 0.71755105 0.4946195
vt 0.7490721 0.46348932
vt 0.71755105 0.4323592
vt 0.7490721 0.5071708
vt 0.7490721 0.41982293
vt 0.71755105 0.4946195
vt 0.71755105 0.4323742
vt 0.70495474 0.46348932
vn 0.6969694 0.018572807 0.71686035
vn -0.70674455 -0.010752678 0.7073871
vn -0.70674455 -0.010752678 0.7073871
vn 0.7165197 0.018572807 0.69731957
vn 0.70674455 0.04594326 -0.7059755
vn 0.70674455 0.04594326 -0.7059755
vn -0.7165197 0.016617775 -0.69736886
vn -0.6969694 0.018572807 -0.71686035
vn -0.70674455 -0.010752678 0.7073871
vn -0.70674455 -0.010752678 0.7073871
vn -0.6969694 0.018572807 -0.71686035
vn -0.7165197 0.016617775 -0.69736886
vn 0.70674455 -0.010752678 0.7073871
vn -0.7165197 0.018572807 0.69731957
vn -0.6969694 0.018572807 0.71686035
vn 0.70674455 -0.010752678 0.7073871
vn 0.6969694 0.018572807 -0.71686035
vn 0.7165197 0.016617775 -0.69736886
vn -0.70674455 0.04594326 -0.7059755
vn -0.70674455 0.04594326 -0.7059755
vn -0.7165197 0.018572807 0.69731957
vn -0.70674455 0.04594326 -0.7059755
vn -0.70674455 0.04594326 -0.7059755
vn -0.6969694 0.018572807 0.71686035
vn -0.70674455 -0.010752678 -0.7073871
vn 0.6969694 0.018572807 -0.71686035
vn -0.70674455 -0.010752678 -0.7073871
vn 0.7165197 0.018572807 -0.69731957
vn 0.70674455 0.04594326 0.7059755
vn 0.70674455 0.04594326 0.7059755
vn -0.7165197 0.016617775 0.69736886
vn -0.6969694 0.018572807 0.71686035
vn -0.6969694 0.018572807 0.71686035
vn -0.70674455 -0.010752678 -0.7073871
vn -0.70674455 -0.010752678 -0.7073871
vn -0.7165197 0.016617775 0.69736886
vn -0.6969694 0.018572807 -0.71686035
vn -0.7165197 0.018572807 -0.69731957
vn 0.70674455 -0.010752678 -0.7073871
vn 0.70674455 -0.010752678 -0.7073871
vn 0.6969694 0.018572807 0.71686035
vn 0.7165197 0.016617775 0.69736886
vn -0.70674455 0.04594326 0.7059755
vn -0.70674455 0.04594326 0.7059755
vn -0.70674455 0.04594326 0.7059755
vn -0.70674455 0.04594326 0.7059755
vn -0.7165197 0.018572807 -0.69731957
vn -0.6969694 0.018572807 -0.71686035
vn -0.0009775162 0.70674455 0.70746815
vn -0.0009775162 0.0009775162 0.99999905
vn -0.0009775162 0.0009775162 0.99999905
vn -0.0009775162 0.70674455 0.70746815
vn -0.0009775162 0.70674455 -0.70746815
vn -0.0009775162 0.70674455 -0.70746815
vn -0.0009775162 0.0009775162 -0.99999905
vn -0.0009775162 0.0009775162 -0.99999905
vn -0.0009775162 0.70674455 0.70746815
vn -0.0009775162 0.0009775162 0.99999905
vn -0.0009775162 0.0009775162 0.99999905
vn -0.0009775162 0.70674455 0.70746815
vn -0.0009775162 0.70674455 -0.70746815
vn -0.0009775162 0.70674455 -0.70746815
vn -0.0009775162 0.0009775162 -0.99999905
vn -0.0009775162 0.0009775162 -0.99999905
vn 0.70674455 0.70674455 -0.03200431
vn 0.9999995 0.0009775162 -0
vn 0.9999995 0.0009775162 -0
vn 0.70674455 0.70674455 -0.03200431
vn -0.70674455 0.70674455 -0.03200431
vn -0.70674455 0.70674455 -0.03200431
vn -0.9999995 0.0009775162 -0
vn -0.9999995 0.0009775162 -0
vn -0.70674455 0.70674455 -0.03200431
vn -0.9999995 0.0009775162 -0
vn -0.9999995 0.0009775162 -0
vn -0.70674455 0.70674455 -0.03200431
vn 0.70674455 0.70674455 -0.03200431
vn 0.70674455 0.70674455 -0.03200431
vn 0.9999995 0.0009775162 -0
vn 0.9999995 0.0009775162 -0
vn -0.68914926 -0.1984359 0.69691926
vn -0.0009775162 -0.19648087 0.9805072
vn -0.0009775162 -0.40371436 0.91488457
vn -0.6422285 -0.40957946 0.6479099
vn 0.6422284 -0.40957946 0.64790994
vn -0.9801271 -0.19837071 -0
vn -0.9132872 -0.4073163 -0
vn -0.6598238 0.35092843 0.664441
vn 0.68914926 -0.1984359 0.69691926
vn 0.91328716 -0.4073163 -0
vn -0.68914926 -0.1984359 -0.69691926
vn -0.6422285 -0.40957946 -0.6479099
vn -0.93548346 0.35288346 -0.018546855
vn -0.0009775162 0.34701836 0.9378578
vn 0.9801271 -0.19837071 -0
vn 0.6422284 -0.40957946 -0.64790994
vn -0.0009775162 -0.19648087 -0.9805072
vn -0.0009775162 -0.40371436 -0.91488457
vn 0.68914926 -0.1984359 -0.69691926
vn 0.6598238 0.35092843 -0.664441
vn 0.93548346 0.35288346 -0.018546855
vn -0.0009775162 0.34701836 -0.9378578
vn 0.6598238 0.35092843 0.664441
vn -0.6598238 0.35092843 -0.664441
vn 0.4565003 0.8885627 -0.04542984
vn 0.32355803 0.88660765 0.33051032
vn -0.0009775162 0.9999995 -0
vn 0.32355803 0.88660765 -0.33051032
vn -0.0009775162 0.88660765 0.46252126
vn -0.0009775162 0.88660765 -0.46252126
vn -0.32355797 0.88660765 0.33051032
vn -0.32355797 0.88660765 -0.33051032
vn -0.4565003 0.8885627 -0.04542984
g febg_coinrush_001_gamechair_03_0
f 3/3/3 2/2/2 1/1/1
f 2/2/2 4/4/4 1/1/1
f 1/1/1 4/4/4 5/5/5
f 4/4/4 6/6/6 5/5/5
f 5/5/5 6/6/6 7/7/7
f 6/6/6 8/8/8 7/7/7
f 11/11/11 10/10/10 9/9/9
f 12/12/12 11/11/11 9/9/9
f 15/15/15 14/14/14 13/13/13
f 16/16/16 15/15/15 13/13/13
f 16/16/16 13/13/13 17/17/17
f 18/18/18 16/16/16 17/17/17
f 18/18/18 17/17/17 19/19/19
f 20/20/20 18/18/18 19/19/19
f 23/23/23 22/22/22 21/21/21
f 24/24/24 23/23/23 21/21/21
f 27/27/27 26/26/26 25/25/25
f 26/26/26 28/28/28 25/25/25
f 26/26/26 29/29/29 28/28/28
f 29/29/29 30/30/30 28/28/28
f 29/29/29 31/31/31 30/30/30
f 31/31/31 32/32/32 30/30/30
f 35/35/35 34/34/34 33/33/33
f 36/36/36 35/35/35 33/33/33
f 39/39/39 38/38/38 37/37/37
f 40/40/40 39/39/39 37/37/37
f 41/41/41 39/39/39 40/40/40
f 42/42/42 41/41/41 40/40/40
f 43/43/43 41/41/41 42/42/42
f 44/44/44 43/43/43 42/42/42
f 47/47/47 46/46/46 45/45/45
f 48/48/48 47/47/47 45/45/45
f 51/51/51 50/50/50 49/49/49
f 50/50/50 52/52/52 49/49/49
f 49/49/49 52/52/52 53/53/53
f 52/52/52 54/54/54 53/53/53
f 53/53/53 54/54/54 55/55/55
f 54/54/54 56/56/56 55/55/55
f 59/59/59 58/58/58 57/57/57
f 58/58/58 60/60/60 57/57/57
f 57/57/57 60/60/60 61/61/61
f 60/60/60 62/62/62 61/61/61
f 61/61/61 62/62/62 63/63/63
f 62/62/62 64/64/64 63/63/63
f 67/67/67 66/66/66 65/65/65
f 66/66/66 68/68/68 65/65/65
f 65/65/65 68/68/68 69/69/69
f 68/68/68 70/70/70 69/69/69
f 69/69/69 70/70/70 71/71/71
f 70/70/70 72/72/72 71/71/71
f 75/75/75 74/74/74 73/73/73
f 74/74/74 76/76/76 73/73/73
f 73/73/73 76/76/76 77/77/77
f 76/76/76 78/78/78 77/77/77
f 77/77/77 78/78/78 79/79/79
f 78/78/78 80/80/80 79/79/79
f 83/83/83 82/82/82 81/81/81
f 84/84/84 83/83/83 81/81/81
f 83/83/83 85/85/85 82/82/82
f 84/84/84 81/81/81 86/86/86
f 87/87/87 84/84/84 86/86/86
f 88/88/88 81/81/81 82/82/82
f 81/81/81 88/88/88 86/86/86
f 85/85/85 89/89/89 82/82/82
f 85/85/85 90/90/90 89/89/89
f 87/87/87 86/86/86 91/91/91
f 92/92/92 87/87/87 91/91/91
f 88/88/88 93/93/93 86/86/86
f 86/86/86 93/93/93 91/91/91
f 94/94/94 88/88/88 82/82/82
f 94/94/94 82/82/82 89/89/89
f 90/90/90 95/95/95 89/89/89
f 90/90/90 96/96/96 95/95/95
f 92/92/92 91/91/91 97/97/97
f 98/98/98 92/92/92 97/97/97
f 96/96/96 98/98/98 99/99/99
f 96/96/96 99/99/99 95/95/95
f 98/98/98 97/97/97 99/99/99
f 99/99/99 100/100/100 95/95/95
f 100/100/100 99/99/99 97/97/97
f 95/95/95 101/101/101 89/89/89
f 100/100/100 101/101/101 95/95/95
f 102/102/102 97/97/97 91/91/91
f 102/102/102 100/100/100 97/97/97
f 103/103/103 94/94/94 89/89/89
f 101/101/101 103/103/103 89/89/89
f 104/104/104 102/102/102 91/91/91
f 93/93/93 104/104/104 91/91/91
f 105/105/105 101/101/101 100/100/100
f 106/106/106 103/103/103 101/101/101
f 105/105/105 106/106/106 101/101/101
f 105/105/105 107/107/107 106/106/106
f 108/108/108 105/105/105 100/100/100
f 108/108/108 100/100/100 102/102/102
f 108/108/108 107/107/107 105/105/105
f 106/106/106 109/109/109 103/103/103
f 109/109/109 94/94/94 103/103/103
f 106/106/106 107/107/107 109/109/109
f 110/110/110 108/108/108 102/102/102
f 110/110/110 102/102/102 104/104/104
f 110/110/110 107/107/107 108/108/108
f 109/109/109 111/111/111 94/94/94
f 109/109/109 107/107/107 111/111/111
f 111/111/111 88/88/88 94/94/94
f 112/112/112 110/110/110 104/104/104
f 112/112/112 104/104/104 93/93/93
f 112/112/112 107/107/107 110/110/110
f 113/113/113 93/93/93 88/88/88
f 111/111/111 113/113/113 88/88/88
f 111/111/111 107/107/107 113/113/113
f 113/113/113 107/107/107 112/112/112
f 113/113/113 112/112/112 93/93/93
