g febg_tropical_003_table_01
v -1.5009606 0.98885155 0.73620224
v -1.4611459 1.0790703 0.75915
v -1.4611459 0.98885155 0.75915
v -1.5009606 1.0790703 0.73620224
v -1.5239055 0.98885155 0.69639015
v -1.5239055 1.0790703 0.69639015
v -1.5239055 0.98885155 -0.69639045
v -1.5239055 1.0790703 -0.69639045
v -1.5009606 1.0790703 -0.7362024
v -1.5009606 0.98885155 -0.7362024
v -1.4611459 1.0790703 -0.7591502
v -1.4611459 0.98885155 -0.7591502
v -1.3113022E-06 1.0790703 -0.7606849
v -1.3113022E-06 0.98885155 -0.7606849
v 1.461146 0.98885155 -0.7591502
v 1.461146 1.0790703 -0.7591502
v 1.5009608 0.98885155 -0.7362024
v -1.3113022E-06 1.0790703 0.7606847
v -1.4611459 1.0790703 -0.7591502
v -1.4611459 1.0790703 0.75915
v -1.5009606 1.0790703 -0.7362024
v -1.5009606 1.0790703 0.73620224
v -1.5239055 1.0790703 -0.69639045
v -1.5239055 1.0790703 0.69639015
v 1.461146 1.0790703 0.75915
v 1.5009608 1.0790703 -0.7362024
v 1.5239058 0.98885155 -0.69639045
v 1.5009608 1.0790703 0.73620224
v 1.5239058 1.0790703 -0.69639045
v 1.5239058 1.0790703 0.69639015
v 1.5239058 0.98885155 0.69639015
v 1.5009608 0.98885155 0.73620224
v 1.461146 0.98885155 0.75915
v -1.3139951 0.37711227 -0.5896825
v -1.2716107 0.4259261 0.6453471
v -1.2716107 0.4259261 -0.5896825
v -1.3139951 0.37711227 0.6453471
v -1.3563824 0.4259261 -0.5896825
v -1.3563824 0.4259261 0.6453471
v -1.3139951 0.4747399 -0.5896825
v -1.3139951 0.4747399 0.6453471
v -1.2716107 0.4259261 -0.5896825
v -1.2716107 0.4259261 0.6453471
v -1.2985609 0.4483943 -0.5387062
v -0.69197226 0.98182917 -0.57849205
v -1.2704277 0.42026114 -0.57849205
v -0.7201054 1.0099623 -0.5387062
v -1.3266943 0.47652745 -0.57849205
v -0.74823856 1.0380957 -0.57849205
v -1.2985609 0.4483943 -0.61827785
v -0.7201054 1.0099623 -0.61827785
v -1.2704277 0.42026114 -0.57849205
v -0.69197226 0.98182917 -0.57849205
v -1.2985609 0.4483943 0.6639321
v -0.69197226 0.98182917 0.6241462
v -1.2704277 0.42026114 0.6241462
v -0.7201054 1.0099623 0.6639321
v -1.3266943 0.47652745 0.6241462
v -0.74823856 1.0380957 0.6241462
v -1.2985609 0.4483943 0.58436036
v -0.7201054 1.0099623 0.58436036
v -1.2704277 0.42026114 0.6241462
v -0.69197226 0.98182917 0.6241462
v 1.3139895 0.37711227 -0.5896825
v 1.2716051 0.4259261 -0.5896825
v 1.2716051 0.4259261 0.6453471
v 1.3139895 0.37711227 0.6453471
v 1.3563768 0.4259261 -0.5896825
v 1.3563768 0.4259261 0.6453471
v 1.3139895 0.4747399 -0.5896825
v 1.3139895 0.4747399 0.6453471
v 1.2716051 0.4259261 -0.5896825
v 1.2716051 0.4259261 0.6453471
v 1.2985554 0.4483943 -0.5387062
v 1.2704251 0.42026114 -0.57849205
v 0.69196653 0.98182917 -0.57849205
v 0.72009975 1.0099623 -0.5387062
v 1.3266885 0.47652745 -0.57849205
v 0.74823296 1.0380957 -0.57849205
v 1.2985554 0.4483943 -0.61827785
v 0.72009975 1.0099623 -0.61827785
v 1.2704251 0.42026114 -0.57849205
v 0.69196653 0.98182917 -0.57849205
v 1.2985554 0.4483943 0.6639321
v 1.2704251 0.42026114 0.6241462
v 0.69196653 0.98182917 0.6241462
v 0.72009975 1.0099623 0.6639321
v 1.3266885 0.47652745 0.6241462
v 0.74823296 1.0380957 0.6241462
v 1.2985554 0.4483943 0.58436036
v 0.72009975 1.0099623 0.58436036
v 1.2704251 0.42026114 0.6241462
v 0.69196653 0.98182917 0.6241462
v -1.2652016 -0.17470992 -0.5101689
v -1.2398617 1.0433507 -0.5212461
v -1.2398617 1.0433507 -0.63573796
v -1.2652016 -0.17470992 -0.64681506
v -1.2652016 -0.17470992 -0.64681506
v -1.2398617 1.0433507 -0.63573796
v -1.3543537 1.0433507 -0.63573796
v -1.4018478 -0.17470992 -0.64681506
v -1.4018478 -0.17470992 -0.64681506
v -1.3543537 1.0433507 -0.63573796
v -1.3543537 1.0433507 -0.5212461
v -1.4018478 -0.17470992 -0.5101689
v -1.2652016 -0.044879794 0.69246626
v -1.2398617 0.99989104 0.68139195
v -1.2398617 0.99989104 0.56690025
v -1.2652016 -0.044879794 0.5558231
v -1.2652016 -0.044879794 0.5558231
v -1.2398617 0.99989104 0.56690025
v -1.3543537 0.99989104 0.56690025
v -1.4018478 -0.044879794 0.5558231
v -1.4018478 -0.044879794 0.5558231
v -1.3543537 0.99989104 0.56690025
v -1.3543537 0.99989104 0.68139195
v -1.4018478 -0.044879794 0.69246626
v 1.2651961 1.3113022E-06 -0.5101689
v 1.2651961 1.3113022E-06 -0.64681506
v 1.2398561 0.99989104 -0.63573796
v 1.2398561 0.99989104 -0.5212461
v 1.2651961 1.3113022E-06 -0.64681506
v 1.354348 0.99989104 -0.63573796
v 1.2398561 0.99989104 -0.63573796
v 1.4018421 1.3113022E-06 -0.64681506
v 1.354348 0.99989104 -0.5212461
v 1.4018421 1.3113022E-06 -0.5101689
v 1.2651961 1.3113022E-06 0.69246626
v 1.2651961 1.3113022E-06 0.5558231
v 1.2398561 0.99989104 0.56690025
v 1.2398561 0.99989104 0.68139195
v 1.2651961 1.3113022E-06 0.5558231
v 1.354348 0.99989104 0.56690025
v 1.2398561 0.99989104 0.56690025
v 1.4018421 1.3113022E-06 0.5558231
v 1.354348 0.99989104 0.68139195
v 1.4018421 1.3113022E-06 0.69246626
vt 0.5187476 0.1080553
vt 0.523819 0.10710441
vt 0.52279264 0.11101361
vt 0.5215097 0.10532339
vt 0.5158497 0.10396498
vt 0.5197589 0.102999
vt 0.5158497 0.0109441485
vt 0.5197589 0.011925221
vt 0.5215097 0.00958574
vt 0.5187476 0.006853828
vt 0.523819 0.007819808
vt 0.52279264 0.0039106086
vt 0.619451 0.007819808
vt 0.619451 0.0039106086
vt 0.5226417 0.0039106086
vt 0.523653 0.007819808
vt 0.51858157 0.006853828
vt 0.619451 0.10710441
vt 0.7150679 0.007819808
vt 0.7150679 0.10710441
vt 0.7173772 0.00958574
vt 0.7173772 0.10532339
vt 0.7191281 0.011925221
vt 0.7191281 0.102999
vt 0.523653 0.10710441
vt 0.5213437 0.00958574
vt 0.51568365 0.0109441485
vt 0.5213437 0.10532339
vt 0.51960796 0.011925221
vt 0.51960796 0.102999
vt 0.51568365 0.10396498
vt 0.51858157 0.1080553
vt 0.5226417 0.11101361
vt 0.62815994 0.11561711
vt 0.7343422 0.1234506
vt 0.62815994 0.1234506
vt 0.7343422 0.11561711
vt 0.62815994 0.1234506
vt 0.7343422 0.1234506
vt 0.62815994 0.13126901
vt 0.7343422 0.13126901
vt 0.62815994 0.1234506
vt 0.7343422 0.1234506
vt 0.7328027 0.005389765
vt 0.73861367 0.1025462
vt 0.73861367 0.005389765
vt 0.7328027 0.1025462
vt 0.7269917 0.005389765
vt 0.7269917 0.1025462
vt 0.7328027 0.005389765
vt 0.7328027 0.1025462
vt 0.73861367 0.005389765
vt 0.73861367 0.1025462
vt 0.7328027 0.005389765
vt 0.73861367 0.1025462
vt 0.73861367 0.005389765
vt 0.7328027 0.1025462
vt 0.7269917 0.005389765
vt 0.7269917 0.1025462
vt 0.7328027 0.005389765
vt 0.7328027 0.1025462
vt 0.73861367 0.005389765
vt 0.73861367 0.1025462
vt 0.62815994 0.11561711
vt 0.62815994 0.1234506
vt 0.7343422 0.1234506
vt 0.7343422 0.11561711
vt 0.62815994 0.1234506
vt 0.7343422 0.1234506
vt 0.62815994 0.13126901
vt 0.7343422 0.13126901
vt 0.62815994 0.1234506
vt 0.7343422 0.1234506
vt 0.7328027 0.005389765
vt 0.73861367 0.005389765
vt 0.73861367 0.1025462
vt 0.7328027 0.1025462
vt 0.7269917 0.005389765
vt 0.7269917 0.1025462
vt 0.7328027 0.005389765
vt 0.7328027 0.1025462
vt 0.73861367 0.005389765
vt 0.73861367 0.1025462
vt 0.7328027 0.005389765
vt 0.73861367 0.005389765
vt 0.73861367 0.1025462
vt 0.7328027 0.1025462
vt 0.7269917 0.005389765
vt 0.7269917 0.1025462
vt 0.7328027 0.005389765
vt 0.7328027 0.1025462
vt 0.73861367 0.005389765
vt 0.73861367 0.1025462
vt 0.6234659 0.13179728
vt 0.5153063 0.13179728
vt 0.5153063 0.14538136
vt 0.6234659 0.14538136
vt 0.6234659 0.14538136
vt 0.5153063 0.14538136
vt 0.5153063 0.15893528
vt 0.6234659 0.15893528
vt 0.6234659 0.14538136
vt 0.5153063 0.14538136
vt 0.5153063 0.13179728
vt 0.6234659 0.13179728
vt 0.6234659 0.13179728
vt 0.5153063 0.13179728
vt 0.5153063 0.14538136
vt 0.6234659 0.14538136
vt 0.6234659 0.14538136
vt 0.5153063 0.14538136
vt 0.5153063 0.15893528
vt 0.6234659 0.15893528
vt 0.6234659 0.14538136
vt 0.5153063 0.14538136
vt 0.5153063 0.13179728
vt 0.6234659 0.13179728
vt 0.6234659 0.13179728
vt 0.6234659 0.14538136
vt 0.5153063 0.14538136
vt 0.5153063 0.13179728
vt 0.6234659 0.15893528
vt 0.5153063 0.14538136
vt 0.5153063 0.15893528
vt 0.6234659 0.14538136
vt 0.5153063 0.13179728
vt 0.6234659 0.13179728
vt 0.6234659 0.13179728
vt 0.6234659 0.14538136
vt 0.5153063 0.14538136
vt 0.5153063 0.13179728
vt 0.6234659 0.15893528
vt 0.5153063 0.14538136
vt 0.5153063 0.15893528
vt 0.6234659 0.14538136
vt 0.5153063 0.13179728
vt 0.6234659 0.13179728
vn -0.70674455 0.0009775162 0.70746815
vn -0.25708687 0.85728204 0.44606483
vn -0.499511 0.0009775162 0.866307
vn -0.5347016 0.6539587 0.5351937
vn -0.966764 0.0009775162 0.25566864
vn -0.73216 0.6539587 0.19047256
vn -0.966764 0.0009775162 -0.25566864
vn -0.73216 0.6539587 -0.19047256
vn -0.5347016 0.6539587 -0.5351937
vn -0.70674455 0.0009775162 -0.70746815
vn -0.19648087 0.6539587 -0.73057055
vn -0.2590419 0.0009775162 -0.96586555
vn -0.0009775162 0.70674455 -0.70746815
vn -0.0009775162 0.0009775162 -0.99999905
vn 0.2590419 0.0009775162 -0.96586555
vn 0.19648087 0.6539587 -0.73057055
vn 0.70674455 0.0009775162 -0.70746815
vn -0.0009775162 0.9999995 -0
vn -0.19648087 0.6539587 -0.73057055
vn -0.25708687 0.85728204 0.44606483
vn -0.5347016 0.6539587 -0.5351937
vn -0.5347016 0.6539587 0.5351937
vn -0.73216 0.6539587 -0.19047256
vn -0.73216 0.6539587 0.19047256
vn 0.25708687 0.85728204 0.44606483
vn 0.5347016 0.6539587 -0.5351937
vn 0.966764 0.0009775162 -0.25566864
vn 0.5347016 0.6539587 0.5351937
vn 0.73216 0.6539587 -0.19047256
vn 0.73216 0.6539587 0.19047256
vn 0.966764 0.0009775162 0.25566864
vn 0.70674455 0.0009775162 0.70746815
vn 0.499511 0.0009775162 0.866307
vn -0.0009775162 -0.9999995 -0
vn 0.9999995 0.0009775162 -0
vn 0.9999995 0.0009775162 -0
vn -0.0009775162 -0.9999995 -0
vn -0.9999995 0.0009775162 -0
vn -0.9999995 0.0009775162 -0
vn -0.0009775162 0.9999995 -0
vn -0.0009775162 0.9999995 -0
vn 0.9999995 0.0009775162 -0
vn 0.9999995 0.0009775162 -0
vn -0.004887581 0.004887581 0.9999761
vn 0.6962831 -0.7177673 -0
vn 0.6962831 -0.7177673 -0
vn 0.004887581 -0.004887581 0.9999761
vn -0.6962831 0.7177673 -0
vn -0.6962831 0.7177673 -0
vn -0.004887581 0.004887581 -0.9999761
vn 0.004887581 -0.004887581 -0.9999761
vn 0.6962831 -0.7177673 -0
vn 0.6962831 -0.7177673 -0
vn -0.004887581 0.004887581 0.9999761
vn 0.6962831 -0.7177673 -0
vn 0.6962831 -0.7177673 -0
vn 0.004887581 -0.004887581 0.9999761
vn -0.6962831 0.7177673 -0
vn -0.6962831 0.7177673 -0
vn -0.004887581 0.004887581 -0.9999761
vn 0.004887581 -0.004887581 -0.9999761
vn 0.6962831 -0.7177673 -0
vn 0.6962831 -0.7177673 -0
vn -0.0009775162 -0.9999995 -0
vn -0.9999995 0.0009775162 -0
vn -0.9999995 0.0009775162 -0
vn -0.0009775162 -0.9999995 -0
vn 0.9999995 0.0009775162 -0
vn 0.9999995 0.0009775162 -0
vn -0.0009775162 0.9999995 -0
vn -0.0009775162 0.9999995 -0
vn -0.9999995 0.0009775162 -0
vn -0.9999995 0.0009775162 -0
vn 0.004887581 0.004887581 0.9999761
vn -0.6962831 -0.7177673 -0
vn -0.6962831 -0.7177673 -0
vn -0.004887581 -0.004887581 0.9999761
vn 0.6962831 0.7177673 -0
vn 0.6962831 0.7177673 -0
vn 0.004887581 0.004887581 -0.9999761
vn -0.004887581 -0.004887581 -0.9999761
vn -0.6962831 -0.7177673 -0
vn -0.6962831 -0.7177673 -0
vn 0.004887581 0.004887581 0.9999761
vn -0.6962831 -0.7177673 -0
vn -0.6962831 -0.7177673 -0
vn -0.004887581 -0.004887581 0.9999761
vn 0.6962831 0.7177673 -0
vn 0.6962831 0.7177673 -0
vn 0.004887581 0.004887581 -0.9999761
vn -0.004887581 -0.004887581 -0.9999761
vn -0.6962831 -0.7177673 -0
vn -0.6962831 -0.7177673 -0
vn 0.9997894 -0.020523526 -0
vn 0.9997894 -0.020523526 -0
vn 0.7145647 -0.008797646 -0.69951403
vn 0.70087945 -0.008797646 -0.7132254
vn 0.70087945 -0.008797646 -0.7132254
vn 0.7145647 -0.008797646 -0.69951403
vn -0.6989244 0.034213066 -0.71437675
vn -0.71260965 0.034213066 -0.70072603
vn -0.71260965 0.034213066 -0.70072603
vn -0.6989244 0.034213066 -0.71437675
vn -0.9992741 0.038095474 -0
vn -0.9992741 0.038095474 -0
vn 0.99970144 -0.02443062 -0
vn 0.99970144 -0.02443062 -0
vn 0.7145647 -0.010752678 -0.69948673
vn 0.6989244 -0.008797646 -0.7151414
vn 0.6989244 -0.008797646 -0.7151414
vn 0.7145647 -0.010752678 -0.69948673
vn -0.6989244 0.040078163 -0.7140717
vn -0.7145647 0.040078163 -0.6984204
vn -0.7145647 0.040078163 -0.6984204
vn -0.6989244 0.040078163 -0.7140717
vn -0.9980445 0.04594326 -0.0423842
vn -0.9980445 0.04594326 -0.0423842
vn -0.99970144 -0.02443062 -0
vn -0.6989244 -0.010752678 -0.7151147
vn -0.7145647 -0.010752678 -0.69948673
vn -0.99970144 -0.02443062 -0
vn -0.6989244 -0.010752678 -0.7151147
vn 0.6989244 0.042033195 -0.7139593
vn -0.7145647 -0.010752678 -0.69948673
vn 0.7145647 0.042033195 -0.6983054
vn 0.9980445 0.047898293 -0.04016164
vn 0.9980445 0.047898293 -0.04016164
vn -0.99970144 -0.02443062 -0
vn -0.6989244 -0.010752678 -0.7151147
vn -0.7145647 -0.010752678 -0.69948673
vn -0.99970144 -0.02443062 -0
vn -0.6989244 -0.010752678 -0.7151147
vn 0.6989244 0.042033195 -0.7139593
vn -0.7145647 -0.010752678 -0.69948673
vn 0.7145647 0.042033195 -0.6983054
vn 0.9980445 0.047898293 -0.04016164
vn 0.9980445 0.047898293 -0.04016164
g febg_tropical_003_table_01_0
f 3/3/3 2/2/2 1/1/1
f 2/2/2 4/4/4 1/1/1
f 1/1/1 4/4/4 5/5/5
f 4/4/4 6/6/6 5/5/5
f 7/7/7 5/5/5 6/6/6
f 8/8/8 7/7/7 6/6/6
f 8/8/8 9/9/9 7/7/7
f 9/9/9 10/10/10 7/7/7
f 9/9/9 11/11/11 10/10/10
f 11/11/11 12/12/12 10/10/10
f 12/12/12 11/11/11 13/13/13
f 14/14/14 12/12/12 13/13/13
f 14/14/14 13/13/13 15/15/15
f 13/13/13 16/16/16 15/15/15
f 15/15/15 16/16/16 17/17/17
f 16/16/16 13/13/13 18/18/18
f 18/18/18 13/13/13 19/19/19
f 20/20/20 18/18/18 19/19/19
f 20/20/20 19/19/19 21/21/21
f 22/22/22 20/20/20 21/21/21
f 22/22/22 21/21/21 23/23/23
f 24/24/24 22/22/22 23/23/23
f 25/25/25 16/16/16 18/18/18
f 16/16/16 26/26/26 17/17/17
f 26/26/26 16/16/16 25/25/25
f 17/17/17 26/26/26 27/27/27
f 28/28/28 26/26/26 25/25/25
f 26/26/26 29/29/29 27/27/27
f 29/29/29 26/26/26 28/28/28
f 29/29/29 30/30/30 27/27/27
f 30/30/30 29/29/29 28/28/28
f 30/30/30 31/31/31 27/27/27
f 30/30/30 28/28/28 31/31/31
f 28/28/28 32/32/32 31/31/31
f 28/28/28 25/25/25 32/32/32
f 25/25/25 33/33/33 32/32/32
f 36/36/36 35/35/35 34/34/34
f 35/35/35 37/37/37 34/34/34
f 34/34/34 37/37/37 38/38/38
f 37/37/37 39/39/39 38/38/38
f 38/38/38 39/39/39 40/40/40
f 39/39/39 41/41/41 40/40/40
f 40/40/40 41/41/41 42/42/42
f 41/41/41 43/43/43 42/42/42
f 46/46/46 45/45/45 44/44/44
f 45/45/45 47/47/47 44/44/44
f 44/44/44 47/47/47 48/48/48
f 47/47/47 49/49/49 48/48/48
f 48/48/48 49/49/49 50/50/50
f 49/49/49 51/51/51 50/50/50
f 50/50/50 51/51/51 52/52/52
f 51/51/51 53/53/53 52/52/52
f 56/56/56 55/55/55 54/54/54
f 55/55/55 57/57/57 54/54/54
f 54/54/54 57/57/57 58/58/58
f 57/57/57 59/59/59 58/58/58
f 58/58/58 59/59/59 60/60/60
f 59/59/59 61/61/61 60/60/60
f 60/60/60 61/61/61 62/62/62
f 61/61/61 63/63/63 62/62/62
f 66/66/66 65/65/65 64/64/64
f 67/67/67 66/66/66 64/64/64
f 67/67/67 64/64/64 68/68/68
f 69/69/69 67/67/67 68/68/68
f 69/69/69 68/68/68 70/70/70
f 71/71/71 69/69/69 70/70/70
f 71/71/71 70/70/70 72/72/72
f 73/73/73 71/71/71 72/72/72
f 76/76/76 75/75/75 74/74/74
f 77/77/77 76/76/76 74/74/74
f 77/77/77 74/74/74 78/78/78
f 79/79/79 77/77/77 78/78/78
f 79/79/79 78/78/78 80/80/80
f 81/81/81 79/79/79 80/80/80
f 81/81/81 80/80/80 82/82/82
f 83/83/83 81/81/81 82/82/82
f 86/86/86 85/85/85 84/84/84
f 87/87/87 86/86/86 84/84/84
f 87/87/87 84/84/84 88/88/88
f 89/89/89 87/87/87 88/88/88
f 89/89/89 88/88/88 90/90/90
f 91/91/91 89/89/89 90/90/90
f 91/91/91 90/90/90 92/92/92
f 93/93/93 91/91/91 92/92/92
f 96/96/96 95/95/95 94/94/94
f 97/97/97 96/96/96 94/94/94
f 100/100/100 99/99/99 98/98/98
f 101/101/101 100/100/100 98/98/98
f 104/104/104 103/103/103 102/102/102
f 105/105/105 104/104/104 102/102/102
f 108/108/108 107/107/107 106/106/106
f 109/109/109 108/108/108 106/106/106
f 112/112/112 111/111/111 110/110/110
f 113/113/113 112/112/112 110/110/110
f 116/116/116 115/115/115 114/114/114
f 117/117/117 116/116/116 114/114/114
f 120/120/120 119/119/119 118/118/118
f 121/121/121 120/120/120 118/118/118
f 124/124/124 123/123/123 122/122/122
f 123/123/123 125/125/125 122/122/122
f 123/123/123 126/126/126 125/125/125
f 126/126/126 127/127/127 125/125/125
f 130/130/130 129/129/129 128/128/128
f 131/131/131 130/130/130 128/128/128
f 134/134/134 133/133/133 132/132/132
f 133/133/133 135/135/135 132/132/132
f 133/133/133 136/136/136 135/135/135
f 136/136/136 137/137/137 135/135/135
