g febg_laboratory_001_stair_01
v 0.88799226 0.12410474 -1.0320609
v 0.7522912 1.21169 0.1571393
v 0.7522912 0.12410474 -1.0320609
v 0.88799 1.21169 0.1571393
v 0.88799226 0.12410474 -0.83205605
v 0.88799 1.0061779 0.1571393
v 0.7522912 1.2498965 0.24733174
v 0.88799 1.0346842 0.24733174
v 0.88799 1.2498965 0.24733174
v 0.7522912 1.2498965 1.1265607
v 0.88799 1.2498965 1.1265607
v 0.88799 1.034682 1.1265607
v 0.96225214 0.092538714 -0.737553
v 0.96225214 5.9604645E-07 -0.737553
v 0.67718595 5.9604645E-07 -0.737553
v 0.67718595 0.092538714 -0.737553
v 0.7522912 0.12410474 -0.83205605
v 0.67718595 0.092538714 -1.1265616
v 0.88799226 0.12410474 -0.83205605
v 0.7522912 0.12410474 -1.0320609
v 0.96225214 0.092538714 -1.1265616
v 0.88799226 0.12410474 -1.0320609
v 0.96225214 5.9604645E-07 -0.737553
v 0.96225214 5.9604645E-07 -1.1265616
v 0.96225214 5.9604645E-07 -1.1265616
v 0.67718595 5.9604645E-07 -1.1265616
v 0.76460433 0.7491286 0.42992175
v 0.76460207 0.8854847 -0.051835775
v 0.76460207 0.74913085 -0.051835775
v 0.76460207 0.8854847 0.42992175
v -0.7633772 0.8854847 -0.051835775
v 0.76460207 0.74913085 -0.051835775
v -0.7633772 0.74913085 -0.051835775
v -0.7633772 0.8854847 0.42991948
v -0.7633772 0.74913085 0.42992175
v -0.7633772 0.74913085 -0.051835775
v 0.76460433 1.0560243 0.21801174
v -0.7633772 1.1923804 0.21801174
v -0.7633772 1.0560243 0.21801174
v 0.76460433 1.1923804 0.21801174
v 0.76460433 1.1923804 0.9437053
v -0.7633772 1.1923804 0.9437053
v -0.75165784 0.12410474 -1.0320609
v -0.88729787 1.21169 0.1571393
v -0.88729787 0.12410474 -1.0320609
v -0.75165784 1.21169 0.1571393
v -0.75165784 0.12410474 -0.83205605
v -0.75165784 1.0061779 0.1571393
v -0.88729787 1.2498965 0.24733174
v -0.75165784 1.0346842 0.24733174
v -0.75165784 1.2498965 0.24733174
v -0.88729787 1.2498965 1.1265607
v -0.75165784 1.2498965 1.1265607
v -0.75165784 1.034682 1.1265607
v -0.67739797 0.092538714 -0.737553
v -0.67739797 5.9604645E-07 -0.737553
v -0.9624641 5.9604645E-07 -0.737553
v -0.9624641 0.092538714 -0.737553
v -0.88729787 0.12410474 -0.83205605
v -0.9624641 0.092538714 -1.1265616
v -0.75165784 0.12410474 -0.83205605
v -0.88729787 0.12410474 -1.0320609
v -0.67739797 0.092538714 -1.1265616
v -0.75165784 0.12410474 -1.0320609
v -0.67739797 5.9604645E-07 -0.737553
v -0.67739797 5.9604645E-07 -1.1265616
v -0.67739797 5.9604645E-07 -1.1265616
v -0.9624641 5.9604645E-07 -1.1265616
v 0.7522912 1.2498965 1.1265607
v 0.7522481 1.034682 1.1265607
v 0.7522481 1.0346842 0.24733174
v 0.7522912 1.2498965 0.24733174
v 0.7522912 1.21169 0.1571393
v 0.7522481 1.0061779 0.1571393
v 0.7522912 0.12410474 -0.83205605
v 0.7522912 0.12410474 -1.0320609
v -0.88729787 1.2498965 1.1265607
v -0.88727736 1.034682 1.1265607
v -0.88727736 1.0346842 0.24733174
v -0.88729787 1.2498965 0.24733174
v -0.88729787 1.21169 0.1571393
v -0.88727736 1.0061779 0.1571393
v -0.88729787 0.12410474 -0.83205605
v -0.88729787 0.12410474 -1.0320609
v 0.67718595 0.092538714 -1.1265616
v 0.67718595 0.092538714 -0.737553
v 0.67718595 5.9604645E-07 -0.737553
v 0.67718595 5.9604645E-07 -1.1265616
v -0.9624641 0.092538714 -1.1265616
v -0.9624641 0.092538714 -0.737553
v -0.9624641 5.9604645E-07 -0.737553
v -0.9624641 5.9604645E-07 -1.1265616
v 0.76460433 0.46226513 0.11754358
v 0.76460207 0.59862125 -0.36421394
v 0.76460207 0.46226513 -0.36421394
v 0.76460207 0.59862125 0.11754358
v -0.7633772 0.59862125 -0.36421394
v 0.76460207 0.46226513 -0.36421394
v -0.7633772 0.46226513 -0.36421394
v -0.7633772 0.59862125 0.11754358
v -0.7633772 0.46226513 0.11754358
v -0.7633772 0.46226513 -0.36421394
v 0.76460433 0.192855 -0.21131337
v 0.76460207 0.32921112 -0.69307095
v 0.76460207 0.192855 -0.69307095
v 0.76460207 0.32921112 -0.21131563
v -0.7633772 0.32921112 -0.69307095
v 0.76460207 0.192855 -0.69307095
v -0.7633772 0.192855 -0.69307095
v -0.7633772 0.32921112 -0.21131563
v -0.7633772 0.192855 -0.21131337
v -0.7633772 0.192855 -0.69307095
vt 0.6534389 0.8281947
vt 0.52564716 0.8373724
vt 0.6534389 0.8373724
vt 0.5245265 0.8281947
vt 0.641838 0.8154276
vt 0.52628326 0.8154276
vt 0.51786274 0.8373724
vt 0.51871085 0.8154276
vt 0.51719636 0.8281947
vt 0.4481513 0.8373724
vt 0.4481513 0.8281947
vt 0.4481513 0.8154276
vt 0.6232099 0.61892396
vt 0.61584955 0.61892396
vt 0.61584955 0.64121705
vt 0.6232099 0.64121705
vt 0.630752 0.6352349
vt 0.65372664 0.64121705
vt 0.630752 0.6245578
vt 0.64618456 0.6352349
vt 0.65372664 0.61892396
vt 0.64618456 0.6245578
vt 0.6232099 0.61156356
vt 0.65372664 0.61156356
vt 0.66108704 0.61892396
vt 0.66108704 0.64121705
vt 0.0054538846 0.31234795
vt 0.013919823 0.27356213
vt 0.0054538846 0.27356213
vt 0.013919823 0.31234795
vt 0.118661195 0.27356213
vt 0.013919823 0.26514164
vt 0.118661195 0.26514164
vt 0.118661195 0.31234795
vt 0.12774807 0.31234795
vt 0.12774807 0.27356213
vt 0.013223162 0.31645218
vt 0.10315293 0.32514527
vt 0.10315293 0.31645218
vt 0.013223162 0.32514527
vt 0.013223162 0.37118545
vt 0.10315293 0.37118545
vt 0.6534389 0.8281947
vt 0.52564716 0.8373724
vt 0.6534389 0.8373724
vt 0.5245265 0.8281947
vt 0.641838 0.8154276
vt 0.52628326 0.8154276
vt 0.51786274 0.8373724
vt 0.51871085 0.8154276
vt 0.51719636 0.8281947
vt 0.4481513 0.8373724
vt 0.4481513 0.8281947
vt 0.4481513 0.8154276
vt 0.6232099 0.61892396
vt 0.61584955 0.61892396
vt 0.61584955 0.64121705
vt 0.6232099 0.64121705
vt 0.630752 0.6352349
vt 0.65372664 0.64121705
vt 0.630752 0.6245578
vt 0.64618456 0.6352349
vt 0.65372664 0.61892396
vt 0.64618456 0.6245578
vt 0.6232099 0.61156356
vt 0.65372664 0.61156356
vt 0.66108704 0.61892396
vt 0.66108704 0.64121705
vt 0.4481513 0.8281947
vt 0.4481513 0.8154276
vt 0.51871085 0.8154276
vt 0.51719636 0.8281947
vt 0.5245265 0.8281947
vt 0.52628326 0.8154276
vt 0.641838 0.8154276
vt 0.6534389 0.8281947
vt 0.4481513 0.8281947
vt 0.4481513 0.8154276
vt 0.51871085 0.8154276
vt 0.51719636 0.8281947
vt 0.5245265 0.8281947
vt 0.52628326 0.8154276
vt 0.641838 0.8154276
vt 0.6534389 0.8281947
vt 0.65372664 0.61892396
vt 0.6232099 0.61892396
vt 0.6232099 0.61156356
vt 0.65372664 0.61156356
vt 0.65372664 0.61892396
vt 0.6232099 0.61892396
vt 0.6232099 0.61156356
vt 0.65372664 0.61156356
vt 0.0054538846 0.31234795
vt 0.013919823 0.27356213
vt 0.0054538846 0.27356213
vt 0.013919823 0.31234795
vt 0.118661195 0.27356213
vt 0.013919823 0.26514164
vt 0.118661195 0.26514164
vt 0.118661195 0.31234795
vt 0.12774807 0.31234795
vt 0.12774807 0.27356213
vt 0.0054538846 0.31234795
vt 0.013919823 0.27356213
vt 0.0054538846 0.27356213
vt 0.013919823 0.31234795
vt 0.118661195 0.27356213
vt 0.013919823 0.26514164
vt 0.118661195 0.26514164
vt 0.118661195 0.31234795
vt 0.12774807 0.31234795
vt 0.12774807 0.27356213
vn 0.28054726 0.9139781 -0.2931507
vn -0.67155397 0.6246331 -0.39855838
vn -0.28054726 0.9139781 -0.2931507
vn 0.67155397 0.6246331 -0.39855838
vn 0.6089929 0.7829908 0.12670076
vn 0.9999995 0.0009775162 -0
vn -0.6656889 0.73216 -0.14422224
vn 0.9999995 0.0009775162 -0
vn 0.6656889 0.73216 -0.14422224
vn -0.70674455 0.70674455 -0.03200431
vn 0.70674455 0.70674455 -0.03200431
vn 0.9999995 0.0009775162 -0
vn 0.60703784 0.50342107 0.61487585
vn 0.70674455 0.0009775162 0.70746815
vn -0.70674455 0.0009775162 0.70746815
vn -0.6070378 0.5053761 0.61327004
vn -0.6070378 0.78494585 0.12395614
vn -0.6070378 0.5053761 -0.61327004
vn 0.6089929 0.7829908 0.12670076
vn -0.28054726 0.9139781 -0.2931507
vn 0.60703784 0.50342107 -0.61487585
vn 0.28054726 0.9139781 -0.2931507
vn 0.70674455 0.0009775162 0.70746815
vn 0.70674455 0.0009775162 -0.70746815
vn 0.70674455 0.0009775162 -0.70746815
vn -0.70674455 0.0009775162 -0.70746815
vn 0.9999995 0.0009775162 -0
vn 0.5777123 0.5777123 -0.5766255
vn 0.70674455 0.0009775162 -0.70746815
vn 0.70674455 0.70674455 -0.03200431
vn -0.5777123 0.5777123 -0.5766255
vn 0.70674455 0.0009775162 -0.70746815
vn -0.70674455 0.0009775162 -0.70746815
vn -0.70674455 0.70674455 -0.03200431
vn -0.9999995 0.0009775162 -0
vn -0.70674455 0.0009775162 -0.70746815
vn -0.0009775162 0.0009775162 -0.99999905
vn -0.0009775162 0.70674455 -0.70746815
vn -0.0009775162 0.0009775162 -0.99999905
vn -0.0009775162 0.70674455 -0.70746815
vn -0.0009775162 0.9999995 -0
vn -0.0009775162 0.9999995 -0
vn 0.28054726 0.9139781 -0.2931507
vn -0.67155397 0.6246331 -0.39855838
vn -0.27859223 0.9139781 -0.29500917
vn 0.67155397 0.6246331 -0.39855838
vn 0.6089929 0.7829908 0.12670076
vn 0.9999995 0.0009775162 -0
vn -0.6656889 0.73216 -0.14422224
vn 0.9999995 0.0009775162 -0
vn 0.6656889 0.73216 -0.14422224
vn -0.70674455 0.70674455 -0.03200431
vn 0.70674455 0.70674455 -0.03200431
vn 0.9999995 0.0009775162 -0
vn 0.60703784 0.50342107 0.61487585
vn 0.70674455 0.0009775162 0.70746815
vn -0.70674455 0.0009775162 0.70746815
vn -0.6070378 0.5053761 0.61327004
vn -0.6070378 0.78494585 0.12395614
vn -0.6070378 0.5053761 -0.61327004
vn 0.6089929 0.7829908 0.12670076
vn -0.27859223 0.9139781 -0.29500917
vn 0.60703784 0.50342107 -0.61487585
vn 0.28054726 0.9139781 -0.2931507
vn 0.70674455 0.0009775162 0.70746815
vn 0.70674455 0.0009775162 -0.70746815
vn 0.70674455 0.0009775162 -0.70746815
vn -0.70674455 0.0009775162 -0.70746815
vn -0.70674455 0.70674455 -0.03200431
vn -0.9999995 0.0009775162 -0
vn -0.9999995 0.0009775162 -0
vn -0.6656889 0.73216 -0.14422224
vn -0.67155397 0.6246331 -0.39855838
vn -0.9999995 0.0009775162 -0
vn -0.6070378 0.78494585 0.12395614
vn -0.28054726 0.9139781 -0.2931507
vn -0.70674455 0.70674455 -0.03200431
vn -0.9999995 -0.0009775162 -0
vn -0.9999995 -0.0009775162 -0
vn -0.6656889 0.73216 -0.14422224
vn -0.67155397 0.6246331 -0.39855838
vn -0.9999995 -0.0009775162 -0
vn -0.6070378 0.78494585 0.12395614
vn -0.27859223 0.9139781 -0.29500917
vn -0.6070378 0.5053761 -0.61327004
vn -0.6070378 0.5053761 0.61327004
vn -0.70674455 0.0009775162 0.70746815
vn -0.70674455 0.0009775162 -0.70746815
vn -0.6070378 0.5053761 -0.61327004
vn -0.6070378 0.5053761 0.61327004
vn -0.70674455 0.0009775162 0.70746815
vn -0.70674455 0.0009775162 -0.70746815
vn 0.9999995 0.0009775162 -0
vn 0.5777123 0.5777123 -0.5766255
vn 0.70674455 0.0009775162 -0.70746815
vn 0.70674455 0.70674455 -0.03200431
vn -0.5777123 0.5777123 -0.5766255
vn 0.70674455 0.0009775162 -0.70746815
vn -0.70674455 0.0009775162 -0.70746815
vn -0.70674455 0.70674455 -0.03200431
vn -0.9999995 0.0009775162 -0
vn -0.70674455 0.0009775162 -0.70746815
vn 0.9999995 0.0009775162 -0
vn 0.5777123 0.5777123 -0.5766255
vn 0.70674455 0.0009775162 -0.70746815
vn 0.70674455 0.70674455 -0.03200431
vn -0.5777123 0.5777123 -0.5766255
vn 0.70674455 0.0009775162 -0.70746815
vn -0.70674455 0.0009775162 -0.70746815
vn -0.70674455 0.70674455 -0.03200431
vn -0.9999995 0.0009775162 -0
vn -0.70674455 0.0009775162 -0.70746815
g febg_laboratory_001_stair_01_0
f 3/3/3 2/2/2 1/1/1
f 2/2/2 4/4/4 1/1/1
f 5/5/5 1/1/1 4/4/4
f 6/6/6 5/5/5 4/4/4
f 2/2/2 7/7/7 4/4/4
f 6/6/6 4/4/4 8/8/8
f 7/7/7 9/9/9 4/4/4
f 4/4/4 9/9/9 8/8/8
f 9/9/9 7/7/7 10/10/10
f 11/11/11 9/9/9 10/10/10
f 8/8/8 9/9/9 11/11/11
f 12/12/12 8/8/8 11/11/11
f 15/15/15 14/14/14 13/13/13
f 16/16/16 15/15/15 13/13/13
f 16/16/16 13/13/13 17/17/17
f 16/16/16 17/17/17 18/18/18
f 13/13/13 19/19/19 17/17/17
f 17/17/17 20/20/20 18/18/18
f 13/13/13 21/21/21 19/19/19
f 18/18/18 20/20/20 21/21/21
f 21/21/21 22/22/22 19/19/19
f 20/20/20 22/22/22 21/21/21
f 13/13/13 23/23/23 21/21/21
f 23/23/23 24/24/24 21/21/21
f 21/21/21 25/25/25 18/18/18
f 25/25/25 26/26/26 18/18/18
f 29/29/29 28/28/28 27/27/27
f 28/28/28 30/30/30 27/27/27
f 30/30/30 28/28/28 31/31/31
f 31/31/31 28/28/28 32/32/32
f 33/33/33 31/31/31 32/32/32
f 34/34/34 30/30/30 31/31/31
f 34/34/34 31/31/31 35/35/35
f 31/31/31 36/36/36 35/35/35
f 39/39/39 38/38/38 37/37/37
f 38/38/38 40/40/40 37/37/37
f 41/41/41 40/40/40 38/38/38
f 42/42/42 41/41/41 38/38/38
f 45/45/45 44/44/44 43/43/43
f 44/44/44 46/46/46 43/43/43
f 47/47/47 43/43/43 46/46/46
f 48/48/48 47/47/47 46/46/46
f 44/44/44 49/49/49 46/46/46
f 48/48/48 46/46/46 50/50/50
f 49/49/49 51/51/51 46/46/46
f 46/46/46 51/51/51 50/50/50
f 51/51/51 49/49/49 52/52/52
f 53/53/53 51/51/51 52/52/52
f 50/50/50 51/51/51 53/53/53
f 54/54/54 50/50/50 53/53/53
f 57/57/57 56/56/56 55/55/55
f 58/58/58 57/57/57 55/55/55
f 58/58/58 55/55/55 59/59/59
f 58/58/58 59/59/59 60/60/60
f 55/55/55 61/61/61 59/59/59
f 59/59/59 62/62/62 60/60/60
f 55/55/55 63/63/63 61/61/61
f 60/60/60 62/62/62 63/63/63
f 63/63/63 64/64/64 61/61/61
f 62/62/62 64/64/64 63/63/63
f 55/55/55 65/65/65 63/63/63
f 65/65/65 66/66/66 63/63/63
f 63/63/63 67/67/67 60/60/60
f 67/67/67 68/68/68 60/60/60
f 71/71/71 70/70/70 69/69/69
f 72/72/72 71/71/71 69/69/69
f 72/72/72 73/73/73 71/71/71
f 73/73/73 74/74/74 71/71/71
f 74/74/74 73/73/73 75/75/75
f 73/73/73 76/76/76 75/75/75
f 79/79/79 78/78/78 77/77/77
f 80/80/80 79/79/79 77/77/77
f 80/80/80 81/81/81 79/79/79
f 81/81/81 82/82/82 79/79/79
f 82/82/82 81/81/81 83/83/83
f 81/81/81 84/84/84 83/83/83
f 87/87/87 86/86/86 85/85/85
f 88/88/88 87/87/87 85/85/85
f 91/91/91 90/90/90 89/89/89
f 92/92/92 91/91/91 89/89/89
f 95/95/95 94/94/94 93/93/93
f 94/94/94 96/96/96 93/93/93
f 96/96/96 94/94/94 97/97/97
f 97/97/97 94/94/94 98/98/98
f 99/99/99 97/97/97 98/98/98
f 100/100/100 96/96/96 97/97/97
f 100/100/100 97/97/97 101/101/101
f 97/97/97 102/102/102 101/101/101
f 105/105/105 104/104/104 103/103/103
f 104/104/104 106/106/106 103/103/103
f 106/106/106 104/104/104 107/107/107
f 107/107/107 104/104/104 108/108/108
f 109/109/109 107/107/107 108/108/108
f 110/110/110 106/106/106 107/107/107
f 110/110/110 107/107/107 111/111/111
f 107/107/107 112/112/112 111/111/111
