g febg_laboratory_001_plate_01
v -0.39271757 -4.7683716E-07 -0.28532606
v -0.48542556 0.057243675 -4.7683716E-07
v -0.48542556 -4.7683716E-07 -4.7683716E-07
v -0.39271757 -4.7683716E-07 0.28532603
v -0.39271757 0.057243675 -0.28532606
v -0.15000454 4.4703484E-07 -0.46166763
v -0.39271757 0.057243675 0.28532603
v -0.15000454 -4.7683716E-07 0.46166757
v -0.15000454 0.057243675 -0.46166763
v 0.15000457 4.4703484E-07 -0.46166763
v -0.2306706 0.019406825 -4.7683716E-07
v -0.15000454 0.057243675 0.46166757
v 0.15000457 4.4703484E-07 0.46166757
v 0.15000457 0.057243675 -0.46166763
v 0.3927176 4.4703484E-07 -0.28532606
v -0.18661645 0.019406825 -0.13558495
v -0.18661645 0.019406825 0.13558492
v 0.15000457 0.057243675 0.46166757
v 0.3927176 4.4703484E-07 0.28532603
v 0.3927176 0.057243675 -0.28532606
v 0.48542562 4.4703484E-07 4.4703484E-07
v -0.07128093 0.019406825 -0.2193805
v 0.071280956 0.019406825 -0.2193805
v 0.23067063 0.019406825 4.4703484E-07
v 0.18661651 0.019406825 -0.13558495
v 0.48542562 0.057243675 4.4703484E-07
v 0.3927176 0.057243675 0.28532603
v 0.18661651 0.019406825 0.13558492
v 0.071280956 0.019406825 0.21938047
v -0.07128093 0.019406825 0.21938047
vt 0.9684351 0.13315801
vt 0.9925042 0.12909693
vt 0.9925042 0.12512508
vt 0.9684351 0.13315801
vt 0.97080034 0.13635632
vt 0.95379734 0.1538354
vt 0.97080034 0.13635632
vt 0.9538122 0.1538354
vt 0.9576204 0.15505521
vt 0.95379734 0.17915404
vt 0.9925042 0.14870325
vt 0.9576204 0.15505521
vt 0.9538122 0.17915404
vt 0.9576204 0.17793423
vt 0.9684351 0.19983143
vt 0.9825374 0.1521098
vt 0.9825374 0.1521098
vt 0.9576204 0.17793423
vt 0.9684351 0.19983143
vt 0.97080034 0.19661824
vt 0.9925042 0.20784949
vt 0.9763788 0.16102041
vt 0.9763788 0.17195414
vt 0.9925042 0.18427132
vt 0.9825374 0.18086475
vt 0.9925042 0.20389251
vt 0.97080034 0.19661824
vt 0.9825374 0.18086475
vt 0.9763788 0.17195414
vt 0.9763788 0.16102041
vn -0.80840623 0.0009775162 -0.5886242
vn -0.72433984 0.68914926 -0.02012643
vn -0.9999995 0.0009775162 -0
vn -0.80840623 0.0009775162 0.5886242
vn -0.5855324 0.68914926 -0.42687833
vn -0.30987275 0.0009775162 -0.95077753
vn -0.5855324 0.68914926 0.42687833
vn -0.30987275 0.0009775162 0.95077753
vn -0.22385132 0.68914926 -0.68917626
vn 0.30987275 0.0009775162 -0.95077753
vn 0.08894927 0.9960362 -0
vn -0.22385132 0.68914926 0.68917626
vn 0.30987275 0.0009775162 0.95077753
vn 0.22385132 0.68914926 -0.68917626
vn 0.80840623 0.0009775162 -0.5886242
vn 0.07135874 0.99608946 0.052092995
vn 0.07135874 0.99608946 -0.052092995
vn 0.22385132 0.68914926 0.68917626
vn 0.80840623 0.0009775162 0.5886242
vn 0.5855324 0.68914926 -0.42687833
vn 0.9999995 0.0009775162 -0
vn 0.026392937 0.99608946 0.084315866
vn -0.026392937 0.99608946 0.084315866
vn -0.08894921 0.9960362 -0
vn -0.07135868 0.99608946 0.052092995
vn 0.72433984 0.68914926 -0.02012643
vn 0.5855324 0.68914926 0.42687833
vn -0.07135868 0.99608946 -0.052092995
vn -0.026392937 0.99608946 -0.084315866
vn 0.026392937 0.99608946 -0.084315866
g febg_laboratory_001_plate_01_0
f 3/3/3 2/2/2 1/1/1
f 2/2/2 3/3/3 4/4/4
f 2/2/2 5/5/5 1/1/1
f 1/1/1 5/5/5 6/6/6
f 7/7/7 2/2/2 4/4/4
f 7/7/7 4/4/4 8/8/8
f 5/5/5 9/9/9 6/6/6
f 6/6/6 9/9/9 10/10/10
f 2/2/2 11/11/11 5/5/5
f 11/11/11 2/2/2 7/7/7
f 12/12/12 7/7/7 8/8/8
f 12/12/12 8/8/8 13/13/13
f 9/9/9 14/14/14 10/10/10
f 10/10/10 14/14/14 15/15/15
f 5/5/5 16/16/16 9/9/9
f 11/11/11 16/16/16 5/5/5
f 17/17/17 11/11/11 7/7/7
f 17/17/17 7/7/7 12/12/12
f 18/18/18 12/12/12 13/13/13
f 18/18/18 13/13/13 19/19/19
f 14/14/14 20/20/20 15/15/15
f 15/15/15 20/20/20 21/21/21
f 9/9/9 22/22/22 14/14/14
f 16/16/16 22/22/22 9/9/9
f 22/22/22 23/23/23 14/14/14
f 14/14/14 23/23/23 20/20/20
f 22/22/22 16/16/16 23/23/23
f 11/11/11 24/24/24 16/16/16
f 24/24/24 11/11/11 17/17/17
f 16/16/16 25/25/25 23/23/23
f 23/23/23 25/25/25 20/20/20
f 24/24/24 25/25/25 16/16/16
f 20/20/20 25/25/25 26/26/26
f 20/20/20 26/26/26 21/21/21
f 25/25/25 24/24/24 26/26/26
f 27/27/27 19/19/19 21/21/21
f 26/26/26 27/27/27 21/21/21
f 27/27/27 18/18/18 19/19/19
f 24/24/24 28/28/28 26/26/26
f 28/28/28 24/24/24 17/17/17
f 28/28/28 27/27/27 26/26/26
f 29/29/29 18/18/18 27/27/27
f 28/28/28 29/29/29 27/27/27
f 28/28/28 17/17/17 30/30/30
f 29/29/29 28/28/28 30/30/30
f 29/29/29 30/30/30 18/18/18
f 30/30/30 17/17/17 12/12/12
f 30/30/30 12/12/12 18/18/18
