g febg_coinrush_001_clothes_05
v 0.10819361 -0.038777873 -0.1172622
v 0.034116596 -0.033270746 0.07436977
v 0.03294249 4.9948692E-05 0.072872594
v 0.10745361 0.006762728 -0.12878165
v 0.003980756 -0.011744246 -0.20937856
v 0.004015103 -0.0484491 -0.20131914
v 0.0039779544 0.0075558573 -0.13090822
v 0.0040442497 -0.00083501637 0.07531385
v -0.10819207 0.0025726855 -0.1314677
v -0.10745166 -0.042968333 -0.119948275
v -0.020969033 -0.008050591 0.07558183
v -0.019795328 -0.041371703 0.077078626
v 0.041965142 -0.019888312 0.0640652
v 0.04159893 -0.03639531 0.07478471
v 0.067320675 -0.04839678 0.15351625
v 0.067320675 -0.0116595775 0.14503552
v 0.037103772 0.0077802986 0.057677492
v 0.05565828 -0.021049649 0.1993344
v 0.05748254 0.04163055 0.13273253
v 0.0040374696 0.048449144 0.13115828
v 0.0040382594 0.0115633905 0.0615225
v -0.028050423 0.0077802986 0.057677492
v 0.059069976 -0.0020842105 0.19489716
v 0.04360211 0.001100257 0.20768894
v 0.041644067 -0.018730983 0.20937662
v 0.004036665 -0.0019204766 0.19460122
v 0.004036665 -0.021030486 0.19941346
v -0.03430155 -0.018916681 0.2085755
v 0.051804885 0.035330698 0.18637209
v 0.039598554 0.035548344 0.1938241
v -0.03726518 0.0006709546 0.20582394
v -0.04670076 -0.021049649 0.1993344
v 0.004036665 0.033381432 0.18726943
v -0.031203747 0.035621822 0.1941336
v -0.05011247 -0.0020842105 0.19489716
v -0.048481897 0.041630134 0.13273253
v -0.04284577 0.0353311 0.18637209
v -0.058316454 -0.0116595775 0.14503552
v -0.058316067 -0.04839678 0.15351625
v -0.032909796 -0.019888312 0.064064786
v -0.033276007 -0.03639531 0.07478432
vt 0.007735924 0.38858464
vt 0.01710328 0.4220718
vt 0.02265431 0.42095557
vt 0.012713747 0.38964054
vt 0.02779806 0.37770885
vt 0.02779806 0.37365118
vt 0.02779806 0.3895953
vt 0.02779806 0.42192098
vt 0.044466227 0.38879582
vt 0.049097106 0.38770974
vt 0.033334002 0.4213176
vt 0.038794525 0.42270535
vt 0.019124579 0.4271703
vt 0.017088197 0.4284223
vt 0.015051816 0.43750307
vt 0.018596629 0.43644717
vt 0.023016332 0.42628035
vt 0.01933576 0.442858
vt 0.023333102 0.4346974
vt 0.027767891 0.4340035
vt 0.027979072 0.42597866
vt 0.032911643 0.4265066
vt 0.020798938 0.44181716
vt 0.02283532 0.4433407
vt 0.022141442 0.4449698
vt 0.027601963 0.44403458
vt 0.027571796 0.44601062
vt 0.033168077 0.4451357
vt 0.023815801 0.43976572
vt 0.024434257 0.44036907
vt 0.03259487 0.4434312
vt 0.035868168 0.4432351
vt 0.027647216 0.44018808
vt 0.030905427 0.44051993
vt 0.034404986 0.44214904
vt 0.032187596 0.43490857
vt 0.031493716 0.4399467
vt 0.03684865 0.43685445
vt 0.04034821 0.43806118
vt 0.03674306 0.42757758
vt 0.038719103 0.42893517
vn 0.98112893 -0.043807387 -0.18832661
vn 0.9323101 0.08116877 0.35243368
vn 0.561287 0.79197097 0.2402892
vn 0.7604678 0.5791209 -0.29378167
vn 0.01842159 0.39165664 -0.919927
vn 0.024279833 -0.23127168 -0.9725862
vn -0.030397296 0.99505734 -0.09453508
vn -0.046019316 0.9970101 0.062073205
vn -0.79197097 0.5381131 -0.28847232
vn -0.9813881 -0.08090967 -0.17415804
vn -0.6220815 0.7275301 0.28933457
vn -0.91694725 0.04406655 0.39656764
vn 0.95183766 0.016727924 -0.30614576
vn 0.94597936 -0.11605924 -0.30274296
vn 0.9987037 -0.032090843 -0.03951041
vn 0.99675095 0.047971964 -0.064701155
vn 0.6511136 0.6006012 -0.46403584
vn 0.8561527 -0.014516056 0.51651895
vn 0.6706412 0.7236246 -0.1631192
vn -0.0011059642 0.98919904 -0.14657427
vn -0.0011059642 0.89351416 -0.44903362
vn -0.65332556 0.6006012 -0.4609164
vn 0.86786926 0.11241293 0.48390728
vn 0.20393312 0.2256726 0.95261914
vn 0.1629253 0.12217665 0.97904456
vn -0.016727924 0.22762537 0.9736051
vn -0.02063346 0.19638121 0.9803105
vn -0.17490101 0.14365697 0.97404945
vn 0.64916086 0.6630893 0.3726966
vn 0.12972856 0.71581364 0.68613505
vn -0.24324739 0.22176707 0.9442722
vn -0.86031735 -0.014516056 0.5095521
vn -0.0050114393 0.7294829 0.68398076
vn -0.1358459 0.7021444 0.6989557
vn -0.87203383 0.11046016 0.4768181
vn -0.6728531 0.72167194 -0.16266015
vn -0.65332556 0.6630893 0.36534685
vn -0.9970101 0.0518775 -0.05726745
vn -0.9989629 -0.0262326 -0.037215848
vn -0.9520968 0.022586226 -0.30496147
vn -0.9481913 -0.10238999 -0.3007484
g febg_coinrush_001_clothes_05_0
f 3/3/3 2/2/2 1/1/1
f 4/4/4 3/3/3 1/1/1
f 5/5/5 4/4/4 1/1/1
f 6/6/6 5/5/5 1/1/1
f 4/4/4 7/7/7 3/3/3
f 4/4/4 5/5/5 7/7/7
f 7/7/7 8/8/8 3/3/3
f 5/5/5 6/6/6 9/9/9
f 5/5/5 9/9/9 7/7/7
f 7/7/7 9/9/9 8/8/8
f 6/6/6 10/10/10 9/9/9
f 9/9/9 11/11/11 8/8/8
f 9/9/9 10/10/10 12/12/12
f 11/11/11 9/9/9 12/12/12
f 15/15/15 14/14/14 13/13/13
f 16/16/16 15/15/15 13/13/13
f 13/13/13 17/17/17 16/16/16
f 16/16/16 18/18/18 15/15/15
f 17/17/17 19/19/19 16/16/16
f 20/20/20 19/19/19 17/17/17
f 21/21/21 20/20/20 17/17/17
f 20/20/20 21/21/21 22/22/22
f 23/23/23 18/18/18 16/16/16
f 16/16/16 19/19/19 23/23/23
f 23/23/23 24/24/24 18/18/18
f 24/24/24 25/25/25 18/18/18
f 25/25/25 24/24/24 26/26/26
f 27/27/27 25/25/25 26/26/26
f 27/27/27 26/26/26 28/28/28
f 19/19/19 29/29/29 23/23/23
f 23/23/23 29/29/29 24/24/24
f 30/30/30 29/29/29 19/19/19
f 29/29/29 30/30/30 24/24/24
f 20/20/20 30/30/30 19/19/19
f 24/24/24 30/30/30 26/26/26
f 26/26/26 31/31/31 28/28/28
f 32/32/32 28/28/28 31/31/31
f 30/30/30 33/33/33 26/26/26
f 33/33/33 30/30/30 20/20/20
f 26/26/26 33/33/33 34/34/34
f 31/31/31 26/26/26 34/34/34
f 33/33/33 20/20/20 34/34/34
f 35/35/35 32/32/32 31/31/31
f 35/35/35 31/31/31 34/34/34
f 34/34/34 20/20/20 36/36/36
f 36/36/36 20/20/20 22/22/22
f 37/37/37 35/35/35 34/34/34
f 37/37/37 34/34/34 36/36/36
f 35/35/35 37/37/37 36/36/36
f 32/32/32 35/35/35 38/38/38
f 38/38/38 35/35/35 36/36/36
f 38/38/38 36/36/36 22/22/22
f 32/32/32 38/38/38 39/39/39
f 40/40/40 38/38/38 22/22/22
f 41/41/41 39/39/39 38/38/38
f 40/40/40 41/41/41 38/38/38
