g febg_factory_001_garbage_01
v 0.56434983 0.18179446 -0.585433
v 0.5584829 0.22342962 -0.5859943
v 0.49771065 0.20852607 -0.6426027
v 0.5035776 0.16689229 -0.6420414
v 0.5584829 0.22342962 -0.5859943
v -0.60825884 0.04570961 0.46823132
v -0.6865144 0.030501544 0.3409332
v 0.49771065 0.20852607 -0.6426027
v -0.60825884 0.04570961 0.46823132
v -0.60239184 0.004075825 0.46879256
v -0.6806488 -0.011133611 0.34149444
v -0.6865144 0.030501544 0.3409332
v 0.5035776 0.16689229 -0.6420414
v 0.49771065 0.20852607 -0.6426027
v -0.6865144 0.030501544 0.3409332
v -0.6806488 -0.011133611 0.34149444
v -0.60239184 0.004075825 0.46879256
v -0.60825884 0.04570961 0.46823132
v 0.5584829 0.22342962 -0.5859943
v 0.56434983 0.18179446 -0.585433
v 0.054014266 0.016212523 -0.45543635
v 0.054014266 0.05830109 -0.45543635
v -0.345855 0.05830109 -0.3510118
v -0.345855 0.016212523 -0.3510118
v 0.054014266 0.05830109 -0.45543635
v 0.2838646 0.05830109 0.424721
v -0.11740863 0.05830109 0.52376485
v -0.345855 0.05830109 -0.3510118
v 0.2838646 0.05830109 0.424721
v 0.2838646 0.016212523 0.424721
v -0.11740863 0.016212523 0.52376485
v -0.11740863 0.05830109 0.52376485
v -0.345855 0.016212523 -0.3510118
v -0.345855 0.05830109 -0.3510118
v -0.11740863 0.05830109 0.52376485
v -0.11740863 0.016212523 0.52376485
v 0.2838646 0.016212523 0.424721
v 0.2838646 0.05830109 0.424721
v 0.054014266 0.05830109 -0.45543635
v 0.054014266 0.016212523 -0.45543635
v 0.68532765 0.07486665 -0.6333011
v 0.6865185 0.1165933 -0.62892413
v 0.5554279 0.13130432 -0.71162635
v 0.55423707 0.089578986 -0.7160033
v 0.6865185 0.1165933 -0.62892413
v -0.112159014 -0.061774015 0.7160033
v -0.22007006 -0.046242237 0.6451373
v 0.5554279 0.13130432 -0.71162635
v -0.112159014 -0.061774015 0.7160033
v -0.113349855 -0.103500664 0.7116263
v -0.22126228 -0.087967515 0.6407604
v -0.22007006 -0.046242237 0.6451373
v 0.55423707 0.089578986 -0.7160033
v 0.5554279 0.13130432 -0.71162635
v -0.22007006 -0.046242237 0.6451373
v -0.22126228 -0.087967515 0.6407604
v -0.113349855 -0.103500664 0.7116263
v -0.112159014 -0.061774015 0.7160033
v 0.6865185 0.1165933 -0.62892413
v 0.68532765 0.07486665 -0.6333011
vt 0.994713 0.45860493
vt 0.991771 0.45851347
vt 0.991771 0.46448904
vt 0.994713 0.4645805
vt 0.991771 0.45851347
vt 0.87965304 0.45387936
vt 0.87965304 0.46455002
vt 0.991771 0.46448904
vt 0.87965304 0.45387936
vt 0.8766805 0.45378792
vt 0.8766805 0.4644433
vt 0.87965304 0.46455002
vt 0.991771 0.4675073
vt 0.991771 0.46448904
vt 0.87965304 0.46455002
vt 0.87965304 0.46755302
vt 0.87965304 0.45087636
vt 0.87965304 0.45387936
vt 0.991771 0.45851347
vt 0.991771 0.45551047
vt 0.86951596 0.4469587
vt 0.86951596 0.44227886
vt 0.8321077 0.44227886
vt 0.8321077 0.4469587
vt 0.86951596 0.44227886
vt 0.86951596 0.36022165
vt 0.8321077 0.36022165
vt 0.8321077 0.44227886
vt 0.86951596 0.36022165
vt 0.86951596 0.3553589
vt 0.8321077 0.3553589
vt 0.8321077 0.36022165
vt 0.82741266 0.44227886
vt 0.8321077 0.44227886
vt 0.8321077 0.36022165
vt 0.82741266 0.36022165
vt 0.874272 0.36022165
vt 0.86951596 0.36022165
vt 0.86951596 0.44227886
vt 0.874272 0.44227886
vt 0.9961917 0.43450454
vt 0.99326485 0.43467224
vt 0.99326485 0.4452819
vt 0.9961917 0.4451142
vt 0.99326485 0.43467224
vt 0.8859335 0.43554112
vt 0.8859335 0.44439775
vt 0.99326485 0.4452819
vt 0.8859335 0.43554112
vt 0.8831439 0.4356326
vt 0.8831439 0.44447395
vt 0.8859335 0.44439775
vt 0.99326485 0.4481477
vt 0.99326485 0.4452819
vt 0.8859335 0.44439775
vt 0.8859335 0.44726357
vt 0.8859335 0.43269053
vt 0.8859335 0.43554112
vt 0.99326485 0.43467224
vt 0.99326485 0.43182164
vn 0.67155397 0.04594326 -0.7395299
vn 0.67155397 0.04594326 -0.7395299
vn 0.67155397 0.04594326 -0.7395299
vn 0.67155397 0.04594326 -0.7395299
vn -0.0967741 0.9941344 -0.048286177
vn -0.0967741 0.9941344 -0.048286177
vn -0.0967741 0.9941344 -0.048286177
vn -0.0967741 0.9941344 -0.048286177
vn -0.84555185 -0.06549364 0.529861
vn -0.84555185 -0.06549364 0.529861
vn -0.84555185 -0.06549364 0.529861
vn -0.84555185 -0.06549364 0.529861
vn -0.6304983 -0.07135874 -0.7729035
vn -0.6304983 -0.07135874 -0.7729035
vn -0.6304983 -0.07135874 -0.7729035
vn -0.6304983 -0.07135874 -0.7729035
vn 0.6617788 0.075268745 0.7459111
vn 0.6617788 0.075268745 0.7459111
vn 0.6617788 0.075268745 0.7459111
vn 0.6617788 0.075268745 0.7459111
vn -0.0009775162 0.0009775162 -0.99999905
vn -0.0009775162 0.0009775162 -0.99999905
vn -0.0009775162 0.0009775162 -0.99999905
vn -0.0009775162 0.0009775162 -0.99999905
vn -0.0009775162 0.9999995 -0
vn -0.0009775162 0.9999995 -0
vn -0.0009775162 0.9999995 -0
vn -0.0009775162 0.9999995 -0
vn -0.022482872 0.0009775162 0.99974674
vn -0.022482872 0.0009775162 0.99974674
vn -0.022482872 0.0009775162 0.99974674
vn -0.022482872 0.0009775162 0.99974674
vn -0.9999995 0.0009775162 -0
vn -0.9999995 0.0009775162 -0
vn -0.9999995 0.0009775162 -0
vn -0.9999995 0.0009775162 -0
vn 0.9999995 0.0009775162 -0
vn 0.9999995 0.0009775162 -0
vn 0.9999995 0.0009775162 -0
vn 0.9999995 0.0009775162 -0
vn 0.53861165 0.10654926 -0.8357899
vn 0.53861165 0.10654926 -0.8357899
vn 0.53861165 0.10654926 -0.8357899
vn 0.53861165 0.10654926 -0.8357899
vn 0.030303001 0.9882693 0.14968449
vn 0.030303001 0.9882693 0.14968449
vn 0.030303001 0.9882693 0.14968449
vn 0.030303001 0.9882693 0.14968449
vn -0.55620694 -0.10459429 0.8244355
vn -0.55620694 -0.10459429 0.8244355
vn -0.55620694 -0.10459429 0.8244355
vn -0.55620694 -0.10459429 0.8244355
vn -0.86901224 0.11045933 -0.4823033
vn -0.86901224 0.11045933 -0.4823033
vn -0.86901224 0.11045933 -0.4823033
vn -0.86901224 0.11045933 -0.4823033
vn 0.86119217 -0.11241442 0.4956925
vn 0.86119217 -0.11241442 0.4956925
vn 0.86119217 -0.11241442 0.4956925
vn 0.86119217 -0.11241442 0.4956925
g febg_factory_001_garbage_01_0
f 3/3/3 2/2/2 1/1/1
f 4/4/4 3/3/3 1/1/1
f 7/7/7 6/6/6 5/5/5
f 8/8/8 7/7/7 5/5/5
f 11/11/11 10/10/10 9/9/9
f 12/12/12 11/11/11 9/9/9
f 15/15/15 14/14/14 13/13/13
f 16/16/16 15/15/15 13/13/13
f 19/19/19 18/18/18 17/17/17
f 20/20/20 19/19/19 17/17/17
f 23/23/23 22/22/22 21/21/21
f 24/24/24 23/23/23 21/21/21
f 27/27/27 26/26/26 25/25/25
f 28/28/28 27/27/27 25/25/25
f 31/31/31 30/30/30 29/29/29
f 32/32/32 31/31/31 29/29/29
f 35/35/35 34/34/34 33/33/33
f 36/36/36 35/35/35 33/33/33
f 39/39/39 38/38/38 37/37/37
f 40/40/40 39/39/39 37/37/37
f 43/43/43 42/42/42 41/41/41
f 44/44/44 43/43/43 41/41/41
f 47/47/47 46/46/46 45/45/45
f 48/48/48 47/47/47 45/45/45
f 51/51/51 50/50/50 49/49/49
f 52/52/52 51/51/51 49/49/49
f 55/55/55 54/54/54 53/53/53
f 56/56/56 55/55/55 53/53/53
f 59/59/59 58/58/58 57/57/57
f 60/60/60 59/59/59 57/57/57
