g febg_coinrush_001_doorglass_01
v -1.6859779 -0.6440654 -2.9719114
v -1.6859779 -0.40114355 -3.2091177
v -1.6859779 4.7683716E-07 -2.565047
v -1.6859779 -0.76842 -2.565047
v -1.6859779 4.7683716E-07 -3.3334675
v -1.6859779 -0.6440654 -2.1581779
v -1.6859779 0.40127373 -3.2091177
v -1.6859779 -0.40114355 -1.9209764
v -1.6859779 0.6440711 -2.9719114
v -1.6859779 4.7683716E-07 -1.7966266
v -1.6859779 0.7684207 -2.565047
v -1.6859779 0.40127373 -1.9209764
v -1.6859779 0.6440711 -2.1581779
vt 0.05155557 0.2146939
vt 0.024018344 0.24288642
vt 0.09878139 0.28945696
vt 0.09878139 0.20026255
vt 0.00958699 0.28945696
vt 0.14600721 0.2146939
vt 0.024018344 0.33602747
vt 0.17354444 0.24288642
vt 0.05155557 0.36422
vt 0.1879758 0.28945696
vt 0.09878139 0.37865135
vt 0.17354444 0.33602747
vt 0.14600721 0.36422
vn -1 0 -0
vn -1 0 -0
vn -1 0 -0
vn -1 0 -0
vn -1 0 -0
vn -1 0 -0
vn -1 0 -0
vn -1 0 -0
vn -1 0 -0
vn -1 0 -0
vn -1 0 -0
vn -1 0 -0
vn -1 0 -0
g febg_coinrush_001_doorglass_01_0
f 3/3/3 2/2/2 1/1/1
f 3/3/3 1/1/1 4/4/4
f 3/3/3 5/5/5 2/2/2
f 3/3/3 4/4/4 6/6/6
f 3/3/3 7/7/7 5/5/5
f 3/3/3 6/6/6 8/8/8
f 3/3/3 9/9/9 7/7/7
f 3/3/3 8/8/8 10/10/10
f 3/3/3 11/11/11 9/9/9
f 3/3/3 10/10/10 12/12/12
f 3/3/3 13/13/13 11/11/11
f 3/3/3 12/12/12 13/13/13
