g febg_tropical_003_plant_01
v 0.22463179 1.0500622 0.062030733
v 0.014656663 -6.556511E-07 0.062030733
v 0.2263354 -6.556511E-07 0.062030733
v 0.016360283 1.0500622 0.062030733
v 0.22292817 1.7777045 0.062030733
v 0.018063903 1.7777045 0.062030733
v 0.23534286 2.1883452 0.062030733
v 0.0064103603 2.1883452 0.062030733
v 0.11903709 2.857321 0.087391794
v -0.31671697 2.857321 0.087391794
v 0.54004455 2.857321 0.087391794
v 0.11903709 4.0122776 0.24996144
v -0.55772597 3.9230123 0.307921
v 0.11903709 4.663861 0.57356006
v 0.82116723 3.9230123 0.307921
v -0.6330057 4.6007905 0.65631276
v 0.95315003 4.5474586 0.60588664
v -0.65955085 5.1369557 1.2177427
v 0.78839356 4.7918324 0.78130585
v 0.95696205 4.727457 0.8265547
v 0.044047236 5.2269764 1.1814468
v -0.25948232 5.231942 1.2928109
v -0.6363284 5.1820354 1.3090074
v 0.9120757 5.1419396 1.2302601
v 0.9195789 4.7949495 0.8946213
v 0.11903709 5.355588 1.4457569
v 0.8635163 5.27324 1.5269873
v -0.27213877 5.255026 1.3494353
v -0.6236358 5.2066717 1.35889
v -0.5927711 5.2665763 1.4801798
v -0.35049957 5.2834315 2.1792712
v 0.61568075 5.2834315 2.1792712
v 0.21848786 5.377723 2.2258732
v -0.23311847 5.006139 2.4286592
v 0.3992536 5.212737 2.2830052
v 0.54382634 5.1689806 2.256194
v 0.21938801 4.961742 2.6062655
v -0.1157313 4.6436286 2.3183765
v 0.40465444 5.1748405 2.357832
v 0.4245422 4.899735 2.5291793
v 0.5263732 5.15166 2.3537118
v 0.32270515 4.603231 2.293692
v 0.12720484 4.5520315 2.3963327
v 0.11903709 4.6696906 2.013512
v -0.12647861 1.0922964 0.043973505
v -0.18707818 -6.556511E-07 -0.17175287
v -0.025626242 -6.556511E-07 -0.038882017
v -0.28526634 1.0963318 -0.08455372
v -0.20867556 1.739548 0.09609729
v -0.3658443 1.7463686 -0.029723525
v -0.24869269 2.1037679 0.13283998
v -0.42512697 2.1129262 -0.0076004863
v -0.44415683 2.692613 0.1305564
v -0.7662391 2.7251146 -0.15153891
v -0.09968573 2.6843061 0.37161368
v -0.71016437 3.6218448 0.35904795
v -1.2285745 3.6112547 -0.04637915
v -1.0016055 4.000395 0.7020026
v -1.5917192 4.0124044 0.28376204
v -0.1375522 3.559626 0.7830699
v -0.31520063 3.9715781 1.1577713
v -1.9793727 4.1461515 0.83407
v -0.74449664 4.1541076 1.7374518
v -1.5401995 4.141578 1.1806252
v -1.7963417 4.129127 1.1044936
v -1.9954789 4.128934 0.9593833
v -1.3938324 4.1400557 1.2961216
v -1.5230241 4.102685 1.535155
v -1.7611575 4.124228 1.1720285
v -0.93533915 4.1183133 1.9641006
v -1.5835633 3.7370334 2.3338058
v -2.0681064 4.103494 1.1262541
v -2.0190697 4.097586 1.0627065
v -2.2867205 3.6512113 1.7379773
v -1.9743767 3.708706 2.0157592
v -1.6391428 3.3713512 2.3693645
v -2.166512 3.306982 1.9224946
v -1.9322572 3.3501043 2.1308265
v -1.5179133 3.062554 2.0820134
v -1.8694949 3.0196428 1.7841022
v -1.7133231 3.0483932 1.9229901
v -1.2614992 3.1322818 1.686657
vt 0.01566439 0.3702047
vt 0.019762946 0.34925652
vt 0.01566439 0.34925652
vt 0.019762946 0.3702047
vt 0.01566439 0.3846559
vt 0.019762946 0.3846559
vt 0.015375973 0.39274675
vt 0.020036183 0.39274675
vt 0.017835107 0.40622646
vt 0.027565384 0.40592286
vt 0.009304037 0.40625682
vt 0.018017264 0.42964894
vt 0.031982716 0.42820686
vt 0.018017264 0.44403943
vt 0.0037026762 0.4284042
vt 0.03353106 0.44388765
vt 0.0011980028 0.4426429
vt 0.03421415 0.45988718
vt 0.0044616684 0.4489425
vt 0.0013194416 0.44879073
vt 0.019975465 0.46049437
vt 0.026153658 0.4624374
vt 0.033773936 0.46202755
vt 0.0021087932 0.46035776
vt 0.0018810956 0.45059714
vt 0.01850302 0.46623236
vt 0.003065123 0.46715832
vt 0.026426895 0.4637125
vt 0.03353106 0.46321157
vt 0.032954223 0.46608058
vt 0.028051138 0.47889236
vt 0.007953031 0.47901377
vt 0.016286762 0.4786343
vt 0.025637545 0.48373473
vt 0.012567703 0.480805
vt 0.008681663 0.4803496
vt 0.0153456135 0.48499465
vt 0.023208769 0.4885619
vt 0.012385544 0.48255068
vt 0.011823891 0.48613313
vt 0.009622814 0.4820953
vt 0.014009787 0.4901558
vt 0.016362661 0.48941198
vt 0.01838158 0.49823147
vt 0.01566439 0.3702047
vt 0.019762946 0.34925652
vt 0.01566439 0.34925652
vt 0.019762946 0.3702047
vt 0.01566439 0.3846559
vt 0.019762946 0.3846559
vt 0.015375973 0.39274675
vt 0.020036183 0.39274675
vt 0.017835107 0.40622646
vt 0.027565384 0.40592286
vt 0.009304037 0.40625682
vt 0.018017264 0.42964894
vt 0.031982716 0.42820686
vt 0.018017264 0.44403943
vt 0.03353106 0.44388765
vt 0.0037026762 0.4284042
vt 0.0016989375 0.44265807
vt 0.03421415 0.45988718
vt 0.0021087932 0.46035776
vt 0.022404239 0.46046403
vt 0.028020779 0.46231598
vt 0.033713218 0.46237668
vt 0.01845748 0.46064618
vt 0.01850302 0.46623236
vt 0.026669772 0.46305978
vt 0.003065123 0.46715832
vt 0.007953031 0.47901377
vt 0.032954223 0.46608058
vt 0.03343998 0.4637125
vt 0.028051138 0.47889236
vt 0.0183664 0.47854322
vt 0.010563964 0.4838106
vt 0.025637545 0.48373473
vt 0.0183664 0.48346147
vt 0.013174896 0.48862264
vt 0.023208769 0.4885619
vt 0.0183664 0.48837975
vt 0.01838158 0.49823147
vn 0.0002630949 -0.0002630949 -0.99999994
vn 0.0002630949 -0.0002630949 -0.99999994
vn 0.0002630949 -0.0002630949 -0.99999994
vn 0.0002630949 -0.0002630949 -0.99999994
vn 0.0002630949 -0.0002630949 -0.99999994
vn 0.0002630949 -0.0002630949 -0.99999994
vn 0.0002630949 0.02109003 -0.99977756
vn 0.0002630949 0.02109003 -0.99977756
vn 0.0002630949 0.10067904 -0.99491894
vn -0.04050207 0.11426747 -0.99262404
vn 0.039086998 0.11426747 -0.9926808
vn -0.0075017214 0.31032813 -0.9505999
vn -0.102620244 0.31032813 -0.9450744
vn -0.017207742 0.5898603 -0.8073219
vn 0.089558065 0.30838692 -0.94703585
vn -0.1356206 0.5937426 -0.79314363
vn 0.17497063 0.55491877 -0.813296
vn -0.1356206 0.8111565 -0.5688868
vn 0.22155935 0.69856715 -0.68037885
vn 0.4215024 0.69856715 -0.5782211
vn -0.024972439 0.83250964 -0.5534474
vn -0.1375618 0.90045154 -0.41263038
vn -0.1375618 0.90045154 -0.41263038
vn 0.1555587 0.826686 -0.5407325
vn 0.5127386 0.6015074 -0.61260754
vn 0.0060866475 0.97615814 -0.2169751
vn 0.14197034 0.9586873 -0.24650176
vn -0.13367939 0.90433383 -0.4053519
vn -0.13367939 0.90433383 -0.4053519
vn -0.139503 0.9606285 -0.24027431
vn -0.17832685 0.9276283 0.32818493
vn 0.21767694 0.90627503 0.36232904
vn 0.0060866475 0.91015744 0.4142178
vn -0.30644572 0.30450463 0.9018692
vn 0.23708886 0.4986241 0.8337643
vn 0.28367758 0.40544677 0.86898786
vn 0.03520459 0.102620244 0.9940975
vn -0.4267999 -0.7301525 0.53359085
vn 0.2720304 0.5898603 0.76030535
vn 0.39044333 -0.015792608 0.9204915
vn 0.33026624 0.5160948 0.7902976
vn 0.2642656 -0.9068012 0.32844365
vn -0.089031935 -0.8873893 0.45234224
vn -0.098737836 -0.95144874 -0.29154092
vn 0.62726915 0.12979698 -0.76791024
vn 0.62921035 0.11620867 -0.7684985
vn 0.62921035 0.11620867 -0.7684985
vn 0.62532794 0.12979698 -0.76949185
vn 0.62338674 0.14338541 -0.7686544
vn 0.62338674 0.14338541 -0.7686544
vn 0.6097984 0.17444444 -0.77312034
vn 0.62532794 0.17832685 -0.7597134
vn 0.6000924 0.27926898 -0.7495985
vn 0.6175631 0.31226933 -0.7218751
vn 0.56903327 0.2909162 -0.7691352
vn 0.5049738 0.5801543 -0.63907933
vn 0.48944426 0.61315465 -0.6200691
vn 0.2720304 0.8946279 -0.3544578
vn 0.25455964 0.90821624 -0.3321786
vn 0.5030326 0.5743307 -0.6458346
vn 0.28561878 0.8849219 -0.36787924
vn 0.04491055 0.99751127 -0.054353513
vn 0.025498629 0.9994525 -0.021085327
vn 0.027439833 0.9994525 -0.018488716
vn -0.08514953 0.98974645 0.114680104
vn -0.08514953 0.98974645 0.114680104
vn 0.019675016 0.9994525 -0.026601247
vn -0.22491562 0.9412166 0.2520403
vn -0.08126712 0.99168766 0.09975587
vn -0.19191527 0.9567461 0.21864453
vn -0.5025065 0.62674296 0.59555054
vn -0.2171508 0.9625697 0.16218841
vn -0.04826677 0.98974645 -0.13443306
vn -0.53938913 0.61315465 0.5771488
vn -0.55103636 0.5588012 0.6197581
vn -0.6015074 -0.24097127 0.7616572
vn -0.62674296 -0.21573573 0.74876654
vn -0.597625 -0.28950113 0.7476854
vn -0.18803287 -0.93009555 0.31554067
vn -0.22879791 -0.8699185 0.43691337
vn -0.1414442 -0.93786037 0.3168777
vn 0.1555587 -0.98639023 -0.053251766
g febg_tropical_003_plant_01_0
f 3/3/3 2/2/2 1/1/1
f 2/2/2 4/4/4 1/1/1
f 1/1/1 4/4/4 5/5/5
f 4/4/4 6/6/6 5/5/5
f 7/7/7 5/5/5 6/6/6
f 8/8/8 7/7/7 6/6/6
f 9/9/9 7/7/7 8/8/8
f 9/9/9 8/8/8 10/10/10
f 9/9/9 11/11/11 7/7/7
f 9/9/9 10/10/10 12/12/12
f 11/11/11 9/9/9 12/12/12
f 10/10/10 13/13/13 12/12/12
f 12/12/12 13/13/13 14/14/14
f 15/15/15 11/11/11 12/12/12
f 12/12/12 14/14/14 15/15/15
f 13/13/13 16/16/16 14/14/14
f 14/14/14 17/17/17 15/15/15
f 14/14/14 16/16/16 18/18/18
f 14/14/14 19/19/19 17/17/17
f 17/17/17 19/19/19 20/20/20
f 21/21/21 14/14/14 18/18/18
f 21/21/21 19/19/19 14/14/14
f 21/21/21 18/18/18 22/22/22
f 18/18/18 23/23/23 22/22/22
f 24/24/24 19/19/19 21/21/21
f 25/25/25 19/19/19 24/24/24
f 24/24/24 21/21/21 26/26/26
f 27/27/27 24/24/24 26/26/26
f 21/21/21 28/28/28 26/26/26
f 26/26/26 28/28/28 29/29/29
f 30/30/30 26/26/26 29/29/29
f 26/26/26 30/30/30 31/31/31
f 32/32/32 27/27/27 26/26/26
f 33/33/33 26/26/26 31/31/31
f 33/33/33 32/32/32 26/26/26
f 33/33/33 31/31/31 34/34/34
f 32/32/32 33/33/33 35/35/35
f 36/36/36 32/32/32 35/35/35
f 37/37/37 33/33/33 34/34/34
f 37/37/37 34/34/34 38/38/38
f 37/37/37 39/39/39 33/33/33
f 39/39/39 37/37/37 40/40/40
f 41/41/41 39/39/39 40/40/40
f 40/40/40 37/37/37 42/42/42
f 43/43/43 37/37/37 38/38/38
f 37/37/37 43/43/43 42/42/42
f 44/44/44 43/43/43 38/38/38
f 42/42/42 43/43/43 44/44/44
f 47/47/47 46/46/46 45/45/45
f 46/46/46 48/48/48 45/45/45
f 45/45/45 48/48/48 49/49/49
f 48/48/48 50/50/50 49/49/49
f 51/51/51 49/49/49 50/50/50
f 52/52/52 51/51/51 50/50/50
f 53/53/53 51/51/51 52/52/52
f 53/53/53 52/52/52 54/54/54
f 53/53/53 55/55/55 51/51/51
f 53/53/53 54/54/54 56/56/56
f 55/55/55 53/53/53 56/56/56
f 54/54/54 57/57/57 56/56/56
f 56/56/56 57/57/57 58/58/58
f 57/57/57 59/59/59 58/58/58
f 60/60/60 55/55/55 56/56/56
f 56/56/56 58/58/58 60/60/60
f 58/58/58 61/61/61 60/60/60
f 58/58/58 59/59/59 62/62/62
f 63/63/63 61/61/61 58/58/58
f 64/64/64 58/58/58 62/62/62
f 64/64/64 62/62/62 65/65/65
f 62/62/62 66/66/66 65/65/65
f 67/67/67 58/58/58 64/64/64
f 67/67/67 63/63/63 58/58/58
f 63/63/63 67/67/67 68/68/68
f 67/67/67 64/64/64 69/69/69
f 68/68/68 67/67/67 69/69/69
f 70/70/70 63/63/63 68/68/68
f 71/71/71 70/70/70 68/68/68
f 72/72/72 68/68/68 69/69/69
f 73/73/73 72/72/72 69/69/69
f 68/68/68 72/72/72 74/74/74
f 75/75/75 71/71/71 68/68/68
f 75/75/75 68/68/68 74/74/74
f 76/76/76 71/71/71 75/75/75
f 75/75/75 74/74/74 77/77/77
f 78/78/78 76/76/76 75/75/75
f 78/78/78 75/75/75 77/77/77
f 79/79/79 76/76/76 78/78/78
f 78/78/78 77/77/77 80/80/80
f 81/81/81 79/79/79 78/78/78
f 81/81/81 78/78/78 80/80/80
f 82/82/82 79/79/79 81/81/81
f 82/82/82 81/81/81 80/80/80
