g febg_hotspring_001_food_02
v -0.38857782 0.0014843345 -0.045930862
v -0.562783 0.3605386 0.23652452
v -0.36019164 0.0014843345 0.13329798
v -0.6131537 0.3605386 -0.081499994
v -0.30619508 0.0014843345 -0.20761722
v -0.52793396 0.3605386 0.21876866
v -0.31734586 0.3605386 0.4293567
v -0.33510172 0.3605386 0.46420574
v -0.023195565 0.3605386 0.4759444
v -0.017077208 0.3605386 0.51457524
v -0.57452416 0.3605386 -0.075381696
v 0.24216044 0.3605386 0.34073955
v -0.46697402 0.3605386 -0.36839497
v -0.43931806 0.3605386 -0.34073892
v -0.1739608 0.3605386 -0.475945
v -0.1800791 0.3605386 -0.51457584
v -0.14450997 0.0014843345 -0.29
v 0.12018952 0.3605386 -0.4293561
v 0.13794667 0.3605386 -0.4642051
v 0.034720123 0.0014843345 -0.26161253
v 0.33077762 0.3605386 -0.218768
v 0.16303405 0.0014843345 -0.13329864
v 0.36562663 0.3605386 -0.2365239
v 0.3773665 0.3605386 0.07538229
v 0.19142151 0.0014843345 0.04593146
v 0.41599736 0.3605386 0.08150065
v 0.26981774 0.3605386 0.36839557
v 0.10903871 0.0014843345 0.20761663
v -0.0526464 0.0014843345 0.29000062
v 0.6131456 0.6652281 0.27924925
v 0.58935875 0.6652281 0.32044995
v 0.5630457 0.69561136 0.305259
v 0.5868325 0.69561136 0.26405698
v 0.19156253 0.23087424 0.049569786
v 0.17965913 0.23087424 0.07018763
v 0.20472905 0.21566951 0.05717212
v 0.6131456 0.6652281 0.27924925
v 0.58935875 0.6652281 0.32044995
v 0.19282565 0.21566951 0.07778996
v 0.17965913 0.23087424 0.07018763
v 0.5630457 0.69561136 0.305259
v 0.5054982 0.6652281 0.42909217
v 0.4690541 0.6652281 0.45967257
v 0.44952336 0.69561136 0.43639743
v 0.48596746 0.69561136 0.40581703
v 0.18789428 0.23087424 0.06907427
v 0.16965663 0.23087424 0.08437759
v 0.19766712 0.21566951 0.080721796
v 0.5054982 0.6652281 0.42909217
v 0.4690541 0.6652281 0.45967257
v 0.17943072 0.21566951 0.09602386
v 0.16965663 0.23087424 0.08437759
v 0.44952336 0.69561136 0.43639743
v -0.023195565 0.3605386 0.4759444
v 0.19833863 0.26004177 0.29691648
v 0.24216044 0.3605386 0.34073955
v 0.3773665 0.3605386 0.07538229
v -0.032891035 0.26004177 0.41473365
v -0.31734586 0.3605386 0.4293567
v -0.09857881 0.33987582 2.9802322E-07
v 0.31615576 0.26004177 0.06568807
v -0.28921056 0.26004177 0.37413698
v 0.33077762 0.3605386 -0.218768
v -0.52793396 0.3605386 0.21876866
v 0.27555913 0.26004177 -0.19063267
v 0.12018952 0.3605386 -0.4293561
v -0.4727155 0.26004177 0.19063205
v -0.57452416 0.3605386 -0.075381696
v 0.09205419 0.26004177 -0.3741376
v -0.1739608 0.3605386 -0.475945
v -0.5133121 0.26004177 -0.06568748
v -0.43931806 0.3605386 -0.34073892
v -0.16426533 0.26004177 -0.41473424
v -0.39549625 0.26004177 -0.2969171
vt 0.7535125 0.295144
vt 0.7797581 0.2779859
vt 0.7535125 0.2779859
vt 0.7797581 0.295144
vt 0.7535125 0.315473
vt 0.7819768 0.2779859
vt 0.7819768 0.25638115
vt 0.7797581 0.25638115
vt 0.7819768 0.23918611
vt 0.7797581 0.23918611
vt 0.7819768 0.295144
vt 0.7819768 0.2187739
vt 0.7797581 0.315473
vt 0.7819768 0.315473
vt 0.7819768 0.295144
vt 0.7797396 0.295144
vt 0.753494 0.295144
vt 0.7819768 0.2779859
vt 0.7797396 0.2779859
vt 0.753494 0.2779859
vt 0.7819768 0.25638115
vt 0.753494 0.25638115
vt 0.7797396 0.25638115
vt 0.7819768 0.23918611
vt 0.753494 0.23918611
vt 0.7797396 0.23918611
vt 0.7797581 0.2187739
vt 0.7535125 0.2187739
vt 0.7535125 0.23918611
vt 0.7860445 0.28503957
vt 0.7860445 0.28997627
vt 0.78920615 0.28997627
vt 0.78920615 0.28503957
vt 0.83747244 0.28626916
vt 0.83747244 0.28874668
vt 0.83754647 0.2846698
vt 0.7893356 0.2818317
vt 0.7893356 0.2818317
vt 0.83754647 0.2846698
vt 0.83747244 0.28626916
vt 0.78920615 0.28503957
vt 0.7860445 0.28503957
vt 0.7860445 0.28997627
vt 0.78920615 0.28997627
vt 0.78920615 0.28503957
vt 0.83747244 0.28626916
vt 0.83747244 0.28874668
vt 0.83754647 0.2846698
vt 0.7893356 0.2818317
vt 0.7893356 0.2818317
vt 0.83754647 0.2846698
vt 0.83747244 0.28626916
vt 0.78920615 0.28503957
vt 0.84857535 0.2612716
vt 0.84643984 0.23991644
vt 0.85521305 0.23993492
vt 0.8487047 0.21878317
vt 0.84132755 0.2560114
vt 0.831898 0.27340057
vt 0.8205825 0.23992568
vt 0.841383 0.22384924
vt 0.8291061 0.26498795
vt 0.83235097 0.20657095
vt 0.80945194 0.27344683
vt 0.8290322 0.21478945
vt 0.8094982 0.20635834
vt 0.8121052 0.26500642
vt 0.7928393 0.26162288
vt 0.81212366 0.21480796
vt 0.7928393 0.21820074
vt 0.799819 0.2559744
vt 0.7859521 0.23991644
vt 0.799819 0.22384924
vt 0.79474366 0.23991644
vn -0.8350784 -0.5343255 -0.13092096
vn -0.5515618 0.8295192 0.08762132
vn -0.8461967 -0.515795 0.13381568
vn -0.89622897 0.42184824 -0.13717765
vn -0.59788793 -0.5343255 -0.5975168
vn 0.36199188 0.91290647 -0.18858327
vn 0.18409908 0.91290647 -0.36429292
vn 0.0006471276 0.9999998 -0
vn -0.06420958 0.91290647 -0.40308675
vn 0.25266194 0.8295192 0.49805602
vn 0.4009059 0.91290647 0.076656654
vn -0.28657562 0.91290647 -0.29064786
vn -0.6405081 0.42184824 -0.6417113
vn 0.28786987 0.91290647 0.28936607
vn 0.06365085 0.91290647 0.40317532
vn -0.14203769 0.42184824 -0.89547163
vn -0.1327725 -0.5343255 -0.834786
vn -0.18465787 0.91290647 0.36400998
vn 0.4120242 0.42184824 -0.80763865
vn 0.38422847 -0.5343255 -0.7529042
vn -0.36255068 0.91290647 0.18750668
vn 0.75298536 -0.5343255 -0.3840694
vn 0.8085769 0.42184824 -0.41017985
vn -0.40146464 0.91290647 -0.07367426
vn 0.83451957 -0.5343255 0.13443738
vn 0.89567024 0.42184824 0.14077957
vn 0.64180243 0.42184824 0.64041686
vn 0.5973292 -0.5343255 0.59807533
vn 0.3897876 -0.515795 0.7629031
vn 0.7863403 0.4978233 -0.3658427
vn 0.07662219 0.4978233 0.8638872
vn -0.2995469 0.8128417 0.4995598
vn 0.28231072 0.8128417 -0.5094988
vn -0.09571147 0.4829989 -0.87037426
vn -0.8017234 0.4829989 0.35206762
vn 0.48799926 -0.013618469 -0.87273777
vn 0.7863403 0.4978233 -0.3658427
vn 0.07662219 0.4978233 0.8638872
vn -0.5107946 -0.013618469 0.8595949
vn -0.8017234 0.4829989 0.35206762
vn -0.2995469 0.8128417 0.4995598
vn 0.8641684 0.4978233 -0.07338223
vn -0.22357184 0.4978233 0.8379664
vn -0.45149702 0.8128417 0.36802012
vn 0.43981996 0.8128417 -0.38189885
vn 0.20818871 0.4829989 -0.8505113
vn -0.8739924 0.4829989 0.053379633
vn 0.7566915 -0.013618469 -0.65363026
vn 0.8641684 0.4978233 -0.07338223
vn -0.22357184 0.4978233 0.8379664
vn -0.77392775 -0.013618469 0.63312745
vn -0.8739924 0.4829989 0.053379633
vn -0.45149702 0.8128417 0.36802012
vn -0.06420958 0.91290647 -0.40308675
vn -0.34587318 0.8721394 -0.34604132
vn -0.28657562 0.91290647 -0.29064786
vn -0.40146464 0.91290647 -0.07367426
vn -0.07903403 0.8647272 -0.49598435
vn 0.18409908 0.91290647 -0.36429292
vn 0.0006471276 0.9999998 -0
vn -0.4959702 0.8647272 -0.079122655
vn 0.2230131 0.8721394 -0.4354745
vn -0.36255068 0.91290647 0.18750668
vn 0.36199188 0.91290647 -0.18858327
vn -0.43667263 0.8721394 0.22065775
vn -0.18465787 0.91290647 0.36400998
vn 0.44723216 0.8647272 -0.22853936
vn 0.4009059 0.91290647 0.076656654
vn -0.22913104 0.8647272 0.44692934
vn 0.06365085 0.91290647 0.40317532
vn 0.48429316 0.8721394 0.06951966
vn 0.28786987 0.91290647 0.28936607
vn 0.07662219 0.8721394 0.48322037
vn 0.35643274 0.8647272 0.3538397
g febg_hotspring_001_food_02_0
f 3/3/3 2/2/2 1/1/1
f 2/2/2 4/4/4 1/1/1
f 1/1/1 4/4/4 5/5/5
f 2/2/2 6/6/6 4/4/4
f 7/7/7 6/6/6 2/2/2
f 8/8/8 7/7/7 2/2/2
f 9/9/9 7/7/7 8/8/8
f 10/10/10 9/9/9 8/8/8
f 6/6/6 11/11/11 4/4/4
f 12/12/12 9/9/9 10/10/10
f 4/4/4 11/11/11 13/13/13
f 4/4/4 13/13/13 5/5/5
f 11/11/11 14/14/14 13/13/13
f 14/14/14 15/15/15 13/13/13
f 13/13/13 16/16/16 5/5/5
f 15/15/15 16/16/16 13/13/13
f 16/16/16 17/17/17 5/5/5
f 15/15/15 18/18/18 16/16/16
f 16/16/16 19/19/19 17/17/17
f 18/18/18 19/19/19 16/16/16
f 19/19/19 20/20/20 17/17/17
f 18/18/18 21/21/21 19/19/19
f 22/22/22 20/20/20 19/19/19
f 21/21/21 23/23/23 19/19/19
f 23/23/23 22/22/22 19/19/19
f 21/21/21 24/24/24 23/23/23
f 25/25/25 22/22/22 23/23/23
f 24/24/24 26/26/26 23/23/23
f 26/26/26 25/25/25 23/23/23
f 24/24/24 12/12/12 26/26/26
f 26/26/26 27/27/27 25/25/25
f 12/12/12 27/27/27 26/26/26
f 27/27/27 28/28/28 25/25/25
f 27/27/27 12/12/12 10/10/10
f 28/28/28 27/27/27 29/29/29
f 27/27/27 10/10/10 29/29/29
f 32/32/32 31/31/31 30/30/30
f 33/33/33 32/32/32 30/30/30
f 32/32/32 33/33/33 34/34/34
f 35/35/35 32/32/32 34/34/34
f 36/36/36 34/34/34 33/33/33
f 37/37/37 36/36/36 33/33/33
f 40/40/40 39/39/39 38/38/38
f 41/41/41 40/40/40 38/38/38
f 44/44/44 43/43/43 42/42/42
f 45/45/45 44/44/44 42/42/42
f 44/44/44 45/45/45 46/46/46
f 47/47/47 44/44/44 46/46/46
f 48/48/48 46/46/46 45/45/45
f 49/49/49 48/48/48 45/45/45
f 52/52/52 51/51/51 50/50/50
f 53/53/53 52/52/52 50/50/50
f 56/56/56 55/55/55 54/54/54
f 55/55/55 56/56/56 57/57/57
f 55/55/55 58/58/58 54/54/54
f 54/54/54 58/58/58 59/59/59
f 60/60/60 58/58/58 55/55/55
f 61/61/61 60/60/60 55/55/55
f 61/61/61 55/55/55 57/57/57
f 62/62/62 58/58/58 60/60/60
f 58/58/58 62/62/62 59/59/59
f 61/61/61 57/57/57 63/63/63
f 59/59/59 62/62/62 64/64/64
f 65/65/65 61/61/61 63/63/63
f 60/60/60 61/61/61 65/65/65
f 65/65/65 63/63/63 66/66/66
f 62/62/62 67/67/67 64/64/64
f 67/67/67 62/62/62 60/60/60
f 64/64/64 67/67/67 68/68/68
f 69/69/69 65/65/65 66/66/66
f 69/69/69 60/60/60 65/65/65
f 69/69/69 66/66/66 70/70/70
f 67/67/67 71/71/71 68/68/68
f 71/71/71 67/67/67 60/60/60
f 68/68/68 71/71/71 72/72/72
f 73/73/73 69/69/69 70/70/70
f 60/60/60 69/69/69 73/73/73
f 73/73/73 70/70/70 72/72/72
f 71/71/71 74/74/74 72/72/72
f 74/74/74 71/71/71 60/60/60
f 74/74/74 73/73/73 72/72/72
f 74/74/74 60/60/60 73/73/73
