g febg_lostcity_001_building_unit_01
v 0.7888104 0.9519501 -0.32533562
v 0.78881025 0.94560575 0.33776757
v -0.7888104 0.94560575 0.33776784
v -0.78881025 0.9519501 -0.32533535
v 0.7888104 0.0031721294 -0.32553217
v -0.78881025 0.0031721294 -0.3255319
v -0.7888104 0.94560575 0.33776784
v -0.7888104 -0.0031721294 0.3375749
v 0.78881025 -0.0031721294 0.33757463
v 0.78881025 0.94560575 0.33776757
v 0.7888104 0.9519501 -0.32533562
v 0.7888104 0.0031721294 -0.32553217
vt 0.29109973 0.57940376
vt 0.29109973 0.5913893
vt 0.3240916 0.5913893
vt 0.3240916 0.57940376
vt 0.29109973 0.5572381
vt 0.3240916 0.5572381
vt 0.33619595 0.57940376
vt 0.33619595 0.5572381
vt 0.33619595 0.5572381
vt 0.33619595 0.57940376
vt 0.3240916 0.57940376
vt 0.3240916 0.5572381
vn 0.57685965 0.5804114 -0.57476574
vn 0.7092049 0.7049702 0.006745013
vn -0.7092051 0.70497 0.0067447564
vn -0.57685965 0.5804115 -0.5747657
vn 0.7092041 0.00014604659 -0.70500314
vn -0.7092041 0.00014604659 -0.70500314
vn -0.7092051 0.70497 0.0067447564
vn -1 0 0
vn 1 0 0
vn 0.7092049 0.7049702 0.006745013
vn 0.57685965 0.5804114 -0.57476574
vn 0.7092041 0.00014604659 -0.70500314
g febg_lostcity_001_building_unit_01_0
f 3/3/3 2/2/2 1/1/1
f 4/4/4 3/3/3 1/1/1
f 4/4/4 1/1/1 5/5/5
f 6/6/6 4/4/4 5/5/5
f 7/7/7 4/4/4 6/6/6
f 8/8/8 7/7/7 6/6/6
f 11/11/11 10/10/10 9/9/9
f 12/12/12 11/11/11 9/9/9
