g febg_hotspring_001_wreath_01
v -0.00042927265 0.5788364 0.026287496
v -0.00042927265 0.54885054 0.09100649
v -0.151811 0.4995237 0.09100649
v -0.16943622 0.5237834 0.026287496
v -0.24563617 0.37038416 0.09100649
v -0.00042927265 0.54885054 -0.038432285
v -0.2741546 0.37965012 0.026287496
v -0.24563617 0.21075875 0.09100649
v -0.151811 0.4995237 -0.038432285
v -0.2741546 0.20149198 0.026287496
v -0.151811 0.0816192 0.09100649
v -0.16943622 0.057359517 0.026287496
v -0.24563617 0.37038416 -0.038432285
v -0.07784411 0.39771718 -0.038432285
v -0.00042927265 0.42301142 -0.038432285
v -0.24563617 0.21075875 -0.038432285
v -0.12595606 0.3314972 -0.038432285
v -0.12595606 0.3314972 0.09100649
v -0.07784411 0.39771718 0.09100649
v -0.12595606 0.24964488 0.09100649
v -0.12595606 0.24964488 -0.038432285
v -0.07784411 0.18342489 0.09100649
v -0.07784411 0.18342489 -0.038432285
v 1.937151E-06 0.15813148 0.09100649
v -0.151811 0.0816192 -0.038432285
v 1.937151E-06 0.002305746 0.026287496
v 1.937151E-06 0.15813148 -0.038432285
v 0.077848 0.18342489 0.09100649
v 1.937151E-06 0.032292366 -0.038432285
v 0.1694401 0.057359517 0.026286691
v 0.077848 0.18342489 -0.038432285
v 0.12595993 0.24964488 0.09100649
v 0.15181407 0.0816192 -0.038432285
v 0.12595993 0.24964488 -0.038432285
v 0.12595993 0.3314972 0.09100649
v 0.12595993 0.3314972 -0.038432285
v 0.077848 0.39771718 0.09100649
v 0.077848 0.39771718 -0.038432285
v 0.24564005 0.21075875 -0.038432285
v 0.27415848 0.20149198 0.026286691
v 0.24564005 0.37038416 -0.038432285
v 0.24564005 0.21075875 0.09100649
v 0.1518149 0.0816192 0.09100649
v 0.24564005 0.37038416 0.09100649
v 0.27415848 0.37965012 0.026286691
v 0.1518149 0.4995237 0.09100649
v 0.1694401 0.5237834 0.026286691
v -0.00042927265 0.54885054 0.09100649
v -0.00042927265 0.5788364 0.026287496
v 0.1518149 0.4995237 -0.038432285
v -0.00042927265 0.42301142 -0.038432285
v -0.00042927265 0.54885054 -0.038432285
v 0.13576037 0.40703642 -0.075118154
v 0.13576037 0.40703726 -0.043692797
v 0.13018097 0.47950065 -0.043692797
v 0.13018097 0.47950065 -0.075118154
v 0.08107138 0.41280603 -0.06777704
v 0.13956332 0.56330156 -0.024415731
v 0.02160883 0.47611827 -0.075117335
v -0.00043991208 0.44051367 -0.07541983
v 0.13956332 0.56330156 -0.05584109
v 0.09383695 0.5854397 -0.024415731
v -0.0004595816 0.5198181 -0.075118154
v 0.09383695 0.5854397 -0.05584027
v -0.0004595816 0.5198181 -0.043692797
v -0.09567428 0.5854397 -0.024415731
v -0.0004595816 0.478503 -0.09100708
v -0.024071634 0.47611827 -0.075117335
v -0.08309561 0.41280603 -0.06777704
v -0.09567428 0.5854397 -0.05584027
v -0.14385179 0.56330156 -0.024415731
v -0.14385179 0.56330156 -0.05584027
v -0.13446862 0.47950065 -0.043692797
v -0.13446862 0.47950065 -0.075117335
v -0.1398611 0.40703726 -0.075117335
v -0.1398611 0.40703726 -0.043692797
v 0.08107138 0.41280603 -0.06777704
v 0.14865302 0.27608764 -0.036352515
v 0.08107138 0.41280603 -0.036352515
v 0.14865218 0.27608764 -0.06777704
v 0.04929188 0.23529714 -0.07703151
v -0.00043991208 0.44051367 -0.07541983
v 0.049388617 0.23535287 -0.045302838
v -0.0004595816 0.4405809 -0.053857222
v -0.13446862 0.47950065 -0.043692797
v -0.14385179 0.56330156 -0.024415731
v -0.09567428 0.5854397 -0.024415731
v -0.0004595816 0.5198181 -0.043692797
v 0.13018097 0.47950065 -0.043692797
v 0.09383695 0.5854397 -0.024415731
v 0.13956332 0.56330156 -0.024415731
v -0.0004595816 0.4405809 -0.053857222
v -0.00043991208 0.44051367 -0.07541983
v -0.028326303 0.26084876 -0.07703151
v -0.028445154 0.26090372 -0.045302838
v -0.08309561 0.41280603 -0.06777704
v -0.12721524 0.3012417 -0.06777704
v -0.12721524 0.3012417 -0.036351696
v -0.08309561 0.4128068 -0.036351696
vt 0.48083425 0.31391072
vt 0.46793473 0.31114653
vt 0.47252658 0.28959194
vt 0.48083425 0.28959194
vt 0.47429386 0.27243283
vt 0.49177015 0.31200752
vt 0.48083425 0.27243283
vt 0.47429386 0.25533417
vt 0.48887002 0.28959194
vt 0.48083425 0.25533417
vt 0.47343287 0.2401538
vt 0.48083425 0.2401538
vt 0.48809966 0.27243283
vt 0.5080078 0.28734133
vt 0.5111648 0.30089036
vt 0.48809966 0.25533417
vt 0.50504726 0.27243283
vt 0.52311265 0.27243283
vt 0.5246534 0.28362554
vt 0.52311265 0.25533417
vt 0.50504726 0.25533417
vt 0.5246534 0.24341644
vt 0.5051379 0.24228358
vt 0.52633 0.23148362
vt 0.48832625 0.2401538
vt 0.48083425 0.21867472
vt 0.5074943 0.22956531
vt 0.5246534 0.24341644
vt 0.49048623 0.22020032
vt 0.48083425 0.2401538
vt 0.5051379 0.24228358
vt 0.52311265 0.25533417
vt 0.48832625 0.2401538
vt 0.50504726 0.25533417
vt 0.52311265 0.27243283
vt 0.50504726 0.27243283
vt 0.5246534 0.28362554
vt 0.5080078 0.28734133
vt 0.48809966 0.25533417
vt 0.48083425 0.25533417
vt 0.48809966 0.27243283
vt 0.47429386 0.25533417
vt 0.47343287 0.2401538
vt 0.47429386 0.27243283
vt 0.48083425 0.27243283
vt 0.47252658 0.28959194
vt 0.48083425 0.28959194
vt 0.46793473 0.31114653
vt 0.48083425 0.31391072
vt 0.48887002 0.28959194
vt 0.5111648 0.30089036
vt 0.49177015 0.31200752
vt 0.60851544 0.9669078
vt 0.61236715 0.96634895
vt 0.6118838 0.977013
vt 0.6075034 0.9778739
vt 0.5985462 0.9677839
vt 0.6144063 0.992722
vt 0.58771604 0.97736037
vt 0.58369815 0.97196794
vt 0.60921025 0.990562
vt 0.6005099 0.99788785
vt 0.5836831 0.9839763
vt 0.6008724 0.99391526
vt 0.5833508 0.9881603
vt 0.56608593 0.99752533
vt 0.5836831 0.9777229
vt 0.5793782 0.97736037
vt 0.56862354 0.9677839
vt 0.56632763 0.99391526
vt 0.5528239 0.9930543
vt 0.5575517 0.990562
vt 0.5546365 0.97843283
vt 0.5592586 0.9778739
vt 0.5582767 0.9669078
vt 0.55238587 0.96802557
vt 0.5985462 0.9677839
vt 0.6176236 0.9441146
vt 0.6057059 0.96544266
vt 0.61082643 0.947196
vt 0.5927762 0.94107854
vt 0.5836831 0.97196794
vt 0.5897099 0.934372
vt 0.5845743 0.95692354
vt 0.5592586 0.9778739
vt 0.5575517 0.990562
vt 0.56632763 0.99391526
vt 0.5836831 0.9839763
vt 0.6075034 0.9778739
vt 0.6008724 0.99391526
vt 0.60921025 0.990562
vt 0.5845743 0.95692354
vt 0.58369815 0.97196794
vt 0.57860786 0.94476414
vt 0.5815684 0.93845034
vt 0.56862354 0.9677839
vt 0.56058776 0.9508816
vt 0.55542195 0.9476794
vt 0.5626118 0.96515566
vn 0.00024706125 1 -0
vn -0.0017066002 0.9081805 0.41857532
vn -0.53308785 0.7343093 0.4202465
vn -0.5877888 0.8085464 -0.02751325
vn -0.8632475 0.28107238 0.41928753
vn 0.00024706125 0.60537124 -0.7959432
vn -0.95115983 0.30842292 -0.013048111
vn -0.8632475 -0.27961296 0.4202622
vn -0.3572631 0.49010837 -0.7950829
vn -0.95109576 -0.30889624 -0
vn -0.74017024 -0.5374892 0.40404627
vn -0.66397953 -0.7328499 -0.14853343
vn -0.5760672 0.18729925 -0.7956542
vn 0.31087065 -0.22686553 -0.92297965
vn 0.00024706125 -0.00024706125 -0.99999994
vn -0.5760672 -0.18779337 -0.7955377
vn 0.59023654 -0.19170058 -0.7841376
vn 0.95114285 -0.30875114 -0
vn 0.8087885 -0.5880996 -0
vn 0.95128775 0.30830425 -0
vn 0.59023654 0.19120646 -0.7842582
vn 0.58828294 0.8085464 -0.01326023
vn 0.36557168 0.5018301 -0.78391576
vn 0.00024706125 1 -0
vn -0.3553095 -0.49060255 -0.79565334
vn 0.00024706125 -0.906721 -0.42173094
vn 0.00024706125 0.6210002 -0.7838104
vn -0.5877888 0.8085464 -0.02751325
vn 0.00024706125 -0.6058654 -0.79556715
vn 0.66447365 -0.7328499 -0.14630726
vn -0.3650775 0.5018301 -0.784146
vn -0.95115983 0.30842292 -0.013048111
vn 0.3558036 -0.49060255 -0.7954325
vn -0.591696 0.19120646 -0.7831576
vn -0.95109576 -0.30889624 -0
vn -0.591696 -0.19170058 -0.7830368
vn -0.8085464 -0.58828294 -0.013261354
vn -0.31037652 -0.22686553 -0.92314595
vn 0.57656133 -0.18779337 -0.79517967
vn 0.95114285 -0.30875114 -0
vn 0.57656133 0.18729925 -0.7952962
vn 0.86374164 -0.27961296 0.4192457
vn 0.74066436 -0.5374892 0.4031398
vn 0.86374164 0.28107238 0.41826868
vn 0.95128775 0.30830425 -0
vn 0.5335819 0.7343093 0.419619
vn 0.58828294 0.8085464 -0.01326023
vn -0.0017066002 0.9081805 0.41857532
vn 0.00024706125 1 -0
vn 0.3558036 0.49010837 -0.7957371
vn 0.00024706125 -0.00024706125 -0.99999994
vn 0.00024706125 0.60537124 -0.7959432
vn 0.707453 0.05445397 -0.70465946
vn 0.9965869 0.07594359 -0.03235909
vn 0.9184426 -0.101834655 0.382221
vn 0.6488448 0.05640757 -0.75882715
vn 0.27765936 0.10915494 -0.95445824
vn 0.67619526 0.31623733 0.6653976
vn 0.2522624 0.0017066002 -0.9676574
vn 0.004154265 -0.18583977 -0.98257124
vn 0.72698903 0.437361 -0.52934134
vn -0.08961892 0.7245413 0.68338007
vn 0.002200663 0.5662991 -0.82419693
vn -0.036871433 0.8417578 -0.5385947
vn -0.003660202 0.8124536 0.5830143
vn 0.09597385 0.7206341 0.68664074
vn 0.013922334 0.0075674057 -0.9998744
vn -0.23613942 0.0017066002 -0.9717177
vn -0.2927941 0.083758116 -0.9525
vn 0.04322642 0.8417578 -0.538122
vn -0.67374754 0.32405174 0.66411954
vn -0.7225877 0.4451754 -0.52885336
vn -0.9179485 -0.10378826 0.3828819
vn -0.6483506 0.05640757 -0.7592494
vn -0.7069589 0.052500367 -0.7053033
vn -0.9972633 0.07393193 -0
vn 0.27765936 0.10915494 -0.95445824
vn 0.94526076 -0.32631576 -0
vn 0.8965182 0.44300696 -0
vn 0.7895045 -0.28547376 -0.5433114
vn -0.35140228 -0.7191746 -0.59941995
vn 0.004154265 -0.18583977 -0.98257124
vn -0.41196418 -0.9106282 0.032277387
vn 0.05299449 -0.9985405 0.010412533
vn -0.9179485 -0.10378826 0.3828819
vn -0.67374754 0.32405174 0.66411954
vn 0.09597385 0.7206341 0.68664074
vn -0.003660202 0.8124536 0.5830143
vn 0.9184426 -0.101834655 0.382221
vn -0.08961892 0.7245413 0.68338007
vn 0.67619526 0.31623733 0.6653976
vn 0.05299449 -0.9985405 0.010412533
vn 0.004154265 -0.18583977 -0.98257124
vn 0.38706136 -0.7054994 -0.5936784
vn 0.4456696 -0.8949993 0.018836837
vn -0.2927941 0.083758116 -0.9525
vn -0.7753351 -0.3167315 -0.5463851
vn -0.9296701 -0.36752528 0.025272388
vn -0.9296701 0.3670311 -0.031649422
g febg_hotspring_001_wreath_01_0
f 3/3/3 2/2/2 1/1/1
f 4/4/4 3/3/3 1/1/1
f 5/5/5 3/3/3 4/4/4
f 4/4/4 1/1/1 6/6/6
f 7/7/7 5/5/5 4/4/4
f 8/8/8 5/5/5 7/7/7
f 9/9/9 4/4/4 6/6/6
f 7/7/7 4/4/4 9/9/9
f 10/10/10 8/8/8 7/7/7
f 11/11/11 8/8/8 10/10/10
f 12/12/12 11/11/11 10/10/10
f 10/10/10 7/7/7 13/13/13
f 13/13/13 7/7/7 9/9/9
f 14/14/14 9/9/9 6/6/6
f 15/15/15 14/14/14 6/6/6
f 12/12/12 10/10/10 16/16/16
f 16/16/16 10/10/10 13/13/13
f 17/17/17 13/13/13 9/9/9
f 14/14/14 17/17/17 9/9/9
f 18/18/18 17/17/17 14/14/14
f 19/19/19 18/18/18 14/14/14
f 18/18/18 20/20/20 17/17/17
f 17/17/17 21/21/21 13/13/13
f 20/20/20 21/21/21 17/17/17
f 21/21/21 16/16/16 13/13/13
f 20/20/20 22/22/22 21/21/21
f 22/22/22 23/23/23 21/21/21
f 21/21/21 23/23/23 16/16/16
f 22/22/22 24/24/24 23/23/23
f 25/25/25 12/12/12 16/16/16
f 23/23/23 25/25/25 16/16/16
f 26/26/26 12/12/12 25/25/25
f 24/24/24 27/27/27 23/23/23
f 23/23/23 27/27/27 25/25/25
f 24/24/24 28/28/28 27/27/27
f 29/29/29 26/26/26 25/25/25
f 27/27/27 29/29/29 25/25/25
f 30/30/30 26/26/26 29/29/29
f 28/28/28 31/31/31 27/27/27
f 27/27/27 31/31/31 29/29/29
f 28/28/28 32/32/32 31/31/31
f 31/31/31 33/33/33 29/29/29
f 33/33/33 30/30/30 29/29/29
f 32/32/32 34/34/34 31/31/31
f 31/31/31 34/34/34 33/33/33
f 32/32/32 35/35/35 34/34/34
f 35/35/35 36/36/36 34/34/34
f 35/35/35 37/37/37 36/36/36
f 37/37/37 38/38/38 36/36/36
f 34/34/34 39/39/39 33/33/33
f 34/34/34 36/36/36 39/39/39
f 40/40/40 30/30/30 33/33/33
f 39/39/39 40/40/40 33/33/33
f 36/36/36 38/38/38 41/41/41
f 36/36/36 41/41/41 39/39/39
f 40/40/40 42/42/42 30/30/30
f 42/42/42 43/43/43 30/30/30
f 44/44/44 42/42/42 40/40/40
f 45/45/45 40/40/40 39/39/39
f 45/45/45 44/44/44 40/40/40
f 41/41/41 45/45/45 39/39/39
f 46/46/46 44/44/44 45/45/45
f 47/47/47 46/46/46 45/45/45
f 47/47/47 45/45/45 41/41/41
f 48/48/48 46/46/46 47/47/47
f 49/49/49 48/48/48 47/47/47
f 38/38/38 50/50/50 41/41/41
f 50/50/50 47/47/47 41/41/41
f 49/49/49 47/47/47 50/50/50
f 38/38/38 51/51/51 50/50/50
f 52/52/52 49/49/49 50/50/50
f 51/51/51 52/52/52 50/50/50
f 55/55/55 54/54/54 53/53/53
f 56/56/56 55/55/55 53/53/53
f 53/53/53 57/57/57 56/56/56
f 58/58/58 55/55/55 56/56/56
f 56/56/56 57/57/57 59/59/59
f 57/57/57 60/60/60 59/59/59
f 61/61/61 58/58/58 56/56/56
f 56/56/56 59/59/59 61/61/61
f 62/62/62 58/58/58 61/61/61
f 59/59/59 63/63/63 61/61/61
f 61/61/61 63/63/63 64/64/64
f 64/64/64 62/62/62 61/61/61
f 65/65/65 62/62/62 64/64/64
f 63/63/63 65/65/65 64/64/64
f 66/66/66 65/65/65 63/63/63
f 60/60/60 67/67/67 59/59/59
f 67/67/67 63/63/63 59/59/59
f 60/60/60 68/68/68 67/67/67
f 67/67/67 68/68/68 63/63/63
f 69/69/69 68/68/68 60/60/60
f 70/70/70 66/66/66 63/63/63
f 71/71/71 66/66/66 70/70/70
f 72/72/72 70/70/70 63/63/63
f 72/72/72 71/71/71 70/70/70
f 68/68/68 72/72/72 63/63/63
f 73/73/73 71/71/71 72/72/72
f 74/74/74 68/68/68 69/69/69
f 74/74/74 72/72/72 68/68/68
f 74/74/74 73/73/73 72/72/72
f 75/75/75 74/74/74 69/69/69
f 76/76/76 73/73/73 74/74/74
f 75/75/75 76/76/76 74/74/74
f 79/79/79 78/78/78 77/77/77
f 78/78/78 80/80/80 77/77/77
f 80/80/80 81/81/81 77/77/77
f 80/80/80 78/78/78 81/81/81
f 81/81/81 82/82/82 77/77/77
f 78/78/78 83/83/83 81/81/81
f 84/84/84 82/82/82 81/81/81
f 83/83/83 84/84/84 81/81/81
f 87/87/87 86/86/86 85/85/85
f 88/88/88 87/87/87 85/85/85
f 90/90/90 88/88/88 89/89/89
f 91/91/91 90/90/90 89/89/89
f 94/94/94 93/93/93 92/92/92
f 95/95/95 94/94/94 92/92/92
f 93/93/93 94/94/94 96/96/96
f 94/94/94 95/95/95 97/97/97
f 94/94/94 97/97/97 96/96/96
f 95/95/95 98/98/98 97/97/97
f 96/96/96 97/97/97 99/99/99
f 97/97/97 98/98/98 99/99/99
