g febg_mothership_001_croissant_01
v 0.18140994 0.013474017 -0.063720405
v 0.20465629 0.009459227 -0.16672611
v 0.16943014 0.06644598 -0.19910187
v 0.13771708 0.08042586 -0.1066328
v 0.16895907 -0.010763079 -0.046501547
v 0.19579236 0.11352551 -0.21765742
v 0.116728306 0.074813545 -0.10072772
v 0.087047935 -0.010472298 0.080037296
v 0.1611983 0.16099697 -0.12009169
v 0.24831721 0.14141342 -0.2196555
v 0.061953872 0.07399315 -0.0074721873
v 0.06871125 -0.03373596 0.06634417
v 0.13907374 0.17708272 -0.11421923
v 0.03462687 0.062429875 -0.021103412
v 0.011630684 -0.033678055 0.09814039
v 0.22544679 0.21950406 -0.103703216
v 0.090551704 0.19932902 -0.022440135
v -0.042866945 0.062202305 0.022268057
v 0.011240125 -0.010472298 0.12159768
v 0.2175197 0.24963623 -0.09176466
v -0.049019545 0.07393992 0.0533863
v -0.13949785 -0.01076439 0.12260169
v -0.15714186 0.07470375 0.049388796
v -0.1607182 0.013466686 0.12383726
v -0.17340058 0.08042121 0.06391895
v -0.2600584 0.009455234 0.08804023
v -0.26841068 0.066443324 0.04092875
v -0.1806224 0.17685115 0.06044045
v -0.19738287 0.16097033 0.07605311
v -0.29823214 0.113532186 0.053173363
v -0.2180782 0.219518 0.13825229
v -0.32817 0.1414327 0.09638253
v -0.20395327 0.24955839 0.13792628
v -0.07708573 0.19915003 0.06872949
v -0.09088066 0.29117066 0.15113965
v -0.19604081 0.23893124 0.23818403
v -0.07003826 0.21091825 0.036560655
v -0.2212174 0.21174997 0.22007096
v -0.06997305 0.32042456 0.1320864
v -0.037528098 0.21433622 0.023801059
v -0.014501989 0.33245158 0.1157099
v -0.031348914 0.31328058 0.2805149
v 0.03364879 0.21511465 -0.016866416
v 0.10110165 0.33532196 0.05173686
v 0.06362924 0.21098614 -0.037203133
v 0.14742336 0.31981903 0.013145328
v 0.16858512 0.29117733 0.011300266
v -0.068977 0.28241384 0.273512
v 0.04813233 0.32927114 0.27378613
v 0.25794896 0.2824937 0.09376499
v 0.29662967 0.2389785 -0.032175004
v 0.2514038 0.31233042 0.12149587
v 0.20252249 0.33298254 0.19071591
v 0.29486847 0.21178055 -0.063124895
v 0.2897685 0.13255084 -0.20659648
v 0.26216003 0.071994424 -0.20832908
v 0.19579236 0.11352551 -0.21765742
v 0.16943014 0.06644598 -0.19910187
v 0.20465629 0.009459227 -0.16672611
v 0.24885881 -1.3500452E-05 -0.1556512
v 0.30842784 0.036995143 -0.16094214
v 0.31606683 0.08772352 -0.181726
v 0.31606683 0.08772352 -0.181726
v 0.3308538 0.14152652 -0.035791904
v 0.30842784 0.036995143 -0.16094214
v 0.3241057 0.060508966 -0.02289924
v 0.3394336 0.15225548 0.008578956
v 0.33255178 0.0500921 0.022123694
v 0.3051616 0.1809957 0.13423619
v 0.30237305 0.06134534 0.14127037
v 0.30761278 0.19430023 0.17720646
v 0.3044117 0.051477373 0.18333977
v 0.25742733 0.21007127 0.2636041
v 0.25608063 0.05512154 0.26830357
v 0.08419287 0.05693999 0.35803002
v 0.079692364 0.20854622 0.356521
v -0.0065276325 0.05226049 0.35824627
v -0.013041526 0.1953615 0.35763943
v -0.06032002 0.18093115 0.33481228
v -0.05292985 0.06133002 0.33605915
v -0.18471569 0.15219358 0.2960524
v -0.16961336 0.05006948 0.29743034
v -0.21751595 0.14150989 0.26495546
v -0.2030291 0.060508966 0.26609725
v -0.33260864 0.08772087 0.17390227
v -0.31098044 0.036995143 0.1786403
v -0.33943385 0.13254815 0.13835675
v -0.32058686 0.050159305 0.09851566
v -0.33260864 0.08772087 0.17390227
v -0.29823214 0.113532186 0.053173363
v -0.31098044 0.036995143 0.1786403
v -0.26841068 0.066443324 0.04092875
v -0.27448875 -1.4841557E-05 0.13126403
v -0.2600584 0.009455234 0.08804023
vt 0.116333924 0.95165074
vt 0.110915974 0.9534666
vt 0.110915974 0.95747054
vt 0.116467886 0.95680076
vt 0.117480025 0.9502962
vt 0.10978475 0.960507
vt 0.118045636 0.9563542
vt 0.12530926 0.9475426
vt 0.115946926 0.9618168
vt 0.10828142 0.9639602
vt 0.124326885 0.9545681
vt 0.12724423 0.9471556
vt 0.11758422 0.96187633
vt 0.12667863 0.9541662
vt 0.13118863 0.94700676
vt 0.11521759 0.9670859
vt 0.12352312 0.96215916
vt 0.13218589 0.9539429
vt 0.13315338 0.9472896
vt 0.11658696 0.96760684
vt 0.13462694 0.9542108
vt 0.14114635 0.9494627
vt 0.14101239 0.95553553
vt 0.14238176 0.9507279
vt 0.14260502 0.9558779
vt 0.14791879 0.9521717
vt 0.14820158 0.9561607
vt 0.1418608 0.961013
vt 0.1434981 0.96084934
vt 0.1495412 0.9591078
vt 0.14458466 0.9660142
vt 0.15129757 0.962442
vt 0.14325994 0.9666245
vt 0.13595167 0.9617275
vt 0.13746989 0.9688721
vt 0.14459953 0.9718936
vt 0.13400179 0.96168286
vt 0.14610288 0.9707475
vt 0.13589212 0.9688869
vt 0.1319924 0.96178705
vt 0.13328734 0.9694079
vt 0.13733593 0.9766418
vt 0.12743774 0.9619657
vt 0.12660421 0.9697056
vt 0.12535392 0.9620103
vt 0.12379105 0.9693484
vt 0.12251098 0.9694674
vt 0.13889879 0.97598684
vt 0.13434413 0.9779367
vt 0.12158814 0.9765673
vt 0.115619466 0.97287595
vt 0.1227789 0.9770139
vt 0.1261428 0.9782344
vt 0.114041716 0.97183406
vt 0.10701624 0.96646076
vt 0.10438169 0.9639899
vt 0.10728416 0.96081954
vt 0.104724035 0.95891434
vt 0.10080942 0.9602837
vt 0.09966331 0.96263546
vt 0.10103268 0.96631193
vt 0.10393515 0.967339
vt 0.10509615 0.9695865
vt 0.11112436 0.9757189
vt 0.1030272 0.9720127
vt 0.10756697 0.9785916
vt 0.11273188 0.97778785
vt 0.108772606 0.98174715
vt 0.11835821 0.9825211
vt 0.11422033 0.9876265
vt 0.12029319 0.98395
vt 0.11701861 0.9907671
vt 0.12521996 0.98563194
vt 0.12416316 0.9934612
vt 0.13727638 0.9928956
vt 0.13574328 0.985245
vt 0.14391485 0.9900378
vt 0.14020863 0.9834142
vt 0.14251572 0.9816429
vt 0.14693642 0.9864655
vt 0.1478146 0.9765673
vt 0.15202689 0.9802587
vt 0.14927328 0.9744091
vt 0.15300927 0.9770436
vt 0.15488473 0.96787477
vt 0.1571025 0.97015214
vt 0.15274134 0.9649128
vt 0.15606058 0.96111727
vt 0.15595639 0.96571654
vt 0.15214598 0.9591376
vt 0.15890351 0.9644811
vt 0.15470609 0.9570687
vt 0.16009429 0.9606409
vt 0.15878445 0.95824456
vn -0.3618039 -0.65246594 -0.66587245
vn -0.39561296 -0.67312694 -0.62481236
vn -0.6754763 -0.3031063 -0.6722041
vn -0.5853189 -0.31249768 -0.7481624
vn -0.48389196 -0.65246594 -0.58321244
vn -0.470744 0.19839382 -0.85967433
vn -0.57968414 -0.31625426 -0.7509657
vn 0.20167929 -0.6543442 -0.7288066
vn -0.44632638 0.34489942 -0.8257343
vn 0.0363909 0.4763788 -0.87848675
vn -0.07630575 -0.45149022 -0.88900733
vn 0.1547224 -0.65246594 -0.7418552
vn -0.51018786 0.32799494 -0.79506457
vn -0.00305295 -0.37260258 -0.927986
vn -0.69425905 -0.6581007 -0.29138952
vn 0.14157444 0.6435455 -0.75220066
vn -0.14768028 0.23595929 -0.9604758
vn -0.7656336 -0.37448084 -0.5230385
vn -0.69989383 -0.66561383 -0.25904995
vn 0.04953885 0.75624216 -0.6524137
vn -0.6717197 -0.4420988 -0.59442526
vn -0.2303245 -0.65246594 -0.7219687
vn -0.32236004 -0.31813252 -0.89155805
vn -0.3674388 -0.65246594 -0.6627797
vn -0.31672525 -0.31437594 -0.89490384
vn -0.20215034 -0.7163273 -0.6678401
vn -0.14392376 -0.27868867 -0.94953597
vn -0.39561296 0.32236004 -0.8599851
vn -0.45759606 0.33926463 -0.8218913
vn -0.44256985 0.23783755 -0.86461854
vn -0.7111635 0.64166725 -0.2872448
vn -0.75624216 0.491405 -0.43199408
vn -0.5778059 0.7543639 -0.31156945
vn -0.6698414 0.26976836 -0.69176406
vn -0.6435455 0.7487291 -0.15891473
vn -0.59471035 0.6642066 0.45293397
vn -0.7186767 0.2303245 -0.65609026
vn -0.76751184 0.52145755 0.37283722
vn -0.60034513 0.7656336 -0.23106475
vn -0.42190886 0.34865594 -0.8369181
vn -0.24910724 0.9121392 -0.32549614
vn -0.3618039 0.77126837 0.52368224
vn -0.47825718 0.34677768 -0.8068552
vn -0.13828886 0.9121392 -0.38584757
vn -0.09696686 0.2040286 -0.9741508
vn 0.19228792 0.71492004 -0.672246
vn 0.2880801 0.68298936 -0.6712193
vn -0.5327271 0.65293694 0.53840053
vn 0.051417112 0.86142576 0.5052741
vn 0.7689191 0.5909538 -0.24400203
vn 0.7013011 0.6642066 -0.25885585
vn 0.67688346 0.728068 -0.108377814
vn 0.3951419 0.8651823 0.30874342
vn 0.72571874 0.52145755 -0.44879207
vn 0.60738724 0.35429084 -0.71102655
vn 0.22046208 -0.37260258 -0.9014232
vn -0.470744 0.19839382 -0.85967433
vn -0.6754763 -0.3031063 -0.6722041
vn -0.39561296 -0.67312694 -0.62481236
vn 0.16599202 -0.6017524 -0.781243
vn 0.7501363 -0.39889842 -0.5274235
vn 0.8571981 -0.05893022 -0.51160395
vn 0.8571981 -0.05893022 -0.51160395
vn 0.96989477 0.13265407 -0.20422296
vn 0.7501363 -0.39889842 -0.5274235
vn 0.984921 -0.11152202 -0.13226296
vn 0.9830427 0.17961097 -0.036972042
vn 0.99619067 -0.055173695 0.067528106
vn 0.9792862 0.20215034 0.011567893
vn 0.99619067 -0.02324295 0.08404729
vn 0.9492337 0.2415942 0.2014636
vn 0.96613824 -0.008216739 0.25789413
vn 0.66749215 0.314847 0.67477816
vn 0.69190973 0.0143226385 0.72184193
vn 0.2430014 0.0162009 0.96989065
vn 0.2167055 0.31296873 0.9247104
vn -0.20215034 -0.004460156 0.9793443
vn -0.2415942 0.25849867 0.93531317
vn -0.4181522 0.21905482 0.88156885
vn -0.37307358 -0.017608106 0.92763466
vn -0.5327271 0.17961097 0.82700765
vn -0.47825718 -0.055173695 0.876485
vn -0.6961373 0.13265407 0.7055464
vn -0.6435455 -0.11340028 0.7569607
vn -0.8914782 -0.051417112 0.45013657
vn -0.8276167 -0.39702016 0.39676896
vn -0.9252871 0.3561691 0.13033526
vn -0.82010365 -0.44773364 -0.35632092
vn -0.8914782 -0.051417112 0.45013657
vn -0.44256985 0.23783755 -0.86461854
vn -0.8276167 -0.39702016 0.39676896
vn -0.14392376 -0.27868867 -0.94953597
vn -0.65669346 -0.72947526 -0.19136234
vn -0.20215034 -0.7163273 -0.6678401
g febg_mothership_001_croissant_01_0
f 3/3/3 2/2/2 1/1/1
f 4/4/4 3/3/3 1/1/1
f 1/1/1 5/5/5 4/4/4
f 6/6/6 3/3/3 4/4/4
f 5/5/5 7/7/7 4/4/4
f 5/5/5 8/8/8 7/7/7
f 9/9/9 6/6/6 4/4/4
f 4/4/4 7/7/7 9/9/9
f 10/10/10 6/6/6 9/9/9
f 8/8/8 11/11/11 7/7/7
f 8/8/8 12/12/12 11/11/11
f 7/7/7 13/13/13 9/9/9
f 7/7/7 11/11/11 13/13/13
f 12/12/12 14/14/14 11/11/11
f 14/14/14 12/12/12 15/15/15
f 16/16/16 10/10/10 9/9/9
f 9/9/9 13/13/13 16/16/16
f 11/11/11 17/17/17 13/13/13
f 11/11/11 14/14/14 17/17/17
f 18/18/18 14/14/14 15/15/15
f 18/18/18 15/15/15 19/19/19
f 13/13/13 20/20/20 16/16/16
f 13/13/13 17/17/17 20/20/20
f 21/21/21 18/18/18 19/19/19
f 21/21/21 19/19/19 22/22/22
f 23/23/23 21/21/21 22/22/22
f 23/23/23 22/22/22 24/24/24
f 25/25/25 23/23/23 24/24/24
f 24/24/24 26/26/26 25/25/25
f 26/26/26 27/27/27 25/25/25
f 28/28/28 23/23/23 25/25/25
f 21/21/21 23/23/23 28/28/28
f 29/29/29 25/25/25 27/27/27
f 29/29/29 28/28/28 25/25/25
f 30/30/30 29/29/29 27/27/27
f 29/29/29 30/30/30 31/31/31
f 30/30/30 32/32/32 31/31/31
f 33/33/33 28/28/28 29/29/29
f 31/31/31 33/33/33 29/29/29
f 34/34/34 21/21/21 28/28/28
f 33/33/33 35/35/35 28/28/28
f 35/35/35 34/34/34 28/28/28
f 36/36/36 33/33/33 31/31/31
f 35/35/35 33/33/33 36/36/36
f 34/34/34 37/37/37 21/21/21
f 37/37/37 18/18/18 21/21/21
f 38/38/38 31/31/31 32/32/32
f 38/38/38 36/36/36 31/31/31
f 35/35/35 39/39/39 34/34/34
f 39/39/39 37/37/37 34/34/34
f 40/40/40 18/18/18 37/37/37
f 39/39/39 41/41/41 37/37/37
f 41/41/41 40/40/40 37/37/37
f 42/42/42 39/39/39 35/35/35
f 41/41/41 39/39/39 42/42/42
f 18/18/18 40/40/40 43/43/43
f 14/14/14 18/18/18 43/43/43
f 41/41/41 44/44/44 40/40/40
f 44/44/44 43/43/43 40/40/40
f 45/45/45 14/14/14 43/43/43
f 14/14/14 45/45/45 17/17/17
f 46/46/46 45/45/45 43/43/43
f 44/44/44 46/46/46 43/43/43
f 17/17/17 45/45/45 47/47/47
f 45/45/45 46/46/46 47/47/47
f 17/17/17 47/47/47 20/20/20
f 48/48/48 42/42/42 35/35/35
f 48/48/48 35/35/35 36/36/36
f 49/49/49 41/41/41 42/42/42
f 41/41/41 49/49/49 44/44/44
f 47/47/47 46/46/46 50/50/50
f 20/20/20 47/47/47 51/51/51
f 47/47/47 50/50/50 51/51/51
f 52/52/52 46/46/46 44/44/44
f 46/46/46 52/52/52 50/50/50
f 49/49/49 53/53/53 44/44/44
f 53/53/53 52/52/52 44/44/44
f 20/20/20 51/51/51 54/54/54
f 16/16/16 20/20/20 54/54/54
f 54/54/54 55/55/55 16/16/16
f 55/55/55 10/10/10 16/16/16
f 55/55/55 56/56/56 10/10/10
f 10/10/10 56/56/56 57/57/57
f 57/57/57 56/56/56 58/58/58
f 58/58/58 56/56/56 59/59/59
f 59/59/59 56/56/56 60/60/60
f 60/60/60 56/56/56 61/61/61
f 61/61/61 56/56/56 62/62/62
f 62/62/62 56/56/56 55/55/55
f 63/63/63 55/55/55 54/54/54
f 64/64/64 63/63/63 54/54/54
f 54/54/54 51/51/51 64/64/64
f 65/65/65 63/63/63 64/64/64
f 66/66/66 65/65/65 64/64/64
f 51/51/51 67/67/67 64/64/64
f 64/64/64 67/67/67 66/66/66
f 51/51/51 50/50/50 67/67/67
f 67/67/67 68/68/68 66/66/66
f 50/50/50 69/69/69 67/67/67
f 67/67/67 69/69/69 68/68/68
f 50/50/50 52/52/52 69/69/69
f 69/69/69 70/70/70 68/68/68
f 52/52/52 71/71/71 69/69/69
f 69/69/69 71/71/71 70/70/70
f 71/71/71 52/52/52 53/53/53
f 71/71/71 72/72/72 70/70/70
f 73/73/73 71/71/71 53/53/53
f 72/72/72 71/71/71 73/73/73
f 74/74/74 72/72/72 73/73/73
f 73/73/73 53/53/53 49/49/49
f 75/75/75 74/74/74 73/73/73
f 76/76/76 73/73/73 49/49/49
f 76/76/76 75/75/75 73/73/73
f 76/76/76 49/49/49 42/42/42
f 75/75/75 76/76/76 77/77/77
f 78/78/78 76/76/76 42/42/42
f 76/76/76 78/78/78 77/77/77
f 78/78/78 42/42/42 48/48/48
f 77/77/77 78/78/78 79/79/79
f 79/79/79 78/78/78 48/48/48
f 80/80/80 77/77/77 79/79/79
f 79/79/79 48/48/48 36/36/36
f 79/79/79 81/81/81 80/80/80
f 81/81/81 79/79/79 36/36/36
f 81/81/81 82/82/82 80/80/80
f 81/81/81 36/36/36 38/38/38
f 82/82/82 81/81/81 83/83/83
f 83/83/83 81/81/81 38/38/38
f 84/84/84 82/82/82 83/83/83
f 84/84/84 83/83/83 85/85/85
f 86/86/86 84/84/84 85/85/85
f 87/87/87 85/85/85 83/83/83
f 38/38/38 87/87/87 83/83/83
f 87/87/87 38/38/38 32/32/32
f 32/32/32 88/88/88 87/87/87
f 87/87/87 88/88/88 89/89/89
f 90/90/90 88/88/88 32/32/32
f 89/89/89 88/88/88 91/91/91
f 92/92/92 88/88/88 90/90/90
f 91/91/91 88/88/88 93/93/93
f 94/94/94 88/88/88 92/92/92
f 93/93/93 88/88/88 94/94/94
