g febg_shop_001_menu_01
v 8.945708 7.448223 23.584616
v 8.75534 7.4911804 23.872396
v 8.896884 6.5556507 23.872396
v 8.953377 7.8564644 23.584616
v 8.763321 7.919178 23.872396
v 9.263538 8.315134 23.584616
v 10.059479 8.575218 23.584616
v 9.088505 8.400028 23.872396
v 9.922981 8.67267 23.872396
v 9.080759 6.5558853 23.584616
v 10.4133005 4.4321747 23.584616
v 8.684686 5.9554768 23.872396
v 8.878341 5.98341 23.584616
v 8.6127 4.913418 23.872396
v 8.809681 4.9894314 23.584616
v 8.98487 4.4560394 23.872396
v 9.164676 4.5531406 23.584616
v 10.39636 4.3292046 23.872396
v 11.004281 4.6378784 23.872396
v 11.017075 4.7380314 23.584616
v 11.867161 4.4823284 23.872396
v 10.879872 8.554522 23.584616
v 10.783045 8.650959 23.872396
v 11.599095 8.384771 23.584616
v 11.5370865 8.47303 23.872396
v 11.913951 4.5782185 23.584616
v 12.520502 4.4470406 23.872396
v 11.919781 8.729086 23.584616
v 11.873264 8.833973 23.872396
v 12.5371685 4.544573 23.584616
v 12.881443 4.649851 23.872396
v 12.881443 8.729086 23.584616
v 12.881443 8.833973 23.872396
v 12.881443 4.7379932 23.584616
v 13.242385 4.4470406 23.872396
v 13.225719 4.544573 23.584616
v 13.895726 4.4823284 23.872396
v 13.843145 8.729086 23.584616
v 13.889662 8.833973 23.872396
v 13.848936 4.5782185 23.584616
v 14.758606 4.6378784 23.872396
v 14.163792 8.384771 23.584616
v 14.22584 8.47303 23.872396
v 14.745813 4.7380314 23.584616
v 15.366526 4.3292046 23.872396
v 15.3495865 4.4321747 23.584616
v 15.703407 8.575218 23.584616
v 16.778017 4.4560394 23.872396
v 14.883015 8.554522 23.584616
v 14.979842 8.650959 23.872396
v 15.839905 8.67267 23.872396
v 16.598211 4.5531406 23.584616
v 17.150187 4.913418 23.872396
v 16.953207 4.9894314 23.584616
v 17.078201 5.9554768 23.872396
v 16.884586 5.98341 23.584616
v 16.866003 6.5556507 23.872396
v 16.682167 6.5558853 23.584616
v 17.007547 7.4911804 23.872396
v 16.817179 7.448223 23.584616
v 16.999565 7.919178 23.872396
v 16.49935 8.315134 23.584616
v 16.674381 8.400028 23.872396
v 16.80955 7.8564644 23.584616
vt 0.52793396 0.963375
vt 0.53590614 0.96496636
vt 0.5339661 0.942535
vt 0.52717614 0.9728325
vt 0.53469366 0.9759395
vt 0.51970404 0.98310846
vt 0.5012588 0.9890952
vt 0.5259333 0.98814034
vt 0.5054116 0.9956579
vt 0.52559984 0.9420652
vt 0.49430203 0.891337
vt 0.53816444 0.9280456
vt 0.52996486 0.92846996
vt 0.5389677 0.90237075
vt 0.5313744 0.9055081
vt 0.52910095 0.890276
vt 0.52320516 0.8957323
vt 0.49459 0.8845166
vt 0.47929728 0.89039725
vt 0.47940338 0.8978996
vt 0.4592 0.8872296
vt 0.48243463 0.988489
vt 0.48454136 0.99571854
vt 0.46517158 0.9849121
vt 0.4673844 0.9921871
vt 0.457745 0.8942318
vt 0.44333133 0.88644147
vt 0.4565628 0.9920052
vt 0.45832095 0.99888617
vt 0.44304335 0.89330727
vt 0.43413144 0.8891393
vt 0.43413144 0.9920052
vt 0.43413144 0.99888617
vt 0.43413144 0.89796025
vt 0.42494673 0.88644147
vt 0.4252347 0.89330727
vt 0.40907806 0.8872296
vt 0.41171527 0.9920052
vt 0.4099571 0.99888617
vt 0.41053307 0.8942318
vt 0.38896564 0.89039725
vt 0.40310648 0.9849121
vt 0.4008785 0.9921871
vt 0.38885954 0.8978996
vt 0.3736729 0.8845318
vt 0.37396085 0.891337
vt 0.36700413 0.9890952
vt 0.33916196 0.890276
vt 0.38582826 0.988489
vt 0.3837367 0.99571854
vt 0.3628513 0.9956579
vt 0.34505776 0.8957323
vt 0.3292952 0.90237075
vt 0.33688852 0.9055081
vt 0.33009848 0.9280456
vt 0.33829805 0.92846996
vt 0.3342968 0.942535
vt 0.34266308 0.9420652
vt 0.3323416 0.96496636
vt 0.340329 0.963375
vt 0.3335693 0.9759395
vt 0.34855887 0.98310846
vt 0.34232962 0.98814034
vt 0.34107167 0.9728325
vn -0.4958229 -0.037926316 -0.8675951
vn -0.8354815 -0.047257602 -0.5474827
vn -0.83921397 0.087112784 -0.5367786
vn -0.49955547 0.15803051 -0.85174567
vn -0.7832264 0.24947715 -0.5694889
vn -0.31292987 0.4752941 -0.8222958
vn -0.06285155 0.60219955 -0.7958677
vn -0.5443456 0.6563209 -0.5224277
vn -0.16736186 0.90639925 -0.38785356
vn -0.41744018 0.03672391 -0.907962
vn 0.13497162 -0.62766325 -0.76669514
vn -0.8261502 0.15803051 -0.5408347
vn -0.49955547 0.11324036 -0.85884863
vn -0.76643 -0.24881327 -0.59217983
vn -0.5070205 -0.15550047 -0.84779114
vn -0.45103276 -0.72470856 -0.5209289
vn -0.22708201 -0.55114675 -0.8029141
vn 0.15923297 -0.9299967 -0.3312868
vn 0.1573667 -0.93372923 -0.32153606
vn 0.06405389 -0.48769403 -0.8706616
vn -0.11324036 -0.93746173 -0.32915363
vn 0.09578025 0.620862 -0.77804655
vn 0.10137904 0.9530556 -0.28531966
vn -0.13376927 0.39691138 -0.9080568
vn -0.23641336 0.91386425 -0.33009222
vn -0.06658399 -0.5903381 -0.80440503
vn 0.19655812 -0.93186295 -0.30495304
vn -0.25694215 0.5928682 -0.763209
vn -0.3707838 0.85227776 -0.36897427
vn 0.16296548 -0.63139576 -0.75814354
vn 0.00060123205 -0.9561243 -0.2929607
vn 0.00060123205 0.57420564 -0.81871086
vn 0.00060123205 0.93999183 -0.34119645
vn 0.00060123205 -0.44103765 -0.8974884
vn -0.197222 -0.93186295 -0.30452412
vn -0.1636293 -0.63139576 -0.75800055
vn 0.112576544 -0.93746173 -0.32938126
vn 0.25814456 0.5928682 -0.7628032
vn 0.37198615 0.85227776 -0.36776203
vn 0.065920174 -0.5903381 -0.8044597
vn -0.15616429 -0.93372923 -0.3221218
vn 0.1331054 0.39691138 -0.9081543
vn 0.23574948 0.91386425 -0.33056667
vn -0.06285155 -0.48769403 -0.87074924
vn -0.15989685 -0.9299967 -0.3309669
vn -0.1356355 -0.62766325 -0.766578
vn 0.06218767 0.60219955 -0.79591984
vn 0.45223516 -0.72470856 -0.5198854
vn -0.09457791 0.620862 -0.77819365
vn -0.10204291 0.9530556 -0.28508288
vn 0.16856426 0.90639925 -0.38733256
vn 0.22828442 -0.55114675 -0.802573
vn 0.7676324 -0.24881327 -0.59062034
vn 0.5063566 -0.15550047 -0.8481878
vn 0.82548636 0.15803051 -0.54184747
vn 0.49889156 0.11324036 -0.85923445
vn 0.84041643 0.087112784 -0.534894
vn 0.41864258 0.03672391 -0.90740824
vn 0.8366839 -0.047257602 -0.54564345
vn 0.49515906 -0.037926316 -0.86797416
vn 0.7825625 0.24947715 -0.57040083
vn 0.3141322 0.4752941 -0.82183725
vn 0.54368174 0.6563209 -0.52311856
vn 0.5007578 0.15803051 -0.85103935
g febg_shop_001_menu_01_0
f 3/3/3 2/2/2 1/1/1
f 1/1/1 2/2/2 4/4/4
f 2/2/2 5/5/5 4/4/4
f 4/4/4 5/5/5 6/6/6
f 4/4/4 6/6/6 1/1/1
f 6/6/6 7/7/7 1/1/1
f 5/5/5 8/8/8 6/6/6
f 6/6/6 8/8/8 7/7/7
f 8/8/8 9/9/9 7/7/7
f 10/10/10 3/3/3 1/1/1
f 10/10/10 1/1/1 7/7/7
f 11/11/11 10/10/10 7/7/7
f 12/12/12 3/3/3 10/10/10
f 13/13/13 12/12/12 10/10/10
f 11/11/11 13/13/13 10/10/10
f 14/14/14 12/12/12 13/13/13
f 15/15/15 14/14/14 13/13/13
f 11/11/11 15/15/15 13/13/13
f 16/16/16 14/14/14 15/15/15
f 17/17/17 16/16/16 15/15/15
f 11/11/11 17/17/17 15/15/15
f 18/18/18 16/16/16 17/17/17
f 11/11/11 18/18/18 17/17/17
f 19/19/19 18/18/18 11/11/11
f 20/20/20 19/19/19 11/11/11
f 20/20/20 11/11/11 7/7/7
f 21/21/21 19/19/19 20/20/20
f 22/22/22 20/20/20 7/7/7
f 7/7/7 9/9/9 22/22/22
f 9/9/9 23/23/23 22/22/22
f 22/22/22 23/23/23 24/24/24
f 20/20/20 22/22/22 24/24/24
f 23/23/23 25/25/25 24/24/24
f 26/26/26 21/21/21 20/20/20
f 20/20/20 24/24/24 26/26/26
f 27/27/27 21/21/21 26/26/26
f 24/24/24 25/25/25 28/28/28
f 24/24/24 28/28/28 26/26/26
f 25/25/25 29/29/29 28/28/28
f 30/30/30 27/27/27 26/26/26
f 30/30/30 26/26/26 28/28/28
f 31/31/31 27/27/27 30/30/30
f 28/28/28 29/29/29 32/32/32
f 30/30/30 28/28/28 32/32/32
f 29/29/29 33/33/33 32/32/32
f 34/34/34 31/31/31 30/30/30
f 34/34/34 30/30/30 32/32/32
f 35/35/35 31/31/31 34/34/34
f 36/36/36 35/35/35 34/34/34
f 36/36/36 34/34/34 32/32/32
f 37/37/37 35/35/35 36/36/36
f 32/32/32 33/33/33 38/38/38
f 38/38/38 36/36/36 32/32/32
f 33/33/33 39/39/39 38/38/38
f 40/40/40 37/37/37 36/36/36
f 40/40/40 36/36/36 38/38/38
f 41/41/41 37/37/37 40/40/40
f 38/38/38 39/39/39 42/42/42
f 40/40/40 38/38/38 42/42/42
f 39/39/39 43/43/43 42/42/42
f 44/44/44 41/41/41 40/40/40
f 44/44/44 40/40/40 42/42/42
f 45/45/45 41/41/41 44/44/44
f 46/46/46 45/45/45 44/44/44
f 46/46/46 44/44/44 47/47/47
f 48/48/48 45/45/45 46/46/46
f 42/42/42 43/43/43 49/49/49
f 49/49/49 44/44/44 42/42/42
f 44/44/44 49/49/49 47/47/47
f 43/43/43 50/50/50 49/49/49
f 49/49/49 50/50/50 47/47/47
f 50/50/50 51/51/51 47/47/47
f 52/52/52 48/48/48 46/46/46
f 53/53/53 48/48/48 52/52/52
f 54/54/54 53/53/53 52/52/52
f 52/52/52 46/46/46 54/54/54
f 55/55/55 53/53/53 54/54/54
f 56/56/56 55/55/55 54/54/54
f 54/54/54 46/46/46 56/56/56
f 57/57/57 55/55/55 56/56/56
f 56/56/56 46/46/46 58/58/58
f 58/58/58 57/57/57 56/56/56
f 58/58/58 46/46/46 47/47/47
f 59/59/59 57/57/57 58/58/58
f 60/60/60 59/59/59 58/58/58
f 60/60/60 58/58/58 47/47/47
f 61/61/61 59/59/59 60/60/60
f 47/47/47 51/51/51 62/62/62
f 60/60/60 47/47/47 62/62/62
f 51/51/51 63/63/63 62/62/62
f 63/63/63 61/61/61 64/64/64
f 64/64/64 61/61/61 60/60/60
f 64/64/64 60/60/60 62/62/62
f 62/62/62 63/63/63 64/64/64
