g febg_christmas_003_light_02
v 0.18180051 0.18816459 -5.9604645E-07
v -0.006728828 -0.0531379 0.17158198
v 0.015044987 0.5703398 -5.9604645E-07
v 0.5929642 0.11882013 -5.9604645E-07
v -0.17796302 0.20072764 5.364418E-07
v 0.28102118 -0.15787101 5.364418E-07
v -0.5929642 0.16023362 5.364418E-07
v 0.3421331 -0.57033986 5.364418E-07
v -0.30107927 -0.13754258 5.364418E-07
v -0.017417789 -0.35916921 5.364418E-07
v -0.39081544 -0.5447444 5.364418E-07
v -0.30107927 -0.13754258 5.364418E-07
v -0.006728828 -0.0531379 -0.17158201
v -0.5929642 0.16023362 5.364418E-07
v -0.39081544 -0.5447444 5.364418E-07
v -0.17796302 0.20072764 5.364418E-07
v -0.017417789 -0.35916921 5.364418E-07
v 0.015044987 0.5703398 -5.9604645E-07
v 0.3421331 -0.57033986 5.364418E-07
v 0.18180051 0.18816459 -5.9604645E-07
v 0.28102118 -0.15787101 5.364418E-07
v 0.5929642 0.11882013 -5.9604645E-07
vt 0.30641183 0.06827377
vt 0.31767696 0.053304397
vt 0.316366 0.09199306
vt 0.28186935 0.06397503
vt 0.32789028 0.06906644
vt 0.30049723 0.046810552
vt 0.3526614 0.06655122
vt 0.296854 0.021216273
vt 0.33523777 0.04806054
vt 0.31830195 0.034310665
vt 0.3406036 0.022801625
vt 0.33523777 0.04806054
vt 0.31767696 0.053304397
vt 0.3526614 0.06655122
vt 0.3406036 0.022801625
vt 0.32789028 0.06906644
vt 0.31830195 0.034310665
vt 0.316366 0.09199306
vt 0.296854 0.021216273
vt 0.30641183 0.06827377
vt 0.30049723 0.046810552
vt 0.28186935 0.06397503
vn 0.6159663 0.78777254 -0
vn -0.0009766817 0.0009766817 0.99999905
vn 0.034192502 0.9993907 -0.0070039006
vn 0.96031433 0.27646863 -0.036898464
vn -0.5594225 0.8288827 -0
vn 0.93882203 -0.34289974 -0.032139517
vn -0.93882155 0.34289932 -0.03215794
vn 0.5594227 -0.82888263 -0
vn -0.9603139 -0.2764691 -0.03690533
vn -0.034192085 -0.9993912 -0.0069397804
vn -0.6159658 -0.7877729 -0
vn -0.9603139 -0.2764691 -0.03690533
vn -0.0009766817 0.0009766817 -0.99999905
vn -0.93882155 0.34289932 -0.03215794
vn -0.6159658 -0.7877729 -0
vn -0.5594225 0.8288827 -0
vn -0.034192085 -0.9993912 -0.0069397804
vn 0.034192502 0.9993907 -0.0070039006
vn 0.5594227 -0.82888263 -0
vn 0.6159663 0.78777254 -0
vn 0.93882203 -0.34289974 -0.032139517
vn 0.96031433 0.27646863 -0.036898464
g febg_christmas_003_light_02_0
f 3/3/3 2/2/2 1/1/1
f 1/1/1 2/2/2 4/4/4
f 5/5/5 2/2/2 3/3/3
f 4/4/4 2/2/2 6/6/6
f 7/7/7 2/2/2 5/5/5
f 6/6/6 2/2/2 8/8/8
f 9/9/9 2/2/2 7/7/7
f 8/8/8 2/2/2 10/10/10
f 11/11/11 2/2/2 9/9/9
f 10/10/10 2/2/2 11/11/11
f 14/14/14 13/13/13 12/12/12
f 12/12/12 13/13/13 15/15/15
f 16/16/16 13/13/13 14/14/14
f 15/15/15 13/13/13 17/17/17
f 18/18/18 13/13/13 16/16/16
f 17/17/17 13/13/13 19/19/19
f 20/20/20 13/13/13 18/18/18
f 19/19/19 13/13/13 21/21/21
f 22/22/22 13/13/13 20/20/20
f 21/21/21 13/13/13 22/22/22
