g fx_common_triangle_particle
v 5.2154064E-08 10.051336 1.0499998
v 9.883253 -0.23531532 1.0499998
v -9.883253 -9.816019 1.05
v 9.883253 -0.23531532 0
v 5.2154064E-08 10.051336 0
v -9.883253 -9.816019 0
v -9.883253 -9.816019 1.05
v -9.883253 -9.816019 0
v 5.2154064E-08 10.051336 0
v 5.2154064E-08 10.051336 1.0499998
v 9.883253 -0.23531532 1.0499998
v 9.883253 -0.23531532 0
v -9.883253 -9.816019 0
v -9.883253 -9.816019 1.05
v 5.2154064E-08 10.051336 1.0499998
v 5.2154064E-08 10.051336 0
v 9.883253 -0.23531532 0
v 9.883253 -0.23531532 1.0499998
vt 0.5000002 1
vt 1 0.48223332
vt 0 0
vt 0 0.48223332
vt 0.49999982 1
vt 1 0
vt 1 1
vt 1 2.9802322E-08
vt 0 2.9802322E-08
vt 0 0.9999999
vt 1 0.9999999
vt 1 2.9802322E-08
vt 0 2.9802322E-08
vt 0 1
vt 1 0.9999999
vt 1 2.9802322E-08
vt 0.48223332 2.9802322E-08
vt 0.48223332 0.9999999
vn -0 0 1
vn -0 0 1
vn -0 0 1
vn -0 0 -1
vn -0 0 -1
vn -0 0 -1
vn -0.8953343 0.44539475 0
vn -0.8953343 0.44539475 0
vn -0.8953343 0.44539475 0
vn -0.8953343 0.44539475 0
vn 0.43616083 -0.8998687 0
vn 0.43616083 -0.8998687 0
vn 0.43616083 -0.8998687 0
vn 0.43616083 -0.8998687 0
vn 0.7211048 0.69282603 0
vn 0.7211048 0.69282603 0
vn 0.7211048 0.69282603 0
vn 0.7211048 0.69282603 0
g fx_common_triangle_particle_0
f 3/3/3 2/2/2 1/1/1
f 6/6/6 5/5/5 4/4/4
f 9/9/9 8/8/8 7/7/7
f 10/10/10 9/9/9 7/7/7
f 13/13/13 12/12/12 11/11/11
f 14/14/14 13/13/13 11/11/11
f 17/17/17 16/16/16 15/15/15
f 18/18/18 17/17/17 15/15/15
