g fx_fbx_febg_tropical_003_wave_08
v -0.72812897 0.0214569 0.62880385
v -0.70051324 0.031092158 0.32355213
v -0.5559734 0.025841195 0.30944428
v -0.48166344 0.014953009 0.62159055
v -0.75574493 -0.042143095 0.934056
v -0.40735322 -0.049899917 0.9337368
v -0.41483474 0.026376309 0.2860178
v -0.27449313 0.014953027 0.5691807
v -0.1341515 -0.05043499 0.8523435
v -7.363891E-05 -0.05043497 0.5723528
v -0.11662369 0.026415363 0.3589554
v -0.23317394 0.026376357 0.14555758
v -0.05772206 0.026376357 0.10602899
v 0.090988435 0.014953066 0.32984692
v 0.23969874 -0.05043496 0.5536646
v 0.048448786 0.026376367 0.025875358
v 0.33734646 0.03965187 0.22376966
v 0.6262443 -0.050434943 0.42166418
v 0.75574493 -0.050434943 -0.05715872
v 0.13167995 0.026376378 -0.09060862
v 0.42617437 0.05043499 -0.07756154
v 0.5586736 -0.050434865 -0.37629136
v 0.34902152 0.03745879 -0.35954297
v 0.3312606 0.014953215 -0.61919844
v 0.09766787 0.026376458 -0.33429742
v 0.6428627 -0.050434817 -0.7021077
v 0.01965849 0.037188765 -0.53628933
v 0.49769908 -0.050434787 -0.934056
v -0.00022944335 0.04841374 -0.7690566
v 0.24873462 0.014953251 -0.85155636
vt 1.1997094E-05 0.48592782
vt 1.1997094E-05 0.99998903
vt 0.092890665 0.99998903
vt 0.092890665 0.48592782
vt 1.1997094E-05 1.0512706E-05
vt 0.092890665 1.0512706E-05
vt 0.19067957 0.99998903
vt 0.19067957 0.48592782
vt 0.19067957 1.0512706E-05
vt 0.29198992 1.0512706E-05
vt 0.29198992 0.48592782
vt 0.29198992 0.99998903
vt 0.4190845 0.99998903
vt 0.4190845 0.48592782
vt 0.4190845 1.0512706E-05
vt 0.55557567 0.99998903
vt 0.55557567 0.48592782
vt 0.55557567 1.0512706E-05
vt 0.6682737 1.0512706E-05
vt 0.6682737 0.99998903
vt 0.6682737 0.48592782
vt 0.7938982 1.0512706E-05
vt 0.7938982 0.48592782
vt 0.89932746 0.48592782
vt 0.7938982 0.99998903
vt 0.89932746 1.0512706E-05
vt 0.89932746 0.99998903
vt 0.9999956 1.0512706E-05
vt 0.9999956 0.99998903
vt 0.9999956 0.48592782
vn 0.028767748 0.99198943 0.12300148
vn 0.03171383 0.999022 0.03081079
vn 0.019750249 0.99926394 0.032886464
vn 0.029806316 0.9920928 0.12191517
vn 0.026026677 0.97909385 0.20173712
vn 0.041542567 0.97935414 0.19783717
vn -4.4542514E-05 0.99952245 0.03089904
vn 0.0901966 0.98874015 0.11940427
vn 0.12389927 0.9757382 0.18051033
vn 0.14554125 0.96531296 0.21676861
vn 0.06007533 0.9937617 0.09396049
vn 0.011472045 0.9997873 0.017141206
vn -0.0044205347 0.9997018 0.024016226
vn 0.02570476 0.9855106 0.16765504
vn 0.06330868 0.95771974 0.28065065
vn -0.054342005 0.9982338 0.02400236
vn 0.08406868 0.98798406 0.12969184
vn 0.18187645 0.9679211 0.17334822
vn 0.29356903 0.9557351 -0.019689446
vn -0.06405114 0.99793303 -0.0052057165
vn 0.15047057 0.9881958 -0.028770847
vn 0.3058475 0.947809 -0.090086006
vn 0.129978 0.9902344 -0.050413784
vn 0.15918858 0.9867012 -0.03285796
vn -0.021518528 0.99955934 -0.020443413
vn 0.23678316 0.9699794 -0.055440042
vn 0.05610068 0.99833494 -0.013423255
vn 0.19874659 0.9751927 -0.09746256
vn 0.0994857 0.9950368 0.0021082063
vn 0.14883184 0.9877386 -0.04713424
g fx_fbx_febg_tropical_003_wave_08_0
f 3/3/3 2/2/2 1/1/1
f 1/1/1 4/4/4 3/3/3
f 1/1/1 5/5/5 4/4/4
f 6/6/6 4/4/4 5/5/5
f 7/7/7 3/3/3 4/4/4
f 6/6/6 8/8/8 4/4/4
f 4/4/4 8/8/8 7/7/7
f 9/9/9 8/8/8 6/6/6
f 9/9/9 10/10/10 8/8/8
f 8/8/8 11/11/11 7/7/7
f 11/11/11 8/8/8 10/10/10
f 11/11/11 12/12/12 7/7/7
f 13/13/13 12/12/12 11/11/11
f 10/10/10 14/14/14 11/11/11
f 11/11/11 14/14/14 13/13/13
f 15/15/15 14/14/14 10/10/10
f 16/16/16 13/13/13 14/14/14
f 15/15/15 17/17/17 14/14/14
f 14/14/14 17/17/17 16/16/16
f 18/18/18 17/17/17 15/15/15
f 19/19/19 17/17/17 18/18/18
f 20/20/20 16/16/16 17/17/17
f 17/17/17 19/19/19 21/21/21
f 17/17/17 21/21/21 20/20/20
f 21/21/21 19/19/19 22/22/22
f 20/20/20 21/21/21 23/23/23
f 21/21/21 22/22/22 23/23/23
f 24/24/24 23/23/23 22/22/22
f 23/23/23 25/25/25 20/20/20
f 25/25/25 23/23/23 24/24/24
f 22/22/22 26/26/26 24/24/24
f 24/24/24 27/27/27 25/25/25
f 24/24/24 26/26/26 28/28/28
f 24/24/24 29/29/29 27/27/27
f 28/28/28 30/30/30 24/24/24
f 24/24/24 30/30/30 29/29/29
