g fx_fbx_fcbg_arkcity_003_bottom_02_
v -0.18196352 0.007399092 -0.379166
v -0.70213926 0.0039262115 0.23207891
v -0.7993848 0.003926213 0.23207891
v -0.11828442 0.007399069 -0.34742016
v -0.6833708 -0.00684091 0.23207891
v -0.10280483 -0.006840376 -0.34184784
v -0.39624023 -0.00684091 0.23207891
v -0.1220039 -0.006840592 -0.038276054
v -0.11335782 -0.006840592 -0.038276054
v -0.3821899 0.00044283195 0.23207891
v -0.12176271 0.00043193373 -0.024034968
vt 0.58922774 0.5072773
vt 0.89850664 0.8701165
vt 0.9570263 0.8699381
vt 0.55143225 0.52610606
vt 0.88585246 0.8701551
vt 0.54211974 0.5294799
vt 0.7160939 0.87068594
vt 0.5535006 0.71019745
vt 0.5483787 0.71020544
vt 0.7071506 0.87071383
vt 0.5535938 0.71851945
vn -0.00046339203 0.99999714 0.002349711
vn 0.17982154 0.9801624 0.08334302
vn -0.0031522603 0.99974495 0.022362309
vn 0.3804017 0.9106068 0.16152376
vn 0.29890627 0.93592787 0.18626353
vn 0.24430294 0.96479535 0.09739611
vn -0.20696244 0.95528287 -0.21119028
vn -0.060677223 0.98240095 -0.17665413
vn 0.07048253 0.9943421 -0.07947375
vn -0.21233237 0.9530014 -0.21610963
vn 0.14259522 0.9634176 -0.22692096
g fx_fbx_fcbg_arkcity_003_bottom_02__0
f 3/3/3 2/2/2 1/1/1
f 2/2/2 4/4/4 1/1/1
f 2/2/2 5/5/5 4/4/4
f 5/5/5 6/6/6 4/4/4
f 5/5/5 7/7/7 6/6/6
f 7/7/7 8/8/8 6/6/6
f 8/8/8 9/9/9 6/6/6
f 7/7/7 10/10/10 8/8/8
f 9/9/9 8/8/8 11/11/11
f 10/10/10 11/11/11 8/8/8
