g fx_fbx_febg_tropical_001_01_wave_07
v -0.90530556 -0.0035414458 -3.142721
v -1.0389967 -0.012107172 -3.1253672
v -1.02278 -0.045238912 -3.4278908
v -0.80218863 -0.016262807 -3.4413307
v -0.7152943 0.013644438 -3.0860472
v -0.70582396 -0.06415349 -3.7357414
v -0.91085505 -0.0872498 -3.777918
v -0.532168 -0.04626166 -3.587972
v -0.6171322 0.007076384 -3.35709
v -0.3442204 0.032227717 -2.9413762
v -0.31793505 -0.03447315 -3.59406
v -0.34963515 0.015417455 -3.2289581
v 0.0023124074 0.014736255 -2.8447566
v -0.12194798 -0.053643722 -3.6805704
v -0.08299096 0.024340501 -3.3100731
v 0.32670867 0.004856399 -2.9923851
v 0.24538401 -0.035468824 -3.5805902
v 0.2900105 0.0109031275 -3.2858367
v 0.66691506 0.03966496 -2.9348423
v 0.57289267 -0.0502753 -3.7959876
v 0.64411795 0.029950604 -3.3154883
v 0.91877425 0.018610353 -3.013957
v 0.9837078 -0.062054537 -3.8110595
v 0.95430946 0.009365548 -3.4542046
v 1.3868217 0.040182263 -2.8392987
v 1.4093689 -0.03976193 -3.659402
v 1.3844829 0.03436857 -3.2381198
v 1.7800243 0.029927813 -3.1037633
v 1.9614639 -0.079543926 -3.773153
v 1.8682976 0.011256314 -3.457501
v 1.9282594 0.029273603 -3.0912366
v 2.3625147 -0.069101594 -3.6518786
v 2.1267183 0.010029184 -3.400469
v 2.11854 0.030058522 -2.9146512
v 2.5764055 -0.056729518 -3.3968585
v 2.3580189 0.013093308 -3.1398382
v 2.3111408 0.039769154 -2.7208855
v 2.848892 -0.0380696 -3.1524649
v 2.582767 0.018322704 -2.9136262
vt 0.9456523 0.99911326
vt 0.99950004 0.99911326
vt 0.99950004 0.49980667
vt 0.9456523 0.49980667
vt 0.8388013 0.99911326
vt 0.9456523 0.00050009903
vt 0.99950004 0.00050009903
vt 0.8388013 0.00050009903
vt 0.8388013 0.49980667
vt 0.730088 0.99911326
vt 0.730088 0.00050009903
vt 0.730088 0.49980667
vt 0.67353284 0.99911326
vt 0.67353284 0.00050009903
vt 0.67353284 0.49980667
vt 0.6115629 0.99911326
vt 0.6115629 0.00050009903
vt 0.6115629 0.49980667
vt 0.5063033 0.99911326
vt 0.5063033 0.00050009903
vt 0.5063033 0.49980667
vt 0.40568602 0.99911326
vt 0.40568602 0.00050009903
vt 0.40568602 0.49980667
vt 0.29803273 0.99911326
vt 0.29803273 0.00050009903
vt 0.29803273 0.49980667
vt 0.19253424 0.99911326
vt 0.19253424 0.00050009903
vt 0.19253424 0.49980667
vt 0.13467634 0.99911326
vt 0.13467634 0.00050009903
vt 0.13467634 0.49980667
vt 0.09097765 0.99911326
vt 0.09097765 0.00050009903
vt 0.09097765 0.49980667
vt 0.0005 0.99911326
vt 0.0005 0.00050009903
vt 0.0005 0.49980667
vn -0.10057413 0.9914603 -0.08301321
vn -0.11328112 0.98872733 -0.09790583
vn -0.111215554 0.9853711 -0.12913087
vn -0.07222962 0.987983 -0.13664776
vn -0.053480636 0.9970799 -0.05451086
vn -0.05689403 0.9822842 -0.17855191
vn -0.10821577 0.9792087 -0.17157987
vn 0.0048798816 0.9839331 -0.17847072
vn -0.025096526 0.99282277 -0.11693172
vn -6.680087E-05 0.99969745 -0.024595408
vn -0.022698745 0.9850796 -0.17059602
vn -0.010429814 0.9964477 -0.08356541
vn 0.026077352 0.9996557 0.002880247
vn -0.008180125 0.9838741 -0.17867553
vn 0.006684421 0.9950381 -0.099270284
vn -0.020506205 0.9997565 0.008149708
vn -0.018038986 0.98536634 -0.16949297
vn -0.01928684 0.99691916 -0.07602854
vn -0.006481568 0.9999263 -0.010262354
vn -0.023113973 0.985679 -0.16704118
vn -0.012302819 0.9967257 -0.07991627
vn 0.012622419 0.9997019 -0.020896737
vn 0.014567905 0.983512 -0.18025534
vn 0.012480006 0.9922644 -0.123513736
vn -0.014208532 0.999603 -0.024334224
vn 0.0062785703 0.9795394 -0.20115463
vn -0.004859943 0.9961051 -0.08804047
vn 0.018464908 0.99911016 -0.037919417
vn 0.028308187 0.96988463 -0.24191408
vn 0.015788015 0.98709434 -0.15935941
vn 0.022407943 0.9986714 -0.046402548
vn 0.10689066 0.97387177 -0.20037022
vn 0.067245655 0.9869812 -0.14610343
vn 0.029296344 0.9983012 -0.05036411
vn 0.12395556 0.9801294 -0.15485942
vn 0.07431699 0.99200046 -0.10203955
vn 0.025359599 0.997834 -0.0606972
vn 0.09851086 0.98314905 -0.15399262
vn 0.06460251 0.9917412 -0.110797174
g fx_fbx_febg_tropical_001_01_wave_07_0
f 3/3/3 2/2/2 1/1/1
f 4/4/4 3/3/3 1/1/1
f 4/4/4 1/1/1 5/5/5
f 3/3/3 4/4/4 6/6/6
f 7/7/7 3/3/3 6/6/6
f 6/6/6 4/4/4 8/8/8
f 9/9/9 4/4/4 5/5/5
f 4/4/4 9/9/9 8/8/8
f 9/9/9 5/5/5 10/10/10
f 8/8/8 9/9/9 11/11/11
f 12/12/12 9/9/9 10/10/10
f 9/9/9 12/12/12 11/11/11
f 12/12/12 10/10/10 13/13/13
f 11/11/11 12/12/12 14/14/14
f 15/15/15 12/12/12 13/13/13
f 12/12/12 15/15/15 14/14/14
f 15/15/15 13/13/13 16/16/16
f 14/14/14 15/15/15 17/17/17
f 18/18/18 15/15/15 16/16/16
f 15/15/15 18/18/18 17/17/17
f 18/18/18 16/16/16 19/19/19
f 17/17/17 18/18/18 20/20/20
f 21/21/21 18/18/18 19/19/19
f 18/18/18 21/21/21 20/20/20
f 21/21/21 19/19/19 22/22/22
f 20/20/20 21/21/21 23/23/23
f 24/24/24 21/21/21 22/22/22
f 21/21/21 24/24/24 23/23/23
f 24/24/24 22/22/22 25/25/25
f 23/23/23 24/24/24 26/26/26
f 27/27/27 24/24/24 25/25/25
f 24/24/24 27/27/27 26/26/26
f 27/27/27 25/25/25 28/28/28
f 26/26/26 27/27/27 29/29/29
f 30/30/30 27/27/27 28/28/28
f 27/27/27 30/30/30 29/29/29
f 30/30/30 28/28/28 31/31/31
f 29/29/29 30/30/30 32/32/32
f 33/33/33 30/30/30 31/31/31
f 30/30/30 33/33/33 32/32/32
f 33/33/33 31/31/31 34/34/34
f 32/32/32 33/33/33 35/35/35
f 36/36/36 33/33/33 34/34/34
f 33/33/33 36/36/36 35/35/35
f 36/36/36 34/34/34 37/37/37
f 35/35/35 36/36/36 38/38/38
f 39/39/39 36/36/36 37/37/37
f 36/36/36 39/39/39 38/38/38
