g fx_fbx_fcbg_desert004_lava_path
v -0.10774295 -0.23895508 0.044256087
v -0.11010723 -0.22956114 0.028894793
v -0.09823291 -0.23154196 0.030517662
v -0.11833398 -0.23790897 0.042572558
v -0.12460603 -0.2447464 0.057716794
v -0.11504617 -0.24527176 0.05681327
v -0.117396235 -0.2546026 0.07461224
v -0.11071217 -0.25419164 0.07483151
v -0.11364632 -0.26034784 0.09122556
v -0.10941987 -0.26006094 0.09320876
v -0.11953902 0.092137165 -0.00056423625
v -0.12867896 0.11257331 -9.134844E-05
v -0.11133856 0.120255426 -0.0007570982
v -0.09791524 0.09043079 -0.0014705856
v -0.07745902 0.09434741 -0.0023129107
v -0.088015534 0.12207254 -0.0014868785
v -0.0647517 0.11420119 -0.0016790074
v -0.05700772 0.09855981 -0.0023048336
v -0.0403922 0.120398305 -0.0018711362
v -0.027082937 0.10846415 -0.002296757
v -0.02324064 0.135787 -0.0020433997
v -5.7509205E-05 0.11964638 -0.002492596
v 0.009793612 0.1541786 -0.0025704785
v -0.013102483 0.1706114 -0.0019654708
v 0.006989248 0.18855637 -0.002526758
v -0.0089591 0.19393848 -0.0020091408
v 0.012526754 0.22135937 -0.0024883708
v 0.0053209504 0.22280537 -0.0020475267
v 0.1469469 -0.09971809 0.006802164
v 0.10715165 -0.15615405 0.016786339
v 0.09834239 -0.1498556 0.01379048
v 0.16164105 -0.11190428 0.009097896
v 0.1601553 -0.055250347 -0.0014271102
v 0.18946587 -0.0630201 -0.00017920039
v 0.16784057 -0.005040845 -0.0011351149
v 0.20755906 -0.0035285228 -5.849858E-05
v 0.16432081 0.03119906 -0.0011282015
v 0.19225676 0.047461677 -6.503358E-05
v 0.16560349 0.070796125 -0.00043059993
v 0.15301499 0.05972087 -0.0014960966
v 0.14259334 0.091125846 -0.00079616625
v 0.13485937 0.08631085 -0.0018639918
v 0.08326545 0.1321109 -5.7444864E-05
v 0.098121904 0.14677072 0.0011322293
v 0.038750634 0.15369962 -0.0025534718
v 0.06271155 0.17188872 -0.0019841297
v 0.05110795 0.18928409 -0.0019841297
v 0.03027968 0.17328745 -0.0025534718
v 0.043293476 0.21452518 -0.0019841297
v 0.03279626 0.20980218 -0.0025534718
v 0.0391493 0.23311217 -0.0019841297
v 0.023944687 0.22648166 -0.0025534718
v 0.036944672 0.2376828 -0.0036247817
v 0.02174006 0.2310523 -0.0041941237
v 0.019034445 -0.31477588 0.14331529
v 0.013262998 -0.3089144 0.14249149
v 0.029401511 -0.29102007 0.11526474
v 0.03889828 -0.29988664 0.114999376
v 0.04454671 -0.27594706 0.08400932
v 0.054298356 -0.28417242 0.08314331
v 0.05234651 -0.24244837 0.057484597
v 0.066091664 -0.24621293 0.055984844
v 0.048536718 -0.16206522 0.020328157
v 0.08043276 -0.16573733 0.015589818
v 0.020480081 0.23366448 -0.008179785
v 0.020480081 0.23366448 -0.03675926
v 0.035684694 0.240295 -0.03618992
v 0.035684694 0.240295 -0.0076104426
v 0.036944672 0.2376828 -0.0036247817
v 0.02174006 0.2310523 -0.0041941237
v 0.020480081 0.23366448 -0.008179785
v 0.035684694 0.240295 -0.0076104426
v -0.19180493 0.06576985 -0.0029419232
v -0.23304585 0.047804955 -0.00088232674
v -0.19887257 0.07187748 -0.0025258102
v -0.21574855 0.04095027 -0.0012807474
v -0.21872085 0.0147664705 -0.0012718083
v -0.25009143 0.016523924 -0.00089108007
v -0.24673213 -0.027074207 -0.0010588721
v -0.2155492 -0.01633836 -0.0014144095
v -0.202677 -0.043315362 -0.0015570108
v -0.22396906 -0.07227269 -0.001226664
v -0.17649594 -0.08910747 -0.0015970136
v -0.19359782 -0.0957694 -0.0011875123
v -0.16203527 -0.11519836 0.00032196057
v -0.16923486 -0.12199119 -0.0011483605
v -0.14450312 -0.1327966 0.0045149922
v -0.13849884 -0.12893017 0.0040502367
v -0.12591264 -0.15386112 0.010178345
v -0.11792903 -0.1473557 0.009737489
v -0.09842375 -0.15427339 0.015674118
v -0.104480796 -0.16546902 0.014233232
v -0.095300354 -0.16933264 0.01742486
v -0.07573468 -0.15807626 0.018896075
v -0.06408492 -0.16736452 0.019713031
v -0.08957434 -0.17550401 0.018125128
v -0.06805808 -0.18151516 0.020165872
v -0.08874334 -0.18389778 0.018865572
v -0.09680775 -0.1941167 0.019510195
v -0.085883155 -0.19929332 0.021011742
v -0.091502294 -0.21211089 0.026176732
v -0.10197384 -0.2071774 0.024614522
v -0.09823291 -0.23154196 0.030517662
v -0.11010723 -0.22956114 0.028894793
v -0.09791524 0.09043079 -0.0014705856
v -0.11133856 0.120255426 -0.0007570982
v -0.088015534 0.12207254 -0.0014868785
v -0.07745902 0.09434741 -0.0023129107
v 0.23652352 -0.035913832 0.08997692
v 0.22544958 -0.038352866 0.088321015
v 0.22436823 -0.033243626 0.08284783
v 0.2327674 -0.02435107 0.084768616
v 0.2217633 -0.026023945 0.06394773
v 0.22788066 -0.016824799 0.064809315
v 0.2190624 -0.022452045 0.035582155
v 0.22355461 -0.015487669 0.03598884
v 0.20552655 -0.017797284 0.016488208
v 0.21671322 -0.006736506 0.017090602
v 0.18667759 -0.003673171 0.00069803593
v 0.20265847 0.011701405 0.0016983292
v 0.1133854 0.18155009 0.081205726
v 0.11771035 0.17106792 0.07954982
v 0.11286648 0.1691158 0.074076645
v 0.10265054 0.1758432 0.07599742
v 0.10620885 0.16529673 0.055176537
v 0.09608718 0.16972375 0.056038123
v 0.103160225 0.16201663 0.035582155
v 0.09552157 0.16523126 0.03598884
v 0.10092664 0.14787813 0.016488208
v 0.08809135 0.15697417 0.017090602
v 0.090290196 0.1268629 0.00069803454
v 0.07237414 0.13993122 0.0016983277
vt 0.0005 0.887351
vt 0.99950004 0.8366821
vt 0.0005 0.8366821
vt 0.99950004 0.887351
vt 0.99950004 0.92083466
vt 0.0005 0.92083466
vt 0.99950004 0.9531226
vt 0.0005 0.9531226
vt 0.99950004 0.98421454
vt 0.0005 0.98421454
vt -0.0008394718 0.40210062
vt 0.9999678 0.40210065
vt 0.9999678 0.35856158
vt -0.0008394718 0.35856152
vt -0.0008394718 0.31502244
vt 0.9999678 0.31502247
vt 0.9999678 0.28985825
vt -0.000839442 0.28985822
vt 0.9999679 0.26469404
vt -0.0008394122 0.264694
vt 0.9999679 0.18831933
vt -0.0008394122 0.18831931
vt -0.0008394122 0.13765176
vt 0.9999679 0.13765177
vt -0.0008394122 0.0869842
vt 0.9999679 0.086984225
vt -0.0008394122 0.0082050795
vt 0.9999679 0.008205104
vt 0.99950004 0.89211184
vt 0.0005 0.9840472
vt 0.99950004 0.9840472
vt 0.0005 0.89211184
vt 0.99950004 0.78647894
vt 0.0005 0.78647894
vt 0.99950004 0.6954758
vt 0.0005 0.6954758
vt 0.99950004 0.6243017
vt 0.0005 0.6243017
vt 0.0005 0.5892041
vt 0.99950004 0.5892041
vt 0.0005 0.55410653
vt 0.99950004 0.55410653
vt 0.99950004 0.4140625
vt 0.0005 0.4140625
vt 0.99950004 0.2646878
vt 0.0005 0.2646878
vt 0.0005 0.1893002
vt 0.99950004 0.1893002
vt 0.0005 0.13693196
vt 0.99950004 0.13693196
vt 0.0005 0.10447288
vt 0.99950004 0.10447288
vt 0.0005 0.06981529
vt 0.99950004 0.06981529
vt 0.0005004704 0.38827893
vt 0.9973589 0.38827893
vt 0.9973589 0.31389153
vt 0.0005002916 0.31389153
vt 0.9973589 0.21138322
vt 0.0005002916 0.21138322
vt 0.9973589 0.09146818
vt 0.0005002916 0.09146818
vt 0.9973589 0.00049994787
vt 0.00050002337 0.00049994787
vt 0.99950004 0.035157617
vt 0.99950004 0.0005
vt 0.0005 0.0005
vt 0.0005 0.035157617
vt 0.0005 0.06981529
vt 0.99950004 0.06981529
vt 0.99950004 0.035157617
vt 0.0005 0.035157617
vt 0.0005 0.0005
vt 0.99950004 0.04074082
vt 0.99950004 0.0005
vt 0.0005 0.04074082
vt 0.0005 0.07633314
vt 0.99950004 0.07633314
vt 0.99950004 0.10845697
vt 0.0005 0.10845697
vt 0.0005 0.1537289
vt 0.99950004 0.1537289
vt 0.0005 0.22359662
vt 0.99950004 0.22359662
vt 0.0005 0.30530822
vt 0.99950004 0.30530822
vt 0.99950004 0.3922731
vt 0.0005 0.3922731
vt 0.99950004 0.47221798
vt 0.0005 0.47221798
vt 0.0005 0.552148
vt 0.99950004 0.552148
vt 0.99950004 0.6293041
vt 0.0005 0.6293041
vt 0.0005 0.663216
vt 0.99950004 0.663216
vt 0.0005 0.70606875
vt 0.99950004 0.70606875
vt 0.99950004 0.7353443
vt 0.0005 0.7353443
vt 0.0005 0.7860131
vt 0.99950004 0.7860131
vt 0.0005 0.8366821
vt 0.99950004 0.8366821
vt -0.0008394718 0.35856152
vt 0.9999678 0.35856158
vt 0.9999678 0.31502247
vt -0.0008394718 0.31502244
vt 0.99853677 0.5855541
vt -1.7881393E-07 0.58555406
vt -1.7881393E-07 0.46475735
vt 0.99853677 0.46475744
vt -1.7881393E-07 0.3459978
vt 0.99853677 0.34599793
vt -1.7881393E-07 0.24487612
vt 0.99853677 0.2448762
vt -1.1920929E-07 0.12243819
vt 0.99853677 0.12243828
vt -1.1920929E-07 2.9802322E-07
vt 0.9985368 3.5762787E-07
vt -5.9604645E-08 0.58555406
vt 0.9985369 0.585554
vt 0.9985369 0.46475732
vt -5.9604645E-08 0.4647574
vt 0.9985369 0.3459978
vt -5.9604645E-08 0.34599787
vt 0.9985369 0.24487609
vt -5.9604645E-08 0.24487618
vt 0.9985368 0.12243816
vt -1.1920929E-07 0.12243825
vt 0.9985368 2.3841858E-07
vt -1.1920929E-07 2.9802322E-07
vn 0.044355206 0.8704123 0.49032137
vn 0.039140668 0.8551376 0.51692146
vn 0.039140664 0.8551376 0.51692146
vn 0.046696346 0.87703514 0.4781515
vn 0.038359676 0.8878725 0.45848772
vn 0.040358063 0.8884784 0.45714048
vn -0.03712102 0.91037613 0.41211313
vn -0.057918184 0.9175823 0.3933044
vn -0.12624761 0.9359056 0.32884994
vn -0.12624761 0.9359056 0.32884994
vn 0.04109995 -0.0051333853 0.9991418
vn 0.041099954 -0.005133386 0.9991418
vn 0.039458893 -0.0077722236 0.999191
vn 0.038741834 -0.008925049 0.9992094
vn 0.017476728 -0.023177642 0.99957854
vn 0.025807189 -0.018145218 0.9995023
vn 0.005309148 -0.03142543 0.99949205
vn 0.0074089 -0.030650992 0.99950266
vn 0.013276648 -0.021881137 0.9996724
vn 0.014092932 -0.017419104 0.999749
vn 0.017145213 -0.00836742 0.999818
vn 0.01730115 -0.008124676 0.9998173
vn 0.021967132 -0.0039768713 0.9997508
vn 0.02491013 -0.0024877158 0.9996866
vn 0.032378145 -0.005445675 0.9994609
vn 0.03317551 -0.0064335014 0.9994288
vn 0.03778179 -0.012141161 0.99921227
vn 0.03778179 -0.012141162 0.99921227
vn -0.022356441 0.19548777 0.9804513
vn -0.053999703 0.21075135 0.97604716
vn -0.05399971 0.21075135 0.97604716
vn -0.025271645 0.19690362 0.9800971
vn -0.015337729 0.09146661 0.99569005
vn -0.016653873 0.085102655 0.9962329
vn -0.031667575 -0.0009949122 0.999498
vn -0.031549636 -0.0013630127 0.9995012
vn -0.034732565 -0.010528489 0.9993412
vn -0.035513785 -0.0111885555 0.99930656
vn -0.054269556 -0.029552298 0.9980889
vn -0.053486183 -0.028735673 0.99815506
vn -0.055292558 -0.057040848 0.9968395
vn -0.051821508 -0.05997566 0.99685377
vn -0.050066695 -0.022074884 0.9985019
vn -0.04843987 -0.028546328 0.9984181
vn -0.036984287 0.002531369 0.99931264
vn -0.04042331 0.0047550136 0.9991714
vn -0.027183568 -0.0059344545 0.99961287
vn -0.02318903 -0.0075915554 0.9997023
vn -0.036411047 -0.009048914 0.99929595
vn -0.03601185 -0.007851015 0.9993205
vn -0.09930241 0.13560037 0.98577464
vn -0.09871289 0.1341461 0.9860328
vn -0.15246339 0.26793328 0.9512974
vn -0.15246339 0.26793328 0.9512974
vn 0.51032734 0.553984 0.65777487
vn 0.51032734 0.553984 0.65777487
vn 0.5385265 0.57742876 0.6136492
vn 0.5403694 0.57894564 0.61059225
vn 0.4509818 0.55703115 0.6973749
vn 0.46594188 0.5632557 0.682379
vn 0.2602426 0.4600008 0.84892464
vn 0.26341018 0.4618921 0.8469184
vn 0.18937838 0.41632828 0.88927305
vn 0.18937837 0.41632828 0.88927305
vn -0.39972997 0.9166329 0
vn -0.39973003 0.9166329 0
vn -0.39972997 0.9166329 0
vn -0.39973003 0.9166329 0
vn -0.34163657 0.73289794 0.58834106
vn -0.34163657 0.73289794 0.58834106
vn -0.34163657 0.73289794 0.58834106
vn -0.34163657 0.73289794 0.58834106
vn 0.042463463 0.017044744 0.9989526
vn 0.02519337 0.0029825717 0.99967813
vn 0.042463467 0.017044744 0.9989526
vn 0.029231723 0.006270021 0.9995529
vn 0.013602522 -0.004135823 0.9998989
vn 0.01347229 -0.0040375707 0.99990106
vn 0.012041149 -0.0006586817 0.9999273
vn 0.012053752 -0.00083744375 0.99992704
vn 0.011556938 0.0042127636 0.9999244
vn 0.011344277 0.0059316033 0.9999181
vn -0.019851634 0.006014578 0.9997849
vn -0.009456337 0.00700291 0.99993074
vn -0.097191356 0.046963423 0.9941571
vn -0.088571 0.039703626 0.99527824
vn -0.121411555 0.13296375 0.9836564
vn -0.1077056 0.15667458 0.98175997
vn -0.13091919 0.15585716 0.9790652
vn -0.14925383 0.13929906 0.9789378
vn -0.18513142 0.08601338 0.97894233
vn -0.18665002 0.08822608 0.978457
vn -0.13952126 0.053505383 0.98877245
vn -0.10153578 0.030962765 0.9943499
vn -0.07537739 0.039161295 0.9963858
vn -0.07528625 0.037493426 0.9964568
vn -0.07672591 0.078867994 0.9939281
vn -0.076763146 0.09961413 0.9920608
vn -0.019017078 0.24673636 0.96889603
vn -0.02550191 0.23318505 0.9720979
vn -0.020542938 0.28741622 0.9575855
vn -0.013628166 0.29618195 0.9550343
vn -0.06894691 0.22489907 0.9719396
vn -0.06894691 0.2248991 0.9719396
vn 0.038741834 -0.008925049 0.9992094
vn 0.039458893 -0.0077722236 0.999191
vn 0.025807189 -0.018145218 0.9995023
vn 0.017476728 -0.023177642 0.99957854
vn -0.39145917 0.4131933 0.822211
vn -0.39145917 0.41319335 0.822211
vn -0.58449394 0.49954852 0.639389
vn -0.6250273 0.51483876 0.5867555
vn -0.79699695 0.54659384 0.25696495
vn -0.79808867 0.5463618 0.25405377
vn -0.75408846 0.54800755 0.3619924
vn -0.7581826 0.5480152 0.35332495
vn -0.5256018 0.45297632 0.72010773
vn -0.5396618 0.4625596 0.7034229
vn -0.4142275 0.37543282 0.82913554
vn -0.4142275 0.37543285 0.82913554
vn -0.33893985 -0.4572621 0.8222112
vn -0.33893985 -0.45726207 0.8222111
vn -0.39046296 -0.6623596 0.63938916
vn -0.3984823 -0.70493215 0.5867559
vn -0.3948494 -0.87271535 0.2871619
vn -0.39429158 -0.8736558 0.28506094
vn -0.40203363 -0.8289415 0.3888765
vn -0.40118533 -0.8325267 0.38203353
vn -0.35482457 -0.5962752 0.72010785
vn -0.36182076 -0.61178577 0.703423
vn -0.2977992 -0.47312775 0.82913554
vn -0.29779923 -0.47312778 0.82913554
g fx_fbx_fcbg_desert004_lava_path_0
f 3/3/3 2/2/2 1/1/1
f 2/2/2 4/4/4 1/1/1
f 4/4/4 5/5/5 1/1/1
f 5/5/5 6/6/6 1/1/1
f 5/5/5 7/7/7 6/6/6
f 7/7/7 8/8/8 6/6/6
f 7/7/7 9/9/9 8/8/8
f 9/9/9 10/10/10 8/8/8
f 13/13/13 12/12/12 11/11/11
f 14/14/14 13/13/13 11/11/11
f 17/17/17 16/16/16 15/15/15
f 18/18/18 17/17/17 15/15/15
f 19/19/19 17/17/17 18/18/18
f 20/20/20 19/19/19 18/18/18
f 21/21/21 19/19/19 20/20/20
f 22/22/22 21/21/21 20/20/20
f 21/21/21 22/22/22 23/23/23
f 24/24/24 21/21/21 23/23/23
f 24/24/24 23/23/23 25/25/25
f 26/26/26 24/24/24 25/25/25
f 25/25/25 27/27/27 26/26/26
f 27/27/27 28/28/28 26/26/26
f 31/31/31 30/30/30 29/29/29
f 30/30/30 32/32/32 29/29/29
f 29/29/29 32/32/32 33/33/33
f 32/32/32 34/34/34 33/33/33
f 33/33/33 34/34/34 35/35/35
f 34/34/34 36/36/36 35/35/35
f 35/35/35 36/36/36 37/37/37
f 36/36/36 38/38/38 37/37/37
f 38/38/38 39/39/39 37/37/37
f 39/39/39 40/40/40 37/37/37
f 39/39/39 41/41/41 40/40/40
f 41/41/41 42/42/42 40/40/40
f 42/42/42 41/41/41 43/43/43
f 41/41/41 44/44/44 43/43/43
f 43/43/43 44/44/44 45/45/45
f 44/44/44 46/46/46 45/45/45
f 46/46/46 47/47/47 45/45/45
f 47/47/47 48/48/48 45/45/45
f 47/47/47 49/49/49 48/48/48
f 49/49/49 50/50/50 48/48/48
f 49/49/49 51/51/51 50/50/50
f 51/51/51 52/52/52 50/50/50
f 51/51/51 53/53/53 52/52/52
f 53/53/53 54/54/54 52/52/52
f 57/57/57 56/56/56 55/55/55
f 58/58/58 57/57/57 55/55/55
f 59/59/59 57/57/57 58/58/58
f 60/60/60 59/59/59 58/58/58
f 61/61/61 59/59/59 60/60/60
f 62/62/62 61/61/61 60/60/60
f 63/63/63 61/61/61 62/62/62
f 64/64/64 63/63/63 62/62/62
f 67/67/67 66/66/66 65/65/65
f 68/68/68 67/67/67 65/65/65
f 71/71/71 70/70/70 69/69/69
f 72/72/72 71/71/71 69/69/69
f 75/75/75 74/74/74 73/73/73
f 74/74/74 76/76/76 73/73/73
f 76/76/76 74/74/74 77/77/77
f 74/74/74 78/78/78 77/77/77
f 78/78/78 79/79/79 77/77/77
f 79/79/79 80/80/80 77/77/77
f 80/80/80 79/79/79 81/81/81
f 79/79/79 82/82/82 81/81/81
f 81/81/81 82/82/82 83/83/83
f 82/82/82 84/84/84 83/83/83
f 83/83/83 84/84/84 85/85/85
f 84/84/84 86/86/86 85/85/85
f 86/86/86 87/87/87 85/85/85
f 87/87/87 88/88/88 85/85/85
f 87/87/87 89/89/89 88/88/88
f 89/89/89 90/90/90 88/88/88
f 90/90/90 89/89/89 91/91/91
f 89/89/89 92/92/92 91/91/91
f 92/92/92 93/93/93 91/91/91
f 93/93/93 94/94/94 91/91/91
f 94/94/94 93/93/93 95/95/95
f 93/93/93 96/96/96 95/95/95
f 95/95/95 96/96/96 97/97/97
f 96/96/96 98/98/98 97/97/97
f 98/98/98 99/99/99 97/97/97
f 99/99/99 100/100/100 97/97/97
f 100/100/100 99/99/99 101/101/101
f 99/99/99 102/102/102 101/101/101
f 101/101/101 102/102/102 103/103/103
f 102/102/102 104/104/104 103/103/103
f 107/107/107 106/106/106 105/105/105
f 108/108/108 107/107/107 105/105/105
f 111/111/111 110/110/110 109/109/109
f 112/112/112 111/111/111 109/109/109
f 113/113/113 111/111/111 112/112/112
f 114/114/114 113/113/113 112/112/112
f 115/115/115 113/113/113 114/114/114
f 116/116/116 115/115/115 114/114/114
f 117/117/117 115/115/115 116/116/116
f 118/118/118 117/117/117 116/116/116
f 119/119/119 117/117/117 118/118/118
f 120/120/120 119/119/119 118/118/118
f 123/123/123 122/122/122 121/121/121
f 124/124/124 123/123/123 121/121/121
f 125/125/125 123/123/123 124/124/124
f 126/126/126 125/125/125 124/124/124
f 127/127/127 125/125/125 126/126/126
f 128/128/128 127/127/127 126/126/126
f 129/129/129 127/127/127 128/128/128
f 130/130/130 129/129/129 128/128/128
f 131/131/131 129/129/129 130/130/130
f 132/132/132 131/131/131 130/130/130
