g fx_fbx_febg_tropical_003_wave_04
v 1.717695 0.018805869 -2.3025615
v 1.9200122 0.018805869 -2.1162994
v 1.7494223 0.008146075 -2.0227578
v 1.6102457 0.008146055 -2.2227776
v 1.570882 -0.041837305 -1.9626776
v 1.4522977 0.018805861 -2.4771965
v 1.453034 -0.041837323 -2.1071033
v 1.3249776 0.017150683 -2.3422616
v 1.2478914 -0.023828067 -2.205324
v 1.9200122 0.018805869 -2.1162994
v 1.9981635 0.018805854 -1.7833816
v 1.8229163 0.019560818 -1.8168952
v 1.7494223 0.008146075 -2.0227578
v 1.6132848 -0.04183728 -1.8688737
v 1.570882 -0.041837305 -1.9626776
v 1.8329889 0.018805878 -1.4763224
v 1.8229163 0.019560818 -1.8168952
v 1.9981635 0.018805854 -1.7833816
v 1.6975882 0.019560842 -1.6032553
v 1.474397 0.0188059 -1.3419311
v 1.5512501 -0.041837238 -1.7651623
v 1.6132848 -0.04183728 -1.8688737
v 1.442171 0.01956085 -1.5454783
v 1.2272882 0.018805886 -1.3910812
v 1.432176 -0.041837234 -1.7006861
v 1.2571448 0.009413355 -1.5552058
v 1.2504147 -0.054494258 -1.7381142
v 1.2272882 0.018805886 -1.3910812
v 1.0317696 0.01880587 -1.5446172
v 1.2571448 0.009413355 -1.5552058
v 1.0807015 0.009413342 -1.681253
v 1.2504147 -0.054494258 -1.7381142
v 0.90186065 0.018805876 -1.7131562
v 1.1204044 -0.054494277 -1.8678937
v 0.9367502 0.010523614 -1.900395
v 1.005156 -0.054494288 -2.0768094
v 0.7837391 0.018805873 -1.7375032
v 0.6831645 0.02381934 -1.9839197
v 0.6334222 -0.054494258 -2.151316
v 0.34341198 -0.054494243 -1.8357451
v 0.504646 0.010523649 -1.734496
v 0.6704707 0.018805895 -1.6156901
v 0.2908245 -0.05449425 -1.5897956
v 0.45507511 0.0050086225 -1.5071574
v 0.63016206 0.018805936 -1.4213542
v 0.31433788 -0.05449583 -1.3991205
v 0.44903505 0.005008624 -1.2848898
v 0.6135809 0.018807516 -1.1636174
v 0.25379813 -0.054485645 -1.2917898
v 0.34004736 0.005024412 -1.1314443
v 0.4122252 0.018828908 -0.9851524
v 0.08972788 0.018827682 -0.9979748
v 0.104034856 0.005023686 -1.1552868
v 0.078005046 -0.054485857 -1.344284
vt 0.06776139 0.99998844
vt 0.13894732 0.99998856
vt 0.13894732 0.52914363
vt 0.06776139 0.52914363
vt 0.13894732 3.6651584E-06
vt 6.819477E-08 0.99998844
vt 0.06776139 3.6651584E-06
vt 6.819477E-08 0.5291435
vt 6.819477E-08 3.5545806E-06
vt 0.13894732 0.99998856
vt 0.21640505 0.99998856
vt 0.21640505 0.52914363
vt 0.13894732 0.52914363
vt 0.21640505 3.6651584E-06
vt 0.13894732 3.6651584E-06
vt 0.30158123 0.99998856
vt 0.21640505 0.52914363
vt 0.21640505 0.99998856
vt 0.30158123 0.52914375
vt 0.38991818 0.99998856
vt 0.30158123 3.775318E-06
vt 0.21640505 3.6651584E-06
vt 0.38991818 0.5291438
vt 0.46374118 0.99998856
vt 0.38991818 3.775318E-06
vt 0.46374118 0.52914387
vt 0.46374118 3.885907E-06
vt 0.46374118 0.99998856
vt 0.5262779 0.9999887
vt 0.46374118 0.52914387
vt 0.5262779 0.52914387
vt 0.46374118 3.885907E-06
vt 0.60652006 0.9999887
vt 0.5262779 3.885907E-06
vt 0.60652006 0.5291439
vt 0.60652006 3.9965E-06
vt 0.68999624 0.9999888
vt 0.68999624 0.529144
vt 0.68999624 3.9965E-06
vt 0.76707196 4.1071025E-06
vt 0.76707196 0.52914405
vt 0.76707196 0.9999888
vt 0.816624 4.1071025E-06
vt 0.8166239 0.52914405
vt 0.8166239 0.9999888
vt 0.8753165 4.1071025E-06
vt 0.87531644 0.52914417
vt 0.87531644 0.999989
vt 0.9356672 4.2176807E-06
vt 0.9356672 0.52914417
vt 0.9356672 0.999989
vt 0.9999944 0.99998903
vt 0.9999944 0.52914417
vt 0.9999945 4.2176807E-06
vn -0.0328016 0.99843985 0.045188397
vn -0.049327467 0.9978302 0.043608025
vn -0.118590206 0.98863995 0.092343904
vn -0.078684956 0.99055547 0.112288274
vn -0.20685361 0.9661193 0.15435357
vn -0.009005564 0.9988335 0.04744062
vn -0.12995507 0.9653383 0.22634867
vn -0.045354202 0.9820448 0.18311487
vn -0.07107008 0.9576782 0.27892935
vn -0.030795194 0.9994474 -0.012506913
vn -0.030795194 0.9994474 -0.012506915
vn -0.109627634 0.9938758 0.013879042
vn -0.1490221 0.98846185 0.027124643
vn -0.2738072 0.95928067 0.06935518
vn -0.2738072 0.95928067 0.06935518
vn 0.0026082045 0.99999225 0.002948306
vn -0.097315885 0.9935895 -0.057528846
vn 0.0037732827 0.9999907 0.0021050542
vn -0.06626629 0.9944265 -0.082004994
vn -0.008897524 0.99992085 -0.008904363
vn -0.17562987 0.95731527 -0.22956839
vn -0.24418171 0.9589536 -0.14416395
vn -0.03231965 0.9867814 -0.15880172
vn -0.02028955 0.9995214 -0.023350643
vn -0.059771366 0.9418606 -0.33064494
vn -0.017257435 0.9822803 -0.18662137
vn -0.013711644 0.93781143 -0.34687427
vn 0.039140034 0.99787605 -0.052072614
vn 0.04614242 0.99780124 -0.047574982
vn 0.10768812 0.985308 -0.13255706
vn 0.15609086 0.9766716 -0.14747243
vn 0.24781075 0.9222086 -0.29685166
vn 0.051430296 0.9982615 -0.02878951
vn 0.32638243 0.9141248 -0.24052097
vn 0.17538811 0.9669667 -0.18497153
vn 0.21363673 0.924252 -0.31641358
vn 0.006375382 0.99997926 -0.00096612336
vn -0.073174216 0.9727084 -0.22019038
vn -0.09892213 0.9427154 -0.3185937
vn -0.3228721 0.9334394 -0.15634766
vn -0.20406766 0.9757404 -0.07929154
vn -0.048257772 0.99882 0.005455095
vn -0.34603977 0.9376561 -0.032519765
vn -0.22512661 0.9742915 -0.008602428
vn -0.07290819 0.9973355 -0.0024781541
vn -0.3442989 0.93704754 -0.058310855
vn -0.17248012 0.9831638 -0.060327962
vn -0.06592679 0.9973092 -0.032062873
vn -0.10278533 0.9574371 -0.26972106
vn -0.057292834 0.9889826 -0.13649493
vn -0.0282637 0.99711335 -0.07047106
vn 0.0060162838 0.99576867 -0.09169791
vn 0.036835343 0.97331697 -0.226489
vn 0.06301274 0.93833417 -0.33993885
g fx_fbx_febg_tropical_003_wave_04_0
f 3/3/3 2/2/2 1/1/1
f 1/1/1 4/4/4 3/3/3
f 5/5/5 3/3/3 4/4/4
f 6/6/6 4/4/4 1/1/1
f 4/4/4 7/7/7 5/5/5
f 8/8/8 4/4/4 6/6/6
f 4/4/4 8/8/8 7/7/7
f 8/8/8 9/9/9 7/7/7
f 12/12/12 11/11/11 10/10/10
f 10/10/10 13/13/13 12/12/12
f 14/14/14 12/12/12 13/13/13
f 13/13/13 15/15/15 14/14/14
f 18/18/18 17/17/17 16/16/16
f 17/17/17 19/19/19 16/16/16
f 20/20/20 16/16/16 19/19/19
f 21/21/21 19/19/19 17/17/17
f 17/17/17 22/22/22 21/21/21
f 19/19/19 23/23/23 20/20/20
f 23/23/23 19/19/19 21/21/21
f 24/24/24 20/20/20 23/23/23
f 21/21/21 25/25/25 23/23/23
f 23/23/23 26/26/26 24/24/24
f 26/26/26 23/23/23 25/25/25
f 25/25/25 27/27/27 26/26/26
f 30/30/30 29/29/29 28/28/28
f 31/31/31 29/29/29 30/30/30
f 32/32/32 31/31/31 30/30/30
f 29/29/29 31/31/31 33/33/33
f 34/34/34 31/31/31 32/32/32
f 35/35/35 33/33/33 31/31/31
f 31/31/31 34/34/34 35/35/35
f 36/36/36 35/35/35 34/34/34
f 37/37/37 33/33/33 35/35/35
f 38/38/38 35/35/35 36/36/36
f 37/37/37 35/35/35 38/38/38
f 39/39/39 38/38/38 36/36/36
f 39/39/39 40/40/40 38/38/38
f 38/38/38 41/41/41 37/37/37
f 38/38/38 40/40/40 41/41/41
f 37/37/37 41/41/41 42/42/42
f 43/43/43 41/41/41 40/40/40
f 41/41/41 44/44/44 42/42/42
f 41/41/41 43/43/43 44/44/44
f 42/42/42 44/44/44 45/45/45
f 46/46/46 44/44/44 43/43/43
f 47/47/47 45/45/45 44/44/44
f 44/44/44 46/46/46 47/47/47
f 45/45/45 47/47/47 48/48/48
f 46/46/46 49/49/49 47/47/47
f 47/47/47 50/50/50 48/48/48
f 50/50/50 47/47/47 49/49/49
f 48/48/48 50/50/50 51/51/51
f 52/52/52 51/51/51 50/50/50
f 53/53/53 52/52/52 50/50/50
f 53/53/53 50/50/50 49/49/49
f 53/53/53 49/49/49 54/54/54
