g fx_fbx_febg_tropical_003_wave_02
v 2.9463644 -0.004498494 -2.3766956
v 3.1914973 -0.054496564 -2.2647235
v 3.121367 -0.054494783 -2.063099
v 2.8303072 -0.0044968096 -2.1907442
v 2.75347 0.037693553 -2.4594235
v 2.675695 0.03769514 -2.2744393
v 2.9870017 -0.054494705 -1.915211
v 2.6788185 0.016566474 -2.0330994
v 2.4828396 0.018806295 -2.1149373
v 2.4789884 0.02728484 -1.7715582
v 2.7243536 0.0020579663 -1.7387836
v 3.0253322 -0.08087812 -1.6644455
v 2.8881848 -0.05449461 -1.4416231
v 2.6267056 0.0024811886 -1.5003849
v 2.3853037 0.018806232 -1.5921539
v 2.3368638 0.041198798 -1.3068705
v 2.6433835 0.013317577 -1.1837126
v 2.9058414 -0.054494582 -1.0899322
v 2.6916013 -0.054494597 -0.7262078
v 2.4450102 0.019791542 -0.9196757
v 2.1615412 0.02890628 -1.1305747
v 2.4086337 -0.05449456 -0.50261694
v 2.1726513 0.010190942 -0.76889056
v 1.9387033 0.045369096 -1.0387838
v 2.086575 -0.05449455 -0.33454996
v 1.9183931 0.02408146 -0.62949634
v 1.7311984 0.044988982 -0.9211206
v 1.7839298 -0.05449458 -0.338083
v 1.5076534 0.02395297 -0.6476197
v 1.3704034 0.018806314 -0.8564667
v 1.1272427 0.018806364 -0.57971746
v 1.3804582 0.03183417 -0.42841023
v 1.6939131 -0.05449454 -0.20580919
v 1.1747617 0.0034953535 -0.21124166
v 1.4227139 -0.019806776 -0.10539626
v 1.7700008 -0.06980554 0.050081477
v 1.6557385 -0.09289919 0.29262453
v 1.3120418 -0.01660534 0.18211047
v 1.0183811 -0.01959494 0.058294795
v 1.036683 0.018822629 0.4196719
v 1.3172787 0.0029424569 0.5079402
v 1.6718501 -0.054481205 0.584488
v 1.0845965 0.018830357 0.83047324
v 1.5908356 -0.054469828 0.92595065
v 1.276331 -0.0044714143 0.8885236
vt 1.0000017 0.5061891
vt 1.0000017 1.41859055E-05
vt 0.94725055 1.41859055E-05
vt 0.9472506 0.5061891
vt 1.0000017 0.99999434
vt 0.9472506 0.99999434
vt 0.88635296 1.41859055E-05
vt 0.886353 0.5061891
vt 0.886353 0.99999434
vt 0.815015 0.99999434
vt 0.815015 0.5061891
vt 0.81501496 1.41859055E-05
vt 0.7548406 1.41859055E-05
vt 0.7548407 0.5061891
vt 0.7548407 0.99999434
vt 0.6836666 0.99999434
vt 0.6836666 0.5061891
vt 0.6836665 1.41859055E-05
vt 0.6114238 1.41859055E-05
vt 0.61142385 0.5061891
vt 0.61142385 0.99999434
vt 0.5311088 1.41859055E-05
vt 0.53110886 0.5061891
vt 0.53110886 0.99999434
vt 0.46306062 1.41859055E-05
vt 0.46306062 0.5061891
vt 0.46306065 0.99999434
vt 0.39090726 1.41859055E-05
vt 0.39090726 0.5061891
vt 0.3909073 0.99999434
vt 0.32105502 0.9999944
vt 0.321055 0.5061891
vt 0.321055 1.41859055E-05
vt 0.24607338 0.9999944
vt 0.24607337 0.5061891
vt 0.24607334 1.41859055E-05
vt 0.17164774 1.41859055E-05
vt 0.17164777 0.5061891
vt 0.17164779 0.9999944
vt 0.10898289 0.9999944
vt 0.10898287 0.5061891
vt 0.108982846 1.41859055E-05
vt 2.543139E-05 0.9999944
vt 2.538768E-05 1.41859055E-05
vt 2.5409807E-05 0.5061891
vn 0.16888258 0.98198444 0.08476573
vn 0.15135594 0.98580223 0.07270098
vn 0.15694238 0.984487 0.07844921
vn 0.15165722 0.98466784 0.08619376
vn 0.18972363 0.97682023 0.09913131
vn 0.13395576 0.98669654 0.09211827
vn 0.20039126 0.97786623 0.06017358
vn 0.116753936 0.9918766 0.050490487
vn 0.07253035 0.99639755 0.04394753
vn 0.06656508 0.9973246 0.030210521
vn 0.16344024 0.9857442 0.03994679
vn 0.23074406 0.9718027 0.048544724
vn 0.23361535 0.9721869 0.016629815
vn 0.1508343 0.98854625 0.0050308406
vn 0.08542695 0.99634117 0.0025537265
vn 0.06697365 0.99775475 -2.9246008E-05
vn 0.16143999 0.98647445 0.028373994
vn 0.2198738 0.974071 0.053303584
vn 0.15633094 0.97590816 0.15219663
vn 0.10128928 0.98884434 0.109212324
vn 0.038017947 0.9981153 0.04817087
vn 0.10972807 0.978148 0.176596
vn 0.07945051 0.9902828 0.114138335
vn 0.050953448 0.99729306 0.05301106
vn 0.06544507 0.97678363 0.20398702
vn 0.03638816 0.98779523 0.1514483
vn 0.008617571 0.99855787 0.05298888
vn 0.07912136 0.97922736 0.18669118
vn 0.02000647 0.9979494 0.06080147
vn -0.024591357 0.9996612 0.00852103
vn -0.02374893 0.99948514 0.02157293
vn 0.05469703 0.9964334 0.06425619
vn 0.16854805 0.98187274 0.08670433
vn -0.009007653 0.99709976 0.07557098
vn 0.08733336 0.9930101 0.07939551
vn 0.1473886 0.9847969 0.0919337
vn 0.18066485 0.9835227 -0.0065821684
vn 0.09902673 0.9950051 -0.012592906
vn 0.034146056 0.9993389 -0.012480605
vn 0.06383134 0.9966859 -0.05042452
vn 0.12994644 0.990919 -0.034546755
vn 0.18070489 0.9831867 -0.026263794
vn 0.08001398 0.9967564 0.008623834
vn 0.15245968 0.9876582 0.035877857
vn 0.118791156 0.9926483 0.023195533
g fx_fbx_febg_tropical_003_wave_02_0
f 3/3/3 2/2/2 1/1/1
f 1/1/1 4/4/4 3/3/3
f 5/5/5 4/4/4 1/1/1
f 5/5/5 6/6/6 4/4/4
f 4/4/4 7/7/7 3/3/3
f 4/4/4 6/6/6 8/8/8
f 4/4/4 8/8/8 7/7/7
f 6/6/6 9/9/9 8/8/8
f 9/9/9 10/10/10 8/8/8
f 8/8/8 11/11/11 7/7/7
f 11/11/11 8/8/8 10/10/10
f 12/12/12 7/7/7 11/11/11
f 11/11/11 13/13/13 12/12/12
f 14/14/14 11/11/11 10/10/10
f 11/11/11 14/14/14 13/13/13
f 10/10/10 15/15/15 14/14/14
f 14/14/14 15/15/15 16/16/16
f 14/14/14 17/17/17 13/13/13
f 16/16/16 17/17/17 14/14/14
f 17/17/17 18/18/18 13/13/13
f 19/19/19 18/18/18 17/17/17
f 20/20/20 17/17/17 16/16/16
f 17/17/17 20/20/20 19/19/19
f 16/16/16 21/21/21 20/20/20
f 19/19/19 20/20/20 22/22/22
f 21/21/21 23/23/23 20/20/20
f 22/22/22 20/20/20 23/23/23
f 23/23/23 21/21/21 24/24/24
f 25/25/25 22/22/22 23/23/23
f 26/26/26 23/23/23 24/24/24
f 23/23/23 26/26/26 25/25/25
f 24/24/24 27/27/27 26/26/26
f 25/25/25 26/26/26 28/28/28
f 26/26/26 27/27/27 29/29/29
f 28/28/28 26/26/26 29/29/29
f 30/30/30 29/29/29 27/27/27
f 29/29/29 30/30/30 31/31/31
f 28/28/28 29/29/29 32/32/32
f 31/31/31 32/32/32 29/29/29
f 32/32/32 33/33/33 28/28/28
f 32/32/32 31/31/31 34/34/34
f 33/33/33 32/32/32 35/35/35
f 34/34/34 35/35/35 32/32/32
f 35/35/35 36/36/36 33/33/33
f 37/37/37 36/36/36 35/35/35
f 38/38/38 35/35/35 34/34/34
f 35/35/35 38/38/38 37/37/37
f 34/34/34 39/39/39 38/38/38
f 39/39/39 40/40/40 38/38/38
f 38/38/38 41/41/41 37/37/37
f 40/40/40 41/41/41 38/38/38
f 41/41/41 42/42/42 37/37/37
f 41/41/41 40/40/40 43/43/43
f 44/44/44 42/42/42 41/41/41
f 43/43/43 45/45/45 41/41/41
f 41/41/41 45/45/45 44/44/44
