g fx_fbx_c090_heart_line
v 10.522696 -43.060207 -5E-05
v 19.782837 -24.483746 -5E-05
v 25.126678 -29.984818 -5E-05
v 5.268671 -37.47872 -5E-05
v -0 -53.247997 -5E-05
v -0.04203415 -42.587757 -5E-05
v -0.063051224 -53.227642 -5E-05
v -0.04203415 -42.546986 -5E-05
v 25.126678 -29.984818 -5E-05
v 19.782837 -24.483746 -5E-05
v 31.737484 -11.8863125 -5E-05
v 37.58661 -16.854935 -5E-05
v 42.379993 2.1381721 -5E-05
v 48.873833 -1.980854 -5E-05
v 47.48944 11.919721 -5E-05
v 54.830704 9.423 -5E-05
v 49.274574 22.059078 -5E-05
v 57.004883 21.772093 -5E-05
v 48.49916 29.78284 -5E-05
v 56.023567 31.54676 -5E-05
v 46.68834 34.58674 -5E-05
v 53.62249 37.916534 -5E-05
v 44.292835 38.629738 -5E-05
v 50.451874 43.26774 -5E-05
v 41.518173 41.572556 -5E-05
v 46.425224 47.538414 -5E-05
v 38.19332 43.665638 -5E-05
v 41.45604 50.66665 -5E-05
v 41.45604 50.66665 -5E-05
v 38.19332 43.665638 -5E-05
v 33.916733 45.03729 -5E-05
v 35.45781 52.59049 -5E-05
v 35.45781 52.59049 -5E-05
v 33.916733 45.03729 -5E-05
v 28.338768 45.552845 -5E-05
v 28.34404 53.247997 -5E-05
v 22.731441 45.04232 -5E-05
v 21.213593 52.598797 -5E-05
v 21.213593 52.598797 -5E-05
v 22.731441 45.04232 -5E-05
v 18.340443 43.656734 -5E-05
v 15.147034 50.684483 -5E-05
v 14.793526 41.495007 -5E-05
v 10.0304165 47.56608 -5E-05
v 10.0304165 47.56608 -5E-05
v 14.793526 41.495007 -5E-05
v 11.312393 38.02944 -5E-05
v 5.7498074 43.30461 -5E-05
v 7.470003 33.87563 -5E-05
v 2.1912518 39.329243 -5E-05
v -0 26.261452 -5E-05
v -0.04203415 36.041275 -5E-05
v -0.04203415 36.041275 -5E-05
v -0 26.261452 -5E-05
v -0.063051224 26.282373 -5E-05
v -0.04203415 36.104347 -5E-05
v -0.063051224 -53.227642 -5E-05
v -5.3527393 -37.47872 -5E-05
v -0.04203415 -42.587757 -5E-05
v -10.606764 -43.060204 -5E-05
v -19.866905 -24.483746 -5E-05
v -25.210747 -29.984818 -5E-05
v -25.210747 -29.984818 -5E-05
v -37.670677 -16.854935 -5E-05
v -31.821552 -11.886314 -5E-05
v -19.866905 -24.483746 -5E-05
v -37.670677 -16.854935 -5E-05
v -42.46406 2.1381721 -5E-05
v -31.821552 -11.886314 -5E-05
v -48.9579 -1.980854 -5E-05
v -47.57351 11.919722 -5E-05
v -54.914772 9.423 -5E-05
v -49.358643 22.059078 -5E-05
v -57.08895 21.772093 -5E-05
v -48.58323 29.78284 -5E-05
v -56.107635 31.54676 -5E-05
v -46.772408 34.58674 -5E-05
v -53.70656 37.916534 -5E-05
v -44.376904 38.629738 -5E-05
v -50.535942 43.26774 -5E-05
v -41.60224 41.572556 -5E-05
v -46.509293 47.538414 -5E-05
v -38.27739 43.665638 -5E-05
v -41.540108 50.66665 -5E-05
v -41.540108 50.66665 -5E-05
v -35.541878 52.59049 -5E-05
v -34.0008 45.03729 -5E-05
v -38.27739 43.665638 -5E-05
v -35.541878 52.59049 -5E-05
v -28.422836 45.552845 -5E-05
v -34.0008 45.03729 -5E-05
v -28.428108 53.247997 -5E-05
v -22.81551 45.04232 -5E-05
v -21.29766 52.598797 -5E-05
v -21.29766 52.598797 -5E-05
v -18.424511 43.656734 -5E-05
v -22.81551 45.04232 -5E-05
v -15.231102 50.684483 -5E-05
v -14.877594 41.495007 -5E-05
v -10.114485 47.56608 -5E-05
v -10.114485 47.56608 -5E-05
v -11.3964615 38.02944 -5E-05
v -14.877594 41.495007 -5E-05
v -5.8338757 43.30461 -5E-05
v -7.5540714 33.87563 -5E-05
v -2.27532 39.329243 -5E-05
v -0.063051224 26.282373 -5E-05
v -0.04203415 36.041275 -5E-05
v -0.04203415 26.303295 -5E-05
v -0.04203415 36.104347 -5E-05
v -0.04203415 -53.207302 -5E-05
v -0.063051224 -53.227642 -5E-05
v -0.04203415 -42.587757 -5E-05
v -0.04203415 -42.546986 -5E-05
vt 0.52998376 0.075885825
vt 0.58949083 0.9588597
vt 0.5892929 0.075885825
vt 0.52998376 0.9588597
vt 0.5 0.0178428
vt 0.5 0.9588597
vt 0.49985307 0.01807466
vt 0.49970648 0.9588597
vt 0.5892929 0.075885825
vt 0.58949083 0.9588597
vt 0.6398578 0.9588597
vt 0.6401347 0.075885825
vt 0.69283634 0.9588597
vt 0.69258696 0.075885825
vt 0.7284761 0.9588597
vt 0.728676 0.075885825
vt 0.765977 0.9588597
vt 0.7637646 0.075885825
vt 0.79487693 0.9588597
vt 0.7905997 0.075885825
vt 0.8129042 0.9588597
vt 0.80886644 0.075885825
vt 0.8289108 0.9588597
vt 0.82534033 0.075885825
vt 0.8425463 0.9588597
vt 0.8408357 0.075885825
vt 0.85577345 0.9588597
vt 0.8563314 0.075885825
vt 0.8563314 0.075885825
vt 0.85577345 0.9588597
vt 0.8709233 0.9588597
vt 0.87294763 0.075885825
vt 0.87294763 0.075885825
vt 0.8709233 0.9588597
vt 0.890092 0.9588597
vt 0.8918965 0.075885825
vt 0.9099313 0.9588597
vt 0.91108644 0.075885825
vt 0.91108644 0.075885825
vt 0.9099313 0.9588597
vt 0.9267046 0.9588597
vt 0.9282966 0.075885825
vt 0.94245577 0.9588597
vt 0.94465834 0.075885825
vt 0.94465834 0.075885825
vt 0.94245577 0.9588597
vt 0.9544967 0.9588597
vt 0.95806265 0.075885825
vt 0.98099995 0.9588597
vt 0.9816522 0.075885825
vt 0.98775756 0.9588597
vt 0.9912841 0.075885825
vt 0.9912841 0.075885825
vt 0.98775756 0.9588597
vt 0.9878212 0.9588597
vt 0.99143857 0.075885825
vt 0.5 0.0178428
vt 0.52998376 0.9588597
vt 0.5 0.9588597
vt 0.52998376 0.075885825
vt 0.58949083 0.9588597
vt 0.5892929 0.075885825
vt 0.5892929 0.075885825
vt 0.6401347 0.075885825
vt 0.6398578 0.9588597
vt 0.58949083 0.9588597
vt 0.6401347 0.075885825
vt 0.69283634 0.9588597
vt 0.6398578 0.9588597
vt 0.69258696 0.075885825
vt 0.7284761 0.9588597
vt 0.728676 0.075885825
vt 0.765977 0.9588597
vt 0.7637646 0.075885825
vt 0.79487693 0.9588597
vt 0.7905997 0.075885825
vt 0.8129042 0.9588597
vt 0.80886644 0.075885825
vt 0.8289108 0.9588597
vt 0.82534033 0.075885825
vt 0.8425463 0.9588597
vt 0.8408357 0.075885825
vt 0.85577345 0.9588597
vt 0.8563314 0.075885825
vt 0.8563314 0.075885825
vt 0.87294763 0.075885825
vt 0.8709233 0.9588597
vt 0.85577345 0.9588597
vt 0.87294763 0.075885825
vt 0.890092 0.9588597
vt 0.8709233 0.9588597
vt 0.8918965 0.075885825
vt 0.9099313 0.9588597
vt 0.91108644 0.075885825
vt 0.91108644 0.075885825
vt 0.9267046 0.9588597
vt 0.9099313 0.9588597
vt 0.9282966 0.075885825
vt 0.94245577 0.9588597
vt 0.94465834 0.075885825
vt 0.94465834 0.075885825
vt 0.9544967 0.9588597
vt 0.94245577 0.9588597
vt 0.95806265 0.075885825
vt 0.98099995 0.9588597
vt 0.9816522 0.075885825
vt 0.98775756 0.9588597
vt 0.9912841 0.075885825
vt 0.9878212 0.9588597
vt 0.99143857 0.075885825
vt 0.49985307 0.01807466
vt 0.5 0.0178428
vt 0.5 0.9588597
vt 0.49970648 0.9588597
vn -0 0 1
vn -0 0 1
vn -0 0 1
vn -0 0 1
vn -0 0 1
vn -0 0 1
vn -0 0 1
vn -0 0 1
vn -0 0 1
vn -0 0 1
vn -0 0 1
vn -0 0 1
vn -0 0 1
vn -0 0 1
vn -0 0 1
vn -0 0 1
vn -0 0 1
vn -0 0 1
vn -0 0 1
vn -0 0 1
vn -0 0 1
vn -0 0 1
vn -0 0 1
vn -0 0 1
vn -0 0 1
vn -0 0 1
vn -0 0 1
vn -0 0 1
vn -0 0 1
vn -0 0 1
vn -0 0 1
vn -0 0 1
vn -0 0 1
vn -0 0 1
vn -0 0 1
vn -0 0 1
vn -0 0 1
vn -0 0 1
vn -0 0 1
vn -0 0 1
vn -0 0 1
vn -0 0 1
vn -0 0 1
vn -0 0 1
vn -0 0 1
vn -0 0 1
vn -0 0 1
vn -0 0 1
vn -0 0 1
vn -0 0 1
vn -0 0 1
vn -0 0 1
vn -0 0 1
vn -0 0 1
vn -0 0 1
vn -0 0 1
vn -0 0 1
vn -0 0 1
vn -0 0 1
vn -0 0 1
vn -0 0 1
vn -0 0 1
vn -0 0 1
vn -0 0 1
vn -0 0 1
vn -0 0 1
vn -0 0 1
vn -0 0 1
vn -0 0 1
vn -0 0 1
vn -0 0 1
vn -0 0 1
vn -0 0 1
vn -0 0 1
vn -0 0 1
vn -0 0 1
vn -0 0 1
vn -0 0 1
vn -0 0 1
vn -0 0 1
vn -0 0 1
vn -0 0 1
vn -0 0 1
vn -0 0 1
vn -0 0 1
vn -0 0 1
vn -0 0 1
vn -0 0 1
vn -0 0 1
vn -0 0 1
vn -0 0 1
vn -0 0 1
vn -0 0 1
vn -0 0 1
vn -0 0 1
vn -0 0 1
vn -0 0 1
vn -0 0 1
vn -0 0 1
vn -0 0 1
vn -0 0 1
vn -0 0 1
vn -0 0 1
vn -0 0 1
vn -0 0 1
vn -0 0 1
vn -0 0 1
vn -0 0 1
vn -0 0 1
vn -0 0 1
vn -0 0 1
vn -0 0 1
vn -0 0 1
vn -0 0 1
g fx_fbx_c090_heart_line_0
f 3/3/3 2/2/2 1/1/1
f 2/2/2 4/4/4 1/1/1
f 1/1/1 4/4/4 5/5/5
f 4/4/4 6/6/6 5/5/5
f 5/5/5 6/6/6 7/7/7
f 6/6/6 8/8/8 7/7/7
f 11/11/11 10/10/10 9/9/9
f 12/12/12 11/11/11 9/9/9
f 13/13/13 11/11/11 12/12/12
f 14/14/14 13/13/13 12/12/12
f 15/15/15 13/13/13 14/14/14
f 16/16/16 15/15/15 14/14/14
f 17/17/17 15/15/15 16/16/16
f 18/18/18 17/17/17 16/16/16
f 19/19/19 17/17/17 18/18/18
f 20/20/20 19/19/19 18/18/18
f 21/21/21 19/19/19 20/20/20
f 22/22/22 21/21/21 20/20/20
f 23/23/23 21/21/21 22/22/22
f 24/24/24 23/23/23 22/22/22
f 25/25/25 23/23/23 24/24/24
f 26/26/26 25/25/25 24/24/24
f 27/27/27 25/25/25 26/26/26
f 28/28/28 27/27/27 26/26/26
f 31/31/31 30/30/30 29/29/29
f 32/32/32 31/31/31 29/29/29
f 35/35/35 34/34/34 33/33/33
f 36/36/36 35/35/35 33/33/33
f 37/37/37 35/35/35 36/36/36
f 38/38/38 37/37/37 36/36/36
f 41/41/41 40/40/40 39/39/39
f 42/42/42 41/41/41 39/39/39
f 43/43/43 41/41/41 42/42/42
f 44/44/44 43/43/43 42/42/42
f 47/47/47 46/46/46 45/45/45
f 48/48/48 47/47/47 45/45/45
f 49/49/49 47/47/47 48/48/48
f 50/50/50 49/49/49 48/48/48
f 51/51/51 49/49/49 50/50/50
f 52/52/52 51/51/51 50/50/50
f 55/55/55 54/54/54 53/53/53
f 56/56/56 55/55/55 53/53/53
f 59/59/59 58/58/58 57/57/57
f 58/58/58 60/60/60 57/57/57
f 58/58/58 61/61/61 60/60/60
f 61/61/61 62/62/62 60/60/60
f 65/65/65 64/64/64 63/63/63
f 66/66/66 65/65/65 63/63/63
f 69/69/69 68/68/68 67/67/67
f 68/68/68 70/70/70 67/67/67
f 68/68/68 71/71/71 70/70/70
f 71/71/71 72/72/72 70/70/70
f 71/71/71 73/73/73 72/72/72
f 73/73/73 74/74/74 72/72/72
f 73/73/73 75/75/75 74/74/74
f 75/75/75 76/76/76 74/74/74
f 75/75/75 77/77/77 76/76/76
f 77/77/77 78/78/78 76/76/76
f 77/77/77 79/79/79 78/78/78
f 79/79/79 80/80/80 78/78/78
f 79/79/79 81/81/81 80/80/80
f 81/81/81 82/82/82 80/80/80
f 81/81/81 83/83/83 82/82/82
f 83/83/83 84/84/84 82/82/82
f 87/87/87 86/86/86 85/85/85
f 88/88/88 87/87/87 85/85/85
f 91/91/91 90/90/90 89/89/89
f 90/90/90 92/92/92 89/89/89
f 90/90/90 93/93/93 92/92/92
f 93/93/93 94/94/94 92/92/92
f 97/97/97 96/96/96 95/95/95
f 96/96/96 98/98/98 95/95/95
f 96/96/96 99/99/99 98/98/98
f 99/99/99 100/100/100 98/98/98
f 103/103/103 102/102/102 101/101/101
f 102/102/102 104/104/104 101/101/101
f 102/102/102 105/105/105 104/104/104
f 105/105/105 106/106/106 104/104/104
f 105/105/105 107/107/107 106/106/106
f 107/107/107 108/108/108 106/106/106
f 107/107/107 109/109/109 108/108/108
f 109/109/109 110/110/110 108/108/108
f 113/113/113 112/112/112 111/111/111
f 114/114/114 113/113/113 111/111/111
