g fx_fbx_febg_tropical_003_wave_03
v 2.6400137 0.018805003 -2.1784375
v 2.813821 0.018803557 -2.2847257
v 2.79553 -0.017845092 -2.0212047
v 2.9841318 -0.017846791 -2.181166
v 2.9908595 -0.05449519 -1.81857
v 3.215113 -0.04446055 -2.0713162
v 2.8613975 0.0056114667 -2.447217
v 3.0824857 -0.0078102155 -2.4503944
v 3.0410218 -0.0008317443 -2.6645355
v 3.3385272 -0.044460725 -2.4360857
v 2.84203 0.005611439 -2.6107864
v 3.3787503 -0.03748224 -2.7342522
v 3.215764 -0.03826507 -3.0225682
v 2.781836 0.0123025905 -2.754497
v 2.9753864 -0.0016145892 -2.894477
v 3.0344234 -0.038265098 -3.2605257
v 2.803999 -0.0016145968 -3.0162053
v 2.6632993 0.012302581 -2.8763573
v 2.602453 -0.038265083 -3.3790302
v 2.567423 0.025494805 -2.921431
v 2.5657432 0.0058596367 -3.121148
v 2.2972443 -0.05449459 -3.2637768
v 2.3284 -0.008895065 -3.057496
v 2.345419 0.027754363 -2.893781
v 2.0944488 -0.010754023 -2.9335861
v 2.156916 0.02589572 -2.75797
v 1.9483533 -0.054494 -3.27055
v 1.8747267 0.025895685 -2.6932645
v 1.7848675 -0.010754007 -2.8588092
v 1.6958718 -0.05449395 -3.1452663
v 1.4493831 -0.05449392 -2.8869352
v 1.5866667 -0.009774208 -2.682281
v 1.7045062 0.02687549 -2.5125399
v 1.6460569 0.018805472 -2.4180295
v 1.4089379 0.0023934192 -2.4791462
v 1.1584736 -0.05449391 -2.5535486
v 1.2896433 -0.054493893 -2.125054
v 1.4781698 0.002393436 -2.2213345
v 1.6379796 0.09605144 -2.278397
v 1.5209666 -0.054493904 -1.97156
v 1.6628556 0.00309515 -2.1238067
v 1.7708894 0.018805522 -2.2490506
v 1.8878276 0.018805543 -2.0771477
v 1.8139138 -0.017844183 -1.9643806
v 1.6595436 -0.0544939 -1.7858189
vt 1.66893E-06 1.000002
vt 0.073795736 1.000002
vt 1.7285347E-06 0.5000019
vt 0.073795795 0.5000019
vt 1.7285347E-06 1.5769426E-06
vt 0.073795795 1.5801684E-06
vt 0.15402383 1.000002
vt 0.15402389 0.5000019
vt 0.21812046 0.5000019
vt 0.15402389 1.5836752E-06
vt 0.2181204 1.000002
vt 0.21812046 1.586477E-06
vt 0.28570253 1.5894311E-06
vt 0.28570247 1.000002
vt 0.28570253 0.5000019
vt 0.34770614 1.5921414E-06
vt 0.34770614 0.5000019
vt 0.34770608 1.0000021
vt 0.43186504 1.5958201E-06
vt 0.43186498 1.0000021
vt 0.43186504 0.5000019
vt 0.49073678 1.5983934E-06
vt 0.49073678 0.5000019
vt 0.49073672 1.0000021
vt 0.55872595 0.5000019
vt 0.55872595 1.0000021
vt 0.558726 1.6013653E-06
vt 0.6203846 1.0000021
vt 0.6203846 0.5000019
vt 0.6203846 1.6040605E-06
vt 0.6958467 1.6073591E-06
vt 0.6958466 0.5000019
vt 0.6958466 1.0000021
vt 0.77014667 1.0000021
vt 0.77014667 0.5000019
vt 0.7701467 1.6106068E-06
vt 0.8700707 1.6149746E-06
vt 0.8700707 0.5000019
vt 0.87007064 1.0000021
vt 0.93960434 1.618014E-06
vt 0.93960434 0.5000019
vt 0.93960434 1.0000021
vt 0.99999946 1.0000021
vt 0.99999946 0.5000019
vt 0.99999946 1.620654E-06
vn 0.10593392 0.98386467 0.14418188
vn 0.11204601 0.9894441 0.09190265
vn 0.09106506 0.9882712 0.122585535
vn 0.10120701 0.9914663 0.082168244
vn 0.07475621 0.9922849 0.09890547
vn 0.09588748 0.9924769 0.07612765
vn 0.08562651 0.9960765 0.02235434
vn 0.103798054 0.9940528 0.032939453
vn 0.08420135 0.996439 -0.0044179074
vn 0.12038625 0.99193805 0.0395746
vn 0.049881157 0.9987445 0.0046198186
vn 0.116718814 0.9930869 -0.012452404
vn 0.098432176 0.99288213 -0.06705362
vn 0.046485852 0.9986078 -0.02493116
vn 0.07717491 0.99565244 -0.052154638
vn 0.07288096 0.9918051 -0.104933724
vn 0.064992905 0.9942879 -0.08466129
vn 0.06776015 0.9961153 -0.05623961
vn -0.019693496 0.9874894 -0.1564504
vn 0.02253558 0.9944819 -0.102459855
vn -0.016608443 0.98986346 -0.14104751
vn -0.07637045 0.9823046 -0.17101286
vn -0.076443985 0.98313624 -0.166131
vn -0.09343875 0.9812298 -0.16869289
vn -0.06269234 0.98444724 -0.16411328
vn -0.08068919 0.97905344 -0.18693204
vn -0.039340198 0.99005425 -0.1350736
vn -0.0865058 0.9827794 -0.16328283
vn -0.085423626 0.9864516 -0.14005728
vn -0.072173044 0.98979247 -0.122889616
vn -0.13060528 0.9822124 -0.13491131
vn -0.123610094 0.98415124 -0.1271493
vn -0.10633287 0.9885534 -0.10703089
vn -0.17583336 0.9776278 -0.115440376
vn -0.19203727 0.9793107 -0.063815065
vn -0.19510765 0.979621 -0.04770513
vn -0.20519626 0.9675589 0.14739148
vn -0.1861013 0.9712635 0.14836909
vn -0.12664409 0.96427983 0.23264901
vn -0.1376321 0.9691218 0.20459755
vn -0.08851165 0.95594245 0.2798924
vn -0.052017592 0.9436219 0.32691285
vn -0.09816695 0.9850366 0.14165483
vn -0.114009455 0.9813157 0.15498886
vn -0.12641947 0.9780879 0.16541557
g fx_fbx_febg_tropical_003_wave_03_0
f 3/3/3 2/2/2 1/1/1
f 4/4/4 2/2/2 3/3/3
f 4/4/4 3/3/3 5/5/5
f 4/4/4 5/5/5 6/6/6
f 7/7/7 2/2/2 4/4/4
f 8/8/8 4/4/4 6/6/6
f 4/4/4 8/8/8 7/7/7
f 8/8/8 9/9/9 7/7/7
f 6/6/6 10/10/10 8/8/8
f 9/9/9 8/8/8 10/10/10
f 11/11/11 7/7/7 9/9/9
f 10/10/10 12/12/12 9/9/9
f 9/9/9 12/12/12 13/13/13
f 14/14/14 11/11/11 9/9/9
f 13/13/13 15/15/15 9/9/9
f 15/15/15 14/14/14 9/9/9
f 15/15/15 13/13/13 16/16/16
f 15/15/15 17/17/17 14/14/14
f 16/16/16 17/17/17 15/15/15
f 17/17/17 18/18/18 14/14/14
f 19/19/19 17/17/17 16/16/16
f 20/20/20 18/18/18 17/17/17
f 19/19/19 21/21/21 17/17/17
f 17/17/17 21/21/21 20/20/20
f 21/21/21 19/19/19 22/22/22
f 20/20/20 21/21/21 23/23/23
f 22/22/22 23/23/23 21/21/21
f 23/23/23 24/24/24 20/20/20
f 25/25/25 23/23/23 22/22/22
f 24/24/24 23/23/23 25/25/25
f 26/26/26 24/24/24 25/25/25
f 25/25/25 22/22/22 27/27/27
f 28/28/28 26/26/26 25/25/25
f 29/29/29 25/25/25 27/27/27
f 25/25/25 29/29/29 28/28/28
f 27/27/27 30/30/30 29/29/29
f 30/30/30 31/31/31 29/29/29
f 29/29/29 32/32/32 28/28/28
f 32/32/32 29/29/29 31/31/31
f 28/28/28 32/32/32 33/33/33
f 34/34/34 33/33/33 32/32/32
f 35/35/35 32/32/32 31/31/31
f 32/32/32 35/35/35 34/34/34
f 31/31/31 36/36/36 35/35/35
f 35/35/35 36/36/36 37/37/37
f 34/34/34 35/35/35 38/38/38
f 37/37/37 38/38/38 35/35/35
f 38/38/38 39/39/39 34/34/34
f 38/38/38 37/37/37 40/40/40
f 39/39/39 38/38/38 41/41/41
f 41/41/41 38/38/38 40/40/40
f 42/42/42 39/39/39 41/41/41
f 43/43/43 42/42/42 41/41/41
f 41/41/41 44/44/44 43/43/43
f 44/44/44 41/41/41 40/40/40
f 40/40/40 45/45/45 44/44/44
