g fx_fbx_rocket_01
v -0.20825039 0.00023961067 0.08123921
v -0.17853458 0.0500855 0.08699064
v -0.17853458 0.00023961067 0.100410715
v -0.20825039 0.04049976 0.07069488
v -0.17853458 0.08699064 0.0500855
v -0.23077692 0.00023961067 0.057274833
v -0.20825039 0.07069488 0.04049976
v -0.17853458 0.100410715 0.00023961067
v -0.23077692 0.02851756 0.04960622
v -0.24515553 0.00023961067 0.02947615
v -0.24515553 0.014618233 0.025641844
v -0.23077692 0.04960622 0.02851756
v -0.24515553 0.025641844 0.014618233
v -0.20825039 0.08123921 0.00023961067
v -0.17853458 0.08699064 -0.05008559
v -0.23077692 0.057274833 0.00023961067
v -0.24515553 0.02947615 0.00023961067
v -0.20825039 0.07069488 -0.040499836
v -0.17853458 0.0500855 -0.08699073
v -0.23077692 0.04960622 -0.028517649
v -0.24515553 0.025641844 -0.014618307
v -0.20825039 0.04049976 -0.07069495
v -0.17853458 0.00023961067 -0.100410774
v -0.23077692 0.02851756 -0.049606293
v -0.24515553 0.014618233 -0.025641918
v -0.20825039 0.00023961067 -0.08123928
v -0.17853458 -0.05008559 -0.08699073
v -0.23077692 0.00023961067 -0.057274893
v -0.24515553 0.00023961067 -0.029476225
v -0.20825039 -0.040499836 -0.07069495
v -0.17853458 -0.08699073 -0.05008559
v -0.23077692 -0.028517649 -0.049606293
v -0.24515553 -0.014618307 -0.025641918
v -0.20825039 -0.07069495 -0.040499836
v -0.17853458 -0.100410774 0.00023961067
v -0.23077692 -0.049606293 -0.028517649
v -0.24515553 -0.025641918 -0.014618307
v -0.20825039 -0.08123928 0.00023961067
v -0.17853458 -0.08699073 0.0500855
v -0.23077692 -0.057274893 0.00023961067
v -0.24515553 -0.029476225 0.00023961067
v -0.20825039 -0.07069495 0.04049976
v -0.17853458 -0.05008559 0.08699064
v -0.23077692 -0.049606293 0.02851756
v -0.24515553 -0.025641918 0.014618233
v -0.20825039 -0.040499836 0.07069488
v -0.17853458 0.00023961067 0.100410715
v -0.20825039 0.00023961067 0.08123921
v -0.23077692 -0.028517649 0.04960622
v -0.24515553 -0.014618307 0.025641844
v -0.23077692 0.00023961067 0.057274833
v -0.24515553 0.00023961067 0.02947615
v -0.24515553 0.02947615 0.00023961067
v -0.24515553 0.014618233 -0.025641918
v -0.24515553 0.025641844 -0.014618307
v -0.24515553 0.014618233 0.025641844
v -0.24515553 0.025641844 0.014618233
v -0.24515553 -0.029476225 0.00023961067
v -0.24515553 -0.014618307 -0.025641918
v -0.24515553 0.00023961067 -0.029476225
v -0.24515553 -0.025641918 -0.014618307
v -0.24515553 -0.014618307 0.025641844
v -0.24515553 -0.025641918 0.014618233
v -0.24515553 0.00023961067 0.02947615
v 0.18332753 0.026121125 -0.045772
v 0.18332753 0.00023961067 -0.052482024
v 0.24515562 0.00023961067 0.00023961067
v 0.10903795 0.00023961067 -0.071174234
v 0.10903795 0.03426902 -0.06158848
v 0.18332753 0.04577191 -0.026121214
v 0.24515562 0.00023961067 0.00023961067
v 0.10903795 -0.034269094 -0.06158848
v 0.18332753 -0.026121214 -0.045772
v 0.24515562 0.00023961067 0.00023961067
v 0.10903795 0.059671268 -0.03666553
v 0.18332753 0.052481934 0.00023961067
v 0.24515562 0.00023961067 0.00023961067
v -0.0050324947 0.00023961067 -0.08555287
v -0.0050324947 -0.04241699 -0.074049965
v -0.0050324947 0.042416915 -0.074049965
v 0.10903795 -0.059671342 -0.03666553
v -0.0050324947 -0.07357067 -0.04289627
v 0.18332753 -0.045772 -0.026121214
v 0.24515562 0.00023961067 0.00023961067
v 0.10903795 0.068777725 -0.0021568388
v -0.0050324947 0.073570594 -0.04289627
v 0.18332753 0.04577191 0.026121125
v 0.24515562 0.00023961067 0.00023961067
v -0.11191361 0.00023961067 -0.096097186
v -0.11191361 -0.048168436 -0.08315642
v -0.11191361 -0.08315642 -0.048168436
v -0.11191361 0.048168346 -0.08315642
v -0.17853458 -0.05008559 -0.08699073
v -0.17853458 0.00023961067 -0.100410774
v -0.17853458 -0.08699073 -0.05008559
v -0.17853458 0.0500855 -0.08699073
v -0.17853458 -0.100410774 0.00023961067
v -0.11191361 0.08315636 -0.048168436
v -0.17853458 0.08699064 -0.05008559
v -0.11191361 -0.096097186 -0.00023968518
v -0.17853458 -0.08699073 0.0500855
v -0.0050324947 0.085073516 -0.0007189661
v -0.11191361 0.09609713 -0.00023968518
v -0.17853458 0.100410715 0.00023961067
v -0.0050324947 -0.085073575 -0.0007189661
v -0.11191361 -0.08315642 0.047689065
v -0.17853458 -0.05008559 0.08699064
v 0.10903795 0.059671268 0.032351866
v -0.11191361 0.08315636 0.047689065
v -0.17853458 0.08699064 0.0500855
v -0.0050324947 0.073570594 0.041937634
v 0.10903795 -0.0687778 -0.0021568388
v -0.11191361 -0.048168436 0.08267705
v -0.17853458 0.00023961067 0.100410715
v -0.11191361 0.00023961067 0.09945212
v -0.0050324947 -0.07357067 0.041937634
v -0.0050324947 -0.04241699 0.07309131
v -0.0050324947 0.00023961067 0.09178354
v 0.18332753 -0.052482024 0.00023961067
v 0.24515562 0.00023961067 0.00023961067
v 0.10903795 -0.059671342 0.032351866
v 0.10903795 -0.034269094 0.057754114
v 0.10903795 0.00023961067 0.07165344
v 0.18332753 -0.045772 0.026121125
v 0.24515562 0.00023961067 0.00023961067
v 0.18332753 -0.026121214 0.04577191
v 0.24515562 0.00023961067 0.00023961067
v 0.18332753 0.00023961067 0.052481934
v 0.24515562 0.00023961067 0.00023961067
v 0.18332753 0.026121125 0.04577191
v 0.24515562 0.00023961067 0.00023961067
v 0.10903795 0.03426902 0.057754114
v 0.18332753 0.00023961067 0.052481934
v 0.24515562 0.00023961067 0.00023961067
v 0.10903795 0.00023961067 0.07165344
v -0.0050324947 0.042416915 0.07309131
v -0.0050324947 0.00023961067 0.09178354
v -0.11191361 0.048168346 0.08267705
v -0.11191361 0.00023961067 0.09945212
v -0.17853458 0.0500855 0.08699064
v -0.17853458 0.00023961067 0.100410715
vt 0.050973088 0.8808882
vt 0.12450987 0.82836187
vt 0.050973088 0.82836187
vt 0.12450987 0.8808882
vt 0.20067297 0.82836187
vt 0.050973088 0.92290926
vt 0.20067297 0.8808882
vt 0.27420974 0.82836187
vt 0.12450987 0.92290926
vt 0.050973088 0.9491724
vt 0.12450987 0.9491724
vt 0.20067297 0.92290926
vt 0.20067297 0.9491724
vt 0.27420974 0.8808882
vt 0.35037285 0.82836187
vt 0.27420974 0.92290926
vt 0.27420974 0.9491724
vt 0.35037285 0.8808882
vt 0.4239096 0.82836187
vt 0.35037285 0.92290926
vt 0.35037285 0.9491724
vt 0.4239096 0.8808882
vt 0.4974464 0.82836187
vt 0.4239096 0.92290926
vt 0.4239096 0.9491724
vt 0.4974464 0.8808882
vt 0.5736095 0.82836187
vt 0.4974464 0.92290926
vt 0.4974464 0.9491724
vt 0.5736095 0.8808882
vt 0.6471462 0.82836187
vt 0.5736095 0.92290926
vt 0.5736095 0.9491724
vt 0.6471462 0.8808882
vt 0.7233094 0.82836187
vt 0.6471462 0.92290926
vt 0.6471462 0.9491724
vt 0.7233094 0.8808882
vt 0.79684615 0.82836187
vt 0.7206831 0.92290926
vt 0.7206831 0.9491724
vt 0.79684615 0.8808882
vt 0.8703829 0.82836187
vt 0.79684615 0.92290926
vt 0.79684615 0.9491724
vt 0.8703829 0.8808882
vt 0.9465461 0.82836187
vt 0.9465461 0.8808882
vt 0.8703829 0.92290926
vt 0.8703829 0.9491724
vt 0.9465461 0.92290926
vt 0.9465461 0.9491724
vt 1.1697826 0.9491724
vt 1.3194826 0.9491724
vt 1.2433194 0.9491724
vt 1.0200828 0.9491724
vt 1.0936196 0.9491724
vt 0.7206831 0.9491724
vt 0.5736095 0.9491724
vt 1.3930193 0.9491724
vt 0.6471462 0.9491724
vt 0.8703829 0.9491724
vt 0.79684615 0.9491724
vt 0.9465461 0.9491724
vt 0.4239096 0.2479466
vt 0.4974464 0.2479466
vt 0.4974464 0.056225713
vt 0.4974464 0.44229382
vt 0.4239096 0.44229382
vt 0.35037285 0.2479466
vt 0.4974464 0.056225713
vt 0.5736095 0.44229382
vt 0.5736095 0.2479466
vt 0.4974464 0.056225713
vt 0.35037285 0.44229382
vt 0.27420974 0.2479466
vt 0.4974464 0.056225713
vt 0.4974464 0.6996726
vt 0.5736095 0.6996726
vt 0.4239096 0.6996726
vt 0.6471462 0.44229382
vt 0.6471462 0.6996726
vt 0.6471462 0.2479466
vt 0.4974464 0.056225713
vt 0.27420974 0.44229382
vt 0.35037285 0.6996726
vt 0.20067297 0.2479466
vt 0.4974464 0.056225713
vt 0.4974464 0.762704
vt 0.5736095 0.762704
vt 0.6471462 0.762704
vt 0.4239096 0.762704
vt 0.5736095 0.82836187
vt 0.4974464 0.82836187
vt 0.6471462 0.82836187
vt 0.4239096 0.82836187
vt 0.7233094 0.82836187
vt 0.35037285 0.762704
vt 0.35037285 0.82836187
vt 0.7233094 0.762704
vt 0.79684615 0.82836187
vt 0.27420974 0.6996726
vt 0.27420974 0.762704
vt 0.27420974 0.82836187
vt 0.7233094 0.6996726
vt 0.79684615 0.762704
vt 0.8703829 0.82836187
vt 0.20067297 0.44229382
vt 0.20067297 0.762704
vt 0.20067297 0.82836187
vt 0.20067297 0.6996726
vt 0.7233094 0.44229382
vt 0.8703829 0.762704
vt 0.9465461 0.82836187
vt 0.9465461 0.762704
vt 0.79684615 0.6996726
vt 0.8703829 0.6996726
vt 0.9465461 0.6996726
vt 0.7233094 0.2479466
vt 0.4974464 0.056225713
vt 0.79684615 0.44229382
vt 0.8703829 0.44229382
vt 0.9465461 0.44229382
vt 0.79684615 0.2479466
vt 0.4974464 0.056225713
vt 0.8703829 0.2479466
vt 0.4974464 0.056225713
vt 0.9465461 0.2479466
vt 0.4974464 0.056225713
vt 0.12450987 0.2479466
vt 0.4974464 0.056225713
vt 0.12450987 0.44229382
vt 0.050973088 0.2479466
vt 0.4974464 0.056225713
vt 0.050973088 0.44229382
vt 0.12450987 0.6996726
vt 0.050973088 0.6996726
vt 0.12450987 0.762704
vt 0.050973088 0.762704
vt 0.12450987 0.82836187
vt 0.050973088 0.82836187
vn -0.6189697 0.015871048 0.78525454
vn -0.5237435 0.42851746 0.736251
vn -0.5237435 0.015871048 0.85172814
vn -0.6189697 0.39677536 0.6778243
vn -0.5237435 0.7459378 0.41142374
vn -0.8094218 0.015871048 0.58701324
vn -0.6189697 0.68245375 0.3887588
vn -0.5237435 0.8411639 -0.13467027
vn -0.8094218 0.30154932 0.5038893
vn -0.90464795 0.015871048 0.42586404
vn -0.90464795 0.23806524 0.3534643
vn -0.8094218 0.5237435 0.26557326
vn -0.90464795 0.39677536 0.15550363
vn -0.6189697 0.7776798 -0.10995764
vn -0.5237435 0.7459378 -0.41142374
vn -0.8094218 0.5872276 -0.00042286396
vn -0.891278 0.4534572 -0
vn -0.6189697 0.68245375 -0.3887588
vn -0.5237435 0.42851746 -0.736251
vn -0.8094218 0.5237435 -0.26557326
vn -0.90464795 0.39677536 -0.15550363
vn -0.6189697 0.39677536 -0.6778243
vn -0.5237435 0.015871048 -0.85172814
vn -0.8094218 0.30154932 -0.5038893
vn -0.90464795 0.23806524 -0.3534643
vn -0.6189697 0.015871048 -0.78525454
vn -0.5237435 -0.4285174 -0.73625106
vn -0.8094218 0.015871048 -0.58701324
vn -0.90464795 0.015871048 -0.42586404
vn -0.6189697 -0.39677536 -0.6778243
vn -0.5237435 -0.7459377 -0.41142398
vn -0.8094218 -0.30154932 -0.5038893
vn -0.90464795 -0.23806524 -0.3534643
vn -0.6189697 -0.68245363 -0.38875905
vn -0.5237435 -0.8411638 -0.13467072
vn -0.8094218 -0.5237435 -0.26557326
vn -0.90464795 -0.39677536 -0.15550363
vn -0.6189697 -0.7776798 -0.10995764
vn -0.5237435 -0.7459377 0.41142398
vn -0.8094218 -0.5872276 -0.00042286396
vn -0.891278 -0.4534572 -0
vn -0.6189697 -0.68245363 0.38875905
vn -0.5237435 -0.4285174 0.73625106
vn -0.8094218 -0.5237435 0.26557326
vn -0.90464795 -0.39677536 0.15550363
vn -0.6189697 -0.39677536 0.6778243
vn -0.5237435 0.015871048 0.85172814
vn -0.6189697 0.015871048 0.78525454
vn -0.8094218 -0.30154932 0.5038893
vn -0.90464795 -0.23806524 0.3534643
vn -0.8094218 0.015871048 0.58701324
vn -0.90464795 0.015871048 0.42586404
vn -0.999874 0.015871048 -0.00034391563
vn -0.999874 0.015871048 -0.00034391563
vn -0.999874 0.015871048 -0.00034391563
vn -0.999874 0.015871048 -0.00034391563
vn -0.999874 0.015871048 -0.00034391563
vn -0.999874 0.015871048 -0.00034391563
vn -0.999874 0.015871048 -0.00034391563
vn -0.999874 0.015871048 -0.00034391563
vn -0.999874 0.015871048 -0.00034391563
vn -0.999874 0.015871048 -0.00034391563
vn -0.999874 0.015871048 -0.00034391563
vn -0.999874 0.015871048 -0.00034391563
vn 0.4285174 0.46025944 -0.7775179
vn 0.4285174 0.015871048 -0.90339416
vn 0.999874 0.015871048 -0.00034391563
vn 0.17458117 0.015871048 -0.98451483
vn 0.17458117 0.49200153 -0.8529103
vn 0.4285174 0.7776798 -0.45998588
vn 0.999874 0.015871048 -0.00034391563
vn 0.17458117 -0.49200147 -0.8529103
vn 0.4285174 -0.46025944 -0.7775179
vn 0.999874 0.015871048 -0.00034391563
vn 0.17458117 0.8411639 -0.5118249
vn 0.42808628 0.9037378 -0
vn 0.999874 0.015871048 -0.00034391563
vn 0.1110971 0.015871048 -0.9936828
vn 0.1110971 -0.49200147 -0.8634767
vn 0.1110971 0.49200153 -0.86347663
vn 0.17458117 -0.8411638 -0.511825
vn 0.1110971 -0.87290585 -0.47507137
vn 0.4285174 -0.7776798 -0.45998588
vn 0.999874 0.015871048 -0.00034391563
vn 0.172001 0.9850967 -0
vn 0.1110971 0.87290585 -0.47507137
vn 0.4285174 0.7776798 0.45998588
vn 0.999874 0.015871048 -0.00034391563
vn 0.047613025 0.015871048 -0.9987398
vn 0.07935506 -0.49200147 -0.8669702
vn 0.07935506 -0.87290585 -0.48139188
vn 0.047613025 0.49200153 -0.86929137
vn 0.047613025 -0.49200147 -0.8692914
vn 0.047613025 0.015871048 -0.9987398
vn 0.047613025 -0.87290585 -0.48555985
vn 0.047613025 0.49200153 -0.86929137
vn 0.079116285 -0.9968654 -0
vn 0.07935506 0.87290585 -0.48139188
vn 0.047613025 0.87290585 -0.48555985
vn 0.079116285 -0.9968654 -0
vn 0.07935506 -0.87290585 0.48139188
vn 0.110431515 0.9938838 -0
vn 0.079116285 0.9968654 -0
vn 0.079116285 0.9968654 -0
vn 0.110431515 -0.9938838 -0
vn 0.07935506 -0.87290585 0.48139188
vn 0.07935506 -0.49200147 0.8669702
vn 0.17458117 0.8411639 0.5118249
vn 0.07935506 0.87290585 0.48139188
vn 0.07935506 0.87290585 0.48139188
vn 0.1110971 0.87290585 0.47507137
vn 0.172001 -0.9850967 -0
vn 0.07935506 -0.5237435 0.8481719
vn 0.015870988 -0.015870988 0.99974805
vn 0.047613025 -0.015870988 0.9987398
vn 0.1110971 -0.87290585 0.47507137
vn 0.1110971 -0.55548555 0.8240711
vn 0.1110971 -0.015870988 0.9936828
vn 0.42808634 -0.90373784 -0
vn 0.999874 0.015871048 -0.00034391563
vn 0.17458117 -0.8411638 0.511825
vn 0.17458117 -0.55548555 0.81299275
vn 0.2063232 0.015871048 0.97835517
vn 0.4285174 -0.7776798 0.45998588
vn 0.999874 0.015871048 -0.00034391563
vn 0.4285174 -0.46025944 0.7775179
vn 0.999874 0.015871048 -0.00034391563
vn 0.4285174 0.015871048 0.90339416
vn 0.999874 0.015871048 -0.00034391563
vn 0.4285174 0.46025944 0.7775179
vn 0.999874 0.015871048 -0.00034391563
vn 0.17458117 0.5554856 0.8129927
vn 0.4285174 0.015871048 0.90339416
vn 0.999874 0.015871048 -0.00034391563
vn 0.2063232 0.015871048 0.97835517
vn 0.14283913 0.5554856 0.8191659
vn 0.1110971 -0.015870988 0.9936828
vn 0.07935506 0.5237435 0.8481719
vn 0.047613025 -0.015870988 0.9987398
vn 0.047613025 0.5237435 0.8505444
vn 0.015870988 -0.015870988 0.99974805
g fx_fbx_rocket_01_0
f 3/3/3 2/2/2 1/1/1
f 4/4/4 1/1/1 2/2/2
f 2/2/2 5/5/5 4/4/4
f 1/1/1 4/4/4 6/6/6
f 7/7/7 4/4/4 5/5/5
f 5/5/5 8/8/8 7/7/7
f 9/9/9 6/6/6 4/4/4
f 4/4/4 7/7/7 9/9/9
f 6/6/6 9/9/9 10/10/10
f 11/11/11 10/10/10 9/9/9
f 9/9/9 12/12/12 11/11/11
f 12/12/12 9/9/9 7/7/7
f 13/13/13 11/11/11 12/12/12
f 14/14/14 7/7/7 8/8/8
f 7/7/7 14/14/14 12/12/12
f 8/8/8 15/15/15 14/14/14
f 12/12/12 16/16/16 13/13/13
f 16/16/16 12/12/12 14/14/14
f 17/17/17 13/13/13 16/16/16
f 18/18/18 14/14/14 15/15/15
f 14/14/14 18/18/18 16/16/16
f 15/15/15 19/19/19 18/18/18
f 16/16/16 20/20/20 17/17/17
f 20/20/20 16/16/16 18/18/18
f 21/21/21 17/17/17 20/20/20
f 22/22/22 18/18/18 19/19/19
f 18/18/18 22/22/22 20/20/20
f 19/19/19 23/23/23 22/22/22
f 20/20/20 24/24/24 21/21/21
f 24/24/24 20/20/20 22/22/22
f 25/25/25 21/21/21 24/24/24
f 26/26/26 22/22/22 23/23/23
f 22/22/22 26/26/26 24/24/24
f 23/23/23 27/27/27 26/26/26
f 24/24/24 28/28/28 25/25/25
f 28/28/28 24/24/24 26/26/26
f 29/29/29 25/25/25 28/28/28
f 30/30/30 26/26/26 27/27/27
f 26/26/26 30/30/30 28/28/28
f 27/27/27 31/31/31 30/30/30
f 28/28/28 32/32/32 29/29/29
f 32/32/32 28/28/28 30/30/30
f 33/33/33 29/29/29 32/32/32
f 34/34/34 30/30/30 31/31/31
f 30/30/30 34/34/34 32/32/32
f 31/31/31 35/35/35 34/34/34
f 32/32/32 36/36/36 33/33/33
f 36/36/36 32/32/32 34/34/34
f 37/37/37 33/33/33 36/36/36
f 38/38/38 34/34/34 35/35/35
f 34/34/34 38/38/38 36/36/36
f 35/35/35 39/39/39 38/38/38
f 36/36/36 40/40/40 37/37/37
f 40/40/40 36/36/36 38/38/38
f 41/41/41 37/37/37 40/40/40
f 42/42/42 38/38/38 39/39/39
f 38/38/38 42/42/42 40/40/40
f 39/39/39 43/43/43 42/42/42
f 40/40/40 44/44/44 41/41/41
f 44/44/44 40/40/40 42/42/42
f 45/45/45 41/41/41 44/44/44
f 46/46/46 42/42/42 43/43/43
f 42/42/42 46/46/46 44/44/44
f 43/43/43 47/47/47 46/46/46
f 48/48/48 46/46/46 47/47/47
f 44/44/44 49/49/49 45/45/45
f 49/49/49 44/44/44 46/46/46
f 46/46/46 48/48/48 49/49/49
f 50/50/50 45/45/45 49/49/49
f 51/51/51 49/49/49 48/48/48
f 49/49/49 51/51/51 50/50/50
f 52/52/52 50/50/50 51/51/51
f 55/55/55 54/54/54 53/53/53
f 54/54/54 56/56/56 53/53/53
f 56/56/56 57/57/57 53/53/53
f 58/58/58 56/56/56 54/54/54
f 59/59/59 58/58/58 54/54/54
f 60/60/60 59/59/59 54/54/54
f 61/61/61 58/58/58 59/59/59
f 62/62/62 56/56/56 58/58/58
f 63/63/63 62/62/62 58/58/58
f 64/64/64 56/56/56 62/62/62
f 67/67/67 66/66/66 65/65/65
f 66/66/66 68/68/68 65/65/65
f 69/69/69 65/65/65 68/68/68
f 65/65/65 69/69/69 70/70/70
f 71/71/71 65/65/65 70/70/70
f 68/68/68 66/66/66 72/72/72
f 73/73/73 72/72/72 66/66/66
f 74/74/74 73/73/73 66/66/66
f 75/75/75 70/70/70 69/69/69
f 70/70/70 75/75/75 76/76/76
f 77/77/77 70/70/70 76/76/76
f 68/68/68 78/78/78 69/69/69
f 72/72/72 79/79/79 68/68/68
f 78/78/78 68/68/68 79/79/79
f 69/69/69 80/80/80 75/75/75
f 80/80/80 69/69/69 78/78/78
f 72/72/72 73/73/73 81/81/81
f 79/79/79 72/72/72 82/82/82
f 81/81/81 82/82/82 72/72/72
f 83/83/83 81/81/81 73/73/73
f 84/84/84 83/83/83 73/73/73
f 85/85/85 76/76/76 75/75/75
f 86/86/86 75/75/75 80/80/80
f 75/75/75 86/86/86 85/85/85
f 76/76/76 85/85/85 87/87/87
f 88/88/88 76/76/76 87/87/87
f 78/78/78 89/89/89 80/80/80
f 79/79/79 90/90/90 78/78/78
f 89/89/89 78/78/78 90/90/90
f 82/82/82 91/91/91 79/79/79
f 90/90/90 79/79/79 91/91/91
f 80/80/80 92/92/92 86/86/86
f 92/92/92 80/80/80 89/89/89
f 90/90/90 93/93/93 89/89/89
f 94/94/94 89/89/89 93/93/93
f 89/89/89 94/94/94 92/92/92
f 93/93/93 90/90/90 95/95/95
f 91/91/91 95/95/95 90/90/90
f 96/96/96 92/92/92 94/94/94
f 95/95/95 91/91/91 97/97/97
f 92/92/92 96/96/96 98/98/98
f 98/98/98 86/86/86 92/92/92
f 99/99/99 98/98/98 96/96/96
f 100/100/100 97/97/97 91/91/91
f 91/91/91 82/82/82 100/100/100
f 97/97/97 100/100/100 101/101/101
f 86/86/86 98/98/98 102/102/102
f 102/102/102 85/85/85 86/86/86
f 98/98/98 99/99/99 103/103/103
f 103/103/103 102/102/102 98/98/98
f 104/104/104 103/103/103 99/99/99
f 105/105/105 100/100/100 82/82/82
f 82/82/82 81/81/81 105/105/105
f 106/106/106 101/101/101 100/100/100
f 100/100/100 105/105/105 106/106/106
f 101/101/101 106/106/106 107/107/107
f 85/85/85 102/102/102 108/108/108
f 108/108/108 87/87/87 85/85/85
f 103/103/103 104/104/104 109/109/109
f 110/110/110 109/109/109 104/104/104
f 102/102/102 103/103/103 111/111/111
f 111/111/111 108/108/108 102/102/102
f 109/109/109 111/111/111 103/103/103
f 112/112/112 105/105/105 81/81/81
f 81/81/81 83/83/83 112/112/112
f 113/113/113 107/107/107 106/106/106
f 107/107/107 113/113/113 114/114/114
f 115/115/115 114/114/114 113/113/113
f 116/116/116 106/106/106 105/105/105
f 106/106/106 116/116/116 113/113/113
f 105/105/105 112/112/112 116/116/116
f 113/113/113 117/117/117 115/115/115
f 117/117/117 113/113/113 116/116/116
f 118/118/118 115/115/115 117/117/117
f 119/119/119 112/112/112 83/83/83
f 120/120/120 119/119/119 83/83/83
f 121/121/121 116/116/116 112/112/112
f 116/116/116 121/121/121 117/117/117
f 112/112/112 119/119/119 121/121/121
f 117/117/117 122/122/122 118/118/118
f 122/122/122 117/117/117 121/121/121
f 123/123/123 118/118/118 122/122/122
f 124/124/124 121/121/121 119/119/119
f 121/121/121 124/124/124 122/122/122
f 125/125/125 124/124/124 119/119/119
f 122/122/122 126/126/126 123/123/123
f 126/126/126 122/122/122 124/124/124
f 127/127/127 126/126/126 124/124/124
f 128/128/128 123/123/123 126/126/126
f 129/129/129 128/128/128 126/126/126
f 131/131/131 87/87/87 130/130/130
f 87/87/87 108/108/108 130/130/130
f 132/132/132 130/130/130 108/108/108
f 108/108/108 111/111/111 132/132/132
f 130/130/130 132/132/132 133/133/133
f 134/134/134 130/130/130 133/133/133
f 135/135/135 133/133/133 132/132/132
f 136/136/136 132/132/132 111/111/111
f 132/132/132 136/136/136 135/135/135
f 111/111/111 109/109/109 136/136/136
f 137/137/137 135/135/135 136/136/136
f 138/138/138 136/136/136 109/109/109
f 136/136/136 138/138/138 137/137/137
f 109/109/109 110/110/110 138/138/138
f 139/139/139 137/137/137 138/138/138
f 140/140/140 138/138/138 110/110/110
f 138/138/138 140/140/140 139/139/139
f 141/141/141 139/139/139 140/140/140
