g fx_fbx_mbg002_blade
v -0.35897303 1.2685783 1.0436517
v -1.7524838 1.6280944 -0.024879336
v -0.65090036 2.2943618 -0.019760013
v -0.9854522 0.88967204 1.0407411
v -2.3672528 0.49696612 -0.029842257
v 0.34803915 1.2848823 1.0458032
v 0.5988126 2.323178 -0.015964389
v -1.335074 0.2463901 1.037922
v -2.3384213 -0.75274587 -0.033225894
v 0.0240798 -0.077475786 1.5993577
v 0.99132395 0.93525195 1.0467378
v -1.3187633 -0.46062398 1.036007
v 1.7299485 1.7084033 -0.01431644
v -1.6721482 -1.8543389 -0.034313083
v 1.3702378 0.30877376 1.0461274
v 2.3962207 0.60681224 -0.015395999
v -0.9398484 -1.0871108 1.0353929
v -0.54101324 -2.4691155 -0.032649875
v 1.3865457 -0.39823842 1.0442086
v 2.4250522 -0.64290357 -0.018779635
v -0.29656553 -1.4367354 1.0363351
v 0.70869875 -2.4402936 -0.028865695
v 1.0369239 -1.0415194 1.0413896
v 1.8102832 -1.7740328 -0.023746371
v 0.41044664 -1.4204285 1.0384752
v 2.3962207 0.60681224 -0.015395999
v 1.3928742 -0.39232183 -1.0865401
v 2.4250522 -0.64290357 -0.018779635
v 1.3765635 0.31469226 -1.0846366
v 1.7299485 1.7084033 -0.01431644
v 1.0432525 -1.0356028 -1.0893706
v 1.8102832 -1.7740328 -0.023746371
v 0.9976506 0.94117045 -1.0840186
v 0.5988126 2.323178 -0.015964389
v 0.033723354 -0.06845784 -1.6479758
v 0.41677332 -1.414511 -1.0922774
v 0.35436583 1.2907989 -1.0849608
v 0.70869875 -2.4402936 -0.028865695
v -0.65090036 2.2943618 -0.019760013
v -0.29023886 -1.430815 -1.0944213
v -0.54101324 -2.4691155 -0.032649875
v -0.35264444 1.2744949 -1.087097
v -1.7524838 1.6280944 -0.024879336
v -0.93352175 -1.0811894 -1.0953635
v -1.6721482 -1.8543389 -0.034313083
v -0.9791236 0.89558864 -1.0900115
v -2.3672528 0.49696612 -0.029842257
v -1.3124366 -0.45470548 -1.0947493
v -2.3384213 -0.75274587 -0.033225894
v -1.3287454 0.2523067 -1.0928344
v 2.1396117 -0.87192655 0.17252362
v 3.2054372 0.0010573864 -0.29640567
v 3.0006318 -1.1999533 -0.30034626
v 2.284639 -0.021460772 0.1753236
v 2.9454675 1.1913536 -0.29387653
v 1.6601996 -1.6317914 0.16900265
v 2.3277059 -2.266536 -0.30530536
v 0.08037233 -2.3298132 0.1623689
v -0.023730755 2.1828277 0.17458355
v -2.2279963 -0.1255219 0.16163647
v 0.92324686 -2.1457274 0.16538632
v 1.2932792 -2.9879258 -0.31038272
v 0.10299063 -3.2478888 -0.3146361
v 2.1005473 0.82141757 0.17710888
v 2.224071 2.2257793 -0.2931441
v 1.5866046 1.5583732 0.17763913
v 1.1574855 2.8987167 -0.29444492
v 0.82673883 2.037793 0.17671216
v -0.04353094 3.1035316 -0.29743946
v -1.2338223 2.8435714 -0.30169284
v -0.77009344 -2.1847775 0.16024792
v -1.0980229 -3.04307 -0.31763446
v -1.5299649 -1.7053587 0.15932477
v -2.1646123 -2.3701346 -0.31893146
v -2.0439057 -0.96840405 0.15984356
v -2.8860068 -1.335705 -0.31820285
v -3.1459794 -0.14541173 -0.3156737
v -0.8666043 1.9987457 0.17157376
v -2.2682424 2.1221817 -0.3067702
v -1.6035562 1.4848068 0.16795743
v -2.941173 1.0555999 -0.3117255
v -2.0829692 0.72494197 0.16442883
vt 0.29860187 0.086097986
vt 0.26018512 0.10770735
vt 0.27047646 0.069710046
vt 0.2927491 0.10770732
vt 0.27047643 0.14570466
vt 0.3138929 0.07080692
vt 0.29750496 0.042681634
vt 0.29860187 0.12931666
vt 0.29750496 0.1727331
vt 0.33550224 0.10770729
vt 0.3355022 0.06495419
vt 0.3138929 0.14460763
vt 0.3355022 0.032390207
vt 0.33550227 0.18302444
vt 0.35711157 0.07080692
vt 0.3734995 0.042681605
vt 0.33550224 0.15046042
vt 0.37349954 0.17273313
vt 0.3724026 0.086097956
vt 0.400528 0.069710016
vt 0.35711157 0.14460766
vt 0.400528 0.14570463
vt 0.37825537 0.10770729
vt 0.41081935 0.10770732
vt 0.3724026 0.12931663
vt 0.3734995 0.042681605
vt 0.3724026 0.086097956
vt 0.400528 0.069710016
vt 0.35711157 0.07080692
vt 0.3355022 0.032390207
vt 0.37825537 0.10770729
vt 0.41081935 0.10770732
vt 0.3355022 0.06495419
vt 0.29750496 0.042681634
vt 0.33550224 0.10770729
vt 0.3724026 0.12931663
vt 0.3138929 0.07080692
vt 0.400528 0.14570463
vt 0.27047646 0.069710046
vt 0.35711157 0.14460766
vt 0.37349954 0.17273313
vt 0.29860187 0.086097986
vt 0.26018512 0.10770735
vt 0.33550224 0.15046042
vt 0.33550227 0.18302444
vt 0.2927491 0.10770732
vt 0.27047643 0.14570466
vt 0.3138929 0.14460763
vt 0.29750496 0.1727331
vt 0.29860187 0.12931666
vt 0.97299373 0.9251934
vt 0.97606623 0.9001943
vt 0.9885393 0.9186857
vt 0.9641613 0.91209924
vt 0.95757484 0.8877212
vt 0.9762534 0.94131577
vt 0.9931147 0.94131577
vt 0.9641613 0.9705322
vt 0.9057283 0.91209924
vt 0.90572834 0.97053224
vt 0.97299373 0.9574381
vt 0.98853934 0.96394587
vt 0.97606623 0.9824372
vt 0.9510671 0.9032668
vt 0.93494475 0.8831459
vt 0.93494475 0.9000072
vt 0.91231465 0.88772124
vt 0.91882247 0.9032668
vt 0.8938233 0.90019435
vt 0.8813503 0.9186857
vt 0.9510671 0.97936475
vt 0.9575749 0.99491024
vt 0.9349448 0.9826244
vt 0.9349448 0.9994857
vt 0.91882247 0.97936475
vt 0.9123147 0.9949103
vt 0.8938234 0.98243725
vt 0.89689577 0.9251935
vt 0.8767749 0.94131577
vt 0.8936362 0.94131577
vt 0.8813503 0.96394587
vt 0.8968958 0.9574381
vn -0.16270675 0.54761004 0.8207617
vn -0.5135988 0.48647678 0.7067932
vn -0.19980082 0.67723477 0.70811915
vn -0.41686377 0.39347553 0.819391
vn -0.6896882 0.16421494 0.7052402
vn 0.13230906 0.5544117 0.8216581
vn 0.16407219 0.6856265 0.70922256
vn -0.55912197 0.13247347 0.8184335
vn -0.68129426 -0.19965942 0.70425445
vn -0.0029684315 -0.002775174 0.9999918
vn 0.39331025 0.41215506 0.8218487
vn -0.5523178 -0.16254199 0.817634
vn 0.4863345 0.50953436 0.70982635
vn -0.49053642 -0.51345986 0.7040831
vn 0.5474503 0.1579884 0.82178944
vn 0.6770981 0.19573233 0.709385
vn -0.39817876 -0.4167042 0.81719714
vn -0.16826944 -0.68955195 0.7044172
vn 0.55425644 -0.1370227 0.82098997
vn 0.68549055 -0.16813804 0.7084012
vn -0.13717367 -0.55896354 0.81776714
vn 0.19560447 -0.68116057 0.7055204
vn 0.4119992 -0.3980208 0.819656
vn 0.50940126 -0.4904025 0.70711786
vn 0.15783904 -0.55216134 0.8186604
vn 0.6812968 0.19965626 -0.70425266
vn 0.5591238 -0.13247225 -0.8184324
vn 0.6896882 -0.16421305 -0.7052405
vn 0.5523171 0.1625369 -0.8176353
vn 0.4905328 0.5134625 -0.70408374
vn 0.41686356 -0.3934702 -0.81939375
vn 0.51359844 -0.48647705 -0.70679325
vn 0.3981751 0.4167059 -0.8171981
vn 0.16827124 0.6895543 -0.70441437
vn 0.0029685842 0.0027750162 -0.9999918
vn 0.16270073 -0.5476102 -0.82076275
vn 0.13717532 0.5589631 -0.81776714
vn 0.1997966 -0.677236 -0.7081192
vn -0.19560212 0.6811602 -0.7055214
vn -0.13230747 -0.55441284 -0.8216576
vn -0.16406983 -0.68562716 -0.70922244
vn -0.157839 0.55215985 -0.8186612
vn -0.5094023 0.49040055 -0.7071185
vn -0.39330637 -0.41215414 -0.82185096
vn -0.48633248 -0.5095343 -0.7098278
vn -0.41199717 0.39802283 -0.8196562
vn -0.6854915 0.16813739 -0.70840037
vn -0.54744923 -0.15798785 -0.82179016
vn -0.67709833 -0.19573057 -0.70938516
vn -0.55425465 0.13702264 -0.82099116
vn 0.24297756 -0.0968637 0.96518356
vn 0.45577917 0.008104305 0.89005595
vn 0.42521584 -0.16638869 0.8896664
vn 0.25983593 0.0033785657 0.96564686
vn 0.41720232 0.18100733 0.8906057
vn 0.18769065 -0.18463945 0.9647179
vn 0.3286001 -0.31877363 0.88904744
vn 0.0031956953 -0.2653773 0.96413934
vn -0.008926317 0.26001948 0.96556205
vn -0.26556447 -0.008735795 0.96405345
vn 0.102546796 -0.24389441 0.9643649
vn 0.18083817 -0.4223156 0.8882269
vn 0.007937698 -0.46088478 0.88742447
vn 0.238371 0.10274387 0.9657241
vn 0.3136637 0.3287682 0.8908011
vn 0.17909928 0.18787403 0.965726
vn 0.16128476 0.42539304 0.89052117
vn 0.09131051 0.24313796 0.9656844
vn -0.0132134035 0.45595187 0.88990635
vn -0.18611635 0.41737667 0.88947034
vn -0.09704178 -0.24849792 0.9637592
vn -0.16656107 -0.43032515 0.887174
vn -0.18482482 -0.19323154 0.9635878
vn -0.31894022 -0.3337048 0.8870841
vn -0.24408174 -0.108090155 0.9637119
vn -0.42248484 -0.18594085 0.8870922
vn -0.46105924 -0.013039457 0.88727355
vn -0.10827481 0.23853247 0.9650797
vn -0.33387816 0.31383613 0.8888376
vn -0.1934185 0.17928632 0.9645961
vn -0.43049666 0.16145746 0.8880339
vn -0.24867773 0.09150192 0.9642545
g fx_fbx_mbg002_blade_0
f 3/3/3 2/2/2 1/1/1
f 4/4/4 1/1/1 2/2/2
f 2/2/2 5/5/5 4/4/4
f 1/1/1 6/6/6 3/3/3
f 7/7/7 3/3/3 6/6/6
f 8/8/8 4/4/4 5/5/5
f 5/5/5 9/9/9 8/8/8
f 10/10/10 1/1/1 4/4/4
f 10/10/10 6/6/6 1/1/1
f 10/10/10 4/4/4 8/8/8
f 10/10/10 11/11/11 6/6/6
f 6/6/6 11/11/11 7/7/7
f 10/10/10 8/8/8 12/12/12
f 12/12/12 8/8/8 9/9/9
f 13/13/13 7/7/7 11/11/11
f 9/9/9 14/14/14 12/12/12
f 11/11/11 15/15/15 13/13/13
f 10/10/10 15/15/15 11/11/11
f 16/16/16 13/13/13 15/15/15
f 17/17/17 12/12/12 14/14/14
f 10/10/10 12/12/12 17/17/17
f 14/14/14 18/18/18 17/17/17
f 15/15/15 19/19/19 16/16/16
f 10/10/10 19/19/19 15/15/15
f 20/20/20 16/16/16 19/19/19
f 21/21/21 17/17/17 18/18/18
f 10/10/10 17/17/17 21/21/21
f 18/18/18 22/22/22 21/21/21
f 19/19/19 23/23/23 20/20/20
f 10/10/10 23/23/23 19/19/19
f 24/24/24 20/20/20 23/23/23
f 25/25/25 21/21/21 22/22/22
f 10/10/10 21/21/21 25/25/25
f 10/10/10 25/25/25 23/23/23
f 22/22/22 24/24/24 25/25/25
f 23/23/23 25/25/25 24/24/24
f 28/28/28 27/27/27 26/26/26
f 29/29/29 26/26/26 27/27/27
f 26/26/26 29/29/29 30/30/30
f 27/27/27 28/28/28 31/31/31
f 32/32/32 31/31/31 28/28/28
f 33/33/33 30/30/30 29/29/29
f 30/30/30 33/33/33 34/34/34
f 27/27/27 35/35/35 29/29/29
f 31/31/31 35/35/35 27/27/27
f 29/29/29 35/35/35 33/33/33
f 36/36/36 35/35/35 31/31/31
f 31/31/31 32/32/32 36/36/36
f 33/33/33 35/35/35 37/37/37
f 37/37/37 34/34/34 33/33/33
f 38/38/38 36/36/36 32/32/32
f 34/34/34 37/37/37 39/39/39
f 36/36/36 38/38/38 40/40/40
f 40/40/40 35/35/35 36/36/36
f 41/41/41 40/40/40 38/38/38
f 42/42/42 39/39/39 37/37/37
f 37/37/37 35/35/35 42/42/42
f 39/39/39 42/42/42 43/43/43
f 40/40/40 41/41/41 44/44/44
f 44/44/44 35/35/35 40/40/40
f 45/45/45 44/44/44 41/41/41
f 46/46/46 43/43/43 42/42/42
f 42/42/42 35/35/35 46/46/46
f 43/43/43 46/46/46 47/47/47
f 44/44/44 45/45/45 48/48/48
f 48/48/48 35/35/35 44/44/44
f 49/49/49 48/48/48 45/45/45
f 47/47/47 50/50/50 49/49/49
f 50/50/50 47/47/47 46/46/46
f 46/46/46 35/35/35 50/50/50
f 48/48/48 49/49/49 50/50/50
f 50/50/50 35/35/35 48/48/48
f 53/53/53 52/52/52 51/51/51
f 54/54/54 51/51/51 52/52/52
f 52/52/52 55/55/55 54/54/54
f 51/51/51 56/56/56 53/53/53
f 51/51/51 54/54/54 56/56/56
f 57/57/57 53/53/53 56/56/56
f 56/56/56 54/54/54 58/58/58
f 54/54/54 59/59/59 58/58/58
f 58/58/58 59/59/59 60/60/60
f 56/56/56 61/61/61 57/57/57
f 61/61/61 56/56/56 58/58/58
f 62/62/62 57/57/57 61/61/61
f 61/61/61 58/58/58 62/62/62
f 63/63/63 62/62/62 58/58/58
f 64/64/64 54/54/54 55/55/55
f 55/55/55 65/65/65 64/64/64
f 64/64/64 66/66/66 54/54/54
f 66/66/66 64/64/64 65/65/65
f 66/66/66 59/59/59 54/54/54
f 65/65/65 67/67/67 66/66/66
f 68/68/68 66/66/66 67/67/67
f 68/68/68 59/59/59 66/66/66
f 67/67/67 69/69/69 68/68/68
f 59/59/59 68/68/68 69/69/69
f 69/69/69 70/70/70 59/59/59
f 58/58/58 71/71/71 63/63/63
f 72/72/72 63/63/63 71/71/71
f 71/71/71 58/58/58 73/73/73
f 71/71/71 73/73/73 72/72/72
f 74/74/74 72/72/72 73/73/73
f 73/73/73 58/58/58 60/60/60
f 73/73/73 75/75/75 74/74/74
f 75/75/75 73/73/73 60/60/60
f 76/76/76 74/74/74 75/75/75
f 75/75/75 60/60/60 76/76/76
f 77/77/77 76/76/76 60/60/60
f 78/78/78 59/59/59 70/70/70
f 70/70/70 79/79/79 78/78/78
f 59/59/59 78/78/78 80/80/80
f 80/80/80 78/78/78 79/79/79
f 60/60/60 59/59/59 80/80/80
f 79/79/79 81/81/81 80/80/80
f 81/81/81 77/77/77 82/82/82
f 60/60/60 82/82/82 77/77/77
f 82/82/82 80/80/80 81/81/81
f 82/82/82 60/60/60 80/80/80
