g fx_fbx_cylinder_08
v 0.3355814 0.24381416 0
v 0.12818068 0.3944996 1.2389159
v 0.12818068 0.3944996 0
v 0.3355814 0.24381416 1.2389159
v 0.41480142 0 0
v 0.41480142 0 1.2389159
v 0.3355815 -0.24381404 0
v 0.3355815 -0.24381404 1.2389159
v 0.12818074 -0.39449957 0
v 0.12818074 -0.39449957 1.2389159
v -0.12818073 -0.39449957 0
v -0.12818073 -0.39449957 1.2389159
v -0.3355814 -0.24381422 0
v -0.3355814 -0.24381422 1.2389159
v -0.41480142 -3.6263092E-08 0
v -0.41480142 -3.6263092E-08 1.2389159
v -0.33558142 0.24381414 0
v -0.33558142 0.24381414 1.2389159
v -0.1281807 0.39449957 0
v -0.1281807 0.39449957 1.2389159
v 0.12818068 0.3944996 0
v 0.12818068 0.3944996 1.2389159
vt 0.85 0
vt 0.95 1
vt 0.95 0
vt 0.85 1
vt 0.75 0
vt 0.75 1
vt 0.6500001 0
vt 0.6500001 1
vt 0.55 0
vt 0.55 1
vt 0.45 0
vt 0.45 1
vt 0.35000002 0
vt 0.35000002 1
vt 0.25000003 0
vt 0.25000003 1
vt 0.15000002 0
vt 0.15000002 1
vt 0.05000002 0
vt 0.05000002 1
vt -0.050000012 0
vt -0.050000012 1
vn 0.809017 0.5877853 0
vn 0.30901694 0.95105654 0
vn 0.30901694 0.95105654 0
vn 0.809017 0.5877853 0
vn 1 0 0
vn 1 0 0
vn 0.8090171 -0.58778507 0
vn 0.8090171 -0.58778507 0
vn 0.3090171 -0.9510565 0
vn 0.3090171 -0.9510565 0
vn -0.30901697 -0.95105654 0
vn -0.30901697 -0.95105654 0
vn -0.8090169 -0.58778536 0
vn -0.8090169 -0.58778536 0
vn -1 0 0
vn -1 0 0
vn -0.80901706 0.5877852 0
vn -0.80901706 0.5877852 0
vn -0.30901706 0.95105654 0
vn -0.30901706 0.95105654 0
vn 0.30901694 0.95105654 0
vn 0.30901694 0.95105654 0
g fx_fbx_cylinder_08_0
f 3/3/3 2/2/2 1/1/1
f 2/2/2 4/4/4 1/1/1
f 1/1/1 4/4/4 5/5/5
f 4/4/4 6/6/6 5/5/5
f 5/5/5 6/6/6 7/7/7
f 6/6/6 8/8/8 7/7/7
f 7/7/7 8/8/8 9/9/9
f 8/8/8 10/10/10 9/9/9
f 9/9/9 10/10/10 11/11/11
f 10/10/10 12/12/12 11/11/11
f 11/11/11 12/12/12 13/13/13
f 12/12/12 14/14/14 13/13/13
f 13/13/13 14/14/14 15/15/15
f 14/14/14 16/16/16 15/15/15
f 15/15/15 16/16/16 17/17/17
f 16/16/16 18/18/18 17/17/17
f 17/17/17 18/18/18 19/19/19
f 18/18/18 20/20/20 19/19/19
f 19/19/19 20/20/20 21/21/21
f 20/20/20 22/22/22 21/21/21
