g fx_fbx_fcbg_arkcity_003_bottom_04
v 0.025377717 -2.0363789E-08 0.234205
v 0.023485541 0.00290098 0.23123278
v 0.054803863 0.0029009625 0.20107508
v 0.05769562 -4.005477E-08 0.20191172
v 0.0548039 0.0029009602 0.15585215
v 0.058016464 -4.2632287E-08 0.15485457
v 0.023798207 0.0029009667 0.12635897
v 0.025397323 -3.3678777E-08 0.123518795
v 0.038358357 -1.7543174E-08 0.0535316
v 0.10934801 -6.6669884E-08 0.2456662
v 0.014480318 -6.658718E-08 0.24533422
v 0.031219624 -8.6656335E-08 0.3235106
v 0.012544187 -5.210195E-08 0.24137518
v 0.01206127 0.0015990544 0.24532577
v 0.0116646355 -6.735666E-08 0.24857049
v 0.011584197 -7.6002486E-08 0.28207964
v 0.03239532 0.0028720086 0.32435626
v 0.10982756 0.0028720167 0.24710287
v 0.14119221 0.0028720167 0.24717267
v 0.04485088 0.0028720095 0.32891035
v 0.11459569 0.0028720151 0.25722155
v 0.04492598 0.0028690633 0.3416115
v 0.14126971 0.0028720151 0.25722158
v 0.1574817 0.002872015 0.2554646
v 0.1560441 0.0028720156 0.24513975
v 0.17038776 0.002872018 0.23875852
v 0.17369376 0.0028720167 0.24835691
v 0.18958636 0.0028720181 0.23581854
v 0.15557818 -6.617541E-08 0.24371491
v 0.1409817 -6.668251E-08 0.24567346
v 0.16951124 -6.454867E-08 0.23736452
v 0.18388435 0.002872017 0.22848085
v 0.18259117 -6.1950736E-08 0.2272228
v 0.19348441 0.0028720188 0.21656549
v 0.2007671 0.0028720193 0.22176279
v 0.2085138 0.002872019 0.2051515
v 0.19206937 -5.8964314E-08 0.21556455
v 0.13322984 -3.277298E-08 0.113320075
v 0.152243 -3.282926E-08 0.11353978
v 0.16808924 -3.39304E-08 0.11783835
v 0.1815816 -3.633053E-08 0.12720786
v 0.074013926 -1.7565839E-08 0.053532064
v 0.2008257 0.00287202 0.20244771
v 0.19917795 -5.54923E-08 0.20201066
v 0.19977993 -4.3614484E-08 0.15564263
v 0.20421399 0.0028720226 0.18640997
v 0.21218759 0.002872021 0.18726236
v 0.21178834 0.0028720242 0.16753645
v 0.2027796 -5.1461857E-08 0.1862768
v 0.20300253 -4.6819427E-08 0.16815393
v 0.20408992 0.0028720242 0.16790022
v 0.20037633 0.0028720258 0.15516226
v 0.20787509 0.002872025 0.1525224
v 0.1995695 0.002872025 0.13631041
v 0.19219726 -3.9608317E-08 0.14000353
v 0.19290918 0.0028720263 0.13934958
v 0.18220764 0.0028720277 0.12629214
v 0.18774995 0.0028720263 0.12209496
v 0.17105888 0.0028720286 0.11059483
v 0.16851121 0.0028720286 0.1167087
v 0.15293019 0.0028720277 0.106202416
v 0.1522992 0.0028720286 0.112356216
v 0.13775648 0.0028720277 0.105803095
v 0.1339306 0.0028720286 0.1121564
v 0.074440815 0.002872033 0.052061234
v 0.07838222 0.002872035 0.046970043
v 0.03908149 0.002872033 0.05206011
v 0.034053188 0.002872035 0.046971805
v 0.032399572 -1.5985044E-08 0.04799813
vt 0.41884297 0.5932114
vt 0.42122954 0.5894626
vt 0.38172832 0.5514253
vt 0.378081 0.5524805
vt 0.38172826 0.49438643
vt 0.3776763 0.4931282
vt 0.4208352 0.4571872
vt 0.41881824 0.45360494
vt 0.40250972 0.3654442
vt 0.31293458 0.607662
vt 0.43258864 0.607276
vt 0.41146088 0.7058739
vt 0.43503025 0.6022748
vt 0.4356397 0.6072662
vt 0.43612784 0.6113297
vt 0.4362344 0.65362394
vt 0.41000688 0.7069129
vt 0.31232795 0.6094793
vt 0.27276832 0.6095674
vt 0.39428192 0.7126614
vt 0.30631402 0.62224174
vt 0.39418817 0.7286811
vt 0.2726706 0.6222418
vt 0.25222275 0.6200258
vt 0.25403595 0.60700333
vt 0.23594455 0.59895474
vt 0.23177476 0.611061
vt 0.21172974 0.59524655
vt 0.2546236 0.6052062
vt 0.2730328 0.60769224
vt 0.23705012 0.5971965
vt 0.21892157 0.5859917
vt 0.22055265 0.58440495
vt 0.20681319 0.5709631
vt 0.19762766 0.5775183
vt 0.1878569 0.5565668
vt 0.20859796 0.5697006
vt 0.2828111 0.44074148
vt 0.25883016 0.44101858
vt 0.23884362 0.4464403
vt 0.22182596 0.45825788
vt 0.35758168 0.36555147
vt 0.19755375 0.5531566
vt 0.19963205 0.55260533
vt 0.19887277 0.49412218
vt 0.19328016 0.53292847
vt 0.1832232 0.53400356
vt 0.18372676 0.5091236
vt 0.19508933 0.5327605
vt 0.19480817 0.5099025
vt 0.19343665 0.50958246
vt 0.19812053 0.4935163
vt 0.18866247 0.49018666
vt 0.19913818 0.46973878
vt 0.20843664 0.47439682
vt 0.20753871 0.47357202
vt 0.22103636 0.4571029
vt 0.21404594 0.4518091
vt 0.23509806 0.4373042
vt 0.23831138 0.4450155
vt 0.25796342 0.43176413
vt 0.2587593 0.43952578
vt 0.27710173 0.43126047
vt 0.28192726 0.43927374
vt 0.35707796 0.3638257
vt 0.35198984 0.35705978
vt 0.401645 0.36372784
vt 0.40792006 0.35706225
vt 0.40992272 0.35830387
vn 0.11337487 0.9616613 0.24970724
vn 0.14921671 0.9027521 0.4034516
vn 0.38897216 0.90486276 0.17298584
vn 0.25476956 0.9618129 0.10004261
vn 0.3885624 0.90496624 -0.17336468
vn 0.265163 0.9584357 -0.10530698
vn 0.14990085 0.9018528 -0.40520522
vn 0.109877706 0.96021044 -0.25675416
vn -0.1492089 0.9189378 0.3650892
vn -0.15265925 0.91341084 -0.377327
vn 0.18427865 0.9826843 0.019312236
vn -0.3848082 0.90719795 -0.1700429
vn 0.058491964 0.99135333 -0.11746197
vn 0.26750928 0.96197 0.055250943
vn 0.14963447 0.9851481 0.08421844
vn 0.08746497 0.99212015 0.08970831
vn -0.5733226 0.7896219 -0.21862844
vn -0.23191795 0.8039705 -0.54758155
vn -0.034225654 0.86436415 -0.50170034
vn 1.42393E-05 1 9.442468E-05
vn 2.5043586E-05 1 3.379043E-05
vn -6.6214257E-06 1 0.0001664146
vn 8.188136E-06 1 2.4009052E-05
vn 3.4418235E-06 1 1.6035912E-05
vn -0.13197637 0.87851644 -0.45911992
vn -0.24239692 0.8813721 -0.405496
vn 7.5780163E-06 1 1.2749481E-05
vn 1.1509949E-05 1 1.0839705E-05
vn -0.14937998 0.837319 -0.5259111
vn -0.03490422 0.84428185 -0.53476155
vn -0.27015576 0.84926033 -0.45362177
vn -0.3212744 0.8879806 -0.3290488
vn -0.35973614 0.85655695 -0.3700001
vn -0.39028758 0.8842295 -0.25654215
vn 1.7520795E-05 1 9.325646E-06
vn 1.7019738E-05 1 8.732263E-06
vn -0.43047276 0.857568 -0.28154975
vn -0.1717773 0.90392166 0.39168623
vn -0.08171203 0.81086737 0.5794974
vn -0.2539547 0.80261964 0.5397303
vn -0.40915957 0.7999479 0.43894407
vn -0.23953399 0.8004414 0.5494699
vn -0.44057888 0.8837413 -0.1577703
vn -0.49880314 0.8471826 -0.18296748
vn -0.57958496 0.7864527 0.21347922
vn -0.4976358 0.86573416 -0.053507257
vn 1.3127184E-05 1 6.911288E-06
vn -0 1 1.0512845E-07
vn -0.54912823 0.83360916 -0.05961553
vn -0.5923144 0.8018512 0.078729674
vn -0.52685404 0.8467935 0.07325027
vn -0.5385634 0.81751186 0.20401883
vn -0 1 0
vn -0 1 0
vn -0.52139014 0.7874069 0.3288505
vn -0.4674937 0.83135056 0.30050945
vn -0.35964203 0.84634095 0.3928928
vn -0 1 0
vn -0 1 0
vn -0.21468459 0.85926497 0.46429965
vn -0 1 0
vn -0.07025368 0.8519667 0.5188615
vn -0 1 0
vn -0.2310346 0.78657925 0.57263964
vn -0.15317017 0.9127637 0.3786837
vn -0 1 1.2621118E-07
vn -0.20821759 0.8177879 0.53653365
vn -0.52215636 0.82724994 0.20738922
vn -0.33925927 0.92822266 0.15266234
g fx_fbx_fcbg_arkcity_003_bottom_04_0
f 3/3/3 2/2/2 1/1/1
f 4/4/4 3/3/3 1/1/1
f 5/5/5 3/3/3 4/4/4
f 6/6/6 5/5/5 4/4/4
f 7/7/7 5/5/5 6/6/6
f 8/8/8 7/7/7 6/6/6
f 8/8/8 6/6/6 9/9/9
f 6/6/6 4/4/4 10/10/10
f 4/4/4 1/1/1 10/10/10
f 9/9/9 6/6/6 10/10/10
f 10/10/10 1/1/1 11/11/11
f 10/10/10 11/11/11 12/12/12
f 1/1/1 13/13/13 11/11/11
f 11/11/11 13/13/13 14/14/14
f 11/11/11 14/14/14 15/15/15
f 16/16/16 11/11/11 15/15/15
f 11/11/11 16/16/16 12/12/12
f 10/10/10 12/12/12 17/17/17
f 18/18/18 10/10/10 17/17/17
f 10/10/10 18/18/18 19/19/19
f 17/17/17 20/20/20 18/18/18
f 20/20/20 21/21/21 18/18/18
f 18/18/18 21/21/21 19/19/19
f 21/21/21 20/20/20 22/22/22
f 23/23/23 21/21/21 22/22/22
f 21/21/21 23/23/23 19/19/19
f 23/23/23 24/24/24 19/19/19
f 24/24/24 25/25/25 19/19/19
f 25/25/25 24/24/24 26/26/26
f 24/24/24 27/27/27 26/26/26
f 27/27/27 28/28/28 26/26/26
f 25/25/25 29/29/29 19/19/19
f 30/30/30 10/10/10 19/19/19
f 29/29/29 30/30/30 19/19/19
f 26/26/26 31/31/31 25/25/25
f 31/31/31 29/29/29 25/25/25
f 28/28/28 32/32/32 26/26/26
f 33/33/33 31/31/31 26/26/26
f 32/32/32 33/33/33 26/26/26
f 32/32/32 28/28/28 34/34/34
f 28/28/28 35/35/35 34/34/34
f 35/35/35 36/36/36 34/34/34
f 37/37/37 33/33/33 32/32/32
f 34/34/34 37/37/37 32/32/32
f 38/38/38 10/10/10 30/30/30
f 39/39/39 30/30/30 29/29/29
f 39/39/39 38/38/38 30/30/30
f 40/40/40 29/29/29 31/31/31
f 40/40/40 39/39/39 29/29/29
f 41/41/41 31/31/31 33/33/33
f 41/41/41 40/40/40 31/31/31
f 42/42/42 10/10/10 38/38/38
f 9/9/9 10/10/10 42/42/42
f 36/36/36 43/43/43 34/34/34
f 44/44/44 37/37/37 34/34/34
f 43/43/43 44/44/44 34/34/34
f 37/37/37 45/45/45 33/33/33
f 45/45/45 37/37/37 44/44/44
f 43/43/43 36/36/36 46/46/46
f 36/36/36 47/47/47 46/46/46
f 47/47/47 48/48/48 46/46/46
f 49/49/49 44/44/44 43/43/43
f 46/46/46 49/49/49 43/43/43
f 49/49/49 50/50/50 44/44/44
f 50/50/50 49/49/49 46/46/46
f 50/50/50 45/45/45 44/44/44
f 51/51/51 50/50/50 46/46/46
f 48/48/48 51/51/51 46/46/46
f 45/45/45 50/50/50 51/51/51
f 51/51/51 48/48/48 52/52/52
f 52/52/52 45/45/45 51/51/51
f 48/48/48 53/53/53 52/52/52
f 53/53/53 54/54/54 52/52/52
f 45/45/45 55/55/55 33/33/33
f 55/55/55 45/45/45 52/52/52
f 55/55/55 41/41/41 33/33/33
f 56/56/56 55/55/55 52/52/52
f 54/54/54 56/56/56 52/52/52
f 41/41/41 55/55/55 56/56/56
f 56/56/56 54/54/54 57/57/57
f 57/57/57 41/41/41 56/56/56
f 54/54/54 58/58/58 57/57/57
f 40/40/40 41/41/41 57/57/57
f 58/58/58 59/59/59 57/57/57
f 60/60/60 40/40/40 57/57/57
f 59/59/59 60/60/60 57/57/57
f 39/39/39 40/40/40 60/60/60
f 59/59/59 61/61/61 60/60/60
f 62/62/62 39/39/39 60/60/60
f 61/61/61 62/62/62 60/60/60
f 38/38/38 39/39/39 62/62/62
f 62/62/62 61/61/61 63/63/63
f 64/64/64 38/38/38 62/62/62
f 64/64/64 62/62/62 63/63/63
f 38/38/38 64/64/64 42/42/42
f 64/64/64 63/63/63 65/65/65
f 64/64/64 65/65/65 42/42/42
f 63/63/63 66/66/66 65/65/65
f 42/42/42 65/65/65 9/9/9
f 65/65/65 66/66/66 67/67/67
f 65/65/65 67/67/67 9/9/9
f 66/66/66 68/68/68 67/67/67
f 9/9/9 67/67/67 69/69/69
f 67/67/67 68/68/68 69/69/69
