g fx_fcbg_arkcity_fbx_04
v 0.42549515 0.058853377 1.0372769
v 0.23077227 0.05290506 1.1290655
v 0.23649108 0.124989524 1.1255518
v 0.4307846 0.18138327 1.0276252
v 0.20369062 -0.019260034 1.1388898
v 0.7700332 0.2556223 0.80582684
v 0.37541682 -0.061583173 1.0615504
v 0.15864871 -0.0839762 1.1518868
v 0.7846768 0.025430182 0.82651883
v 0.9617148 0.23045929 0.5386772
v 0.28757134 -0.16764905 1.0915614
v 0.10119056 -0.13477252 1.1646624
v 0.6975439 -0.2064219 0.86940217
v 1.0550238 -0.08560179 0.5597585
v 1.0298219 0.1460453 0.19140469
v 0.17380863 -0.24974285 1.1184437
v 0.0380894 -0.16670714 1.1748179
v 0.52326095 -0.40556687 0.9145508
v 0.98054624 -0.39639682 0.61918116
v 1.1884049 -0.22243555 0.21529618
v 1.0808575 0.18717845 -0.18741065
v 0.048149567 -0.30151346 1.1364019
v -0.02353652 -0.17663623 1.1815256
v 0.29587856 -0.54202116 0.94862986
v 0.7398802 -0.6790041 0.63358223
v 1.1312973 -0.574911 0.29343444
v 1.2055045 -0.19043915 -0.16290812
v 1.0717758 0.2774653 -0.5543893
v -0.07510227 -0.3191612 1.1434308
v -0.07700898 -0.1634103 1.1854688
v 0.05075463 -0.60995436 0.9767019
v 0.40316394 -0.87236273 0.62229633
v 0.8446783 -0.88558966 0.2782416
v 1.1103356 -0.55627596 -0.08025395
v 1.1326302 -0.06564588 -0.53172433
v 0.8904214 0.19556561 -0.8768024
v -0.18259047 -0.30057725 1.1418544
v -0.11681381 -0.12806538 1.1882367
v -0.18239279 -0.6210454 0.9895626
v 0.054653905 -0.9045846 0.6729389
v 0.4569219 -1.1184318 0.2276802
v 0.8109935 -0.8796971 -0.10155204
v 1.0049174 -0.41261643 -0.4618767
v 0.96077853 -0.07965795 -0.85682577
v 0.587558 0.044407547 -1.1119478
v 0.6713111 -0.13863696 -1.0951396
v 0.384298 0.035414655 -1.1334987
v 0.44012535 -0.07475553 -1.1257628
v 0.4539285 -0.16632266 -1.1059362
v 0.8884541 -0.35846132 -0.8074438
v 0.6752666 -0.30395916 -1.0567713
v 0.4235401 -0.2281196 -1.0809543
v 0.7333202 -0.72242475 -0.4646754
v 0.6910233 -0.59367687 -0.77565444
v 0.59601486 -0.42499653 -1.0126302
v 0.3551253 -0.25235057 -1.0579581
v 0.41103667 -1.113296 -0.16031381
v 0.3610885 -0.9227117 -0.4990873
v 0.41925228 -0.72462523 -0.76035136
v 0.45242742 -0.47929695 -0.97616315
v 0.26077932 -0.23767658 -1.0418181
v 0.06960228 -1.1230055 0.29474255
v 0.012469054 -1.1394707 -0.09068589
v -0.022586763 -0.97687274 -0.43813193
v 0.11373155 -0.7492933 -0.7225142
v 0.27546614 -0.46395758 -0.9532211
v 0.15417083 -0.18919717 -1.0341674
v -0.263124 -0.8454885 0.7420679
v -0.29836988 -1.002653 0.41408005
v -0.3658219 -1.05916 0.039268296
v -0.3702028 -0.9609527 -0.33973813
v -0.16554001 -0.7110632 -0.6852551
v 0.09480249 -0.39522427 -0.9482942
v 0.0468527 -0.11519029 -1.0330925
v -0.37829828 -0.58282447 0.9643208
v -0.5157332 -0.75965506 0.72069
v -0.6071187 -0.88297063 0.41101453
v -0.682842 -0.9678307 0.040721152
v -0.6440895 -0.90934587 -0.35116422
v -0.38829863 -0.6379864 -0.71333563
v -0.0699856 -0.29327092 -0.962711
v -0.05299059 -0.023474852 -1.033772
v -0.21153598 -0.16848204 -0.9829457
v -0.13922063 0.07972722 -1.0313631
v -0.55729645 -0.51808035 -0.7860059
v -0.8204935 -0.7865842 -0.4811787
v -0.87993455 -0.84566903 -0.11863356
v -0.80012566 -0.76387745 0.26136866
v -0.3299113 -0.021175645 -0.98986226
v -0.20536532 0.18809946 -1.0244175
v -0.66535956 -0.33816037 -0.82921505
v -0.929152 -0.59313715 -0.582302
v -0.99440306 -0.62085617 -0.24491546
v -0.4225672 0.14845277 -0.977709
v -0.24357276 0.2927417 -1.0157025
v -0.47648185 0.33061168 -0.9545721
v -0.7543813 0.18852575 -0.7894765
v -0.7301488 -0.1018803 -0.82561374
v -0.97554994 0.061475232 -0.53094053
v -0.9721079 -0.29874757 -0.57475084
v -1.1471316 0.102018096 -0.18252493
v -1.0849634 -0.2837523 -0.22882666
v -1.1373931 0.15967043 0.20163287
v -1.0395846 -0.21563439 0.156064
v -0.9098756 0.13512644 0.5870994
v -0.9160295 -0.5436427 0.14329492
v -0.8690509 -0.19385406 0.54642326
v -0.6031162 0.10891174 0.94082975
v -0.78750926 -0.4644136 0.5431678
v -0.62697935 -0.13032109 0.9100653
v -0.29512182 0.07927554 1.1598636
v -0.6805596 -0.6460132 0.6183822
v -0.32076752 -0.046007372 1.1480916
v -0.12646036 0.067186326 1.1975904
v -0.14235908 -0.006467553 1.1947665
v -0.5996438 -0.33649933 0.8992483
v -0.5188879 -0.48994476 0.9203886
v -0.3103329 -0.15823379 1.1396462
v -0.13918425 -0.07392788 1.1912549
v -0.2633537 -0.24575004 1.1382751
vt 0.9087164 0.9369424
vt 0.9087164 0.9993873
vt 0.99950004 0.9993873
vt 0.99950004 0.9369424
vt 0.8178947 0.9993873
vt 0.99950004 0.8120877
vt 0.8178947 0.9369424
vt 0.72707295 0.9993873
vt 0.9087164 0.8120877
vt 0.99950004 0.68723303
vt 0.72707295 0.9369424
vt 0.63625145 0.9993873
vt 0.8178947 0.8120877
vt 0.9087164 0.68723303
vt 0.99950004 0.56237847
vt 0.63625145 0.9369424
vt 0.54542977 0.9993873
vt 0.72707295 0.8120877
vt 0.8178947 0.68723303
vt 0.9087164 0.56237847
vt 0.99950004 0.4375237
vt 0.54542977 0.9369424
vt 0.45460814 0.9993873
vt 0.63625145 0.8120877
vt 0.72707295 0.68723303
vt 0.8178947 0.56237847
vt 0.9087164 0.4375237
vt 0.99950004 0.312669
vt 0.45460814 0.9369424
vt 0.36378646 0.9993873
vt 0.54542977 0.8120877
vt 0.63625145 0.68723303
vt 0.72707295 0.56237847
vt 0.8178947 0.4375237
vt 0.9087164 0.312669
vt 0.99950004 0.18781434
vt 0.36378646 0.9369424
vt 0.27296492 0.9993873
vt 0.45460814 0.8120877
vt 0.54542977 0.68723303
vt 0.63625145 0.56237847
vt 0.72707295 0.4375237
vt 0.8178947 0.312669
vt 0.9087164 0.18781434
vt 0.99950004 0.06295974
vt 0.9087164 0.06295974
vt 0.99950004 0.0005
vt 0.9087164 0.0005323978
vt 0.8178947 0.0005323978
vt 0.8178947 0.18781434
vt 0.8178947 0.06295974
vt 0.72707295 0.0005323978
vt 0.72707295 0.312669
vt 0.72707295 0.18781434
vt 0.72707295 0.06295974
vt 0.63625145 0.0005323978
vt 0.63625145 0.4375237
vt 0.63625145 0.312669
vt 0.63625145 0.18781434
vt 0.63625145 0.06295974
vt 0.54542977 0.0005323978
vt 0.54542977 0.56237847
vt 0.54542977 0.4375237
vt 0.54542977 0.312669
vt 0.54542977 0.18781434
vt 0.54542977 0.06295974
vt 0.45460814 0.0005323978
vt 0.45460814 0.68723303
vt 0.45460814 0.56237847
vt 0.45460814 0.4375237
vt 0.45460814 0.312669
vt 0.45460814 0.18781434
vt 0.45460814 0.06295974
vt 0.36378646 0.0005323978
vt 0.36378646 0.8120877
vt 0.36378646 0.68723303
vt 0.36378646 0.56237847
vt 0.36378646 0.4375237
vt 0.36378646 0.312669
vt 0.36378646 0.18781434
vt 0.36378646 0.06295974
vt 0.27296492 0.0005323978
vt 0.27296492 0.06295974
vt 0.18214326 0.0005323978
vt 0.27296492 0.18781434
vt 0.27296492 0.312669
vt 0.27296492 0.4375237
vt 0.27296492 0.56237847
vt 0.18214326 0.06295974
vt 0.09132171 0.0005323978
vt 0.18214326 0.18781434
vt 0.18214326 0.312669
vt 0.18214326 0.4375237
vt 0.09132171 0.06295974
vt 0.0005 0.0005323978
vt 0.0005 0.06295974
vt 0.0005 0.18781434
vt 0.09132171 0.18781434
vt 0.0005 0.312669
vt 0.09132171 0.312669
vt 0.0005 0.4375237
vt 0.09132171 0.4375237
vt 0.0005 0.56237847
vt 0.09132171 0.56237847
vt 0.0005 0.68723303
vt 0.18214326 0.56237847
vt 0.09132171 0.68723303
vt 0.0005 0.8120877
vt 0.18214326 0.68723303
vt 0.09132171 0.8120877
vt 0.0005 0.9369424
vt 0.27296492 0.68723303
vt 0.09132171 0.9369424
vt 0.0005 0.9993873
vt 0.09132171 0.9993873
vt 0.18214326 0.8120877
vt 0.27296492 0.8120877
vt 0.18214326 0.9369424
vt 0.18214326 0.9993873
vt 0.27296492 0.9369424
vn 0.4749642 0.020772826 0.87975985
vn 0.4248756 0.01145539 0.9051793
vn 0.43332237 0.03640707 0.90050334
vn 0.4862015 0.066558085 0.8713082
vn 0.40216243 -0.04500678 0.91446143
vn 0.6595887 0.14745401 0.7370211
vn 0.4468015 -0.07584278 0.8914125
vn 0.36056638 -0.11959247 0.92503494
vn 0.6384075 0.05832784 0.76748526
vn 0.8617951 0.27298552 0.427537
vn 0.39142278 -0.18738216 0.9009307
vn 0.29093352 -0.1977677 0.9360799
vn 0.5465671 -0.15798394 0.82237786
vn 0.8686732 0.11815918 0.48108748
vn 0.92477226 0.35451838 0.13825017
vn 0.302432 -0.29213074 0.90730065
vn 0.18682748 -0.2568289 0.94822705
vn 0.43011618 -0.36358902 0.8263189
vn 0.7179602 -0.26971105 0.64170796
vn 0.9824194 0.064817905 0.17507385
vn 0.95425385 0.2973215 0.031615242
vn 0.17485337 -0.36129597 0.9159102
vn 0.049303174 -0.27258515 0.96086764
vn 0.29784137 -0.5115624 0.80597425
vn 0.48938462 -0.56732553 0.6623023
vn 0.86445117 -0.43590304 0.25042543
vn 0.99542063 -0.0138106765 -0.09458808
vn 0.9358757 0.19923796 -0.290587
vn 0.0013587471 -0.37011036 0.92898685
vn -0.09212789 -0.23364486 0.96794766
vn 0.14461477 -0.5904982 0.79397637
vn 0.2755094 -0.730344 0.62505376
vn 0.60295206 -0.75728494 0.25093496
vn 0.85431856 -0.47938234 -0.20082907
vn 0.9512617 -0.03909749 -0.3058964
vn 0.7469609 0.14472695 -0.64892495
vn -0.19721328 -0.31273845 0.92914027
vn -0.19009362 -0.16818395 0.9672531
vn -0.07630331 -0.5948411 0.8002137
vn 0.06175188 -0.8003983 0.59627956
vn 0.29463974 -0.9282468 0.22703588
vn 0.61512023 -0.74746406 -0.25084785
vn 0.7968955 -0.4771642 -0.37050226
vn 0.78807664 -0.071189776 -0.6114468
vn 0.33702573 0.045243155 -0.9404077
vn 0.41037038 -0.09832957 -0.9066021
vn 0.11569727 -0.02803587 -0.9928888
vn 0.10296441 -0.090121776 -0.9905939
vn 0.04159164 -0.2660655 -0.9630572
vn 0.7293433 -0.45291257 -0.5127657
vn 0.39361176 -0.37327516 -0.8400806
vn -0.060030065 -0.36924717 -0.9273904
vn 0.576098 -0.700524 -0.42116186
vn 0.5005041 -0.6916991 -0.5206227
vn 0.233806 -0.5484685 -0.8028182
vn -0.14541876 -0.38825402 -0.91000664
vn 0.2665541 -0.92564195 -0.2685811
vn 0.21377425 -0.82746893 -0.5192261
vn 0.1602786 -0.75293976 -0.638273
vn -0.0022394508 -0.5656852 -0.8246182
vn -0.17926234 -0.36503324 -0.9135731
vn -0.03525984 -0.9588799 0.2816135
vn -0.099652275 -0.9798432 -0.17313768
vn -0.118563384 -0.8398795 -0.5296651
vn -0.11683902 -0.67914104 -0.724649
vn -0.15485835 -0.4926256 -0.85635215
vn -0.16750982 -0.32861927 -0.9294891
vn -0.16656682 -0.7953567 0.5828063
vn -0.23399207 -0.9126679 0.3350896
vn -0.2528214 -0.9673651 -0.016916033
vn -0.20087029 -0.87170607 -0.4469673
vn -0.17345802 -0.6479366 -0.74168086
vn -0.17427969 -0.4411584 -0.8803441
vn -0.14496806 -0.27582863 -0.95021194
vn -0.36722434 -0.50322425 0.7822478
vn -0.4875766 -0.66657823 0.5638639
vn -0.5118923 -0.776544 0.36734942
vn -0.45660698 -0.8858763 0.08205704
vn -0.26496655 -0.8773027 -0.4001659
vn -0.12603661 -0.638811 -0.75896996
vn -0.13592131 -0.39632106 -0.9079951
vn -0.1460917 -0.19563566 -0.96973395
vn -0.15363383 -0.29058674 -0.94443417
vn -0.17478314 -0.09939834 -0.9795768
vn -0.20259953 -0.5133925 -0.83389544
vn -0.4907618 -0.7156644 -0.49696812
vn -0.7422035 -0.66974074 0.024110604
vn -0.79629886 -0.5031076 0.33584353
vn -0.23892036 -0.14251666 -0.9605239
vn -0.21182905 -0.0123622995 -0.9772285
vn -0.41271377 -0.25125423 -0.87552196
vn -0.7189601 -0.3901583 -0.5752155
vn -0.9265435 -0.37421536 -0.038470693
vn -0.33555797 -0.015136053 -0.9418979
vn -0.2329852 0.03310457 -0.9719167
vn -0.38340843 0.030541021 -0.9230738
vn -0.6111153 0.037235256 -0.7906653
vn -0.5756367 -0.036614213 -0.81688553
vn -0.85121137 0.006801918 -0.52477896
vn -0.8408182 -0.09047064 -0.53370386
vn -0.98438 -0.14678931 -0.09720566
vn -0.9774739 -0.19235766 -0.086852014
vn -0.9303654 -0.22469983 0.28970733
vn -0.9236107 -0.26477617 0.27719477
vn -0.83326674 -0.16461834 0.5277948
vn -0.90291417 -0.3163028 0.29103014
vn -0.8451224 -0.21516576 0.4893586
vn -0.6935368 -0.054334242 0.71836936
vn -0.84908694 -0.28226104 0.44651994
vn -0.7131422 -0.11366615 0.69174284
vn -0.40708756 -0.01830887 0.9132056
vn -0.7574059 -0.43155503 0.48999652
vn -0.44046485 -0.058276284 0.8958764
vn -0.23457104 -0.022317687 0.9718427
vn -0.23793003 -0.04713806 0.97013783
vn -0.70672953 -0.2143237 0.67423934
vn -0.61248064 -0.3396703 0.7137868
vn -0.42454436 -0.1416659 0.89425546
vn -0.23330525 -0.10654221 0.9665492
vn -0.35066193 -0.22483516 0.9091124
g fx_fcbg_arkcity_fbx_04_0
f 3/3/3 2/2/2 1/1/1
f 4/4/4 3/3/3 1/1/1
f 1/1/1 2/2/2 5/5/5
f 6/6/6 4/4/4 1/1/1
f 7/7/7 1/1/1 5/5/5
f 7/7/7 5/5/5 8/8/8
f 9/9/9 6/6/6 1/1/1
f 9/9/9 1/1/1 7/7/7
f 10/10/10 6/6/6 9/9/9
f 11/11/11 7/7/7 8/8/8
f 11/11/11 8/8/8 12/12/12
f 13/13/13 9/9/9 7/7/7
f 13/13/13 7/7/7 11/11/11
f 14/14/14 10/10/10 9/9/9
f 14/14/14 9/9/9 13/13/13
f 15/15/15 10/10/10 14/14/14
f 16/16/16 11/11/11 12/12/12
f 16/16/16 12/12/12 17/17/17
f 18/18/18 13/13/13 11/11/11
f 18/18/18 11/11/11 16/16/16
f 19/19/19 14/14/14 13/13/13
f 19/19/19 13/13/13 18/18/18
f 20/20/20 15/15/15 14/14/14
f 20/20/20 14/14/14 19/19/19
f 21/21/21 15/15/15 20/20/20
f 22/22/22 16/16/16 17/17/17
f 22/22/22 17/17/17 23/23/23
f 24/24/24 18/18/18 16/16/16
f 24/24/24 16/16/16 22/22/22
f 25/25/25 19/19/19 18/18/18
f 25/25/25 18/18/18 24/24/24
f 26/26/26 20/20/20 19/19/19
f 26/26/26 19/19/19 25/25/25
f 27/27/27 21/21/21 20/20/20
f 27/27/27 20/20/20 26/26/26
f 28/28/28 21/21/21 27/27/27
f 29/29/29 22/22/22 23/23/23
f 29/29/29 23/23/23 30/30/30
f 31/31/31 24/24/24 22/22/22
f 31/31/31 22/22/22 29/29/29
f 32/32/32 25/25/25 24/24/24
f 32/32/32 24/24/24 31/31/31
f 33/33/33 26/26/26 25/25/25
f 33/33/33 25/25/25 32/32/32
f 34/34/34 27/27/27 26/26/26
f 34/34/34 26/26/26 33/33/33
f 35/35/35 28/28/28 27/27/27
f 35/35/35 27/27/27 34/34/34
f 36/36/36 28/28/28 35/35/35
f 37/37/37 29/29/29 30/30/30
f 37/37/37 30/30/30 38/38/38
f 39/39/39 31/31/31 29/29/29
f 39/39/39 29/29/29 37/37/37
f 40/40/40 32/32/32 31/31/31
f 40/40/40 31/31/31 39/39/39
f 41/41/41 33/33/33 32/32/32
f 41/41/41 32/32/32 40/40/40
f 42/42/42 34/34/34 33/33/33
f 42/42/42 33/33/33 41/41/41
f 43/43/43 35/35/35 34/34/34
f 43/43/43 34/34/34 42/42/42
f 44/44/44 36/36/36 35/35/35
f 44/44/44 35/35/35 43/43/43
f 45/45/45 36/36/36 44/44/44
f 46/46/46 45/45/45 44/44/44
f 47/47/47 45/45/45 46/46/46
f 48/48/48 47/47/47 46/46/46
f 49/49/49 48/48/48 46/46/46
f 50/50/50 44/44/44 43/43/43
f 46/46/46 44/44/44 50/50/50
f 51/51/51 49/49/49 46/46/46
f 51/51/51 46/46/46 50/50/50
f 52/52/52 49/49/49 51/51/51
f 53/53/53 43/43/43 42/42/42
f 50/50/50 43/43/43 53/53/53
f 51/51/51 50/50/50 54/54/54
f 54/54/54 50/50/50 53/53/53
f 55/55/55 52/52/52 51/51/51
f 55/55/55 51/51/51 54/54/54
f 56/56/56 52/52/52 55/55/55
f 53/53/53 42/42/42 57/57/57
f 57/57/57 42/42/42 41/41/41
f 54/54/54 53/53/53 58/58/58
f 58/58/58 53/53/53 57/57/57
f 55/55/55 54/54/54 59/59/59
f 59/59/59 54/54/54 58/58/58
f 60/60/60 56/56/56 55/55/55
f 60/60/60 55/55/55 59/59/59
f 61/61/61 56/56/56 60/60/60
f 57/57/57 41/41/41 62/62/62
f 62/62/62 41/41/41 40/40/40
f 58/58/58 57/57/57 63/63/63
f 63/63/63 57/57/57 62/62/62
f 59/59/59 58/58/58 64/64/64
f 64/64/64 58/58/58 63/63/63
f 60/60/60 59/59/59 65/65/65
f 65/65/65 59/59/59 64/64/64
f 66/66/66 61/61/61 60/60/60
f 66/66/66 60/60/60 65/65/65
f 67/67/67 61/61/61 66/66/66
f 62/62/62 40/40/40 68/68/68
f 68/68/68 40/40/40 39/39/39
f 63/63/63 62/62/62 69/69/69
f 69/69/69 62/62/62 68/68/68
f 64/64/64 63/63/63 70/70/70
f 70/70/70 63/63/63 69/69/69
f 65/65/65 64/64/64 71/71/71
f 71/71/71 64/64/64 70/70/70
f 66/66/66 65/65/65 72/72/72
f 72/72/72 65/65/65 71/71/71
f 73/73/73 67/67/67 66/66/66
f 73/73/73 66/66/66 72/72/72
f 74/74/74 67/67/67 73/73/73
f 68/68/68 39/39/39 75/75/75
f 75/75/75 39/39/39 37/37/37
f 69/69/69 68/68/68 76/76/76
f 76/76/76 68/68/68 75/75/75
f 70/70/70 69/69/69 77/77/77
f 77/77/77 69/69/69 76/76/76
f 71/71/71 70/70/70 78/78/78
f 78/78/78 70/70/70 77/77/77
f 72/72/72 71/71/71 79/79/79
f 79/79/79 71/71/71 78/78/78
f 73/73/73 72/72/72 80/80/80
f 80/80/80 72/72/72 79/79/79
f 81/81/81 74/74/74 73/73/73
f 81/81/81 73/73/73 80/80/80
f 82/82/82 74/74/74 81/81/81
f 83/83/83 82/82/82 81/81/81
f 84/84/84 82/82/82 83/83/83
f 81/81/81 80/80/80 85/85/85
f 83/83/83 81/81/81 85/85/85
f 80/80/80 79/79/79 86/86/86
f 85/85/85 80/80/80 86/86/86
f 79/79/79 78/78/78 87/87/87
f 86/86/86 79/79/79 87/87/87
f 78/78/78 77/77/77 88/88/88
f 87/87/87 78/78/78 88/88/88
f 89/89/89 84/84/84 83/83/83
f 90/90/90 84/84/84 89/89/89
f 83/83/83 85/85/85 91/91/91
f 89/89/89 83/83/83 91/91/91
f 85/85/85 86/86/86 92/92/92
f 91/91/91 85/85/85 92/92/92
f 86/86/86 87/87/87 93/93/93
f 92/92/92 86/86/86 93/93/93
f 94/94/94 90/90/90 89/89/89
f 95/95/95 90/90/90 94/94/94
f 96/96/96 95/95/95 94/94/94
f 96/96/96 94/94/94 97/97/97
f 94/94/94 89/89/89 98/98/98
f 94/94/94 98/98/98 97/97/97
f 89/89/89 91/91/91 98/98/98
f 97/97/97 98/98/98 99/99/99
f 98/98/98 91/91/91 100/100/100
f 98/98/98 100/100/100 99/99/99
f 91/91/91 92/92/92 100/100/100
f 99/99/99 100/100/100 101/101/101
f 100/100/100 92/92/92 102/102/102
f 100/100/100 102/102/102 101/101/101
f 92/92/92 93/93/93 102/102/102
f 101/101/101 102/102/102 103/103/103
f 102/102/102 104/104/104 103/103/103
f 102/102/102 93/93/93 104/104/104
f 103/103/103 104/104/104 105/105/105
f 93/93/93 106/106/106 104/104/104
f 93/93/93 87/87/87 106/106/106
f 87/87/87 88/88/88 106/106/106
f 104/104/104 107/107/107 105/105/105
f 104/104/104 106/106/106 107/107/107
f 105/105/105 107/107/107 108/108/108
f 106/106/106 88/88/88 109/109/109
f 106/106/106 109/109/109 107/107/107
f 107/107/107 110/110/110 108/108/108
f 107/107/107 109/109/109 110/110/110
f 108/108/108 110/110/110 111/111/111
f 88/88/88 112/112/112 109/109/109
f 88/88/88 77/77/77 112/112/112
f 77/77/77 76/76/76 112/112/112
f 110/110/110 113/113/113 111/111/111
f 111/111/111 113/113/113 114/114/114
f 113/113/113 115/115/115 114/114/114
f 109/109/109 116/116/116 110/110/110
f 109/109/109 112/112/112 116/116/116
f 110/110/110 116/116/116 113/113/113
f 112/112/112 76/76/76 117/117/117
f 112/112/112 117/117/117 116/116/116
f 76/76/76 75/75/75 117/117/117
f 113/113/113 118/118/118 115/115/115
f 116/116/116 118/118/118 113/113/113
f 116/116/116 117/117/117 118/118/118
f 118/118/118 119/119/119 115/115/115
f 117/117/117 75/75/75 120/120/120
f 117/117/117 120/120/120 118/118/118
f 118/118/118 120/120/120 119/119/119
f 75/75/75 37/37/37 120/120/120
f 120/120/120 38/38/38 119/119/119
f 120/120/120 37/37/37 38/38/38
