g fx_ui_seayouagain_fbx_06
v -0.4036706 0.09549938 0
v -0.4060749 0.10380662 0
v -0.35454968 0.0924342 0
v -0.39027643 0.10772702 0
v -0.36307395 0.078071736 0
v -0.34719187 0.10188951 0
v -0.2978771 0.07924464 0
v -0.3134882 0.059427205 0
v -0.2834966 0.09229692 0
v -0.24498764 0.0443905 0
v -0.22818495 0.064637914 0
v -0.20996901 0.080140874 0
v -0.15849285 0.050031193 0
v -0.17648709 0.029353796 0
v -0.1404986 0.07070859 0
v -0.09629136 0.012646345 0
v -0.075274065 0.031930957 0
v -0.054256763 0.05121557 0
v 0.007944718 0.013830722 0
v -0.017588364 -0.008254135 0
v 0.031985063 0.031722553 0
v 0.050734207 -0.042488243 0
v 0.0773922 -0.01896889 0
v 0.14683968 -0.051768497 0
v 0.10405019 0.004550461 0
v 0.117564045 -0.08091537 0
v 0.17611532 -0.022621626 0
v 0.19601652 -0.09922636 0
v 0.2517246 -0.039751854 0
v 0.22307146 -0.07035808 0
v 0.29930323 -0.08894766 0
v 0.274469 -0.11753735 0
v 0.32581985 -0.062834255 0
v 0.33531296 -0.11870984 0
v 0.37998047 -0.074470796 0
v 0.36237526 -0.100630336 0
v 0.39598474 -0.11842205 0
v 0.4181204 -0.07829852 0
v 0.4178617 -0.10005083 0
vt 0.0005 0.0005
vt 0.0005 0.5134407
vt 0.083574 0.5134407
vt 0.0005 0.99940044
vt 0.083574 0.0005
vt 0.083574 0.99940044
vt 0.16664805 0.5134407
vt 0.16664805 0.0005
vt 0.16664805 0.99940044
vt 0.24972206 0.0005
vt 0.24972206 0.5134407
vt 0.24972206 0.99940044
vt 0.3327961 0.5134407
vt 0.3327961 0.0005
vt 0.3327961 0.99940044
vt 0.41587016 0.0005
vt 0.41587016 0.5134407
vt 0.41587016 0.99940044
vt 0.49894413 0.5134407
vt 0.49894413 0.0005
vt 0.49894413 0.99940044
vt 0.58201826 0.0005
vt 0.58201826 0.5134407
vt 0.6650923 0.5134407
vt 0.58201826 0.99940044
vt 0.6650923 0.0005
vt 0.6650923 0.99940044
vt 0.74859196 0.0005
vt 0.74859196 0.99940044
vt 0.74859196 0.5134407
vt 0.83368105 0.5134407
vt 0.83368105 0.0005
vt 0.83368105 0.99940044
vt 0.9167549 0.0005
vt 0.9167549 0.99940044
vt 0.9167549 0.5134407
vt 0.99950004 0.0005
vt 0.99950004 0.99940044
vt 0.99950004 0.5134407
vn -0 0 1
vn -0 0 1
vn -0 0 1
vn -0 0 1
vn -0 0 1
vn -0 0 1
vn -0 0 1
vn -0 0 1
vn -0 0 1
vn -0 0 1
vn -0 0 1
vn -0 0 1
vn -0 0 1
vn -0 0 1
vn -0 0 1
vn -0 0 1
vn -0 0 1
vn -0 0 1
vn -0 0 1
vn -0 0 1
vn -0 0 1
vn -0 0 1
vn -0 0 1
vn -0 0 1
vn -0 0 1
vn -0 0 1
vn -0 0 1
vn -0 0 1
vn -0 0 1
vn -0 0 1
vn -0 0 1
vn -0 0 1
vn -0 0 1
vn -0 0 1
vn -0 0 1
vn -0 0 1
vn -0 0 1
vn -0 0 1
vn -0 0 1
g fx_ui_seayouagain_fbx_06_0
f 3/3/3 2/2/2 1/1/1
f 2/2/2 3/3/3 4/4/4
f 5/5/5 3/3/3 1/1/1
f 3/3/3 6/6/6 4/4/4
f 7/7/7 3/3/3 5/5/5
f 3/3/3 7/7/7 6/6/6
f 8/8/8 7/7/7 5/5/5
f 7/7/7 9/9/9 6/6/6
f 8/8/8 10/10/10 7/7/7
f 7/7/7 11/11/11 9/9/9
f 10/10/10 11/11/11 7/7/7
f 11/11/11 12/12/12 9/9/9
f 13/13/13 11/11/11 10/10/10
f 11/11/11 13/13/13 12/12/12
f 14/14/14 13/13/13 10/10/10
f 13/13/13 15/15/15 12/12/12
f 14/14/14 16/16/16 13/13/13
f 13/13/13 17/17/17 15/15/15
f 16/16/16 17/17/17 13/13/13
f 17/17/17 18/18/18 15/15/15
f 19/19/19 17/17/17 16/16/16
f 17/17/17 19/19/19 18/18/18
f 20/20/20 19/19/19 16/16/16
f 19/19/19 21/21/21 18/18/18
f 20/20/20 22/22/22 19/19/19
f 19/19/19 23/23/23 21/21/21
f 22/22/22 23/23/23 19/19/19
f 24/24/24 23/23/23 22/22/22
f 23/23/23 25/25/25 21/21/21
f 23/23/23 24/24/24 25/25/25
f 26/26/26 24/24/24 22/22/22
f 24/24/24 27/27/27 25/25/25
f 26/26/26 28/28/28 24/24/24
f 27/27/27 24/24/24 29/29/29
f 28/28/28 30/30/30 24/24/24
f 24/24/24 30/30/30 29/29/29
f 30/30/30 28/28/28 31/31/31
f 29/29/29 30/30/30 31/31/31
f 28/28/28 32/32/32 31/31/31
f 33/33/33 29/29/29 31/31/31
f 31/31/31 32/32/32 34/34/34
f 33/33/33 31/31/31 35/35/35
f 36/36/36 31/31/31 34/34/34
f 31/31/31 36/36/36 35/35/35
f 36/36/36 34/34/34 37/37/37
f 35/35/35 36/36/36 38/38/38
f 39/39/39 36/36/36 37/37/37
f 36/36/36 39/39/39 38/38/38
