g l_conveyor_02
v 1.7881393E-06 0.47000158 0.41577685
v -0.8725444 0.47000158 0.41577685
v -0.8725444 0.47000158 0.01746273
v 1.7881393E-06 0.47000158 0.01746273
v 0.8725414 0.47000158 0.01746273
v 0.8725414 0.47000158 0.41577685
v 1.7881393E-06 0.47000158 0.41577685
v 1.7881393E-06 0.47000158 0.01746273
v 1.7881393E-06 0.47000158 0.7878989
v -0.8725444 0.47000158 0.7878989
v -0.8725444 0.47000158 0.38958156
v 1.7881393E-06 0.47000158 0.38958156
v 0.8725414 0.47000158 0.38958156
v 0.8725414 0.47000158 0.7878989
v 1.7881393E-06 0.47000158 0.7878989
v 1.7881393E-06 0.47000158 0.38958156
v 1.7881393E-06 0.47000158 1.0731279
v -0.8725444 0.47000158 1.0731279
v -0.8725444 0.47000158 0.6748105
v 1.7881393E-06 0.47000158 0.6748105
v 0.8725414 0.47000158 0.6748105
v 0.8725414 0.47000158 1.0731279
v 1.7881393E-06 0.47000158 1.0731279
v 1.7881393E-06 0.47000158 0.6748105
v 1.7881393E-06 0.47000158 1.3193194
v -0.8725444 0.47000158 1.3193194
v -0.8725444 0.47000158 0.92100203
v 1.7881393E-06 0.47000158 0.92100203
v 0.8725414 0.47000158 0.92100203
v 0.8725414 0.47000158 1.3193194
v 1.7881393E-06 0.47000158 1.3193194
v 1.7881393E-06 0.47000158 0.92100203
v 1.7881393E-06 -0.46989787 0.89794576
v -0.8725444 -0.46989787 0.89794576
v -0.8725444 -0.46989787 1.2962631
v 1.7881393E-06 -0.46989787 1.2962631
v 0.8725414 -0.46989787 1.2962631
v 0.8725414 -0.46989787 0.89794576
v 1.7881393E-06 -0.46989787 0.89794576
v 1.7881393E-06 -0.46989787 1.2962631
v 1.7881393E-06 0.358312 1.6497432
v -0.8725444 0.358312 1.6497432
v -0.8725444 0.4945444 1.2754449
v 1.7881393E-06 0.4945444 1.2754449
v 0.8725414 0.4945444 1.2754482
v 0.8725414 0.358312 1.6497399
v 1.7881393E-06 0.358312 1.6497432
v 1.7881393E-06 0.4945444 1.2754449
v 1.7881393E-06 -0.5316889 1.2784864
v -0.8725444 -0.5316889 1.2784864
v -0.8725444 -0.33253026 1.6234406
v 1.7881393E-06 -0.33253026 1.6234406
v 0.8725414 -0.33253026 1.6234406
v 0.8725414 -0.5316889 1.2784864
v 1.7881393E-06 -0.5316889 1.2784864
v 1.7881393E-06 -0.33253026 1.6234406
v 1.7881393E-06 -0.04478371 1.7014569
v -0.8725444 -0.04478371 1.7014569
v -0.8725444 0.34748328 1.6322917
v 1.7881393E-06 0.34748328 1.6322917
v 0.8725414 0.34748328 1.6322917
v 0.8725414 -0.04478371 1.7014569
v 1.7881393E-06 -0.04478371 1.7014569
v 1.7881393E-06 0.34748328 1.6322917
v 1.7881393E-06 -0.36138952 1.647154
v -0.8725444 -0.36138952 1.647154
v -0.8725444 0.035411954 1.6818715
v 1.7881393E-06 0.035411954 1.6818715
v 0.8725414 0.035411954 1.6818715
v 0.8725414 -0.36138952 1.647154
v 1.7881393E-06 -0.36138952 1.647154
v 1.7881393E-06 0.035411954 1.6818715
v 1.7881393E-06 -0.46989787 0.534639
v -0.8725444 -0.46989787 0.534639
v -0.8725444 -0.46989787 0.9329561
v 1.7881393E-06 -0.46989787 0.9329561
v 0.8725414 -0.46989787 0.9329561
v 0.8725414 -0.46989787 0.534639
v 1.7881393E-06 -0.46989787 0.534639
v 1.7881393E-06 -0.46989787 0.9329561
v 1.7881393E-06 -0.46989787 0.16755879
v -0.8725444 -0.46989787 0.16755879
v -0.8725444 -0.46989787 0.5658728
v 1.7881393E-06 -0.46989787 0.5658728
v 0.8725414 -0.46989787 0.5658728
v 0.8725414 -0.46989787 0.16755879
v 1.7881393E-06 -0.46989787 0.16755879
v 1.7881393E-06 -0.46989787 0.5658728
v 1.7881393E-06 -0.46989787 -0.20280027
v -0.8725444 -0.46989787 -0.20280027
v -0.8725444 -0.46989787 0.19551694
v 1.7881393E-06 -0.46989787 0.19551694
v 0.8725414 -0.46989787 0.19551694
v 0.8725414 -0.46989787 -0.20280027
v 1.7881393E-06 -0.46989787 -0.20280027
v 1.7881393E-06 -0.46989787 0.19551694
v 1.7881393E-06 -0.46989787 -0.542176
v -0.8725444 -0.46989787 -0.542176
v -0.8725444 -0.46989787 -0.14386201
v 1.7881393E-06 -0.46989787 -0.14386201
v 0.8725414 -0.46989787 -0.14386201
v 0.8725414 -0.46989787 -0.542176
v 1.7881393E-06 -0.46989787 -0.542176
v 1.7881393E-06 -0.46989787 -0.14386201
v 1.7881393E-06 -0.46989787 -0.88533485
v -0.8725444 -0.46989787 -0.88533485
v -0.8725444 -0.46989787 -0.48701763
v 1.7881393E-06 -0.46989787 -0.48701763
v 0.8725414 -0.46989787 -0.48701763
v 0.8725414 -0.46989787 -0.88533485
v 1.7881393E-06 -0.46989787 -0.88533485
v 1.7881393E-06 -0.46989787 -0.48701763
v 1.7881393E-06 -0.46989787 -1.2316391
v -0.8725444 -0.46989787 -1.2316391
v -0.8725444 -0.46989787 -0.83332187
v 1.7881393E-06 -0.46989787 -0.83332187
v 0.8725414 -0.46989787 -0.83332187
v 0.8725414 -0.46989787 -1.2316391
v 1.7881393E-06 -0.46989787 -1.2316391
v 1.7881393E-06 -0.46989787 -0.83332187
v 1.7881393E-06 -0.4400953 -1.5799049
v -0.8725444 -0.4400953 -1.5799049
v -0.8725444 -0.47481287 -1.1831034
v 1.7881393E-06 -0.47481287 -1.1831034
v 0.8725414 -0.47481287 -1.1831034
v 0.8725414 -0.4400953 -1.5799049
v 1.7881393E-06 -0.4400953 -1.5799049
v 1.7881393E-06 -0.47481287 -1.1831034
v 1.7881393E-06 -0.048081994 -1.7093941
v -0.8725444 -0.048081994 -1.7093941
v -0.8725444 -0.4223771 -1.5731617
v 1.7881393E-06 -0.4223771 -1.5731617
v 0.8725414 -0.4223771 -1.5731617
v 0.8725414 -0.048081994 -1.7093941
v 1.7881393E-06 -0.048081994 -1.7093941
v 1.7881393E-06 -0.4223771 -1.5731617
v 1.7881393E-06 0.5126952 -1.3742731
v -0.8725444 0.5126952 -1.3742731
v -0.8725444 0.25666392 -1.6794028
v 1.7881393E-06 0.25666392 -1.6794028
v 0.8725414 0.25666392 -1.6794028
v 0.8725414 0.5126952 -1.3742731
v 1.7881393E-06 0.5126952 -1.3742731
v 1.7881393E-06 0.25666392 -1.6794028
v 1.7881393E-06 0.47000158 -0.99777263
v -0.8725444 0.47000158 -0.99777263
v -0.8725444 0.47000158 -1.3960899
v 1.7881393E-06 0.47000158 -1.3960899
v 0.8725414 0.47000492 -1.3960899
v 0.8725414 0.47000158 -0.99777263
v 1.7881393E-06 0.47000158 -0.99777263
v 1.7881393E-06 0.47000158 -1.3960899
v 1.7881393E-06 0.47000158 -0.6646912
v -0.8725444 0.47000158 -0.6646912
v -0.8725444 0.47000158 -1.0630084
v 1.7881393E-06 0.47000158 -1.0630084
v 0.8725414 0.47000492 -1.0630084
v 0.8725414 0.47000158 -0.6646912
v 1.7881393E-06 0.47000158 -0.6646912
v 1.7881393E-06 0.47000158 -1.0630084
v 1.7881393E-06 0.47000158 -0.31020272
v -0.8725444 0.47000158 -0.31020272
v -0.8725444 0.47000158 -0.70852005
v 1.7881393E-06 0.47000158 -0.70852005
v 0.8725414 0.47000158 -0.70852005
v 0.8725414 0.47000158 -0.31020272
v 1.7881393E-06 0.47000158 -0.31020272
v 1.7881393E-06 0.47000158 -0.70852005
v 1.7881393E-06 0.47000158 0.06317818
v -0.8725444 0.47000158 0.06317818
v -0.8725444 0.47000158 -0.33513904
v 1.7881393E-06 0.47000158 -0.33513904
v 0.8725414 0.47000158 -0.33513904
v 0.8725414 0.47000158 0.06317818
v 1.7881393E-06 0.47000158 0.06317818
v 1.7881393E-06 0.47000158 -0.33513904
v 1.7881393E-06 0.27920938 -1.6734958
v -0.8725444 0.27920938 -1.6734958
v -0.8725444 -0.11910796 -1.6734958
v 1.7881393E-06 -0.11910796 -1.6734958
v 0.8725414 -0.11910796 -1.673499
v 0.8725414 0.27920938 -1.6734958
v 1.7881393E-06 0.27920938 -1.6734958
v 1.7881393E-06 -0.11910796 -1.6734958
vt 0.47267294 0.27999425
vt 0.40232253 0.27999425
vt 0.40232253 0.25541586
vt 0.47267294 0.25541586
vt 0.40232253 0.25541586
vt 0.40232253 0.27999425
vt 0.47267294 0.27999425
vt 0.47267294 0.25541586
vt 0.47267294 0.27999425
vt 0.40232253 0.27999425
vt 0.40232253 0.25541586
vt 0.47267294 0.25541586
vt 0.40232253 0.25541586
vt 0.40232253 0.27999425
vt 0.47267294 0.27999425
vt 0.47267294 0.25541586
vt 0.47267294 0.27999425
vt 0.40232253 0.27999425
vt 0.40232253 0.25541586
vt 0.47267294 0.25541586
vt 0.40232253 0.25541586
vt 0.40232253 0.27999425
vt 0.47267294 0.27999425
vt 0.47267294 0.25541586
vt 0.47267294 0.27999425
vt 0.40232253 0.27999425
vt 0.40232253 0.25541586
vt 0.47267294 0.25541586
vt 0.40232253 0.25541586
vt 0.40232253 0.27999425
vt 0.47267294 0.27999425
vt 0.47267294 0.25541586
vt 0.47267294 0.27999425
vt 0.40232253 0.27999425
vt 0.40232253 0.25541586
vt 0.47267294 0.25541586
vt 0.40232253 0.25541586
vt 0.40232253 0.27999425
vt 0.47267294 0.27999425
vt 0.47267294 0.25541586
vt 0.47267294 0.27999425
vt 0.40232253 0.27999425
vt 0.40232253 0.25541586
vt 0.47267294 0.25541586
vt 0.40232253 0.25541586
vt 0.40232253 0.27999425
vt 0.47267294 0.27999425
vt 0.47267294 0.25541586
vt 0.47267294 0.27999425
vt 0.40232253 0.27999425
vt 0.40232253 0.25541586
vt 0.47267294 0.25541586
vt 0.40232253 0.25541586
vt 0.40232253 0.27999425
vt 0.47267294 0.27999425
vt 0.47267294 0.25541586
vt 0.47267294 0.27999425
vt 0.40232253 0.27999425
vt 0.40232253 0.25541586
vt 0.47267294 0.25541586
vt 0.40232253 0.25541586
vt 0.40232253 0.27999425
vt 0.47267294 0.27999425
vt 0.47267294 0.25541586
vt 0.47267294 0.27999425
vt 0.40232253 0.27999425
vt 0.40232253 0.25541586
vt 0.47267294 0.25541586
vt 0.40232253 0.25541586
vt 0.40232253 0.27999425
vt 0.47267294 0.27999425
vt 0.47267294 0.25541586
vt 0.47267294 0.27999425
vt 0.40232253 0.27999425
vt 0.40232253 0.25541586
vt 0.47267294 0.25541586
vt 0.40232253 0.25541586
vt 0.40232253 0.27999425
vt 0.47267294 0.27999425
vt 0.47267294 0.25541586
vt 0.47267294 0.27999425
vt 0.40232253 0.27999425
vt 0.40232253 0.25541586
vt 0.47267294 0.25541586
vt 0.40232253 0.25541586
vt 0.40232253 0.27999425
vt 0.47267294 0.27999425
vt 0.47267294 0.25541586
vt 0.47267294 0.27999425
vt 0.40232253 0.27999425
vt 0.40232253 0.25541586
vt 0.47267294 0.25541586
vt 0.40232253 0.25541586
vt 0.40232253 0.27999425
vt 0.47267294 0.27999425
vt 0.47267294 0.25541586
vt 0.47267294 0.27999425
vt 0.40232253 0.27999425
vt 0.40232253 0.25541586
vt 0.47267294 0.25541586
vt 0.40232253 0.25541586
vt 0.40232253 0.27999425
vt 0.47267294 0.27999425
vt 0.47267294 0.25541586
vt 0.47267294 0.27999425
vt 0.40232253 0.27999425
vt 0.40232253 0.25541586
vt 0.47267294 0.25541586
vt 0.40232253 0.25541586
vt 0.40232253 0.27999425
vt 0.47267294 0.27999425
vt 0.47267294 0.25541586
vt 0.47267294 0.27999425
vt 0.40232253 0.27999425
vt 0.40232253 0.25541586
vt 0.47267294 0.25541586
vt 0.40232253 0.25541586
vt 0.40232253 0.27999425
vt 0.47267294 0.27999425
vt 0.47267294 0.25541586
vt 0.47267294 0.27999425
vt 0.40232253 0.27999425
vt 0.40232253 0.25541586
vt 0.47267294 0.25541586
vt 0.40232253 0.25541586
vt 0.40232253 0.27999425
vt 0.47267294 0.27999425
vt 0.47267294 0.25541586
vt 0.47267294 0.27999425
vt 0.40232253 0.27999425
vt 0.40232253 0.25541586
vt 0.47267294 0.25541586
vt 0.40232253 0.25541586
vt 0.40232253 0.27999425
vt 0.47267294 0.27999425
vt 0.47267294 0.25541586
vt 0.47267294 0.27999425
vt 0.40232253 0.27999425
vt 0.40232253 0.25541586
vt 0.47267294 0.25541586
vt 0.40232253 0.25541586
vt 0.40232253 0.27999425
vt 0.47267294 0.27999425
vt 0.47267294 0.25541586
vt 0.47267294 0.27999425
vt 0.40232253 0.27999425
vt 0.40232253 0.25541586
vt 0.47267294 0.25541586
vt 0.40232253 0.25541586
vt 0.40232253 0.27999425
vt 0.47267294 0.27999425
vt 0.47267294 0.25541586
vt 0.47267294 0.27999425
vt 0.40232253 0.27999425
vt 0.40232253 0.25541586
vt 0.47267294 0.25541586
vt 0.40232253 0.25541586
vt 0.40232253 0.27999425
vt 0.47267294 0.27999425
vt 0.47267294 0.25541586
vt 0.47267294 0.27999425
vt 0.40232253 0.27999425
vt 0.40232253 0.25541586
vt 0.47267294 0.25541586
vt 0.40232253 0.25541586
vt 0.40232253 0.27999425
vt 0.47267294 0.27999425
vt 0.47267294 0.25541586
vt 0.47267294 0.27999425
vt 0.40232253 0.27999425
vt 0.40232253 0.25541586
vt 0.47267294 0.25541586
vt 0.40232253 0.25541586
vt 0.40232253 0.27999425
vt 0.47267294 0.27999425
vt 0.47267294 0.25541586
vt 0.47267294 0.27999425
vt 0.40232253 0.27999425
vt 0.40232253 0.25541586
vt 0.47267294 0.25541586
vt 0.40232253 0.25541586
vt 0.40232253 0.27999425
vt 0.47267294 0.27999425
vt 0.47267294 0.25541586
vn -0.0009775162 0.9999995 -0
vn -0.0009775162 0.9999995 -0
vn -0.0009775162 0.9999995 -0
vn -0.0009775162 0.9999995 -0
vn -0.0009775162 0.9999995 -0
vn -0.0009775162 0.9999995 -0
vn -0.0009775162 0.9999995 -0
vn -0.0009775162 0.9999995 -0
vn -0.0009775162 0.9999995 -0
vn -0.0009775162 0.9999995 -0
vn -0.0009775162 0.9999995 -0
vn -0.0009775162 0.9999995 -0
vn -0.0009775162 0.9999995 -0
vn -0.0009775162 0.9999995 -0
vn -0.0009775162 0.9999995 -0
vn -0.0009775162 0.9999995 -0
vn -0.0009775162 0.9999995 -0
vn -0.0009775162 0.9999995 -0
vn -0.0009775162 0.9999995 -0
vn -0.0009775162 0.9999995 -0
vn -0.0009775162 0.9999995 -0
vn -0.0009775162 0.9999995 -0
vn -0.0009775162 0.9999995 -0
vn -0.0009775162 0.9999995 -0
vn -0.0009775162 0.9999995 -0
vn -0.0009775162 0.9999995 -0
vn -0.0009775162 0.9999995 -0
vn -0.0009775162 0.9999995 -0
vn -0.0009775162 0.9999995 -0
vn -0.0009775162 0.9999995 -0
vn -0.0009775162 0.9999995 -0
vn -0.0009775162 0.9999995 -0
vn -0.0009775162 -0.9999995 -0
vn -0.0009775162 -0.9999995 -0
vn -0.0009775162 -0.9999995 -0
vn -0.0009775162 -0.9999995 -0
vn -0.0009775162 -0.9999995 -0
vn -0.0009775162 -0.9999995 -0
vn -0.0009775162 -0.9999995 -0
vn -0.0009775162 -0.9999995 -0
vn -0.0009775162 0.9393935 0.34283942
vn -0.0009775162 0.9393935 0.34283942
vn -0.0009775162 0.9393935 0.34283942
vn -0.0009775162 0.9393935 0.34283942
vn -0.0009775162 0.9393935 0.34283942
vn -0.0009775162 0.9393935 0.34283942
vn -0.0009775162 0.9393935 0.34283942
vn -0.0009775162 0.9393935 0.34283942
vn -0.0009775162 -0.86510223 0.5015946
vn -0.0009775162 -0.86510223 0.5015946
vn -0.0009775162 -0.86510223 0.5015946
vn -0.0009775162 -0.86510223 0.5015946
vn -0.0009775162 -0.86510223 0.5015946
vn -0.0009775162 -0.86510223 0.5015946
vn -0.0009775162 -0.86510223 0.5015946
vn -0.0009775162 -0.86510223 0.5015946
vn -0.0009775162 0.17302048 0.98491776
vn -0.0009775162 0.17302048 0.98491776
vn -0.0009775162 0.17302048 0.98491776
vn -0.0009775162 0.17302048 0.98491776
vn -0.0009775162 0.17302048 0.98491776
vn -0.0009775162 0.17302048 0.98491776
vn -0.0009775162 0.17302048 0.98491776
vn -0.0009775162 0.17302048 0.98491776
vn -0.0009775162 -0.086999 0.9962079
vn -0.0009775162 -0.086999 0.9962079
vn -0.0009775162 -0.086999 0.9962079
vn -0.0009775162 -0.086999 0.9962079
vn -0.0009775162 -0.086999 0.9962079
vn -0.0009775162 -0.086999 0.9962079
vn -0.0009775162 -0.086999 0.9962079
vn -0.0009775162 -0.086999 0.9962079
vn -0.0009775162 -0.9999995 -0
vn -0.0009775162 -0.9999995 -0
vn -0.0009775162 -0.9999995 -0
vn -0.0009775162 -0.9999995 -0
vn -0.0009775162 -0.9999995 -0
vn -0.0009775162 -0.9999995 -0
vn -0.0009775162 -0.9999995 -0
vn -0.0009775162 -0.9999995 -0
vn -0.0009775162 -0.9999995 -0
vn -0.0009775162 -0.9999995 -0
vn -0.0009775162 -0.9999995 -0
vn -0.0009775162 -0.9999995 -0
vn -0.0009775162 -0.9999995 -0
vn -0.0009775162 -0.9999995 -0
vn -0.0009775162 -0.9999995 -0
vn -0.0009775162 -0.9999995 -0
vn -0.0009775162 -0.9999995 -0
vn -0.0009775162 -0.9999995 -0
vn -0.0009775162 -0.9999995 -0
vn -0.0009775162 -0.9999995 -0
vn -0.0009775162 -0.9999995 -0
vn -0.0009775162 -0.9999995 -0
vn -0.0009775162 -0.9999995 -0
vn -0.0009775162 -0.9999995 -0
vn -0.0009775162 -0.9999995 -0
vn -0.0009775162 -0.9999995 -0
vn -0.0009775162 -0.9999995 -0
vn -0.0009775162 -0.9999995 -0
vn -0.0009775162 -0.9999995 -0
vn -0.0009775162 -0.9999995 -0
vn -0.0009775162 -0.9999995 -0
vn -0.0009775162 -0.9999995 -0
vn -0.0009775162 -0.9999995 -0
vn -0.0009775162 -0.9999995 -0
vn -0.0009775162 -0.9999995 -0
vn -0.0009775162 -0.9999995 -0
vn -0.0009775162 -0.9999995 -0
vn -0.0009775162 -0.9999995 -0
vn -0.0009775162 -0.9999995 -0
vn -0.0009775162 -0.9999995 -0
vn -0.0009775162 -0.9999995 -0
vn -0.0009775162 -0.9999995 -0
vn -0.0009775162 -0.9999995 -0
vn -0.0009775162 -0.9999995 -0
vn -0.0009775162 -0.9999995 -0
vn -0.0009775162 -0.9999995 -0
vn -0.0009775162 -0.9999995 -0
vn -0.0009775162 -0.9999995 -0
vn -0.0009775162 -0.99608946 -0.08834484
vn -0.0009775162 -0.99608946 -0.08834484
vn -0.0009775162 -0.99608946 -0.08834484
vn -0.0009775162 -0.99608946 -0.08834484
vn -0.0009775162 -0.99608946 -0.08834484
vn -0.0009775162 -0.99608946 -0.08834484
vn -0.0009775162 -0.99608946 -0.08834484
vn -0.0009775162 -0.99608946 -0.08834484
vn -0.0009775162 -0.34115332 -0.94000715
vn -0.0009775162 -0.34115332 -0.94000715
vn -0.0009775162 -0.34115332 -0.94000715
vn -0.0009775162 -0.34115332 -0.94000715
vn -0.0009775162 -0.34115332 -0.94000715
vn -0.0009775162 -0.34115332 -0.94000715
vn -0.0009775162 -0.34115332 -0.94000715
vn -0.0009775162 -0.34115332 -0.94000715
vn -0.0009775162 0.7653955 -0.6435594
vn -0.0009775162 0.7653955 -0.6435594
vn -0.0009775162 0.7653955 -0.6435594
vn -0.0009775162 0.7653955 -0.6435594
vn -0.0009775162 0.7653955 -0.6435594
vn -0.0009775162 0.7653955 -0.6435594
vn -0.0009775162 0.7653955 -0.6435594
vn -0.0009775162 0.7653955 -0.6435594
vn -0.0009775162 0.9999995 -0
vn -0.0009775162 0.9999995 -0
vn -0.0009775162 0.9999995 -0
vn -0.0009775162 0.9999995 -0
vn -0.0009775162 0.9999995 -0
vn -0.0009775162 0.9999995 -0
vn -0.0009775162 0.9999995 -0
vn -0.0009775162 0.9999995 -0
vn -0.0009775162 0.9999995 -0
vn -0.0009775162 0.9999995 -0
vn -0.0009775162 0.9999995 -0
vn -0.0009775162 0.9999995 -0
vn -0.0009775162 0.9999995 -0
vn -0.0009775162 0.9999995 -0
vn -0.0009775162 0.9999995 -0
vn -0.0009775162 0.9999995 -0
vn -0.0009775162 0.9999995 -0
vn -0.0009775162 0.9999995 -0
vn -0.0009775162 0.9999995 -0
vn -0.0009775162 0.9999995 -0
vn -0.0009775162 0.9999995 -0
vn -0.0009775162 0.9999995 -0
vn -0.0009775162 0.9999995 -0
vn -0.0009775162 0.9999995 -0
vn -0.0009775162 0.9999995 -0
vn -0.0009775162 0.9999995 -0
vn -0.0009775162 0.9999995 -0
vn -0.0009775162 0.9999995 -0
vn -0.0009775162 0.9999995 -0
vn -0.0009775162 0.9999995 -0
vn -0.0009775162 0.9999995 -0
vn -0.0009775162 0.9999995 -0
vn -0.0009775162 0.0009775162 -0.99999905
vn -0.0009775162 0.0009775162 -0.99999905
vn -0.0009775162 0.0009775162 -0.99999905
vn -0.0009775162 0.0009775162 -0.99999905
vn -0.0009775162 0.0009775162 -0.99999905
vn -0.0009775162 0.0009775162 -0.99999905
vn -0.0009775162 0.0009775162 -0.99999905
vn -0.0009775162 0.0009775162 -0.99999905
g l_conveyor_02_0
f 3/3/3 2/2/2 1/1/1
f 4/4/4 3/3/3 1/1/1
f 7/7/7 6/6/6 5/5/5
f 8/8/8 7/7/7 5/5/5
f 11/11/11 10/10/10 9/9/9
f 12/12/12 11/11/11 9/9/9
f 15/15/15 14/14/14 13/13/13
f 16/16/16 15/15/15 13/13/13
f 19/19/19 18/18/18 17/17/17
f 20/20/20 19/19/19 17/17/17
f 23/23/23 22/22/22 21/21/21
f 24/24/24 23/23/23 21/21/21
f 27/27/27 26/26/26 25/25/25
f 28/28/28 27/27/27 25/25/25
f 31/31/31 30/30/30 29/29/29
f 32/32/32 31/31/31 29/29/29
f 35/35/35 34/34/34 33/33/33
f 36/36/36 35/35/35 33/33/33
f 39/39/39 38/38/38 37/37/37
f 40/40/40 39/39/39 37/37/37
f 43/43/43 42/42/42 41/41/41
f 44/44/44 43/43/43 41/41/41
f 47/47/47 46/46/46 45/45/45
f 48/48/48 47/47/47 45/45/45
f 51/51/51 50/50/50 49/49/49
f 52/52/52 51/51/51 49/49/49
f 55/55/55 54/54/54 53/53/53
f 56/56/56 55/55/55 53/53/53
f 59/59/59 58/58/58 57/57/57
f 60/60/60 59/59/59 57/57/57
f 63/63/63 62/62/62 61/61/61
f 64/64/64 63/63/63 61/61/61
f 67/67/67 66/66/66 65/65/65
f 68/68/68 67/67/67 65/65/65
f 71/71/71 70/70/70 69/69/69
f 72/72/72 71/71/71 69/69/69
f 75/75/75 74/74/74 73/73/73
f 76/76/76 75/75/75 73/73/73
f 79/79/79 78/78/78 77/77/77
f 80/80/80 79/79/79 77/77/77
f 83/83/83 82/82/82 81/81/81
f 84/84/84 83/83/83 81/81/81
f 87/87/87 86/86/86 85/85/85
f 88/88/88 87/87/87 85/85/85
f 91/91/91 90/90/90 89/89/89
f 92/92/92 91/91/91 89/89/89
f 95/95/95 94/94/94 93/93/93
f 96/96/96 95/95/95 93/93/93
f 99/99/99 98/98/98 97/97/97
f 100/100/100 99/99/99 97/97/97
f 103/103/103 102/102/102 101/101/101
f 104/104/104 103/103/103 101/101/101
f 107/107/107 106/106/106 105/105/105
f 108/108/108 107/107/107 105/105/105
f 111/111/111 110/110/110 109/109/109
f 112/112/112 111/111/111 109/109/109
f 115/115/115 114/114/114 113/113/113
f 116/116/116 115/115/115 113/113/113
f 119/119/119 118/118/118 117/117/117
f 120/120/120 119/119/119 117/117/117
f 123/123/123 122/122/122 121/121/121
f 124/124/124 123/123/123 121/121/121
f 127/127/127 126/126/126 125/125/125
f 128/128/128 127/127/127 125/125/125
f 131/131/131 130/130/130 129/129/129
f 132/132/132 131/131/131 129/129/129
f 135/135/135 134/134/134 133/133/133
f 136/136/136 135/135/135 133/133/133
f 139/139/139 138/138/138 137/137/137
f 140/140/140 139/139/139 137/137/137
f 143/143/143 142/142/142 141/141/141
f 144/144/144 143/143/143 141/141/141
f 147/147/147 146/146/146 145/145/145
f 148/148/148 147/147/147 145/145/145
f 151/151/151 150/150/150 149/149/149
f 152/152/152 151/151/151 149/149/149
f 155/155/155 154/154/154 153/153/153
f 156/156/156 155/155/155 153/153/153
f 159/159/159 158/158/158 157/157/157
f 160/160/160 159/159/159 157/157/157
f 163/163/163 162/162/162 161/161/161
f 164/164/164 163/163/163 161/161/161
f 167/167/167 166/166/166 165/165/165
f 168/168/168 167/167/167 165/165/165
f 171/171/171 170/170/170 169/169/169
f 172/172/172 171/171/171 169/169/169
f 175/175/175 174/174/174 173/173/173
f 176/176/176 175/175/175 173/173/173
f 179/179/179 178/178/178 177/177/177
f 180/180/180 179/179/179 177/177/177
f 183/183/183 182/182/182 181/181/181
f 184/184/184 183/183/183 181/181/181
