g mbg002_rock_28
v -1.255023 -2.26608 1.1633797
v -0.8856473 -1.5991364 1.6657352
v 1.081564 -1.6347046 1.0333481
v -0.16406202 -0.29624367 1.2165718
v 0.53174686 0.96010876 0.690567
v -0.6458478 -2.2589073 -0.5564823
v -1.3581066 -2.4522085 -0.1782341
v -1.2447252 -2.247488 -0.99341583
v -0.8438468 -1.5236626 -1.6657276
v 1.9949932 0.01458168 0.53689384
v 0.62909794 1.1358852 0.56053543
v 1.2790947 2.309517 -0.71014404
v 1.0185738 -1.7484407 -0.7042351
v 1.7143831 -0.49208832 -1.289341
v 0.20702934 0.37379742 -1.6657276
v 1.2951221 2.3384552 -1.3362045
v 1.9753561 1.8090506 -1.1474934
v 1.3581171 2.4522 -1.0111465
v -1.9594746 0.049524307 1.0333481
v 0.53174686 0.96010876 0.690567
v -0.16406202 -0.29624367 1.2165718
v -0.8856473 -1.5991364 1.6657352
v -1.255023 -2.26608 1.1633797
v -1.0460453 1.6988106 0.53689384
v 0.62909794 1.1358852 0.56053543
v 1.2790947 2.309517 -0.71014404
v -1.5721321 -1.7459011 -0.5564823
v -1.3581066 -2.4522085 -0.1782341
v -1.2447252 -2.247488 -0.99341583
v -0.8438468 -1.5236626 -1.6657276
v -2.0224652 -0.064211845 -0.7042351
v -1.3266554 1.1921406 -1.289341
v 0.20702934 0.37379742 -1.6657276
v 1.2951221 2.3384552 -1.3362045
v 0.4854765 2.6341953 -1.1474934
v 1.3581171 2.4522 -1.0111465
vt 0.22451344 0.058160037
vt 0.20884025 0.06848732
vt 0.18988639 0.055486888
vt 0.17822225 0.05925355
vt 0.14869794 0.048440073
vt 0.21831706 0.022803575
vt 0.22888745 0.030579478
vt 0.22407648 0.013821214
vt 0.20706658 0
vt 0.15112813 0.0452809
vt 0.14456718 0.045766916
vt 0.11698678 0.019644588
vt 0.19255921 0.019766122
vt 0.16303489 0.0077376664
vt 0.16247624 0
vt 0.11630672 0.006774217
vt 0.11905229 0.010653704
vt 0.11363372 0.013456672
vt 0.18988639 0.055486888
vt 0.14869794 0.048440073
vt 0.17822225 0.05925355
vt 0.20884025 0.06848732
vt 0.22451344 0.058160037
vt 0.15112813 0.0452809
vt 0.14456718 0.045766916
vt 0.11698678 0.019644588
vt 0.21831706 0.022803575
vt 0.22888745 0.030579478
vt 0.22407648 0.013821214
vt 0.20706658 0
vt 0.19255921 0.019766122
vt 0.16303489 0.0077376664
vt 0.16247624 0
vt 0.11630672 0.006774217
vt 0.11905229 0.010653704
vt 0.11363372 0.013456672
vn -0.42704877 -0.77107793 0.47230092
vn -0.11506495 -0.20776115 0.9713884
vn 0.5969179 -0.5274891 0.60451984
vn 0.14144431 0.25539136 0.9564354
vn 0.20580487 0.37160078 0.905294
vn 0.25826442 -0.9385622 -0.22891125
vn -0.4844903 -0.8747953 0.0015480514
vn -0.4045417 -0.7304403 -0.5502754
vn -0.22721326 -0.4102558 -0.88321257
vn 0.8416909 0.018436054 0.53964484
vn 0.30240235 0.54601675 0.78129286
vn 0.39736226 0.7174764 0.5721283
vn 0.5621726 -0.76176554 -0.3219862
vn 0.7220216 -0.30311435 -0.62193763
vn 0.036831222 0.06650232 -0.99710625
vn 0.29949683 0.5407705 -0.7860463
vn 0.861969 0.36267504 -0.35422638
vn 0.48250985 0.8712193 0.09033943
vn -0.76381934 0.22613241 0.60451967
vn 0.20580487 0.37160078 0.905294
vn 0.14144431 0.25539136 0.9564354
vn -0.11506495 -0.20776115 0.9713884
vn -0.42704877 -0.77107793 0.47230092
vn -0.43092036 0.72325045 0.5396447
vn 0.30240235 0.54601675 0.78129286
vn 0.39736226 0.7174764 0.5721283
vn -0.93260217 -0.2790209 -0.22891161
vn -0.4844903 -0.8747953 0.0015480514
vn -0.4045417 -0.7304403 -0.5502754
vn -0.22721326 -0.4102558 -0.88321257
vn -0.9439728 0.07238775 -0.32198644
vn -0.63999736 0.4512169 -0.6219378
vn 0.036831222 0.06650232 -0.99710625
vn 0.29949683 0.5407705 -0.7860463
vn -0.14988016 0.92307067 -0.35422656
vn 0.48250985 0.8712193 0.09033943
g mbg002_rock_28_0
f 3/3/3 2/2/2 1/1/1
f 4/4/4 2/2/2 3/3/3
f 4/4/4 3/3/3 5/5/5
f 3/3/3 1/1/1 6/6/6
f 1/1/1 7/7/7 6/6/6
f 6/6/6 7/7/7 8/8/8
f 6/6/6 8/8/8 9/9/9
f 3/3/3 10/10/10 5/5/5
f 5/5/5 10/10/10 11/11/11
f 12/12/12 11/11/11 10/10/10
f 3/3/3 6/6/6 13/13/13
f 13/13/13 6/6/6 9/9/9
f 10/10/10 3/3/3 13/13/13
f 14/14/14 13/13/13 9/9/9
f 14/14/14 10/10/10 13/13/13
f 14/14/14 9/9/9 15/15/15
f 15/15/15 16/16/16 14/14/14
f 17/17/17 12/12/12 10/10/10
f 14/14/14 17/17/17 10/10/10
f 16/16/16 17/17/17 14/14/14
f 18/18/18 12/12/12 17/17/17
f 16/16/16 18/18/18 17/17/17
f 21/21/21 20/20/20 19/19/19
f 22/22/22 21/21/21 19/19/19
f 22/22/22 19/19/19 23/23/23
f 20/20/20 24/24/24 19/19/19
f 24/24/24 20/20/20 25/25/25
f 25/25/25 26/26/26 24/24/24
f 23/23/23 19/19/19 27/27/27
f 28/28/28 23/23/23 27/27/27
f 28/28/28 27/27/27 29/29/29
f 29/29/29 27/27/27 30/30/30
f 27/27/27 19/19/19 31/31/31
f 27/27/27 31/31/31 30/30/30
f 31/31/31 19/19/19 24/24/24
f 31/31/31 32/32/32 30/30/30
f 32/32/32 31/31/31 24/24/24
f 30/30/30 32/32/32 33/33/33
f 34/34/34 33/33/33 32/32/32
f 26/26/26 35/35/35 24/24/24
f 35/35/35 32/32/32 24/24/24
f 35/35/35 34/34/34 32/32/32
f 26/26/26 36/36/36 35/35/35
f 36/36/36 34/34/34 35/35/35
