g mbg002_rock_30
v 1.7856499 -3.0573206 -13.735154
v 2.8725777 -3.0573206 -13.746714
v 2.8732307 -3.0573199 -19.738476
v 1.7868195 -3.0573199 -19.738476
v 7.8829484 -3.0573199 -19.738476
v 8.963502 -3.0573206 -13.805625
v 8.965069 -3.0573199 -19.738476
v 7.8810616 -3.0573206 -13.797644
v 7.880338 -3.0573208 -11.51942
v 8.964224 -3.057321 -9.639685
v 7.5653496 -3.0573206 -11.169757
v 7.5068245 -3.0573208 -10.305357
v 2.8725019 -3.0573208 -11.187093
v 7.4945636 -3.0573208 -9.667816
v 8.930557 -3.0573213 -7.9469905
v 2.854999 -3.0573208 -10.29024
v 6.8405166 -3.057321 -8.081063
v 6.6281624 -3.057321 -8.572548
v 6.6974783 -3.057321 -8.134191
v 3.636624 -3.057321 -8.580721
v 3.5786836 -3.057321 -8.139778
v 7.512795 -3.0573213 -7.384265
v 2.8492193 -3.0573208 -9.744065
v 8.381497 -3.0573213 -7.3603597
v 2.8618834 -3.057321 -8.0594225
v 7.659633 -3.0573218 -4.8269258
v 8.356433 -3.0573215 -5.3582106
v 7.500333 -3.0573218 -4.8307834
v 1.4244535 -3.0573208 -10.2019615
v 1.4499625 -3.0573206 -11.145509
v 2.1221724 -3.0573213 -7.1971064
v 2.837363 -3.0573213 -7.7733455
v 1.4601114 -3.0573215 -6.114101
v 2.04861 -3.0573213 -6.698518
v 1.8320101 -3.0573215 -6.1222754
v 1.0729886 -3.0573208 -10.492127
v 1.7854831 -3.0573208 -11.529061
v 2.8725777 -3.0573206 -13.746714
v 1.7856499 -3.0573206 -13.735154
v -1.3559283 -3.0573208 -10.604674
v -1.3586584 -3.0573208 -10.467607
v -1.8295168 -3.0573206 -11.013821
v -1.8295168 -3.0573206 -11.124165
v 1.7868195 -3.0573199 -19.738476
v 1.7868197 -2.6388514 -19.738476
v 1.7856499 -2.6388521 -13.735153
v 1.7856499 -3.0573206 -13.735154
v 2.8732307 -3.0573199 -19.738476
v 2.873231 -2.6388514 -19.738476
v 1.7868197 -2.6388514 -19.738476
v 1.7868195 -3.0573199 -19.738476
v 2.8725777 -3.0573206 -13.746714
v 2.8725781 -2.6388521 -13.746713
v 2.873231 -2.6388514 -19.738476
v 2.8732307 -3.0573199 -19.738476
v 7.8829484 -3.0573199 -19.738476
v 7.882949 -2.6388514 -19.738476
v 7.8810625 -2.6388521 -13.797644
v 7.8810616 -3.0573206 -13.797644
v 7.8803387 -2.6388524 -11.519419
v 7.880338 -3.0573208 -11.51942
v 8.965069 -3.0573199 -19.738476
v 8.965071 -2.6388514 -19.738476
v 7.882949 -2.6388514 -19.738476
v 7.8829484 -3.0573199 -19.738476
v 8.963502 -3.0573206 -13.805625
v 8.965071 -2.6388514 -19.738476
v 8.965069 -3.0573199 -19.738476
v 8.963502 -2.6388521 -13.805625
v 8.964224 -3.057321 -9.639685
v 8.964225 -2.6388526 -9.639683
v 8.930557 -3.0573213 -7.9469905
v 8.930557 -2.638853 -7.9469914
v 3.636624 -3.057321 -8.580721
v 3.636624 -2.6388528 -8.580721
v 2.8492193 -2.6388526 -9.744065
v 2.8492193 -3.0573208 -9.744065
v 6.6281624 -3.057321 -8.572548
v 6.6281624 -2.6388528 -8.572547
v 3.636624 -2.6388528 -8.580721
v 3.636624 -3.057321 -8.580721
v 7.4945636 -3.0573208 -9.667816
v 7.494564 -2.6388526 -9.667815
v 6.6281624 -2.6388528 -8.572547
v 6.6281624 -3.057321 -8.572548
v 7.5068245 -3.0573208 -10.305357
v 7.5068245 -2.6388526 -10.305356
v 7.494564 -2.6388526 -9.667815
v 7.4945636 -3.0573208 -9.667816
v 2.854999 -3.0573208 -10.29024
v 2.854999 -2.6388526 -10.290239
v 7.5068245 -2.6388526 -10.305356
v 7.5068245 -3.0573208 -10.305357
v 1.0729886 -3.0573208 -10.492127
v 1.0729886 -2.6388526 -10.492127
v 1.4244535 -2.6388526 -10.2019615
v 1.4244535 -3.0573208 -10.2019615
v -1.3586584 -3.0573208 -10.467607
v -1.3586586 -2.6388526 -10.467606
v 1.0729886 -2.6388526 -10.492127
v 1.0729886 -3.0573208 -10.492127
v -1.3559283 -3.0573208 -10.604674
v -1.3559284 -2.6388526 -10.604673
v -1.3586586 -2.6388526 -10.467606
v -1.3586584 -3.0573208 -10.467607
v -1.8295168 -3.0573206 -11.013821
v -1.8295172 -2.6388524 -11.013821
v -1.3559284 -2.6388526 -10.604673
v -1.3559283 -3.0573208 -10.604674
v -1.8295168 -3.0573206 -11.124165
v -1.8295172 -2.6388524 -11.124164
v -1.8295172 -2.6388524 -11.013821
v -1.8295168 -3.0573206 -11.013821
v 1.4499625 -3.0573206 -11.145509
v 1.4499625 -2.6388524 -11.145509
v -1.8295172 -2.6388524 -11.124164
v -1.8295168 -3.0573206 -11.124165
v 1.7854831 -3.0573208 -11.529061
v 1.7854835 -2.6388524 -11.52906
v 1.4499625 -2.6388524 -11.145509
v 1.4499625 -3.0573206 -11.145509
v 1.7856499 -3.0573206 -13.735154
v 1.7856499 -2.6388521 -13.735153
v 1.7854835 -2.6388524 -11.52906
v 1.7854831 -3.0573208 -11.529061
v 2.8725019 -3.0573208 -11.187093
v 2.8725019 -2.6388524 -11.187092
v 2.8725781 -2.6388521 -13.746713
v 2.8725777 -3.0573206 -13.746714
v 7.5653496 -3.0573206 -11.169757
v 7.5653496 -2.6388524 -11.169757
v 2.8725019 -2.6388524 -11.187092
v 2.8725019 -3.0573208 -11.187093
v 7.880338 -3.0573208 -11.51942
v 7.8803387 -2.6388524 -11.519419
v 7.5653496 -2.6388524 -11.169757
v 7.5653496 -3.0573206 -11.169757
v 8.381497 -3.0573213 -7.3603597
v 8.381497 -2.638853 -7.36036
v 8.930557 -2.638853 -7.9469914
v 8.930557 -3.0573213 -7.9469905
v 8.356433 -3.0573215 -5.3582106
v 8.356433 -2.6388533 -5.358211
v 8.381497 -2.638853 -7.36036
v 8.381497 -3.0573213 -7.3603597
v 7.659633 -3.0573218 -4.8269258
v 7.6596336 -2.6388535 -4.826925
v 8.356433 -2.6388533 -5.358211
v 8.356433 -3.0573215 -5.3582106
v 7.500333 -3.0573218 -4.8307834
v 7.500334 -2.6388535 -4.8307824
v 7.6596336 -2.6388535 -4.826925
v 7.659633 -3.0573218 -4.8269258
v 7.512795 -3.0573213 -7.384265
v 7.512796 -2.638853 -7.384266
v 7.500334 -2.6388535 -4.8307824
v 7.500333 -3.0573218 -4.8307834
v 6.8405166 -3.057321 -8.081063
v 6.8405166 -2.6388528 -8.081063
v 7.512796 -2.638853 -7.384266
v 7.512795 -3.0573213 -7.384265
v 6.6974783 -3.057321 -8.134191
v 6.6974792 -2.6388528 -8.134191
v 6.8405166 -2.6388528 -8.081063
v 6.8405166 -3.057321 -8.081063
v 3.5786836 -3.057321 -8.139778
v 3.5786836 -2.6388528 -8.139777
v 6.6974792 -2.6388528 -8.134191
v 6.6974783 -3.057321 -8.134191
v 2.8618834 -3.057321 -8.0594225
v 2.8618834 -2.6388528 -8.0594225
v 3.5786836 -2.6388528 -8.139777
v 3.5786836 -3.057321 -8.139778
v 2.837363 -3.0573213 -7.7733455
v 2.8373632 -2.638853 -7.773347
v 2.8618834 -2.6388528 -8.0594225
v 2.8618834 -3.057321 -8.0594225
v 2.1221724 -3.0573213 -7.1971064
v 2.1221726 -2.638853 -7.197107
v 2.8373632 -2.638853 -7.773347
v 2.837363 -3.0573213 -7.7733455
v 2.04861 -3.0573213 -6.698518
v 2.0486102 -2.638853 -6.6985183
v 2.1221726 -2.638853 -7.197107
v 2.1221724 -3.0573213 -7.1971064
v 1.8320101 -3.0573215 -6.1222754
v 1.8320104 -2.6388533 -6.122276
v 2.0486102 -2.638853 -6.6985183
v 2.04861 -3.0573213 -6.698518
v 1.4601114 -3.0573215 -6.114101
v 1.4601114 -2.6388533 -6.1141014
v 1.8320104 -2.6388533 -6.122276
v 1.8320101 -3.0573215 -6.1222754
v 1.4244535 -3.0573208 -10.2019615
v 1.4244535 -2.6388526 -10.2019615
v 1.4601114 -2.6388533 -6.1141014
v 1.4601114 -3.0573215 -6.114101
v 2.8492193 -3.0573208 -9.744065
v 2.8492193 -2.6388526 -9.744065
v 2.854999 -2.6388526 -10.290239
v 2.854999 -3.0573208 -10.29024
v 2.873231 -2.6388514 -19.738476
v 2.8725781 -2.6388521 -13.746713
v 1.7856499 -2.6388521 -13.735153
v 1.7868197 -2.6388514 -19.738476
v 8.963502 -2.6388521 -13.805625
v 7.882949 -2.6388514 -19.738476
v 8.965071 -2.6388514 -19.738476
v 7.8810625 -2.6388521 -13.797644
v 7.8803387 -2.6388524 -11.519419
v 8.964225 -2.6388526 -9.639683
v 7.5653496 -2.6388524 -11.169757
v 7.5068245 -2.6388526 -10.305356
v 2.8725019 -2.6388524 -11.187092
v 7.494564 -2.6388526 -9.667815
v 8.930557 -2.638853 -7.9469914
v 2.854999 -2.6388526 -10.290239
v 6.8405166 -2.6388528 -8.081063
v 6.6281624 -2.6388528 -8.572547
v 6.6974792 -2.6388528 -8.134191
v 3.636624 -2.6388528 -8.580721
v 3.5786836 -2.6388528 -8.139777
v 7.512796 -2.638853 -7.384266
v 2.8492193 -2.6388526 -9.744065
v 8.381497 -2.638853 -7.36036
v 2.8618834 -2.6388528 -8.0594225
v 7.6596336 -2.6388535 -4.826925
v 8.356433 -2.6388533 -5.358211
v 7.500334 -2.6388535 -4.8307824
v 1.4244535 -2.6388526 -10.2019615
v 1.4499625 -2.6388524 -11.145509
v 2.1221726 -2.638853 -7.197107
v 2.8373632 -2.638853 -7.773347
v 1.4601114 -2.6388533 -6.1141014
v 2.0486102 -2.638853 -6.6985183
v 1.8320104 -2.6388533 -6.122276
v 1.0729886 -2.6388526 -10.492127
v 1.7854835 -2.6388524 -11.52906
v 2.8725781 -2.6388521 -13.746713
v 1.7856499 -2.6388521 -13.735153
v -1.3559284 -2.6388526 -10.604673
v -1.3586586 -2.6388526 -10.467606
v -1.8295172 -2.6388524 -11.013821
v -1.8295172 -2.6388524 -11.124164
vt 0.6995349 0.1512296
vt 0.72708964 0.1512296
vt 0.72708964 0
vt 0.70007974 0
vt 0.70007974 0
vt 0.72708964 0.1512296
vt 0.72708964 0
vt 0.6995349 0.1512296
vt 0.6993259 0.20819892
vt 0.7270483 0.25581497
vt 0.69163966 0.21683675
vt 0.69015706 0.23895267
vt 0.5726859 0.21683675
vt 0.68984646 0.25510234
vt 0.726222 0.29869297
vt 0.57232064 0.23933555
vt 0.6732787 0.29529676
vt 0.6678995 0.28284684
vt 0.6696553 0.29395097
vt 0.5921202 0.2826398
vt 0.5906524 0.29380944
vt 0.6903083 0.3129475
vt 0.57217425 0.25317085
vt 0.7123136 0.31355307
vt 0.57249504 0.2958449
vt 0.6940279 0.37772807
vt 0.7116787 0.36426997
vt 0.68999267 0.37763032
vt 0.5360831 0.24157178
vt 0.5367293 0.21767053
vt 0.55375725 0.3176884
vt 0.5718739 0.3030916
vt 0.5369864 0.34512228
vt 0.55189383 0.33031827
vt 0.5464071 0.3449152
vt 0.5271801 0.23422149
vt 0.5451583 0.2079547
vt 0.5727099 0.1512296
vt 0.54518586 0.1512296
vt 0.46565259 0.23137054
vt 0.46558347 0.23484263
vt 0.45365605 0.2210064
vt 0.453656 0.2182112
vt 0.70007974 0
vt 0.69591546 -0.0021491707
vt 0.69591546 0.1512296
vt 0.6995349 0.1512296
vt 0.72708964 0
vt 0.72817606 -0.0021491707
vt 0.69591546 -0.0021491707
vt 0.70007974 0
vt 0.72708964 0.1512296
vt 0.72708964 0.1512296
vt 0.72817606 -0.0021491707
vt 0.72708964 0
vt 0.70007974 0
vt 0.6958873 -0.0021521077
vt 0.6959741 0.1512296
vt 0.6995349 0.1512296
vt 0.6953346 0.20556465
vt 0.6993259 0.20819892
vt 0.72708964 0
vt 0.7281288 -0.0021255556
vt 0.6958873 -0.0021521077
vt 0.70007974 0
vt 0.72708964 0.1512296
vt 0.7281288 -0.0021255556
vt 0.72708964 0
vt 0.7302888 0.1512296
vt 0.7270483 0.25581497
vt 0.7296426 0.25581497
vt 0.726222 0.29869297
vt 0.72840124 0.30087224
vt 0.5921202 0.2826398
vt 0.59377813 0.27956957
vt 0.57500833 0.25236785
vt 0.57217425 0.25317085
vt 0.6678995 0.28284684
vt 0.66631657 0.2796289
vt 0.59377813 0.27956957
vt 0.5921202 0.2826398
vt 0.68984646 0.25510234
vt 0.6860677 0.25375617
vt 0.66631657 0.2796289
vt 0.6678995 0.28284684
vt 0.69015706 0.23895267
vt 0.6860859 0.24206589
vt 0.6860677 0.25375617
vt 0.68984646 0.25510234
vt 0.57232064 0.23933555
vt 0.5752067 0.24179175
vt 0.6860859 0.24206589
vt 0.69015706 0.23895267
vt 0.5271801 0.23422149
vt 0.52558136 0.23632887
vt 0.5334488 0.24348761
vt 0.5360831 0.24157178
vt 0.46558347 0.23484263
vt 0.4627494 0.23621243
vt 0.52558136 0.23632887
vt 0.5271801 0.23422149
vt 0.46565259 0.23137054
vt 0.46272403 0.2321263
vt 0.4627494 0.23621243
vt 0.46558347 0.23484263
vt 0.45365605 0.2210064
vt 0.45148325 0.22180937
vt 0.46272403 0.2321263
vt 0.46565259 0.23137054
vt 0.453656 0.2182112
vt 0.45143598 0.21589671
vt 0.45148325 0.22180937
vt 0.45365605 0.2210064
vt 0.5367293 0.21767053
vt 0.53463304 0.21481968
vt 0.45143598 0.21589671
vt 0.453656 0.2182112
vt 0.5451583 0.2079547
vt 0.5415472 0.20629431
vt 0.53463304 0.21481968
vt 0.5367293 0.21767053
vt 0.54518586 0.1512296
vt 0.5415472 0.1512296
vt 0.5415472 0.20629431
vt 0.5451583 0.2079547
vt 0.5726859 0.21683675
vt 0.57579726 0.21302696
vt 0.575903 0.1512296
vt 0.5727099 0.1512296
vt 0.69163966 0.21683675
vt 0.6890606 0.21284543
vt 0.57579726 0.21302696
vt 0.5726859 0.21683675
vt 0.6993259 0.20819892
vt 0.6953346 0.20556465
vt 0.6890606 0.21284543
vt 0.69163966 0.21683675
vt 0.7123136 0.31355307
vt 0.71510047 0.31525353
vt 0.72840124 0.30087224
vt 0.726222 0.29869297
vt 0.7116787 0.36426997
vt 0.7135674 0.36804646
vt 0.71510047 0.31525353
vt 0.7123136 0.31355307
vt 0.6940279 0.37772807
vt 0.694949 0.38141236
vt 0.7135674 0.36804646
vt 0.7116787 0.36426997
vt 0.68999267 0.37763032
vt 0.6870452 0.3812532
vt 0.694949 0.38141236
vt 0.6940279 0.37772807
vt 0.6903083 0.3129475
vt 0.6874033 0.3138544
vt 0.6870452 0.3812532
vt 0.68999267 0.37763032
vt 0.6732787 0.29529676
vt 0.6722166 0.2975327
vt 0.6874033 0.3138544
vt 0.6903083 0.3129475
vt 0.6696553 0.29395097
vt 0.6685932 0.29618692
vt 0.6722166 0.2975327
vt 0.6732787 0.29529676
vt 0.5906524 0.29380944
vt 0.5910303 0.2957933
vt 0.6685932 0.29618692
vt 0.6696553 0.29395097
vt 0.57249504 0.2958449
vt 0.57446617 0.29753053
vt 0.5910303 0.2957933
vt 0.5906524 0.29380944
vt 0.5718739 0.3030916
vt 0.573711 0.3052295
vt 0.57446617 0.29753053
vt 0.57249504 0.2958449
vt 0.55375725 0.3176884
vt 0.55569386 0.31934163
vt 0.573711 0.3052295
vt 0.5718739 0.3030916
vt 0.55189383 0.33031827
vt 0.5538268 0.33149186
vt 0.55569386 0.31934163
vt 0.55375725 0.3176884
vt 0.5464071 0.3449152
vt 0.5477025 0.3470589
vt 0.5538268 0.33149186
vt 0.55189383 0.33031827
vt 0.5369864 0.34512228
vt 0.53397757 0.34733286
vt 0.5477025 0.3470589
vt 0.5464071 0.3449152
vt 0.5360831 0.24157178
vt 0.5334488 0.24348761
vt 0.53397757 0.34733286
vt 0.5369864 0.34512228
vt 0.57217425 0.25317085
vt 0.57500833 0.25236785
vt 0.5752067 0.24179175
vt 0.57232064 0.23933555
vt 0.72708964 0
vt 0.72708964 0.1512296
vt 0.6995349 0.1512296
vt 0.70007974 0
vt 0.72708964 0.1512296
vt 0.70007974 0
vt 0.72708964 0
vt 0.6995349 0.1512296
vt 0.6993259 0.20819892
vt 0.7270483 0.25581497
vt 0.69163966 0.21683675
vt 0.69015706 0.23895267
vt 0.5726859 0.21683675
vt 0.68984646 0.25510234
vt 0.726222 0.29869297
vt 0.57232064 0.23933555
vt 0.6732787 0.29529676
vt 0.6678995 0.28284684
vt 0.6696553 0.29395097
vt 0.5921202 0.2826398
vt 0.5906524 0.29380944
vt 0.6903083 0.3129475
vt 0.57217425 0.25317085
vt 0.7123136 0.31355307
vt 0.57249504 0.2958449
vt 0.6940279 0.37772807
vt 0.7116787 0.36426997
vt 0.68999267 0.37763032
vt 0.5360831 0.24157178
vt 0.5367293 0.21767053
vt 0.55375725 0.3176884
vt 0.5718739 0.3030916
vt 0.5369864 0.34512228
vt 0.55189383 0.33031827
vt 0.5464071 0.3449152
vt 0.5271801 0.23422149
vt 0.5451583 0.2079547
vt 0.5727099 0.1512296
vt 0.54518586 0.1512296
vt 0.46565259 0.23137054
vt 0.46558347 0.23484263
vt 0.45365605 0.2210064
vt 0.453656 0.2182112
vn -0 -1 0
vn -0 -1 0
vn -0 -1 0
vn -0 -1 0
vn -0 -1 0
vn -0 -1 0
vn -0 -1 0
vn -0 -1 0
vn -0 -1 0
vn -0 -1 0
vn -0 -1 0
vn -0 -1 0
vn -0 -1 0
vn -0 -1 0
vn -0 -1 0
vn -0 -1 0
vn -0 -1 0
vn -0 -1 0
vn -0 -1 0
vn -0 -1 0
vn -0 -1 0
vn -0 -1 0
vn -0 -1 0
vn -0 -1 0
vn -0 -1 0
vn -0 -1 0
vn -0 -1 0
vn -0 -1 0
vn -0 -1 0
vn -0 -1 0
vn -0 -1 0
vn -0 -1 0
vn -0 -1 0
vn -0 -1 0
vn -0 -1 0
vn -0 -1 0
vn -0 -1 0
vn -0 -1 0
vn -0 -1 0
vn -0 -1 0
vn -0 -1 0
vn -0 -1 0
vn -0 -1 0
vn -1 0 -0.00019483903
vn -1 0 -0.00019483906
vn -1 0 -0.00019483904
vn -1 0 -0.00019483906
vn -0 0 -1
vn -0 0 -1
vn -0 0 -1
vn -0 0 -1
vn 1 0 0.00010896781
vn 1 0 0.00010896781
vn 1 0 0.000108967804
vn 1 0 0.00010896781
vn -1 0 -0.00031756598
vn -1 0 -0.00031756595
vn -1 0 -0.00031756598
vn -1 0 -0.00031756595
vn -1 0 -0.00031761592
vn -1 0 -0.00031761592
vn -0 0 -1
vn -0 0 -1
vn -0 0 -1
vn -0 0 -1
vn 1 0 0.0002642643
vn 1 0 0.0002642643
vn 1 0 0.00026426432
vn 1 0 0.00026426432
vn 1 0 -0.00017340817
vn 1 0 -0.00017340819
vn 0.9998023 0 0.019885732
vn 0.9998023 0 0.019885732
vn 0.8281391 0 -0.56052256
vn 0.8281391 0 -0.56052256
vn 0.8281391 0 -0.56052256
vn 0.8281391 0 -0.56052256
vn 0.0027321852 0 -0.9999963
vn 0.0027321852 0 -0.9999963
vn 0.0027321852 0 -0.9999963
vn 0.0027321852 0 -0.9999963
vn -0.7842848 0 -0.620401
vn -0.7842848 0 -0.62040097
vn -0.78428483 0 -0.62040097
vn -0.7842848 0 -0.62040097
vn -0.99981517 0 -0.019227648
vn -0.99981517 0 -0.019227648
vn -0.99981517 0 -0.019227648
vn -0.99981517 0 -0.019227648
vn 0.0032496084 0 0.99999475
vn 0.0032496084 0 0.99999475
vn 0.0032496084 0 0.99999475
vn 0.0032496084 0 0.99999475
vn -0.63665366 0 0.7711498
vn -0.63665366 0 0.7711498
vn -0.63665366 0 0.7711498
vn -0.63665366 0 0.7711498
vn 0.010083745 0 0.9999492
vn 0.010083745 0 0.9999492
vn 0.010083745 0 0.9999492
vn 0.010083745 0 0.9999492
vn -0.9998017 0 -0.019914156
vn -0.9998017 0 -0.019914156
vn -0.9998017 0 -0.019914156
vn -0.9998017 0 -0.019914156
vn -0.65374655 0 0.75671357
vn -0.65374655 0 0.75671357
vn -0.6537465 0 0.75671357
vn -0.65374655 0 0.75671357
vn -1 0 0
vn -1 0 0
vn -1 0 0
vn -1 0 0
vn -0.006508414 0 -0.9999789
vn -0.006508414 0 -0.9999789
vn -0.0065084146 0 -0.9999789
vn -0.0065084146 0 -0.9999789
vn -0.7526616 0 -0.65840757
vn -0.7526616 0 -0.6584076
vn -0.7526616 0 -0.6584076
vn -0.75266147 0 -0.65840757
vn -1 0 -7.551587E-05
vn -1 0 -7.551587E-05
vn -1 0 -7.551587E-05
vn -1 0 -7.551587E-05
vn 1 0 2.9713587E-05
vn 1 0 2.9713587E-05
vn 1 0 2.9713587E-05
vn 1 0 2.9713587E-05
vn 0.0036939825 0 -0.9999932
vn 0.0036939825 0 -0.9999932
vn 0.0036939825 0 -0.9999932
vn 0.0036939825 0 -0.9999932
vn -0.7429847 0 -0.66930836
vn -0.7429847 0 -0.6693084
vn -0.7429847 0 -0.66930836
vn -0.7429847 0 -0.66930836
vn 0.7301 0 0.68334025
vn 0.73010004 0 0.68334025
vn 0.7301 0 0.6833403
vn 0.7301 0 0.68334025
vn 0.9999217 0 0.012517801
vn 0.9999217 0 0.012517801
vn 0.9999217 0 0.012517801
vn 0.9999217 0 0.012517801
vn 0.6063252 0 0.79521674
vn 0.6063252 0 0.79521674
vn 0.60632515 0 0.79521674
vn 0.60632527 0 0.79521674
vn -0.024208914 0 0.9997069
vn -0.024208914 0 0.9997069
vn -0.024208913 0 0.9997069
vn -0.024208913 0 0.9997069
vn -0.9999881 0 -0.00488039
vn -0.9999881 0 -0.00488039
vn -0.9999881 0 -0.0048803906
vn -0.9999881 0 -0.0048803897
vn -0.71965504 0 0.6943318
vn -0.71965504 0 0.6943318
vn -0.71965504 0 0.6943318
vn -0.71965504 0 0.6943317
vn -0.3481806 0 0.9374276
vn -0.3481806 0 0.9374276
vn -0.3481806 0 0.9374276
vn -0.3481806 0 0.9374276
vn -0.0017914268 0 0.99999845
vn -0.0017914268 0 0.99999845
vn -0.0017914266 0 0.99999845
vn -0.0017914267 0 0.99999845
vn 0.11140478 0 0.9937751
vn 0.11140478 0 0.9937751
vn 0.11140478 0 0.9937751
vn 0.11140478 0 0.9937751
vn 0.9963468 0 0.08539925
vn 0.9963468 0 0.085399255
vn 0.9963468 0 0.085399255
vn 0.9963468 0 0.085399255
vn 0.62740463 0 0.7786933
vn 0.6274047 0 0.77869344
vn 0.6274047 0 0.77869344
vn 0.6274047 0 0.77869344
vn 0.9892903 0 0.14596114
vn 0.9892903 0 0.14596114
vn 0.9892903 0 0.14596114
vn 0.9892903 0 0.14596114
vn 0.93605715 0 0.3518481
vn 0.93605715 0 0.3518481
vn 0.93605715 0 0.3518481
vn 0.93605715 0 0.3518481
vn 0.021974912 0 0.99975854
vn 0.02197491 0 0.99975854
vn 0.021974912 0 0.99975854
vn 0.021974912 0 0.99975854
vn -0.999962 0 0.008722541
vn -0.999962 0 0.008722541
vn -0.999962 0 0.008722541
vn -0.999962 0 0.008722541
vn 0.9999441 0 0.010581636
vn 0.9999441 0 0.010581636
vn 0.9999441 0 0.010581636
vn 0.9999441 0 0.010581635
vn -0 1 0
vn -0 1 0
vn -0 1 0
vn -0 1 0
vn -0 1 0
vn -0 1 0
vn -0 1 0
vn -0 1 0
vn -0 1 0
vn -0 1 0
vn -0 1 0
vn -0 1 0
vn -0 1 0
vn -0 1 0
vn -0 1 0
vn -0 1 0
vn -0 1 0
vn -0 1 0
vn -0 1 0
vn -0 1 0
vn -0 1 0
vn -0 1 0
vn -0 1 0
vn -0 1 0
vn -0 1 0
vn -0 1 0
vn -0 1 0
vn -0 1 0
vn -0 1 0
vn -0 1 0
vn -0 1 0
vn -0 1 0
vn -0 1 0
vn -0 1 0
vn -0 1 0
vn -0 1 0
vn -0 1 0
vn -0 1 0
vn -0 1 0
vn -0 1 0
vn -0 1 0
vn -0 1 0
vn -0 1 0
g mbg002_rock_30_0
f 3/3/3 2/2/2 1/1/1
f 4/4/4 3/3/3 1/1/1
f 7/7/7 6/6/6 5/5/5
f 6/6/6 8/8/8 5/5/5
f 8/8/8 6/6/6 9/9/9
f 6/6/6 10/10/10 9/9/9
f 11/11/11 9/9/9 10/10/10
f 11/11/11 10/10/10 12/12/12
f 13/13/13 11/11/11 12/12/12
f 12/12/12 10/10/10 14/14/14
f 10/10/10 15/15/15 14/14/14
f 16/16/16 13/13/13 12/12/12
f 15/15/15 17/17/17 14/14/14
f 17/17/17 18/18/18 14/14/14
f 17/17/17 19/19/19 18/18/18
f 18/18/18 19/19/19 20/20/20
f 19/19/19 21/21/21 20/20/20
f 22/22/22 17/17/17 15/15/15
f 20/20/20 21/21/21 23/23/23
f 24/24/24 22/22/22 15/15/15
f 21/21/21 25/25/25 23/23/23
f 26/26/26 22/22/22 24/24/24
f 27/27/27 26/26/26 24/24/24
f 28/28/28 22/22/22 26/26/26
f 29/29/29 16/16/16 23/23/23
f 25/25/25 29/29/29 23/23/23
f 29/29/29 30/30/30 16/16/16
f 13/13/13 16/16/16 30/30/30
f 31/31/31 29/29/29 25/25/25
f 32/32/32 31/31/31 25/25/25
f 33/33/33 29/29/29 31/31/31
f 33/33/33 31/31/31 34/34/34
f 35/35/35 33/33/33 34/34/34
f 36/36/36 30/30/30 29/29/29
f 37/37/37 13/13/13 30/30/30
f 38/38/38 13/13/13 37/37/37
f 39/39/39 38/38/38 37/37/37
f 30/30/30 36/36/36 40/40/40
f 41/41/41 40/40/40 36/36/36
f 42/42/42 30/30/30 40/40/40
f 43/43/43 30/30/30 42/42/42
f 46/46/46 45/45/45 44/44/44
f 47/47/47 46/46/46 44/44/44
f 50/50/50 49/49/49 48/48/48
f 51/51/51 50/50/50 48/48/48
f 54/54/54 53/53/53 52/52/52
f 55/55/55 54/54/54 52/52/52
f 58/58/58 57/57/57 56/56/56
f 59/59/59 58/58/58 56/56/56
f 60/60/60 58/58/58 59/59/59
f 61/61/61 60/60/60 59/59/59
f 64/64/64 63/63/63 62/62/62
f 65/65/65 64/64/64 62/62/62
f 68/68/68 67/67/67 66/66/66
f 67/67/67 69/69/69 66/66/66
f 66/66/66 69/69/69 70/70/70
f 69/69/69 71/71/71 70/70/70
f 70/70/70 71/71/71 72/72/72
f 71/71/71 73/73/73 72/72/72
f 76/76/76 75/75/75 74/74/74
f 77/77/77 76/76/76 74/74/74
f 80/80/80 79/79/79 78/78/78
f 81/81/81 80/80/80 78/78/78
f 84/84/84 83/83/83 82/82/82
f 85/85/85 84/84/84 82/82/82
f 88/88/88 87/87/87 86/86/86
f 89/89/89 88/88/88 86/86/86
f 92/92/92 91/91/91 90/90/90
f 93/93/93 92/92/92 90/90/90
f 96/96/96 95/95/95 94/94/94
f 97/97/97 96/96/96 94/94/94
f 100/100/100 99/99/99 98/98/98
f 101/101/101 100/100/100 98/98/98
f 104/104/104 103/103/103 102/102/102
f 105/105/105 104/104/104 102/102/102
f 108/108/108 107/107/107 106/106/106
f 109/109/109 108/108/108 106/106/106
f 112/112/112 111/111/111 110/110/110
f 113/113/113 112/112/112 110/110/110
f 116/116/116 115/115/115 114/114/114
f 117/117/117 116/116/116 114/114/114
f 120/120/120 119/119/119 118/118/118
f 121/121/121 120/120/120 118/118/118
f 124/124/124 123/123/123 122/122/122
f 125/125/125 124/124/124 122/122/122
f 128/128/128 127/127/127 126/126/126
f 129/129/129 128/128/128 126/126/126
f 132/132/132 131/131/131 130/130/130
f 133/133/133 132/132/132 130/130/130
f 136/136/136 135/135/135 134/134/134
f 137/137/137 136/136/136 134/134/134
f 140/140/140 139/139/139 138/138/138
f 141/141/141 140/140/140 138/138/138
f 144/144/144 143/143/143 142/142/142
f 145/145/145 144/144/144 142/142/142
f 148/148/148 147/147/147 146/146/146
f 149/149/149 148/148/148 146/146/146
f 152/152/152 151/151/151 150/150/150
f 153/153/153 152/152/152 150/150/150
f 156/156/156 155/155/155 154/154/154
f 157/157/157 156/156/156 154/154/154
f 160/160/160 159/159/159 158/158/158
f 161/161/161 160/160/160 158/158/158
f 164/164/164 163/163/163 162/162/162
f 165/165/165 164/164/164 162/162/162
f 168/168/168 167/167/167 166/166/166
f 169/169/169 168/168/168 166/166/166
f 172/172/172 171/171/171 170/170/170
f 173/173/173 172/172/172 170/170/170
f 176/176/176 175/175/175 174/174/174
f 177/177/177 176/176/176 174/174/174
f 180/180/180 179/179/179 178/178/178
f 181/181/181 180/180/180 178/178/178
f 184/184/184 183/183/183 182/182/182
f 185/185/185 184/184/184 182/182/182
f 188/188/188 187/187/187 186/186/186
f 189/189/189 188/188/188 186/186/186
f 192/192/192 191/191/191 190/190/190
f 193/193/193 192/192/192 190/190/190
f 196/196/196 195/195/195 194/194/194
f 197/197/197 196/196/196 194/194/194
f 200/200/200 199/199/199 198/198/198
f 201/201/201 200/200/200 198/198/198
f 204/204/204 203/203/203 202/202/202
f 205/205/205 204/204/204 202/202/202
f 208/208/208 207/207/207 206/206/206
f 207/207/207 209/209/209 206/206/206
f 206/206/206 209/209/209 210/210/210
f 211/211/211 206/206/206 210/210/210
f 210/210/210 212/212/212 211/211/211
f 211/211/211 212/212/212 213/213/213
f 212/212/212 214/214/214 213/213/213
f 211/211/211 213/213/213 215/215/215
f 216/216/216 211/211/211 215/215/215
f 214/214/214 217/217/217 213/213/213
f 216/216/216 215/215/215 218/218/218
f 215/215/215 219/219/219 218/218/218
f 220/220/220 218/218/218 219/219/219
f 220/220/220 219/219/219 221/221/221
f 222/222/222 220/220/220 221/221/221
f 218/218/218 223/223/223 216/216/216
f 222/222/222 221/221/221 224/224/224
f 223/223/223 225/225/225 216/216/216
f 226/226/226 222/222/222 224/224/224
f 223/223/223 227/227/227 225/225/225
f 227/227/227 228/228/228 225/225/225
f 223/223/223 229/229/229 227/227/227
f 217/217/217 230/230/230 224/224/224
f 230/230/230 226/226/226 224/224/224
f 231/231/231 230/230/230 217/217/217
f 231/231/231 217/217/217 214/214/214
f 230/230/230 232/232/232 226/226/226
f 232/232/232 233/233/233 226/226/226
f 230/230/230 234/234/234 232/232/232
f 235/235/235 232/232/232 234/234/234
f 236/236/236 235/235/235 234/234/234
f 231/231/231 237/237/237 230/230/230
f 238/238/238 231/231/231 214/214/214
f 214/214/214 239/239/239 238/238/238
f 239/239/239 240/240/240 238/238/238
f 241/241/241 237/237/237 231/231/231
f 241/241/241 242/242/242 237/237/237
f 243/243/243 241/241/241 231/231/231
f 231/231/231 244/244/244 243/243/243
