g mbg002_rock_46
v -4.233241 -0.38192925 4.3123865
v -4.2688484 -5.662441E-07 4.360156
v -4.488822 -8.34465E-07 6.5610056
v -4.451108 -0.38192955 6.4921446
v -3.7713442 -1.2814999E-06 7.6076326
v -3.7350779 -0.381929 1.3527784
v -3.7658644 -2.682209E-07 1.371913
v -3.740508 -0.38192996 7.5287447
v 0.62227297 -2.9802322E-06 7.6076326
v 0.6110101 -0.3819317 7.5287447
v 2.3235042 -3.3974648E-06 6.139392
v -3.848238 -1.2223004 6.0637484
v -3.7549944 -1.3370287 4.6858397
v 2.29594 -0.3819321 6.0745726
v 3.068663 -2.9802322E-06 1.7713432
v -0.41348314 -1.7142463 4.3588705
v 1.621671 -1.7122416 5.18522
v 2.0832484 -1.7573531 4.4432
v 3.0339582 -0.3819317 1.7483816
v 4.0894036 -3.0398369E-06 -0.29972076
v -2.8329334 -1.3370289 3.3597279
v 2.6048234 -2.0503035 1.2714796
v 1.0813401 -2.0503025 -0.8494463
v 3.5915866 -2.0503037 -0.44830132
v 4.044917 -0.38193175 -0.30283833
v 4.488821 -2.771616E-06 -2.9625254
v 4.440507 -0.38193145 -2.9401255
v 3.4828744 -2.0861626E-06 -4.767311
v 3.7959871 -2.0503035 -1.5266867
v 3.62683 -2.0503032 -2.7037506
v 3.4442005 -0.3819308 -4.727618
v 1.7964349 -1.2814999E-06 -5.743672
v 1.6815121 -2.0503023 -3.7750921
v 1.7739208 -0.38192996 -5.6946225
v 0.672142 -8.940697E-07 -5.314665
v 0.66040087 -0.3819296 -5.269727
v -0.5409117 -1.1920929E-07 -7.1934175
v -0.5410285 -0.38192883 -7.130477
v -1.7095838 3.874302E-07 -7.607631
v -1.6985025 -0.38192835 -7.540721
v -3.7510653 9.536743E-07 -6.054332
v -3.72042 -0.38192782 -6.002306
v -4.00255 7.1525574E-07 -3.9684725
v -3.9694958 -0.38192806 -3.9364347
v -3.6475153 2.682209E-07 -2.1341
v -2.117497 -1.3370279 -4.592696
v -1.0179663 -1.3370283 -4.6349854
v 0.49740744 -1.337029 -4.0288315
v -1.5375338 -1.3370286 -1.2173014
v -2.4910502 -1.337028 -2.894065
v -3.6178627 -0.38192847 -2.1196394
v 0.9907818 -1.3370292 -3.627079
v -3.111287 -1.3370279 -2.1892424
v -3.209962 -1.3370281 -0.65976715
v -3.118329 -1.3370285 1.4829044
v -0.064445496 -1.3370292 -1.2384462
v 1.0280399 -1.3370295 -2.626958
v 0.47827435 -1.3370295 -1.2877865
v 0.11446667 -2.0503023 -0.8245249
v -2.2987518 -1.3370287 0.71393013
v -1.2810197 -2.0503018 -0.49060535
v -1.9388962 -2.0503018 0.95471954
v -2.2967405 -1.337029 2.1413221
v -1.9737873 -1.8800585 2.2405596
v -2.4130373 -1.337029 2.4725904
v -2.173142 -1.790407 2.5645084
v -2.193852 -1.5520372 3.719387
v -4.233241 0.38192815 4.3123865
v -4.488822 -8.34465E-07 6.5610056
v -4.2688484 -5.662441E-07 4.360156
v -4.451108 0.38192788 6.4921446
v -3.7713442 -1.2814999E-06 7.6076326
v -3.7350779 0.38192844 1.3527784
v -3.7658644 -2.682209E-07 1.371913
v -3.740508 0.38192743 7.5287447
v 0.62227297 -2.9802322E-06 7.6076326
v 0.61101055 0.38192573 7.5287447
v 2.3235042 -3.3974648E-06 6.139392
v -3.848237 1.2222984 6.0637484
v -3.7549934 1.3370272 4.6858397
v 2.2959402 0.3819253 6.0745726
v 3.068663 -2.9802322E-06 1.7713432
v -0.4134817 1.7142421 4.3588705
v 1.6216722 1.7122359 5.18522
v 2.0832496 1.7573471 4.4432
v 3.0339584 0.38192573 1.7483816
v 4.0894036 -3.0398369E-06 -0.29972076
v -2.8329325 1.3370271 3.3597279
v 2.604825 2.0502977 1.2714796
v 1.0813417 2.0502987 -0.8494463
v 3.591588 2.0502977 -0.44830132
v 4.0449176 0.38192567 -0.30283833
v 4.488821 -2.771616E-06 -2.9625254
v 4.4405074 0.38192597 -2.9401255
v 3.4828744 -2.0861626E-06 -4.767311
v 3.7959886 2.0502977 -1.5266867
v 3.6268318 2.050298 -2.7037506
v 3.4442008 0.38192663 -4.727618
v 1.7964349 -1.2814999E-06 -5.743672
v 1.6815138 2.050299 -3.7750921
v 1.773921 0.38192743 -5.6946225
v 0.672142 -8.940697E-07 -5.314665
v 0.66040134 0.38192782 -5.269727
v -0.5409117 -1.1920929E-07 -7.1934175
v -0.541028 0.3819286 -7.130477
v -1.7095838 3.874302E-07 -7.607631
v -1.6985021 0.3819291 -7.540721
v -3.7510653 9.536743E-07 -6.054332
v -3.72042 0.38192964 -6.002306
v -4.00255 7.1525574E-07 -3.9684725
v -3.9694958 0.3819294 -3.9364347
v -3.6475153 2.682209E-07 -2.1341
v -2.117496 1.337028 -4.5926957
v -1.0179653 1.3370277 -4.634985
v 0.4974084 1.337027 -4.0288315
v -1.5375328 1.3370273 -1.2173014
v -2.4910493 1.3370279 -2.894065
v -3.6178627 0.38192895 -2.1196394
v 0.99078274 1.3370267 -3.627079
v -3.1112862 1.337028 -2.1892424
v -3.209961 1.3370279 -0.65976715
v -3.118328 1.3370274 1.4829044
v -0.06444454 1.3370267 -1.2384462
v 1.0280409 1.3370265 -2.626958
v 0.4782753 1.3370265 -1.2877865
v 0.1144681 2.0502992 -0.8245249
v -2.2987509 1.3370273 0.71393013
v -1.2810183 2.0502996 -0.49060535
v -1.9388947 2.0502996 0.95471954
v -2.2967396 1.3370271 2.1413221
v -1.9737859 1.8800566 2.2405596
v -2.4130363 1.3370271 2.4725904
v -2.1731405 1.7904048 2.5645084
v -2.1938505 1.5520347 3.719387
vt 0.26424712 0.91852564
vt 0.25928488 0.9179872
vt 0.25394505 0.9771174
vt 0.25872827 0.97374165
vt 0.274874 1.0045025
vt 0.27686617 0.84355515
vt 0.27312088 0.8432408
vt 0.2767287 1
vt 0.3882981 1.0045477
vt 0.386958 1
vt 0.43298295 0.96751994
vt 0.27399978 0.9628899
vt 0.27636173 0.92798567
vt 0.42963934 0.963164
vt 0.4504447 0.8551349
vt 0.36098155 0.9197935
vt 0.41255933 0.94063556
vt 0.42425162 0.92183936
vt 0.44833428 0.85357624
vt 0.47700477 0.80252546
vt 0.29971865 0.8943937
vt 0.43746376 0.84149575
vt 0.39887205 0.78777003
vt 0.4624597 0.79793155
vt 0.4739431 0.80161625
vt 0.48700556 0.73361605
vt 0.48396388 0.7348105
vt 0.46110937 0.6862595
vt 0.46763742 0.7706146
vt 0.46335244 0.7407981
vt 0.45872617 0.6895311
vt 0.41682214 0.6614916
vt 0.41407508 0.7136598
vt 0.41641593 0.6650357
vt 0.38924024 0.67150825
vt 0.38820907 0.6757989
vt 0.35906404 0.6247369
vt 0.3577754 0.6286638
vt 0.32780975 0.613558
vt 0.32845515 0.6182719
vt 0.27326956 0.6532966
vt 0.27723747 0.6572418
vt 0.26681617 0.7070834
vt 0.27092808 0.7095729
vt 0.27613565 0.7560886
vt 0.3178415 0.69294894
vt 0.34569395 0.6918777
vt 0.3840803 0.70723236
vt 0.33253267 0.7784519
vt 0.30837893 0.7359774
vt 0.27983534 0.75559455
vt 0.39657807 0.71740925
vt 0.2926676 0.75383145
vt 0.29016802 0.79257494
vt 0.2924892 0.84685147
vt 0.36984783 0.7779163
vt 0.39752185 0.7427435
vt 0.38359562 0.7766664
vt 0.37437993 0.78840137
vt 0.31325012 0.82737243
vt 0.33903056 0.7968599
vt 0.32236573 0.83347183
vt 0.3133011 0.86353
vt 0.3214819 0.8660437
vt 0.31035516 0.8719214
vt 0.316432 0.8742498
vt 0.31641713 0.903384
vt 0.26424712 0.91852564
vt 0.25394505 0.9771174
vt 0.25928488 0.9179872
vt 0.25872827 0.97374165
vt 0.274874 1.0045025
vt 0.27686617 0.84355515
vt 0.27312088 0.8432408
vt 0.2767287 1
vt 0.3882981 1.0045477
vt 0.386958 1
vt 0.43298295 0.96751994
vt 0.27399978 0.9628899
vt 0.27636173 0.92798567
vt 0.42963934 0.963164
vt 0.4504447 0.8551349
vt 0.36098155 0.9197935
vt 0.41255933 0.94063556
vt 0.42425162 0.92183936
vt 0.44833428 0.85357624
vt 0.47700477 0.80252546
vt 0.29971865 0.8943937
vt 0.43746376 0.84149575
vt 0.39887205 0.78777003
vt 0.4624597 0.79793155
vt 0.4739431 0.80161625
vt 0.48700556 0.73361605
vt 0.48396388 0.7348105
vt 0.46110937 0.6862595
vt 0.46763742 0.7706146
vt 0.46335244 0.7407981
vt 0.45872617 0.6895311
vt 0.41682214 0.6614916
vt 0.41407508 0.7136598
vt 0.41641593 0.6650357
vt 0.38924024 0.67150825
vt 0.38820907 0.6757989
vt 0.35906404 0.6247369
vt 0.3577754 0.6286638
vt 0.32780975 0.613558
vt 0.32845515 0.6182719
vt 0.27326956 0.6532966
vt 0.27723747 0.6572418
vt 0.26681617 0.7070834
vt 0.27092808 0.7095729
vt 0.27613565 0.7560886
vt 0.3178415 0.69294894
vt 0.34569395 0.6918777
vt 0.3840803 0.70723236
vt 0.33253267 0.7784519
vt 0.30837893 0.7359774
vt 0.27983534 0.75559455
vt 0.39657807 0.71740925
vt 0.2926676 0.75383145
vt 0.29016802 0.79257494
vt 0.2924892 0.84685147
vt 0.36984783 0.7779163
vt 0.39752185 0.7427435
vt 0.38359562 0.7766664
vt 0.37437993 0.78840137
vt 0.31325012 0.82737243
vt 0.33903056 0.7968599
vt 0.32236573 0.83347183
vt 0.3133011 0.86353
vt 0.3214819 0.8660437
vt 0.31035516 0.8719214
vt 0.316432 0.8742498
vt 0.31641713 0.903384
vn -0.91516256 -0.36098328 -0.17935553
vn -0.99152195 0 -0.12993938
vn -0.9606347 0 0.2778147
vn -0.89851403 -0.37330312 0.23090535
vn -0.46030957 0 0.88775855
vn -0.9376044 -0.34556928 -0.03846793
vn -0.9947307 0 -0.102522135
vn -0.3775599 -0.5254778 0.7624445
vn 0.34004134 0 0.94041044
vn 0.27340588 -0.5254238 0.80571645
vn 0.8594268 0 0.51125884
vn -0.46762428 -0.8529452 0.23197417
vn -0.5552936 -0.81907195 -0.14411864
vn 0.802247 -0.3535813 0.48101988
vn 0.9521059 0 0.30576858
vn -0.05844335 -0.9920345 0.11158819
vn 0.28449205 -0.887041 0.36362422
vn 0.56036896 -0.80366665 0.2002661
vn 0.9287792 -0.21229233 0.30381113
vn 0.955095 0 0.29629996
vn -0.41564882 -0.89882827 -0.13908195
vn 0.47799367 -0.8522528 0.21257271
vn -0.17019424 -0.9713686 -0.165762
vn 0.5971481 -0.7742635 0.20959486
vn 0.9320711 -0.19798483 0.30338997
vn 0.98262846 0 -0.18558319
vn 0.9451866 -0.2638385 -0.19238386
vn 0.71250063 0 -0.70167136
vn 0.61967665 -0.78329194 0.049544048
vn 0.50307953 -0.82572037 -0.25514084
vn 0.6267696 -0.40093744 -0.6681385
vn 0.092492215 0 -0.9957135
vn -0.18927379 -0.90084887 -0.39070037
vn 0.008750568 -0.45201787 -0.8919659
vn 0.3142281 0 -0.9493475
vn 0.27370596 -0.5874178 -0.761594
vn 0.6044877 0 -0.7966145
vn 0.50217754 -0.55340743 -0.66449827
vn -0.15473112 0 -0.9879566
vn -0.12017332 -0.578856 -0.80652595
vn -0.85848963 0 -0.51283085
vn -0.72954 -0.5431658 -0.41562286
vn -0.9996308 0 0.027172849
vn -0.86148626 -0.5075571 0.015069149
vn -0.9966509 0 0.081774615
vn -0.20455946 -0.9671631 -0.15083438
vn 0.042711947 -0.9816705 -0.18573828
vn 0.22282828 -0.9381348 -0.26504824
vn -0.15135111 -0.9638336 -0.21935734
vn -0.2765155 -0.95885676 -0.06428778
vn -0.9356773 -0.35277528 -0.00759105
vn -0.29120833 -0.9284637 -0.23054914
vn -0.5539375 -0.78849715 -0.26725566
vn -0.53401977 -0.8453381 -0.015047899
vn -0.4936508 -0.8681709 0.050874297
vn -0.01481413 -0.86528754 -0.5010569
vn -0.49550343 -0.86370164 -0.09217302
vn -0.2379666 -0.86331433 -0.44503948
vn -0.022219956 -0.8867856 -0.46164668
vn -0.434154 -0.89563835 -0.096655264
vn -0.3370674 -0.8891128 -0.3096194
vn -0.49783877 -0.86591375 -0.048475806
vn -0.5273499 -0.8453278 -0.08557418
vn -0.43268353 -0.90147567 0.011246364
vn -0.4410122 -0.89328045 -0.08693809
vn -0.6126076 -0.7903762 0.0041612918
vn -0.22064783 -0.9746413 0.037267532
vn -0.91516244 0.3609837 -0.17935543
vn -0.9606347 0 0.2778147
vn -0.99152195 0 -0.12993938
vn -0.898514 0.3733035 0.23090547
vn -0.46030957 0 0.88775855
vn -0.9376043 0.34556976 -0.03846782
vn -0.9947307 0 -0.102522135
vn -0.37755966 0.5254779 0.76244456
vn 0.34004134 0 0.94041044
vn 0.27340633 0.5254236 0.8057165
vn 0.8594268 0 0.51125884
vn -0.46762338 0.8529457 0.2319744
vn -0.5552929 0.8190724 -0.14411835
vn 0.8022472 0.35358062 0.48101988
vn 0.9521059 0 0.30576858
vn -0.058442596 0.9920345 0.111588426
vn 0.2844927 0.8870408 0.36362436
vn 0.56036955 0.80366623 0.20026627
vn 0.92877936 0.2122916 0.30381116
vn 0.955095 0 0.29629996
vn -0.41564798 0.8988287 -0.13908164
vn 0.47799426 0.8522524 0.21257295
vn -0.17019346 0.97136873 -0.16576168
vn 0.59714866 0.7742631 0.20959507
vn 0.93207127 0.19798401 0.30339006
vn 0.98262846 0 -0.18558319
vn 0.94518685 0.26383772 -0.19238383
vn 0.71250063 0 -0.70167136
vn 0.619677 0.7832916 0.049544327
vn 0.5030801 0.8257201 -0.25514057
vn 0.62676984 0.40093702 -0.6681384
vn 0.092492215 0 -0.9957135
vn -0.18927291 0.9008491 -0.3907001
vn 0.008750915 0.452018 -0.89196587
vn 0.3142281 0 -0.9493475
vn 0.27370635 0.5874176 -0.7615939
vn 0.6044877 0 -0.7966145
vn 0.5021781 0.5534071 -0.66449815
vn -0.15473112 0 -0.9879566
vn -0.12017275 0.5788561 -0.8065259
vn -0.85848963 0 -0.51283085
vn -0.72953975 0.5431662 -0.41562274
vn -0.9996308 0 0.027172849
vn -0.8614861 0.5075575 0.015069283
vn -0.9966509 0 0.081774615
vn -0.20455873 0.9671633 -0.15083402
vn 0.042712644 0.9816705 -0.18573794
vn 0.22282904 0.9381347 -0.26504797
vn -0.14613193 0.9633389 -0.22499676
vn -0.27651477 0.95885694 -0.06428749
vn -0.9356772 0.35277566 -0.007590917
vn -0.29120746 0.928464 -0.23054884
vn -0.5539369 0.78849757 -0.2672554
vn -0.53401905 0.8453385 -0.015047622
vn -0.49365002 0.86817133 0.050874554
vn -0.04068176 0.8883114 -0.4574362
vn -0.49550256 0.8637022 -0.09217267
vn -0.23796585 0.8633146 -0.4450393
vn -0.028195346 0.89221805 -0.45072398
vn -0.44246683 0.89219385 -0.09062776
vn -0.30261436 0.887232 -0.3482009
vn -0.5005402 0.86452454 -0.045352362
vn -0.5307897 0.84281504 -0.089023136
vn -0.4402403 0.89786845 0.00454424
vn -0.4410115 0.8932809 -0.08693774
vn -0.6126071 0.79037654 0.004161795
vn -0.22064698 0.9746415 0.037267897
g mbg002_rock_46_0
f 3/3/3 2/2/2 1/1/1
f 4/4/4 3/3/3 1/1/1
f 5/5/5 3/3/3 4/4/4
f 1/1/1 2/2/2 6/6/6
f 2/2/2 7/7/7 6/6/6
f 8/8/8 5/5/5 4/4/4
f 9/9/9 5/5/5 8/8/8
f 10/10/10 9/9/9 8/8/8
f 11/11/11 9/9/9 10/10/10
f 8/8/8 4/4/4 12/12/12
f 8/8/8 12/12/12 10/10/10
f 1/1/1 13/13/13 4/4/4
f 13/13/13 12/12/12 4/4/4
f 14/14/14 11/11/11 10/10/10
f 15/15/15 11/11/11 14/14/14
f 16/16/16 12/12/12 13/13/13
f 17/17/17 12/12/12 16/16/16
f 10/10/10 12/12/12 17/17/17
f 14/14/14 10/10/10 17/17/17
f 17/17/17 16/16/16 18/18/18
f 18/18/18 14/14/14 17/17/17
f 19/19/19 15/15/15 14/14/14
f 19/19/19 14/14/14 18/18/18
f 20/20/20 15/15/15 19/19/19
f 13/13/13 1/1/1 21/21/21
f 1/1/1 6/6/6 21/21/21
f 22/22/22 19/19/19 18/18/18
f 18/18/18 16/16/16 22/22/22
f 22/22/22 16/16/16 23/23/23
f 24/24/24 22/22/22 23/23/23
f 25/25/25 20/20/20 19/19/19
f 25/25/25 19/19/19 22/22/22
f 24/24/24 25/25/25 22/22/22
f 26/26/26 20/20/20 25/25/25
f 27/27/27 26/26/26 25/25/25
f 28/28/28 26/26/26 27/27/27
f 29/29/29 25/25/25 24/24/24
f 27/27/27 25/25/25 29/29/29
f 29/29/29 24/24/24 30/30/30
f 30/30/30 27/27/27 29/29/29
f 30/30/30 24/24/24 23/23/23
f 31/31/31 28/28/28 27/27/27
f 31/31/31 27/27/27 30/30/30
f 32/32/32 28/28/28 31/31/31
f 31/31/31 30/30/30 33/33/33
f 33/33/33 30/30/30 23/23/23
f 34/34/34 32/32/32 31/31/31
f 34/34/34 31/31/31 33/33/33
f 35/35/35 32/32/32 34/34/34
f 36/36/36 35/35/35 34/34/34
f 36/36/36 34/34/34 33/33/33
f 37/37/37 35/35/35 36/36/36
f 38/38/38 37/37/37 36/36/36
f 39/39/39 37/37/37 38/38/38
f 40/40/40 39/39/39 38/38/38
f 41/41/41 39/39/39 40/40/40
f 42/42/42 41/41/41 40/40/40
f 43/43/43 41/41/41 42/42/42
f 44/44/44 43/43/43 42/42/42
f 45/45/45 43/43/43 44/44/44
f 40/40/40 46/46/46 42/42/42
f 42/42/42 46/46/46 44/44/44
f 40/40/40 38/38/38 47/47/47
f 40/40/40 47/47/47 46/46/46
f 38/38/38 36/36/36 48/48/48
f 47/47/47 38/38/38 48/48/48
f 49/49/49 47/47/47 48/48/48
f 47/47/47 49/49/49 50/50/50
f 46/46/46 47/47/47 50/50/50
f 46/46/46 50/50/50 44/44/44
f 51/51/51 45/45/45 44/44/44
f 51/51/51 44/44/44 50/50/50
f 7/7/7 45/45/45 51/51/51
f 6/6/6 7/7/7 51/51/51
f 48/48/48 36/36/36 52/52/52
f 52/52/52 36/36/36 33/33/33
f 53/53/53 51/51/51 50/50/50
f 50/50/50 49/49/49 53/53/53
f 54/54/54 51/51/51 53/53/53
f 6/6/6 51/51/51 54/54/54
f 53/53/53 49/49/49 54/54/54
f 55/55/55 6/6/6 54/54/54
f 21/21/21 6/6/6 55/55/55
f 56/56/56 48/48/48 52/52/52
f 56/56/56 49/49/49 48/48/48
f 52/52/52 33/33/33 57/57/57
f 33/33/33 23/23/23 57/57/57
f 57/57/57 58/58/58 52/52/52
f 58/58/58 56/56/56 52/52/52
f 57/57/57 23/23/23 58/58/58
f 58/58/58 23/23/23 56/56/56
f 23/23/23 59/59/59 56/56/56
f 56/56/56 59/59/59 49/49/49
f 23/23/23 16/16/16 59/59/59
f 49/49/49 60/60/60 54/54/54
f 54/54/54 60/60/60 55/55/55
f 59/59/59 61/61/61 49/49/49
f 49/49/49 61/61/61 60/60/60
f 61/61/61 59/59/59 62/62/62
f 61/61/61 62/62/62 60/60/60
f 55/55/55 60/60/60 63/63/63
f 60/60/60 62/62/62 63/63/63
f 59/59/59 64/64/64 62/62/62
f 62/62/62 64/64/64 63/63/63
f 16/16/16 64/64/64 59/59/59
f 65/65/65 55/55/55 63/63/63
f 63/63/63 64/64/64 65/65/65
f 21/21/21 55/55/55 65/65/65
f 66/66/66 64/64/64 16/16/16
f 64/64/64 66/66/66 65/65/65
f 67/67/67 21/21/21 65/65/65
f 66/66/66 67/67/67 65/65/65
f 67/67/67 66/66/66 16/16/16
f 21/21/21 67/67/67 13/13/13
f 67/67/67 16/16/16 13/13/13
f 70/70/70 69/69/69 68/68/68
f 69/69/69 71/71/71 68/68/68
f 69/69/69 72/72/72 71/71/71
f 70/70/70 68/68/68 73/73/73
f 74/74/74 70/70/70 73/73/73
f 72/72/72 75/75/75 71/71/71
f 72/72/72 76/76/76 75/75/75
f 76/76/76 77/77/77 75/75/75
f 76/76/76 78/78/78 77/77/77
f 71/71/71 75/75/75 79/79/79
f 79/79/79 75/75/75 77/77/77
f 68/68/68 71/71/71 80/80/80
f 71/71/71 79/79/79 80/80/80
f 78/78/78 81/81/81 77/77/77
f 78/78/78 82/82/82 81/81/81
f 79/79/79 83/83/83 80/80/80
f 79/79/79 84/84/84 83/83/83
f 79/79/79 77/77/77 84/84/84
f 77/77/77 81/81/81 84/84/84
f 83/83/83 84/84/84 85/85/85
f 81/81/81 85/85/85 84/84/84
f 82/82/82 86/86/86 81/81/81
f 81/81/81 86/86/86 85/85/85
f 82/82/82 87/87/87 86/86/86
f 68/68/68 80/80/80 88/88/88
f 73/73/73 68/68/68 88/88/88
f 86/86/86 89/89/89 85/85/85
f 83/83/83 85/85/85 89/89/89
f 83/83/83 89/89/89 90/90/90
f 89/89/89 91/91/91 90/90/90
f 87/87/87 92/92/92 86/86/86
f 86/86/86 92/92/92 89/89/89
f 92/92/92 91/91/91 89/89/89
f 87/87/87 93/93/93 92/92/92
f 93/93/93 94/94/94 92/92/92
f 93/93/93 95/95/95 94/94/94
f 92/92/92 96/96/96 91/91/91
f 92/92/92 94/94/94 96/96/96
f 91/91/91 96/96/96 97/97/97
f 94/94/94 97/97/97 96/96/96
f 91/91/91 97/97/97 90/90/90
f 95/95/95 98/98/98 94/94/94
f 94/94/94 98/98/98 97/97/97
f 95/95/95 99/99/99 98/98/98
f 100/100/100 97/97/97 98/98/98
f 97/97/97 100/100/100 90/90/90
f 99/99/99 101/101/101 98/98/98
f 101/101/101 100/100/100 98/98/98
f 99/99/99 102/102/102 101/101/101
f 102/102/102 103/103/103 101/101/101
f 101/101/101 103/103/103 100/100/100
f 102/102/102 104/104/104 103/103/103
f 104/104/104 105/105/105 103/103/103
f 104/104/104 106/106/106 105/105/105
f 106/106/106 107/107/107 105/105/105
f 106/106/106 108/108/108 107/107/107
f 108/108/108 109/109/109 107/107/107
f 108/108/108 110/110/110 109/109/109
f 110/110/110 111/111/111 109/109/109
f 110/110/110 112/112/112 111/111/111
f 113/113/113 107/107/107 109/109/109
f 109/109/109 111/111/111 113/113/113
f 105/105/105 107/107/107 114/114/114
f 114/114/114 107/107/107 113/113/113
f 103/103/103 105/105/105 115/115/115
f 105/105/105 114/114/114 115/115/115
f 115/115/115 114/114/114 116/116/116
f 116/116/116 114/114/114 117/117/117
f 114/114/114 113/113/113 117/117/117
f 111/111/111 117/117/117 113/113/113
f 112/112/112 118/118/118 111/111/111
f 111/111/111 118/118/118 117/117/117
f 112/112/112 74/74/74 118/118/118
f 74/74/74 73/73/73 118/118/118
f 103/103/103 115/115/115 119/119/119
f 103/103/103 119/119/119 100/100/100
f 118/118/118 120/120/120 117/117/117
f 116/116/116 117/117/117 120/120/120
f 118/118/118 121/121/121 120/120/120
f 118/118/118 73/73/73 121/121/121
f 116/116/116 120/120/120 121/121/121
f 73/73/73 122/122/122 121/121/121
f 73/73/73 88/88/88 122/122/122
f 119/119/119 115/115/115 123/123/123
f 123/123/123 115/115/115 116/116/116
f 100/100/100 119/119/119 124/124/124
f 90/90/90 100/100/100 124/124/124
f 125/125/125 124/124/124 119/119/119
f 125/125/125 119/119/119 123/123/123
f 90/90/90 124/124/124 125/125/125
f 90/90/90 125/125/125 123/123/123
f 126/126/126 90/90/90 123/123/123
f 83/83/83 90/90/90 126/126/126
f 127/127/127 121/121/121 122/122/122
f 127/127/127 116/116/116 121/121/121
f 123/123/123 116/116/116 128/128/128
f 126/126/126 123/123/123 128/128/128
f 129/129/129 128/128/128 116/116/116
f 129/129/129 116/116/116 127/127/127
f 126/126/126 128/128/128 129/129/129
f 127/127/127 122/122/122 130/130/130
f 129/129/129 127/127/127 130/130/130
f 131/131/131 126/126/126 129/129/129
f 131/131/131 129/129/129 130/130/130
f 131/131/131 83/83/83 126/126/126
f 122/122/122 132/132/132 130/130/130
f 131/131/131 130/130/130 132/132/132
f 122/122/122 88/88/88 132/132/132
f 131/131/131 133/133/133 83/83/83
f 133/133/133 131/131/131 132/132/132
f 88/88/88 134/134/134 132/132/132
f 134/134/134 133/133/133 132/132/132
f 133/133/133 134/134/134 83/83/83
f 134/134/134 88/88/88 80/80/80
f 83/83/83 134/134/134 80/80/80
