g mbg002_rock_09
v -2.3695374 0.37717783 0.071793556
v -2.209468 -2.3841858E-07 2.5140944
v -2.4458723 1.4901161E-07 0.07126427
v -2.139802 0.37718725 2.4457207
v 0.08431625 -6.2584877E-07 4.924717
v 0.08928108 0.37721163 4.7883472
v 0.95900536 -6.2584877E-07 4.8616753
v -1.6230392 1.542485 2.249174
v 0.93930054 0.37720746 4.727084
v 1.4790926 -4.4703484E-07 3.7978668
v 1.4447193 0.37720442 3.6932812
v 2.1961823 -3.2782555E-07 3.041377
v 0.7355709 1.5424806 4.2631817
v 2.1415806 0.3772012 2.95813
v 2.4458752 1.7881393E-07 -0.07913685
v 0.14592075 1.5424829 4.3091288
v 1.1261206 1.542477 3.2906408
v 2.3842306 0.37719244 -0.074365616
v 2.266427 5.364418E-07 -2.308527
v 1.7464046 1.5424742 2.708644
v 2.2098436 0.37718618 -2.2408733
v 1.3996172 9.536743E-07 -4.7355957
v -1.6383619 1.5424657 0.15859127
v 1.9072161 1.5424657 -0.117093086
v 1.3674841 0.37717944 -4.5994835
v 0.28064346 9.834766E-07 -4.9247184
v -1.7149334 1.542448 -1.8094711
v 1.5243263 1.5424608 -1.6946049
v 0.28007317 0.37717742 -4.7832713
v -1.1062536 8.046627E-07 -3.9791079
v 0.72096634 1.5424562 -3.040351
v -0.9094715 1.5424508 -2.5655851
v -2.155117 0.3771724 -2.04177
v -2.4458723 1.4901161E-07 0.07126427
v -2.2252283 5.066395E-07 -2.1036453
v -1.0677052 0.37717462 -3.8643327
v 0.11599827 1.5424536 -3.1628757
v -2.139802 -0.37718767 2.4457207
v -2.209468 -2.3841858E-07 2.5140944
v 0.08431625 -6.2584877E-07 4.924717
v 0.08928108 -0.37721282 4.7883472
v 0.95900536 -6.2584877E-07 4.8616753
v -2.3695374 -0.37717742 0.071793556
v -2.4458723 1.4901161E-07 0.07126427
v -1.6230392 -1.5424854 2.249174
v 0.93930054 -0.37720862 4.727084
v 1.4790926 -4.4703484E-07 3.7978668
v 1.4447193 -0.37720525 3.6932812
v 2.1961823 -3.2782555E-07 3.041377
v 0.7355709 -1.5424817 4.2631817
v 2.1415806 -0.37720177 2.95813
v 2.4458752 1.7881393E-07 -0.07913685
v 0.14592075 -1.5424839 4.3091288
v 1.1261206 -1.5424778 3.2906408
v 2.3842306 -0.37719205 -0.074365616
v 2.266427 5.364418E-07 -2.308527
v 1.7464046 -1.5424747 2.708644
v 2.2098436 -0.3771851 -2.2408733
v 1.3996172 9.536743E-07 -4.7355957
v -1.6383619 -1.5424652 0.15859127
v 1.9072161 -1.5424652 -0.117093086
v 1.3674841 -0.37717757 -4.5994835
v 0.28064346 9.834766E-07 -4.9247184
v -1.7149334 -1.5424472 -1.8094711
v 1.5243263 -1.5424598 -1.6946049
v 0.28007317 -0.37717545 -4.7832713
v -1.1062536 8.046627E-07 -3.9791079
v 0.72096634 -1.5424547 -3.0403514
v -0.9094715 -1.5424497 -2.5655851
v -2.155117 -0.37717143 -2.04177
v -2.2252283 5.066395E-07 -2.1036453
v -1.0677052 -0.377173 -3.8643327
v 0.11599827 -1.5424523 -3.1628761
vt 0.16317208 0.78143144
vt 0.16686602 0.8423651
vt 0.16317208 0.78147817
vt 0.16899157 0.84156597
vt 0.22493744 0.90338266
vt 0.22545701 0.9009076
vt 0.2480282 0.9018839
vt 0.18208185 0.8365872
vt 0.24698904 0.8993557
vt 0.2609183 0.87471503
vt 0.25979194 0.8731682
vt 0.2792392 0.85545474
vt 0.24182835 0.88760453
vt 0.2774443 0.8545459
vt 0.2823919 0.77786607
vt 0.22689176 0.88876843
vt 0.25172144 0.8629688
vt 0.28016007 0.77772903
vt 0.28125182 0.7214287
vt 0.267434 0.84822613
vt 0.2791735 0.7228487
vt 0.25783545 0.6599955
vt 0.18169367 0.78363013
vt 0.2715076 0.7766467
vt 0.25783545 0.6631022
vt 0.23029 0.65521586
vt 0.17975402 0.7337767
vt 0.26180848 0.7366864
vt 0.23029 0.65844667
vt 0.19614911 0.67911404
vt 0.24145843 0.70259684
vt 0.2001574 0.71462333
vt 0.16860363 0.7278923
vt 0.16317208 0.78147817
vt 0.16860363 0.7265122
vt 0.19614911 0.6817245
vt 0.22613382 0.6994932
vt 0.16899157 0.84156597
vt 0.16686602 0.8423651
vt 0.22493744 0.90338266
vt 0.22545701 0.9009076
vt 0.2480282 0.9018839
vt 0.16317208 0.78143144
vt 0.16317208 0.78147817
vt 0.18208185 0.8365872
vt 0.24698904 0.8993557
vt 0.2609183 0.87471503
vt 0.25979194 0.8731682
vt 0.2792392 0.85545474
vt 0.24182835 0.88760453
vt 0.2774443 0.8545459
vt 0.2823919 0.77786607
vt 0.22689176 0.88876843
vt 0.25172144 0.8629688
vt 0.28016007 0.77772903
vt 0.28125182 0.7214287
vt 0.267434 0.84822613
vt 0.2791735 0.7228487
vt 0.25783545 0.6599955
vt 0.18169367 0.78363013
vt 0.2715076 0.7766467
vt 0.25783545 0.6631022
vt 0.23029 0.65521586
vt 0.17975402 0.7337767
vt 0.26180848 0.7366864
vt 0.23029 0.65844667
vt 0.19614911 0.67911404
vt 0.24145843 0.70259684
vt 0.2001574 0.71462333
vt 0.16860363 0.7278923
vt 0.16860363 0.7265122
vt 0.19614911 0.6817245
vt 0.22613382 0.6994932
vn -0.94152147 0.33688036 0.007005406
vn -0.9025853 0 0.43051103
vn -0.99999726 0 -0.0023715862
vn -0.86743724 0.33022273 0.37216344
vn -0.33568263 0 0.9419751
vn -0.3471974 0.3570145 0.8671762
vn 0.52527493 0 0.85093266
vn -0.5569109 0.7952534 0.23962939
vn 0.54705375 0.34907836 0.76083934
vn 0.8310455 0 0.55620444
vn 0.7849218 0.29876143 0.5428069
vn 0.90186656 0 0.43201464
vn 0.3925295 0.75597495 0.5238535
vn 0.87524956 0.29785645 0.38107696
vn 0.99999964 0 -0.00086269685
vn -0.2552649 0.7661755 0.58975834
vn 0.41290694 0.8626965 0.2919977
vn 0.964472 0.26418048 -0.0015689544
vn 0.97520864 0 -0.22128733
vn 0.57845664 0.7747931 0.25511494
vn 0.9071686 0.36341995 -0.21206366
vn 0.6081045 0 -0.79385704
vn -0.49532902 0.8683878 0.023487186
vn 0.5792731 0.81489164 -0.01985457
vn 0.55118334 0.5381423 -0.63765174
vn -0.19791614 0 -0.98021895
vn -0.5670746 0.8002148 -0.19514778
vn 0.4526492 0.879652 -0.14601734
vn -0.17087236 0.5659707 -0.8065233
vn -0.7151253 0 -0.69899625
vn 0.2353168 0.9262508 -0.29442385
vn -0.26095212 0.9105969 -0.3204955
vn -0.9059096 0.30257338 -0.2962722
vn -0.99999726 0 -0.0023715862
vn -0.94538677 0 -0.32595074
vn -0.62909186 0.4622406 -0.6249616
vn -0.09043384 0.92448074 -0.37034702
vn -0.86743724 -0.3302228 0.37216336
vn -0.9025853 0 0.43051103
vn -0.33568263 0 0.9419751
vn -0.34719744 -0.3570145 0.8671762
vn 0.52527493 0 0.85093266
vn -0.94152135 -0.33688045 0.007005311
vn -0.99999726 0 -0.0023715862
vn -0.55691093 -0.7952536 0.23962916
vn 0.54705375 -0.3490784 0.76083934
vn 0.8310455 0 0.55620444
vn 0.7849218 -0.2987615 0.5428069
vn 0.90186656 0 0.43201464
vn 0.39252946 -0.75597507 0.52385336
vn 0.87524956 -0.2978565 0.3810769
vn 0.99999964 0 -0.00086269685
vn -0.25526497 -0.7661756 0.58975816
vn 0.41290703 -0.8626966 0.29199746
vn 0.964472 -0.26418048 -0.0015690387
vn 0.97520864 0 -0.22128733
vn 0.57845664 -0.77479315 0.25511476
vn 0.9071686 -0.36341995 -0.21206376
vn 0.6081045 0 -0.79385704
vn -0.49532902 -0.8683878 0.02348694
vn 0.57927316 -0.81489164 -0.019854823
vn 0.55118334 -0.53814226 -0.6376518
vn -0.19791614 0 -0.98021895
vn -0.56707454 -0.8002148 -0.19514793
vn 0.45264915 -0.8796519 -0.14601757
vn -0.17087236 -0.56597054 -0.8065234
vn -0.7151253 0 -0.69899625
vn 0.23531687 -0.9262507 -0.29442418
vn -0.26095206 -0.91059667 -0.32049575
vn -0.90590954 -0.30257335 -0.29627225
vn -0.94538677 0 -0.32595074
vn -0.6290918 -0.4622405 -0.62496173
vn -0.09043388 -0.9244807 -0.37034744
g mbg002_rock_09_0
f 3/3/3 2/2/2 1/1/1
f 2/2/2 4/4/4 1/1/1
f 2/2/2 5/5/5 4/4/4
f 5/5/5 6/6/6 4/4/4
f 5/5/5 7/7/7 6/6/6
f 4/4/4 8/8/8 1/1/1
f 4/4/4 6/6/6 8/8/8
f 7/7/7 9/9/9 6/6/6
f 7/7/7 10/10/10 9/9/9
f 10/10/10 11/11/11 9/9/9
f 10/10/10 12/12/12 11/11/11
f 9/9/9 13/13/13 6/6/6
f 9/9/9 11/11/11 13/13/13
f 12/12/12 14/14/14 11/11/11
f 12/12/12 15/15/15 14/14/14
f 13/13/13 16/16/16 6/6/6
f 6/6/6 16/16/16 8/8/8
f 11/11/11 17/17/17 13/13/13
f 16/16/16 13/13/13 17/17/17
f 11/11/11 14/14/14 17/17/17
f 8/8/8 16/16/16 17/17/17
f 15/15/15 18/18/18 14/14/14
f 15/15/15 19/19/19 18/18/18
f 14/14/14 20/20/20 17/17/17
f 8/8/8 17/17/17 20/20/20
f 14/14/14 18/18/18 20/20/20
f 19/19/19 21/21/21 18/18/18
f 19/19/19 22/22/22 21/21/21
f 23/23/23 8/8/8 20/20/20
f 8/8/8 23/23/23 1/1/1
f 18/18/18 24/24/24 20/20/20
f 23/23/23 20/20/20 24/24/24
f 18/18/18 21/21/21 24/24/24
f 22/22/22 25/25/25 21/21/21
f 22/22/22 26/26/26 25/25/25
f 27/27/27 1/1/1 23/23/23
f 23/23/23 24/24/24 27/27/27
f 21/21/21 28/28/28 24/24/24
f 21/21/21 25/25/25 28/28/28
f 24/24/24 28/28/28 27/27/27
f 26/26/26 29/29/29 25/25/25
f 26/26/26 30/30/30 29/29/29
f 25/25/25 31/31/31 28/28/28
f 25/25/25 29/29/29 31/31/31
f 28/28/28 31/31/31 32/32/32
f 28/28/28 32/32/32 27/27/27
f 33/33/33 1/1/1 27/27/27
f 34/34/34 1/1/1 33/33/33
f 35/35/35 34/34/34 33/33/33
f 30/30/30 35/35/35 36/36/36
f 35/35/35 33/33/33 36/36/36
f 36/36/36 33/33/33 27/27/27
f 30/30/30 36/36/36 29/29/29
f 36/36/36 27/27/27 32/32/32
f 29/29/29 36/36/36 32/32/32
f 29/29/29 37/37/37 31/31/31
f 29/29/29 32/32/32 37/37/37
f 31/31/31 37/37/37 32/32/32
f 40/40/40 39/39/39 38/38/38
f 41/41/41 40/40/40 38/38/38
f 42/42/42 40/40/40 41/41/41
f 38/38/38 39/39/39 43/43/43
f 39/39/39 44/44/44 43/43/43
f 41/41/41 38/38/38 45/45/45
f 38/38/38 43/43/43 45/45/45
f 46/46/46 42/42/42 41/41/41
f 47/47/47 42/42/42 46/46/46
f 48/48/48 47/47/47 46/46/46
f 49/49/49 47/47/47 48/48/48
f 46/46/46 41/41/41 50/50/50
f 48/48/48 46/46/46 50/50/50
f 51/51/51 49/49/49 48/48/48
f 52/52/52 49/49/49 51/51/51
f 41/41/41 53/53/53 50/50/50
f 53/53/53 41/41/41 45/45/45
f 54/54/54 48/48/48 50/50/50
f 50/50/50 53/53/53 54/54/54
f 51/51/51 48/48/48 54/54/54
f 53/53/53 45/45/45 54/54/54
f 55/55/55 52/52/52 51/51/51
f 56/56/56 52/52/52 55/55/55
f 57/57/57 51/51/51 54/54/54
f 54/54/54 45/45/45 57/57/57
f 55/55/55 51/51/51 57/57/57
f 58/58/58 56/56/56 55/55/55
f 59/59/59 56/56/56 58/58/58
f 45/45/45 60/60/60 57/57/57
f 43/43/43 60/60/60 45/45/45
f 61/61/61 55/55/55 57/57/57
f 57/57/57 60/60/60 61/61/61
f 58/58/58 55/55/55 61/61/61
f 62/62/62 59/59/59 58/58/58
f 63/63/63 59/59/59 62/62/62
f 43/43/43 64/64/64 60/60/60
f 61/61/61 60/60/60 64/64/64
f 65/65/65 58/58/58 61/61/61
f 62/62/62 58/58/58 65/65/65
f 65/65/65 61/61/61 64/64/64
f 66/66/66 63/63/63 62/62/62
f 67/67/67 63/63/63 66/66/66
f 68/68/68 62/62/62 65/65/65
f 66/66/66 62/62/62 68/68/68
f 68/68/68 65/65/65 69/69/69
f 69/69/69 65/65/65 64/64/64
f 43/43/43 70/70/70 64/64/64
f 43/43/43 44/44/44 70/70/70
f 44/44/44 71/71/71 70/70/70
f 71/71/71 67/67/67 72/72/72
f 70/70/70 71/71/71 72/72/72
f 70/70/70 72/72/72 64/64/64
f 72/72/72 67/67/67 66/66/66
f 64/64/64 72/72/72 69/69/69
f 72/72/72 66/66/66 69/69/69
f 73/73/73 66/66/66 68/68/68
f 69/69/69 66/66/66 73/73/73
f 73/73/73 68/68/68 69/69/69
