g mbg002_rock_38
v 0.6727942 -0.44449425 -2.0911734
v 1.0190508 -1.1370321E-06 -1.0476782
v 0.87068355 -8.846073E-07 -2.2424276
v 0.5114777 -6.9383896E-07 -2.5547802
v 0.8289697 -0.44449458 -1.0526032
v 0.9253446 -1.6081576E-06 2.0680375
v 0.4346252 -0.44449416 -2.2395408
v -0.5505215 -2.5611007E-07 -2.703148
v 0.19255187 -0.44449592 -1.7671075
v 0.7779813 -0.44449162 1.9585404
v -0.5649036 -0.44449738 -1.6694973
v -0.8550657 -3.2580283E-07 -1.5474427
v -0.7842462 -0.4445021 -0.24324465
v -0.7601243 -0.44449803 -1.54846
v -0.878492 -5.0242306E-07 -0.40735483
v -1.019051 -5.0239396E-07 -0.07157564
v -0.8339418 -0.44450957 2.1586823
v -0.9956248 -9.198993E-07 2.4350548
v 0.44220212 -0.44449514 2.2787027
v 0.5192859 -1.5136429E-06 2.4584785
v -0.40895924 -0.444511 2.5442023
v -0.4384829 -1.180535E-06 2.703148
v -0.40895888 0.44450867 2.5442023
v 0.5192859 -1.5136429E-06 2.4584785
v -0.4384829 -1.180535E-06 2.703148
v -0.9956248 -9.198993E-07 2.4350548
v 0.44220248 0.44449222 2.2787027
v 0.9253446 -1.6081576E-06 2.0680375
v -0.8339416 0.44450766 2.1586823
v -1.019051 -5.0239396E-07 -0.07157564
v 0.77798164 0.44448856 1.9585404
v -0.78424585 0.44450098 -0.24324465
v -0.878492 -5.0242306E-07 -0.40735483
v 0.8289701 0.44449243 -1.0526032
v 1.0190508 -1.1370321E-06 -1.0476782
v 0.19255221 0.4444945 -1.7671075
v 0.6727946 0.44449258 -2.0911734
v 0.87068355 -8.846073E-07 -2.2424276
v 0.5114777 -6.9383896E-07 -2.5547802
v 0.43462557 0.44449273 -2.2395408
v -0.5505215 -2.5611007E-07 -2.703148
v -0.56490326 0.44449654 -1.6694973
v -0.8550657 -3.2580283E-07 -1.5474427
v -0.76012397 0.44449732 -1.54846
vt 0.51196337 0.56491226
vt 0.5207345 0.59134525
vt 0.5169761 0.5610808
vt 0.507877 0.55316854
vt 0.5159195 0.5912205
vt 0.5183608 0.6702701
vt 0.50593024 0.56115395
vt 0.48097527 0.5494102
vt 0.4997982 0.57312125
vt 0.51462793 0.66749644
vt 0.48061094 0.5755938
vt 0.4732608 0.57868564
vt 0.47505474 0.6117225
vt 0.47566578 0.5786599
vt 0.47266737 0.60756546
vt 0.46910685 0.6160711
vt 0.4737959 0.67256624
vt 0.46970028 0.6795671
vt 0.50612223 0.6756065
vt 0.5080748 0.68016046
vt 0.48456123 0.6823319
vt 0.48414022 0.68411666
vt 0.48456123 0.6823319
vt 0.5080748 0.68016046
vt 0.48414022 0.68411666
vt 0.46970028 0.6795671
vt 0.50612223 0.6756065
vt 0.5183608 0.6702701
vt 0.4737959 0.67256624
vt 0.46910685 0.6160711
vt 0.51462793 0.66749644
vt 0.47505474 0.6117225
vt 0.47266737 0.60756546
vt 0.5159195 0.5912205
vt 0.5207345 0.59134525
vt 0.4997982 0.57312125
vt 0.51196337 0.56491226
vt 0.5169761 0.5610808
vt 0.507877 0.55316854
vt 0.50593024 0.56115395
vt 0.48097527 0.5494102
vt 0.48061094 0.5755938
vt 0.4732608 0.57868564
vt 0.47566578 0.5786599
vn 0.5122876 -0.80850065 -0.2896345
vn 0.9985713 0 -0.053435277
vn 0.8734673 0 -0.4868828
vn 0.379924 0 -0.9250177
vn 0.5721704 -0.8194909 -0.032492675
vn 0.9064358 0 0.42234382
vn 0.07183921 -0.8831319 -0.4635914
vn -0.5350412 0 -0.8448259
vn -0.07216092 -0.9923494 -0.1001774
vn 0.58410627 -0.77447385 0.24292003
vn -0.33163187 -0.89000916 -0.31289598
vn -0.9730409 0 -0.23063242
vn -0.5705146 -0.81903154 -0.06083073
vn -0.6237955 -0.68034506 -0.3847204
vn -0.9854461 0 -0.16998833
vn -0.98727125 0 -0.15904526
vn -0.57029116 -0.8006194 0.18378393
vn -0.8408462 0 0.541274
vn 0.30559242 -0.7931789 0.52676415
vn 0.4893553 0 0.8720845
vn -0.089811355 -0.7701264 0.63153726
vn -0.09559627 0 0.9954202
vn -0.08981071 0.77012634 0.6315373
vn 0.4893553 0 0.8720845
vn -0.09559627 0 0.9954202
vn -0.8408462 0 0.541274
vn 0.305593 0.79317856 0.5267643
vn 0.9064358 0 0.42234382
vn -0.5702907 0.80061966 0.18378417
vn -0.98727125 0 -0.15904526
vn 0.5841068 0.7744733 0.2429202
vn -0.570514 0.81903195 -0.060830474
vn -0.9854461 0 -0.16998833
vn 0.5721711 0.81949043 -0.032492425
vn 0.9985713 0 -0.053435277
vn -0.07216017 0.9923495 -0.10017709
vn 0.5122883 0.8085003 -0.28963426
vn 0.8734673 0 -0.4868828
vn 0.379924 0 -0.9250177
vn 0.07183992 0.88313204 -0.46359125
vn -0.5350412 0 -0.8448259
vn -0.33163118 0.8900096 -0.31289583
vn -0.9730409 0 -0.23063242
vn -0.623795 0.68034565 -0.38472033
g mbg002_rock_38_0
f 3/3/3 2/2/2 1/1/1
f 4/4/4 3/3/3 1/1/1
f 2/2/2 5/5/5 1/1/1
f 2/2/2 6/6/6 5/5/5
f 7/7/7 4/4/4 1/1/1
f 8/8/8 4/4/4 7/7/7
f 9/9/9 7/7/7 1/1/1
f 5/5/5 9/9/9 1/1/1
f 9/9/9 8/8/8 7/7/7
f 6/6/6 10/10/10 5/5/5
f 9/9/9 5/5/5 10/10/10
f 11/11/11 8/8/8 9/9/9
f 12/12/12 8/8/8 11/11/11
f 11/11/11 9/9/9 13/13/13
f 13/13/13 9/9/9 10/10/10
f 14/14/14 12/12/12 11/11/11
f 14/14/14 11/11/11 13/13/13
f 15/15/15 12/12/12 14/14/14
f 13/13/13 15/15/15 14/14/14
f 16/16/16 15/15/15 13/13/13
f 17/17/17 16/16/16 13/13/13
f 17/17/17 13/13/13 10/10/10
f 18/18/18 16/16/16 17/17/17
f 10/10/10 6/6/6 19/19/19
f 17/17/17 10/10/10 19/19/19
f 6/6/6 20/20/20 19/19/19
f 21/21/21 18/18/18 17/17/17
f 21/21/21 17/17/17 19/19/19
f 19/19/19 20/20/20 21/21/21
f 22/22/22 18/18/18 21/21/21
f 20/20/20 22/22/22 21/21/21
f 25/25/25 24/24/24 23/23/23
f 26/26/26 25/25/25 23/23/23
f 24/24/24 27/27/27 23/23/23
f 24/24/24 28/28/28 27/27/27
f 26/26/26 23/23/23 29/29/29
f 23/23/23 27/27/27 29/29/29
f 30/30/30 26/26/26 29/29/29
f 28/28/28 31/31/31 27/27/27
f 27/27/27 31/31/31 29/29/29
f 30/30/30 29/29/29 32/32/32
f 32/32/32 29/29/29 31/31/31
f 33/33/33 30/30/30 32/32/32
f 31/31/31 28/28/28 34/34/34
f 28/28/28 35/35/35 34/34/34
f 31/31/31 34/34/34 36/36/36
f 32/32/32 31/31/31 36/36/36
f 37/37/37 34/34/34 35/35/35
f 34/34/34 37/37/37 36/36/36
f 38/38/38 37/37/37 35/35/35
f 38/38/38 39/39/39 37/37/37
f 39/39/39 40/40/40 37/37/37
f 37/37/37 40/40/40 36/36/36
f 39/39/39 41/41/41 40/40/40
f 41/41/41 36/36/36 40/40/40
f 41/41/41 42/42/42 36/36/36
f 36/36/36 42/42/42 32/32/32
f 41/41/41 43/43/43 42/42/42
f 33/33/33 32/32/32 44/44/44
f 42/42/42 44/44/44 32/32/32
f 43/43/43 33/33/33 44/44/44
f 43/43/43 44/44/44 42/42/42
