g mbg002_rock_29
v -3.3294868 -0.16570044 -0.56777096
v -3.3308716 -0.16570055 0.5724211
v 3.3308716 -0.16570055 0.58638287
v 3.3308716 -0.16570044 -0.5863838
v -3.3294868 -0.16570044 -0.56777096
v -3.3294868 0.16569966 -0.56777096
v -3.3308716 0.16570199 0.5724211
v -3.3308716 -0.16570055 0.5724211
v 3.3308716 -0.16570044 -0.5863838
v 3.3308716 0.16570222 -0.5863838
v -3.3294868 0.16569966 -0.56777096
v -3.3294868 -0.16570044 -0.56777096
v 3.3308716 -0.16570055 0.58638287
v 3.3308716 0.16569942 0.58638287
v 3.3308716 0.16570222 -0.5863838
v 3.3308716 -0.16570044 -0.5863838
v -3.3308716 -0.16570055 0.5724211
v -3.3308716 0.16570199 0.5724211
v 3.3308716 0.16569942 0.58638287
v 3.3308716 -0.16570055 0.58638287
v -3.3294868 0.16569966 -0.56777096
v -3.3308716 0.1656968 0.5724211
v 3.3308716 0.16569942 0.58638287
v 3.3308716 0.16569704 -0.5863838
vt 0.83126736 0.21666369
vt 0.83126736 0.2459587
vt 1 0.2459587
vt 1 0.21666369
vt 0.83126736 0.21666369
vt 0.8284734 0.21485227
vt 0.8284734 0.24872665
vt 0.83126736 0.2459587
vt 1 0.21666369
vt 0.9975529 0.21485227
vt 0.8284734 0.21485227
vt 0.83126736 0.21666369
vt 1 0.2459587
vt 0.9975529 0.24872665
vt 0.9975529 0.21485227
vt 1 0.21666369
vt 0.83126736 0.2459587
vt 0.8284734 0.24872665
vt 0.9975529 0.24872665
vt 1 0.2459587
vt 0.83126736 0.21666369
vt 0.83126736 0.2459587
vt 1 0.2459587
vt 1 0.21666369
vn -0 -1 0
vn -0 -1 0
vn -0 -1 0
vn -0 -1 0
vn -0.9999993 0 -0.0012144744
vn -0.9999993 0 -0.0012144744
vn -0.9999993 0 -0.0012144744
vn -0.9999993 0 -0.0012144744
vn -0.0027945628 0 -0.99999607
vn -0.0027945628 0 -0.99999607
vn -0.0027945626 0 -0.99999607
vn -0.0027945628 0 -0.99999607
vn 1 0 0
vn 1 0 0
vn 1 0 0
vn 1 0 0
vn -0.0020958125 0 0.99999785
vn -0.0020958122 0 0.99999785
vn -0.0020958122 0 0.99999785
vn -0.0020958125 0 0.99999785
vn -0 -1 0
vn -0 -1 0
vn -0 -1 0
vn -0 -1 0
g mbg002_rock_29_0
f 3/3/3 2/2/2 1/1/1
f 4/4/4 3/3/3 1/1/1
f 7/7/7 6/6/6 5/5/5
f 8/8/8 7/7/7 5/5/5
f 11/11/11 10/10/10 9/9/9
f 12/12/12 11/11/11 9/9/9
f 15/15/15 14/14/14 13/13/13
f 16/16/16 15/15/15 13/13/13
f 19/19/19 18/18/18 17/17/17
f 20/20/20 19/19/19 17/17/17
f 23/23/23 22/22/22 21/21/21
f 24/24/24 23/23/23 21/21/21
