g mbg002_rock_43
v -0.017717361 0.22130461 -1.3466492
v -0.052204132 0.2213046 -1.2340012
v -0.31409168 0.22130471 -1.3353319
v -0.29911423 0.22130473 -1.4409738
v -0.59898186 0.22130483 -1.3633661
v -0.5947361 1.3596173E-07 -1.2345304
v -0.329072 3.1719992E-08 -1.2296906
v -0.052204132 0.2213046 -1.2340012
v -0.0866909 -8.031702E-08 -1.1213541
v 0.1811428 0.22130448 -1.0828838
v 0.1042757 -1.7532466E-07 -0.99465275
v -0.644927 0.30882916 -1.347889
v -0.6399727 1.4649731E-07 -1.1910715
v -0.8028469 0.30882922 -1.3395205
v -0.80284595 2.0840571E-07 -1.1817636
v -0.8028469 0.30882925 -1.4972758
v -0.64987946 0.3088292 -1.5047069
v -0.8028469 2.8551176E-07 -1.6550326
v -0.654829 2.2892846E-07 -1.6615252
v -0.60746956 2.0389007E-07 -1.6210384
v -0.6032257 0.22130485 -1.4922028
v -0.28413582 6.585424E-08 -1.5466156
v 0.01677227 -6.554956E-08 -1.4592977
v -0.017717361 0.22130461 -1.3466492
v 0.33488178 -2.2200265E-07 -1.2593431
v 0.25801086 0.22130446 -1.171113
v 0.55561066 -3.4286086E-07 -1.0451055
v 0.47249222 0.22130434 -0.94994164
v 0.3893795 0.22130436 -0.85477924
v 0.30626202 -2.9227294E-07 -0.75961685
v 0.5495329 0.2213043 -0.8062525
v 0.42789555 0.22130434 -0.7829342
v 0.42789555 0.22130434 -0.7829342
v 0.409091 -3.8347252E-07 -0.44562244
v 0.52544594 0.22130425 -0.4714632
v 0.56319714 0.22130418 -0.09418106
v 0.44948673 -4.5724073E-07 -0.08939171
v 0.5646467 0.22130397 1.1381407
v 0.44737148 -6.566247E-07 1.139473
v 0.55213356 0.26840875 1.1473465
v 0.40978527 -5.657362E-07 1.1488562
v 0.5524359 0.2684087 1.4036894
v 0.40934467 -6.0721095E-07 1.404479
v 0.56496334 0.22130392 1.4063082
v 0.4469118 -7.0001306E-07 1.4068899
v 0.44647408 -7.412632E-07 1.661129
v 0.56526375 0.22130388 1.6612616
v 0.6830187 0.22130388 1.4057245
v 0.68405724 0.22130384 1.6613932
v 0.8028469 -8.801044E-07 1.6615248
v 0.80107117 -8.3764326E-07 1.4051409
v 0.6955309 0.26840863 1.402895
v 0.83862305 -7.7399045E-07 1.4021025
v 0.6944885 0.2684087 1.1458349
v 0.8368387 -7.3129786E-07 1.1443214
v 0.6819277 0.22130392 1.1368055
v 0.7992048 -7.929807E-07 1.1354694
v 0.7906227 -5.877432E-07 -0.103759766
v 0.6769104 0.22130413 -0.09897041
v 0.6418047 0.22130421 -0.49730396
v 0.7581625 -5.0677545E-07 -0.5231466
v 0.6711674 -4.2297552E-07 -0.8295708
v 0.47249222 0.22130434 -0.94994164
v 0.55561066 -3.4286086E-07 -1.0451055
v -0.017717361 -0.2213047 -1.3466492
v -0.31409168 -0.2213046 -1.3353319
v -0.052204132 -0.22130471 -1.2340012
v -0.29911423 -0.22130458 -1.4409738
v -0.59898186 -0.22130448 -1.3633661
v -0.5947361 1.3596173E-07 -1.2345304
v -0.329072 3.1719992E-08 -1.2296906
v -0.052204132 -0.22130471 -1.2340012
v -0.0866909 -8.031702E-08 -1.1213541
v 0.1811428 -0.22130483 -1.0828838
v 0.1042757 -1.7532466E-07 -0.99465275
v -0.644927 -0.3088288 -1.347889
v -0.6399727 1.4649731E-07 -1.1910715
v -0.8028469 -0.30882874 -1.3395205
v -0.80284595 2.0840571E-07 -1.1817636
v -0.8028469 -0.3088287 -1.4972758
v -0.64987946 -0.30882877 -1.5047069
v -0.8028469 2.8551176E-07 -1.6550326
v -0.654829 2.2892846E-07 -1.6615252
v -0.60746956 2.0389007E-07 -1.6210384
v -0.6032257 -0.22130446 -1.4922028
v -0.28413582 6.585424E-08 -1.5466156
v 0.01677227 -6.554956E-08 -1.4592977
v -0.017717361 -0.2213047 -1.3466492
v 0.33488178 -2.2200265E-07 -1.2593431
v 0.25801086 -0.22130485 -1.171113
v 0.55561066 -3.4286086E-07 -1.0451055
v 0.47249222 -0.22130497 -0.94994164
v 0.3893795 -0.22130495 -0.85477924
v 0.30626202 -2.9227294E-07 -0.75961685
v 0.5495329 -0.22130501 -0.8062525
v 0.42789555 -0.22130497 -0.7829342
v 0.42789555 -0.22130497 -0.7829342
v 0.409091 -3.8347252E-07 -0.44562244
v 0.52544594 -0.22130506 -0.4714632
v 0.56319714 -0.22130513 -0.09418106
v 0.44948673 -4.5724073E-07 -0.08939171
v 0.44737148 -6.566247E-07 1.139473
v 0.5646467 -0.22130534 1.1381407
v 0.40978527 -5.657362E-07 1.1488562
v 0.6769104 -0.22130518 -0.09897041
v 0.6418047 -0.2213051 -0.49730396
v 0.6711674 -4.2297552E-07 -0.8295708
v 0.47249222 -0.22130497 -0.94994164
v 0.55561066 -3.4286086E-07 -1.0451055
v 0.7581625 -5.0677545E-07 -0.5231466
v 0.7906227 -5.877432E-07 -0.103759766
v 0.6819277 -0.22130539 1.1368055
v 0.7992048 -7.929807E-07 1.1354694
v 0.55213356 -0.26840997 1.1473465
v 0.6944885 -0.26841003 1.1458349
v 0.8368387 -7.3129786E-07 1.1443214
v 0.5524359 -0.26841003 1.4036894
v 0.40934467 -6.0721095E-07 1.404479
v 0.4469118 -7.0001306E-07 1.4068899
v 0.6955309 -0.2684101 1.402895
v 0.83862305 -7.7399045E-07 1.4021025
v 0.56496334 -0.22130539 1.4063082
v 0.44647408 -7.412632E-07 1.661129
v 0.56526375 -0.22130543 1.6612616
v 0.6830187 -0.22130543 1.4057245
v 0.80107117 -8.3764326E-07 1.4051409
v 0.68405724 -0.22130547 1.6613932
v 0.8028469 -8.801044E-07 1.6615248
v -0.8028469 0.30882922 -1.3395205
v -0.80284595 2.0840571E-07 -1.1817636
v -0.8028469 2.8551176E-07 -1.6550326
v -0.8028469 0.30882925 -1.4972758
v -0.8028469 2.8551176E-07 -1.6550326
v -0.80284595 2.0840571E-07 -1.1817636
v -0.8028469 -0.30882874 -1.3395205
v -0.8028469 -0.3088287 -1.4972758
v 0.68405724 0.22130384 1.6613932
v 0.8028469 -8.801044E-07 1.6615248
v 0.44647408 -7.412632E-07 1.661129
v 0.56526375 0.22130388 1.6612616
v 0.44647408 -7.412632E-07 1.661129
v 0.8028469 -8.801044E-07 1.6615248
v 0.68405724 -0.22130547 1.6613932
v 0.56526375 -0.22130543 1.6612616
vt 0.13629991 0.69391614
vt 0.13542631 0.69676965
vt 0.12879235 0.69420284
vt 0.12917177 0.6915268
vt 0.121575736 0.69349265
vt 0.12168327 0.6967562
vt 0.1284129 0.69687885
vt 0.1354263 0.69676965
vt 0.13455272 0.69962317
vt 0.14133729 0.70059764
vt 0.13939014 0.70283264
vt 0.120355025 0.69372034
vt 0.12053737 0.6978571
vt 0.11640261 0.6939339
vt 0.116411634 0.6980929
vt 0.11641913 0.69026345
vt 0.120241895 0.69008255
vt 0.116411574 0.6861044
vt 0.120161064 0.68593997
vt 0.12136076 0.6869655
vt 0.12146826 0.69022906
vt 0.12955122 0.68885076
vt 0.13717355 0.6910626
vt 0.1362999 0.69391614
vt 0.14523166 0.6961277
vt 0.14328445 0.6983627
vt 0.15082301 0.7015546
vt 0.14871752 0.7039652
vt 0.14661214 0.7063758
vt 0.1445067 0.70878637
vt 0.15066905 0.70760506
vt 0.14758785 0.7081957
vt 0.14758784 0.7081957
vt 0.14711148 0.71674025
vt 0.15005891 0.7160857
vt 0.1510152 0.7256427
vt 0.14813477 0.725764
vt 0.15105195 0.7568589
vt 0.14808118 0.7568927
vt 0.15105289 0.7576593
vt 0.14807981 0.75769085
vt 0.1510592 0.7630132
vt 0.14807062 0.76302975
vt 0.15105994 0.7636519
vt 0.14806952 0.7636667
vt 0.14805844 0.77010685
vt 0.15106754 0.7701102
vt 0.1540504 0.76363707
vt 0.15407668 0.77011347
vt 0.1570858 0.7701168
vt 0.15704083 0.76362234
vt 0.15404779 0.76299655
vt 0.1570364 0.76298004
vt 0.154026 0.75762767
vt 0.15699911 0.75759614
vt 0.15402274 0.75682503
vt 0.15699354 0.75679123
vt 0.15677616 0.72540003
vt 0.15389566 0.7255213
vt 0.1530064 0.71543103
vt 0.15595387 0.71477646
vt 0.15375023 0.7070144
vt 0.14871754 0.7039652
vt 0.15082301 0.7015546
vt 0.13629991 0.69391614
vt 0.12879235 0.69420284
vt 0.13542631 0.69676965
vt 0.12917177 0.6915268
vt 0.121575736 0.69349265
vt 0.12168327 0.6967562
vt 0.1284129 0.69687885
vt 0.1354263 0.69676965
vt 0.13455272 0.69962317
vt 0.14133729 0.70059764
vt 0.13939014 0.70283264
vt 0.120355025 0.69372034
vt 0.12053737 0.6978571
vt 0.11640261 0.6939339
vt 0.116411634 0.6980929
vt 0.11641913 0.69026345
vt 0.120241895 0.69008255
vt 0.116411574 0.6861044
vt 0.120161064 0.68593997
vt 0.12136076 0.6869655
vt 0.12146826 0.69022906
vt 0.12955122 0.68885076
vt 0.13717355 0.6910626
vt 0.1362999 0.69391614
vt 0.14523166 0.6961277
vt 0.14328445 0.6983627
vt 0.15082301 0.7015546
vt 0.14871752 0.7039652
vt 0.14661214 0.7063758
vt 0.1445067 0.70878637
vt 0.15066905 0.70760506
vt 0.14758785 0.7081957
vt 0.14758784 0.7081957
vt 0.14711148 0.71674025
vt 0.15005891 0.7160857
vt 0.1510152 0.7256427
vt 0.14813477 0.725764
vt 0.14808118 0.7568927
vt 0.15105195 0.7568589
vt 0.14807981 0.75769085
vt 0.15389566 0.7255213
vt 0.1530064 0.71543103
vt 0.15375023 0.7070144
vt 0.14871754 0.7039652
vt 0.15082301 0.7015546
vt 0.15595387 0.71477646
vt 0.15677616 0.72540003
vt 0.15402274 0.75682503
vt 0.15699354 0.75679123
vt 0.15105289 0.7576593
vt 0.154026 0.75762767
vt 0.15699911 0.75759614
vt 0.1510592 0.7630132
vt 0.14807062 0.76302975
vt 0.14806952 0.7636667
vt 0.15404779 0.76299655
vt 0.1570364 0.76298004
vt 0.15105994 0.7636519
vt 0.14805844 0.77010685
vt 0.15106754 0.7701102
vt 0.1540504 0.76363707
vt 0.15704083 0.76362234
vt 0.15407668 0.77011347
vt 0.1570858 0.7701168
vt 0.11640261 0.6939339
vt 0.116411634 0.6980929
vt 0.116411574 0.6861044
vt 0.11641913 0.69026345
vt 0.116411574 0.6861044
vt 0.116411634 0.6980929
vt 0.11640261 0.6939339
vt 0.11641913 0.69026345
vt 0.15407668 0.77011347
vt 0.1570858 0.7701168
vt 0.14805844 0.77010685
vt 0.15106754 0.7701102
vt 0.14805844 0.77010685
vt 0.1570858 0.7701168
vt 0.15407668 0.77011347
vt 0.15106754 0.7701102
vn 0.23278797 0.83615017 -0.49665135
vn -0.23008215 0.86787 0.44029972
vn -0.10722507 0.8751679 0.47178784
vn 0.1342957 0.84215456 -0.5222456
vn 0.54144514 0.6974183 0.4695154
vn 0.44886616 0 0.89359903
vn -0.22928564 0 0.97335917
vn -0.23008215 0.86787 0.44029972
vn -0.47244886 0 0.88135815
vn -0.314739 0.87650555 0.36424893
vn -0.6535705 0 0.7568657
vn 0.455062 0.77615136 0.43647185
vn 0.41247648 0 0.91096824
vn 0.029465882 0.8444993 0.5347456
vn 0.055018567 0 0.9984854
vn -0.023610387 0.85961914 -0.5103895
vn 0.4180639 0.7760965 -0.4721193
vn -0.046210803 0 -0.9989317
vn 0.33784658 0 -0.9412012
vn 0.5289036 0 -0.8486818
vn 0.5767854 0.63592523 -0.51275504
vn 0.246017 0 -0.96926546
vn 0.4147499 0 -0.9099354
vn 0.23278797 0.83615017 -0.49665135
vn 0.62549067 0 -0.7802316
vn 0.33693844 0.84130925 -0.42269516
vn 0.797186 0 -0.6037338
vn 0.43832508 0.84047544 -0.318547
vn -0.3914869 0.8772386 0.27783173
vn -0.8705768 0 0.4920325
vn 0.49359077 0.84508103 -0.20544133
vn -0.45039836 0.8728285 0.18791427
vn -0.45039836 0.8728285 0.18791427
vn -0.9785469 0 0.20602402
vn -0.4770989 0.8730529 0.10077362
vn -0.50492203 0.86275274 0.026673052
vn -0.9985898 0 0.053088766
vn -0.3684802 0.5419772 -0.75530326
vn -0.69109756 0 -0.72276145
vn -0.42772573 0.7186889 -0.5482126
vn -0.84318584 0 -0.53762215
vn -0.41154808 0.6929215 0.5920201
vn -0.80310786 0 0.59583366
vn -0.29778853 0.4888385 0.8199751
vn -0.5953382 0 0.8034752
vn -1 0 -0.0002697002
vn -0.51335424 0.8581768 -0.00013830676
vn 0.30811936 0.48824516 0.81650424
vn 0.5151444 0.85709876 -0.0028311335
vn 0.999985 0 -0.005496014
vn 0.6041881 0 0.79684174
vn 0.4169097 0.6929492 0.5882242
vn 0.80878586 0 0.5881032
vn 0.42028463 0.71909595 -0.55340934
vn 0.8368849 0 -0.54737896
vn 0.35360846 0.5465572 -0.75910234
vn 0.6838543 0 -0.7296186
vn 0.99903417 0 -0.04393907
vn 0.52732486 0.8493466 -0.0232151
vn 0.52762765 0.8439333 -0.09688036
vn 0.9831634 0 -0.18272848
vn 0.9280732 0 -0.37239778
vn 0.43832508 0.84047544 -0.318547
vn 0.797186 0 -0.6037338
vn 0.23278734 -0.8361502 -0.49665165
vn -0.10722577 -0.875168 0.47178757
vn -0.23008281 -0.86787 0.44029933
vn 0.13429505 -0.84215456 -0.5222457
vn 0.54144484 -0.69741845 0.4695155
vn 0.44886616 0 0.89359903
vn -0.22928564 0 0.97335917
vn -0.23008281 -0.86787 0.44029933
vn -0.47244886 0 0.88135815
vn -0.31473967 -0.87650555 0.36424854
vn -0.6535705 0 0.7568657
vn 0.45506167 -0.77615166 0.4364717
vn 0.41247648 0 0.91096824
vn 0.029465241 -0.8444993 0.5347455
vn 0.055018567 0 0.9984854
vn -0.023611076 -0.85961896 -0.51038975
vn 0.41806358 -0.77609664 -0.4721195
vn -0.046210803 0 -0.9989317
vn 0.33784658 0 -0.9412012
vn 0.5289036 0 -0.8486818
vn 0.5767851 -0.63592535 -0.5127553
vn 0.246017 0 -0.96926546
vn 0.4147499 0 -0.9099354
vn 0.23278734 -0.8361502 -0.49665165
vn 0.62549067 0 -0.7802316
vn 0.33693784 -0.84130937 -0.42269552
vn 0.797186 0 -0.6037338
vn 0.43832457 -0.8404756 -0.3185473
vn -0.39148742 -0.8772384 0.2778314
vn -0.8705768 0 0.4920325
vn 0.49359033 -0.8450812 -0.20544162
vn -0.45039883 -0.8728283 0.18791397
vn -0.45039883 -0.8728283 0.18791397
vn -0.9785469 0 0.20602402
vn -0.47709936 -0.87305266 0.100773275
vn -0.5049224 -0.86275256 0.026672756
vn -0.9985898 0 0.053088766
vn -0.69109756 0 -0.72276145
vn -0.36848053 -0.5419773 -0.7553031
vn -0.84318584 0 -0.53762215
vn 0.5273244 -0.8493468 -0.023215376
vn 0.52762717 -0.8439334 -0.09688063
vn 0.9280732 0 -0.37239778
vn 0.43832457 -0.8404756 -0.3185473
vn 0.797186 0 -0.6037338
vn 0.9831634 0 -0.18272848
vn 0.99903417 0 -0.04393907
vn 0.35360813 -0.54655737 -0.75910234
vn 0.6838543 0 -0.7296186
vn -0.4277261 -0.71868867 -0.5482126
vn 0.4202842 -0.7190961 -0.5534093
vn 0.8368849 0 -0.54737896
vn -0.41154855 -0.69292146 0.5920199
vn -0.80310786 0 0.59583366
vn -0.5953382 0 0.8034752
vn 0.4169093 -0.69294965 0.588224
vn 0.80878586 0 0.5881032
vn -0.29778895 -0.48883855 0.81997484
vn -1 0 -0.0002697002
vn -0.51335454 -0.8581765 -0.0001385968
vn 0.30811918 -0.48824534 0.8165042
vn 0.6041881 0 0.79684174
vn 0.5151439 -0.857099 -0.0028314297
vn 0.999985 0 -0.005496014
vn -1 0 0
vn -1 0 0
vn -1 0 0
vn -1 0 0
vn -1 0 0
vn -1 0 0
vn -1 0 0
vn -1 0 0
vn -0.0011098884 0 0.9999994
vn -0.0011098883 0 0.9999994
vn -0.0011098883 0 0.9999994
vn -0.0011098884 0 0.9999994
vn -0.0011098882 0 0.9999994
vn -0.0011098882 0 0.9999994
vn -0.0011098883 0 0.9999994
vn -0.0011098883 0 0.9999994
g mbg002_rock_43_0
f 3/3/3 2/2/2 1/1/1
f 4/4/4 3/3/3 1/1/1
f 3/3/3 4/4/4 5/5/5
f 3/3/3 5/5/5 6/6/6
f 7/7/7 3/3/3 6/6/6
f 8/8/8 3/3/3 7/7/7
f 9/9/9 8/8/8 7/7/7
f 10/10/10 8/8/8 9/9/9
f 11/11/11 10/10/10 9/9/9
f 6/6/6 5/5/5 12/12/12
f 13/13/13 6/6/6 12/12/12
f 13/13/13 12/12/12 14/14/14
f 15/15/15 13/13/13 14/14/14
f 16/16/16 14/14/14 12/12/12
f 17/17/17 16/16/16 12/12/12
f 17/17/17 12/12/12 5/5/5
f 18/18/18 16/16/16 17/17/17
f 19/19/19 18/18/18 17/17/17
f 20/20/20 19/19/19 17/17/17
f 21/21/21 17/17/17 5/5/5
f 21/21/21 20/20/20 17/17/17
f 20/20/20 21/21/21 22/22/22
f 4/4/4 21/21/21 5/5/5
f 21/21/21 4/4/4 22/22/22
f 22/22/22 4/4/4 23/23/23
f 4/4/4 24/24/24 23/23/23
f 23/23/23 24/24/24 25/25/25
f 24/24/24 26/26/26 25/25/25
f 27/27/27 25/25/25 26/26/26
f 26/26/26 24/24/24 8/8/8
f 28/28/28 27/27/27 26/26/26
f 10/10/10 26/26/26 8/8/8
f 26/26/26 10/10/10 28/28/28
f 10/10/10 29/29/29 28/28/28
f 10/10/10 11/11/11 29/29/29
f 11/11/11 30/30/30 29/29/29
f 28/28/28 29/29/29 31/31/31
f 30/30/30 32/32/32 29/29/29
f 29/29/29 33/33/33 31/31/31
f 30/30/30 34/34/34 32/32/32
f 34/34/34 35/35/35 32/32/32
f 33/33/33 35/35/35 31/31/31
f 36/36/36 35/35/35 34/34/34
f 37/37/37 36/36/36 34/34/34
f 36/36/36 37/37/37 38/38/38
f 37/37/37 39/39/39 38/38/38
f 38/38/38 39/39/39 40/40/40
f 39/39/39 41/41/41 40/40/40
f 40/40/40 41/41/41 42/42/42
f 41/41/41 43/43/43 42/42/42
f 42/42/42 43/43/43 44/44/44
f 43/43/43 45/45/45 44/44/44
f 45/45/45 46/46/46 44/44/44
f 46/46/46 47/47/47 44/44/44
f 44/44/44 47/47/47 48/48/48
f 42/42/42 44/44/44 48/48/48
f 47/47/47 49/49/49 48/48/48
f 49/49/49 50/50/50 48/48/48
f 50/50/50 51/51/51 48/48/48
f 52/52/52 42/42/42 48/48/48
f 48/48/48 51/51/51 52/52/52
f 40/40/40 42/42/42 52/52/52
f 51/51/51 53/53/53 52/52/52
f 54/54/54 40/40/40 52/52/52
f 52/52/52 53/53/53 54/54/54
f 38/38/38 40/40/40 54/54/54
f 53/53/53 55/55/55 54/54/54
f 56/56/56 38/38/38 54/54/54
f 54/54/54 55/55/55 56/56/56
f 55/55/55 57/57/57 56/56/56
f 36/36/36 38/38/38 56/56/56
f 57/57/57 58/58/58 56/56/56
f 59/59/59 36/36/36 56/56/56
f 58/58/58 59/59/59 56/56/56
f 36/36/36 59/59/59 35/35/35
f 60/60/60 59/59/59 58/58/58
f 59/59/59 60/60/60 35/35/35
f 61/61/61 60/60/60 58/58/58
f 35/35/35 60/60/60 31/31/31
f 61/61/61 62/62/62 60/60/60
f 62/62/62 31/31/31 60/60/60
f 63/63/63 31/31/31 62/62/62
f 64/64/64 63/63/63 62/62/62
f 67/67/67 66/66/66 65/65/65
f 66/66/66 68/68/68 65/65/65
f 66/66/66 69/69/69 68/68/68
f 70/70/70 69/69/69 66/66/66
f 71/71/71 70/70/70 66/66/66
f 71/71/71 66/66/66 72/72/72
f 73/73/73 71/71/71 72/72/72
f 73/73/73 72/72/72 74/74/74
f 75/75/75 73/73/73 74/74/74
f 76/76/76 69/69/69 70/70/70
f 77/77/77 76/76/76 70/70/70
f 78/78/78 76/76/76 77/77/77
f 79/79/79 78/78/78 77/77/77
f 76/76/76 78/78/78 80/80/80
f 81/81/81 76/76/76 80/80/80
f 69/69/69 76/76/76 81/81/81
f 81/81/81 80/80/80 82/82/82
f 83/83/83 81/81/81 82/82/82
f 83/83/83 84/84/84 81/81/81
f 85/85/85 69/69/69 81/81/81
f 84/84/84 85/85/85 81/81/81
f 84/84/84 86/86/86 85/85/85
f 69/69/69 85/85/85 68/68/68
f 86/86/86 68/68/68 85/85/85
f 86/86/86 87/87/87 68/68/68
f 87/87/87 88/88/88 68/68/68
f 87/87/87 89/89/89 88/88/88
f 89/89/89 90/90/90 88/88/88
f 72/72/72 88/88/88 90/90/90
f 89/89/89 91/91/91 90/90/90
f 74/74/74 72/72/72 90/90/90
f 91/91/91 92/92/92 90/90/90
f 74/74/74 90/90/90 92/92/92
f 93/93/93 74/74/74 92/92/92
f 75/75/75 74/74/74 93/93/93
f 94/94/94 75/75/75 93/93/93
f 93/93/93 92/92/92 95/95/95
f 96/96/96 94/94/94 93/93/93
f 97/97/97 93/93/93 95/95/95
f 98/98/98 94/94/94 96/96/96
f 99/99/99 98/98/98 96/96/96
f 97/97/97 95/95/95 99/99/99
f 98/98/98 99/99/99 100/100/100
f 101/101/101 98/98/98 100/100/100
f 101/101/101 100/100/100 102/102/102
f 100/100/100 103/103/103 102/102/102
f 102/102/102 103/103/103 104/104/104
f 100/100/100 99/99/99 105/105/105
f 100/100/100 105/105/105 103/103/103
f 95/95/95 106/106/106 99/99/99
f 99/99/99 106/106/106 105/105/105
f 95/95/95 107/107/107 106/106/106
f 107/107/107 95/95/95 108/108/108
f 109/109/109 107/107/107 108/108/108
f 107/107/107 110/110/110 106/106/106
f 110/110/110 111/111/111 106/106/106
f 111/111/111 105/105/105 106/106/106
f 112/112/112 105/105/105 111/111/111
f 105/105/105 112/112/112 103/103/103
f 113/113/113 112/112/112 111/111/111
f 103/103/103 114/114/114 104/104/104
f 103/103/103 112/112/112 114/114/114
f 115/115/115 112/112/112 113/113/113
f 112/112/112 115/115/115 114/114/114
f 116/116/116 115/115/115 113/113/113
f 104/104/104 114/114/114 117/117/117
f 114/114/114 115/115/115 117/117/117
f 118/118/118 104/104/104 117/117/117
f 118/118/118 117/117/117 119/119/119
f 120/120/120 115/115/115 116/116/116
f 115/115/115 120/120/120 117/117/117
f 121/121/121 120/120/120 116/116/116
f 117/117/117 122/122/122 119/119/119
f 117/117/117 120/120/120 122/122/122
f 119/119/119 122/122/122 123/123/123
f 122/122/122 124/124/124 123/123/123
f 125/125/125 120/120/120 121/121/121
f 120/120/120 125/125/125 122/122/122
f 122/122/122 125/125/125 124/124/124
f 126/126/126 125/125/125 121/121/121
f 125/125/125 127/127/127 124/124/124
f 127/127/127 125/125/125 126/126/126
f 128/128/128 127/127/127 126/126/126
f 131/131/131 130/130/130 129/129/129
f 132/132/132 131/131/131 129/129/129
f 135/135/135 134/134/134 133/133/133
f 136/136/136 135/135/135 133/133/133
f 139/139/139 138/138/138 137/137/137
f 140/140/140 139/139/139 137/137/137
f 143/143/143 142/142/142 141/141/141
f 144/144/144 143/143/143 141/141/141
