g mbg002_rock_53
v -3.5161858 -0.32308534 4.3135796
v -3.5473099 -2.9802322E-07 4.3575497
v -2.0824661 -5.364418E-07 4.612385
v -2.06538 -0.32308558 4.5659704
v -2.0445318 -1.9664226 3.1131327
v 0.4257288 -9.536743E-07 4.0285006
v 0.41878176 -0.323086 3.987682
v 2.401555 -1.3113022E-06 3.6111095
v -4.561226 -0.3230854 0.6766751
v -4.60246 -3.2782555E-07 0.6854589
v 0.27295923 -1.9664228 3.0069935
v 2.3756742 -0.32308635 3.5742905
v 3.1261096 -1.4901161E-06 2.7159364
v 1.8563223 -1.6910365 2.4527872
v 3.093286 -0.32308653 2.6876962
v 4.1877003 -1.758337E-06 1.1800702
v 2.5801678 -1.3666629 1.9833033
v 4.144704 -0.32308677 1.1665466
v 4.7881613 -1.9967556E-06 -1.2579372
v 0.5038376 -1.966423 0.6528232
v 4.7394114 -0.323087 -1.2480989
v 4.0008473 -1.9073486E-06 -2.2648363
v 3.2161603 -1.366663 0.93971133
v 2.0023885 -1.6910369 1.7643712
v 0.7967105 -1.3666626 0.3488114
v 3.9596417 -0.32308695 -2.2453494
v 0.49160576 -1.3709068E-06 -2.7896667
v 3.517561 -1.3666632 -1.0775735
v 3.3887405 -1.3666632 -1.7242339
v 0.4840274 -0.3230864 -2.7651505
v -0.44086838 -1.2516975E-06 -3.21099
v 0.6714735 -1.3666627 -1.1201725
v 0.99227476 -1.3666629 -2.2038856
v 0.36470222 -1.966423 -1.4817033
v -0.43951225 -0.3230863 -3.182437
v -1.5458746 -1.1622906E-06 -4.6471796
v -1.3186646 -1.9664228 -1.692528
v -1.5339298 -0.32308617 -4.6048646
v -2.712057 -9.536743E-07 -4.737834
v -1.8336296 -1.9664228 -3.6358712
v -2.6889372 -0.323086 -4.6946497
v -4.278493 -6.556511E-07 -3.7564359
v -2.7116861 -1.9664228 -3.825625
v -4.240363 -0.3230857 -3.7226558
v -4.703068 -4.7683716E-07 -1.9941242
v -3.8259363 -1.9664228 -3.179465
v -4.6608696 -0.32308552 -1.9772315
v -4.1173115 -1.9664223 -1.8729668
v -3.80099 -1.9664226 -0.5166111
v -3.8627796 -1.9664223 0.8498051
v -3.230672 -1.9664223 2.9034297
v -3.5161858 0.32308474 4.3135796
v -2.0824661 -5.364418E-07 4.612385
v -3.5473099 -2.9802322E-07 4.3575497
v -2.06538 0.3230845 4.5659704
v -2.0445318 1.9664212 3.1131327
v 0.4257288 -9.536743E-07 4.0285006
v 0.41878176 0.32308406 3.987682
v 2.401555 -1.3113022E-06 3.6111095
v -4.561226 0.32308468 0.6766751
v -4.60246 -3.2782555E-07 0.6854589
v 0.2729602 1.9664209 3.0069935
v 2.3756742 0.32308373 3.5742905
v 3.1261096 -1.4901161E-06 2.7159364
v 1.8563228 1.6910341 2.4527872
v 3.093286 0.32308355 2.6876962
v 4.1877003 -1.758337E-06 1.1800702
v 2.5801682 1.3666599 1.9833033
v 4.144704 0.3230833 1.1665466
v 4.7881613 -1.9967556E-06 -1.2579372
v 0.50383854 1.9664207 0.6528232
v 4.7394114 0.32308307 -1.2480989
v 4.0008473 -1.9073486E-06 -2.2648363
v 3.2161608 1.3666598 0.93971133
v 2.002389 1.6910342 1.7643712
v 0.79671097 1.3666601 0.3488114
v 3.9596417 0.32308313 -2.2453494
v 0.49160576 -1.3709068E-06 -2.7896667
v 3.5175614 1.3666595 -1.0775735
v 3.388741 1.3666595 -1.7242341
v 0.4840274 0.32308367 -2.7651508
v -0.44086838 -1.2516975E-06 -3.21099
v 0.671474 1.36666 -1.1201725
v 0.99227524 1.3666599 -2.203886
v 0.36470318 1.9664205 -1.4817035
v -0.43951225 0.3230838 -3.182437
v -1.5458746 -1.1622906E-06 -4.6471796
v -1.3186646 1.9664208 -1.6925282
v -1.5339298 0.32308388 -4.6048646
v -2.712057 -9.536743E-07 -4.737834
v -1.8336296 1.9664208 -3.6358714
v -2.6889372 0.3230841 -4.6946497
v -4.278493 -6.556511E-07 -3.7564359
v -2.7116861 1.9664209 -3.8256252
v -4.240363 0.32308438 -3.7226558
v -4.703068 -4.7683716E-07 -1.9941242
v -3.8259363 1.9664212 -3.1794653
v -4.6608696 0.32308456 -1.9772315
v -4.1173115 1.9664212 -1.872967
v -3.80099 1.9664214 -0.51661134
v -3.8627796 1.9664214 0.8498051
v -3.230672 1.9664214 2.9034297
vt 0.6335627 0.75205207
vt 0.6350207 0.7527854
vt 0.63868976 0.7190157
vt 0.6370544 0.7190751
vt 0.6133881 0.71946347
vt 0.62833667 0.6627727
vt 0.6265794 0.6632082
vt 0.62029386 0.61855483
vt 0.57478625 0.7778514
vt 0.575137 0.77893907
vt 0.61067235 0.66708827
vt 0.6190141 0.6191742
vt 0.6051342 0.60257614
vt 0.6009733 0.63158953
vt 0.6042714 0.6034616
vt 0.5792122 0.57950693
vt 0.59302 0.615489
vt 0.57905376 0.5805717
vt 0.53927666 0.56721467
vt 0.57223976 0.66325796
vt 0.5394814 0.5685448
vt 0.52260935 0.58583444
vt 0.57575566 0.60171616
vt 0.59089434 0.62869203
vt 0.56716466 0.6568111
vt 0.5235749 0.5867791
vt 0.51600474 0.66557753
vt 0.54277873 0.5960907
vt 0.5323037 0.5993884
vt 0.51659155 0.6657299
vt 0.5095527 0.6864457
vt 0.5432977 0.66051465
vt 0.52551436 0.6538974
vt 0.53754145 0.66767
vt 0.5101901 0.686874
vt 0.48656937 0.7120388
vt 0.53482574 0.70588446
vt 0.4874943 0.71247953
vt 0.48556912 0.7388411
vt 0.50340056 0.7186872
vt 0.4865244 0.73866713
vt 0.5021593 0.7741286
vt 0.50068486 0.7386673
vt 0.5030129 0.77319586
vt 0.5313079 0.78549606
vt 0.51200336 0.7631666
vt 0.53140855 0.78433365
vt 0.53308 0.76931643
vt 0.5550348 0.76130056
vt 0.5773079 0.7619452
vt 0.6104788 0.7464266
vt 0.6335627 0.75205207
vt 0.63868976 0.7190157
vt 0.6350207 0.7527854
vt 0.6370544 0.7190751
vt 0.6133881 0.71946347
vt 0.62833667 0.6627727
vt 0.6265794 0.6632082
vt 0.62029386 0.61855483
vt 0.57478625 0.7778514
vt 0.575137 0.77893907
vt 0.61067235 0.66708827
vt 0.6190141 0.6191742
vt 0.6051342 0.60257614
vt 0.6009733 0.63158953
vt 0.6042714 0.6034616
vt 0.5792122 0.57950693
vt 0.59302 0.615489
vt 0.57905376 0.5805717
vt 0.53927666 0.56721467
vt 0.57223976 0.66325796
vt 0.5394814 0.5685448
vt 0.52260935 0.58583444
vt 0.57575566 0.60171616
vt 0.59089434 0.62869203
vt 0.56716466 0.6568111
vt 0.5235749 0.5867791
vt 0.51600474 0.66557753
vt 0.54277873 0.5960907
vt 0.5323037 0.5993884
vt 0.51659155 0.6657299
vt 0.5095527 0.6864457
vt 0.5432977 0.66051465
vt 0.52551436 0.6538974
vt 0.53754145 0.66767
vt 0.5101901 0.686874
vt 0.48656937 0.7120388
vt 0.53482574 0.70588446
vt 0.4874943 0.71247953
vt 0.48556912 0.7388411
vt 0.50340056 0.7186872
vt 0.4865244 0.73866713
vt 0.5021593 0.7741286
vt 0.50068486 0.7386673
vt 0.5030129 0.77319586
vt 0.5313079 0.78549606
vt 0.51200336 0.7631666
vt 0.53140855 0.78433365
vt 0.53308 0.76931643
vt 0.5550348 0.76130056
vt 0.5773079 0.7619452
vt 0.6104788 0.7464266
vn -0.5981866 -0.37467426 0.70837265
vn -0.663648 0 0.74804497
vn 0.02128077 0 0.99977356
vn 0.012022853 -0.3907718 0.920409
vn -0.028786544 -0.9006919 0.43350372
vn 0.21675964 0 0.976225
vn 0.22566333 -0.3495853 0.9093219
vn 0.52358514 0 0.85197335
vn -0.9540607 -0.26472825 0.140311
vn -0.98735934 0 0.1584978
vn 0.14633527 -0.87331736 0.46465346
vn 0.49372873 -0.37615982 0.78405076
vn 0.80039805 0 0.5994689
vn 0.36451352 -0.8476466 0.38551918
vn 0.73687357 -0.39461485 0.54890466
vn 0.9125558 0 0.40895224
vn 0.5169073 -0.8215054 0.24069841
vn 0.8363425 -0.40564153 0.36876306
vn 0.9779076 0 -0.2090377
vn 0.34616616 -0.92543536 -0.1540726
vn 0.8871162 -0.42575952 -0.17819604
vn 0.5190564 0 -0.85473996
vn 0.40724227 -0.8958218 0.17792419
vn 0.4467006 -0.8562107 -0.25954157
vn 0.5197616 -0.82697713 -0.2143752
vn 0.47937858 -0.33121207 -0.81270826
vn 0.28242716 0 -0.9592888
vn 0.3782032 -0.92570895 -0.0050252047
vn 0.30423373 -0.8412385 -0.4469448
vn 0.19358328 -0.3610754 -0.91222256
vn 0.6278461 0 -0.77833754
vn 0.5463706 -0.837038 0.029095074
vn 0.03337978 -0.7911714 -0.610683
vn 0.4096955 -0.8705037 -0.2727139
vn 0.58760446 -0.38019648 -0.7142629
vn 0.45537406 0 -0.8903002
vn 0.17088024 -0.96679026 -0.19004342
vn 0.4656743 -0.28904313 -0.8364219
vn -0.24562535 0 -0.9693648
vn 0.37900665 -0.82175964 -0.42551735
vn -0.21275342 -0.29344857 -0.9319999
vn -0.8095862 0 -0.58700097
vn -0.1284165 -0.8058344 -0.5780486
vn -0.77728206 -0.26342773 -0.57134795
vn -0.9947259 0 -0.10256871
vn -0.53332835 -0.7647981 -0.36144808
vn -0.9672907 -0.24180965 -0.076660134
vn -0.63684946 -0.7709657 0.0058928253
vn -0.5168114 -0.85544854 0.03337157
vn -0.5889449 -0.80411714 0.08086707
vn -0.4515053 -0.8135225 0.3665026
vn -0.5981866 0.37467432 0.7083727
vn 0.02128077 0 0.99977356
vn -0.663648 0 0.74804497
vn 0.012022952 0.39077184 0.920409
vn -0.028786289 0.90069187 0.43350378
vn 0.21675964 0 0.976225
vn 0.22566342 0.3495852 0.9093219
vn 0.52358514 0 0.85197335
vn -0.9540607 0.2647283 0.14031099
vn -0.98735934 0 0.1584978
vn 0.14633556 0.87331736 0.4646534
vn 0.49372888 0.3761597 0.78405076
vn 0.80039805 0 0.5994689
vn 0.36451393 0.8476466 0.38551906
vn 0.73687375 0.39461473 0.54890466
vn 0.9125558 0 0.40895224
vn 0.5169076 0.8215052 0.24069841
vn 0.8363426 0.40564135 0.36876294
vn 0.9779076 0 -0.2090377
vn 0.34616658 0.9254352 -0.15407276
vn 0.8871162 0.42575926 -0.17819603
vn 0.5190564 0 -0.85473996
vn 0.40724263 0.8958217 0.17792414
vn 0.44670087 0.85621053 -0.25954166
vn 0.519762 0.8269769 -0.21437524
vn 0.47937873 0.33121184 -0.8127083
vn 0.28242716 0 -0.9592888
vn 0.37820354 0.9257089 -0.0050253076
vn 0.30423406 0.8412383 -0.44694486
vn 0.19358341 0.36107522 -0.9122227
vn 0.6278461 0 -0.77833754
vn 0.54637104 0.83703774 0.02909494
vn 0.033380046 0.7911712 -0.6106831
vn 0.409696 0.87050354 -0.27271396
vn 0.5876045 0.3801964 -0.71426296
vn 0.45537406 0 -0.8903002
vn 0.17088053 0.96679026 -0.19004348
vn 0.46567428 0.28904304 -0.8364218
vn -0.24562535 0 -0.9693648
vn 0.37900677 0.82175946 -0.4255174
vn -0.21275333 0.29344854 -0.9319999
vn -0.8095862 0 -0.58700097
vn -0.12841631 0.80583423 -0.57804877
vn -0.77728206 0.2634278 -0.5713481
vn -0.9947259 0 -0.10256871
vn -0.5333283 0.76479805 -0.36144826
vn -0.9672907 0.24180967 -0.07666015
vn -0.6368492 0.7709659 0.0058927196
vn -0.51681125 0.8554486 0.0333715
vn -0.5889447 0.8041173 0.08086694
vn -0.4515051 0.8135226 0.36650252
g mbg002_rock_53_0
f 3/3/3 2/2/2 1/1/1
f 4/4/4 3/3/3 1/1/1
f 5/5/5 4/4/4 1/1/1
f 6/6/6 3/3/3 4/4/4
f 7/7/7 6/6/6 4/4/4
f 8/8/8 6/6/6 7/7/7
f 1/1/1 2/2/2 9/9/9
f 2/2/2 10/10/10 9/9/9
f 4/4/4 5/5/5 11/11/11
f 7/7/7 4/4/4 11/11/11
f 12/12/12 8/8/8 7/7/7
f 13/13/13 8/8/8 12/12/12
f 7/7/7 11/11/11 14/14/14
f 12/12/12 7/7/7 14/14/14
f 15/15/15 13/13/13 12/12/12
f 16/16/16 13/13/13 15/15/15
f 15/15/15 12/12/12 17/17/17
f 17/17/17 12/12/12 14/14/14
f 18/18/18 16/16/16 15/15/15
f 18/18/18 15/15/15 17/17/17
f 19/19/19 16/16/16 18/18/18
f 14/14/14 11/11/11 20/20/20
f 11/11/11 5/5/5 20/20/20
f 21/21/21 19/19/19 18/18/18
f 22/22/22 19/19/19 21/21/21
f 23/23/23 18/18/18 17/17/17
f 21/21/21 18/18/18 23/23/23
f 17/17/17 14/14/14 24/24/24
f 24/24/24 14/14/14 20/20/20
f 17/17/17 24/24/24 25/25/25
f 23/23/23 17/17/17 25/25/25
f 24/24/24 20/20/20 25/25/25
f 26/26/26 22/22/22 21/21/21
f 27/27/27 22/22/22 26/26/26
f 28/28/28 21/21/21 23/23/23
f 28/28/28 23/23/23 25/25/25
f 29/29/29 21/21/21 28/28/28
f 26/26/26 21/21/21 29/29/29
f 30/30/30 27/27/27 26/26/26
f 31/31/31 27/27/27 30/30/30
f 32/32/32 28/28/28 25/25/25
f 29/29/29 28/28/28 32/32/32
f 26/26/26 29/29/29 33/33/33
f 33/33/33 29/29/29 32/32/32
f 30/30/30 26/26/26 33/33/33
f 34/34/34 32/32/32 25/25/25
f 33/33/33 32/32/32 34/34/34
f 20/20/20 34/34/34 25/25/25
f 34/34/34 30/30/30 33/33/33
f 35/35/35 31/31/31 30/30/30
f 35/35/35 30/30/30 34/34/34
f 36/36/36 31/31/31 35/35/35
f 34/34/34 20/20/20 37/37/37
f 37/37/37 35/35/35 34/34/34
f 20/20/20 5/5/5 37/37/37
f 38/38/38 36/36/36 35/35/35
f 39/39/39 36/36/36 38/38/38
f 40/40/40 35/35/35 37/37/37
f 38/38/38 35/35/35 40/40/40
f 41/41/41 39/39/39 38/38/38
f 42/42/42 39/39/39 41/41/41
f 41/41/41 38/38/38 43/43/43
f 43/43/43 38/38/38 40/40/40
f 44/44/44 42/42/42 41/41/41
f 44/44/44 41/41/41 43/43/43
f 45/45/45 42/42/42 44/44/44
f 43/43/43 40/40/40 46/46/46
f 46/46/46 44/44/44 43/43/43
f 47/47/47 45/45/45 44/44/44
f 47/47/47 44/44/44 46/46/46
f 10/10/10 45/45/45 47/47/47
f 9/9/9 10/10/10 47/47/47
f 40/40/40 48/48/48 46/46/46
f 40/40/40 37/37/37 48/48/48
f 48/48/48 47/47/47 46/46/46
f 37/37/37 49/49/49 48/48/48
f 49/49/49 47/47/47 48/48/48
f 9/9/9 47/47/47 49/49/49
f 5/5/5 49/49/49 37/37/37
f 49/49/49 50/50/50 9/9/9
f 50/50/50 49/49/49 5/5/5
f 1/1/1 9/9/9 50/50/50
f 51/51/51 5/5/5 1/1/1
f 51/51/51 1/1/1 50/50/50
f 51/51/51 50/50/50 5/5/5
f 54/54/54 53/53/53 52/52/52
f 53/53/53 55/55/55 52/52/52
f 52/52/52 55/55/55 56/56/56
f 53/53/53 57/57/57 55/55/55
f 57/57/57 58/58/58 55/55/55
f 57/57/57 59/59/59 58/58/58
f 54/54/54 52/52/52 60/60/60
f 61/61/61 54/54/54 60/60/60
f 56/56/56 55/55/55 62/62/62
f 55/55/55 58/58/58 62/62/62
f 59/59/59 63/63/63 58/58/58
f 59/59/59 64/64/64 63/63/63
f 65/65/65 62/62/62 58/58/58
f 63/63/63 65/65/65 58/58/58
f 64/64/64 66/66/66 63/63/63
f 64/64/64 67/67/67 66/66/66
f 63/63/63 66/66/66 68/68/68
f 63/63/63 68/68/68 65/65/65
f 67/67/67 69/69/69 66/66/66
f 66/66/66 69/69/69 68/68/68
f 67/67/67 70/70/70 69/69/69
f 62/62/62 65/65/65 71/71/71
f 56/56/56 62/62/62 71/71/71
f 70/70/70 72/72/72 69/69/69
f 70/70/70 73/73/73 72/72/72
f 69/69/69 74/74/74 68/68/68
f 69/69/69 72/72/72 74/74/74
f 65/65/65 68/68/68 75/75/75
f 65/65/65 75/75/75 71/71/71
f 75/75/75 68/68/68 76/76/76
f 68/68/68 74/74/74 76/76/76
f 71/71/71 75/75/75 76/76/76
f 73/73/73 77/77/77 72/72/72
f 73/73/73 78/78/78 77/77/77
f 72/72/72 79/79/79 74/74/74
f 74/74/74 79/79/79 76/76/76
f 72/72/72 80/80/80 79/79/79
f 72/72/72 77/77/77 80/80/80
f 78/78/78 81/81/81 77/77/77
f 78/78/78 82/82/82 81/81/81
f 79/79/79 83/83/83 76/76/76
f 79/79/79 80/80/80 83/83/83
f 84/84/84 80/80/80 77/77/77
f 80/80/80 84/84/84 83/83/83
f 81/81/81 84/84/84 77/77/77
f 83/83/83 85/85/85 76/76/76
f 83/83/83 84/84/84 85/85/85
f 85/85/85 71/71/71 76/76/76
f 81/81/81 85/85/85 84/84/84
f 82/82/82 86/86/86 81/81/81
f 81/81/81 86/86/86 85/85/85
f 82/82/82 87/87/87 86/86/86
f 71/71/71 85/85/85 88/88/88
f 86/86/86 88/88/88 85/85/85
f 56/56/56 71/71/71 88/88/88
f 87/87/87 89/89/89 86/86/86
f 87/87/87 90/90/90 89/89/89
f 86/86/86 91/91/91 88/88/88
f 86/86/86 89/89/89 91/91/91
f 90/90/90 92/92/92 89/89/89
f 90/90/90 93/93/93 92/92/92
f 89/89/89 92/92/92 94/94/94
f 89/89/89 94/94/94 91/91/91
f 93/93/93 95/95/95 92/92/92
f 92/92/92 95/95/95 94/94/94
f 93/93/93 96/96/96 95/95/95
f 94/94/94 97/97/97 91/91/91
f 95/95/95 97/97/97 94/94/94
f 96/96/96 98/98/98 95/95/95
f 95/95/95 98/98/98 97/97/97
f 96/96/96 61/61/61 98/98/98
f 61/61/61 60/60/60 98/98/98
f 97/97/97 99/99/99 91/91/91
f 91/91/91 99/99/99 88/88/88
f 98/98/98 99/99/99 97/97/97
f 99/99/99 100/100/100 88/88/88
f 98/98/98 100/100/100 99/99/99
f 98/98/98 60/60/60 100/100/100
f 100/100/100 56/56/56 88/88/88
f 101/101/101 100/100/100 60/60/60
f 100/100/100 101/101/101 56/56/56
f 60/60/60 52/52/52 101/101/101
f 102/102/102 52/52/52 56/56/56
f 52/52/52 102/102/102 101/101/101
f 101/101/101 102/102/102 56/56/56
