g Object037
v 0.87004375 0.39284647 -4.9605966E-05
v 0.635973 1.1562364 -4.9605966E-05
v 1.0114255 1.3281 -4.9598515E-05
v 0.11463356 0.30241 -4.9605966E-05
v 0.27422714 -0.21626967 -4.9605966E-05
v -0.23115349 0.07897875 -4.9605966E-05
v -0.12475777 -0.25616807 -4.9605966E-05
vt 0.3341524 0.70168495
vt 0.25863624 0.94797087
vt 0.3797652 1.0034176
vt 0.09044093 0.67250824
vt 0.14192918 0.5051711
vt -0.02111739 0.6004246
vt 0.013208151 0.49229908
vn -0 0 1
vn -0 0 1
vn -0 0 1
vn -0 0 1
vn -0 0 1
vn -0 0 1
vn -0 0 1
g Object037_0
f 3/3/3 2/2/2 1/1/1
f 2/2/2 4/4/4 1/1/1
f 4/4/4 5/5/5 1/1/1
f 6/6/6 5/5/5 4/4/4
f 7/7/7 5/5/5 6/6/6
