g Object039
v 0.15157127 0.5735996 -4.9635768E-05
v -0.088024974 -0.32328174 -4.9613416E-05
v -0.3130957 0.10358104 -4.9620867E-05
v 0.2531879 -0.04483384 -4.9628317E-05
v 0.5207169 0.24120131 -4.9628317E-05
v 0.5382295 0.8331096 -4.9635768E-05
v 0.9243872 0.9078747 -4.964322E-05
v 0.92580104 0.9157084 -4.964322E-05
v 0.89247066 0.31384012 -4.9613416E-05
v 1.614065 0.7086605 -4.9620867E-05
v 1.2182729 0.42430866 -4.9613416E-05
v 1.750218 0.20744854 -4.9583614E-05
vt 0.09044093 0.67250824
vt 0.013208151 0.49229908
vt -0.02111739 0.6004246
vt 0.14192918 0.5051711
vt 0.23181453 0.5970628
vt 0.13918647 0.75234145
vt 0.1829584 0.81921464
vt 0.18096492 0.82076424
vt 0.3341524 0.70168495
vt 0.25863624 0.94797087
vt 0.3534248 0.8291736
vt 0.3797652 1.0034176
vn -0 0 1
vn -0 0 1
vn -0 0 1
vn -0 0 1
vn -0 0 1
vn -0 0 1
vn -0 0 1
vn -0 0 1
vn -0 0 1
vn -0 0 1
vn -0 0 1
vn -0 0 1
g Object039_0
f 3/3/3 2/2/2 1/1/1
f 4/4/4 1/1/1 2/2/2
f 4/4/4 5/5/5 1/1/1
f 1/1/1 5/5/5 6/6/6
f 6/6/6 5/5/5 7/7/7
f 8/8/8 6/6/6 7/7/7
f 9/9/9 7/7/7 5/5/5
f 8/8/8 7/7/7 10/10/10
f 9/9/9 11/11/11 7/7/7
f 7/7/7 11/11/11 10/10/10
f 12/12/12 10/10/10 11/11/11
