g outpost_pipe_01
v -2.1483688 -1.9767089 0.17187595
v -1.8408508 1.1061292 0.3364296
v -1.8652611 -1.9767089 0.33670044
v -2.1124954 1.1575785 0.17147207
v -1.636303 1.4841461 0.3354087
v -2.152195 -1.9767079 -0.16418314
v -1.8272667 1.6760445 0.17033672
v -1.252922 1.6856542 0.33549213
v -2.1163216 1.1575799 -0.16458845
v -1.2531242 1.976707 0.16809273
v 1.8711624 1.6876016 0.33549213
v 1.9478455 1.9683719 0.16809273
v -1.8310585 1.6774888 -0.16572046
v -1.2535248 1.9767089 -0.16671276
v 1.9477005 1.9684148 -0.16671276
v -1.8485069 1.1061282 -0.3356862
v -1.8729095 -1.9767079 -0.3354144
v -1.6438828 1.4870315 -0.33670092
v -1.2537308 1.6856561 -0.3341093
v 1.8708572 1.6876884 -0.3341093
v -1.5768661 1.0546775 -0.1707282
v -1.5882492 -1.9767079 -0.17060518
v -1.4529076 1.2951341 -0.17162848
v -1.2535248 1.3946023 -0.16671276
v 1.7941666 1.40692 -0.16671324
vt 0.76754415 0.70106953
vt 0.7239794 0.7466073
vt 0.77198255 0.7072571
vt 0.71940446 0.7418685
vt 0.7173175 0.7528574
vt 0.7627365 0.69561493
vt 0.7119131 0.74863625
vt 0.7116948 0.7611984
vt 0.71462643 0.73709714
vt 0.70578945 0.7580003
vt 0.67906743 0.81958455
vt 0.67283016 0.8151543
vt 0.7069849 0.7446657
vt 0.699842 0.75328857
vt 0.6674497 0.8101463
vt 0.71940446 0.7418685
vt 0.76754415 0.70106953
vt 0.7119131 0.74863625
vt 0.70578945 0.7580003
vt 0.67283016 0.8151543
vt 0.7239794 0.7466073
vt 0.77198255 0.7072571
vt 0.7173175 0.7528574
vt 0.7116948 0.7611984
vt 0.67906743 0.81958455
vn -0.8670968 0.00946794 0.4980497
vn -0.4925868 0.13629654 0.859524
vn -0.51064223 0.0050446936 0.8597785
vn -0.85411924 0.22298673 0.46984816
vn -0.36306238 0.37349224 0.853633
vn -0.8782123 0.009469217 -0.47817737
vn -0.6209533 0.6358502 0.4583792
vn -0.14036228 0.4950542 0.85744965
vn -0.8642921 0.22402333 -0.45034745
vn -0.2018198 0.8615514 0.46583048
vn 0.0005102156 0.50521046 0.86299604
vn 0.001883211 0.8889133 0.45807168
vn -0.6268342 0.6396523 -0.44488612
vn -0.20195292 0.86332786 -0.4624717
vn 0.0018784428 0.8890721 -0.45776334
vn -0.08704647 0.029016718 -0.99578154
vn -0.014559718 0.0011959139 -0.9998933
vn -0.07448526 0.0788125 -0.9941029
vn -0.03675933 0.07599406 -0.99643046
vn 0.00090959825 0.08578891 -0.9963129
vn 0.4937439 -0.1314568 -0.85961384
vn 0.50971484 -0.003038845 -0.86033803
vn 0.36588138 -0.37032104 -0.853811
vn 0.1419515 -0.49454525 -0.8574817
vn 0.0011748726 -0.5053717 -0.862901
g outpost_pipe_01_0
f 3/3/3 2/2/2 1/1/1
f 2/2/2 4/4/4 1/1/1
f 2/2/2 5/5/5 4/4/4
f 1/1/1 4/4/4 6/6/6
f 5/5/5 7/7/7 4/4/4
f 5/5/5 8/8/8 7/7/7
f 4/4/4 9/9/9 6/6/6
f 4/4/4 7/7/7 9/9/9
f 8/8/8 10/10/10 7/7/7
f 8/8/8 11/11/11 10/10/10
f 11/11/11 12/12/12 10/10/10
f 7/7/7 10/10/10 13/13/13
f 7/7/7 13/13/13 9/9/9
f 10/10/10 12/12/12 14/14/14
f 10/10/10 14/14/14 13/13/13
f 12/12/12 15/15/15 14/14/14
f 6/6/6 9/9/9 16/16/16
f 17/17/17 6/6/6 16/16/16
f 9/9/9 13/13/13 18/18/18
f 13/13/13 14/14/14 18/18/18
f 16/16/16 9/9/9 18/18/18
f 14/14/14 15/15/15 19/19/19
f 14/14/14 19/19/19 18/18/18
f 15/15/15 20/20/20 19/19/19
f 17/17/17 16/16/16 21/21/21
f 22/22/22 17/17/17 21/21/21
f 21/21/21 16/16/16 23/23/23
f 16/16/16 18/18/18 23/23/23
f 18/18/18 19/19/19 23/23/23
f 19/19/19 24/24/24 23/23/23
f 19/19/19 20/20/20 24/24/24
f 20/20/20 25/25/25 24/24/24
