g outpost_armybox_01
v 0.7910894 -0.0015352351 0.5098696
v 0.7910894 0.83184206 0.50986844
v 0.87260365 0.8318753 0.4042262
v 0.8726036 -0.0015352305 0.40422747
v 0.87260395 -0.0015351956 -0.39340383
v 0.8726038 0.8318753 -0.39340612
v 0.7465934 0.831823 -0.5131895
v 0.7465936 -0.000248594 -0.5131883
v -3.4098877E-05 -0.000248594 -0.5131886
v -3.4114782E-05 0.831823 -0.51318973
v -0.7466618 0.831823 -0.51319003
v -0.7466617 -0.000248594 -0.5131889
v -0.8726722 -0.0015351956 -0.3934045
v -0.87267226 0.8318753 -0.39340672
v -0.8726724 0.8318753 0.40422556
v -0.8726722 -0.0015351956 -0.3934045
v -0.87267226 0.8318753 -0.39340672
v -0.8726725 -0.0015352305 0.40422675
v -0.7911583 -0.0015352351 0.5098691
v -0.79115814 0.83184206 0.5098679
v -0.755803 1.0441108 0.42522466
v 0.0059112245 0.9044935 0.53590035
v -0.8229076 0.90353405 0.5359001
v 0.0059112567 1.0441108 0.42548388
v 0.83472985 0.90353405 0.5359005
v 0.76762563 1.0441108 0.4252249
v -0.7558029 1.0441107 -0.41041267
v 0.7676257 1.0441107 -0.41041243
v 0.0059113996 1.0441107 -0.41041252
v 0.0059114154 0.90334606 -0.53590316
v -0.7762911 0.90334606 -0.53590333
v -0.90830547 0.9038612 -0.41041267
v -0.755803 1.0441108 0.42522466
v -0.9083056 0.9038612 0.4252246
v -0.8229076 0.90353405 0.5359001
v -0.9083055 0.7362272 0.4252248
v -0.8229072 0.73619527 0.5359003
v -0.9083053 0.7362272 -0.41041246
v -0.7762911 0.7361771 -0.5359033
v 0.0059114313 0.7361771 -0.535903
v 0.78811395 0.90334606 -0.5359031
v 0.78811395 0.7361771 -0.53590286
v 0.9201283 0.7362272 -0.41041195
v 0.92012817 0.9038612 -0.41041234
v 0.76762563 1.0441108 0.4252249
v 0.9201283 0.7362272 0.42522496
v 0.9201283 0.9038612 0.425225
v 0.83472985 0.90353405 0.5359005
v 0.8347299 0.73619527 0.5359005
v 0.6275103 1.0806412 0.05667809
v 0.6435902 1.0380962 -0.02523407
v 0.6435903 1.0380962 0.065847665
v 0.62751025 1.0806412 -0.01606451
v 0.49656954 1.0806412 -0.016064528
v 0.4965696 1.0806412 0.05667809
v 0.48048937 1.0380962 -0.025234086
v 0.6435902 1.0380962 -0.02523407
v 0.48048937 1.0380962 -0.025234086
v 0.4804895 1.0380962 0.065847665
v 0.2692698 1.2904234 0.11379247
v 0.28795397 1.186647 -0.11386178
v 0.28795388 1.186647 0.14561816
v 0.26926976 1.2904234 -0.082036205
v -0.29097834 1.2904234 -0.08203624
v -0.29097843 1.2904234 0.11379246
v -0.30966258 1.186647 -0.11386182
v 0.28795397 1.186647 -0.11386178
v -0.30966258 1.186647 -0.11386182
v -0.30966258 1.186647 0.14561813
v 0.22536695 1.2170887 -0.07484318
v 0.52894026 1.0045242 -0.07484319
v 0.5632364 1.0535041 -0.07504226
v 0.25966305 1.2660685 -0.07504227
v 0.25973865 1.2660154 -0.03606803
v 0.5394748 1.0701424 -0.036068033
v 0.5632365 1.0535042 0.11327504
v 0.5394748 1.0701424 0.07360255
v 0.25966305 1.2660685 0.11327505
v 0.25973868 1.2660154 0.073602565
v 0.50892836 1.0265174 0.07360256
v 0.22919217 1.2223907 0.07360255
v 0.5394748 1.0701424 0.07360255
v 0.50892836 1.0265174 0.07360256
v 0.50892824 1.0265174 -0.03606803
v 0.5394748 1.0701424 -0.036068033
v -0.64778024 1.0806412 0.05667763
v -0.6638602 1.0380962 0.06584717
v -0.6638601 1.0380962 -0.025234539
v -0.6477801 1.0806412 -0.016064964
v -0.5168394 1.0806412 -0.016064873
v -0.5168395 1.0806412 0.056677748
v -0.50075924 1.0380962 -0.025234414
v -0.6638601 1.0380962 -0.025234539
v -0.50075924 1.0380962 -0.025234414
v -0.5007594 1.0380962 0.06584734
v -0.24563673 1.2170887 -0.07484331
v -0.5835062 1.0535041 -0.07504264
v -0.54921 1.0045242 -0.07484354
v -0.27993283 1.2660685 -0.0750424
v -0.28000852 1.2660154 -0.036068182
v -0.55974466 1.0701424 -0.036068413
v -0.58350646 1.0535042 0.113274656
v -0.5597447 1.0701424 0.07360216
v -0.27993295 1.2660685 0.11327486
v -0.28000858 1.2660154 0.07360241
v -0.5291983 1.0265174 0.07360219
v -0.24946214 1.2223907 0.07360242
v -0.5597447 1.0701424 0.07360216
v -0.55974466 1.0701424 -0.036068413
v -0.5291981 1.0265174 -0.036068376
v -0.5291983 1.0265174 0.07360219
vt 0.2831443 0.5287325
vt 0.2831443 0.5611481
vt 0.2868089 0.56127596
vt 0.2868089 0.52873915
vt 0.31771672 0.5287378
vt 0.31771672 0.56127596
vt 0.3219598 0.5601236
vt 0.3219598 0.5299682
vt 0.34270817 0.5299747
vt 0.34270817 0.56011707
vt 0.3648661 0.5601236
vt 0.3648661 0.5299682
vt 0.36978474 0.5287378
vt 0.36978474 0.56127596
vt 0.28681248 0.56127596
vt 0.3177203 0.5287378
vt 0.3177203 0.56127596
vt 0.28681248 0.52873915
vt 0.28314787 0.5287325
vt 0.28314787 0.5611481
vt 0.36650923 0.6106657
vt 0.34350315 0.6152683
vt 0.3685615 0.6152683
vt 0.34350315 0.6106657
vt 0.31858158 0.6152683
vt 0.32056633 0.6106657
vt 0.36650923 0.5764206
vt 0.32056633 0.5764206
vt 0.34350315 0.5764206
vt 0.34350315 0.5700516
vt 0.36424163 0.5700516
vt 0.3694059 0.5711674
vt 0.4007499 0.5763965
vt 0.399478 0.5711674
vt 0.40320903 0.5711674
vt 0.399478 0.5666907
vt 0.40320903 0.5666907
vt 0.3694059 0.5666907
vt 0.36424163 0.5658739
vt 0.34350315 0.5658739
vt 0.32348555 0.5700516
vt 0.32348555 0.5658739
vt 0.31704777 0.56667465
vt 0.31704777 0.5715753
vt 0.28625453 0.5764206
vt 0.28752643 0.56667465
vt 0.28752643 0.5715753
vt 0.2837954 0.5715753
vt 0.2837954 0.56667465
vt 0.4127809 0.56975377
vt 0.4067749 0.5584965
vt 0.4067749 0.571015
vt 0.41278282 0.5597527
vt 0.42606273 0.5597527
vt 0.42606464 0.56975377
vt 0.4276897 0.5538355
vt 0.41115585 0.5538355
vt 0.43207064 0.5584965
vt 0.43207064 0.5710151
vt 0.385081 0.55025584
vt 0.37918752 0.53472215
vt 0.3791873 0.5518196
vt 0.38508123 0.5362861
vt 0.4240386 0.5362871
vt 0.4240386 0.5502569
vt 0.42403907 0.52951396
vt 0.38508147 0.5295132
vt 0.42993206 0.53472304
vt 0.42993253 0.5518205
vt 0.37267682 0.614163
vt 0.37267682 0.58017665
vt 0.37891445 0.58017665
vt 0.37891445 0.614163
vt 0.38295895 0.614163
vt 0.38295895 0.58301556
vt 0.3991122 0.58017665
vt 0.39487 0.58301556
vt 0.39911243 0.614163
vt 0.39487025 0.614163
vt 0.38918588 0.58301556
vt 0.3891861 0.614163
vt 0.4179585 0.57934225
vt 0.41795874 0.5741
vt 0.40613437 0.57409966
vt 0.40613437 0.5793419
vt 0.4127809 0.56975377
vt 0.4067749 0.571015
vt 0.4067749 0.5584965
vt 0.41278282 0.5597527
vt 0.42606273 0.5597527
vt 0.42606464 0.56975377
vt 0.4276897 0.5538355
vt 0.41115585 0.5538355
vt 0.43207064 0.5584965
vt 0.43207064 0.5710151
vt 0.37267682 0.614163
vt 0.37891445 0.58017665
vt 0.37267682 0.58017665
vt 0.37891445 0.614163
vt 0.38295895 0.614163
vt 0.38295895 0.58301556
vt 0.3991122 0.58017665
vt 0.39487 0.58301556
vt 0.39911243 0.614163
vt 0.39487025 0.614163
vt 0.38918588 0.58301556
vt 0.3891861 0.614163
vt 0.4179585 0.57934225
vt 0.40613437 0.5793419
vt 0.40613437 0.57409966
vt 0.41795874 0.5741
vn 0.791714 0 0.6108919
vn 0.791714 0 0.6108919
vn 0.94650596 0 0.32268614
vn 0.94649714 0 0.32271236
vn 0.91935897 0 -0.39341968
vn 0.91897553 0 -0.3943144
vn 0.3709893 0 -0.92863715
vn 0.37182564 0 -0.9283026
vn -0 0 -1
vn -0 0 -1
vn -0.37098867 0 -0.9286375
vn -0.3718249 0 -0.9283029
vn -0.9193587 0 -0.39342034
vn -0.9189753 0 -0.39431494
vn -0.9465062 0 0.32268554
vn -0.9193587 0 -0.39342034
vn -0.9189753 0 -0.39431494
vn -0.9464973 0 0.3227117
vn -0.7917145 0 0.6108912
vn -0.7917146 0 0.6108912
vn -0.29904222 0.87957793 0.37002206
vn -0 0.61952186 0.78497934
vn -0.5625251 0.444843 0.6969077
vn -0 0.89983016 0.4362405
vn 0.56252354 0.4448434 0.69690865
vn 0.29904222 0.87957793 0.37002212
vn -0.31567305 0.8781876 -0.3593564
vn 0.31567317 0.8781876 -0.35935628
vn -0 0.91253734 -0.4089933
vn -0 0.35605898 -0.9344635
vn -0.34022424 0.329617 -0.88068163
vn -0.86612153 0.35716256 -0.34966895
vn -0.29904222 0.87957793 0.37002206
vn -0.8851921 0.36610198 0.2870614
vn -0.5625251 0.444843 0.6969077
vn -0.946489 0 0.322736
vn -0.7917135 0 0.6108927
vn -0.9189444 0 -0.39438704
vn -0.37092036 0 -0.92866474
vn -0 0 -1
vn 0.3402247 0.32961684 -0.8806816
vn 0.37092078 0 -0.9286645
vn 0.9189447 0 -0.39438647
vn 0.8661215 0.3571628 -0.34966886
vn 0.29904222 0.87957793 0.37002212
vn 0.9464889 0 0.32273656
vn 0.8851916 0.3661023 0.2870624
vn 0.56252354 0.4448434 0.69690865
vn 0.7917125 0 0.6108939
vn 0.60188055 0.7985862 0
vn 0.67525965 0.3901266 -0.6259598
vn 0.9354181 0.35354334 0
vn 0.4582411 0.7202531 -0.52081716
vn -0.45824003 0.720254 -0.520817
vn -0.6018785 0.7985877 0
vn -0.6752599 0.39012942 -0.6259577
vn 0.67525965 0.3901266 -0.6259598
vn -0.6752599 0.39012942 -0.6259577
vn -0.93541676 0.35354677 0
vn 0.6943815 0.71960706 0
vn 0.6468245 0.32765257 -0.68866676
vn 0.9841761 0.17719352 0
vn 0.5306099 0.69755787 -0.48152483
vn -0.5306096 0.6975579 -0.48152488
vn -0.69438136 0.7196073 0
vn -0.6468243 0.32765278 -0.68866676
vn 0.6468245 0.32765257 -0.68866676
vn -0.6468243 0.32765278 -0.68866676
vn -0.984176 0.17719391 0
vn -0.0019096885 -0.0027273172 -0.9999945
vn -0.0019096885 -0.0027273172 -0.9999945
vn 0.4049047 0.5782623 -0.708283
vn 0.40459555 0.57782286 -0.7088182
vn 0.5735761 0.8191523 0
vn 0.28510517 0.9584963 0
vn 0.5735774 0.81915146 0
vn 0.271837 0.9138902 -0.30151194
vn 0.573576 0.8191523 0
vn 0.40587938 0.5796565 -0.7065835
vn -0.5792289 0.4055796 -0.7071061
vn -0 0 -1
vn 0.271837 0.9138902 -0.30151194
vn -0.5792289 0.4055796 -0.7071061
vn -0.81915265 0.5735756 0
vn 0.28510517 0.9584963 0
vn -0.6018804 0.79858625 0
vn -0.9354181 0.35354337 0
vn -0.67525923 0.3901266 -0.6259603
vn -0.45824066 0.7202531 -0.52081746
vn 0.45824072 0.7202538 -0.5208166
vn 0.60187876 0.7985875 0
vn 0.6752604 0.39012894 -0.6259574
vn -0.67525923 0.3901266 -0.6259603
vn 0.6752604 0.39012894 -0.6259574
vn 0.93541706 0.35354623 0
vn 0.0019103579 -0.0027271511 -0.9999945
vn -0.40490428 0.57826245 -0.7082832
vn 0.001910358 -0.0027271516 -0.9999945
vn -0.40459478 0.5778225 -0.7088189
vn -0.5735761 0.8191523 0
vn -0.2851053 0.95849615 0
vn -0.5735774 0.81915146 0
vn -0.2718366 0.9138902 -0.30151218
vn -0.573576 0.8191524 0
vn -0.40587905 0.57965696 -0.7065834
vn 0.5792294 0.40557957 -0.7071057
vn -0 0 -1
vn -0.2718366 0.9138902 -0.30151218
vn -0.2851053 0.95849615 0
vn 0.81915265 0.5735756 0
vn 0.5792294 0.40557957 -0.7071057
g outpost_armybox_01_0
f 3/3/3 2/2/2 1/1/1
f 4/4/4 3/3/3 1/1/1
f 4/4/4 5/5/5 3/3/3
f 5/5/5 6/6/6 3/3/3
f 6/6/6 5/5/5 7/7/7
f 5/5/5 8/8/8 7/7/7
f 8/8/8 9/9/9 7/7/7
f 9/9/9 10/10/10 7/7/7
f 11/11/11 10/10/10 9/9/9
f 12/12/12 11/11/11 9/9/9
f 12/12/12 13/13/13 11/11/11
f 13/13/13 14/14/14 11/11/11
f 17/17/17 16/16/16 15/15/15
f 16/16/16 18/18/18 15/15/15
f 15/15/15 18/18/18 19/19/19
f 20/20/20 15/15/15 19/19/19
f 23/23/23 22/22/22 21/21/21
f 22/22/22 24/24/24 21/21/21
f 22/22/22 25/25/25 24/24/24
f 25/25/25 26/26/26 24/24/24
f 27/27/27 21/21/21 24/24/24
f 24/24/24 26/26/26 28/28/28
f 29/29/29 27/27/27 24/24/24
f 29/29/29 24/24/24 28/28/28
f 27/27/27 29/29/29 30/30/30
f 29/29/29 28/28/28 30/30/30
f 31/31/31 27/27/27 30/30/30
f 27/27/27 31/31/31 32/32/32
f 27/27/27 32/32/32 33/33/33
f 32/32/32 34/34/34 33/33/33
f 34/34/34 35/35/35 33/33/33
f 34/34/34 36/36/36 35/35/35
f 36/36/36 34/34/34 32/32/32
f 36/36/36 37/37/37 35/35/35
f 38/38/38 36/36/36 32/32/32
f 38/38/38 32/32/32 31/31/31
f 39/39/39 38/38/38 31/31/31
f 39/39/39 31/31/31 40/40/40
f 31/31/31 30/30/30 40/40/40
f 40/40/40 30/30/30 41/41/41
f 28/28/28 41/41/41 30/30/30
f 42/42/42 40/40/40 41/41/41
f 43/43/43 42/42/42 41/41/41
f 28/28/28 44/44/44 41/41/41
f 44/44/44 43/43/43 41/41/41
f 44/44/44 28/28/28 45/45/45
f 43/43/43 44/44/44 46/46/46
f 47/47/47 44/44/44 45/45/45
f 44/44/44 47/47/47 46/46/46
f 48/48/48 47/47/47 45/45/45
f 47/47/47 48/48/48 46/46/46
f 48/48/48 49/49/49 46/46/46
f 52/52/52 51/51/51 50/50/50
f 51/51/51 53/53/53 50/50/50
f 50/50/50 53/53/53 54/54/54
f 55/55/55 50/50/50 54/54/54
f 54/54/54 53/53/53 56/56/56
f 53/53/53 57/57/57 56/56/56
f 54/54/54 58/58/58 55/55/55
f 58/58/58 59/59/59 55/55/55
f 62/62/62 61/61/61 60/60/60
f 61/61/61 63/63/63 60/60/60
f 60/60/60 63/63/63 64/64/64
f 65/65/65 60/60/60 64/64/64
f 64/64/64 63/63/63 66/66/66
f 63/63/63 67/67/67 66/66/66
f 64/64/64 68/68/68 65/65/65
f 68/68/68 69/69/69 65/65/65
f 72/72/72 71/71/71 70/70/70
f 73/73/73 72/72/72 70/70/70
f 73/73/73 74/74/74 72/72/72
f 74/74/74 75/75/75 72/72/72
f 72/72/72 75/75/75 76/76/76
f 75/75/75 77/77/77 76/76/76
f 76/76/76 77/77/77 78/78/78
f 77/77/77 79/79/79 78/78/78
f 77/77/77 80/80/80 79/79/79
f 80/80/80 81/81/81 79/79/79
f 84/84/84 83/83/83 82/82/82
f 85/85/85 84/84/84 82/82/82
f 88/88/88 87/87/87 86/86/86
f 89/89/89 88/88/88 86/86/86
f 89/89/89 86/86/86 90/90/90
f 86/86/86 91/91/91 90/90/90
f 89/89/89 90/90/90 92/92/92
f 93/93/93 89/89/89 92/92/92
f 94/94/94 90/90/90 91/91/91
f 95/95/95 94/94/94 91/91/91
f 98/98/98 97/97/97 96/96/96
f 97/97/97 99/99/99 96/96/96
f 100/100/100 99/99/99 97/97/97
f 101/101/101 100/100/100 97/97/97
f 101/101/101 97/97/97 102/102/102
f 103/103/103 101/101/101 102/102/102
f 103/103/103 102/102/102 104/104/104
f 105/105/105 103/103/103 104/104/104
f 106/106/106 103/103/103 105/105/105
f 107/107/107 106/106/106 105/105/105
f 110/110/110 109/109/109 108/108/108
f 111/111/111 110/110/110 108/108/108
