g outpost_balloon_01
v 0.0041503906 -21.89763 -0.1659317
v -0.13951111 -17.07553 0.08293915
v -0.13951111 -21.89763 0.08293152
v 0.0041503906 -17.07553 -0.1659317
v 0.14783478 -21.89763 0.08293152
v 0.14783478 -17.07553 0.08293915
v -0.13951111 -21.89763 0.08293152
v -0.13951111 -17.07553 0.08293915
v 0.5234604 -16.332197 0.7204666
v 6.1035156E-05 -17.079916 0.2667923
v 6.1035156E-05 -16.332197 0.89053345
v 0.25372314 -17.079916 0.14273834
v 1.0095596 -13.984802 1.3894958
v 6.1035156E-05 -13.984802 1.7174988
v 6.1035156E-05 -11.784901 3.8621674
v 0.84697723 -16.332197 0.2752304
v 1.6334534 -13.984802 0.53076935
v 2.270172 -11.784901 3.1245804
v 0.84697723 -16.332197 -0.2751007
v 0.25372314 -17.079916 -0.1426239
v 1.6334534 -13.984802 -0.53066254
v 0.5234604 -16.332197 -0.72034454
v 6.1035156E-05 -17.079916 -0.2666626
v 2.2701797 1.0872421 3.1245804
v 6.1035156E-05 1.0872421 3.8621674
v 3.6731262 -11.784901 1.193512
v 1.0095596 -13.984802 -1.3893661
v 2.0285873 1.6277847 2.7920609
v 6.1035156E-05 1.6277847 3.451149
v 3.6731339 1.0872421 1.193512
v 3.6731262 -11.784901 -1.1934052
v 2.2701797 2.2313538 3.1245804
v 6.1035156E-05 2.2313538 3.8621674
v 3.2822342 1.6277847 1.0665054
v 3.6731339 1.0872421 -1.1934052
v 2.2701874 21.746803 3.1245651
v 6.1035156E-05 21.746803 3.8621674
v 6.1035156E-05 23.777237 2.3869858
v 3.6731339 2.2313538 1.193512
v 3.2822342 1.6277847 -1.0664062
v 1.4030685 23.777237 1.9311371
v 6.1035156E-05 24.55281 6.866455E-05
v 2.2701874 23.777237 0.7376404
v 2.2701874 23.777237 -0.7375183
v 3.6731415 21.746803 1.193512
v 3.6731415 21.746803 -1.1934204
v 3.6731339 2.2313538 -1.1934052
v 2.2701569 21.746803 -3.1244736
v 2.2701569 2.2313538 -3.1244583
v 2.028572 1.6277847 -2.7919617
v 1.4030685 23.777237 -1.9309998
v 6.1035156E-05 21.746803 -3.8620605
v 2.2701569 1.0872421 -3.1244583
v 6.1035156E-05 2.2313538 -3.8620453
v 6.1035156E-05 23.777237 -2.3868637
v -2.270012 21.746803 -3.1244736
v 6.1035156E-05 1.6277847 -3.4510498
v 2.2701569 -11.784901 -3.1244583
v -1.402916 23.777237 -1.9309998
v -2.270012 2.2313538 -3.1244583
v 6.1035156E-05 1.0872421 -3.8620453
v 6.1035156E-05 -13.984802 -1.7173996
v -3.6730118 21.746803 -1.1934204
v -2.0284271 1.6277847 -2.7919617
v 6.1035156E-05 -11.784901 -3.8620453
v 6.1035156E-05 -16.332197 -0.89043427
v -1.0094299 -13.984802 -1.3893661
v -0.52334595 -16.332197 -0.72034454
v -0.2535782 -17.079916 -0.1426239
v -2.270012 1.0872421 -3.1244583
v -3.6730118 2.2313538 -1.1934052
v -2.270012 -11.784901 -3.1244583
v -1.6333389 -13.984802 -0.53066254
v -0.84680176 -16.332197 -0.2751007
v -3.2821121 1.6277847 -1.0664062
v -3.6730118 1.087246 -1.1934052
v -0.84680176 -16.332197 0.2752304
v -0.2535782 -17.079916 0.14273834
v -3.6730118 -11.784897 -1.1934052
v -1.6333389 -13.984802 0.53076935
v -0.52334595 -16.332197 0.7204666
v 6.1035156E-05 -17.079916 0.2667923
v 6.1035156E-05 -16.332197 0.89053345
v 6.1035156E-05 -13.984802 1.7174988
v -1.0094299 -13.984802 1.3894958
v -3.6730118 -11.784897 1.193512
v -2.270012 -11.784901 3.1245804
v 6.1035156E-05 -11.784901 3.8621674
v 6.1035156E-05 1.0872421 3.8621674
v -2.270012 1.0872421 3.1245804
v 6.1035156E-05 1.6277847 3.451149
v -3.6730118 1.087246 1.193512
v -2.0284271 1.6277847 2.7920609
v 6.1035156E-05 2.2313538 3.8621674
v -3.2821121 1.6277847 1.0665054
v -2.270012 2.2313538 3.1245804
v 6.1035156E-05 21.746803 3.8621674
v -3.6730118 2.2313538 1.193512
v -2.270012 21.746803 3.1245651
v -3.6730118 21.746803 1.193512
v -1.402916 23.777237 1.9311371
v 6.1035156E-05 23.777237 2.3869858
v -2.270012 23.777237 0.7376404
v -2.270012 23.777237 -0.7375183
v 1.4255066 -24.552828 4.387306
v 3.732071 -24.154877 2.7114944
v 3.732071 -24.552828 2.7114868
v 1.4254913 -24.154877 4.387314
v -1.4255371 -24.552826 4.387306
v 4.6130905 -24.154875 1.5258789E-05
v 4.6130905 -24.552826 7.6293945E-06
v -1.4255371 -24.154877 4.387314
v -3.732071 -24.552826 2.7114868
v 3.732071 -24.154875 -2.7114716
v 3.732071 -24.552826 -2.7114792
v -3.732071 -24.154877 2.7114944
v -4.613098 -24.552824 7.6293945E-06
v 1.4254913 -24.154875 -4.3872986
v 1.4255066 -24.552826 -4.387306
v -4.613098 -24.154875 1.5258789E-05
v -3.732071 -24.552824 -2.7114792
v -1.4255371 -24.154875 -4.3872986
v -1.4255371 -24.552824 -4.387306
v -3.732071 -24.154875 -2.7114716
v 2.7174911 -21.833353 -1.9743423
v 1.0379715 -21.833353 -3.194603
v -2.2888184E-05 -21.833353 1.5258789E-05
v 3.359024 -21.833353 1.5258789E-05
v -1.0379791 -21.833351 -3.194603
v -2.717514 -21.833351 -1.9743423
v 2.7174911 -21.833355 1.9744186
v -3.359024 -21.833351 1.5258789E-05
v 1.0379715 -21.833355 3.1946487
v -2.717514 -21.833353 1.9744186
v -1.0379791 -21.833353 3.1946487
vt 0.50857043 0.6763938
vt 0.51147544 0.7251424
vt 0.51147544 0.6763938
vt 0.50857043 0.7251424
vt 0.5056655 0.6763938
vt 0.5056655 0.7251424
vt 0.5027605 0.6763938
vt 0.5027605 0.7251424
vt 0.5313222 0.7059545
vt 0.5345247 0.6957249
vt 0.5267173 0.7029921
vt 0.53732455 0.69750243
vt 0.52433753 0.72882193
vt 0.51556885 0.72882193
vt 0.5044299 0.74924743
vt 0.5363522 0.70737714
vt 0.5342108 0.72882193
vt 0.5196861 0.74924743
vt 0.5416315 0.70737714
vt 0.540845 0.69750243
vt 0.54449946 0.72882193
vt 0.54698664 0.7059545
vt 0.54374033 0.6957249
vt 0.5196503 0.8352783
vt 0.5044299 0.83527255
vt 0.5334639 0.74924743
vt 0.55475295 0.72882193
vt 0.5196861 0.838652
vt 0.5044299 0.838652
vt 0.53343153 0.8352783
vt 0.5468338 0.74924743
vt 0.5196861 0.8426752
vt 0.5044299 0.8426752
vt 0.5334639 0.838652
vt 0.5468024 0.8352783
vt 0.5196861 0.97275895
vt 0.5044299 0.97275895
vt 0.5183861 0.9914539
vt 0.5334639 0.8426752
vt 0.5468338 0.838652
vt 0.52683705 0.9840518
vt 0.54051197 0.99911875
vt 0.5360179 0.98086673
vt 0.5452768 0.98086673
vt 0.5334639 0.97275895
vt 0.5468338 0.97275895
vt 0.5468338 0.8426752
vt 0.5606549 0.97275895
vt 0.5606549 0.8426752
vt 0.5606549 0.838652
vt 0.5543455 0.9840518
vt 0.5759636 0.97275895
vt 0.5606224 0.8352783
vt 0.5759636 0.8426752
vt 0.56241167 0.9914539
vt 0.5606549 0.97275895
vt 0.5759636 0.838652
vt 0.5606549 0.74924743
vt 0.5543455 0.9840518
vt 0.5606549 0.8426752
vt 0.5759636 0.83527255
vt 0.56441003 0.72882193
vt 0.5468338 0.97275895
vt 0.5606549 0.838652
vt 0.5759636 0.74924743
vt 0.5521839 0.7029921
vt 0.55475295 0.72882193
vt 0.54698664 0.7059545
vt 0.540845 0.69750243
vt 0.5606909 0.8352783
vt 0.5468338 0.8426752
vt 0.5606549 0.74924743
vt 0.54449946 0.72882193
vt 0.5416315 0.70737714
vt 0.5468338 0.838652
vt 0.5468663 0.8352783
vt 0.5363522 0.70737714
vt 0.53732455 0.69750243
vt 0.5468338 0.74924743
vt 0.5342108 0.72882193
vt 0.5313222 0.7059545
vt 0.5345247 0.6957249
vt 0.5267173 0.7029921
vt 0.51556885 0.72882193
vt 0.52433753 0.72882193
vt 0.5334639 0.74924743
vt 0.5196861 0.74924743
vt 0.5044299 0.74924743
vt 0.5045016 0.83528405
vt 0.51971847 0.8352783
vt 0.5044299 0.838652
vt 0.5334953 0.8352783
vt 0.5196861 0.838652
vt 0.5044299 0.8426752
vt 0.5334639 0.838652
vt 0.5196861 0.8426752
vt 0.5044299 0.97275895
vt 0.5334639 0.8426752
vt 0.5196861 0.97275895
vt 0.5334639 0.97275895
vt 0.52683705 0.9840518
vt 0.5183432 0.9914539
vt 0.5360179 0.98086673
vt 0.5452768 0.98086673
vt 0.58437973 0.6636376
vt 0.56739634 0.6811424
vt 0.5695639 0.68402976
vt 0.5809464 0.66257566
vt 0.58437973 0.6384316
vt 0.5455914 0.6882089
vt 0.5455914 0.6918188
vt 0.5809464 0.6396006
vt 0.5695639 0.6180394
vt 0.5236952 0.6810761
vt 0.521619 0.68402976
vt 0.56748754 0.62099296
vt 0.5455914 0.6102503
vt 0.5102363 0.6624685
vt 0.5068032 0.6636376
vt 0.5455914 0.6138602
vt 0.521619 0.6180394
vt 0.5102363 0.6394933
vt 0.5068032 0.6384316
vt 0.5237865 0.6209267
vt 0.53411514 0.66636056
vt 0.5275497 0.6568175
vt 0.5455914 0.6510344
vt 0.5455914 0.6701698
vt 0.5275497 0.6447554
vt 0.5346634 0.63527185
vt 0.55675536 0.66648287
vt 0.5455914 0.631396
vt 0.56408364 0.6568422
vt 0.55758536 0.6349031
vt 0.56408364 0.64530075
vn -3.460819E-05 0 -1
vn -0.86600846 0 0.5000293
vn -0.86600924 0 0.500028
vn -3.460819E-05 0 -1
vn 0.8660264 0 0.49999815
vn 0.8660258 0 0.4999995
vn -0.86600924 0 0.500028
vn -0.86600846 0 0.5000293
vn 0.51428723 -0.47524157 0.7139006
vn -0 -0.6740588 0.7386777
vn -0 -0.4797906 0.877383
vn 0.62858164 -0.6806536 0.3762923
vn 0.4918529 -0.54752314 0.67697793
vn -0 -0.5475228 0.83679074
vn -0 -0.3531407 0.93557024
vn 0.8384119 -0.4742048 0.2686919
vn 0.7958379 -0.547519 0.25858253
vn 0.54991764 -0.3531404 0.75689
vn 0.83841264 -0.47420433 -0.26869026
vn 0.62856984 -0.6806559 -0.3763078
vn 0.795836 -0.54752 -0.25858635
vn 0.5142975 -0.47524253 -0.71389264
vn -0 -0.6740556 -0.7386807
vn 0.56038153 0.30179805 0.77129143
vn -0 0.30179796 0.95337194
vn 0.8897828 -0.35313898 0.28910094
vn 0.49185923 -0.54751945 -0.67697626
vn 0.58752847 0.029746037 0.8086566
vn -0 0.0297457 0.99955744
vn 0.9067133 0.30179718 0.29460055
vn 0.8897815 -0.3531388 -0.2891053
vn 0.5643874 -0.27935725 0.77680516
vn -0 -0.27935702 0.96018726
vn 0.9506382 0.029745627 0.30887264
vn 0.906713 0.30179393 -0.29460463
vn 0.56208616 0.29247907 0.77363765
vn -0 0.29247808 0.9562722
vn -0 0.78044045 0.62523
vn 0.9131948 -0.27935675 0.29670706
vn 0.95063555 0.029745502 -0.30888042
vn 0.36750022 0.7804407 0.505822
vn -0 1 0
vn 0.5946314 0.7804397 0.19320297
vn 0.59463006 0.7804404 -0.19320421
vn 0.90947086 0.29247692 0.29549944
vn 0.90946895 0.29247758 -0.29550466
vn 0.91319436 -0.2793537 -0.29671124
vn 0.5620813 0.29248092 -0.77364045
vn 0.5643861 -0.27934873 -0.7768092
vn 0.58752316 0.02974534 -0.8086605
vn 0.3674991 0.78044313 -0.5058191
vn -0 0.29248175 -0.9562711
vn 0.56038094 0.30178908 -0.7712955
vn -0 -0.27934596 -0.9601906
vn -0 0.78044313 -0.6252267
vn -0.5620811 0.29248267 -0.7736399
vn -0 0.02974501 -0.99955744
vn 0.5499158 -0.3531394 -0.75689185
vn -0.36750066 0.78044343 -0.5058175
vn -0.5643846 -0.27934855 -0.77681035
vn -0 0.30178615 -0.9533756
vn -0 -0.5475253 -0.8367892
vn -0.9094672 0.29248255 -0.2955053
vn -0.5875206 0.029745784 -0.8086623
vn -0 -0.35314026 -0.93557036
vn -0 -0.4797989 -0.8773785
vn -0.49186158 -0.54752 -0.6769741
vn -0.5143152 -0.47524455 -0.7138784
vn -0.62859064 -0.6806473 -0.37628835
vn -0.5603787 0.3017892 -0.771297
vn -0.91319335 -0.27935362 -0.2967143
vn -0.5499134 -0.35313904 -0.75689375
vn -0.7958336 -0.5475255 -0.25858226
vn -0.8384183 -0.47420514 -0.26867124
vn -0.95063406 0.029747162 -0.30888495
vn -0.9067113 0.30179554 -0.29460838
vn -0.83841753 -0.47420558 0.26867285
vn -0.62860245 -0.68064505 0.37627283
vn -0.88978064 -0.35313782 -0.28910935
vn -0.7958354 -0.54752415 0.2585793
vn -0.51430506 -0.47524363 0.71388644
vn -0 -0.6740588 0.7386777
vn -0 -0.4797906 0.877383
vn -0 -0.5475228 0.83679074
vn -0.49185547 -0.5475229 0.6769762
vn -0.8897813 -0.35313764 0.28910735
vn -0.5499139 -0.35313955 0.75689304
vn -0 -0.3531407 0.93557024
vn -0 0.30179796 0.95337194
vn -0.5603774 0.30179718 0.77129483
vn -0 0.0297457 0.99955744
vn -0.9067108 0.301798 0.29460737
vn -0.58752555 0.02974621 0.8086586
vn -0 -0.27935702 0.96018726
vn -0.9506354 0.029747203 0.3088811
vn -0.56438375 -0.2793559 0.77680844
vn -0 0.29247808 0.9562722
vn -0.91319287 -0.27935588 0.29671383
vn -0.5620837 0.2924797 0.77363914
vn -0.9094682 0.29248103 0.2955037
vn -0.36750272 0.7804398 0.50582165
vn -0 0.78044045 0.62523
vn -0.5946281 0.7804421 0.19320336
vn -0.5946267 0.7804433 -0.1932027
vn 0.30902457 -1.2288477E-05 0.9510541
vn 0.7864833 0.23436509 0.57141674
vn 0.80901784 0 0.5877841
vn 0.30040574 0.2343595 0.9245712
vn -0.30902138 -1.8226867E-05 0.95105505
vn 0.97214735 0.2343706 0
vn 1 0 0
vn -0.30041328 0.23435701 0.9245694
vn -0.8090194 -1.1268609E-05 0.5877819
vn 0.78648275 0.23437916 -0.57141167
vn 0.80901515 1.7192839E-05 -0.58778775
vn -0.7864854 0.23436187 0.5714152
vn -1 0 0
vn 0.30040663 0.23438235 -0.92456514
vn 0.3090234 2.415102E-05 -0.9510544
vn -0.9721477 0.23436911 0
vn -0.80901664 1.1296298E-05 -0.5877856
vn -0.30041417 0.23437987 -0.9245634
vn -0.3090201 1.8254492E-05 -0.95105547
vn -0.7864848 0.23437591 -0.5714102
vn 0.46917406 0.814665 -0.34087628
vn 0.17921112 0.8146632 -0.55155
vn -0 1 0
vn 0.5799354 0.81466246 0
vn -0.17920977 0.81466407 -0.5515491
vn -0.46917716 0.81466365 -0.3408751
vn 0.46917602 0.8146614 0.34088236
vn -0.5799344 0.8146632 0
vn 0.17921007 0.81466025 0.5515546
vn -0.46917918 0.81466 0.34088117
vn -0.1792087 0.81466115 0.55155367
g outpost_balloon_01_0
f 3/3/3 2/2/2 1/1/1
f 2/2/2 4/4/4 1/1/1
f 1/1/1 4/4/4 5/5/5
f 4/4/4 6/6/6 5/5/5
f 5/5/5 6/6/6 7/7/7
f 6/6/6 8/8/8 7/7/7
f 11/11/11 10/10/10 9/9/9
f 10/10/10 12/12/12 9/9/9
f 11/11/11 9/9/9 13/13/13
f 14/14/14 11/11/11 13/13/13
f 14/14/14 13/13/13 15/15/15
f 9/9/9 12/12/12 16/16/16
f 13/13/13 9/9/9 17/17/17
f 9/9/9 16/16/16 17/17/17
f 13/13/13 18/18/18 15/15/15
f 13/13/13 17/17/17 18/18/18
f 16/16/16 12/12/12 19/19/19
f 12/12/12 20/20/20 19/19/19
f 17/17/17 16/16/16 21/21/21
f 16/16/16 19/19/19 21/21/21
f 19/19/19 20/20/20 22/22/22
f 20/20/20 23/23/23 22/22/22
f 18/18/18 24/24/24 15/15/15
f 24/24/24 25/25/25 15/15/15
f 17/17/17 26/26/26 18/18/18
f 17/17/17 21/21/21 26/26/26
f 21/21/21 19/19/19 27/27/27
f 19/19/19 22/22/22 27/27/27
f 24/24/24 28/28/28 25/25/25
f 28/28/28 29/29/29 25/25/25
f 30/30/30 24/24/24 18/18/18
f 26/26/26 30/30/30 18/18/18
f 21/21/21 31/31/31 26/26/26
f 21/21/21 27/27/27 31/31/31
f 28/28/28 32/32/32 29/29/29
f 32/32/32 33/33/33 29/29/29
f 34/34/34 28/28/28 24/24/24
f 30/30/30 34/34/34 24/24/24
f 35/35/35 30/30/30 26/26/26
f 31/31/31 35/35/35 26/26/26
f 32/32/32 36/36/36 33/33/33
f 36/36/36 37/37/37 33/33/33
f 37/37/37 36/36/36 38/38/38
f 39/39/39 32/32/32 28/28/28
f 34/34/34 39/39/39 28/28/28
f 40/40/40 34/34/34 30/30/30
f 35/35/35 40/40/40 30/30/30
f 36/36/36 41/41/41 38/38/38
f 38/38/38 41/41/41 42/42/42
f 41/41/41 43/43/43 42/42/42
f 43/43/43 44/44/44 42/42/42
f 45/45/45 36/36/36 32/32/32
f 36/36/36 45/45/45 41/41/41
f 45/45/45 43/43/43 41/41/41
f 39/39/39 45/45/45 32/32/32
f 45/45/45 46/46/46 43/43/43
f 46/46/46 45/45/45 39/39/39
f 46/46/46 44/44/44 43/43/43
f 47/47/47 39/39/39 34/34/34
f 47/47/47 46/46/46 39/39/39
f 40/40/40 47/47/47 34/34/34
f 46/46/46 48/48/48 44/44/44
f 48/48/48 46/46/46 47/47/47
f 49/49/49 47/47/47 40/40/40
f 49/49/49 48/48/48 47/47/47
f 50/50/50 40/40/40 35/35/35
f 50/50/50 49/49/49 40/40/40
f 48/48/48 51/51/51 44/44/44
f 44/44/44 51/51/51 42/42/42
f 52/52/52 48/48/48 49/49/49
f 48/48/48 52/52/52 51/51/51
f 53/53/53 50/50/50 35/35/35
f 53/53/53 35/35/35 31/31/31
f 54/54/54 49/49/49 50/50/50
f 54/54/54 52/52/52 49/49/49
f 52/52/52 55/55/55 51/51/51
f 51/51/51 55/55/55 42/42/42
f 52/52/52 56/56/56 55/55/55
f 56/56/56 52/52/52 54/54/54
f 57/57/57 54/54/54 50/50/50
f 57/57/57 50/50/50 53/53/53
f 58/58/58 53/53/53 31/31/31
f 27/27/27 58/58/58 31/31/31
f 55/55/55 59/59/59 42/42/42
f 56/56/56 59/59/59 55/55/55
f 60/60/60 56/56/56 54/54/54
f 60/60/60 54/54/54 57/57/57
f 61/61/61 57/57/57 53/53/53
f 61/61/61 53/53/53 58/58/58
f 27/27/27 62/62/62 58/58/58
f 27/27/27 22/22/22 62/62/62
f 56/56/56 63/63/63 59/59/59
f 63/63/63 56/56/56 60/60/60
f 64/64/64 60/60/60 57/57/57
f 64/64/64 57/57/57 61/61/61
f 65/65/65 61/61/61 58/58/58
f 62/62/62 65/65/65 58/58/58
f 22/22/22 66/66/66 62/62/62
f 22/22/22 23/23/23 66/66/66
f 62/62/62 66/66/66 67/67/67
f 62/62/62 67/67/67 65/65/65
f 66/66/66 23/23/23 68/68/68
f 66/66/66 68/68/68 67/67/67
f 23/23/23 69/69/69 68/68/68
f 70/70/70 61/61/61 65/65/65
f 70/70/70 64/64/64 61/61/61
f 71/71/71 60/60/60 64/64/64
f 71/71/71 63/63/63 60/60/60
f 67/67/67 72/72/72 65/65/65
f 72/72/72 70/70/70 65/65/65
f 67/67/67 68/68/68 73/73/73
f 67/67/67 73/73/73 72/72/72
f 68/68/68 69/69/69 74/74/74
f 68/68/68 74/74/74 73/73/73
f 75/75/75 64/64/64 70/70/70
f 75/75/75 71/71/71 64/64/64
f 76/76/76 70/70/70 72/72/72
f 76/76/76 75/75/75 70/70/70
f 74/74/74 69/69/69 77/77/77
f 69/69/69 78/78/78 77/77/77
f 73/73/73 79/79/79 72/72/72
f 79/79/79 76/76/76 72/72/72
f 73/73/73 74/74/74 80/80/80
f 74/74/74 77/77/77 80/80/80
f 73/73/73 80/80/80 79/79/79
f 77/77/77 78/78/78 81/81/81
f 78/78/78 82/82/82 81/81/81
f 81/81/81 82/82/82 83/83/83
f 81/81/81 83/83/83 84/84/84
f 77/77/77 81/81/81 85/85/85
f 80/80/80 77/77/77 85/85/85
f 85/85/85 81/81/81 84/84/84
f 80/80/80 86/86/86 79/79/79
f 80/80/80 85/85/85 86/86/86
f 85/85/85 84/84/84 87/87/87
f 85/85/85 87/87/87 86/86/86
f 84/84/84 88/88/88 87/87/87
f 88/88/88 89/89/89 87/87/87
f 89/89/89 90/90/90 87/87/87
f 87/87/87 90/90/90 86/86/86
f 89/89/89 91/91/91 90/90/90
f 86/86/86 92/92/92 79/79/79
f 90/90/90 92/92/92 86/86/86
f 92/92/92 76/76/76 79/79/79
f 91/91/91 93/93/93 90/90/90
f 90/90/90 93/93/93 92/92/92
f 91/91/91 94/94/94 93/93/93
f 92/92/92 95/95/95 76/76/76
f 93/93/93 95/95/95 92/92/92
f 95/95/95 75/75/75 76/76/76
f 94/94/94 96/96/96 93/93/93
f 93/93/93 96/96/96 95/95/95
f 94/94/94 97/97/97 96/96/96
f 95/95/95 98/98/98 75/75/75
f 96/96/96 98/98/98 95/95/95
f 98/98/98 71/71/71 75/75/75
f 97/97/97 99/99/99 96/96/96
f 96/96/96 99/99/99 98/98/98
f 98/98/98 100/100/100 71/71/71
f 99/99/99 100/100/100 98/98/98
f 100/100/100 63/63/63 71/71/71
f 99/99/99 97/97/97 101/101/101
f 97/97/97 102/102/102 101/101/101
f 101/101/101 102/102/102 42/42/42
f 99/99/99 101/101/101 103/103/103
f 100/100/100 99/99/99 103/103/103
f 103/103/103 101/101/101 42/42/42
f 63/63/63 100/100/100 104/104/104
f 100/100/100 103/103/103 104/104/104
f 104/104/104 103/103/103 42/42/42
f 63/63/63 104/104/104 59/59/59
f 59/59/59 104/104/104 42/42/42
f 107/107/107 106/106/106 105/105/105
f 106/106/106 108/108/108 105/105/105
f 105/105/105 108/108/108 109/109/109
f 110/110/110 106/106/106 107/107/107
f 111/111/111 110/110/110 107/107/107
f 108/108/108 112/112/112 109/109/109
f 109/109/109 112/112/112 113/113/113
f 114/114/114 110/110/110 111/111/111
f 115/115/115 114/114/114 111/111/111
f 112/112/112 116/116/116 113/113/113
f 113/113/113 116/116/116 117/117/117
f 118/118/118 114/114/114 115/115/115
f 119/119/119 118/118/118 115/115/115
f 116/116/116 120/120/120 117/117/117
f 117/117/117 120/120/120 121/121/121
f 122/122/122 118/118/118 119/119/119
f 123/123/123 122/122/122 119/119/119
f 121/121/121 124/124/124 123/123/123
f 120/120/120 124/124/124 121/121/121
f 124/124/124 122/122/122 123/123/123
f 114/114/114 125/125/125 110/110/110
f 118/118/118 126/126/126 114/114/114
f 126/126/126 125/125/125 114/114/114
f 126/126/126 127/127/127 125/125/125
f 125/125/125 127/127/127 128/128/128
f 125/125/125 128/128/128 110/110/110
f 129/129/129 127/127/127 126/126/126
f 129/129/129 126/126/126 118/118/118
f 122/122/122 129/129/129 118/118/118
f 110/110/110 128/128/128 106/106/106
f 130/130/130 129/129/129 122/122/122
f 124/124/124 130/130/130 122/122/122
f 130/130/130 127/127/127 129/129/129
f 128/128/128 131/131/131 106/106/106
f 128/128/128 127/127/127 131/131/131
f 106/106/106 131/131/131 108/108/108
f 132/132/132 130/130/130 124/124/124
f 132/132/132 127/127/127 130/130/130
f 120/120/120 132/132/132 124/124/124
f 131/131/131 133/133/133 108/108/108
f 131/131/131 127/127/127 133/133/133
f 108/108/108 133/133/133 112/112/112
f 134/134/134 132/132/132 120/120/120
f 134/134/134 127/127/127 132/132/132
f 116/116/116 134/134/134 120/120/120
f 112/112/112 135/135/135 116/116/116
f 133/133/133 135/135/135 112/112/112
f 133/133/133 127/127/127 135/135/135
f 135/135/135 134/134/134 116/116/116
f 135/135/135 127/127/127 134/134/134
