g parts_col_169
v -1.5896355 -0.35171592 -0.5244849
v -1.440313 -1.1570798 -0.524488
v 0.45531297 -0.25834262 -0.7176592
v 0.11537814 0.7174889 -0.71765614
v 1.589636 0.17282188 -0.9021044
v 1.5516148 1.1570793 -0.90210134
v 0.45531297 -0.25834262 0.73520195
v -1.440313 -1.1570798 0.902104
v -1.5896355 -0.35171592 0.902104
v 0.11537814 0.7174889 0.73520195
v 1.589636 0.17282188 0.57584035
v 1.5516148 1.1570793 0.57584035
v -1.440313 -1.1570798 -0.524488
v -1.440313 -1.1570798 0.902104
v 0.45531297 -0.25834262 0.73520195
v 0.45531297 -0.25834262 -0.7176592
v 1.589636 0.17282188 0.57584035
v 1.589636 0.17282188 -0.9021044
v 1.589636 0.17282188 -0.9021044
v 1.589636 0.17282188 0.57584035
v 1.5516148 1.1570793 0.57584035
v 1.5516148 1.1570793 -0.90210134
v 0.11537814 0.7174889 -0.71765614
v 1.5516148 1.1570793 -0.90210134
v 1.5516148 1.1570793 0.57584035
v 0.11537814 0.7174889 0.73520195
v -1.5896355 -0.35171592 -0.5244849
v -1.5896355 -0.35171592 0.902104
v -1.5896355 -0.35171592 -0.5244849
v -1.5896355 -0.35171592 0.902104
v -1.440313 -1.1570798 0.902104
v -1.440313 -1.1570798 -0.524488
vt 1 1
vt 1 0
vt 0.4884413 0
vt 0.4884413 1
vt 0 0
vt 0 1
vt 0.5115587 0
vt 0 0
vt 0 1
vt 0.5115587 1
vt 1 0
vt 1 1
vt 0 0
vt 0 1
vt 0.5115587 1
vt 0.5115587 0
vt 1 1
vt 1 0
vt 0 0
vt 0 1
vt 1 1
vt 1 0
vt 0.4884413 0
vt 0 0
vt 0 1
vt 0.4884413 1
vt 1 0
vt 1 1
vt 0 0
vt 0 1
vt 1 1
vt 1 0
vn -0.09375018 -0.026399076 -0.9952457
vn -0.09375018 -0.026399076 -0.9952457
vn -0.1131292 -0.026399076 -0.9932295
vn -0.115067065 -0.026399076 -0.9930069
vn -0.1325081 -0.026399076 -0.9908303
vn -0.1325081 -0.026399076 -0.9908303
vn 0.09810102 0.022048295 0.9949322
vn 0.080660045 0.022048295 0.9964978
vn 0.080660045 0.022048295 0.9964978
vn 0.100038946 0.022048295 0.9947392
vn 0.115542054 0.022048295 0.99305785
vn 0.115542054 0.022048295 0.99305785
vn 0.4274388 -0.90404433 -0
vn 0.4274388 -0.90404433 -0
vn 0.3942675 -0.9189957 -0
vn 0.38865006 -0.92138547 -0
vn 0.35560015 -0.9346382 -0
vn 0.35560015 -0.9346382 -0
vn 0.9992201 0.039489187 -0
vn 0.9992201 0.039489187 -0
vn 0.9992201 0.039489187 -0
vn 0.9992201 0.039489187 -0
vn -0.40755567 0.9131804 -0
vn -0.2933228 0.9560135 -0
vn -0.2933228 0.9560135 -0
vn -0.42319185 0.90572685 -0.023823421
vn -0.53141403 0.8471122 -0
vn -0.53141403 0.8471122 -0
vn -0.98324245 -0.1814304 -0.01781317
vn -0.98324245 -0.1814304 -0.01781317
vn -0.98324245 -0.1814304 -0.01781317
vn -0.98324245 -0.1814304 -0.01781317
g parts_col_169_0
f 3/3/3 2/2/2 1/1/1
f 4/4/4 3/3/3 1/1/1
f 5/5/5 3/3/3 4/4/4
f 6/6/6 5/5/5 4/4/4
f 9/9/9 8/8/8 7/7/7
f 10/10/10 9/9/9 7/7/7
f 10/10/10 7/7/7 11/11/11
f 12/12/12 10/10/10 11/11/11
f 15/15/15 14/14/14 13/13/13
f 16/16/16 15/15/15 13/13/13
f 17/17/17 15/15/15 16/16/16
f 18/18/18 17/17/17 16/16/16
f 21/21/21 20/20/20 19/19/19
f 22/22/22 21/21/21 19/19/19
f 25/25/25 24/24/24 23/23/23
f 26/26/26 25/25/25 23/23/23
f 26/26/26 23/23/23 27/27/27
f 28/28/28 26/26/26 27/27/27
f 31/31/31 30/30/30 29/29/29
f 32/32/32 31/31/31 29/29/29
