g parts_col_011
v -1.2903959 -0.906818 -0.40975687
v 0.69568706 0.27248996 -0.7752354
v 0.6082928 0.5624097 -0.7752352
v -1.586101 -0.18863787 -0.40975678
v -1.3429317 -0.7800476 0.4097569
v -1.5335652 -0.3154081 0.40975708
v 0.6082928 0.5624096 -0.30726123
v 0.69568706 0.27248994 -0.30726135
v -1.2903959 -0.906818 -0.40975687
v -1.3429317 -0.7800476 0.4097569
v 0.69568706 0.27248994 -0.30726135
v 0.69568706 0.27248996 -0.7752354
v 0.69568706 0.27248996 -0.7752354
v 0.69568706 0.27248994 -0.30726135
v 0.6082928 0.5624096 -0.30726123
v 0.6082928 0.5624097 -0.7752352
v 0.6082928 0.5624097 -0.7752352
v 0.6082928 0.5624096 -0.30726123
v -1.5335652 -0.3154081 0.40975708
v -1.586101 -0.18863787 -0.40975678
v -1.586101 -0.18863787 -0.40975678
v -1.5335652 -0.3154081 0.40975708
v -1.3429317 -0.7800476 0.4097569
v -1.2903959 -0.906818 -0.40975687
vt 1 0
vt 0 0
vt 0 1
vt 1 1
vt 0 0
vt 0 1
vt 1 1
vt 1 0
vt 0 0
vt 0 1
vt 1 1
vt 1 0
vt 0 0
vt 0 1
vt 1 1
vt 1 0
vt 0 0
vt 0 1
vt 1 1
vt 1 0
vt 0 0
vt 0 1
vt 1 1
vt 1 0
vn -0.14690019 -0.055824883 -0.98757476
vn -0.14690019 -0.055824883 -0.98757476
vn -0.14690018 -0.055824887 -0.98757476
vn -0.14690018 -0.05582488 -0.98757476
vn 0.27981654 0.10310188 0.95450133
vn 0.27981654 0.10310188 0.95450133
vn 0.27981654 0.10310187 0.95450133
vn 0.27981657 0.10310187 0.95450133
vn 0.5037291 -0.85745883 0.10498294
vn 0.5037291 -0.85745883 0.10498295
vn 0.5037291 -0.85745883 0.10498295
vn 0.50372905 -0.8574587 0.104982935
vn 0.95744526 0.28861508 0
vn 0.95744526 0.28861508 0
vn 0.95744526 0.28861508 0
vn 0.95744526 0.28861508 0
vn -0.3264191 0.9392848 0.10580464
vn -0.32641906 0.9392848 0.10580464
vn -0.32641906 0.9392848 0.10580464
vn -0.3264191 0.9392848 0.10580464
vn -0.9248719 -0.3802786 0
vn -0.9248719 -0.38027862 0
vn -0.9248719 -0.38027862 0
vn -0.9248719 -0.3802786 0
g parts_col_011_0
f 3/3/3 2/2/2 1/1/1
f 4/4/4 3/3/3 1/1/1
f 7/7/7 6/6/6 5/5/5
f 8/8/8 7/7/7 5/5/5
f 11/11/11 10/10/10 9/9/9
f 12/12/12 11/11/11 9/9/9
f 15/15/15 14/14/14 13/13/13
f 16/16/16 15/15/15 13/13/13
f 19/19/19 18/18/18 17/17/17
f 20/20/20 19/19/19 17/17/17
f 23/23/23 22/22/22 21/21/21
f 24/24/24 23/23/23 21/21/21
