g parts_col_74
v -0.6039531 -2.1897187 -0.95729125
v 1.934467 -1.8888125 -0.95729125
v 2.270112 2.1897178 -1.8481202
v -2.270111 1.3763247 -1.8481202
v -0.6039531 -2.1897187 0.9572902
v -2.270111 1.3763247 1.8481193
v 2.270112 2.1897178 1.8481193
v 1.934467 -1.8888125 0.9572902
v -0.6039531 -2.1897187 -0.95729125
v -0.6039531 -2.1897187 0.9572902
v 1.934467 -1.8888125 0.9572902
v 1.934467 -1.8888125 -0.95729125
v 1.934467 -1.8888125 -0.95729125
v 1.934467 -1.8888125 0.9572902
v 2.270112 2.1897178 1.8481193
v 2.270112 2.1897178 -1.8481202
v 2.270112 2.1897178 -1.8481202
v 2.270112 2.1897178 1.8481193
v -2.270111 1.3763247 1.8481193
v -2.270111 1.3763247 -1.8481202
v -2.270111 1.3763247 -1.8481202
v -2.270111 1.3763247 1.8481193
v -0.6039531 -2.1897187 0.9572902
v -0.6039531 -2.1897187 -0.95729125
vt 1 0
vt 0 0
vt 0 1
vt 1 1
vt 0 0
vt 0 1
vt 1 1
vt 1 0
vt 0 0
vt 0 1
vt 1 1
vt 1 0
vt 0 0
vt 0 1
vt 1 1
vt 1 0
vt 0 0
vt 0 1
vt 1 1
vt 1 0
vt 0 0
vt 0 1
vt 1 1
vt 1 0
vn 0.034244955 -0.22012854 -0.9748696
vn 0.034244955 -0.22012854 -0.9748696
vn 0.034244955 -0.22012854 -0.9748696
vn 0.034244955 -0.22012854 -0.9748696
vn 0.034244955 -0.22012854 0.9748696
vn 0.034244955 -0.22012854 0.9748696
vn 0.034244955 -0.22012854 0.9748696
vn 0.034244955 -0.22012854 0.9748696
vn 0.11750531 -0.9927073 -0.026920862
vn 0.11750531 -0.9927073 -0.026920862
vn 0.11750531 -0.9927073 -0.026920862
vn 0.11750531 -0.9927073 -0.026920862
vn 0.99657845 -0.08265203 -0
vn 0.99657845 -0.08265203 -0
vn 0.99657845 -0.08265203 -0
vn 0.99657845 -0.08265203 -0
vn -0.17681038 0.9842423 -0.002264067
vn -0.17681038 0.9842423 -0.002264067
vn -0.17681038 0.9842423 -0.002264067
vn -0.17681038 0.9842423 -0.002264067
vn -0.90607977 -0.42310673 -0
vn -0.90607977 -0.42310673 -0
vn -0.90607977 -0.42310673 -0
vn -0.90607977 -0.42310673 -0
g parts_col_74_0
f 3/3/3 2/2/2 1/1/1
f 4/4/4 3/3/3 1/1/1
f 7/7/7 6/6/6 5/5/5
f 8/8/8 7/7/7 5/5/5
f 11/11/11 10/10/10 9/9/9
f 12/12/12 11/11/11 9/9/9
f 15/15/15 14/14/14 13/13/13
f 16/16/16 15/15/15 13/13/13
f 19/19/19 18/18/18 17/17/17
f 20/20/20 19/19/19 17/17/17
f 23/23/23 22/22/22 21/21/21
f 24/24/24 23/23/23 21/21/21
