g parts_col_72
v -1.9852881 1.7202768 -2.684041
v -0.7024927 0.45758033 0.17593622
v -1.9669914 1.900475 -2.684041
v -0.86398435 0.035034657 0.17593622
v 0.8722675 -1.0380851 1.1669202
v 0.9533334 -1.7116455 1.1669202
v 1.985288 -1.3886621 0.7428951
v 1.9688394 -1.9004748 0.7428951
v -1.9852881 1.7202716 -2.1428838
v -1.9669914 1.900475 -2.1428838
v -0.7024927 0.45758033 1.379396
v -0.86398435 0.035034657 1.3793912
v 0.8722675 -1.0380851 2.684041
v 0.9533334 -1.7116455 2.684041
v 1.985288 -1.3886621 1.6970448
v 1.9688394 -1.9004748 1.6970448
v -0.86398435 0.035034657 0.17593622
v -1.9852881 1.7202768 -2.684041
v -1.9852881 1.7202716 -2.1428838
v -0.86398435 0.035034657 1.3793912
v 0.9533334 -1.7116455 1.1669202
v 0.9533334 -1.7116455 2.684041
v 1.9688394 -1.9004748 0.7428951
v 1.9688394 -1.9004748 1.6970448
v 1.9688394 -1.9004748 0.7428951
v 1.9688394 -1.9004748 1.6970448
v 1.985288 -1.3886621 1.6970448
v 1.985288 -1.3886621 0.7428951
v 0.8722675 -1.0380851 1.1669202
v 1.985288 -1.3886621 0.7428951
v 1.985288 -1.3886621 1.6970448
v 0.8722675 -1.0380851 2.684041
v -0.7024927 0.45758033 0.17593622
v -0.7024927 0.45758033 1.379396
v -1.9669914 1.900475 -2.684041
v -1.9669914 1.900475 -2.1428838
v -1.9669914 1.900475 -2.684041
v -1.9669914 1.900475 -2.1428838
v -1.9852881 1.7202716 -2.1428838
v -1.9852881 1.7202768 -2.684041
vt 1 0
vt 0.47531852 1
vt 1 1
vt 0.47531852 0
vt 0.21408407 1
vt 0.21408407 0
vt 0 1
vt 0 0
vt 0 0
vt 0 1
vt 0.52468145 1
vt 0.52468145 0
vt 0.7859159 1
vt 0.7859159 0
vt 1 1
vt 1 0
vt 0.52468145 0
vt 0 0
vt 0 1
vt 0.52468145 1
vt 0.7859159 0
vt 0.7859159 1
vt 1 0
vt 1 1
vt 0 0
vt 0 1
vt 1 1
vt 1 0
vt 0.21408407 0
vt 0 0
vt 0 1
vt 0.21408407 1
vt 0.47531852 0
vt 0.47531852 1
vt 1 0
vt 1 1
vt 0 0
vt 0 1
vt 1 1
vt 1 0
vn 0.83766115 -0.24890673 -0.48617822
vn 0.7245891 -0.17092597 -0.6676488
vn 0.83766115 -0.24890673 -0.48617822
vn 0.6427094 -0.12413752 -0.7559858
vn 0.21186584 -0.03251016 -0.9767579
vn -0.1351484 -0.026661634 -0.9904666
vn -0.37493908 -0.020813107 -0.92681575
vn -0.37493908 -0.020813107 -0.92681575
vn -0.8740157 0.2599175 0.41053557
vn -0.8740157 0.2599175 0.41053557
vn -0.78238845 0.17803776 0.59680057
vn -0.7239028 0.1351484 0.676535
vn -0.17023969 0.051319122 0.9840655
vn 0.35613018 0.047420025 0.93323237
vn 0.68364924 0.03767252 0.7288377
vn 0.68364924 0.03767252 0.7288377
vn -0.79156923 -0.6110796 -0
vn -0.8330759 -0.55303156 -0.011859054
vn -0.8330759 -0.55303156 -0.011859054
vn -0.7239028 -0.6894978 -0.023611061
vn -0.4565189 -0.88971364 -0
vn -0.49562758 -0.86853516 -0
vn -0.18183586 -0.9833289 -0
vn -0.18183586 -0.9833289 -0
vn 0.9994712 -0.03251016 -0.00064512383
vn 0.9994712 -0.03251016 -0.00064512383
vn 0.9994712 -0.03251016 -0.00064512383
vn 0.9994712 -0.03251016 -0.00064512383
vn 0.51209164 0.85841966 -0.029628655
vn 0.29959416 0.953946 -0.015178009
vn 0.29959416 0.953946 -0.015178009
vn 0.52378875 0.8506216 -0.04569736
vn 0.73232484 0.6809555 -0
vn 0.7011949 0.71220577 -0.03299423
vn 0.7517478 0.6594507 -0
vn 0.7517478 0.6594507 -0
vn -0.9948859 0.100057006 -0.013805283
vn -0.9948859 0.100057006 -0.013805283
vn -0.9948859 0.100057006 -0.013805283
vn -0.9948859 0.100057006 -0.013805283
g parts_col_72_0
f 3/3/3 2/2/2 1/1/1
f 2/2/2 4/4/4 1/1/1
f 4/4/4 2/2/2 5/5/5
f 6/6/6 4/4/4 5/5/5
f 6/6/6 5/5/5 7/7/7
f 8/8/8 6/6/6 7/7/7
f 11/11/11 10/10/10 9/9/9
f 12/12/12 11/11/11 9/9/9
f 13/13/13 11/11/11 12/12/12
f 14/14/14 13/13/13 12/12/12
f 15/15/15 13/13/13 14/14/14
f 16/16/16 15/15/15 14/14/14
f 19/19/19 18/18/18 17/17/17
f 20/20/20 19/19/19 17/17/17
f 20/20/20 17/17/17 21/21/21
f 22/22/22 20/20/20 21/21/21
f 22/22/22 21/21/21 23/23/23
f 24/24/24 22/22/22 23/23/23
f 27/27/27 26/26/26 25/25/25
f 28/28/28 27/27/27 25/25/25
f 31/31/31 30/30/30 29/29/29
f 32/32/32 31/31/31 29/29/29
f 32/32/32 29/29/29 33/33/33
f 34/34/34 32/32/32 33/33/33
f 34/34/34 33/33/33 35/35/35
f 36/36/36 34/34/34 35/35/35
f 39/39/39 38/38/38 37/37/37
f 40/40/40 39/39/39 37/37/37
