g parts_col_114
v -4.8814955 -4.1474495 -7.1828017
v -1.3890152 -10.2547035 -5.3267183
v 1.389018 -10.2547035 -5.3267183
v 4.881499 -4.1474495 -7.1828017
v -1.7166033 3.3275805 -8.835294
v 1.7165918 3.3275805 -8.835294
v 1.0442524 -10.2547035 0.42469883
v -1.0442638 -10.2547035 0.42469883
v -3.388958 -4.1474495 3.3275805
v 3.3889613 -4.1474495 3.3275805
v 3.3275838 3.3275805 3.3275805
v -3.3275805 3.3275805 3.3275805
v -1.3890152 -10.2547035 -5.3267183
v -1.0442638 -10.2547035 0.42469883
v 1.0442524 -10.2547035 0.42469883
v 1.389018 -10.2547035 -5.3267183
v 1.389018 -10.2547035 -5.3267183
v 1.0442524 -10.2547035 0.42469883
v 3.3889613 -4.1474495 3.3275805
v 4.881499 -4.1474495 -7.1828017
v 3.3275838 3.3275805 3.3275805
v 1.7165918 3.3275805 -8.835294
v 1.7165918 3.3275805 -8.835294
v 3.3275838 3.3275805 3.3275805
v -3.3275805 3.3275805 3.3275805
v -1.7166033 3.3275805 -8.835294
v -4.8814955 -4.1474495 -7.1828017
v -1.7166033 3.3275805 -8.835294
v -3.3275805 3.3275805 3.3275805
v -3.388958 -4.1474495 3.3275805
v -1.3890152 -10.2547035 -5.3267183
v -1.0442638 -10.2547035 0.42469883
vt 1 0.529015
vt 1 0
vt 0 0
vt 0 0.529015
vt 1 1
vt 0 1
vt 1 0
vt 0 0
vt 0 0.529015
vt 1 0.529015
vt 1 1
vt 0 1
vt 0 0
vt 0 1
vt 1 1
vt 1 0
vt 0 0
vt 0 1
vt 0.529015 1
vt 0.529015 0
vt 1 1
vt 1 0
vt 0 0
vt 0 1
vt 1 1
vt 1 0
vt 0.47098497 0
vt 0 0
vt 0 1
vt 0.47098497 1
vt 1 0
vt 1 1
vn -0.0009775162 -0.25122178 -0.96792907
vn -0.0009775162 -0.29032242 -0.9569284
vn -0.0009775162 -0.29032242 -0.9569284
vn -0.0009775162 -0.25122178 -0.96792907
vn -0.0009775162 -0.2160312 -0.97638595
vn -0.0009775162 -0.2160312 -0.97638595
vn -0.0009775162 -0.42912978 0.9032423
vn -0.0009775162 -0.42912978 0.9032423
vn -0.0009775162 -0.19452584 0.9808969
vn -0.0009775162 -0.19452584 0.9808969
vn -0.0009775162 0.0009775162 0.99999905
vn -0.0009775162 0.0009775162 0.99999905
vn -0.0009775162 -0.9999995 -0
vn -0.0009775162 -0.9999995 -0
vn -0.0009775162 -0.9999995 -0
vn -0.0009775162 -0.9999995 -0
vn 0.8944277 -0.43694997 0.095256306
vn 0.8944277 -0.43694997 0.095256306
vn 0.99608946 -0.075268805 0.04626415
vn 0.99608946 -0.06549364 0.059298795
vn 0.9777022 0.209996 -0
vn 0.9777022 0.209996 -0
vn -0.0009775162 0.9999995 -0
vn -0.0009775162 0.9999995 -0
vn -0.0009775162 0.9999995 -0
vn -0.0009775162 0.9999995 -0
vn -0.99608946 -0.06549364 0.059298795
vn -0.9777022 0.209996 -0
vn -0.9777022 0.209996 -0
vn -0.99608946 -0.075268805 0.04626415
vn -0.8944278 -0.43694997 0.09525599
vn -0.8944278 -0.43694997 0.09525599
g parts_col_114_0
f 3/3/3 2/2/2 1/1/1
f 4/4/4 3/3/3 1/1/1
f 4/4/4 1/1/1 5/5/5
f 6/6/6 4/4/4 5/5/5
f 9/9/9 8/8/8 7/7/7
f 10/10/10 9/9/9 7/7/7
f 9/9/9 10/10/10 11/11/11
f 12/12/12 9/9/9 11/11/11
f 15/15/15 14/14/14 13/13/13
f 16/16/16 15/15/15 13/13/13
f 19/19/19 18/18/18 17/17/17
f 20/20/20 19/19/19 17/17/17
f 21/21/21 19/19/19 20/20/20
f 22/22/22 21/21/21 20/20/20
f 25/25/25 24/24/24 23/23/23
f 26/26/26 25/25/25 23/23/23
f 29/29/29 28/28/28 27/27/27
f 30/30/30 29/29/29 27/27/27
f 30/30/30 27/27/27 31/31/31
f 32/32/32 30/30/30 31/31/31
