g parts_col_49
v -0.8447758 -1.2444714 -0.715917
v 0.70686173 -1.2444714 -0.33428454
v 1.2845069 1.2444698 -1.132293
v -1.2845076 0.92335 -1.2028286
v -0.8447758 -1.2444714 0.7159177
v -1.2845076 0.92335 1.2028292
v 1.2845069 1.2444698 1.1322936
v 0.70686173 -1.2444714 0.33428276
v -0.8447758 -1.2444714 -0.715917
v -0.8447758 -1.2444714 0.7159177
v 0.70686173 -1.2444714 0.33428276
v 0.70686173 -1.2444714 -0.33428454
v 0.70686173 -1.2444714 -0.33428454
v 0.70686173 -1.2444714 0.33428276
v 1.2845069 1.2444698 1.1322936
v 1.2845069 1.2444698 -1.132293
v 1.2845069 1.2444698 -1.132293
v 1.2845069 1.2444698 1.1322936
v -1.2845076 0.92335 1.2028292
v -1.2845076 0.92335 -1.2028286
v -1.2845076 0.92335 -1.2028286
v -1.2845076 0.92335 1.2028292
v -0.8447758 -1.2444714 0.7159177
v -0.8447758 -1.2444714 -0.715917
vt 1 0
vt 0 0
vt 0 1
vt 1 1
vt 0 0
vt 0 1
vt 1 1
vt 1 0
vt 0 0
vt 0 1
vt 1 1
vt 1 0
vt 0 0
vt 0 1
vt 1 1
vt 1 0
vt 0 0
vt 0 1
vt 1 1
vt 1 0
vt 0 0
vt 0 1
vt 1 1
vt 1 0
vn 0.12557858 -0.26774502 -0.955271
vn 0.12557858 -0.26774502 -0.955271
vn 0.12557858 -0.26774502 -0.955271
vn 0.12557858 -0.26774502 -0.955271
vn 0.12557858 -0.26774502 0.955271
vn 0.12557858 -0.26774502 0.955271
vn 0.12557858 -0.26774502 0.955271
vn 0.12557858 -0.26774502 0.955271
vn 0.0009394884 -0.99999964 -0
vn 0.0009394884 -0.99999964 -0
vn 0.0009394884 -0.99999964 -0
vn 0.0009394884 -0.99999964 -0
vn 0.97396886 -0.22668177 -0
vn 0.97396886 -0.22668177 -0
vn 0.97396886 -0.22668177 -0
vn 0.97396886 -0.22668177 -0
vn -0.123699546 0.9922782 -0.009075992
vn -0.123699546 0.9922782 -0.009075992
vn -0.123699546 0.9922782 -0.009075992
vn -0.123699546 0.9922782 -0.009075992
vn -0.97990924 -0.19944385 -0
vn -0.97990924 -0.19944385 -0
vn -0.97990924 -0.19944385 -0
vn -0.97990924 -0.19944385 -0
g parts_col_49_0
f 3/3/3 2/2/2 1/1/1
f 4/4/4 3/3/3 1/1/1
f 7/7/7 6/6/6 5/5/5
f 8/8/8 7/7/7 5/5/5
f 11/11/11 10/10/10 9/9/9
f 12/12/12 11/11/11 9/9/9
f 15/15/15 14/14/14 13/13/13
f 16/16/16 15/15/15 13/13/13
f 19/19/19 18/18/18 17/17/17
f 20/20/20 19/19/19 17/17/17
f 23/23/23 22/22/22 21/21/21
f 24/24/24 23/23/23 21/21/21
