g parts_col_98
v -0.47328424 -2.6389189 -2.5258622
v 1.5631762 -2.6802185 -2.5258622
v 2.1105492 2.6679037 -2.5258622
v -0.47791672 2.7015307 -2.5258622
v -2.1059177 -2.6616168 -0.46297836
v -2.1105497 2.6788328 -0.46297836
v 0.5777509 2.646592 2.5258625
v 0.030377865 -2.7015302 2.5258625
v -0.47328424 -2.6389189 -2.5258622
v -2.1059177 -2.6616168 -0.46297836
v 0.030377865 -2.7015302 2.5258625
v 1.5631762 -2.6802185 -2.5258622
v 1.5631762 -2.6802185 -2.5258622
v 0.030377865 -2.7015302 2.5258625
v 0.5777509 2.646592 2.5258625
v 2.1105492 2.6679037 -2.5258622
v 2.1105492 2.6679037 -2.5258622
v 0.5777509 2.646592 2.5258625
v -2.1105497 2.6788328 -0.46297836
v -0.47791672 2.7015307 -2.5258622
v -0.47791672 2.7015307 -2.5258622
v -2.1105497 2.6788328 -0.46297836
v -2.1059177 -2.6616168 -0.46297836
v -0.47328424 -2.6389189 -2.5258622
vt 1 0
vt 0 0
vt 0 1
vt 1 1
vt 0 0
vt 0 1
vt 1 1
vt 1 0
vt 0 0
vt 0 1
vt 1 1
vt 1 0
vt 0 0
vt 0 1
vt 1 1
vt 1 0
vt 0 0
vt 0 1
vt 1 1
vt 1 0
vt 0 0
vt 0 1
vt 1 1
vt 1 0
vn 0.0009480715 -0.0009480715 -0.9999991
vn 0.0009480715 -0.0009480715 -0.9999991
vn 0.0009480715 -0.0009480715 -0.9999991
vn 0.0009480715 -0.0009480715 -0.9999991
vn -0.7770786 0.040103555 0.6281246
vn -0.7770786 0.040103555 0.6281246
vn -0.7770786 0.040103555 0.6281246
vn -0.7770786 0.040103555 0.6281246
vn -0.0107809305 -0.99987173 -0.011845225
vn -0.0107809305 -0.99987173 -0.011845225
vn -0.0107809305 -0.99987173 -0.011845225
vn -0.0107809305 -0.99987173 -0.011845225
vn 0.95295554 -0.09673524 0.28725952
vn 0.95295554 -0.09673524 0.28725952
vn 0.95295554 -0.09673524 0.28725952
vn 0.95295554 -0.09673524 0.28725952
vn 0.0068125725 0.9999305 0.009621123
vn 0.0068125725 0.9999305 0.009621123
vn 0.0068125725 0.9999305 0.009621123
vn 0.0068125725 0.9999305 0.009621123
vn -0.7848979 -0.0009480715 -0.6196244
vn -0.7848979 -0.0009480715 -0.6196244
vn -0.7848979 -0.0009480715 -0.6196244
vn -0.7848979 -0.0009480715 -0.6196244
g parts_col_98_0
f 3/3/3 2/2/2 1/1/1
f 4/4/4 3/3/3 1/1/1
f 7/7/7 6/6/6 5/5/5
f 8/8/8 7/7/7 5/5/5
f 11/11/11 10/10/10 9/9/9
f 12/12/12 11/11/11 9/9/9
f 15/15/15 14/14/14 13/13/13
f 16/16/16 15/15/15 13/13/13
f 19/19/19 18/18/18 17/17/17
f 20/20/20 19/19/19 17/17/17
f 23/23/23 22/22/22 21/21/21
f 24/24/24 23/23/23 21/21/21
