g parts_col_155
v 0.31002235 -1.4664237 -0.2760054
v 1.2030346 -0.8497701 -0.2760054
v -0.9466398 1.4664228 -0.7715553
v -1.2030337 1.2784348 -0.7715553
v 0.46295297 -1.182239 0.7715571
v -1.2030337 1.2784319 -0.28554308
v -0.9466398 1.4664228 -0.28554308
v 0.96634275 -0.8346328 0.7715571
v 0.31002235 -1.4664237 -0.2760054
v 0.46295297 -1.182239 0.7715571
v 0.96634275 -0.8346328 0.7715571
v 1.2030346 -0.8497701 -0.2760054
v 1.2030346 -0.8497701 -0.2760054
v 0.96634275 -0.8346328 0.7715571
v -0.9466398 1.4664228 -0.28554308
v -0.9466398 1.4664228 -0.7715553
v -0.9466398 1.4664228 -0.7715553
v -0.9466398 1.4664228 -0.28554308
v -1.2030337 1.2784319 -0.28554308
v -1.2030337 1.2784348 -0.7715553
v -1.2030337 1.2784348 -0.7715553
v -1.2030337 1.2784319 -0.28554308
v 0.46295297 -1.182239 0.7715571
v 0.31002235 -1.4664237 -0.2760054
vt 1 0
vt 0 0
vt 0 1
vt 1 1
vt 0 0
vt 0 1
vt 1 1
vt 1 0
vt 0 0
vt 0 1
vt 1 1
vt 1 0
vt 0 0
vt 0 1
vt 1 1
vt 1 0
vt 0 0
vt 0 1
vt 1 1
vt 1 0
vt 0 0
vt 0 1
vt 1 1
vt 1 0
vn 0.09009099 -0.12780714 -0.98769885
vn 0.09009099 -0.12780714 -0.98769885
vn 0.09009099 -0.12780714 -0.98769885
vn 0.09009099 -0.12780714 -0.98769885
vn -0.19359994 0.27395165 0.942056
vn -0.19359994 0.27395165 0.942056
vn -0.19359994 0.27395165 0.942056
vn -0.19359994 0.27395165 0.942056
vn 0.56236255 -0.8148967 0.14032714
vn 0.56236255 -0.8148967 0.14032714
vn 0.56236255 -0.8148967 0.14032714
vn 0.56236255 -0.8148967 0.14032714
vn 0.7279856 0.6773503 0.10598825
vn 0.7279856 0.6773503 0.10598825
vn 0.7279856 0.6773503 0.10598825
vn 0.7279856 0.6773503 0.10598825
vn -0.591594 0.80623597 -0
vn -0.591594 0.80623597 -0
vn -0.591594 0.80623597 -0
vn -0.591594 0.80623597 -0
vn -0.86265135 -0.4754515 0.1725646
vn -0.86265135 -0.4754515 0.1725646
vn -0.86265135 -0.4754515 0.1725646
vn -0.86265135 -0.4754515 0.1725646
g parts_col_155_0
f 3/3/3 2/2/2 1/1/1
f 4/4/4 3/3/3 1/1/1
f 7/7/7 6/6/6 5/5/5
f 8/8/8 7/7/7 5/5/5
f 11/11/11 10/10/10 9/9/9
f 12/12/12 11/11/11 9/9/9
f 15/15/15 14/14/14 13/13/13
f 16/16/16 15/15/15 13/13/13
f 19/19/19 18/18/18 17/17/17
f 20/20/20 19/19/19 17/17/17
f 23/23/23 22/22/22 21/21/21
f 24/24/24 23/23/23 21/21/21
