g parts_col_160
v 0.24008775 -0.8679218 -0.2920087
v 0.83804786 -0.45500922 -0.2920087
v -0.666365 0.9840754 -0.789177
v -0.83804655 0.8581978 -0.789177
v 0.4327032 -0.98407674 0.7891737
v -0.83804655 0.8581978 -0.4637409
v -0.666365 0.9840754 -0.4637409
v 0.76977277 -0.75132024 0.7891737
v 0.24008775 -0.8679218 -0.2920087
v 0.4327032 -0.98407674 0.7891737
v 0.76977277 -0.75132024 0.7891737
v 0.83804786 -0.45500922 -0.2920087
v 0.83804786 -0.45500922 -0.2920087
v 0.76977277 -0.75132024 0.7891737
v -0.666365 0.9840754 -0.4637409
v -0.666365 0.9840754 -0.789177
v -0.666365 0.9840754 -0.789177
v -0.666365 0.9840754 -0.4637409
v -0.83804655 0.8581978 -0.4637409
v -0.83804655 0.8581978 -0.789177
v -0.83804655 0.8581978 -0.789177
v -0.83804655 0.8581978 -0.4637409
v 0.4327032 -0.98407674 0.7891737
v 0.24008775 -0.8679218 -0.2920087
vt 1 0
vt 0 0
vt 0 1
vt 1 1
vt 0 0
vt 0 1
vt 1 1
vt 1 0
vt 0 0
vt 0 1
vt 1 1
vt 1 0
vt 0 0
vt 0 1
vt 1 1
vt 1 0
vt 0 0
vt 0 1
vt 1 1
vt 1 0
vt 0 0
vt 0 1
vt 1 1
vt 1 0
vn 0.13602877 -0.1943608 -0.97145253
vn 0.13602877 -0.1943608 -0.97145253
vn 0.13602877 -0.1943608 -0.97145253
vn 0.13602877 -0.1943608 -0.97145253
vn -0.28039676 0.3986811 0.87317294
vn -0.28039676 0.3986811 0.87317294
vn -0.28039676 0.3986811 0.87317294
vn -0.28039676 0.3986811 0.87317294
vn 0.5589357 -0.808467 -0.18431485
vn 0.5589357 -0.808467 -0.18431485
vn 0.5589357 -0.808467 -0.18431485
vn 0.5589357 -0.808467 -0.18431485
vn 0.66911834 0.72112733 0.17959957
vn 0.66911834 0.72112733 0.17959957
vn 0.66911834 0.72112733 0.17959957
vn 0.66911834 0.72112733 0.17959957
vn -0.59116673 0.8065493 -0
vn -0.59116673 0.8065493 -0
vn -0.59116673 0.8065493 -0
vn -0.59116673 0.8065493 -0
vn -0.8491337 -0.52328837 0.07170299
vn -0.8491337 -0.52328837 0.07170299
vn -0.8491337 -0.52328837 0.07170299
vn -0.8491337 -0.52328837 0.07170299
g parts_col_160_0
f 3/3/3 2/2/2 1/1/1
f 4/4/4 3/3/3 1/1/1
f 7/7/7 6/6/6 5/5/5
f 8/8/8 7/7/7 5/5/5
f 11/11/11 10/10/10 9/9/9
f 12/12/12 11/11/11 9/9/9
f 15/15/15 14/14/14 13/13/13
f 16/16/16 15/15/15 13/13/13
f 19/19/19 18/18/18 17/17/17
f 20/20/20 19/19/19 17/17/17
f 23/23/23 22/22/22 21/21/21
f 24/24/24 23/23/23 21/21/21
