g parts_col_171
v -3.6286273 -3.7703183 -2.0421474
v 5.8045325 -2.206246 -4.609787
v 4.3635397 4.1106925 -4.609787
v -5.8045316 1.0754132 -2.0421474
v -2.8566709 -4.1106825 4.238477
v -5.032575 -0.7097082 4.6097856
v 4.3635397 0.9140272 2.4166875
v 5.8045325 -3.2565446 2.0453792
v -3.6286273 -3.7703183 -2.0421474
v -2.8566709 -4.1106825 4.238477
v 5.8045325 -3.2565446 2.0453792
v 5.8045325 -2.206246 -4.609787
v 5.8045325 -2.206246 -4.609787
v 5.8045325 -3.2565446 2.0453792
v 4.3635397 0.9140272 2.4166875
v 4.3635397 4.1106925 -4.609787
v 4.3635397 4.1106925 -4.609787
v 4.3635397 0.9140272 2.4166875
v -5.032575 -0.7097082 4.6097856
v -5.8045316 1.0754132 -2.0421474
v -5.8045316 1.0754132 -2.0421474
v -5.032575 -0.7097082 4.6097856
v -2.8566709 -4.1106825 4.238477
v -3.6286273 -3.7703183 -2.0421474
vt 1 0
vt 0 0
vt 0 1
vt 1 1
vt 0 0
vt 0 1
vt 1 1
vt 1 0
vt 0 0
vt 0 1
vt 1 1
vt 1 0
vt 0 0
vt 0 1
vt 1 1
vt 1 0
vt 0 0
vt 0 1
vt 1 1
vt 1 0
vt 0 0
vt 0 1
vt 1 1
vt 1 0
vn -0.2350555 -0.07595134 -0.96900994
vn -0.2350555 -0.07595134 -0.96900994
vn -0.2350555 -0.07595134 -0.96900994
vn -0.2350555 -0.07595134 -0.96900994
vn 0.23332828 0.015851915 0.97226876
vn 0.23332828 0.015851915 0.97226876
vn 0.23332828 0.015851915 0.97226876
vn 0.23332828 0.015851915 0.97226876
vn 0.10218078 -0.98836297 -0.112684324
vn 0.10218078 -0.98836297 -0.112684324
vn 0.10218078 -0.98836297 -0.112684324
vn 0.10218078 -0.98836297 -0.112684324
vn 0.96213347 0.261285 0.07764895
vn 0.96213347 0.261285 0.07764895
vn 0.96213347 0.261285 0.07764895
vn 0.96213347 0.261285 0.07764895
vn -0.13763171 0.9282636 0.34552023
vn -0.13763171 0.9282636 0.34552023
vn -0.13763171 0.9282636 0.34552023
vn -0.13763171 0.9282636 0.34552023
vn -0.8832987 -0.46752018 0.034760688
vn -0.8832987 -0.46752018 0.034760688
vn -0.8832987 -0.46752018 0.034760688
vn -0.8832987 -0.46752018 0.034760688
g parts_col_171_0
f 3/3/3 2/2/2 1/1/1
f 4/4/4 3/3/3 1/1/1
f 7/7/7 6/6/6 5/5/5
f 8/8/8 7/7/7 5/5/5
f 11/11/11 10/10/10 9/9/9
f 12/12/12 11/11/11 9/9/9
f 15/15/15 14/14/14 13/13/13
f 16/16/16 15/15/15 13/13/13
f 19/19/19 18/18/18 17/17/17
f 20/20/20 19/19/19 17/17/17
f 23/23/23 22/22/22 21/21/21
f 24/24/24 23/23/23 21/21/21
