g parts_col_194
v -0.44891393 0.6576294 -0.48122546
v -0.5425534 0.56738913 -0.4812267
v -0.36750042 -0.21928504 -0.07961416
v -0.19982791 -0.092859924 -0.07961416
v 0.5974893 -0.4364258 0.05037576
v 0.452554 -0.6576281 0.050374508
v -0.36750042 -0.2192863 0.29985815
v -0.59748924 0.50011814 -0.034477115
v -0.50384986 0.5903597 -0.034475863
v -0.19982791 -0.092861176 0.29985946
v 0.5974893 -0.43642706 0.4812255
v 0.452554 -0.6576294 0.4812255
v -0.36750042 -0.21928504 -0.07961416
v -0.5425534 0.56738913 -0.4812267
v -0.59748924 0.50011814 -0.034477115
v -0.36750042 -0.2192863 0.29985815
v 0.452554 -0.6576281 0.050374508
v 0.452554 -0.6576294 0.4812255
v 0.452554 -0.6576281 0.050374508
v 0.452554 -0.6576294 0.4812255
v 0.5974893 -0.43642706 0.4812255
v 0.5974893 -0.4364258 0.05037576
v -0.19982791 -0.092859924 -0.07961416
v 0.5974893 -0.4364258 0.05037576
v 0.5974893 -0.43642706 0.4812255
v -0.19982791 -0.092861176 0.29985946
v -0.44891393 0.6576294 -0.48122546
v -0.50384986 0.5903597 -0.034475863
v -0.44891393 0.6576294 -0.48122546
v -0.50384986 0.5903597 -0.034475863
v -0.59748924 0.50011814 -0.034477115
v -0.5425534 0.56738913 -0.4812267
vt 1 1
vt 1 0
vt 0.4608072 0
vt 0.4608072 1
vt 0 1
vt 0 0
vt 0.5391928 0
vt 0 0
vt 0 1
vt 0.5391928 1
vt 1 1
vt 1 0
vt 0.5391928 0
vt 0 0
vt 0 1
vt 0.5391928 1
vt 1 0
vt 1 1
vt 0 0
vt 0 1
vt 1 1
vt 1 0
vt 0.4608072 0
vt 0 0
vt 0 1
vt 0.4608072 1
vt 1 0
vt 1 1
vt 0 0
vt 0 1
vt 1 1
vt 1 0
vn 0.309344 -0.37306118 -0.87471807
vn 0.309344 -0.37306118 -0.87471807
vn 0.21467847 -0.24198586 -0.94623256
vn 0.2073965 -0.23106289 -0.95057696
vn 0.110910535 -0.09998757 -0.98878783
vn 0.110910535 -0.09998757 -0.98878783
vn -0.21677786 0.23862368 0.94660765
vn -0.27139252 0.32782775 0.9049172
vn -0.27139252 0.32782775 0.9049172
vn -0.20949584 0.22770077 0.9509279
vn -0.15306062 0.13667625 0.9787196
vn -0.15306062 0.13667625 0.9787196
vn -0.8120783 -0.5824176 -0.036312174
vn -0.9504356 -0.29842108 -0.08727596
vn -0.9504356 -0.29842108 -0.08727596
vn -0.7119513 -0.7007495 -0.04555693
vn -0.47122633 -0.88201225 -0
vn -0.47122633 -0.88201225 -0
vn 0.8367994 -0.5475097 -0
vn 0.8367994 -0.5475097 -0
vn 0.8367994 -0.5475097 -0
vn 0.8367994 -0.5475097 -0
vn 0.7517233 0.65733653 0.053110827
vn 0.39490706 0.91766673 -0.044001564
vn 0.39490706 0.91766673 -0.044001564
vn 0.64235836 0.7664044 -0
vn 0.91192645 0.3988269 0.096577756
vn 0.91192645 0.3988269 0.096577756
vn -0.6937464 0.71923333 0.037674468
vn -0.6937464 0.71923333 0.037674468
vn -0.6937464 0.71923333 0.037674468
vn -0.6937464 0.71923333 0.037674468
g parts_col_194_0
f 3/3/3 2/2/2 1/1/1
f 4/4/4 3/3/3 1/1/1
f 3/3/3 4/4/4 5/5/5
f 6/6/6 3/3/3 5/5/5
f 9/9/9 8/8/8 7/7/7
f 10/10/10 9/9/9 7/7/7
f 11/11/11 10/10/10 7/7/7
f 12/12/12 11/11/11 7/7/7
f 15/15/15 14/14/14 13/13/13
f 16/16/16 15/15/15 13/13/13
f 16/16/16 13/13/13 17/17/17
f 18/18/18 16/16/16 17/17/17
f 21/21/21 20/20/20 19/19/19
f 22/22/22 21/21/21 19/19/19
f 25/25/25 24/24/24 23/23/23
f 26/26/26 25/25/25 23/23/23
f 26/26/26 23/23/23 27/27/27
f 28/28/28 26/26/26 27/27/27
f 31/31/31 30/30/30 29/29/29
f 32/32/32 31/31/31 29/29/29
