g parts_col_54
v -0.85454965 -0.49247873 0.26700938
v -0.6678357 0.5858282 0.38815343
v 1.0265186 0.4560572 0.18058872
v 1.0166609 -0.5048945 0.22528625
v -0.69788766 -0.49312633 -0.1543771
v 0.107047915 -0.54151934 -0.5472384
v 0.1067788 0.4909401 -0.5916399
v -0.6505494 0.53173757 -0.3485573
v -0.85454965 -0.49247873 0.26700938
v -0.69788766 -0.49312633 -0.1543771
v -0.6505494 0.53173757 -0.3485573
v -0.6678357 0.5858282 0.38815343
v -0.6678357 0.5858282 0.38815343
v -0.6505494 0.53173757 -0.3485573
v 0.1067788 0.4909401 -0.5916399
v 1.0265186 0.4560572 0.18058872
v 1.0265186 0.4560572 0.18058872
v 0.1067788 0.4909401 -0.5916399
v 0.107047915 -0.54151934 -0.5472384
v 1.0166609 -0.5048945 0.22528625
v 1.0166609 -0.5048945 0.22528625
v 0.107047915 -0.54151934 -0.5472384
v -0.69788766 -0.49312633 -0.1543771
v -0.85454965 -0.49247873 0.26700938
vt 1 0
vt 0 0
vt 0 1
vt 1 1
vt 0 0
vt 0 1
vt 1 1
vt 1 0
vt 0 0
vt 0 1
vt 1 1
vt 1 0
vt 0 0
vt 0 1
vt 1 1
vt 1 0
vt 0 0
vt 0 1
vt 1 1
vt 1 0
vt 0 0
vt 0 1
vt 1 1
vt 1 0
vn 0.06833339 -0.04296875 0.9967368
vn 0.06833339 -0.04296875 0.9967368
vn 0.06833339 -0.04296875 0.9967368
vn 0.06833339 -0.04296875 0.9967368
vn -0.3804252 -0.09760022 -0.91964716
vn -0.3804252 -0.09760022 -0.91964716
vn -0.3804252 -0.09760022 -0.91964716
vn -0.3804252 -0.09760022 -0.91964716
vn -0.9833226 0.10336554 -0.14964026
vn -0.9833226 0.10336554 -0.14964026
vn -0.9833226 0.10336554 -0.14964026
vn -0.9833226 0.10336554 -0.14964026
vn 0.060528874 0.9969804 -0.048644673
vn 0.060528874 0.9969804 -0.048644673
vn 0.060528874 0.9969804 -0.048644673
vn 0.060528874 0.9969804 -0.048644673
vn 0.643915 -0.037115395 -0.7641963
vn 0.643915 -0.037115395 -0.7641963
vn 0.643915 -0.037115395 -0.7641963
vn 0.643915 -0.037115395 -0.7641963
vn -0.015565038 -0.9990196 0.041442826
vn -0.015565038 -0.9990196 0.041442826
vn -0.015565038 -0.9990196 0.041442826
vn -0.015565038 -0.9990196 0.041442826
g parts_col_54_0
f 3/3/3 2/2/2 1/1/1
f 4/4/4 3/3/3 1/1/1
f 7/7/7 6/6/6 5/5/5
f 8/8/8 7/7/7 5/5/5
f 11/11/11 10/10/10 9/9/9
f 12/12/12 11/11/11 9/9/9
f 15/15/15 14/14/14 13/13/13
f 16/16/16 15/15/15 13/13/13
f 19/19/19 18/18/18 17/17/17
f 20/20/20 19/19/19 17/17/17
f 23/23/23 22/22/22 21/21/21
f 24/24/24 23/23/23 21/21/21
