g parts_col_19
v 0.15577972 -2.1275709 0.38367128
v -1.4402051 -1.0401146 0.26851034
v -0.54625344 0.5459206 1.5110979
v 1.1708171 -0.3267069 1.7945676
v 0.9679128 -0.9682158 -1.6803968
v 1.9829502 0.8326483 -0.2695005
v 0.16899836 1.5669725 -0.3067441
v -0.7249532 -0.019058943 -1.5493315
v 0.15577972 -2.1275709 0.38367128
v 0.9679128 -0.9682158 -1.6803968
v -0.7249532 -0.019058943 -1.5493315
v -1.4402051 -1.0401146 0.26851034
v -1.4402051 -1.0401146 0.26851034
v -0.7249532 -0.019058943 -1.5493315
v 0.16899836 1.5669725 -0.3067441
v -0.54625344 0.5459206 1.5110979
v -0.54625344 0.5459206 1.5110979
v 0.16899836 1.5669725 -0.3067441
v 1.9829502 0.8326483 -0.2695005
v 1.1708171 -0.3267069 1.7945676
v 1.1708171 -0.3267069 1.7945676
v 1.9829502 0.8326483 -0.2695005
v 0.9679128 -0.9682158 -1.6803968
v 0.15577972 -2.1275709 0.38367128
vt 1 0
vt 0 0
vt 0 1
vt 1 1
vt 0 0
vt 0 1
vt 1 1
vt 1 0
vt 0 0
vt 0 1
vt 1 1
vt 1 0
vt 0 0
vt 0 1
vt 1 1
vt 1 0
vt 0 0
vt 0 1
vt 1 1
vt 1 0
vt 0 0
vt 0 1
vt 1 1
vt 1 0
vn -0.36002362 -0.44188508 0.82165724
vn -0.36002362 -0.44188508 0.82165724
vn -0.36002362 -0.44188508 0.82165724
vn -0.36002362 -0.44188508 0.82165724
vn 0.22637212 0.5187347 -0.824421
vn 0.22637212 0.5187347 -0.824421
vn 0.22637212 0.5187347 -0.824421
vn 0.22637212 0.5187347 -0.824421
vn -0.4368732 -0.70083475 -0.56389046
vn -0.4368732 -0.70083475 -0.56389046
vn -0.4368732 -0.70083475 -0.56389046
vn -0.4368732 -0.70083475 -0.56389046
vn -0.8545339 0.5170641 -0.049158428
vn -0.8545339 0.5170641 -0.049158428
vn -0.8545339 0.5170641 -0.049158428
vn -0.8545339 0.5170641 -0.049158428
vn 0.3032217 0.77601373 0.5530455
vn 0.3032217 0.77601373 0.5530455
vn 0.3032217 0.77601373 0.5530455
vn 0.3032217 0.77601373 0.5530455
vn 0.8545339 -0.517064 0.049159642
vn 0.8545339 -0.517064 0.049159642
vn 0.8545339 -0.517064 0.049159642
vn 0.8545339 -0.517064 0.049159642
g parts_col_19_0
f 3/3/3 2/2/2 1/1/1
f 4/4/4 3/3/3 1/1/1
f 7/7/7 6/6/6 5/5/5
f 8/8/8 7/7/7 5/5/5
f 11/11/11 10/10/10 9/9/9
f 12/12/12 11/11/11 9/9/9
f 15/15/15 14/14/14 13/13/13
f 16/16/16 15/15/15 13/13/13
f 19/19/19 18/18/18 17/17/17
f 20/20/20 19/19/19 17/17/17
f 23/23/23 22/22/22 21/21/21
f 24/24/24 23/23/23 21/21/21
