g parts_col_162
v 0.31701314 -0.98396623 -0.25186145
v 0.9149744 -0.5710559 -0.25186145
v -0.7135577 1.1991193 -0.8293184
v -0.9699516 1.0111294 -0.8293184
v 0.6328844 -1.1991274 0.8293216
v -0.9699516 1.0111294 -0.34330618
v -0.71355534 1.1991193 -0.34330618
v 0.96995515 -0.9663712 0.8293216
v 0.31701314 -0.98396623 -0.25186145
v 0.6328844 -1.1991274 0.8293216
v 0.96995515 -0.9663712 0.8293216
v 0.9149744 -0.5710559 -0.25186145
v 0.9149744 -0.5710559 -0.25186145
v 0.96995515 -0.9663712 0.8293216
v -0.71355534 1.1991193 -0.34330618
v -0.7135577 1.1991193 -0.8293184
v -0.7135577 1.1991193 -0.8293184
v -0.71355534 1.1991193 -0.34330618
v -0.9699516 1.0111294 -0.34330618
v -0.9699516 1.0111294 -0.8293184
v -0.9699516 1.0111294 -0.8293184
v -0.9699516 1.0111294 -0.34330618
v 0.6328844 -1.1991274 0.8293216
v 0.31701314 -0.98396623 -0.25186145
vt 1 0
vt 0 0
vt 0 1
vt 1 1
vt 0 0
vt 0 1
vt 1 1
vt 1 0
vt 0 0
vt 0 1
vt 1 1
vt 1 0
vt 0 0
vt 0 1
vt 1 1
vt 1 0
vt 0 0
vt 0 1
vt 1 1
vt 1 0
vt 0 0
vt 0 1
vt 1 1
vt 1 0
vn 0.13539237 -0.19240016 -0.97193164
vn 0.13539237 -0.19240016 -0.97193164
vn 0.13539237 -0.19240016 -0.97193164
vn 0.13539237 -0.19240016 -0.97193164
vn -0.22724068 0.32067013 0.9195283
vn -0.22724068 0.32067013 0.9195283
vn -0.22724068 0.32067013 0.9195283
vn -0.22724068 0.32067013 0.9195283
vn 0.5391977 -0.7814809 -0.31393218
vn 0.5391977 -0.7814809 -0.31393218
vn 0.5391977 -0.7814809 -0.31393218
vn 0.5391977 -0.7814809 -0.31393218
vn 0.7244731 0.6738019 0.14536068
vn 0.7244731 0.6738019 0.14536068
vn 0.7244731 0.6738019 0.14536068
vn 0.7244731 0.6738019 0.14536068
vn -0.5912266 0.8065055 -0
vn -0.5912266 0.8065055 -0
vn -0.5912266 0.8065055 -0
vn -0.5912266 0.8065055 -0
vn -0.8384912 -0.5360306 0.097998664
vn -0.8384912 -0.5360306 0.097998664
vn -0.8384912 -0.5360306 0.097998664
vn -0.8384912 -0.5360306 0.097998664
g parts_col_162_0
f 3/3/3 2/2/2 1/1/1
f 4/4/4 3/3/3 1/1/1
f 7/7/7 6/6/6 5/5/5
f 8/8/8 7/7/7 5/5/5
f 11/11/11 10/10/10 9/9/9
f 12/12/12 11/11/11 9/9/9
f 15/15/15 14/14/14 13/13/13
f 16/16/16 15/15/15 13/13/13
f 19/19/19 18/18/18 17/17/17
f 20/20/20 19/19/19 17/17/17
f 23/23/23 22/22/22 21/21/21
f 24/24/24 23/23/23 21/21/21
