g parts_col_62
v -1.9529872 -2.3213005 -0.72593915
v 2.5788178 -1.2792844 0.096922874
v 0.52506113 2.942287 -1.8557918
v -2.2932863 1.4147007 -2.2635345
v -1.6613612 -2.3213005 1.8637662
v -2.0016599 1.4147007 1.0920355
v 0.5250664 2.942287 -0.59732795
v 2.5788178 -1.2792844 1.7666888
v -1.9529872 -2.3213005 -0.72593915
v -1.6613612 -2.3213005 1.8637662
v 2.5788178 -1.2792844 1.7666888
v 2.5788178 -1.2792844 0.096922874
v 2.5788178 -1.2792844 0.096922874
v 2.5788178 -1.2792844 1.7666888
v 0.5250664 2.942287 -0.59732795
v 0.52506113 2.942287 -1.8557918
v 0.52506113 2.942287 -1.8557918
v 0.5250664 2.942287 -0.59732795
v -2.0016599 1.4147007 1.0920355
v -2.2932863 1.4147007 -2.2635345
v -2.2932863 1.4147007 -2.2635345
v -2.0016599 1.4147007 1.0920355
v -1.6613612 -2.3213005 1.8637662
v -1.9529872 -2.3213005 -0.72593915
vt 1 0
vt 0 0
vt 0 1
vt 1 1
vt 0 0
vt 0 1
vt 1 1
vt 1 0
vt 0 0
vt 0 1
vt 1 1
vt 1 0
vt 0 0
vt 0 1
vt 1 1
vt 1 0
vt 0 0
vt 0 1
vt 1 1
vt 1 0
vt 0 0
vt 0 1
vt 1 1
vt 1 0
vn 0.26338935 -0.31911886 -0.9103786
vn 0.26338935 -0.31911886 -0.9103786
vn 0.26338935 -0.31911886 -0.9103786
vn 0.26338935 -0.31911886 -0.9103786
vn 0.09427911 0.38999122 0.9159794
vn 0.09427911 0.38999122 0.9159794
vn 0.09427911 0.38999122 0.9159794
vn 0.09427911 0.38999122 0.9159794
vn 0.23264205 -0.97249943 -0.0110701015
vn 0.23264205 -0.97249943 -0.0110701015
vn 0.23264205 -0.97249943 -0.0110701015
vn 0.23264205 -0.97249943 -0.0110701015
vn 0.89905745 0.43783075 -0
vn 0.89905745 0.43783075 -0
vn 0.89905745 0.43783075 -0
vn 0.89905745 0.43783075 -0
vn -0.48991996 0.87041813 0.048483893
vn -0.48991996 0.87041813 0.048483893
vn -0.48991996 0.87041813 0.048483893
vn -0.48991996 0.87041813 0.048483893
vn -0.9934074 -0.05968833 0.09787234
vn -0.9934074 -0.05968833 0.09787234
vn -0.9934074 -0.05968833 0.09787234
vn -0.9934074 -0.05968833 0.09787234
g parts_col_62_0
f 3/3/3 2/2/2 1/1/1
f 4/4/4 3/3/3 1/1/1
f 7/7/7 6/6/6 5/5/5
f 8/8/8 7/7/7 5/5/5
f 11/11/11 10/10/10 9/9/9
f 12/12/12 11/11/11 9/9/9
f 15/15/15 14/14/14 13/13/13
f 16/16/16 15/15/15 13/13/13
f 19/19/19 18/18/18 17/17/17
f 20/20/20 19/19/19 17/17/17
f 23/23/23 22/22/22 21/21/21
f 24/24/24 23/23/23 21/21/21
