g parts_col_63
v -1.0494288 -1.4596795 -0.9047674
v 0.9115123 -1.4596795 -0.42246556
v 1.5348395 1.4596797 -1.3529612
v -1.5348397 1.0759782 -1.4372432
v -1.0494288 -1.4596795 0.90476763
v -1.5348397 1.0759782 1.4372464
v 1.5348395 1.4596797 1.3529614
v 0.9115123 -1.4596795 0.42246282
v -1.0494288 -1.4596795 -0.9047674
v -1.0494288 -1.4596795 0.90476763
v 0.9115123 -1.4596795 0.42246282
v 0.9115123 -1.4596795 -0.42246556
v 0.9115123 -1.4596795 -0.42246556
v 0.9115123 -1.4596795 0.42246282
v 1.5348395 1.4596797 1.3529614
v 1.5348395 1.4596797 -1.3529612
v 1.5348395 1.4596797 -1.3529612
v 1.5348395 1.4596797 1.3529614
v -1.5348397 1.0759782 1.4372464
v -1.5348397 1.0759782 -1.4372432
v -1.5348397 1.0759782 -1.4372432
v -1.5348397 1.0759782 1.4372464
v -1.0494288 -1.4596795 0.90476763
v -1.0494288 -1.4596795 -0.9047674
vt 1 0
vt 0 0
vt 0 1
vt 1 1
vt 0 0
vt 0 1
vt 1 1
vt 1 0
vt 0 0
vt 0 1
vt 1 1
vt 1 0
vt 0 0
vt 0 1
vt 1 1
vt 1 0
vt 0 0
vt 0 1
vt 1 1
vt 1 0
vt 0 0
vt 0 1
vt 1 1
vt 1 0
vn 0.1275261 -0.2599551 -0.95716274
vn 0.1275261 -0.2599551 -0.95716274
vn 0.1275261 -0.2599551 -0.95716274
vn 0.1275261 -0.2599551 -0.95716274
vn 0.1275261 -0.2599551 0.95716274
vn 0.1275261 -0.2599551 0.95716274
vn 0.1275261 -0.2599551 0.95716274
vn 0.1275261 -0.2599551 0.95716274
vn 0.0009394884 -0.99999964 -0
vn 0.0009394884 -0.99999964 -0
vn 0.0009394884 -0.99999964 -0
vn 0.0009394884 -0.99999964 -0
vn 0.97787905 -0.20917113 -0
vn 0.97787905 -0.20917113 -0
vn 0.97787905 -0.20917113 -0
vn 0.97787905 -0.20917113 -0
vn -0.123699546 0.9922782 -0.009075992
vn -0.123699546 0.9922782 -0.009075992
vn -0.123699546 0.9922782 -0.009075992
vn -0.123699546 0.9922782 -0.009075992
vn -0.9822009 -0.18783318 -0
vn -0.9822009 -0.18783318 -0
vn -0.9822009 -0.18783318 -0
vn -0.9822009 -0.18783318 -0
g parts_col_63_0
f 3/3/3 2/2/2 1/1/1
f 4/4/4 3/3/3 1/1/1
f 7/7/7 6/6/6 5/5/5
f 8/8/8 7/7/7 5/5/5
f 11/11/11 10/10/10 9/9/9
f 12/12/12 11/11/11 9/9/9
f 15/15/15 14/14/14 13/13/13
f 16/16/16 15/15/15 13/13/13
f 19/19/19 18/18/18 17/17/17
f 20/20/20 19/19/19 17/17/17
f 23/23/23 22/22/22 21/21/21
f 24/24/24 23/23/23 21/21/21
