g sbg_cityforestunder_ground_m_tex
v 47.6025 -13.779831 5.6235105E-05
v 86.20284 -13.779831 5.6235105E-05
v 86.20284 -5.5655975 5.6235105E-05
v 47.6025 -5.5655975 5.6235105E-05
v 86.20284 15.05036 5.5333046E-05
v 47.6025 15.05036 5.5333046E-05
v -47.6025 15.05036 4.095749E-05
v -47.6025 -5.5655994 4.185955E-05
v -47.6025 -13.779833 4.185955E-05
v -85.07926 -13.779833 4.1859545E-05
v -85.07926 -5.5655994 4.185955E-05
v -85.07926 15.05036 4.095749E-05
vt 0.00035098183 0.32034126
vt 0.41236815 0.32034126
vt 0.41236815 0.24741048
vt 0.00035098183 0.24741048
vt 0.41236815 0.4637067
vt 0.00035098183 0.4637067
vt 0.99954796 0.46370673
vt 0.99954796 0.24741049
vt 0.99954796 0.3203413
vt 0.63903296 0.3203413
vt 0.63903296 0.24741049
vt 0.63903296 0.46370673
vn -0 0 -1
vn -0 0 -1
vn -0 0 -1
vn -0 0 -1
vn -0 0 -1
vn -0 0 -1
vn -0 0 -1
vn -0 0 -1
vn -0 0 -1
vn -0 0 -1
vn -0 0 -1
vn -0 0 -1
g sbg_cityforestunder_ground_m_tex_0
f 3/3/3 2/2/2 1/1/1
f 4/4/4 3/3/3 1/1/1
f 5/5/5 3/3/3 4/4/4
f 6/6/6 5/5/5 4/4/4
f 7/7/7 6/6/6 4/4/4
f 4/4/4 1/1/1 8/8/8
f 8/8/8 7/7/7 4/4/4
f 1/1/1 9/9/9 8/8/8
f 9/9/9 10/10/10 8/8/8
f 10/10/10 11/11/11 8/8/8
f 8/8/8 11/11/11 7/7/7
f 11/11/11 12/12/12 7/7/7
