g sbg_cityforestunder_ground_c_tex
v 10.386 0.28884888 5.24152E-05
v 21.639936 0.28884888 5.24152E-05
v 21.639936 3.818049 5.2260933E-05
v 10.386 3.818049 5.2260933E-05
v -10.386 3.818049 4.9124446E-05
v -10.386 0.28884888 4.9278715E-05
v -21.634779 0.28884888 4.9278715E-05
v -21.634779 3.818049 4.9124446E-05
vt -0.50555015 0.62383914
vt 0.5505432 0.62383914
vt 0.5505432 0.96313214
vt -0.5060036 0.96313214
vt 1.4919964 0.96313214
vt 1.4924499 0.62383914
vt 0.500922 0.62383914
vt 0.50046855 0.96313214
vn -0 0 -1
vn -0 0 -1
vn -0 0 -1
vn -0 0 -1
vn -0 0 -1
vn -0 0 -1
vn -0 0 -1
vn -0 0 -1
g sbg_cityforestunder_ground_c_tex_0
f 3/3/3 2/2/2 1/1/1
f 4/4/4 3/3/3 1/1/1
f 5/5/5 4/4/4 1/1/1
f 6/6/6 5/5/5 1/1/1
f 6/6/6 7/7/7 5/5/5
f 7/7/7 8/8/8 5/5/5
