g sbg_tower_ground_n_tex
v 21.6375 -1.4083138 5.22473E-05
v 46.75694 -1.4083138 5.22473E-05
v 46.75694 3.0732574 5.2028972E-05
v 21.6375 3.0732574 5.2028972E-05
v 46.75694 14.251862 5.1540846E-05
v 21.6375 14.251862 5.1540846E-05
v -21.6375 14.251862 4.50065E-05
v -21.6375 3.0732574 4.549463E-05
v -21.6375 -1.4083138 4.5712954E-05
v -46.728165 -1.4083138 4.5712954E-05
v -46.728165 3.0732574 4.5494628E-05
v -46.728165 14.251862 4.50065E-05
vt 0.00037890673 0.09770185
vt 0.4996636 0.09770185
vt 0.4996636 0.0005587696
vt 0.00037890673 0.0005587696
vt 0.4996636 0.25784102
vt 0.00037890673 0.25784102
vt 0.9995265 0.25784102
vt 0.9995265 0.00055879203
vt 0.9995265 0.09770185
vt 0.4996636 0.09770185
vt 0.4996636 0.00055879203
vt 0.4996636 0.25784102
vn -0 0 -1
vn -0 0 -1
vn -0 0 -1
vn -0 0 -1
vn -0 0 -1
vn -0 0 -1
vn -0 0 -1
vn -0 0 -1
vn -0 0 -1
vn -0 0 -1
vn -0 0 -1
vn -0 0 -1
g sbg_tower_ground_n_tex_0
f 3/3/3 2/2/2 1/1/1
f 4/4/4 3/3/3 1/1/1
f 5/5/5 3/3/3 4/4/4
f 6/6/6 5/5/5 4/4/4
f 7/7/7 6/6/6 4/4/4
f 8/8/8 4/4/4 1/1/1
f 8/8/8 7/7/7 4/4/4
f 9/9/9 8/8/8 1/1/1
f 9/9/9 10/10/10 8/8/8
f 10/10/10 11/11/11 8/8/8
f 8/8/8 11/11/11 7/7/7
f 11/11/11 12/12/12 7/7/7
