g sbg_tower_ground_c_tex
v 10.386 0.28884888 5.24152E-05
v 21.636034 0.28884888 5.24152E-05
v 21.636034 3.6543977 5.2267722E-05
v 10.386 3.6543977 5.2267722E-05
v -7.731526E-12 3.6543977 5.069948E-05
v -7.753794E-12 0.28884888 5.0846957E-05
v -10.386 0.28884888 4.9278715E-05
v -10.386 3.6543977 4.913124E-05
v -21.636814 0.28884888 4.9278715E-05
v -21.636814 3.6543977 4.913124E-05
vt 0.0005240562 0.67463446
vt 1 0.67463446
vt 1 0.99856925
vt 0.0005240562 0.99856925
vt 1 0.99856925
vt 1 0.67463446
vt 0.0005240562 0.67463446
vt 0.0005240562 0.99856925
vt 1 0.67463446
vt 1 0.99856925
vn -0 0 -1
vn -0 0 -1
vn -0 0 -1
vn -0 0 -1
vn -0 0 -1
vn -0 0 -1
vn -0 0 -1
vn -0 0 -1
vn -0 0 -1
vn -0 0 -1
g sbg_tower_ground_c_tex_0
f 3/3/3 2/2/2 1/1/1
f 4/4/4 3/3/3 1/1/1
f 5/5/5 4/4/4 1/1/1
f 6/6/6 5/5/5 1/1/1
f 5/5/5 6/6/6 7/7/7
f 8/8/8 5/5/5 7/7/7
f 7/7/7 9/9/9 8/8/8
f 9/9/9 10/10/10 8/8/8
