g sbg_iceland_ground_c02_tex
v 10.386 0.28884888 5.24152E-05
v -7.730044E-12 3.887249 5.0689665E-05
v -7.753794E-12 0.28884888 5.0846957E-05
v 10.386 3.887249 5.2257907E-05
v 20.20005 3.887249 5.2257907E-05
v 20.20005 0.28884888 5.24152E-05
v -10.386 0.28884888 4.9278715E-05
v -7.753794E-12 0.28884888 5.0846957E-05
v -7.730044E-12 3.887249 5.0689665E-05
v -10.386 3.887249 4.9121423E-05
v -20.824873 0.28884888 4.9278715E-05
v -20.824873 3.887249 4.9121423E-05
vt 0.0001520121 0.30048886
vt 0.9994938 0.6490869
vt 0.99949366 0.30048886
vt 0.0001520121 0.6490869
vt 0.99949646 0.6490869
vt 0.99949646 0.30048886
vt 0.9998526 0.6490932
vt 0.0005045399 0.6490932
vt 0.0005046591 0.99455863
vt 0.9998526 0.99455863
vt 0.0005125415 0.6490932
vt 0.0005125415 0.99455863
vn -0 0 -1
vn -0 0 -1
vn -0 0 -1
vn -0 0 -1
vn -0 0 -1
vn -0 0 -1
vn -0 0 -1
vn -0 0 -1
vn -0 0 -1
vn -0 0 -1
vn -0 0 -1
vn -0 0 -1
g sbg_iceland_ground_c02_tex_0
f 3/3/3 2/2/2 1/1/1
f 2/2/2 4/4/4 1/1/1
f 4/4/4 5/5/5 1/1/1
f 5/5/5 6/6/6 1/1/1
f 9/9/9 8/8/8 7/7/7
f 10/10/10 9/9/9 7/7/7
f 7/7/7 11/11/11 10/10/10
f 11/11/11 12/12/12 10/10/10
