g sbg_greathole_ground_m_tex
v 51.93 -19.90276 5.6998677E-05
v 92.81964 -19.90276 5.6998677E-05
v 92.81964 -8.085072 5.6998673E-05
v 51.93 -8.085072 5.6998677E-05
v 92.81964 15.950209 5.594806E-05
v 51.93 15.950209 5.594806E-05
v -51.93 15.950209 4.0265637E-05
v -51.93 -8.085072 4.1316252E-05
v -51.93 -19.90276 4.1316252E-05
v -93.46629 -19.90276 4.1316252E-05
v -93.46629 -8.085072 4.1316252E-05
v -93.46629 15.950209 4.0265637E-05
vt 0.0005465746 0.43527114
vt 0.45004755 0.43527114
vt 0.45004755 0.29650146
vt 0.0005465746 0.29650146
vt 0.45004755 0.52748895
vt 0.0005465746 0.52748895
vt 0.99959093 0.52748895
vt 0.99959093 0.29650143
vt 0.99959093 0.43527108
vt 0.5495052 0.43527108
vt 0.5495052 0.29650143
vt 0.5495052 0.52748895
vn -0 0 -1
vn -0 0 -1
vn -0 0 -1
vn -0 0 -1
vn -0 0 -1
vn -0 0 -1
vn -0 0 -1
vn -0 0 -1
vn -0 0 -1
vn -0 0 -1
vn -0 0 -1
vn -0 0 -1
g sbg_greathole_ground_m_tex_0
f 3/3/3 2/2/2 1/1/1
f 4/4/4 3/3/3 1/1/1
f 5/5/5 3/3/3 4/4/4
f 6/6/6 5/5/5 4/4/4
f 7/7/7 6/6/6 4/4/4
f 4/4/4 1/1/1 8/8/8
f 8/8/8 7/7/7 4/4/4
f 1/1/1 9/9/9 8/8/8
f 9/9/9 10/10/10 8/8/8
f 10/10/10 11/11/11 8/8/8
f 8/8/8 11/11/11 7/7/7
f 11/11/11 12/12/12 7/7/7
