g sbg_desertmbg001_ground_m_tex
v 47.6025 0.4339466 5.7881316E-05
v 47.6025 15.561817 5.7219655E-05
v -47.6025 15.561819 4.093675E-05
v -47.6025 0.43394852 4.159841E-05
v 47.6025 -7.492119 5.7881316E-05
v -47.6025 -7.492117 4.159841E-05
v -47.6025 0.43394852 4.159841E-05
v -47.6025 15.561819 4.093675E-05
v -142.8075 15.56182 2.6561198E-05
v -142.8075 0.43395042 2.7222859E-05
v -47.6025 -7.492117 4.159841E-05
v -142.8075 -7.492115 2.7222859E-05
v 142.8075 0.4339466 7.4164214E-05
v 142.8075 15.561819 7.350255E-05
v 47.6025 15.561817 5.7219655E-05
v 47.6025 0.4339466 5.7881316E-05
v 142.8075 -7.492119 7.4164214E-05
v 47.6025 -7.492119 5.7881316E-05
vt 0.002 0.25893107
vt 0.002 0.41761136
vt 0.999308 0.41761136
vt 0.999308 0.25893107
vt 0.002 0.32165805
vt 0.999308 0.32165805
vt 0.002 0.25893107
vt 0.002 0.41761136
vt 0.999308 0.41761136
vt 0.999308 0.25893107
vt 0.002 0.32165805
vt 0.999308 0.32165805
vt 0.002 0.25893107
vt 0.002 0.41761136
vt 0.999308 0.41761136
vt 0.999308 0.25893107
vt 0.002 0.32165805
vt 0.999308 0.32165805
vn -0 0 -1
vn -0 0 -1
vn -0 0 -1
vn -0 0 -1
vn -0 0 -1
vn -0 0 -1
vn -0 0 -1
vn -0 0 -1
vn -0 0 -1
vn -0 0 -1
vn -0 0 -1
vn -0 0 -1
vn -0 0 -1
vn -0 0 -1
vn -0 0 -1
vn -0 0 -1
vn -0 0 -1
vn -0 0 -1
g sbg_desertmbg001_ground_m_tex_0
f 3/3/3 2/2/2 1/1/1
f 4/4/4 3/3/3 1/1/1
f 1/1/1 5/5/5 4/4/4
f 5/5/5 6/6/6 4/4/4
f 9/9/9 8/8/8 7/7/7
f 10/10/10 9/9/9 7/7/7
f 7/7/7 11/11/11 10/10/10
f 11/11/11 12/12/12 10/10/10
f 15/15/15 14/14/14 13/13/13
f 16/16/16 15/15/15 13/13/13
f 13/13/13 17/17/17 16/16/16
f 17/17/17 18/18/18 16/16/16
