g sbg_desert_nm_crane02_ani_skin
v -8.251623 -7.960868E-05 -0.89030266
v -9.927517 -7.8786856E-05 -2.3042488
v -9.63891 -7.90474E-05 -2.7912726
v -9.98164 -7.817982E-05 1.2131424
v 2.5711517 -8.5978325E-05 1.7198725
v 9.911104 -9.103262E-05 -1.0178499
v 9.98164 -9.057684E-05 2.0514956
v 6.5633764 -8.8441135E-05 1.9877224
v 2.6476762 -8.585182E-05 2.7912683
v 5.109337 -8.740148E-05 2.7657595
v 6.499605 -8.8330446E-05 2.4213839
vt 0.7538028 0.80026424
vt 0.8109286 0.7520673
vt 0.80109096 0.73546624
vt 0.81277347 0.87196386
vt 0.3848891 0.8892368
vt 0.1346936 0.7959167
vt 0.13228932 0.9005408
vt 0.24880695 0.898367
vt 0.38228065 0.9257573
vt 0.29837054 0.9248878
vt 0.25098073 0.9131491
vn -0 1 0
vn -0 1 0
vn -0 1 0
vn -0 1 0
vn -0 1 0
vn -0 1 0
vn -0 1 0
vn -0 1 0
vn -0 1 0
vn -0 1 0
vn -0 1 0
g sbg_desert_nm_crane02_ani_skin_0
f 3/3/3 2/2/2 1/1/1
f 2/2/2 4/4/4 1/1/1
f 4/4/4 5/5/5 1/1/1
f 5/5/5 6/6/6 1/1/1
f 7/7/7 6/6/6 5/5/5
f 8/8/8 7/7/7 5/5/5
f 9/9/9 8/8/8 5/5/5
f 10/10/10 8/8/8 9/9/9
f 11/11/11 8/8/8 10/10/10
