g spp001
v -0 -0.003175 0
v -0 0 0
v 0.003175 0 0
v 0.003175 -0.003175 0
v 0.0739793 -0.0030799475 0
v 0.0739793 9.505234E-05 0
v 0.0771543 9.505234E-05 0
v 0.0771543 -0.0030799475 0
v 0.30852574 -0.5121089 0.00127
v 0.30852574 -0.50893396 0.00127
v 0.31170073 -0.50893396 0.00127
v 0.31170073 -0.5121089 0.00127
v 0.14359415 -0.65204656 0.00127
v 0.14359415 -0.6488716 0.00127
v 0.14676914 -0.6488716 0.00127
v 0.14676914 -0.65204656 0.00127
v 0.093742535 -1.1640397 0
v 0.093742535 -1.1608648 0
v 0.09691753 -1.1608648 0
v 0.09691753 -1.1640397 0
v -0.33145863 -1.4388074 0
v -0.33145863 -1.4356323 0
v -0.32828364 -1.4356323 0
v -0.32828364 -1.4388074 0
vt 0.5 0.25
vt 0.5 0.5
vt 0.75 0.5
vt 0.75 0.25
vt 0.25 0.5
vt 0.25 0.75
vt 0.5 0.75
vt 0.5 0.5
vt 0.25 0.25
vt 0.25 0.5
vt 0.5 0.5
vt 0.5 0.25
vt 0.25 0.5
vt 0.25 0.75
vt 0.5 0.75
vt 0.5 0.5
vt 0.25 0.5
vt 0.25 0.75
vt 0.5 0.75
vt 0.5 0.5
vt 0.25 0.25
vt 0.25 0.5
vt 0.5 0.5
vt 0.5 0.25
vn -0 0 1
vn -0 0 1
vn -0 0 1
vn -0 0 1
vn -0 0 1
vn -0 0 1
vn -0 0 1
vn -0 0 1
vn -0 0 1
vn -0 0 1
vn -0 0 1
vn -0 0 1
vn -0 0 1
vn -0 0 1
vn -0 0 1
vn -0 0 1
vn -0 0 1
vn -0 0 1
vn -0 0 1
vn -0 0 1
vn -0 0 1
vn -0 0 1
vn -0 0 1
vn -0 0 1
g spp001_0
f 3/3/3 2/2/2 1/1/1
f 4/4/4 3/3/3 1/1/1
f 7/7/7 6/6/6 5/5/5
f 8/8/8 7/7/7 5/5/5
f 11/11/11 10/10/10 9/9/9
f 12/12/12 11/11/11 9/9/9
f 15/15/15 14/14/14 13/13/13
f 16/16/16 15/15/15 13/13/13
f 19/19/19 18/18/18 17/17/17
f 20/20/20 19/19/19 17/17/17
f 23/23/23 22/22/22 21/21/21
f 24/24/24 23/23/23 21/21/21
