g SunkenShip01_09
v 0.08023804 -0.40437302 0.075399704
v 0.07831726 -0.22395247 0.074567795
v 0.1081195 -0.2240361 -0.0034723664
v 0.11004089 -0.40445662 -0.0026404571
v -0.1081195 -0.4089647 0.0034722136
v -0.11004089 -0.22854476 0.0026404571
v -0.07594665 -0.22714095 0.07889015
v -0.074025266 -0.40756088 0.07972206
v -0.0020745848 -0.4077623 -0.1086837
v -0.0039959718 -0.22734176 -0.10951561
v -0.08023926 -0.22862777 -0.07539985
v -0.07831726 -0.4090483 -0.074567944
v 0.11004089 -0.40445662 -0.0026404571
v 0.1081195 -0.2240361 -0.0034723664
v 0.074024044 -0.2254399 -0.07972237
v 0.07594543 -0.40586042 -0.07889046
v 0.0039959718 -0.40565902 0.1095153
v 0.0020745848 -0.22523849 0.10868339
v 0.07831726 -0.22395247 0.074567795
v 0.08023804 -0.40437302 0.075399704
v -0.074025266 -0.40756088 0.07972206
v -0.07594665 -0.22714095 0.07889015
v 0.0020745848 -0.22523849 0.10868339
v 0.0039959718 -0.40565902 0.1095153
v -0.07831726 -0.4090483 -0.074567944
v -0.08023926 -0.22862777 -0.07539985
v -0.11004089 -0.22854476 0.0026404571
v -0.1081195 -0.4089647 0.0034722136
v 0.07594543 -0.40586042 -0.07889046
v 0.074024044 -0.2254399 -0.07972237
v -0.0039959718 -0.22734176 -0.10951561
v -0.0020745848 -0.4077623 -0.1086837
v -0.0039959718 -0.22734176 -0.10951561
v -0.003786621 -0.19202682 -0.07598503
v -0.05637512 -0.19291367 -0.052453384
v -0.08023926 -0.22862777 -0.07539985
v 0.1081195 -0.2240361 -0.0034723664
v 0.07354675 -0.18974654 -0.00284111
v 0.050028685 -0.19071518 -0.05543495
v 0.074024044 -0.2254399 -0.07972237
v 0.0020745848 -0.22523849 0.10868339
v 0.00040100096 -0.19057602 0.07451912
v 0.052990112 -0.18968917 0.050987624
v 0.07831726 -0.22395247 0.074567795
v -0.07594665 -0.22714095 0.07889015
v -0.053414915 -0.19188827 0.05396904
v 0.00040100096 -0.19057602 0.07451912
v 0.0020745848 -0.22523849 0.10868339
v -0.08023926 -0.22862777 -0.07539985
v -0.05637512 -0.19291367 -0.052453384
v -0.07693176 -0.19285628 0.0013753509
v -0.11004089 -0.22854476 0.0026404571
v 0.074024044 -0.2254399 -0.07972237
v 0.050028685 -0.19071518 -0.05543495
v -0.003786621 -0.19202682 -0.07598503
v -0.0039959718 -0.22734176 -0.10951561
v 0.07831726 -0.22395247 0.074567795
v 0.052990112 -0.18968917 0.050987624
v 0.07354675 -0.18974654 -0.00284111
v 0.1081195 -0.2240361 -0.0034723664
v -0.11004089 -0.22854476 0.0026404571
v -0.07693176 -0.19285628 0.0013753509
v -0.053414915 -0.19188827 0.05396904
v -0.07594665 -0.22714095 0.07889015
v -0.07693176 -0.19285628 0.0013753509
v -0.08573181 0.31925064 -0.0033163452
v -0.06284363 0.3329817 0.056216735
v -0.053414915 -0.19188827 0.05396904
v -0.003786621 -0.19202682 -0.07598503
v -0.015682982 0.3633284 -0.09096992
v -0.066195674 0.33182022 -0.06428299
v -0.05637512 -0.19291367 -0.052453384
v 0.07354675 -0.18974654 -0.00284111
v 0.059107054 0.40904862 -0.008211289
v 0.03621887 0.39531723 -0.06774422
v 0.050028685 -0.19071518 -0.05543495
v 0.00040100096 -0.19057602 0.07451912
v -0.010941772 0.36497083 0.07944237
v 0.039572142 0.3964787 0.05275551
v 0.052990112 -0.18968917 0.050987624
v -0.053414915 -0.19188827 0.05396904
v -0.06284363 0.3329817 0.056216735
v -0.010941772 0.36497083 0.07944237
v 0.00040100096 -0.19057602 0.07451912
v -0.05637512 -0.19291367 -0.052453384
v -0.066195674 0.33182022 -0.06428299
v -0.08573181 0.31925064 -0.0033163452
v -0.07693176 -0.19285628 0.0013753509
v 0.050028685 -0.19071518 -0.05543495
v 0.03621887 0.39531723 -0.06774422
v -0.015682982 0.3633284 -0.09096992
v -0.003786621 -0.19202682 -0.07598503
v 0.052990112 -0.18968917 0.050987624
v 0.039572142 0.3964787 0.05275551
v 0.059107054 0.40904862 -0.008211289
v 0.07354675 -0.18974654 -0.00284111
v 0.039572142 0.3964787 0.05275551
v -0.010941772 0.36497083 0.07944237
v -0.06284363 0.3329817 0.056216735
v -0.08573181 0.31925064 -0.0033163452
v 0.059107054 0.40904862 -0.008211289
v -0.066195674 0.33182022 -0.06428299
v 0.03621887 0.39531723 -0.06774422
v -0.015682982 0.3633284 -0.09096992
vt 0.51861334 0.14163683
vt 0.5192607 0.15907742
vt 0.5261787 0.15907742
vt 0.5266078 0.14163683
vt 0.4942616 0.14163683
vt 0.4978309 0.15907742
vt 0.5053133 0.15907742
vt 0.5023328 0.14163683
vt 0.5425354 0.14163683
vt 0.5400833 0.15907742
vt 0.5471403 0.15907742
vt 0.5506075 0.14163683
vt 0.5266078 0.14163683
vt 0.5261787 0.15907742
vt 0.5331276 0.15907742
vt 0.534533 0.14163683
vt 0.51049125 0.14163683
vt 0.51235414 0.15907742
vt 0.5192607 0.15907742
vt 0.51861334 0.14163683
vt 0.5023328 0.14163683
vt 0.5053133 0.15907742
vt 0.51235414 0.15907742
vt 0.51049125 0.14163683
vt 0.5506075 0.14163683
vt 0.5471403 0.15907742
vt 0.55458486 0.15907742
vt 0.5586085 0.14163683
vt 0.534533 0.14163683
vt 0.5331276 0.15907742
vt 0.5400833 0.15907742
vt 0.5425354 0.14163683
vt 0.5400833 0.15907742
vt 0.5394557 0.1631919
vt 0.54581666 0.1631919
vt 0.5471403 0.15907742
vt 0.5261787 0.15907742
vt 0.5261109 0.1631919
vt 0.53280973 0.1631919
vt 0.5331276 0.15907742
vt 0.51235414 0.15907742
vt 0.5128601 0.1631919
vt 0.5194483 0.1631919
vt 0.5192607 0.15907742
vt 0.5053133 0.15907742
vt 0.50653464 0.1631919
vt 0.5128601 0.1631919
vt 0.51235414 0.15907742
vt 0.5471403 0.15907742
vt 0.54581666 0.1631919
vt 0.55160624 0.1631919
vt 0.55458486 0.15907742
vt 0.5331276 0.15907742
vt 0.53280973 0.1631919
vt 0.5394557 0.1631919
vt 0.5400833 0.15907742
vt 0.5192607 0.15907742
vt 0.5194483 0.1631919
vt 0.5261109 0.1631919
vt 0.5261787 0.15907742
vt 0.4978309 0.15907742
vt 0.5007462 0.1631919
vt 0.50653464 0.1631919
vt 0.5053133 0.15907742
vt 0.5007462 0.1631919
vt 0.5002336 0.21302749
vt 0.5067629 0.2141241
vt 0.50653464 0.1631919
vt 0.5394557 0.1631919
vt 0.5386673 0.21704207
vt 0.5447622 0.21458323
vt 0.54581666 0.1631919
vt 0.5261109 0.1631919
vt 0.5259113 0.2206635
vt 0.5326244 0.21961986
vt 0.53280973 0.1631919
vt 0.5128601 0.1631919
vt 0.5129506 0.21673195
vt 0.51912016 0.21946649
vt 0.5194483 0.1631919
vt 0.50653464 0.1631919
vt 0.5067629 0.2141241
vt 0.5129506 0.21673195
vt 0.5128601 0.1631919
vt 0.54581666 0.1631919
vt 0.5447622 0.21458323
vt 0.5512513 0.21362479
vt 0.55160624 0.1631919
vt 0.53280973 0.1631919
vt 0.5326244 0.21961986
vt 0.5386673 0.21704207
vt 0.5394557 0.1631919
vt 0.5194483 0.1631919
vt 0.51912016 0.21946649
vt 0.5259113 0.2206635
vt 0.5261109 0.1631919
vt 0.4433158 0.37962955
vt 0.44787478 0.37507057
vt 0.44787478 0.3686233
vt 0.44331598 0.36406422
vt 0.4368686 0.37962955
vt 0.4368686 0.36406434
vt 0.4323097 0.37507057
vt 0.4323097 0.3686233
vn 0.93413824 0.011591343 0.35672313
vn 0.93413824 0.011591346 0.35672316
vn 0.93413824 0.011591346 0.35672316
vn 0.93413824 0.011591346 0.3567232
vn -0.9128145 -0.007838562 0.4082992
vn -0.9128145 -0.007838561 0.40829924
vn -0.9128145 -0.007838561 0.40829918
vn -0.9128145 -0.007838561 0.40829918
vn -0.40830117 -0.008557795 -0.9128071
vn -0.40830117 -0.008557794 -0.9128071
vn -0.40830117 -0.008557795 -0.9128071
vn -0.40830114 -0.008557794 -0.9128071
vn 0.9128095 0.007838262 -0.40831032
vn 0.9128095 0.007838263 -0.40831032
vn 0.9128095 0.007838262 -0.40831032
vn 0.9128095 0.007838263 -0.40831032
vn 0.40830234 0.008556421 0.91280663
vn 0.4083023 0.008556421 0.91280663
vn 0.40830234 0.00855642 0.91280663
vn 0.40830234 0.008556422 0.91280663
vn -0.3567469 0.00050837995 0.93420094
vn -0.35674694 0.00050837995 0.9342009
vn -0.35674697 0.00050837995 0.9342009
vn -0.35674697 0.00050837995 0.9342009
vn -0.93414074 -0.011594374 -0.35671648
vn -0.93414074 -0.011594374 -0.3567165
vn -0.93414074 -0.011594374 -0.35671648
vn -0.93414074 -0.011594375 -0.3567165
vn 0.35675192 -0.0005083165 -0.9341991
vn 0.35675186 -0.0005083165 -0.9341991
vn 0.35675192 -0.0005083165 -0.9341991
vn 0.35675186 -0.0005083165 -0.9341991
vn -0.31822965 0.65374655 -0.686546
vn -0.3182296 0.6537464 -0.686546
vn -0.31822965 0.65374655 -0.686546
vn -0.31822962 0.6537464 -0.686546
vn 0.6665138 0.6777454 -0.3105164
vn 0.6665138 0.67774546 -0.3105164
vn 0.6665138 0.6777454 -0.31051642
vn 0.6665138 0.6777454 -0.3105164
vn 0.29035336 0.6788039 0.67447776
vn 0.29035336 0.67880386 0.67447776
vn 0.29035333 0.6788039 0.6744777
vn 0.29035336 0.6788039 0.67447776
vn -0.2799226 0.6670172 0.6904574
vn -0.2799226 0.6670172 0.6904574
vn -0.2799226 0.6670172 0.6904574
vn -0.2799226 0.6670172 0.6904574
vn -0.7102596 0.6492978 -0.2719258
vn -0.7102596 0.6492977 -0.2719258
vn -0.7102596 0.6492977 -0.2719258
vn -0.7102596 0.6492977 -0.27192578
vn 0.25204676 0.66553247 -0.70252335
vn 0.25204676 0.66553247 -0.70252335
vn 0.25204676 0.66553247 -0.70252335
vn 0.25204676 0.66553247 -0.70252335
vn 0.6823847 0.68324417 0.25986266
vn 0.6823847 0.68324417 0.25986266
vn 0.6823847 0.68324417 0.25986266
vn 0.6823846 0.68324417 0.25986266
vn -0.6943941 0.6547913 0.29843792
vn -0.6943941 0.65479124 0.2984379
vn -0.6943941 0.6547913 0.29843792
vn -0.6943941 0.6547913 0.29843792
vn -0.92317444 -0.015323045 0.38407573
vn -0.92317444 -0.015323045 0.38407576
vn -0.92317444 -0.015323045 0.3840757
vn -0.92317444 -0.015323045 0.3840757
vn -0.42978564 -0.031044615 -0.90239716
vn -0.42978564 -0.031044615 -0.90239716
vn -0.42978564 -0.031044615 -0.90239716
vn -0.42978564 -0.031044608 -0.90239716
vn 0.9231126 0.01627688 -0.3841853
vn 0.9231126 0.016276877 -0.3841853
vn 0.92311245 0.01627688 -0.3841853
vn 0.9231126 0.016276877 -0.3841853
vn 0.43681848 0.0042015826 0.8995399
vn 0.43681845 0.0042015826 0.8995399
vn 0.43681848 0.0042015826 0.8995399
vn 0.43681845 0.0042015826 0.8995399
vn -0.378931 -0.0134267 0.9253275
vn -0.378931 -0.013426699 0.9253275
vn -0.378931 -0.013426699 0.9253275
vn -0.378931 -0.013426699 0.9253275
vn -0.94308794 -0.022223882 -0.33179975
vn -0.94308805 -0.022223884 -0.33179978
vn -0.94308805 -0.022223884 -0.33179978
vn -0.94308805 -0.022223886 -0.33179978
vn 0.38613656 -0.013359647 -0.9223449
vn 0.3861365 -0.013359647 -0.9223449
vn 0.38613647 -0.013359647 -0.9223449
vn 0.3861365 -0.013359647 -0.9223449
vn 0.9430381 0.023179082 0.33187613
vn 0.9430381 0.02317908 0.3318761
vn 0.9430381 0.02317908 0.33187613
vn 0.9430381 0.023179082 0.33187613
vn -0.52676404 0.849987 0.0064656213
vn -0.52676404 0.849987 0.0064656218
vn -0.52676404 0.849987 0.0064656218
vn -0.5267641 0.849987 0.0064656227
vn -0.52676404 0.849987 0.0064656218
vn -0.52676636 0.8499856 0.006460893
vn -0.5267664 0.8499856 0.006460893
vn -0.5267664 0.8499856 0.006460893
g SunkenShip01_09_0
f 3/3/3 2/2/2 1/1/1
f 4/4/4 3/3/3 1/1/1
f 7/7/7 6/6/6 5/5/5
f 8/8/8 7/7/7 5/5/5
f 11/11/11 10/10/10 9/9/9
f 12/12/12 11/11/11 9/9/9
f 15/15/15 14/14/14 13/13/13
f 16/16/16 15/15/15 13/13/13
f 19/19/19 18/18/18 17/17/17
f 20/20/20 19/19/19 17/17/17
f 23/23/23 22/22/22 21/21/21
f 24/24/24 23/23/23 21/21/21
f 27/27/27 26/26/26 25/25/25
f 28/28/28 27/27/27 25/25/25
f 31/31/31 30/30/30 29/29/29
f 32/32/32 31/31/31 29/29/29
f 35/35/35 34/34/34 33/33/33
f 36/36/36 35/35/35 33/33/33
f 39/39/39 38/38/38 37/37/37
f 40/40/40 39/39/39 37/37/37
f 43/43/43 42/42/42 41/41/41
f 44/44/44 43/43/43 41/41/41
f 47/47/47 46/46/46 45/45/45
f 48/48/48 47/47/47 45/45/45
f 51/51/51 50/50/50 49/49/49
f 52/52/52 51/51/51 49/49/49
f 55/55/55 54/54/54 53/53/53
f 56/56/56 55/55/55 53/53/53
f 59/59/59 58/58/58 57/57/57
f 60/60/60 59/59/59 57/57/57
f 63/63/63 62/62/62 61/61/61
f 64/64/64 63/63/63 61/61/61
f 67/67/67 66/66/66 65/65/65
f 68/68/68 67/67/67 65/65/65
f 71/71/71 70/70/70 69/69/69
f 72/72/72 71/71/71 69/69/69
f 75/75/75 74/74/74 73/73/73
f 76/76/76 75/75/75 73/73/73
f 79/79/79 78/78/78 77/77/77
f 80/80/80 79/79/79 77/77/77
f 83/83/83 82/82/82 81/81/81
f 84/84/84 83/83/83 81/81/81
f 87/87/87 86/86/86 85/85/85
f 88/88/88 87/87/87 85/85/85
f 91/91/91 90/90/90 89/89/89
f 92/92/92 91/91/91 89/89/89
f 95/95/95 94/94/94 93/93/93
f 96/96/96 95/95/95 93/93/93
f 99/99/99 98/98/98 97/97/97
f 100/100/100 99/99/99 97/97/97
f 97/97/97 101/101/101 100/100/100
f 102/102/102 100/100/100 101/101/101
f 102/102/102 101/101/101 103/103/103
f 103/103/103 104/104/104 102/102/102
