g Tile_Decoration_06
v 1 10 1.000001
v -1 10 1.000001
v -1 10 -0.99999917
v 1 10 -0.99999917
v -1 -8.742278E-08 1
v -1 10 1.000001
v 1 10 1.000001
v 1 -8.742278E-08 1
v 1 -8.742278E-08 1
v 1 10 1.000001
v 1 10 -0.99999917
v 1 8.742278E-08 -1
v 1 8.742278E-08 -1
v 1 10 -0.99999917
v -1 10 -0.99999917
v -1 8.742278E-08 -1
v -1 8.742278E-08 -1
v -1 10 -0.99999917
v -1 10 1.000001
v -1 -8.742278E-08 1
v 0.38965848 -0.6463908 -0.10669142
v -0.3985621 -0.6463908 -0.10669142
v -0.3985621 0.031478945 -0.10669136
v 0.38965848 0.031478886 -0.10669136
v 0.38965848 -0.6463907 -0.89491177
v 0.38965848 -0.6463908 -0.10669142
v 0.38965848 0.031478886 -0.10669136
v 0.38965848 0.031478982 -0.89491177
v -0.3985621 -0.6463907 -0.89491177
v 0.38965848 -0.6463907 -0.89491177
v 0.38965848 0.031478982 -0.89491177
v -0.3985621 0.031478982 -0.89491177
v -0.3985621 -0.6463908 -0.10669142
v -0.3985621 -0.6463907 -0.89491177
v -0.3985621 0.031478982 -0.89491177
v -0.3985621 0.031478945 -0.10669136
v -0.72409356 -1.425573 0.21700864
v -0.24489337 -1.425573 0.21700959
v -0.24489313 0.008865466 0.21700948
v -0.72409344 0.008865705 0.21700805
v -0.24489337 -1.425573 0.21700959
v -0.24489337 -1.4255744 0.6632181
v -0.24489313 0.008863539 0.6632179
v -0.24489313 0.008865466 0.21700948
v -0.72409344 0.008865705 0.21700805
v -0.72409356 0.008863897 0.6632174
v -0.72409356 -1.4255744 0.6632181
v -0.72409356 -1.425573 0.21700864
v -0.72409356 0.008863897 0.6632174
v -0.24489313 0.008863539 0.6632179
v -0.24489337 -1.4255744 0.6632181
v -0.72409356 -1.4255744 0.6632181
v 0.9569312 -0.4315812 0.96405363
v 0.9569311 0.055989806 0.9640553
v 0.95693105 0.05598872 0.50593376
v 0.9569311 -0.4315812 0.5059328
v 0.49881 -0.4315812 0.96405363
v 0.4988098 0.055989597 0.9640546
v 0.9569311 0.055989806 0.9640553
v 0.9569312 -0.4315812 0.96405363
v 0.4988098 -0.4315812 0.5059328
v 0.4988098 0.05598878 0.50593376
v 0.4988098 0.055989597 0.9640546
v 0.49881 -0.4315812 0.96405363
v 0.9569311 -0.4315812 0.5059328
v 0.95693105 0.05598872 0.50593376
v 0.4988098 0.05598878 0.50593376
v 0.4988098 -0.4315812 0.5059328
v 0.33060867 -6.2288203 0.37503332
v 0.93085915 -6.2288203 0.37503555
v 0.9308596 -5.444553 0.3750346
v 0.33060867 -5.4445524 0.37503284
v 0.93085915 -6.2288203 0.37503555
v 0.9308598 -6.2288213 0.9339619
v 0.9308603 -5.444554 0.9339601
v 0.9308596 -5.444553 0.3750346
v 0.33060867 -5.4445524 0.37503284
v 0.33060846 -5.444554 0.93395966
v 0.33060846 -6.2288213 0.93396145
v 0.33060867 -6.2288203 0.37503332
v 0.33060846 -5.444554 0.93395966
v 0.9308603 -5.444554 0.9339601
v 0.9308598 -6.2288213 0.9339619
v 0.33060846 -6.2288213 0.93396145
v 0.33060846 -5.444554 0.93395966
v 0.33060867 -5.4445524 0.37503284
v 0.9308596 -5.444553 0.3750346
v 0.9308603 -5.444554 0.9339601
v -0.75740594 -3.0211635 0.08828504
v -0.75740594 -3.021164 -0.8596325
v 0.19051152 -3.021164 -0.8596325
v 0.19051152 -3.0211635 0.08828504
v 0.19051152 -3.0211635 0.08828504
v 0.19051152 -3.969081 0.08828487
v -0.75740594 -3.969081 0.08828487
v -0.75740594 -3.0211635 0.08828504
v 0.19051152 -3.021164 -0.8596325
v 0.19051152 -3.9690814 -0.8596323
v 0.19051152 -3.969081 0.08828487
v 0.19051152 -3.0211635 0.08828504
v -0.75740594 -3.021164 -0.8596325
v -0.75740594 -3.9690814 -0.8596323
v 0.19051152 -3.9690814 -0.8596323
v 0.19051152 -3.021164 -0.8596325
v -0.75740594 -3.0211635 0.08828504
v -0.75740594 -3.969081 0.08828487
v -0.75740594 -3.9690814 -0.8596323
v -0.75740594 -3.021164 -0.8596325
vt 0.99741405 0.9104168
vt 0.9194167 0.9104168
vt 0.91941655 0.9885976
vt 0.9974137 0.9885976
vt 0.8360331 0.5355813
vt 0.8360485 0.89985275
vt 0.91292554 0.8998405
vt 0.9129216 0.53556293
vt 0.91775215 0.53556293
vt 0.9177561 0.8998405
vt 0.99462223 0.8998421
vt 0.99462223 0.53556025
vt 0.66915 0.5356247
vt 0.66916525 0.8999066
vt 0.7460342 0.8998897
vt 0.74602664 0.5356078
vt 0.75430757 0.5356078
vt 0.75431514 0.8998897
vt 0.83121794 0.89985275
vt 0.83120257 0.5355813
vt 0.17165929 0.4967055
vt 0.09465586 0.4967055
vt 0.09465586 0.56193495
vt 0.17165929 0.56193495
vt 0.25217184 0.4967055
vt 0.17490931 0.4967055
vt 0.17490931 0.56193495
vt 0.25217184 0.56193495
vt 0.33150345 0.4967055
vt 0.2544996 0.4967055
vt 0.2544996 0.56193495
vt 0.33150345 0.56193495
vt 0.09145003 0.4967055
vt 0.014706274 0.4967055
vt 0.014706274 0.56193495
vt 0.09145003 0.56193495
vt 0.17349982 0.096323915
vt 0.1734997 0.16051584
vt 0.26385617 0.16051593
vt 0.26385623 0.096323974
vt 0.24122275 0.7279999
vt 0.24122284 0.6606053
vt 0.17630914 0.66060567
vt 0.17630914 0.7279999
vt 0.24122275 0.7280001
vt 0.24122275 0.66060567
vt 0.17630914 0.6606053
vt 0.17630914 0.7279999
vt 0.26385623 0.096323974
vt 0.26385617 0.16051593
vt 0.17349976 0.16051587
vt 0.17349982 0.096323855
vt 0.080684565 0.08646334
vt 0.080684684 0.0024699378
vt 0.0032390617 0.0024699378
vt 0.003239181 0.08646334
vt 0.1634014 0.08646334
vt 0.1634014 0.0024699378
vt 0.08595588 0.0024699378
vt 0.08595576 0.08646334
vt 0.24265337 0.08647331
vt 0.24265325 0.0024799095
vt 0.16520786 0.0024799095
vt 0.16520786 0.08647331
vt 0.32285506 0.08657522
vt 0.32285482 0.0024799095
vt 0.24540944 0.0024799095
vt 0.24540956 0.08647331
vt 0.17349982 0.096323915
vt 0.1734997 0.16051584
vt 0.26385617 0.16051593
vt 0.26385623 0.096323974
vt 0.24122275 0.7279999
vt 0.24122284 0.6606053
vt 0.17630914 0.66060567
vt 0.17630914 0.7279999
vt 0.24122275 0.7280001
vt 0.24122275 0.66060567
vt 0.17630914 0.6606053
vt 0.17630914 0.7279999
vt 0.26385623 0.096323974
vt 0.26385617 0.16051593
vt 0.17349976 0.16051587
vt 0.17349982 0.096323855
vt 0.08895986 0.09095263
vt 0.08895986 0.17054495
vt 0.16609749 0.17054495
vt 0.16609749 0.09095263
vt 0.17186622 0.6513604
vt 0.0944677 0.6513604
vt 0.09446764 0.7296697
vt 0.17186627 0.7296697
vt 0.17165929 0.6484019
vt 0.17165929 0.5725537
vt 0.09465586 0.5725537
vt 0.09465586 0.6484019
vt 0.25217184 0.6484019
vt 0.25217184 0.5725537
vt 0.17490931 0.5725537
vt 0.17490931 0.6484019
vt 0.33150345 0.6484019
vt 0.33150345 0.5725537
vt 0.2544996 0.5725537
vt 0.2544996 0.6484019
vt 0.09145003 0.6484019
vt 0.09145003 0.5725537
vt 0.014706274 0.5725537
vt 0.014706274 0.6484019
vn -0 1 0
vn -0 1 0
vn -0 1 0
vn -0 1 0
vn -0 0 1
vn -0 0 1
vn -0 0 1
vn -0 0 1
vn 1 0 0
vn 1 0 0
vn 1 0 0
vn 1 0 0
vn -0 0 -1
vn -0 0 -1
vn -0 0 -1
vn -0 0 -1
vn -1 0 0
vn -1 0 0
vn -1 0 0
vn -1 0 0
vn -0 0 1
vn -0 0 1
vn -0 0 1
vn -0 0 1
vn 1 0 0
vn 1 0 0
vn 1 0 0
vn 1 0 0
vn -0 0 -1
vn -0 0 -1
vn -0 0 -1
vn -0 0 -1
vn -1 0 0
vn -1 0 0
vn -1 0 0
vn -1 0 0
vn -0 0 -1
vn -0 0 -1
vn -0 0 -1
vn -0 0 -1
vn 1 0 0
vn 1 0 0
vn 1 0 0
vn 1 0 0
vn -1 0 0
vn -1 0 0
vn -1 0 0
vn -1 0 0
vn -0 0 1
vn -0 0 1
vn -0 0 1
vn -0 0 1
vn 1 0 0
vn 1 0 0
vn 1 0 0
vn 1 0 0
vn -0 0 1
vn -0 0 1
vn -0 0 1
vn -0 0 1
vn -1 0 0
vn -1 0 0
vn -1 0 0
vn -1 0 0
vn -0 0 -1
vn -0 0 -1
vn -0 0 -1
vn -0 0 -1
vn -0 0 -1
vn -0 0 -1
vn -0 0 -1
vn -0 0 -1
vn 1 0 0
vn 1 0 0
vn 1 0 0
vn 1 0 0
vn -1 0 0
vn -1 0 0
vn -1 0 0
vn -1 0 0
vn -0 0 1
vn -0 0 1
vn -0 0 1
vn -0 0 1
vn -0 1 0
vn -0 1 0
vn -0 1 0
vn -0 1 0
vn -0 1 0
vn -0 1 0
vn -0 1 0
vn -0 1 0
vn -0 0 1
vn -0 0 1
vn -0 0 1
vn -0 0 1
vn 1 0 0
vn 1 0 0
vn 1 0 0
vn 1 0 0
vn -0 0 -1
vn -0 0 -1
vn -0 0 -1
vn -0 0 -1
vn -1 0 0
vn -1 0 0
vn -1 0 0
vn -1 0 0
g Tile_Decoration_06_0
f 3/3/3 2/2/2 1/1/1
f 4/4/4 3/3/3 1/1/1
f 7/7/7 6/6/6 5/5/5
f 8/8/8 7/7/7 5/5/5
f 11/11/11 10/10/10 9/9/9
f 12/12/12 11/11/11 9/9/9
f 15/15/15 14/14/14 13/13/13
f 16/16/16 15/15/15 13/13/13
f 19/19/19 18/18/18 17/17/17
f 20/20/20 19/19/19 17/17/17
f 23/23/23 22/22/22 21/21/21
f 24/24/24 23/23/23 21/21/21
f 27/27/27 26/26/26 25/25/25
f 28/28/28 27/27/27 25/25/25
f 31/31/31 30/30/30 29/29/29
f 32/32/32 31/31/31 29/29/29
f 35/35/35 34/34/34 33/33/33
f 36/36/36 35/35/35 33/33/33
f 39/39/39 38/38/38 37/37/37
f 40/40/40 39/39/39 37/37/37
f 43/43/43 42/42/42 41/41/41
f 44/44/44 43/43/43 41/41/41
f 47/47/47 46/46/46 45/45/45
f 48/48/48 47/47/47 45/45/45
f 51/51/51 50/50/50 49/49/49
f 52/52/52 51/51/51 49/49/49
f 55/55/55 54/54/54 53/53/53
f 56/56/56 55/55/55 53/53/53
f 59/59/59 58/58/58 57/57/57
f 60/60/60 59/59/59 57/57/57
f 63/63/63 62/62/62 61/61/61
f 64/64/64 63/63/63 61/61/61
f 67/67/67 66/66/66 65/65/65
f 68/68/68 67/67/67 65/65/65
f 71/71/71 70/70/70 69/69/69
f 72/72/72 71/71/71 69/69/69
f 75/75/75 74/74/74 73/73/73
f 76/76/76 75/75/75 73/73/73
f 79/79/79 78/78/78 77/77/77
f 80/80/80 79/79/79 77/77/77
f 83/83/83 82/82/82 81/81/81
f 84/84/84 83/83/83 81/81/81
f 87/87/87 86/86/86 85/85/85
f 88/88/88 87/87/87 85/85/85
f 91/91/91 90/90/90 89/89/89
f 92/92/92 91/91/91 89/89/89
f 95/95/95 94/94/94 93/93/93
f 96/96/96 95/95/95 93/93/93
f 99/99/99 98/98/98 97/97/97
f 100/100/100 99/99/99 97/97/97
f 103/103/103 102/102/102 101/101/101
f 104/104/104 103/103/103 101/101/101
f 107/107/107 106/106/106 105/105/105
f 108/108/108 107/107/107 105/105/105
